<svg width="753" height="409" viewBox="0 0 753 409" fill="none" xmlns="http://www.w3.org/2000/svg">
<rect width="753" height="407" fill="white"/>
<path opacity="0.2" fill-rule="evenodd" clip-rule="evenodd" d="M752.692 389.079C752.65 400.044 743.784 408.928 732.827 409H436C448.567 373.991 501.062 303.974 610.504 303.974C719.946 303.974 750.897 249.517 752.692 222.288V389.079Z" fill="#79A4E2"/>
<path opacity="0.2" fill-rule="evenodd" clip-rule="evenodd" d="M211.324 0C208.649 18.1119 192.257 69.0439 124.729 92.1467C59.2112 114.562 16.0501 106.853 8.04366e-06 99.6083L1.61944e-06 20C7.28074e-07 8.95433 8.95432 1.9166e-05 20 1.81199e-05L211.324 0Z" fill="#6EA3E6"/>
<path d="M175.83 198.545H179.511V209.523H179.656L187.199 198.545H190.429V216H186.739V205.014H186.611L179.026 216H175.83V198.545ZM202.521 208.006V210.861H195.685V208.006H202.521ZM196.879 202.909V216H193.41V202.909H196.879ZM204.796 202.909V216H201.353V202.909H204.796ZM213.877 220.449V198.545H217.499V220.449H213.877ZM213.877 216.256C212.871 216.256 211.954 216.094 211.124 215.77C210.295 215.44 209.579 214.977 208.977 214.381C208.374 213.778 207.908 213.065 207.579 212.241C207.249 211.412 207.085 210.5 207.085 209.506C207.085 208.5 207.249 207.585 207.579 206.761C207.908 205.932 208.374 205.219 208.977 204.622C209.579 204.02 210.295 203.557 211.124 203.233C211.954 202.903 212.871 202.739 213.877 202.739H214.55V216.256H213.877ZM213.877 213.426H214.278V205.568H213.877C213.388 205.568 212.954 205.67 212.573 205.875C212.192 206.08 211.871 206.361 211.61 206.719C211.349 207.071 211.15 207.486 211.013 207.963C210.883 208.44 210.817 208.955 210.817 209.506C210.817 210.233 210.937 210.895 211.175 211.491C211.414 212.082 211.763 212.554 212.224 212.906C212.684 213.253 213.235 213.426 213.877 213.426ZM217.499 216.256H216.826V202.739H217.499C218.505 202.739 219.423 202.903 220.252 203.233C221.082 203.557 221.798 204.02 222.4 204.622C223.002 205.219 223.468 205.932 223.798 206.761C224.127 207.585 224.292 208.5 224.292 209.506C224.292 210.5 224.127 211.412 223.798 212.241C223.468 213.065 223.002 213.778 222.4 214.381C221.798 214.977 221.082 215.44 220.252 215.77C219.423 216.094 218.505 216.256 217.499 216.256ZM217.499 213.426C217.988 213.426 218.423 213.327 218.803 213.128C219.184 212.923 219.505 212.642 219.766 212.284C220.028 211.926 220.227 211.511 220.363 211.04C220.499 210.562 220.567 210.051 220.567 209.506C220.567 208.773 220.445 208.111 220.201 207.52C219.962 206.923 219.616 206.449 219.161 206.097C218.707 205.744 218.153 205.568 217.499 205.568H217.099V213.426H217.499ZM232.582 216.256C231.259 216.256 230.114 215.974 229.148 215.412C228.188 214.844 227.446 214.054 226.923 213.043C226.401 212.026 226.139 210.847 226.139 209.506C226.139 208.153 226.401 206.972 226.923 205.96C227.446 204.943 228.188 204.153 229.148 203.591C230.114 203.023 231.259 202.739 232.582 202.739C233.906 202.739 235.048 203.023 236.009 203.591C236.974 204.153 237.719 204.943 238.241 205.96C238.764 206.972 239.026 208.153 239.026 209.506C239.026 210.847 238.764 212.026 238.241 213.043C237.719 214.054 236.974 214.844 236.009 215.412C235.048 215.974 233.906 216.256 232.582 216.256ZM232.599 213.443C233.202 213.443 233.705 213.273 234.108 212.932C234.511 212.585 234.815 212.114 235.02 211.517C235.23 210.92 235.335 210.241 235.335 209.48C235.335 208.719 235.23 208.04 235.02 207.443C234.815 206.847 234.511 206.375 234.108 206.028C233.705 205.682 233.202 205.509 232.599 205.509C231.991 205.509 231.48 205.682 231.065 206.028C230.656 206.375 230.347 206.847 230.136 207.443C229.932 208.04 229.83 208.719 229.83 209.48C229.83 210.241 229.932 210.92 230.136 211.517C230.347 212.114 230.656 212.585 231.065 212.932C231.48 213.273 231.991 213.443 232.599 213.443ZM241.386 220.909V202.909H244.966V205.108H245.128C245.287 204.756 245.517 204.398 245.818 204.034C246.125 203.665 246.523 203.358 247.011 203.114C247.506 202.864 248.119 202.739 248.852 202.739C249.807 202.739 250.688 202.989 251.494 203.489C252.301 203.983 252.946 204.73 253.429 205.73C253.912 206.724 254.153 207.972 254.153 209.472C254.153 210.932 253.918 212.165 253.446 213.17C252.98 214.17 252.344 214.929 251.537 215.446C250.736 215.957 249.838 216.213 248.844 216.213C248.139 216.213 247.54 216.097 247.045 215.864C246.557 215.631 246.156 215.338 245.844 214.986C245.531 214.628 245.293 214.267 245.128 213.903H245.017V220.909H241.386ZM244.94 209.455C244.94 210.233 245.048 210.912 245.264 211.491C245.48 212.071 245.793 212.523 246.202 212.847C246.611 213.165 247.108 213.324 247.693 213.324C248.284 213.324 248.784 213.162 249.193 212.838C249.602 212.509 249.912 212.054 250.122 211.474C250.338 210.889 250.446 210.216 250.446 209.455C250.446 208.699 250.341 208.034 250.131 207.46C249.92 206.886 249.611 206.437 249.202 206.114C248.793 205.79 248.29 205.628 247.693 205.628C247.102 205.628 246.602 205.784 246.193 206.097C245.79 206.409 245.48 206.852 245.264 207.426C245.048 208 244.94 208.676 244.94 209.455ZM264.312 211.986L267.858 202.909H270.619L265.514 216H263.102L258.116 202.909H260.869L264.312 211.986ZM260.043 202.909V216H256.574V202.909H260.043ZM268.761 216V202.909H272.188V216H268.761ZM278.729 216.247C277.893 216.247 277.149 216.102 276.496 215.812C275.842 215.517 275.325 215.082 274.945 214.509C274.57 213.929 274.382 213.207 274.382 212.344C274.382 211.616 274.516 211.006 274.783 210.511C275.05 210.017 275.413 209.619 275.874 209.318C276.334 209.017 276.857 208.79 277.442 208.636C278.033 208.483 278.652 208.375 279.3 208.312C280.061 208.233 280.675 208.159 281.141 208.091C281.607 208.017 281.945 207.909 282.155 207.767C282.365 207.625 282.47 207.415 282.47 207.136V207.085C282.47 206.545 282.3 206.128 281.959 205.832C281.624 205.537 281.146 205.389 280.527 205.389C279.874 205.389 279.354 205.534 278.967 205.824C278.581 206.108 278.325 206.466 278.2 206.898L274.842 206.625C275.013 205.83 275.348 205.142 275.848 204.562C276.348 203.977 276.993 203.528 277.783 203.216C278.578 202.898 279.499 202.739 280.544 202.739C281.271 202.739 281.967 202.824 282.632 202.994C283.303 203.165 283.896 203.429 284.413 203.787C284.936 204.145 285.348 204.605 285.649 205.168C285.95 205.724 286.101 206.392 286.101 207.17V216H282.658V214.185H282.555C282.345 214.594 282.064 214.955 281.712 215.267C281.359 215.574 280.936 215.815 280.442 215.991C279.947 216.162 279.376 216.247 278.729 216.247ZM279.768 213.741C280.303 213.741 280.774 213.636 281.183 213.426C281.592 213.21 281.913 212.92 282.146 212.557C282.379 212.193 282.496 211.781 282.496 211.321V209.932C282.382 210.006 282.226 210.074 282.027 210.136C281.834 210.193 281.615 210.247 281.371 210.298C281.126 210.344 280.882 210.386 280.638 210.426C280.393 210.46 280.172 210.491 279.973 210.52C279.547 210.582 279.175 210.682 278.857 210.818C278.538 210.955 278.291 211.139 278.115 211.372C277.939 211.599 277.851 211.884 277.851 212.224C277.851 212.719 278.03 213.097 278.388 213.358C278.751 213.614 279.212 213.741 279.768 213.741ZM300.364 202.909V213.494H302.452V220.21H298.923V216H288.918V202.909H292.386V213.145H296.938V202.909H300.364ZM308.16 211.21L312.873 202.909H316.452V216H312.992V207.673L308.296 216H304.691V202.909H308.16V211.21ZM327.033 216V205.756H324.579C323.914 205.756 323.408 205.909 323.062 206.216C322.715 206.523 322.545 206.886 322.55 207.307C322.545 207.733 322.71 208.094 323.045 208.389C323.386 208.679 323.886 208.824 324.545 208.824H328.244V211.278H324.545C323.425 211.278 322.457 211.108 321.638 210.767C320.82 210.426 320.19 209.952 319.746 209.344C319.303 208.73 319.085 208.017 319.09 207.205C319.085 206.352 319.303 205.605 319.746 204.963C320.19 204.315 320.823 203.812 321.647 203.455C322.477 203.091 323.454 202.909 324.579 202.909H330.417V216H327.033ZM318.715 216L322.354 209.182H325.823L322.192 216H318.715ZM338.793 216V202.909H350.239V216H346.77V205.764H342.219V216H338.793ZM359.051 216.256C357.727 216.256 356.582 215.974 355.616 215.412C354.656 214.844 353.915 214.054 353.392 213.043C352.869 212.026 352.608 210.847 352.608 209.506C352.608 208.153 352.869 206.972 353.392 205.96C353.915 204.943 354.656 204.153 355.616 203.591C356.582 203.023 357.727 202.739 359.051 202.739C360.375 202.739 361.517 203.023 362.477 203.591C363.443 204.153 364.188 204.943 364.71 205.96C365.233 206.972 365.494 208.153 365.494 209.506C365.494 210.847 365.233 212.026 364.71 213.043C364.188 214.054 363.443 214.844 362.477 215.412C361.517 215.974 360.375 216.256 359.051 216.256ZM359.068 213.443C359.67 213.443 360.173 213.273 360.577 212.932C360.98 212.585 361.284 212.114 361.489 211.517C361.699 210.92 361.804 210.241 361.804 209.48C361.804 208.719 361.699 208.04 361.489 207.443C361.284 206.847 360.98 206.375 360.577 206.028C360.173 205.682 359.67 205.509 359.068 205.509C358.46 205.509 357.949 205.682 357.534 206.028C357.125 206.375 356.815 206.847 356.605 207.443C356.401 208.04 356.298 208.719 356.298 209.48C356.298 210.241 356.401 210.92 356.605 211.517C356.815 212.114 357.125 212.585 357.534 212.932C357.949 213.273 358.46 213.443 359.068 213.443ZM373.41 216V202.909H377.04V207.989H378.063L381.626 202.909H385.887L381.259 209.403L385.938 216H381.626L378.396 211.355H377.04V216H373.41ZM389.925 220.909C389.464 220.909 389.033 220.872 388.629 220.798C388.232 220.73 387.902 220.642 387.641 220.534L388.459 217.824C388.885 217.955 389.268 218.026 389.609 218.037C389.956 218.048 390.254 217.969 390.504 217.798C390.76 217.628 390.967 217.338 391.126 216.929L391.339 216.375L386.643 202.909H390.462L393.172 212.523H393.308L396.044 202.909H399.888L394.8 217.415C394.555 218.119 394.223 218.733 393.803 219.256C393.388 219.784 392.862 220.19 392.226 220.474C391.589 220.764 390.822 220.909 389.925 220.909ZM401.746 220.909V202.909H405.325V205.108H405.487C405.646 204.756 405.876 204.398 406.178 204.034C406.484 203.665 406.882 203.358 407.371 203.114C407.865 202.864 408.479 202.739 409.212 202.739C410.166 202.739 411.047 202.989 411.854 203.489C412.661 203.983 413.305 204.73 413.788 205.73C414.271 206.724 414.513 207.972 414.513 209.472C414.513 210.932 414.277 212.165 413.805 213.17C413.339 214.17 412.703 214.929 411.896 215.446C411.095 215.957 410.197 216.213 409.203 216.213C408.499 216.213 407.899 216.097 407.405 215.864C406.916 215.631 406.516 215.338 406.203 214.986C405.891 214.628 405.652 214.267 405.487 213.903H405.376V220.909H401.746ZM405.3 209.455C405.3 210.233 405.408 210.912 405.624 211.491C405.839 212.071 406.152 212.523 406.561 212.847C406.97 213.165 407.467 213.324 408.053 213.324C408.643 213.324 409.143 213.162 409.553 212.838C409.962 212.509 410.271 212.054 410.482 211.474C410.697 210.889 410.805 210.216 410.805 209.455C410.805 208.699 410.7 208.034 410.49 207.46C410.28 206.886 409.97 206.437 409.561 206.114C409.152 205.79 408.649 205.628 408.053 205.628C407.462 205.628 406.962 205.784 406.553 206.097C406.149 206.409 405.839 206.852 405.624 207.426C405.408 208 405.3 208.676 405.3 209.455ZM422.848 216.256C421.507 216.256 420.354 215.972 419.388 215.403C418.428 214.83 417.689 214.034 417.172 213.017C416.661 212 416.405 210.83 416.405 209.506C416.405 208.165 416.663 206.989 417.18 205.977C417.703 204.96 418.445 204.168 419.405 203.599C420.365 203.026 421.507 202.739 422.831 202.739C423.973 202.739 424.973 202.946 425.831 203.361C426.689 203.776 427.368 204.358 427.868 205.108C428.368 205.858 428.643 206.739 428.695 207.75H425.268C425.172 207.097 424.916 206.571 424.501 206.173C424.092 205.77 423.555 205.568 422.891 205.568C422.328 205.568 421.837 205.722 421.416 206.028C421.001 206.33 420.678 206.77 420.445 207.349C420.212 207.929 420.095 208.631 420.095 209.455C420.095 210.29 420.209 211 420.436 211.585C420.669 212.17 420.996 212.616 421.416 212.923C421.837 213.23 422.328 213.384 422.891 213.384C423.305 213.384 423.678 213.298 424.007 213.128C424.342 212.957 424.618 212.71 424.834 212.386C425.055 212.057 425.2 211.662 425.268 211.202H428.695C428.638 212.202 428.365 213.082 427.876 213.844C427.393 214.599 426.726 215.19 425.874 215.616C425.021 216.043 424.013 216.256 422.848 216.256ZM434.752 216.247C433.917 216.247 433.173 216.102 432.519 215.812C431.866 215.517 431.349 215.082 430.968 214.509C430.593 213.929 430.406 213.207 430.406 212.344C430.406 211.616 430.539 211.006 430.806 210.511C431.073 210.017 431.437 209.619 431.897 209.318C432.357 209.017 432.88 208.79 433.465 208.636C434.056 208.483 434.675 208.375 435.323 208.312C436.085 208.233 436.698 208.159 437.164 208.091C437.63 208.017 437.968 207.909 438.178 207.767C438.388 207.625 438.494 207.415 438.494 207.136V207.085C438.494 206.545 438.323 206.128 437.982 205.832C437.647 205.537 437.17 205.389 436.55 205.389C435.897 205.389 435.377 205.534 434.991 205.824C434.604 206.108 434.349 206.466 434.224 206.898L430.866 206.625C431.036 205.83 431.371 205.142 431.871 204.562C432.371 203.977 433.016 203.528 433.806 203.216C434.602 202.898 435.522 202.739 436.567 202.739C437.295 202.739 437.991 202.824 438.656 202.994C439.326 203.165 439.92 203.429 440.437 203.787C440.96 204.145 441.371 204.605 441.673 205.168C441.974 205.724 442.124 206.392 442.124 207.17V216H438.681V214.185H438.579C438.369 214.594 438.087 214.955 437.735 215.267C437.383 215.574 436.96 215.815 436.465 215.991C435.971 216.162 435.4 216.247 434.752 216.247ZM435.792 213.741C436.326 213.741 436.798 213.636 437.207 213.426C437.616 213.21 437.937 212.92 438.17 212.557C438.403 212.193 438.519 211.781 438.519 211.321V209.932C438.406 210.006 438.249 210.074 438.05 210.136C437.857 210.193 437.638 210.247 437.394 210.298C437.15 210.344 436.906 210.386 436.661 210.426C436.417 210.46 436.195 210.491 435.996 210.52C435.57 210.582 435.198 210.682 434.88 210.818C434.562 210.955 434.315 211.139 434.138 211.372C433.962 211.599 433.874 211.884 433.874 212.224C433.874 212.719 434.053 213.097 434.411 213.358C434.775 213.614 435.235 213.741 435.792 213.741ZM452.68 211.986L456.225 202.909H458.987L453.881 216H451.469L446.484 202.909H449.237L452.68 211.986ZM448.41 202.909V216H444.941V202.909H448.41ZM457.129 216V202.909H460.555V216H457.129ZM468.986 216V198.545H480.747V201.588H472.676V205.747H480.142V208.79H472.676V212.957H480.781V216H468.986ZM486.647 202.909L489.05 207.486L491.513 202.909H495.238L491.445 209.455L495.34 216H491.633L489.05 211.474L486.511 216H482.761L486.647 209.455L482.897 202.909H486.647ZM501.057 216.247C500.222 216.247 499.477 216.102 498.824 215.812C498.17 215.517 497.653 215.082 497.273 214.509C496.898 213.929 496.71 213.207 496.71 212.344C496.71 211.616 496.844 211.006 497.111 210.511C497.378 210.017 497.741 209.619 498.202 209.318C498.662 209.017 499.185 208.79 499.77 208.636C500.361 208.483 500.98 208.375 501.628 208.312C502.389 208.233 503.003 208.159 503.469 208.091C503.935 208.017 504.273 207.909 504.483 207.767C504.693 207.625 504.798 207.415 504.798 207.136V207.085C504.798 206.545 504.628 206.128 504.287 205.832C503.952 205.537 503.474 205.389 502.855 205.389C502.202 205.389 501.682 205.534 501.295 205.824C500.909 206.108 500.653 206.466 500.528 206.898L497.17 206.625C497.341 205.83 497.676 205.142 498.176 204.562C498.676 203.977 499.321 203.528 500.111 203.216C500.906 202.898 501.827 202.739 502.872 202.739C503.599 202.739 504.295 202.824 504.96 202.994C505.631 203.165 506.224 203.429 506.741 203.787C507.264 204.145 507.676 204.605 507.977 205.168C508.278 205.724 508.429 206.392 508.429 207.17V216H504.986V214.185H504.884C504.673 214.594 504.392 214.955 504.04 215.267C503.688 215.574 503.264 215.815 502.77 215.991C502.276 216.162 501.705 216.247 501.057 216.247ZM502.097 213.741C502.631 213.741 503.102 213.636 503.511 213.426C503.92 213.21 504.241 212.92 504.474 212.557C504.707 212.193 504.824 211.781 504.824 211.321V209.932C504.71 210.006 504.554 210.074 504.355 210.136C504.162 210.193 503.943 210.247 503.699 210.298C503.455 210.344 503.21 210.386 502.966 210.426C502.722 210.46 502.5 210.491 502.301 210.52C501.875 210.582 501.503 210.682 501.185 210.818C500.866 210.955 500.619 211.139 500.443 211.372C500.267 211.599 500.179 211.884 500.179 212.224C500.179 212.719 500.358 213.097 500.716 213.358C501.08 213.614 501.54 213.741 502.097 213.741ZM511.246 216V202.909H514.706V205.219H514.859C515.132 204.452 515.587 203.847 516.223 203.403C516.859 202.96 517.621 202.739 518.507 202.739C519.405 202.739 520.169 202.963 520.8 203.412C521.43 203.855 521.851 204.457 522.061 205.219H522.197C522.464 204.469 522.947 203.869 523.646 203.42C524.351 202.966 525.183 202.739 526.143 202.739C527.365 202.739 528.357 203.128 529.118 203.906C529.885 204.679 530.268 205.776 530.268 207.196V216H526.646V207.912C526.646 207.185 526.453 206.639 526.067 206.276C525.68 205.912 525.197 205.73 524.618 205.73C523.959 205.73 523.445 205.94 523.075 206.361C522.706 206.776 522.521 207.324 522.521 208.006V216H519.001V207.835C519.001 207.193 518.817 206.682 518.447 206.301C518.084 205.92 517.604 205.73 517.007 205.73C516.604 205.73 516.24 205.832 515.916 206.037C515.598 206.236 515.345 206.517 515.158 206.881C514.97 207.239 514.876 207.659 514.876 208.142V216H511.246Z" fill="url(#paint0_linear_25_50)"/>
<defs>
<linearGradient id="paint0_linear_25_50" x1="308.03" y1="192" x2="334.327" y2="251.928" gradientUnits="userSpaceOnUse">
<stop stop-color="#5955B3"/>
<stop offset="1" stop-color="#6563CE"/>
</linearGradient>
</defs>
</svg>
