<svg width="751" height="408" viewBox="0 0 751 408" fill="none" xmlns="http://www.w3.org/2000/svg">
<rect width="751" height="408" rx="5" fill="white"/>
<path opacity="0.2" fill-rule="evenodd" clip-rule="evenodd" d="M750.693 388.036C750.674 399.024 741.793 407.934 730.815 408H434.842C447.376 373.077 499.731 303.231 608.882 303.231C718.034 303.231 748.903 248.907 750.693 221.745L750.693 388C750.693 388.012 750.693 388.024 750.693 388.036Z" fill="#79A4E2"/>
<path opacity="0.2" fill-rule="evenodd" clip-rule="evenodd" d="M210.763 0C208.095 18.0677 191.746 68.875 124.398 91.9214C59.0545 114.281 16.0082 106.592 0.000500549 99.3648L0.000494162 20C0.000493273 8.95433 8.95479 1.91637e-05 20.0005 1.81148e-05L210.763 0Z" fill="#89AFFF"/>
<path d="M655.3 212.762C657.133 217.709 657.81 228.704 645.861 233.1" stroke="black" stroke-width="2" stroke-linecap="round"/>
<path d="M538.691 162.051C533.652 164.01 524.711 170.821 529.251 182.388" stroke="black" stroke-width="2" stroke-linecap="round"/>
<path d="M663.999 211.249C666.097 217.676 666.329 232.504 650.469 240.4" stroke="black" stroke-width="2" stroke-linecap="round"/>
<path d="M535.133 155.208C528.775 157.957 517.168 167.637 521.603 184.358" stroke="black" stroke-width="2" stroke-linecap="round"/>
<path d="M580.912 222.876C574.477 220.077 570.891 213.662 571.565 207.222C571.85 204.496 574.944 203.336 577.476 204.437L597.436 213.117C599.968 214.219 601.127 217.227 599.211 219.244C594.683 224.009 587.348 225.674 580.912 222.876Z" fill="black"/>
<path d="M634.335 108.318C636.517 109.267 638.131 110.936 639.013 112.905C640.452 116.119 636.086 117.421 632.895 115.842C631.814 115.307 630.713 114.843 629.636 114.45C626.24 113.21 624.349 108.973 627.849 107.929C629.914 107.313 632.21 107.393 634.335 108.318Z" fill="black"/>
<path d="M569.739 145.018C568.248 148.23 567.735 149.831 564.9 155.939C561.587 163.077 558.953 166.367 545.689 170.758C537.814 173.364 535.974 180.601 541.1 183.868C541.123 183.882 541.148 183.895 541.173 183.906L637.701 225.885C637.744 225.904 637.79 225.917 637.838 225.923C643.106 226.656 648.946 221.68 644.885 213.896C640.806 206.077 639.876 198.117 643.145 189.967C645.623 183.789 651.641 169.817 653.924 163.422C661.212 137.978 641.111 122.755 630.149 118.323C618.177 113.117 608.082 113.093 604.531 113.731C595.367 114.652 588.784 118.158 583.698 123.093" stroke="black" stroke-width="2" stroke-linecap="round"/>
<path d="M604.883 130.738L553.907 122.357C552.914 122.193 552.329 123.435 553.088 124.097L576.118 144.192C576.192 144.256 576.271 144.311 576.365 144.341C578.54 145.052 586.2 142.188 590.661 140.288C591.219 140.05 591.86 140.353 592.036 140.934C592.944 143.931 593.981 146.672 594.607 148.206C594.781 148.635 595.251 148.826 595.478 148.423C596.427 146.736 596.594 141.305 596.538 137.823C596.53 137.307 596.909 136.87 597.411 136.751C600.602 135.996 604.698 133.417 606.484 132.113" stroke="black" stroke-width="2" stroke-linecap="round"/>
<path d="M591.509 140.013C585.937 137.454 571.842 131.044 560.036 125.878" stroke="black" stroke-width="2" stroke-linecap="round"/>
<path d="M594.96 148.933L584.597 142.983" stroke="black" stroke-width="2" stroke-linecap="round"/>
<path d="M592.663 134.811L578.461 130.346" stroke="black" stroke-width="2" stroke-linecap="round"/>
<path d="M305.5 61.08H316.18V65.64H305.5V61.08ZM311.06 53.16H323.98V57.76H311.06V53.16ZM325.82 54.92C328.3 64.6 333.58 72.56 342.58 76C341.5 76.96 339.94 78.96 339.22 80.28C329.74 75.96 324.7 67.28 321.78 55.8L325.82 54.92ZM336.78 56.32L341.22 59.56C337.78 62.6 333.66 65.96 330.46 68.04L327.06 65.24C330.22 63 334.34 59.28 336.78 56.32ZM321.1 53.16H326.3V77.04C326.3 79.6 325.74 80.92 324.06 81.72C322.34 82.48 319.94 82.56 316.54 82.56C316.34 81.16 315.62 79.04 314.9 77.72C316.94 77.84 319.46 77.84 320.14 77.84C320.86 77.8 321.1 77.6 321.1 76.96V53.16ZM314.18 49.08L316.58 45.16C321.26 46.16 327.94 48.32 331.38 50.08L328.82 54.56C325.58 52.72 319.06 50.32 314.18 49.08ZM314.38 61.08H315.34L316.18 60.92L319.42 62.28C317.5 70.64 313.3 76.88 308.38 80.2C307.62 79.16 305.66 77.32 304.5 76.56C309.26 73.76 312.98 68.44 314.38 62V61.08ZM354.42 58.72V75.36H349.74V63.16H344.98V58.72H354.42ZM345.7 49.84L348.74 46.68C350.9 48.2 354.22 50.52 355.86 51.88L352.66 55.48C351.14 53.96 347.94 51.52 345.7 49.84ZM352.7 73.56C353.94 73.56 354.9 74.6 357.06 75.8C359.62 77.4 363.22 77.64 367.58 77.64C371.74 77.64 378.42 77.28 382.58 76.68C382.02 77.96 381.26 80.28 381.22 81.6C378.18 81.8 371.7 82 367.38 82C362.42 82 359.18 81.56 356.42 79.96C354.78 79 353.46 77.8 352.58 77.8C351.34 77.8 349.42 80.28 347.7 82.68L344.62 78.32C347.34 75.56 350.5 73.56 352.7 73.56ZM356.18 56.2H381.3V60.48H356.18V56.2ZM358.78 47.28H378.78V51.52H358.78V47.28ZM362.1 58.68H366.82C366.46 66.92 365.3 72.52 357.58 75.76C357.1 74.6 355.82 72.76 354.78 71.88C361.26 69.44 361.82 65.24 362.1 58.68ZM369.78 58.76H374.3V69.44C374.3 70.6 374.38 70.76 375.06 70.76C375.34 70.76 376.5 70.76 376.82 70.76C377.58 70.76 377.74 70.2 377.86 66.28C378.7 67 380.62 67.76 381.82 68.04C381.42 73.52 380.26 74.96 377.34 74.96C376.62 74.96 374.98 74.96 374.3 74.96C370.58 74.96 369.78 73.6 369.78 69.48V58.76ZM385.7 50.6H421.38V55.2H385.7V50.6ZM398.74 63.56H419.7V68H398.74V63.56ZM397.18 77.16H421.22V81.6H397.18V77.16ZM406.9 56.92H411.74V79.52H406.9V56.92ZM398.3 45L403.3 46.2C400.34 55.84 395.3 65.56 386.74 71.4C386.26 70.04 385.14 67.92 384.42 66.76C391.66 62.04 396.22 53.08 398.3 45ZM390.3 61.76H395.14V82.52H390.3V61.76ZM426.7 72.24C426.46 71.36 425.78 69.24 425.22 68.04C426.3 67.84 427.18 66.96 428.46 65.48C429.86 64.04 433.94 58.56 436.66 53.12L440.5 55.6C437.5 60.8 433.54 66.08 429.7 69.92V70.04C429.7 70.04 426.7 71.4 426.7 72.24ZM426.7 72.24L426.42 68.52L428.42 67.08L439.3 65.28C439.14 66.52 439.1 68.32 439.18 69.28C429.38 71.2 427.74 71.68 426.7 72.24ZM426.42 62.48C426.22 61.56 425.42 59.32 424.9 58.08C425.74 57.84 426.42 57 427.3 55.72C428.18 54.52 430.94 49.68 432.42 45.12L436.86 47.24C434.86 51.8 431.86 56.68 428.98 60.08V60.2C428.98 60.2 426.42 61.64 426.42 62.48ZM426.42 62.48L426.3 59.12L428.3 57.8L435.54 57.28C435.26 58.48 435.1 60.16 435.06 61.12C428.58 61.8 427.22 62.08 426.42 62.48ZM425.38 76.2C428.78 75.32 434.02 73.68 439.02 72.12L439.74 76.04C435.14 77.68 430.26 79.4 426.38 80.76L425.38 76.2ZM440.74 54.24L459.82 51.36L460.62 55.56L441.54 58.6L440.74 54.24ZM439.9 62.88L460.9 59.08L461.66 63.28L440.66 67.2L439.9 62.88ZM446.34 44.88H451.1C450.82 60.96 453.94 77.92 457.78 77.92C458.54 77.92 458.9 76.92 459.06 73.68C460.02 74.8 461.38 75.84 462.46 76.36C461.66 81.28 460.42 82.6 457.22 82.6C449.02 82.6 446.42 62.96 446.34 44.88ZM451.74 47.92L454.54 45.4C456.18 46.36 458.46 47.88 459.62 48.88L456.74 51.72C455.62 50.64 453.38 49 451.74 47.92ZM457.98 64.96L461.98 66.8C457.42 74 449.9 79 441.38 82.04C440.78 80.84 439.58 79.16 438.46 78.08C446.54 75.72 454.02 71.28 457.98 64.96Z" fill="url(#paint0_linear_1357_7332)"/>
<path d="M70.992 175.04H85.008V176.208H70.992V175.04ZM75.952 180.112H84.384V181.232H75.952V180.112ZM75.328 185.776H85.008V186.912H75.328V185.776ZM79.568 177.024H80.768V186.384H79.568V177.024ZM76.256 172.56L77.488 172.864C76.368 176.528 74.416 180.256 71.232 182.544C71.104 182.224 70.8 181.712 70.608 181.44C73.488 179.408 75.36 175.856 76.256 172.56ZM73.088 179.152H74.288V187.232H73.088V179.152ZM89.52 184.24C90.032 184.24 90.416 184.64 91.28 185.104C92.288 185.664 93.696 185.744 95.424 185.744C97.248 185.744 99.76 185.632 101.392 185.44C101.232 185.792 101.04 186.416 101.008 186.8C99.744 186.88 97.008 186.96 95.392 186.96C93.504 186.96 92.128 186.8 91.024 186.224C90.368 185.856 89.856 185.408 89.504 185.408C88.96 185.408 88.192 186.24 87.408 187.152L86.56 185.984C87.6 184.992 88.704 184.24 89.52 184.24ZM86.96 173.888L87.904 173.264C88.752 173.968 89.776 175.008 90.24 175.728L89.232 176.432C88.8 175.712 87.808 174.656 86.96 173.888ZM90.016 178.592V184.848H88.848V179.712H86.784V178.592H90.016ZM90.72 175.072H101.12V176.208H90.72V175.072ZM98.08 175.296L99.28 175.536C98.016 180.176 95.488 182.944 91.36 184.576C91.232 184.32 90.864 183.776 90.624 183.52C94.624 182.144 97.008 179.568 98.08 175.296ZM94.368 172.832L95.504 172.48C95.968 173.184 96.496 174.16 96.72 174.768L95.52 175.2C95.328 174.576 94.816 173.568 94.368 172.832ZM91.2 177.824L92.048 177.088C94.88 179.04 98.64 181.856 100.528 183.648L99.584 184.528C97.824 182.736 94.112 179.824 91.2 177.824ZM105.648 177.312V179.344H114.512V177.312H105.648ZM105.648 174.288V176.288H114.512V174.288H105.648ZM104.464 173.2H115.76V180.432H104.464V173.2ZM102.864 185.712H117.152V186.832H102.864V185.712ZM103.936 182.272H116.288V183.408H103.936V182.272ZM109.472 173.888H110.624V180.256H110.688V186.352H109.408V180.256H109.472V173.888ZM125.44 172.64L126.624 172.896C126 175.456 124.992 177.92 123.76 179.552C123.552 179.344 123.072 178.96 122.8 178.784C123.984 177.296 124.912 174.992 125.44 172.64ZM125.168 179.424L126.336 179.664C125.84 181.76 124.976 183.792 124 185.136C123.76 184.944 123.248 184.624 122.96 184.48C123.952 183.248 124.72 181.344 125.168 179.424ZM125.296 175.648H132.496V176.768H124.832L125.296 175.648ZM127.776 176.112H128.976V185.824C128.976 186.512 128.832 186.864 128.384 187.056C127.952 187.264 127.264 187.296 126.272 187.296C126.192 186.96 126.016 186.432 125.84 186.08C126.592 186.112 127.28 186.096 127.504 186.096C127.712 186.096 127.776 186.032 127.776 185.824V176.112ZM130.128 179.664L131.2 179.312C132.128 180.992 132.928 183.2 133.2 184.688L132.064 185.072C131.808 183.6 131.008 181.344 130.128 179.664ZM132.144 175.648H132.304L132.512 175.616L133.344 175.792C133.12 176.976 132.848 178.352 132.64 179.216L131.6 179.024C131.776 178.224 131.984 176.88 132.144 175.824V175.648ZM122.224 172.624L123.36 172.976C122.304 175.696 120.656 178.4 118.928 180.192C118.8 179.92 118.464 179.28 118.24 179.008C119.824 177.456 121.328 175.056 122.224 172.624ZM120.56 176.752L121.68 175.616L121.712 175.632V187.264H120.56V176.752ZM145.936 174.064H147.184V185.568C147.184 186.432 146.976 186.848 146.352 187.04C145.712 187.248 144.592 187.264 143.008 187.264C142.928 186.912 142.688 186.32 142.496 185.968C143.792 186.032 145.088 186.016 145.472 186C145.824 185.984 145.936 185.872 145.936 185.536V174.064ZM136.528 177.264H137.696V184.512H136.528V177.264ZM137.024 177.264H143.088V183.232H137.024V182.08H141.888V178.4H137.024V177.264ZM134.88 173.696H149.152V174.912H134.88V173.696ZM155.824 175.088L156.896 174.56C157.968 175.728 158.992 177.312 159.456 178.4L158.304 179.024C157.888 177.92 156.848 176.272 155.824 175.088ZM150.56 184.304C152.192 183.664 154.752 182.576 157.152 181.52L157.424 182.688C155.2 183.712 152.768 184.784 150.992 185.552L150.56 184.304ZM160.16 182.192L161.088 181.408C162.608 182.912 164.592 184.992 165.536 186.304L164.512 187.248C163.616 185.92 161.696 183.76 160.16 182.192ZM162.384 173.392L163.68 173.52C162.864 180.912 160.992 184.992 155.392 187.328C155.216 187.072 154.736 186.544 154.432 186.288C159.968 184.272 161.664 180.352 162.384 173.392ZM152.512 173.44L153.744 173.392L154.016 183.968L152.784 184.016L152.512 173.44ZM166.528 181.04C167.968 180.688 170.128 180.08 172.16 179.488L172.304 180.592C170.432 181.152 168.416 181.76 166.88 182.192L166.528 181.04ZM166.72 175.792H172.144V176.928H166.72V175.792ZM169.024 172.576H170.192V185.76C170.192 186.432 170.016 186.768 169.616 186.944C169.184 187.136 168.528 187.168 167.424 187.168C167.376 186.864 167.2 186.368 167.056 186.048C167.808 186.08 168.496 186.064 168.704 186.064C168.928 186.064 169.024 185.984 169.024 185.76V172.576ZM172.336 177.088L180.928 176.192L181.056 177.312L172.464 178.24L172.336 177.088ZM176.8 173.552L177.712 172.944C178.512 173.616 179.472 174.592 179.92 175.248L178.96 175.936C178.544 175.264 177.584 174.256 176.8 173.552ZM174.496 172.624H175.712C175.984 179.808 177.28 185.568 179.664 185.808C180.096 185.84 180.352 184.96 180.512 183.2C180.752 183.44 181.28 183.744 181.536 183.856C181.168 186.464 180.528 187.264 179.712 187.216C176.144 186.944 174.88 180.784 174.496 172.624ZM179.248 178.56L180.24 179.168C178.8 182.304 175.92 185.328 172.8 186.736C172.576 186.416 172.192 186.032 171.856 185.792C175.04 184.528 177.92 181.584 179.248 178.56ZM182.8 173.616H191.008V174.704H182.8V173.616ZM183.28 181.232H190.544V182.32H183.28V181.232ZM186.336 179.328H187.52V185.6L186.336 185.776V179.328ZM182.624 185.6C184.704 185.376 187.952 184.944 191.04 184.528L191.072 185.648C188.096 186.064 184.944 186.512 182.816 186.8L182.624 185.6ZM182.768 177.968C184.592 177.904 187.408 177.776 190.16 177.632L190.128 178.688C187.504 178.848 184.768 178.992 182.864 179.104L182.768 177.968ZM187.872 176.016L188.768 175.52C189.744 176.64 190.864 178.144 191.328 179.104L190.368 179.68C189.904 178.704 188.832 177.152 187.872 176.016ZM185.568 174.192L186.864 174.448C186.304 175.856 185.616 177.616 185.024 178.72L183.968 178.464C184.528 177.328 185.216 175.456 185.568 174.192ZM191.712 174.496H192.864V183.36H191.712V174.496ZM195.488 173.024H196.672V185.664C196.672 186.496 196.48 186.864 195.952 187.056C195.424 187.264 194.448 187.296 193.152 187.296C193.088 186.96 192.912 186.4 192.736 186.032C193.808 186.08 194.8 186.064 195.12 186.064C195.408 186.048 195.488 185.968 195.488 185.68V173.024ZM198.704 179.104H213.344V180.416H198.704V179.104ZM218.432 172.512L219.632 172.816C218.752 175.184 217.328 177.408 215.84 178.848C215.6 178.64 215.104 178.24 214.8 178.08C216.32 176.752 217.648 174.672 218.432 172.512ZM218.176 174.496H228.496V175.664H217.6L218.176 174.496ZM217.392 178.128H228.144V179.248H218.592V183.04H217.392V178.128ZM214.752 182.432H229.248V183.6H214.752V182.432ZM222.192 175.104H223.424V187.296H222.192V175.104ZM238.208 174.016L239.408 174.064C239.152 179.904 238.592 184.336 236.304 187.312C236.096 187.12 235.536 186.752 235.248 186.592C237.52 183.904 238.048 179.488 238.208 174.016ZM236.384 173.6H242.704V174.736H236.384V173.6ZM241.648 177.968H243.936V179.04H241.296L241.648 177.968ZM243.6 177.968H243.84L244.064 177.92L244.8 178.224C243.808 182.896 241.344 185.808 238.352 187.312C238.192 187.04 237.76 186.592 237.504 186.4C240.448 185.04 242.768 182.384 243.6 178.224V177.968ZM239.088 177.776C240.176 181.488 242.4 184.864 245.456 186.288C245.184 186.512 244.816 186.96 244.624 187.264C241.472 185.632 239.28 182.128 238.064 178.08L239.088 177.776ZM242.192 173.6H243.424C242.96 175.392 242.304 177.664 241.872 179.04H240.672C241.168 177.616 241.808 175.312 242.192 173.6ZM230.976 183.168C230.912 182.928 230.736 182.384 230.592 182.08C230.944 182.016 231.328 181.6 231.84 181.008C232.384 180.416 234.128 178.128 235.264 175.92L236.272 176.528C234.96 178.752 233.36 180.96 231.792 182.544V182.56C231.792 182.56 230.976 182.928 230.976 183.168ZM230.976 183.168L230.88 182.16L231.456 181.696L236.064 180.416C236.048 180.72 236.08 181.184 236.128 181.44C231.872 182.704 231.328 182.912 230.976 183.168ZM230.88 179.248C230.816 178.992 230.624 178.432 230.496 178.112C230.784 178.048 231.072 177.664 231.44 177.12C231.808 176.576 233.008 174.496 233.696 172.544L234.816 173.072C233.952 175.072 232.768 177.136 231.6 178.592V178.624C231.6 178.624 230.88 179.008 230.88 179.248ZM230.88 179.248L230.848 178.352L231.424 177.984L234.432 177.664C234.368 177.968 234.336 178.416 234.336 178.656C231.6 179.008 231.152 179.12 230.88 179.248ZM230.656 185.104C232.032 184.672 234.112 183.904 236.128 183.152L236.352 184.208C234.464 184.944 232.464 185.712 230.96 186.288L230.656 185.104ZM249.648 177.968H257.568V179.024H249.648V177.968ZM246.96 181.616H261.104V182.736H246.96V181.616ZM253.392 180.448H254.624V185.856C254.624 186.576 254.432 186.928 253.824 187.104C253.248 187.28 252.32 187.296 250.864 187.296C250.784 186.96 250.544 186.464 250.352 186.144C251.584 186.176 252.672 186.176 252.992 186.16C253.312 186.144 253.392 186.064 253.392 185.824V180.448ZM257.2 177.968H257.504L257.76 177.904L258.528 178.496C257.44 179.6 255.76 180.704 254.24 181.36C254.096 181.152 253.776 180.832 253.568 180.656C254.912 180.08 256.448 179.024 257.2 178.208V177.968ZM247.28 175.232H260.832V178.8H259.648V176.32H248.416V178.8H247.28V175.232ZM258.72 172.672L259.968 173.088C259.296 174.08 258.432 175.152 257.76 175.856L256.816 175.456C257.456 174.704 258.272 173.52 258.72 172.672ZM248.368 173.232L249.376 172.752C250 173.424 250.656 174.336 250.928 174.976L249.856 175.488C249.6 174.88 248.96 173.92 248.368 173.232ZM252.48 172.88L253.52 172.496C254.064 173.248 254.64 174.288 254.832 174.96L253.728 175.392C253.536 174.72 253.008 173.664 252.48 172.88ZM265.328 175.68H276.416V176.848H265.328V175.68ZM264.624 180.368H275.84V181.52H264.624V180.368ZM262.88 185.6H277.168V186.768H262.88V185.6ZM269.408 172.576H270.64V186.192H269.408V172.576ZM265.808 172.832L267.04 173.104C266.336 175.584 265.216 177.952 263.936 179.488C263.696 179.28 263.152 178.928 262.848 178.768C264.16 177.344 265.2 175.12 265.808 172.832ZM281.648 177.968H289.568V179.024H281.648V177.968ZM278.96 181.616H293.104V182.736H278.96V181.616ZM285.392 180.448H286.624V185.856C286.624 186.576 286.432 186.928 285.824 187.104C285.248 187.28 284.32 187.296 282.864 187.296C282.784 186.96 282.544 186.464 282.352 186.144C283.584 186.176 284.672 186.176 284.992 186.16C285.312 186.144 285.392 186.064 285.392 185.824V180.448ZM289.2 177.968H289.504L289.76 177.904L290.528 178.496C289.44 179.6 287.76 180.704 286.24 181.36C286.096 181.152 285.776 180.832 285.568 180.656C286.912 180.08 288.448 179.024 289.2 178.208V177.968ZM279.28 175.232H292.832V178.8H291.648V176.32H280.416V178.8H279.28V175.232ZM290.72 172.672L291.968 173.088C291.296 174.08 290.432 175.152 289.76 175.856L288.816 175.456C289.456 174.704 290.272 173.52 290.72 172.672ZM280.368 173.232L281.376 172.752C282 173.424 282.656 174.336 282.928 174.976L281.856 175.488C281.6 174.88 280.96 173.92 280.368 173.232ZM284.48 172.88L285.52 172.496C286.064 173.248 286.64 174.288 286.832 174.96L285.728 175.392C285.536 174.72 285.008 173.664 284.48 172.88ZM295.888 173.728H307.44V174.88H295.888V173.728ZM297.68 176.992L298.496 176.208C299.92 177.168 301.824 178.544 302.768 179.424L301.92 180.352C301.024 179.44 299.12 178 297.68 176.992ZM307.008 173.728H308.208C308.208 173.728 308.208 174.24 308.208 174.416C308.096 182.832 307.968 185.536 307.36 186.352C307.008 186.896 306.608 187.072 306.032 187.12C305.408 187.184 304.368 187.152 303.44 187.104C303.424 186.768 303.264 186.272 303.04 185.952C304.16 186.032 305.168 186.032 305.584 186.032C305.888 186.032 306.064 185.984 306.24 185.776C306.768 185.184 306.896 182.064 307.008 174V173.728ZM295.648 183.856C297.952 183.152 301.744 181.888 305.248 180.688L305.456 181.808C302.16 182.976 298.528 184.224 296.064 185.072L295.648 183.856ZM317.936 173.856C316.608 175.872 313.904 178.416 311.056 180.08C310.88 179.808 310.544 179.376 310.272 179.12C313.184 177.472 315.968 174.768 317.232 172.608H318.48C320.224 175.088 323.152 177.568 325.776 178.912C325.472 179.216 325.184 179.632 324.96 179.984C322.352 178.48 319.408 175.952 317.936 173.856ZM317.296 177.856H318.56V187.296H317.296V177.856ZM333.168 173.056H334.496C334.368 175.568 334.128 183.552 327.504 187.152C327.296 186.848 326.896 186.48 326.528 186.208C333.056 182.88 333.056 175.184 333.168 173.056ZM334.448 173.376C334.496 174.624 334.96 183.12 341.552 186.144C341.2 186.416 340.832 186.816 340.64 187.152C333.856 183.904 333.408 174.96 333.296 173.488L334.448 173.376ZM343.952 179.12H348.784V180.096H343.952V179.12ZM343.296 174.24H348.528V175.296H343.296V174.24ZM342.656 176.864H350.416V177.92H342.656V176.864ZM345.408 172.56H346.544V177.424H345.408V172.56ZM349.664 172.928L350.784 173.264C349.168 177.232 346.528 180.24 343.184 182.144C343.008 181.904 342.576 181.44 342.32 181.232C345.664 179.52 348.224 176.624 349.664 172.928ZM346.048 181.264H347.184V186C347.184 186.624 347.056 186.928 346.624 187.104C346.176 187.264 345.488 187.28 344.464 187.28C344.4 186.976 344.24 186.528 344.08 186.224C344.88 186.24 345.552 186.24 345.776 186.24C346 186.224 346.048 186.176 346.048 186V181.264ZM348.544 179.12H348.784L349.008 179.056L349.712 179.568C348.96 180.496 347.856 181.488 346.912 182.112C346.768 181.904 346.48 181.632 346.288 181.472C347.104 180.928 348.064 180 348.544 179.312V179.12ZM342.576 183.04C344.528 182.864 347.568 182.56 350.48 182.24V183.296C347.696 183.6 344.752 183.92 342.72 184.144L342.576 183.04ZM351.664 175.552H357.36V176.672H351.664V175.552ZM352.096 172.56L353.296 172.752C352.752 175.76 351.792 178.608 350.464 180.432C350.256 180.224 349.744 179.808 349.472 179.616C350.768 177.952 351.616 175.312 352.096 172.56ZM355.168 176.16L356.384 176.288C355.616 181.824 353.92 185.248 349.888 187.328C349.76 187.056 349.408 186.512 349.168 186.256C352.976 184.464 354.512 181.248 355.168 176.16ZM352.272 176.496C352.976 180.912 354.496 184.704 357.488 186.272C357.2 186.512 356.816 186.976 356.64 187.296C353.504 185.456 351.984 181.536 351.184 176.672L352.272 176.496ZM361.248 179.344H370.032V180.368H362.448V187.296H361.248V179.344ZM369.632 179.344H370.832V186C370.832 186.656 370.672 186.96 370.16 187.12C369.664 187.28 368.832 187.28 367.536 187.28C367.472 186.992 367.296 186.576 367.152 186.288C368.08 186.32 369.024 186.32 369.28 186.304C369.552 186.288 369.632 186.224 369.632 186V179.344ZM361.968 181.584H370.128V182.48H361.968V181.584ZM358.96 174.128H373.04V175.2H358.96V174.128ZM363.408 174.784L364.72 175.168C364.016 176.144 363.12 177.248 362.432 177.968L361.472 177.6C362.128 176.848 362.944 175.632 363.408 174.784ZM367.872 175.792L368.816 175.184C370.24 176.096 372.016 177.44 372.896 178.4L371.888 179.12C371.056 178.16 369.328 176.752 367.872 175.792ZM359.6 177.248C362.448 177.232 367.008 177.136 371.28 177.04L371.216 178.032C367.04 178.176 362.56 178.304 359.648 178.368L359.6 177.248ZM361.968 183.728H370.08V184.608H361.968V183.728ZM365.344 172.56H366.576V174.656H365.344V172.56ZM374.768 174.464H381.248V175.6H374.768V174.464ZM378.272 176.928H379.424V187.216H378.272V176.928ZM374.624 183.344C376.32 183.072 378.928 182.608 381.424 182.16L381.488 183.232C379.152 183.696 376.688 184.192 374.896 184.528L374.624 183.344ZM375.28 180.72C375.216 180.464 375.024 179.904 374.88 179.584C375.168 179.504 375.408 179.008 375.712 178.288C376.032 177.616 377.008 174.944 377.456 172.512L378.704 172.784C378.08 175.376 377.072 178.112 376.112 180.016V180.032C376.112 180.032 375.28 180.464 375.28 180.72ZM375.28 180.72V179.728L375.936 179.392H381.28V180.496H376.512C375.904 180.496 375.408 180.592 375.28 180.72ZM383.408 172.688H384.512V176.128C384.512 179.2 384.32 183.84 381.664 187.36C381.472 187.136 381.056 186.784 380.768 186.592C383.328 183.36 383.408 178.912 383.408 176.128V172.688ZM381.6 175.952H386.816V177.072H381.6V175.952ZM386.24 175.952H387.328V185.36C387.328 185.856 387.456 185.904 387.664 185.904H388.048C388.352 185.904 388.4 185.488 388.432 183.664C388.736 183.904 389.136 184.064 389.44 184.144C389.328 186.272 389.184 186.912 388.096 186.912H387.456C386.672 186.912 386.24 186.624 386.24 185.488V175.952ZM402.688 177.696L403.68 177.392C404.464 178.768 405.2 180.56 405.424 181.728L404.368 182.08C404.16 180.912 403.456 179.072 402.688 177.696ZM395.312 174.832H405.248V175.936H395.312V174.832ZM399.616 172.576H400.784V175.472H399.616V172.576ZM398.336 175.504H399.44V177.664C399.44 180.064 399.168 182.912 396.496 185.12C396.288 184.88 395.856 184.544 395.568 184.384C398.112 182.352 398.336 179.792 398.336 177.648V175.504ZM401.072 175.504H402.192V183.712C402.192 184.32 402.064 184.624 401.664 184.816C401.248 185.008 400.624 185.024 399.632 185.024C399.584 184.704 399.424 184.24 399.264 183.936C399.984 183.952 400.608 183.952 400.816 183.952C401.008 183.952 401.072 183.888 401.072 183.696V175.504ZM396.288 177.344L397.376 177.552C396.944 179.264 396.208 180.928 395.36 182.016C395.136 181.856 394.64 181.568 394.368 181.456C395.232 180.432 395.904 178.912 396.288 177.344ZM394.016 180.016V184.688H392.832V181.12H390.736V180.016H394.016ZM394.016 184.048C394.784 185.216 396.192 185.776 398.08 185.856C399.84 185.904 403.504 185.872 405.424 185.744C405.264 186.016 405.088 186.576 405.024 186.944C403.248 187.008 399.872 187.04 398.08 186.992C395.984 186.896 394.528 186.336 393.488 185.072C392.752 185.76 391.968 186.448 391.152 187.152L390.528 185.952C391.248 185.44 392.16 184.736 392.944 184.048H394.016ZM391.424 173.504L392.224 172.768C393.184 173.264 394.336 174.064 394.88 174.688L394.048 175.504C393.52 174.88 392.4 174.048 391.424 173.504ZM390.8 176.768L391.6 175.984C392.592 176.448 393.808 177.216 394.4 177.84L393.568 178.688C393.008 178.08 391.824 177.264 390.8 176.768ZM72.096 194.136H76.96V204.6H72.096V203.512H75.84V195.208H72.096V194.136ZM71.376 194.136H72.496V205.88H71.376V194.136ZM72.016 198.584H76.432V199.656H72.016V198.584ZM73.824 191.528L75.12 191.768C74.8 192.76 74.4 193.864 74.08 194.584L73.12 194.344C73.392 193.576 73.696 192.36 73.824 191.528ZM79.232 194.088H84.144V195.208H79.232V194.088ZM83.728 194.088H84.848C84.848 194.088 84.848 194.536 84.848 194.712C84.592 202.056 84.368 204.536 83.728 205.32C83.376 205.784 83.008 205.928 82.448 205.976C81.904 206.04 80.96 206.008 80.064 205.96C80.032 205.608 79.888 205.112 79.664 204.792C80.704 204.872 81.664 204.888 82.032 204.888C82.352 204.888 82.544 204.84 82.72 204.632C83.248 204.056 83.504 201.4 83.728 194.344V194.088ZM79.568 191.496L80.72 191.768C80.128 194.152 79.184 196.504 78.08 198.024C77.872 197.832 77.376 197.496 77.088 197.336C78.176 195.928 79.056 193.72 79.568 191.496ZM78.832 198.248L79.76 197.704C80.672 198.84 81.776 200.392 82.288 201.336L81.264 201.976C80.784 201 79.712 199.416 78.832 198.248ZM89.664 195.624H90.864V206.264H89.664V195.624ZM90.288 195.624H98.352V199.72H90.288V198.664H97.152V196.68H90.288V195.624ZM90.256 201.256H99.28V206.2H98.096V202.328H90.256V201.256ZM90.288 204.488H98.768V205.56H90.288V204.488ZM93.328 191.592H94.592V193.96H93.328V191.592ZM87.248 192.968H100.72V196.44H99.504V194.104H88.416V196.44H87.248V192.968ZM102.832 194.328H117.152V195.48H102.832V194.328ZM108.064 198.12H114.464V199.272H108.064V198.12ZM114.032 198.12H115.264C115.264 198.12 115.248 198.52 115.216 198.696C114.896 203.304 114.576 205.08 113.952 205.72C113.584 206.104 113.184 206.216 112.576 206.264C112.016 206.296 110.96 206.264 109.872 206.216C109.856 205.864 109.68 205.368 109.456 205.032C110.608 205.144 111.744 205.144 112.16 205.144C112.512 205.144 112.736 205.128 112.912 204.968C113.424 204.504 113.744 202.712 114.016 198.328L114.032 198.12ZM107.792 194.968H109.12C108.88 199.208 108.416 204.008 103.536 206.344C103.36 206.04 102.976 205.608 102.672 205.368C107.344 203.256 107.616 198.792 107.792 194.968ZM109.312 191.528H110.544V194.824H109.312V191.528ZM127.392 196.968H133.344V198.088H127.392V196.968ZM118.976 193.24H126.032V194.264H118.976V193.24ZM118.8 199.592H126.112V200.632H118.8V199.592ZM118.752 196.904H126.224V197.928H118.752V196.904ZM130.368 197.416H131.536V206.2H130.368V197.416ZM121.936 191.624H123.104V193.768H121.936V191.624ZM121.936 197.736H123.104V206.264H121.936V197.736ZM126.816 192.872L128.288 193.32C128.272 193.448 128.176 193.512 127.952 193.544V198.488C127.952 200.888 127.664 204.136 125.408 206.36C125.264 206.088 124.832 205.688 124.544 205.528C126.592 203.512 126.816 200.744 126.816 198.472V192.872ZM132.176 191.752L133.136 192.632C131.632 193.304 129.392 193.848 127.472 194.184C127.408 193.928 127.248 193.512 127.104 193.272C128.896 192.888 131.008 192.328 132.176 191.752ZM122.992 200.936C123.504 201.288 125.248 202.712 125.648 203.08L124.944 203.976C124.432 203.384 122.928 201.976 122.336 201.48L122.992 200.936ZM119.936 194.552L120.88 194.344C121.216 195.048 121.488 195.992 121.568 196.6L120.56 196.872C120.512 196.248 120.256 195.288 119.936 194.552ZM124.032 194.312L125.12 194.552C124.816 195.352 124.48 196.248 124.192 196.84L123.232 196.616C123.52 195.976 123.856 194.984 124.032 194.312ZM121.952 200.12L122.816 200.456C122 202.232 120.528 204.12 119.248 205.112C119.056 204.84 118.704 204.456 118.432 204.264C119.728 203.416 121.184 201.688 121.952 200.12ZM135.424 195.176H136.624V206.296H135.424V195.176ZM135.68 192.344L136.56 191.768C137.264 192.392 138.112 193.272 138.512 193.88L137.568 194.536C137.216 193.928 136.384 193 135.68 192.344ZM139.648 192.36H148.08V193.464H139.648V192.36ZM147.392 192.36H148.576V204.744C148.576 205.432 148.432 205.784 147.984 205.976C147.536 206.168 146.784 206.184 145.664 206.184C145.6 205.88 145.456 205.368 145.28 205.064C146.096 205.08 146.848 205.08 147.088 205.064C147.328 205.064 147.392 204.984 147.392 204.744V192.36ZM137.792 195.32H146V196.28H137.792V195.32ZM139.744 197.592H143.984V198.504H139.744V197.592ZM139.776 199.864H144.016V200.76H139.776V199.864ZM143.76 196.056H144.848V204.92H143.76V196.056ZM138.96 196.024H140.048V202.68H138.96V196.024ZM137.344 202.52C139.632 202.408 143.184 202.168 146.512 201.928V202.888C143.28 203.144 139.84 203.4 137.488 203.56L137.344 202.52ZM156.08 204.84H165.344V205.944H156.08V204.84ZM158.32 196.456H163.552V197.544H158.32V196.456ZM158.336 200.616H163.568V201.704H158.336V200.616ZM157.696 192.36H163.952V205.4H162.752V193.464H158.832V205.4H157.696V192.36ZM151.152 202.088C151.104 201.864 150.912 201.32 150.784 201.032C151.136 200.952 151.536 200.552 152.064 199.976C152.64 199.4 154.448 197.144 155.68 194.952L156.64 195.544C155.248 197.768 153.584 199.928 151.952 201.48V201.496C151.952 201.496 151.152 201.848 151.152 202.088ZM151.152 202.088L151.104 201.16L151.68 200.744L156.416 199.864C156.384 200.184 156.4 200.632 156.416 200.856C152.064 201.752 151.488 201.896 151.152 202.088ZM151.04 198.248C150.976 198.008 150.8 197.432 150.672 197.128C150.96 197.048 151.248 196.68 151.616 196.136C152.016 195.592 153.264 193.512 153.984 191.56L155.088 192.072C154.176 194.072 152.976 196.152 151.776 197.592V197.624C151.776 197.624 151.04 198.008 151.04 198.248ZM151.04 198.248L151.024 197.368L151.584 197L154.784 196.664C154.736 196.952 154.704 197.4 154.704 197.64C151.776 198.008 151.312 198.12 151.04 198.248ZM150.768 204.088C152.144 203.8 154.256 203.304 156.288 202.824L156.416 203.832C154.496 204.344 152.496 204.84 150.992 205.24L150.768 204.088ZM168.512 206.712L168.144 205.88C169.456 205.336 170.176 204.52 170.176 203.32L169.872 201.96L170.736 203.176C170.512 203.464 170.192 203.544 169.888 203.544C169.232 203.544 168.688 203.16 168.688 202.392C168.688 201.64 169.264 201.24 169.904 201.24C170.8 201.24 171.28 201.976 171.28 203.096C171.28 204.824 170.192 206.136 168.512 206.712ZM182.816 197.048H197.184V198.168H182.816V197.048ZM184.224 193.752H193.488V194.856H184.224V193.752ZM188.288 191.56H189.52V197.64H188.288V191.56ZM194.144 199.736L195.184 200.616C193.232 201.496 190.4 202.328 187.904 202.904C187.84 202.648 187.664 202.232 187.52 201.992C189.92 201.4 192.624 200.536 194.144 199.736ZM195.376 192.184L196.464 192.744C193.264 197.176 188.496 200.552 183.376 202.664C183.184 202.392 182.768 201.896 182.512 201.64C187.712 199.704 192.432 196.376 195.376 192.184ZM187.12 199.544H188.352V204.232C188.352 204.824 188.576 204.952 189.824 204.952C190.4 204.952 193.344 204.952 194.112 204.952C195.2 204.952 195.36 204.632 195.472 202.744C195.776 202.952 196.288 203.128 196.624 203.192C196.432 205.48 196 206.056 194.176 206.056C193.712 206.056 190.24 206.056 189.792 206.056C187.712 206.056 187.12 205.688 187.12 204.232V199.544ZM204.128 192.408H213.168V193.512H204.128V192.408ZM207.952 192.856H209.088V206.248H207.952V192.856ZM204.688 195.48H211.872V196.568H205.808V203.976H204.688V195.48ZM211.424 195.48H212.544V202.616C212.544 203.176 212.448 203.48 212.064 203.672C211.68 203.864 211.12 203.864 210.24 203.864C210.192 203.56 210.032 203.112 209.888 202.808C210.496 202.824 211.024 202.824 211.2 202.824C211.376 202.824 211.424 202.76 211.424 202.584V195.48ZM202.064 191.592H203.184V197.992C203.184 201.16 202.88 204.088 200.48 206.264C200.288 206.024 199.872 205.64 199.584 205.464C201.808 203.496 202.064 200.856 202.064 197.992V191.592ZM199.504 193.4H200.592V201.176H199.504V193.4ZM222.928 203.096H227.888V204.248H222.928V203.096ZM222.48 193.064H228.448V205.464H227.232V194.2H223.648V205.576H222.48V193.064ZM217.936 192.92H219.136V206.264H217.936V192.92ZM214.8 196.296H221.936V197.416H214.8V196.296ZM217.872 196.696L218.72 197C217.968 199.48 216.496 202.44 215.056 203.976C214.928 203.64 214.624 203.16 214.416 202.872C215.76 201.496 217.232 198.904 217.872 196.696ZM221.008 191.72L221.824 192.648C220.112 193.288 217.488 193.752 215.296 194.008C215.232 193.736 215.088 193.336 214.944 193.064C217.072 192.776 219.616 192.296 221.008 191.72ZM219.04 197.736C219.552 198.248 221.408 200.424 221.824 200.952L221.088 201.928C220.576 201.08 219.024 199.032 218.432 198.328L219.04 197.736ZM239.792 191.608H240.96V193.992H239.792V191.608ZM235.952 193.416H245.12V196.328H244V194.472H237.024V196.344H235.952V193.416ZM237.216 196.248H243.824V197.304H237.216V196.248ZM236.128 199.128H245.168V200.216H236.128V199.128ZM238.272 199.608H239.44C239.248 203.032 238.672 205.16 235.52 206.296C235.408 206.024 235.088 205.592 234.848 205.368C237.696 204.408 238.144 202.6 238.272 199.608ZM241.232 199.512H242.368V204.52C242.368 204.92 242.432 204.984 242.768 204.984C242.912 204.984 243.664 204.984 243.856 204.984C244.208 204.984 244.272 204.728 244.304 202.984C244.528 203.192 245.008 203.384 245.328 203.448C245.216 205.528 244.928 206.072 243.984 206.072C243.744 206.072 242.816 206.072 242.592 206.072C241.504 206.072 241.232 205.72 241.232 204.536V199.512ZM231.28 192.264H235.056V193.352H232.368V206.296H231.28V192.264ZM234.688 192.264H234.896L235.088 192.216L235.856 192.68C235.392 193.992 234.8 195.64 234.256 196.92C235.44 198.248 235.696 199.368 235.696 200.36C235.696 201.224 235.52 201.896 235.072 202.216C234.848 202.36 234.56 202.456 234.24 202.504C233.92 202.536 233.52 202.536 233.152 202.52C233.136 202.232 233.04 201.768 232.864 201.464C233.232 201.496 233.536 201.512 233.792 201.48C233.984 201.48 234.16 201.432 234.288 201.336C234.544 201.16 234.624 200.728 234.624 200.248C234.624 199.384 234.336 198.296 233.184 197.048C233.76 195.592 234.352 193.688 234.688 192.584V192.264ZM249.808 206.184C249.728 205.896 249.488 205.384 249.312 205.128C249.584 205 249.968 204.76 249.968 204.136V191.656H251.216V205.112C251.216 205.112 249.808 205.752 249.808 206.184ZM249.808 206.184L249.712 205.096L250.352 204.616L255.072 203.448C255.072 203.8 255.12 204.312 255.184 204.568C250.784 205.752 250.192 205.944 249.808 206.184ZM246.88 197.832H261.104V199.032H246.88V197.832ZM254.704 198.376C255.824 201.448 258.144 203.752 261.472 204.696C261.168 204.952 260.8 205.464 260.624 205.816C257.168 204.68 254.864 202.168 253.6 198.664L254.704 198.376ZM258.304 191.912L259.504 192.424C257.92 194.28 255.488 195.944 253.312 197C253.104 196.744 252.624 196.248 252.32 196.024C254.56 195.112 256.896 193.576 258.304 191.912ZM263.392 194.52H273.344V195.72H263.392V194.52ZM272.768 194.52H274.064C274.064 194.52 274.064 195 274.048 195.176C273.808 202.104 273.552 204.52 272.912 205.288C272.544 205.768 272.16 205.928 271.568 205.976C270.992 206.04 269.968 206.008 268.992 205.96C268.976 205.592 268.8 205.048 268.592 204.68C269.648 204.776 270.64 204.776 271.04 204.776C271.376 204.792 271.552 204.744 271.744 204.552C272.288 203.976 272.544 201.448 272.768 194.792V194.52ZM268.224 191.576H269.504V194.376C269.504 198.008 269.072 202.936 263.648 206.344C263.44 206.072 262.976 205.608 262.672 205.384C267.84 202.2 268.224 197.688 268.224 194.376V191.576ZM264.928 197.08L266.016 197.528C265.52 198.952 264.752 200.84 263.824 202.04L262.72 201.4C263.664 200.28 264.48 198.488 264.928 197.08ZM274.432 197.32L275.536 196.952C276.288 198.52 277.072 200.616 277.36 201.912L276.16 202.344C275.92 201.048 275.184 198.92 274.432 197.32ZM284.672 197.368L286.08 197.72C285.072 200.136 283.68 203.128 282.496 205.064L281.392 204.712C282.528 202.744 283.92 199.624 284.672 197.368ZM279.424 204.344C282.352 204.248 287.008 204.056 291.296 203.848L291.264 205C287.072 205.24 282.592 205.48 279.584 205.608L279.424 204.344ZM287.744 200.872L288.896 200.344C290.352 202.024 292 204.248 292.8 205.704L291.584 206.36C290.832 204.904 289.168 202.568 287.744 200.872ZM283.056 192.04L284.384 192.408C283.312 194.984 281.632 197.432 279.936 199.016C279.68 198.776 279.12 198.344 278.784 198.152C280.544 196.712 282.128 194.408 283.056 192.04ZM288.784 192.024C289.84 194.12 291.856 196.648 293.328 197.976C293.008 198.232 292.56 198.696 292.32 199C290.832 197.48 288.832 194.76 287.6 192.52L288.784 192.024ZM301.344 199.736H302.576V205.16H301.344V199.736ZM296.752 195.496H307.344V196.552H296.752V195.496ZM294.928 204.76H309.12V205.832H294.928V204.76ZM296.4 201.688H307.712V202.744H296.4V201.688ZM299.952 196.056L301.184 196.408C300.528 197.528 299.68 198.84 299.008 199.672L298.048 199.336C298.688 198.456 299.504 197.032 299.952 196.056ZM296.112 198.92C298.752 198.888 302.944 198.76 306.896 198.648L306.832 199.672C302.96 199.832 298.864 199.96 296.176 200.024L296.112 198.92ZM303.84 197.512L304.704 196.904C306.048 197.768 307.68 199.064 308.448 199.992L307.52 200.68C306.784 199.752 305.184 198.408 303.84 197.512ZM301.344 191.576H302.576V193.528H301.344V191.576ZM295.12 192.776H308.912V195.736H307.696V193.88H296.288V195.736H295.12V192.776ZM312.096 194.136H316.96V204.6H312.096V203.512H315.84V195.208H312.096V194.136ZM311.376 194.136H312.496V205.88H311.376V194.136ZM312.016 198.584H316.432V199.656H312.016V198.584ZM313.824 191.528L315.12 191.768C314.8 192.76 314.4 193.864 314.08 194.584L313.12 194.344C313.392 193.576 313.696 192.36 313.824 191.528ZM319.232 194.088H324.144V195.208H319.232V194.088ZM323.728 194.088H324.848C324.848 194.088 324.848 194.536 324.848 194.712C324.592 202.056 324.368 204.536 323.728 205.32C323.376 205.784 323.008 205.928 322.448 205.976C321.904 206.04 320.96 206.008 320.064 205.96C320.032 205.608 319.888 205.112 319.664 204.792C320.704 204.872 321.664 204.888 322.032 204.888C322.352 204.888 322.544 204.84 322.72 204.632C323.248 204.056 323.504 201.4 323.728 194.344V194.088ZM319.568 191.496L320.72 191.768C320.128 194.152 319.184 196.504 318.08 198.024C317.872 197.832 317.376 197.496 317.088 197.336C318.176 195.928 319.056 193.72 319.568 191.496ZM318.832 198.248L319.76 197.704C320.672 198.84 321.776 200.392 322.288 201.336L321.264 201.976C320.784 201 319.712 199.416 318.832 198.248ZM332.672 197.368L334.08 197.72C333.072 200.136 331.68 203.128 330.496 205.064L329.392 204.712C330.528 202.744 331.92 199.624 332.672 197.368ZM327.424 204.344C330.352 204.248 335.008 204.056 339.296 203.848L339.264 205C335.072 205.24 330.592 205.48 327.584 205.608L327.424 204.344ZM335.744 200.872L336.896 200.344C338.352 202.024 340 204.248 340.8 205.704L339.584 206.36C338.832 204.904 337.168 202.568 335.744 200.872ZM331.056 192.04L332.384 192.408C331.312 194.984 329.632 197.432 327.936 199.016C327.68 198.776 327.12 198.344 326.784 198.152C328.544 196.712 330.128 194.408 331.056 192.04ZM336.784 192.024C337.84 194.12 339.856 196.648 341.328 197.976C341.008 198.232 340.56 198.696 340.32 199C338.832 197.48 336.832 194.76 335.6 192.52L336.784 192.024ZM342.96 197.496H357.072V198.632H342.96V197.496ZM345.552 193.88H355.888V194.984H345.552V193.88ZM345.6 204.408H354.56V205.528H345.6V204.408ZM349.712 191.56H350.976V198.152H349.712V191.56ZM344.944 200.216H355.2V206.408H353.952V201.336H346.16V206.424H344.944V200.216ZM345.968 191.704L347.152 191.992C346.464 193.96 345.36 195.88 344.24 197.144C344 196.968 343.456 196.648 343.152 196.488C344.336 195.336 345.344 193.512 345.968 191.704ZM360.512 206.712L360.144 205.88C361.456 205.336 362.176 204.52 362.176 203.32L361.872 201.96L362.736 203.176C362.512 203.464 362.192 203.544 361.888 203.544C361.232 203.544 360.688 203.16 360.688 202.392C360.688 201.64 361.264 201.24 361.904 201.24C362.8 201.24 363.28 201.976 363.28 203.096C363.28 204.824 362.192 206.136 360.512 206.712ZM374.992 194.04H389.008V195.208H374.992V194.04ZM379.952 199.112H388.384V200.232H379.952V199.112ZM379.328 204.776H389.008V205.912H379.328V204.776ZM383.568 196.024H384.768V205.384H383.568V196.024ZM380.256 191.56L381.488 191.864C380.368 195.528 378.416 199.256 375.232 201.544C375.104 201.224 374.8 200.712 374.608 200.44C377.488 198.408 379.36 194.856 380.256 191.56ZM377.088 198.152H378.288V206.232H377.088V198.152ZM391.248 202.088C391.184 201.848 391.008 201.304 390.864 200.984C391.216 200.936 391.584 200.536 392.064 199.928C392.608 199.352 394.288 197.112 395.408 194.92L396.4 195.544C395.136 197.72 393.584 199.896 392.064 201.448V201.48C392.064 201.48 391.248 201.848 391.248 202.088ZM391.248 202.088L391.184 201.128L391.776 200.712L396.128 199.928C396.096 200.232 396.096 200.696 396.128 200.936C392.112 201.752 391.568 201.896 391.248 202.088ZM391.136 198.248C391.088 197.992 390.88 197.416 390.752 197.096C391.04 197.032 391.312 196.648 391.664 196.12C392.016 195.592 393.168 193.528 393.824 191.624L394.944 192.152C394.112 194.104 392.992 196.152 391.872 197.592V197.624C391.872 197.624 391.136 197.992 391.136 198.248ZM391.136 198.248L391.12 197.352L391.696 196.968L394.672 196.68C394.608 196.984 394.592 197.432 394.592 197.656C391.856 198.008 391.408 198.104 391.136 198.248ZM390.848 204.136C392.176 203.816 394.208 203.256 396.192 202.712L396.352 203.72C394.512 204.28 392.576 204.84 391.104 205.288L390.848 204.136ZM396.912 195.416L404.432 194.296L404.64 195.352L397.12 196.504L396.912 195.416ZM396.592 198.856L404.88 197.304L405.088 198.376L396.8 199.944L396.592 198.856ZM399.344 191.544H400.528C400.48 199.032 401.728 205.08 403.824 205.08C404.272 205.08 404.432 204.696 404.496 203.288C404.752 203.544 405.12 203.8 405.392 203.928C405.184 205.72 404.8 206.248 403.696 206.248C400.48 206.248 399.392 199.352 399.344 191.544ZM401.264 192.52L401.952 191.864C402.736 192.216 403.76 192.792 404.272 193.224L403.584 193.976C403.056 193.528 402.064 192.904 401.264 192.52ZM404.192 199.432L405.184 199.896C403.424 202.648 400.336 204.792 396.848 206.008C396.688 205.704 396.368 205.288 396.096 205.016C399.504 203.976 402.56 201.976 404.192 199.432ZM72.832 212.704H85.056V213.856H72.832V212.704ZM72.272 212.704H73.472V217.072C73.472 219.504 73.216 223.04 71.568 225.392C71.376 225.152 70.88 224.736 70.608 224.592C72.128 222.4 72.272 219.328 72.272 217.056V212.704ZM77.824 210.576H79.056V213.36H77.824V210.576ZM99.792 210.672L100.464 211.552C98.288 212.048 94.848 212.368 92.032 212.48C91.984 212.224 91.856 211.824 91.744 211.584C94.512 211.44 97.904 211.104 99.792 210.672ZM91.568 214.736H101.152V215.744H91.568V214.736ZM95.712 211.6H96.816V218.736H95.712V211.6ZM95.728 219.504H96.768V224.24H95.728V219.504ZM92.768 212.864L93.744 212.56C94.08 213.136 94.496 213.904 94.672 214.384L93.68 214.752C93.488 214.256 93.104 213.456 92.768 212.864ZM98.944 212.256L100 212.576C99.52 213.52 98.96 214.576 98.512 215.264L97.632 214.96C98.064 214.224 98.64 213.056 98.944 212.256ZM95.072 215.28L96.016 215.648C95.056 217.28 93.248 218.8 91.584 219.568C91.424 219.312 91.072 218.896 90.832 218.688C92.448 218.048 94.176 216.688 95.072 215.28ZM97.504 215.28C98.4 216.576 100.112 217.872 101.616 218.496C101.376 218.704 101.024 219.104 100.848 219.392C99.296 218.64 97.536 217.136 96.576 215.664L97.504 215.28ZM92.464 219.088H100.304V225.184H99.184V220.016H93.552V225.264H92.464V219.088ZM93.168 221.376H99.52V222.256H93.168V221.376ZM93.168 223.648H99.488V224.56H93.168V223.648ZM86.432 218.992C87.648 218.576 89.504 217.904 91.28 217.248L91.472 218.336C89.824 218.992 88.064 219.648 86.688 220.144L86.432 218.992ZM86.656 213.792H91.52V214.912H86.656V213.792ZM88.672 210.576H89.792V223.888C89.792 224.56 89.632 224.88 89.232 225.072C88.864 225.264 88.24 225.296 87.232 225.296C87.184 225.008 87.04 224.512 86.88 224.176C87.584 224.192 88.192 224.192 88.384 224.176C88.576 224.176 88.672 224.128 88.672 223.888V210.576ZM110 218.347V219.818H102V218.347H110ZM110.976 211.456H117.872V212.56H110.976V211.456ZM119.008 216.016H125.44V217.168H119.008V216.016ZM122.48 216.768H123.664V225.296H122.48V216.768ZM118.544 212.144L120.048 212.544C120.032 212.656 119.952 212.72 119.728 212.752V216.416C119.728 219.008 119.392 222.672 116.992 225.248C116.816 224.992 116.384 224.592 116.096 224.448C118.32 222.08 118.544 218.864 118.544 216.416V212.144ZM111.568 214.224H112.704V218.544C112.704 220.592 112.512 223.424 111.28 225.312C111.088 225.088 110.592 224.72 110.336 224.576C111.456 222.848 111.568 220.384 111.568 218.544V214.224ZM124.064 210.752L125.12 211.664C123.536 212.432 121.216 213.088 119.216 213.552C119.152 213.28 118.96 212.848 118.8 212.576C120.704 212.128 122.864 211.44 124.064 210.752ZM112.224 214.224H117.472V219.216H112.224V218.128H116.304V215.328H112.224V214.224ZM127.008 212.64H141.024V213.776H127.008V212.64ZM130.912 218.352H138.432V219.392H130.912V218.352ZM130.064 215.632H138.24V216.704H131.248V225.28H130.064V215.632ZM137.968 215.632H139.136V223.792C139.136 224.496 138.992 224.864 138.448 225.056C137.936 225.248 137.04 225.248 135.664 225.248C135.616 224.912 135.44 224.416 135.264 224.08C136.336 224.128 137.312 224.112 137.6 224.112C137.872 224.096 137.968 224.016 137.968 223.776V215.632ZM132.24 210.56L133.456 210.848C132.368 214.368 130.448 217.92 127.392 220.064C127.232 219.792 126.864 219.376 126.624 219.136C129.488 217.168 131.376 213.776 132.24 210.56ZM130.912 221.056H138.432V222.096H130.912V221.056ZM145.52 222.24C146.032 222.24 146.416 222.64 147.28 223.104C148.288 223.664 149.696 223.744 151.424 223.744C153.248 223.744 155.76 223.632 157.392 223.44C157.232 223.792 157.04 224.416 157.008 224.8C155.744 224.88 153.008 224.96 151.392 224.96C149.504 224.96 148.128 224.8 147.024 224.224C146.368 223.856 145.856 223.408 145.504 223.408C144.96 223.408 144.192 224.24 143.408 225.152L142.56 223.984C143.6 222.992 144.704 222.24 145.52 222.24ZM142.96 211.888L143.904 211.264C144.752 211.968 145.776 213.008 146.24 213.728L145.232 214.432C144.8 213.712 143.808 212.656 142.96 211.888ZM146.016 216.592V222.848H144.848V217.712H142.784V216.592H146.016ZM146.72 213.072H157.12V214.208H146.72V213.072ZM154.08 213.296L155.28 213.536C154.016 218.176 151.488 220.944 147.36 222.576C147.232 222.32 146.864 221.776 146.624 221.52C150.624 220.144 153.008 217.568 154.08 213.296ZM150.368 210.832L151.504 210.48C151.968 211.184 152.496 212.16 152.72 212.768L151.52 213.2C151.328 212.576 150.816 211.568 150.368 210.832ZM147.2 215.824L148.048 215.088C150.88 217.04 154.64 219.856 156.528 221.648L155.584 222.528C153.824 220.736 150.112 217.824 147.2 215.824ZM160.688 220.208H171.488V221.36H160.688V220.208ZM158.896 223.712H173.104V224.896H158.896V223.712ZM162.8 213.312H165.936V214.4H162.8V213.312ZM166.784 210.576H167.984V216.864C167.984 217.44 168.096 217.552 168.832 217.552C169.168 217.552 170.896 217.552 171.344 217.552C171.984 217.552 172.096 217.232 172.16 215.44C172.432 215.648 172.928 215.84 173.28 215.92C173.12 218.08 172.768 218.688 171.44 218.688C171.088 218.688 169.04 218.688 168.72 218.688C167.184 218.688 166.784 218.288 166.784 216.864V210.576ZM158.656 217.984C160.496 217.792 163.312 217.456 166.032 217.12L166.064 218.224C163.456 218.576 160.72 218.928 158.8 219.168L158.656 217.984ZM171.552 212.144L172.512 213.072C171.12 213.792 169.184 214.48 167.488 214.992C167.408 214.72 167.248 214.304 167.088 214.048C168.688 213.536 170.512 212.8 171.552 212.144ZM162.272 210.576H163.44V217.904L162.272 218.032V210.576ZM159.728 212.32H160.832V218.192L159.728 218.304V212.32ZM175.408 212.432H181.008V213.488H175.408V212.432ZM177.104 223.248H181.584V224.272H177.104V223.248ZM177.088 220.592H181.6V221.552H177.088V220.592ZM174.688 215.408H182.96V216.48H174.688V215.408ZM177.888 210.704H179.008V216.096H177.888V210.704ZM182.128 211.12L183.216 211.44C181.456 215.44 178.608 218.512 175.088 220.448C174.944 220.192 174.56 219.712 174.336 219.472C177.808 217.744 180.544 214.832 182.128 211.12ZM177.472 218.032H181.552V219.04H177.472V225.216H176.368V218.736L177.04 218.032H177.472ZM181.072 218.032H182.24V224.992H181.072V218.032ZM183.632 211.488H188.416V212.608H184.832V225.28H183.632V211.488ZM188.112 211.488H188.352L188.544 211.424L189.408 211.984C188.736 213.488 187.872 215.344 187.088 216.816C188.768 218.304 189.2 219.568 189.2 220.72C189.216 221.712 188.976 222.448 188.384 222.832C188.096 223.024 187.728 223.136 187.312 223.184C186.88 223.232 186.304 223.232 185.808 223.2C185.792 222.88 185.648 222.352 185.456 222.032C185.968 222.08 186.448 222.096 186.8 222.064C187.088 222.048 187.36 221.984 187.552 221.872C187.936 221.664 188.048 221.2 188.048 220.608C188.048 219.6 187.536 218.384 185.84 216.992C186.704 215.328 187.6 213.152 188.112 211.856V211.488ZM199.376 219.024C200.4 221.408 202.576 223.296 205.312 224.08C205.04 224.32 204.688 224.784 204.528 225.104C201.728 224.144 199.552 222.064 198.384 219.344L199.376 219.024ZM203.648 218.832L204.624 219.44C203.552 220.304 202.144 221.248 201.024 221.856L200.208 221.28C201.328 220.672 202.8 219.616 203.648 218.832ZM194.528 218.24L195.552 218.672C194.448 219.584 192.864 220.576 191.6 221.2C191.408 220.992 190.992 220.608 190.72 220.432C192.048 219.872 193.536 219.04 194.528 218.24ZM195.168 221.088L196.272 221.536C194.976 222.88 193.056 224.192 191.44 225.024C191.216 224.8 190.768 224.384 190.48 224.176C192.16 223.44 194.016 222.272 195.168 221.088ZM190.96 211.344H198.608V212.256H190.96V211.344ZM192.752 213.248H197.024V214.016H192.752V213.248ZM192.752 215.008H197.024V215.776H192.752V215.008ZM198.416 212.128H203.952V213.104H198.416V212.128ZM196.48 211.712H197.584V218.384H196.48V211.712ZM203.552 212.128H203.76L203.968 212.08L204.72 212.448C203.616 215.28 201.088 217.152 198.544 218.064C198.4 217.808 198.096 217.408 197.872 217.2C200.208 216.432 202.64 214.656 203.552 212.336V212.128ZM190.736 217.12C192.336 217.008 194.72 216.832 197.056 216.64V217.488C194.832 217.696 192.56 217.904 190.88 218.048L190.736 217.12ZM198.72 214.496L199.52 213.776C201.488 214.688 204.048 216.176 205.344 217.264L204.464 218.096C203.264 217.024 200.736 215.488 198.72 214.496ZM200.608 217.776L201.568 218.288C199.936 219.312 197.36 220.336 195.36 220.96C195.216 220.72 194.88 220.24 194.656 220.032C196.64 219.536 199.136 218.656 200.608 217.776ZM192.208 211.712H193.296V217.312L192.208 217.424V211.712ZM197.36 219.888L197.968 219.28L198.56 219.488V225.248H197.36V219.888ZM206.848 220.352H221.152V221.36H206.848V220.352ZM209.536 214.512H219.44V215.36H209.536V214.512ZM209.536 216.432H219.488V217.296H209.536V216.432ZM209.344 212.464H220.096V213.456H209.344V212.464ZM213.664 213.024H214.832V218.768H213.664V213.024ZM213.36 219.072H214.56V225.28H213.36V219.072ZM213.104 220.72L214.032 221.2C212.448 222.864 209.6 224.384 207.248 225.12C207.072 224.8 206.72 224.352 206.448 224.112C208.832 223.504 211.648 222.16 213.104 220.72ZM214.832 220.72C216.272 222.128 219.072 223.408 221.472 224C221.216 224.24 220.88 224.688 220.704 224.992C218.32 224.288 215.488 222.816 213.904 221.2L214.832 220.72ZM214.416 210.56L215.76 210.752C215.312 211.6 214.816 212.496 214.4 213.104L213.344 212.88C213.728 212.24 214.192 211.248 214.416 210.56ZM210.24 210.544L211.488 210.768C210.544 212.528 209.2 214.48 207.296 216.08C207.088 215.808 206.688 215.44 206.416 215.28C208.208 213.872 209.52 212 210.24 210.544ZM208.784 213.12H209.936V218.4H220.72V219.36H208.784V213.12ZM222.992 213.04H237.008V214.208H222.992V213.04ZM227.952 218.112H236.384V219.232H227.952V218.112ZM227.328 223.776H237.008V224.912H227.328V223.776ZM231.568 215.024H232.768V224.384H231.568V215.024ZM228.256 210.56L229.488 210.864C228.368 214.528 226.416 218.256 223.232 220.544C223.104 220.224 222.8 219.712 222.608 219.44C225.488 217.408 227.36 213.856 228.256 210.56ZM225.088 217.152H226.288V225.232H225.088V217.152ZM238.704 217.104H253.344V218.416H238.704V217.104ZM261.936 211.856C260.608 213.872 257.904 216.416 255.056 218.08C254.88 217.808 254.544 217.376 254.272 217.12C257.184 215.472 259.968 212.768 261.232 210.608H262.48C264.224 213.088 267.152 215.568 269.776 216.912C269.472 217.216 269.184 217.632 268.96 217.984C266.352 216.48 263.408 213.952 261.936 211.856ZM261.296 215.856H262.56V225.296H261.296V215.856ZM280.16 210.56H281.296V221.712H280.16V210.56ZM275.12 217.168L283.744 213.536L284.192 214.56L275.584 218.224L275.12 217.168ZM276.848 212.064H278V222.768C278 223.648 278.192 223.84 279.264 223.84C279.792 223.84 282.48 223.84 283.12 223.84C284.064 223.84 284.224 223.408 284.336 221.568C284.624 221.76 285.088 221.952 285.424 222.016C285.232 224.224 284.848 224.928 283.168 224.928C282.736 224.928 279.632 224.928 279.232 224.928C277.392 224.928 276.848 224.496 276.848 222.752V212.064ZM283.536 213.696H283.392L283.68 213.456L283.888 213.28L284.736 213.6L284.688 213.824C284.688 216.832 284.64 219.232 284.528 219.856C284.432 220.496 284.128 220.8 283.664 220.912C283.232 221.024 282.592 221.024 282.16 221.024C282.112 220.704 282.016 220.256 281.872 219.984C282.24 220 282.768 220 282.944 220C283.184 220 283.344 219.936 283.424 219.568C283.52 219.152 283.536 216.88 283.536 213.696ZM270.656 214.416H275.744V215.552H270.656V214.416ZM272.72 210.752H273.856V221.136H272.72V210.752ZM270.512 221.552C271.808 221.072 273.776 220.24 275.68 219.424L275.936 220.496C274.224 221.312 272.416 222.128 270.992 222.736L270.512 221.552ZM286.832 213.328H301.152V214.48H286.832V213.328ZM292.064 217.12H298.464V218.272H292.064V217.12ZM298.032 217.12H299.264C299.264 217.12 299.248 217.52 299.216 217.696C298.896 222.304 298.576 224.08 297.952 224.72C297.584 225.104 297.184 225.216 296.576 225.264C296.016 225.296 294.96 225.264 293.872 225.216C293.856 224.864 293.68 224.368 293.456 224.032C294.608 224.144 295.744 224.144 296.16 224.144C296.512 224.144 296.736 224.128 296.912 223.968C297.424 223.504 297.744 221.712 298.016 217.328L298.032 217.12ZM291.792 213.968H293.12C292.88 218.208 292.416 223.008 287.536 225.344C287.36 225.04 286.976 224.608 286.672 224.368C291.344 222.256 291.616 217.792 291.792 213.968ZM293.312 210.528H294.544V213.824H293.312V210.528ZM309.472 220.144L309.152 213.936L309.104 212.032H310.88L310.832 213.936L310.512 220.144H309.472ZM310 224.08C309.424 224.08 308.96 223.68 308.96 223.04C308.96 222.4 309.424 221.968 310 221.968C310.56 221.968 311.024 222.4 311.024 223.04C311.024 223.68 310.56 224.08 310 224.08Z" fill="#2D3342"/>
<defs>
<linearGradient id="paint0_linear_1357_7332" x1="350.734" y1="36" x2="415.253" y2="95.1056" gradientUnits="userSpaceOnUse">
<stop stop-color="#5955B3"/>
<stop offset="1" stop-color="#6563CE"/>
</linearGradient>
</defs>
</svg>
