<svg width="325" height="290" viewBox="0 0 325 290" fill="none" xmlns="http://www.w3.org/2000/svg">
<rect width="325" height="290" rx="5" fill="white"/>
<path opacity="0.2" fill-rule="evenodd" clip-rule="evenodd" d="M324.665 270.066C324.63 281.048 315.744 289.945 304.767 290H171.146C177.238 276.125 202.685 248.375 255.738 248.375C308.791 248.375 323.795 226.792 324.665 216V270.066Z" fill="#89AFFF"/>
<path opacity="0.2" fill-rule="evenodd" clip-rule="evenodd" d="M149.339 0C147.453 10.542 135.894 40.1867 88.2786 53.6336C42.0806 66.6801 11.6466 62.1933 0.329473 57.9765L0.329531 20C0.32953 8.95432 9.2838 1.09491e-05 20.3295 1.00856e-05L149.339 0Z" fill="#89AFFF"/>
<path d="M102.468 42.12H105.372V56.16H102.468V42.12ZM96.156 45.12H111.588V47.736H96.156V45.12ZM105.924 46.272C107.244 48.888 109.788 51.552 112.284 52.992C111.636 53.544 110.724 54.576 110.244 55.296C107.724 53.496 105.252 50.256 103.764 47.064L105.924 46.272ZM102.084 46.056L104.34 46.848C102.78 50.232 100.116 53.424 97.284 55.224C96.828 54.528 95.916 53.496 95.292 52.944C98.028 51.528 100.692 48.792 102.084 46.056ZM100.476 37.2V40.416H107.532V37.2H100.476ZM97.74 34.68H110.412V42.96H97.74V34.68ZM94.596 33.672L97.284 34.536C95.676 38.616 93.108 42.912 90.444 45.624C90.204 44.952 89.412 43.368 88.932 42.672C91.164 40.512 93.324 37.104 94.596 33.672ZM92.292 40.32L95.004 37.584L95.028 37.608V56.088H92.292V40.32ZM122.172 36.36H134.724V38.952H122.172V36.36ZM121.356 45.576H135.588V48.192H121.356V45.576ZM121.14 41.064H135.78V43.68H121.14V41.064ZM127.092 33.72H129.828V42.408H127.092V33.72ZM130.212 43.224H132.948V53.136C132.948 54.576 132.684 55.296 131.748 55.704C130.86 56.136 129.588 56.16 127.836 56.16C127.74 55.368 127.38 54.216 127.044 53.448C128.124 53.52 129.372 53.52 129.732 53.496C130.116 53.496 130.212 53.4 130.212 53.088V43.224ZM122.676 49.56L124.956 48.288C125.964 49.512 127.164 51.216 127.644 52.368L125.196 53.808C124.788 52.656 123.684 50.856 122.676 49.56ZM112.98 45.792C114.948 45.36 117.852 44.592 120.636 43.824L120.996 46.416C118.476 47.184 115.764 47.952 113.628 48.576L112.98 45.792ZM113.364 38.184H120.78V40.824H113.364V38.184ZM116.076 33.648H118.74V52.968C118.74 54.288 118.5 55.032 117.756 55.488C117.036 55.92 115.98 56.04 114.444 56.016C114.372 55.296 114.036 54.12 113.7 53.328C114.564 53.376 115.404 53.376 115.692 53.376C115.98 53.376 116.076 53.28 116.076 52.944V33.648ZM143.34 38.952V39.96H153.54V38.952H143.34ZM143.34 36.24V37.224H153.54V36.24H143.34ZM140.58 34.392H156.42V41.808H140.58V34.392ZM137.748 42.672H159.204V44.976H137.748V42.672ZM148.74 45.864H156.588V48.072H148.74V45.864ZM141.42 45.936H146.892V47.928H141.42V45.936ZM141.42 48.936H146.892V50.928H141.42V48.936ZM151.692 47.856C153.036 50.784 155.868 52.992 159.732 53.904C159.132 54.408 158.388 55.464 158.028 56.136C153.876 54.936 151.02 52.248 149.388 48.504L151.692 47.856ZM155.748 45.864H156.252L156.732 45.768L158.508 46.44C157.092 51.456 153.708 54.528 149.436 56.136C149.124 55.464 148.404 54.432 147.876 53.904C151.596 52.728 154.692 49.968 155.748 46.272V45.864ZM137.532 52.44C139.932 52.296 143.46 52.032 146.82 51.744V54.072C143.604 54.384 140.244 54.696 137.724 54.912L137.532 52.44ZM145.404 43.416H148.164V56.16H145.404V43.416ZM139.62 43.488H142.26V53.28H139.62V43.488ZM174.78 41.568H183.732V44.232H174.78V41.568ZM161.772 36H172.572V38.352H161.772V36ZM161.532 45.552H172.548V47.976H161.532V45.552ZM161.46 41.352H172.764V43.728H161.46V41.352ZM178.668 42.72H181.452V56.04H178.668V42.72ZM165.78 33.816H168.588V37.056H165.78V33.816ZM165.78 43.584H168.588V56.136H165.78V43.584ZM173.484 35.52L176.844 36.456C176.82 36.696 176.652 36.816 176.22 36.888V43.944C176.22 47.52 175.764 52.824 172.5 56.208C172.14 55.584 171.084 54.6 170.436 54.24C173.22 51.288 173.484 47.184 173.484 43.896V35.52ZM181.332 33.864L183.636 35.952C181.188 37.056 177.924 37.872 175.116 38.4C174.972 37.776 174.564 36.768 174.228 36.216C176.796 35.64 179.628 34.776 181.332 33.864ZM168.372 48.072C169.116 48.528 171.42 50.328 171.996 50.808L170.34 52.872C169.548 51.912 167.724 50.112 166.836 49.32L168.372 48.072ZM162.972 38.712L165.18 38.184C165.612 39.048 165.948 40.224 166.068 41.016L163.716 41.64C163.668 40.848 163.356 39.624 162.972 38.712ZM168.948 38.136L171.492 38.616C171.036 39.72 170.628 40.752 170.268 41.496L167.988 41.016C168.324 40.2 168.732 38.976 168.948 38.136ZM165.804 46.968L167.844 47.712C166.668 50.352 164.676 53.112 162.756 54.672C162.3 54.048 161.46 53.088 160.86 52.632C162.756 51.408 164.748 49.08 165.804 46.968ZM193.284 40.296H207.444V43.152H193.284V40.296ZM201.06 41.664C202.164 46.776 204.42 51.408 208.116 53.664C207.444 54.216 206.484 55.32 206.028 56.088C202.116 53.28 199.956 48.216 198.684 42.192L201.06 41.664ZM202.164 35.352L204.348 34.128C205.308 35.4 206.508 37.104 207.06 38.232L204.708 39.624C204.228 38.496 203.124 36.672 202.164 35.352ZM198.204 33.672H201.06V39.816C201.06 44.976 200.22 51.384 194.652 56.136C194.1 55.536 193.116 54.792 192.348 54.312C197.604 49.8 198.204 44.112 198.204 39.816V33.672ZM189.828 33.576H192.684V56.112H189.828V33.576ZM185.292 37.968L187.548 36.672C188.556 38.064 189.804 39.96 190.332 41.184L187.908 42.672C187.452 41.424 186.276 39.456 185.292 37.968ZM185.148 48.648C186.468 47.712 188.508 46.056 190.428 44.4L191.58 46.704C189.972 48.216 188.172 49.848 186.636 51.144L185.148 48.648ZM209.628 36.696H231.444V39.36H209.628V36.696ZM219.084 33.384H222.084C221.532 39.552 220.332 45.096 210.972 47.736C210.684 47.04 209.964 45.936 209.364 45.312C218.028 43.128 218.628 38.496 219.084 33.384ZM222.564 36.816C223.98 40.872 226.98 43.704 231.948 44.784C231.276 45.408 230.436 46.632 230.028 47.424C224.652 45.936 221.7 42.576 219.924 37.392L222.564 36.816ZM217.476 44.616L219.972 43.128C221.364 43.824 223.14 44.976 224.1 45.84L221.436 47.448C220.644 46.608 218.868 45.384 217.476 44.616ZM214.788 48.144H217.644V52.248C217.644 52.992 217.884 53.112 219.3 53.112C219.924 53.112 222.612 53.112 223.452 53.112C224.628 53.112 224.796 52.752 224.964 50.304C225.564 50.76 226.764 51.192 227.532 51.36C227.196 54.792 226.38 55.656 223.668 55.656C222.948 55.656 219.708 55.656 219.012 55.656C215.652 55.656 214.788 54.864 214.788 52.272V48.144ZM218.196 47.856L220.404 46.56C221.652 47.712 223.212 49.368 223.908 50.496L221.532 51.984C220.908 50.856 219.42 49.104 218.196 47.856ZM226.26 48.528L228.78 47.712C229.956 49.728 231.204 52.44 231.66 54.192L228.948 55.152C228.54 53.424 227.388 50.616 226.26 48.528ZM211.62 47.976L214.188 48.816C213.708 50.952 213.012 53.616 212.028 55.344L209.436 54.024C210.396 52.416 211.212 50.064 211.62 47.976Z" fill="url(#paint0_linear_1392_7027)"/>
<path d="M33.992 118.04H48.008V119.208H33.992V118.04ZM38.952 123.112H47.384V124.232H38.952V123.112ZM38.328 128.776H48.008V129.912H38.328V128.776ZM42.568 120.024H43.768V129.384H42.568V120.024ZM39.256 115.56L40.488 115.864C39.368 119.528 37.416 123.256 34.232 125.544C34.104 125.224 33.8 124.712 33.608 124.44C36.488 122.408 38.36 118.856 39.256 115.56ZM36.088 122.152H37.288V130.232H36.088V122.152ZM52.52 127.24C53.032 127.24 53.416 127.64 54.28 128.104C55.288 128.664 56.696 128.744 58.424 128.744C60.248 128.744 62.76 128.632 64.392 128.44C64.232 128.792 64.04 129.416 64.008 129.8C62.744 129.88 60.008 129.96 58.392 129.96C56.504 129.96 55.128 129.8 54.024 129.224C53.368 128.856 52.856 128.408 52.504 128.408C51.96 128.408 51.192 129.24 50.408 130.152L49.56 128.984C50.6 127.992 51.704 127.24 52.52 127.24ZM49.96 116.888L50.904 116.264C51.752 116.968 52.776 118.008 53.24 118.728L52.232 119.432C51.8 118.712 50.808 117.656 49.96 116.888ZM53.016 121.592V127.848H51.848V122.712H49.784V121.592H53.016ZM53.72 118.072H64.12V119.208H53.72V118.072ZM61.08 118.296L62.28 118.536C61.016 123.176 58.488 125.944 54.36 127.576C54.232 127.32 53.864 126.776 53.624 126.52C57.624 125.144 60.008 122.568 61.08 118.296ZM57.368 115.832L58.504 115.48C58.968 116.184 59.496 117.16 59.72 117.768L58.52 118.2C58.328 117.576 57.816 116.568 57.368 115.832ZM54.2 120.824L55.048 120.088C57.88 122.04 61.64 124.856 63.528 126.648L62.584 127.528C60.824 125.736 57.112 122.824 54.2 120.824ZM68.648 120.312V122.344H77.512V120.312H68.648ZM68.648 117.288V119.288H77.512V117.288H68.648ZM67.464 116.2H78.76V123.432H67.464V116.2ZM65.864 128.712H80.152V129.832H65.864V128.712ZM66.936 125.272H79.288V126.408H66.936V125.272ZM72.472 116.888H73.624V123.256H73.688V129.352H72.408V123.256H72.472V116.888ZM88.44 115.64L89.624 115.896C89 118.456 87.992 120.92 86.76 122.552C86.552 122.344 86.072 121.96 85.8 121.784C86.984 120.296 87.912 117.992 88.44 115.64ZM88.168 122.424L89.336 122.664C88.84 124.76 87.976 126.792 87 128.136C86.76 127.944 86.248 127.624 85.96 127.48C86.952 126.248 87.72 124.344 88.168 122.424ZM88.296 118.648H95.496V119.768H87.832L88.296 118.648ZM90.776 119.112H91.976V128.824C91.976 129.512 91.832 129.864 91.384 130.056C90.952 130.264 90.264 130.296 89.272 130.296C89.192 129.96 89.016 129.432 88.84 129.08C89.592 129.112 90.28 129.096 90.504 129.096C90.712 129.096 90.776 129.032 90.776 128.824V119.112ZM93.128 122.664L94.2 122.312C95.128 123.992 95.928 126.2 96.2 127.688L95.064 128.072C94.808 126.6 94.008 124.344 93.128 122.664ZM95.144 118.648H95.304L95.512 118.616L96.344 118.792C96.12 119.976 95.848 121.352 95.64 122.216L94.6 122.024C94.776 121.224 94.984 119.88 95.144 118.824V118.648ZM85.224 115.624L86.36 115.976C85.304 118.696 83.656 121.4 81.928 123.192C81.8 122.92 81.464 122.28 81.24 122.008C82.824 120.456 84.328 118.056 85.224 115.624ZM83.56 119.752L84.68 118.616L84.712 118.632V130.264H83.56V119.752ZM108.936 117.064H110.184V128.568C110.184 129.432 109.976 129.848 109.352 130.04C108.712 130.248 107.592 130.264 106.008 130.264C105.928 129.912 105.688 129.32 105.496 128.968C106.792 129.032 108.088 129.016 108.472 129C108.824 128.984 108.936 128.872 108.936 128.536V117.064ZM99.528 120.264H100.696V127.512H99.528V120.264ZM100.024 120.264H106.088V126.232H100.024V125.08H104.888V121.4H100.024V120.264ZM97.88 116.696H112.152V117.912H97.88V116.696ZM118.824 118.088L119.896 117.56C120.968 118.728 121.992 120.312 122.456 121.4L121.304 122.024C120.888 120.92 119.848 119.272 118.824 118.088ZM113.56 127.304C115.192 126.664 117.752 125.576 120.152 124.52L120.424 125.688C118.2 126.712 115.768 127.784 113.992 128.552L113.56 127.304ZM123.16 125.192L124.088 124.408C125.608 125.912 127.592 127.992 128.536 129.304L127.512 130.248C126.616 128.92 124.696 126.76 123.16 125.192ZM125.384 116.392L126.68 116.52C125.864 123.912 123.992 127.992 118.392 130.328C118.216 130.072 117.736 129.544 117.432 129.288C122.968 127.272 124.664 123.352 125.384 116.392ZM115.512 116.44L116.744 116.392L117.016 126.968L115.784 127.016L115.512 116.44ZM129.528 124.04C130.968 123.688 133.128 123.08 135.16 122.488L135.304 123.592C133.432 124.152 131.416 124.76 129.88 125.192L129.528 124.04ZM129.72 118.792H135.144V119.928H129.72V118.792ZM132.024 115.576H133.192V128.76C133.192 129.432 133.016 129.768 132.616 129.944C132.184 130.136 131.528 130.168 130.424 130.168C130.376 129.864 130.2 129.368 130.056 129.048C130.808 129.08 131.496 129.064 131.704 129.064C131.928 129.064 132.024 128.984 132.024 128.76V115.576ZM135.336 120.088L143.928 119.192L144.056 120.312L135.464 121.24L135.336 120.088ZM139.8 116.552L140.712 115.944C141.512 116.616 142.472 117.592 142.92 118.248L141.96 118.936C141.544 118.264 140.584 117.256 139.8 116.552ZM137.496 115.624H138.712C138.984 122.808 140.28 128.568 142.664 128.808C143.096 128.84 143.352 127.96 143.512 126.2C143.752 126.44 144.28 126.744 144.536 126.856C144.168 129.464 143.528 130.264 142.712 130.216C139.144 129.944 137.88 123.784 137.496 115.624ZM142.248 121.56L143.24 122.168C141.8 125.304 138.92 128.328 135.8 129.736C135.576 129.416 135.192 129.032 134.856 128.792C138.04 127.528 140.92 124.584 142.248 121.56ZM145.8 116.616H154.008V117.704H145.8V116.616ZM146.28 124.232H153.544V125.32H146.28V124.232ZM149.336 122.328H150.52V128.6L149.336 128.776V122.328ZM145.624 128.6C147.704 128.376 150.952 127.944 154.04 127.528L154.072 128.648C151.096 129.064 147.944 129.512 145.816 129.8L145.624 128.6ZM145.768 120.968C147.592 120.904 150.408 120.776 153.16 120.632L153.128 121.688C150.504 121.848 147.768 121.992 145.864 122.104L145.768 120.968ZM150.872 119.016L151.768 118.52C152.744 119.64 153.864 121.144 154.328 122.104L153.368 122.68C152.904 121.704 151.832 120.152 150.872 119.016ZM148.568 117.192L149.864 117.448C149.304 118.856 148.616 120.616 148.024 121.72L146.968 121.464C147.528 120.328 148.216 118.456 148.568 117.192ZM154.712 117.496H155.864V126.36H154.712V117.496ZM158.488 116.024H159.672V128.664C159.672 129.496 159.48 129.864 158.952 130.056C158.424 130.264 157.448 130.296 156.152 130.296C156.088 129.96 155.912 129.4 155.736 129.032C156.808 129.08 157.8 129.064 158.12 129.064C158.408 129.048 158.488 128.968 158.488 128.68V116.024ZM161.704 122.104H176.344V123.416H161.704V122.104ZM181.432 115.512L182.632 115.816C181.752 118.184 180.328 120.408 178.84 121.848C178.6 121.64 178.104 121.24 177.8 121.08C179.32 119.752 180.648 117.672 181.432 115.512ZM181.176 117.496H191.496V118.664H180.6L181.176 117.496ZM180.392 121.128H191.144V122.248H181.592V126.04H180.392V121.128ZM177.752 125.432H192.248V126.6H177.752V125.432ZM185.192 118.104H186.424V130.296H185.192V118.104ZM201.208 117.016L202.408 117.064C202.152 122.904 201.592 127.336 199.304 130.312C199.096 130.12 198.536 129.752 198.248 129.592C200.52 126.904 201.048 122.488 201.208 117.016ZM199.384 116.6H205.704V117.736H199.384V116.6ZM204.648 120.968H206.936V122.04H204.296L204.648 120.968ZM206.6 120.968H206.84L207.064 120.92L207.8 121.224C206.808 125.896 204.344 128.808 201.352 130.312C201.192 130.04 200.76 129.592 200.504 129.4C203.448 128.04 205.768 125.384 206.6 121.224V120.968ZM202.088 120.776C203.176 124.488 205.4 127.864 208.456 129.288C208.184 129.512 207.816 129.96 207.624 130.264C204.472 128.632 202.28 125.128 201.064 121.08L202.088 120.776ZM205.192 116.6H206.424C205.96 118.392 205.304 120.664 204.872 122.04H203.672C204.168 120.616 204.808 118.312 205.192 116.6ZM193.976 126.168C193.912 125.928 193.736 125.384 193.592 125.08C193.944 125.016 194.328 124.6 194.84 124.008C195.384 123.416 197.128 121.128 198.264 118.92L199.272 119.528C197.96 121.752 196.36 123.96 194.792 125.544V125.56C194.792 125.56 193.976 125.928 193.976 126.168ZM193.976 126.168L193.88 125.16L194.456 124.696L199.064 123.416C199.048 123.72 199.08 124.184 199.128 124.44C194.872 125.704 194.328 125.912 193.976 126.168ZM193.88 122.248C193.816 121.992 193.624 121.432 193.496 121.112C193.784 121.048 194.072 120.664 194.44 120.12C194.808 119.576 196.008 117.496 196.696 115.544L197.816 116.072C196.952 118.072 195.768 120.136 194.6 121.592V121.624C194.6 121.624 193.88 122.008 193.88 122.248ZM193.88 122.248L193.848 121.352L194.424 120.984L197.432 120.664C197.368 120.968 197.336 121.416 197.336 121.656C194.6 122.008 194.152 122.12 193.88 122.248ZM193.656 128.104C195.032 127.672 197.112 126.904 199.128 126.152L199.352 127.208C197.464 127.944 195.464 128.712 193.96 129.288L193.656 128.104ZM212.648 120.968H220.568V122.024H212.648V120.968ZM209.96 124.616H224.104V125.736H209.96V124.616ZM216.392 123.448H217.624V128.856C217.624 129.576 217.432 129.928 216.824 130.104C216.248 130.28 215.32 130.296 213.864 130.296C213.784 129.96 213.544 129.464 213.352 129.144C214.584 129.176 215.672 129.176 215.992 129.16C216.312 129.144 216.392 129.064 216.392 128.824V123.448ZM220.2 120.968H220.504L220.76 120.904L221.528 121.496C220.44 122.6 218.76 123.704 217.24 124.36C217.096 124.152 216.776 123.832 216.568 123.656C217.912 123.08 219.448 122.024 220.2 121.208V120.968ZM210.28 118.232H223.832V121.8H222.648V119.32H211.416V121.8H210.28V118.232ZM221.72 115.672L222.968 116.088C222.296 117.08 221.432 118.152 220.76 118.856L219.816 118.456C220.456 117.704 221.272 116.52 221.72 115.672ZM211.368 116.232L212.376 115.752C213 116.424 213.656 117.336 213.928 117.976L212.856 118.488C212.6 117.88 211.96 116.92 211.368 116.232ZM215.48 115.88L216.52 115.496C217.064 116.248 217.64 117.288 217.832 117.96L216.728 118.392C216.536 117.72 216.008 116.664 215.48 115.88ZM228.328 118.68H239.416V119.848H228.328V118.68ZM227.624 123.368H238.84V124.52H227.624V123.368ZM225.88 128.6H240.168V129.768H225.88V128.6ZM232.408 115.576H233.64V129.192H232.408V115.576ZM228.808 115.832L230.04 116.104C229.336 118.584 228.216 120.952 226.936 122.488C226.696 122.28 226.152 121.928 225.848 121.768C227.16 120.344 228.2 118.12 228.808 115.832ZM244.648 120.968H252.568V122.024H244.648V120.968ZM241.96 124.616H256.104V125.736H241.96V124.616ZM248.392 123.448H249.624V128.856C249.624 129.576 249.432 129.928 248.824 130.104C248.248 130.28 247.32 130.296 245.864 130.296C245.784 129.96 245.544 129.464 245.352 129.144C246.584 129.176 247.672 129.176 247.992 129.16C248.312 129.144 248.392 129.064 248.392 128.824V123.448ZM252.2 120.968H252.504L252.76 120.904L253.528 121.496C252.44 122.6 250.76 123.704 249.24 124.36C249.096 124.152 248.776 123.832 248.568 123.656C249.912 123.08 251.448 122.024 252.2 121.208V120.968ZM242.28 118.232H255.832V121.8H254.648V119.32H243.416V121.8H242.28V118.232ZM253.72 115.672L254.968 116.088C254.296 117.08 253.432 118.152 252.76 118.856L251.816 118.456C252.456 117.704 253.272 116.52 253.72 115.672ZM243.368 116.232L244.376 115.752C245 116.424 245.656 117.336 245.928 117.976L244.856 118.488C244.6 117.88 243.96 116.92 243.368 116.232ZM247.48 115.88L248.52 115.496C249.064 116.248 249.64 117.288 249.832 117.96L248.728 118.392C248.536 117.72 248.008 116.664 247.48 115.88ZM258.888 116.728H270.44V117.88H258.888V116.728ZM260.68 119.992L261.496 119.208C262.92 120.168 264.824 121.544 265.768 122.424L264.92 123.352C264.024 122.44 262.12 121 260.68 119.992ZM270.008 116.728H271.208C271.208 116.728 271.208 117.24 271.208 117.416C271.096 125.832 270.968 128.536 270.36 129.352C270.008 129.896 269.608 130.072 269.032 130.12C268.408 130.184 267.368 130.152 266.44 130.104C266.424 129.768 266.264 129.272 266.04 128.952C267.16 129.032 268.168 129.032 268.584 129.032C268.888 129.032 269.064 128.984 269.24 128.776C269.768 128.184 269.896 125.064 270.008 117V116.728ZM258.648 126.856C260.952 126.152 264.744 124.888 268.248 123.688L268.456 124.808C265.16 125.976 261.528 127.224 259.064 128.072L258.648 126.856ZM280.936 116.856C279.608 118.872 276.904 121.416 274.056 123.08C273.88 122.808 273.544 122.376 273.272 122.12C276.184 120.472 278.968 117.768 280.232 115.608H281.48C283.224 118.088 286.152 120.568 288.776 121.912C288.472 122.216 288.184 122.632 287.96 122.984C285.352 121.48 282.408 118.952 280.936 116.856ZM280.296 120.856H281.56V130.296H280.296V120.856ZM40.168 135.056H41.496C41.368 137.568 41.128 145.552 34.504 149.152C34.296 148.848 33.896 148.48 33.528 148.208C40.056 144.88 40.056 137.184 40.168 135.056ZM41.448 135.376C41.496 136.624 41.96 145.12 48.552 148.144C48.2 148.416 47.832 148.816 47.64 149.152C40.856 145.904 40.408 136.96 40.296 135.488L41.448 135.376ZM50.952 141.12H55.784V142.096H50.952V141.12ZM50.296 136.24H55.528V137.296H50.296V136.24ZM49.656 138.864H57.416V139.92H49.656V138.864ZM52.408 134.56H53.544V139.424H52.408V134.56ZM56.664 134.928L57.784 135.264C56.168 139.232 53.528 142.24 50.184 144.144C50.008 143.904 49.576 143.44 49.32 143.232C52.664 141.52 55.224 138.624 56.664 134.928ZM53.048 143.264H54.184V148C54.184 148.624 54.056 148.928 53.624 149.104C53.176 149.264 52.488 149.28 51.464 149.28C51.4 148.976 51.24 148.528 51.08 148.224C51.88 148.24 52.552 148.24 52.776 148.24C53 148.224 53.048 148.176 53.048 148V143.264ZM55.544 141.12H55.784L56.008 141.056L56.712 141.568C55.96 142.496 54.856 143.488 53.912 144.112C53.768 143.904 53.48 143.632 53.288 143.472C54.104 142.928 55.064 142 55.544 141.312V141.12ZM49.576 145.04C51.528 144.864 54.568 144.56 57.48 144.24V145.296C54.696 145.6 51.752 145.92 49.72 146.144L49.576 145.04ZM58.664 137.552H64.36V138.672H58.664V137.552ZM59.096 134.56L60.296 134.752C59.752 137.76 58.792 140.608 57.464 142.432C57.256 142.224 56.744 141.808 56.472 141.616C57.768 139.952 58.616 137.312 59.096 134.56ZM62.168 138.16L63.384 138.288C62.616 143.824 60.92 147.248 56.888 149.328C56.76 149.056 56.408 148.512 56.168 148.256C59.976 146.464 61.512 143.248 62.168 138.16ZM59.272 138.496C59.976 142.912 61.496 146.704 64.488 148.272C64.2 148.512 63.816 148.976 63.64 149.296C60.504 147.456 58.984 143.536 58.184 138.672L59.272 138.496ZM68.248 141.344H77.032V142.368H69.448V149.296H68.248V141.344ZM76.632 141.344H77.832V148C77.832 148.656 77.672 148.96 77.16 149.12C76.664 149.28 75.832 149.28 74.536 149.28C74.472 148.992 74.296 148.576 74.152 148.288C75.08 148.32 76.024 148.32 76.28 148.304C76.552 148.288 76.632 148.224 76.632 148V141.344ZM68.968 143.584H77.128V144.48H68.968V143.584ZM65.96 136.128H80.04V137.2H65.96V136.128ZM70.408 136.784L71.72 137.168C71.016 138.144 70.12 139.248 69.432 139.968L68.472 139.6C69.128 138.848 69.944 137.632 70.408 136.784ZM74.872 137.792L75.816 137.184C77.24 138.096 79.016 139.44 79.896 140.4L78.888 141.12C78.056 140.16 76.328 138.752 74.872 137.792ZM66.6 139.248C69.448 139.232 74.008 139.136 78.28 139.04L78.216 140.032C74.04 140.176 69.56 140.304 66.648 140.368L66.6 139.248ZM68.968 145.728H77.08V146.608H68.968V145.728ZM72.344 134.56H73.576V136.656H72.344V134.56ZM81.768 136.464H88.248V137.6H81.768V136.464ZM85.272 138.928H86.424V149.216H85.272V138.928ZM81.624 145.344C83.32 145.072 85.928 144.608 88.424 144.16L88.488 145.232C86.152 145.696 83.688 146.192 81.896 146.528L81.624 145.344ZM82.28 142.72C82.216 142.464 82.024 141.904 81.88 141.584C82.168 141.504 82.408 141.008 82.712 140.288C83.032 139.616 84.008 136.944 84.456 134.512L85.704 134.784C85.08 137.376 84.072 140.112 83.112 142.016V142.032C83.112 142.032 82.28 142.464 82.28 142.72ZM82.28 142.72V141.728L82.936 141.392H88.28V142.496H83.512C82.904 142.496 82.408 142.592 82.28 142.72ZM90.408 134.688H91.512V138.128C91.512 141.2 91.32 145.84 88.664 149.36C88.472 149.136 88.056 148.784 87.768 148.592C90.328 145.36 90.408 140.912 90.408 138.128V134.688ZM88.6 137.952H93.816V139.072H88.6V137.952ZM93.24 137.952H94.328V147.36C94.328 147.856 94.456 147.904 94.664 147.904H95.048C95.352 147.904 95.4 147.488 95.432 145.664C95.736 145.904 96.136 146.064 96.44 146.144C96.328 148.272 96.184 148.912 95.096 148.912H94.456C93.672 148.912 93.24 148.624 93.24 147.488V137.952ZM109.688 139.696L110.68 139.392C111.464 140.768 112.2 142.56 112.424 143.728L111.368 144.08C111.16 142.912 110.456 141.072 109.688 139.696ZM102.312 136.832H112.248V137.936H102.312V136.832ZM106.616 134.576H107.784V137.472H106.616V134.576ZM105.336 137.504H106.44V139.664C106.44 142.064 106.168 144.912 103.496 147.12C103.288 146.88 102.856 146.544 102.568 146.384C105.112 144.352 105.336 141.792 105.336 139.648V137.504ZM108.072 137.504H109.192V145.712C109.192 146.32 109.064 146.624 108.664 146.816C108.248 147.008 107.624 147.024 106.632 147.024C106.584 146.704 106.424 146.24 106.264 145.936C106.984 145.952 107.608 145.952 107.816 145.952C108.008 145.952 108.072 145.888 108.072 145.696V137.504ZM103.288 139.344L104.376 139.552C103.944 141.264 103.208 142.928 102.36 144.016C102.136 143.856 101.64 143.568 101.368 143.456C102.232 142.432 102.904 140.912 103.288 139.344ZM101.016 142.016V146.688H99.832V143.12H97.736V142.016H101.016ZM101.016 146.048C101.784 147.216 103.192 147.776 105.08 147.856C106.84 147.904 110.504 147.872 112.424 147.744C112.264 148.016 112.088 148.576 112.024 148.944C110.248 149.008 106.872 149.04 105.08 148.992C102.984 148.896 101.528 148.336 100.488 147.072C99.752 147.76 98.968 148.448 98.152 149.152L97.528 147.952C98.248 147.44 99.16 146.736 99.944 146.048H101.016ZM98.424 135.504L99.224 134.768C100.184 135.264 101.336 136.064 101.88 136.688L101.048 137.504C100.52 136.88 99.4 136.048 98.424 135.504ZM97.8 138.768L98.6 137.984C99.592 138.448 100.808 139.216 101.4 139.84L100.568 140.688C100.008 140.08 98.824 139.264 97.8 138.768ZM115.096 137.136H119.96V147.6H115.096V146.512H118.84V138.208H115.096V137.136ZM114.376 137.136H115.496V148.88H114.376V137.136ZM115.016 141.584H119.432V142.656H115.016V141.584ZM116.824 134.528L118.12 134.768C117.8 135.76 117.4 136.864 117.08 137.584L116.12 137.344C116.392 136.576 116.696 135.36 116.824 134.528ZM122.232 137.088H127.144V138.208H122.232V137.088ZM126.728 137.088H127.848C127.848 137.088 127.848 137.536 127.848 137.712C127.592 145.056 127.368 147.536 126.728 148.32C126.376 148.784 126.008 148.928 125.448 148.976C124.904 149.04 123.96 149.008 123.064 148.96C123.032 148.608 122.888 148.112 122.664 147.792C123.704 147.872 124.664 147.888 125.032 147.888C125.352 147.888 125.544 147.84 125.72 147.632C126.248 147.056 126.504 144.4 126.728 137.344V137.088ZM122.568 134.496L123.72 134.768C123.128 137.152 122.184 139.504 121.08 141.024C120.872 140.832 120.376 140.496 120.088 140.336C121.176 138.928 122.056 136.72 122.568 134.496ZM121.832 141.248L122.76 140.704C123.672 141.84 124.776 143.392 125.288 144.336L124.264 144.976C123.784 144 122.712 142.416 121.832 141.248ZM132.664 138.624H133.864V149.264H132.664V138.624ZM133.288 138.624H141.352V142.72H133.288V141.664H140.152V139.68H133.288V138.624ZM133.256 144.256H142.28V149.2H141.096V145.328H133.256V144.256ZM133.288 147.488H141.768V148.56H133.288V147.488ZM136.328 134.592H137.592V136.96H136.328V134.592ZM130.248 135.968H143.72V139.44H142.504V137.104H131.416V139.44H130.248V135.968ZM145.832 137.328H160.152V138.48H145.832V137.328ZM151.064 141.12H157.464V142.272H151.064V141.12ZM157.032 141.12H158.264C158.264 141.12 158.248 141.52 158.216 141.696C157.896 146.304 157.576 148.08 156.952 148.72C156.584 149.104 156.184 149.216 155.576 149.264C155.016 149.296 153.96 149.264 152.872 149.216C152.856 148.864 152.68 148.368 152.456 148.032C153.608 148.144 154.744 148.144 155.16 148.144C155.512 148.144 155.736 148.128 155.912 147.968C156.424 147.504 156.744 145.712 157.016 141.328L157.032 141.12ZM150.792 137.968H152.12C151.88 142.208 151.416 147.008 146.536 149.344C146.36 149.04 145.976 148.608 145.672 148.368C150.344 146.256 150.616 141.792 150.792 137.968ZM152.312 134.528H153.544V137.824H152.312V134.528ZM170.392 139.968H176.344V141.088H170.392V139.968ZM161.976 136.24H169.032V137.264H161.976V136.24ZM161.8 142.592H169.112V143.632H161.8V142.592ZM161.752 139.904H169.224V140.928H161.752V139.904ZM173.368 140.416H174.536V149.2H173.368V140.416ZM164.936 134.624H166.104V136.768H164.936V134.624ZM164.936 140.736H166.104V149.264H164.936V140.736ZM169.816 135.872L171.288 136.32C171.272 136.448 171.176 136.512 170.952 136.544V141.488C170.952 143.888 170.664 147.136 168.408 149.36C168.264 149.088 167.832 148.688 167.544 148.528C169.592 146.512 169.816 143.744 169.816 141.472V135.872ZM175.176 134.752L176.136 135.632C174.632 136.304 172.392 136.848 170.472 137.184C170.408 136.928 170.248 136.512 170.104 136.272C171.896 135.888 174.008 135.328 175.176 134.752ZM165.992 143.936C166.504 144.288 168.248 145.712 168.648 146.08L167.944 146.976C167.432 146.384 165.928 144.976 165.336 144.48L165.992 143.936ZM162.936 137.552L163.88 137.344C164.216 138.048 164.488 138.992 164.568 139.6L163.56 139.872C163.512 139.248 163.256 138.288 162.936 137.552ZM167.032 137.312L168.12 137.552C167.816 138.352 167.48 139.248 167.192 139.84L166.232 139.616C166.52 138.976 166.856 137.984 167.032 137.312ZM164.952 143.12L165.816 143.456C165 145.232 163.528 147.12 162.248 148.112C162.056 147.84 161.704 147.456 161.432 147.264C162.728 146.416 164.184 144.688 164.952 143.12ZM178.424 138.176H179.624V149.296H178.424V138.176ZM178.68 135.344L179.56 134.768C180.264 135.392 181.112 136.272 181.512 136.88L180.568 137.536C180.216 136.928 179.384 136 178.68 135.344ZM182.648 135.36H191.08V136.464H182.648V135.36ZM190.392 135.36H191.576V147.744C191.576 148.432 191.432 148.784 190.984 148.976C190.536 149.168 189.784 149.184 188.664 149.184C188.6 148.88 188.456 148.368 188.28 148.064C189.096 148.08 189.848 148.08 190.088 148.064C190.328 148.064 190.392 147.984 190.392 147.744V135.36ZM180.792 138.32H189V139.28H180.792V138.32ZM182.744 140.592H186.984V141.504H182.744V140.592ZM182.776 142.864H187.016V143.76H182.776V142.864ZM186.76 139.056H187.848V147.92H186.76V139.056ZM181.96 139.024H183.048V145.68H181.96V139.024ZM180.344 145.52C182.632 145.408 186.184 145.168 189.512 144.928V145.888C186.28 146.144 182.84 146.4 180.488 146.56L180.344 145.52ZM199.08 147.84H208.344V148.944H199.08V147.84ZM201.32 139.456H206.552V140.544H201.32V139.456ZM201.336 143.616H206.568V144.704H201.336V143.616ZM200.696 135.36H206.952V148.4H205.752V136.464H201.832V148.4H200.696V135.36ZM194.152 145.088C194.104 144.864 193.912 144.32 193.784 144.032C194.136 143.952 194.536 143.552 195.064 142.976C195.64 142.4 197.448 140.144 198.68 137.952L199.64 138.544C198.248 140.768 196.584 142.928 194.952 144.48V144.496C194.952 144.496 194.152 144.848 194.152 145.088ZM194.152 145.088L194.104 144.16L194.68 143.744L199.416 142.864C199.384 143.184 199.4 143.632 199.416 143.856C195.064 144.752 194.488 144.896 194.152 145.088ZM194.04 141.248C193.976 141.008 193.8 140.432 193.672 140.128C193.96 140.048 194.248 139.68 194.616 139.136C195.016 138.592 196.264 136.512 196.984 134.56L198.088 135.072C197.176 137.072 195.976 139.152 194.776 140.592V140.624C194.776 140.624 194.04 141.008 194.04 141.248ZM194.04 141.248L194.024 140.368L194.584 140L197.784 139.664C197.736 139.952 197.704 140.4 197.704 140.64C194.776 141.008 194.312 141.12 194.04 141.248ZM193.768 147.088C195.144 146.8 197.256 146.304 199.288 145.824L199.416 146.832C197.496 147.344 195.496 147.84 193.992 148.24L193.768 147.088ZM211.512 149.712L211.144 148.88C212.456 148.336 213.176 147.52 213.176 146.32L212.872 144.96L213.736 146.176C213.512 146.464 213.192 146.544 212.888 146.544C212.232 146.544 211.688 146.16 211.688 145.392C211.688 144.64 212.264 144.24 212.904 144.24C213.8 144.24 214.28 144.976 214.28 146.096C214.28 147.824 213.192 149.136 211.512 149.712ZM225.816 140.048H240.184V141.168H225.816V140.048ZM227.224 136.752H236.488V137.856H227.224V136.752ZM231.288 134.56H232.52V140.64H231.288V134.56ZM237.144 142.736L238.184 143.616C236.232 144.496 233.4 145.328 230.904 145.904C230.84 145.648 230.664 145.232 230.52 144.992C232.92 144.4 235.624 143.536 237.144 142.736ZM238.376 135.184L239.464 135.744C236.264 140.176 231.496 143.552 226.376 145.664C226.184 145.392 225.768 144.896 225.512 144.64C230.712 142.704 235.432 139.376 238.376 135.184ZM230.12 142.544H231.352V147.232C231.352 147.824 231.576 147.952 232.824 147.952C233.4 147.952 236.344 147.952 237.112 147.952C238.2 147.952 238.36 147.632 238.472 145.744C238.776 145.952 239.288 146.128 239.624 146.192C239.432 148.48 239 149.056 237.176 149.056C236.712 149.056 233.24 149.056 232.792 149.056C230.712 149.056 230.12 148.688 230.12 147.232V142.544ZM247.128 135.408H256.168V136.512H247.128V135.408ZM250.952 135.856H252.088V149.248H250.952V135.856ZM247.688 138.48H254.872V139.568H248.808V146.976H247.688V138.48ZM254.424 138.48H255.544V145.616C255.544 146.176 255.448 146.48 255.064 146.672C254.68 146.864 254.12 146.864 253.24 146.864C253.192 146.56 253.032 146.112 252.888 145.808C253.496 145.824 254.024 145.824 254.2 145.824C254.376 145.824 254.424 145.76 254.424 145.584V138.48ZM245.064 134.592H246.184V140.992C246.184 144.16 245.88 147.088 243.48 149.264C243.288 149.024 242.872 148.64 242.584 148.464C244.808 146.496 245.064 143.856 245.064 140.992V134.592ZM242.504 136.4H243.592V144.176H242.504V136.4ZM265.928 146.096H270.888V147.248H265.928V146.096ZM265.48 136.064H271.448V148.464H270.232V137.2H266.648V148.576H265.48V136.064ZM260.936 135.92H262.136V149.264H260.936V135.92ZM257.8 139.296H264.936V140.416H257.8V139.296ZM260.872 139.696L261.72 140C260.968 142.48 259.496 145.44 258.056 146.976C257.928 146.64 257.624 146.16 257.416 145.872C258.76 144.496 260.232 141.904 260.872 139.696ZM264.008 134.72L264.824 135.648C263.112 136.288 260.488 136.752 258.296 137.008C258.232 136.736 258.088 136.336 257.944 136.064C260.072 135.776 262.616 135.296 264.008 134.72ZM262.04 140.736C262.552 141.248 264.408 143.424 264.824 143.952L264.088 144.928C263.576 144.08 262.024 142.032 261.432 141.328L262.04 140.736ZM282.792 134.608H283.96V136.992H282.792V134.608ZM278.952 136.416H288.12V139.328H287V137.472H280.024V139.344H278.952V136.416ZM280.216 139.248H286.824V140.304H280.216V139.248ZM279.128 142.128H288.168V143.216H279.128V142.128ZM281.272 142.608H282.44C282.248 146.032 281.672 148.16 278.52 149.296C278.408 149.024 278.088 148.592 277.848 148.368C280.696 147.408 281.144 145.6 281.272 142.608ZM284.232 142.512H285.368V147.52C285.368 147.92 285.432 147.984 285.768 147.984C285.912 147.984 286.664 147.984 286.856 147.984C287.208 147.984 287.272 147.728 287.304 145.984C287.528 146.192 288.008 146.384 288.328 146.448C288.216 148.528 287.928 149.072 286.984 149.072C286.744 149.072 285.816 149.072 285.592 149.072C284.504 149.072 284.232 148.72 284.232 147.536V142.512ZM274.28 135.264H278.056V136.352H275.368V149.296H274.28V135.264ZM277.688 135.264H277.896L278.088 135.216L278.856 135.68C278.392 136.992 277.8 138.64 277.256 139.92C278.44 141.248 278.696 142.368 278.696 143.36C278.696 144.224 278.52 144.896 278.072 145.216C277.848 145.36 277.56 145.456 277.24 145.504C276.92 145.536 276.52 145.536 276.152 145.52C276.136 145.232 276.04 144.768 275.864 144.464C276.232 144.496 276.536 144.512 276.792 144.48C276.984 144.48 277.16 144.432 277.288 144.336C277.544 144.16 277.624 143.728 277.624 143.248C277.624 142.384 277.336 141.296 276.184 140.048C276.76 138.592 277.352 136.688 277.688 135.584V135.264ZM32.808 168.184C32.728 167.896 32.488 167.384 32.312 167.128C32.584 167 32.968 166.76 32.968 166.136V153.656H34.216V167.112C34.216 167.112 32.808 167.752 32.808 168.184ZM32.808 168.184L32.712 167.096L33.352 166.616L38.072 165.448C38.072 165.8 38.12 166.312 38.184 166.568C33.784 167.752 33.192 167.944 32.808 168.184ZM29.88 159.832H44.104V161.032H29.88V159.832ZM37.704 160.376C38.824 163.448 41.144 165.752 44.472 166.696C44.168 166.952 43.8 167.464 43.624 167.816C40.168 166.68 37.864 164.168 36.6 160.664L37.704 160.376ZM41.304 153.912L42.504 154.424C40.92 156.28 38.488 157.944 36.312 159C36.104 158.744 35.624 158.248 35.32 158.024C37.56 157.112 39.896 155.576 41.304 153.912ZM46.392 156.52H56.344V157.72H46.392V156.52ZM55.768 156.52H57.064C57.064 156.52 57.064 157 57.048 157.176C56.808 164.104 56.552 166.52 55.912 167.288C55.544 167.768 55.16 167.928 54.568 167.976C53.992 168.04 52.968 168.008 51.992 167.96C51.976 167.592 51.8 167.048 51.592 166.68C52.648 166.776 53.64 166.776 54.04 166.776C54.376 166.792 54.552 166.744 54.744 166.552C55.288 165.976 55.544 163.448 55.768 156.792V156.52ZM51.224 153.576H52.504V156.376C52.504 160.008 52.072 164.936 46.648 168.344C46.44 168.072 45.976 167.608 45.672 167.384C50.84 164.2 51.224 159.688 51.224 156.376V153.576ZM47.928 159.08L49.016 159.528C48.52 160.952 47.752 162.84 46.824 164.04L45.72 163.4C46.664 162.28 47.48 160.488 47.928 159.08ZM57.432 159.32L58.536 158.952C59.288 160.52 60.072 162.616 60.36 163.912L59.16 164.344C58.92 163.048 58.184 160.92 57.432 159.32ZM67.672 159.368L69.08 159.72C68.072 162.136 66.68 165.128 65.496 167.064L64.392 166.712C65.528 164.744 66.92 161.624 67.672 159.368ZM62.424 166.344C65.352 166.248 70.008 166.056 74.296 165.848L74.264 167C70.072 167.24 65.592 167.48 62.584 167.608L62.424 166.344ZM70.744 162.872L71.896 162.344C73.352 164.024 75 166.248 75.8 167.704L74.584 168.36C73.832 166.904 72.168 164.568 70.744 162.872ZM66.056 154.04L67.384 154.408C66.312 156.984 64.632 159.432 62.936 161.016C62.68 160.776 62.12 160.344 61.784 160.152C63.544 158.712 65.128 156.408 66.056 154.04ZM71.784 154.024C72.84 156.12 74.856 158.648 76.328 159.976C76.008 160.232 75.56 160.696 75.32 161C73.832 159.48 71.832 156.76 70.6 154.52L71.784 154.024ZM84.344 161.736H85.576V167.16H84.344V161.736ZM79.752 157.496H90.344V158.552H79.752V157.496ZM77.928 166.76H92.12V167.832H77.928V166.76ZM79.4 163.688H90.712V164.744H79.4V163.688ZM82.952 158.056L84.184 158.408C83.528 159.528 82.68 160.84 82.008 161.672L81.048 161.336C81.688 160.456 82.504 159.032 82.952 158.056ZM79.112 160.92C81.752 160.888 85.944 160.76 89.896 160.648L89.832 161.672C85.96 161.832 81.864 161.96 79.176 162.024L79.112 160.92ZM86.84 159.512L87.704 158.904C89.048 159.768 90.68 161.064 91.448 161.992L90.52 162.68C89.784 161.752 88.184 160.408 86.84 159.512ZM84.344 153.576H85.576V155.528H84.344V153.576ZM78.12 154.776H91.912V157.736H90.696V155.88H79.288V157.736H78.12V154.776ZM95.096 156.136H99.96V166.6H95.096V165.512H98.84V157.208H95.096V156.136ZM94.376 156.136H95.496V167.88H94.376V156.136ZM95.016 160.584H99.432V161.656H95.016V160.584ZM96.824 153.528L98.12 153.768C97.8 154.76 97.4 155.864 97.08 156.584L96.12 156.344C96.392 155.576 96.696 154.36 96.824 153.528ZM102.232 156.088H107.144V157.208H102.232V156.088ZM106.728 156.088H107.848C107.848 156.088 107.848 156.536 107.848 156.712C107.592 164.056 107.368 166.536 106.728 167.32C106.376 167.784 106.008 167.928 105.448 167.976C104.904 168.04 103.96 168.008 103.064 167.96C103.032 167.608 102.888 167.112 102.664 166.792C103.704 166.872 104.664 166.888 105.032 166.888C105.352 166.888 105.544 166.84 105.72 166.632C106.248 166.056 106.504 163.4 106.728 156.344V156.088ZM102.568 153.496L103.72 153.768C103.128 156.152 102.184 158.504 101.08 160.024C100.872 159.832 100.376 159.496 100.088 159.336C101.176 157.928 102.056 155.72 102.568 153.496ZM101.832 160.248L102.76 159.704C103.672 160.84 104.776 162.392 105.288 163.336L104.264 163.976C103.784 163 102.712 161.416 101.832 160.248ZM115.672 159.368L117.08 159.72C116.072 162.136 114.68 165.128 113.496 167.064L112.392 166.712C113.528 164.744 114.92 161.624 115.672 159.368ZM110.424 166.344C113.352 166.248 118.008 166.056 122.296 165.848L122.264 167C118.072 167.24 113.592 167.48 110.584 167.608L110.424 166.344ZM118.744 162.872L119.896 162.344C121.352 164.024 123 166.248 123.8 167.704L122.584 168.36C121.832 166.904 120.168 164.568 118.744 162.872ZM114.056 154.04L115.384 154.408C114.312 156.984 112.632 159.432 110.936 161.016C110.68 160.776 110.12 160.344 109.784 160.152C111.544 158.712 113.128 156.408 114.056 154.04ZM119.784 154.024C120.84 156.12 122.856 158.648 124.328 159.976C124.008 160.232 123.56 160.696 123.32 161C121.832 159.48 119.832 156.76 118.6 154.52L119.784 154.024ZM125.96 159.496H140.072V160.632H125.96V159.496ZM128.552 155.88H138.888V156.984H128.552V155.88ZM128.6 166.408H137.56V167.528H128.6V166.408ZM132.712 153.56H133.976V160.152H132.712V153.56ZM127.944 162.216H138.2V168.408H136.952V163.336H129.16V168.424H127.944V162.216ZM128.968 153.704L130.152 153.992C129.464 155.96 128.36 157.88 127.24 159.144C127 158.968 126.456 158.648 126.152 158.488C127.336 157.336 128.344 155.512 128.968 153.704ZM143.512 168.712L143.144 167.88C144.456 167.336 145.176 166.52 145.176 165.32L144.872 163.96L145.736 165.176C145.512 165.464 145.192 165.544 144.888 165.544C144.232 165.544 143.688 165.16 143.688 164.392C143.688 163.64 144.264 163.24 144.904 163.24C145.8 163.24 146.28 163.976 146.28 165.096C146.28 166.824 145.192 168.136 143.512 168.712ZM157.992 156.04H172.008V157.208H157.992V156.04ZM162.952 161.112H171.384V162.232H162.952V161.112ZM162.328 166.776H172.008V167.912H162.328V166.776ZM166.568 158.024H167.768V167.384H166.568V158.024ZM163.256 153.56L164.488 153.864C163.368 157.528 161.416 161.256 158.232 163.544C158.104 163.224 157.8 162.712 157.608 162.44C160.488 160.408 162.36 156.856 163.256 153.56ZM160.088 160.152H161.288V168.232H160.088V160.152ZM174.248 164.088C174.184 163.848 174.008 163.304 173.864 162.984C174.216 162.936 174.584 162.536 175.064 161.928C175.608 161.352 177.288 159.112 178.408 156.92L179.4 157.544C178.136 159.72 176.584 161.896 175.064 163.448V163.48C175.064 163.48 174.248 163.848 174.248 164.088ZM174.248 164.088L174.184 163.128L174.776 162.712L179.128 161.928C179.096 162.232 179.096 162.696 179.128 162.936C175.112 163.752 174.568 163.896 174.248 164.088ZM174.136 160.248C174.088 159.992 173.88 159.416 173.752 159.096C174.04 159.032 174.312 158.648 174.664 158.12C175.016 157.592 176.168 155.528 176.824 153.624L177.944 154.152C177.112 156.104 175.992 158.152 174.872 159.592V159.624C174.872 159.624 174.136 159.992 174.136 160.248ZM174.136 160.248L174.12 159.352L174.696 158.968L177.672 158.68C177.608 158.984 177.592 159.432 177.592 159.656C174.856 160.008 174.408 160.104 174.136 160.248ZM173.848 166.136C175.176 165.816 177.208 165.256 179.192 164.712L179.352 165.72C177.512 166.28 175.576 166.84 174.104 167.288L173.848 166.136ZM179.912 157.416L187.432 156.296L187.64 157.352L180.12 158.504L179.912 157.416ZM179.592 160.856L187.88 159.304L188.088 160.376L179.8 161.944L179.592 160.856ZM182.344 153.544H183.528C183.48 161.032 184.728 167.08 186.824 167.08C187.272 167.08 187.432 166.696 187.496 165.288C187.752 165.544 188.12 165.8 188.392 165.928C188.184 167.72 187.8 168.248 186.696 168.248C183.48 168.248 182.392 161.352 182.344 153.544ZM184.264 154.52L184.952 153.864C185.736 154.216 186.76 154.792 187.272 155.224L186.584 155.976C186.056 155.528 185.064 154.904 184.264 154.52ZM187.192 161.432L188.184 161.896C186.424 164.648 183.336 166.792 179.848 168.008C179.688 167.704 179.368 167.288 179.096 167.016C182.504 165.976 185.56 163.976 187.192 161.432ZM191.832 155.704H204.056V156.856H191.832V155.704ZM191.272 155.704H192.472V160.072C192.472 162.504 192.216 166.04 190.568 168.392C190.376 168.152 189.88 167.736 189.608 167.592C191.128 165.4 191.272 162.328 191.272 160.056V155.704ZM196.824 153.576H198.056V156.36H196.824V153.576ZM218.792 153.672L219.464 154.552C217.288 155.048 213.848 155.368 211.032 155.48C210.984 155.224 210.856 154.824 210.744 154.584C213.512 154.44 216.904 154.104 218.792 153.672ZM210.568 157.736H220.152V158.744H210.568V157.736ZM214.712 154.6H215.816V161.736H214.712V154.6ZM214.728 162.504H215.768V167.24H214.728V162.504ZM211.768 155.864L212.744 155.56C213.08 156.136 213.496 156.904 213.672 157.384L212.68 157.752C212.488 157.256 212.104 156.456 211.768 155.864ZM217.944 155.256L219 155.576C218.52 156.52 217.96 157.576 217.512 158.264L216.632 157.96C217.064 157.224 217.64 156.056 217.944 155.256ZM214.072 158.28L215.016 158.648C214.056 160.28 212.248 161.8 210.584 162.568C210.424 162.312 210.072 161.896 209.832 161.688C211.448 161.048 213.176 159.688 214.072 158.28ZM216.504 158.28C217.4 159.576 219.112 160.872 220.616 161.496C220.376 161.704 220.024 162.104 219.848 162.392C218.296 161.64 216.536 160.136 215.576 158.664L216.504 158.28ZM211.464 162.088H219.304V168.184H218.184V163.016H212.552V168.264H211.464V162.088ZM212.168 164.376H218.52V165.256H212.168V164.376ZM212.168 166.648H218.488V167.56H212.168V166.648ZM205.432 161.992C206.648 161.576 208.504 160.904 210.28 160.248L210.472 161.336C208.824 161.992 207.064 162.648 205.688 163.144L205.432 161.992ZM205.656 156.792H210.52V157.912H205.656V156.792ZM207.672 153.576H208.792V166.888C208.792 167.56 208.632 167.88 208.232 168.072C207.864 168.264 207.24 168.296 206.232 168.296C206.184 168.008 206.04 167.512 205.88 167.176C206.584 167.192 207.192 167.192 207.384 167.176C207.576 167.176 207.672 167.128 207.672 166.888V153.576ZM229 161.347V162.818H221V161.347H229ZM229.976 154.456H236.872V155.56H229.976V154.456ZM238.008 159.016H244.44V160.168H238.008V159.016ZM241.48 159.768H242.664V168.296H241.48V159.768ZM237.544 155.144L239.048 155.544C239.032 155.656 238.952 155.72 238.728 155.752V159.416C238.728 162.008 238.392 165.672 235.992 168.248C235.816 167.992 235.384 167.592 235.096 167.448C237.32 165.08 237.544 161.864 237.544 159.416V155.144ZM230.568 157.224H231.704V161.544C231.704 163.592 231.512 166.424 230.28 168.312C230.088 168.088 229.592 167.72 229.336 167.576C230.456 165.848 230.568 163.384 230.568 161.544V157.224ZM243.064 153.752L244.12 154.664C242.536 155.432 240.216 156.088 238.216 156.552C238.152 156.28 237.96 155.848 237.8 155.576C239.704 155.128 241.864 154.44 243.064 153.752ZM231.224 157.224H236.472V162.216H231.224V161.128H235.304V158.328H231.224V157.224ZM246.008 155.64H260.024V156.776H246.008V155.64ZM249.912 161.352H257.432V162.392H249.912V161.352ZM249.064 158.632H257.24V159.704H250.248V168.28H249.064V158.632ZM256.968 158.632H258.136V166.792C258.136 167.496 257.992 167.864 257.448 168.056C256.936 168.248 256.04 168.248 254.664 168.248C254.616 167.912 254.44 167.416 254.264 167.08C255.336 167.128 256.312 167.112 256.6 167.112C256.872 167.096 256.968 167.016 256.968 166.776V158.632ZM251.24 153.56L252.456 153.848C251.368 157.368 249.448 160.92 246.392 163.064C246.232 162.792 245.864 162.376 245.624 162.136C248.488 160.168 250.376 156.776 251.24 153.56ZM249.912 164.056H257.432V165.096H249.912V164.056ZM264.52 165.24C265.032 165.24 265.416 165.64 266.28 166.104C267.288 166.664 268.696 166.744 270.424 166.744C272.248 166.744 274.76 166.632 276.392 166.44C276.232 166.792 276.04 167.416 276.008 167.8C274.744 167.88 272.008 167.96 270.392 167.96C268.504 167.96 267.128 167.8 266.024 167.224C265.368 166.856 264.856 166.408 264.504 166.408C263.96 166.408 263.192 167.24 262.408 168.152L261.56 166.984C262.6 165.992 263.704 165.24 264.52 165.24ZM261.96 154.888L262.904 154.264C263.752 154.968 264.776 156.008 265.24 156.728L264.232 157.432C263.8 156.712 262.808 155.656 261.96 154.888ZM265.016 159.592V165.848H263.848V160.712H261.784V159.592H265.016ZM265.72 156.072H276.12V157.208H265.72V156.072ZM273.08 156.296L274.28 156.536C273.016 161.176 270.488 163.944 266.36 165.576C266.232 165.32 265.864 164.776 265.624 164.52C269.624 163.144 272.008 160.568 273.08 156.296ZM269.368 153.832L270.504 153.48C270.968 154.184 271.496 155.16 271.72 155.768L270.52 156.2C270.328 155.576 269.816 154.568 269.368 153.832ZM266.2 158.824L267.048 158.088C269.88 160.04 273.64 162.856 275.528 164.648L274.584 165.528C272.824 163.736 269.112 160.824 266.2 158.824ZM279.688 163.208H290.488V164.36H279.688V163.208ZM277.896 166.712H292.104V167.896H277.896V166.712ZM281.8 156.312H284.936V157.4H281.8V156.312ZM285.784 153.576H286.984V159.864C286.984 160.44 287.096 160.552 287.832 160.552C288.168 160.552 289.896 160.552 290.344 160.552C290.984 160.552 291.096 160.232 291.16 158.44C291.432 158.648 291.928 158.84 292.28 158.92C292.12 161.08 291.768 161.688 290.44 161.688C290.088 161.688 288.04 161.688 287.72 161.688C286.184 161.688 285.784 161.288 285.784 159.864V153.576ZM277.656 160.984C279.496 160.792 282.312 160.456 285.032 160.12L285.064 161.224C282.456 161.576 279.72 161.928 277.8 162.168L277.656 160.984ZM290.552 155.144L291.512 156.072C290.12 156.792 288.184 157.48 286.488 157.992C286.408 157.72 286.248 157.304 286.088 157.048C287.688 156.536 289.512 155.8 290.552 155.144ZM281.272 153.576H282.44V160.904L281.272 161.032V153.576ZM278.728 155.32H279.832V161.192L278.728 161.304V155.32ZM90.408 174.432H96.008V175.488H90.408V174.432ZM92.104 185.248H96.584V186.272H92.104V185.248ZM92.088 182.592H96.6V183.552H92.088V182.592ZM89.688 177.408H97.96V178.48H89.688V177.408ZM92.888 172.704H94.008V178.096H92.888V172.704ZM97.128 173.12L98.216 173.44C96.456 177.44 93.608 180.512 90.088 182.448C89.944 182.192 89.56 181.712 89.336 181.472C92.808 179.744 95.544 176.832 97.128 173.12ZM92.472 180.032H96.552V181.04H92.472V187.216H91.368V180.736L92.04 180.032H92.472ZM96.072 180.032H97.24V186.992H96.072V180.032ZM98.632 173.488H103.416V174.608H99.832V187.28H98.632V173.488ZM103.112 173.488H103.352L103.544 173.424L104.408 173.984C103.736 175.488 102.872 177.344 102.088 178.816C103.768 180.304 104.2 181.568 104.2 182.72C104.216 183.712 103.976 184.448 103.384 184.832C103.096 185.024 102.728 185.136 102.312 185.184C101.88 185.232 101.304 185.232 100.808 185.2C100.792 184.88 100.648 184.352 100.456 184.032C100.968 184.08 101.448 184.096 101.8 184.064C102.088 184.048 102.36 183.984 102.552 183.872C102.936 183.664 103.048 183.2 103.048 182.608C103.048 181.6 102.536 180.384 100.84 178.992C101.704 177.328 102.6 175.152 103.112 173.856V173.488ZM114.376 181.024C115.4 183.408 117.576 185.296 120.312 186.08C120.04 186.32 119.688 186.784 119.528 187.104C116.728 186.144 114.552 184.064 113.384 181.344L114.376 181.024ZM118.648 180.832L119.624 181.44C118.552 182.304 117.144 183.248 116.024 183.856L115.208 183.28C116.328 182.672 117.8 181.616 118.648 180.832ZM109.528 180.24L110.552 180.672C109.448 181.584 107.864 182.576 106.6 183.2C106.408 182.992 105.992 182.608 105.72 182.432C107.048 181.872 108.536 181.04 109.528 180.24ZM110.168 183.088L111.272 183.536C109.976 184.88 108.056 186.192 106.44 187.024C106.216 186.8 105.768 186.384 105.48 186.176C107.16 185.44 109.016 184.272 110.168 183.088ZM105.96 173.344H113.608V174.256H105.96V173.344ZM107.752 175.248H112.024V176.016H107.752V175.248ZM107.752 177.008H112.024V177.776H107.752V177.008ZM113.416 174.128H118.952V175.104H113.416V174.128ZM111.48 173.712H112.584V180.384H111.48V173.712ZM118.552 174.128H118.76L118.968 174.08L119.72 174.448C118.616 177.28 116.088 179.152 113.544 180.064C113.4 179.808 113.096 179.408 112.872 179.2C115.208 178.432 117.64 176.656 118.552 174.336V174.128ZM105.736 179.12C107.336 179.008 109.72 178.832 112.056 178.64V179.488C109.832 179.696 107.56 179.904 105.88 180.048L105.736 179.12ZM113.72 176.496L114.52 175.776C116.488 176.688 119.048 178.176 120.344 179.264L119.464 180.096C118.264 179.024 115.736 177.488 113.72 176.496ZM115.608 179.776L116.568 180.288C114.936 181.312 112.36 182.336 110.36 182.96C110.216 182.72 109.88 182.24 109.656 182.032C111.64 181.536 114.136 180.656 115.608 179.776ZM107.208 173.712H108.296V179.312L107.208 179.424V173.712ZM112.36 181.888L112.968 181.28L113.56 181.488V187.248H112.36V181.888ZM121.848 182.352H136.152V183.36H121.848V182.352ZM124.536 176.512H134.44V177.36H124.536V176.512ZM124.536 178.432H134.488V179.296H124.536V178.432ZM124.344 174.464H135.096V175.456H124.344V174.464ZM128.664 175.024H129.832V180.768H128.664V175.024ZM128.36 181.072H129.56V187.28H128.36V181.072ZM128.104 182.72L129.032 183.2C127.448 184.864 124.6 186.384 122.248 187.12C122.072 186.8 121.72 186.352 121.448 186.112C123.832 185.504 126.648 184.16 128.104 182.72ZM129.832 182.72C131.272 184.128 134.072 185.408 136.472 186C136.216 186.24 135.88 186.688 135.704 186.992C133.32 186.288 130.488 184.816 128.904 183.2L129.832 182.72ZM129.416 172.56L130.76 172.752C130.312 173.6 129.816 174.496 129.4 175.104L128.344 174.88C128.728 174.24 129.192 173.248 129.416 172.56ZM125.24 172.544L126.488 172.768C125.544 174.528 124.2 176.48 122.296 178.08C122.088 177.808 121.688 177.44 121.416 177.28C123.208 175.872 124.52 174 125.24 172.544ZM123.784 175.12H124.936V180.4H135.72V181.36H123.784V175.12ZM137.992 175.04H152.008V176.208H137.992V175.04ZM142.952 180.112H151.384V181.232H142.952V180.112ZM142.328 185.776H152.008V186.912H142.328V185.776ZM146.568 177.024H147.768V186.384H146.568V177.024ZM143.256 172.56L144.488 172.864C143.368 176.528 141.416 180.256 138.232 182.544C138.104 182.224 137.8 181.712 137.608 181.44C140.488 179.408 142.36 175.856 143.256 172.56ZM140.088 179.152H141.288V187.232H140.088V179.152ZM153.704 179.104H168.344V180.416H153.704V179.104ZM176.936 173.856C175.608 175.872 172.904 178.416 170.056 180.08C169.88 179.808 169.544 179.376 169.272 179.12C172.184 177.472 174.968 174.768 176.232 172.608H177.48C179.224 175.088 182.152 177.568 184.776 178.912C184.472 179.216 184.184 179.632 183.96 179.984C181.352 178.48 178.408 175.952 176.936 173.856ZM176.296 177.856H177.56V187.296H176.296V177.856ZM195.16 172.56H196.296V183.712H195.16V172.56ZM190.12 179.168L198.744 175.536L199.192 176.56L190.584 180.224L190.12 179.168ZM191.848 174.064H193V184.768C193 185.648 193.192 185.84 194.264 185.84C194.792 185.84 197.48 185.84 198.12 185.84C199.064 185.84 199.224 185.408 199.336 183.568C199.624 183.76 200.088 183.952 200.424 184.016C200.232 186.224 199.848 186.928 198.168 186.928C197.736 186.928 194.632 186.928 194.232 186.928C192.392 186.928 191.848 186.496 191.848 184.752V174.064ZM198.536 175.696H198.392L198.68 175.456L198.888 175.28L199.736 175.6L199.688 175.824C199.688 178.832 199.64 181.232 199.528 181.856C199.432 182.496 199.128 182.8 198.664 182.912C198.232 183.024 197.592 183.024 197.16 183.024C197.112 182.704 197.016 182.256 196.872 181.984C197.24 182 197.768 182 197.944 182C198.184 182 198.344 181.936 198.424 181.568C198.52 181.152 198.536 178.88 198.536 175.696ZM185.656 176.416H190.744V177.552H185.656V176.416ZM187.72 172.752H188.856V183.136H187.72V172.752ZM185.512 183.552C186.808 183.072 188.776 182.24 190.68 181.424L190.936 182.496C189.224 183.312 187.416 184.128 185.992 184.736L185.512 183.552ZM201.832 175.328H216.152V176.48H201.832V175.328ZM207.064 179.12H213.464V180.272H207.064V179.12ZM213.032 179.12H214.264C214.264 179.12 214.248 179.52 214.216 179.696C213.896 184.304 213.576 186.08 212.952 186.72C212.584 187.104 212.184 187.216 211.576 187.264C211.016 187.296 209.96 187.264 208.872 187.216C208.856 186.864 208.68 186.368 208.456 186.032C209.608 186.144 210.744 186.144 211.16 186.144C211.512 186.144 211.736 186.128 211.912 185.968C212.424 185.504 212.744 183.712 213.016 179.328L213.032 179.12ZM206.792 175.968H208.12C207.88 180.208 207.416 185.008 202.536 187.344C202.36 187.04 201.976 186.608 201.672 186.368C206.344 184.256 206.616 179.792 206.792 175.968ZM208.312 172.528H209.544V175.824H208.312V172.528ZM224.472 182.144L224.152 175.936L224.104 174.032H225.88L225.832 175.936L225.512 182.144H224.472ZM225 186.08C224.424 186.08 223.96 185.68 223.96 185.04C223.96 184.4 224.424 183.968 225 183.968C225.56 183.968 226.024 184.4 226.024 185.04C226.024 185.68 225.56 186.08 225 186.08Z" fill="#2D3342"/>
<defs>
<linearGradient id="paint0_linear_1392_7027" x1="137.645" y1="28" x2="175.471" y2="69.2322" gradientUnits="userSpaceOnUse">
<stop stop-color="#5955B3"/>
<stop offset="1" stop-color="#6563CE"/>
</linearGradient>
</defs>
</svg>
