<svg width="325" height="290" viewBox="0 0 325 290" fill="none" xmlns="http://www.w3.org/2000/svg">
<rect width="325" height="290" rx="5" fill="white"/>
<path opacity="0.2" fill-rule="evenodd" clip-rule="evenodd" d="M324.665 270.066C324.63 281.048 315.744 289.945 304.767 290H171.146C177.238 276.125 202.685 248.375 255.738 248.375C308.791 248.375 323.795 226.792 324.665 216V270.066Z" fill="#89AFFF"/>
<path opacity="0.2" fill-rule="evenodd" clip-rule="evenodd" d="M149.339 0C147.453 10.542 135.894 40.1867 88.2786 53.6336C42.0806 66.6801 11.6466 62.1933 0.329473 57.9765L0.329531 20C0.32953 8.95432 9.2838 1.09491e-05 20.3295 1.00856e-05L149.339 0Z" fill="#89AFFF"/>
<path d="M109.7 40.248H116.108V42.984H109.7V40.248ZM113.036 35.496H120.788V38.256H113.036V35.496ZM121.892 36.552C123.38 42.36 126.548 47.136 131.948 49.2C131.3 49.776 130.364 50.976 129.932 51.768C124.244 49.176 121.22 43.968 119.468 37.08L121.892 36.552ZM128.468 37.392L131.132 39.336C129.068 41.16 126.596 43.176 124.676 44.424L122.636 42.744C124.532 41.4 127.004 39.168 128.468 37.392ZM119.06 35.496H122.18V49.824C122.18 51.36 121.844 52.152 120.836 52.632C119.804 53.088 118.364 53.136 116.324 53.136C116.204 52.296 115.772 51.024 115.34 50.232C116.564 50.304 118.076 50.304 118.484 50.304C118.916 50.28 119.06 50.16 119.06 49.776V35.496ZM114.908 33.048L116.348 30.696C119.156 31.296 123.164 32.592 125.228 33.648L123.692 36.336C121.748 35.232 117.836 33.792 114.908 33.048ZM115.028 40.248H115.604L116.108 40.152L118.052 40.968C116.9 45.984 114.38 49.728 111.428 51.72C110.972 51.096 109.796 49.992 109.1 49.536C111.956 47.856 114.188 44.664 115.028 40.8V40.248ZM139.052 38.832V48.816H136.244V41.496H133.388V38.832H139.052ZM133.82 33.504L135.644 31.608C136.94 32.52 138.932 33.912 139.916 34.728L137.996 36.888C137.084 35.976 135.164 34.512 133.82 33.504ZM138.02 47.736C138.764 47.736 139.34 48.36 140.636 49.08C142.172 50.04 144.332 50.184 146.948 50.184C149.444 50.184 153.452 49.968 155.948 49.608C155.612 50.376 155.156 51.768 155.132 52.56C153.308 52.68 149.42 52.8 146.828 52.8C143.852 52.8 141.908 52.536 140.252 51.576C139.268 51 138.476 50.28 137.948 50.28C137.204 50.28 136.052 51.768 135.02 53.208L133.172 50.592C134.804 48.936 136.7 47.736 138.02 47.736ZM140.108 37.32H155.18V39.888H140.108V37.32ZM141.668 31.968H153.668V34.512H141.668V31.968ZM143.66 38.808H146.492C146.276 43.752 145.58 47.112 140.948 49.056C140.66 48.36 139.892 47.256 139.268 46.728C143.156 45.264 143.492 42.744 143.66 38.808ZM148.268 38.856H150.98V45.264C150.98 45.96 151.028 46.056 151.436 46.056C151.604 46.056 152.3 46.056 152.492 46.056C152.948 46.056 153.044 45.72 153.116 43.368C153.62 43.8 154.772 44.256 155.492 44.424C155.252 47.712 154.556 48.576 152.804 48.576C152.372 48.576 151.388 48.576 150.98 48.576C148.748 48.576 148.268 47.76 148.268 45.288V38.856ZM157.82 33.96H179.228V36.72H157.82V33.96ZM165.644 41.736H178.22V44.4H165.644V41.736ZM164.708 49.896H179.132V52.56H164.708V49.896ZM170.54 37.752H173.444V51.312H170.54V37.752ZM165.38 30.6L168.38 31.32C166.604 37.104 163.58 42.936 158.444 46.44C158.156 45.624 157.484 44.352 157.052 43.656C161.396 40.824 164.132 35.448 165.38 30.6ZM160.58 40.656H163.484V53.112H160.58V40.656ZM182.42 46.944C182.276 46.416 181.868 45.144 181.532 44.424C182.18 44.304 182.708 43.776 183.476 42.888C184.316 42.024 186.764 38.736 188.396 35.472L190.7 36.96C188.9 40.08 186.524 43.248 184.22 45.552V45.624C184.22 45.624 182.42 46.44 182.42 46.944ZM182.42 46.944L182.252 44.712L183.452 43.848L189.98 42.768C189.884 43.512 189.86 44.592 189.908 45.168C184.028 46.32 183.044 46.608 182.42 46.944ZM182.252 41.088C182.132 40.536 181.652 39.192 181.34 38.448C181.844 38.304 182.252 37.8 182.78 37.032C183.308 36.312 184.964 33.408 185.852 30.672L188.516 31.944C187.316 34.68 185.516 37.608 183.788 39.648V39.72C183.788 39.72 182.252 40.584 182.252 41.088ZM182.252 41.088L182.18 39.072L183.38 38.28L187.724 37.968C187.556 38.688 187.46 39.696 187.436 40.272C183.548 40.68 182.732 40.848 182.252 41.088ZM181.628 49.32C183.668 48.792 186.812 47.808 189.812 46.872L190.244 49.224C187.484 50.208 184.556 51.24 182.228 52.056L181.628 49.32ZM190.844 36.144L202.292 34.416L202.772 36.936L191.324 38.76L190.844 36.144ZM190.34 41.328L202.94 39.048L203.396 41.568L190.796 43.92L190.34 41.328ZM194.204 30.528H197.06C196.892 40.176 198.764 50.352 201.068 50.352C201.524 50.352 201.74 49.752 201.836 47.808C202.412 48.48 203.228 49.104 203.876 49.416C203.396 52.368 202.652 53.16 200.732 53.16C195.812 53.16 194.252 41.376 194.204 30.528ZM197.444 32.352L199.124 30.84C200.108 31.416 201.476 32.328 202.172 32.928L200.444 34.632C199.772 33.984 198.428 33 197.444 32.352ZM201.188 42.576L203.588 43.68C200.852 48 196.34 51 191.228 52.824C190.868 52.104 190.148 51.096 189.476 50.448C194.324 49.032 198.812 46.368 201.188 42.576Z" fill="url(#paint0_linear_1392_7057)"/>
<path d="M52.248 110.616L53.16 109.992C54.104 110.792 55.224 111.928 55.752 112.664L54.76 113.368C54.28 112.6 53.192 111.448 52.248 110.616ZM41.88 114.296H56.136V115.448H41.88V114.296ZM41.64 119C43.544 118.648 46.552 118.008 49.368 117.4L49.464 118.488C46.84 119.096 44.008 119.752 41.992 120.2L41.64 119ZM45.32 111.192H46.52V122.744C46.52 123.528 46.328 123.88 45.816 124.072C45.304 124.264 44.456 124.312 43.128 124.296C43.064 123.976 42.856 123.432 42.68 123.08C43.704 123.128 44.648 123.112 44.936 123.096C45.224 123.096 45.32 123.016 45.32 122.728V111.192ZM48.36 109.752L49.208 110.76C47.352 111.4 44.632 111.896 42.344 112.216C42.28 111.944 42.136 111.496 41.976 111.224C44.232 110.872 46.824 110.328 48.36 109.752ZM49.96 109.704H51.208C51.176 117.048 52.744 123.128 54.696 123.128C55.128 123.128 55.32 122.296 55.416 120.232C55.672 120.504 56.104 120.776 56.44 120.904C56.216 123.56 55.784 124.344 54.584 124.344C51.448 124.344 50.024 117.32 49.96 109.704ZM54.296 116.184L55.368 116.632C53.8 119.56 51.16 122.136 48.216 123.688C48.024 123.384 47.688 123 47.384 122.728C50.232 121.352 52.872 118.888 54.296 116.184ZM66.2 110.152H71.016V111.256H66.2V110.152ZM70.552 110.152H71.752V122.776C71.752 123.496 71.576 123.848 71.08 124.04C70.6 124.232 69.784 124.248 68.52 124.248C68.472 123.944 68.296 123.416 68.136 123.096C69.048 123.144 69.928 123.128 70.2 123.112C70.456 123.096 70.552 123.016 70.552 122.76V110.152ZM63.08 110.088L64.008 109.576C64.712 110.536 65.56 111.848 65.928 112.648L64.936 113.224C64.584 112.408 63.784 111.064 63.08 110.088ZM62.408 112.792H63.576V124.28H62.408V112.792ZM60.584 109.656L61.704 109.96C60.904 112.728 59.656 115.544 58.216 117.416C58.104 117.144 57.768 116.504 57.56 116.2C58.824 114.584 59.928 112.12 60.584 109.656ZM59.32 113.688L60.424 112.568L60.472 112.6V124.28H59.32V113.688ZM73.544 119.96C74.776 119.672 76.616 119.16 78.44 118.664L78.584 119.736C76.952 120.248 75.256 120.776 73.944 121.16L73.544 119.96ZM77.912 109.64H79.08V124.28H77.912V109.64ZM74.632 111.416H75.784V120.104H74.632V111.416ZM81.656 112.536H88.408V113.672H81.656V112.536ZM82.088 109.56L83.32 109.8C82.616 112.744 81.48 115.512 80.008 117.32C79.816 117.08 79.32 116.648 79.032 116.456C80.456 114.824 81.496 112.232 82.088 109.56ZM86.328 113.08L87.528 113.272C86.408 118.76 84.216 122.232 79.928 124.328C79.816 124.056 79.448 123.512 79.224 123.256C83.336 121.416 85.352 118.168 86.328 113.08ZM82.088 113.464C83.016 118.024 85.016 121.768 88.6 123.304C88.328 123.544 87.944 124.008 87.768 124.328C84.04 122.536 82.056 118.664 81 113.672L82.088 113.464ZM89.848 119.352H104.152V120.36H89.848V119.352ZM92.536 113.512H102.44V114.36H92.536V113.512ZM92.536 115.432H102.488V116.296H92.536V115.432ZM92.344 111.464H103.096V112.456H92.344V111.464ZM96.664 112.024H97.832V117.768H96.664V112.024ZM96.36 118.072H97.56V124.28H96.36V118.072ZM96.104 119.72L97.032 120.2C95.448 121.864 92.6 123.384 90.248 124.12C90.072 123.8 89.72 123.352 89.448 123.112C91.832 122.504 94.648 121.16 96.104 119.72ZM97.832 119.72C99.272 121.128 102.072 122.408 104.472 123C104.216 123.24 103.88 123.688 103.704 123.992C101.32 123.288 98.488 121.816 96.904 120.2L97.832 119.72ZM97.416 109.56L98.76 109.752C98.312 110.6 97.816 111.496 97.4 112.104L96.344 111.88C96.728 111.24 97.192 110.248 97.416 109.56ZM93.24 109.544L94.488 109.768C93.544 111.528 92.2 113.48 90.296 115.08C90.088 114.808 89.688 114.44 89.416 114.28C91.208 112.872 92.52 111 93.24 109.544ZM91.784 112.12H92.936V117.4H103.72V118.36H91.784V112.12ZM112.392 115.016H113.64V122.744C113.64 123.544 113.432 123.912 112.808 124.088C112.184 124.28 111.112 124.296 109.496 124.296C109.416 123.944 109.192 123.432 109 123.08C110.328 123.128 111.56 123.128 111.928 123.112C112.28 123.096 112.392 123 112.392 122.712V115.016ZM106.568 110.824H118.12V111.992H106.568V110.824ZM117.688 110.824H118.008L118.296 110.744L119.224 111.416C117.8 113.112 115.544 115 113.56 116.12C113.384 115.864 113 115.464 112.744 115.288C114.568 114.28 116.68 112.44 117.688 111.112V110.824ZM122.008 111.64H136.024V112.776H122.008V111.64ZM125.912 117.352H133.432V118.392H125.912V117.352ZM125.064 114.632H133.24V115.704H126.248V124.28H125.064V114.632ZM132.968 114.632H134.136V122.792C134.136 123.496 133.992 123.864 133.448 124.056C132.936 124.248 132.04 124.248 130.664 124.248C130.616 123.912 130.44 123.416 130.264 123.08C131.336 123.128 132.312 123.112 132.6 123.112C132.872 123.096 132.968 123.016 132.968 122.776V114.632ZM127.24 109.56L128.456 109.848C127.368 113.368 125.448 116.92 122.392 119.064C122.232 118.792 121.864 118.376 121.624 118.136C124.488 116.168 126.376 112.776 127.24 109.56ZM125.912 120.056H133.432V121.096H125.912V120.056ZM140.12 110.696H150.472V111.848H140.12V110.696ZM140.12 114.424H150.456V115.56H140.12V114.424ZM140.04 118.248H150.488V119.384H140.04V118.248ZM139.448 110.696H140.632V116.504C140.632 118.936 140.344 122.248 138.44 124.376C138.248 124.136 137.768 123.736 137.512 123.576C139.272 121.592 139.448 118.744 139.448 116.488V110.696ZM149.992 110.696H151.176V122.648C151.176 123.432 150.984 123.8 150.456 124.008C149.912 124.2 148.984 124.216 147.464 124.2C147.416 123.88 147.224 123.352 147.048 123.032C148.184 123.08 149.272 123.064 149.576 123.064C149.88 123.048 149.992 122.952 149.992 122.648V110.696ZM144.472 111.128H145.688V124.136H144.472V111.128ZM155.096 112.136H159.96V122.6H155.096V121.512H158.84V113.208H155.096V112.136ZM154.376 112.136H155.496V123.88H154.376V112.136ZM155.016 116.584H159.432V117.656H155.016V116.584ZM156.824 109.528L158.12 109.768C157.8 110.76 157.4 111.864 157.08 112.584L156.12 112.344C156.392 111.576 156.696 110.36 156.824 109.528ZM162.232 112.088H167.144V113.208H162.232V112.088ZM166.728 112.088H167.848C167.848 112.088 167.848 112.536 167.848 112.712C167.592 120.056 167.368 122.536 166.728 123.32C166.376 123.784 166.008 123.928 165.448 123.976C164.904 124.04 163.96 124.008 163.064 123.96C163.032 123.608 162.888 123.112 162.664 122.792C163.704 122.872 164.664 122.888 165.032 122.888C165.352 122.888 165.544 122.84 165.72 122.632C166.248 122.056 166.504 119.4 166.728 112.344V112.088ZM162.568 109.496L163.72 109.768C163.128 112.152 162.184 114.504 161.08 116.024C160.872 115.832 160.376 115.496 160.088 115.336C161.176 113.928 162.056 111.72 162.568 109.496ZM161.832 116.248L162.76 115.704C163.672 116.84 164.776 118.392 165.288 119.336L164.264 119.976C163.784 119 162.712 117.416 161.832 116.248ZM171.624 115.352H182.216V116.472H171.624V115.352ZM176.216 109.592H177.48V121.672C177.48 122.616 177.672 122.792 178.616 122.792C179.096 122.792 181.448 122.792 182.024 122.792C182.904 122.792 183.064 122.264 183.192 120.2C183.496 120.424 184.008 120.632 184.392 120.728C184.184 123.16 183.784 124.008 182.088 124.008C181.656 124.008 178.952 124.008 178.536 124.008C176.744 124.008 176.216 123.528 176.216 121.656V109.592ZM171.72 111.896H182.824V119.96H171.72V118.792H181.608V113.064H171.72V111.896ZM171 111.896H172.248V120.936H171V111.896ZM192.6 115.592H198.936V116.696H192.6V115.592ZM194.392 116.184C195.464 119.256 197.64 122.04 200.408 123.224C200.12 123.464 199.752 123.928 199.56 124.248C196.712 122.84 194.536 119.896 193.352 116.472L194.392 116.184ZM198.616 115.592H198.84L199.064 115.544L199.832 115.8C199.064 119.448 197.032 122.632 193.864 124.312C193.672 124.04 193.32 123.672 193.048 123.432C196.04 121.928 197.976 118.952 198.616 115.848V115.592ZM198.12 110.104H199.336C199.336 110.104 199.32 110.44 199.304 110.616C199.224 112.872 199.08 113.8 198.728 114.152C198.44 114.456 198.072 114.536 197.544 114.584C197.048 114.6 196.024 114.6 194.952 114.536C194.936 114.232 194.808 113.816 194.632 113.528C195.672 113.624 196.728 113.624 197.048 113.624C197.384 113.624 197.56 113.608 197.704 113.496C197.928 113.272 198.024 112.424 198.12 110.28V110.104ZM185.512 118.04C186.92 117.688 189.016 117.096 191.032 116.52L191.16 117.672C189.32 118.248 187.336 118.84 185.832 119.256L185.512 118.04ZM185.736 112.792H191.048V113.976H185.736V112.792ZM188.024 109.576H189.24V122.792C189.24 123.544 189.048 123.88 188.584 124.056C188.104 124.264 187.352 124.28 186.088 124.28C186.04 123.976 185.864 123.464 185.688 123.144C186.584 123.176 187.416 123.16 187.656 123.144C187.928 123.144 188.024 123.064 188.024 122.792V109.576ZM191.768 110.104H198.488V111.24H192.952V124.248H191.768V110.104ZM209.288 110.52H216.2V111.576H209.288V110.52ZM212.472 111.128L213.576 111.416C213.24 112.264 212.904 113.192 212.616 113.8L211.64 113.544C211.928 112.872 212.28 111.832 212.472 111.128ZM209.688 113.272H215.736V120.776H214.648V114.2H210.712V120.808H209.688V113.272ZM212.216 114.984H213.224C213.176 120.936 212.872 123.16 208.712 124.344C208.616 124.072 208.344 123.688 208.136 123.48C212.008 122.44 212.168 120.6 212.216 114.984ZM212.632 121.672L213.32 121C214.392 121.768 215.784 122.856 216.472 123.56L215.752 124.328C215.08 123.608 213.72 122.472 212.632 121.672ZM205.752 111.56H208.648V112.568H205.752V111.56ZM201.624 114.552H209.032V115.624H201.624V114.552ZM205.256 109.56H206.328V115.16H205.256V109.56ZM202.824 110.968H203.816V115.16H202.824V110.968ZM207.848 116.824L208.888 117.064C207.992 120.712 206.024 123.064 202.408 124.344C202.28 124.04 202.024 123.656 201.768 123.416C205.176 122.344 207.016 120.168 207.848 116.824ZM203.112 116.648L204.136 116.872C203.768 118.184 203.16 119.544 202.472 120.424C202.28 120.264 201.848 119.992 201.592 119.848C202.264 119.032 202.792 117.832 203.112 116.648ZM204.952 115.4H206.056V120.488H204.952V115.4ZM221.976 111.608H232.152V112.616H221.976V111.608ZM226.344 112.056L227.688 112.168C227.432 112.984 227.128 113.864 226.888 114.44L225.896 114.248C226.056 113.624 226.264 112.68 226.344 112.056ZM229.128 109.56L230.344 109.864C229.896 110.6 229.416 111.384 229 111.912L227.992 111.64C228.376 111.064 228.872 110.168 229.128 109.56ZM223.672 109.976L224.616 109.608C225.112 110.136 225.608 110.888 225.784 111.416L224.808 111.848C224.632 111.32 224.152 110.536 223.672 109.976ZM221.176 115.88V121.544H220.008V117H217.768V115.88H221.176ZM221.176 121.016C221.928 122.2 223.352 122.744 225.192 122.824C226.936 122.888 230.536 122.84 232.424 122.712C232.296 123 232.088 123.576 232.04 123.944C230.28 124.008 226.968 124.04 225.192 123.976C223.112 123.896 221.672 123.336 220.648 122.072C219.88 122.76 219.064 123.448 218.2 124.152L217.56 122.92C218.328 122.408 219.272 121.704 220.088 121.016H221.176ZM217.944 110.68L218.824 109.96C219.88 110.632 221.08 111.672 221.64 112.456L220.696 113.24C220.184 112.472 218.984 111.384 217.944 110.68ZM224.376 117.016V118.344H229.704V117.016H224.376ZM224.376 119.224V120.568H229.704V119.224H224.376ZM224.376 114.808V116.136H229.704V114.808H224.376ZM223.24 113.88H230.888V121.496H223.24V113.88ZM235.512 124.712L235.144 123.88C236.456 123.336 237.176 122.52 237.176 121.32L236.872 119.96L237.736 121.176C237.512 121.464 237.192 121.544 236.888 121.544C236.232 121.544 235.688 121.16 235.688 120.392C235.688 119.64 236.264 119.24 236.904 119.24C237.8 119.24 238.28 119.976 238.28 121.096C238.28 122.824 237.192 124.136 235.512 124.712ZM252.12 110.696H262.472V111.848H252.12V110.696ZM252.12 114.424H262.456V115.56H252.12V114.424ZM252.04 118.248H262.488V119.384H252.04V118.248ZM251.448 110.696H252.632V116.504C252.632 118.936 252.344 122.248 250.44 124.376C250.248 124.136 249.768 123.736 249.512 123.576C251.272 121.592 251.448 118.744 251.448 116.488V110.696ZM261.992 110.696H263.176V122.648C263.176 123.432 262.984 123.8 262.456 124.008C261.912 124.2 260.984 124.216 259.464 124.2C259.416 123.88 259.224 123.352 259.048 123.032C260.184 123.08 261.272 123.064 261.576 123.064C261.88 123.048 261.992 122.952 261.992 122.648V110.696ZM256.472 111.128H257.688V124.136H256.472V111.128ZM265.864 115.96H280.136V117.144H265.864V115.96ZM272.504 111.112H273.768V122.536C273.768 123.416 273.528 123.784 272.92 123.992C272.328 124.184 271.272 124.216 269.64 124.216C269.56 123.864 269.32 123.304 269.144 122.952C270.456 122.984 271.672 122.984 272.04 122.968C272.376 122.952 272.504 122.856 272.504 122.536V111.112ZM266.984 110.712H279.016V111.896H266.984V110.712ZM286.76 111.512L287.864 111.56C287.624 116.472 287.064 120.248 285.064 122.776C284.888 122.6 284.392 122.232 284.12 122.072C286.104 119.8 286.6 116.088 286.76 111.512ZM291 111.512L292.12 111.56C291.928 116.552 291.4 120.312 289.304 122.824C289.144 122.632 288.648 122.248 288.376 122.088C290.424 119.848 290.872 116.168 291 111.512ZM284.168 114.824L284.84 114.12C286.472 115.608 288.248 117.672 289.08 119.032L288.36 119.88C287.528 118.472 285.752 116.344 284.168 114.824ZM288.536 114.648L289.224 113.944C290.936 115.512 292.824 117.672 293.704 119.112L292.984 119.976C292.104 118.504 290.2 116.248 288.536 114.648ZM282.408 110.52H295.128V111.672H283.56V124.248H282.408V110.52ZM294.488 110.52H295.672V122.744C295.672 123.464 295.48 123.832 295 124.04C294.52 124.216 293.72 124.248 292.36 124.248C292.296 123.928 292.12 123.4 291.944 123.08C292.92 123.128 293.848 123.112 294.12 123.096C294.392 123.096 294.488 123 294.488 122.744V110.52ZM50.056 139.088C49.992 138.848 49.8 138.256 49.656 137.952C50.008 137.888 50.376 137.488 50.888 136.896C51.416 136.336 53.112 134.144 54.2 132L55.272 132.64C53.992 134.784 52.424 136.912 50.904 138.432V138.464C50.904 138.464 50.056 138.848 50.056 139.088ZM50.056 139.088L49.976 138.064L50.568 137.648L54.856 136.704C54.84 137.024 54.856 137.504 54.888 137.744C50.936 138.704 50.392 138.88 50.056 139.088ZM49.944 135.248C49.88 134.992 49.688 134.4 49.544 134.08C49.832 134 50.12 133.632 50.472 133.104C50.84 132.576 52.008 130.528 52.664 128.624L53.816 129.168C52.984 131.12 51.816 133.152 50.68 134.576V134.608C50.68 134.608 49.944 134.992 49.944 135.248ZM49.944 135.248L49.928 134.336L50.488 133.952L53.384 133.648C53.336 133.968 53.288 134.432 53.304 134.656C50.664 135.008 50.2 135.12 49.944 135.248ZM49.656 141.2C51 140.88 53.048 140.288 55.064 139.712L55.256 140.752C53.384 141.344 51.416 141.936 49.928 142.4L49.656 141.2ZM56.44 137.28H63.272V143.12H62.12V138.352H57.576V143.136H56.44V137.28ZM57.112 141.264H62.872V142.352H57.112V141.264ZM58.216 130.096H62.968V131.2H57.672L58.216 130.096ZM62.584 130.096H62.84L63.064 130.048L63.768 130.496C62.264 133.984 58.936 136.288 55.496 137.408C55.416 137.088 55.16 136.544 54.984 136.304C58.264 135.344 61.352 133.296 62.584 130.32V130.096ZM58.12 128.352L59.224 128.672C58.392 130.72 57.096 132.688 55.72 133.984C55.576 133.744 55.192 133.264 54.952 133.024C56.264 131.904 57.432 130.16 58.12 128.352ZM57.768 131.248C58.92 133.616 61.432 135.424 64.424 136.224C64.216 136.512 64.024 136.992 63.944 137.312C60.824 136.32 58.184 134.352 56.872 131.776L57.768 131.248ZM72.312 129.456H80.04V130.576H72.312V129.456ZM71.864 135.184H80.36V136.336H71.864V135.184ZM77.4 129.904H78.536V143.296H77.4V129.904ZM73.64 129.952H74.776V135.552C74.776 138.208 74.504 141.264 72.504 143.36C72.296 143.152 71.864 142.816 71.576 142.672C73.416 140.72 73.64 137.888 73.64 135.552V129.952ZM65.8 129.44H71.448V130.544H65.8V129.44ZM67.416 134.352H71.16V141.28H67.416V140.192H70.104V135.44H67.416V134.352ZM67.896 129.952L69.016 130.192C68.44 133.216 67.528 136.128 66.056 138.048C65.976 137.76 65.704 137.072 65.496 136.752C66.728 135.12 67.48 132.624 67.896 129.952ZM66.888 134.352H67.912V142.56H66.888V134.352ZM87.08 132.096H96.328V133.264H87.08V132.096ZM92.968 128.72H94.184V141.296C94.184 142.16 93.944 142.512 93.4 142.72C92.84 142.928 91.864 142.96 90.216 142.944C90.152 142.592 89.96 142.064 89.784 141.728C91.032 141.76 92.168 141.76 92.504 141.744C92.84 141.728 92.968 141.616 92.968 141.296V128.72ZM88.408 135.392L89.448 134.896C90.216 136.048 91.032 137.584 91.384 138.592L90.28 139.168C89.944 138.16 89.144 136.576 88.408 135.392ZM82.712 129.712L83.464 128.912C84.44 129.68 85.688 130.768 86.296 131.472L85.48 132.384C84.904 131.664 83.672 130.512 82.712 129.712ZM84.072 142.96L83.848 141.824L84.152 141.296L87.064 139.04C87.176 139.36 87.368 139.824 87.496 140.048C84.744 142.256 84.312 142.624 84.072 142.96ZM81.64 133.6H84.776V134.752H81.64V133.6ZM84.072 142.976C83.944 142.72 83.624 142.288 83.416 142.096C83.704 141.872 84.184 141.328 84.184 140.544V133.6H85.336V141.424C85.336 141.424 84.072 142.496 84.072 142.976ZM98.552 141.536C101.336 141.472 105.8 141.312 109.96 141.12L109.912 142.224C105.88 142.432 101.544 142.624 98.712 142.72L98.552 141.536ZM98.408 136.592H111.672V137.728H98.408V136.592ZM101.144 133.536H108.792V134.656H101.144V133.536ZM102.792 137.312L104.136 137.696C103.4 139.232 102.472 141.104 101.688 142.304L100.616 141.952C101.368 140.704 102.312 138.72 102.792 137.312ZM106.6 139.008L107.624 138.464C109.096 139.728 110.664 141.456 111.416 142.672L110.328 143.328C109.608 142.128 108.024 140.288 106.6 139.008ZM104.936 129.744C103.624 131.696 101 133.888 98.28 135.248C98.136 134.96 97.832 134.528 97.576 134.272C100.328 132.96 103 130.64 104.248 128.592H105.48C107.176 130.96 109.976 133.056 112.52 134.096C112.232 134.384 111.944 134.816 111.736 135.168C109.24 133.968 106.424 131.824 104.936 129.744ZM119.672 134.368L121.08 134.72C120.072 137.136 118.68 140.128 117.496 142.064L116.392 141.712C117.528 139.744 118.92 136.624 119.672 134.368ZM114.424 141.344C117.352 141.248 122.008 141.056 126.296 140.848L126.264 142C122.072 142.24 117.592 142.48 114.584 142.608L114.424 141.344ZM122.744 137.872L123.896 137.344C125.352 139.024 127 141.248 127.8 142.704L126.584 143.36C125.832 141.904 124.168 139.568 122.744 137.872ZM118.056 129.04L119.384 129.408C118.312 131.984 116.632 134.432 114.936 136.016C114.68 135.776 114.12 135.344 113.784 135.152C115.544 133.712 117.128 131.408 118.056 129.04ZM123.784 129.024C124.84 131.12 126.856 133.648 128.328 134.976C128.008 135.232 127.56 135.696 127.32 136C125.832 134.48 123.832 131.76 122.6 129.52L123.784 129.024ZM129.96 134.496H144.072V135.632H129.96V134.496ZM132.552 130.88H142.888V131.984H132.552V130.88ZM132.6 141.408H141.56V142.528H132.6V141.408ZM136.712 128.56H137.976V135.152H136.712V128.56ZM131.944 137.216H142.2V143.408H140.952V138.336H133.16V143.424H131.944V137.216ZM132.968 128.704L134.152 128.992C133.464 130.96 132.36 132.88 131.24 134.144C131 133.968 130.456 133.648 130.152 133.488C131.336 132.336 132.344 130.512 132.968 128.704ZM147.512 143.712L147.144 142.88C148.456 142.336 149.176 141.52 149.176 140.32L148.872 138.96L149.736 140.176C149.512 140.464 149.192 140.544 148.888 140.544C148.232 140.544 147.688 140.16 147.688 139.392C147.688 138.64 148.264 138.24 148.904 138.24C149.8 138.24 150.28 138.976 150.28 140.096C150.28 141.824 149.192 143.136 147.512 143.712ZM162.008 130.64H176.024V131.776H162.008V130.64ZM165.912 136.352H173.432V137.392H165.912V136.352ZM165.064 133.632H173.24V134.704H166.248V143.28H165.064V133.632ZM172.968 133.632H174.136V141.792C174.136 142.496 173.992 142.864 173.448 143.056C172.936 143.248 172.04 143.248 170.664 143.248C170.616 142.912 170.44 142.416 170.264 142.08C171.336 142.128 172.312 142.112 172.6 142.112C172.872 142.096 172.968 142.016 172.968 141.776V133.632ZM167.24 128.56L168.456 128.848C167.368 132.368 165.448 135.92 162.392 138.064C162.232 137.792 161.864 137.376 161.624 137.136C164.488 135.168 166.376 131.776 167.24 128.56ZM165.912 139.056H173.432V140.096H165.912V139.056ZM183.256 129.216H190.872V130.256H183.256V129.216ZM187.656 131.76H191.464V132.752H187.656V131.76ZM184.664 132.16H187.432V133.104H184.664V132.16ZM184.664 135.088H187.432V136.064H184.664V135.088ZM186.968 129.632H187.96V141.392H186.968V129.632ZM184.152 129.568H185.128V138.912L184.152 139.104V129.568ZM182.92 139.056C184.04 138.832 185.688 138.48 187.336 138.096L187.448 139.024C185.928 139.392 184.36 139.776 183.144 140.064L182.92 139.056ZM191.176 131.76H191.384L191.576 131.744L192.2 131.92C191.8 136.4 190.664 139.456 188.936 141.056C188.792 140.816 188.456 140.384 188.232 140.224C189.832 138.752 190.856 135.952 191.176 132V131.76ZM189.176 133.216C189.688 136.304 190.792 139.12 192.568 140.384C192.328 140.576 192.008 140.928 191.848 141.184C189.992 139.712 188.904 136.752 188.328 133.408L189.176 133.216ZM178.2 130.464H183.464V131.52H178.2V130.464ZM177.8 133.408H183.768V134.496H177.8V133.408ZM181.128 136.512H183.656V137.6H181.128V136.512ZM180.488 128.56H181.592V134.08H180.488V128.56ZM180.728 134.144H181.8V141.44H180.728V134.144ZM179.432 137.68C180.344 141.04 182.232 141.712 185.96 141.712C186.696 141.712 191.464 141.728 192.424 141.68C192.232 141.968 192.008 142.512 191.928 142.864H185.96C181.64 142.864 179.656 142.016 178.552 137.984L179.432 137.68ZM178.504 135.728L179.512 135.776C179.544 138.176 179.416 141.104 178.168 143.248C177.992 143.008 177.608 142.672 177.368 142.56C178.456 140.608 178.568 137.888 178.504 135.728ZM195.096 131.136H199.96V141.6H195.096V140.512H198.84V132.208H195.096V131.136ZM194.376 131.136H195.496V142.88H194.376V131.136ZM195.016 135.584H199.432V136.656H195.016V135.584ZM196.824 128.528L198.12 128.768C197.8 129.76 197.4 130.864 197.08 131.584L196.12 131.344C196.392 130.576 196.696 129.36 196.824 128.528ZM202.232 131.088H207.144V132.208H202.232V131.088ZM206.728 131.088H207.848C207.848 131.088 207.848 131.536 207.848 131.712C207.592 139.056 207.368 141.536 206.728 142.32C206.376 142.784 206.008 142.928 205.448 142.976C204.904 143.04 203.96 143.008 203.064 142.96C203.032 142.608 202.888 142.112 202.664 141.792C203.704 141.872 204.664 141.888 205.032 141.888C205.352 141.888 205.544 141.84 205.72 141.632C206.248 141.056 206.504 138.4 206.728 131.344V131.088ZM202.568 128.496L203.72 128.768C203.128 131.152 202.184 133.504 201.08 135.024C200.872 134.832 200.376 134.496 200.088 134.336C201.176 132.928 202.056 130.72 202.568 128.496ZM201.832 135.248L202.76 134.704C203.672 135.84 204.776 137.392 205.288 138.336L204.264 138.976C203.784 138 202.712 136.416 201.832 135.248ZM215.272 137.056H223.256V143.2H222.104V138.16H216.376V143.28H215.272V137.056ZM222.664 128.624L223.608 129.568C221.416 130.32 218.072 130.816 215.208 131.088C215.16 130.8 215 130.336 214.856 130.064C217.64 129.76 220.888 129.264 222.664 128.624ZM218.728 130.016H219.88V137.696H218.728V130.016ZM214.104 133.264H224.296V134.416H214.104V133.264ZM216.024 141.488H222.632V142.592H216.024V141.488ZM210.44 129.616L211.112 128.768C212.088 129.248 213.448 129.968 214.136 130.432L213.432 131.408C212.76 130.928 211.432 130.144 210.44 129.616ZM209.656 134.032L210.328 133.152C211.272 133.616 212.616 134.32 213.288 134.784L212.616 135.76C211.96 135.312 210.632 134.544 209.656 134.032ZM210.04 142.256C210.904 141.04 212.168 138.928 213.096 137.104L213.96 137.888C213.112 139.584 211.992 141.584 211.048 143.072L210.04 142.256ZM233.112 132.256H239.528V133.408H233.112V132.256ZM238.936 132.256H240.12C240.12 132.256 240.104 132.704 240.104 132.864C239.896 139.472 239.704 141.728 239.144 142.432C238.824 142.864 238.504 142.992 237.976 143.056C237.48 143.104 236.616 143.088 235.768 143.04C235.736 142.688 235.608 142.192 235.384 141.856C236.296 141.936 237.128 141.936 237.48 141.936C237.752 141.952 237.928 141.904 238.104 141.712C238.536 141.2 238.76 138.896 238.936 132.528V132.256ZM235.432 128.848H236.616C236.584 134.416 236.504 140.192 233.256 143.264C233.048 142.992 232.632 142.592 232.328 142.4C235.4 139.584 235.416 134.08 235.432 128.848ZM226.424 129.872H232.616V130.96H226.424V129.872ZM225.848 133.696H232.904V134.784H225.848V133.696ZM230.568 136.448L231.544 136.176C232.168 137.6 232.888 139.52 233.176 140.624L232.12 140.992C231.848 139.856 231.16 137.904 230.568 136.448ZM226.424 141.312L226.328 140.304L226.936 139.872L232.184 138.768C232.216 139.088 232.296 139.552 232.344 139.808C227.416 140.912 226.808 141.088 226.424 141.312ZM226.424 141.312C226.36 141.056 226.168 140.496 226.04 140.192C226.296 140.112 226.504 139.696 226.776 139.072C227.016 138.496 227.832 136.192 228.216 134.112L229.384 134.48C228.888 136.624 228.072 138.976 227.256 140.624V140.64C227.256 140.64 226.424 141.056 226.424 141.312ZM248.36 132.224H249.592V136.416H248.36V132.224ZM243.336 133.328H254.76V134.352H243.336V133.328ZM241.752 135.776H256.28V136.832H241.752V135.776ZM242.264 138.24H255.864V139.296H242.264V138.24ZM251.624 136.624H252.856V141.872C252.856 142.576 252.696 142.896 252.136 143.088C251.608 143.264 250.712 143.28 249.384 143.28C249.32 142.928 249.112 142.464 248.936 142.144C250.024 142.176 250.968 142.176 251.272 142.144C251.56 142.144 251.624 142.08 251.624 141.856V136.624ZM243.608 129.92H248.808V130.928H243.608V129.92ZM249.784 129.92H256.12V130.928H249.784V129.92ZM243.96 128.496L245.112 128.8C244.488 130.368 243.512 131.92 242.52 132.912C242.296 132.736 241.8 132.4 241.512 132.24C242.536 131.312 243.432 129.904 243.96 128.496ZM250.248 128.496L251.4 128.768C250.856 130.288 249.896 131.728 248.904 132.656C248.68 132.464 248.184 132.128 247.912 131.968C248.92 131.136 249.784 129.84 250.248 128.496ZM244.568 130.688L245.576 130.336C245.928 130.976 246.312 131.824 246.456 132.368L245.384 132.752C245.272 132.208 244.92 131.344 244.568 130.688ZM251.224 130.688L252.2 130.304C252.728 130.928 253.336 131.808 253.576 132.4L252.552 132.832C252.328 132.256 251.752 131.36 251.224 130.688ZM244.568 140L245.448 139.312C246.472 139.952 247.656 140.944 248.2 141.696L247.272 142.464C246.76 141.712 245.608 140.688 244.568 140ZM264.36 132.224H265.592V136.416H264.36V132.224ZM259.336 133.328H270.76V134.352H259.336V133.328ZM257.752 135.776H272.28V136.832H257.752V135.776ZM258.264 138.24H271.864V139.296H258.264V138.24ZM267.624 136.624H268.856V141.872C268.856 142.576 268.696 142.896 268.136 143.088C267.608 143.264 266.712 143.28 265.384 143.28C265.32 142.928 265.112 142.464 264.936 142.144C266.024 142.176 266.968 142.176 267.272 142.144C267.56 142.144 267.624 142.08 267.624 141.856V136.624ZM259.608 129.92H264.808V130.928H259.608V129.92ZM265.784 129.92H272.12V130.928H265.784V129.92ZM259.96 128.496L261.112 128.8C260.488 130.368 259.512 131.92 258.52 132.912C258.296 132.736 257.8 132.4 257.512 132.24C258.536 131.312 259.432 129.904 259.96 128.496ZM266.248 128.496L267.4 128.768C266.856 130.288 265.896 131.728 264.904 132.656C264.68 132.464 264.184 132.128 263.912 131.968C264.92 131.136 265.784 129.84 266.248 128.496ZM260.568 130.688L261.576 130.336C261.928 130.976 262.312 131.824 262.456 132.368L261.384 132.752C261.272 132.208 260.92 131.344 260.568 130.688ZM267.224 130.688L268.2 130.304C268.728 130.928 269.336 131.808 269.576 132.4L268.552 132.832C268.328 132.256 267.752 131.36 267.224 130.688ZM260.568 140L261.448 139.312C262.472 139.952 263.656 140.944 264.2 141.696L263.272 142.464C262.76 141.712 261.608 140.688 260.568 140ZM276.104 138.112C277.448 138.112 278.536 139.2 278.536 140.544C278.536 141.888 277.448 142.976 276.104 142.976C274.76 142.976 273.656 141.888 273.656 140.544C273.656 139.2 274.76 138.112 276.104 138.112ZM276.104 142.16C277 142.16 277.72 141.44 277.72 140.544C277.72 139.648 277 138.928 276.104 138.928C275.208 138.928 274.472 139.648 274.472 140.544C274.472 141.44 275.208 142.16 276.104 142.16ZM53.0212 185.592H54.1572V196.712H53.0212V185.592ZM47.4532 192.184L57.0692 188.456L57.5332 189.496L47.9012 193.24L47.4532 192.184ZM49.4692 187.16H50.6532V197.864C50.6532 198.776 50.8772 198.984 52.0132 198.984C52.5572 198.984 55.4212 198.984 56.1252 198.984C57.1012 198.984 57.2772 198.536 57.4052 196.648C57.6932 196.856 58.1732 197.064 58.5252 197.144C58.3172 199.352 57.9332 200.072 56.1572 200.072C55.6932 200.072 52.3972 200.072 51.9652 200.072C50.0292 200.072 49.4692 199.624 49.4692 197.848V187.16ZM56.6692 188.728H56.5252L56.8132 188.488L57.0212 188.296L57.8532 188.648L57.8052 188.84C57.7892 191.752 57.7572 194.056 57.5972 194.744C57.4692 195.48 57.1332 195.784 56.6372 195.912C56.2052 196.024 55.5012 196.04 55.0212 196.024C54.9892 195.688 54.8612 195.192 54.7172 194.92C55.1652 194.936 55.7412 194.936 55.9492 194.936C56.2212 194.936 56.3972 194.872 56.5092 194.456C56.6372 193.944 56.6692 191.848 56.6692 188.728ZM47.3732 185.624L48.4772 185.976C47.4372 188.664 45.7892 191.384 44.0772 193.176C43.9492 192.904 43.6132 192.28 43.4052 192.008C44.9892 190.456 46.4772 188.056 47.3732 185.624ZM45.6772 189.752L46.8292 188.584L46.8452 188.6V200.264H45.6772V189.752ZM68.3172 186.152H73.1332V187.256H68.3172V186.152ZM72.6692 186.152H73.8692V198.776C73.8692 199.496 73.6932 199.848 73.1972 200.04C72.7172 200.232 71.9012 200.248 70.6372 200.248C70.5892 199.944 70.4132 199.416 70.2532 199.096C71.1652 199.144 72.0452 199.128 72.3172 199.112C72.5732 199.096 72.6692 199.016 72.6692 198.76V186.152ZM65.1972 186.088L66.1252 185.576C66.8292 186.536 67.6772 187.848 68.0452 188.648L67.0532 189.224C66.7012 188.408 65.9012 187.064 65.1972 186.088ZM64.5252 188.792H65.6932V200.28H64.5252V188.792ZM62.7012 185.656L63.8212 185.96C63.0212 188.728 61.7732 191.544 60.3332 193.416C60.2212 193.144 59.8852 192.504 59.6772 192.2C60.9412 190.584 62.0452 188.12 62.7012 185.656ZM61.4372 189.688L62.5412 188.568L62.5892 188.6V200.28H61.4372V189.688ZM78.1092 191.624H87.2612V192.792H78.1092V191.624ZM86.8612 191.624H88.1092C88.1092 191.624 88.0932 192.04 88.0772 192.2C87.8532 197.16 87.6292 199.016 87.0532 199.624C86.7332 200.024 86.3812 200.136 85.8212 200.184C85.2932 200.232 84.2852 200.216 83.2772 200.168C83.2612 199.8 83.1012 199.304 82.8772 198.952C83.9332 199.048 84.9252 199.064 85.3092 199.064C85.6292 199.064 85.8212 199.032 85.9812 198.856C86.4132 198.424 86.6532 196.6 86.8612 191.848V191.624ZM80.3012 185.896L81.5652 186.264C80.4132 188.968 78.5252 191.352 76.5092 192.888C76.2852 192.632 75.7732 192.168 75.4692 191.944C77.5172 190.568 79.2932 188.36 80.3012 185.896ZM85.8852 185.864C86.9252 188.008 88.9892 190.44 90.7332 191.672C90.4132 191.928 89.9652 192.408 89.7252 192.744C87.9492 191.304 85.9332 188.712 84.7332 186.328L85.8852 185.864ZM81.4852 191.944H82.7652C82.3972 195.448 81.5652 198.76 77.1012 200.36C76.9572 200.056 76.6052 199.576 76.3332 199.32C80.5252 197.928 81.1652 194.968 81.4852 191.944ZM91.9812 196.152H106.269V197.208H91.9812V196.152ZM98.4452 185.56H99.6932V187.592H98.4452V185.56ZM93.4852 193.24H103.581V194.216H93.4852V193.24ZM98.4612 195.208H99.7092V199.064C99.7092 199.736 99.5172 200.024 98.9572 200.184C98.3972 200.328 97.4692 200.328 96.0292 200.328C95.9652 200.024 95.7732 199.624 95.6132 199.336C96.7012 199.368 97.8052 199.352 98.0772 199.352C98.3652 199.336 98.4612 199.272 98.4612 199.032V195.208ZM103.309 193.24H103.629L103.901 193.192L104.701 193.848C103.261 194.744 101.181 195.544 99.2932 196.008C99.1492 195.8 98.8612 195.48 98.6852 195.32C100.349 194.904 102.301 194.152 103.309 193.48V193.24ZM95.3412 189.928V191.368H102.909V189.928H95.3412ZM94.1572 189.032H104.157V192.264H94.1572V189.032ZM92.1252 186.968H106.061V188.008H92.1252V186.968ZM115.277 190.328H121.325V191.432H115.277V190.328ZM115.293 194.2H121.341V195.304H115.293V194.2ZM115.277 198.088H121.341V199.192H115.277V198.088ZM114.685 186.504H121.917V200.136H120.717V187.656H115.837V200.184H114.685V186.504ZM107.933 189H113.981V190.152H107.933V189ZM110.541 185.56H111.693V200.264H110.541V185.56ZM110.477 189.704L111.277 189.976C110.701 192.568 109.469 195.688 108.205 197.304C108.077 196.968 107.773 196.488 107.565 196.216C108.765 194.776 109.981 192.024 110.477 189.704ZM111.581 191.464C112.045 191.912 113.693 193.832 114.077 194.28L113.325 195.272C112.877 194.488 111.533 192.696 110.973 192.04L111.581 191.464ZM126.397 189.176H135.805V190.328H126.397V189.176ZM125.805 193.08H136.461V194.216H125.805V193.08ZM131.693 193.464C132.429 196.28 134.077 198.376 136.829 199.224C136.541 199.48 136.189 199.96 136.013 200.28C133.149 199.24 131.485 196.936 130.653 193.688L131.693 193.464ZM134.061 185.592L135.309 186.024C134.733 187.048 134.029 188.232 133.469 188.984L132.493 188.584C133.021 187.784 133.693 186.488 134.061 185.592ZM127.053 186.248L128.029 185.752C128.701 186.568 129.405 187.704 129.693 188.456L128.653 189.032C128.381 188.264 127.693 187.096 127.053 186.248ZM130.397 189.448H131.645V192.776C131.645 195.24 131.053 198.296 126.141 200.344C125.965 200.056 125.597 199.64 125.309 199.4C130.077 197.592 130.397 194.84 130.397 192.776V189.448ZM145.581 186.328H152.989V187.304H145.581V186.328ZM145.389 190.76H153.277V191.752H145.389V190.76ZM145.389 192.984H153.245V193.976H145.389V192.984ZM145.853 198.536H152.797V199.528H145.853V198.536ZM144.077 188.536H154.493V189.544H144.077V188.536ZM145.229 195.208H153.421V200.232H152.221V196.184H146.381V200.28H145.229V195.208ZM143.533 185.608L144.669 185.96C143.581 188.664 141.869 191.352 140.093 193.128C139.981 192.856 139.645 192.232 139.421 191.944C141.037 190.424 142.605 188.04 143.533 185.608ZM141.869 189.736L143.005 188.6L143.021 188.616V200.248H141.869V189.736ZM159.901 195.976H161.085V198.616C161.085 199.032 161.229 199.112 162.093 199.112C162.477 199.112 164.493 199.112 165.021 199.112C165.709 199.112 165.821 198.92 165.885 197.56C166.157 197.752 166.653 197.928 166.973 197.992C166.813 199.768 166.461 200.2 165.133 200.2C164.765 200.2 162.349 200.2 161.997 200.2C160.317 200.2 159.901 199.864 159.901 198.632V195.976ZM161.549 195.416L162.429 194.792C163.373 195.416 164.429 196.344 164.909 197.064L163.965 197.736C163.517 197.032 162.477 196.056 161.549 195.416ZM166.717 196.28L167.677 195.688C168.829 196.664 170.093 198.056 170.605 199.08L169.581 199.752C169.085 198.744 167.885 197.304 166.717 196.28ZM157.709 195.848L158.765 196.232C158.365 197.48 157.741 198.888 156.685 199.752L155.709 199.064C156.685 198.296 157.357 197.016 157.709 195.848ZM159.453 190.056V191.384H166.941V190.056H159.453ZM159.453 192.312V193.64H166.941V192.312H159.453ZM159.453 187.832V189.144H166.941V187.832H159.453ZM158.301 186.872H168.141V194.616H158.301V186.872ZM162.557 185.4L163.949 185.64C163.629 186.328 163.245 186.968 162.973 187.432L161.901 187.176C162.141 186.664 162.413 185.912 162.557 185.4ZM172.541 188.872H185.789V190.024H172.541V188.872ZM171.949 193.496H186.301V194.648H171.949V193.496ZM181.373 189.464H182.605V200.28H181.373V189.464ZM175.677 189.464H176.861V193.112C176.861 195.768 176.413 198.536 172.765 200.408C172.605 200.12 172.205 199.704 171.949 199.48C175.293 197.8 175.677 195.384 175.677 193.096V189.464ZM174.589 185.992L175.645 185.576C176.349 186.424 177.069 187.592 177.373 188.36L176.253 188.856C175.981 188.088 175.277 186.872 174.589 185.992ZM182.445 185.528L183.789 185.944C183.165 186.936 182.445 188.088 181.853 188.808L180.813 188.424C181.389 187.64 182.077 186.408 182.445 185.528ZM193.197 189.096H202.445V190.264H193.197V189.096ZM199.085 185.72H200.301V198.296C200.301 199.16 200.061 199.512 199.517 199.72C198.957 199.928 197.981 199.96 196.333 199.944C196.269 199.592 196.077 199.064 195.901 198.728C197.149 198.76 198.285 198.76 198.621 198.744C198.957 198.728 199.085 198.616 199.085 198.296V185.72ZM194.525 192.392L195.565 191.896C196.333 193.048 197.149 194.584 197.501 195.592L196.397 196.168C196.061 195.16 195.261 193.576 194.525 192.392ZM188.829 186.712L189.581 185.912C190.557 186.68 191.805 187.768 192.413 188.472L191.597 189.384C191.021 188.664 189.789 187.512 188.829 186.712ZM190.189 199.96L189.965 198.824L190.269 198.296L193.181 196.04C193.293 196.36 193.485 196.824 193.613 197.048C190.861 199.256 190.429 199.624 190.189 199.96ZM187.757 190.6H190.893V191.752H187.757V190.6ZM190.189 199.976C190.061 199.72 189.741 199.288 189.533 199.096C189.821 198.872 190.301 198.328 190.301 197.544V190.6H191.453V198.424C191.453 198.424 190.189 199.496 190.189 199.976ZM213.965 186.168C215.021 188.104 217.021 190.232 218.749 191.272C218.477 191.496 218.093 191.928 217.885 192.216C216.125 190.984 214.109 188.712 212.957 186.552L213.965 186.168ZM213.069 185.544L214.349 185.768C213.325 188.008 211.597 190.504 208.973 192.36C208.781 192.072 208.413 191.64 208.141 191.464C210.621 189.8 212.269 187.448 213.069 185.544ZM210.461 191.464H211.661V198.024C211.661 198.648 211.821 198.776 212.765 198.776C213.197 198.776 215.373 198.776 215.933 198.776C216.733 198.776 216.877 198.44 216.957 196.552C217.245 196.76 217.741 196.952 218.061 197.016C217.901 199.256 217.549 199.864 215.997 199.864C215.629 199.864 213.037 199.864 212.685 199.864C210.941 199.864 210.461 199.48 210.461 198.024V191.464ZM216.013 192.184L216.797 193.192C215.229 194.2 213.021 195.336 211.389 196.024L210.749 195.128C212.333 194.44 214.621 193.176 216.013 192.184ZM204.829 186.712L205.581 185.912C206.557 186.68 207.805 187.768 208.413 188.472L207.597 189.384C207.021 188.664 205.789 187.512 204.829 186.712ZM206.141 199.96L205.917 198.824L206.221 198.296L209.005 196.136C209.117 196.472 209.309 196.92 209.437 197.144C206.797 199.272 206.381 199.624 206.141 199.96ZM203.757 190.6H206.893V191.752H203.757V190.6ZM206.141 199.976C206.013 199.72 205.677 199.288 205.485 199.096C205.757 198.872 206.253 198.328 206.253 197.544V190.6H207.405V198.424C207.405 198.424 206.141 199.496 206.141 199.976ZM221.133 197.016C221.085 196.776 220.925 196.2 220.797 195.88C221.309 195.816 221.981 195.624 222.877 195.304C223.853 194.968 226.957 193.688 229.437 192.168L230.253 193.032C227.597 194.552 224.765 195.688 222.013 196.52V196.552C222.013 196.552 221.133 196.792 221.133 197.016ZM221.133 197.016L221.117 196.2L221.949 195.784L232.365 195.272C232.397 195.576 232.493 195.992 232.573 196.2C222.637 196.76 221.741 196.824 221.133 197.016ZM222.301 194.568C222.253 194.328 222.077 193.784 221.949 193.48C222.237 193.448 222.557 193.304 222.925 193.096C223.341 192.904 224.669 192.104 225.613 191.224L226.573 191.912C225.453 192.76 224.237 193.496 223.037 193.992V194.024C223.037 194.024 222.301 194.328 222.301 194.568ZM222.301 194.568V193.768L222.941 193.448L227.677 193.32C227.581 193.592 227.469 194.024 227.421 194.248C223.181 194.408 222.637 194.456 222.301 194.568ZM226.749 195.896H227.949V198.984C227.949 199.608 227.821 199.896 227.293 200.072C226.813 200.232 226.029 200.248 224.861 200.248C224.797 199.912 224.605 199.496 224.429 199.192C225.373 199.224 226.189 199.224 226.429 199.224C226.685 199.208 226.749 199.16 226.749 198.968V195.896ZM229.821 194.44L230.637 193.864C231.789 194.616 233.197 195.736 233.869 196.552L232.989 197.208C232.365 196.392 231.005 195.24 229.821 194.44ZM229.245 197.768L230.109 197.144C231.373 197.768 233.021 198.744 233.869 199.432L232.957 200.12C232.157 199.448 230.541 198.424 229.245 197.768ZM223.869 197.096L224.957 197.544C223.917 198.52 222.381 199.496 221.101 200.12C220.893 199.912 220.445 199.496 220.157 199.304C221.501 198.76 222.941 197.928 223.869 197.096ZM226.109 186.216H232.509V187.272H226.109V186.216ZM227.917 186.856C228.861 189.176 231.053 190.648 234.173 191.16C233.901 191.416 233.581 191.896 233.437 192.216C230.221 191.528 228.029 189.832 226.941 187.112L227.917 186.856ZM232.221 186.216H232.461L232.669 186.168L233.373 186.472C232.221 189.624 229.341 191.24 226.125 191.976C226.013 191.688 225.757 191.208 225.533 190.984C228.509 190.424 231.261 188.968 232.221 186.392V186.216ZM220.909 186.584H221.997V191.336H220.909V186.584ZM223.629 185.864H224.717V191.88H223.629V185.864ZM244.749 185.592L246.109 185.768C245.805 186.76 245.469 187.864 245.165 188.584L244.013 188.408C244.285 187.64 244.605 186.44 244.749 185.592ZM239.293 191.88V197.544H238.125V193H235.885V191.88H239.293ZM239.293 197.016C240.045 198.2 241.469 198.744 243.309 198.824C245.053 198.888 248.653 198.84 250.541 198.712C250.413 199 250.205 199.576 250.157 199.944C248.397 200.008 245.085 200.04 243.309 199.976C241.229 199.896 239.789 199.336 238.765 198.072C237.997 198.76 237.181 199.448 236.317 200.152L235.677 198.92C236.445 198.408 237.389 197.704 238.205 197.016H239.293ZM236.061 186.68L236.941 185.96C237.997 186.632 239.197 187.672 239.757 188.456L238.813 189.24C238.301 188.472 237.101 187.384 236.061 186.68ZM242.445 192.952V195.896H248.317V192.952H242.445ZM242.445 189.016V191.896H248.317V189.016H242.445ZM241.277 187.896H249.517V197H241.277V187.896ZM252.589 189.176H253.773V200.296H252.589V189.176ZM252.765 186.344L253.645 185.784C254.445 186.568 255.533 187.704 256.061 188.376L255.149 189.032C254.621 188.344 253.581 187.192 252.765 186.344ZM256.797 186.472H265.245V187.592H256.797V186.472ZM264.429 186.472H265.629V198.616C265.629 199.384 265.437 199.752 264.941 199.96C264.429 200.152 263.565 200.184 262.253 200.168C262.205 199.832 262.013 199.288 261.853 198.952C262.813 199 263.789 198.984 264.045 198.984C264.333 198.968 264.429 198.872 264.429 198.6V186.472ZM256.861 190.424H261.885V196.312H256.861V195.224H260.717V191.512H256.861V190.424ZM256.253 190.424H257.357V197.352H256.253V190.424ZM269.917 189.16V190.376H273.197V189.16H269.917ZM269.917 187.112V188.312H273.197V187.112H269.917ZM268.845 186.248H274.317V191.272H268.845V186.248ZM267.885 192.456H275.133V193.384H267.885V192.456ZM275.101 186.296H282.397V187.288H275.101V186.296ZM271.133 192.76H272.173V198.856L271.133 198.232V192.76ZM271.613 195.112H274.829V196.024H271.613V195.112ZM278.157 186.632L279.373 186.872C279.053 187.704 278.717 188.6 278.429 189.208L277.469 188.968C277.709 188.312 278.013 187.32 278.157 186.632ZM269.789 195.832C270.909 198.584 273.389 198.936 276.941 198.936C277.661 198.936 281.597 198.936 282.525 198.904C282.349 199.16 282.141 199.624 282.093 199.944H276.925C272.909 199.944 270.349 199.416 269.053 196.104L269.789 195.832ZM275.741 188.824H281.613V195.512H280.557V189.736H276.765V195.56H275.741V188.824ZM269.085 194.184L270.109 194.248C269.997 196.824 269.597 198.856 268.509 200.248C268.333 200.104 267.885 199.8 267.645 199.656C268.717 198.408 269.005 196.488 269.085 194.184ZM278.221 190.52H279.245C279.133 195.032 278.669 197.368 275.021 198.568C274.909 198.344 274.653 197.96 274.429 197.784C277.789 196.712 278.125 194.68 278.221 190.52ZM278.781 196.04L279.485 195.4C280.477 196.072 281.741 197.08 282.365 197.752L281.645 198.488C281.021 197.816 279.789 196.76 278.781 196.04ZM286.221 195.112C287.565 195.112 288.653 196.2 288.653 197.544C288.653 198.888 287.565 199.976 286.221 199.976C284.877 199.976 283.773 198.888 283.773 197.544C283.773 196.2 284.877 195.112 286.221 195.112ZM286.221 199.16C287.117 199.16 287.837 198.44 287.837 197.544C287.837 196.648 287.117 195.928 286.221 195.928C285.325 195.928 284.589 196.648 284.589 197.544C284.589 198.44 285.325 199.16 286.221 199.16Z" fill="#2D3342"/>
<path d="M277.208 75.4896C277.86 77.3135 278.111 81.3701 273.906 83.0054" stroke="black" stroke-width="2" stroke-linecap="round"/>
<path d="M236.07 56.9011C234.297 57.6297 231.155 60.153 232.767 64.4169" stroke="black" stroke-width="2" stroke-linecap="round"/>
<path d="M280.27 74.9219C281.017 77.2916 281.115 82.7637 275.537 85.6945" stroke="black" stroke-width="2" stroke-linecap="round"/>
<path d="M234.809 54.3796C232.572 55.4013 228.494 58.9862 230.075 65.1522" stroke="black" stroke-width="2" stroke-linecap="round"/>
<path d="M251.014 79.3027C249.77 78.7409 248.827 77.7777 248.265 76.6308C247.045 74.1378 250.205 72.6926 252.721 73.8297L253.885 74.3556C256.401 75.4926 257.454 78.8412 254.811 79.5883C253.594 79.932 252.257 79.8646 251.014 79.3027Z" fill="black"/>
<path d="M269.704 36.9675C270.291 37.233 270.763 37.6536 271.092 38.1606C271.943 39.4707 269.699 39.8914 268.256 39.3137C266.795 38.7288 266.422 36.9087 267.976 36.708C268.545 36.6345 269.141 36.7132 269.704 36.9675Z" fill="black"/>
<path d="M246.989 50.5815C246.467 51.7686 246.288 52.36 245.297 54.6174C244.138 57.2551 243.214 58.4721 238.546 60.1068C235.786 61.0731 235.14 63.7271 236.921 64.9344C236.944 64.9502 236.969 64.964 236.995 64.9755L270.979 80.3317C271.024 80.3518 271.071 80.3662 271.119 80.3721C272.963 80.5988 274.968 78.7632 273.541 75.9196C272.095 73.0385 271.758 70.1016 272.9 67.0904C273.766 64.8079 275.871 59.6451 276.668 57.2824C279.206 47.8844 272.107 42.2881 268.241 40.6647C264.017 38.7562 260.461 38.7582 259.211 38.9978C255.983 39.3473 253.668 40.6486 251.882 42.4753" stroke="black" stroke-width="2" stroke-linecap="round"/>
<path d="M259.354 45.2737L243.529 42.5981C242.545 42.4316 241.951 43.6527 242.69 44.3243L249.163 50.2042C249.237 50.2714 249.319 50.331 249.418 50.3486C250.166 50.4819 252.142 49.7604 253.643 49.1237C254.213 48.8821 254.874 49.1883 255.062 49.7778C255.24 50.3333 255.418 50.8398 255.568 51.2446C255.732 51.6875 256.123 51.7732 256.223 51.3116C256.378 50.5902 256.426 49.4312 256.427 48.4648C256.427 47.9519 256.803 47.5072 257.281 47.3206C258.287 46.9277 259.391 46.1858 259.919 45.7791" stroke="#26A4E2" stroke-linecap="round"/>
<path d="M254.652 48.711C252.687 47.7725 247.714 45.4222 243.549 43.5287" stroke="#26A4E2" stroke-linecap="round"/>
<path d="M255.879 51.9991L252.221 49.8145" stroke="#26A4E2" stroke-linecap="round"/>
<path d="M255.053 46.7899L250.045 45.1574" stroke="#26A4E2" stroke-linecap="round"/>
<defs>
<linearGradient id="paint0_linear_1392_7057" x1="133.645" y1="25" x2="171.471" y2="66.2322" gradientUnits="userSpaceOnUse">
<stop stop-color="#5955B3"/>
<stop offset="1" stop-color="#6563CE"/>
</linearGradient>
</defs>
</svg>
