<svg width="751" height="408" viewBox="0 0 751 408" fill="none" xmlns="http://www.w3.org/2000/svg">
<rect width="751" height="408" rx="5" fill="white"/>
<path opacity="0.2" fill-rule="evenodd" clip-rule="evenodd" d="M750.693 388.036C750.674 399.024 741.793 407.934 730.815 408H434.842C447.376 373.077 499.731 303.231 608.882 303.231C718.034 303.231 748.903 248.907 750.693 221.745L750.693 388C750.693 388.012 750.693 388.024 750.693 388.036Z" fill="#79A4E2"/>
<path opacity="0.2" fill-rule="evenodd" clip-rule="evenodd" d="M210.763 0C208.095 18.0677 191.746 68.875 124.398 91.9214C59.0545 114.281 16.0082 106.592 0.000500549 99.3648L0.000494162 20C0.000493273 8.95433 8.95479 1.91637e-05 20.0005 1.81148e-05L210.763 0Z" fill="#89AFFF"/>
<path d="M267.316 258.87C269.556 264.861 270.418 278.187 255.948 283.561" stroke="black" stroke-width="2" stroke-linecap="round"/>
<path d="M125.759 197.825C119.658 200.22 108.843 208.51 114.391 222.516" stroke="black" stroke-width="2" stroke-linecap="round"/>
<path d="M277.857 257.003C280.425 264.787 280.761 282.763 261.563 292.394" stroke="black" stroke-width="2" stroke-linecap="round"/>
<path d="M121.42 189.542C113.722 192.9 99.6869 204.678 105.125 224.933" stroke="black" stroke-width="2" stroke-linecap="round"/>
<path d="M177.171 271.408C169.011 267.889 164.605 259.574 165.918 251.42C166.355 248.711 169.426 247.553 171.962 248.647L198.142 259.937C200.678 261.03 201.843 264.014 200.053 266.14C194.666 272.538 185.332 274.927 177.171 271.408Z" fill="black"/>
<path d="M241.511 132.327C244.691 133.698 246.883 136.331 247.738 139.345C248.699 142.733 244.32 143.897 241.202 142.185C238.94 140.943 236.537 139.967 234.294 139.255C230.846 138.159 228.801 134.011 232.11 132.466C234.967 131.133 238.388 130.98 241.511 132.327Z" fill="black"/>
<path d="M163.335 177.06C161.54 180.96 160.924 182.903 157.51 190.319C153.52 198.984 150.34 202.983 134.275 208.355C124.734 211.546 122.533 220.332 128.768 224.271C128.791 224.285 128.816 224.298 128.841 224.309L246.043 274.85C246.087 274.869 246.133 274.882 246.18 274.889C252.574 275.769 259.651 269.713 254.695 260.284C249.721 250.82 248.564 241.172 252.496 231.28C255.477 223.781 262.721 206.82 265.465 199.058C274.205 168.185 249.779 149.804 236.473 144.473C221.94 138.205 209.702 138.214 205.399 139.001C194.292 140.151 186.325 144.427 180.177 150.429" stroke="black" stroke-width="2" stroke-linecap="round"/>
<path d="M205.89 159.618L143.322 149.528C142.328 149.368 141.747 150.611 142.508 151.271L171.091 176.056C171.165 176.12 171.243 176.173 171.336 176.205C173.97 177.109 183.519 173.479 188.904 171.153C189.461 170.912 190.105 171.212 190.282 171.793C191.442 175.616 192.788 179.125 193.559 180.987C193.737 181.414 194.213 181.623 194.467 181.235C195.707 179.342 195.887 172.359 195.795 168.046C195.784 167.531 196.161 167.091 196.664 166.979C200.556 166.112 205.64 162.892 207.835 161.278" stroke="#26A4E2" stroke-width="2" stroke-linecap="round"/>
<path d="M189.71 170.912C182.946 167.83 165.834 160.111 151.501 153.893" stroke="#26A4E2" stroke-width="2" stroke-linecap="round"/>
<path d="M193.926 181.713L181.341 174.538" stroke="#26A4E2" stroke-width="2" stroke-linecap="round"/>
<path d="M191.09 164.601L173.855 159.24" stroke="#26A4E2" stroke-width="2" stroke-linecap="round"/>
<path d="M429.5 61.08H440.18V65.64H429.5V61.08ZM435.06 53.16H447.98V57.76H435.06V53.16ZM449.82 54.92C452.3 64.6 457.58 72.56 466.58 76C465.5 76.96 463.94 78.96 463.22 80.28C453.74 75.96 448.7 67.28 445.78 55.8L449.82 54.92ZM460.78 56.32L465.22 59.56C461.78 62.6 457.66 65.96 454.46 68.04L451.06 65.24C454.22 63 458.34 59.28 460.78 56.32ZM445.1 53.16H450.3V77.04C450.3 79.6 449.74 80.92 448.06 81.72C446.34 82.48 443.94 82.56 440.54 82.56C440.34 81.16 439.62 79.04 438.9 77.72C440.94 77.84 443.46 77.84 444.14 77.84C444.86 77.8 445.1 77.6 445.1 76.96V53.16ZM438.18 49.08L440.58 45.16C445.26 46.16 451.94 48.32 455.38 50.08L452.82 54.56C449.58 52.72 443.06 50.32 438.18 49.08ZM438.38 61.08H439.34L440.18 60.92L443.42 62.28C441.5 70.64 437.3 76.88 432.38 80.2C431.62 79.16 429.66 77.32 428.5 76.56C433.26 73.76 436.98 68.44 438.38 62V61.08ZM478.42 58.72V75.36H473.74V63.16H468.98V58.72H478.42ZM469.7 49.84L472.74 46.68C474.9 48.2 478.22 50.52 479.86 51.88L476.66 55.48C475.14 53.96 471.94 51.52 469.7 49.84ZM476.7 73.56C477.94 73.56 478.9 74.6 481.06 75.8C483.62 77.4 487.22 77.64 491.58 77.64C495.74 77.64 502.42 77.28 506.58 76.68C506.02 77.96 505.26 80.28 505.22 81.6C502.18 81.8 495.7 82 491.38 82C486.42 82 483.18 81.56 480.42 79.96C478.78 79 477.46 77.8 476.58 77.8C475.34 77.8 473.42 80.28 471.7 82.68L468.62 78.32C471.34 75.56 474.5 73.56 476.7 73.56ZM480.18 56.2H505.3V60.48H480.18V56.2ZM482.78 47.28H502.78V51.52H482.78V47.28ZM486.1 58.68H490.82C490.46 66.92 489.3 72.52 481.58 75.76C481.1 74.6 479.82 72.76 478.78 71.88C485.26 69.44 485.82 65.24 486.1 58.68ZM493.78 58.76H498.3V69.44C498.3 70.6 498.38 70.76 499.06 70.76C499.34 70.76 500.5 70.76 500.82 70.76C501.58 70.76 501.74 70.2 501.86 66.28C502.7 67 504.62 67.76 505.82 68.04C505.42 73.52 504.26 74.96 501.34 74.96C500.62 74.96 498.98 74.96 498.3 74.96C494.58 74.96 493.78 73.6 493.78 69.48V58.76ZM509.7 50.6H545.38V55.2H509.7V50.6ZM522.74 63.56H543.7V68H522.74V63.56ZM521.18 77.16H545.22V81.6H521.18V77.16ZM530.9 56.92H535.74V79.52H530.9V56.92ZM522.3 45L527.3 46.2C524.34 55.84 519.3 65.56 510.74 71.4C510.26 70.04 509.14 67.92 508.42 66.76C515.66 62.04 520.22 53.08 522.3 45ZM514.3 61.76H519.14V82.52H514.3V61.76ZM550.7 72.24C550.46 71.36 549.78 69.24 549.22 68.04C550.3 67.84 551.18 66.96 552.46 65.48C553.86 64.04 557.94 58.56 560.66 53.12L564.5 55.6C561.5 60.8 557.54 66.08 553.7 69.92V70.04C553.7 70.04 550.7 71.4 550.7 72.24ZM550.7 72.24L550.42 68.52L552.42 67.08L563.3 65.28C563.14 66.52 563.1 68.32 563.18 69.28C553.38 71.2 551.74 71.68 550.7 72.24ZM550.42 62.48C550.22 61.56 549.42 59.32 548.9 58.08C549.74 57.84 550.42 57 551.3 55.72C552.18 54.52 554.94 49.68 556.42 45.12L560.86 47.24C558.86 51.8 555.86 56.68 552.98 60.08V60.2C552.98 60.2 550.42 61.64 550.42 62.48ZM550.42 62.48L550.3 59.12L552.3 57.8L559.54 57.28C559.26 58.48 559.1 60.16 559.06 61.12C552.58 61.8 551.22 62.08 550.42 62.48ZM549.38 76.2C552.78 75.32 558.02 73.68 563.02 72.12L563.74 76.04C559.14 77.68 554.26 79.4 550.38 80.76L549.38 76.2ZM564.74 54.24L583.82 51.36L584.62 55.56L565.54 58.6L564.74 54.24ZM563.9 62.88L584.9 59.08L585.66 63.28L564.66 67.2L563.9 62.88ZM570.34 44.88H575.1C574.82 60.96 577.94 77.92 581.78 77.92C582.54 77.92 582.9 76.92 583.06 73.68C584.02 74.8 585.38 75.84 586.46 76.36C585.66 81.28 584.42 82.6 581.22 82.6C573.02 82.6 570.42 62.96 570.34 44.88ZM575.74 47.92L578.54 45.4C580.18 46.36 582.46 47.88 583.62 48.88L580.74 51.72C579.62 50.64 577.38 49 575.74 47.92ZM581.98 64.96L585.98 66.8C581.42 74 573.9 79 565.38 82.04C564.78 80.84 563.58 79.16 562.46 78.08C570.54 75.72 578.02 71.28 581.98 64.96Z" fill="url(#paint0_linear_1389_7062)"/>
<path d="M388.248 166.616L389.16 165.992C390.104 166.792 391.224 167.928 391.752 168.664L390.76 169.368C390.28 168.6 389.192 167.448 388.248 166.616ZM377.88 170.296H392.136V171.448H377.88V170.296ZM377.64 175C379.544 174.648 382.552 174.008 385.368 173.4L385.464 174.488C382.84 175.096 380.008 175.752 377.992 176.2L377.64 175ZM381.32 167.192H382.52V178.744C382.52 179.528 382.328 179.88 381.816 180.072C381.304 180.264 380.456 180.312 379.128 180.296C379.064 179.976 378.856 179.432 378.68 179.08C379.704 179.128 380.648 179.112 380.936 179.096C381.224 179.096 381.32 179.016 381.32 178.728V167.192ZM384.36 165.752L385.208 166.76C383.352 167.4 380.632 167.896 378.344 168.216C378.28 167.944 378.136 167.496 377.976 167.224C380.232 166.872 382.824 166.328 384.36 165.752ZM385.96 165.704H387.208C387.176 173.048 388.744 179.128 390.696 179.128C391.128 179.128 391.32 178.296 391.416 176.232C391.672 176.504 392.104 176.776 392.44 176.904C392.216 179.56 391.784 180.344 390.584 180.344C387.448 180.344 386.024 173.32 385.96 165.704ZM390.296 172.184L391.368 172.632C389.8 175.56 387.16 178.136 384.216 179.688C384.024 179.384 383.688 179 383.384 178.728C386.232 177.352 388.872 174.888 390.296 172.184ZM402.2 166.152H407.016V167.256H402.2V166.152ZM406.552 166.152H407.752V178.776C407.752 179.496 407.576 179.848 407.08 180.04C406.6 180.232 405.784 180.248 404.52 180.248C404.472 179.944 404.296 179.416 404.136 179.096C405.048 179.144 405.928 179.128 406.2 179.112C406.456 179.096 406.552 179.016 406.552 178.76V166.152ZM399.08 166.088L400.008 165.576C400.712 166.536 401.56 167.848 401.928 168.648L400.936 169.224C400.584 168.408 399.784 167.064 399.08 166.088ZM398.408 168.792H399.576V180.28H398.408V168.792ZM396.584 165.656L397.704 165.96C396.904 168.728 395.656 171.544 394.216 173.416C394.104 173.144 393.768 172.504 393.56 172.2C394.824 170.584 395.928 168.12 396.584 165.656ZM395.32 169.688L396.424 168.568L396.472 168.6V180.28H395.32V169.688ZM409.544 175.96C410.776 175.672 412.616 175.16 414.44 174.664L414.584 175.736C412.952 176.248 411.256 176.776 409.944 177.16L409.544 175.96ZM413.912 165.64H415.08V180.28H413.912V165.64ZM410.632 167.416H411.784V176.104H410.632V167.416ZM417.656 168.536H424.408V169.672H417.656V168.536ZM418.088 165.56L419.32 165.8C418.616 168.744 417.48 171.512 416.008 173.32C415.816 173.08 415.32 172.648 415.032 172.456C416.456 170.824 417.496 168.232 418.088 165.56ZM422.328 169.08L423.528 169.272C422.408 174.76 420.216 178.232 415.928 180.328C415.816 180.056 415.448 179.512 415.224 179.256C419.336 177.416 421.352 174.168 422.328 169.08ZM418.088 169.464C419.016 174.024 421.016 177.768 424.6 179.304C424.328 179.544 423.944 180.008 423.768 180.328C420.04 178.536 418.056 174.664 417 169.672L418.088 169.464ZM425.848 175.352H440.152V176.36H425.848V175.352ZM428.536 169.512H438.44V170.36H428.536V169.512ZM428.536 171.432H438.488V172.296H428.536V171.432ZM428.344 167.464H439.096V168.456H428.344V167.464ZM432.664 168.024H433.832V173.768H432.664V168.024ZM432.36 174.072H433.56V180.28H432.36V174.072ZM432.104 175.72L433.032 176.2C431.448 177.864 428.6 179.384 426.248 180.12C426.072 179.8 425.72 179.352 425.448 179.112C427.832 178.504 430.648 177.16 432.104 175.72ZM433.832 175.72C435.272 177.128 438.072 178.408 440.472 179C440.216 179.24 439.88 179.688 439.704 179.992C437.32 179.288 434.488 177.816 432.904 176.2L433.832 175.72ZM433.416 165.56L434.76 165.752C434.312 166.6 433.816 167.496 433.4 168.104L432.344 167.88C432.728 167.24 433.192 166.248 433.416 165.56ZM429.24 165.544L430.488 165.768C429.544 167.528 428.2 169.48 426.296 171.08C426.088 170.808 425.688 170.44 425.416 170.28C427.208 168.872 428.52 167 429.24 165.544ZM427.784 168.12H428.936V173.4H439.72V174.36H427.784V168.12ZM448.392 171.016H449.64V178.744C449.64 179.544 449.432 179.912 448.808 180.088C448.184 180.28 447.112 180.296 445.496 180.296C445.416 179.944 445.192 179.432 445 179.08C446.328 179.128 447.56 179.128 447.928 179.112C448.28 179.096 448.392 179 448.392 178.712V171.016ZM442.568 166.824H454.12V167.992H442.568V166.824ZM453.688 166.824H454.008L454.296 166.744L455.224 167.416C453.8 169.112 451.544 171 449.56 172.12C449.384 171.864 449 171.464 448.744 171.288C450.568 170.28 452.68 168.44 453.688 167.112V166.824ZM458.008 167.64H472.024V168.776H458.008V167.64ZM461.912 173.352H469.432V174.392H461.912V173.352ZM461.064 170.632H469.24V171.704H462.248V180.28H461.064V170.632ZM468.968 170.632H470.136V178.792C470.136 179.496 469.992 179.864 469.448 180.056C468.936 180.248 468.04 180.248 466.664 180.248C466.616 179.912 466.44 179.416 466.264 179.08C467.336 179.128 468.312 179.112 468.6 179.112C468.872 179.096 468.968 179.016 468.968 178.776V170.632ZM463.24 165.56L464.456 165.848C463.368 169.368 461.448 172.92 458.392 175.064C458.232 174.792 457.864 174.376 457.624 174.136C460.488 172.168 462.376 168.776 463.24 165.56ZM461.912 176.056H469.432V177.096H461.912V176.056ZM476.12 166.696H486.472V167.848H476.12V166.696ZM476.12 170.424H486.456V171.56H476.12V170.424ZM476.04 174.248H486.488V175.384H476.04V174.248ZM475.448 166.696H476.632V172.504C476.632 174.936 476.344 178.248 474.44 180.376C474.248 180.136 473.768 179.736 473.512 179.576C475.272 177.592 475.448 174.744 475.448 172.488V166.696ZM485.992 166.696H487.176V178.648C487.176 179.432 486.984 179.8 486.456 180.008C485.912 180.2 484.984 180.216 483.464 180.2C483.416 179.88 483.224 179.352 483.048 179.032C484.184 179.08 485.272 179.064 485.576 179.064C485.88 179.048 485.992 178.952 485.992 178.648V166.696ZM480.472 167.128H481.688V180.136H480.472V167.128ZM491.096 168.136H495.96V178.6H491.096V177.512H494.84V169.208H491.096V168.136ZM490.376 168.136H491.496V179.88H490.376V168.136ZM491.016 172.584H495.432V173.656H491.016V172.584ZM492.824 165.528L494.12 165.768C493.8 166.76 493.4 167.864 493.08 168.584L492.12 168.344C492.392 167.576 492.696 166.36 492.824 165.528ZM498.232 168.088H503.144V169.208H498.232V168.088ZM502.728 168.088H503.848C503.848 168.088 503.848 168.536 503.848 168.712C503.592 176.056 503.368 178.536 502.728 179.32C502.376 179.784 502.008 179.928 501.448 179.976C500.904 180.04 499.96 180.008 499.064 179.96C499.032 179.608 498.888 179.112 498.664 178.792C499.704 178.872 500.664 178.888 501.032 178.888C501.352 178.888 501.544 178.84 501.72 178.632C502.248 178.056 502.504 175.4 502.728 168.344V168.088ZM498.568 165.496L499.72 165.768C499.128 168.152 498.184 170.504 497.08 172.024C496.872 171.832 496.376 171.496 496.088 171.336C497.176 169.928 498.056 167.72 498.568 165.496ZM497.832 172.248L498.76 171.704C499.672 172.84 500.776 174.392 501.288 175.336L500.264 175.976C499.784 175 498.712 173.416 497.832 172.248ZM507.624 171.352H518.216V172.472H507.624V171.352ZM512.216 165.592H513.48V177.672C513.48 178.616 513.672 178.792 514.616 178.792C515.096 178.792 517.448 178.792 518.024 178.792C518.904 178.792 519.064 178.264 519.192 176.2C519.496 176.424 520.008 176.632 520.392 176.728C520.184 179.16 519.784 180.008 518.088 180.008C517.656 180.008 514.952 180.008 514.536 180.008C512.744 180.008 512.216 179.528 512.216 177.656V165.592ZM507.72 167.896H518.824V175.96H507.72V174.792H517.608V169.064H507.72V167.896ZM507 167.896H508.248V176.936H507V167.896ZM528.6 171.592H534.936V172.696H528.6V171.592ZM530.392 172.184C531.464 175.256 533.64 178.04 536.408 179.224C536.12 179.464 535.752 179.928 535.56 180.248C532.712 178.84 530.536 175.896 529.352 172.472L530.392 172.184ZM534.616 171.592H534.84L535.064 171.544L535.832 171.8C535.064 175.448 533.032 178.632 529.864 180.312C529.672 180.04 529.32 179.672 529.048 179.432C532.04 177.928 533.976 174.952 534.616 171.848V171.592ZM534.12 166.104H535.336C535.336 166.104 535.32 166.44 535.304 166.616C535.224 168.872 535.08 169.8 534.728 170.152C534.44 170.456 534.072 170.536 533.544 170.584C533.048 170.6 532.024 170.6 530.952 170.536C530.936 170.232 530.808 169.816 530.632 169.528C531.672 169.624 532.728 169.624 533.048 169.624C533.384 169.624 533.56 169.608 533.704 169.496C533.928 169.272 534.024 168.424 534.12 166.28V166.104ZM521.512 174.04C522.92 173.688 525.016 173.096 527.032 172.52L527.16 173.672C525.32 174.248 523.336 174.84 521.832 175.256L521.512 174.04ZM521.736 168.792H527.048V169.976H521.736V168.792ZM524.024 165.576H525.24V178.792C525.24 179.544 525.048 179.88 524.584 180.056C524.104 180.264 523.352 180.28 522.088 180.28C522.04 179.976 521.864 179.464 521.688 179.144C522.584 179.176 523.416 179.16 523.656 179.144C523.928 179.144 524.024 179.064 524.024 178.792V165.576ZM527.768 166.104H534.488V167.24H528.952V180.248H527.768V166.104ZM545.288 166.52H552.2V167.576H545.288V166.52ZM548.472 167.128L549.576 167.416C549.24 168.264 548.904 169.192 548.616 169.8L547.64 169.544C547.928 168.872 548.28 167.832 548.472 167.128ZM545.688 169.272H551.736V176.776H550.648V170.2H546.712V176.808H545.688V169.272ZM548.216 170.984H549.224C549.176 176.936 548.872 179.16 544.712 180.344C544.616 180.072 544.344 179.688 544.136 179.48C548.008 178.44 548.168 176.6 548.216 170.984ZM548.632 177.672L549.32 177C550.392 177.768 551.784 178.856 552.472 179.56L551.752 180.328C551.08 179.608 549.72 178.472 548.632 177.672ZM541.752 167.56H544.648V168.568H541.752V167.56ZM537.624 170.552H545.032V171.624H537.624V170.552ZM541.256 165.56H542.328V171.16H541.256V165.56ZM538.824 166.968H539.816V171.16H538.824V166.968ZM543.848 172.824L544.888 173.064C543.992 176.712 542.024 179.064 538.408 180.344C538.28 180.04 538.024 179.656 537.768 179.416C541.176 178.344 543.016 176.168 543.848 172.824ZM539.112 172.648L540.136 172.872C539.768 174.184 539.16 175.544 538.472 176.424C538.28 176.264 537.848 175.992 537.592 175.848C538.264 175.032 538.792 173.832 539.112 172.648ZM540.952 171.4H542.056V176.488H540.952V171.4ZM557.976 167.608H568.152V168.616H557.976V167.608ZM562.344 168.056L563.688 168.168C563.432 168.984 563.128 169.864 562.888 170.44L561.896 170.248C562.056 169.624 562.264 168.68 562.344 168.056ZM565.128 165.56L566.344 165.864C565.896 166.6 565.416 167.384 565 167.912L563.992 167.64C564.376 167.064 564.872 166.168 565.128 165.56ZM559.672 165.976L560.616 165.608C561.112 166.136 561.608 166.888 561.784 167.416L560.808 167.848C560.632 167.32 560.152 166.536 559.672 165.976ZM557.176 171.88V177.544H556.008V173H553.768V171.88H557.176ZM557.176 177.016C557.928 178.2 559.352 178.744 561.192 178.824C562.936 178.888 566.536 178.84 568.424 178.712C568.296 179 568.088 179.576 568.04 179.944C566.28 180.008 562.968 180.04 561.192 179.976C559.112 179.896 557.672 179.336 556.648 178.072C555.88 178.76 555.064 179.448 554.2 180.152L553.56 178.92C554.328 178.408 555.272 177.704 556.088 177.016H557.176ZM553.944 166.68L554.824 165.96C555.88 166.632 557.08 167.672 557.64 168.456L556.696 169.24C556.184 168.472 554.984 167.384 553.944 166.68ZM560.376 173.016V174.344H565.704V173.016H560.376ZM560.376 175.224V176.568H565.704V175.224H560.376ZM560.376 170.808V172.136H565.704V170.808H560.376ZM559.24 169.88H566.888V177.496H559.24V169.88ZM571.512 180.712L571.144 179.88C572.456 179.336 573.176 178.52 573.176 177.32L572.872 175.96L573.736 177.176C573.512 177.464 573.192 177.544 572.888 177.544C572.232 177.544 571.688 177.16 571.688 176.392C571.688 175.64 572.264 175.24 572.904 175.24C573.8 175.24 574.28 175.976 574.28 177.096C574.28 178.824 573.192 180.136 571.512 180.712ZM588.12 166.696H598.472V167.848H588.12V166.696ZM588.12 170.424H598.456V171.56H588.12V170.424ZM588.04 174.248H598.488V175.384H588.04V174.248ZM587.448 166.696H588.632V172.504C588.632 174.936 588.344 178.248 586.44 180.376C586.248 180.136 585.768 179.736 585.512 179.576C587.272 177.592 587.448 174.744 587.448 172.488V166.696ZM597.992 166.696H599.176V178.648C599.176 179.432 598.984 179.8 598.456 180.008C597.912 180.2 596.984 180.216 595.464 180.2C595.416 179.88 595.224 179.352 595.048 179.032C596.184 179.08 597.272 179.064 597.576 179.064C597.88 179.048 597.992 178.952 597.992 178.648V166.696ZM592.472 167.128H593.688V180.136H592.472V167.128ZM601.864 171.96H616.136V173.144H601.864V171.96ZM608.504 167.112H609.768V178.536C609.768 179.416 609.528 179.784 608.92 179.992C608.328 180.184 607.272 180.216 605.64 180.216C605.56 179.864 605.32 179.304 605.144 178.952C606.456 178.984 607.672 178.984 608.04 178.968C608.376 178.952 608.504 178.856 608.504 178.536V167.112ZM602.984 166.712H615.016V167.896H602.984V166.712ZM622.76 167.512L623.864 167.56C623.624 172.472 623.064 176.248 621.064 178.776C620.888 178.6 620.392 178.232 620.12 178.072C622.104 175.8 622.6 172.088 622.76 167.512ZM627 167.512L628.12 167.56C627.928 172.552 627.4 176.312 625.304 178.824C625.144 178.632 624.648 178.248 624.376 178.088C626.424 175.848 626.872 172.168 627 167.512ZM620.168 170.824L620.84 170.12C622.472 171.608 624.248 173.672 625.08 175.032L624.36 175.88C623.528 174.472 621.752 172.344 620.168 170.824ZM624.536 170.648L625.224 169.944C626.936 171.512 628.824 173.672 629.704 175.112L628.984 175.976C628.104 174.504 626.2 172.248 624.536 170.648ZM618.408 166.52H631.128V167.672H619.56V180.248H618.408V166.52ZM630.488 166.52H631.672V178.744C631.672 179.464 631.48 179.832 631 180.04C630.52 180.216 629.72 180.248 628.36 180.248C628.296 179.928 628.12 179.4 627.944 179.08C628.92 179.128 629.848 179.112 630.12 179.096C630.392 179.096 630.488 179 630.488 178.744V166.52ZM634.056 176.088C633.992 175.848 633.8 175.256 633.656 174.952C634.008 174.888 634.376 174.488 634.888 173.896C635.416 173.336 637.112 171.144 638.2 169L639.272 169.64C637.992 171.784 636.424 173.912 634.904 175.432V175.464C634.904 175.464 634.056 175.848 634.056 176.088ZM634.056 176.088L633.976 175.064L634.568 174.648L638.856 173.704C638.84 174.024 638.856 174.504 638.888 174.744C634.936 175.704 634.392 175.88 634.056 176.088ZM633.944 172.248C633.88 171.992 633.688 171.4 633.544 171.08C633.832 171 634.12 170.632 634.472 170.104C634.84 169.576 636.008 167.528 636.664 165.624L637.816 166.168C636.984 168.12 635.816 170.152 634.68 171.576V171.608C634.68 171.608 633.944 171.992 633.944 172.248ZM633.944 172.248L633.928 171.336L634.488 170.952L637.384 170.648C637.336 170.968 637.288 171.432 637.304 171.656C634.664 172.008 634.2 172.12 633.944 172.248ZM633.656 178.2C635 177.88 637.048 177.288 639.064 176.712L639.256 177.752C637.384 178.344 635.416 178.936 633.928 179.4L633.656 178.2ZM640.44 174.28H647.272V180.12H646.12V175.352H641.576V180.136H640.44V174.28ZM641.112 178.264H646.872V179.352H641.112V178.264ZM642.216 167.096H646.968V168.2H641.672L642.216 167.096ZM646.584 167.096H646.84L647.064 167.048L647.768 167.496C646.264 170.984 642.936 173.288 639.496 174.408C639.416 174.088 639.16 173.544 638.984 173.304C642.264 172.344 645.352 170.296 646.584 167.32V167.096ZM642.12 165.352L643.224 165.672C642.392 167.72 641.096 169.688 639.72 170.984C639.576 170.744 639.192 170.264 638.952 170.024C640.264 168.904 641.432 167.16 642.12 165.352ZM641.768 168.248C642.92 170.616 645.432 172.424 648.424 173.224C648.216 173.512 648.024 173.992 647.944 174.312C644.824 173.32 642.184 171.352 640.872 168.776L641.768 168.248ZM656.312 166.456H664.04V167.576H656.312V166.456ZM655.864 172.184H664.36V173.336H655.864V172.184ZM661.4 166.904H662.536V180.296H661.4V166.904ZM657.64 166.952H658.776V172.552C658.776 175.208 658.504 178.264 656.504 180.36C656.296 180.152 655.864 179.816 655.576 179.672C657.416 177.72 657.64 174.888 657.64 172.552V166.952ZM649.8 166.44H655.448V167.544H649.8V166.44ZM651.416 171.352H655.16V178.28H651.416V177.192H654.104V172.44H651.416V171.352ZM651.896 166.952L653.016 167.192C652.44 170.216 651.528 173.128 650.056 175.048C649.976 174.76 649.704 174.072 649.496 173.752C650.728 172.12 651.48 169.624 651.896 166.952ZM650.888 171.352H651.912V179.56H650.888V171.352ZM423.08 188.096H432.328V189.264H423.08V188.096ZM428.968 184.72H430.184V197.296C430.184 198.16 429.944 198.512 429.4 198.72C428.84 198.928 427.864 198.96 426.216 198.944C426.152 198.592 425.96 198.064 425.784 197.728C427.032 197.76 428.168 197.76 428.504 197.744C428.84 197.728 428.968 197.616 428.968 197.296V184.72ZM424.408 191.392L425.448 190.896C426.216 192.048 427.032 193.584 427.384 194.592L426.28 195.168C425.944 194.16 425.144 192.576 424.408 191.392ZM418.712 185.712L419.464 184.912C420.44 185.68 421.688 186.768 422.296 187.472L421.48 188.384C420.904 187.664 419.672 186.512 418.712 185.712ZM420.072 198.96L419.848 197.824L420.152 197.296L423.064 195.04C423.176 195.36 423.368 195.824 423.496 196.048C420.744 198.256 420.312 198.624 420.072 198.96ZM417.64 189.6H420.776V190.752H417.64V189.6ZM420.072 198.976C419.944 198.72 419.624 198.288 419.416 198.096C419.704 197.872 420.184 197.328 420.184 196.544V189.6H421.336V197.424C421.336 197.424 420.072 198.496 420.072 198.976ZM434.552 197.536C437.336 197.472 441.8 197.312 445.96 197.12L445.912 198.224C441.88 198.432 437.544 198.624 434.712 198.72L434.552 197.536ZM434.408 192.592H447.672V193.728H434.408V192.592ZM437.144 189.536H444.792V190.656H437.144V189.536ZM438.792 193.312L440.136 193.696C439.4 195.232 438.472 197.104 437.688 198.304L436.616 197.952C437.368 196.704 438.312 194.72 438.792 193.312ZM442.6 195.008L443.624 194.464C445.096 195.728 446.664 197.456 447.416 198.672L446.328 199.328C445.608 198.128 444.024 196.288 442.6 195.008ZM440.936 185.744C439.624 187.696 437 189.888 434.28 191.248C434.136 190.96 433.832 190.528 433.576 190.272C436.328 188.96 439 186.64 440.248 184.592H441.48C443.176 186.96 445.976 189.056 448.52 190.096C448.232 190.384 447.944 190.816 447.736 191.168C445.24 189.968 442.424 187.824 440.936 185.744ZM455.672 190.368L457.08 190.72C456.072 193.136 454.68 196.128 453.496 198.064L452.392 197.712C453.528 195.744 454.92 192.624 455.672 190.368ZM450.424 197.344C453.352 197.248 458.008 197.056 462.296 196.848L462.264 198C458.072 198.24 453.592 198.48 450.584 198.608L450.424 197.344ZM458.744 193.872L459.896 193.344C461.352 195.024 463 197.248 463.8 198.704L462.584 199.36C461.832 197.904 460.168 195.568 458.744 193.872ZM454.056 185.04L455.384 185.408C454.312 187.984 452.632 190.432 450.936 192.016C450.68 191.776 450.12 191.344 449.784 191.152C451.544 189.712 453.128 187.408 454.056 185.04ZM459.784 185.024C460.84 187.12 462.856 189.648 464.328 190.976C464.008 191.232 463.56 191.696 463.32 192C461.832 190.48 459.832 187.76 458.6 185.52L459.784 185.024ZM465.96 190.496H480.072V191.632H465.96V190.496ZM468.552 186.88H478.888V187.984H468.552V186.88ZM468.6 197.408H477.56V198.528H468.6V197.408ZM472.712 184.56H473.976V191.152H472.712V184.56ZM467.944 193.216H478.2V199.408H476.952V194.336H469.16V199.424H467.944V193.216ZM468.968 184.704L470.152 184.992C469.464 186.96 468.36 188.88 467.24 190.144C467 189.968 466.456 189.648 466.152 189.488C467.336 188.336 468.344 186.512 468.968 184.704ZM483.512 199.712L483.144 198.88C484.456 198.336 485.176 197.52 485.176 196.32L484.872 194.96L485.736 196.176C485.512 196.464 485.192 196.544 484.888 196.544C484.232 196.544 483.688 196.16 483.688 195.392C483.688 194.64 484.264 194.24 484.904 194.24C485.8 194.24 486.28 194.976 486.28 196.096C486.28 197.824 485.192 199.136 483.512 199.712ZM498.008 186.64H512.024V187.776H498.008V186.64ZM501.912 192.352H509.432V193.392H501.912V192.352ZM501.064 189.632H509.24V190.704H502.248V199.28H501.064V189.632ZM508.968 189.632H510.136V197.792C510.136 198.496 509.992 198.864 509.448 199.056C508.936 199.248 508.04 199.248 506.664 199.248C506.616 198.912 506.44 198.416 506.264 198.08C507.336 198.128 508.312 198.112 508.6 198.112C508.872 198.096 508.968 198.016 508.968 197.776V189.632ZM503.24 184.56L504.456 184.848C503.368 188.368 501.448 191.92 498.392 194.064C498.232 193.792 497.864 193.376 497.624 193.136C500.488 191.168 502.376 187.776 503.24 184.56ZM501.912 195.056H509.432V196.096H501.912V195.056ZM519.256 185.216H526.872V186.256H519.256V185.216ZM523.656 187.76H527.464V188.752H523.656V187.76ZM520.664 188.16H523.432V189.104H520.664V188.16ZM520.664 191.088H523.432V192.064H520.664V191.088ZM522.968 185.632H523.96V197.392H522.968V185.632ZM520.152 185.568H521.128V194.912L520.152 195.104V185.568ZM518.92 195.056C520.04 194.832 521.688 194.48 523.336 194.096L523.448 195.024C521.928 195.392 520.36 195.776 519.144 196.064L518.92 195.056ZM527.176 187.76H527.384L527.576 187.744L528.2 187.92C527.8 192.4 526.664 195.456 524.936 197.056C524.792 196.816 524.456 196.384 524.232 196.224C525.832 194.752 526.856 191.952 527.176 188V187.76ZM525.176 189.216C525.688 192.304 526.792 195.12 528.568 196.384C528.328 196.576 528.008 196.928 527.848 197.184C525.992 195.712 524.904 192.752 524.328 189.408L525.176 189.216ZM514.2 186.464H519.464V187.52H514.2V186.464ZM513.8 189.408H519.768V190.496H513.8V189.408ZM517.128 192.512H519.656V193.6H517.128V192.512ZM516.488 184.56H517.592V190.08H516.488V184.56ZM516.728 190.144H517.8V197.44H516.728V190.144ZM515.432 193.68C516.344 197.04 518.232 197.712 521.96 197.712C522.696 197.712 527.464 197.728 528.424 197.68C528.232 197.968 528.008 198.512 527.928 198.864H521.96C517.64 198.864 515.656 198.016 514.552 193.984L515.432 193.68ZM514.504 191.728L515.512 191.776C515.544 194.176 515.416 197.104 514.168 199.248C513.992 199.008 513.608 198.672 513.368 198.56C514.456 196.608 514.568 193.888 514.504 191.728ZM531.096 187.136H535.96V197.6H531.096V196.512H534.84V188.208H531.096V187.136ZM530.376 187.136H531.496V198.88H530.376V187.136ZM531.016 191.584H535.432V192.656H531.016V191.584ZM532.824 184.528L534.12 184.768C533.8 185.76 533.4 186.864 533.08 187.584L532.12 187.344C532.392 186.576 532.696 185.36 532.824 184.528ZM538.232 187.088H543.144V188.208H538.232V187.088ZM542.728 187.088H543.848C543.848 187.088 543.848 187.536 543.848 187.712C543.592 195.056 543.368 197.536 542.728 198.32C542.376 198.784 542.008 198.928 541.448 198.976C540.904 199.04 539.96 199.008 539.064 198.96C539.032 198.608 538.888 198.112 538.664 197.792C539.704 197.872 540.664 197.888 541.032 197.888C541.352 197.888 541.544 197.84 541.72 197.632C542.248 197.056 542.504 194.4 542.728 187.344V187.088ZM538.568 184.496L539.72 184.768C539.128 187.152 538.184 189.504 537.08 191.024C536.872 190.832 536.376 190.496 536.088 190.336C537.176 188.928 538.056 186.72 538.568 184.496ZM537.832 191.248L538.76 190.704C539.672 191.84 540.776 193.392 541.288 194.336L540.264 194.976C539.784 194 538.712 192.416 537.832 191.248ZM551.272 193.056H559.256V199.2H558.104V194.16H552.376V199.28H551.272V193.056ZM558.664 184.624L559.608 185.568C557.416 186.32 554.072 186.816 551.208 187.088C551.16 186.8 551 186.336 550.856 186.064C553.64 185.76 556.888 185.264 558.664 184.624ZM554.728 186.016H555.88V193.696H554.728V186.016ZM550.104 189.264H560.296V190.416H550.104V189.264ZM552.024 197.488H558.632V198.592H552.024V197.488ZM546.44 185.616L547.112 184.768C548.088 185.248 549.448 185.968 550.136 186.432L549.432 187.408C548.76 186.928 547.432 186.144 546.44 185.616ZM545.656 190.032L546.328 189.152C547.272 189.616 548.616 190.32 549.288 190.784L548.616 191.76C547.96 191.312 546.632 190.544 545.656 190.032ZM546.04 198.256C546.904 197.04 548.168 194.928 549.096 193.104L549.96 193.888C549.112 195.584 547.992 197.584 547.048 199.072L546.04 198.256ZM569.112 188.256H575.528V189.408H569.112V188.256ZM574.936 188.256H576.12C576.12 188.256 576.104 188.704 576.104 188.864C575.896 195.472 575.704 197.728 575.144 198.432C574.824 198.864 574.504 198.992 573.976 199.056C573.48 199.104 572.616 199.088 571.768 199.04C571.736 198.688 571.608 198.192 571.384 197.856C572.296 197.936 573.128 197.936 573.48 197.936C573.752 197.952 573.928 197.904 574.104 197.712C574.536 197.2 574.76 194.896 574.936 188.528V188.256ZM571.432 184.848H572.616C572.584 190.416 572.504 196.192 569.256 199.264C569.048 198.992 568.632 198.592 568.328 198.4C571.4 195.584 571.416 190.08 571.432 184.848ZM562.424 185.872H568.616V186.96H562.424V185.872ZM561.848 189.696H568.904V190.784H561.848V189.696ZM566.568 192.448L567.544 192.176C568.168 193.6 568.888 195.52 569.176 196.624L568.12 196.992C567.848 195.856 567.16 193.904 566.568 192.448ZM562.424 197.312L562.328 196.304L562.936 195.872L568.184 194.768C568.216 195.088 568.296 195.552 568.344 195.808C563.416 196.912 562.808 197.088 562.424 197.312ZM562.424 197.312C562.36 197.056 562.168 196.496 562.04 196.192C562.296 196.112 562.504 195.696 562.776 195.072C563.016 194.496 563.832 192.192 564.216 190.112L565.384 190.48C564.888 192.624 564.072 194.976 563.256 196.624V196.64C563.256 196.64 562.424 197.056 562.424 197.312ZM584.36 188.224H585.592V192.416H584.36V188.224ZM579.336 189.328H590.76V190.352H579.336V189.328ZM577.752 191.776H592.28V192.832H577.752V191.776ZM578.264 194.24H591.864V195.296H578.264V194.24ZM587.624 192.624H588.856V197.872C588.856 198.576 588.696 198.896 588.136 199.088C587.608 199.264 586.712 199.28 585.384 199.28C585.32 198.928 585.112 198.464 584.936 198.144C586.024 198.176 586.968 198.176 587.272 198.144C587.56 198.144 587.624 198.08 587.624 197.856V192.624ZM579.608 185.92H584.808V186.928H579.608V185.92ZM585.784 185.92H592.12V186.928H585.784V185.92ZM579.96 184.496L581.112 184.8C580.488 186.368 579.512 187.92 578.52 188.912C578.296 188.736 577.8 188.4 577.512 188.24C578.536 187.312 579.432 185.904 579.96 184.496ZM586.248 184.496L587.4 184.768C586.856 186.288 585.896 187.728 584.904 188.656C584.68 188.464 584.184 188.128 583.912 187.968C584.92 187.136 585.784 185.84 586.248 184.496ZM580.568 186.688L581.576 186.336C581.928 186.976 582.312 187.824 582.456 188.368L581.384 188.752C581.272 188.208 580.92 187.344 580.568 186.688ZM587.224 186.688L588.2 186.304C588.728 186.928 589.336 187.808 589.576 188.4L588.552 188.832C588.328 188.256 587.752 187.36 587.224 186.688ZM580.568 196L581.448 195.312C582.472 195.952 583.656 196.944 584.2 197.696L583.272 198.464C582.76 197.712 581.608 196.688 580.568 196ZM600.36 188.224H601.592V192.416H600.36V188.224ZM595.336 189.328H606.76V190.352H595.336V189.328ZM593.752 191.776H608.28V192.832H593.752V191.776ZM594.264 194.24H607.864V195.296H594.264V194.24ZM603.624 192.624H604.856V197.872C604.856 198.576 604.696 198.896 604.136 199.088C603.608 199.264 602.712 199.28 601.384 199.28C601.32 198.928 601.112 198.464 600.936 198.144C602.024 198.176 602.968 198.176 603.272 198.144C603.56 198.144 603.624 198.08 603.624 197.856V192.624ZM595.608 185.92H600.808V186.928H595.608V185.92ZM601.784 185.92H608.12V186.928H601.784V185.92ZM595.96 184.496L597.112 184.8C596.488 186.368 595.512 187.92 594.52 188.912C594.296 188.736 593.8 188.4 593.512 188.24C594.536 187.312 595.432 185.904 595.96 184.496ZM602.248 184.496L603.4 184.768C602.856 186.288 601.896 187.728 600.904 188.656C600.68 188.464 600.184 188.128 599.912 187.968C600.92 187.136 601.784 185.84 602.248 184.496ZM596.568 186.688L597.576 186.336C597.928 186.976 598.312 187.824 598.456 188.368L597.384 188.752C597.272 188.208 596.92 187.344 596.568 186.688ZM603.224 186.688L604.2 186.304C604.728 186.928 605.336 187.808 605.576 188.4L604.552 188.832C604.328 188.256 603.752 187.36 603.224 186.688ZM596.568 196L597.448 195.312C598.472 195.952 599.656 196.944 600.2 197.696L599.272 198.464C598.76 197.712 597.608 196.688 596.568 196ZM612.104 194.112C613.448 194.112 614.536 195.2 614.536 196.544C614.536 197.888 613.448 198.976 612.104 198.976C610.76 198.976 609.656 197.888 609.656 196.544C609.656 195.2 610.76 194.112 612.104 194.112ZM612.104 198.16C613 198.16 613.72 197.44 613.72 196.544C613.72 195.648 613 194.928 612.104 194.928C611.208 194.928 610.472 195.648 610.472 196.544C610.472 197.44 611.208 198.16 612.104 198.16ZM405.021 241.592H406.157V252.712H405.021V241.592ZM399.453 248.184L409.069 244.456L409.533 245.496L399.901 249.24L399.453 248.184ZM401.469 243.16H402.653V253.864C402.653 254.776 402.877 254.984 404.013 254.984C404.557 254.984 407.421 254.984 408.125 254.984C409.101 254.984 409.277 254.536 409.405 252.648C409.693 252.856 410.173 253.064 410.525 253.144C410.317 255.352 409.933 256.072 408.157 256.072C407.693 256.072 404.397 256.072 403.965 256.072C402.029 256.072 401.469 255.624 401.469 253.848V243.16ZM408.669 244.728H408.525L408.813 244.488L409.021 244.296L409.853 244.648L409.805 244.84C409.789 247.752 409.757 250.056 409.597 250.744C409.469 251.48 409.133 251.784 408.637 251.912C408.205 252.024 407.501 252.04 407.021 252.024C406.989 251.688 406.861 251.192 406.717 250.92C407.165 250.936 407.741 250.936 407.949 250.936C408.221 250.936 408.397 250.872 408.509 250.456C408.637 249.944 408.669 247.848 408.669 244.728ZM399.373 241.624L400.477 241.976C399.437 244.664 397.789 247.384 396.077 249.176C395.949 248.904 395.613 248.28 395.405 248.008C396.989 246.456 398.477 244.056 399.373 241.624ZM397.677 245.752L398.829 244.584L398.845 244.6V256.264H397.677V245.752ZM420.317 242.152H425.133V243.256H420.317V242.152ZM424.669 242.152H425.869V254.776C425.869 255.496 425.693 255.848 425.197 256.04C424.717 256.232 423.901 256.248 422.637 256.248C422.589 255.944 422.413 255.416 422.253 255.096C423.165 255.144 424.045 255.128 424.317 255.112C424.573 255.096 424.669 255.016 424.669 254.76V242.152ZM417.197 242.088L418.125 241.576C418.829 242.536 419.677 243.848 420.045 244.648L419.053 245.224C418.701 244.408 417.901 243.064 417.197 242.088ZM416.525 244.792H417.693V256.28H416.525V244.792ZM414.701 241.656L415.821 241.96C415.021 244.728 413.773 247.544 412.333 249.416C412.221 249.144 411.885 248.504 411.677 248.2C412.941 246.584 414.045 244.12 414.701 241.656ZM413.437 245.688L414.541 244.568L414.589 244.6V256.28H413.437V245.688ZM430.109 247.624H439.261V248.792H430.109V247.624ZM438.861 247.624H440.109C440.109 247.624 440.093 248.04 440.077 248.2C439.853 253.16 439.629 255.016 439.053 255.624C438.733 256.024 438.381 256.136 437.821 256.184C437.293 256.232 436.285 256.216 435.277 256.168C435.261 255.8 435.101 255.304 434.877 254.952C435.933 255.048 436.925 255.064 437.309 255.064C437.629 255.064 437.821 255.032 437.981 254.856C438.413 254.424 438.653 252.6 438.861 247.848V247.624ZM432.301 241.896L433.565 242.264C432.413 244.968 430.525 247.352 428.509 248.888C428.285 248.632 427.773 248.168 427.469 247.944C429.517 246.568 431.293 244.36 432.301 241.896ZM437.885 241.864C438.925 244.008 440.989 246.44 442.733 247.672C442.413 247.928 441.965 248.408 441.725 248.744C439.949 247.304 437.933 244.712 436.733 242.328L437.885 241.864ZM433.485 247.944H434.765C434.397 251.448 433.565 254.76 429.101 256.36C428.957 256.056 428.605 255.576 428.333 255.32C432.525 253.928 433.165 250.968 433.485 247.944ZM443.981 252.152H458.269V253.208H443.981V252.152ZM450.445 241.56H451.693V243.592H450.445V241.56ZM445.485 249.24H455.581V250.216H445.485V249.24ZM450.461 251.208H451.709V255.064C451.709 255.736 451.517 256.024 450.957 256.184C450.397 256.328 449.469 256.328 448.029 256.328C447.965 256.024 447.773 255.624 447.613 255.336C448.701 255.368 449.805 255.352 450.077 255.352C450.365 255.336 450.461 255.272 450.461 255.032V251.208ZM455.309 249.24H455.629L455.901 249.192L456.701 249.848C455.261 250.744 453.181 251.544 451.293 252.008C451.149 251.8 450.861 251.48 450.685 251.32C452.349 250.904 454.301 250.152 455.309 249.48V249.24ZM447.341 245.928V247.368H454.909V245.928H447.341ZM446.157 245.032H456.157V248.264H446.157V245.032ZM444.125 242.968H458.061V244.008H444.125V242.968ZM467.277 246.328H473.325V247.432H467.277V246.328ZM467.293 250.2H473.341V251.304H467.293V250.2ZM467.277 254.088H473.341V255.192H467.277V254.088ZM466.685 242.504H473.917V256.136H472.717V243.656H467.837V256.184H466.685V242.504ZM459.933 245H465.981V246.152H459.933V245ZM462.541 241.56H463.693V256.264H462.541V241.56ZM462.477 245.704L463.277 245.976C462.701 248.568 461.469 251.688 460.205 253.304C460.077 252.968 459.773 252.488 459.565 252.216C460.765 250.776 461.981 248.024 462.477 245.704ZM463.581 247.464C464.045 247.912 465.693 249.832 466.077 250.28L465.325 251.272C464.877 250.488 463.533 248.696 462.973 248.04L463.581 247.464ZM478.397 245.176H487.805V246.328H478.397V245.176ZM477.805 249.08H488.461V250.216H477.805V249.08ZM483.693 249.464C484.429 252.28 486.077 254.376 488.829 255.224C488.541 255.48 488.189 255.96 488.013 256.28C485.149 255.24 483.485 252.936 482.653 249.688L483.693 249.464ZM486.061 241.592L487.309 242.024C486.733 243.048 486.029 244.232 485.469 244.984L484.493 244.584C485.021 243.784 485.693 242.488 486.061 241.592ZM479.053 242.248L480.029 241.752C480.701 242.568 481.405 243.704 481.693 244.456L480.653 245.032C480.381 244.264 479.693 243.096 479.053 242.248ZM482.397 245.448H483.645V248.776C483.645 251.24 483.053 254.296 478.141 256.344C477.965 256.056 477.597 255.64 477.309 255.4C482.077 253.592 482.397 250.84 482.397 248.776V245.448ZM497.581 242.328H504.989V243.304H497.581V242.328ZM497.389 246.76H505.277V247.752H497.389V246.76ZM497.389 248.984H505.245V249.976H497.389V248.984ZM497.853 254.536H504.797V255.528H497.853V254.536ZM496.077 244.536H506.493V245.544H496.077V244.536ZM497.229 251.208H505.421V256.232H504.221V252.184H498.381V256.28H497.229V251.208ZM495.533 241.608L496.669 241.96C495.581 244.664 493.869 247.352 492.093 249.128C491.981 248.856 491.645 248.232 491.421 247.944C493.037 246.424 494.605 244.04 495.533 241.608ZM493.869 245.736L495.005 244.6L495.021 244.616V256.248H493.869V245.736ZM511.901 251.976H513.085V254.616C513.085 255.032 513.229 255.112 514.093 255.112C514.477 255.112 516.493 255.112 517.021 255.112C517.709 255.112 517.821 254.92 517.885 253.56C518.157 253.752 518.653 253.928 518.973 253.992C518.813 255.768 518.461 256.2 517.133 256.2C516.765 256.2 514.349 256.2 513.997 256.2C512.317 256.2 511.901 255.864 511.901 254.632V251.976ZM513.549 251.416L514.429 250.792C515.373 251.416 516.429 252.344 516.909 253.064L515.965 253.736C515.517 253.032 514.477 252.056 513.549 251.416ZM518.717 252.28L519.677 251.688C520.829 252.664 522.093 254.056 522.605 255.08L521.581 255.752C521.085 254.744 519.885 253.304 518.717 252.28ZM509.709 251.848L510.765 252.232C510.365 253.48 509.741 254.888 508.685 255.752L507.709 255.064C508.685 254.296 509.357 253.016 509.709 251.848ZM511.453 246.056V247.384H518.941V246.056H511.453ZM511.453 248.312V249.64H518.941V248.312H511.453ZM511.453 243.832V245.144H518.941V243.832H511.453ZM510.301 242.872H520.141V250.616H510.301V242.872ZM514.557 241.4L515.949 241.64C515.629 242.328 515.245 242.968 514.973 243.432L513.901 243.176C514.141 242.664 514.413 241.912 514.557 241.4ZM524.541 244.872H537.789V246.024H524.541V244.872ZM523.949 249.496H538.301V250.648H523.949V249.496ZM533.373 245.464H534.605V256.28H533.373V245.464ZM527.677 245.464H528.861V249.112C528.861 251.768 528.413 254.536 524.765 256.408C524.605 256.12 524.205 255.704 523.949 255.48C527.293 253.8 527.677 251.384 527.677 249.096V245.464ZM526.589 241.992L527.645 241.576C528.349 242.424 529.069 243.592 529.373 244.36L528.253 244.856C527.981 244.088 527.277 242.872 526.589 241.992ZM534.445 241.528L535.789 241.944C535.165 242.936 534.445 244.088 533.853 244.808L532.813 244.424C533.389 243.64 534.077 242.408 534.445 241.528ZM545.197 245.096H554.445V246.264H545.197V245.096ZM551.085 241.72H552.301V254.296C552.301 255.16 552.061 255.512 551.517 255.72C550.957 255.928 549.981 255.96 548.333 255.944C548.269 255.592 548.077 255.064 547.901 254.728C549.149 254.76 550.285 254.76 550.621 254.744C550.957 254.728 551.085 254.616 551.085 254.296V241.72ZM546.525 248.392L547.565 247.896C548.333 249.048 549.149 250.584 549.501 251.592L548.397 252.168C548.061 251.16 547.261 249.576 546.525 248.392ZM540.829 242.712L541.581 241.912C542.557 242.68 543.805 243.768 544.413 244.472L543.597 245.384C543.021 244.664 541.789 243.512 540.829 242.712ZM542.189 255.96L541.965 254.824L542.269 254.296L545.181 252.04C545.293 252.36 545.485 252.824 545.613 253.048C542.861 255.256 542.429 255.624 542.189 255.96ZM539.757 246.6H542.893V247.752H539.757V246.6ZM542.189 255.976C542.061 255.72 541.741 255.288 541.533 255.096C541.821 254.872 542.301 254.328 542.301 253.544V246.6H543.453V254.424C543.453 254.424 542.189 255.496 542.189 255.976ZM565.965 242.168C567.021 244.104 569.021 246.232 570.749 247.272C570.477 247.496 570.093 247.928 569.885 248.216C568.125 246.984 566.109 244.712 564.957 242.552L565.965 242.168ZM565.069 241.544L566.349 241.768C565.325 244.008 563.597 246.504 560.973 248.36C560.781 248.072 560.413 247.64 560.141 247.464C562.621 245.8 564.269 243.448 565.069 241.544ZM562.461 247.464H563.661V254.024C563.661 254.648 563.821 254.776 564.765 254.776C565.197 254.776 567.373 254.776 567.933 254.776C568.733 254.776 568.877 254.44 568.957 252.552C569.245 252.76 569.741 252.952 570.061 253.016C569.901 255.256 569.549 255.864 567.997 255.864C567.629 255.864 565.037 255.864 564.685 255.864C562.941 255.864 562.461 255.48 562.461 254.024V247.464ZM568.013 248.184L568.797 249.192C567.229 250.2 565.021 251.336 563.389 252.024L562.749 251.128C564.333 250.44 566.621 249.176 568.013 248.184ZM556.829 242.712L557.581 241.912C558.557 242.68 559.805 243.768 560.413 244.472L559.597 245.384C559.021 244.664 557.789 243.512 556.829 242.712ZM558.141 255.96L557.917 254.824L558.221 254.296L561.005 252.136C561.117 252.472 561.309 252.92 561.437 253.144C558.797 255.272 558.381 255.624 558.141 255.96ZM555.757 246.6H558.893V247.752H555.757V246.6ZM558.141 255.976C558.013 255.72 557.677 255.288 557.485 255.096C557.757 254.872 558.253 254.328 558.253 253.544V246.6H559.405V254.424C559.405 254.424 558.141 255.496 558.141 255.976ZM573.133 253.016C573.085 252.776 572.925 252.2 572.797 251.88C573.309 251.816 573.981 251.624 574.877 251.304C575.853 250.968 578.957 249.688 581.437 248.168L582.253 249.032C579.597 250.552 576.765 251.688 574.013 252.52V252.552C574.013 252.552 573.133 252.792 573.133 253.016ZM573.133 253.016L573.117 252.2L573.949 251.784L584.365 251.272C584.397 251.576 584.493 251.992 584.573 252.2C574.637 252.76 573.741 252.824 573.133 253.016ZM574.301 250.568C574.253 250.328 574.077 249.784 573.949 249.48C574.237 249.448 574.557 249.304 574.925 249.096C575.341 248.904 576.669 248.104 577.613 247.224L578.573 247.912C577.453 248.76 576.237 249.496 575.037 249.992V250.024C575.037 250.024 574.301 250.328 574.301 250.568ZM574.301 250.568V249.768L574.941 249.448L579.677 249.32C579.581 249.592 579.469 250.024 579.421 250.248C575.181 250.408 574.637 250.456 574.301 250.568ZM578.749 251.896H579.949V254.984C579.949 255.608 579.821 255.896 579.293 256.072C578.813 256.232 578.029 256.248 576.861 256.248C576.797 255.912 576.605 255.496 576.429 255.192C577.373 255.224 578.189 255.224 578.429 255.224C578.685 255.208 578.749 255.16 578.749 254.968V251.896ZM581.821 250.44L582.637 249.864C583.789 250.616 585.197 251.736 585.869 252.552L584.989 253.208C584.365 252.392 583.005 251.24 581.821 250.44ZM581.245 253.768L582.109 253.144C583.373 253.768 585.021 254.744 585.869 255.432L584.957 256.12C584.157 255.448 582.541 254.424 581.245 253.768ZM575.869 253.096L576.957 253.544C575.917 254.52 574.381 255.496 573.101 256.12C572.893 255.912 572.445 255.496 572.157 255.304C573.501 254.76 574.941 253.928 575.869 253.096ZM578.109 242.216H584.509V243.272H578.109V242.216ZM579.917 242.856C580.861 245.176 583.053 246.648 586.173 247.16C585.901 247.416 585.581 247.896 585.437 248.216C582.221 247.528 580.029 245.832 578.941 243.112L579.917 242.856ZM584.221 242.216H584.461L584.669 242.168L585.373 242.472C584.221 245.624 581.341 247.24 578.125 247.976C578.013 247.688 577.757 247.208 577.533 246.984C580.509 246.424 583.261 244.968 584.221 242.392V242.216ZM572.909 242.584H573.997V247.336H572.909V242.584ZM575.629 241.864H576.717V247.88H575.629V241.864ZM596.749 241.592L598.109 241.768C597.805 242.76 597.469 243.864 597.165 244.584L596.013 244.408C596.285 243.64 596.605 242.44 596.749 241.592ZM591.293 247.88V253.544H590.125V249H587.885V247.88H591.293ZM591.293 253.016C592.045 254.2 593.469 254.744 595.309 254.824C597.053 254.888 600.653 254.84 602.541 254.712C602.413 255 602.205 255.576 602.157 255.944C600.397 256.008 597.085 256.04 595.309 255.976C593.229 255.896 591.789 255.336 590.765 254.072C589.997 254.76 589.181 255.448 588.317 256.152L587.677 254.92C588.445 254.408 589.389 253.704 590.205 253.016H591.293ZM588.061 242.68L588.941 241.96C589.997 242.632 591.197 243.672 591.757 244.456L590.813 245.24C590.301 244.472 589.101 243.384 588.061 242.68ZM594.445 248.952V251.896H600.317V248.952H594.445ZM594.445 245.016V247.896H600.317V245.016H594.445ZM593.277 243.896H601.517V253H593.277V243.896ZM604.589 245.176H605.773V256.296H604.589V245.176ZM604.765 242.344L605.645 241.784C606.445 242.568 607.533 243.704 608.061 244.376L607.149 245.032C606.621 244.344 605.581 243.192 604.765 242.344ZM608.797 242.472H617.245V243.592H608.797V242.472ZM616.429 242.472H617.629V254.616C617.629 255.384 617.437 255.752 616.941 255.96C616.429 256.152 615.565 256.184 614.253 256.168C614.205 255.832 614.013 255.288 613.853 254.952C614.813 255 615.789 254.984 616.045 254.984C616.333 254.968 616.429 254.872 616.429 254.6V242.472ZM608.861 246.424H613.885V252.312H608.861V251.224H612.717V247.512H608.861V246.424ZM608.253 246.424H609.357V253.352H608.253V246.424ZM621.917 245.16V246.376H625.197V245.16H621.917ZM621.917 243.112V244.312H625.197V243.112H621.917ZM620.845 242.248H626.317V247.272H620.845V242.248ZM619.885 248.456H627.133V249.384H619.885V248.456ZM627.101 242.296H634.397V243.288H627.101V242.296ZM623.133 248.76H624.173V254.856L623.133 254.232V248.76ZM623.613 251.112H626.829V252.024H623.613V251.112ZM630.157 242.632L631.373 242.872C631.053 243.704 630.717 244.6 630.429 245.208L629.469 244.968C629.709 244.312 630.013 243.32 630.157 242.632ZM621.789 251.832C622.909 254.584 625.389 254.936 628.941 254.936C629.661 254.936 633.597 254.936 634.525 254.904C634.349 255.16 634.141 255.624 634.093 255.944H628.925C624.909 255.944 622.349 255.416 621.053 252.104L621.789 251.832ZM627.741 244.824H633.613V251.512H632.557V245.736H628.765V251.56H627.741V244.824ZM621.085 250.184L622.109 250.248C621.997 252.824 621.597 254.856 620.509 256.248C620.333 256.104 619.885 255.8 619.645 255.656C620.717 254.408 621.005 252.488 621.085 250.184ZM630.221 246.52H631.245C631.133 251.032 630.669 253.368 627.021 254.568C626.909 254.344 626.653 253.96 626.429 253.784C629.789 252.712 630.125 250.68 630.221 246.52ZM630.781 252.04L631.485 251.4C632.477 252.072 633.741 253.08 634.365 253.752L633.645 254.488C633.021 253.816 631.789 252.76 630.781 252.04ZM638.221 251.112C639.565 251.112 640.653 252.2 640.653 253.544C640.653 254.888 639.565 255.976 638.221 255.976C636.877 255.976 635.773 254.888 635.773 253.544C635.773 252.2 636.877 251.112 638.221 251.112ZM638.221 255.16C639.117 255.16 639.837 254.44 639.837 253.544C639.837 252.648 639.117 251.928 638.221 251.928C637.325 251.928 636.589 252.648 636.589 253.544C636.589 254.44 637.325 255.16 638.221 255.16Z" fill="#2D3342"/>
<defs>
<linearGradient id="paint0_linear_1389_7062" x1="476.953" y1="36" x2="553.981" y2="86.8747" gradientUnits="userSpaceOnUse">
<stop stop-color="#5955B3"/>
<stop offset="1" stop-color="#6563CE"/>
</linearGradient>
</defs>
</svg>
