<svg width="325" height="290" viewBox="0 0 325 290" fill="none" xmlns="http://www.w3.org/2000/svg">
<rect width="325" height="290" rx="5" fill="white"/>
<path d="M228.116 165.817C228.721 166.601 229.719 166.826 230.54 166.294C231.346 165.773 231.729 164.687 231.532 163.674M228.116 165.817C228.007 165.677 227.911 165.518 227.831 165.343C227.303 164.191 227.661 162.749 228.63 162.121C229.599 161.494 230.813 161.92 231.34 163.072C231.429 163.266 231.492 163.469 231.532 163.674M228.116 165.817C228.998 166.195 230.918 166.296 231.532 163.674" stroke="#5955B3" stroke-width="2" stroke-linecap="round"/>
<path d="M229.227 135.417C226.194 135.417 227.603 146.397 228.913 153.122C228.999 153.568 229.454 153.568 229.541 153.122C230.851 146.397 232.259 135.417 229.227 135.417Z" stroke="#5955B3" stroke-width="2" stroke-linecap="round"/>
<path d="M200.116 101.817C200.721 102.601 201.719 102.826 202.54 102.294C203.346 101.773 203.729 100.687 203.532 99.6739M200.116 101.817C200.007 101.677 199.911 101.518 199.831 101.343C199.303 100.191 199.661 98.7486 200.63 98.1215C201.599 97.4944 202.813 97.9201 203.34 99.0723C203.429 99.2664 203.492 99.4687 203.532 99.6739M200.116 101.817C200.998 102.195 202.918 102.296 203.532 99.6739" stroke="#EEBD40" stroke-width="2" stroke-linecap="round"/>
<path d="M201.227 71.4165C198.194 71.4165 199.603 82.3968 200.913 89.1224C200.999 89.5684 201.454 89.5684 201.541 89.1224C202.851 82.3968 204.259 71.4165 201.227 71.4165Z" stroke="#EEBD40" stroke-width="2" stroke-linecap="round"/>
<path d="M304.116 236.817C304.721 237.601 305.719 237.826 306.54 237.294C307.346 236.773 307.729 235.687 307.532 234.674M304.116 236.817C304.007 236.677 303.911 236.518 303.831 236.343C303.303 235.191 303.661 233.749 304.63 233.121C305.599 232.494 306.813 232.92 307.34 234.072C307.429 234.266 307.492 234.469 307.532 234.674M304.116 236.817C304.998 237.195 306.918 237.296 307.532 234.674" stroke="#EEBD40" stroke-width="2" stroke-linecap="round"/>
<path d="M305.227 206.417C302.194 206.417 303.603 217.397 304.913 224.122C304.999 224.568 305.454 224.568 305.541 224.122C306.851 217.397 308.259 206.417 305.227 206.417Z" stroke="#EEBD40" stroke-width="2" stroke-linecap="round"/>
<path opacity="0.2" fill-rule="evenodd" clip-rule="evenodd" d="M324.665 269.81C324.613 280.783 315.724 289.668 304.75 289.713H171.145C177.237 275.753 202.684 247.832 255.738 247.832C308.791 247.832 323.794 226.116 324.665 215.258V269.81Z" fill="#89AFFF"/>
<path opacity="0.2" fill-rule="evenodd" clip-rule="evenodd" d="M149.339 0C147.452 10.5057 135.894 40.0486 88.2783 53.4492C42.0804 66.4509 11.6465 61.9796 0.32926 57.7773L0.329256 20C0.329255 8.95432 9.28352 1.09491e-05 20.3292 1.00855e-05L149.339 0Z" fill="#89AFFF"/>
<path d="M21.5366 48.9141V31.4595H28.5252C29.8093 31.4595 30.8803 31.6499 31.7383 32.0305C32.5962 32.4112 33.2411 32.9396 33.6729 33.6158C34.1048 34.2862 34.3207 35.0589 34.3207 35.9339C34.3207 36.6158 34.1843 37.2152 33.9116 37.7322C33.6389 38.2436 33.2639 38.6641 32.7866 38.9936C32.315 39.3175 31.7752 39.5476 31.1673 39.6839V39.8544C31.832 39.8828 32.4542 40.0703 33.0337 40.4169C33.619 40.7635 34.0934 41.2493 34.457 41.8743C34.8207 42.4936 35.0025 43.2322 35.0025 44.0902C35.0025 45.0163 34.7724 45.843 34.3121 46.5703C33.8576 47.2919 33.1843 47.8629 32.2923 48.2834C31.4002 48.7038 30.3008 48.9141 28.994 48.9141H21.5366ZM25.2269 45.897H28.2354C29.2638 45.897 30.0138 45.701 30.4854 45.3089C30.957 44.9112 31.1928 44.3828 31.1928 43.7237C31.1928 43.2408 31.0763 42.8146 30.8434 42.4453C30.6104 42.076 30.2781 41.7862 29.8462 41.576C29.4201 41.3658 28.9116 41.2607 28.3207 41.2607H25.2269V45.897ZM25.2269 38.7635H27.9627C28.4684 38.7635 28.9173 38.6754 29.3093 38.4993C29.707 38.3175 30.0195 38.0618 30.2468 37.7322C30.4798 37.4027 30.5962 37.0078 30.5962 36.5476C30.5962 35.9169 30.3718 35.4084 29.9229 35.022C29.4798 34.6357 28.8491 34.4425 28.0309 34.4425H25.2269V38.7635ZM41.0685 49.1612C40.2333 49.1612 39.489 49.0163 38.8356 48.7266C38.1822 48.4311 37.6651 47.9964 37.2844 47.4226C36.9094 46.843 36.7219 46.1214 36.7219 45.2578C36.7219 44.5305 36.8555 43.9197 37.1225 43.4254C37.3896 42.9311 37.7532 42.5334 38.2134 42.2322C38.6737 41.9311 39.1964 41.7038 39.7816 41.5504C40.3725 41.397 40.9918 41.2891 41.6396 41.2266C42.4009 41.147 43.0146 41.0732 43.4805 41.005C43.9464 40.9311 44.2844 40.8232 44.4947 40.6811C44.7049 40.5391 44.81 40.3288 44.81 40.0504V39.9993C44.81 39.4595 44.6396 39.0419 44.2987 38.7464C43.9634 38.451 43.4862 38.3033 42.8668 38.3033C42.2134 38.3033 41.6935 38.4482 41.3072 38.7379C40.9208 39.022 40.6651 39.38 40.5401 39.8118L37.1822 39.5391C37.3526 38.7436 37.6879 38.0561 38.1879 37.4766C38.6879 36.8913 39.3327 36.4425 40.1225 36.13C40.918 35.8118 41.8384 35.6527 42.8839 35.6527C43.6112 35.6527 44.3072 35.7379 44.9719 35.9084C45.6424 36.0788 46.2362 36.343 46.7532 36.701C47.2759 37.0589 47.6879 37.5192 47.989 38.0817C48.2901 38.6385 48.4407 39.3061 48.4407 40.0845V48.9141H44.9975V47.0987H44.8952C44.685 47.5078 44.4038 47.8686 44.0515 48.1811C43.6992 48.4879 43.2759 48.7294 42.7816 48.9055C42.2873 49.076 41.7163 49.1612 41.0685 49.1612ZM42.1083 46.6555C42.6424 46.6555 43.114 46.5504 43.5231 46.3402C43.9322 46.1243 44.2532 45.8345 44.4862 45.4709C44.7191 45.1072 44.8356 44.6953 44.8356 44.2351V42.8459C44.7219 42.9197 44.5657 42.9879 44.3668 43.0504C44.1737 43.1072 43.9549 43.1612 43.7106 43.2124C43.4663 43.2578 43.2219 43.3004 42.9776 43.3402C42.7333 43.3743 42.5117 43.4055 42.3129 43.4339C41.8867 43.4964 41.5146 43.5959 41.1964 43.7322C40.8782 43.8686 40.631 44.0533 40.4549 44.2862C40.2788 44.5135 40.1907 44.7976 40.1907 45.1385C40.1907 45.6328 40.3697 46.0107 40.7276 46.272C41.0913 46.5277 41.5515 46.6555 42.1083 46.6555ZM50.4052 48.9141L54.9819 42.1044L50.4308 35.8232H54.5728L57.9734 40.9453H58.5359V35.8232H62.1665V40.9453H62.712L66.1126 35.8232H70.2546L65.712 42.1044L70.2802 48.9141H66.0444L62.6779 43.8004H62.1665V48.9141H58.5359V43.8004H58.0245L54.641 48.9141H50.4052ZM81.4386 40.9197V43.7749H74.6033V40.9197H81.4386ZM75.7965 35.8232V48.9141H72.3278V35.8232H75.7965ZM83.7141 35.8232V48.9141H80.271V35.8232H83.7141ZM92.4457 49.1697C91.1218 49.1697 89.9769 48.8885 89.011 48.326C88.0508 47.7578 87.3093 46.968 86.7866 45.9567C86.2638 44.9396 86.0025 43.7607 86.0025 42.4197C86.0025 41.0675 86.2638 39.8857 86.7866 38.8743C87.3093 37.8572 88.0508 37.0675 89.011 36.505C89.9769 35.9368 91.1218 35.6527 92.4457 35.6527C93.7695 35.6527 94.9116 35.9368 95.8718 36.505C96.8377 37.0675 97.582 37.8572 98.1048 38.8743C98.6275 39.8857 98.8889 41.0675 98.8889 42.4197C98.8889 43.7607 98.6275 44.9396 98.1048 45.9567C97.582 46.968 96.8377 47.7578 95.8718 48.326C94.9116 48.8885 93.7695 49.1697 92.4457 49.1697ZM92.4627 46.3572C93.065 46.3572 93.5678 46.1868 93.9712 45.8459C94.3746 45.4993 94.6786 45.0277 94.8832 44.4311C95.0934 43.8345 95.1985 43.1555 95.1985 42.3942C95.1985 41.6328 95.0934 40.9538 94.8832 40.3572C94.6786 39.7607 94.3746 39.2891 93.9712 38.9425C93.5678 38.5959 93.065 38.4226 92.4627 38.4226C91.8548 38.4226 91.3434 38.5959 90.9286 38.9425C90.5195 39.2891 90.2099 39.7607 89.9996 40.3572C89.7951 40.9538 89.6928 41.6328 89.6928 42.3942C89.6928 43.1555 89.7951 43.8345 89.9996 44.4311C90.2099 45.0277 90.5195 45.4993 90.9286 45.8459C91.3434 46.1868 91.8548 46.3572 92.4627 46.3572ZM106.804 48.9141V35.8232H118.25V48.9141H114.782V38.6783H110.23V48.9141H106.804ZM121.148 53.8232V35.8232H124.728V38.022H124.89C125.049 37.6697 125.279 37.3118 125.58 36.9482C125.887 36.5788 126.284 36.272 126.773 36.0277C127.267 35.7777 127.881 35.6527 128.614 35.6527C129.569 35.6527 130.449 35.9027 131.256 36.4027C132.063 36.897 132.708 37.6442 133.191 38.6442C133.674 39.6385 133.915 40.8857 133.915 42.3857C133.915 43.8459 133.679 45.0788 133.208 46.0845C132.742 47.0845 132.105 47.843 131.299 48.3601C130.498 48.8714 129.6 49.1271 128.605 49.1271C127.901 49.1271 127.301 49.0107 126.807 48.7777C126.319 48.5447 125.918 48.2521 125.605 47.8999C125.293 47.5419 125.054 47.1811 124.89 46.8175H124.779V53.8232H121.148ZM124.702 42.3686C124.702 43.147 124.81 43.826 125.026 44.4055C125.242 44.9851 125.554 45.4368 125.963 45.7607C126.373 46.0788 126.87 46.2379 127.455 46.2379C128.046 46.2379 128.546 46.076 128.955 45.7521C129.364 45.4226 129.674 44.968 129.884 44.3885C130.1 43.8033 130.208 43.13 130.208 42.3686C130.208 41.6129 130.103 40.9482 129.892 40.3743C129.682 39.8004 129.373 39.3516 128.963 39.0277C128.554 38.7038 128.051 38.5419 127.455 38.5419C126.864 38.5419 126.364 38.6982 125.955 39.0107C125.551 39.3232 125.242 39.7663 125.026 40.3402C124.81 40.9141 124.702 41.5902 124.702 42.3686ZM139.804 44.1243L144.517 35.8232H148.097V48.9141H144.637V40.5874L139.941 48.9141H136.336V35.8232H139.804V44.1243ZM156.562 53.8232V35.8232H160.142V38.022H160.304C160.463 37.6697 160.693 37.3118 160.994 36.9482C161.301 36.5788 161.699 36.272 162.187 36.0277C162.681 35.7777 163.295 35.6527 164.028 35.6527C164.983 35.6527 165.863 35.9027 166.67 36.4027C167.477 36.897 168.122 37.6442 168.605 38.6442C169.088 39.6385 169.329 40.8857 169.329 42.3857C169.329 43.8459 169.093 45.0788 168.622 46.0845C168.156 47.0845 167.52 47.843 166.713 48.3601C165.912 48.8714 165.014 49.1271 164.02 49.1271C163.315 49.1271 162.716 49.0107 162.221 48.7777C161.733 48.5447 161.332 48.2521 161.02 47.8999C160.707 47.5419 160.468 47.1811 160.304 46.8175H160.193V53.8232H156.562ZM160.116 42.3686C160.116 43.147 160.224 43.826 160.44 44.4055C160.656 44.9851 160.968 45.4368 161.377 45.7607C161.787 46.0788 162.284 46.2379 162.869 46.2379C163.46 46.2379 163.96 46.076 164.369 45.7521C164.778 45.4226 165.088 44.968 165.298 44.3885C165.514 43.8033 165.622 43.13 165.622 42.3686C165.622 41.6129 165.517 40.9482 165.306 40.3743C165.096 39.8004 164.787 39.3516 164.377 39.0277C163.968 38.7038 163.466 38.5419 162.869 38.5419C162.278 38.5419 161.778 38.6982 161.369 39.0107C160.966 39.3232 160.656 39.7663 160.44 40.3402C160.224 40.9141 160.116 41.5902 160.116 42.3686ZM177.716 49.1697C176.369 49.1697 175.21 48.897 174.238 48.3516C173.272 47.8004 172.528 47.022 172.005 46.0163C171.483 45.005 171.221 43.8089 171.221 42.4283C171.221 41.0817 171.483 39.8999 172.005 38.8828C172.528 37.8658 173.264 37.0732 174.213 36.505C175.167 35.9368 176.287 35.6527 177.571 35.6527C178.434 35.6527 179.238 35.7919 179.983 36.0703C180.733 36.343 181.386 36.755 181.943 37.3061C182.505 37.8572 182.943 38.5504 183.255 39.3857C183.568 40.2152 183.724 41.1868 183.724 42.3004V43.2976H172.67V41.0476H180.306C180.306 40.5249 180.193 40.0618 179.966 39.6584C179.738 39.255 179.423 38.9396 179.02 38.7124C178.622 38.4794 178.159 38.3629 177.63 38.3629C177.079 38.3629 176.591 38.4908 176.164 38.7464C175.744 38.9964 175.414 39.3345 175.176 39.7607C174.937 40.1811 174.815 40.6499 174.809 41.1669V43.3061C174.809 43.9538 174.929 44.5135 175.167 44.9851C175.412 45.4567 175.755 45.8203 176.199 46.076C176.642 46.3317 177.167 46.4595 177.775 46.4595C178.179 46.4595 178.548 46.4027 178.883 46.2891C179.218 46.1754 179.505 46.005 179.744 45.7777C179.983 45.5504 180.164 45.272 180.289 44.9425L183.647 45.1641C183.477 45.9709 183.127 46.6754 182.599 47.2777C182.076 47.8743 181.4 48.3402 180.571 48.6754C179.747 49.005 178.795 49.1697 177.716 49.1697ZM195.059 35.8232V38.6783H189.622V48.9141H186.093V35.8232H195.059ZM200.742 44.1243L205.455 35.8232H209.034V48.9141H205.574V40.5874L200.878 48.9141H197.273V35.8232H200.742V44.1243ZM217.86 49.1697C216.519 49.1697 215.365 48.8857 214.4 48.3175C213.439 47.7436 212.701 46.9482 212.184 45.9311C211.672 44.9141 211.417 43.7436 211.417 42.4197C211.417 41.0788 211.675 39.9027 212.192 38.8913C212.715 37.8743 213.456 37.0817 214.417 36.5135C215.377 35.9396 216.519 35.6527 217.843 35.6527C218.985 35.6527 219.985 35.8601 220.843 36.2749C221.701 36.6896 222.38 37.272 222.88 38.022C223.38 38.772 223.655 39.6527 223.706 40.6641H220.28C220.184 40.0107 219.928 39.4851 219.513 39.0874C219.104 38.6839 218.567 38.4822 217.902 38.4822C217.34 38.4822 216.848 38.6357 216.428 38.9425C216.013 39.2436 215.689 39.6839 215.456 40.2635C215.223 40.843 215.107 41.5447 215.107 42.3686C215.107 43.2038 215.221 43.9141 215.448 44.4993C215.681 45.0845 216.007 45.5305 216.428 45.8374C216.848 46.1442 217.34 46.2976 217.902 46.2976C218.317 46.2976 218.689 46.2124 219.019 46.0419C219.354 45.8714 219.63 45.6243 219.846 45.3004C220.067 44.9709 220.212 44.576 220.28 44.1158H223.706C223.65 45.1158 223.377 45.9964 222.888 46.7578C222.405 47.5135 221.738 48.1044 220.885 48.5305C220.033 48.9567 219.025 49.1697 217.86 49.1697ZM225.138 38.6783V35.8232H237.002V38.6783H232.783V48.9141H229.323V38.6783H225.138ZM239.203 53.8232V35.8232H242.782V38.022H242.944C243.103 37.6697 243.333 37.3118 243.635 36.9482C243.941 36.5788 244.339 36.272 244.828 36.0277C245.322 35.7777 245.936 35.6527 246.669 35.6527C247.623 35.6527 248.504 35.9027 249.311 36.4027C250.118 36.897 250.762 37.6442 251.245 38.6442C251.728 39.6385 251.97 40.8857 251.97 42.3857C251.97 43.8459 251.734 45.0788 251.262 46.0845C250.797 47.0845 250.16 47.843 249.353 48.3601C248.552 48.8714 247.654 49.1271 246.66 49.1271C245.956 49.1271 245.356 49.0107 244.862 48.7777C244.373 48.5447 243.973 48.2521 243.66 47.8999C243.348 47.5419 243.109 47.1811 242.944 46.8175H242.833V53.8232H239.203ZM242.757 42.3686C242.757 43.147 242.865 43.826 243.081 44.4055C243.297 44.9851 243.609 45.4368 244.018 45.7607C244.427 46.0788 244.924 46.2379 245.51 46.2379C246.1 46.2379 246.6 46.076 247.01 45.7521C247.419 45.4226 247.728 44.968 247.939 44.3885C248.154 43.8033 248.262 43.13 248.262 42.3686C248.262 41.6129 248.157 40.9482 247.947 40.3743C247.737 39.8004 247.427 39.3516 247.018 39.0277C246.609 38.7038 246.106 38.5419 245.51 38.5419C244.919 38.5419 244.419 38.6982 244.01 39.0107C243.606 39.3232 243.297 39.7663 243.081 40.3402C242.865 40.9141 242.757 41.5902 242.757 42.3686ZM258.123 49.1612C257.288 49.1612 256.544 49.0163 255.89 48.7266C255.237 48.4311 254.72 47.9964 254.339 47.4226C253.964 46.843 253.777 46.1214 253.777 45.2578C253.777 44.5305 253.91 43.9197 254.177 43.4254C254.444 42.9311 254.808 42.5334 255.268 42.2322C255.728 41.9311 256.251 41.7038 256.836 41.5504C257.427 41.397 258.047 41.2891 258.694 41.2266C259.456 41.147 260.069 41.0732 260.535 41.005C261.001 40.9311 261.339 40.8232 261.549 40.6811C261.76 40.5391 261.865 40.3288 261.865 40.0504V39.9993C261.865 39.4595 261.694 39.0419 261.353 38.7464C261.018 38.451 260.541 38.3033 259.922 38.3033C259.268 38.3033 258.748 38.4482 258.362 38.7379C257.975 39.022 257.72 39.38 257.595 39.8118L254.237 39.5391C254.407 38.7436 254.743 38.0561 255.243 37.4766C255.743 36.8913 256.387 36.4425 257.177 36.13C257.973 35.8118 258.893 35.6527 259.939 35.6527C260.666 35.6527 261.362 35.7379 262.027 35.9084C262.697 36.0788 263.291 36.343 263.808 36.701C264.331 37.0589 264.743 37.5192 265.044 38.0817C265.345 38.6385 265.495 39.3061 265.495 40.0845V48.9141H262.052V47.0987H261.95C261.74 47.5078 261.458 47.8686 261.106 48.1811C260.754 48.4879 260.331 48.7294 259.836 48.9055C259.342 49.076 258.771 49.1612 258.123 49.1612ZM259.163 46.6555C259.697 46.6555 260.169 46.5504 260.578 46.3402C260.987 46.1243 261.308 45.8345 261.541 45.4709C261.774 45.1072 261.89 44.6953 261.89 44.2351V42.8459C261.777 42.9197 261.62 42.9879 261.422 43.0504C261.228 43.1072 261.01 43.1612 260.765 43.2124C260.521 43.2578 260.277 43.3004 260.032 43.3402C259.788 43.3743 259.566 43.4055 259.368 43.4339C258.941 43.4964 258.569 43.5959 258.251 43.7322C257.933 43.8686 257.686 44.0533 257.51 44.2862C257.333 44.5135 257.245 44.7976 257.245 45.1385C257.245 45.6328 257.424 46.0107 257.782 46.272C258.146 46.5277 258.606 46.6555 259.163 46.6555ZM279.758 35.8232V46.4084H281.846V53.1243H278.318V48.9141H268.312V35.8232H271.781V46.0589H276.332V35.8232H279.758ZM287.554 44.1243L292.267 35.8232H295.847V48.9141H292.387V40.5874L287.691 48.9141H284.086V35.8232H287.554V44.1243ZM302.226 44.1243L306.939 35.8232H310.519V48.9141H307.059V40.5874L302.363 48.9141H298.757V35.8232H302.226V44.1243Z" fill="url(#paint0_linear_957_7471)"/>
<path d="M25.1985 104V93.0909H26.8445V97.8317H32.283V93.0909H33.9343V104H32.283V99.2433H26.8445V104H25.1985ZM39.7298 104.165C38.9237 104.165 38.2294 103.993 37.647 103.648C37.0682 103.3 36.6207 102.812 36.3047 102.184C35.9922 101.551 35.8359 100.811 35.8359 99.9624C35.8359 99.1243 35.9922 98.3857 36.3047 97.7464C36.6207 97.1072 37.0611 96.6083 37.6257 96.2496C38.1939 95.891 38.858 95.7116 39.6179 95.7116C40.0795 95.7116 40.527 95.788 40.9602 95.9407C41.3935 96.0934 41.7823 96.3331 42.1268 96.6598C42.4712 96.9865 42.7429 97.4109 42.9418 97.9329C43.1406 98.4513 43.2401 99.0817 43.2401 99.8239V100.388H36.7362V99.1953H41.6793C41.6793 98.7763 41.5941 98.4052 41.4237 98.082C41.2532 97.7553 41.0135 97.4979 40.7045 97.3097C40.3991 97.1214 40.0405 97.0273 39.6286 97.0273C39.1811 97.0273 38.7905 97.1374 38.4567 97.3576C38.1264 97.5742 37.8707 97.8583 37.6896 98.2099C37.5121 98.5579 37.4233 98.9361 37.4233 99.3445V100.277C37.4233 100.824 37.5192 101.289 37.7109 101.672C37.9062 102.056 38.1779 102.349 38.5259 102.551C38.8739 102.75 39.2805 102.849 39.7457 102.849C40.0476 102.849 40.3228 102.807 40.5714 102.722C40.82 102.633 41.0348 102.501 41.2159 102.327C41.397 102.153 41.5355 101.939 41.6314 101.683L43.1388 101.955C43.0181 102.398 42.8015 102.787 42.489 103.121C42.18 103.451 41.7912 103.709 41.3224 103.893C40.8572 104.075 40.3263 104.165 39.7298 104.165ZM48.9769 104V95.8182H52.37C53.2933 95.8182 54.0249 96.0153 54.5646 96.4094C55.1044 96.8001 55.3743 97.331 55.3743 98.0021C55.3743 98.4815 55.2216 98.8615 54.9162 99.142C54.6108 99.4226 54.206 99.6108 53.7017 99.7067C54.0675 99.7493 54.4031 99.8594 54.7085 100.037C55.0138 100.211 55.2589 100.445 55.4435 100.74C55.6317 101.035 55.7259 101.386 55.7259 101.795C55.7259 102.228 55.614 102.612 55.3903 102.945C55.1665 103.276 54.8416 103.535 54.4155 103.723C53.9929 103.908 53.4833 104 52.8867 104H48.9769ZM50.4737 102.668H52.8867C53.2809 102.668 53.5898 102.574 53.8136 102.386C54.0373 102.198 54.1491 101.942 54.1491 101.619C54.1491 101.239 54.0373 100.941 53.8136 100.724C53.5898 100.504 53.2809 100.394 52.8867 100.394H50.4737V102.668ZM50.4737 99.2273H52.386C52.6843 99.2273 52.94 99.1847 53.1531 99.0994C53.3697 99.0142 53.5348 98.8935 53.6484 98.7372C53.7656 98.5774 53.8242 98.3892 53.8242 98.1726C53.8242 97.8565 53.6946 97.6097 53.4354 97.4322C53.1761 97.2546 52.821 97.1658 52.37 97.1658H50.4737V99.2273ZM59.854 104.181C59.3356 104.181 58.8668 104.085 58.4478 103.893C58.0288 103.698 57.6967 103.416 57.4517 103.047C57.2102 102.677 57.0895 102.224 57.0895 101.688C57.0895 101.227 57.1783 100.847 57.3558 100.548C57.5334 100.25 57.7731 100.014 58.0749 99.8398C58.3768 99.6658 58.7141 99.5344 59.087 99.4457C59.4599 99.3569 59.8398 99.2894 60.2269 99.2433C60.717 99.1864 61.1147 99.1403 61.4201 99.1048C61.7255 99.0657 61.9474 99.0036 62.0859 98.9183C62.2244 98.8331 62.2937 98.6946 62.2937 98.5028V98.4656C62.2937 98.0004 62.1623 97.6399 61.8995 97.3842C61.6403 97.1286 61.2532 97.0007 60.7383 97.0007C60.2021 97.0007 59.7795 97.1197 59.4705 97.3576C59.1651 97.592 58.9538 97.853 58.8366 98.1406L57.3398 97.7997C57.5174 97.3026 57.7766 96.9013 58.1175 96.5959C58.462 96.2869 58.858 96.0632 59.3054 95.9247C59.7528 95.7827 60.2234 95.7116 60.717 95.7116C61.0437 95.7116 61.3899 95.7507 61.7557 95.8288C62.125 95.9034 62.4695 96.0419 62.7891 96.2443C63.1122 96.4467 63.3768 96.7362 63.5827 97.1126C63.7887 97.4854 63.8917 97.9702 63.8917 98.5668V104H62.3363V102.881H62.2724C62.1694 103.087 62.0149 103.29 61.8089 103.489C61.603 103.687 61.3384 103.853 61.0153 103.984C60.6921 104.115 60.305 104.181 59.854 104.181ZM60.2003 102.903C60.6406 102.903 61.017 102.816 61.3295 102.642C61.6456 102.468 61.8853 102.24 62.0487 101.96C62.2156 101.676 62.299 101.372 62.299 101.049V99.9943C62.2422 100.051 62.1321 100.104 61.9688 100.154C61.8089 100.2 61.6261 100.241 61.4201 100.277C61.2141 100.309 61.0135 100.339 60.8182 100.367C60.6229 100.392 60.4595 100.413 60.3281 100.431C60.0192 100.47 59.7369 100.536 59.4812 100.628C59.229 100.721 59.0266 100.854 58.8739 101.028C58.7248 101.198 58.6502 101.425 58.6502 101.71C58.6502 102.104 58.7958 102.402 59.087 102.604C59.3782 102.803 59.7493 102.903 60.2003 102.903ZM65.491 104L68.6604 99.8132L65.5283 95.8182H67.382L69.9122 99.2166H70.4822V95.8182H72.0748V99.2166H72.6288L75.159 95.8182H77.0127L73.8966 99.8132L77.05 104H75.159L72.6075 100.591H72.0748V104H70.4822V100.591H69.9495L67.382 104H65.491ZM84.2144 99.2219V100.602H79.7826V99.2219H84.2144ZM80.23 95.8182V104H78.6693V95.8182H80.23ZM85.3277 95.8182V104H83.7723V95.8182H85.3277ZM90.9047 104.165C90.1377 104.165 89.4683 103.989 88.8966 103.638C88.3248 103.286 87.8809 102.794 87.5649 102.162C87.2488 101.53 87.0908 100.792 87.0908 99.9464C87.0908 99.0977 87.2488 98.3555 87.5649 97.7198C87.8809 97.0842 88.3248 96.5906 88.8966 96.239C89.4683 95.8874 90.1377 95.7116 90.9047 95.7116C91.6718 95.7116 92.3412 95.8874 92.9129 96.239C93.4846 96.5906 93.9285 97.0842 94.2446 97.7198C94.5606 98.3555 94.7187 99.0977 94.7187 99.9464C94.7187 100.792 94.5606 101.53 94.2446 102.162C93.9285 102.794 93.4846 103.286 92.9129 103.638C92.3412 103.989 91.6718 104.165 90.9047 104.165ZM90.9101 102.828C91.4072 102.828 91.8192 102.697 92.1459 102.434C92.4726 102.171 92.714 101.821 92.8703 101.385C93.0301 100.948 93.11 100.467 93.11 99.9411C93.11 99.419 93.0301 98.9396 92.8703 98.5028C92.714 98.0625 92.4726 97.7092 92.1459 97.4428C91.8192 97.1765 91.4072 97.0433 90.9101 97.0433C90.4094 97.0433 89.9939 97.1765 89.6636 97.4428C89.3369 97.7092 89.0937 98.0625 88.9339 98.5028C88.7776 98.9396 88.6995 99.419 88.6995 99.9411C88.6995 100.467 88.7776 100.948 88.9339 101.385C89.0937 101.821 89.3369 102.171 89.6636 102.434C89.9939 102.697 90.4094 102.828 90.9101 102.828ZM100.466 104V95.8182H102.059V99.2486H102.826L105.527 95.8182H107.497L104.328 99.7972L107.535 104H105.559L103.092 100.729H102.059V104H100.466ZM111.153 104.181C110.634 104.181 110.166 104.085 109.747 103.893C109.328 103.698 108.996 103.416 108.751 103.047C108.509 102.677 108.388 102.224 108.388 101.688C108.388 101.227 108.477 100.847 108.655 100.548C108.832 100.25 109.072 100.014 109.374 99.8398C109.676 99.6658 110.013 99.5344 110.386 99.4457C110.759 99.3569 111.139 99.2894 111.526 99.2433C112.016 99.1864 112.414 99.1403 112.719 99.1048C113.024 99.0657 113.246 99.0036 113.385 98.9183C113.523 98.8331 113.593 98.6946 113.593 98.5028V98.4656C113.593 98.0004 113.461 97.6399 113.198 97.3842C112.939 97.1286 112.552 97.0007 112.037 97.0007C111.501 97.0007 111.078 97.1197 110.769 97.3576C110.464 97.592 110.253 97.853 110.135 98.1406L108.639 97.7997C108.816 97.3026 109.075 96.9013 109.416 96.5959C109.761 96.2869 110.157 96.0632 110.604 95.9247C111.052 95.7827 111.522 95.7116 112.016 95.7116C112.343 95.7116 112.689 95.7507 113.055 95.8288C113.424 95.9034 113.768 96.0419 114.088 96.2443C114.411 96.4467 114.676 96.7362 114.882 97.1126C115.088 97.4854 115.191 97.9702 115.191 98.5668V104H113.635V102.881H113.571C113.468 103.087 113.314 103.29 113.108 103.489C112.902 103.687 112.637 103.853 112.314 103.984C111.991 104.115 111.604 104.181 111.153 104.181ZM111.499 102.903C111.939 102.903 112.316 102.816 112.628 102.642C112.944 102.468 113.184 102.24 113.347 101.96C113.514 101.676 113.598 101.372 113.598 101.049V99.9943C113.541 100.051 113.431 100.104 113.268 100.154C113.108 100.2 112.925 100.241 112.719 100.277C112.513 100.309 112.312 100.339 112.117 100.367C111.922 100.392 111.758 100.413 111.627 100.431C111.318 100.47 111.036 100.536 110.78 100.628C110.528 100.721 110.325 100.854 110.173 101.028C110.024 101.198 109.949 101.425 109.949 101.71C109.949 102.104 110.095 102.402 110.386 102.604C110.677 102.803 111.048 102.903 111.499 102.903ZM117.312 104V95.8182H118.905V99.2486H119.672L122.372 95.8182H124.343L121.174 99.7972L124.38 104H122.404L119.938 100.729H118.905V104H117.312ZM128.727 104.165C127.96 104.165 127.291 103.989 126.719 103.638C126.147 103.286 125.703 102.794 125.387 102.162C125.071 101.53 124.913 100.792 124.913 99.9464C124.913 99.0977 125.071 98.3555 125.387 97.7198C125.703 97.0842 126.147 96.5906 126.719 96.239C127.291 95.8874 127.96 95.7116 128.727 95.7116C129.494 95.7116 130.163 95.8874 130.735 96.239C131.307 96.5906 131.751 97.0842 132.067 97.7198C132.383 98.3555 132.541 99.0977 132.541 99.9464C132.541 100.792 132.383 101.53 132.067 102.162C131.751 102.794 131.307 103.286 130.735 103.638C130.163 103.989 129.494 104.165 128.727 104.165ZM128.732 102.828C129.229 102.828 129.641 102.697 129.968 102.434C130.295 102.171 130.536 101.821 130.693 101.385C130.852 100.948 130.932 100.467 130.932 99.9411C130.932 99.419 130.852 98.9396 130.693 98.5028C130.536 98.0625 130.295 97.7092 129.968 97.4428C129.641 97.1765 129.229 97.0433 128.732 97.0433C128.232 97.0433 127.816 97.1765 127.486 97.4428C127.159 97.7092 126.916 98.0625 126.756 98.5028C126.6 98.9396 126.522 99.419 126.522 99.9411C126.522 100.467 126.6 100.948 126.756 101.385C126.916 101.821 127.159 102.171 127.486 102.434C127.816 102.697 128.232 102.828 128.732 102.828ZM135.879 101.768L139.486 95.8182H141.201V104H139.64V98.0447L136.05 104H134.319V95.8182H135.879V101.768ZM138.804 93.0483H140.114C140.114 93.6484 139.901 94.1367 139.475 94.5131C139.052 94.886 138.481 95.0724 137.76 95.0724C137.042 95.0724 136.472 94.886 136.05 94.5131C135.627 94.1367 135.416 93.6484 135.416 93.0483H136.721C136.721 93.3146 136.799 93.5508 136.955 93.7567C137.112 93.9592 137.38 94.0604 137.76 94.0604C138.133 94.0604 138.399 93.9592 138.559 93.7567C138.722 93.5543 138.804 93.3182 138.804 93.0483ZM146.667 104L146.662 102.62H146.955C147.182 102.62 147.372 102.572 147.525 102.477C147.681 102.377 147.809 102.21 147.908 101.976C148.008 101.741 148.084 101.418 148.138 101.006C148.191 100.591 148.23 100.069 148.255 99.4403L148.399 95.8182H154.109V104H152.548V97.1925H149.874L149.746 99.973C149.714 100.648 149.645 101.237 149.538 101.741C149.435 102.246 149.285 102.667 149.086 103.004C148.887 103.338 148.631 103.588 148.319 103.755C148.006 103.918 147.626 104 147.179 104H146.667ZM159.679 104.165C158.912 104.165 158.243 103.989 157.671 103.638C157.099 103.286 156.655 102.794 156.339 102.162C156.023 101.53 155.865 100.792 155.865 99.9464C155.865 99.0977 156.023 98.3555 156.339 97.7198C156.655 97.0842 157.099 96.5906 157.671 96.239C158.243 95.8874 158.912 95.7116 159.679 95.7116C160.446 95.7116 161.116 95.8874 161.687 96.239C162.259 96.5906 162.703 97.0842 163.019 97.7198C163.335 98.3555 163.493 99.0977 163.493 99.9464C163.493 100.792 163.335 101.53 163.019 102.162C162.703 102.794 162.259 103.286 161.687 103.638C161.116 103.989 160.446 104.165 159.679 104.165ZM159.684 102.828C160.182 102.828 160.594 102.697 160.92 102.434C161.247 102.171 161.488 101.821 161.645 101.385C161.805 100.948 161.884 100.467 161.884 99.9411C161.884 99.419 161.805 98.9396 161.645 98.5028C161.488 98.0625 161.247 97.7092 160.92 97.4428C160.594 97.1765 160.182 97.0433 159.684 97.0433C159.184 97.0433 158.768 97.1765 158.438 97.4428C158.111 97.7092 157.868 98.0625 157.708 98.5028C157.552 98.9396 157.474 99.419 157.474 99.9411C157.474 100.467 157.552 100.948 157.708 101.385C157.868 101.821 158.111 102.171 158.438 102.434C158.768 102.697 159.184 102.828 159.684 102.828ZM170.502 95.8182V97.1925H166.842V104H165.271V95.8182H170.502ZM173.746 101.768L177.352 95.8182H179.067V104H177.506V98.0447L173.916 104H172.185V95.8182H173.746V101.768ZM186.753 99.2219V100.602H182.322V99.2219H186.753ZM182.769 95.8182V104H181.208V95.8182H182.769ZM187.867 95.8182V104H186.311V95.8182H187.867Z" fill="#EEBD40"/>
<path d="M44.1985 140.091H45.8285V148.102H45.9297L51.4801 140.091H53.0036V151H51.3576V142.999H51.2564L45.7166 151H44.1985V140.091ZM59.8683 149.029L62.5104 142.818H63.8847L60.4596 151H59.2771L55.9213 142.818H57.2796L59.8683 149.029ZM56.8374 142.818V151H55.2767V142.818H56.8374ZM62.9419 151V142.818H64.4919V151H62.9419ZM71.4939 151V144.176H69.5336C69.0684 144.176 68.7062 144.285 68.447 144.501C68.1878 144.718 68.0581 145.002 68.0581 145.354C68.0581 145.702 68.1771 145.982 68.415 146.195C68.6565 146.405 68.9939 146.51 69.4271 146.51H71.9573V147.799H69.4271C68.8234 147.799 68.3014 147.699 67.8611 147.5C67.4243 147.298 67.0869 147.012 66.849 146.643C66.6146 146.273 66.4974 145.837 66.4974 145.332C66.4974 144.817 66.6182 144.374 66.8596 144.001C67.1047 143.624 67.4545 143.333 67.909 143.127C68.3671 142.921 68.9086 142.818 69.5336 142.818H72.9907V151H71.4939ZM66.1246 151L68.431 146.866H70.061L67.7545 151H66.1246ZM80.6412 148.768L84.2473 142.818H85.9625V151H84.4018V145.045L80.8116 151H79.0804V142.818H80.6412V148.768ZM95.5945 153.786V140.091H97.1872V153.786H95.5945ZM95.5945 151.165C95.0157 151.165 94.4884 151.066 94.0125 150.867C93.5367 150.664 93.1265 150.377 92.782 150.004C92.4376 149.631 92.1713 149.185 91.983 148.667C91.7984 148.148 91.7061 147.575 91.7061 146.946C91.7061 146.311 91.7984 145.734 91.983 145.215C92.1713 144.697 92.4376 144.251 92.782 143.878C93.1265 143.505 93.5367 143.218 94.0125 143.015C94.4884 142.813 95.0157 142.712 95.5945 142.712H95.9887V151.165H95.5945ZM95.5945 149.823H95.8183V144.054H95.5945C95.211 144.054 94.8772 144.132 94.5931 144.288C94.309 144.441 94.0729 144.652 93.8847 144.922C93.6965 145.189 93.5544 145.496 93.4585 145.844C93.3662 146.192 93.32 146.559 93.32 146.946C93.32 147.465 93.4035 147.942 93.5704 148.379C93.7373 148.812 93.9894 149.162 94.3268 149.429C94.6642 149.691 95.0867 149.823 95.5945 149.823ZM97.1872 151.165H96.7877V142.712H97.1872C97.7661 142.712 98.2934 142.813 98.7693 143.015C99.2451 143.218 99.6535 143.505 99.9944 143.878C100.339 144.251 100.603 144.697 100.788 145.215C100.976 145.734 101.07 146.311 101.07 146.946C101.07 147.575 100.976 148.148 100.788 148.667C100.603 149.185 100.339 149.631 99.9944 150.004C99.6535 150.377 99.2451 150.664 98.7693 150.867C98.2934 151.066 97.7661 151.165 97.1872 151.165ZM97.1872 149.823C97.5708 149.823 97.9046 149.748 98.1887 149.599C98.4727 149.446 98.7089 149.237 98.8971 148.971C99.0853 148.701 99.2256 148.393 99.3179 148.049C99.4102 147.701 99.4564 147.333 99.4564 146.946C99.4564 146.431 99.373 145.956 99.2061 145.519C99.0427 145.078 98.7923 144.725 98.455 144.459C98.1176 144.189 97.695 144.054 97.1872 144.054H96.9582V149.823H97.1872ZM105.221 151.181C104.703 151.181 104.234 151.085 103.815 150.893C103.396 150.698 103.064 150.416 102.819 150.047C102.577 149.677 102.457 149.224 102.457 148.688C102.457 148.227 102.545 147.847 102.723 147.548C102.901 147.25 103.14 147.014 103.442 146.84C103.744 146.666 104.081 146.534 104.454 146.446C104.827 146.357 105.207 146.289 105.594 146.243C106.084 146.186 106.482 146.14 106.787 146.105C107.093 146.066 107.315 146.004 107.453 145.918C107.592 145.833 107.661 145.695 107.661 145.503V145.466C107.661 145 107.529 144.64 107.267 144.384C107.007 144.129 106.62 144.001 106.105 144.001C105.569 144.001 105.147 144.12 104.838 144.358C104.532 144.592 104.321 144.853 104.204 145.141L102.707 144.8C102.885 144.303 103.144 143.901 103.485 143.596C103.829 143.287 104.225 143.063 104.673 142.925C105.12 142.783 105.591 142.712 106.084 142.712C106.411 142.712 106.757 142.751 107.123 142.829C107.492 142.903 107.837 143.042 108.156 143.244C108.479 143.447 108.744 143.736 108.95 144.113C109.156 144.485 109.259 144.97 109.259 145.567V151H107.703V149.881H107.64C107.537 150.087 107.382 150.29 107.176 150.489C106.97 150.687 106.706 150.853 106.382 150.984C106.059 151.115 105.672 151.181 105.221 151.181ZM105.567 149.903C106.008 149.903 106.384 149.816 106.697 149.642C107.013 149.468 107.252 149.24 107.416 148.96C107.583 148.676 107.666 148.372 107.666 148.049V146.994C107.609 147.051 107.499 147.104 107.336 147.154C107.176 147.2 106.993 147.241 106.787 147.277C106.581 147.309 106.381 147.339 106.185 147.367C105.99 147.392 105.827 147.413 105.695 147.431C105.386 147.47 105.104 147.536 104.848 147.628C104.596 147.721 104.394 147.854 104.241 148.028C104.092 148.198 104.017 148.425 104.017 148.71C104.017 149.104 104.163 149.402 104.454 149.604C104.745 149.803 105.116 149.903 105.567 149.903ZM115.972 149.029L118.614 142.818H119.988L116.563 151H115.381L112.025 142.818H113.383L115.972 149.029ZM112.941 142.818V151H111.38V142.818H112.941ZM119.045 151V142.818H120.595V151H119.045ZM124.279 148.768L127.885 142.818H129.6V151H128.04V145.045L124.449 151H122.718V142.818H124.279V148.768ZM131.097 151L131.092 149.62H131.385C131.612 149.62 131.802 149.572 131.955 149.477C132.111 149.377 132.239 149.21 132.338 148.976C132.438 148.741 132.514 148.418 132.567 148.006C132.62 147.591 132.66 147.069 132.684 146.44L132.828 142.818H138.538V151H136.978V144.192H134.304L134.176 146.973C134.144 147.648 134.075 148.237 133.968 148.741C133.865 149.246 133.714 149.667 133.515 150.004C133.316 150.338 133.061 150.588 132.748 150.755C132.436 150.918 132.056 151 131.608 151H131.097ZM142.223 148.768L145.829 142.818H147.545V151H145.984V145.045L142.394 151H140.662V142.818H142.223V148.768ZM154.565 151V144.176H152.605C152.14 144.176 151.778 144.285 151.518 144.501C151.259 144.718 151.129 145.002 151.129 145.354C151.129 145.702 151.248 145.982 151.486 146.195C151.728 146.405 152.065 146.51 152.498 146.51H155.029V147.799H152.498C151.895 147.799 151.373 147.699 150.932 147.5C150.496 147.298 150.158 147.012 149.92 146.643C149.686 146.273 149.569 145.837 149.569 145.332C149.569 144.817 149.689 144.374 149.931 144.001C150.176 143.624 150.526 143.333 150.98 143.127C151.438 142.921 151.98 142.818 152.605 142.818H156.062V151H154.565ZM149.196 151L151.502 146.866H153.132L150.826 151H149.196ZM161.353 153.36V149.62H162.019C162.189 149.464 162.333 149.278 162.45 149.061C162.571 148.844 162.672 148.587 162.754 148.289C162.839 147.99 162.91 147.642 162.967 147.245C163.024 146.843 163.073 146.385 163.116 145.87L163.372 142.818H168.933V149.62H170.19V153.36H168.634V151H162.929V153.36H161.353ZM163.723 149.62H167.377V144.182H164.799L164.629 145.87C164.547 146.73 164.444 147.475 164.32 148.108C164.195 148.736 163.997 149.24 163.723 149.62ZM175.193 151.165C174.426 151.165 173.756 150.989 173.185 150.638C172.613 150.286 172.169 149.794 171.853 149.162C171.537 148.53 171.379 147.792 171.379 146.946C171.379 146.098 171.537 145.355 171.853 144.72C172.169 144.084 172.613 143.591 173.185 143.239C173.756 142.887 174.426 142.712 175.193 142.712C175.96 142.712 176.629 142.887 177.201 143.239C177.773 143.591 178.217 144.084 178.533 144.72C178.849 145.355 179.007 146.098 179.007 146.946C179.007 147.792 178.849 148.53 178.533 149.162C178.217 149.794 177.773 150.286 177.201 150.638C176.629 150.989 175.96 151.165 175.193 151.165ZM175.198 149.828C175.695 149.828 176.107 149.697 176.434 149.434C176.761 149.171 177.002 148.821 177.158 148.385C177.318 147.948 177.398 147.467 177.398 146.941C177.398 146.419 177.318 145.94 177.158 145.503C177.002 145.062 176.761 144.709 176.434 144.443C176.107 144.176 175.695 144.043 175.198 144.043C174.697 144.043 174.282 144.176 173.952 144.443C173.625 144.709 173.382 145.062 173.222 145.503C173.066 145.94 172.988 146.419 172.988 146.941C172.988 147.467 173.066 147.948 173.222 148.385C173.382 148.821 173.625 149.171 173.952 149.434C174.282 149.697 174.697 149.828 175.198 149.828ZM180.14 151L180.135 149.62H180.428C180.655 149.62 180.845 149.572 180.998 149.477C181.154 149.377 181.282 149.21 181.381 148.976C181.481 148.741 181.557 148.418 181.61 148.006C181.663 147.591 181.703 147.069 181.727 146.44L181.871 142.818H187.581V151H186.021V144.192H183.347L183.219 146.973C183.187 147.648 183.118 148.237 183.011 148.741C182.908 149.246 182.757 149.667 182.558 150.004C182.359 150.338 182.104 150.588 181.791 150.755C181.479 150.918 181.099 151 180.651 151H180.14ZM189.183 151L192.353 146.813L189.221 142.818H191.074L193.605 146.217H194.175V142.818H195.767V146.217H196.321L198.851 142.818H200.705L197.589 146.813L200.742 151H198.851L196.3 147.591H195.767V151H194.175V147.591H193.642L191.074 151H189.183ZM207.907 146.222V147.602H203.475V146.222H207.907ZM203.922 142.818V151H202.362V142.818H203.922ZM209.02 142.818V151H207.465V142.818H209.02ZM212.349 145.631H214.725C215.726 145.631 216.497 145.879 217.037 146.376C217.577 146.874 217.846 147.515 217.846 148.299C217.846 148.811 217.726 149.271 217.484 149.679C217.243 150.087 216.889 150.411 216.424 150.648C215.959 150.883 215.393 151 214.725 151H211.151V142.818H212.711V149.626H214.725C215.183 149.626 215.559 149.507 215.854 149.269C216.149 149.027 216.296 148.72 216.296 148.347C216.296 147.953 216.149 147.632 215.854 147.383C215.559 147.131 215.183 147.005 214.725 147.005H212.349V145.631ZM219.008 151V142.818H220.6V151H219.008ZM50.3828 156.771L51.0433 157.778C50.7983 158.002 50.5195 158.162 50.207 158.257C49.8981 158.35 49.5412 158.408 49.1364 158.433C48.7315 158.455 48.2681 158.474 47.7461 158.492C47.1566 158.51 46.6719 158.637 46.2919 158.875C45.9119 159.11 45.619 159.458 45.413 159.919C45.2106 160.377 45.0792 160.953 45.0188 161.645H45.12C45.3864 161.137 45.7557 160.757 46.228 160.505C46.7038 160.253 47.2383 160.127 47.8313 160.127C48.4918 160.127 49.0795 160.278 49.5945 160.58C50.1094 160.882 50.5142 161.324 50.8089 161.906C51.1072 162.485 51.2564 163.194 51.2564 164.032C51.2564 164.88 51.1001 165.614 50.7876 166.232C50.4787 166.849 50.0419 167.327 49.4773 167.664C48.9162 167.998 48.2539 168.165 47.4904 168.165C46.7269 168.165 46.0611 167.993 45.4929 167.648C44.9283 167.3 44.4897 166.786 44.1772 166.104C43.8683 165.422 43.7138 164.58 43.7138 163.579V162.769C43.7138 160.898 44.0476 159.49 44.7152 158.545C45.3828 157.6 46.3807 157.116 47.7088 157.091C48.1385 157.08 48.522 157.078 48.8594 157.086C49.1967 157.089 49.4915 157.073 49.7436 157.038C49.9993 156.999 50.2124 156.91 50.3828 156.771ZM47.4957 166.828C47.9396 166.828 48.3214 166.716 48.641 166.493C48.9641 166.265 49.2127 165.944 49.3867 165.528C49.5607 165.113 49.6477 164.623 49.6477 164.058C49.6477 163.504 49.5607 163.034 49.3867 162.647C49.2127 162.26 48.9641 161.965 48.641 161.762C48.3178 161.556 47.9308 161.453 47.4798 161.453C47.146 161.453 46.8477 161.512 46.5849 161.629C46.3221 161.743 46.0966 161.912 45.9084 162.135C45.7237 162.359 45.5799 162.632 45.4769 162.956C45.3775 163.275 45.3242 163.643 45.3171 164.058C45.3171 164.903 45.5107 165.576 45.8977 166.077C46.2884 166.578 46.821 166.828 47.4957 166.828ZM54.234 162.631H56.6097C57.6112 162.631 58.3817 162.879 58.9215 163.376C59.4613 163.874 59.7312 164.515 59.7312 165.299C59.7312 165.811 59.6104 166.271 59.369 166.679C59.1275 167.087 58.7741 167.411 58.3089 167.648C57.8438 167.883 57.2773 168 56.6097 168H53.0355V159.818H54.5962V166.626H56.6097C57.0678 166.626 57.4442 166.507 57.739 166.269C58.0337 166.027 58.1811 165.72 58.1811 165.347C58.1811 164.953 58.0337 164.632 57.739 164.383C57.4442 164.131 57.0678 164.005 56.6097 164.005H54.234V162.631ZM60.8924 168V159.818H62.4851V168H60.8924ZM64.1643 161.192V159.818H71.0677V161.192H68.3991V168H66.8437V161.192H64.1643ZM73.9508 162.631H76.3265C77.3279 162.631 78.0985 162.879 78.6383 163.376C79.1781 163.874 79.448 164.515 79.448 165.299C79.448 165.811 79.3272 166.271 79.0858 166.679C78.8443 167.087 78.4909 167.411 78.0257 167.648C77.5605 167.883 76.9941 168 76.3265 168H72.7523V159.818H74.313V166.626H76.3265C76.7846 166.626 77.161 166.507 77.4558 166.269C77.7505 166.027 77.8979 165.72 77.8979 165.347C77.8979 164.953 77.7505 164.632 77.4558 164.383C77.161 164.131 76.7846 164.005 76.3265 164.005H73.9508V162.631ZM85.2035 168V159.818H86.7962V163.249H87.5632L90.2638 159.818H92.2347L89.0653 163.797L92.272 168H90.2958L87.8295 164.729H86.7962V168H85.2035ZM95.8902 168.181C95.3717 168.181 94.903 168.085 94.4839 167.893C94.0649 167.698 93.7329 167.416 93.4878 167.047C93.2464 166.677 93.1256 166.224 93.1256 165.688C93.1256 165.227 93.2144 164.847 93.392 164.548C93.5695 164.25 93.8092 164.014 94.1111 163.84C94.4129 163.666 94.7503 163.534 95.1231 163.446C95.496 163.357 95.876 163.289 96.2631 163.243C96.7531 163.186 97.1508 163.14 97.4562 163.105C97.7616 163.066 97.9836 163.004 98.1221 162.918C98.2606 162.833 98.3298 162.695 98.3298 162.503V162.466C98.3298 162 98.1984 161.64 97.9356 161.384C97.6764 161.129 97.2893 161.001 96.7744 161.001C96.2382 161.001 95.8156 161.12 95.5067 161.358C95.2013 161.592 94.99 161.853 94.8728 162.141L93.376 161.8C93.5535 161.303 93.8128 160.901 94.1537 160.596C94.4981 160.287 94.8941 160.063 95.3415 159.925C95.789 159.783 96.2595 159.712 96.7531 159.712C97.0798 159.712 97.426 159.751 97.7918 159.829C98.1611 159.903 98.5056 160.042 98.8252 160.244C99.1483 160.447 99.4129 160.736 99.6189 161.113C99.8248 161.485 99.9278 161.97 99.9278 162.567V168H98.3724V166.881H98.3085C98.2055 167.087 98.051 167.29 97.8451 167.489C97.6391 167.687 97.3746 167.853 97.0514 167.984C96.7282 168.115 96.3412 168.181 95.8902 168.181ZM96.2364 166.903C96.6768 166.903 97.0532 166.816 97.3657 166.642C97.6817 166.468 97.9214 166.24 98.0848 165.96C98.2517 165.676 98.3351 165.372 98.3351 165.049V163.994C98.2783 164.051 98.1682 164.104 98.0049 164.154C97.8451 164.2 97.6622 164.241 97.4562 164.277C97.2503 164.309 97.0496 164.339 96.8543 164.367C96.659 164.392 96.4956 164.413 96.3643 164.431C96.0553 164.47 95.773 164.536 95.5173 164.628C95.2652 164.721 95.0628 164.854 94.9101 165.028C94.7609 165.198 94.6863 165.425 94.6863 165.71C94.6863 166.104 94.8319 166.402 95.1231 166.604C95.4143 166.803 95.7854 166.903 96.2364 166.903ZM102.049 168V159.818H103.642V163.249H104.409L107.11 159.818H109.08L105.911 163.797L109.118 168H107.142L104.675 164.729H103.642V168H102.049ZM114.325 168V159.818H117.718C118.641 159.818 119.373 160.015 119.912 160.409C120.452 160.8 120.722 161.331 120.722 162.002C120.722 162.482 120.569 162.862 120.264 163.142C119.958 163.423 119.554 163.611 119.049 163.707C119.415 163.749 119.751 163.859 120.056 164.037C120.362 164.211 120.607 164.445 120.791 164.74C120.979 165.035 121.074 165.386 121.074 165.795C121.074 166.228 120.962 166.612 120.738 166.945C120.514 167.276 120.189 167.535 119.763 167.723C119.341 167.908 118.831 168 118.234 168H114.325ZM115.821 166.668H118.234C118.629 166.668 118.938 166.574 119.161 166.386C119.385 166.198 119.497 165.942 119.497 165.619C119.497 165.239 119.385 164.941 119.161 164.724C118.938 164.504 118.629 164.394 118.234 164.394H115.821V166.668ZM115.821 163.227H117.734C118.032 163.227 118.288 163.185 118.501 163.099C118.717 163.014 118.882 162.893 118.996 162.737C119.113 162.577 119.172 162.389 119.172 162.173C119.172 161.857 119.042 161.61 118.783 161.432C118.524 161.255 118.169 161.166 117.718 161.166H115.821V163.227ZM126.79 168V159.818H133.465V168H131.904V161.192H128.34V168H126.79ZM137.975 168.181C137.457 168.181 136.988 168.085 136.569 167.893C136.15 167.698 135.818 167.416 135.573 167.047C135.331 166.677 135.211 166.224 135.211 165.688C135.211 165.227 135.299 164.847 135.477 164.548C135.654 164.25 135.894 164.014 136.196 163.84C136.498 163.666 136.835 163.534 137.208 163.446C137.581 163.357 137.961 163.289 138.348 163.243C138.838 163.186 139.236 163.14 139.541 163.105C139.847 163.066 140.069 163.004 140.207 162.918C140.346 162.833 140.415 162.695 140.415 162.503V162.466C140.415 162 140.283 161.64 140.021 161.384C139.761 161.129 139.374 161.001 138.859 161.001C138.323 161.001 137.901 161.12 137.592 161.358C137.286 161.592 137.075 161.853 136.958 162.141L135.461 161.8C135.638 161.303 135.898 160.901 136.239 160.596C136.583 160.287 136.979 160.063 137.426 159.925C137.874 159.783 138.344 159.712 138.838 159.712C139.165 159.712 139.511 159.751 139.877 159.829C140.246 159.903 140.591 160.042 140.91 160.244C141.233 160.447 141.498 160.736 141.704 161.113C141.91 161.485 142.013 161.97 142.013 162.567V168H140.457V166.881H140.393C140.29 167.087 140.136 167.29 139.93 167.489C139.724 167.687 139.46 167.853 139.136 167.984C138.813 168.115 138.426 168.181 137.975 168.181ZM138.321 166.903C138.762 166.903 139.138 166.816 139.451 166.642C139.767 166.468 140.006 166.24 140.17 165.96C140.337 165.676 140.42 165.372 140.42 165.049V163.994C140.363 164.051 140.253 164.104 140.09 164.154C139.93 164.2 139.747 164.241 139.541 164.277C139.335 164.309 139.135 164.339 138.939 164.367C138.744 164.392 138.581 164.413 138.449 164.431C138.14 164.47 137.858 164.536 137.602 164.628C137.35 164.721 137.148 164.854 136.995 165.028C136.846 165.198 136.771 165.425 136.771 165.71C136.771 166.104 136.917 166.402 137.208 166.604C137.499 166.803 137.87 166.903 138.321 166.903ZM147.581 168.165C146.789 168.165 146.107 167.986 145.535 167.627C144.967 167.265 144.53 166.766 144.225 166.13C143.919 165.495 143.767 164.767 143.767 163.946C143.767 163.115 143.923 162.382 144.235 161.746C144.548 161.107 144.988 160.608 145.556 160.25C146.125 159.891 146.794 159.712 147.565 159.712C148.186 159.712 148.74 159.827 149.226 160.058C149.713 160.285 150.105 160.605 150.404 161.017C150.706 161.429 150.885 161.91 150.942 162.46H149.392C149.306 162.077 149.111 161.746 148.806 161.469C148.504 161.192 148.099 161.054 147.591 161.054C147.147 161.054 146.758 161.171 146.425 161.406C146.094 161.636 145.837 161.967 145.652 162.396C145.468 162.822 145.375 163.327 145.375 163.909C145.375 164.506 145.466 165.021 145.647 165.454C145.828 165.887 146.084 166.223 146.414 166.461C146.748 166.699 147.14 166.817 147.591 166.817C147.893 166.817 148.166 166.762 148.411 166.652C148.66 166.539 148.868 166.377 149.035 166.168C149.205 165.958 149.324 165.706 149.392 165.411H150.942C150.885 165.94 150.713 166.413 150.425 166.828C150.137 167.244 149.752 167.57 149.269 167.808C148.79 168.046 148.227 168.165 147.581 168.165ZM152.645 168V159.818H159.319V168H157.759V161.192H154.195V168H152.645ZM164.895 168.165C164.128 168.165 163.459 167.989 162.887 167.638C162.315 167.286 161.871 166.794 161.555 166.162C161.239 165.53 161.081 164.792 161.081 163.946C161.081 163.098 161.239 162.355 161.555 161.72C161.871 161.084 162.315 160.591 162.887 160.239C163.459 159.887 164.128 159.712 164.895 159.712C165.662 159.712 166.331 159.887 166.903 160.239C167.475 160.591 167.919 161.084 168.235 161.72C168.551 162.355 168.709 163.098 168.709 163.946C168.709 164.792 168.551 165.53 168.235 166.162C167.919 166.794 167.475 167.286 166.903 167.638C166.331 167.989 165.662 168.165 164.895 168.165ZM164.9 166.828C165.397 166.828 165.809 166.697 166.136 166.434C166.463 166.171 166.704 165.821 166.861 165.385C167.02 164.948 167.1 164.467 167.1 163.941C167.1 163.419 167.02 162.94 166.861 162.503C166.704 162.062 166.463 161.709 166.136 161.443C165.809 161.176 165.397 161.043 164.9 161.043C164.4 161.043 163.984 161.176 163.654 161.443C163.327 161.709 163.084 162.062 162.924 162.503C162.768 162.94 162.69 163.419 162.69 163.941C162.69 164.467 162.768 164.948 162.924 165.385C163.084 165.821 163.327 166.171 163.654 166.434C163.984 166.697 164.4 166.828 164.9 166.828ZM170.487 171.068V159.818H172.042V161.145H172.175C172.268 160.974 172.401 160.777 172.575 160.553C172.749 160.33 172.99 160.134 173.299 159.967C173.608 159.797 174.017 159.712 174.524 159.712C175.185 159.712 175.774 159.879 176.293 160.212C176.811 160.546 177.218 161.027 177.513 161.656C177.811 162.284 177.96 163.041 177.96 163.925C177.96 164.809 177.813 165.567 177.518 166.2C177.223 166.828 176.818 167.313 176.303 167.654C175.789 167.991 175.201 168.16 174.54 168.16C174.043 168.16 173.637 168.076 173.32 167.909C173.008 167.743 172.763 167.547 172.585 167.324C172.408 167.1 172.271 166.901 172.175 166.727H172.079V171.068H170.487ZM172.047 163.909C172.047 164.484 172.131 164.989 172.298 165.422C172.465 165.855 172.706 166.194 173.022 166.439C173.338 166.681 173.725 166.801 174.183 166.801C174.659 166.801 175.057 166.675 175.377 166.423C175.696 166.168 175.938 165.821 176.101 165.385C176.268 164.948 176.351 164.456 176.351 163.909C176.351 163.369 176.27 162.885 176.106 162.455C175.947 162.025 175.705 161.686 175.382 161.438C175.062 161.189 174.663 161.065 174.183 161.065C173.722 161.065 173.331 161.184 173.012 161.422C172.695 161.659 172.456 161.991 172.292 162.418C172.129 162.844 172.047 163.341 172.047 163.909ZM178.759 161.192V159.818H185.662V161.192H182.994V168H181.438V161.192H178.759ZM190.492 168.165C189.686 168.165 188.992 167.993 188.41 167.648C187.831 167.3 187.383 166.812 187.067 166.184C186.755 165.551 186.599 164.811 186.599 163.962C186.599 163.124 186.755 162.386 187.067 161.746C187.383 161.107 187.824 160.608 188.388 160.25C188.957 159.891 189.621 159.712 190.381 159.712C190.842 159.712 191.29 159.788 191.723 159.941C192.156 160.093 192.545 160.333 192.889 160.66C193.234 160.987 193.506 161.411 193.704 161.933C193.903 162.451 194.003 163.082 194.003 163.824V164.388H187.499V163.195H192.442C192.442 162.776 192.357 162.405 192.186 162.082C192.016 161.755 191.776 161.498 191.467 161.31C191.162 161.121 190.803 161.027 190.391 161.027C189.944 161.027 189.553 161.137 189.219 161.358C188.889 161.574 188.633 161.858 188.452 162.21C188.275 162.558 188.186 162.936 188.186 163.344V164.277C188.186 164.824 188.282 165.289 188.474 165.672C188.669 166.056 188.941 166.349 189.289 166.551C189.637 166.75 190.043 166.849 190.508 166.849C190.81 166.849 191.085 166.807 191.334 166.722C191.583 166.633 191.797 166.501 191.979 166.327C192.16 166.153 192.298 165.939 192.394 165.683L193.902 165.955C193.781 166.398 193.564 166.787 193.252 167.121C192.943 167.451 192.554 167.709 192.085 167.893C191.62 168.075 191.089 168.165 190.492 168.165Z" fill="#5955B3"/>
<path d="M57.1985 222V211.091H58.8445V215.832H64.283V211.091H65.9343V222H64.283V217.243H58.8445V222H57.1985ZM71.7298 222.165C70.9237 222.165 70.2294 221.993 69.647 221.648C69.0682 221.3 68.6207 220.812 68.3047 220.184C67.9922 219.551 67.8359 218.811 67.8359 217.962C67.8359 217.124 67.9922 216.386 68.3047 215.746C68.6207 215.107 69.0611 214.608 69.6257 214.25C70.1939 213.891 70.858 213.712 71.6179 213.712C72.0795 213.712 72.527 213.788 72.9602 213.941C73.3935 214.093 73.7823 214.333 74.1268 214.66C74.4712 214.987 74.7429 215.411 74.9418 215.933C75.1406 216.451 75.2401 217.082 75.2401 217.824V218.388H68.7362V217.195H73.6793C73.6793 216.776 73.5941 216.405 73.4237 216.082C73.2532 215.755 73.0135 215.498 72.7045 215.31C72.3991 215.121 72.0405 215.027 71.6286 215.027C71.1811 215.027 70.7905 215.137 70.4567 215.358C70.1264 215.574 69.8707 215.858 69.6896 216.21C69.5121 216.558 69.4233 216.936 69.4233 217.344V218.277C69.4233 218.824 69.5192 219.289 69.7109 219.672C69.9062 220.056 70.1779 220.349 70.5259 220.551C70.8739 220.75 71.2805 220.849 71.7457 220.849C72.0476 220.849 72.3228 220.807 72.5714 220.722C72.82 220.633 73.0348 220.501 73.2159 220.327C73.397 220.153 73.5355 219.939 73.6314 219.683L75.1388 219.955C75.0181 220.398 74.8015 220.787 74.489 221.121C74.18 221.451 73.7912 221.709 73.3224 221.893C72.8572 222.075 72.3263 222.165 71.7298 222.165ZM80.9769 222V213.818H84.37C85.2933 213.818 86.0249 214.015 86.5646 214.409C87.1044 214.8 87.3743 215.331 87.3743 216.002C87.3743 216.482 87.2216 216.862 86.9162 217.142C86.6108 217.423 86.206 217.611 85.7017 217.707C86.0675 217.749 86.4031 217.859 86.7085 218.037C87.0138 218.211 87.2589 218.445 87.4435 218.74C87.6317 219.035 87.7259 219.386 87.7259 219.795C87.7259 220.228 87.614 220.612 87.3903 220.945C87.1665 221.276 86.8416 221.535 86.4155 221.723C85.9929 221.908 85.4833 222 84.8867 222H80.9769ZM82.4737 220.668H84.8867C85.2809 220.668 85.5898 220.574 85.8136 220.386C86.0373 220.198 86.1491 219.942 86.1491 219.619C86.1491 219.239 86.0373 218.941 85.8136 218.724C85.5898 218.504 85.2809 218.394 84.8867 218.394H82.4737V220.668ZM82.4737 217.227H84.386C84.6843 217.227 84.94 217.185 85.1531 217.099C85.3697 217.014 85.5348 216.893 85.6484 216.737C85.7656 216.577 85.8242 216.389 85.8242 216.173C85.8242 215.857 85.6946 215.61 85.4354 215.432C85.1761 215.255 84.821 215.166 84.37 215.166H82.4737V217.227ZM91.854 222.181C91.3356 222.181 90.8668 222.085 90.4478 221.893C90.0288 221.698 89.6967 221.416 89.4517 221.047C89.2102 220.677 89.0895 220.224 89.0895 219.688C89.0895 219.227 89.1783 218.847 89.3558 218.548C89.5334 218.25 89.7731 218.014 90.0749 217.84C90.3768 217.666 90.7141 217.534 91.087 217.446C91.4599 217.357 91.8398 217.289 92.2269 217.243C92.717 217.186 93.1147 217.14 93.4201 217.105C93.7255 217.066 93.9474 217.004 94.0859 216.918C94.2244 216.833 94.2937 216.695 94.2937 216.503V216.466C94.2937 216 94.1623 215.64 93.8995 215.384C93.6403 215.129 93.2532 215.001 92.7383 215.001C92.2021 215.001 91.7795 215.12 91.4705 215.358C91.1651 215.592 90.9538 215.853 90.8366 216.141L89.3398 215.8C89.5174 215.303 89.7766 214.901 90.1175 214.596C90.462 214.287 90.858 214.063 91.3054 213.925C91.7528 213.783 92.2234 213.712 92.717 213.712C93.0437 213.712 93.3899 213.751 93.7557 213.829C94.125 213.903 94.4695 214.042 94.7891 214.244C95.1122 214.447 95.3768 214.736 95.5827 215.113C95.7887 215.485 95.8917 215.97 95.8917 216.567V222H94.3363V220.881H94.2724C94.1694 221.087 94.0149 221.29 93.8089 221.489C93.603 221.687 93.3384 221.853 93.0153 221.984C92.6921 222.115 92.305 222.181 91.854 222.181ZM92.2003 220.903C92.6406 220.903 93.017 220.816 93.3295 220.642C93.6456 220.468 93.8853 220.24 94.0487 219.96C94.2156 219.676 94.299 219.372 94.299 219.049V217.994C94.2422 218.051 94.1321 218.104 93.9688 218.154C93.8089 218.2 93.6261 218.241 93.4201 218.277C93.2141 218.309 93.0135 218.339 92.8182 218.367C92.6229 218.392 92.4595 218.413 92.3281 218.431C92.0192 218.47 91.7369 218.536 91.4812 218.628C91.229 218.721 91.0266 218.854 90.8739 219.028C90.7248 219.198 90.6502 219.425 90.6502 219.71C90.6502 220.104 90.7958 220.402 91.087 220.604C91.3782 220.803 91.7493 220.903 92.2003 220.903ZM97.491 222L100.66 217.813L97.5283 213.818H99.382L101.912 217.217H102.482V213.818H104.075V217.217H104.629L107.159 213.818H109.013L105.897 217.813L109.05 222H107.159L104.608 218.591H104.075V222H102.482V218.591H101.949L99.382 222H97.491ZM116.214 217.222V218.602H111.783V217.222H116.214ZM112.23 213.818V222H110.669V213.818H112.23ZM117.328 213.818V222H115.772V213.818H117.328ZM122.905 222.165C122.138 222.165 121.468 221.989 120.897 221.638C120.325 221.286 119.881 220.794 119.565 220.162C119.249 219.53 119.091 218.792 119.091 217.946C119.091 217.098 119.249 216.355 119.565 215.72C119.881 215.084 120.325 214.591 120.897 214.239C121.468 213.887 122.138 213.712 122.905 213.712C123.672 213.712 124.341 213.887 124.913 214.239C125.485 214.591 125.929 215.084 126.245 215.72C126.561 216.355 126.719 217.098 126.719 217.946C126.719 218.792 126.561 219.53 126.245 220.162C125.929 220.794 125.485 221.286 124.913 221.638C124.341 221.989 123.672 222.165 122.905 222.165ZM122.91 220.828C123.407 220.828 123.819 220.697 124.146 220.434C124.473 220.171 124.714 219.821 124.87 219.385C125.03 218.948 125.11 218.467 125.11 217.941C125.11 217.419 125.03 216.94 124.87 216.503C124.714 216.062 124.473 215.709 124.146 215.443C123.819 215.176 123.407 215.043 122.91 215.043C122.409 215.043 121.994 215.176 121.664 215.443C121.337 215.709 121.094 216.062 120.934 216.503C120.778 216.94 120.699 217.419 120.699 217.941C120.699 218.467 120.778 218.948 120.934 219.385C121.094 219.821 121.337 220.171 121.664 220.434C121.994 220.697 122.409 220.828 122.91 220.828ZM138.011 217.222V218.602H133.579V217.222H138.011ZM134.027 213.818V222H132.466V213.818H134.027ZM139.125 213.818V222H137.569V213.818H139.125ZM143.636 222.181C143.118 222.181 142.649 222.085 142.23 221.893C141.811 221.698 141.479 221.416 141.234 221.047C140.992 220.677 140.872 220.224 140.872 219.688C140.872 219.227 140.96 218.847 141.138 218.548C141.316 218.25 141.555 218.014 141.857 217.84C142.159 217.666 142.496 217.534 142.869 217.446C143.242 217.357 143.622 217.289 144.009 217.243C144.499 217.186 144.897 217.14 145.202 217.105C145.508 217.066 145.73 217.004 145.868 216.918C146.007 216.833 146.076 216.695 146.076 216.503V216.466C146.076 216 145.945 215.64 145.682 215.384C145.422 215.129 145.035 215.001 144.521 215.001C143.984 215.001 143.562 215.12 143.253 215.358C142.947 215.592 142.736 215.853 142.619 216.141L141.122 215.8C141.3 215.303 141.559 214.901 141.9 214.596C142.244 214.287 142.64 214.063 143.088 213.925C143.535 213.783 144.006 213.712 144.499 213.712C144.826 213.712 145.172 213.751 145.538 213.829C145.907 213.903 146.252 214.042 146.571 214.244C146.894 214.447 147.159 214.736 147.365 215.113C147.571 215.485 147.674 215.97 147.674 216.567V222H146.119V220.881H146.055C145.952 221.087 145.797 221.29 145.591 221.489C145.385 221.687 145.121 221.853 144.797 221.984C144.474 222.115 144.087 222.181 143.636 222.181ZM143.983 220.903C144.423 220.903 144.799 220.816 145.112 220.642C145.428 220.468 145.668 220.24 145.831 219.96C145.998 219.676 146.081 219.372 146.081 219.049V217.994C146.024 218.051 145.914 218.104 145.751 218.154C145.591 218.2 145.408 218.241 145.202 218.277C144.996 218.309 144.796 218.339 144.6 218.367C144.405 218.392 144.242 218.413 144.11 218.431C143.801 218.47 143.519 218.536 143.263 218.628C143.011 218.721 142.809 218.854 142.656 219.028C142.507 219.198 142.432 219.425 142.432 219.71C142.432 220.104 142.578 220.402 142.869 220.604C143.16 220.803 143.532 220.903 143.983 220.903ZM153.765 222V213.818H155.358V217.249H156.125L158.825 213.818H160.796L157.627 217.797L160.834 222H158.857L156.391 218.729H155.358V222H153.765ZM164.452 222.181C163.933 222.181 163.464 222.085 163.045 221.893C162.626 221.698 162.294 221.416 162.049 221.047C161.808 220.677 161.687 220.224 161.687 219.688C161.687 219.227 161.776 218.847 161.953 218.548C162.131 218.25 162.371 218.014 162.673 217.84C162.974 217.666 163.312 217.534 163.685 217.446C164.058 217.357 164.438 217.289 164.825 217.243C165.315 217.186 165.712 217.14 166.018 217.105C166.323 217.066 166.545 217.004 166.684 216.918C166.822 216.833 166.891 216.695 166.891 216.503V216.466C166.891 216 166.76 215.64 166.497 215.384C166.238 215.129 165.851 215.001 165.336 215.001C164.8 215.001 164.377 215.12 164.068 215.358C163.763 215.592 163.551 215.853 163.434 216.141L161.938 215.8C162.115 215.303 162.374 214.901 162.715 214.596C163.06 214.287 163.456 214.063 163.903 213.925C164.35 213.783 164.821 213.712 165.315 213.712C165.641 213.712 165.988 213.751 166.353 213.829C166.723 213.903 167.067 214.042 167.387 214.244C167.71 214.447 167.974 214.736 168.18 215.113C168.386 215.485 168.489 215.97 168.489 216.567V222H166.934V220.881H166.87C166.767 221.087 166.613 221.29 166.407 221.489C166.201 221.687 165.936 221.853 165.613 221.984C165.29 222.115 164.903 222.181 164.452 222.181ZM164.798 220.903C165.238 220.903 165.615 220.816 165.927 220.642C166.243 220.468 166.483 220.24 166.646 219.96C166.813 219.676 166.897 219.372 166.897 219.049V217.994C166.84 218.051 166.73 218.104 166.566 218.154C166.407 218.2 166.224 218.241 166.018 218.277C165.812 218.309 165.611 218.339 165.416 218.367C165.221 218.392 165.057 218.413 164.926 218.431C164.617 218.47 164.335 218.536 164.079 218.628C163.827 218.721 163.624 218.854 163.472 219.028C163.322 219.198 163.248 219.425 163.248 219.71C163.248 220.104 163.393 220.402 163.685 220.604C163.976 220.803 164.347 220.903 164.798 220.903ZM170.611 222V213.818H172.203V217.249H172.97L175.671 213.818H177.642L174.473 217.797L177.679 222H175.703L173.237 218.729H172.203V222H170.611ZM179.967 225.068C179.729 225.068 179.513 225.049 179.317 225.01C179.122 224.974 178.976 224.935 178.88 224.892L179.264 223.587C179.555 223.665 179.814 223.699 180.042 223.689C180.269 223.678 180.47 223.593 180.644 223.433C180.821 223.273 180.977 223.012 181.112 222.65L181.309 222.107L178.316 213.818H180.02L182.092 220.168H182.178L184.25 213.818H185.96L182.588 223.092C182.432 223.518 182.233 223.879 181.991 224.173C181.75 224.472 181.462 224.695 181.128 224.844C180.794 224.994 180.407 225.068 179.967 225.068ZM191.574 217.281V218.665H187.211V217.281H191.574ZM188.506 213.818V222H186.913V213.818H188.506ZM194.067 222.165C193.307 222.165 192.643 221.988 192.075 221.632C191.506 221.277 191.066 220.784 190.754 220.152C190.441 219.516 190.285 218.779 190.285 217.941C190.285 217.096 190.441 216.357 190.754 215.725C191.066 215.089 191.506 214.596 192.075 214.244C192.643 213.889 193.307 213.712 194.067 213.712C194.83 213.712 195.494 213.889 196.059 214.244C196.627 214.596 197.068 215.089 197.38 215.725C197.696 216.357 197.854 217.096 197.854 217.941C197.854 218.779 197.696 219.516 197.38 220.152C197.068 220.784 196.627 221.277 196.059 221.632C195.494 221.988 194.83 222.165 194.067 222.165ZM194.067 220.801C194.582 220.801 195.003 220.672 195.329 220.413C195.66 220.15 195.903 219.802 196.059 219.369C196.215 218.935 196.293 218.46 196.293 217.941C196.293 217.419 196.215 216.941 196.059 216.508C195.903 216.071 195.66 215.722 195.329 215.459C195.003 215.196 194.582 215.065 194.067 215.065C193.555 215.065 193.135 215.196 192.804 215.459C192.474 215.722 192.231 216.071 192.075 216.508C191.918 216.941 191.84 217.419 191.84 217.941C191.84 218.46 191.918 218.935 192.075 219.369C192.231 219.802 192.474 220.15 192.804 220.413C193.135 220.672 193.555 220.801 194.067 220.801ZM203.702 222V213.818H210.376V222H208.815V215.192H205.252V222H203.702ZM215.952 222.165C215.185 222.165 214.515 221.989 213.943 221.638C213.372 221.286 212.928 220.794 212.612 220.162C212.296 219.53 212.138 218.792 212.138 217.946C212.138 217.098 212.296 216.355 212.612 215.72C212.928 215.084 213.372 214.591 213.943 214.239C214.515 213.887 215.185 213.712 215.952 213.712C216.719 213.712 217.388 213.887 217.96 214.239C218.532 214.591 218.975 215.084 219.291 215.72C219.608 216.355 219.766 217.098 219.766 217.946C219.766 218.792 219.608 219.53 219.291 220.162C218.975 220.794 218.532 221.286 217.96 221.638C217.388 221.989 216.719 222.165 215.952 222.165ZM215.957 220.828C216.454 220.828 216.866 220.697 217.193 220.434C217.519 220.171 217.761 219.821 217.917 219.385C218.077 218.948 218.157 218.467 218.157 217.941C218.157 217.419 218.077 216.94 217.917 216.503C217.761 216.062 217.519 215.709 217.193 215.443C216.866 215.176 216.454 215.043 215.957 215.043C215.456 215.043 215.041 215.176 214.71 215.443C214.384 215.709 214.141 216.062 213.981 216.503C213.824 216.94 213.746 217.419 213.746 217.941C213.746 218.467 213.824 218.948 213.981 219.385C214.141 219.821 214.384 220.171 214.71 220.434C215.041 220.697 215.456 220.828 215.957 220.828ZM228.111 213.818V222H226.556V213.818H228.111ZM227.435 217.616V218.99C227.19 219.09 226.93 219.179 226.657 219.257C226.384 219.331 226.096 219.39 225.794 219.433C225.492 219.475 225.178 219.496 224.851 219.496C223.839 219.496 223.035 219.25 222.438 218.756C221.842 218.259 221.543 217.499 221.543 216.476V213.802H223.093V216.476C223.093 216.863 223.164 217.178 223.306 217.419C223.449 217.661 223.651 217.838 223.914 217.952C224.176 218.065 224.489 218.122 224.851 218.122C225.331 218.122 225.773 218.078 226.178 217.989C226.586 217.897 227.005 217.772 227.435 217.616ZM229.215 215.192V213.818H236.119V215.192H233.45V222H231.894V215.192H229.215ZM238.81 225.068C238.572 225.068 238.355 225.049 238.16 225.01C237.965 224.974 237.819 224.935 237.723 224.892L238.107 223.587C238.398 223.665 238.657 223.699 238.884 223.689C239.112 223.678 239.312 223.593 239.486 223.433C239.664 223.273 239.82 223.012 239.955 222.65L240.152 222.107L237.159 213.818H238.863L240.935 220.168H241.02L243.093 213.818H244.802L241.431 223.092C241.274 223.518 241.075 223.879 240.834 224.173C240.593 224.472 240.305 224.695 239.971 224.844C239.637 224.994 239.25 225.068 238.81 225.068ZM57.0707 239V230.818H63.745V239H62.1843V232.192H58.6207V239H57.0707ZM65.8744 242.068V230.818H67.4298V232.145H67.5629C67.6553 231.974 67.7884 231.777 67.9624 231.553C68.1365 231.33 68.3779 231.134 68.6869 230.967C68.9958 230.797 69.4042 230.712 69.912 230.712C70.5725 230.712 71.162 230.879 71.6805 231.212C72.199 231.546 72.6056 232.027 72.9003 232.656C73.1986 233.284 73.3477 234.041 73.3477 234.925C73.3477 235.809 73.2004 236.567 72.9056 237.2C72.6109 237.828 72.2061 238.313 71.6911 238.654C71.1762 238.991 70.5885 239.16 69.928 239.16C69.4308 239.16 69.0242 239.076 68.7082 238.909C68.3957 238.743 68.1507 238.547 67.9731 238.324C67.7955 238.1 67.6588 237.901 67.5629 237.727H67.4671V242.068H65.8744ZM67.4351 234.909C67.4351 235.484 67.5186 235.989 67.6855 236.422C67.8524 236.855 68.0938 237.194 68.4099 237.439C68.7259 237.681 69.113 237.801 69.5711 237.801C70.047 237.801 70.4447 237.675 70.7643 237.423C71.0839 237.168 71.3254 236.821 71.4887 236.385C71.6556 235.948 71.7391 235.456 71.7391 234.909C71.7391 234.369 71.6574 233.885 71.4941 233.455C71.3343 233.025 71.0928 232.686 70.7696 232.438C70.45 232.189 70.0505 232.065 69.5711 232.065C69.1095 232.065 68.7188 232.184 68.3992 232.422C68.0832 232.659 67.8435 232.991 67.6801 233.418C67.5168 233.844 67.4351 234.341 67.4351 234.909ZM76.6929 236.768L80.2991 230.818H82.0143V239H80.4536V233.045L76.8634 239H75.1322V230.818H76.6929V236.768ZM84.1556 239V230.818H87.5487C88.472 230.818 89.2036 231.015 89.7433 231.409C90.2831 231.8 90.553 232.331 90.553 233.002C90.553 233.482 90.4003 233.862 90.0949 234.142C89.7895 234.423 89.3847 234.611 88.8804 234.707C89.2462 234.749 89.5818 234.859 89.8872 235.037C90.1926 235.211 90.4376 235.445 90.6222 235.74C90.8105 236.035 90.9046 236.386 90.9046 236.795C90.9046 237.228 90.7927 237.612 90.569 237.945C90.3453 238.276 90.0203 238.535 89.5942 238.723C89.1716 238.908 88.662 239 88.0654 239H84.1556ZM85.6524 237.668H88.0654C88.4596 237.668 88.7686 237.574 88.9923 237.386C89.216 237.198 89.3279 236.942 89.3279 236.619C89.3279 236.239 89.216 235.941 88.9923 235.724C88.7686 235.504 88.4596 235.394 88.0654 235.394H85.6524V237.668ZM85.6524 234.227H87.5647C87.863 234.227 88.1187 234.185 88.3318 234.099C88.5484 234.014 88.7135 233.893 88.8271 233.737C88.9443 233.577 89.0029 233.389 89.0029 233.173C89.0029 232.857 88.8733 232.61 88.6141 232.432C88.3548 232.255 87.9997 232.166 87.5487 232.166H85.6524V234.227ZM97.531 239V232.176H95.5708C95.1056 232.176 94.7433 232.285 94.4841 232.501C94.2249 232.718 94.0953 233.002 94.0953 233.354C94.0953 233.702 94.2142 233.982 94.4521 234.195C94.6936 234.405 95.031 234.51 95.4642 234.51H97.9944V235.799H95.4642C94.8605 235.799 94.3385 235.699 93.8982 235.5C93.4614 235.298 93.124 235.012 92.8861 234.643C92.6517 234.273 92.5345 233.837 92.5345 233.332C92.5345 232.817 92.6553 232.374 92.8968 232.001C93.1418 231.624 93.4916 231.333 93.9461 231.127C94.4042 230.921 94.9458 230.818 95.5708 230.818H99.0278V239H97.531ZM92.1617 239L94.4681 234.866H96.0981L93.7916 239H92.1617ZM100.663 236.837H102.293C102.314 237.171 102.465 237.429 102.746 237.61C103.03 237.791 103.397 237.881 103.848 237.881C104.307 237.881 104.697 237.784 105.02 237.588C105.343 237.39 105.505 237.082 105.505 236.667C105.505 236.418 105.443 236.202 105.319 236.017C105.198 235.829 105.026 235.683 104.802 235.58C104.582 235.477 104.321 235.426 104.019 235.426H102.687V234.174H104.019C104.47 234.174 104.807 234.071 105.031 233.865C105.255 233.659 105.367 233.402 105.367 233.093C105.367 232.759 105.246 232.491 105.004 232.288C104.766 232.082 104.434 231.979 104.008 231.979C103.575 231.979 103.215 232.077 102.927 232.272C102.639 232.464 102.488 232.713 102.474 233.018H100.866C100.876 232.56 101.015 232.159 101.281 231.814C101.551 231.466 101.913 231.196 102.368 231.005C102.826 230.809 103.346 230.712 103.928 230.712C104.536 230.712 105.061 230.809 105.505 231.005C105.949 231.2 106.292 231.47 106.533 231.814C106.778 232.159 106.901 232.555 106.901 233.002C106.901 233.453 106.766 233.822 106.496 234.11C106.229 234.394 105.881 234.598 105.452 234.723V234.808C105.768 234.829 106.048 234.925 106.293 235.096C106.538 235.266 106.73 235.491 106.869 235.772C107.007 236.053 107.076 236.37 107.076 236.725C107.076 237.226 106.938 237.659 106.661 238.025C106.388 238.391 106.008 238.673 105.521 238.872C105.038 239.067 104.486 239.165 103.864 239.165C103.261 239.165 102.719 239.071 102.24 238.883C101.764 238.691 101.386 238.421 101.105 238.073C100.828 237.725 100.681 237.313 100.663 236.837ZM111.102 239.181C110.584 239.181 110.115 239.085 109.696 238.893C109.277 238.698 108.945 238.416 108.7 238.047C108.458 237.677 108.338 237.224 108.338 236.688C108.338 236.227 108.426 235.847 108.604 235.548C108.781 235.25 109.021 235.014 109.323 234.84C109.625 234.666 109.962 234.534 110.335 234.446C110.708 234.357 111.088 234.289 111.475 234.243C111.965 234.186 112.363 234.14 112.668 234.105C112.974 234.066 113.195 234.004 113.334 233.918C113.472 233.833 113.542 233.695 113.542 233.503V233.466C113.542 233 113.41 232.64 113.148 232.384C112.888 232.129 112.501 232.001 111.986 232.001C111.45 232.001 111.028 232.12 110.719 232.358C110.413 232.592 110.202 232.853 110.085 233.141L108.588 232.8C108.765 232.303 109.025 231.901 109.366 231.596C109.71 231.287 110.106 231.063 110.553 230.925C111.001 230.783 111.471 230.712 111.965 230.712C112.292 230.712 112.638 230.751 113.004 230.829C113.373 230.903 113.718 231.042 114.037 231.244C114.36 231.447 114.625 231.736 114.831 232.113C115.037 232.485 115.14 232.97 115.14 233.567V239H113.584V237.881H113.52C113.417 238.087 113.263 238.29 113.057 238.489C112.851 238.687 112.586 238.853 112.263 238.984C111.94 239.115 111.553 239.181 111.102 239.181ZM111.448 237.903C111.889 237.903 112.265 237.816 112.578 237.642C112.894 237.468 113.133 237.24 113.297 236.96C113.464 236.676 113.547 236.372 113.547 236.049V234.994C113.49 235.051 113.38 235.104 113.217 235.154C113.057 235.2 112.874 235.241 112.668 235.277C112.462 235.309 112.262 235.339 112.066 235.367C111.871 235.392 111.708 235.413 111.576 235.431C111.267 235.47 110.985 235.536 110.729 235.628C110.477 235.721 110.275 235.854 110.122 236.028C109.973 236.198 109.898 236.425 109.898 236.71C109.898 237.104 110.044 237.402 110.335 237.604C110.626 237.803 110.997 237.903 111.448 237.903ZM122.806 234.222V235.602H118.374V234.222H122.806ZM118.822 230.818V239H117.261V230.818H118.822ZM123.919 230.818V239H122.364V230.818H123.919ZM128.431 239.181C127.913 239.181 127.444 239.085 127.025 238.893C126.606 238.698 126.274 238.416 126.029 238.047C125.787 237.677 125.667 237.224 125.667 236.688C125.667 236.227 125.755 235.847 125.933 235.548C126.111 235.25 126.35 235.014 126.652 234.84C126.954 234.666 127.291 234.534 127.664 234.446C128.037 234.357 128.417 234.289 128.804 234.243C129.294 234.186 129.692 234.14 129.997 234.105C130.303 234.066 130.525 234.004 130.663 233.918C130.802 233.833 130.871 233.695 130.871 233.503V233.466C130.871 233 130.739 232.64 130.477 232.384C130.217 232.129 129.83 232.001 129.315 232.001C128.779 232.001 128.357 232.12 128.048 232.358C127.742 232.592 127.531 232.853 127.414 233.141L125.917 232.8C126.095 232.303 126.354 231.901 126.695 231.596C127.039 231.287 127.435 231.063 127.883 230.925C128.33 230.783 128.801 230.712 129.294 230.712C129.621 230.712 129.967 230.751 130.333 230.829C130.702 230.903 131.047 231.042 131.366 231.244C131.689 231.447 131.954 231.736 132.16 232.113C132.366 232.485 132.469 232.97 132.469 233.567V239H130.913V237.881H130.85C130.747 238.087 130.592 238.29 130.386 238.489C130.18 238.687 129.916 238.853 129.592 238.984C129.269 239.115 128.882 239.181 128.431 239.181ZM128.777 237.903C129.218 237.903 129.594 237.816 129.907 237.642C130.223 237.468 130.462 237.24 130.626 236.96C130.793 236.676 130.876 236.372 130.876 236.049V234.994C130.819 235.051 130.709 235.104 130.546 235.154C130.386 235.2 130.203 235.241 129.997 235.277C129.791 235.309 129.591 235.339 129.395 235.367C129.2 235.392 129.037 235.413 128.905 235.431C128.596 235.47 128.314 235.536 128.058 235.628C127.806 235.721 127.604 235.854 127.451 236.028C127.302 236.198 127.227 236.425 127.227 236.71C127.227 237.104 127.373 237.402 127.664 237.604C127.955 237.803 128.326 237.903 128.777 237.903ZM138.56 239V230.818H141.953C142.876 230.818 143.608 231.015 144.148 231.409C144.687 231.8 144.957 232.331 144.957 233.002C144.957 233.482 144.805 233.862 144.499 234.142C144.194 234.423 143.789 234.611 143.285 234.707C143.65 234.749 143.986 234.859 144.291 235.037C144.597 235.211 144.842 235.445 145.027 235.74C145.215 236.035 145.309 236.386 145.309 236.795C145.309 237.228 145.197 237.612 144.973 237.945C144.75 238.276 144.425 238.535 143.998 238.723C143.576 238.908 143.066 239 142.47 239H138.56ZM140.057 237.668H142.47C142.864 237.668 143.173 237.574 143.397 237.386C143.62 237.198 143.732 236.942 143.732 236.619C143.732 236.239 143.62 235.941 143.397 235.724C143.173 235.504 142.864 235.394 142.47 235.394H140.057V237.668ZM140.057 234.227H141.969C142.267 234.227 142.523 234.185 142.736 234.099C142.953 234.014 143.118 233.893 143.231 233.737C143.349 233.577 143.407 233.389 143.407 233.173C143.407 232.857 143.278 232.61 143.018 232.432C142.759 232.255 142.404 232.166 141.953 232.166H140.057V234.227ZM149.437 239.181C148.919 239.181 148.45 239.085 148.031 238.893C147.612 238.698 147.28 238.416 147.035 238.047C146.793 237.677 146.672 237.224 146.672 236.688C146.672 236.227 146.761 235.847 146.939 235.548C147.116 235.25 147.356 235.014 147.658 234.84C147.96 234.666 148.297 234.534 148.67 234.446C149.043 234.357 149.423 234.289 149.81 234.243C150.3 234.186 150.698 234.14 151.003 234.105C151.309 234.066 151.53 234.004 151.669 233.918C151.807 233.833 151.877 233.695 151.877 233.503V233.466C151.877 233 151.745 232.64 151.483 232.384C151.223 232.129 150.836 232.001 150.321 232.001C149.785 232.001 149.362 232.12 149.054 232.358C148.748 232.592 148.537 232.853 148.42 233.141L146.923 232.8C147.1 232.303 147.36 231.901 147.701 231.596C148.045 231.287 148.441 231.063 148.888 230.925C149.336 230.783 149.806 230.712 150.3 230.712C150.627 230.712 150.973 230.751 151.339 230.829C151.708 230.903 152.052 231.042 152.372 231.244C152.695 231.447 152.96 231.736 153.166 232.113C153.372 232.485 153.475 232.97 153.475 233.567V239H151.919V237.881H151.855C151.752 238.087 151.598 238.29 151.392 238.489C151.186 238.687 150.921 238.853 150.598 238.984C150.275 239.115 149.888 239.181 149.437 239.181ZM149.783 237.903C150.224 237.903 150.6 237.816 150.913 237.642C151.229 237.468 151.468 237.24 151.632 236.96C151.799 236.676 151.882 236.372 151.882 236.049V234.994C151.825 235.051 151.715 235.104 151.552 235.154C151.392 235.2 151.209 235.241 151.003 235.277C150.797 235.309 150.597 235.339 150.401 235.367C150.206 235.392 150.043 235.413 149.911 235.431C149.602 235.47 149.32 235.536 149.064 235.628C148.812 235.721 148.61 235.854 148.457 236.028C148.308 236.198 148.233 236.425 148.233 236.71C148.233 237.104 148.379 237.402 148.67 237.604C148.961 237.803 149.332 237.903 149.783 237.903ZM155.596 230.818H157.157V237.62H159.985V230.818H161.546V237.62H164.374V230.818H165.935V239H155.596V230.818ZM170.443 239.181C169.924 239.181 169.456 239.085 169.037 238.893C168.618 238.698 168.286 238.416 168.041 238.047C167.799 237.677 167.678 237.224 167.678 236.688C167.678 236.227 167.767 235.847 167.945 235.548C168.122 235.25 168.362 235.014 168.664 234.84C168.966 234.666 169.303 234.534 169.676 234.446C170.049 234.357 170.429 234.289 170.816 234.243C171.306 234.186 171.704 234.14 172.009 234.105C172.314 234.066 172.536 234.004 172.675 233.918C172.813 233.833 172.883 233.695 172.883 233.503V233.466C172.883 233 172.751 232.64 172.488 232.384C172.229 232.129 171.842 232.001 171.327 232.001C170.791 232.001 170.368 232.12 170.059 232.358C169.754 232.592 169.543 232.853 169.426 233.141L167.929 232.8C168.106 232.303 168.366 231.901 168.706 231.596C169.051 231.287 169.447 231.063 169.894 230.925C170.342 230.783 170.812 230.712 171.306 230.712C171.633 230.712 171.979 230.751 172.345 230.829C172.714 230.903 173.058 231.042 173.378 231.244C173.701 231.447 173.966 231.736 174.172 232.113C174.378 232.485 174.481 232.97 174.481 233.567V239H172.925V237.881H172.861C172.758 238.087 172.604 238.29 172.398 238.489C172.192 238.687 171.927 238.853 171.604 238.984C171.281 239.115 170.894 239.181 170.443 239.181ZM170.789 237.903C171.229 237.903 171.606 237.816 171.918 237.642C172.234 237.468 172.474 237.24 172.638 236.96C172.804 236.676 172.888 236.372 172.888 236.049V234.994C172.831 235.051 172.721 235.104 172.558 235.154C172.398 235.2 172.215 235.241 172.009 235.277C171.803 235.309 171.602 235.339 171.407 235.367C171.212 235.392 171.048 235.413 170.917 235.431C170.608 235.47 170.326 235.536 170.07 235.628C169.818 235.721 169.616 235.854 169.463 236.028C169.314 236.198 169.239 236.425 169.239 236.71C169.239 237.104 169.385 237.402 169.676 237.604C169.967 237.803 170.338 237.903 170.789 237.903ZM181.578 242.068C181.34 242.068 181.124 242.049 180.929 242.01C180.733 241.974 180.588 241.935 180.492 241.892L180.875 240.587C181.166 240.665 181.426 240.699 181.653 240.689C181.88 240.678 182.081 240.593 182.255 240.433C182.432 240.273 182.589 240.012 182.724 239.65L182.921 239.107L179.927 230.818H181.632L183.704 237.168H183.789L185.861 230.818H187.571L184.199 240.092C184.043 240.518 183.844 240.879 183.603 241.173C183.361 241.472 183.073 241.695 182.74 241.844C182.406 241.994 182.019 242.068 181.578 242.068ZM195.401 230.818V239H193.846V230.818H195.401ZM194.725 234.616V235.99C194.48 236.09 194.22 236.179 193.947 236.257C193.674 236.331 193.386 236.39 193.084 236.433C192.782 236.475 192.468 236.496 192.141 236.496C191.129 236.496 190.325 236.25 189.728 235.756C189.132 235.259 188.833 234.499 188.833 233.476V230.802H190.383V233.476C190.383 233.863 190.454 234.178 190.597 234.419C190.739 234.661 190.941 234.838 191.204 234.952C191.467 235.065 191.779 235.122 192.141 235.122C192.621 235.122 193.063 235.078 193.468 234.989C193.876 234.897 194.295 234.772 194.725 234.616ZM201.046 239.165C200.24 239.165 199.546 238.993 198.963 238.648C198.385 238.3 197.937 237.812 197.621 237.184C197.309 236.551 197.152 235.811 197.152 234.962C197.152 234.124 197.309 233.386 197.621 232.746C197.937 232.107 198.377 231.608 198.942 231.25C199.51 230.891 200.174 230.712 200.934 230.712C201.396 230.712 201.843 230.788 202.277 230.941C202.71 231.093 203.099 231.333 203.443 231.66C203.788 231.987 204.059 232.411 204.258 232.933C204.457 233.451 204.556 234.082 204.556 234.824V235.388H198.053V234.195H202.996C202.996 233.776 202.911 233.405 202.74 233.082C202.57 232.755 202.33 232.498 202.021 232.31C201.716 232.121 201.357 232.027 200.945 232.027C200.498 232.027 200.107 232.137 199.773 232.358C199.443 232.574 199.187 232.858 199.006 233.21C198.828 233.558 198.74 233.936 198.74 234.344V235.277C198.74 235.824 198.836 236.289 199.027 236.672C199.223 237.056 199.494 237.349 199.842 237.551C200.19 237.75 200.597 237.849 201.062 237.849C201.364 237.849 201.639 237.807 201.888 237.722C202.136 237.633 202.351 237.501 202.532 237.327C202.713 237.153 202.852 236.939 202.948 236.683L204.455 236.955C204.335 237.398 204.118 237.787 203.805 238.121C203.496 238.451 203.108 238.709 202.639 238.893C202.174 239.075 201.643 239.165 201.046 239.165ZM205.602 232.192V230.818H212.505V232.192H209.837V239H208.281V232.192H205.602ZM219.735 234.222V235.602H215.303V234.222H219.735ZM215.751 230.818V239H214.19V230.818H215.751ZM220.848 230.818V239H219.293V230.818H220.848ZM225.36 239.181C224.841 239.181 224.373 239.085 223.954 238.893C223.535 238.698 223.203 238.416 222.958 238.047C222.716 237.677 222.595 237.224 222.595 236.688C222.595 236.227 222.684 235.847 222.862 235.548C223.039 235.25 223.279 235.014 223.581 234.84C223.883 234.666 224.22 234.534 224.593 234.446C224.966 234.357 225.346 234.289 225.733 234.243C226.223 234.186 226.621 234.14 226.926 234.105C227.231 234.066 227.453 234.004 227.592 233.918C227.73 233.833 227.8 233.695 227.8 233.503V233.466C227.8 233 227.668 232.64 227.405 232.384C227.146 232.129 226.759 232.001 226.244 232.001C225.708 232.001 225.285 232.12 224.976 232.358C224.671 232.592 224.46 232.853 224.343 233.141L222.846 232.8C223.023 232.303 223.282 231.901 223.623 231.596C223.968 231.287 224.364 231.063 224.811 230.925C225.259 230.783 225.729 230.712 226.223 230.712C226.55 230.712 226.896 230.751 227.262 230.829C227.631 230.903 227.975 231.042 228.295 231.244C228.618 231.447 228.883 231.736 229.089 232.113C229.295 232.485 229.398 232.97 229.398 233.567V239H227.842V237.881H227.778C227.675 238.087 227.521 238.29 227.315 238.489C227.109 238.687 226.844 238.853 226.521 238.984C226.198 239.115 225.811 239.181 225.36 239.181ZM225.706 237.903C226.146 237.903 226.523 237.816 226.835 237.642C227.151 237.468 227.391 237.24 227.555 236.96C227.721 236.676 227.805 236.372 227.805 236.049V234.994C227.748 235.051 227.638 235.104 227.475 235.154C227.315 235.2 227.132 235.241 226.926 235.277C226.72 235.309 226.519 235.339 226.324 235.367C226.129 235.392 225.965 235.413 225.834 235.431C225.525 235.47 225.243 235.536 224.987 235.628C224.735 235.721 224.532 235.854 224.38 236.028C224.231 236.198 224.156 236.425 224.156 236.71C224.156 237.104 224.302 237.402 224.593 237.604C224.884 237.803 225.255 237.903 225.706 237.903ZM236.398 239V232.176H234.438C233.973 232.176 233.611 232.285 233.351 232.501C233.092 232.718 232.962 233.002 232.962 233.354C232.962 233.702 233.081 233.982 233.319 234.195C233.561 234.405 233.898 234.51 234.331 234.51H236.862V235.799H234.331C233.728 235.799 233.206 235.699 232.765 235.5C232.329 235.298 231.991 235.012 231.753 234.643C231.519 234.273 231.402 233.837 231.402 233.332C231.402 232.817 231.522 232.374 231.764 232.001C232.009 231.624 232.359 231.333 232.813 231.127C233.271 230.921 233.813 230.818 234.438 230.818H237.895V239H236.398ZM231.029 239L233.335 234.866H234.965L232.659 239H231.029ZM243.5 236.837H245.13C245.151 237.171 245.302 237.429 245.583 237.61C245.867 237.791 246.234 237.881 246.685 237.881C247.143 237.881 247.534 237.784 247.857 237.588C248.18 237.39 248.342 237.082 248.342 236.667C248.342 236.418 248.28 236.202 248.156 236.017C248.035 235.829 247.863 235.683 247.639 235.58C247.419 235.477 247.158 235.426 246.856 235.426H245.524V234.174H246.856C247.307 234.174 247.644 234.071 247.868 233.865C248.092 233.659 248.203 233.402 248.203 233.093C248.203 232.759 248.083 232.491 247.841 232.288C247.603 232.082 247.271 231.979 246.845 231.979C246.412 231.979 246.051 232.077 245.764 232.272C245.476 232.464 245.325 232.713 245.311 233.018H243.702C243.713 232.56 243.852 232.159 244.118 231.814C244.388 231.466 244.75 231.196 245.205 231.005C245.663 230.809 246.183 230.712 246.765 230.712C247.373 230.712 247.898 230.809 248.342 231.005C248.786 231.2 249.129 231.47 249.37 231.814C249.615 232.159 249.738 232.555 249.738 233.002C249.738 233.453 249.603 233.822 249.333 234.11C249.066 234.394 248.718 234.598 248.289 234.723V234.808C248.605 234.829 248.885 234.925 249.13 235.096C249.375 235.266 249.567 235.491 249.706 235.772C249.844 236.053 249.913 236.37 249.913 236.725C249.913 237.226 249.775 237.659 249.498 238.025C249.224 238.391 248.844 238.673 248.358 238.872C247.875 239.067 247.323 239.165 246.701 239.165C246.098 239.165 245.556 239.071 245.077 238.883C244.601 238.691 244.223 238.421 243.942 238.073C243.665 237.725 243.518 237.313 243.5 236.837ZM253.939 239.181C253.421 239.181 252.952 239.085 252.533 238.893C252.114 238.698 251.782 238.416 251.537 238.047C251.295 237.677 251.174 237.224 251.174 236.688C251.174 236.227 251.263 235.847 251.441 235.548C251.618 235.25 251.858 235.014 252.16 234.84C252.462 234.666 252.799 234.534 253.172 234.446C253.545 234.357 253.925 234.289 254.312 234.243C254.802 234.186 255.2 234.14 255.505 234.105C255.81 234.066 256.032 234.004 256.171 233.918C256.309 233.833 256.379 233.695 256.379 233.503V233.466C256.379 233 256.247 232.64 255.984 232.384C255.725 232.129 255.338 232.001 254.823 232.001C254.287 232.001 253.864 232.12 253.555 232.358C253.25 232.592 253.039 232.853 252.922 233.141L251.425 232.8C251.602 232.303 251.862 231.901 252.203 231.596C252.547 231.287 252.943 231.063 253.39 230.925C253.838 230.783 254.308 230.712 254.802 230.712C255.129 230.712 255.475 230.751 255.841 230.829C256.21 230.903 256.554 231.042 256.874 231.244C257.197 231.447 257.462 231.736 257.668 232.113C257.874 232.485 257.977 232.97 257.977 233.567V239H256.421V237.881H256.357C256.254 238.087 256.1 238.29 255.894 238.489C255.688 238.687 255.423 238.853 255.1 238.984C254.777 239.115 254.39 239.181 253.939 239.181ZM254.285 237.903C254.726 237.903 255.102 237.816 255.415 237.642C255.731 237.468 255.97 237.24 256.134 236.96C256.301 236.676 256.384 236.372 256.384 236.049V234.994C256.327 235.051 256.217 235.104 256.054 235.154C255.894 235.2 255.711 235.241 255.505 235.277C255.299 235.309 255.098 235.339 254.903 235.367C254.708 235.392 254.544 235.413 254.413 235.431C254.104 235.47 253.822 235.536 253.566 235.628C253.314 235.721 253.112 235.854 252.959 236.028C252.81 236.198 252.735 236.425 252.735 236.71C252.735 237.104 252.881 237.402 253.172 237.604C253.463 237.803 253.834 237.903 254.285 237.903ZM260.098 239V230.818H266.772V239H265.212V232.192H261.648V239H260.098ZM270.462 236.768L274.069 230.818H275.784V239H274.223V233.045L270.633 239H268.902V230.818H270.462V236.768ZM281.372 239.165C280.58 239.165 279.898 238.986 279.326 238.627C278.758 238.265 278.321 237.766 278.016 237.13C277.71 236.495 277.558 235.767 277.558 234.946C277.558 234.115 277.714 233.382 278.026 232.746C278.339 232.107 278.779 231.608 279.347 231.25C279.916 230.891 280.585 230.712 281.356 230.712C281.977 230.712 282.531 230.827 283.017 231.058C283.504 231.285 283.896 231.605 284.195 232.017C284.497 232.429 284.676 232.91 284.733 233.46H283.183C283.097 233.077 282.902 232.746 282.597 232.469C282.295 232.192 281.89 232.054 281.382 232.054C280.938 232.054 280.549 232.171 280.216 232.406C279.885 232.636 279.628 232.967 279.443 233.396C279.259 233.822 279.166 234.327 279.166 234.909C279.166 235.506 279.257 236.021 279.438 236.454C279.619 236.887 279.875 237.223 280.205 237.461C280.539 237.699 280.931 237.817 281.382 237.817C281.684 237.817 281.957 237.762 282.203 237.652C282.451 237.539 282.659 237.377 282.826 237.168C282.996 236.958 283.115 236.706 283.183 236.411H284.733C284.676 236.94 284.504 237.413 284.216 237.828C283.928 238.244 283.543 238.57 283.06 238.808C282.581 239.046 282.018 239.165 281.372 239.165ZM287.634 233.631H290.01C291.012 233.631 291.782 233.879 292.322 234.376C292.862 234.874 293.132 235.515 293.132 236.299C293.132 236.811 293.011 237.271 292.769 237.679C292.528 238.087 292.175 238.411 291.709 238.648C291.244 238.883 290.678 239 290.01 239H286.436V230.818H287.997V237.626H290.01C290.468 237.626 290.845 237.507 291.139 237.269C291.434 237.027 291.581 236.72 291.581 236.347C291.581 235.953 291.434 235.632 291.139 235.383C290.845 235.131 290.468 235.005 290.01 235.005H287.634V233.631Z" fill="#EEBD40"/>
<defs>
<linearGradient id="paint0_linear_957_7471" x1="143.515" y1="24.9141" x2="206.665" y2="58.8919" gradientUnits="userSpaceOnUse">
<stop stop-color="#5955B3"/>
<stop offset="1" stop-color="#6563CE"/>
</linearGradient>
</defs>
</svg>
