<svg width="753" height="409" viewBox="0 0 753 409" fill="none" xmlns="http://www.w3.org/2000/svg">
<rect width="753" height="407" fill="white"/>
<path opacity="0.2" fill-rule="evenodd" clip-rule="evenodd" d="M752.692 389.079C752.65 400.044 743.784 408.928 732.827 409H436C448.567 373.992 501.062 303.974 610.504 303.974C719.946 303.974 750.897 249.517 752.692 222.288V389.079Z" fill="#79A4E2"/>
<path opacity="0.2" fill-rule="evenodd" clip-rule="evenodd" d="M211.324 0C208.649 18.1119 192.257 69.0439 124.729 92.1467C59.2113 114.562 16.0501 106.853 3.85612e-05 99.6083L3.2137e-05 20C3.12457e-05 8.95433 8.95435 1.9166e-05 20 1.81199e-05L211.324 0Z" fill="#6EA3E6"/>
<path d="M170.99 198.545H174.672V209.523H174.816L182.359 198.545H185.589V216H181.899V205.014H181.771L174.186 216H170.99V198.545ZM197.681 208.006V210.861H190.846V208.006H197.681ZM192.039 202.909V216H188.57V202.909H192.039ZM199.956 202.909V216H196.513V202.909H199.956ZM209.037 220.449V198.545H212.659V220.449H209.037ZM209.037 216.256C208.032 216.256 207.114 216.094 206.284 215.77C205.455 215.44 204.739 214.977 204.137 214.381C203.534 213.778 203.069 213.065 202.739 212.241C202.409 211.412 202.245 210.5 202.245 209.506C202.245 208.5 202.409 207.585 202.739 206.761C203.069 205.932 203.534 205.219 204.137 204.622C204.739 204.02 205.455 203.557 206.284 203.233C207.114 202.903 208.032 202.739 209.037 202.739H209.711V216.256H209.037ZM209.037 213.426H209.438V205.568H209.037C208.549 205.568 208.114 205.67 207.733 205.875C207.353 206.08 207.032 206.361 206.77 206.719C206.509 207.071 206.31 207.486 206.174 207.963C206.043 208.44 205.978 208.955 205.978 209.506C205.978 210.233 206.097 210.895 206.336 211.491C206.574 212.082 206.924 212.554 207.384 212.906C207.844 213.253 208.395 213.426 209.037 213.426ZM212.659 216.256H211.986V202.739H212.659C213.665 202.739 214.583 202.903 215.412 203.233C216.242 203.557 216.958 204.02 217.56 204.622C218.162 205.219 218.628 205.932 218.958 206.761C219.287 207.585 219.452 208.5 219.452 209.506C219.452 210.5 219.287 211.412 218.958 212.241C218.628 213.065 218.162 213.778 217.56 214.381C216.958 214.977 216.242 215.44 215.412 215.77C214.583 216.094 213.665 216.256 212.659 216.256ZM212.659 213.426C213.148 213.426 213.583 213.327 213.963 213.128C214.344 212.923 214.665 212.642 214.926 212.284C215.188 211.926 215.387 211.511 215.523 211.04C215.659 210.562 215.728 210.051 215.728 209.506C215.728 208.773 215.605 208.111 215.361 207.52C215.123 206.923 214.776 206.449 214.321 206.097C213.867 205.744 213.313 205.568 212.659 205.568H212.259V213.426H212.659ZM227.743 216.256C226.419 216.256 225.274 215.974 224.308 215.412C223.348 214.844 222.606 214.054 222.083 213.043C221.561 212.026 221.299 210.847 221.299 209.506C221.299 208.153 221.561 206.972 222.083 205.96C222.606 204.943 223.348 204.153 224.308 203.591C225.274 203.023 226.419 202.739 227.743 202.739C229.066 202.739 230.208 203.023 231.169 203.591C232.135 204.153 232.879 204.943 233.402 205.96C233.924 206.972 234.186 208.153 234.186 209.506C234.186 210.847 233.924 212.026 233.402 213.043C232.879 214.054 232.135 214.844 231.169 215.412C230.208 215.974 229.066 216.256 227.743 216.256ZM227.76 213.443C228.362 213.443 228.865 213.273 229.268 212.932C229.672 212.585 229.975 212.114 230.18 211.517C230.39 210.92 230.495 210.241 230.495 209.48C230.495 208.719 230.39 208.04 230.18 207.443C229.975 206.847 229.672 206.375 229.268 206.028C228.865 205.682 228.362 205.509 227.76 205.509C227.152 205.509 226.64 205.682 226.225 206.028C225.816 206.375 225.507 206.847 225.297 207.443C225.092 208.04 224.99 208.719 224.99 209.48C224.99 210.241 225.092 210.92 225.297 211.517C225.507 212.114 225.816 212.585 226.225 212.932C226.64 213.273 227.152 213.443 227.76 213.443ZM236.547 220.909V202.909H240.126V205.108H240.288C240.447 204.756 240.677 204.398 240.978 204.034C241.285 203.665 241.683 203.358 242.172 203.114C242.666 202.864 243.279 202.739 244.012 202.739C244.967 202.739 245.848 202.989 246.654 203.489C247.461 203.983 248.106 204.73 248.589 205.73C249.072 206.724 249.314 207.972 249.314 209.472C249.314 210.932 249.078 212.165 248.606 213.17C248.14 214.17 247.504 214.929 246.697 215.446C245.896 215.957 244.998 216.213 244.004 216.213C243.299 216.213 242.7 216.097 242.206 215.864C241.717 215.631 241.316 215.338 241.004 214.986C240.691 214.628 240.453 214.267 240.288 213.903H240.177V220.909H236.547ZM240.1 209.455C240.1 210.233 240.208 210.912 240.424 211.491C240.64 212.071 240.953 212.523 241.362 212.847C241.771 213.165 242.268 213.324 242.853 213.324C243.444 213.324 243.944 213.162 244.353 212.838C244.762 212.509 245.072 212.054 245.282 211.474C245.498 210.889 245.606 210.216 245.606 209.455C245.606 208.699 245.501 208.034 245.291 207.46C245.081 206.886 244.771 206.437 244.362 206.114C243.953 205.79 243.45 205.628 242.853 205.628C242.262 205.628 241.762 205.784 241.353 206.097C240.95 206.409 240.64 206.852 240.424 207.426C240.208 208 240.1 208.676 240.1 209.455ZM259.473 211.986L263.018 202.909H265.779L260.674 216H258.262L253.277 202.909H256.029L259.473 211.986ZM255.203 202.909V216H251.734V202.909H255.203ZM263.922 216V202.909H267.348V216H263.922ZM273.889 216.247C273.054 216.247 272.309 216.102 271.656 215.812C271.002 215.517 270.485 215.082 270.105 214.509C269.73 213.929 269.542 213.207 269.542 212.344C269.542 211.616 269.676 211.006 269.943 210.511C270.21 210.017 270.574 209.619 271.034 209.318C271.494 209.017 272.017 208.79 272.602 208.636C273.193 208.483 273.812 208.375 274.46 208.312C275.221 208.233 275.835 208.159 276.301 208.091C276.767 208.017 277.105 207.909 277.315 207.767C277.525 207.625 277.63 207.415 277.63 207.136V207.085C277.63 206.545 277.46 206.128 277.119 205.832C276.784 205.537 276.306 205.389 275.687 205.389C275.034 205.389 274.514 205.534 274.127 205.824C273.741 206.108 273.485 206.466 273.36 206.898L270.002 206.625C270.173 205.83 270.508 205.142 271.008 204.562C271.508 203.977 272.153 203.528 272.943 203.216C273.738 202.898 274.659 202.739 275.704 202.739C276.431 202.739 277.127 202.824 277.792 202.994C278.463 203.165 279.056 203.429 279.574 203.787C280.096 204.145 280.508 204.605 280.809 205.168C281.11 205.724 281.261 206.392 281.261 207.17V216H277.818V214.185H277.716C277.505 214.594 277.224 214.955 276.872 215.267C276.52 215.574 276.096 215.815 275.602 215.991C275.108 216.162 274.537 216.247 273.889 216.247ZM274.929 213.741C275.463 213.741 275.934 213.636 276.343 213.426C276.752 213.21 277.074 212.92 277.306 212.557C277.539 212.193 277.656 211.781 277.656 211.321V209.932C277.542 210.006 277.386 210.074 277.187 210.136C276.994 210.193 276.775 210.247 276.531 210.298C276.287 210.344 276.042 210.386 275.798 210.426C275.554 210.46 275.332 210.491 275.133 210.52C274.707 210.582 274.335 210.682 274.017 210.818C273.699 210.955 273.451 211.139 273.275 211.372C273.099 211.599 273.011 211.884 273.011 212.224C273.011 212.719 273.19 213.097 273.548 213.358C273.912 213.614 274.372 213.741 274.929 213.741ZM295.524 202.909V213.494H297.612V220.21H294.083V216H284.078V202.909H287.547V213.145H292.098V202.909H295.524ZM303.32 211.21L308.033 202.909H311.613V216H308.152V207.673L303.456 216H299.851V202.909H303.32V211.21ZM322.194 216V205.756H319.739C319.074 205.756 318.569 205.909 318.222 206.216C317.875 206.523 317.705 206.886 317.711 207.307C317.705 207.733 317.87 208.094 318.205 208.389C318.546 208.679 319.046 208.824 319.705 208.824H323.404V211.278H319.705C318.586 211.278 317.617 211.108 316.799 210.767C315.98 210.426 315.35 209.952 314.907 209.344C314.463 208.73 314.245 208.017 314.25 207.205C314.245 206.352 314.463 205.605 314.907 204.963C315.35 204.315 315.983 203.812 316.807 203.455C317.637 203.091 318.614 202.909 319.739 202.909H325.577V216H322.194ZM313.875 216L317.515 209.182H320.983L317.353 216H313.875ZM333.953 216V202.909H345.399V216H341.93V205.764H337.379V216H333.953ZM354.211 216.256C352.887 216.256 351.743 215.974 350.777 215.412C349.816 214.844 349.075 214.054 348.552 213.043C348.029 212.026 347.768 210.847 347.768 209.506C347.768 208.153 348.029 206.972 348.552 205.96C349.075 204.943 349.816 204.153 350.777 203.591C351.743 203.023 352.887 202.739 354.211 202.739C355.535 202.739 356.677 203.023 357.637 203.591C358.603 204.153 359.348 204.943 359.87 205.96C360.393 206.972 360.654 208.153 360.654 209.506C360.654 210.847 360.393 212.026 359.87 213.043C359.348 214.054 358.603 214.844 357.637 215.412C356.677 215.974 355.535 216.256 354.211 216.256ZM354.228 213.443C354.831 213.443 355.333 213.273 355.737 212.932C356.14 212.585 356.444 212.114 356.649 211.517C356.859 210.92 356.964 210.241 356.964 209.48C356.964 208.719 356.859 208.04 356.649 207.443C356.444 206.847 356.14 206.375 355.737 206.028C355.333 205.682 354.831 205.509 354.228 205.509C353.62 205.509 353.109 205.682 352.694 206.028C352.285 206.375 351.975 206.847 351.765 207.443C351.561 208.04 351.458 208.719 351.458 209.48C351.458 210.241 351.561 210.92 351.765 211.517C351.975 212.114 352.285 212.585 352.694 212.932C353.109 213.273 353.62 213.443 354.228 213.443ZM368.57 216V202.909H372.201V207.989H373.223L376.786 202.909H381.047L376.419 209.403L381.098 216H376.786L373.556 211.355H372.201V216H368.57ZM385.085 220.909C384.625 220.909 384.193 220.872 383.789 220.798C383.392 220.73 383.062 220.642 382.801 220.534L383.619 217.824C384.045 217.955 384.429 218.026 384.77 218.037C385.116 218.048 385.414 217.969 385.664 217.798C385.92 217.628 386.127 217.338 386.287 216.929L386.5 216.375L381.804 202.909H385.622L388.332 212.523H388.468L391.204 202.909H395.048L389.96 217.415C389.716 218.119 389.383 218.733 388.963 219.256C388.548 219.784 388.022 220.19 387.386 220.474C386.75 220.764 385.983 220.909 385.085 220.909ZM396.906 220.909V202.909H400.485V205.108H400.647C400.806 204.756 401.037 204.398 401.338 204.034C401.645 203.665 402.042 203.358 402.531 203.114C403.025 202.864 403.639 202.739 404.372 202.739C405.326 202.739 406.207 202.989 407.014 203.489C407.821 203.983 408.466 204.73 408.949 205.73C409.431 206.724 409.673 207.972 409.673 209.472C409.673 210.932 409.437 212.165 408.966 213.17C408.5 214.17 407.863 214.929 407.056 215.446C406.255 215.957 405.358 216.213 404.363 216.213C403.659 216.213 403.059 216.097 402.565 215.864C402.076 215.631 401.676 215.338 401.363 214.986C401.051 214.628 400.812 214.267 400.647 213.903H400.537V220.909H396.906ZM400.46 209.455C400.46 210.233 400.568 210.912 400.784 211.491C401 212.071 401.312 212.523 401.721 212.847C402.13 213.165 402.627 213.324 403.213 213.324C403.804 213.324 404.304 213.162 404.713 212.838C405.122 212.509 405.431 212.054 405.642 211.474C405.858 210.889 405.966 210.216 405.966 209.455C405.966 208.699 405.86 208.034 405.65 207.46C405.44 206.886 405.13 206.437 404.721 206.114C404.312 205.79 403.809 205.628 403.213 205.628C402.622 205.628 402.122 205.784 401.713 206.097C401.309 206.409 401 206.852 400.784 207.426C400.568 208 400.46 208.676 400.46 209.455ZM418.008 216.256C416.667 216.256 415.514 215.972 414.548 215.403C413.588 214.83 412.849 214.034 412.332 213.017C411.821 212 411.565 210.83 411.565 209.506C411.565 208.165 411.824 206.989 412.341 205.977C412.863 204.96 413.605 204.168 414.565 203.599C415.525 203.026 416.667 202.739 417.991 202.739C419.133 202.739 420.133 202.946 420.991 203.361C421.849 203.776 422.528 204.358 423.028 205.108C423.528 205.858 423.804 206.739 423.855 207.75H420.429C420.332 207.097 420.076 206.571 419.662 206.173C419.252 205.77 418.716 205.568 418.051 205.568C417.488 205.568 416.997 205.722 416.576 206.028C416.162 206.33 415.838 206.77 415.605 207.349C415.372 207.929 415.255 208.631 415.255 209.455C415.255 210.29 415.369 211 415.596 211.585C415.829 212.17 416.156 212.616 416.576 212.923C416.997 213.23 417.488 213.384 418.051 213.384C418.466 213.384 418.838 213.298 419.167 213.128C419.502 212.957 419.778 212.71 419.994 212.386C420.216 212.057 420.36 211.662 420.429 211.202H423.855C423.798 212.202 423.525 213.082 423.037 213.844C422.554 214.599 421.886 215.19 421.034 215.616C420.181 216.043 419.173 216.256 418.008 216.256ZM429.912 216.247C429.077 216.247 428.333 216.102 427.679 215.812C427.026 215.517 426.509 215.082 426.128 214.509C425.753 213.929 425.566 213.207 425.566 212.344C425.566 211.616 425.699 211.006 425.966 210.511C426.233 210.017 426.597 209.619 427.057 209.318C427.517 209.017 428.04 208.79 428.625 208.636C429.216 208.483 429.836 208.375 430.483 208.312C431.245 208.233 431.858 208.159 432.324 208.091C432.79 208.017 433.128 207.909 433.338 207.767C433.549 207.625 433.654 207.415 433.654 207.136V207.085C433.654 206.545 433.483 206.128 433.142 205.832C432.807 205.537 432.33 205.389 431.711 205.389C431.057 205.389 430.537 205.534 430.151 205.824C429.765 206.108 429.509 206.466 429.384 206.898L426.026 206.625C426.196 205.83 426.532 205.142 427.032 204.562C427.532 203.977 428.176 203.528 428.966 203.216C429.762 202.898 430.682 202.739 431.728 202.739C432.455 202.739 433.151 202.824 433.816 202.994C434.486 203.165 435.08 203.429 435.597 203.787C436.12 204.145 436.532 204.605 436.833 205.168C437.134 205.724 437.284 206.392 437.284 207.17V216H433.841V214.185H433.739C433.529 214.594 433.248 214.955 432.895 215.267C432.543 215.574 432.12 215.815 431.625 215.991C431.131 216.162 430.56 216.247 429.912 216.247ZM430.952 213.741C431.486 213.741 431.958 213.636 432.367 213.426C432.776 213.21 433.097 212.92 433.33 212.557C433.563 212.193 433.679 211.781 433.679 211.321V209.932C433.566 210.006 433.409 210.074 433.211 210.136C433.017 210.193 432.799 210.247 432.554 210.298C432.31 210.344 432.066 210.386 431.821 210.426C431.577 210.46 431.355 210.491 431.157 210.52C430.73 210.582 430.358 210.682 430.04 210.818C429.722 210.955 429.475 211.139 429.299 211.372C429.123 211.599 429.034 211.884 429.034 212.224C429.034 212.719 429.213 213.097 429.571 213.358C429.935 213.614 430.395 213.741 430.952 213.741ZM447.84 211.986L451.385 202.909H454.147L449.042 216H446.63L441.644 202.909H444.397L447.84 211.986ZM443.57 202.909V216H440.101V202.909H443.57ZM452.289 216V202.909H455.715V216H452.289ZM470.044 216.256C468.697 216.256 467.538 215.983 466.566 215.438C465.6 214.886 464.856 214.108 464.333 213.102C463.811 212.091 463.549 210.895 463.549 209.514C463.549 208.168 463.811 206.986 464.333 205.969C464.856 204.952 465.592 204.159 466.541 203.591C467.495 203.023 468.615 202.739 469.899 202.739C470.762 202.739 471.566 202.878 472.311 203.156C473.061 203.429 473.714 203.841 474.271 204.392C474.833 204.943 475.271 205.636 475.583 206.472C475.896 207.301 476.052 208.273 476.052 209.386V210.384H464.998V208.134H472.635C472.635 207.611 472.521 207.148 472.294 206.744C472.066 206.341 471.751 206.026 471.348 205.798C470.95 205.565 470.487 205.449 469.958 205.449C469.407 205.449 468.919 205.577 468.493 205.832C468.072 206.082 467.743 206.42 467.504 206.847C467.265 207.267 467.143 207.736 467.137 208.253V210.392C467.137 211.04 467.257 211.599 467.495 212.071C467.74 212.543 468.083 212.906 468.527 213.162C468.97 213.418 469.495 213.545 470.103 213.545C470.507 213.545 470.876 213.489 471.211 213.375C471.547 213.261 471.833 213.091 472.072 212.864C472.311 212.636 472.493 212.358 472.618 212.028L475.975 212.25C475.805 213.057 475.456 213.761 474.927 214.364C474.404 214.96 473.728 215.426 472.899 215.761C472.075 216.091 471.123 216.256 470.044 216.256ZM482.052 198.545V216H478.422V198.545H482.052ZM490.926 216.256C489.58 216.256 488.421 215.983 487.449 215.438C486.483 214.886 485.739 214.108 485.216 213.102C484.694 212.091 484.432 210.895 484.432 209.514C484.432 208.168 484.694 206.986 485.216 205.969C485.739 204.952 486.475 204.159 487.424 203.591C488.378 203.023 489.498 202.739 490.782 202.739C491.645 202.739 492.449 202.878 493.194 203.156C493.944 203.429 494.597 203.841 495.154 204.392C495.716 204.943 496.154 205.636 496.466 206.472C496.779 207.301 496.935 208.273 496.935 209.386V210.384H485.881V208.134H493.517C493.517 207.611 493.404 207.148 493.176 206.744C492.949 206.341 492.634 206.026 492.23 205.798C491.833 205.565 491.37 205.449 490.841 205.449C490.29 205.449 489.801 205.577 489.375 205.832C488.955 206.082 488.625 206.42 488.387 206.847C488.148 207.267 488.026 207.736 488.02 208.253V210.392C488.02 211.04 488.14 211.599 488.378 212.071C488.623 212.543 488.966 212.906 489.409 213.162C489.853 213.418 490.378 213.545 490.986 213.545C491.39 213.545 491.759 213.489 492.094 213.375C492.429 213.261 492.716 213.091 492.955 212.864C493.194 212.636 493.375 212.358 493.5 212.028L496.858 212.25C496.688 213.057 496.338 213.761 495.81 214.364C495.287 214.96 494.611 215.426 493.782 215.761C492.958 216.091 492.006 216.256 490.926 216.256ZM503.037 216.247C502.202 216.247 501.458 216.102 500.804 215.812C500.151 215.517 499.634 215.082 499.253 214.509C498.878 213.929 498.691 213.207 498.691 212.344C498.691 211.616 498.824 211.006 499.091 210.511C499.358 210.017 499.722 209.619 500.182 209.318C500.642 209.017 501.165 208.79 501.75 208.636C502.341 208.483 502.961 208.375 503.608 208.312C504.37 208.233 504.983 208.159 505.449 208.091C505.915 208.017 506.253 207.909 506.463 207.767C506.674 207.625 506.779 207.415 506.779 207.136V207.085C506.779 206.545 506.608 206.128 506.267 205.832C505.932 205.537 505.455 205.389 504.836 205.389C504.182 205.389 503.662 205.534 503.276 205.824C502.89 206.108 502.634 206.466 502.509 206.898L499.151 206.625C499.321 205.83 499.657 205.142 500.157 204.562C500.657 203.977 501.301 203.528 502.091 203.216C502.887 202.898 503.807 202.739 504.853 202.739C505.58 202.739 506.276 202.824 506.941 202.994C507.611 203.165 508.205 203.429 508.722 203.787C509.245 204.145 509.657 204.605 509.958 205.168C510.259 205.724 510.409 206.392 510.409 207.17V216H506.966V214.185H506.864C506.654 214.594 506.373 214.955 506.02 215.267C505.668 215.574 505.245 215.815 504.75 215.991C504.256 216.162 503.685 216.247 503.037 216.247ZM504.077 213.741C504.611 213.741 505.083 213.636 505.492 213.426C505.901 213.21 506.222 212.92 506.455 212.557C506.688 212.193 506.804 211.781 506.804 211.321V209.932C506.691 210.006 506.534 210.074 506.336 210.136C506.142 210.193 505.924 210.247 505.679 210.298C505.435 210.344 505.191 210.386 504.946 210.426C504.702 210.46 504.48 210.491 504.282 210.52C503.855 210.582 503.483 210.682 503.165 210.818C502.847 210.955 502.6 211.139 502.424 211.372C502.248 211.599 502.159 211.884 502.159 212.224C502.159 212.719 502.338 213.097 502.696 213.358C503.06 213.614 503.52 213.741 504.077 213.741ZM513.226 216V202.909H516.746V205.193H516.882C517.121 204.381 517.522 203.767 518.084 203.352C518.647 202.932 519.294 202.722 520.027 202.722C520.209 202.722 520.405 202.733 520.615 202.756C520.826 202.778 521.01 202.81 521.169 202.849V206.071C520.999 206.02 520.763 205.974 520.462 205.935C520.161 205.895 519.885 205.875 519.635 205.875C519.101 205.875 518.624 205.991 518.203 206.224C517.789 206.452 517.459 206.77 517.215 207.179C516.976 207.588 516.857 208.06 516.857 208.594V216H513.226ZM526.677 208.432V216H523.047V202.909H526.507V205.219H526.66C526.95 204.457 527.436 203.855 528.118 203.412C528.799 202.963 529.626 202.739 530.598 202.739C531.507 202.739 532.299 202.938 532.975 203.335C533.652 203.733 534.177 204.301 534.552 205.04C534.927 205.773 535.115 206.648 535.115 207.665V216H531.484V208.312C531.49 207.511 531.285 206.886 530.87 206.438C530.456 205.983 529.885 205.756 529.157 205.756C528.669 205.756 528.237 205.861 527.862 206.071C527.493 206.281 527.203 206.588 526.993 206.991C526.788 207.389 526.683 207.869 526.677 208.432Z" fill="url(#paint0_linear_25_85)"/>
<defs>
<linearGradient id="paint0_linear_25_85" x1="308.03" y1="192" x2="334.327" y2="251.928" gradientUnits="userSpaceOnUse">
<stop stop-color="#5955B3"/>
<stop offset="1" stop-color="#6563CE"/>
</linearGradient>
</defs>
</svg>
