<svg width="325" height="290" viewBox="0 0 325 290" fill="none" xmlns="http://www.w3.org/2000/svg">
<rect width="325" height="290" rx="5" fill="white"/>
<path d="M32.3394 133V131.409L37.2613 126.31C37.7869 125.756 38.2201 125.27 38.561 124.854C38.9067 124.432 39.1647 124.032 39.3352 123.653C39.5056 123.275 39.5909 122.872 39.5909 122.446C39.5909 121.963 39.4772 121.546 39.2499 121.196C39.0227 120.841 38.7125 120.569 38.3196 120.379C37.9266 120.185 37.4838 120.088 36.9914 120.088C36.4706 120.088 36.016 120.195 35.6278 120.408C35.2395 120.621 34.9412 120.921 34.7329 121.31C34.5246 121.698 34.4204 122.152 34.4204 122.673H32.3252C32.3252 121.788 32.5288 121.014 32.936 120.351C33.3432 119.688 33.9019 119.174 34.6122 118.81C35.3224 118.44 36.1297 118.256 37.034 118.256C37.9479 118.256 38.7528 118.438 39.4488 118.803C40.1496 119.162 40.6964 119.655 41.0894 120.28C41.4824 120.9 41.6789 121.601 41.6789 122.382C41.6789 122.922 41.5771 123.45 41.3735 123.966C41.1747 124.482 40.8267 125.057 40.3295 125.692C39.8323 126.321 39.141 127.086 38.2556 127.986L35.365 131.011V131.118H41.9133V133H32.3394ZM46.5173 133.135C46.1291 133.135 45.7953 132.998 45.5159 132.723C45.2366 132.444 45.0969 132.107 45.0969 131.714C45.0969 131.326 45.2366 130.995 45.5159 130.72C45.7953 130.441 46.1291 130.301 46.5173 130.301C46.9056 130.301 47.2394 130.441 47.5188 130.72C47.7981 130.995 47.9378 131.326 47.9378 131.714C47.9378 131.975 47.8715 132.214 47.7389 132.432C47.6111 132.645 47.4406 132.815 47.2276 132.943C47.0145 133.071 46.7778 133.135 46.5173 133.135ZM62.891 133V118.455H68.2177C69.2499 118.455 70.1045 118.625 70.7816 118.966C71.4587 119.302 71.9653 119.759 72.3015 120.337C72.6377 120.91 72.8058 121.556 72.8058 122.276C72.8058 122.882 72.6945 123.393 72.4719 123.81C72.2494 124.222 71.9511 124.553 71.5771 124.804C71.2077 125.05 70.8005 125.23 70.3555 125.344V125.486C70.8384 125.509 71.3095 125.666 71.7688 125.955C72.2328 126.239 72.6164 126.643 72.9194 127.169C73.2224 127.695 73.3739 128.334 73.3739 129.087C73.3739 129.83 73.1987 130.498 72.8484 131.089C72.5027 131.677 71.9677 132.143 71.2433 132.489C70.5188 132.83 69.5932 133 68.4663 133H62.891ZM65.0856 131.118H68.2532C69.3043 131.118 70.0572 130.914 70.5117 130.507C70.9663 130.1 71.1935 129.591 71.1935 128.98C71.1935 128.521 71.0775 128.099 70.8455 127.716C70.6135 127.332 70.2821 127.027 69.8512 126.8C69.4251 126.572 68.9184 126.459 68.3313 126.459H65.0856V131.118ZM65.0856 124.747H68.0259C68.5183 124.747 68.9611 124.652 69.354 124.463C69.7518 124.274 70.0666 124.009 70.2987 123.668C70.5354 123.322 70.6538 122.915 70.6538 122.446C70.6538 121.845 70.4431 121.34 70.0217 120.933C69.6003 120.526 68.954 120.322 68.0827 120.322H65.0856V124.747ZM75.8065 133V122.091H80.3306C81.5617 122.091 82.5371 122.354 83.2567 122.879C83.9764 123.4 84.3363 124.108 84.3363 125.003C84.3363 125.642 84.1327 126.149 83.7255 126.523C83.3183 126.897 82.7785 127.148 82.1062 127.276C82.5939 127.332 83.0413 127.479 83.4485 127.716C83.8557 127.948 84.1824 128.26 84.4286 128.653C84.6796 129.046 84.805 129.515 84.805 130.06C84.805 130.637 84.6559 131.149 84.3576 131.594C84.0593 132.034 83.6261 132.38 83.0579 132.631C82.4944 132.877 81.815 133 81.0195 133H75.8065ZM77.8022 131.224H81.0195C81.5451 131.224 81.957 131.099 82.2553 130.848C82.5536 130.597 82.7028 130.256 82.7028 129.825C82.7028 129.319 82.5536 128.921 82.2553 128.632C81.957 128.339 81.5451 128.192 81.0195 128.192H77.8022V131.224ZM77.8022 126.636H80.3519C80.7496 126.636 81.0906 126.58 81.3746 126.466C81.6635 126.352 81.8836 126.191 82.0352 125.983C82.1914 125.77 82.2695 125.519 82.2695 125.23C82.2695 124.809 82.0967 124.48 81.7511 124.243C81.4054 124.006 80.9319 123.888 80.3306 123.888H77.8022V126.636ZM91.8363 133.22C90.7615 133.22 89.8358 132.991 89.0593 132.531C88.2875 132.067 87.6909 131.416 87.2695 130.578C86.8529 129.735 86.6445 128.748 86.6445 127.616C86.6445 126.499 86.8529 125.514 87.2695 124.662C87.6909 123.81 88.2781 123.144 89.0309 122.666C89.7885 122.188 90.6739 121.949 91.6871 121.949C92.3027 121.949 92.8993 122.051 93.4769 122.254C94.0546 122.458 94.573 122.777 95.0323 123.213C95.4916 123.649 95.8538 124.214 96.119 124.911C96.3841 125.602 96.5167 126.442 96.5167 127.432V128.185H87.8448V126.594H94.4357C94.4357 126.035 94.3221 125.54 94.0948 125.109C93.8675 124.674 93.5479 124.33 93.136 124.08C92.7288 123.829 92.2506 123.703 91.7013 123.703C91.1048 123.703 90.5839 123.85 90.1388 124.143C89.6985 124.432 89.3576 124.811 89.1161 125.28C88.8794 125.744 88.761 126.248 88.761 126.793V128.036C88.761 128.765 88.8888 129.385 89.1445 129.896C89.4049 130.408 89.7672 130.798 90.2312 131.068C90.6952 131.333 91.2373 131.466 91.8576 131.466C92.2601 131.466 92.627 131.409 92.9585 131.295C93.2899 131.177 93.5763 131.002 93.8178 130.77C94.0593 130.538 94.244 130.251 94.3718 129.911L96.3817 130.273C96.2208 130.865 95.9319 131.383 95.5153 131.828C95.1033 132.268 94.5849 132.612 93.9599 132.858C93.3396 133.099 92.6317 133.22 91.8363 133.22ZM97.8075 136.146V131.161H98.6953C98.9226 130.952 99.1143 130.704 99.2706 130.415C99.4316 130.126 99.5665 129.783 99.6754 129.385C99.7891 128.987 99.8838 128.523 99.9595 127.993C100.035 127.458 100.102 126.847 100.158 126.161L100.499 122.091H107.914V131.161H109.59V136.146H107.516V133H99.9098V136.146H97.8075ZM100.968 131.161H105.84V123.909H102.403L102.175 126.161C102.067 127.306 101.929 128.301 101.763 129.143C101.598 129.982 101.333 130.654 100.968 131.161ZM113.747 130.024L118.555 122.091H120.842V133H118.761V125.06L113.974 133H111.666V122.091H113.747V130.024ZM122.344 123.923V122.091H131.549V123.923H127.99V133H125.917V123.923H122.344ZM137.989 133.22C136.914 133.22 135.988 132.991 135.212 132.531C134.44 132.067 133.843 131.416 133.422 130.578C133.005 129.735 132.797 128.748 132.797 127.616C132.797 126.499 133.005 125.514 133.422 124.662C133.843 123.81 134.43 123.144 135.183 122.666C135.941 122.188 136.826 121.949 137.839 121.949C138.455 121.949 139.052 122.051 139.629 122.254C140.207 122.458 140.725 122.777 141.185 123.213C141.644 123.649 142.006 124.214 142.271 124.911C142.536 125.602 142.669 126.442 142.669 127.432V128.185H133.997V126.594H140.588C140.588 126.035 140.474 125.54 140.247 125.109C140.02 124.674 139.7 124.33 139.288 124.08C138.881 123.829 138.403 123.703 137.854 123.703C137.257 123.703 136.736 123.85 136.291 124.143C135.851 124.432 135.51 124.811 135.268 125.28C135.032 125.744 134.913 126.248 134.913 126.793V128.036C134.913 128.765 135.041 129.385 135.297 129.896C135.557 130.408 135.92 130.798 136.384 131.068C136.848 131.333 137.39 131.466 138.01 131.466C138.412 131.466 138.779 131.409 139.111 131.295C139.442 131.177 139.729 131.002 139.97 130.77C140.212 130.538 140.396 130.251 140.524 129.911L142.534 130.273C142.373 130.865 142.084 131.383 141.668 131.828C141.256 132.268 140.737 132.612 140.112 132.858C139.492 133.099 138.784 133.22 137.989 133.22ZM146.424 133.135C146.036 133.135 145.702 132.998 145.423 132.723C145.144 132.444 145.004 132.107 145.004 131.714C145.004 131.326 145.144 130.995 145.423 130.72C145.702 130.441 146.036 130.301 146.424 130.301C146.813 130.301 147.146 130.441 147.426 130.72C147.705 130.995 147.845 131.326 147.845 131.714C147.845 131.975 147.779 132.214 147.646 132.432C147.518 132.645 147.348 132.815 147.135 132.943C146.922 133.071 146.685 133.135 146.424 133.135ZM146.424 125.195C146.036 125.195 145.702 125.055 145.423 124.776C145.144 124.496 145.004 124.162 145.004 123.774C145.004 123.386 145.144 123.054 145.423 122.78C145.702 122.5 146.036 122.361 146.424 122.361C146.813 122.361 147.146 122.5 147.426 122.78C147.705 123.054 147.845 123.386 147.845 123.774C147.845 124.035 147.779 124.274 147.646 124.491C147.518 124.705 147.348 124.875 147.135 125.003C146.922 125.131 146.685 125.195 146.424 125.195Z" fill="#2D3342"/>
<path opacity="0.2" fill-rule="evenodd" clip-rule="evenodd" d="M324.665 269.81C324.613 280.783 315.724 289.668 304.75 289.713H171.145C177.237 275.753 202.684 247.832 255.738 247.832C308.791 247.832 323.794 226.116 324.665 215.258V269.81Z" fill="#89AFFF"/>
<path opacity="0.2" fill-rule="evenodd" clip-rule="evenodd" d="M149.339 0C147.452 10.5057 135.894 40.0486 88.2783 53.4492C42.0804 66.4509 11.6465 61.9796 0.32926 57.7773L0.329256 20C0.329255 8.95432 9.28352 1.09491e-05 20.3292 1.00855e-05L149.339 0Z" fill="#89AFFF"/>
<path d="M65.9279 35.2727C65.9279 37.1761 65.5671 38.7955 64.8455 40.1307C64.1296 41.4659 63.1523 42.4858 61.9137 43.1903C60.6808 43.8892 59.2944 44.2386 57.7546 44.2386C56.2035 44.2386 54.8114 43.8864 53.5785 43.1818C52.3455 42.4773 51.3711 41.4574 50.6552 40.1222C49.9393 38.7869 49.5813 37.1705 49.5813 35.2727C49.5813 33.3693 49.9393 31.75 50.6552 30.4148C51.3711 29.0795 52.3455 28.0625 53.5785 27.3636C54.8114 26.6591 56.2035 26.3068 57.7546 26.3068C59.2944 26.3068 60.6808 26.6591 61.9137 27.3636C63.1523 28.0625 64.1296 29.0795 64.8455 30.4148C65.5671 31.75 65.9279 33.3693 65.9279 35.2727ZM62.1864 35.2727C62.1864 34.0398 62.0018 33 61.6325 32.1534C61.2688 31.3068 60.7546 30.6648 60.0898 30.2273C59.4251 29.7898 58.6467 29.571 57.7546 29.571C56.8626 29.571 56.0842 29.7898 55.4194 30.2273C54.7546 30.6648 54.2376 31.3068 53.8683 32.1534C53.5046 33 53.3228 34.0398 53.3228 35.2727C53.3228 36.5057 53.5046 37.5455 53.8683 38.392C54.2376 39.2386 54.7546 39.8807 55.4194 40.3182C56.0842 40.7557 56.8626 40.9744 57.7546 40.9744C58.6467 40.9744 59.4251 40.7557 60.0898 40.3182C60.7546 39.8807 61.2688 39.2386 61.6325 38.392C62.0018 37.5455 62.1864 36.5057 62.1864 35.2727ZM68.5934 44V30.9091H72.2241V35.9886H73.2468L76.8093 30.9091H81.0707L76.4428 37.4034L81.1218 44H76.8093L73.5792 39.3551H72.2241V44H68.5934ZM91.7667 36.0057V38.8608H84.9315V36.0057H91.7667ZM86.1246 30.9091V44H82.6559V30.9091H86.1246ZM94.0423 30.9091V44H90.5991V30.9091H94.0423ZM102.774 44.2557C101.45 44.2557 100.305 43.9744 99.3391 43.4119C98.3789 42.8437 97.6374 42.054 97.1147 41.0426C96.592 40.0256 96.3306 38.8466 96.3306 37.5057C96.3306 36.1534 96.592 34.9716 97.1147 33.9602C97.6374 32.9432 98.3789 32.1534 99.3391 31.5909C100.305 31.0227 101.45 30.7386 102.774 30.7386C104.098 30.7386 105.24 31.0227 106.2 31.5909C107.166 32.1534 107.91 32.9432 108.433 33.9602C108.956 34.9716 109.217 36.1534 109.217 37.5057C109.217 38.8466 108.956 40.0256 108.433 41.0426C107.91 42.054 107.166 42.8437 106.2 43.4119C105.24 43.9744 104.098 44.2557 102.774 44.2557ZM102.791 41.4432C103.393 41.4432 103.896 41.2727 104.299 40.9318C104.703 40.5852 105.007 40.1136 105.211 39.517C105.422 38.9205 105.527 38.2415 105.527 37.4801C105.527 36.7188 105.422 36.0398 105.211 35.4432C105.007 34.8466 104.703 34.375 104.299 34.0284C103.896 33.6818 103.393 33.5085 102.791 33.5085C102.183 33.5085 101.672 33.6818 101.257 34.0284C100.848 34.375 100.538 34.8466 100.328 35.4432C100.123 36.0398 100.021 36.7188 100.021 37.4801C100.021 38.2415 100.123 38.9205 100.328 39.517C100.538 40.1136 100.848 40.5852 101.257 40.9318C101.672 41.2727 102.183 41.4432 102.791 41.4432ZM120.209 44H116.255L122.28 26.5455H127.036L133.053 44H129.098L124.726 30.5341H124.59L120.209 44ZM119.962 37.1392H129.303V40.0199H119.962V37.1392ZM135.086 44V30.9091H140.668C142.282 30.9091 143.557 31.2159 144.495 31.8295C145.432 32.4432 145.901 33.3153 145.901 34.446C145.901 35.1562 145.637 35.7472 145.108 36.2188C144.58 36.6903 143.847 37.0085 142.909 37.1733C143.694 37.2301 144.361 37.4091 144.912 37.7102C145.469 38.0057 145.892 38.3892 146.182 38.8608C146.478 39.3324 146.625 39.8551 146.625 40.429C146.625 41.1733 146.426 41.8125 146.029 42.3466C145.637 42.8807 145.06 43.2898 144.299 43.5739C143.543 43.858 142.62 44 141.529 44H135.086ZM138.469 41.2812H141.529C142.034 41.2812 142.429 41.1619 142.713 40.9233C143.003 40.679 143.148 40.3466 143.148 39.9261C143.148 39.4602 143.003 39.0937 142.713 38.8267C142.429 38.5597 142.034 38.4261 141.529 38.4261H138.469V41.2812ZM138.469 36.2955H140.745C141.108 36.2955 141.418 36.2443 141.674 36.142C141.935 36.0341 142.134 35.8807 142.27 35.6818C142.412 35.483 142.483 35.2472 142.483 34.9744C142.483 34.571 142.321 34.2557 141.998 34.0284C141.674 33.8011 141.23 33.6875 140.668 33.6875H138.469V36.2955ZM148.232 33.7642V30.9091H160.096V33.7642H155.877V44H152.417V33.7642H148.232ZM167.743 44.2557C166.419 44.2557 165.274 43.9744 164.308 43.4119C163.348 42.8437 162.606 42.054 162.083 41.0426C161.561 40.0256 161.299 38.8466 161.299 37.5057C161.299 36.1534 161.561 34.9716 162.083 33.9602C162.606 32.9432 163.348 32.1534 164.308 31.5909C165.274 31.0227 166.419 30.7386 167.743 30.7386C169.066 30.7386 170.208 31.0227 171.169 31.5909C172.135 32.1534 172.879 32.9432 173.402 33.9602C173.924 34.9716 174.186 36.1534 174.186 37.5057C174.186 38.8466 173.924 40.0256 173.402 41.0426C172.879 42.054 172.135 42.8437 171.169 43.4119C170.208 43.9744 169.066 44.2557 167.743 44.2557ZM167.76 41.4432C168.362 41.4432 168.865 41.2727 169.268 40.9318C169.672 40.5852 169.975 40.1136 170.18 39.517C170.39 38.9205 170.495 38.2415 170.495 37.4801C170.495 36.7188 170.39 36.0398 170.18 35.4432C169.975 34.8466 169.672 34.375 169.268 34.0284C168.865 33.6818 168.362 33.5085 167.76 33.5085C167.152 33.5085 166.64 33.6818 166.225 34.0284C165.816 34.375 165.507 34.8466 165.297 35.4432C165.092 36.0398 164.99 36.7188 164.99 37.4801C164.99 38.2415 165.092 38.9205 165.297 39.517C165.507 40.1136 165.816 40.5852 166.225 40.9318C166.64 41.2727 167.152 41.4432 167.76 41.4432ZM176.547 48.9091V30.9091H180.126V33.108H180.288C180.447 32.7557 180.677 32.3977 180.978 32.0341C181.285 31.6648 181.683 31.358 182.172 31.1136C182.666 30.8636 183.279 30.7386 184.012 30.7386C184.967 30.7386 185.848 30.9886 186.654 31.4886C187.461 31.983 188.106 32.7301 188.589 33.7301C189.072 34.7244 189.314 35.9716 189.314 37.4716C189.314 38.9318 189.078 40.1648 188.606 41.1705C188.14 42.1705 187.504 42.929 186.697 43.446C185.896 43.9574 184.998 44.2131 184.004 44.2131C183.299 44.2131 182.7 44.0966 182.206 43.8636C181.717 43.6307 181.316 43.3381 181.004 42.9858C180.691 42.6278 180.453 42.267 180.288 41.9034H180.177V48.9091H176.547ZM180.1 37.4545C180.1 38.233 180.208 38.9119 180.424 39.4915C180.64 40.071 180.953 40.5227 181.362 40.8466C181.771 41.1648 182.268 41.3239 182.853 41.3239C183.444 41.3239 183.944 41.1619 184.353 40.8381C184.762 40.5085 185.072 40.054 185.282 39.4744C185.498 38.8892 185.606 38.2159 185.606 37.4545C185.606 36.6989 185.501 36.0341 185.291 35.4602C185.081 34.8864 184.771 34.4375 184.362 34.1136C183.953 33.7898 183.45 33.6278 182.853 33.6278C182.262 33.6278 181.762 33.7841 181.353 34.0966C180.95 34.4091 180.64 34.8523 180.424 35.4261C180.208 36 180.1 36.6761 180.1 37.4545ZM195.203 39.2102L199.916 30.9091H203.495V44H200.035V35.6733L195.339 44H191.734V30.9091H195.203V39.2102ZM205.733 40.2926H209.252C209.27 40.7244 209.463 41.0653 209.832 41.3153C210.201 41.5653 210.679 41.6903 211.264 41.6903C211.855 41.6903 212.352 41.554 212.755 41.2812C213.159 41.0028 213.36 40.6051 213.36 40.0881C213.36 39.7699 213.281 39.4943 213.122 39.2614C212.963 39.0227 212.741 38.8352 212.457 38.6989C212.173 38.5625 211.843 38.4943 211.468 38.4943H209.585V36.1165H211.468C212.031 36.1165 212.463 35.9858 212.764 35.7244C213.071 35.4631 213.224 35.1364 213.224 34.7443C213.224 34.3011 213.065 33.946 212.747 33.679C212.434 33.4062 212.011 33.2699 211.477 33.2699C210.937 33.2699 210.488 33.392 210.13 33.6364C209.778 33.875 209.596 34.1875 209.585 34.5739H206.082C206.093 33.7898 206.329 33.1108 206.789 32.5369C207.255 31.9631 207.88 31.5199 208.664 31.2074C209.454 30.8949 210.338 30.7386 211.315 30.7386C212.383 30.7386 213.304 30.8892 214.076 31.1903C214.855 31.4858 215.451 31.9091 215.866 32.4602C216.287 33.0114 216.497 33.6676 216.497 34.429C216.497 35.1222 216.27 35.7017 215.815 36.1676C215.36 36.6335 214.724 36.9659 213.906 37.1648V37.3011C214.446 37.3352 214.934 37.4801 215.372 37.7358C215.809 37.9915 216.159 38.3437 216.42 38.7926C216.681 39.2358 216.812 39.7614 216.812 40.3693C216.812 41.1818 216.574 41.8778 216.096 42.4574C215.625 43.0369 214.971 43.483 214.136 43.7955C213.306 44.1023 212.355 44.2557 211.281 44.2557C210.235 44.2557 209.298 44.1051 208.468 43.804C207.645 43.4972 206.988 43.0483 206.5 42.4574C206.017 41.8665 205.761 41.1449 205.733 40.2926ZM222.772 44.2472C221.936 44.2472 221.192 44.1023 220.539 43.8125C219.885 43.517 219.368 43.0824 218.988 42.5085C218.613 41.929 218.425 41.2074 218.425 40.3438C218.425 39.6165 218.559 39.0057 218.826 38.5114C219.093 38.017 219.456 37.6193 219.917 37.3182C220.377 37.017 220.9 36.7898 221.485 36.6364C222.076 36.483 222.695 36.375 223.343 36.3125C224.104 36.233 224.718 36.1591 225.184 36.0909C225.65 36.017 225.988 35.9091 226.198 35.767C226.408 35.625 226.513 35.4148 226.513 35.1364V35.0852C226.513 34.5455 226.343 34.1278 226.002 33.8324C225.667 33.5369 225.189 33.3892 224.57 33.3892C223.917 33.3892 223.397 33.5341 223.01 33.8239C222.624 34.108 222.368 34.4659 222.243 34.8977L218.885 34.625C219.056 33.8295 219.391 33.142 219.891 32.5625C220.391 31.9773 221.036 31.5284 221.826 31.2159C222.621 30.8977 223.542 30.7386 224.587 30.7386C225.314 30.7386 226.01 30.8239 226.675 30.9943C227.346 31.1648 227.939 31.429 228.456 31.7869C228.979 32.1449 229.391 32.6051 229.692 33.1676C229.993 33.7244 230.144 34.392 230.144 35.1705V44H226.701V42.1847H226.598C226.388 42.5938 226.107 42.9545 225.755 43.267C225.402 43.5739 224.979 43.8153 224.485 43.9915C223.99 44.1619 223.419 44.2472 222.772 44.2472ZM223.811 41.7415C224.346 41.7415 224.817 41.6364 225.226 41.4261C225.635 41.2102 225.956 40.9205 226.189 40.5568C226.422 40.1932 226.539 39.7812 226.539 39.321V37.9318C226.425 38.0057 226.269 38.0739 226.07 38.1364C225.877 38.1932 225.658 38.2472 225.414 38.2983C225.169 38.3437 224.925 38.3864 224.681 38.4261C224.436 38.4602 224.215 38.4915 224.016 38.5199C223.59 38.5824 223.218 38.6818 222.9 38.8182C222.581 38.9545 222.334 39.1392 222.158 39.3722C221.982 39.5994 221.894 39.8835 221.894 40.2244C221.894 40.7188 222.073 41.0966 222.431 41.358C222.794 41.6136 223.255 41.7415 223.811 41.7415ZM244.407 30.9091V41.4943H246.495V48.2102H242.966V44H232.961V30.9091H236.429V41.1449H240.98V30.9091H244.407ZM252.203 39.2102L256.916 30.9091H260.495V44H257.035V35.6733L252.339 44H248.734V30.9091H252.203V39.2102ZM266.875 39.2102L271.588 30.9091H275.167V44H271.707V35.6733L267.011 44H263.406V30.9091H266.875V39.2102Z" fill="url(#paint0_linear_1333_7135)"/>
<path d="M36.3068 73.4545V88H34.1051V75.6562H34.0198L30.5397 77.929V75.8267L34.169 73.4545H36.3068ZM43.5173 88.1349C43.1291 88.1349 42.7953 87.9976 42.5159 87.723C42.2366 87.4437 42.0969 87.1075 42.0969 86.7145C42.0969 86.3262 42.2366 85.9948 42.5159 85.7202C42.7953 85.4408 43.1291 85.3011 43.5173 85.3011C43.9056 85.3011 44.2394 85.4408 44.5188 85.7202C44.7981 85.9948 44.9378 86.3262 44.9378 86.7145C44.9378 86.9749 44.8715 87.214 44.7389 87.4318C44.6111 87.6449 44.4406 87.8153 44.2276 87.9432C44.0145 88.071 43.7778 88.1349 43.5173 88.1349ZM54.598 88V73.4545H56.7926V79.7756H64.044V73.4545H66.2457V88H64.044V81.6577H56.7926V88H54.598ZM72.446 88.2415C71.7547 88.2415 71.1297 88.1136 70.571 87.858C70.0123 87.5975 69.5696 87.2211 69.2429 86.7287C68.9209 86.2363 68.7599 85.6326 68.7599 84.9176C68.7599 84.3021 68.8783 83.7955 69.1151 83.3977C69.3518 83 69.6714 82.6851 70.0739 82.4531C70.4763 82.2211 70.9261 82.0459 71.4233 81.9276C71.9205 81.8092 72.4271 81.7192 72.9432 81.6577C73.5966 81.5819 74.1269 81.5204 74.5341 81.473C74.9413 81.4209 75.2372 81.3381 75.4219 81.2244C75.6065 81.1108 75.6989 80.9261 75.6989 80.6705V80.6207C75.6989 80.0005 75.5237 79.5199 75.1733 79.179C74.8277 78.8381 74.3116 78.6676 73.625 78.6676C72.91 78.6676 72.3466 78.8262 71.9347 79.1435C71.5275 79.456 71.2457 79.804 71.0895 80.1875L69.0938 79.733C69.3305 79.0701 69.6761 78.535 70.1307 78.1278C70.59 77.7159 71.1179 77.4176 71.7145 77.233C72.3111 77.0436 72.9384 76.9489 73.5966 76.9489C74.0322 76.9489 74.4938 77.0009 74.9815 77.1051C75.474 77.2045 75.9332 77.3892 76.3594 77.6591C76.7902 77.929 77.143 78.3149 77.4176 78.8168C77.6922 79.3139 77.8295 79.9602 77.8295 80.7557V88H75.7557V86.5085H75.6705C75.5331 86.7831 75.3272 87.053 75.0526 87.3182C74.7779 87.5833 74.4252 87.8035 73.9943 87.9787C73.5634 88.1539 73.0473 88.2415 72.446 88.2415ZM72.9077 86.5369C73.4948 86.5369 73.9967 86.4209 74.4134 86.1889C74.8348 85.9569 75.1544 85.6539 75.3722 85.2798C75.5947 84.901 75.706 84.4962 75.706 84.0653V82.6591C75.6302 82.7348 75.4834 82.8059 75.2656 82.8722C75.0526 82.9337 74.8087 82.9882 74.5341 83.0355C74.2595 83.0781 73.992 83.1184 73.7315 83.1562C73.4711 83.1894 73.2533 83.2178 73.0781 83.2415C72.6662 83.2936 72.2898 83.3812 71.9489 83.5043C71.6127 83.6274 71.3428 83.8049 71.1392 84.0369C70.9403 84.2642 70.8409 84.5672 70.8409 84.946C70.8409 85.4716 71.035 85.8693 71.4233 86.1392C71.8116 86.4044 72.3063 86.5369 72.9077 86.5369ZM79.962 88L84.1879 82.4176L80.0117 77.0909H82.4833L85.8569 81.6222H86.6168V77.0909H88.7404V81.6222H89.479L92.8526 77.0909H95.3242L91.1694 82.4176L95.3739 88H92.8526L89.4506 83.4545H88.7404V88H86.6168V83.4545H85.9066L82.4833 88H79.962ZM103.655 85.3722L107.178 77.0909H109.01L104.444 88H102.867L98.3924 77.0909H100.203L103.655 85.3722ZM99.614 77.0909V88H97.533V77.0909H99.614ZM107.753 88V77.0909H109.82V88H107.753ZM114.731 85.0241L119.539 77.0909H121.826V88H119.745V80.0597L114.958 88H112.65V77.0909H114.731V85.0241ZM123.328 78.9233V77.0909H132.533V78.9233H128.975V88H126.901V78.9233H123.328ZM138.973 88.2202C137.898 88.2202 136.973 87.9905 136.196 87.5312C135.424 87.0672 134.828 86.4162 134.406 85.5781C133.99 84.7353 133.781 83.7481 133.781 82.6165C133.781 81.4991 133.99 80.5142 134.406 79.6619C134.828 78.8097 135.415 78.1444 136.168 77.6662C136.925 77.188 137.811 76.9489 138.824 76.9489C139.439 76.9489 140.036 77.0507 140.614 77.2543C141.191 77.4579 141.71 77.7775 142.169 78.2131C142.628 78.6487 142.991 79.2145 143.256 79.9105C143.521 80.6018 143.653 81.4422 143.653 82.4318V83.1847H134.982V81.5938H141.572C141.572 81.035 141.459 80.5402 141.232 80.1094C141.004 79.6738 140.685 79.3305 140.273 79.0795C139.866 78.8286 139.387 78.7031 138.838 78.7031C138.241 78.7031 137.721 78.8499 137.276 79.1435C136.835 79.4323 136.494 79.8111 136.253 80.2798C136.016 80.7438 135.898 81.2481 135.898 81.7926V83.0355C135.898 83.7647 136.026 84.3849 136.281 84.8963C136.542 85.4077 136.904 85.7983 137.368 86.0682C137.832 86.3333 138.374 86.4659 138.994 86.4659C139.397 86.4659 139.764 86.4091 140.095 86.2955C140.427 86.1771 140.713 86.0019 140.955 85.7699C141.196 85.5379 141.381 85.2514 141.509 84.9105L143.518 85.2727C143.357 85.8646 143.069 86.383 142.652 86.8281C142.24 87.2685 141.722 87.6117 141.097 87.858C140.476 88.0994 139.768 88.2202 138.973 88.2202ZM151.303 88V77.0909H153.426V81.6648H154.449L158.05 77.0909H160.678L156.452 82.3963L160.727 88H158.092L154.804 83.6392H153.426V88H151.303ZM169.77 81.6293V83.4688H163.861V81.6293H169.77ZM164.458 77.0909V88H162.377V77.0909H164.458ZM171.255 77.0909V88H169.181V77.0909H171.255ZM178.691 88.2202C177.668 88.2202 176.775 87.9858 176.013 87.517C175.251 87.0483 174.659 86.3925 174.238 85.5497C173.816 84.7069 173.605 83.7221 173.605 82.5952C173.605 81.4635 173.816 80.474 174.238 79.6264C174.659 78.7789 175.251 78.1207 176.013 77.652C176.775 77.1832 177.668 76.9489 178.691 76.9489C179.713 76.9489 180.606 77.1832 181.368 77.652C182.131 78.1207 182.722 78.7789 183.144 79.6264C183.565 80.474 183.776 81.4635 183.776 82.5952C183.776 83.7221 183.565 84.7069 183.144 85.5497C182.722 86.3925 182.131 87.0483 181.368 87.517C180.606 87.9858 179.713 88.2202 178.691 88.2202ZM178.698 86.4375C179.361 86.4375 179.91 86.2623 180.346 85.9119C180.781 85.5616 181.103 85.0952 181.311 84.5128C181.525 83.9304 181.631 83.2888 181.631 82.5881C181.631 81.892 181.525 81.2528 181.311 80.6705C181.103 80.0833 180.781 79.6122 180.346 79.2571C179.91 78.902 179.361 78.7244 178.698 78.7244C178.03 78.7244 177.476 78.902 177.036 79.2571C176.6 79.6122 176.276 80.0833 176.063 80.6705C175.855 81.2528 175.75 81.892 175.75 82.5881C175.75 83.2888 175.855 83.9304 176.063 84.5128C176.276 85.0952 176.6 85.5616 177.036 85.9119C177.476 86.2623 178.03 86.4375 178.698 86.4375ZM186.146 88V77.0909H195.045V88H192.964V78.9233H188.213V88H186.146ZM197.885 88V77.0909H200.008V81.6648H201.031L204.632 77.0909H207.26L203.034 82.3963L207.309 88H204.674L201.386 83.6392H200.008V88H197.885ZM210.36 92.0909C210.042 92.0909 209.754 92.0649 209.493 92.0128C209.233 91.9654 209.039 91.9134 208.911 91.8565L209.422 90.1165C209.81 90.2206 210.156 90.2656 210.459 90.2514C210.762 90.2372 211.03 90.1236 211.262 89.9105C211.498 89.6974 211.707 89.3494 211.887 88.8665L212.15 88.142L208.158 77.0909H210.431L213.194 85.5568H213.307L216.07 77.0909H218.35L213.854 89.456C213.646 90.0241 213.381 90.5047 213.059 90.8977C212.737 91.2955 212.353 91.5938 211.908 91.7926C211.463 91.9915 210.947 92.0909 210.36 92.0909Z" fill="#2D3342"/>
<path d="M225.475 88V73.4545H231.299C232.369 73.4545 233.262 73.6132 233.977 73.9304C234.692 74.2476 235.229 74.688 235.589 75.2514C235.949 75.8101 236.129 76.4541 236.129 77.1832C236.129 77.7514 236.015 78.2509 235.788 78.6818C235.56 79.108 235.248 79.4583 234.85 79.733C234.457 80.0028 234.007 80.1946 233.501 80.3082V80.4503C234.055 80.474 234.573 80.6302 235.056 80.919C235.544 81.2079 235.939 81.6127 236.242 82.1335C236.545 82.6496 236.697 83.2652 236.697 83.9801C236.697 84.7519 236.505 85.4408 236.121 86.0469C235.743 86.6482 235.182 87.1241 234.438 87.4744C233.695 87.8248 232.779 88 231.69 88H225.475ZM228.55 85.4858H231.058C231.915 85.4858 232.54 85.3224 232.933 84.9957C233.326 84.6643 233.522 84.224 233.522 83.6747C233.522 83.2723 233.425 82.9171 233.231 82.6094C233.037 82.3016 232.76 82.0601 232.4 81.8849C232.045 81.7098 231.621 81.6222 231.129 81.6222H228.55V85.4858ZM228.55 79.5412H230.83C231.252 79.5412 231.626 79.4678 231.952 79.321C232.284 79.1695 232.544 78.9564 232.734 78.6818C232.928 78.4072 233.025 78.0781 233.025 77.6946C233.025 77.169 232.838 76.7453 232.464 76.4233C232.094 76.1013 231.569 75.9403 230.887 75.9403H228.55V79.5412ZM241.169 77.0909L243.172 80.9048L245.225 77.0909H248.328L245.168 82.5455L248.414 88H245.324L243.172 84.2287L241.056 88H237.931L241.169 82.5455L238.044 77.0909H241.169ZM254.664 88.2131C253.56 88.2131 252.606 87.9787 251.801 87.5099C251.001 87.0365 250.383 86.3783 249.948 85.5355C249.512 84.688 249.294 83.7055 249.294 82.5881C249.294 81.4612 249.512 80.4763 249.948 79.6335C250.383 78.786 251.001 78.1278 251.801 77.6591C252.606 77.1856 253.56 76.9489 254.664 76.9489C255.767 76.9489 256.719 77.1856 257.519 77.6591C258.324 78.1278 258.944 78.786 259.38 79.6335C259.815 80.4763 260.033 81.4612 260.033 82.5881C260.033 83.7055 259.815 84.688 259.38 85.5355C258.944 86.3783 258.324 87.0365 257.519 87.5099C256.719 87.9787 255.767 88.2131 254.664 88.2131ZM254.678 85.8693C255.18 85.8693 255.599 85.7273 255.935 85.4432C256.271 85.1544 256.525 84.7614 256.695 84.2642C256.87 83.767 256.958 83.2012 256.958 82.5668C256.958 81.9323 256.87 81.3665 256.695 80.8693C256.525 80.3722 256.271 79.9792 255.935 79.6903C255.599 79.4015 255.18 79.2571 254.678 79.2571C254.171 79.2571 253.745 79.4015 253.4 79.6903C253.059 79.9792 252.801 80.3722 252.625 80.8693C252.455 81.3665 252.37 81.9323 252.37 82.5668C252.37 83.2012 252.455 83.767 252.625 84.2642C252.801 84.7614 253.059 85.1544 253.4 85.4432C253.745 85.7273 254.171 85.8693 254.678 85.8693ZM261.148 91.196V85.5994H261.986C262.228 85.4479 262.422 85.2064 262.569 84.875C262.72 84.5436 262.843 84.1529 262.938 83.7031C263.037 83.2533 263.113 82.768 263.165 82.2472C263.222 81.7216 263.272 81.1913 263.314 80.6562L263.598 77.0909H271.965V85.5994H273.655V91.196H270.772V88H264.103V91.196H261.148ZM264.998 85.5994H269.11V79.4205H266.169L266.056 80.6562C265.975 81.821 265.859 82.8106 265.708 83.625C265.556 84.4347 265.319 85.0928 264.998 85.5994Z" fill="#5955B3"/>
<path d="M267.363 181.853C147.038 162.097 55.956 162.547 33.0555 202.554C8.53827 245.385 426.341 222.708 267.363 181.853Z" stroke="#5A56B4" stroke-width="2" stroke-linecap="round"/>
<path d="M97.3842 185L97.3729 183.08H97.6626C97.8672 183.08 98.0433 183.03 98.1911 182.932C98.3426 182.83 98.4676 182.665 98.5661 182.438C98.6645 182.21 98.7422 181.909 98.799 181.534C98.8558 181.155 98.8937 180.689 98.9126 180.136L99.0547 176.273H105.691V185H103.384V178.176H101.231L101.094 180.841C101.06 181.572 100.971 182.201 100.827 182.727C100.687 183.254 100.492 183.686 100.242 184.023C99.9922 184.356 99.6911 184.602 99.3388 184.761C98.9865 184.92 98.5774 185 98.1115 185H97.3842ZM111.511 185.17C110.628 185.17 109.865 184.983 109.221 184.608C108.581 184.229 108.086 183.703 107.738 183.028C107.389 182.35 107.215 181.564 107.215 180.67C107.215 179.769 107.389 178.981 107.738 178.307C108.086 177.629 108.581 177.102 109.221 176.727C109.865 176.348 110.628 176.159 111.511 176.159C112.393 176.159 113.155 176.348 113.795 176.727C114.439 177.102 114.935 177.629 115.283 178.307C115.632 178.981 115.806 179.769 115.806 180.67C115.806 181.564 115.632 182.35 115.283 183.028C114.935 183.703 114.439 184.229 113.795 184.608C113.155 184.983 112.393 185.17 111.511 185.17ZM111.522 183.295C111.924 183.295 112.259 183.182 112.528 182.955C112.797 182.723 112.999 182.409 113.136 182.011C113.276 181.614 113.346 181.161 113.346 180.653C113.346 180.146 113.276 179.693 113.136 179.295C112.999 178.898 112.797 178.583 112.528 178.352C112.259 178.121 111.924 178.006 111.522 178.006C111.117 178.006 110.776 178.121 110.499 178.352C110.227 178.583 110.02 178.898 109.88 179.295C109.744 179.693 109.675 180.146 109.675 180.653C109.675 181.161 109.744 181.614 109.88 182.011C110.02 182.409 110.227 182.723 110.499 182.955C110.776 183.182 111.117 183.295 111.522 183.295ZM123.357 176.273V178.176H119.732V185H117.38V176.273H123.357ZM127.146 181.807L130.288 176.273H132.674V185H130.367V179.449L127.237 185H124.833V176.273H127.146V181.807ZM140.688 179.67V181.574H136.131V179.67H140.688ZM136.927 176.273V185H134.614V176.273H136.927ZM142.205 176.273V185H139.91V176.273H142.205ZM150.158 182.619L154.005 176.273H155.835V185H154.17V178.648L150.34 185H148.494V176.273H150.158V182.619ZM162.177 185V176.273H169.808V185H167.495V178.176H164.461V185H162.177ZM174.228 185.165C173.671 185.165 173.175 185.068 172.739 184.875C172.304 184.678 171.959 184.388 171.705 184.006C171.455 183.619 171.33 183.138 171.33 182.562C171.33 182.078 171.419 181.67 171.597 181.341C171.775 181.011 172.018 180.746 172.325 180.545C172.631 180.345 172.98 180.193 173.37 180.091C173.764 179.989 174.177 179.917 174.609 179.875C175.116 179.822 175.525 179.773 175.836 179.727C176.147 179.678 176.372 179.606 176.512 179.511C176.652 179.417 176.722 179.277 176.722 179.091V179.057C176.722 178.697 176.609 178.419 176.381 178.222C176.158 178.025 175.84 177.926 175.427 177.926C174.991 177.926 174.645 178.023 174.387 178.216C174.129 178.405 173.959 178.644 173.876 178.932L171.637 178.75C171.751 178.22 171.974 177.761 172.308 177.375C172.641 176.985 173.071 176.686 173.597 176.477C174.128 176.265 174.741 176.159 175.438 176.159C175.923 176.159 176.387 176.216 176.83 176.33C177.277 176.443 177.673 176.619 178.018 176.858C178.366 177.097 178.641 177.403 178.842 177.778C179.042 178.15 179.143 178.595 179.143 179.114V185H176.847V183.79H176.779C176.639 184.062 176.451 184.303 176.217 184.511C175.982 184.716 175.7 184.877 175.37 184.994C175.04 185.108 174.66 185.165 174.228 185.165ZM174.921 183.494C175.277 183.494 175.592 183.424 175.864 183.284C176.137 183.14 176.351 182.947 176.506 182.705C176.662 182.462 176.739 182.187 176.739 181.881V180.955C176.664 181.004 176.559 181.049 176.427 181.091C176.298 181.129 176.152 181.165 175.989 181.199C175.826 181.229 175.664 181.258 175.501 181.284C175.338 181.307 175.19 181.328 175.058 181.347C174.773 181.388 174.525 181.455 174.313 181.545C174.101 181.636 173.936 181.759 173.819 181.915C173.701 182.066 173.643 182.256 173.643 182.483C173.643 182.812 173.762 183.064 174.001 183.239C174.243 183.409 174.55 183.494 174.921 183.494ZM181.021 188.273V176.273H183.407V177.739H183.515C183.621 177.504 183.774 177.265 183.975 177.023C184.18 176.777 184.445 176.572 184.771 176.409C185.1 176.242 185.509 176.159 185.998 176.159C186.634 176.159 187.221 176.326 187.759 176.659C188.297 176.989 188.727 177.487 189.049 178.153C189.371 178.816 189.532 179.648 189.532 180.648C189.532 181.621 189.375 182.443 189.06 183.114C188.75 183.78 188.326 184.286 187.788 184.631C187.254 184.972 186.655 185.142 185.992 185.142C185.522 185.142 185.123 185.064 184.793 184.909C184.468 184.754 184.201 184.559 183.992 184.324C183.784 184.085 183.625 183.845 183.515 183.602H183.441V188.273H181.021ZM183.39 180.636C183.39 181.155 183.462 181.608 183.606 181.994C183.75 182.381 183.958 182.682 184.231 182.898C184.504 183.11 184.835 183.216 185.225 183.216C185.619 183.216 185.952 183.108 186.225 182.892C186.498 182.672 186.704 182.369 186.844 181.983C186.988 181.593 187.06 181.144 187.06 180.636C187.06 180.133 186.99 179.689 186.85 179.307C186.71 178.924 186.504 178.625 186.231 178.409C185.958 178.193 185.623 178.085 185.225 178.085C184.831 178.085 184.498 178.189 184.225 178.398C183.956 178.606 183.75 178.902 183.606 179.284C183.462 179.667 183.39 180.117 183.39 180.636ZM195.089 185.17C194.206 185.17 193.443 184.983 192.799 184.608C192.159 184.229 191.665 183.703 191.316 183.028C190.968 182.35 190.793 181.564 190.793 180.67C190.793 179.769 190.968 178.981 191.316 178.307C191.665 177.629 192.159 177.102 192.799 176.727C193.443 176.348 194.206 176.159 195.089 176.159C195.971 176.159 196.733 176.348 197.373 176.727C198.017 177.102 198.513 177.629 198.862 178.307C199.21 178.981 199.384 179.769 199.384 180.67C199.384 181.564 199.21 182.35 198.862 183.028C198.513 183.703 198.017 184.229 197.373 184.608C196.733 184.983 195.971 185.17 195.089 185.17ZM195.1 183.295C195.502 183.295 195.837 183.182 196.106 182.955C196.375 182.723 196.577 182.409 196.714 182.011C196.854 181.614 196.924 181.161 196.924 180.653C196.924 180.146 196.854 179.693 196.714 179.295C196.577 178.898 196.375 178.583 196.106 178.352C195.837 178.121 195.502 178.006 195.1 178.006C194.695 178.006 194.354 178.121 194.077 178.352C193.805 178.583 193.598 178.898 193.458 179.295C193.322 179.693 193.254 180.146 193.254 180.653C193.254 181.161 193.322 181.614 193.458 182.011C193.598 182.409 193.805 182.723 194.077 182.955C194.354 183.182 194.695 183.295 195.1 183.295ZM200.447 185L200.435 183.08H200.725C200.93 183.08 201.106 183.03 201.254 182.932C201.405 182.83 201.53 182.665 201.629 182.438C201.727 182.21 201.805 181.909 201.862 181.534C201.918 181.155 201.956 180.689 201.975 180.136L202.117 176.273H208.754V185H206.447V178.176H204.293L204.157 180.841C204.123 181.572 204.034 182.201 203.89 182.727C203.75 183.254 203.555 183.686 203.305 184.023C203.055 184.356 202.754 184.602 202.401 184.761C202.049 184.92 201.64 185 201.174 185H200.447ZM212.147 178.955H214.755C215.91 178.955 216.812 179.231 217.46 179.784C218.107 180.333 218.431 181.068 218.431 181.989C218.431 182.587 218.285 183.114 217.994 183.568C217.702 184.019 217.281 184.371 216.732 184.625C216.183 184.875 215.524 185 214.755 185H210.63V176.273H212.942V183.097H214.755C215.16 183.097 215.494 182.994 215.755 182.79C216.016 182.585 216.149 182.324 216.153 182.006C216.149 181.669 216.016 181.394 215.755 181.182C215.494 180.966 215.16 180.858 214.755 180.858H212.147V178.955Z" fill="#2D3342"/>
<path d="M62.005 204V195.273H64.4254V198.659H65.1072L67.4822 195.273H70.3232L67.2379 199.602L70.3572 204H67.4822L65.3288 200.903H64.4254V204H62.005ZM74.9638 204.17C74.0812 204.17 73.3179 203.983 72.674 203.608C72.0339 203.229 71.5395 202.703 71.1911 202.028C70.8426 201.35 70.6683 200.564 70.6683 199.67C70.6683 198.769 70.8426 197.981 71.1911 197.307C71.5395 196.629 72.0339 196.102 72.674 195.727C73.3179 195.348 74.0812 195.159 74.9638 195.159C75.8464 195.159 76.6077 195.348 77.2479 195.727C77.8918 196.102 78.388 196.629 78.7365 197.307C79.085 197.981 79.2592 198.769 79.2592 199.67C79.2592 200.564 79.085 201.35 78.7365 202.028C78.388 202.703 77.8918 203.229 77.2479 203.608C76.6077 203.983 75.8464 204.17 74.9638 204.17ZM74.9751 202.295C75.3767 202.295 75.7119 202.182 75.9808 201.955C76.2498 201.723 76.4524 201.409 76.5888 201.011C76.7289 200.614 76.799 200.161 76.799 199.653C76.799 199.146 76.7289 198.693 76.5888 198.295C76.4524 197.898 76.2498 197.583 75.9808 197.352C75.7119 197.121 75.3767 197.006 74.9751 197.006C74.5698 197.006 74.2289 197.121 73.9524 197.352C73.6797 197.583 73.4732 197.898 73.3331 198.295C73.1967 198.693 73.1286 199.146 73.1286 199.653C73.1286 200.161 73.1967 200.614 73.3331 201.011C73.4732 201.409 73.6797 201.723 73.9524 201.955C74.2289 202.182 74.5698 202.295 74.9751 202.295ZM80.8331 207.273V195.273H83.2195V196.739H83.3274C83.4335 196.504 83.5869 196.265 83.7876 196.023C83.9922 195.777 84.2573 195.572 84.5831 195.409C84.9126 195.242 85.3217 195.159 85.8104 195.159C86.4467 195.159 87.0339 195.326 87.5717 195.659C88.1096 195.989 88.5395 196.487 88.8615 197.153C89.1835 197.816 89.3445 198.648 89.3445 199.648C89.3445 200.621 89.1873 201.443 88.8729 202.114C88.5623 202.78 88.138 203.286 87.6001 203.631C87.0661 203.972 86.4676 204.142 85.8047 204.142C85.335 204.142 84.9354 204.064 84.6058 203.909C84.2801 203.754 84.013 203.559 83.8047 203.324C83.5964 203.085 83.4373 202.845 83.3274 202.602H83.2536V207.273H80.8331ZM83.2024 199.636C83.2024 200.155 83.2744 200.608 83.4183 200.994C83.5623 201.381 83.7706 201.682 84.0433 201.898C84.3161 202.11 84.6475 202.216 85.0376 202.216C85.4316 202.216 85.7649 202.108 86.0376 201.892C86.3104 201.672 86.5168 201.369 86.657 200.983C86.8009 200.593 86.8729 200.144 86.8729 199.636C86.8729 199.133 86.8028 198.689 86.6626 198.307C86.5225 197.924 86.3161 197.625 86.0433 197.409C85.7706 197.193 85.4354 197.085 85.0376 197.085C84.6437 197.085 84.3104 197.189 84.0376 197.398C83.7687 197.606 83.5623 197.902 83.4183 198.284C83.2744 198.667 83.2024 199.117 83.2024 199.636ZM90.9581 204V195.273H98.5888V204H96.2763V197.176H93.2422V204H90.9581ZM104.464 204.17C103.581 204.17 102.818 203.983 102.174 203.608C101.534 203.229 101.04 202.703 100.691 202.028C100.343 201.35 100.168 200.564 100.168 199.67C100.168 198.769 100.343 197.981 100.691 197.307C101.04 196.629 101.534 196.102 102.174 195.727C102.818 195.348 103.581 195.159 104.464 195.159C105.346 195.159 106.108 195.348 106.748 195.727C107.392 196.102 107.888 196.629 108.237 197.307C108.585 197.981 108.759 198.769 108.759 199.67C108.759 200.564 108.585 201.35 108.237 202.028C107.888 202.703 107.392 203.229 106.748 203.608C106.108 203.983 105.346 204.17 104.464 204.17ZM104.475 202.295C104.877 202.295 105.212 202.182 105.481 201.955C105.75 201.723 105.952 201.409 106.089 201.011C106.229 200.614 106.299 200.161 106.299 199.653C106.299 199.146 106.229 198.693 106.089 198.295C105.952 197.898 105.75 197.583 105.481 197.352C105.212 197.121 104.877 197.006 104.475 197.006C104.07 197.006 103.729 197.121 103.452 197.352C103.18 197.583 102.973 197.898 102.833 198.295C102.697 198.693 102.629 199.146 102.629 199.653C102.629 200.161 102.697 200.614 102.833 201.011C102.973 201.409 103.18 201.723 103.452 201.955C103.729 202.182 104.07 202.295 104.475 202.295ZM110.333 207.273V195.273H112.719V196.739H112.827C112.933 196.504 113.087 196.265 113.288 196.023C113.492 195.777 113.757 195.572 114.083 195.409C114.413 195.242 114.822 195.159 115.31 195.159C115.947 195.159 116.534 195.326 117.072 195.659C117.61 195.989 118.04 196.487 118.362 197.153C118.683 197.816 118.844 198.648 118.844 199.648C118.844 200.621 118.687 201.443 118.373 202.114C118.062 202.78 117.638 203.286 117.1 203.631C116.566 203.972 115.968 204.142 115.305 204.142C114.835 204.142 114.435 204.064 114.106 203.909C113.78 203.754 113.513 203.559 113.305 203.324C113.096 203.085 112.937 202.845 112.827 202.602H112.754V207.273H110.333ZM112.702 199.636C112.702 200.155 112.774 200.608 112.918 200.994C113.062 201.381 113.271 201.682 113.543 201.898C113.816 202.11 114.147 202.216 114.538 202.216C114.932 202.216 115.265 202.108 115.538 201.892C115.81 201.672 116.017 201.369 116.157 200.983C116.301 200.593 116.373 200.144 116.373 199.636C116.373 199.133 116.303 198.689 116.163 198.307C116.022 197.924 115.816 197.625 115.543 197.409C115.271 197.193 114.935 197.085 114.538 197.085C114.144 197.085 113.81 197.189 113.538 197.398C113.269 197.606 113.062 197.902 112.918 198.284C112.774 198.667 112.702 199.117 112.702 199.636ZM122.947 204.165C122.39 204.165 121.894 204.068 121.458 203.875C121.022 203.678 120.678 203.388 120.424 203.006C120.174 202.619 120.049 202.138 120.049 201.562C120.049 201.078 120.138 200.67 120.316 200.341C120.494 200.011 120.737 199.746 121.043 199.545C121.35 199.345 121.699 199.193 122.089 199.091C122.483 198.989 122.896 198.917 123.327 198.875C123.835 198.822 124.244 198.773 124.555 198.727C124.865 198.678 125.091 198.606 125.231 198.511C125.371 198.417 125.441 198.277 125.441 198.091V198.057C125.441 197.697 125.327 197.419 125.1 197.222C124.877 197.025 124.558 196.926 124.146 196.926C123.71 196.926 123.363 197.023 123.106 197.216C122.848 197.405 122.678 197.644 122.594 197.932L120.356 197.75C120.469 197.22 120.693 196.761 121.026 196.375C121.36 195.985 121.79 195.686 122.316 195.477C122.846 195.265 123.46 195.159 124.157 195.159C124.642 195.159 125.106 195.216 125.549 195.33C125.996 195.443 126.392 195.619 126.737 195.858C127.085 196.097 127.36 196.403 127.56 196.778C127.761 197.15 127.862 197.595 127.862 198.114V204H125.566V202.79H125.498C125.358 203.062 125.17 203.303 124.935 203.511C124.701 203.716 124.418 203.877 124.089 203.994C123.759 204.108 123.379 204.165 122.947 204.165ZM123.64 202.494C123.996 202.494 124.31 202.424 124.583 202.284C124.856 202.14 125.07 201.947 125.225 201.705C125.38 201.462 125.458 201.187 125.458 200.881V199.955C125.382 200.004 125.278 200.049 125.146 200.091C125.017 200.129 124.871 200.165 124.708 200.199C124.545 200.229 124.382 200.258 124.219 200.284C124.057 200.307 123.909 200.328 123.776 200.347C123.492 200.388 123.244 200.455 123.032 200.545C122.82 200.636 122.655 200.759 122.538 200.915C122.42 201.066 122.362 201.256 122.362 201.483C122.362 201.812 122.481 202.064 122.719 202.239C122.962 202.409 123.269 202.494 123.64 202.494ZM128.863 197.176V195.273H136.772V197.176H133.96V204H131.653V197.176H128.863ZM140.552 200.807L143.694 195.273H146.08V204H143.773V198.449L140.643 204H138.239V195.273H140.552V200.807ZM148.021 204V195.273H151.742C152.818 195.273 153.668 195.477 154.293 195.886C154.918 196.295 155.231 196.877 155.231 197.631C155.231 198.104 155.055 198.498 154.702 198.812C154.35 199.127 153.862 199.339 153.237 199.449C153.759 199.487 154.204 199.606 154.572 199.807C154.943 200.004 155.225 200.259 155.418 200.574C155.615 200.888 155.714 201.237 155.714 201.619C155.714 202.116 155.581 202.542 155.316 202.898C155.055 203.254 154.67 203.527 154.163 203.716C153.659 203.905 153.043 204 152.316 204H148.021ZM150.276 202.188H152.316C152.653 202.188 152.916 202.108 153.106 201.949C153.299 201.786 153.396 201.564 153.396 201.284C153.396 200.973 153.299 200.729 153.106 200.551C152.916 200.373 152.653 200.284 152.316 200.284H150.276V202.188ZM150.276 198.864H151.793C152.036 198.864 152.242 198.83 152.413 198.761C152.587 198.689 152.719 198.587 152.81 198.455C152.905 198.322 152.952 198.165 152.952 197.983C152.952 197.714 152.844 197.504 152.629 197.352C152.413 197.201 152.117 197.125 151.742 197.125H150.276V198.864ZM163.313 198.67V200.574H158.756V198.67H163.313ZM159.552 195.273V204H157.239V195.273H159.552ZM164.83 195.273V204H162.535V195.273H164.83ZM170.651 204.17C169.769 204.17 169.005 203.983 168.362 203.608C167.721 203.229 167.227 202.703 166.879 202.028C166.53 201.35 166.356 200.564 166.356 199.67C166.356 198.769 166.53 197.981 166.879 197.307C167.227 196.629 167.721 196.102 168.362 195.727C169.005 195.348 169.769 195.159 170.651 195.159C171.534 195.159 172.295 195.348 172.935 195.727C173.579 196.102 174.076 196.629 174.424 197.307C174.772 197.981 174.947 198.769 174.947 199.67C174.947 200.564 174.772 201.35 174.424 202.028C174.076 202.703 173.579 203.229 172.935 203.608C172.295 203.983 171.534 204.17 170.651 204.17ZM170.663 202.295C171.064 202.295 171.399 202.182 171.668 201.955C171.937 201.723 172.14 201.409 172.276 201.011C172.416 200.614 172.487 200.161 172.487 199.653C172.487 199.146 172.416 198.693 172.276 198.295C172.14 197.898 171.937 197.583 171.668 197.352C171.399 197.121 171.064 197.006 170.663 197.006C170.257 197.006 169.916 197.121 169.64 197.352C169.367 197.583 169.161 197.898 169.021 198.295C168.884 198.693 168.816 199.146 168.816 199.653C168.816 200.161 168.884 200.614 169.021 201.011C169.161 201.409 169.367 201.723 169.64 201.955C169.916 202.182 170.257 202.295 170.663 202.295ZM178.833 200.807L181.975 195.273H184.362V204H182.055V198.449L178.924 204H176.521V195.273H178.833V200.807ZM181.56 192.227H183.248C183.244 192.917 182.988 193.472 182.481 193.892C181.977 194.312 181.295 194.523 180.435 194.523C179.572 194.523 178.888 194.312 178.384 193.892C177.88 193.472 177.629 192.917 177.629 192.227H179.305C179.301 192.489 179.384 192.723 179.555 192.932C179.729 193.14 180.022 193.244 180.435 193.244C180.837 193.244 181.125 193.142 181.299 192.938C181.473 192.733 181.56 192.496 181.56 192.227ZM191.499 207.273C191.192 207.273 190.905 207.248 190.636 207.199C190.371 207.153 190.151 207.095 189.977 207.023L190.522 205.216C190.806 205.303 191.062 205.35 191.289 205.358C191.52 205.366 191.719 205.313 191.886 205.199C192.056 205.085 192.194 204.892 192.3 204.619L192.442 204.25L189.312 195.273H191.857L193.664 201.682H193.755L195.579 195.273H198.141L194.749 204.943C194.586 205.413 194.365 205.822 194.085 206.17C193.808 206.523 193.458 206.794 193.033 206.983C192.609 207.176 192.098 207.273 191.499 207.273ZM206.719 195.273V204H204.424V195.273H206.719ZM205.6 199.102V201.011C205.415 201.095 205.183 201.174 204.907 201.25C204.63 201.322 204.341 201.381 204.038 201.426C203.735 201.472 203.451 201.494 203.185 201.494C201.932 201.494 200.945 201.237 200.225 200.722C199.505 200.203 199.146 199.375 199.146 198.239V195.261H201.43V198.239C201.43 198.576 201.487 198.843 201.6 199.04C201.718 199.237 201.903 199.379 202.157 199.466C202.415 199.549 202.757 199.591 203.185 199.591C203.583 199.591 203.973 199.549 204.356 199.466C204.738 199.383 205.153 199.261 205.6 199.102ZM212.576 204.17C211.678 204.17 210.906 203.989 210.258 203.625C209.614 203.258 209.118 202.739 208.769 202.068C208.421 201.394 208.246 200.597 208.246 199.676C208.246 198.778 208.421 197.991 208.769 197.312C209.118 196.634 209.608 196.106 210.241 195.727C210.877 195.348 211.623 195.159 212.479 195.159C213.055 195.159 213.591 195.252 214.087 195.438C214.587 195.619 215.023 195.894 215.394 196.261C215.769 196.629 216.061 197.091 216.269 197.648C216.478 198.201 216.582 198.848 216.582 199.591V200.256H209.212V198.756H214.303C214.303 198.407 214.228 198.098 214.076 197.83C213.924 197.561 213.714 197.35 213.445 197.199C213.18 197.044 212.871 196.966 212.519 196.966C212.152 196.966 211.826 197.051 211.542 197.222C211.262 197.388 211.042 197.614 210.883 197.898C210.724 198.178 210.642 198.491 210.638 198.835V200.261C210.638 200.693 210.718 201.066 210.877 201.381C211.04 201.695 211.269 201.938 211.565 202.108C211.86 202.278 212.21 202.364 212.616 202.364C212.885 202.364 213.131 202.326 213.354 202.25C213.578 202.174 213.769 202.061 213.928 201.909C214.087 201.758 214.209 201.572 214.292 201.352L216.531 201.5C216.417 202.038 216.184 202.508 215.832 202.909C215.483 203.307 215.032 203.617 214.479 203.841C213.93 204.061 213.296 204.17 212.576 204.17ZM217.488 197.176V195.273H225.397V197.176H222.585V204H220.278V197.176H217.488ZM232.938 198.67V200.574H228.381V198.67H232.938ZM229.177 195.273V204H226.864V195.273H229.177ZM234.455 195.273V204H232.16V195.273H234.455ZM240.276 204.17C239.394 204.17 238.63 203.983 237.987 203.608C237.346 203.229 236.852 202.703 236.504 202.028C236.155 201.35 235.981 200.564 235.981 199.67C235.981 198.769 236.155 197.981 236.504 197.307C236.852 196.629 237.346 196.102 237.987 195.727C238.63 195.348 239.394 195.159 240.276 195.159C241.159 195.159 241.92 195.348 242.56 195.727C243.204 196.102 243.701 196.629 244.049 197.307C244.397 197.981 244.572 198.769 244.572 199.67C244.572 200.564 244.397 201.35 244.049 202.028C243.701 202.703 243.204 203.229 242.56 203.608C241.92 203.983 241.159 204.17 240.276 204.17ZM240.288 202.295C240.689 202.295 241.024 202.182 241.293 201.955C241.562 201.723 241.765 201.409 241.901 201.011C242.041 200.614 242.112 200.161 242.112 199.653C242.112 199.146 242.041 198.693 241.901 198.295C241.765 197.898 241.562 197.583 241.293 197.352C241.024 197.121 240.689 197.006 240.288 197.006C239.882 197.006 239.541 197.121 239.265 197.352C238.992 197.583 238.786 197.898 238.646 198.295C238.509 198.693 238.441 199.146 238.441 199.653C238.441 200.161 238.509 200.614 238.646 201.011C238.786 201.409 238.992 201.723 239.265 201.955C239.541 202.182 239.882 202.295 240.288 202.295ZM248.458 200.807L251.6 195.273H253.987V204H251.68V198.449L248.549 204H246.146V195.273H248.458V200.807ZM251.185 192.227H252.873C252.869 192.917 252.613 193.472 252.106 193.892C251.602 194.312 250.92 194.523 250.06 194.523C249.197 194.523 248.513 194.312 248.009 193.892C247.505 193.472 247.254 192.917 247.254 192.227H248.93C248.926 192.489 249.009 192.723 249.18 192.932C249.354 193.14 249.647 193.244 250.06 193.244C250.462 193.244 250.75 193.142 250.924 192.938C251.098 192.733 251.185 192.496 251.185 192.227ZM130.408 220.528H132.754C132.766 220.816 132.894 221.044 133.141 221.21C133.387 221.377 133.705 221.46 134.095 221.46C134.489 221.46 134.821 221.369 135.089 221.188C135.358 221.002 135.493 220.737 135.493 220.392C135.493 220.18 135.44 219.996 135.334 219.841C135.228 219.682 135.08 219.557 134.891 219.466C134.701 219.375 134.482 219.33 134.232 219.33H132.976V217.744H134.232C134.607 217.744 134.894 217.657 135.095 217.483C135.3 217.309 135.402 217.091 135.402 216.83C135.402 216.534 135.296 216.297 135.084 216.119C134.875 215.937 134.593 215.847 134.237 215.847C133.877 215.847 133.578 215.928 133.339 216.091C133.105 216.25 132.983 216.458 132.976 216.716H130.641C130.648 216.193 130.805 215.741 131.112 215.358C131.423 214.975 131.839 214.68 132.362 214.472C132.889 214.263 133.478 214.159 134.129 214.159C134.841 214.159 135.455 214.259 135.97 214.46C136.489 214.657 136.887 214.939 137.163 215.307C137.444 215.674 137.584 216.112 137.584 216.619C137.584 217.081 137.432 217.468 137.129 217.778C136.826 218.089 136.402 218.311 135.857 218.443V218.534C136.216 218.557 136.542 218.653 136.834 218.824C137.125 218.994 137.358 219.229 137.533 219.528C137.707 219.824 137.794 220.174 137.794 220.58C137.794 221.121 137.635 221.585 137.317 221.972C137.002 222.358 136.567 222.655 136.01 222.864C135.457 223.068 134.822 223.17 134.107 223.17C133.41 223.17 132.785 223.07 132.232 222.869C131.682 222.665 131.245 222.366 130.919 221.972C130.597 221.578 130.427 221.097 130.408 220.528ZM141.767 223.165C141.21 223.165 140.714 223.068 140.278 222.875C139.843 222.678 139.498 222.388 139.244 222.006C138.994 221.619 138.869 221.138 138.869 220.562C138.869 220.078 138.958 219.67 139.136 219.341C139.314 219.011 139.557 218.746 139.864 218.545C140.17 218.345 140.519 218.193 140.909 218.091C141.303 217.989 141.716 217.917 142.148 217.875C142.655 217.822 143.064 217.773 143.375 217.727C143.686 217.678 143.911 217.606 144.051 217.511C144.191 217.417 144.261 217.277 144.261 217.091V217.057C144.261 216.697 144.148 216.419 143.92 216.222C143.697 216.025 143.379 215.926 142.966 215.926C142.53 215.926 142.184 216.023 141.926 216.216C141.669 216.405 141.498 216.644 141.415 216.932L139.176 216.75C139.29 216.22 139.513 215.761 139.847 215.375C140.18 214.985 140.61 214.686 141.136 214.477C141.667 214.265 142.28 214.159 142.977 214.159C143.462 214.159 143.926 214.216 144.369 214.33C144.816 214.443 145.212 214.619 145.557 214.858C145.905 215.097 146.18 215.403 146.381 215.778C146.581 216.15 146.682 216.595 146.682 217.114V223H144.386V221.79H144.318C144.178 222.062 143.991 222.303 143.756 222.511C143.521 222.716 143.239 222.877 142.909 222.994C142.58 223.108 142.199 223.165 141.767 223.165ZM142.46 221.494C142.816 221.494 143.131 221.424 143.403 221.284C143.676 221.14 143.89 220.947 144.045 220.705C144.201 220.462 144.278 220.187 144.278 219.881V218.955C144.203 219.004 144.098 219.049 143.966 219.091C143.837 219.129 143.691 219.165 143.528 219.199C143.366 219.229 143.203 219.258 143.04 219.284C142.877 219.307 142.729 219.328 142.597 219.347C142.313 219.388 142.064 219.455 141.852 219.545C141.64 219.636 141.475 219.759 141.358 219.915C141.241 220.066 141.182 220.256 141.182 220.483C141.182 220.812 141.301 221.064 141.54 221.239C141.782 221.409 142.089 221.494 142.46 221.494ZM148.56 223V214.273H156.19V223H153.878V216.176H150.844V223H148.56ZM160.435 219.807L163.577 214.273H165.963V223H163.656V217.449L160.526 223H158.122V214.273H160.435V219.807ZM171.847 223.17C170.953 223.17 170.184 222.981 169.54 222.602C168.9 222.22 168.407 221.689 168.062 221.011C167.722 220.333 167.551 219.553 167.551 218.67C167.551 217.777 167.723 216.992 168.068 216.318C168.417 215.64 168.911 215.112 169.551 214.733C170.191 214.35 170.953 214.159 171.835 214.159C172.597 214.159 173.263 214.297 173.835 214.574C174.407 214.85 174.86 215.239 175.193 215.739C175.527 216.239 175.71 216.826 175.744 217.5H173.46C173.396 217.064 173.225 216.714 172.949 216.449C172.676 216.18 172.318 216.045 171.875 216.045C171.5 216.045 171.172 216.148 170.892 216.352C170.616 216.553 170.4 216.847 170.244 217.233C170.089 217.619 170.011 218.087 170.011 218.636C170.011 219.193 170.087 219.667 170.239 220.057C170.394 220.447 170.612 220.744 170.892 220.949C171.172 221.153 171.5 221.256 171.875 221.256C172.152 221.256 172.4 221.199 172.619 221.085C172.843 220.972 173.027 220.807 173.17 220.591C173.318 220.371 173.415 220.108 173.46 219.801H175.744C175.706 220.468 175.525 221.055 175.199 221.562C174.877 222.066 174.432 222.46 173.864 222.744C173.295 223.028 172.623 223.17 171.847 223.17ZM179.607 219.807L182.749 214.273H185.135V223H182.828V217.449L179.697 223H177.294V214.273H179.607V219.807Z" fill="#5955B3"/>
<path d="M39.5954 136.782C39.0743 136.708 26.4587 135.095 26.9842 123.849C27.0325 122.816 27.167 121.876 27.376 121.024M39.5954 136.782C32.6807 136.344 29.167 133.749 27.5945 130.638M39.5954 136.782C40.432 136.901 41.2947 136.892 42.1483 136.762M27.376 121.024C27.6377 119.957 28.0162 119.028 28.4886 118.226M27.376 121.024C26.4339 123.525 25.9408 127.366 27.5945 130.638M28.4886 118.226C32.3618 111.652 42.5477 113.616 46.4264 118.226C47.9484 120.037 51.1382 124.629 49.5837 130.369C48.6093 133.967 45.448 136.262 42.1483 136.762M28.4886 118.226C27.0148 120.21 24.8765 124.857 26.7046 129.071M27.5945 130.638C27.2287 130.126 26.9351 129.602 26.7046 129.071M42.1483 136.762C37.7849 137.49 28.5876 136.97 26.7046 129.071" stroke="#6663CF" stroke-linecap="round"/>
<path d="M38.5954 91.7916C38.0743 91.7207 25.4587 90.1781 25.9842 79.4211C26.0325 78.4327 26.167 77.5337 26.376 76.7187M38.5954 91.7916C31.6807 91.3728 28.167 88.8899 26.5945 85.9142M38.5954 91.7916C39.432 91.9055 40.2947 91.8964 41.1483 91.7725M26.376 76.7187C26.6377 75.6983 27.0162 74.8097 27.4886 74.0426M26.376 76.7187C25.4339 79.1105 24.9408 82.7848 26.5945 85.9142M27.4886 74.0426C31.3618 67.7537 41.5477 69.6325 45.4264 74.0426C46.9484 75.7745 50.1382 80.1668 48.5837 85.6571C47.6093 89.0988 44.448 91.2936 41.1483 91.7725M27.4886 74.0426C26.0148 75.9404 23.8765 80.3848 25.7046 84.4153M26.5945 85.9142C26.2287 85.4251 25.9351 84.9235 25.7046 84.4153M41.1483 91.7725C36.7849 92.4683 27.5876 91.971 25.7046 84.4153" stroke="#6663CF" stroke-linecap="round"/>
<defs>
<linearGradient id="paint0_linear_1333_7135" x1="140.385" y1="20" x2="173.358" y2="59.4168" gradientUnits="userSpaceOnUse">
<stop stop-color="#5955B3"/>
<stop offset="1" stop-color="#6563CE"/>
</linearGradient>
</defs>
</svg>
