<svg width="63" height="62" viewBox="0 0 63 62" fill="none" xmlns="http://www.w3.org/2000/svg">
<path d="M27.6609 58.8784C28.9148 58.6952 59.2709 54.7101 58.0065 26.9211C57.8904 24.3679 57.5668 22.0453 57.0638 19.9398M27.6609 58.8784C44.2993 57.7964 52.7541 51.3822 56.5379 43.695M27.6609 58.8784C25.6478 59.1725 23.5718 59.1491 21.518 58.8291M57.0638 19.9398C56.4341 17.3039 55.5233 15.0083 54.3865 13.0266M57.0638 19.9398C59.3306 26.1188 60.5171 35.6108 56.5379 43.695M54.3865 13.0266C45.0667 -3.2196 20.5568 1.63392 11.2237 13.0266C7.5614 17.5008 -0.11398 28.8475 3.62643 43.0309C5.97113 51.9218 13.5781 57.5919 21.518 58.8291M54.3865 13.0266C57.9328 17.9293 63.0782 29.4107 58.6792 39.823M56.5379 43.695C57.4183 42.4315 58.1246 41.1357 58.6792 39.823M21.518 58.8291C32.0173 60.6265 54.1485 59.3417 58.6792 39.823" stroke="black" stroke-width="2" stroke-linecap="round"/>
<path d="M23.6248 20.6667C31.3227 23.4849 41.3986 30.6693 39.0198 31.9394C32.8619 35.2273 28.2437 39.9243 23.6248 41.3334" stroke="black" stroke-width="4" stroke-linecap="round"/>
</svg>
