<svg width="62" height="62" viewBox="0 0 62 62" fill="none" xmlns="http://www.w3.org/2000/svg">
<path d="M34.778 58.8784C33.544 58.6952 3.66972 54.7101 4.91404 26.9211C5.02837 24.3679 5.34683 22.0453 5.84181 19.9398M34.778 58.8784C18.4037 57.7964 10.0831 51.3822 6.35935 43.695M34.778 58.8784C36.7591 59.1725 38.8022 59.1491 40.8234 58.8291M5.84181 19.9398C6.46149 17.3039 7.35783 15.0083 8.47659 13.0266M5.84181 19.9398C3.61099 26.1188 2.44333 35.6108 6.35935 43.695M8.47659 13.0266C17.6484 -3.2196 41.7693 1.63392 50.9543 13.0266C54.5585 17.5008 62.112 28.8475 58.431 43.0309C56.1235 51.9218 48.6373 57.5919 40.8234 58.8291M8.47659 13.0266C4.98657 17.9293 -0.0770989 29.4107 4.25202 39.823M6.35935 43.695C5.49295 42.4315 4.79783 41.1357 4.25202 39.823M40.8234 58.8291C30.4908 60.6265 8.71089 59.3417 4.25202 39.823" stroke="black" stroke-width="2" stroke-linecap="round"/>
<path d="M38.75 20.6667C31.1742 23.4849 21.2583 30.6693 23.5993 31.9394C29.6595 35.2273 34.2044 39.9243 38.75 41.3334" stroke="black" stroke-width="4" stroke-linecap="round"/>
</svg>
