<svg width="325" height="290" viewBox="0 0 325 290" fill="none" xmlns="http://www.w3.org/2000/svg">
<rect width="325" height="290" rx="5" fill="white"/>
<path opacity="0.2" fill-rule="evenodd" clip-rule="evenodd" d="M324.665 270.066C324.629 281.048 315.744 289.945 304.767 290H171.145C177.237 276.125 202.685 248.375 255.738 248.375C308.791 248.375 323.795 226.792 324.665 216V270.066Z" fill="#89AFFF"/>
<path opacity="0.2" fill-rule="evenodd" clip-rule="evenodd" d="M149.339 1.68167e-05C147.452 10.542 135.894 40.1867 88.2784 53.6336C42.0804 66.6801 11.6465 62.1933 0.32929 57.9765L0.329348 20C0.329347 8.95433 9.28362 2.77658e-05 20.3293 2.69023e-05L149.339 1.68167e-05Z" fill="#89AFFF"/>
<path d="M109.289 74.6136V65.0795H110.868C111.406 64.6932 111.899 64.1477 112.346 63.4432C112.793 62.7311 113.175 61.75 113.493 60.5C113.812 59.2424 114.039 57.5985 114.175 55.5682L114.834 45.7273H130.232V65.0795H132.777V74.5909H128.05V69H114.016V74.6136H109.289ZM116.55 65.0795H125.505V49.7841H119.266L118.902 55.5682C118.804 57.1061 118.641 58.4697 118.414 59.6591C118.194 60.8485 117.925 61.8902 117.607 62.7841C117.296 63.6705 116.944 64.4356 116.55 65.0795ZM143.564 69.3409C141.799 69.3409 140.273 68.9659 138.985 68.2159C137.705 67.4583 136.716 66.4053 136.019 65.0568C135.322 63.7008 134.973 62.1288 134.973 60.3409C134.973 58.5379 135.322 56.9621 136.019 55.6136C136.716 54.2576 137.705 53.2045 138.985 52.4545C140.273 51.697 141.799 51.3182 143.564 51.3182C145.33 51.3182 146.852 51.697 148.133 52.4545C149.42 53.2045 150.413 54.2576 151.11 55.6136C151.807 56.9621 152.155 58.5379 152.155 60.3409C152.155 62.1288 151.807 63.7008 151.11 65.0568C150.413 66.4053 149.42 67.4583 148.133 68.2159C146.852 68.9659 145.33 69.3409 143.564 69.3409ZM143.587 65.5909C144.39 65.5909 145.061 65.3636 145.598 64.9091C146.136 64.447 146.542 63.8182 146.814 63.0227C147.095 62.2273 147.235 61.322 147.235 60.3068C147.235 59.2917 147.095 58.3864 146.814 57.5909C146.542 56.7955 146.136 56.1667 145.598 55.7045C145.061 55.2424 144.39 55.0114 143.587 55.0114C142.776 55.0114 142.095 55.2424 141.542 55.7045C140.996 56.1667 140.583 56.7955 140.303 57.5909C140.03 58.3864 139.894 59.2917 139.894 60.3068C139.894 61.322 140.03 62.2273 140.303 63.0227C140.583 63.8182 140.996 64.447 141.542 64.9091C142.095 65.3636 142.776 65.5909 143.587 65.5909ZM169.814 45.1364L171.292 48.2955C170.799 48.7045 170.254 49.0076 169.655 49.2045C169.057 49.3939 168.341 49.5189 167.508 49.5795C166.682 49.6402 165.674 49.6818 164.485 49.7045C163.136 49.7197 162.038 49.9356 161.189 50.3523C160.341 50.7689 159.697 51.4242 159.258 52.3182C158.818 53.2045 158.53 54.3636 158.394 55.7955H158.564C159.087 54.7273 159.822 53.9015 160.769 53.3182C161.723 52.7348 162.901 52.4432 164.303 52.4432C165.788 52.4432 167.087 52.7689 168.201 53.4205C169.322 54.072 170.193 55.0076 170.814 56.2273C171.436 57.447 171.746 58.9091 171.746 60.6136C171.746 62.3864 171.398 63.928 170.701 65.2386C170.011 66.5417 169.03 67.553 167.758 68.2727C166.485 68.9848 164.97 69.3409 163.212 69.3409C161.447 69.3409 159.924 68.9697 158.644 68.2273C157.371 67.4848 156.386 66.3902 155.689 64.9432C155 63.4962 154.655 61.7159 154.655 59.6023V58.1705C154.655 53.9659 155.473 50.8485 157.11 48.8182C158.746 46.7879 161.151 45.7576 164.326 45.7273C165.189 45.7121 165.97 45.7083 166.667 45.7159C167.364 45.7235 167.973 45.6894 168.496 45.6136C169.026 45.5379 169.466 45.3788 169.814 45.1364ZM163.235 65.5909C163.977 65.5909 164.614 65.3977 165.144 65.0114C165.682 64.625 166.095 64.072 166.383 63.3523C166.678 62.6326 166.826 61.7727 166.826 60.7727C166.826 59.7803 166.678 58.9394 166.383 58.25C166.095 57.553 165.682 57.0227 165.144 56.6591C164.606 56.2955 163.962 56.1136 163.212 56.1136C162.651 56.1136 162.148 56.2159 161.701 56.4205C161.254 56.625 160.871 56.928 160.553 57.3295C160.242 57.7235 160 58.2121 159.826 58.7955C159.659 59.3712 159.576 60.0303 159.576 60.7727C159.576 62.2652 159.898 63.4432 160.542 64.3068C161.193 65.1629 162.091 65.5909 163.235 65.5909ZM174.959 75.5455V51.5455H179.732V54.4773H179.948C180.16 54.0076 180.467 53.5303 180.868 53.0455C181.277 52.553 181.808 52.1439 182.459 51.8182C183.118 51.4848 183.937 51.3182 184.914 51.3182C186.187 51.3182 187.361 51.6515 188.437 52.3182C189.512 52.9773 190.372 53.9735 191.016 55.3068C191.66 56.6326 191.982 58.2955 191.982 60.2955C191.982 62.2424 191.668 63.8864 191.039 65.2273C190.418 66.5606 189.569 67.572 188.493 68.2614C187.425 68.9432 186.228 69.2841 184.902 69.2841C183.963 69.2841 183.164 69.1288 182.505 68.8182C181.853 68.5076 181.319 68.1174 180.902 67.6477C180.486 67.1705 180.168 66.6894 179.948 66.2045H179.8V75.5455H174.959ZM179.698 60.2727C179.698 61.3106 179.842 62.2159 180.13 62.9886C180.418 63.7614 180.834 64.3636 181.38 64.7955C181.925 65.2197 182.588 65.4318 183.368 65.4318C184.156 65.4318 184.823 65.2159 185.368 64.7841C185.914 64.3447 186.327 63.7386 186.607 62.9659C186.895 62.1856 187.039 61.2879 187.039 60.2727C187.039 59.2652 186.899 58.3788 186.618 57.6136C186.338 56.8485 185.925 56.25 185.38 55.8182C184.834 55.3864 184.164 55.1705 183.368 55.1705C182.58 55.1705 181.914 55.3788 181.368 55.7955C180.83 56.2121 180.418 56.803 180.13 57.5682C179.842 58.3333 179.698 59.2348 179.698 60.2727ZM203.096 69.3409C201.33 69.3409 199.804 68.9659 198.516 68.2159C197.236 67.4583 196.247 66.4053 195.55 65.0568C194.853 63.7008 194.505 62.1288 194.505 60.3409C194.505 58.5379 194.853 56.9621 195.55 55.6136C196.247 54.2576 197.236 53.2045 198.516 52.4545C199.804 51.697 201.33 51.3182 203.096 51.3182C204.861 51.3182 206.383 51.697 207.664 52.4545C208.952 53.2045 209.944 54.2576 210.641 55.6136C211.338 56.9621 211.687 58.5379 211.687 60.3409C211.687 62.1288 211.338 63.7008 210.641 65.0568C209.944 66.4053 208.952 67.4583 207.664 68.2159C206.383 68.9659 204.861 69.3409 203.096 69.3409ZM203.118 65.5909C203.921 65.5909 204.592 65.3636 205.13 64.9091C205.668 64.447 206.073 63.8182 206.346 63.0227C206.626 62.2273 206.766 61.322 206.766 60.3068C206.766 59.2917 206.626 58.3864 206.346 57.5909C206.073 56.7955 205.668 56.1667 205.13 55.7045C204.592 55.2424 203.921 55.0114 203.118 55.0114C202.308 55.0114 201.626 55.2424 201.073 55.7045C200.527 56.1667 200.115 56.7955 199.834 57.5909C199.562 58.3864 199.425 59.2917 199.425 60.3068C199.425 61.322 199.562 62.2273 199.834 63.0227C200.115 63.8182 200.527 64.447 201.073 64.9091C201.626 65.3636 202.308 65.5909 203.118 65.5909ZM59.2249 108V90.5455H74.4862V108H69.8612V94.3523H63.7931V108H59.2249ZM86.2362 108.341C84.4711 108.341 82.9446 107.966 81.6567 107.216C80.3764 106.458 79.3878 105.405 78.6908 104.057C77.9938 102.701 77.6453 101.129 77.6453 99.3409C77.6453 97.5379 77.9938 95.9621 78.6908 94.6136C79.3878 93.2576 80.3764 92.2045 81.6567 91.4545C82.9446 90.697 84.4711 90.3182 86.2362 90.3182C88.0014 90.3182 89.5241 90.697 90.8044 91.4545C92.0923 92.2045 93.0847 93.2576 93.7817 94.6136C94.4787 95.9621 94.8272 97.5379 94.8272 99.3409C94.8272 101.129 94.4787 102.701 93.7817 104.057C93.0847 105.405 92.0923 106.458 90.8044 107.216C89.5241 107.966 88.0014 108.341 86.2362 108.341ZM86.259 104.591C87.062 104.591 87.7325 104.364 88.2703 103.909C88.8082 103.447 89.2135 102.818 89.4862 102.023C89.7665 101.227 89.9067 100.322 89.9067 99.3068C89.9067 98.2917 89.7665 97.3864 89.4862 96.5909C89.2135 95.7955 88.8082 95.1667 88.2703 94.7045C87.7325 94.2424 87.062 94.0114 86.259 94.0114C85.4484 94.0114 84.7665 94.2424 84.2135 94.7045C83.6681 95.1667 83.2552 95.7955 82.9749 96.5909C82.7022 97.3864 82.5658 98.2917 82.5658 99.3068C82.5658 100.322 82.7022 101.227 82.9749 102.023C83.2552 102.818 83.6681 103.447 84.2135 103.909C84.7665 104.364 85.4484 104.591 86.259 104.591ZM96.2135 108L102.316 98.9205L96.2476 90.5455H101.77L106.304 97.375H107.054V90.5455H111.895V97.375H112.623L117.157 90.5455H122.679L116.623 98.9205L122.714 108H117.066L112.577 101.182H111.895V108H107.054V101.182H106.373L101.861 108H96.2135ZM130.327 108.33C129.214 108.33 128.221 108.136 127.35 107.75C126.479 107.356 125.789 106.777 125.282 106.011C124.782 105.239 124.532 104.277 124.532 103.125C124.532 102.155 124.71 101.341 125.066 100.682C125.422 100.023 125.907 99.4924 126.52 99.0909C127.134 98.6894 127.831 98.3864 128.611 98.1818C129.399 97.9773 130.225 97.8333 131.089 97.75C132.104 97.6439 132.922 97.5455 133.543 97.4545C134.164 97.3561 134.615 97.2121 134.895 97.0227C135.176 96.8333 135.316 96.553 135.316 96.1818V96.1136C135.316 95.3939 135.089 94.8371 134.634 94.4432C134.187 94.0492 133.551 93.8523 132.725 93.8523C131.854 93.8523 131.16 94.0455 130.645 94.4318C130.13 94.8106 129.789 95.2879 129.623 95.8636L125.145 95.5C125.373 94.4394 125.82 93.5227 126.486 92.75C127.153 91.9697 128.013 91.3712 129.066 90.9545C130.126 90.5303 131.354 90.3182 132.748 90.3182C133.717 90.3182 134.645 90.4318 135.532 90.6591C136.426 90.8864 137.217 91.2386 137.907 91.7159C138.604 92.1932 139.153 92.8068 139.554 93.5568C139.956 94.2992 140.157 95.1894 140.157 96.2273V108H135.566V105.58H135.429C135.149 106.125 134.774 106.606 134.304 107.023C133.835 107.432 133.27 107.754 132.611 107.989C131.952 108.216 131.191 108.33 130.327 108.33ZM131.714 104.989C132.426 104.989 133.054 104.848 133.6 104.568C134.145 104.28 134.573 103.894 134.884 103.409C135.195 102.924 135.35 102.375 135.35 101.761V99.9091C135.198 100.008 134.99 100.098 134.725 100.182C134.467 100.258 134.176 100.33 133.85 100.398C133.524 100.458 133.198 100.515 132.873 100.568C132.547 100.614 132.251 100.655 131.986 100.693C131.418 100.777 130.922 100.909 130.498 101.091C130.073 101.273 129.744 101.519 129.509 101.83C129.274 102.133 129.157 102.511 129.157 102.966C129.157 103.625 129.395 104.129 129.873 104.477C130.357 104.818 130.971 104.989 131.714 104.989ZM142.89 108L142.867 104.159H143.446C143.856 104.159 144.208 104.061 144.503 103.864C144.806 103.659 145.056 103.33 145.253 102.875C145.45 102.42 145.606 101.818 145.719 101.068C145.833 100.311 145.909 99.3788 145.946 98.2727L146.231 90.5455H159.503V108H154.89V94.3523H150.583L150.31 99.6818C150.242 101.144 150.064 102.402 149.776 103.455C149.496 104.508 149.106 105.371 148.606 106.045C148.106 106.712 147.503 107.205 146.799 107.523C146.094 107.841 145.276 108 144.344 108H142.89ZM171.142 108.341C169.377 108.341 167.851 107.966 166.563 107.216C165.283 106.458 164.294 105.405 163.597 104.057C162.9 102.701 162.552 101.129 162.552 99.3409C162.552 97.5379 162.9 95.9621 163.597 94.6136C164.294 93.2576 165.283 92.2045 166.563 91.4545C167.851 90.697 169.377 90.3182 171.142 90.3182C172.908 90.3182 174.43 90.697 175.711 91.4545C176.999 92.2045 177.991 93.2576 178.688 94.6136C179.385 95.9621 179.733 97.5379 179.733 99.3409C179.733 101.129 179.385 102.701 178.688 104.057C177.991 105.405 176.999 106.458 175.711 107.216C174.43 107.966 172.908 108.341 171.142 108.341ZM171.165 104.591C171.968 104.591 172.639 104.364 173.177 103.909C173.714 103.447 174.12 102.818 174.392 102.023C174.673 101.227 174.813 100.322 174.813 99.3068C174.813 98.2917 174.673 97.3864 174.392 96.5909C174.12 95.7955 173.714 95.1667 173.177 94.7045C172.639 94.2424 171.968 94.0114 171.165 94.0114C170.355 94.0114 169.673 94.2424 169.12 94.7045C168.574 95.1667 168.161 95.7955 167.881 96.5909C167.608 97.3864 167.472 98.2917 167.472 99.3068C167.472 100.322 167.608 101.227 167.881 102.023C168.161 102.818 168.574 103.447 169.12 103.909C169.673 104.364 170.355 104.591 171.165 104.591ZM182.881 108V90.5455H190.324C192.476 90.5455 194.177 90.9545 195.427 91.7727C196.677 92.5909 197.302 93.7538 197.302 95.2614C197.302 96.2083 196.949 96.9962 196.245 97.625C195.54 98.2538 194.563 98.678 193.313 98.8977C194.358 98.9735 195.249 99.2121 195.983 99.6136C196.726 100.008 197.29 100.519 197.677 101.148C198.071 101.777 198.267 102.473 198.267 103.239C198.267 104.231 198.002 105.083 197.472 105.795C196.949 106.508 196.18 107.053 195.165 107.432C194.158 107.811 192.927 108 191.472 108H182.881ZM187.392 104.375H191.472C192.146 104.375 192.673 104.216 193.052 103.898C193.438 103.572 193.631 103.129 193.631 102.568C193.631 101.947 193.438 101.458 193.052 101.102C192.673 100.746 192.146 100.568 191.472 100.568H187.392V104.375ZM187.392 97.7273H190.427C190.911 97.7273 191.324 97.6591 191.665 97.5227C192.014 97.3788 192.279 97.1742 192.461 96.9091C192.65 96.6439 192.745 96.3295 192.745 95.9659C192.745 95.428 192.529 95.0076 192.097 94.7045C191.665 94.4015 191.074 94.25 190.324 94.25H187.392V97.7273ZM206.296 108.33C205.182 108.33 204.19 108.136 203.319 107.75C202.447 107.356 201.758 106.777 201.25 106.011C200.75 105.239 200.5 104.277 200.5 103.125C200.5 102.155 200.678 101.341 201.035 100.682C201.391 100.023 201.875 99.4924 202.489 99.0909C203.103 98.6894 203.8 98.3864 204.58 98.1818C205.368 97.9773 206.194 97.8333 207.057 97.75C208.072 97.6439 208.891 97.5455 209.512 97.4545C210.133 97.3561 210.584 97.2121 210.864 97.0227C211.144 96.8333 211.285 96.553 211.285 96.1818V96.1136C211.285 95.3939 211.057 94.8371 210.603 94.4432C210.156 94.0492 209.519 93.8523 208.694 93.8523C207.822 93.8523 207.129 94.0455 206.614 94.4318C206.099 94.8106 205.758 95.2879 205.591 95.8636L201.114 95.5C201.341 94.4394 201.788 93.5227 202.455 92.75C203.122 91.9697 203.982 91.3712 205.035 90.9545C206.095 90.5303 207.322 90.3182 208.716 90.3182C209.686 90.3182 210.614 90.4318 211.5 90.6591C212.394 90.8864 213.186 91.2386 213.875 91.7159C214.572 92.1932 215.122 92.8068 215.523 93.5568C215.925 94.2992 216.125 95.1894 216.125 96.2273V108H211.535V105.58H211.398C211.118 106.125 210.743 106.606 210.273 107.023C209.803 107.432 209.239 107.754 208.58 107.989C207.921 108.216 207.16 108.33 206.296 108.33ZM207.682 104.989C208.394 104.989 209.023 104.848 209.569 104.568C210.114 104.28 210.542 103.894 210.853 103.409C211.163 102.924 211.319 102.375 211.319 101.761V99.9091C211.167 100.008 210.959 100.098 210.694 100.182C210.436 100.258 210.144 100.33 209.819 100.398C209.493 100.458 209.167 100.515 208.841 100.568C208.516 100.614 208.22 100.655 207.955 100.693C207.387 100.777 206.891 100.909 206.466 101.091C206.042 101.273 205.713 101.519 205.478 101.83C205.243 102.133 205.125 102.511 205.125 102.966C205.125 103.625 205.364 104.129 205.841 104.477C206.326 104.818 206.94 104.989 207.682 104.989ZM218.128 94.3523V90.5455H233.946V94.3523H228.321V108H223.708V94.3523H218.128ZM239.915 95.9091H245.131C247.442 95.9091 249.245 96.4621 250.54 97.5682C251.836 98.6667 252.483 100.136 252.483 101.977C252.483 103.174 252.192 104.227 251.608 105.136C251.025 106.038 250.184 106.742 249.086 107.25C247.987 107.75 246.669 108 245.131 108H236.881V90.5455H241.506V104.193H245.131C245.942 104.193 246.608 103.989 247.131 103.58C247.654 103.17 247.919 102.648 247.927 102.011C247.919 101.337 247.654 100.788 247.131 100.364C246.608 99.9318 245.942 99.7159 245.131 99.7159H239.915V95.9091ZM261.478 84.7273L261.035 101.023H256.875L256.421 84.7273H261.478ZM258.955 108.295C258.205 108.295 257.561 108.03 257.023 107.5C256.485 106.962 256.22 106.318 256.228 105.568C256.22 104.826 256.485 104.189 257.023 103.659C257.561 103.129 258.205 102.864 258.955 102.864C259.675 102.864 260.307 103.129 260.853 103.659C261.398 104.189 261.675 104.826 261.682 105.568C261.675 106.068 261.542 106.527 261.285 106.943C261.035 107.352 260.705 107.682 260.296 107.932C259.887 108.174 259.44 108.295 258.955 108.295Z" fill="url(#paint0_linear_725_6601)"/>
<path d="M53.0063 156.242V167.878H51.2563V157.742H45.7791V167.878H44.0291V156.242H53.0063ZM59.316 168.054C58.4562 168.054 57.7156 167.87 57.0944 167.503C56.477 167.132 55.9997 166.611 55.6626 165.94C55.3293 165.266 55.1626 164.476 55.1626 163.571C55.1626 162.677 55.3293 161.889 55.6626 161.207C55.9997 160.526 56.4694 159.993 57.0717 159.611C57.6777 159.228 58.3861 159.037 59.1967 159.037C59.6891 159.037 60.1664 159.118 60.6285 159.281C61.0906 159.444 61.5054 159.7 61.8728 160.048C62.2402 160.397 62.53 160.85 62.7421 161.406C62.9543 161.959 63.0603 162.632 63.0603 163.423V164.026H56.1228V162.753H61.3956C61.3956 162.306 61.3046 161.91 61.1228 161.565C60.941 161.217 60.6853 160.942 60.3558 160.742C60.03 160.541 59.6474 160.44 59.2081 160.44C58.7308 160.44 58.3141 160.558 57.9581 160.793C57.6058 161.024 57.3331 161.327 57.1399 161.702C56.9505 162.073 56.8558 162.476 56.8558 162.912V163.906C56.8558 164.49 56.9581 164.986 57.1626 165.395C57.3709 165.804 57.6607 166.117 58.0319 166.332C58.4031 166.545 58.8368 166.651 59.3331 166.651C59.655 166.651 59.9486 166.605 60.2137 166.514C60.4789 166.42 60.7081 166.279 60.9012 166.094C61.0944 165.908 61.2421 165.679 61.3444 165.406L62.9524 165.696C62.8236 166.17 62.5925 166.584 62.2592 166.94C61.9296 167.293 61.5149 167.567 61.0149 167.764C60.5187 167.957 59.9524 168.054 59.316 168.054ZM64.9453 171.151V159.151H66.6044V160.565H66.7464C66.8449 160.384 66.9869 160.173 67.1725 159.935C67.3581 159.696 67.6157 159.488 67.9453 159.31C68.2748 159.128 68.7104 159.037 69.2521 159.037C69.9566 159.037 70.5854 159.215 71.1385 159.571C71.6915 159.927 72.1252 160.44 72.4396 161.111C72.7578 161.781 72.9169 162.588 72.9169 163.531C72.9169 164.475 72.7597 165.283 72.4453 165.957C72.1309 166.628 71.6991 167.145 71.1498 167.509C70.6006 167.868 69.9737 168.048 69.2691 168.048C68.7388 168.048 68.3051 167.959 67.968 167.781C67.6347 167.603 67.3733 167.395 67.1839 167.156C66.9945 166.918 66.8487 166.706 66.7464 166.52H66.6441V171.151H64.9453ZM66.61 163.514C66.61 164.128 66.6991 164.666 66.8771 165.128C67.0551 165.59 67.3127 165.952 67.6498 166.213C67.9869 166.471 68.3998 166.6 68.8885 166.6C69.396 166.6 69.8203 166.465 70.1612 166.196C70.5021 165.923 70.7597 165.554 70.9339 165.088C71.1119 164.622 71.201 164.098 71.201 163.514C71.201 162.939 71.1138 162.421 70.9396 161.963C70.7691 161.505 70.5116 161.143 70.1669 160.878C69.826 160.613 69.3998 160.48 68.8885 160.48C68.396 160.48 67.9794 160.607 67.6385 160.861C67.3013 161.115 67.0456 161.469 66.8714 161.923C66.6972 162.378 66.61 162.908 66.61 163.514ZM78.5816 168.054C77.7218 168.054 76.9813 167.87 76.36 167.503C75.7426 167.132 75.2653 166.611 74.9282 165.94C74.5949 165.266 74.4282 164.476 74.4282 163.571C74.4282 162.677 74.5949 161.889 74.9282 161.207C75.2653 160.526 75.735 159.993 76.3373 159.611C76.9434 159.228 77.6517 159.037 78.4623 159.037C78.9547 159.037 79.432 159.118 79.8941 159.281C80.3563 159.444 80.771 159.7 81.1385 160.048C81.5059 160.397 81.7956 160.85 82.0078 161.406C82.2199 161.959 82.326 162.632 82.326 163.423V164.026H75.3885V162.753H80.6612C80.6612 162.306 80.5703 161.91 80.3885 161.565C80.2066 161.217 79.9509 160.942 79.6214 160.742C79.2956 160.541 78.9131 160.44 78.4737 160.44C77.9964 160.44 77.5797 160.558 77.2237 160.793C76.8714 161.024 76.5987 161.327 76.4055 161.702C76.2161 162.073 76.1214 162.476 76.1214 162.912V163.906C76.1214 164.49 76.2237 164.986 76.4282 165.395C76.6366 165.804 76.9263 166.117 77.2975 166.332C77.6688 166.545 78.1025 166.651 78.5987 166.651C78.9206 166.651 79.2142 166.605 79.4794 166.514C79.7445 166.42 79.9737 166.279 80.1669 166.094C80.36 165.908 80.5078 165.679 80.61 165.406L82.218 165.696C82.0892 166.17 81.8581 166.584 81.5248 166.94C81.1953 167.293 80.7805 167.567 80.2805 167.764C79.7843 167.957 79.218 168.054 78.5816 168.054ZM83.3586 170.395V166.406H84.0688C84.2507 166.24 84.4041 166.041 84.5291 165.81C84.6579 165.579 84.7658 165.304 84.8529 164.986C84.9438 164.668 85.0196 164.296 85.0802 163.872C85.1408 163.444 85.1938 162.956 85.2393 162.406L85.512 159.151H91.4438V166.406H92.7848V170.395H91.1257V167.878H85.0404V170.395H83.3586ZM85.887 166.406H89.7848V160.605H87.0348L86.8529 162.406C86.7658 163.323 86.656 164.118 86.5234 164.793C86.3908 165.463 86.1787 166.001 85.887 166.406ZM98.6796 167.878V159.151H102.299C103.284 159.151 104.064 159.361 104.64 159.781C105.216 160.198 105.504 160.764 105.504 161.48C105.504 161.992 105.341 162.397 105.015 162.696C104.689 162.995 104.257 163.196 103.719 163.298C104.11 163.344 104.468 163.461 104.793 163.651C105.119 163.836 105.38 164.086 105.577 164.401C105.778 164.715 105.879 165.09 105.879 165.526C105.879 165.988 105.759 166.397 105.521 166.753C105.282 167.105 104.935 167.382 104.481 167.582C104.03 167.779 103.486 167.878 102.85 167.878H98.6796ZM100.276 166.457H102.85C103.271 166.457 103.6 166.357 103.839 166.156C104.077 165.956 104.197 165.683 104.197 165.338C104.197 164.933 104.077 164.615 103.839 164.384C103.6 164.149 103.271 164.031 102.85 164.031H100.276V166.457ZM100.276 162.787H102.316C102.634 162.787 102.907 162.742 103.134 162.651C103.365 162.56 103.541 162.431 103.663 162.264C103.788 162.094 103.85 161.893 103.85 161.662C103.85 161.325 103.712 161.062 103.435 160.872C103.159 160.683 102.78 160.588 102.299 160.588H100.276V162.787ZM110.282 168.071C109.729 168.071 109.229 167.969 108.782 167.764C108.335 167.556 107.981 167.255 107.719 166.861C107.462 166.467 107.333 165.984 107.333 165.412C107.333 164.92 107.428 164.514 107.617 164.196C107.807 163.878 108.062 163.626 108.384 163.44C108.706 163.255 109.066 163.115 109.464 163.02C109.861 162.925 110.267 162.853 110.68 162.804C111.202 162.743 111.627 162.694 111.952 162.656C112.278 162.615 112.515 162.548 112.663 162.457C112.81 162.367 112.884 162.219 112.884 162.014V161.975C112.884 161.478 112.744 161.094 112.464 160.821C112.187 160.548 111.774 160.412 111.225 160.412C110.653 160.412 110.202 160.539 109.873 160.793C109.547 161.043 109.322 161.321 109.197 161.628L107.6 161.264C107.789 160.734 108.066 160.306 108.43 159.98C108.797 159.651 109.219 159.412 109.697 159.264C110.174 159.113 110.676 159.037 111.202 159.037C111.551 159.037 111.92 159.079 112.31 159.162C112.704 159.242 113.072 159.389 113.413 159.605C113.757 159.821 114.039 160.13 114.259 160.531C114.479 160.929 114.589 161.446 114.589 162.082V167.878H112.93V166.685H112.861C112.752 166.904 112.587 167.12 112.367 167.332C112.147 167.545 111.865 167.721 111.521 167.861C111.176 168.001 110.763 168.071 110.282 168.071ZM110.651 166.707C111.121 166.707 111.522 166.615 111.856 166.429C112.193 166.243 112.449 166.001 112.623 165.702C112.801 165.399 112.89 165.075 112.89 164.73V163.605C112.829 163.666 112.712 163.723 112.538 163.776C112.367 163.825 112.172 163.868 111.952 163.906C111.733 163.94 111.519 163.973 111.31 164.003C111.102 164.029 110.928 164.052 110.788 164.071C110.458 164.113 110.157 164.183 109.884 164.281C109.615 164.38 109.399 164.522 109.236 164.707C109.077 164.889 108.998 165.132 108.998 165.435C108.998 165.855 109.153 166.173 109.464 166.389C109.774 166.601 110.17 166.707 110.651 166.707ZM121.749 165.776L124.567 159.151H126.033L122.38 167.878H121.119L117.539 159.151H118.988L121.749 165.776ZM118.516 159.151V167.878H116.852V159.151H118.516ZM125.028 167.878V159.151H126.681V167.878H125.028ZM130.61 165.497L134.457 159.151H136.286V167.878H134.621V161.526L130.792 167.878H128.945V159.151H130.61V165.497ZM251.202 170.395V166.406H251.913C252.094 166.24 252.248 166.041 252.373 165.81C252.502 165.579 252.61 165.304 252.697 164.986C252.788 164.668 252.863 164.296 252.924 163.872C252.985 163.444 253.038 162.956 253.083 162.406L253.356 159.151H259.288V166.406H260.629V170.395H258.969V167.878H252.884V170.395H251.202ZM253.731 166.406H257.629V160.605H254.879L254.697 162.406C254.61 163.323 254.5 164.118 254.367 164.793C254.235 165.463 254.022 166.001 253.731 166.406ZM261.602 167.878L261.596 166.406H261.908C262.151 166.406 262.353 166.355 262.516 166.253C262.683 166.147 262.819 165.969 262.925 165.719C263.031 165.469 263.113 165.124 263.17 164.685C263.227 164.242 263.268 163.685 263.295 163.014L263.448 159.151H269.539V167.878H267.874V160.617H265.022L264.886 163.582C264.852 164.302 264.778 164.931 264.664 165.469C264.554 166.007 264.393 166.456 264.181 166.815C263.969 167.171 263.696 167.439 263.363 167.617C263.03 167.791 262.624 167.878 262.147 167.878H261.602ZM277.009 167.878V160.6H274.918C274.422 160.6 274.036 160.715 273.759 160.946C273.483 161.177 273.344 161.48 273.344 161.855C273.344 162.226 273.471 162.526 273.725 162.753C273.983 162.976 274.343 163.088 274.805 163.088H277.504V164.463H274.805C274.161 164.463 273.604 164.357 273.134 164.145C272.668 163.929 272.308 163.624 272.055 163.23C271.805 162.836 271.68 162.37 271.68 161.832C271.68 161.283 271.808 160.81 272.066 160.412C272.327 160.011 272.7 159.7 273.185 159.48C273.674 159.261 274.252 159.151 274.918 159.151H278.606V167.878H277.009ZM271.282 167.878L273.742 163.469H275.481L273.021 167.878H271.282ZM37.4453 186.878V178.151H44.5646V186.878H42.8998V179.617H39.0987V186.878H37.4453ZM50.512 187.054C49.6938 187.054 48.9798 186.867 48.37 186.492C47.7601 186.117 47.2867 185.592 46.9495 184.918C46.6124 184.243 46.4438 183.456 46.4438 182.554C46.4438 181.649 46.6124 180.857 46.9495 180.179C47.2867 179.501 47.7601 178.975 48.37 178.6C48.9798 178.225 49.6938 178.037 50.512 178.037C51.3302 178.037 52.0442 178.225 52.6541 178.6C53.2639 178.975 53.7374 179.501 54.0745 180.179C54.4117 180.857 54.5802 181.649 54.5802 182.554C54.5802 183.456 54.4117 184.243 54.0745 184.918C53.7374 185.592 53.2639 186.117 52.6541 186.492C52.0442 186.867 51.3302 187.054 50.512 187.054ZM50.5177 185.628C51.048 185.628 51.4874 185.488 51.8359 185.207C52.1844 184.927 52.442 184.554 52.6086 184.088C52.7791 183.622 52.8643 183.109 52.8643 182.548C52.8643 181.992 52.7791 181.48 52.6086 181.014C52.442 180.545 52.1844 180.168 51.8359 179.884C51.4874 179.6 51.048 179.457 50.5177 179.457C49.9836 179.457 49.5404 179.6 49.1882 179.884C48.8397 180.168 48.5802 180.545 48.4098 181.014C48.2431 181.48 48.1598 181.992 48.1598 182.548C48.1598 183.109 48.2431 183.622 48.4098 184.088C48.5802 184.554 48.8397 184.927 49.1882 185.207C49.5404 185.488 49.9836 185.628 50.5177 185.628ZM61.3742 184.776L64.1924 178.151H65.6583L62.0049 186.878H60.7436L57.164 178.151H58.6129L61.3742 184.776ZM58.1413 178.151V186.878H56.4765V178.151H58.1413ZM64.6527 186.878V178.151H66.3061V186.878H64.6527ZM72.2464 187.054C71.4282 187.054 70.7142 186.867 70.1044 186.492C69.4945 186.117 69.021 185.592 68.6839 184.918C68.3468 184.243 68.1782 183.456 68.1782 182.554C68.1782 181.649 68.3468 180.857 68.6839 180.179C69.021 179.501 69.4945 178.975 70.1044 178.6C70.7142 178.225 71.4282 178.037 72.2464 178.037C73.0646 178.037 73.7786 178.225 74.3885 178.6C74.9983 178.975 75.4718 179.501 75.8089 180.179C76.146 180.857 76.3146 181.649 76.3146 182.554C76.3146 183.456 76.146 184.243 75.8089 184.918C75.4718 185.592 74.9983 186.117 74.3885 186.492C73.7786 186.867 73.0646 187.054 72.2464 187.054ZM72.2521 185.628C72.7824 185.628 73.2218 185.488 73.5703 185.207C73.9188 184.927 74.1763 184.554 74.343 184.088C74.5135 183.622 74.5987 183.109 74.5987 182.548C74.5987 181.992 74.5135 181.48 74.343 181.014C74.1763 180.545 73.9188 180.168 73.5703 179.884C73.2218 179.6 72.7824 179.457 72.2521 179.457C71.718 179.457 71.2748 179.6 70.9225 179.884C70.5741 180.168 70.3146 180.545 70.1441 181.014C69.9775 181.48 69.8941 181.992 69.8941 182.548C69.8941 183.109 69.9775 183.622 70.1441 184.088C70.3146 184.554 70.5741 184.927 70.9225 185.207C71.2748 185.488 71.718 185.628 72.2521 185.628ZM90.7166 185.412L90.5575 189.378H88.8927V186.878H87.8075V185.412H90.7166ZM78.2109 178.151H79.8757V185.406H82.8927V178.151H84.5575V185.406H87.5745V178.151H89.2393V186.878H78.2109V178.151ZM94.1725 184.497L98.0191 178.151H99.8487V186.878H98.1839V180.526L94.3544 186.878H92.5078V178.151H94.1725V184.497ZM110.043 187.054C109.199 187.054 108.471 186.863 107.861 186.48C107.255 186.094 106.789 185.562 106.464 184.884C106.138 184.206 105.975 183.429 105.975 182.554C105.975 181.668 106.142 180.886 106.475 180.207C106.808 179.526 107.278 178.993 107.884 178.611C108.49 178.228 109.204 178.037 110.026 178.037C110.689 178.037 111.28 178.16 111.799 178.406C112.318 178.649 112.736 178.99 113.055 179.429C113.377 179.868 113.568 180.382 113.629 180.969H111.975C111.884 180.56 111.676 180.207 111.35 179.912C111.028 179.617 110.596 179.469 110.055 179.469C109.581 179.469 109.166 179.594 108.81 179.844C108.458 180.09 108.183 180.442 107.986 180.901C107.789 181.355 107.691 181.893 107.691 182.514C107.691 183.151 107.788 183.7 107.981 184.162C108.174 184.624 108.447 184.982 108.799 185.236C109.155 185.49 109.574 185.617 110.055 185.617C110.377 185.617 110.668 185.558 110.93 185.44C111.195 185.319 111.416 185.147 111.594 184.923C111.776 184.7 111.903 184.431 111.975 184.117H113.629C113.568 184.681 113.384 185.185 113.077 185.628C112.771 186.071 112.36 186.42 111.844 186.673C111.333 186.927 110.733 187.054 110.043 187.054ZM114.785 179.617V178.151H122.148V179.617H119.302V186.878H117.643V179.617H114.785ZM125.019 190.151C124.765 190.151 124.534 190.13 124.326 190.088C124.118 190.05 123.962 190.009 123.86 189.963L124.269 188.571C124.58 188.654 124.856 188.69 125.099 188.679C125.341 188.668 125.555 188.577 125.741 188.406C125.93 188.236 126.097 187.957 126.241 187.571L126.451 186.992L123.258 178.151H125.076L127.286 184.923H127.377L129.587 178.151H131.411L127.815 188.043C127.648 188.497 127.436 188.882 127.178 189.196C126.921 189.514 126.614 189.753 126.258 189.912C125.902 190.071 125.489 190.151 125.019 190.151ZM131.437 189.395V185.406H132.147C132.329 185.24 132.482 185.041 132.607 184.81C132.736 184.579 132.844 184.304 132.931 183.986C133.022 183.668 133.098 183.296 133.158 182.872C133.219 182.444 133.272 181.956 133.317 181.406L133.59 178.151H139.522V185.406H140.863V189.395H139.204V186.878H133.119V189.395H131.437ZM133.965 185.406H137.863V179.605H135.113L134.931 181.406C134.844 182.323 134.734 183.118 134.602 183.793C134.469 184.463 134.257 185.001 133.965 185.406ZM146.285 187.054C145.425 187.054 144.684 186.87 144.063 186.503C143.446 186.132 142.968 185.611 142.631 184.94C142.298 184.266 142.131 183.476 142.131 182.571C142.131 181.677 142.298 180.889 142.631 180.207C142.968 179.526 143.438 178.993 144.04 178.611C144.646 178.228 145.355 178.037 146.165 178.037C146.658 178.037 147.135 178.118 147.597 178.281C148.059 178.444 148.474 178.7 148.842 179.048C149.209 179.397 149.499 179.85 149.711 180.406C149.923 180.959 150.029 181.632 150.029 182.423V183.026H143.092V181.753H148.364C148.364 181.306 148.273 180.91 148.092 180.565C147.91 180.217 147.654 179.942 147.325 179.742C146.999 179.541 146.616 179.44 146.177 179.44C145.7 179.44 145.283 179.558 144.927 179.793C144.575 180.024 144.302 180.327 144.109 180.702C143.919 181.073 143.825 181.476 143.825 181.912V182.906C143.825 183.49 143.927 183.986 144.131 184.395C144.34 184.804 144.629 185.117 145.001 185.332C145.372 185.545 145.806 185.651 146.302 185.651C146.624 185.651 146.917 185.605 147.182 185.514C147.448 185.42 147.677 185.279 147.87 185.094C148.063 184.908 148.211 184.679 148.313 184.406L149.921 184.696C149.792 185.17 149.561 185.584 149.228 185.94C148.898 186.293 148.484 186.567 147.984 186.764C147.487 186.957 146.921 187.054 146.285 187.054ZM157.829 181.781V183.253H153.102V181.781H157.829ZM153.579 178.151V186.878H151.914V178.151H153.579ZM159.016 178.151V186.878H157.357V178.151H159.016ZM160.207 179.617V178.151H167.57V179.617H164.724V186.878H163.065V179.617H160.207ZM171.501 187.071C170.948 187.071 170.448 186.969 170.001 186.764C169.554 186.556 169.2 186.255 168.938 185.861C168.681 185.467 168.552 184.984 168.552 184.412C168.552 183.92 168.646 183.514 168.836 183.196C169.025 182.878 169.281 182.626 169.603 182.44C169.925 182.255 170.285 182.115 170.682 182.02C171.08 181.925 171.486 181.853 171.898 181.804C172.421 181.743 172.845 181.694 173.171 181.656C173.497 181.615 173.734 181.548 173.881 181.457C174.029 181.367 174.103 181.219 174.103 181.014V180.975C174.103 180.478 173.963 180.094 173.682 179.821C173.406 179.548 172.993 179.412 172.444 179.412C171.872 179.412 171.421 179.539 171.092 179.793C170.766 180.043 170.54 180.321 170.415 180.628L168.819 180.264C169.008 179.734 169.285 179.306 169.648 178.98C170.016 178.651 170.438 178.412 170.915 178.264C171.393 178.113 171.895 178.037 172.421 178.037C172.77 178.037 173.139 178.079 173.529 178.162C173.923 178.242 174.29 178.389 174.631 178.605C174.976 178.821 175.258 179.13 175.478 179.531C175.698 179.929 175.807 180.446 175.807 181.082V186.878H174.148V185.685H174.08C173.97 185.904 173.806 186.12 173.586 186.332C173.366 186.545 173.084 186.721 172.739 186.861C172.395 187.001 171.982 187.071 171.501 187.071ZM171.87 185.707C172.34 185.707 172.741 185.615 173.075 185.429C173.412 185.243 173.667 185.001 173.842 184.702C174.02 184.399 174.109 184.075 174.109 183.73V182.605C174.048 182.666 173.931 182.723 173.756 182.776C173.586 182.825 173.391 182.868 173.171 182.906C172.951 182.94 172.737 182.973 172.529 183.003C172.321 183.029 172.146 183.052 172.006 183.071C171.677 183.113 171.376 183.183 171.103 183.281C170.834 183.38 170.618 183.522 170.455 183.707C170.296 183.889 170.217 184.132 170.217 184.435C170.217 184.855 170.372 185.173 170.682 185.389C170.993 185.601 171.389 185.707 171.87 185.707ZM182.968 184.776L185.786 178.151H187.252L183.599 186.878H182.337L178.758 178.151H180.207L182.968 184.776ZM179.735 178.151V186.878H178.07V178.151H179.735ZM186.246 186.878V178.151H187.9V186.878H186.246ZM192.374 185.287L192.289 185.906C192.232 186.361 192.136 186.834 191.999 187.327C191.867 187.823 191.728 188.283 191.584 188.707C191.444 189.132 191.329 189.469 191.238 189.719H190.033C190.083 189.484 190.151 189.166 190.238 188.764C190.325 188.367 190.41 187.921 190.494 187.429C190.577 186.937 190.639 186.435 190.681 185.923L190.738 185.287H192.374ZM200.485 184.497L204.332 178.151H206.161V186.878H204.496V180.526L200.667 186.878H198.82V178.151H200.485V184.497ZM217.577 184.776L220.396 178.151H221.861L218.208 186.878H216.947L213.367 178.151H214.816L217.577 184.776ZM214.344 178.151V186.878H212.68V178.151H214.344ZM220.856 186.878V178.151H222.509V186.878H220.856ZM226.052 181.151H228.586C229.654 181.151 230.476 181.416 231.052 181.946C231.628 182.476 231.915 183.16 231.915 183.997C231.915 184.543 231.787 185.033 231.529 185.469C231.271 185.904 230.895 186.249 230.398 186.503C229.902 186.753 229.298 186.878 228.586 186.878H224.773V178.151H226.438V185.412H228.586C229.075 185.412 229.476 185.285 229.79 185.031C230.105 184.774 230.262 184.446 230.262 184.048C230.262 183.628 230.105 183.285 229.79 183.02C229.476 182.751 229.075 182.617 228.586 182.617H226.052V181.151ZM233.154 186.878V178.151H234.853V186.878H233.154ZM240.85 184.571H242.589C242.611 184.927 242.772 185.202 243.072 185.395C243.375 185.588 243.767 185.685 244.248 185.685C244.736 185.685 245.153 185.581 245.498 185.372C245.843 185.16 246.015 184.832 246.015 184.389C246.015 184.124 245.949 183.893 245.816 183.696C245.687 183.495 245.504 183.34 245.265 183.23C245.03 183.12 244.752 183.065 244.43 183.065H243.009V181.73H244.43C244.911 181.73 245.271 181.62 245.509 181.401C245.748 181.181 245.867 180.906 245.867 180.577C245.867 180.221 245.738 179.935 245.481 179.719C245.227 179.499 244.873 179.389 244.418 179.389C243.956 179.389 243.572 179.493 243.265 179.702C242.958 179.906 242.797 180.171 242.782 180.497H241.066C241.077 180.009 241.225 179.581 241.509 179.213C241.797 178.842 242.183 178.554 242.668 178.35C243.157 178.141 243.712 178.037 244.333 178.037C244.981 178.037 245.541 178.141 246.015 178.35C246.488 178.558 246.854 178.846 247.111 179.213C247.373 179.581 247.504 180.003 247.504 180.48C247.504 180.961 247.36 181.355 247.072 181.662C246.788 181.965 246.416 182.183 245.958 182.315V182.406C246.295 182.429 246.594 182.531 246.856 182.713C247.117 182.895 247.322 183.136 247.469 183.435C247.617 183.734 247.691 184.073 247.691 184.452C247.691 184.986 247.543 185.448 247.248 185.838C246.956 186.228 246.551 186.529 246.032 186.742C245.517 186.95 244.928 187.054 244.265 187.054C243.621 187.054 243.043 186.954 242.532 186.753C242.024 186.548 241.621 186.261 241.322 185.889C241.026 185.518 240.869 185.079 240.85 184.571ZM248.593 189.395V185.406H249.303C249.485 185.24 249.638 185.041 249.763 184.81C249.892 184.579 250 184.304 250.087 183.986C250.178 183.668 250.254 183.296 250.315 182.872C250.375 182.444 250.428 181.956 250.474 181.406L250.746 178.151H256.678V185.406H258.019V189.395H256.36V186.878H250.275V189.395H248.593ZM251.121 185.406H255.019V179.605H252.269L252.087 181.406C252 182.323 251.89 183.118 251.758 183.793C251.625 184.463 251.413 185.001 251.121 185.406ZM263.441 187.054C262.581 187.054 261.841 186.87 261.219 186.503C260.602 186.132 260.125 185.611 259.788 184.94C259.454 184.266 259.288 183.476 259.288 182.571C259.288 181.677 259.454 180.889 259.788 180.207C260.125 179.526 260.594 178.993 261.197 178.611C261.803 178.228 262.511 178.037 263.322 178.037C263.814 178.037 264.291 178.118 264.754 178.281C265.216 178.444 265.63 178.7 265.998 179.048C266.365 179.397 266.655 179.85 266.867 180.406C267.079 180.959 267.185 181.632 267.185 182.423V183.026H260.248V181.753H265.521C265.521 181.306 265.43 180.91 265.248 180.565C265.066 180.217 264.81 179.942 264.481 179.742C264.155 179.541 263.772 179.44 263.333 179.44C262.856 179.44 262.439 179.558 262.083 179.793C261.731 180.024 261.458 180.327 261.265 180.702C261.075 181.073 260.981 181.476 260.981 181.912V182.906C260.981 183.49 261.083 183.986 261.288 184.395C261.496 184.804 261.786 185.117 262.157 185.332C262.528 185.545 262.962 185.651 263.458 185.651C263.78 185.651 264.074 185.605 264.339 185.514C264.604 185.42 264.833 185.279 265.026 185.094C265.219 184.908 265.367 184.679 265.469 184.406L267.077 184.696C266.949 185.17 266.718 185.584 266.384 185.94C266.055 186.293 265.64 186.567 265.14 186.764C264.644 186.957 264.077 187.054 263.441 187.054ZM272.746 187.054C271.902 187.054 271.174 186.863 270.565 186.48C269.959 186.094 269.493 185.562 269.167 184.884C268.841 184.206 268.678 183.429 268.678 182.554C268.678 181.668 268.845 180.886 269.178 180.207C269.512 179.526 269.981 178.993 270.587 178.611C271.193 178.228 271.907 178.037 272.729 178.037C273.392 178.037 273.983 178.16 274.502 178.406C275.021 178.649 275.44 178.99 275.758 179.429C276.08 179.868 276.271 180.382 276.332 180.969H274.678C274.587 180.56 274.379 180.207 274.053 179.912C273.731 179.617 273.299 179.469 272.758 179.469C272.284 179.469 271.87 179.594 271.513 179.844C271.161 180.09 270.887 180.442 270.69 180.901C270.493 181.355 270.394 181.893 270.394 182.514C270.394 183.151 270.491 183.7 270.684 184.162C270.877 184.624 271.15 184.982 271.502 185.236C271.858 185.49 272.277 185.617 272.758 185.617C273.08 185.617 273.371 185.558 273.633 185.44C273.898 185.319 274.12 185.147 274.298 184.923C274.479 184.7 274.606 184.431 274.678 184.117H276.332C276.271 184.681 276.087 185.185 275.78 185.628C275.474 186.071 275.063 186.42 274.548 186.673C274.036 186.927 273.436 187.054 272.746 187.054ZM279.427 181.151H281.961C283.029 181.151 283.851 181.416 284.427 181.946C285.003 182.476 285.29 183.16 285.29 183.997C285.29 184.543 285.162 185.033 284.904 185.469C284.646 185.904 284.27 186.249 283.773 186.503C283.277 186.753 282.673 186.878 281.961 186.878H278.148V178.151H279.813V185.412H281.961C282.45 185.412 282.851 185.285 283.165 185.031C283.48 184.774 283.637 184.446 283.637 184.048C283.637 183.628 283.48 183.285 283.165 183.02C282.851 182.751 282.45 182.617 281.961 182.617H279.427V181.151ZM50.2024 208.395V204.406H50.9126C51.0944 204.24 51.2478 204.041 51.3728 203.81C51.5016 203.579 51.6096 203.304 51.6967 202.986C51.7876 202.668 51.8634 202.296 51.924 201.872C51.9846 201.444 52.0376 200.956 52.0831 200.406L52.3558 197.151H58.2876V204.406H59.6285V208.395H57.9694V205.878H51.8842V208.395H50.2024ZM52.7308 204.406H56.6285V198.605H53.8785L53.6967 200.406C53.6096 201.323 53.4997 202.118 53.3671 202.793C53.2346 203.463 53.0224 204.001 52.7308 204.406ZM60.6015 205.878L60.5958 204.406H60.9083C61.1508 204.406 61.3534 204.355 61.5163 204.253C61.683 204.147 61.8193 203.969 61.9254 203.719C62.0314 203.469 62.1129 203.124 62.1697 202.685C62.2265 202.242 62.2682 201.685 62.2947 201.014L62.4481 197.151H68.539V205.878H66.8742V198.617H64.022L63.8856 201.582C63.8515 202.302 63.7777 202.931 63.664 203.469C63.5542 204.007 63.3932 204.456 63.1811 204.815C62.9689 205.171 62.6962 205.439 62.3629 205.617C62.0295 205.791 61.6242 205.878 61.147 205.878H60.6015ZM76.0092 205.878V198.6H73.9183C73.4221 198.6 73.0357 198.715 72.7592 198.946C72.4827 199.177 72.3444 199.48 72.3444 199.855C72.3444 200.226 72.4713 200.526 72.7251 200.753C72.9827 200.976 73.3425 201.088 73.8046 201.088H76.5035V202.463H73.8046C73.1607 202.463 72.6039 202.357 72.1342 202.145C71.6683 201.929 71.3084 201.624 71.0546 201.23C70.8046 200.836 70.6796 200.37 70.6796 199.832C70.6796 199.283 70.8084 198.81 71.066 198.412C71.3274 198.011 71.7005 197.7 72.1853 197.48C72.674 197.261 73.2516 197.151 73.9183 197.151H77.6058V205.878H76.0092ZM70.2819 205.878L72.7421 201.469H74.4808L72.0206 205.878H70.2819ZM83.6129 198.617V197.151H90.9765V198.617H88.1299V205.878H86.4708V198.617H83.6129ZM96.0433 206.054C95.2251 206.054 94.5111 205.867 93.9012 205.492C93.2914 205.117 92.8179 204.592 92.4808 203.918C92.1437 203.243 91.9751 202.456 91.9751 201.554C91.9751 200.649 92.1437 199.857 92.4808 199.179C92.8179 198.501 93.2914 197.975 93.9012 197.6C94.5111 197.225 95.2251 197.037 96.0433 197.037C96.8615 197.037 97.5755 197.225 98.1853 197.6C98.7952 197.975 99.2687 198.501 99.6058 199.179C99.9429 199.857 100.111 200.649 100.111 201.554C100.111 202.456 99.9429 203.243 99.6058 203.918C99.2687 204.592 98.7952 205.117 98.1853 205.492C97.5755 205.867 96.8615 206.054 96.0433 206.054ZM96.049 204.628C96.5793 204.628 97.0187 204.488 97.3671 204.207C97.7156 203.927 97.9732 203.554 98.1399 203.088C98.3103 202.622 98.3956 202.109 98.3956 201.548C98.3956 200.992 98.3103 200.48 98.1399 200.014C97.9732 199.545 97.7156 199.168 97.3671 198.884C97.0187 198.6 96.5793 198.457 96.049 198.457C95.5149 198.457 95.0717 198.6 94.7194 198.884C94.3709 199.168 94.1115 199.545 93.941 200.014C93.7743 200.48 93.691 200.992 93.691 201.548C93.691 202.109 93.7743 202.622 93.941 203.088C94.1115 203.554 94.3709 203.927 94.7194 204.207C95.0717 204.488 95.5149 204.628 96.049 204.628ZM107.587 197.151V198.617H103.684V205.878H102.008V197.151H107.587ZM112.653 206.054C111.834 206.054 111.12 205.867 110.511 205.492C109.901 205.117 109.427 204.592 109.09 203.918C108.753 203.243 108.584 202.456 108.584 201.554C108.584 200.649 108.753 199.857 109.09 199.179C109.427 198.501 109.901 197.975 110.511 197.6C111.12 197.225 111.834 197.037 112.653 197.037C113.471 197.037 114.185 197.225 114.795 197.6C115.405 197.975 115.878 198.501 116.215 199.179C116.552 199.857 116.721 200.649 116.721 201.554C116.721 202.456 116.552 203.243 116.215 203.918C115.878 204.592 115.405 205.117 114.795 205.492C114.185 205.867 113.471 206.054 112.653 206.054ZM112.658 204.628C113.189 204.628 113.628 204.488 113.977 204.207C114.325 203.927 114.583 203.554 114.749 203.088C114.92 202.622 115.005 202.109 115.005 201.548C115.005 200.992 114.92 200.48 114.749 200.014C114.583 199.545 114.325 199.168 113.977 198.884C113.628 198.6 113.189 198.457 112.658 198.457C112.124 198.457 111.681 198.6 111.329 198.884C110.98 199.168 110.721 199.545 110.55 200.014C110.384 200.48 110.3 200.992 110.3 201.548C110.3 202.109 110.384 202.622 110.55 203.088C110.721 203.554 110.98 203.927 111.329 204.207C111.681 204.488 112.124 204.628 112.658 204.628ZM120.827 204.287L120.742 204.906C120.685 205.361 120.589 205.834 120.452 206.327C120.32 206.823 120.182 207.283 120.038 207.707C119.897 208.132 119.782 208.469 119.691 208.719H118.486C118.536 208.484 118.604 208.166 118.691 207.764C118.778 207.367 118.863 206.921 118.947 206.429C119.03 205.937 119.093 205.435 119.134 204.923L119.191 204.287H120.827ZM134.279 197.151V205.878H132.62V197.151H134.279ZM133.557 201.202V202.668C133.296 202.774 133.02 202.868 132.728 202.952C132.436 203.031 132.129 203.094 131.807 203.139C131.486 203.185 131.15 203.207 130.802 203.207C129.722 203.207 128.864 202.944 128.228 202.418C127.592 201.887 127.273 201.077 127.273 199.986V197.134H128.927V199.986C128.927 200.399 129.003 200.734 129.154 200.992C129.306 201.249 129.521 201.439 129.802 201.56C130.082 201.681 130.415 201.742 130.802 201.742C131.313 201.742 131.785 201.694 132.217 201.6C132.652 201.501 133.099 201.368 133.557 201.202ZM135.457 198.617V197.151H142.82V198.617H139.974V205.878H138.315V198.617H135.457ZM147.887 206.054C147.069 206.054 146.355 205.867 145.745 205.492C145.135 205.117 144.662 204.592 144.325 203.918C143.987 203.243 143.819 202.456 143.819 201.554C143.819 200.649 143.987 199.857 144.325 199.179C144.662 198.501 145.135 197.975 145.745 197.6C146.355 197.225 147.069 197.037 147.887 197.037C148.705 197.037 149.419 197.225 150.029 197.6C150.639 197.975 151.112 198.501 151.45 199.179C151.787 199.857 151.955 200.649 151.955 201.554C151.955 202.456 151.787 203.243 151.45 203.918C151.112 204.592 150.639 205.117 150.029 205.492C149.419 205.867 148.705 206.054 147.887 206.054ZM147.893 204.628C148.423 204.628 148.862 204.488 149.211 204.207C149.559 203.927 149.817 203.554 149.984 203.088C150.154 202.622 150.239 202.109 150.239 201.548C150.239 200.992 150.154 200.48 149.984 200.014C149.817 199.545 149.559 199.168 149.211 198.884C148.862 198.6 148.423 198.457 147.893 198.457C147.359 198.457 146.915 198.6 146.563 198.884C146.215 199.168 145.955 199.545 145.785 200.014C145.618 200.48 145.535 200.992 145.535 201.548C145.535 202.109 145.618 202.622 145.785 203.088C145.955 203.554 146.215 203.927 146.563 204.207C146.915 204.488 147.359 204.628 147.893 204.628ZM160.584 193.901L161.289 194.975C161.028 195.213 160.73 195.384 160.397 195.486C160.067 195.584 159.687 195.647 159.255 195.673C158.823 195.696 158.329 195.717 157.772 195.736C157.143 195.755 156.626 195.891 156.221 196.145C155.816 196.395 155.503 196.766 155.283 197.259C155.067 197.747 154.927 198.361 154.863 199.1H154.971C155.255 198.558 155.649 198.153 156.153 197.884C156.66 197.615 157.23 197.48 157.863 197.48C158.567 197.48 159.194 197.641 159.744 197.963C160.293 198.285 160.725 198.757 161.039 199.378C161.357 199.995 161.516 200.751 161.516 201.645C161.516 202.55 161.35 203.332 161.016 203.992C160.687 204.651 160.221 205.16 159.619 205.52C159.02 205.876 158.314 206.054 157.499 206.054C156.685 206.054 155.975 205.87 155.369 205.503C154.766 205.132 154.298 204.582 153.965 203.855C153.636 203.128 153.471 202.23 153.471 201.162V200.298C153.471 198.302 153.827 196.8 154.539 195.793C155.251 194.785 156.316 194.268 157.732 194.242C158.191 194.23 158.6 194.228 158.959 194.236C159.319 194.24 159.634 194.223 159.903 194.185C160.175 194.143 160.403 194.048 160.584 193.901ZM157.505 204.628C157.978 204.628 158.386 204.509 158.727 204.27C159.071 204.028 159.336 203.685 159.522 203.242C159.708 202.798 159.8 202.276 159.8 201.673C159.8 201.082 159.708 200.581 159.522 200.168C159.336 199.755 159.071 199.44 158.727 199.225C158.382 199.005 157.969 198.895 157.488 198.895C157.132 198.895 156.814 198.957 156.533 199.082C156.253 199.204 156.013 199.384 155.812 199.622C155.615 199.861 155.461 200.153 155.352 200.497C155.245 200.838 155.189 201.23 155.181 201.673C155.181 202.575 155.388 203.293 155.8 203.827C156.217 204.361 156.785 204.628 157.505 204.628ZM164.692 200.151H167.227C168.295 200.151 169.117 200.416 169.692 200.946C170.268 201.476 170.556 202.16 170.556 202.997C170.556 203.543 170.427 204.033 170.17 204.469C169.912 204.904 169.535 205.249 169.039 205.503C168.543 205.753 167.939 205.878 167.227 205.878H163.414V197.151H165.079V204.412H167.227C167.715 204.412 168.117 204.285 168.431 204.031C168.745 203.774 168.903 203.446 168.903 203.048C168.903 202.628 168.745 202.285 168.431 202.02C168.117 201.751 167.715 201.617 167.227 201.617H164.692V200.151ZM171.795 205.878V197.151H173.494V205.878H171.795ZM180.008 205.878V197.151H187.127V205.878H185.462V198.617H181.661V205.878H180.008ZM193.075 206.054C192.256 206.054 191.542 205.867 190.932 205.492C190.323 205.117 189.849 204.592 189.512 203.918C189.175 203.243 189.006 202.456 189.006 201.554C189.006 200.649 189.175 199.857 189.512 199.179C189.849 198.501 190.323 197.975 190.932 197.6C191.542 197.225 192.256 197.037 193.075 197.037C193.893 197.037 194.607 197.225 195.217 197.6C195.826 197.975 196.3 198.501 196.637 199.179C196.974 199.857 197.143 200.649 197.143 201.554C197.143 202.456 196.974 203.243 196.637 203.918C196.3 204.592 195.826 205.117 195.217 205.492C194.607 205.867 193.893 206.054 193.075 206.054ZM193.08 204.628C193.611 204.628 194.05 204.488 194.398 204.207C194.747 203.927 195.004 203.554 195.171 203.088C195.342 202.622 195.427 202.109 195.427 201.548C195.427 200.992 195.342 200.48 195.171 200.014C195.004 199.545 194.747 199.168 194.398 198.884C194.05 198.6 193.611 198.457 193.08 198.457C192.546 198.457 192.103 198.6 191.751 198.884C191.402 199.168 191.143 199.545 190.972 200.014C190.806 200.48 190.722 200.992 190.722 201.548C190.722 202.109 190.806 202.622 190.972 203.088C191.143 203.554 191.402 203.927 191.751 204.207C192.103 204.488 192.546 204.628 193.08 204.628ZM203.937 203.776L206.755 197.151H208.221L204.567 205.878H203.306L199.727 197.151H201.175L203.937 203.776ZM200.704 197.151V205.878H199.039V197.151H200.704ZM207.215 205.878V197.151H208.869V205.878H207.215ZM214.809 206.054C213.991 206.054 213.277 205.867 212.667 205.492C212.057 205.117 211.584 204.592 211.246 203.918C210.909 203.243 210.741 202.456 210.741 201.554C210.741 200.649 210.909 199.857 211.246 199.179C211.584 198.501 212.057 197.975 212.667 197.6C213.277 197.225 213.991 197.037 214.809 197.037C215.627 197.037 216.341 197.225 216.951 197.6C217.561 197.975 218.034 198.501 218.371 199.179C218.709 199.857 218.877 200.649 218.877 201.554C218.877 202.456 218.709 203.243 218.371 203.918C218.034 204.592 217.561 205.117 216.951 205.492C216.341 205.867 215.627 206.054 214.809 206.054ZM214.815 204.628C215.345 204.628 215.784 204.488 216.133 204.207C216.481 203.927 216.739 203.554 216.905 203.088C217.076 202.622 217.161 202.109 217.161 201.548C217.161 200.992 217.076 200.48 216.905 200.014C216.739 199.545 216.481 199.168 216.133 198.884C215.784 198.6 215.345 198.457 214.815 198.457C214.28 198.457 213.837 198.6 213.485 198.884C213.137 199.168 212.877 199.545 212.707 200.014C212.54 200.48 212.457 200.992 212.457 201.548C212.457 202.109 212.54 202.622 212.707 203.088C212.877 203.554 213.137 203.927 213.485 204.207C213.837 204.488 214.28 204.628 214.815 204.628ZM227.779 197.151V205.878H226.12V197.151H227.779ZM227.057 201.202V202.668C226.796 202.774 226.52 202.868 226.228 202.952C225.936 203.031 225.629 203.094 225.307 203.139C224.986 203.185 224.65 203.207 224.302 203.207C223.222 203.207 222.364 202.944 221.728 202.418C221.092 201.887 220.773 201.077 220.773 199.986V197.134H222.427V199.986C222.427 200.399 222.503 200.734 222.654 200.992C222.806 201.249 223.021 201.439 223.302 201.56C223.582 201.681 223.915 201.742 224.302 201.742C224.813 201.742 225.285 201.694 225.717 201.6C226.152 201.501 226.599 201.368 227.057 201.202ZM231.317 200.151H233.852C234.92 200.151 235.742 200.416 236.317 200.946C236.893 201.476 237.181 202.16 237.181 202.997C237.181 203.543 237.052 204.033 236.795 204.469C236.537 204.904 236.16 205.249 235.664 205.503C235.168 205.753 234.564 205.878 233.852 205.878H230.039V197.151H231.704V204.412H233.852C234.34 204.412 234.742 204.285 235.056 204.031C235.37 203.774 235.528 203.446 235.528 203.048C235.528 202.628 235.37 202.285 235.056 202.02C234.742 201.751 234.34 201.617 233.852 201.617H231.317V200.151ZM243.32 205.878V197.151H246.94C247.924 197.151 248.705 197.361 249.28 197.781C249.856 198.198 250.144 198.764 250.144 199.48C250.144 199.992 249.981 200.397 249.655 200.696C249.33 200.995 248.898 201.196 248.36 201.298C248.75 201.344 249.108 201.461 249.434 201.651C249.76 201.836 250.021 202.086 250.218 202.401C250.419 202.715 250.519 203.09 250.519 203.526C250.519 203.988 250.4 204.397 250.161 204.753C249.923 205.105 249.576 205.382 249.121 205.582C248.671 205.779 248.127 205.878 247.491 205.878H243.32ZM244.917 204.457H247.491C247.911 204.457 248.241 204.357 248.479 204.156C248.718 203.956 248.837 203.683 248.837 203.338C248.837 202.933 248.718 202.615 248.479 202.384C248.241 202.149 247.911 202.031 247.491 202.031H244.917V204.457ZM244.917 200.787H246.957C247.275 200.787 247.548 200.742 247.775 200.651C248.006 200.56 248.182 200.431 248.303 200.264C248.428 200.094 248.491 199.893 248.491 199.662C248.491 199.325 248.352 199.062 248.076 198.872C247.799 198.683 247.421 198.588 246.94 198.588H244.917V200.787ZM254.923 206.071C254.37 206.071 253.87 205.969 253.423 205.764C252.976 205.556 252.621 205.255 252.36 204.861C252.102 204.467 251.974 203.984 251.974 203.412C251.974 202.92 252.068 202.514 252.258 202.196C252.447 201.878 252.703 201.626 253.025 201.44C253.347 201.255 253.707 201.115 254.104 201.02C254.502 200.925 254.907 200.853 255.32 200.804C255.843 200.743 256.267 200.694 256.593 200.656C256.919 200.615 257.155 200.548 257.303 200.457C257.451 200.367 257.525 200.219 257.525 200.014V199.975C257.525 199.478 257.385 199.094 257.104 198.821C256.828 198.548 256.415 198.412 255.866 198.412C255.294 198.412 254.843 198.539 254.513 198.793C254.188 199.043 253.962 199.321 253.837 199.628L252.241 199.264C252.43 198.734 252.707 198.306 253.07 197.98C253.438 197.651 253.86 197.412 254.337 197.264C254.815 197.113 255.316 197.037 255.843 197.037C256.191 197.037 256.561 197.079 256.951 197.162C257.345 197.242 257.712 197.389 258.053 197.605C258.398 197.821 258.68 198.13 258.9 198.531C259.12 198.929 259.229 199.446 259.229 200.082V205.878H257.57V204.685H257.502C257.392 204.904 257.227 205.12 257.008 205.332C256.788 205.545 256.506 205.721 256.161 205.861C255.816 206.001 255.404 206.071 254.923 206.071ZM255.292 204.707C255.762 204.707 256.163 204.615 256.496 204.429C256.834 204.243 257.089 204.001 257.263 203.702C257.441 203.399 257.53 203.075 257.53 202.73V201.605C257.47 201.666 257.352 201.723 257.178 201.776C257.008 201.825 256.813 201.868 256.593 201.906C256.373 201.94 256.159 201.973 255.951 202.003C255.743 202.029 255.568 202.052 255.428 202.071C255.099 202.113 254.798 202.183 254.525 202.281C254.256 202.38 254.04 202.522 253.877 202.707C253.718 202.889 253.638 203.132 253.638 203.435C253.638 203.855 253.794 204.173 254.104 204.389C254.415 204.601 254.811 204.707 255.292 204.707ZM266.39 203.776L269.208 197.151H270.674L267.021 205.878H265.759L262.18 197.151H263.629L266.39 203.776ZM263.157 197.151V205.878H261.492V197.151H263.157ZM269.668 205.878V197.151H271.322V205.878H269.668ZM60.0397 219.781V221.253H55.3125V219.781H60.0397ZM55.7897 216.151V224.878H54.125V216.151H55.7897ZM61.2272 216.151V224.878H59.5681V216.151H61.2272ZM66.0397 225.071C65.4867 225.071 64.9867 224.969 64.5397 224.764C64.0928 224.556 63.7386 224.255 63.4772 223.861C63.2197 223.467 63.0909 222.984 63.0909 222.412C63.0909 221.92 63.1856 221.514 63.375 221.196C63.5643 220.878 63.82 220.626 64.142 220.44C64.464 220.255 64.8238 220.115 65.2215 220.02C65.6193 219.925 66.0246 219.853 66.4375 219.804C66.9602 219.743 67.3844 219.694 67.7102 219.656C68.0359 219.615 68.2727 219.548 68.4204 219.457C68.5681 219.367 68.642 219.219 68.642 219.014V218.975C68.642 218.478 68.5018 218.094 68.2215 217.821C67.945 217.548 67.5322 217.412 66.9829 217.412C66.4109 217.412 65.9602 217.539 65.6306 217.793C65.3049 218.043 65.0795 218.321 64.9545 218.628L63.3579 218.264C63.5473 217.734 63.8238 217.306 64.1875 216.98C64.5549 216.651 64.9772 216.412 65.4545 216.264C65.9318 216.113 66.4337 216.037 66.9602 216.037C67.3087 216.037 67.678 216.079 68.0681 216.162C68.4621 216.242 68.8295 216.389 69.1704 216.605C69.5151 216.821 69.7973 217.13 70.017 217.531C70.2367 217.929 70.3465 218.446 70.3465 219.082V224.878H68.6875V223.685H68.6193C68.5094 223.904 68.3447 224.12 68.125 224.332C67.9053 224.545 67.6231 224.721 67.2784 224.861C66.9337 225.001 66.5208 225.071 66.0397 225.071ZM66.409 223.707C66.8787 223.707 67.2803 223.615 67.6136 223.429C67.9507 223.243 68.2064 223.001 68.3806 222.702C68.5587 222.399 68.6477 222.075 68.6477 221.73V220.605C68.5871 220.666 68.4697 220.723 68.2954 220.776C68.125 220.825 67.9299 220.868 67.7102 220.906C67.4905 220.94 67.2765 220.973 67.0681 221.003C66.8598 221.029 66.6856 221.052 66.5454 221.071C66.2159 221.113 65.9147 221.183 65.642 221.281C65.3731 221.38 65.1572 221.522 64.9943 221.707C64.8352 221.889 64.7556 222.132 64.7556 222.435C64.7556 222.855 64.9109 223.173 65.2215 223.389C65.5322 223.601 65.928 223.707 66.409 223.707ZM79.615 216.151V224.878H77.9559V216.151H79.615ZM78.8934 220.202V221.668C78.6321 221.774 78.3555 221.868 78.0639 221.952C77.7722 222.031 77.4654 222.094 77.1434 222.139C76.8215 222.185 76.4862 222.207 76.1377 222.207C75.0582 222.207 74.2002 221.944 73.5639 221.418C72.9275 220.887 72.6093 220.077 72.6093 218.986V216.134H74.2627V218.986C74.2627 219.399 74.3385 219.734 74.49 219.992C74.6415 220.249 74.8574 220.439 75.1377 220.56C75.418 220.681 75.7514 220.742 76.1377 220.742C76.6491 220.742 77.1207 220.694 77.5525 220.6C77.9881 220.501 78.4351 220.368 78.8934 220.202ZM84.4147 225.071C83.8617 225.071 83.3617 224.969 82.9147 224.764C82.4678 224.556 82.1136 224.255 81.8522 223.861C81.5947 223.467 81.4659 222.984 81.4659 222.412C81.4659 221.92 81.5606 221.514 81.75 221.196C81.9393 220.878 82.195 220.626 82.517 220.44C82.839 220.255 83.1988 220.115 83.5965 220.02C83.9943 219.925 84.3996 219.853 84.8125 219.804C85.3352 219.743 85.7594 219.694 86.0852 219.656C86.4109 219.615 86.6477 219.548 86.7954 219.457C86.9431 219.367 87.017 219.219 87.017 219.014V218.975C87.017 218.478 86.8768 218.094 86.5965 217.821C86.32 217.548 85.9072 217.412 85.3579 217.412C84.7859 217.412 84.3352 217.539 84.0056 217.793C83.6799 218.043 83.4545 218.321 83.3295 218.628L81.7329 218.264C81.9223 217.734 82.1988 217.306 82.5625 216.98C82.9299 216.651 83.3522 216.412 83.8295 216.264C84.3068 216.113 84.8087 216.037 85.3352 216.037C85.6837 216.037 86.053 216.079 86.4431 216.162C86.8371 216.242 87.2045 216.389 87.5454 216.605C87.8901 216.821 88.1723 217.13 88.392 217.531C88.6117 217.929 88.7215 218.446 88.7215 219.082V224.878H87.0625V223.685H86.9943C86.8844 223.904 86.7197 224.12 86.5 224.332C86.2803 224.545 85.9981 224.721 85.6534 224.861C85.3087 225.001 84.8958 225.071 84.4147 225.071ZM84.784 223.707C85.2537 223.707 85.6553 223.615 85.9886 223.429C86.3257 223.243 86.5814 223.001 86.7556 222.702C86.9337 222.399 87.0227 222.075 87.0227 221.73V220.605C86.9621 220.666 86.8447 220.723 86.6704 220.776C86.5 220.825 86.3049 220.868 86.0852 220.906C85.8655 220.94 85.6515 220.973 85.4431 221.003C85.2348 221.029 85.0606 221.052 84.9204 221.071C84.5909 221.113 84.2897 221.183 84.017 221.281C83.7481 221.38 83.5322 221.522 83.3693 221.707C83.2102 221.889 83.1306 222.132 83.1306 222.435C83.1306 222.855 83.2859 223.173 83.5965 223.389C83.9072 223.601 84.303 223.707 84.784 223.707ZM89.9019 217.617V216.151H97.2656V217.617H94.419V224.878H92.7599V217.617H89.9019ZM100.341 219.151H102.875C103.943 219.151 104.765 219.416 105.341 219.946C105.917 220.476 106.205 221.16 106.205 221.997C106.205 222.543 106.076 223.033 105.818 223.469C105.561 223.904 105.184 224.249 104.687 224.503C104.191 224.753 103.587 224.878 102.875 224.878H99.0625V216.151H100.727V223.412H102.875C103.364 223.412 103.765 223.285 104.08 223.031C104.394 222.774 104.551 222.446 104.551 222.048C104.551 221.628 104.394 221.285 104.08 221.02C103.765 220.751 103.364 220.617 102.875 220.617H100.341V219.151ZM112.344 224.878V216.151H115.963C116.948 216.151 117.728 216.361 118.304 216.781C118.88 217.198 119.168 217.764 119.168 218.48C119.168 218.992 119.005 219.397 118.679 219.696C118.353 219.995 117.921 220.196 117.383 220.298C117.774 220.344 118.132 220.461 118.457 220.651C118.783 220.836 119.044 221.086 119.241 221.401C119.442 221.715 119.543 222.09 119.543 222.526C119.543 222.988 119.423 223.397 119.185 223.753C118.946 224.105 118.599 224.382 118.145 224.582C117.694 224.779 117.151 224.878 116.514 224.878H112.344ZM113.94 223.457H116.514C116.935 223.457 117.264 223.357 117.503 223.156C117.741 222.956 117.861 222.683 117.861 222.338C117.861 221.933 117.741 221.615 117.503 221.384C117.264 221.149 116.935 221.031 116.514 221.031H113.94V223.457ZM113.94 219.787H115.98C116.298 219.787 116.571 219.742 116.798 219.651C117.029 219.56 117.205 219.431 117.327 219.264C117.452 219.094 117.514 218.893 117.514 218.662C117.514 218.325 117.376 218.062 117.099 217.872C116.823 217.683 116.444 217.588 115.963 217.588H113.94V219.787ZM123.946 225.071C123.393 225.071 122.893 224.969 122.446 224.764C121.999 224.556 121.645 224.255 121.383 223.861C121.126 223.467 120.997 222.984 120.997 222.412C120.997 221.92 121.092 221.514 121.281 221.196C121.471 220.878 121.726 220.626 122.048 220.44C122.37 220.255 122.73 220.115 123.128 220.02C123.526 219.925 123.931 219.853 124.344 219.804C124.866 219.743 125.291 219.694 125.616 219.656C125.942 219.615 126.179 219.548 126.327 219.457C126.474 219.367 126.548 219.219 126.548 219.014V218.975C126.548 218.478 126.408 218.094 126.128 217.821C125.851 217.548 125.438 217.412 124.889 217.412C124.317 217.412 123.866 217.539 123.537 217.793C123.211 218.043 122.986 218.321 122.861 218.628L121.264 218.264C121.454 217.734 121.73 217.306 122.094 216.98C122.461 216.651 122.883 216.412 123.361 216.264C123.838 216.113 124.34 216.037 124.866 216.037C125.215 216.037 125.584 216.079 125.974 216.162C126.368 216.242 126.736 216.389 127.077 216.605C127.421 216.821 127.704 217.13 127.923 217.531C128.143 217.929 128.253 218.446 128.253 219.082V224.878H126.594V223.685H126.526C126.416 223.904 126.251 224.12 126.031 224.332C125.812 224.545 125.529 224.721 125.185 224.861C124.84 225.001 124.427 225.071 123.946 225.071ZM124.315 223.707C124.785 223.707 125.187 223.615 125.52 223.429C125.857 223.243 126.113 223.001 126.287 222.702C126.465 222.399 126.554 222.075 126.554 221.73V220.605C126.493 220.666 126.376 220.723 126.202 220.776C126.031 220.825 125.836 220.868 125.616 220.906C125.397 220.94 125.183 220.973 124.974 221.003C124.766 221.029 124.592 221.052 124.452 221.071C124.122 221.113 123.821 221.183 123.548 221.281C123.279 221.38 123.063 221.522 122.901 221.707C122.741 221.889 122.662 222.132 122.662 222.435C122.662 222.855 122.817 223.173 123.128 223.389C123.438 223.601 123.834 223.707 124.315 223.707ZM130.516 216.151H132.18V223.406H135.197V216.151H136.862V223.406H139.879V216.151H141.544V224.878H130.516V216.151ZM144.574 228.151C144.32 228.151 144.089 228.13 143.881 228.088C143.672 228.05 143.517 228.009 143.415 227.963L143.824 226.571C144.134 226.654 144.411 226.69 144.653 226.679C144.896 226.668 145.11 226.577 145.295 226.406C145.485 226.236 145.651 225.957 145.795 225.571L146.006 224.992L142.812 216.151H144.631L146.841 222.923H146.932L149.142 216.151H150.966L147.369 226.043C147.203 226.497 146.99 226.882 146.733 227.196C146.475 227.514 146.169 227.753 145.812 227.912C145.456 228.071 145.044 228.151 144.574 228.151ZM160.473 225.054C159.628 225.054 158.901 224.863 158.291 224.48C157.685 224.094 157.219 223.562 156.893 222.884C156.568 222.206 156.405 221.429 156.405 220.554C156.405 219.668 156.571 218.886 156.905 218.207C157.238 217.526 157.708 216.993 158.314 216.611C158.92 216.228 159.634 216.037 160.456 216.037C161.119 216.037 161.71 216.16 162.229 216.406C162.748 216.649 163.166 216.99 163.484 217.429C163.806 217.868 163.998 218.382 164.058 218.969H162.405C162.314 218.56 162.106 218.207 161.78 217.912C161.458 217.617 161.026 217.469 160.484 217.469C160.011 217.469 159.596 217.594 159.24 217.844C158.888 218.09 158.613 218.442 158.416 218.901C158.219 219.355 158.121 219.893 158.121 220.514C158.121 221.151 158.217 221.7 158.41 222.162C158.604 222.624 158.876 222.982 159.229 223.236C159.585 223.49 160.003 223.617 160.484 223.617C160.806 223.617 161.098 223.558 161.359 223.44C161.624 223.319 161.846 223.147 162.024 222.923C162.206 222.7 162.333 222.431 162.405 222.117H164.058C163.998 222.681 163.814 223.185 163.507 223.628C163.2 224.071 162.789 224.42 162.274 224.673C161.763 224.927 161.162 225.054 160.473 225.054ZM165.214 217.617V216.151H172.578V217.617H169.731V224.878H168.072V217.617H165.214ZM175.449 228.151C175.195 228.151 174.964 228.13 174.756 228.088C174.547 228.05 174.392 228.009 174.29 227.963L174.699 226.571C175.009 226.654 175.286 226.69 175.528 226.679C175.771 226.668 175.985 226.577 176.17 226.406C176.36 226.236 176.526 225.957 176.67 225.571L176.881 224.992L173.687 216.151H175.506L177.716 222.923H177.807L180.017 216.151H181.841L178.244 226.043C178.078 226.497 177.865 226.882 177.608 227.196C177.35 227.514 177.044 227.753 176.687 227.912C176.331 228.071 175.919 228.151 175.449 228.151ZM181.866 227.395V223.406H182.577C182.758 223.24 182.912 223.041 183.037 222.81C183.166 222.579 183.274 222.304 183.361 221.986C183.452 221.668 183.527 221.296 183.588 220.872C183.649 220.444 183.702 219.956 183.747 219.406L184.02 216.151H189.952V223.406H191.293V227.395H189.633V224.878H183.548V227.395H181.866ZM184.395 223.406H188.293V217.605H185.543L185.361 219.406C185.274 220.323 185.164 221.118 185.031 221.793C184.899 222.463 184.687 223.001 184.395 223.406ZM196.714 225.054C195.855 225.054 195.114 224.87 194.493 224.503C193.875 224.132 193.398 223.611 193.061 222.94C192.728 222.266 192.561 221.476 192.561 220.571C192.561 219.677 192.728 218.889 193.061 218.207C193.398 217.526 193.868 216.993 194.47 216.611C195.076 216.228 195.785 216.037 196.595 216.037C197.088 216.037 197.565 216.118 198.027 216.281C198.489 216.444 198.904 216.7 199.271 217.048C199.639 217.397 199.928 217.85 200.141 218.406C200.353 218.959 200.459 219.632 200.459 220.423V221.026H193.521V219.753H198.794C198.794 219.306 198.703 218.91 198.521 218.565C198.339 218.217 198.084 217.942 197.754 217.742C197.428 217.541 197.046 217.44 196.606 217.44C196.129 217.44 195.713 217.558 195.356 217.793C195.004 218.024 194.731 218.327 194.538 218.702C194.349 219.073 194.254 219.476 194.254 219.912V220.906C194.254 221.49 194.356 221.986 194.561 222.395C194.769 222.804 195.059 223.117 195.43 223.332C195.802 223.545 196.235 223.651 196.731 223.651C197.053 223.651 197.347 223.605 197.612 223.514C197.877 223.42 198.106 223.279 198.3 223.094C198.493 222.908 198.641 222.679 198.743 222.406L200.351 222.696C200.222 223.17 199.991 223.584 199.658 223.94C199.328 224.293 198.913 224.567 198.413 224.764C197.917 224.957 197.351 225.054 196.714 225.054ZM208.258 219.781V221.253H203.531V219.781H208.258ZM204.008 216.151V224.878H202.344V216.151H204.008ZM209.446 216.151V224.878H207.787V216.151H209.446ZM218.724 216.151V224.878H217.065V216.151H218.724ZM218.003 220.202V221.668C217.741 221.774 217.465 221.868 217.173 221.952C216.882 222.031 216.575 222.094 216.253 222.139C215.931 222.185 215.596 222.207 215.247 222.207C214.168 222.207 213.31 221.944 212.673 221.418C212.037 220.887 211.719 220.077 211.719 218.986V216.134H213.372V218.986C213.372 219.399 213.448 219.734 213.599 219.992C213.751 220.249 213.967 220.439 214.247 220.56C214.527 220.681 214.861 220.742 215.247 220.742C215.758 220.742 216.23 220.694 216.662 220.6C217.097 220.501 217.544 220.368 218.003 220.202ZM224.746 225.054C223.886 225.054 223.145 224.87 222.524 224.503C221.907 224.132 221.429 223.611 221.092 222.94C220.759 222.266 220.592 221.476 220.592 220.571C220.592 219.677 220.759 218.889 221.092 218.207C221.429 217.526 221.899 216.993 222.501 216.611C223.107 216.228 223.816 216.037 224.626 216.037C225.119 216.037 225.596 216.118 226.058 216.281C226.52 216.444 226.935 216.7 227.303 217.048C227.67 217.397 227.96 217.85 228.172 218.406C228.384 218.959 228.49 219.632 228.49 220.423V221.026H221.553V219.753H226.825C226.825 219.306 226.734 218.91 226.553 218.565C226.371 218.217 226.115 217.942 225.785 217.742C225.46 217.541 225.077 217.44 224.638 217.44C224.16 217.44 223.744 217.558 223.388 217.793C223.035 218.024 222.763 218.327 222.57 218.702C222.38 219.073 222.285 219.476 222.285 219.912V220.906C222.285 221.49 222.388 221.986 222.592 222.395C222.801 222.804 223.09 223.117 223.462 223.332C223.833 223.545 224.267 223.651 224.763 223.651C225.085 223.651 225.378 223.605 225.643 223.514C225.909 223.42 226.138 223.279 226.331 223.094C226.524 222.908 226.672 222.679 226.774 222.406L228.382 222.696C228.253 223.17 228.022 223.584 227.689 223.94C227.359 224.293 226.945 224.567 226.445 224.764C225.948 224.957 225.382 225.054 224.746 225.054ZM234.051 225.054C233.206 225.054 232.479 224.863 231.869 224.48C231.263 224.094 230.797 223.562 230.472 222.884C230.146 222.206 229.983 221.429 229.983 220.554C229.983 219.668 230.15 218.886 230.483 218.207C230.816 217.526 231.286 216.993 231.892 216.611C232.498 216.228 233.212 216.037 234.034 216.037C234.697 216.037 235.288 216.16 235.807 216.406C236.326 216.649 236.744 216.99 237.062 217.429C237.384 217.868 237.576 218.382 237.636 218.969H235.983C235.892 218.56 235.684 218.207 235.358 217.912C235.036 217.617 234.604 217.469 234.062 217.469C233.589 217.469 233.174 217.594 232.818 217.844C232.466 218.09 232.191 218.442 231.994 218.901C231.797 219.355 231.699 219.893 231.699 220.514C231.699 221.151 231.795 221.7 231.989 222.162C232.182 222.624 232.455 222.982 232.807 223.236C233.163 223.49 233.581 223.617 234.062 223.617C234.384 223.617 234.676 223.558 234.937 223.44C235.203 223.319 235.424 223.147 235.602 222.923C235.784 222.7 235.911 222.431 235.983 222.117H237.636C237.576 222.681 237.392 223.185 237.085 223.628C236.778 224.071 236.367 224.42 235.852 224.673C235.341 224.927 234.74 225.054 234.051 225.054ZM239.453 224.878V216.151H241.152V219.81H241.97L244.851 216.151H246.953L243.572 220.395L246.993 224.878H244.885L242.254 221.389H241.152V224.878H239.453ZM249.433 228.151C249.179 228.151 248.948 228.13 248.74 228.088C248.532 228.05 248.376 228.009 248.274 227.963L248.683 226.571C248.994 226.654 249.27 226.69 249.513 226.679C249.755 226.668 249.969 226.577 250.155 226.406C250.344 226.236 250.511 225.957 250.655 225.571L250.865 224.992L247.672 216.151H249.49L251.7 222.923H251.791L254.001 216.151H255.825L252.229 226.043C252.062 226.497 251.85 226.882 251.592 227.196C251.335 227.514 251.028 227.753 250.672 227.912C250.316 228.071 249.903 228.151 249.433 228.151ZM261.814 219.844V221.321H257.16V219.844H261.814ZM258.541 216.151V224.878H256.842V216.151H258.541ZM264.473 225.054C263.662 225.054 262.954 224.865 262.348 224.486C261.742 224.107 261.272 223.581 260.939 222.906C260.606 222.228 260.439 221.442 260.439 220.548C260.439 219.647 260.606 218.859 260.939 218.185C261.272 217.507 261.742 216.98 262.348 216.605C262.954 216.226 263.662 216.037 264.473 216.037C265.287 216.037 265.996 216.226 266.598 216.605C267.204 216.98 267.674 217.507 268.007 218.185C268.344 218.859 268.513 219.647 268.513 220.548C268.513 221.442 268.344 222.228 268.007 222.906C267.674 223.581 267.204 224.107 266.598 224.486C265.996 224.865 265.287 225.054 264.473 225.054ZM264.473 223.6C265.022 223.6 265.471 223.461 265.82 223.185C266.172 222.904 266.431 222.533 266.598 222.071C266.765 221.609 266.848 221.101 266.848 220.548C266.848 219.992 266.765 219.482 266.598 219.02C266.431 218.554 266.172 218.181 265.82 217.901C265.471 217.62 265.022 217.48 264.473 217.48C263.928 217.48 263.479 217.62 263.126 217.901C262.774 218.181 262.515 218.554 262.348 219.02C262.181 219.482 262.098 219.992 262.098 220.548C262.098 221.101 262.181 221.609 262.348 222.071C262.515 222.533 262.774 222.904 263.126 223.185C263.479 223.461 263.928 223.6 264.473 223.6ZM134.599 243.878L137.98 239.412L134.639 235.151H136.616L139.315 238.776H139.923V235.151H141.622V238.776H142.213L144.912 235.151H146.889L143.565 239.412L146.929 243.878H144.912L142.19 240.242H141.622V243.878H139.923V240.242H139.355L136.616 243.878H134.599ZM150.321 241.497L154.168 235.151H155.997V243.878H154.332V237.526L150.503 243.878H148.656V235.151H150.321V241.497ZM157.764 241.571H159.503C159.526 241.927 159.687 242.202 159.986 242.395C160.289 242.588 160.681 242.685 161.162 242.685C161.651 242.685 162.067 242.581 162.412 242.372C162.757 242.16 162.929 241.832 162.929 241.389C162.929 241.124 162.863 240.893 162.73 240.696C162.601 240.495 162.418 240.34 162.179 240.23C161.944 240.12 161.666 240.065 161.344 240.065H159.923V238.73H161.344C161.825 238.73 162.185 238.62 162.423 238.401C162.662 238.181 162.781 237.906 162.781 237.577C162.781 237.221 162.652 236.935 162.395 236.719C162.141 236.499 161.787 236.389 161.332 236.389C160.87 236.389 160.486 236.493 160.179 236.702C159.872 236.906 159.711 237.171 159.696 237.497H157.98C157.991 237.009 158.139 236.581 158.423 236.213C158.711 235.842 159.097 235.554 159.582 235.35C160.071 235.141 160.626 235.037 161.247 235.037C161.895 235.037 162.455 235.141 162.929 235.35C163.402 235.558 163.768 235.846 164.026 236.213C164.287 236.581 164.418 237.003 164.418 237.48C164.418 237.961 164.274 238.355 163.986 238.662C163.702 238.965 163.33 239.183 162.872 239.315V239.406C163.209 239.429 163.508 239.531 163.77 239.713C164.031 239.895 164.236 240.136 164.383 240.435C164.531 240.734 164.605 241.073 164.605 241.452C164.605 241.986 164.457 242.448 164.162 242.838C163.87 243.228 163.465 243.529 162.946 243.742C162.431 243.95 161.842 244.054 161.179 244.054C160.535 244.054 159.957 243.954 159.446 243.753C158.938 243.548 158.535 243.261 158.236 242.889C157.94 242.518 157.783 242.079 157.764 241.571ZM172.274 238.781V240.253H167.547V238.781H172.274ZM168.024 235.151V243.878H166.359V235.151H168.024ZM173.462 235.151V243.878H171.803V235.151H173.462ZM177.013 238.151H179.547C180.615 238.151 181.437 238.416 182.013 238.946C182.588 239.476 182.876 240.16 182.876 240.997C182.876 241.543 182.748 242.033 182.49 242.469C182.232 242.904 181.856 243.249 181.359 243.503C180.863 243.753 180.259 243.878 179.547 243.878H175.734V235.151H177.399V242.412H179.547C180.035 242.412 180.437 242.285 180.751 242.031C181.066 241.774 181.223 241.446 181.223 241.048C181.223 240.628 181.066 240.285 180.751 240.02C180.437 239.751 180.035 239.617 179.547 239.617H177.013V238.151ZM186.923 232.242L186.776 240.531H185.202L185.054 232.242H186.923ZM185.991 243.986C185.677 243.986 185.408 243.876 185.185 243.656C184.961 243.433 184.851 243.164 184.855 242.85C184.851 242.539 184.961 242.274 185.185 242.054C185.408 241.831 185.677 241.719 185.991 241.719C186.298 241.719 186.563 241.831 186.787 242.054C187.01 242.274 187.124 242.539 187.128 242.85C187.124 243.058 187.069 243.249 186.963 243.423C186.861 243.594 186.724 243.73 186.554 243.832C186.383 243.935 186.196 243.986 185.991 243.986Z" fill="#2D3342"/>
<path d="M142.629 171.151V159.151H145.015V160.617H145.123C145.229 160.382 145.382 160.143 145.583 159.901C145.788 159.654 146.053 159.45 146.379 159.287C146.708 159.12 147.117 159.037 147.606 159.037C148.242 159.037 148.829 159.204 149.367 159.537C149.905 159.867 150.335 160.365 150.657 161.031C150.979 161.694 151.14 162.526 151.14 163.526C151.14 164.499 150.983 165.321 150.668 165.992C150.358 166.658 149.933 167.164 149.396 167.509C148.861 167.85 148.263 168.02 147.6 168.02C147.13 168.02 146.731 167.942 146.401 167.787C146.075 167.632 145.808 167.437 145.6 167.202C145.392 166.963 145.233 166.723 145.123 166.48H145.049V171.151H142.629ZM144.998 163.514C144.998 164.033 145.07 164.486 145.214 164.872C145.358 165.259 145.566 165.56 145.839 165.776C146.111 165.988 146.443 166.094 146.833 166.094C147.227 166.094 147.56 165.986 147.833 165.77C148.106 165.55 148.312 165.247 148.452 164.861C148.596 164.471 148.668 164.022 148.668 163.514C148.668 163.011 148.598 162.567 148.458 162.185C148.318 161.802 148.111 161.503 147.839 161.287C147.566 161.071 147.231 160.963 146.833 160.963C146.439 160.963 146.106 161.067 145.833 161.276C145.564 161.484 145.358 161.779 145.214 162.162C145.07 162.545 144.998 162.995 144.998 163.514ZM153.967 171.151C153.66 171.151 153.372 171.126 153.103 171.077C152.838 171.031 152.618 170.973 152.444 170.901L152.989 169.094C153.273 169.181 153.529 169.228 153.756 169.236C153.987 169.243 154.186 169.19 154.353 169.077C154.523 168.963 154.662 168.77 154.768 168.497L154.91 168.128L151.779 159.151H154.325L156.131 165.56H156.222L158.046 159.151H160.609L157.217 168.821C157.054 169.291 156.832 169.7 156.552 170.048C156.275 170.401 155.925 170.671 155.501 170.861C155.076 171.054 154.565 171.151 153.967 171.151ZM161.847 167.878V159.151H164.268V162.537H164.95L167.325 159.151H170.165L167.08 163.48L170.2 167.878H167.325L165.171 164.781H164.268V167.878H161.847ZM174.806 168.048C173.923 168.048 173.16 167.861 172.516 167.486C171.876 167.107 171.382 166.581 171.033 165.906C170.685 165.228 170.511 164.442 170.511 163.548C170.511 162.647 170.685 161.859 171.033 161.185C171.382 160.507 171.876 159.98 172.516 159.605C173.16 159.226 173.923 159.037 174.806 159.037C175.689 159.037 176.45 159.226 177.09 159.605C177.734 159.98 178.23 160.507 178.579 161.185C178.927 161.859 179.102 162.647 179.102 163.548C179.102 164.442 178.927 165.228 178.579 165.906C178.23 166.581 177.734 167.107 177.09 167.486C176.45 167.861 175.689 168.048 174.806 168.048ZM174.817 166.173C175.219 166.173 175.554 166.06 175.823 165.832C176.092 165.601 176.295 165.287 176.431 164.889C176.571 164.492 176.641 164.039 176.641 163.531C176.641 163.024 176.571 162.571 176.431 162.173C176.295 161.776 176.092 161.461 175.823 161.23C175.554 160.999 175.219 160.884 174.817 160.884C174.412 160.884 174.071 160.999 173.795 161.23C173.522 161.461 173.316 161.776 173.175 162.173C173.039 162.571 172.971 163.024 172.971 163.531C172.971 164.039 173.039 164.492 173.175 164.889C173.316 165.287 173.522 165.601 173.795 165.832C174.071 166.06 174.412 166.173 174.817 166.173ZM180.675 167.878V159.151H184.397C185.473 159.151 186.323 159.355 186.948 159.764C187.573 160.173 187.886 160.755 187.886 161.509C187.886 161.982 187.709 162.376 187.357 162.69C187.005 163.005 186.516 163.217 185.891 163.327C186.414 163.365 186.859 163.484 187.227 163.685C187.598 163.882 187.88 164.137 188.073 164.452C188.27 164.766 188.369 165.115 188.369 165.497C188.369 165.993 188.236 166.42 187.971 166.776C187.709 167.132 187.325 167.404 186.817 167.594C186.314 167.783 185.698 167.878 184.971 167.878H180.675ZM182.931 166.065H184.971C185.308 166.065 185.571 165.986 185.761 165.827C185.954 165.664 186.05 165.442 186.05 165.162C186.05 164.851 185.954 164.607 185.761 164.429C185.571 164.251 185.308 164.162 184.971 164.162H182.931V166.065ZM182.931 162.742H184.448C184.691 162.742 184.897 162.707 185.067 162.639C185.242 162.567 185.374 162.465 185.465 162.332C185.56 162.2 185.607 162.043 185.607 161.861C185.607 161.592 185.499 161.382 185.283 161.23C185.067 161.079 184.772 161.003 184.397 161.003H182.931V162.742ZM193.837 168.048C192.955 168.048 192.191 167.861 191.548 167.486C190.907 167.107 190.413 166.581 190.065 165.906C189.716 165.228 189.542 164.442 189.542 163.548C189.542 162.647 189.716 161.859 190.065 161.185C190.413 160.507 190.907 159.98 191.548 159.605C192.191 159.226 192.955 159.037 193.837 159.037C194.72 159.037 195.481 159.226 196.121 159.605C196.765 159.98 197.262 160.507 197.61 161.185C197.959 161.859 198.133 162.647 198.133 163.548C198.133 164.442 197.959 165.228 197.61 165.906C197.262 166.581 196.765 167.107 196.121 167.486C195.481 167.861 194.72 168.048 193.837 168.048ZM193.849 166.173C194.25 166.173 194.585 166.06 194.854 165.832C195.123 165.601 195.326 165.287 195.462 164.889C195.602 164.492 195.673 164.039 195.673 163.531C195.673 163.024 195.602 162.571 195.462 162.173C195.326 161.776 195.123 161.461 194.854 161.23C194.585 160.999 194.25 160.884 193.849 160.884C193.443 160.884 193.102 160.999 192.826 161.23C192.553 161.461 192.347 161.776 192.207 162.173C192.07 162.571 192.002 163.024 192.002 163.531C192.002 164.039 192.07 164.492 192.207 164.889C192.347 165.287 192.553 165.601 192.826 165.832C193.102 166.06 193.443 166.173 193.849 166.173ZM199.025 170.435V165.957H199.695C199.888 165.836 200.044 165.643 200.161 165.378C200.282 165.113 200.381 164.8 200.457 164.44C200.536 164.081 200.597 163.692 200.638 163.276C200.684 162.855 200.724 162.431 200.758 162.003L200.985 159.151H207.678V165.957H209.03V170.435H206.724V167.878H201.388V170.435H199.025ZM202.104 165.957H205.394V161.014H203.042L202.951 162.003C202.887 162.935 202.794 163.726 202.673 164.378C202.551 165.026 202.362 165.552 202.104 165.957ZM214.384 168.048C213.49 168.048 212.721 167.859 212.077 167.48C211.437 167.098 210.945 166.567 210.6 165.889C210.259 165.211 210.089 164.431 210.089 163.548C210.089 162.654 210.261 161.87 210.606 161.196C210.954 160.518 211.449 159.99 212.089 159.611C212.729 159.228 213.49 159.037 214.373 159.037C215.134 159.037 215.801 159.175 216.373 159.452C216.945 159.728 217.397 160.117 217.731 160.617C218.064 161.117 218.248 161.704 218.282 162.378H215.998C215.933 161.942 215.763 161.592 215.486 161.327C215.214 161.058 214.856 160.923 214.413 160.923C214.038 160.923 213.71 161.026 213.43 161.23C213.153 161.431 212.937 161.725 212.782 162.111C212.627 162.497 212.549 162.965 212.549 163.514C212.549 164.071 212.625 164.545 212.776 164.935C212.932 165.325 213.149 165.622 213.43 165.827C213.71 166.031 214.038 166.134 214.413 166.134C214.689 166.134 214.937 166.077 215.157 165.963C215.38 165.85 215.564 165.685 215.708 165.469C215.856 165.249 215.952 164.986 215.998 164.679H218.282C218.244 165.346 218.062 165.933 217.736 166.44C217.414 166.944 216.969 167.338 216.401 167.622C215.833 167.906 215.161 168.048 214.384 168.048ZM219.236 161.054V159.151H227.146V161.054H224.333V167.878H222.026V161.054H219.236ZM228.613 167.878V159.151H232.334C233.41 159.151 234.261 159.355 234.886 159.764C235.511 160.173 235.823 160.755 235.823 161.509C235.823 161.982 235.647 162.376 235.295 162.69C234.942 163.005 234.454 163.217 233.829 163.327C234.352 163.365 234.797 163.484 235.164 163.685C235.535 163.882 235.817 164.137 236.011 164.452C236.208 164.766 236.306 165.115 236.306 165.497C236.306 165.993 236.173 166.42 235.908 166.776C235.647 167.132 235.263 167.404 234.755 167.594C234.251 167.783 233.636 167.878 232.908 167.878H228.613ZM230.869 166.065H232.908C233.245 166.065 233.509 165.986 233.698 165.827C233.891 165.664 233.988 165.442 233.988 165.162C233.988 164.851 233.891 164.607 233.698 164.429C233.509 164.251 233.245 164.162 232.908 164.162H230.869V166.065ZM230.869 162.742H232.386C232.628 162.742 232.834 162.707 233.005 162.639C233.179 162.567 233.312 162.465 233.403 162.332C233.497 162.2 233.545 162.043 233.545 161.861C233.545 161.592 233.437 161.382 233.221 161.23C233.005 161.079 232.709 161.003 232.334 161.003H230.869V162.742ZM241.775 168.048C240.892 168.048 240.129 167.861 239.485 167.486C238.845 167.107 238.351 166.581 238.002 165.906C237.654 165.228 237.479 164.442 237.479 163.548C237.479 162.647 237.654 161.859 238.002 161.185C238.351 160.507 238.845 159.98 239.485 159.605C240.129 159.226 240.892 159.037 241.775 159.037C242.657 159.037 243.419 159.226 244.059 159.605C244.703 159.98 245.199 160.507 245.548 161.185C245.896 161.859 246.07 162.647 246.07 163.548C246.07 164.442 245.896 165.228 245.548 165.906C245.199 166.581 244.703 167.107 244.059 167.486C243.419 167.861 242.657 168.048 241.775 168.048ZM241.786 166.173C242.188 166.173 242.523 166.06 242.792 165.832C243.061 165.601 243.263 165.287 243.4 164.889C243.54 164.492 243.61 164.039 243.61 163.531C243.61 163.024 243.54 162.571 243.4 162.173C243.263 161.776 243.061 161.461 242.792 161.23C242.523 160.999 242.188 160.884 241.786 160.884C241.381 160.884 241.04 160.999 240.763 161.23C240.491 161.461 240.284 161.776 240.144 162.173C240.008 162.571 239.94 163.024 239.94 163.531C239.94 164.039 240.008 164.492 240.144 164.889C240.284 165.287 240.491 165.601 240.763 165.832C241.04 166.06 241.381 166.173 241.786 166.173Z" fill="#5955B3"/>
<defs>
<linearGradient id="paint0_linear_725_6601" x1="137.828" y1="38" x2="211.313" y2="64.2839" gradientUnits="userSpaceOnUse">
<stop stop-color="#5955B3"/>
<stop offset="1" stop-color="#6563CE"/>
</linearGradient>
</defs>
</svg>
