<svg width="325" height="290" viewBox="0 0 325 290" fill="none" xmlns="http://www.w3.org/2000/svg">
<rect width="325" height="290" rx="5" fill="white"/>
<path opacity="0.2" fill-rule="evenodd" clip-rule="evenodd" d="M324.665 270.066C324.629 281.048 315.744 289.945 304.767 290H171.145C177.237 276.125 202.685 248.375 255.738 248.375C308.791 248.375 323.795 226.792 324.665 216V270.066Z" fill="#89AFFF"/>
<path opacity="0.2" fill-rule="evenodd" clip-rule="evenodd" d="M149.339 0C147.452 10.542 135.894 40.1867 88.2784 53.6336C42.0804 66.6801 11.6464 62.1933 0.329229 57.9765L0.329287 20C0.329286 8.95432 9.28355 1.09491e-05 20.3293 1.00856e-05L149.339 0Z" fill="#89AFFF"/>
<path d="M88.5702 77L81.9111 53.7273H87.2861L91.1384 69.8977H91.3315L95.5815 53.7273H100.184L104.422 69.9318H104.627L108.479 53.7273H113.854L107.195 77H102.4L97.9679 61.7841H97.7861L93.3656 77H88.5702ZM122.476 77.3409C120.681 77.3409 119.136 76.9773 117.84 76.25C116.552 75.5152 115.56 74.4773 114.863 73.1364C114.166 71.7879 113.817 70.1932 113.817 68.3523C113.817 66.5568 114.166 64.9811 114.863 63.625C115.56 62.2689 116.541 61.2121 117.806 60.4545C119.079 59.697 120.571 59.3182 122.283 59.3182C123.435 59.3182 124.507 59.5038 125.499 59.875C126.499 60.2386 127.37 60.7879 128.113 61.5227C128.863 62.2576 129.446 63.1818 129.863 64.2955C130.279 65.4015 130.488 66.697 130.488 68.1818V69.5114H115.749V66.5114H125.931C125.931 65.8144 125.779 65.197 125.476 64.6591C125.173 64.1212 124.753 63.7008 124.215 63.3977C123.685 63.0871 123.067 62.9318 122.363 62.9318C121.628 62.9318 120.976 63.1023 120.408 63.4432C119.848 63.7765 119.408 64.2273 119.09 64.7955C118.772 65.3561 118.609 65.9811 118.601 66.6705V69.5227C118.601 70.3864 118.761 71.1326 119.079 71.7614C119.404 72.3902 119.863 72.875 120.454 73.2159C121.045 73.5568 121.745 73.7273 122.556 73.7273C123.094 73.7273 123.586 73.6515 124.033 73.5C124.48 73.3485 124.863 73.1212 125.181 72.8182C125.499 72.5152 125.742 72.1439 125.908 71.7045L130.386 72C130.158 73.0758 129.692 74.0152 128.988 74.8182C128.291 75.6136 127.389 76.2348 126.283 76.6818C125.185 77.1212 123.916 77.3409 122.476 77.3409ZM138.488 53.7273V77H133.647V53.7273H138.488ZM150.252 77.3409C148.464 77.3409 146.926 76.9621 145.638 76.2045C144.358 75.4394 143.373 74.3788 142.684 73.0227C142.002 71.6667 141.661 70.1061 141.661 68.3409C141.661 66.553 142.006 64.9848 142.695 63.6364C143.392 62.2803 144.381 61.2235 145.661 60.4659C146.941 59.7008 148.464 59.3182 150.229 59.3182C151.752 59.3182 153.085 59.5947 154.229 60.1477C155.373 60.7008 156.279 61.4773 156.945 62.4773C157.612 63.4773 157.979 64.6515 158.047 66H153.479C153.35 65.1288 153.01 64.428 152.457 63.8977C151.911 63.3598 151.195 63.0909 150.309 63.0909C149.559 63.0909 148.904 63.2955 148.343 63.7045C147.79 64.1061 147.358 64.6932 147.047 65.4659C146.737 66.2386 146.582 67.1742 146.582 68.2727C146.582 69.3864 146.733 70.3333 147.036 71.1136C147.347 71.8939 147.782 72.4886 148.343 72.8977C148.904 73.3068 149.559 73.5114 150.309 73.5114C150.862 73.5114 151.358 73.3977 151.797 73.1705C152.244 72.9432 152.612 72.6136 152.9 72.1818C153.195 71.7424 153.388 71.2159 153.479 70.6023H158.047C157.972 71.9356 157.608 73.1098 156.957 74.125C156.313 75.1326 155.422 75.9205 154.286 76.4886C153.15 77.0568 151.805 77.3409 150.252 77.3409ZM169.033 77.3409C167.268 77.3409 165.742 76.9659 164.454 76.2159C163.173 75.4583 162.185 74.4053 161.488 73.0568C160.791 71.7008 160.442 70.1288 160.442 68.3409C160.442 66.5379 160.791 64.9621 161.488 63.6136C162.185 62.2576 163.173 61.2045 164.454 60.4545C165.742 59.697 167.268 59.3182 169.033 59.3182C170.798 59.3182 172.321 59.697 173.601 60.4545C174.889 61.2045 175.882 62.2576 176.579 63.6136C177.276 64.9621 177.624 66.5379 177.624 68.3409C177.624 70.1288 177.276 71.7008 176.579 73.0568C175.882 74.4053 174.889 75.4583 173.601 76.2159C172.321 76.9659 170.798 77.3409 169.033 77.3409ZM169.056 73.5909C169.859 73.5909 170.529 73.3636 171.067 72.9091C171.605 72.447 172.011 71.8182 172.283 71.0227C172.564 70.2273 172.704 69.322 172.704 68.3068C172.704 67.2917 172.564 66.3864 172.283 65.5909C172.011 64.7955 171.605 64.1667 171.067 63.7045C170.529 63.2424 169.859 63.0114 169.056 63.0114C168.245 63.0114 167.564 63.2424 167.011 63.7045C166.465 64.1667 166.052 64.7955 165.772 65.5909C165.499 66.3864 165.363 67.2917 165.363 68.3068C165.363 69.322 165.499 70.2273 165.772 71.0227C166.052 71.8182 166.465 72.447 167.011 72.9091C167.564 73.3636 168.245 73.5909 169.056 73.5909ZM180.772 77V59.5455H185.386V62.625H185.59C185.954 61.6023 186.56 60.7955 187.408 60.2045C188.257 59.6136 189.272 59.3182 190.454 59.3182C191.651 59.3182 192.67 59.6174 193.511 60.2159C194.351 60.8068 194.912 61.6098 195.192 62.625H195.374C195.73 61.625 196.374 60.8258 197.306 60.2273C198.245 59.6212 199.355 59.3182 200.636 59.3182C202.264 59.3182 203.586 59.8371 204.601 60.875C205.624 61.9053 206.136 63.3674 206.136 65.2614V77H201.306V66.2159C201.306 65.2462 201.048 64.5189 200.533 64.0341C200.018 63.5492 199.374 63.3068 198.601 63.3068C197.723 63.3068 197.037 63.5871 196.545 64.1477C196.052 64.7008 195.806 65.4318 195.806 66.3409V77H191.113V66.1136C191.113 65.2576 190.867 64.5758 190.374 64.0682C189.889 63.5606 189.249 63.3068 188.454 63.3068C187.916 63.3068 187.431 63.4432 186.999 63.7159C186.575 63.9811 186.238 64.3561 185.988 64.8409C185.738 65.3182 185.613 65.8788 185.613 66.5227V77H180.772ZM217.914 77.3409C216.118 77.3409 214.573 76.9773 213.278 76.25C211.99 75.5152 210.997 74.4773 210.3 73.1364C209.603 71.7879 209.255 70.1932 209.255 68.3523C209.255 66.5568 209.603 64.9811 210.3 63.625C210.997 62.2689 211.978 61.2121 213.243 60.4545C214.516 59.697 216.009 59.3182 217.721 59.3182C218.872 59.3182 219.944 59.5038 220.937 59.875C221.937 60.2386 222.808 60.7879 223.55 61.5227C224.3 62.2576 224.884 63.1818 225.3 64.2955C225.717 65.4015 225.925 66.697 225.925 68.1818V69.5114H211.187V66.5114H221.368C221.368 65.8144 221.217 65.197 220.914 64.6591C220.611 64.1212 220.19 63.7008 219.653 63.3977C219.122 63.0871 218.505 62.9318 217.8 62.9318C217.065 62.9318 216.414 63.1023 215.846 63.4432C215.285 63.7765 214.846 64.2273 214.528 64.7955C214.209 65.3561 214.046 65.9811 214.039 66.6705V69.5227C214.039 70.3864 214.198 71.1326 214.516 71.7614C214.842 72.3902 215.3 72.875 215.891 73.2159C216.482 73.5568 217.183 73.7273 217.993 73.7273C218.531 73.7273 219.024 73.6515 219.471 73.5C219.918 73.3485 220.3 73.1212 220.618 72.8182C220.937 72.5152 221.179 72.1439 221.346 71.7045L225.823 72C225.596 73.0758 225.13 74.0152 224.425 74.8182C223.728 75.6136 222.827 76.2348 221.721 76.6818C220.622 77.1212 219.353 77.3409 217.914 77.3409ZM236.797 47.9091L236.243 68.2784H231.045L230.476 47.9091H236.797ZM233.644 77.3693C232.707 77.3693 231.902 77.0379 231.229 76.375C230.557 75.7027 230.225 74.8977 230.235 73.9602C230.225 73.0322 230.557 72.2367 231.229 71.5739C231.902 70.911 232.707 70.5795 233.644 70.5795C234.544 70.5795 235.334 70.911 236.016 71.5739C236.698 72.2367 237.044 73.0322 237.053 73.9602C237.044 74.5852 236.878 75.1581 236.556 75.679C236.243 76.1903 235.832 76.6023 235.32 76.9148C234.809 77.2178 234.25 77.3693 233.644 77.3693Z" fill="url(#paint0_linear_879_6191)"/>
<path d="M58.4403 133V118.455H60.6349V124.776H67.8863V118.455H70.088V133H67.8863V126.658H60.6349V133H58.4403ZM77.8153 133.22C76.7405 133.22 75.8148 132.991 75.0383 132.531C74.2665 132.067 73.6699 131.416 73.2485 130.578C72.8319 129.735 72.6235 128.748 72.6235 127.616C72.6235 126.499 72.8319 125.514 73.2485 124.662C73.6699 123.81 74.2571 123.144 75.0099 122.666C75.7675 122.188 76.6529 121.949 77.6661 121.949C78.2817 121.949 78.8783 122.051 79.4559 122.254C80.0336 122.458 80.552 122.777 81.0113 123.213C81.4706 123.649 81.8328 124.214 82.098 124.911C82.3631 125.602 82.4957 126.442 82.4957 127.432V128.185H73.8238V126.594H80.4147C80.4147 126.035 80.3011 125.54 80.0738 125.109C79.8465 124.674 79.5269 124.33 79.115 124.08C78.7078 123.829 78.2296 123.703 77.6804 123.703C77.0838 123.703 76.5629 123.85 76.1179 124.143C75.6775 124.432 75.3366 124.811 75.0951 125.28C74.8584 125.744 74.74 126.248 74.74 126.793V128.036C74.74 128.765 74.8679 129.385 75.1235 129.896C75.384 130.408 75.7462 130.798 76.2102 131.068C76.6742 131.333 77.2163 131.466 77.8366 131.466C78.2391 131.466 78.606 131.409 78.9375 131.295C79.2689 131.177 79.5554 131.002 79.7968 130.77C80.0383 130.538 80.223 130.251 80.3508 129.911L82.3608 130.273C82.1998 130.865 81.9109 131.383 81.4943 131.828C81.0823 132.268 80.5639 132.612 79.9389 132.858C79.3186 133.099 78.6108 133.22 77.8153 133.22ZM84.8519 133V122.091H86.9044V123.824H87.0181C87.2169 123.237 87.5673 122.775 88.0692 122.439C88.5758 122.098 89.1487 121.928 89.788 121.928C89.9205 121.928 90.0768 121.932 90.2567 121.942C90.4414 121.951 90.5858 121.963 90.6899 121.977V124.009C90.6047 123.985 90.4532 123.959 90.2354 123.93C90.0176 123.897 89.7998 123.881 89.582 123.881C89.0801 123.881 88.6327 123.987 88.2397 124.2C87.8514 124.409 87.5436 124.7 87.3164 125.074C87.0891 125.443 86.9755 125.865 86.9755 126.338V133H84.8519ZM96.8387 133.22C95.7639 133.22 94.8383 132.991 94.0617 132.531C93.29 132.067 92.6934 131.416 92.272 130.578C91.8553 129.735 91.647 128.748 91.647 127.616C91.647 126.499 91.8553 125.514 92.272 124.662C92.6934 123.81 93.2805 123.144 94.0333 122.666C94.7909 122.188 95.6763 121.949 96.6896 121.949C97.3051 121.949 97.9017 122.051 98.4794 122.254C99.057 122.458 99.5755 122.777 100.035 123.213C100.494 123.649 100.856 124.214 101.121 124.911C101.387 125.602 101.519 126.442 101.519 127.432V128.185H92.8473V126.594H99.4382C99.4382 126.035 99.3245 125.54 99.0973 125.109C98.87 124.674 98.5504 124.33 98.1385 124.08C97.7313 123.829 97.253 123.703 96.7038 123.703C96.1072 123.703 95.5864 123.85 95.1413 124.143C94.701 124.432 94.36 124.811 94.1186 125.28C93.8818 125.744 93.7635 126.248 93.7635 126.793V128.036C93.7635 128.765 93.8913 129.385 94.147 129.896C94.4074 130.408 94.7696 130.798 95.2336 131.068C95.6976 131.333 96.2398 131.466 96.86 131.466C97.2625 131.466 97.6295 131.409 97.9609 131.295C98.2923 131.177 98.5788 131.002 98.8203 130.77C99.0617 130.538 99.2464 130.251 99.3742 129.911L101.384 130.273C101.223 130.865 100.934 131.383 100.518 131.828C100.106 132.268 99.5873 132.612 98.9623 132.858C98.342 133.099 97.6342 133.22 96.8387 133.22ZM109.168 133V122.091H111.292V133H109.168ZM110.241 120.408C109.871 120.408 109.554 120.285 109.289 120.038C109.029 119.787 108.898 119.489 108.898 119.143C108.898 118.793 109.029 118.495 109.289 118.249C109.554 117.998 109.871 117.872 110.241 117.872C110.61 117.872 110.925 117.998 111.185 118.249C111.45 118.495 111.583 118.793 111.583 119.143C111.583 119.489 111.45 119.787 111.185 120.038C110.925 120.285 110.61 120.408 110.241 120.408ZM122.323 124.754L120.399 125.095C120.318 124.849 120.19 124.615 120.015 124.392C119.845 124.17 119.613 123.987 119.319 123.845C119.026 123.703 118.659 123.632 118.218 123.632C117.617 123.632 117.115 123.767 116.713 124.037C116.31 124.302 116.109 124.645 116.109 125.067C116.109 125.431 116.244 125.725 116.514 125.947C116.784 126.17 117.219 126.352 117.821 126.494L119.554 126.892C120.557 127.124 121.305 127.482 121.798 127.964C122.29 128.447 122.537 129.075 122.537 129.847C122.537 130.5 122.347 131.082 121.968 131.594C121.594 132.1 121.071 132.498 120.399 132.787C119.731 133.076 118.957 133.22 118.076 133.22C116.855 133.22 115.858 132.96 115.086 132.439C114.314 131.913 113.841 131.168 113.666 130.202L115.718 129.889C115.846 130.424 116.109 130.829 116.507 131.104C116.904 131.374 117.423 131.509 118.062 131.509C118.758 131.509 119.314 131.364 119.731 131.075C120.148 130.782 120.356 130.424 120.356 130.003C120.356 129.662 120.228 129.375 119.973 129.143C119.722 128.911 119.336 128.736 118.815 128.618L116.968 128.213C115.95 127.981 115.198 127.612 114.71 127.105C114.227 126.598 113.985 125.957 113.985 125.18C113.985 124.536 114.165 123.973 114.525 123.49C114.885 123.007 115.382 122.631 116.017 122.361C116.651 122.086 117.378 121.949 118.197 121.949C119.376 121.949 120.304 122.205 120.981 122.716C121.658 123.223 122.106 123.902 122.323 124.754ZM133.339 133.241C132.648 133.241 132.023 133.114 131.464 132.858C130.905 132.598 130.463 132.221 130.136 131.729C129.814 131.236 129.653 130.633 129.653 129.918C129.653 129.302 129.771 128.795 130.008 128.398C130.245 128 130.564 127.685 130.967 127.453C131.369 127.221 131.819 127.046 132.316 126.928C132.814 126.809 133.32 126.719 133.836 126.658C134.49 126.582 135.02 126.52 135.427 126.473C135.834 126.421 136.13 126.338 136.315 126.224C136.5 126.111 136.592 125.926 136.592 125.67V125.621C136.592 125 136.417 124.52 136.066 124.179C135.721 123.838 135.205 123.668 134.518 123.668C133.803 123.668 133.24 123.826 132.828 124.143C132.421 124.456 132.139 124.804 131.983 125.188L129.987 124.733C130.224 124.07 130.569 123.535 131.024 123.128C131.483 122.716 132.011 122.418 132.608 122.233C133.204 122.044 133.832 121.949 134.49 121.949C134.925 121.949 135.387 122.001 135.875 122.105C136.367 122.205 136.826 122.389 137.252 122.659C137.683 122.929 138.036 123.315 138.311 123.817C138.585 124.314 138.723 124.96 138.723 125.756V133H136.649V131.509H136.564C136.426 131.783 136.22 132.053 135.946 132.318C135.671 132.583 135.318 132.804 134.887 132.979C134.457 133.154 133.94 133.241 133.339 133.241ZM133.801 131.537C134.388 131.537 134.89 131.421 135.306 131.189C135.728 130.957 136.047 130.654 136.265 130.28C136.488 129.901 136.599 129.496 136.599 129.065V127.659C136.523 127.735 136.376 127.806 136.159 127.872C135.946 127.934 135.702 127.988 135.427 128.036C135.153 128.078 134.885 128.118 134.625 128.156C134.364 128.189 134.146 128.218 133.971 128.241C133.559 128.294 133.183 128.381 132.842 128.504C132.506 128.627 132.236 128.805 132.032 129.037C131.833 129.264 131.734 129.567 131.734 129.946C131.734 130.472 131.928 130.869 132.316 131.139C132.705 131.404 133.199 131.537 133.801 131.537ZM155.019 124.754L153.094 125.095C153.014 124.849 152.886 124.615 152.711 124.392C152.54 124.17 152.308 123.987 152.015 123.845C151.721 123.703 151.354 123.632 150.914 123.632C150.312 123.632 149.81 123.767 149.408 124.037C149.006 124.302 148.804 124.645 148.804 125.067C148.804 125.431 148.939 125.725 149.209 125.947C149.479 126.17 149.915 126.352 150.516 126.494L152.249 126.892C153.253 127.124 154.001 127.482 154.493 127.964C154.986 128.447 155.232 129.075 155.232 129.847C155.232 130.5 155.042 131.082 154.664 131.594C154.29 132.1 153.766 132.498 153.094 132.787C152.426 133.076 151.652 133.22 150.772 133.22C149.55 133.22 148.553 132.96 147.782 132.439C147.01 131.913 146.536 131.168 146.361 130.202L148.414 129.889C148.542 130.424 148.804 130.829 149.202 131.104C149.6 131.374 150.118 131.509 150.757 131.509C151.453 131.509 152.01 131.364 152.426 131.075C152.843 130.782 153.051 130.424 153.051 130.003C153.051 129.662 152.924 129.375 152.668 129.143C152.417 128.911 152.031 128.736 151.51 128.618L149.664 128.213C148.646 127.981 147.893 127.612 147.405 127.105C146.922 126.598 146.681 125.957 146.681 125.18C146.681 124.536 146.861 123.973 147.22 123.49C147.58 123.007 148.077 122.631 148.712 122.361C149.346 122.086 150.073 121.949 150.892 121.949C152.071 121.949 152.999 122.205 153.676 122.716C154.354 123.223 154.801 123.902 155.019 124.754ZM162.659 122.091V123.795H156.7V122.091H162.659ZM158.298 119.477H160.422V129.797C160.422 130.209 160.483 130.519 160.606 130.727C160.73 130.931 160.888 131.071 161.082 131.146C161.281 131.217 161.497 131.253 161.729 131.253C161.899 131.253 162.048 131.241 162.176 131.217C162.304 131.194 162.403 131.175 162.474 131.161L162.858 132.915C162.735 132.962 162.56 133.009 162.332 133.057C162.105 133.109 161.821 133.137 161.48 133.142C160.921 133.152 160.401 133.052 159.918 132.844C159.435 132.635 159.044 132.313 158.746 131.878C158.447 131.442 158.298 130.895 158.298 130.237V119.477ZM171.919 128.476V122.091H174.049V133H171.961V131.111H171.848C171.597 131.693 171.194 132.179 170.64 132.567C170.091 132.95 169.407 133.142 168.588 133.142C167.887 133.142 167.267 132.988 166.727 132.68C166.192 132.368 165.77 131.906 165.463 131.295C165.16 130.685 165.008 129.929 165.008 129.03V122.091H167.132V128.774C167.132 129.518 167.338 130.109 167.75 130.55C168.162 130.99 168.697 131.21 169.355 131.21C169.752 131.21 170.148 131.111 170.541 130.912C170.939 130.713 171.268 130.412 171.528 130.01C171.793 129.607 171.923 129.096 171.919 128.476ZM180.986 133.213C180.106 133.213 179.32 132.988 178.629 132.538C177.942 132.084 177.402 131.437 177.009 130.599C176.621 129.757 176.427 128.746 176.427 127.567C176.427 126.388 176.623 125.379 177.016 124.541C177.414 123.703 177.959 123.062 178.65 122.616C179.341 122.171 180.125 121.949 181.001 121.949C181.678 121.949 182.222 122.062 182.634 122.29C183.051 122.512 183.373 122.773 183.6 123.071C183.832 123.369 184.012 123.632 184.14 123.859H184.268V118.455H186.391V133H184.317V131.303H184.14C184.012 131.535 183.827 131.8 183.586 132.098C183.349 132.396 183.022 132.657 182.606 132.879C182.189 133.102 181.649 133.213 180.986 133.213ZM181.455 131.402C182.066 131.402 182.582 131.241 183.004 130.919C183.43 130.592 183.752 130.14 183.969 129.562C184.192 128.985 184.303 128.312 184.303 127.545C184.303 126.788 184.194 126.125 183.977 125.557C183.759 124.989 183.439 124.546 183.018 124.229C182.596 123.911 182.075 123.753 181.455 123.753C180.816 123.753 180.283 123.919 179.857 124.25C179.431 124.581 179.109 125.034 178.891 125.607C178.678 126.179 178.572 126.826 178.572 127.545C178.572 128.275 178.681 128.93 178.898 129.513C179.116 130.095 179.438 130.557 179.864 130.898C180.295 131.234 180.825 131.402 181.455 131.402ZM194.124 133.22C193.049 133.22 192.123 132.991 191.347 132.531C190.575 132.067 189.979 131.416 189.557 130.578C189.14 129.735 188.932 128.748 188.932 127.616C188.932 126.499 189.14 125.514 189.557 124.662C189.979 123.81 190.566 123.144 191.318 122.666C192.076 122.188 192.961 121.949 193.975 121.949C194.59 121.949 195.187 122.051 195.765 122.254C196.342 122.458 196.861 122.777 197.32 123.213C197.779 123.649 198.141 124.214 198.407 124.911C198.672 125.602 198.804 126.442 198.804 127.432V128.185H190.132V126.594H196.723C196.723 126.035 196.61 125.54 196.382 125.109C196.155 124.674 195.836 124.33 195.424 124.08C195.016 123.829 194.538 123.703 193.989 123.703C193.392 123.703 192.872 123.85 192.426 124.143C191.986 124.432 191.645 124.811 191.404 125.28C191.167 125.744 191.049 126.248 191.049 126.793V128.036C191.049 128.765 191.176 129.385 191.432 129.896C191.693 130.408 192.055 130.798 192.519 131.068C192.983 131.333 193.525 131.466 194.145 131.466C194.548 131.466 194.915 131.409 195.246 131.295C195.577 131.177 195.864 131.002 196.105 130.77C196.347 130.538 196.532 130.251 196.659 129.911L198.669 130.273C198.508 130.865 198.22 131.383 197.803 131.828C197.391 132.268 196.872 132.612 196.247 132.858C195.627 133.099 194.919 133.22 194.124 133.22ZM203.284 126.523V133H201.16V122.091H203.199V123.866H203.334C203.585 123.289 203.978 122.825 204.513 122.474C205.053 122.124 205.732 121.949 206.551 121.949C207.294 121.949 207.946 122.105 208.504 122.418C209.063 122.725 209.496 123.185 209.804 123.795C210.112 124.406 210.266 125.161 210.266 126.061V133H208.142V126.317C208.142 125.526 207.936 124.908 207.524 124.463C207.112 124.013 206.546 123.788 205.827 123.788C205.334 123.788 204.896 123.895 204.513 124.108C204.134 124.321 203.833 124.634 203.611 125.045C203.393 125.453 203.284 125.945 203.284 126.523ZM218.206 122.091V123.795H212.247V122.091H218.206ZM213.845 119.477H215.969V129.797C215.969 130.209 216.03 130.519 216.153 130.727C216.276 130.931 216.435 131.071 216.629 131.146C216.828 131.217 217.044 131.253 217.276 131.253C217.446 131.253 217.595 131.241 217.723 131.217C217.851 131.194 217.95 131.175 218.021 131.161L218.405 132.915C218.282 132.962 218.106 133.009 217.879 133.057C217.652 133.109 217.368 133.137 217.027 133.142C216.468 133.152 215.947 133.052 215.464 132.844C214.981 132.635 214.591 132.313 214.293 131.878C213.994 131.442 213.845 130.895 213.845 130.237V119.477ZM227.972 126.523V133H225.848V118.455H227.943V123.866H228.078C228.334 123.279 228.724 122.813 229.25 122.467C229.776 122.122 230.462 121.949 231.31 121.949C232.058 121.949 232.711 122.103 233.27 122.411C233.833 122.718 234.269 123.178 234.577 123.788C234.889 124.394 235.045 125.152 235.045 126.061V133H232.922V126.317C232.922 125.517 232.716 124.896 232.304 124.456C231.892 124.011 231.319 123.788 230.585 123.788C230.083 123.788 229.633 123.895 229.236 124.108C228.843 124.321 228.533 124.634 228.305 125.045C228.083 125.453 227.972 125.945 227.972 126.523ZM242.581 133.22C241.506 133.22 240.58 132.991 239.804 132.531C239.032 132.067 238.436 131.416 238.014 130.578C237.597 129.735 237.389 128.748 237.389 127.616C237.389 126.499 237.597 125.514 238.014 124.662C238.436 123.81 239.023 123.144 239.776 122.666C240.533 122.188 241.419 121.949 242.432 121.949C243.047 121.949 243.644 122.051 244.222 122.254C244.799 122.458 245.318 122.777 245.777 123.213C246.236 123.649 246.598 124.214 246.864 124.911C247.129 125.602 247.261 126.442 247.261 127.432V128.185H238.589V126.594H245.18C245.18 126.035 245.067 125.54 244.839 125.109C244.612 124.674 244.293 124.33 243.881 124.08C243.473 123.829 242.995 123.703 242.446 123.703C241.849 123.703 241.329 123.85 240.883 124.143C240.443 124.432 240.102 124.811 239.861 125.28C239.624 125.744 239.506 126.248 239.506 126.793V128.036C239.506 128.765 239.633 129.385 239.889 129.896C240.15 130.408 240.512 130.798 240.976 131.068C241.44 131.333 241.982 131.466 242.602 131.466C243.005 131.466 243.372 131.409 243.703 131.295C244.035 131.177 244.321 131.002 244.562 130.77C244.804 130.538 244.989 130.251 245.116 129.911L247.126 130.273C246.965 130.865 246.677 131.383 246.26 131.828C245.848 132.268 245.33 132.612 244.705 132.858C244.084 133.099 243.376 133.22 242.581 133.22ZM251.741 118.455V133H249.617V118.455H251.741ZM254.598 137.091V122.091H256.672V123.859H256.849C256.972 123.632 257.15 123.369 257.382 123.071C257.614 122.773 257.936 122.512 258.348 122.29C258.76 122.062 259.304 121.949 259.981 121.949C260.862 121.949 261.648 122.171 262.339 122.616C263.031 123.062 263.573 123.703 263.966 124.541C264.364 125.379 264.562 126.388 264.562 127.567C264.562 128.746 264.366 129.757 263.973 130.599C263.58 131.437 263.04 132.084 262.354 132.538C261.667 132.988 260.883 133.213 260.003 133.213C259.34 133.213 258.798 133.102 258.376 132.879C257.96 132.657 257.633 132.396 257.396 132.098C257.16 131.8 256.977 131.535 256.849 131.303H256.722V137.091H254.598ZM256.679 127.545C256.679 128.312 256.79 128.985 257.013 129.562C257.235 130.14 257.557 130.592 257.979 130.919C258.4 131.241 258.916 131.402 259.527 131.402C260.161 131.402 260.692 131.234 261.118 130.898C261.544 130.557 261.866 130.095 262.084 129.513C262.306 128.93 262.418 128.275 262.418 127.545C262.418 126.826 262.309 126.179 262.091 125.607C261.878 125.034 261.556 124.581 261.125 124.25C260.699 123.919 260.166 123.753 259.527 123.753C258.911 123.753 258.391 123.911 257.964 124.229C257.543 124.546 257.223 124.989 257.006 125.557C256.788 126.125 256.679 126.788 256.679 127.545ZM98.8061 154.011L98.6995 154.786C98.6285 155.354 98.5078 155.946 98.3373 156.561C98.1716 157.181 97.9988 157.757 97.8188 158.287C97.6437 158.817 97.4992 159.239 97.3856 159.551H95.8799C95.9415 159.258 96.0267 158.86 96.1356 158.358C96.2445 157.861 96.351 157.304 96.4552 156.689C96.5594 156.073 96.6375 155.446 96.6896 154.807L96.7606 154.011H98.8061ZM110.038 156.241C109.347 156.241 108.722 156.114 108.163 155.858C107.605 155.598 107.162 155.221 106.835 154.729C106.513 154.236 106.352 153.633 106.352 152.918C106.352 152.302 106.471 151.795 106.707 151.398C106.944 151 107.264 150.685 107.666 150.453C108.069 150.221 108.518 150.046 109.016 149.928C109.513 149.809 110.019 149.719 110.535 149.658C111.189 149.582 111.719 149.52 112.126 149.473C112.534 149.421 112.83 149.338 113.014 149.224C113.199 149.111 113.291 148.926 113.291 148.67V148.621C113.291 148 113.116 147.52 112.766 147.179C112.42 146.838 111.904 146.668 111.217 146.668C110.502 146.668 109.939 146.826 109.527 147.143C109.12 147.456 108.838 147.804 108.682 148.188L106.686 147.733C106.923 147.07 107.268 146.535 107.723 146.128C108.182 145.716 108.71 145.418 109.307 145.233C109.903 145.044 110.531 144.949 111.189 144.949C111.624 144.949 112.086 145.001 112.574 145.105C113.066 145.205 113.526 145.389 113.952 145.659C114.383 145.929 114.735 146.315 115.01 146.817C115.285 147.314 115.422 147.96 115.422 148.756V156H113.348V154.509H113.263C113.125 154.783 112.919 155.053 112.645 155.318C112.37 155.583 112.017 155.804 111.587 155.979C111.156 156.154 110.64 156.241 110.038 156.241ZM110.5 154.537C111.087 154.537 111.589 154.421 112.006 154.189C112.427 153.957 112.747 153.654 112.964 153.28C113.187 152.901 113.298 152.496 113.298 152.065V150.659C113.222 150.735 113.076 150.806 112.858 150.872C112.645 150.934 112.401 150.988 112.126 151.036C111.852 151.078 111.584 151.118 111.324 151.156C111.063 151.189 110.846 151.218 110.67 151.241C110.258 151.294 109.882 151.381 109.541 151.504C109.205 151.627 108.935 151.805 108.731 152.037C108.533 152.264 108.433 152.567 108.433 152.946C108.433 153.472 108.627 153.869 109.016 154.139C109.404 154.404 109.899 154.537 110.5 154.537ZM120.374 149.523V156H118.25V145.091H120.289V146.866H120.424C120.675 146.289 121.068 145.825 121.603 145.474C122.142 145.124 122.822 144.949 123.641 144.949C124.384 144.949 125.035 145.105 125.594 145.418C126.153 145.725 126.586 146.185 126.894 146.795C127.202 147.406 127.355 148.161 127.355 149.061V156H125.232V149.317C125.232 148.526 125.026 147.908 124.614 147.463C124.202 147.013 123.636 146.788 122.917 146.788C122.424 146.788 121.986 146.895 121.603 147.108C121.224 147.321 120.923 147.634 120.701 148.045C120.483 148.453 120.374 148.945 120.374 149.523ZM134.287 156.213C133.407 156.213 132.621 155.988 131.929 155.538C131.243 155.084 130.703 154.437 130.31 153.599C129.922 152.757 129.728 151.746 129.728 150.567C129.728 149.388 129.924 148.379 130.317 147.541C130.715 146.703 131.259 146.062 131.951 145.616C132.642 145.171 133.426 144.949 134.301 144.949C134.979 144.949 135.523 145.062 135.935 145.29C136.352 145.512 136.674 145.773 136.901 146.071C137.133 146.369 137.313 146.632 137.441 146.859H137.568V141.455H139.692V156H137.618V154.303H137.441C137.313 154.535 137.128 154.8 136.887 155.098C136.65 155.396 136.323 155.657 135.907 155.879C135.49 156.102 134.95 156.213 134.287 156.213ZM134.756 154.402C135.367 154.402 135.883 154.241 136.304 153.919C136.73 153.592 137.052 153.14 137.27 152.562C137.493 151.985 137.604 151.312 137.604 150.545C137.604 149.788 137.495 149.125 137.277 148.557C137.059 147.989 136.74 147.546 136.318 147.229C135.897 146.911 135.376 146.753 134.756 146.753C134.117 146.753 133.584 146.919 133.158 147.25C132.732 147.581 132.41 148.034 132.192 148.607C131.979 149.179 131.872 149.826 131.872 150.545C131.872 151.275 131.981 151.93 132.199 152.513C132.417 153.095 132.739 153.557 133.165 153.898C133.596 154.234 134.126 154.402 134.756 154.402ZM150.381 156L147.171 145.091H149.365L151.503 153.102H151.61L153.755 145.091H155.949L158.08 153.067H158.186L160.31 145.091H162.505L159.301 156H157.135L154.919 148.124H154.756L152.54 156H150.381ZM168.89 156.22C167.815 156.22 166.889 155.991 166.113 155.531C165.341 155.067 164.744 154.416 164.323 153.578C163.906 152.735 163.698 151.748 163.698 150.616C163.698 149.499 163.906 148.514 164.323 147.662C164.744 146.81 165.331 146.144 166.084 145.666C166.842 145.188 167.727 144.949 168.74 144.949C169.356 144.949 169.952 145.051 170.53 145.254C171.108 145.458 171.626 145.777 172.086 146.213C172.545 146.649 172.907 147.214 173.172 147.911C173.437 148.602 173.57 149.442 173.57 150.432V151.185H164.898V149.594H171.489C171.489 149.035 171.375 148.54 171.148 148.109C170.921 147.674 170.601 147.33 170.189 147.08C169.782 146.829 169.304 146.703 168.755 146.703C168.158 146.703 167.637 146.85 167.192 147.143C166.752 147.432 166.411 147.811 166.169 148.28C165.933 148.744 165.814 149.248 165.814 149.793V151.036C165.814 151.765 165.942 152.385 166.198 152.896C166.458 153.408 166.82 153.798 167.284 154.068C167.748 154.333 168.291 154.466 168.911 154.466C169.313 154.466 169.68 154.409 170.012 154.295C170.343 154.177 170.63 154.002 170.871 153.77C171.113 153.538 171.297 153.251 171.425 152.911L173.435 153.273C173.274 153.865 172.985 154.383 172.568 154.828C172.157 155.268 171.638 155.612 171.013 155.858C170.393 156.099 169.685 156.22 168.89 156.22ZM184.394 156.241C183.702 156.241 183.077 156.114 182.519 155.858C181.96 155.598 181.517 155.221 181.191 154.729C180.869 154.236 180.708 153.633 180.708 152.918C180.708 152.302 180.826 151.795 181.063 151.398C181.3 151 181.619 150.685 182.022 150.453C182.424 150.221 182.874 150.046 183.371 149.928C183.868 149.809 184.375 149.719 184.891 149.658C185.544 149.582 186.075 149.52 186.482 149.473C186.889 149.421 187.185 149.338 187.37 149.224C187.554 149.111 187.647 148.926 187.647 148.67V148.621C187.647 148 187.471 147.52 187.121 147.179C186.775 146.838 186.259 146.668 185.573 146.668C184.858 146.668 184.294 146.826 183.882 147.143C183.475 147.456 183.193 147.804 183.037 148.188L181.042 147.733C181.278 147.07 181.624 146.535 182.078 146.128C182.538 145.716 183.066 145.418 183.662 145.233C184.259 145.044 184.886 144.949 185.544 144.949C185.98 144.949 186.442 145.001 186.929 145.105C187.422 145.205 187.881 145.389 188.307 145.659C188.738 145.929 189.091 146.315 189.365 146.817C189.64 147.314 189.777 147.96 189.777 148.756V156H187.703V154.509H187.618C187.481 154.783 187.275 155.053 187 155.318C186.726 155.583 186.373 155.804 185.942 155.979C185.511 156.154 184.995 156.241 184.394 156.241ZM184.855 154.537C185.443 154.537 185.944 154.421 186.361 154.189C186.783 153.957 187.102 153.654 187.32 153.28C187.542 152.901 187.654 152.496 187.654 152.065V150.659C187.578 150.735 187.431 150.806 187.213 150.872C187 150.934 186.756 150.988 186.482 151.036C186.207 151.078 185.94 151.118 185.679 151.156C185.419 151.189 185.201 151.218 185.026 151.241C184.614 151.294 184.238 151.381 183.897 151.504C183.56 151.627 183.291 151.805 183.087 152.037C182.888 152.264 182.789 152.567 182.789 152.946C182.789 153.472 182.983 153.869 183.371 154.139C183.759 154.404 184.254 154.537 184.855 154.537ZM192.606 156V145.091H194.658V146.824H194.772C194.971 146.237 195.321 145.775 195.823 145.439C196.33 145.098 196.903 144.928 197.542 144.928C197.674 144.928 197.831 144.932 198.011 144.942C198.195 144.951 198.34 144.963 198.444 144.977V147.009C198.359 146.985 198.207 146.959 197.989 146.93C197.771 146.897 197.554 146.881 197.336 146.881C196.834 146.881 196.387 146.987 195.994 147.2C195.605 147.409 195.298 147.7 195.07 148.074C194.843 148.443 194.729 148.865 194.729 149.338V156H192.606ZM204.593 156.22C203.518 156.22 202.592 155.991 201.816 155.531C201.044 155.067 200.447 154.416 200.026 153.578C199.609 152.735 199.401 151.748 199.401 150.616C199.401 149.499 199.609 148.514 200.026 147.662C200.447 146.81 201.034 146.144 201.787 145.666C202.545 145.188 203.43 144.949 204.443 144.949C205.059 144.949 205.656 145.051 206.233 145.254C206.811 145.458 207.329 145.777 207.789 146.213C208.248 146.649 208.61 147.214 208.875 147.911C209.14 148.602 209.273 149.442 209.273 150.432V151.185H200.601V149.594H207.192C207.192 149.035 207.078 148.54 206.851 148.109C206.624 147.674 206.304 147.33 205.892 147.08C205.485 146.829 205.007 146.703 204.458 146.703C203.861 146.703 203.34 146.85 202.895 147.143C202.455 147.432 202.114 147.811 201.872 148.28C201.636 148.744 201.517 149.248 201.517 149.793V151.036C201.517 151.765 201.645 152.385 201.901 152.896C202.161 153.408 202.524 153.798 202.988 154.068C203.452 154.333 203.994 154.466 204.614 154.466C205.016 154.466 205.383 154.409 205.715 154.295C206.046 154.177 206.333 154.002 206.574 153.77C206.816 153.538 207 153.251 207.128 152.911L209.138 153.273C208.977 153.865 208.688 154.383 208.272 154.828C207.86 155.268 207.341 155.612 206.716 155.858C206.096 156.099 205.388 156.22 204.593 156.22ZM219.046 149.523V156H216.922V141.455H219.017V146.866H219.152C219.408 146.279 219.799 145.813 220.324 145.467C220.85 145.122 221.536 144.949 222.384 144.949C223.132 144.949 223.785 145.103 224.344 145.411C224.908 145.718 225.343 146.178 225.651 146.788C225.963 147.394 226.12 148.152 226.12 149.061V156H223.996V149.317C223.996 148.517 223.79 147.896 223.378 147.456C222.966 147.011 222.393 146.788 221.659 146.788C221.158 146.788 220.708 146.895 220.31 147.108C219.917 147.321 219.607 147.634 219.38 148.045C219.157 148.453 219.046 148.945 219.046 149.523ZM233.655 156.22C232.58 156.22 231.655 155.991 230.878 155.531C230.106 155.067 229.51 154.416 229.088 153.578C228.672 152.735 228.463 151.748 228.463 150.616C228.463 149.499 228.672 148.514 229.088 147.662C229.51 146.81 230.097 146.144 230.85 145.666C231.607 145.188 232.493 144.949 233.506 144.949C234.122 144.949 234.718 145.051 235.296 145.254C235.873 145.458 236.392 145.777 236.851 146.213C237.31 146.649 237.673 147.214 237.938 147.911C238.203 148.602 238.336 149.442 238.336 150.432V151.185H229.664V149.594H236.255C236.255 149.035 236.141 148.54 235.914 148.109C235.686 147.674 235.367 147.33 234.955 147.08C234.548 146.829 234.069 146.703 233.52 146.703C232.924 146.703 232.403 146.85 231.958 147.143C231.517 147.432 231.176 147.811 230.935 148.28C230.698 148.744 230.58 149.248 230.58 149.793V151.036C230.58 151.765 230.708 152.385 230.963 152.896C231.224 153.408 231.586 153.798 232.05 154.068C232.514 154.333 233.056 154.466 233.676 154.466C234.079 154.466 234.446 154.409 234.777 154.295C235.109 154.177 235.395 154.002 235.637 153.77C235.878 153.538 236.063 153.251 236.191 152.911L238.201 153.273C238.04 153.865 237.751 154.383 237.334 154.828C236.922 155.268 236.404 155.612 235.779 155.858C235.158 156.099 234.451 156.22 233.655 156.22ZM240.692 156V145.091H242.744V146.824H242.858C243.057 146.237 243.407 145.775 243.909 145.439C244.416 145.098 244.989 144.928 245.628 144.928C245.76 144.928 245.917 144.932 246.097 144.942C246.281 144.951 246.426 144.963 246.53 144.977V147.009C246.445 146.985 246.293 146.959 246.075 146.93C245.857 146.897 245.64 146.881 245.422 146.881C244.92 146.881 244.472 146.987 244.08 147.2C243.691 147.409 243.383 147.7 243.156 148.074C242.929 148.443 242.815 148.865 242.815 149.338V156H240.692ZM252.679 156.22C251.604 156.22 250.678 155.991 249.902 155.531C249.13 155.067 248.533 154.416 248.112 153.578C247.695 152.735 247.487 151.748 247.487 150.616C247.487 149.499 247.695 148.514 248.112 147.662C248.533 146.81 249.12 146.144 249.873 145.666C250.631 145.188 251.516 144.949 252.529 144.949C253.145 144.949 253.742 145.051 254.319 145.254C254.897 145.458 255.415 145.777 255.875 146.213C256.334 146.649 256.696 147.214 256.961 147.911C257.226 148.602 257.359 149.442 257.359 150.432V151.185H248.687V149.594H255.278C255.278 149.035 255.164 148.54 254.937 148.109C254.71 147.674 254.39 147.33 253.978 147.08C253.571 146.829 253.093 146.703 252.544 146.703C251.947 146.703 251.426 146.85 250.981 147.143C250.541 147.432 250.2 147.811 249.958 148.28C249.722 148.744 249.603 149.248 249.603 149.793V151.036C249.603 151.765 249.731 152.385 249.987 152.896C250.247 153.408 250.609 153.798 251.073 154.068C251.537 154.333 252.08 154.466 252.7 154.466C253.102 154.466 253.469 154.409 253.801 154.295C254.132 154.177 254.419 154.002 254.66 153.77C254.902 153.538 255.086 153.251 255.214 152.911L257.224 153.273C257.063 153.865 256.774 154.383 256.358 154.828C255.946 155.268 255.427 155.612 254.802 155.858C254.182 156.099 253.474 156.22 252.679 156.22ZM270.1 145.091V146.795H264.142V145.091H270.1ZM265.74 142.477H267.863V152.797C267.863 153.209 267.925 153.519 268.048 153.727C268.171 153.931 268.33 154.071 268.524 154.146C268.723 154.217 268.938 154.253 269.17 154.253C269.341 154.253 269.49 154.241 269.617 154.217C269.745 154.194 269.845 154.175 269.916 154.161L270.299 155.915C270.176 155.962 270.001 156.009 269.774 156.057C269.546 156.109 269.262 156.137 268.921 156.142C268.363 156.152 267.842 156.052 267.359 155.844C266.876 155.635 266.485 155.313 266.187 154.878C265.889 154.442 265.74 153.895 265.74 153.237V142.477ZM276.928 156.22C275.905 156.22 275.012 155.986 274.25 155.517C273.488 155.048 272.896 154.393 272.474 153.55C272.053 152.707 271.842 151.722 271.842 150.595C271.842 149.464 272.053 148.474 272.474 147.626C272.896 146.779 273.488 146.121 274.25 145.652C275.012 145.183 275.905 144.949 276.928 144.949C277.95 144.949 278.843 145.183 279.605 145.652C280.367 146.121 280.959 146.779 281.381 147.626C281.802 148.474 282.013 149.464 282.013 150.595C282.013 151.722 281.802 152.707 281.381 153.55C280.959 154.393 280.367 155.048 279.605 155.517C278.843 155.986 277.95 156.22 276.928 156.22ZM276.935 154.438C277.597 154.438 278.147 154.262 278.582 153.912C279.018 153.562 279.34 153.095 279.548 152.513C279.761 151.93 279.868 151.289 279.868 150.588C279.868 149.892 279.761 149.253 279.548 148.67C279.34 148.083 279.018 147.612 278.582 147.257C278.147 146.902 277.597 146.724 276.935 146.724C276.267 146.724 275.713 146.902 275.273 147.257C274.837 147.612 274.513 148.083 274.3 148.67C274.091 149.253 273.987 149.892 273.987 150.588C273.987 151.289 274.091 151.93 274.3 152.513C274.513 153.095 274.837 153.562 275.273 153.912C275.713 154.262 276.267 154.438 276.935 154.438ZM35.3446 172.523V179H33.221V164.455H35.3162V169.866H35.4511C35.7068 169.279 36.0974 168.813 36.623 168.467C37.1486 168.122 37.8351 167.949 38.6827 167.949C39.4308 167.949 40.0842 168.103 40.6429 168.411C41.2063 168.718 41.6419 169.178 41.9497 169.788C42.2622 170.394 42.4185 171.152 42.4185 172.061V179H40.2949V172.317C40.2949 171.517 40.0889 170.896 39.677 170.456C39.265 170.011 38.6921 169.788 37.9582 169.788C37.4563 169.788 37.0065 169.895 36.6088 170.108C36.2158 170.321 35.9057 170.634 35.6784 171.045C35.4559 171.453 35.3446 171.945 35.3446 172.523ZM49.954 179.22C48.8792 179.22 47.9535 178.991 47.177 178.531C46.4052 178.067 45.8086 177.416 45.3872 176.578C44.9705 175.735 44.7622 174.748 44.7622 173.616C44.7622 172.499 44.9705 171.514 45.3872 170.662C45.8086 169.81 46.3957 169.144 47.1486 168.666C47.9061 168.188 48.7916 167.949 49.8048 167.949C50.4204 167.949 51.0169 168.051 51.5946 168.254C52.1722 168.458 52.6907 168.777 53.15 169.213C53.6093 169.649 53.9715 170.214 54.2366 170.911C54.5018 171.602 54.6344 172.442 54.6344 173.432V174.185H45.9625V172.594H52.5534C52.5534 172.035 52.4398 171.54 52.2125 171.109C51.9852 170.674 51.6656 170.33 51.2537 170.08C50.8465 169.829 50.3683 169.703 49.819 169.703C49.2224 169.703 48.7016 169.85 48.2565 170.143C47.8162 170.432 47.4753 170.811 47.2338 171.28C46.9971 171.744 46.8787 172.248 46.8787 172.793V174.036C46.8787 174.765 47.0065 175.385 47.2622 175.896C47.5226 176.408 47.8848 176.798 48.3489 177.068C48.8129 177.333 49.355 177.466 49.9753 177.466C50.3777 177.466 50.7447 177.409 51.0761 177.295C51.4076 177.177 51.694 177.002 51.9355 176.77C52.177 176.538 52.3616 176.251 52.4895 175.911L54.4994 176.273C54.3384 176.865 54.0496 177.383 53.6329 177.828C53.221 178.268 52.7025 178.612 52.0775 178.858C51.4573 179.099 50.7494 179.22 49.954 179.22ZM59.1141 164.455V179H56.9905V164.455H59.1141ZM61.971 183.091V168.091H64.0449V169.859H64.2224C64.3455 169.632 64.5231 169.369 64.7551 169.071C64.9871 168.773 65.3091 168.512 65.721 168.29C66.1329 168.062 66.6775 167.949 67.3545 167.949C68.2352 167.949 69.0212 168.171 69.7125 168.616C70.4038 169.062 70.9459 169.703 71.3389 170.541C71.7366 171.379 71.9355 172.388 71.9355 173.567C71.9355 174.746 71.739 175.757 71.346 176.599C70.953 177.437 70.4132 178.084 69.7267 178.538C69.0401 178.988 68.2565 179.213 67.3758 179.213C66.713 179.213 66.1708 179.102 65.7494 178.879C65.3328 178.657 65.0061 178.396 64.7693 178.098C64.5326 177.8 64.3503 177.535 64.2224 177.303H64.0946V183.091H61.971ZM64.052 173.545C64.052 174.312 64.1632 174.985 64.3858 175.562C64.6083 176.14 64.9303 176.592 65.3517 176.919C65.7731 177.241 66.2892 177.402 66.9 177.402C67.5345 177.402 68.0648 177.234 68.4909 176.898C68.917 176.557 69.239 176.095 69.4568 175.513C69.6793 174.93 69.7906 174.275 69.7906 173.545C69.7906 172.826 69.6817 172.179 69.4639 171.607C69.2508 171.034 68.9289 170.581 68.498 170.25C68.0719 169.919 67.5392 169.753 66.9 169.753C66.2845 169.753 65.7636 169.911 65.3375 170.229C64.9161 170.546 64.5965 170.989 64.3787 171.557C64.1609 172.125 64.052 172.788 64.052 173.545ZM80.9501 183.091C80.6328 183.091 80.344 183.065 80.0836 183.013C79.8232 182.965 79.629 182.913 79.5012 182.857L80.0126 181.116C80.4008 181.221 80.7465 181.266 81.0495 181.251C81.3525 181.237 81.62 181.124 81.8521 180.911C82.0888 180.697 82.2971 180.349 82.4771 179.866L82.7398 179.142L78.7484 168.091H81.0211L83.7839 176.557H83.8975L86.6603 168.091H88.9401L84.4444 180.456C84.236 181.024 83.9709 181.505 83.6489 181.898C83.327 182.295 82.9434 182.594 82.4984 182.793C82.0533 182.991 81.5372 183.091 80.9501 183.091ZM95.1599 179.22C94.1372 179.22 93.2447 178.986 92.4824 178.517C91.7201 178.048 91.1282 177.393 90.7068 176.55C90.2854 175.707 90.0747 174.722 90.0747 173.595C90.0747 172.464 90.2854 171.474 90.7068 170.626C91.1282 169.779 91.7201 169.121 92.4824 168.652C93.2447 168.183 94.1372 167.949 95.1599 167.949C96.1827 167.949 97.0752 168.183 97.8375 168.652C98.5998 169.121 99.1917 169.779 99.6131 170.626C100.034 171.474 100.245 172.464 100.245 173.595C100.245 174.722 100.034 175.707 99.6131 176.55C99.1917 177.393 98.5998 178.048 97.8375 178.517C97.0752 178.986 96.1827 179.22 95.1599 179.22ZM95.167 177.438C95.8299 177.438 96.3792 177.262 96.8148 176.912C97.2504 176.562 97.5723 176.095 97.7807 175.513C97.9937 174.93 98.1003 174.289 98.1003 173.588C98.1003 172.892 97.9937 172.253 97.7807 171.67C97.5723 171.083 97.2504 170.612 96.8148 170.257C96.3792 169.902 95.8299 169.724 95.167 169.724C94.4994 169.724 93.9454 169.902 93.5051 170.257C93.0695 170.612 92.7452 171.083 92.5321 171.67C92.3238 172.253 92.2196 172.892 92.2196 173.588C92.2196 174.289 92.3238 174.93 92.5321 175.513C92.7452 176.095 93.0695 176.562 93.5051 176.912C93.9454 177.262 94.4994 177.438 95.167 177.438ZM109.526 174.476V168.091H111.657V179H109.569V177.111H109.455C109.204 177.693 108.802 178.179 108.248 178.567C107.698 178.95 107.014 179.142 106.195 179.142C105.494 179.142 104.874 178.988 104.334 178.68C103.799 178.368 103.378 177.906 103.07 177.295C102.767 176.685 102.616 175.929 102.616 175.03V168.091H104.739V174.774C104.739 175.518 104.945 176.109 105.357 176.55C105.769 176.99 106.304 177.21 106.962 177.21C107.36 177.21 107.755 177.111 108.148 176.912C108.546 176.713 108.875 176.412 109.135 176.01C109.401 175.607 109.531 175.096 109.526 174.476ZM127.978 170.754L126.053 171.095C125.973 170.849 125.845 170.615 125.67 170.392C125.499 170.17 125.267 169.987 124.974 169.845C124.68 169.703 124.313 169.632 123.873 169.632C123.271 169.632 122.769 169.767 122.367 170.037C121.965 170.302 121.763 170.645 121.763 171.067C121.763 171.431 121.898 171.725 122.168 171.947C122.438 172.17 122.874 172.352 123.475 172.494L125.208 172.892C126.212 173.124 126.96 173.482 127.452 173.964C127.945 174.447 128.191 175.075 128.191 175.847C128.191 176.5 128.001 177.082 127.623 177.594C127.249 178.1 126.725 178.498 126.053 178.787C125.385 179.076 124.611 179.22 123.731 179.22C122.509 179.22 121.512 178.96 120.741 178.439C119.969 177.913 119.495 177.168 119.32 176.202L121.373 175.889C121.5 176.424 121.763 176.829 122.161 177.104C122.559 177.374 123.077 177.509 123.716 177.509C124.412 177.509 124.969 177.364 125.385 177.075C125.802 176.782 126.01 176.424 126.01 176.003C126.01 175.662 125.883 175.375 125.627 175.143C125.376 174.911 124.99 174.736 124.469 174.618L122.623 174.213C121.605 173.981 120.852 173.612 120.364 173.105C119.881 172.598 119.64 171.957 119.64 171.18C119.64 170.536 119.82 169.973 120.179 169.49C120.539 169.007 121.036 168.631 121.671 168.361C122.305 168.086 123.032 167.949 123.851 167.949C125.03 167.949 125.958 168.205 126.635 168.716C127.313 169.223 127.76 169.902 127.978 170.754ZM135.618 168.091V169.795H129.659V168.091H135.618ZM131.257 165.477H133.381V175.797C133.381 176.209 133.442 176.519 133.565 176.727C133.689 176.931 133.847 177.071 134.041 177.146C134.24 177.217 134.456 177.253 134.688 177.253C134.858 177.253 135.007 177.241 135.135 177.217C135.263 177.194 135.362 177.175 135.433 177.161L135.817 178.915C135.694 178.962 135.519 179.009 135.291 179.057C135.064 179.109 134.78 179.137 134.439 179.142C133.88 179.152 133.36 179.052 132.877 178.844C132.394 178.635 132.003 178.313 131.705 177.878C131.406 177.442 131.257 176.895 131.257 176.237V165.477ZM141.142 179.241C140.451 179.241 139.826 179.114 139.267 178.858C138.708 178.598 138.265 178.221 137.939 177.729C137.617 177.236 137.456 176.633 137.456 175.918C137.456 175.302 137.574 174.795 137.811 174.398C138.048 174 138.367 173.685 138.77 173.453C139.172 173.221 139.622 173.046 140.119 172.928C140.616 172.809 141.123 172.719 141.639 172.658C142.292 172.582 142.823 172.52 143.23 172.473C143.637 172.421 143.933 172.338 144.118 172.224C144.302 172.111 144.395 171.926 144.395 171.67V171.621C144.395 171 144.219 170.52 143.869 170.179C143.523 169.838 143.007 169.668 142.321 169.668C141.606 169.668 141.042 169.826 140.63 170.143C140.223 170.456 139.942 170.804 139.785 171.188L137.79 170.733C138.026 170.07 138.372 169.535 138.826 169.128C139.286 168.716 139.814 168.418 140.41 168.233C141.007 168.044 141.634 167.949 142.292 167.949C142.728 167.949 143.19 168.001 143.677 168.105C144.17 168.205 144.629 168.389 145.055 168.659C145.486 168.929 145.839 169.315 146.113 169.817C146.388 170.314 146.525 170.96 146.525 171.756V179H144.451V177.509H144.366C144.229 177.783 144.023 178.053 143.748 178.318C143.474 178.583 143.121 178.804 142.69 178.979C142.259 179.154 141.743 179.241 141.142 179.241ZM141.603 177.537C142.191 177.537 142.692 177.421 143.109 177.189C143.531 176.957 143.85 176.654 144.068 176.28C144.29 175.901 144.402 175.496 144.402 175.065V173.659C144.326 173.735 144.179 173.806 143.961 173.872C143.748 173.934 143.505 173.988 143.23 174.036C142.955 174.078 142.688 174.118 142.427 174.156C142.167 174.189 141.949 174.218 141.774 174.241C141.362 174.294 140.986 174.381 140.645 174.504C140.308 174.627 140.039 174.805 139.835 175.037C139.636 175.264 139.537 175.567 139.537 175.946C139.537 176.472 139.731 176.869 140.119 177.139C140.507 177.404 141.002 177.537 141.603 177.537ZM149.354 179V168.091H151.406V169.824H151.52C151.719 169.237 152.069 168.775 152.571 168.439C153.078 168.098 153.651 167.928 154.29 167.928C154.422 167.928 154.579 167.932 154.759 167.942C154.943 167.951 155.088 167.963 155.192 167.977V170.009C155.107 169.985 154.955 169.959 154.737 169.93C154.52 169.897 154.302 169.881 154.084 169.881C153.582 169.881 153.135 169.987 152.742 170.2C152.353 170.409 152.046 170.7 151.818 171.074C151.591 171.443 151.477 171.865 151.477 172.338V179H149.354ZM162.766 168.091V169.795H156.808V168.091H162.766ZM158.406 165.477H160.529V175.797C160.529 176.209 160.591 176.519 160.714 176.727C160.837 176.931 160.996 177.071 161.19 177.146C161.389 177.217 161.604 177.253 161.836 177.253C162.007 177.253 162.156 177.241 162.284 177.217C162.411 177.194 162.511 177.175 162.582 177.161L162.965 178.915C162.842 178.962 162.667 179.009 162.44 179.057C162.212 179.109 161.928 179.137 161.587 179.142C161.029 179.152 160.508 179.052 160.025 178.844C159.542 178.635 159.151 178.313 158.853 177.878C158.555 177.442 158.406 176.895 158.406 176.237V165.477ZM171.751 183.091C171.434 183.091 171.145 183.065 170.884 183.013C170.624 182.965 170.43 182.913 170.302 182.857L170.813 181.116C171.202 181.221 171.547 181.266 171.85 181.251C172.153 181.237 172.421 181.124 172.653 180.911C172.89 180.697 173.098 180.349 173.278 179.866L173.541 179.142L169.549 168.091H171.822L174.585 176.557H174.698L177.461 168.091H179.741L175.245 180.456C175.037 181.024 174.772 181.505 174.45 181.898C174.128 182.295 173.744 182.594 173.299 182.793C172.854 182.991 172.338 183.091 171.751 183.091ZM185.961 179.22C184.938 179.22 184.045 178.986 183.283 178.517C182.521 178.048 181.929 177.393 181.508 176.55C181.086 175.707 180.875 174.722 180.875 173.595C180.875 172.464 181.086 171.474 181.508 170.626C181.929 169.779 182.521 169.121 183.283 168.652C184.045 168.183 184.938 167.949 185.961 167.949C186.983 167.949 187.876 168.183 188.638 168.652C189.401 169.121 189.992 169.779 190.414 170.626C190.835 171.474 191.046 172.464 191.046 173.595C191.046 174.722 190.835 175.707 190.414 176.55C189.992 177.393 189.401 178.048 188.638 178.517C187.876 178.986 186.983 179.22 185.961 179.22ZM185.968 177.438C186.631 177.438 187.18 177.262 187.616 176.912C188.051 176.562 188.373 176.095 188.581 175.513C188.795 174.93 188.901 174.289 188.901 173.588C188.901 172.892 188.795 172.253 188.581 171.67C188.373 171.083 188.051 170.612 187.616 170.257C187.18 169.902 186.631 169.724 185.968 169.724C185.3 169.724 184.746 169.902 184.306 170.257C183.87 170.612 183.546 171.083 183.333 171.67C183.125 172.253 183.02 172.892 183.02 173.588C183.02 174.289 183.125 174.93 183.333 175.513C183.546 176.095 183.87 176.562 184.306 176.912C184.746 177.262 185.3 177.438 185.968 177.438ZM200.327 174.476V168.091H202.458V179H200.369V177.111H200.256C200.005 177.693 199.602 178.179 199.048 178.567C198.499 178.95 197.815 179.142 196.996 179.142C196.295 179.142 195.675 178.988 195.135 178.68C194.6 178.368 194.179 177.906 193.871 177.295C193.568 176.685 193.416 175.929 193.416 175.03V168.091H195.54V174.774C195.54 175.518 195.746 176.109 196.158 176.55C196.57 176.99 197.105 177.21 197.763 177.21C198.161 177.21 198.556 177.111 198.949 176.912C199.347 176.713 199.676 176.412 199.936 176.01C200.201 175.607 200.332 175.096 200.327 174.476ZM205.311 179V168.091H207.363V169.824H207.477C207.676 169.237 208.026 168.775 208.528 168.439C209.035 168.098 209.608 167.928 210.247 167.928C210.38 167.928 210.536 167.932 210.716 167.942C210.9 167.951 211.045 167.963 211.149 167.977V170.009C211.064 169.985 210.912 169.959 210.694 169.93C210.477 169.897 210.259 169.881 210.041 169.881C209.539 169.881 209.092 169.987 208.699 170.2C208.31 170.409 208.003 170.7 207.775 171.074C207.548 171.443 207.434 171.865 207.434 172.338V179H205.311ZM226.454 170.754L224.53 171.095C224.449 170.849 224.321 170.615 224.146 170.392C223.976 170.17 223.744 169.987 223.45 169.845C223.157 169.703 222.79 169.632 222.349 169.632C221.748 169.632 221.246 169.767 220.844 170.037C220.441 170.302 220.24 170.645 220.24 171.067C220.24 171.431 220.375 171.725 220.645 171.947C220.915 172.17 221.35 172.352 221.951 172.494L223.684 172.892C224.688 173.124 225.436 173.482 225.929 173.964C226.421 174.447 226.667 175.075 226.667 175.847C226.667 176.5 226.478 177.082 226.099 177.594C225.725 178.1 225.202 178.498 224.53 178.787C223.862 179.076 223.088 179.22 222.207 179.22C220.986 179.22 219.989 178.96 219.217 178.439C218.445 177.913 217.972 177.168 217.797 176.202L219.849 175.889C219.977 176.424 220.24 176.829 220.638 177.104C221.035 177.374 221.554 177.509 222.193 177.509C222.889 177.509 223.445 177.364 223.862 177.075C224.279 176.782 224.487 176.424 224.487 176.003C224.487 175.662 224.359 175.375 224.103 175.143C223.853 174.911 223.467 174.736 222.946 174.618L221.099 174.213C220.081 173.981 219.328 173.612 218.841 173.105C218.358 172.598 218.116 171.957 218.116 171.18C218.116 170.536 218.296 169.973 218.656 169.49C219.016 169.007 219.513 168.631 220.148 168.361C220.782 168.086 221.509 167.949 222.328 167.949C223.507 167.949 224.435 168.205 225.112 168.716C225.789 169.223 226.237 169.902 226.454 170.754ZM234.095 168.091V169.795H228.136V168.091H234.095ZM229.734 165.477H231.857V175.797C231.857 176.209 231.919 176.519 232.042 176.727C232.165 176.931 232.324 177.071 232.518 177.146C232.717 177.217 232.932 177.253 233.164 177.253C233.335 177.253 233.484 177.241 233.612 177.217C233.739 177.194 233.839 177.175 233.91 177.161L234.293 178.915C234.17 178.962 233.995 179.009 233.768 179.057C233.541 179.109 233.257 179.137 232.916 179.142C232.357 179.152 231.836 179.052 231.353 178.844C230.87 178.635 230.48 178.313 230.181 177.878C229.883 177.442 229.734 176.895 229.734 176.237V165.477ZM243.354 174.476V168.091H245.485V179H243.397V177.111H243.283C243.032 177.693 242.63 178.179 242.076 178.567C241.527 178.95 240.842 179.142 240.023 179.142C239.322 179.142 238.702 178.988 238.162 178.68C237.627 178.368 237.206 177.906 236.898 177.295C236.595 176.685 236.444 175.929 236.444 175.03V168.091H238.567V174.774C238.567 175.518 238.773 176.109 239.185 176.55C239.597 176.99 240.132 177.21 240.79 177.21C241.188 177.21 241.583 177.111 241.976 176.912C242.374 176.713 242.703 176.412 242.964 176.01C243.229 175.607 243.359 175.096 243.354 174.476ZM252.422 179.213C251.541 179.213 250.755 178.988 250.064 178.538C249.378 178.084 248.838 177.437 248.445 176.599C248.056 175.757 247.862 174.746 247.862 173.567C247.862 172.388 248.059 171.379 248.452 170.541C248.85 169.703 249.394 169.062 250.085 168.616C250.777 168.171 251.56 167.949 252.436 167.949C253.113 167.949 253.658 168.062 254.07 168.29C254.486 168.512 254.808 168.773 255.036 169.071C255.268 169.369 255.448 169.632 255.575 169.859H255.703V164.455H257.827V179H255.753V177.303H255.575C255.448 177.535 255.263 177.8 255.021 178.098C254.785 178.396 254.458 178.657 254.041 178.879C253.625 179.102 253.085 179.213 252.422 179.213ZM252.891 177.402C253.502 177.402 254.018 177.241 254.439 176.919C254.865 176.592 255.187 176.14 255.405 175.562C255.628 174.985 255.739 174.312 255.739 173.545C255.739 172.788 255.63 172.125 255.412 171.557C255.194 170.989 254.875 170.546 254.453 170.229C254.032 169.911 253.511 169.753 252.891 169.753C252.252 169.753 251.719 169.919 251.293 170.25C250.867 170.581 250.545 171.034 250.327 171.607C250.114 172.179 250.007 172.826 250.007 173.545C250.007 174.275 250.116 174.93 250.334 175.513C250.552 176.095 250.874 176.557 251.3 176.898C251.731 177.234 252.261 177.402 252.891 177.402ZM265.559 179.22C264.485 179.22 263.559 178.991 262.782 178.531C262.011 178.067 261.414 177.416 260.993 176.578C260.576 175.735 260.368 174.748 260.368 173.616C260.368 172.499 260.576 171.514 260.993 170.662C261.414 169.81 262.001 169.144 262.754 168.666C263.512 168.188 264.397 167.949 265.41 167.949C266.026 167.949 266.622 168.051 267.2 168.254C267.778 168.458 268.296 168.777 268.755 169.213C269.215 169.649 269.577 170.214 269.842 170.911C270.107 171.602 270.24 172.442 270.24 173.432V174.185H261.568V172.594H268.159C268.159 172.035 268.045 171.54 267.818 171.109C267.591 170.674 267.271 170.33 266.859 170.08C266.452 169.829 265.974 169.703 265.424 169.703C264.828 169.703 264.307 169.85 263.862 170.143C263.422 170.432 263.081 170.811 262.839 171.28C262.603 171.744 262.484 172.248 262.484 172.793V174.036C262.484 174.765 262.612 175.385 262.868 175.896C263.128 176.408 263.49 176.798 263.954 177.068C264.418 177.333 264.96 177.466 265.581 177.466C265.983 177.466 266.35 177.409 266.682 177.295C267.013 177.177 267.299 177.002 267.541 176.77C267.782 176.538 267.967 176.251 268.095 175.911L270.105 176.273C269.944 176.865 269.655 177.383 269.238 177.828C268.826 178.268 268.308 178.612 267.683 178.858C267.063 179.099 266.355 179.22 265.559 179.22ZM274.72 172.523V179H272.596V168.091H274.634V169.866H274.769C275.02 169.289 275.413 168.825 275.948 168.474C276.488 168.124 277.168 167.949 277.987 167.949C278.73 167.949 279.381 168.105 279.94 168.418C280.498 168.725 280.932 169.185 281.239 169.795C281.547 170.406 281.701 171.161 281.701 172.061V179H279.578V172.317C279.578 171.526 279.372 170.908 278.96 170.463C278.548 170.013 277.982 169.788 277.262 169.788C276.77 169.788 276.332 169.895 275.948 170.108C275.569 170.321 275.269 170.634 275.046 171.045C274.828 171.453 274.72 171.945 274.72 172.523ZM289.641 168.091V169.795H283.683V168.091H289.641ZM285.281 165.477H287.404V175.797C287.404 176.209 287.466 176.519 287.589 176.727C287.712 176.931 287.871 177.071 288.065 177.146C288.264 177.217 288.479 177.253 288.711 177.253C288.882 177.253 289.031 177.241 289.159 177.217C289.286 177.194 289.386 177.175 289.457 177.161L289.84 178.915C289.717 178.962 289.542 179.009 289.315 179.057C289.087 179.109 288.803 179.137 288.462 179.142C287.904 179.152 287.383 179.052 286.9 178.844C286.417 178.635 286.026 178.313 285.728 177.878C285.43 177.442 285.281 176.895 285.281 176.237V165.477ZM147.464 187.455V202H145.34V187.455H147.464ZM150.321 202V191.091H152.444V202H150.321ZM151.393 189.408C151.024 189.408 150.707 189.285 150.441 189.038C150.181 188.787 150.051 188.489 150.051 188.143C150.051 187.793 150.181 187.495 150.441 187.249C150.707 186.998 151.024 186.872 151.393 186.872C151.762 186.872 152.077 186.998 152.338 187.249C152.603 187.495 152.735 187.793 152.735 188.143C152.735 188.489 152.603 188.787 152.338 189.038C152.077 189.285 151.762 189.408 151.393 189.408ZM160.493 191.091V192.795H154.328V191.091H160.493ZM156.018 202V189.827C156.018 189.145 156.168 188.579 156.466 188.129C156.764 187.675 157.16 187.336 157.652 187.114C158.144 186.886 158.679 186.773 159.257 186.773C159.683 186.773 160.048 186.808 160.351 186.879C160.654 186.946 160.879 187.007 161.026 187.064L160.528 188.783C160.429 188.754 160.301 188.721 160.145 188.683C159.989 188.641 159.799 188.619 159.577 188.619C159.061 188.619 158.691 188.747 158.469 189.003C158.251 189.259 158.142 189.628 158.142 190.111V202H156.018ZM166.956 202.22C165.881 202.22 164.955 201.991 164.179 201.531C163.407 201.067 162.811 200.416 162.389 199.578C161.972 198.735 161.764 197.748 161.764 196.616C161.764 195.499 161.972 194.514 162.389 193.662C162.811 192.81 163.398 192.144 164.151 191.666C164.908 191.188 165.794 190.949 166.807 190.949C167.422 190.949 168.019 191.051 168.597 191.254C169.174 191.458 169.693 191.777 170.152 192.213C170.611 192.649 170.973 193.214 171.239 193.911C171.504 194.602 171.636 195.442 171.636 196.432V197.185H162.964V195.594H169.555C169.555 195.035 169.442 194.54 169.214 194.109C168.987 193.674 168.668 193.33 168.256 193.08C167.848 192.829 167.37 192.703 166.821 192.703C166.224 192.703 165.704 192.85 165.258 193.143C164.818 193.432 164.477 193.811 164.236 194.28C163.999 194.744 163.881 195.248 163.881 195.793V197.036C163.881 197.765 164.008 198.385 164.264 198.896C164.525 199.408 164.887 199.798 165.351 200.068C165.815 200.333 166.357 200.466 166.977 200.466C167.38 200.466 167.747 200.409 168.078 200.295C168.41 200.177 168.696 200.002 168.937 199.77C169.179 199.538 169.364 199.251 169.491 198.911L171.501 199.273C171.34 199.865 171.052 200.383 170.635 200.828C170.223 201.268 169.705 201.612 169.08 201.858C168.459 202.099 167.751 202.22 166.956 202.22ZM176.67 187.455L176.485 197.817H174.518L174.333 187.455H176.67ZM175.505 202.135C175.112 202.135 174.776 201.998 174.497 201.723C174.217 201.444 174.08 201.107 174.085 200.714C174.08 200.326 174.217 199.995 174.497 199.72C174.776 199.441 175.112 199.301 175.505 199.301C175.889 199.301 176.22 199.441 176.5 199.72C176.779 199.995 176.921 200.326 176.926 200.714C176.921 200.975 176.852 201.214 176.72 201.432C176.592 201.645 176.421 201.815 176.208 201.943C175.995 202.071 175.761 202.135 175.505 202.135Z" fill="#2D3342"/>
<path d="M45.523 160.318C44.5429 160.318 43.7025 160.183 43.0017 159.913C42.3057 159.648 41.7517 159.286 41.3398 158.827C40.9279 158.367 40.6603 157.851 40.5372 157.278L43.3355 156.902C43.4208 157.12 43.5557 157.323 43.7404 157.513C43.925 157.702 44.1689 157.854 44.4719 157.967C44.7797 158.086 45.1537 158.145 45.5941 158.145C46.2522 158.145 46.7943 157.984 47.2205 157.662C47.6514 157.345 47.8668 156.812 47.8668 156.064V154.068H47.7389C47.6064 154.371 47.4075 154.658 47.1424 154.928C46.8772 155.197 46.5363 155.418 46.1196 155.588C45.703 155.759 45.2058 155.844 44.6282 155.844C43.809 155.844 43.0633 155.654 42.3909 155.276C41.7233 154.892 41.1907 154.307 40.7929 153.521C40.3999 152.731 40.2034 151.732 40.2034 150.524C40.2034 149.288 40.4047 148.256 40.8071 147.428C41.2096 146.599 41.7446 145.979 42.4122 145.567C43.0846 145.155 43.8209 144.949 44.621 144.949C45.2318 144.949 45.7432 145.053 46.1551 145.261C46.5671 145.465 46.8985 145.721 47.1495 146.028C47.4051 146.331 47.6016 146.63 47.7389 146.923H47.8526V145.091H50.8568V156.107C50.8568 157.035 50.6296 157.811 50.175 158.436C49.7205 159.061 49.0907 159.53 48.2858 159.842C47.4856 160.16 46.5647 160.318 45.523 160.318ZM45.587 153.571C46.0746 153.571 46.4866 153.45 46.8228 153.209C47.1637 152.963 47.4241 152.612 47.604 152.158C47.7887 151.698 47.881 151.149 47.881 150.51C47.881 149.871 47.791 149.317 47.6111 148.848C47.4312 148.375 47.1708 148.008 46.8299 147.747C46.4889 147.487 46.0746 147.357 45.587 147.357C45.0898 147.357 44.6708 147.491 44.3299 147.761C43.9889 148.027 43.7309 148.396 43.5557 148.869C43.3805 149.343 43.2929 149.89 43.2929 150.51C43.2929 151.14 43.3805 151.684 43.5557 152.143C43.7356 152.598 43.9937 152.951 44.3299 153.202C44.6708 153.448 45.0898 153.571 45.587 153.571ZM60.2603 151.355V145.091H63.2858V156H60.381V154.018H60.2674C60.0211 154.658 59.6116 155.171 59.0387 155.56C58.4705 155.948 57.7768 156.142 56.9577 156.142C56.2285 156.142 55.587 155.976 55.033 155.645C54.479 155.313 54.0458 154.842 53.7333 154.232C53.4255 153.621 53.2693 152.889 53.2645 152.037V145.091H56.2901V151.497C56.2948 152.141 56.4676 152.65 56.8085 153.024C57.1495 153.398 57.6064 153.585 58.1793 153.585C58.5439 153.585 58.8848 153.502 59.202 153.337C59.5193 153.166 59.7749 152.915 59.9691 152.584C60.1679 152.252 60.265 151.843 60.2603 151.355ZM65.7059 156V145.091H68.7315V156H65.7059ZM67.2258 143.685C66.776 143.685 66.3901 143.536 66.0681 143.237C65.7509 142.934 65.5923 142.572 65.5923 142.151C65.5923 141.734 65.7509 141.376 66.0681 141.078C66.3901 140.775 66.776 140.624 67.2258 140.624C67.6756 140.624 68.0591 140.775 68.3764 141.078C68.6983 141.376 68.8593 141.734 68.8593 142.151C68.8593 142.572 68.6983 142.934 68.3764 143.237C68.0591 143.536 67.6756 143.685 67.2258 143.685ZM75.175 156.178C74.3464 156.178 73.596 155.964 72.9236 155.538C72.256 155.107 71.7257 154.475 71.3327 153.642C70.9444 152.804 70.7503 151.777 70.7503 150.56C70.7503 149.31 70.9515 148.27 71.354 147.442C71.7565 146.608 72.2915 145.986 72.9591 145.574C73.6315 145.157 74.3677 144.949 75.1679 144.949C75.7787 144.949 76.2877 145.053 76.6949 145.261C77.1068 145.465 77.4383 145.721 77.6892 146.028C77.9449 146.331 78.139 146.63 78.2716 146.923H78.3639V141.455H81.3824V156H78.3995V154.253H78.2716C78.1296 154.556 77.9283 154.857 77.6679 155.155C77.4122 155.448 77.0784 155.692 76.6665 155.886C76.2593 156.08 75.7621 156.178 75.175 156.178ZM76.1338 153.77C76.6215 153.77 77.0335 153.637 77.3696 153.372C77.7105 153.102 77.971 152.726 78.1509 152.243C78.3355 151.76 78.4279 151.194 78.4279 150.545C78.4279 149.897 78.3379 149.333 78.158 148.855C77.9781 148.377 77.7176 148.008 77.3767 147.747C77.0358 147.487 76.6215 147.357 76.1338 147.357C75.6367 147.357 75.2176 147.491 74.8767 147.761C74.5358 148.031 74.2778 148.405 74.1026 148.884C73.9274 149.362 73.8398 149.916 73.8398 150.545C73.8398 151.18 73.9274 151.741 74.1026 152.229C74.2825 152.712 74.5406 153.09 74.8767 153.365C75.2176 153.635 75.6367 153.77 76.1338 153.77ZM88.8416 156.213C87.7194 156.213 86.7535 155.986 85.9438 155.531C85.1389 155.072 84.5187 154.423 84.0831 153.585C83.6474 152.742 83.4296 151.746 83.4296 150.595C83.4296 149.473 83.6474 148.488 84.0831 147.641C84.5187 146.793 85.1318 146.133 85.9225 145.659C86.718 145.186 87.6508 144.949 88.7208 144.949C89.4405 144.949 90.1105 145.065 90.7308 145.297C91.3558 145.524 91.9003 145.867 92.3643 146.327C92.8331 146.786 93.1976 147.364 93.4581 148.06C93.7185 148.751 93.8487 149.561 93.8487 150.489V151.32H84.637V149.445H91.0007C91.0007 149.009 90.906 148.623 90.7166 148.287C90.5272 147.951 90.2644 147.688 89.9282 147.499C89.5968 147.304 89.2109 147.207 88.7706 147.207C88.3113 147.207 87.9041 147.314 87.549 147.527C87.1986 147.735 86.924 148.017 86.7251 148.372C86.5262 148.723 86.4244 149.113 86.4197 149.544V151.327C86.4197 151.866 86.5191 152.333 86.718 152.726C86.9216 153.119 87.2081 153.422 87.5774 153.635C87.9467 153.848 88.3847 153.955 88.8913 153.955C89.2275 153.955 89.5352 153.907 89.8146 153.812C90.0939 153.718 90.3331 153.576 90.5319 153.386C90.7308 153.197 90.8823 152.965 90.9865 152.69L93.7848 152.875C93.6427 153.547 93.3515 154.134 92.9112 154.636C92.4756 155.134 91.9121 155.522 91.2208 155.801C90.5343 156.076 89.7412 156.213 88.8416 156.213Z" fill="#6663CF"/>
<defs>
<linearGradient id="paint0_linear_879_6191" x1="137.828" y1="38" x2="211.313" y2="64.2839" gradientUnits="userSpaceOnUse">
<stop stop-color="#5955B3"/>
<stop offset="1" stop-color="#6563CE"/>
</linearGradient>
</defs>
</svg>
