<svg width="751" height="408" viewBox="0 0 751 408" fill="none" xmlns="http://www.w3.org/2000/svg">
<rect width="751" height="408" rx="5" fill="white"/>
<path opacity="0.2" fill-rule="evenodd" clip-rule="evenodd" d="M750.693 388.123C750.627 399.073 741.762 407.937 730.811 408H434.842C447.376 373.077 499.731 303.231 608.882 303.231C718.034 303.231 748.903 248.907 750.693 221.744V388.123Z" fill="#79A4E2"/>
<path opacity="0.2" fill-rule="evenodd" clip-rule="evenodd" d="M210.763 0C208.095 18.0677 191.746 68.875 124.398 91.9214C59.0546 114.281 16.0082 106.592 0.000531087 99.3648L0.000524683 20C0.000523792 8.95433 8.95482 1.91169e-05 20.0005 1.80705e-05L210.763 0Z" fill="#89AFFF"/>
<path d="M510.864 105.32H523.584V109.56H510.864V105.32ZM522.304 105.32H523.064L523.864 105.16L526.784 106.16C525.024 119.8 520.264 129.92 513.064 135.76C512.344 134.64 510.904 132.96 509.864 132.16C516.224 127.56 520.864 117.48 522.304 106.32V105.32ZM510.744 113.96L514.104 111.32C518.384 117 523.984 124.6 526.304 129.48L522.584 132.72C520.344 127.72 515.024 119.8 510.744 113.96ZM531.504 106.68H544.024V111H531.504V106.68ZM530.104 101.12L534.624 101.68C533.784 108.6 532.144 115 529.304 119.08C528.504 118.32 526.544 116.92 525.504 116.32C528.144 112.84 529.464 107.12 530.104 101.12ZM543.104 106.68H543.824L544.544 106.52L547.784 107.36C546.944 111.04 545.704 115.08 544.504 117.72L540.784 116.48C541.624 114.16 542.624 110.4 543.104 107.36V106.68ZM537.784 116.16C539.104 124.64 542.064 131.6 548.584 134.56C547.544 135.48 546.144 137.36 545.464 138.6C538.344 134.76 535.464 127 533.864 116.68L537.784 116.16ZM533.744 112.88H538.264V115.96C538.264 122.36 537.224 132.12 526.744 138.64C526.024 137.6 524.424 136.04 523.344 135.28C532.864 129.6 533.744 121.28 533.744 115.88V112.88ZM559.384 116.64V131.36H554.904V121.08H550.744V116.64H559.384ZM559.384 129.52C560.944 132.24 563.864 133.4 567.984 133.6C572.944 133.8 582.784 133.68 588.464 133.24C587.944 134.28 587.224 136.4 587.024 137.72C581.904 137.96 573.024 138.04 568.024 137.84C563.144 137.64 559.864 136.44 557.464 133.32C555.944 134.92 554.344 136.44 552.464 138.24L550.184 133.64C551.784 132.52 553.704 131 555.384 129.52H559.384ZM550.504 104.28L554.264 101.92C556.384 103.8 558.864 106.52 559.944 108.52L555.864 111.2C554.944 109.24 552.544 106.32 550.504 104.28ZM573.504 103.48H584.544V107.52H577.864V132.4H573.504V103.48ZM562.664 103.84L567.064 105V125.64H562.664V103.84ZM582.104 103.48H586.544V123.88C586.544 125.84 586.184 126.96 584.944 127.68C583.704 128.36 582.024 128.4 579.704 128.4C579.504 127.24 578.944 125.44 578.344 124.4C579.704 124.44 581.064 124.44 581.504 124.4C581.944 124.4 582.104 124.24 582.104 123.8V103.48ZM570.304 101.04L573.624 104.6C571.024 106.12 567.944 107.44 565.344 108.36C565.104 107.4 564.464 105.88 563.904 104.96C566.184 103.92 568.744 102.36 570.304 101.04ZM560.344 124.4C563.384 123.76 567.824 122.72 572.104 121.6L572.624 125.68C568.904 126.72 564.824 127.8 561.584 128.64L560.344 124.4ZM607.224 124.72L606.184 111.04L605.984 105.08H612.584L612.384 111.04L611.344 124.72H607.224ZM609.304 135.4C607.224 135.4 605.744 133.92 605.744 131.84C605.744 129.76 607.264 128.32 609.304 128.32C611.304 128.32 612.824 129.76 612.824 131.84C612.824 133.92 611.304 135.4 609.304 135.4Z" fill="url(#paint0_linear_941_6096)"/>
<path d="M442.915 179.8C443.555 179.8 444.035 180.3 445.115 180.88C446.375 181.58 448.135 181.68 450.295 181.68C452.575 181.68 455.715 181.54 457.755 181.3C457.555 181.74 457.315 182.52 457.275 183C455.695 183.1 452.275 183.2 450.255 183.2C447.895 183.2 446.175 183 444.795 182.28C443.975 181.82 443.335 181.26 442.895 181.26C442.215 181.26 441.255 182.3 440.275 183.44L439.215 181.98C440.515 180.74 441.895 179.8 442.915 179.8ZM439.715 166.86L440.895 166.08C441.955 166.96 443.235 168.26 443.815 169.16L442.555 170.04C442.015 169.14 440.775 167.82 439.715 166.86ZM443.535 172.74V180.56H442.075V174.14H439.495V172.74H443.535ZM444.415 168.34H457.415V169.76H444.415V168.34ZM453.615 168.62L455.115 168.92C453.535 174.72 450.375 178.18 445.215 180.22C445.055 179.9 444.595 179.22 444.295 178.9C449.295 177.18 452.275 173.96 453.615 168.62ZM448.975 165.54L450.395 165.1C450.975 165.98 451.635 167.2 451.915 167.96L450.415 168.5C450.175 167.72 449.535 166.46 448.975 165.54ZM445.015 171.78L446.075 170.86C449.615 173.3 454.315 176.82 456.675 179.06L455.495 180.16C453.295 177.92 448.655 174.28 445.015 171.78ZM459.675 174.02H477.375V175.38H459.675V174.02ZM468.575 177.6H476.055V178.92H468.575V177.6ZM467.915 174.62H469.435V182.2H467.915V174.62ZM463.995 177.88C465.215 181.16 467.855 181.78 471.775 181.8C472.535 181.8 476.715 181.8 477.755 181.78C477.535 182.12 477.295 182.78 477.215 183.22H471.715C467.035 183.22 464.315 182.38 462.755 178.34L463.995 177.88ZM463.135 176.02L464.635 176.24C463.995 179.56 462.555 182.04 460.355 183.64C460.135 183.36 459.555 182.82 459.215 182.58C461.335 181.2 462.615 178.96 463.135 176.02ZM463.235 169.88V171.52H473.655V169.88H463.235ZM463.235 167.18V168.8H473.655V167.18H463.235ZM461.775 166.04H475.175V172.66H461.775V166.04ZM479.395 173.38H497.695V175.02H479.395V173.38ZM641.655 184.14L641.195 183.1C642.835 182.42 643.735 181.4 643.735 179.9L643.355 178.2L644.435 179.72C644.155 180.08 643.755 180.18 643.375 180.18C642.555 180.18 641.875 179.7 641.875 178.74C641.875 177.8 642.595 177.3 643.395 177.3C644.515 177.3 645.115 178.22 645.115 179.62C645.115 181.78 643.755 183.42 641.655 184.14ZM672.575 166.52L673.715 165.74C674.895 166.74 676.295 168.16 676.955 169.08L675.715 169.96C675.115 169 673.755 167.56 672.575 166.52ZM659.615 171.12H677.435V172.56H659.615V171.12ZM659.315 177C661.695 176.56 665.455 175.76 668.975 175L669.095 176.36C665.815 177.12 662.275 177.94 659.755 178.5L659.315 177ZM663.915 167.24H665.415V181.68C665.415 182.66 665.175 183.1 664.535 183.34C663.895 183.58 662.835 183.64 661.175 183.62C661.095 183.22 660.835 182.54 660.615 182.1C661.895 182.16 663.075 182.14 663.435 182.12C663.795 182.12 663.915 182.02 663.915 181.66V167.24ZM667.715 165.44L668.775 166.7C666.455 167.5 663.055 168.12 660.195 168.52C660.115 168.18 659.935 167.62 659.735 167.28C662.555 166.84 665.795 166.16 667.715 165.44ZM669.715 165.38H671.275C671.235 174.56 673.195 182.16 675.635 182.16C676.175 182.16 676.415 181.12 676.535 178.54C676.855 178.88 677.395 179.22 677.815 179.38C677.535 182.7 676.995 183.68 675.495 183.68C671.575 183.68 669.795 174.9 669.715 165.38ZM675.135 173.48L676.475 174.04C674.515 177.7 671.215 180.92 667.535 182.86C667.295 182.48 666.875 182 666.495 181.66C670.055 179.94 673.355 176.86 675.135 173.48ZM690.015 165.94H696.035V167.32H690.015V165.94ZM695.455 165.94H696.955V181.72C696.955 182.62 696.735 183.06 696.115 183.3C695.515 183.54 694.495 183.56 692.915 183.56C692.855 183.18 692.635 182.52 692.435 182.12C693.575 182.18 694.675 182.16 695.015 182.14C695.335 182.12 695.455 182.02 695.455 181.7V165.94ZM686.115 165.86L687.275 165.22C688.155 166.42 689.215 168.06 689.675 169.06L688.435 169.78C687.995 168.76 686.995 167.08 686.115 165.86ZM685.275 169.24H686.735V183.6H685.275V169.24ZM682.995 165.32L684.395 165.7C683.395 169.16 681.835 172.68 680.035 175.02C679.895 174.68 679.475 173.88 679.215 173.5C680.795 171.48 682.175 168.4 682.995 165.32ZM681.415 170.36L682.795 168.96L682.855 169V183.6H681.415V170.36ZM439.755 191.3H457.275V192.76H439.755V191.3ZM445.955 197.64H456.495V199.04H445.955V197.64ZM445.175 204.72H457.275V206.14H445.175V204.72ZM450.475 193.78H451.975V205.48H450.475V193.78ZM446.335 188.2L447.875 188.58C446.475 193.16 444.035 197.82 440.055 200.68C439.895 200.28 439.515 199.64 439.275 199.3C442.875 196.76 445.215 192.32 446.335 188.2ZM442.375 196.44H443.875V206.54H442.375V196.44ZM462.915 202.8C463.555 202.8 464.035 203.3 465.115 203.88C466.375 204.58 468.135 204.68 470.295 204.68C472.575 204.68 475.715 204.54 477.755 204.3C477.555 204.74 477.315 205.52 477.275 206C475.695 206.1 472.275 206.2 470.255 206.2C467.895 206.2 466.175 206 464.795 205.28C463.975 204.82 463.335 204.26 462.895 204.26C462.215 204.26 461.255 205.3 460.275 206.44L459.215 204.98C460.515 203.74 461.895 202.8 462.915 202.8ZM459.715 189.86L460.895 189.08C461.955 189.96 463.235 191.26 463.815 192.16L462.555 193.04C462.015 192.14 460.775 190.82 459.715 189.86ZM463.535 195.74V203.56H462.075V197.14H459.495V195.74H463.535ZM464.415 191.34H477.415V192.76H464.415V191.34ZM473.615 191.62L475.115 191.92C473.535 197.72 470.375 201.18 465.215 203.22C465.055 202.9 464.595 202.22 464.295 201.9C469.295 200.18 472.275 196.96 473.615 191.62ZM468.975 188.54L470.395 188.1C470.975 188.98 471.635 190.2 471.915 190.96L470.415 191.5C470.175 190.72 469.535 189.46 468.975 188.54ZM465.015 194.78L466.075 193.86C469.615 196.3 474.315 199.82 476.675 202.06L475.495 203.16C473.295 200.92 468.655 197.28 465.015 194.78ZM483.075 194.14V196.68H494.155V194.14H483.075ZM483.075 190.36V192.86H494.155V190.36H483.075ZM481.595 189H495.715V198.04H481.595V189ZM479.595 204.64H497.455V206.04H479.595V204.64ZM480.935 200.34H496.375V201.76H480.935V200.34ZM487.855 189.86H489.295V197.82H489.375V205.44H487.775V197.82H487.855V189.86ZM499.815 189.8H509.175V191.02H499.815V189.8ZM499.495 195.22H509.295V196.42H499.495V195.22ZM500.255 192.48H508.775V193.66H500.255V192.48ZM510.195 189.04H515.975V190.34H511.635V198.96H510.195V189.04ZM515.675 189.04H515.975L516.215 188.98L517.255 189.62C516.515 190.66 515.615 191.88 514.795 192.88C516.495 193.94 517.075 194.9 517.095 195.8C517.115 196.66 516.755 197.22 516.115 197.58C515.775 197.76 515.295 197.86 514.915 197.92C514.215 197.98 513.355 197.98 512.575 197.92C512.555 197.54 512.355 197 512.095 196.64C512.955 196.74 513.695 196.74 514.275 196.7C514.555 196.68 514.875 196.62 515.095 196.54C515.455 196.4 515.615 196.12 515.615 195.68C515.595 194.96 514.955 194.08 513.175 193.08C514.115 191.84 515.095 190.34 515.675 189.32V189.04ZM503.975 188.2H505.495V194.14C505.495 195.74 504.555 198.44 500.935 199.86C500.695 199.56 500.235 199.06 499.895 198.78C503.155 197.68 503.975 195.42 503.975 194.12V188.2ZM507.675 198.2H509.235V206.58H507.675V198.2ZM501.515 199.78H514.935V201.14H503.015V205.52H501.515V199.78ZM514.295 199.78H515.815V203.88C515.815 204.64 515.635 205.04 514.995 205.26C514.355 205.48 513.295 205.48 511.615 205.48C511.515 205.08 511.295 204.56 511.095 204.18C512.355 204.22 513.535 204.22 513.875 204.2C514.215 204.18 514.295 204.1 514.295 203.86V199.78ZM527.835 192.74H536.295V194.16H527.835V192.74ZM535.655 192.74H537.095C537.095 192.74 537.075 193.3 537.075 193.5C536.875 201.96 536.695 204.82 536.035 205.68C535.635 206.22 535.215 206.38 534.575 206.44C533.955 206.5 532.875 206.48 531.815 206.44C531.775 206 531.615 205.38 531.355 205C532.515 205.08 533.555 205.08 533.975 205.08C534.315 205.1 534.535 205.04 534.715 204.78C535.255 204.16 535.475 201.24 535.655 193.06V192.74ZM531.155 188.22H532.615C532.595 195.88 532.575 203 527.015 206.64C526.795 206.28 526.295 205.78 525.915 205.54C531.255 202.22 531.135 195.5 531.155 188.22ZM520.635 189.18H527.155V202.2H525.755V190.56H521.975V203.48H520.635V189.18ZM519.195 203.12C521.415 202.68 524.935 201.94 528.255 201.2L528.395 202.56C525.215 203.32 521.855 204.1 519.455 204.64L519.195 203.12ZM521.335 193.48H526.415V194.84H521.335V193.48ZM521.335 197.76H526.415V199.1H521.335V197.76ZM547.815 188.3L549.295 188.62C548.515 191.82 547.255 194.9 545.715 196.94C545.455 196.68 544.855 196.2 544.515 195.98C545.995 194.12 547.155 191.24 547.815 188.3ZM547.475 196.78L548.935 197.08C548.315 199.7 547.235 202.24 546.015 203.92C545.715 203.68 545.075 203.28 544.715 203.1C545.955 201.56 546.915 199.18 547.475 196.78ZM547.635 192.06H556.635V193.46H547.055L547.635 192.06ZM550.735 192.64H552.235V204.78C552.235 205.64 552.055 206.08 551.495 206.32C550.955 206.58 550.095 206.62 548.855 206.62C548.755 206.2 548.535 205.54 548.315 205.1C549.255 205.14 550.115 205.12 550.395 205.12C550.655 205.12 550.735 205.04 550.735 204.78V192.64ZM553.675 197.08L555.015 196.64C556.175 198.74 557.175 201.5 557.515 203.36L556.095 203.84C555.775 202 554.775 199.18 553.675 197.08ZM556.195 192.06H556.395L556.655 192.02L557.695 192.24C557.415 193.72 557.075 195.44 556.815 196.52L555.515 196.28C555.735 195.28 555.995 193.6 556.195 192.28V192.06ZM543.795 188.28L545.215 188.72C543.895 192.12 541.835 195.5 539.675 197.74C539.515 197.4 539.095 196.6 538.815 196.26C540.795 194.32 542.675 191.32 543.795 188.28ZM541.715 193.44L543.115 192.02L543.155 192.04V206.58H541.715V193.44ZM560.295 189.52H576.855V190.94H560.295V189.52ZM559.555 196.66H577.495V198.1H559.555V196.66ZM571.475 190.26H573.015V206.62H571.475V190.26ZM564.355 190.26H565.875V195.8C565.875 199.68 565.375 203.78 560.775 206.68C560.515 206.34 559.975 205.82 559.595 205.58C563.895 202.92 564.355 199.26 564.355 195.8V190.26ZM589.075 204.36H596.055V205.72H589.075V204.36ZM588.295 198.5H596.835V206.54H595.355V199.88H589.735V206.62H588.295V198.5ZM586.935 195.14C589.295 195.02 593.015 194.82 596.575 194.58L596.555 195.92C593.175 196.18 589.595 196.46 587.115 196.62L586.935 195.14ZM593.555 191.92L594.755 191.3C596.095 192.96 597.475 195.2 598.015 196.68L596.695 197.4C596.215 195.9 594.875 193.62 593.555 191.92ZM590.835 188.2L592.475 188.54C591.655 190.98 590.515 194.04 589.575 195.94L588.295 195.58C589.195 193.64 590.275 190.44 590.835 188.2ZM579.375 192.34H585.975V193.76H579.375V192.34ZM582.415 188.2L583.855 188.36C583.035 192.36 581.755 197.76 580.815 201.1L579.575 200.42C580.475 197.38 581.715 192 582.415 188.2ZM580.375 199.82L581.215 198.76C583.455 200.02 586.115 201.94 587.315 203.42L586.395 204.64C585.215 203.14 582.615 201.12 580.375 199.82ZM585.395 192.34H585.655L585.915 192.3L586.815 192.48C586.275 200.22 584.115 204.46 580.435 206.66C580.215 206.3 579.815 205.76 579.495 205.46C582.815 203.7 584.915 199.44 585.395 192.66V192.34ZM607.815 188.3L609.295 188.62C608.515 191.82 607.255 194.9 605.715 196.94C605.455 196.68 604.855 196.2 604.515 195.98C605.995 194.12 607.155 191.24 607.815 188.3ZM607.475 196.78L608.935 197.08C608.315 199.7 607.235 202.24 606.015 203.92C605.715 203.68 605.075 203.28 604.715 203.1C605.955 201.56 606.915 199.18 607.475 196.78ZM607.635 192.06H616.635V193.46H607.055L607.635 192.06ZM610.735 192.64H612.235V204.78C612.235 205.64 612.055 206.08 611.495 206.32C610.955 206.58 610.095 206.62 608.855 206.62C608.755 206.2 608.535 205.54 608.315 205.1C609.255 205.14 610.115 205.12 610.395 205.12C610.655 205.12 610.735 205.04 610.735 204.78V192.64ZM613.675 197.08L615.015 196.64C616.175 198.74 617.175 201.5 617.515 203.36L616.095 203.84C615.775 202 614.775 199.18 613.675 197.08ZM616.195 192.06H616.395L616.655 192.02L617.695 192.24C617.415 193.72 617.075 195.44 616.815 196.52L615.515 196.28C615.735 195.28 615.995 193.6 616.195 192.28V192.06ZM603.795 188.28L605.215 188.72C603.895 192.12 601.835 195.5 599.675 197.74C599.515 197.4 599.095 196.6 598.815 196.26C600.795 194.32 602.675 191.32 603.795 188.28ZM601.715 193.44L603.115 192.02L603.155 192.04V206.58H601.715V193.44ZM621.135 191.42H627.215V204.5H621.135V203.14H625.815V192.76H621.135V191.42ZM620.235 191.42H621.635V206.1H620.235V191.42ZM621.035 196.98H626.555V198.32H621.035V196.98ZM623.295 188.16L624.915 188.46C624.515 189.7 624.015 191.08 623.615 191.98L622.415 191.68C622.755 190.72 623.135 189.2 623.295 188.16ZM630.055 191.36H636.195V192.76H630.055V191.36ZM635.675 191.36H637.075C637.075 191.36 637.075 191.92 637.075 192.14C636.755 201.32 636.475 204.42 635.675 205.4C635.235 205.98 634.775 206.16 634.075 206.22C633.395 206.3 632.215 206.26 631.095 206.2C631.055 205.76 630.875 205.14 630.595 204.74C631.895 204.84 633.095 204.86 633.555 204.86C633.955 204.86 634.195 204.8 634.415 204.54C635.075 203.82 635.395 200.5 635.675 191.68V191.36ZM630.475 188.12L631.915 188.46C631.175 191.44 629.995 194.38 628.615 196.28C628.355 196.04 627.735 195.62 627.375 195.42C628.735 193.66 629.835 190.9 630.475 188.12ZM629.555 196.56L630.715 195.88C631.855 197.3 633.235 199.24 633.875 200.42L632.595 201.22C631.995 200 630.655 198.02 629.555 196.56ZM643.075 194.96H652.975V196.28H643.075V194.96ZM639.715 199.52H657.395V200.92H639.715V199.52ZM647.755 198.06H649.295V204.82C649.295 205.72 649.055 206.16 648.295 206.38C647.575 206.6 646.415 206.62 644.595 206.62C644.495 206.2 644.195 205.58 643.955 205.18C645.495 205.22 646.855 205.22 647.255 205.2C647.655 205.18 647.755 205.08 647.755 204.78V198.06ZM652.515 194.96H652.895L653.215 194.88L654.175 195.62C652.815 197 650.715 198.38 648.815 199.2C648.635 198.94 648.235 198.54 647.975 198.32C649.655 197.6 651.575 196.28 652.515 195.26V194.96ZM640.115 191.54H657.055V196H655.575V192.9H641.535V196H640.115V191.54ZM654.415 188.34L655.975 188.86C655.135 190.1 654.055 191.44 653.215 192.32L652.035 191.82C652.835 190.88 653.855 189.4 654.415 188.34ZM641.475 189.04L642.735 188.44C643.515 189.28 644.335 190.42 644.675 191.22L643.335 191.86C643.015 191.1 642.215 189.9 641.475 189.04ZM646.615 188.6L647.915 188.12C648.595 189.06 649.315 190.36 649.555 191.2L648.175 191.74C647.935 190.9 647.275 189.58 646.615 188.6ZM662.675 192.1H676.535V193.56H662.675V192.1ZM661.795 197.96H675.815V199.4H661.795V197.96ZM659.615 204.5H677.475V205.96H659.615V204.5ZM667.775 188.22H669.315V205.24H667.775V188.22ZM663.275 188.54L664.815 188.88C663.935 191.98 662.535 194.94 660.935 196.86C660.635 196.6 659.955 196.16 659.575 195.96C661.215 194.18 662.515 191.4 663.275 188.54ZM682.675 192.1H696.535V193.56H682.675V192.1ZM681.795 197.96H695.815V199.4H681.795V197.96ZM679.615 204.5H697.475V205.96H679.615V204.5ZM687.775 188.22H689.315V205.24H687.775V188.22ZM683.275 188.54L684.815 188.88C683.935 191.98 682.535 194.94 680.935 196.86C680.635 196.6 679.955 196.16 679.575 195.96C681.215 194.18 682.515 191.4 683.275 188.54ZM556.355 221.82H566.335V229.5H564.895V223.2H557.735V229.6H556.355V221.82ZM565.595 211.28L566.775 212.46C564.035 213.4 559.855 214.02 556.275 214.36C556.215 214 556.015 213.42 555.835 213.08C559.315 212.7 563.375 212.08 565.595 211.28ZM560.675 213.02H562.115V222.62H560.675V213.02ZM554.895 217.08H567.635V218.52H554.895V217.08ZM557.295 227.36H565.555V228.74H557.295V227.36ZM550.315 212.52L551.155 211.46C552.375 212.06 554.075 212.96 554.935 213.54L554.055 214.76C553.215 214.16 551.555 213.18 550.315 212.52ZM549.335 218.04L550.175 216.94C551.355 217.52 553.035 218.4 553.875 218.98L553.035 220.2C552.215 219.64 550.555 218.68 549.335 218.04ZM549.815 228.32C550.895 226.8 552.475 224.16 553.635 221.88L554.715 222.86C553.655 224.98 552.255 227.48 551.075 229.34L549.815 228.32ZM577.855 223.18L577.455 215.42L577.395 213.04H579.615L579.555 215.42L579.155 223.18H577.855ZM578.515 228.1C577.795 228.1 577.215 227.6 577.215 226.8C577.215 226 577.795 225.46 578.515 225.46C579.215 225.46 579.795 226 579.795 226.8C579.795 227.6 579.215 228.1 578.515 228.1Z" fill="#2D3342"/>
<path d="M508.435 167.56C506.815 170.04 503.695 172.88 500.315 174.8C499.975 174.22 499.275 173.32 498.735 172.82C502.295 170.96 505.555 167.66 507.015 165.06H509.615C511.775 168.36 515.055 171.12 518.355 172.56C517.715 173.18 517.175 174 516.715 174.76C513.495 172.98 510.115 170.04 508.435 167.56ZM507.155 171.84H509.715V183.8H507.155V171.84ZM523.175 171.86H532.395V173.92H523.175V171.86ZM519.595 176.34H537.495V178.56H519.595V176.34ZM527.295 175.06H529.755V181.24C529.755 182.48 529.455 183.1 528.495 183.46C527.555 183.78 526.275 183.82 524.575 183.82C524.415 183.14 523.975 182.12 523.595 181.5C524.875 181.54 526.375 181.54 526.775 181.54C527.175 181.54 527.295 181.44 527.295 181.16V175.06ZM531.615 171.86H532.215L532.715 171.74L534.235 172.9C532.855 174.38 530.875 175.94 528.915 176.88C528.635 176.48 527.995 175.82 527.635 175.5C529.175 174.7 530.875 173.28 531.615 172.3V171.86ZM519.835 168.2H537.275V173.1H534.895V170.32H522.095V173.1H519.835V168.2ZM533.695 165.16L536.295 165.92C535.375 167.24 534.335 168.6 533.515 169.48L531.555 168.76C532.315 167.78 533.215 166.28 533.695 165.16ZM521.175 166.14L523.215 165.22C523.935 166 524.735 167.08 525.055 167.86L522.875 168.86C522.595 168.12 521.855 166.98 521.175 166.14ZM526.215 165.7L528.335 164.9C528.975 165.78 529.655 167 529.915 167.8L527.635 168.68C527.435 167.88 526.815 166.62 526.215 165.7ZM542.655 168.64H556.575V170.98H542.655V168.64ZM541.835 174.54H555.815V176.84H541.835V174.54ZM539.515 180.88H557.595V183.22H539.515V180.88ZM547.295 165.02H549.795V182.04H547.295V165.02ZM542.675 165.26L545.155 165.82C544.275 168.92 542.815 172 541.255 173.92C540.775 173.5 539.715 172.8 539.095 172.46C540.675 170.78 541.955 168.02 542.675 165.26ZM559.555 166.38H569.195V168.24H559.555V166.38ZM559.315 171.86H569.195V173.68H559.315V171.86ZM559.995 169.16H568.635V170.92H559.995V169.16ZM569.895 165.8H575.535V167.82H572.195V175.88H569.895V165.8ZM575.135 165.8H575.615L575.995 165.72L577.715 166.66C577.055 167.66 576.275 168.86 575.555 169.8C577.075 170.82 577.555 171.78 577.555 172.62C577.575 173.64 577.215 174.28 576.455 174.74C576.075 174.96 575.615 175.08 575.155 175.14C574.535 175.2 573.735 175.22 572.975 175.16C572.935 174.56 572.635 173.7 572.255 173.16C572.955 173.24 573.475 173.24 573.955 173.22C574.215 173.22 574.515 173.16 574.695 173.1C575.015 172.98 575.135 172.76 575.135 172.4C575.135 171.82 574.595 170.98 573.075 170.12C573.815 168.9 574.675 167.26 575.135 166.26V165.8ZM563.395 165.02H565.855V171.9C565.855 174 564.555 176.12 561.155 177.16C560.775 176.66 560.015 175.88 559.495 175.44C562.275 174.88 563.395 173.14 563.395 171.88V165.02ZM567.175 175.08H569.695V183.74H567.175V175.08ZM561.175 176.6H574.695V178.74H563.615V182.68H561.175V176.6ZM573.675 176.6H576.135V180.46C576.135 181.52 575.875 182.1 575.055 182.42C574.235 182.74 573.115 182.76 571.595 182.76C571.455 182.12 571.095 181.26 570.795 180.7C571.755 180.74 572.955 180.74 573.255 180.74C573.575 180.72 573.675 180.64 573.675 180.4V176.6ZM587.915 169.34H595.935V171.6H587.915V169.34ZM594.955 169.34H597.255C597.255 169.34 597.235 170.12 597.235 170.4C597.055 178.66 596.895 181.62 596.235 182.54C595.755 183.24 595.275 183.46 594.555 183.58C593.915 183.68 592.875 183.66 591.835 183.64C591.795 182.98 591.515 181.98 591.115 181.36C592.115 181.42 592.995 181.44 593.435 181.44C593.755 181.44 593.975 181.36 594.155 181.1C594.655 180.48 594.815 177.58 594.955 169.82V169.34ZM590.575 165.04H592.915C592.895 173.38 592.875 180.1 587.515 183.82C587.155 183.22 586.415 182.4 585.835 182C590.795 178.72 590.555 172.84 590.575 165.04ZM580.395 165.86H587.375V178.9H585.155V168.02H582.515V180.16H580.395V165.86ZM578.995 179.38C581.295 178.98 584.895 178.24 588.255 177.5L588.475 179.66C585.315 180.44 581.915 181.24 579.395 181.84L578.995 179.38ZM581.515 170.02H586.275V172.12H581.515V170.02ZM581.515 174.18H586.275V176.28H581.515V174.18ZM607.175 165.04H609.555V170.48C609.555 171.22 609.755 171.32 610.935 171.32C611.475 171.32 613.755 171.32 614.415 171.32C615.415 171.32 615.575 171 615.715 169.02C616.215 169.38 617.235 169.74 617.875 169.88C617.575 172.72 616.875 173.46 614.595 173.46C613.995 173.46 611.275 173.46 610.695 173.46C607.895 173.46 607.175 172.78 607.175 170.48V165.04ZM614.915 165.88L616.695 167.62C614.475 168.54 611.495 169.26 608.935 169.74C608.815 169.22 608.475 168.42 608.215 167.96C610.615 167.46 613.295 166.66 614.915 165.88ZM607.135 174.62H616.895V183.7H614.515V176.6H609.395V183.8H607.135V174.62ZM608.335 177.84H615.335V179.7H608.335V177.84ZM608.235 181.02H615.335V182.92H608.235V181.02ZM598.935 175.22C600.795 174.82 603.575 174.14 606.175 173.46L606.455 175.66C604.075 176.34 601.515 177 599.515 177.52L598.935 175.22ZM599.235 168.78H606.135V171.02H599.235V168.78ZM601.735 165.02H604.095V181.22C604.095 182.38 603.895 182.98 603.215 183.34C602.535 183.7 601.575 183.78 600.155 183.76C600.095 183.16 599.775 182.18 599.495 181.58C600.275 181.6 601.095 181.6 601.355 181.6C601.635 181.58 601.735 181.5 601.735 181.22V165.02ZM619.635 166.68H637.395V168.92H619.635V166.68ZM624.015 175.28H632.975V177.14H624.015V175.28ZM623.595 178.46H633.415V180.38H623.595V178.46ZM627.295 176.18H629.575V183.22H627.295V176.18ZM620.375 170.42H634.855V172.62H622.795V183.76H620.375V170.42ZM634.175 170.42H636.655V181.36C636.655 182.52 636.375 183.06 635.555 183.4C634.755 183.74 633.575 183.76 631.955 183.76C631.835 183.14 631.475 182.26 631.155 181.72C632.135 181.78 633.395 181.78 633.715 181.76C634.075 181.74 634.175 181.64 634.175 181.34V170.42ZM624.775 173.16L626.695 172.6C627.155 173.24 627.615 174.16 627.835 174.76L625.835 175.44C625.655 174.8 625.195 173.86 624.775 173.16ZM630.415 172.64L632.455 173.2C631.915 174.16 631.375 175.1 630.915 175.74L629.215 175.24C629.635 174.5 630.155 173.4 630.415 172.64ZM627.215 165.14H629.855V171.96H627.215V165.14Z" fill="#6663CF"/>
<path d="M56.4918 188.08C58.4869 188.08 60.1042 186.462 60.1042 184.467C60.1042 182.471 58.4869 180.854 56.4918 180.854C54.4967 180.854 52.8794 182.471 52.8794 184.467C52.8794 186.462 54.4967 188.08 56.4918 188.08Z" stroke="#6663CF" stroke-width="2"/>
<path d="M63.5698 184.835C70.8561 184.085 82.289 184.972 83.6404 190.609C84.9917 196.246 79.8315 198.308 77.0827 198.634C66.6169 200.298 52.7397 199.515 52.7397 190.609" stroke="#6663CF" stroke-width="2" stroke-linecap="round"/>
<path d="M60.9371 193.361C61.3975 193.361 61.7708 192.987 61.7708 192.527C61.7708 192.066 61.3975 191.693 60.9371 191.693C60.4767 191.693 60.1035 192.066 60.1035 192.527C60.1035 192.987 60.4767 193.361 60.9371 193.361Z" stroke="#6663CF" stroke-width="2"/>
<path d="M68.9954 192.527C68.9954 192.932 68.6181 193.361 68.0229 193.361C67.4276 193.361 67.0503 192.932 67.0503 192.527C67.0503 192.122 67.4276 191.693 68.0229 191.693C68.6181 191.693 68.9954 192.122 68.9954 192.527Z" stroke="#6663CF" stroke-width="2"/>
<path d="M75.109 193.361C75.5694 193.361 75.9426 192.987 75.9426 192.527C75.9426 192.066 75.5694 191.693 75.109 191.693C74.6486 191.693 74.2754 192.066 74.2754 192.527C74.2754 192.987 74.6486 193.361 75.109 193.361Z" stroke="#6663CF" stroke-width="2"/>
<path d="M330.616 86.3557C332.458 86.3557 333.951 84.8625 333.951 83.0205C333.951 81.1785 332.458 79.6853 330.616 79.6853C328.775 79.6853 327.282 81.1785 327.282 83.0205C327.282 84.8625 328.775 86.3557 330.616 86.3557Z" stroke="#6663CF" stroke-width="2"/>
<path d="M337.167 80.1023C339.61 80.1023 346.592 80.1023 349.877 80.1023C352.537 80.1023 353.818 80.691 353.818 84.8111C353.818 88.8142 353.785 93.9996 353.818 96.0925C353.841 97.5638 353.108 99.1923 350.665 99.4277C348.221 99.6631 338.415 99.5258 333.817 99.4277C332.109 99.4277 329.087 98.4593 329.087 94.5227V90.1082" stroke="#6663CF" stroke-width="2" stroke-linecap="round"/>
<path d="M335.479 87.0505L341.592 91.2196" stroke="#6663CF" stroke-width="2" stroke-linecap="round"/>
<path d="M341.592 91.2196L352.707 80.936" stroke="#6663CF" stroke-width="2" stroke-linecap="round"/>
<path d="M344.41 88.7183L347.447 91.7755L350.484 94.8328" stroke="#6663CF" stroke-width="2" stroke-linecap="round"/>
<path d="M333.256 94.8328L337.737 88.7183" stroke="#6663CF" stroke-width="2" stroke-linecap="round"/>
<path d="M118.874 250.774C117.876 246.916 114.558 239.802 109.283 242.207C104.008 244.611 107.085 248.92 109.283 250.774C110.762 251.776 113.942 252.848 114.828 249.12C115.714 245.393 111.981 243.86 110.931 245.513C110.378 246.165 109.753 247.798 111.681 249.12" stroke="#6663CF" stroke-width="2" stroke-linecap="round"/>
<path d="M145.622 62.4645L147.061 63.2103C148.229 63.8163 149.621 63.8083 150.783 63.189L152.213 62.4265C153.676 61.6467 155.398 62.8828 155.127 64.5183L154.862 66.1176C154.647 67.4165 155.084 68.7381 156.032 69.6517L157.199 70.7765C158.393 71.9268 157.749 73.9467 156.11 74.1945L154.508 74.4367C153.207 74.6335 152.085 75.4584 151.509 76.6425L150.801 78.0996C150.076 79.5905 147.956 79.6027 147.214 78.1203L146.489 76.6709C145.899 75.4936 144.769 74.6818 143.465 74.4999L141.86 74.276C140.218 74.047 139.552 72.0347 140.732 70.8708L141.886 69.7328C142.823 68.8083 143.246 67.4817 143.016 66.1853L142.733 64.5897C142.443 62.9573 144.151 61.7014 145.622 62.4645Z" stroke="#6663CF" stroke-width="2"/>
<path d="M228.219 188.056V211.681" stroke="#2B2B2B" stroke-width="2" stroke-linecap="round"/>
<path d="M246.003 190.836V213.348" stroke="#2B2B2B" stroke-width="2" stroke-linecap="round"/>
<path d="M204.407 293.139C198.535 293.871 184.787 296.568 181.776 302.053C180.872 303.698 179.825 307.703 182.86 310.555C185.896 313.407 191.443 312.657 193.837 311.926L207.795 306.304" stroke="#2B2B2B" stroke-width="2" stroke-linecap="round"/>
<path d="M284.433 251.748C273.475 252.101 225.08 275.535 202.252 287.208C200.308 300.071 208.511 309.307 212.856 312.317C235.61 305.71 282.312 292.318 287.084 291.613C291.855 290.909 296.583 287.502 298.35 285.887C310.721 271.439 301.59 259.163 295.478 254.832C291.127 251.748 287.371 251.654 284.433 251.748Z" fill="#2B2B2B"/>
<path d="M181.795 248.47C189.558 248.988 223.426 262.117 239.473 268.998L202.774 287.34C186.35 292.157 176.26 290.57 173.179 289.532C155.393 280.961 162.361 259.817 169.428 251.984C173.982 248.107 179.013 248.285 181.795 248.47Z" fill="#2B2B2B"/>
<path d="M268.201 295.641C273.054 297.973 275.677 301.029 277.007 303.534C279.858 310.06 274.739 313.983 268.895 312.138C265.666 311.119 264.905 310.436 263.194 309.017C262.326 308.297 258.273 304.53 253.645 300.08" stroke="#2B2B2B" stroke-width="2" stroke-linecap="round"/>
<path d="M175.439 191.794L178.375 245.171C178.667 250.472 183.051 254.622 188.36 254.622H278.24C283.763 254.622 288.24 250.145 288.24 244.622V189.993C288.24 184.417 283.68 179.919 278.105 179.994L185.289 181.245C179.604 181.322 175.126 186.117 175.439 191.794Z" fill="#2B2B2B"/>
<rect x="178.201" y="255.594" width="110.039" height="5.28076" rx="2.64038" fill="#2B2B2B"/>
<path d="M246.281 150.535C255.96 150.396 277.264 157.761 285.739 180.969" stroke="#2B2B2B" stroke-width="2" stroke-linecap="round"/>
<path d="M225.023 150.396C202.932 154.704 192.372 164.154 184.036 182.359" stroke="#2B2B2B" stroke-width="2" stroke-linecap="round"/>
<path d="M298.938 172.377L304.357 163.344" stroke="#2B2B2B" stroke-width="2" stroke-linecap="round"/>
<path d="M304.357 174.878L311.721 168.763" stroke="#2B2B2B" stroke-width="2" stroke-linecap="round"/>
<path d="M305.468 179.047C306.903 179.603 310.164 180.131 311.72 177.796" stroke="#2B2B2B" stroke-width="2" stroke-linecap="round"/>
<path d="M163.335 170.685L154.999 162.069" stroke="#2B2B2B" stroke-width="2" stroke-linecap="round"/>
<path d="M171.81 169.296L166.808 156.372" stroke="#2B2B2B" stroke-width="2" stroke-linecap="round"/>
<path d="M161.251 175.549L154.999 173.187" stroke="#2B2B2B" stroke-width="2" stroke-linecap="round"/>
<path d="M291.296 196.557C296.437 204.617 302.272 214.206 291.296 232.248" stroke="#2B2B2B" stroke-width="2" stroke-linecap="round"/>
<path d="M246.419 151.23C247.67 147.617 246.531 145.185 245.419 144.722C238.75 150.837 228.635 148.567 224.884 144.861C223.55 146.084 224.328 149.701 224.884 150.813C232.109 158.818 242.39 154.334 246.419 151.23Z" fill="#2B2B2B"/>
<path d="M216.826 173.465L217.387 172.603C220.532 167.775 226.654 165.847 231.998 168.003V168.003C236.797 169.938 242.296 168.595 245.663 164.667L250.032 159.568" stroke="#2B2B2B" stroke-width="2" stroke-linecap="round"/>
<path d="M173.338 201.675C171.254 206.585 168.781 218.49 175.561 226.828" stroke="#2B2B2B" stroke-width="2" stroke-linecap="round"/>
<path d="M262.733 121.066V121.066C261.347 121.066 246.564 108.128 241.482 103.969C236.4 99.8105 228.601 89.1279 224.558 86.41C224.712 96.489 219.307 106.28 219.307 106.28C217.892 108.61 216.535 109.514 216.535 115.935C216.535 123.249 215.373 121.814 214.405 120.199C211.618 111.206 206.459 114.582 204.523 116.908C197.532 92.0036 216.958 75.0714 223.927 75.7821C229.192 71.2853 238.949 74.3842 243.792 76.2442C262.733 83.518 262.733 102.588 262.733 121.066Z" fill="url(#paint1_linear_941_6096)"/>
<path d="M215.587 127.07C218.088 142.342 237.871 150.015 247.026 139.55C253.493 132.157 253.955 126.608 253.493 109.052" stroke="#2B2B2B" stroke-width="2" stroke-linecap="round"/>
<path d="M205.695 114.989C204.167 118.741 205.601 127.055 215.588 127.055" stroke="#2B2B2B" stroke-width="2" stroke-linecap="round"/>
<path d="M210.1 117.05C209.879 117.852 210.055 119.755 212.531 120.941" stroke="#2B2B2B" stroke-width="2" stroke-linecap="round"/>
<path d="M253.493 125.11C256.753 123.751 259.051 118.717 258.167 110.657" stroke="#2B2B2B" stroke-width="2" stroke-linecap="round"/>
<path d="M233.628 134.467C236.824 135.301 238.595 135.556 241.02 133.543" stroke="#2B2B2B" stroke-width="2" stroke-linecap="round"/>
<ellipse cx="246.246" cy="114.868" rx="2.08407" ry="2.08451" fill="#2B2B2B"/>
<ellipse cx="227.905" cy="115.146" rx="2.08407" ry="2.08451" fill="#2B2B2B"/>
<path d="M223.368 110.379C223.807 109.088 225.699 106.698 229.759 107.473" stroke="#2B2B2B" stroke-width="2" stroke-linecap="round"/>
<path d="M242.819 107.878C243.788 107.039 246.422 105.864 249.21 107.878" stroke="#2B2B2B" stroke-width="2" stroke-linecap="round"/>
<path d="M236.097 113.714C235.773 116.459 235.553 122.024 237.262 122.33" stroke="#2B2B2B" stroke-width="2" stroke-linecap="round"/>
<path d="M316.167 239.776C353.263 250.059 419.898 261.872 389.665 226.852C380.124 217.448 366.045 206.424 343.398 196.696" stroke="#6663CF" stroke-width="2" stroke-linecap="round"/>
<path d="M356.32 167.926C379.383 153.149 416.535 122.623 380.634 118.732C344.732 114.841 311.952 128.32 300.05 135.547" stroke="#6663CF" stroke-width="2" stroke-linecap="round"/>
<path d="M262.563 142.636C277.846 109.7 302.577 41.4394 279.235 31.8785C250.058 19.9273 212.267 54.3912 181.423 136.66" stroke="#6663CF" stroke-width="2" stroke-linecap="round"/>
<path d="M151.852 117.961C117.674 99.2464 47.8988 70.4616 42.2302 105.037C36.5615 139.612 105.817 168.452 141.154 178.55" stroke="#6663CF" stroke-width="2" stroke-linecap="round"/>
<path d="M150.227 196.696C100.349 222.127 37.8513 257.298 72.4691 275.63C86.6406 283.134 122.904 278.548 139.576 271.738" stroke="#6663CF" stroke-width="2" stroke-linecap="round"/>
<ellipse cx="231.831" cy="363.179" rx="68.7744" ry="8.33805" fill="#6663CF"/>
<path d="M349.346 288.433C351.487 288.822 356.397 288.684 358.908 285.021" stroke="#6663CF" stroke-width="2" stroke-linecap="round"/>
<path d="M343.701 282.984C345.055 283.471 348.42 283.812 351.051 281.276" stroke="#6663CF" stroke-width="2" stroke-linecap="round"/>
<path d="M339.133 276.069C341.469 276.32 346.688 276.441 348.875 274.909" stroke="#6663CF" stroke-width="2" stroke-linecap="round"/>
<path d="M353.766 297.526C340.056 296.039 331.886 280.305 328.836 270.652C328.446 269.417 329.385 268.201 330.68 268.186L351.965 267.943C352.744 267.934 353.451 268.382 353.824 269.065C358.141 276.967 367.313 283.378 374.02 287.025C375.636 287.903 375.495 290.423 373.752 291.007L354.576 297.434C354.316 297.521 354.038 297.555 353.766 297.526Z" stroke="#6663CF" stroke-width="2" stroke-linecap="round"/>
<defs>
<linearGradient id="paint0_linear_941_6096" x1="546.478" y1="96" x2="619.772" y2="122.21" gradientUnits="userSpaceOnUse">
<stop stop-color="#5955B3"/>
<stop offset="1" stop-color="#6563CE"/>
</linearGradient>
<linearGradient id="paint1_linear_941_6096" x1="233.189" y1="73.4614" x2="233.189" y2="121.504" gradientUnits="userSpaceOnUse">
<stop stop-color="#2A2A2A"/>
<stop offset="0.825" stop-color="#5955B3"/>
</linearGradient>
</defs>
</svg>
