<svg width="325" height="290" viewBox="0 0 325 290" fill="none" xmlns="http://www.w3.org/2000/svg">
<rect width="325" height="290" rx="5" fill="white"/>
<path opacity="0.2" fill-rule="evenodd" clip-rule="evenodd" d="M324.665 269.81C324.613 280.783 315.724 289.668 304.75 289.713H171.145C177.237 275.753 202.684 247.832 255.738 247.832C308.791 247.832 323.794 226.116 324.665 215.258V269.81Z" fill="#89AFFF"/>
<path opacity="0.2" fill-rule="evenodd" clip-rule="evenodd" d="M149.339 0C147.452 10.5057 135.894 40.0486 88.2783 53.4492C42.0804 66.4509 11.6465 61.9796 0.329229 57.7773L0.329226 20C0.329225 8.95432 9.28349 1.09491e-05 20.3292 1.00855e-05L149.339 0Z" fill="#89AFFF"/>
<path d="M16.296 123.01H28.648V124.21H16.296V123.01ZM28.152 123.01H29.4C29.4 123.01 29.4 123.458 29.384 123.634C29.144 130.05 28.92 132.322 28.28 133.058C27.928 133.506 27.544 133.65 26.968 133.698C26.408 133.746 25.384 133.73 24.408 133.666C24.376 133.314 24.216 132.786 23.992 132.418C25.064 132.53 26.072 132.53 26.472 132.53C26.808 132.53 26.984 132.482 27.176 132.29C27.688 131.778 27.944 129.41 28.152 123.266V123.01ZM21.56 119.186H22.776V121.09C22.776 124.674 22.392 129.954 16.808 133.666C16.616 133.378 16.168 132.978 15.864 132.77C21.224 129.298 21.56 124.402 21.56 121.09V119.186ZM17.576 120.05L18.616 119.602C19.256 120.306 20.008 121.314 20.344 121.97L19.256 122.482C18.952 121.842 18.216 120.802 17.576 120.05ZM22.968 126.674L23.96 126.178C24.808 127.122 25.784 128.418 26.2 129.266L25.144 129.826C24.744 128.978 23.784 127.634 22.968 126.674ZM38.392 124.61H39.64V132.338C39.64 133.138 39.432 133.506 38.808 133.682C38.184 133.874 37.112 133.89 35.496 133.89C35.416 133.538 35.192 133.026 35 132.674C36.328 132.722 37.56 132.722 37.928 132.706C38.28 132.69 38.392 132.594 38.392 132.306V124.61ZM32.568 120.418H44.12V121.586H32.568V120.418ZM43.688 120.418H44.008L44.296 120.338L45.224 121.01C43.8 122.706 41.544 124.594 39.56 125.714C39.384 125.458 39 125.058 38.744 124.882C40.568 123.874 42.68 122.034 43.688 120.706V120.418ZM48.104 120.29H61.88V121.506H48.104V120.29ZM55.944 124.946L56.84 124.178C58.712 125.394 61.16 127.202 62.344 128.434L61.368 129.346C60.248 128.114 57.848 126.242 55.944 124.946ZM55.64 120.706L56.952 121.186C55.128 124.498 52.136 127.666 48.52 129.57C48.328 129.266 47.944 128.786 47.704 128.53C51.176 126.786 54.152 123.714 55.64 120.706ZM54.328 123.906L55.624 122.626V133.858H54.328V123.906ZM73.864 119.762L74.488 119.058C75.288 119.314 76.28 119.762 76.792 120.162L76.136 120.962C75.656 120.546 74.68 120.05 73.864 119.762ZM65.592 120.786H78.056V121.778H65.592V120.786ZM66.728 122.866H71.64V123.714H66.728V122.866ZM66.984 124.802H67.992V127.714H66.984V124.802ZM75.48 122.546L76.6 122.818C75.704 125.474 74.088 127.634 72.136 129.026C71.96 128.802 71.512 128.402 71.272 128.194C73.208 126.946 74.712 124.946 75.48 122.546ZM71.704 119.154H72.856C73.032 124.082 75.208 128.082 76.84 128.066C77.24 128.066 77.4 127.49 77.48 126.034C77.72 126.258 78.12 126.466 78.424 126.578C78.232 128.61 77.8 129.17 76.776 129.17C74.248 129.17 71.96 124.53 71.704 119.154ZM66.984 124.802H71.384V128.162H66.984V127.298H70.36V125.65H66.984V124.802ZM67.784 129.634H68.968V132.114C68.968 132.514 69.128 132.594 69.976 132.594C70.376 132.594 72.376 132.594 72.904 132.594C73.608 132.594 73.72 132.402 73.784 130.914C74.04 131.106 74.536 131.266 74.872 131.346C74.712 133.234 74.36 133.682 73 133.682C72.632 133.682 70.248 133.682 69.896 133.682C68.2 133.682 67.784 133.362 67.784 132.13V129.634ZM69.032 129.106L69.8 128.434C70.808 128.898 71.992 129.666 72.552 130.29L71.736 131.058C71.192 130.434 70.024 129.618 69.032 129.106ZM74.552 130.114L75.528 129.57C76.68 130.466 77.88 131.794 78.376 132.786L77.304 133.378C76.856 132.402 75.704 131.042 74.552 130.114ZM65.752 129.73L66.808 130.098C66.408 131.394 65.752 132.738 64.616 133.554L63.624 132.882C64.696 132.146 65.4 130.93 65.752 129.73ZM65.032 120.786H66.152V123.202C66.152 125.058 65.864 127.682 64.392 129.49C64.232 129.266 63.752 128.866 63.512 128.738C64.856 127.074 65.032 124.818 65.032 123.186V120.786ZM79.8 120.21H88.008V121.298H79.8V120.21ZM80.28 127.826H87.544V128.914H80.28V127.826ZM83.336 125.922H84.52V132.194L83.336 132.37V125.922ZM79.624 132.194C81.704 131.97 84.952 131.538 88.04 131.122L88.072 132.242C85.096 132.658 81.944 133.106 79.816 133.394L79.624 132.194ZM79.768 124.562C81.592 124.498 84.408 124.37 87.16 124.226L87.128 125.282C84.504 125.442 81.768 125.586 79.864 125.698L79.768 124.562ZM84.872 122.61L85.768 122.114C86.744 123.234 87.864 124.738 88.328 125.698L87.368 126.274C86.904 125.298 85.832 123.746 84.872 122.61ZM82.568 120.786L83.864 121.042C83.304 122.45 82.616 124.21 82.024 125.314L80.968 125.058C81.528 123.922 82.216 122.05 82.568 120.786ZM88.712 121.09H89.864V129.954H88.712V121.09ZM92.488 119.618H93.672V132.258C93.672 133.09 93.48 133.458 92.952 133.65C92.424 133.858 91.448 133.89 90.152 133.89C90.088 133.554 89.912 132.994 89.736 132.626C90.808 132.674 91.8 132.658 92.12 132.658C92.408 132.642 92.488 132.562 92.488 132.274V119.618ZM98.488 123.874H107.608V124.898H98.488V123.874ZM103.8 124.306C104.584 126.354 106.152 128.386 107.848 129.314C107.592 129.522 107.24 129.922 107.048 130.21C105.352 129.09 103.816 126.85 103 124.562L103.8 124.306ZM102.376 121.634H103.512V131.17H102.376V121.634ZM102.104 124.226L102.952 124.498C102.12 126.834 100.584 129.09 98.92 130.258C98.728 129.986 98.392 129.618 98.152 129.41C99.784 128.434 101.32 126.338 102.104 124.226ZM96.344 119.922H109.688V133.922H108.44V121.042H97.528V133.922H96.344V119.922ZM97.016 132.034H108.936V133.154H97.016V132.034ZM121.512 119.906L122.2 119.186C123.08 119.506 124.12 120.082 124.632 120.578L123.912 121.362C123.416 120.882 122.392 120.274 121.512 119.906ZM112.008 121.17H125.992V122.226H112.008V121.17ZM111.8 127.922C113.592 127.778 116.328 127.506 118.984 127.218V128.226C116.424 128.498 113.752 128.786 111.896 128.994L111.8 127.922ZM123.48 122.882L124.616 123.17C123.608 125.73 121.816 127.762 119.752 129.058C119.576 128.85 119.128 128.418 118.872 128.226C120.92 127.074 122.6 125.186 123.48 122.882ZM119 119.154H120.2C120.376 124.066 122.552 128.082 124.536 128.066C125 128.066 125.16 127.554 125.24 126.098C125.496 126.322 125.912 126.546 126.216 126.658C126.008 128.674 125.56 129.218 124.472 129.218C121.592 129.218 119.24 124.562 119 119.154ZM115.272 129.89H116.456V132.13C116.456 132.546 116.632 132.626 117.608 132.626C118.072 132.626 120.408 132.626 121.032 132.626C121.816 132.626 121.944 132.434 122.024 131.074C122.28 131.234 122.76 131.41 123.08 131.474C122.936 133.266 122.552 133.682 121.128 133.682C120.728 133.682 117.928 133.682 117.544 133.682C115.736 133.682 115.272 133.362 115.272 132.146V129.89ZM117.432 129.554L118.168 128.85C119.176 129.33 120.376 130.13 120.968 130.754L120.184 131.522C119.624 130.898 118.456 130.066 117.432 129.554ZM123.128 130.066L124.216 129.698C124.984 130.722 125.8 132.082 126.12 132.978L124.968 133.41C124.664 132.514 123.88 131.106 123.128 130.066ZM113.368 129.714L114.424 130.13C114.088 131.202 113.576 132.594 112.936 133.49L111.864 132.882C112.52 132.066 113.064 130.754 113.368 129.714ZM114.152 124.05V125.57H117.048V124.05H114.152ZM113.064 123.202H118.184V126.434H113.064V123.202ZM129.512 134.306L129.144 133.474C130.456 132.93 131.176 132.114 131.176 130.914L130.872 129.554L131.736 130.77C131.512 131.058 131.192 131.138 130.888 131.138C130.232 131.138 129.688 130.754 129.688 129.986C129.688 129.234 130.264 128.834 130.904 128.834C131.8 128.834 132.28 129.57 132.28 130.69C132.28 132.418 131.192 133.73 129.512 134.306ZM143.88 120.338H158.12V121.554H143.88V120.338ZM150.04 121.298H151.304V133.858H150.04V121.298ZM150.744 125.09L151.528 124.162C153.448 125.09 155.976 126.546 157.256 127.506L156.408 128.594C155.176 127.602 152.68 126.082 150.744 125.09ZM164.68 126.274H169.064V127.266H164.68V126.274ZM164.68 129.058H169.112V130.05H164.68V129.058ZM161.384 131.922H172.68V133.042H161.384V131.922ZM160.648 123.378H173.336V133.89H172.12V124.498H161.816V133.89H160.648V123.378ZM164.12 124.082H165.208V132.434H164.12V124.082ZM168.6 124.082H169.704V132.386H168.6V124.082ZM166.2 120.754L167.592 121.074C167.256 122.146 166.92 123.378 166.6 124.178L165.512 123.874C165.768 123.01 166.088 121.682 166.2 120.754ZM159.928 120.226H174.104V121.378H159.928V120.226ZM175.928 126.21H190.088V127.298H175.928V126.21ZM183.048 129.074H189.032V130.13H183.048V129.074ZM182.52 126.69H183.736V132.754H182.52V126.69ZM179.384 129.298C180.36 131.922 182.472 132.418 185.608 132.434C186.216 132.434 189.56 132.434 190.392 132.418C190.216 132.69 190.024 133.218 189.96 133.57H185.56C181.816 133.57 179.64 132.898 178.392 129.666L179.384 129.298ZM178.696 127.81L179.896 127.986C179.384 130.642 178.232 132.626 176.472 133.906C176.296 133.682 175.832 133.25 175.56 133.058C177.256 131.954 178.28 130.162 178.696 127.81ZM178.776 122.898V124.21H187.112V122.898H178.776ZM178.776 120.738V122.034H187.112V120.738H178.776ZM177.608 119.826H188.328V125.122H177.608V119.826ZM191.704 125.698H206.344V127.01H191.704V125.698ZM289.512 134.306L289.144 133.474C290.456 132.93 291.176 132.114 291.176 130.914L290.872 129.554L291.736 130.77C291.512 131.058 291.192 131.138 290.888 131.138C290.232 131.138 289.688 130.754 289.688 129.986C289.688 129.234 290.264 128.834 290.904 128.834C291.8 128.834 292.28 129.57 292.28 130.69C292.28 132.418 291.192 133.73 289.512 134.306ZM26.936 139.658H28.184V151.162C28.184 152.026 27.976 152.442 27.352 152.634C26.712 152.842 25.592 152.858 24.008 152.858C23.928 152.506 23.688 151.914 23.496 151.562C24.792 151.626 26.088 151.61 26.472 151.594C26.824 151.578 26.936 151.466 26.936 151.13V139.658ZM17.528 142.858H18.696V150.106H17.528V142.858ZM18.024 142.858H24.088V148.826H18.024V147.674H22.888V143.994H18.024V142.858ZM15.88 139.29H30.152V140.506H15.88V139.29ZM36.824 140.682L37.896 140.154C38.968 141.322 39.992 142.906 40.456 143.994L39.304 144.618C38.888 143.514 37.848 141.866 36.824 140.682ZM31.56 149.898C33.192 149.258 35.752 148.17 38.152 147.114L38.424 148.282C36.2 149.306 33.768 150.378 31.992 151.146L31.56 149.898ZM41.16 147.786L42.088 147.002C43.608 148.506 45.592 150.586 46.536 151.898L45.512 152.842C44.616 151.514 42.696 149.354 41.16 147.786ZM43.384 138.986L44.68 139.114C43.864 146.506 41.992 150.586 36.392 152.922C36.216 152.666 35.736 152.138 35.432 151.882C40.968 149.866 42.664 145.946 43.384 138.986ZM33.512 139.034L34.744 138.986L35.016 149.562L33.784 149.61L33.512 139.034ZM48.04 139.434H55.528V140.41H48.04V139.434ZM47.784 143.77H55.624V144.73H47.784V143.77ZM48.392 141.578H55.208V142.522H48.392V141.578ZM56.344 138.826H60.968V139.866H57.496V146.762H56.344V138.826ZM60.728 138.826H60.968L61.16 138.778L61.992 139.29C61.4 140.122 60.68 141.098 60.024 141.898C61.384 142.746 61.848 143.514 61.864 144.234C61.88 144.922 61.592 145.37 61.08 145.658C60.808 145.802 60.424 145.882 60.12 145.93C59.56 145.978 58.872 145.978 58.248 145.93C58.232 145.626 58.072 145.194 57.864 144.906C58.552 144.986 59.144 144.986 59.608 144.954C59.832 144.938 60.088 144.89 60.264 144.826C60.552 144.714 60.68 144.49 60.68 144.138C60.664 143.562 60.152 142.858 58.728 142.058C59.48 141.066 60.264 139.866 60.728 139.05V138.826ZM51.368 138.154H52.584V142.906C52.584 144.186 51.832 146.346 48.936 147.482C48.744 147.242 48.376 146.842 48.104 146.618C50.712 145.738 51.368 143.93 51.368 142.89V138.154ZM54.328 146.154H55.576V152.858H54.328V146.154ZM49.4 147.418H60.136V148.506H50.6V152.01H49.4V147.418ZM59.624 147.418H60.84V150.698C60.84 151.306 60.696 151.626 60.184 151.802C59.672 151.978 58.824 151.978 57.48 151.978C57.4 151.658 57.224 151.242 57.064 150.938C58.072 150.97 59.016 150.97 59.288 150.954C59.56 150.938 59.624 150.874 59.624 150.682V147.418ZM70.456 141.786H77.224V142.922H70.456V141.786ZM76.712 141.786H77.864C77.864 141.786 77.848 142.234 77.848 142.394C77.688 149.162 77.544 151.45 77.016 152.138C76.696 152.57 76.36 152.698 75.848 152.746C75.352 152.794 74.488 152.778 73.64 152.746C73.608 152.394 73.48 151.898 73.272 151.594C74.2 151.658 75.032 151.658 75.368 151.658C75.64 151.674 75.816 151.626 75.96 151.418C76.392 150.922 76.568 148.586 76.712 142.042V141.786ZM73.112 138.17H74.28C74.264 144.298 74.248 149.994 69.8 152.906C69.624 152.618 69.224 152.218 68.92 152.026C73.192 149.37 73.096 143.994 73.112 138.17ZM64.696 138.938H69.912V149.354H68.792V140.042H65.768V150.378H64.696V138.938ZM63.544 150.09C65.32 149.738 68.136 149.146 70.792 148.554L70.904 149.642C68.36 150.25 65.672 150.874 63.752 151.306L63.544 150.09ZM65.256 142.378H69.32V143.466H65.256V142.378ZM65.256 145.802H69.32V146.874H65.256V145.802ZM86.488 138.17L87.592 138.442C86.968 140.154 85.928 141.786 84.808 142.874C84.632 142.666 84.184 142.282 83.912 142.106C85 141.162 85.944 139.706 86.488 138.17ZM86.424 142.202L87.544 142.49C87.048 143.754 86.216 145.002 85.416 145.834C85.192 145.658 84.712 145.354 84.44 145.21C85.272 144.442 85.992 143.322 86.424 142.202ZM86.328 139.738H93.272V140.794H85.912L86.328 139.738ZM88.68 140.458H89.832V146.026C89.832 146.634 89.72 146.954 89.272 147.13C88.856 147.306 88.2 147.322 87.192 147.322C87.128 147.002 86.968 146.554 86.792 146.25C87.544 146.282 88.216 146.282 88.424 146.266C88.632 146.25 88.68 146.202 88.68 146.026V140.458ZM90.712 142.554L91.704 142.122C92.488 143.162 93.272 144.57 93.608 145.498L92.568 145.994C92.248 145.05 91.464 143.594 90.712 142.554ZM92.936 139.738H93.128L93.32 139.706L94.152 139.914C93.752 140.922 93.256 142.09 92.872 142.794L91.832 142.586C92.2 141.914 92.632 140.81 92.936 139.914V139.738ZM83.784 148.106H84.968V151.002C84.968 151.434 85.128 151.514 85.976 151.514C86.376 151.514 88.376 151.514 88.904 151.514C89.608 151.514 89.72 151.306 89.8 149.722C90.056 149.93 90.536 150.106 90.872 150.186C90.728 152.122 90.36 152.602 88.984 152.602C88.616 152.602 86.232 152.602 85.88 152.602C84.216 152.602 83.784 152.266 83.784 151.002V148.106ZM85.16 147.626L85.96 146.906C86.984 147.402 88.216 148.218 88.792 148.858L87.928 149.642C87.384 149.002 86.2 148.138 85.16 147.626ZM90.424 148.602L91.416 148.042C92.6 149.05 93.848 150.49 94.344 151.578L93.272 152.186C92.808 151.13 91.624 149.626 90.424 148.602ZM81.832 148.298L82.904 148.65C82.504 150.09 81.88 151.514 80.616 152.362L79.624 151.674C80.808 150.922 81.496 149.642 81.832 148.298ZM83.368 138.154L84.44 138.522C83.4 140.506 81.784 142.474 80.232 143.738C80.088 143.498 79.688 143.018 79.448 142.81C80.952 141.674 82.456 139.914 83.368 138.154ZM81.896 141.162L83.032 140.026L83.048 140.042V147.306H81.896V141.162ZM102.36 139.29H103.544V144.266H102.36V139.29ZM95.816 147.29H110.2V148.378H95.816V147.29ZM99.528 145.258H100.712V147.226C100.712 149.242 100.216 151.466 96.328 152.858C96.168 152.586 95.816 152.138 95.56 151.914C99.128 150.682 99.528 148.826 99.528 147.194V145.258ZM105.24 145.258H106.456V152.89H105.24V145.258ZM96.616 138.922H109.272V139.962H96.616V138.922ZM97.224 141.37H108.744V142.346H97.224V141.37ZM95.96 143.802H110.008V144.858H95.96V143.802ZM118.168 147.034H124.36V147.882H118.168V147.034ZM116.472 139.178H125.848V140.106H116.472V139.178ZM116.872 141.114H125.464V141.978H116.872V141.114ZM115.944 143.082H126.376V144.01H115.944V143.082ZM118.168 149.098H124.408V149.978H118.168V149.098ZM117.416 144.922H124.472V145.866H118.536V152.858H117.416V144.922ZM123.992 144.922H125.128V151.53C125.128 152.154 125.016 152.474 124.568 152.634C124.104 152.81 123.384 152.81 122.264 152.81C122.216 152.522 122.056 152.074 121.896 151.786C122.712 151.802 123.48 151.802 123.688 151.786C123.912 151.786 123.992 151.722 123.992 151.514V144.922ZM120.472 138.154H121.656V143.642H120.472V138.154ZM112.392 139.162L113.064 138.298C114.072 138.73 115.32 139.45 115.944 140.01L115.256 140.986C114.648 140.41 113.416 139.642 112.392 139.162ZM111.592 143.514L112.248 142.618C113.272 143.002 114.568 143.69 115.208 144.218L114.52 145.21C113.896 144.666 112.632 143.946 111.592 143.514ZM112.072 151.882C112.888 150.65 114.056 148.522 114.92 146.698L115.832 147.434C115.048 149.13 113.992 151.162 113.112 152.65L112.072 151.882ZM128.232 145.194H140.936V146.266H128.232V145.194ZM135 148.234H140.072V149.29H135V148.234ZM140.648 145.194H140.856L141.048 145.146L141.896 145.37C141.512 146.314 141.016 147.37 140.584 148.042L139.528 147.77C139.912 147.162 140.376 146.186 140.648 145.354V145.194ZM131.496 148.314C132.312 151.066 134.168 151.594 137.24 151.61C137.848 151.61 141.56 151.61 142.392 151.594C142.216 151.866 142.024 152.378 141.96 152.714H137.208C133.496 152.714 131.576 152.01 130.488 148.666L131.496 148.314ZM130.648 147.034H131.928C131.624 149.354 130.92 151.658 128.44 152.954C128.28 152.666 127.912 152.218 127.64 151.994C129.832 150.922 130.392 148.874 130.648 147.034ZM134.36 145.61H135.544V152.138L134.36 151.818V145.61ZM127.912 139.642H134.696V140.65H127.912V139.642ZM130.84 138.17H131.944V144.618H130.84V138.17ZM135.048 139.642H142.168V140.65H135.048V139.642ZM137.864 138.17H138.984V144.586H137.864V138.17ZM139.16 140.106C139.88 141.354 141.272 142.698 142.536 143.354C142.264 143.562 141.912 143.946 141.72 144.234C140.488 143.418 139.096 141.866 138.344 140.426L139.16 140.106ZM131.896 140.922C132.376 141.194 134.072 142.266 134.456 142.538L133.816 143.53C133.352 143.034 131.928 141.898 131.352 141.482L131.896 140.922ZM130.744 140.106L131.544 140.426C130.824 141.866 129.512 143.402 128.328 144.218C128.152 143.946 127.8 143.562 127.544 143.37C128.744 142.714 130.056 141.37 130.744 140.106ZM137.816 140.106L138.616 140.426C137.896 141.882 136.552 143.402 135.32 144.218C135.144 143.946 134.776 143.546 134.536 143.338C135.768 142.698 137.112 141.37 137.816 140.106ZM145.144 138.81H156.84V139.77H145.144V138.81ZM144.024 145.898H158.008V146.874H144.024V145.898ZM146.088 142.458H149.544V143.274H146.088V142.458ZM145.752 144.138H149.544V144.954H145.752V144.138ZM152.36 144.138H156.28V144.954H152.36V144.138ZM152.36 142.458H155.896V143.274H152.36V142.458ZM150.36 139.178H151.528V145.37H150.36V139.178ZM148.776 148.65H149.896V152.762H148.776V148.65ZM152.328 148.65H153.432V152.762H152.328V148.65ZM144.216 140.698H157.8V143.77H156.664V141.578H145.304V143.77H144.216V140.698ZM145.272 148.026H156.248V149.018H146.408V152.858H145.272V148.026ZM155.944 148.026H157.096V151.69C157.096 152.234 157.016 152.522 156.6 152.698C156.2 152.89 155.608 152.874 154.728 152.874C154.68 152.586 154.504 152.17 154.36 151.882C155 151.898 155.544 151.898 155.72 151.882C155.896 151.866 155.944 151.818 155.944 151.674V148.026ZM150.376 146.266L151.688 146.314C151.4 147.178 151.064 148.058 150.792 148.65L149.736 148.538C149.976 147.882 150.264 146.922 150.376 146.266ZM159.72 146.906H174.28V147.914H159.72V146.906ZM160.104 138.858H173.88V139.914H160.104V138.858ZM165.272 145.226L166.44 145.546C165.4 147.21 163.928 149.306 162.904 150.618L161.768 150.234C162.792 148.938 164.28 146.794 165.272 145.226ZM170.072 147.258L171.224 147.594C169.816 151.114 166.408 152.426 160.408 152.874C160.328 152.522 160.136 152.09 159.944 151.818C165.656 151.514 168.792 150.378 170.072 147.258ZM162.632 150.074L163.24 149.194C167.192 149.898 171.304 150.97 173.784 151.946L173.064 152.922C170.616 151.914 166.696 150.826 162.632 150.074ZM164.472 139.258H165.608V144.842H164.472V139.258ZM168.2 139.258H169.336V144.842H168.2V139.258ZM162.024 142.266V144.442H172.008V142.266H162.024ZM160.904 141.29H173.208V145.434H160.904V141.29ZM181.576 138.346H182.728V145.962H181.576V138.346ZM179.352 141.274H184.824V142.378H179.352V141.274ZM179.784 145.434H180.84V152.154H179.784V145.434ZM180.408 145.434H184.504V151.114H180.408V150.058H183.432V146.474H180.408V145.434ZM186.136 138.17L187.224 138.346C186.76 141.226 185.992 144.026 184.776 145.85C184.648 145.626 184.248 145.146 184.04 144.922C185.112 143.274 185.768 140.746 186.136 138.17ZM186.072 141.274H190.36V142.314H185.768L186.072 141.274ZM188.6 141.69L189.672 141.77C189.128 147.21 187.816 150.714 184.392 152.906C184.248 152.698 183.848 152.266 183.624 152.074C186.968 150.138 188.152 146.762 188.6 141.69ZM186.168 141.994C186.52 145.514 187.352 149.914 190.52 151.93C190.312 152.154 189.944 152.586 189.784 152.874C186.536 150.586 185.672 146.058 185.32 142.522L186.168 141.994ZM178.712 138.25L179.832 138.554C178.92 141.306 177.496 144.106 175.912 145.962C175.8 145.69 175.48 145.05 175.272 144.746C176.68 143.146 177.944 140.698 178.712 138.25ZM177.432 142.17L178.504 141.082L178.536 141.114V152.874H177.432V142.17ZM195.64 138.218L196.776 138.57C195.688 141.322 194.024 144.074 192.264 145.882C192.136 145.61 191.784 144.986 191.576 144.714C193.192 143.13 194.712 140.698 195.64 138.218ZM194.008 142.346L195.16 141.178L195.176 141.194V152.858H194.008V142.346ZM196.216 143.69H206.28V144.874H196.216V143.69ZM200.712 138.33H201.944V152.874H200.712V138.33ZM215.96 142.154L217.288 142.698C215.656 145.626 213.288 149.258 211.432 151.546L210.408 151.034C212.248 148.698 214.6 144.97 215.96 142.154ZM208.76 150.826C211.672 150.698 216.312 150.41 220.6 150.122L220.584 151.274C216.392 151.594 211.912 151.914 208.952 152.09L208.76 150.826ZM216.744 147.226L217.832 146.602C219.512 148.25 221.272 150.49 222.056 152.026L220.904 152.778C220.136 151.226 218.376 148.858 216.744 147.226ZM213.88 138.266L215.144 138.73C213.592 141.242 211.176 144.01 208.712 145.818C208.488 145.546 208.056 145.13 207.768 144.906C210.168 143.242 212.616 140.538 213.88 138.266ZM22.488 176.17L23.592 176.442C22.968 178.154 21.928 179.786 20.808 180.874C20.632 180.666 20.184 180.282 19.912 180.106C21 179.162 21.944 177.706 22.488 176.17ZM22.424 180.202L23.544 180.49C23.048 181.754 22.216 183.002 21.416 183.834C21.192 183.658 20.712 183.354 20.44 183.21C21.272 182.442 21.992 181.322 22.424 180.202ZM22.328 177.738H29.272V178.794H21.912L22.328 177.738ZM24.68 178.458H25.832V184.026C25.832 184.634 25.72 184.954 25.272 185.13C24.856 185.306 24.2 185.322 23.192 185.322C23.128 185.002 22.968 184.554 22.792 184.25C23.544 184.282 24.216 184.282 24.424 184.266C24.632 184.25 24.68 184.202 24.68 184.026V178.458ZM26.712 180.554L27.704 180.122C28.488 181.162 29.272 182.57 29.608 183.498L28.568 183.994C28.248 183.05 27.464 181.594 26.712 180.554ZM28.936 177.738H29.128L29.32 177.706L30.152 177.914C29.752 178.922 29.256 180.09 28.872 180.794L27.832 180.586C28.2 179.914 28.632 178.81 28.936 177.914V177.738ZM19.784 186.106H20.968V189.002C20.968 189.434 21.128 189.514 21.976 189.514C22.376 189.514 24.376 189.514 24.904 189.514C25.608 189.514 25.72 189.306 25.8 187.722C26.056 187.93 26.536 188.106 26.872 188.186C26.728 190.122 26.36 190.602 24.984 190.602C24.616 190.602 22.232 190.602 21.88 190.602C20.216 190.602 19.784 190.266 19.784 189.002V186.106ZM21.16 185.626L21.96 184.906C22.984 185.402 24.216 186.218 24.792 186.858L23.928 187.642C23.384 187.002 22.2 186.138 21.16 185.626ZM26.424 186.602L27.416 186.042C28.6 187.05 29.848 188.49 30.344 189.578L29.272 190.186C28.808 189.13 27.624 187.626 26.424 186.602ZM17.832 186.298L18.904 186.65C18.504 188.09 17.88 189.514 16.616 190.362L15.624 189.674C16.808 188.922 17.496 187.642 17.832 186.298ZM19.368 176.154L20.44 176.522C19.4 178.506 17.784 180.474 16.232 181.738C16.088 181.498 15.688 181.018 15.448 180.81C16.952 179.674 18.456 177.914 19.368 176.154ZM17.896 179.162L19.032 178.026L19.048 178.042V185.306H17.896V179.162ZM42.936 177.658H44.184V189.162C44.184 190.026 43.976 190.442 43.352 190.634C42.712 190.842 41.592 190.858 40.008 190.858C39.928 190.506 39.688 189.914 39.496 189.562C40.792 189.626 42.088 189.61 42.472 189.594C42.824 189.578 42.936 189.466 42.936 189.13V177.658ZM33.528 180.858H34.696V188.106H33.528V180.858ZM34.024 180.858H40.088V186.826H34.024V185.674H38.888V181.994H34.024V180.858ZM31.88 177.29H46.152V178.506H31.88V177.29ZM52.824 178.682L53.896 178.154C54.968 179.322 55.992 180.906 56.456 181.994L55.304 182.618C54.888 181.514 53.848 179.866 52.824 178.682ZM47.56 187.898C49.192 187.258 51.752 186.17 54.152 185.114L54.424 186.282C52.2 187.306 49.768 188.378 47.992 189.146L47.56 187.898ZM57.16 185.786L58.088 185.002C59.608 186.506 61.592 188.586 62.536 189.898L61.512 190.842C60.616 189.514 58.696 187.354 57.16 185.786ZM59.384 176.986L60.68 177.114C59.864 184.506 57.992 188.586 52.392 190.922C52.216 190.666 51.736 190.138 51.432 189.882C56.968 187.866 58.664 183.946 59.384 176.986ZM49.512 177.034L50.744 176.986L51.016 187.562L49.784 187.61L49.512 177.034ZM68.12 177.93H78.392V179.05H68.12V177.93ZM69.704 181.626V184.026H76.696V181.626H69.704ZM68.6 180.602H77.864V185.05H68.6V180.602ZM69.592 185.37C71.096 187.882 74.376 189.37 78.536 189.834C78.28 190.09 77.976 190.57 77.816 190.906C73.576 190.298 70.296 188.634 68.6 185.706L69.592 185.37ZM72.568 176.218H73.752V183.306C73.752 186.394 73.224 189.466 68.264 190.938C68.12 190.666 67.784 190.186 67.544 189.93C72.296 188.73 72.568 185.994 72.568 183.29V176.218ZM67.432 176.122L68.568 176.474C67.48 179.178 65.768 181.866 63.992 183.642C63.88 183.37 63.544 182.746 63.32 182.458C64.936 180.938 66.504 178.554 67.432 176.122ZM65.752 180.314L66.888 179.178L66.904 179.194V190.954H65.752V180.314ZM82.12 177.29H92.472V178.442H82.12V177.29ZM82.12 181.018H92.456V182.154H82.12V181.018ZM82.04 184.842H92.488V185.978H82.04V184.842ZM81.448 177.29H82.632V183.098C82.632 185.53 82.344 188.842 80.44 190.97C80.248 190.73 79.768 190.33 79.512 190.17C81.272 188.186 81.448 185.338 81.448 183.082V177.29ZM91.992 177.29H93.176V189.242C93.176 190.026 92.984 190.394 92.456 190.602C91.912 190.794 90.984 190.81 89.464 190.794C89.416 190.474 89.224 189.946 89.048 189.626C90.184 189.674 91.272 189.658 91.576 189.658C91.88 189.642 91.992 189.546 91.992 189.242V177.29ZM86.472 177.722H87.688V190.73H86.472V177.722ZM108.808 176.554L109.704 177.562C107.368 178.362 103.784 178.954 100.744 179.322C100.696 179.034 100.52 178.586 100.392 178.298C103.368 177.914 106.84 177.274 108.808 176.554ZM99.848 183.018H110.36V184.17H99.848V183.018ZM100.472 189.114H110.104V190.266H100.472V189.114ZM104.616 178.33H105.816V189.434H104.616V178.33ZM97.96 180.41L99.144 179.226L99.16 179.258V190.874H97.96V180.41ZM99.704 176.17L100.872 176.538C99.736 179.322 97.944 182.09 96.072 183.914C95.944 183.626 95.576 183.002 95.336 182.698C97.064 181.13 98.712 178.682 99.704 176.17ZM113.016 185.098H124.12V186.154H113.016V185.098ZM123.72 185.098H124.92C124.92 185.098 124.888 185.45 124.856 185.626C124.488 188.538 124.136 189.77 123.576 190.266C123.24 190.586 122.872 190.666 122.28 190.698C121.8 190.714 120.84 190.714 119.88 190.65C119.864 190.33 119.704 189.882 119.496 189.578C120.504 189.674 121.544 189.69 121.944 189.69C122.28 189.69 122.472 189.674 122.648 189.546C123.064 189.194 123.416 187.978 123.704 185.258L123.72 185.098ZM118.12 183.498L119.368 183.61C118.728 187.946 116.616 189.866 112.568 190.858C112.44 190.586 112.12 190.074 111.896 189.834C115.768 189.098 117.672 187.37 118.12 183.498ZM116.136 177.802H123.896V178.842H116.136V177.802ZM123.608 177.802H123.848L124.056 177.754L124.792 178.25C122.472 181.706 117.144 183.306 112.2 183.882C112.12 183.578 111.912 183.098 111.72 182.826C116.472 182.378 121.672 180.874 123.608 177.962V177.802ZM116.12 179.018C117.864 181.274 121.736 182.346 126.36 182.618C126.12 182.89 125.832 183.354 125.688 183.69C121.016 183.306 117.144 182.074 115.128 179.434L116.12 179.018ZM117.112 176.138L118.36 176.378C117.288 178.122 115.624 179.882 113.192 181.242C113.032 180.954 112.68 180.522 112.44 180.346C114.696 179.178 116.28 177.546 117.112 176.138ZM128.072 179.05H141.88V180.218H128.072V179.05ZM132.36 183.29H141.464V184.442H132.36V183.29ZM130.712 189.258H142.168V190.41H130.712V189.258ZM135.96 183.802H137.176V189.914H135.96V183.802ZM132.904 176.17L134.152 176.33C133.288 181.306 131.816 186.634 128.248 189.914C128.072 189.642 127.688 189.21 127.448 188.97C130.792 185.962 132.2 180.794 132.904 176.17ZM146.216 176.17L147.272 176.442C146.536 179.146 145.384 181.978 144.04 183.834C143.944 183.594 143.624 183.002 143.432 182.714C144.616 181.082 145.608 178.618 146.216 176.17ZM145.224 180.186L146.2 179.226L146.232 179.242V190.826H145.224V180.186ZM150.664 188.01L151.4 187.53C152.152 188.346 153.08 189.45 153.48 190.138L152.728 190.73C152.312 189.994 151.416 188.842 150.664 188.01ZM147.672 177.178H153.128V187.13H152.104V178.09H148.648V187.178H147.672V177.178ZM156.728 176.298H157.752V189.482C157.752 190.122 157.608 190.442 157.208 190.618C156.824 190.794 156.184 190.826 155.112 190.826C155.08 190.554 154.92 190.09 154.776 189.786C155.56 189.802 156.232 189.802 156.44 189.802C156.648 189.786 156.728 189.722 156.728 189.482V176.298ZM154.392 177.69H155.352V187.274H154.392V177.69ZM149.912 179.178H150.84V184.618C150.84 186.778 150.44 189.322 147.816 190.89C147.688 190.682 147.368 190.314 147.176 190.17C149.624 188.698 149.912 186.554 149.912 184.618V179.178ZM164.68 183.274H169.064V184.266H164.68V183.274ZM164.68 186.058H169.112V187.05H164.68V186.058ZM161.384 188.922H172.68V190.042H161.384V188.922ZM160.648 180.378H173.336V190.89H172.12V181.498H161.816V190.89H160.648V180.378ZM164.12 181.082H165.208V189.434H164.12V181.082ZM168.6 181.082H169.704V189.386H168.6V181.082ZM166.2 177.754L167.592 178.074C167.256 179.146 166.92 180.378 166.6 181.178L165.512 180.874C165.768 180.01 166.088 178.682 166.2 177.754ZM159.928 177.226H174.104V178.378H159.928V177.226ZM182.856 177.13H190.12V178.266H182.856V177.13ZM182.904 181.274H189.048V182.378H182.904V181.274ZM182.28 177.13H183.432V181.642C183.432 184.346 183.144 188.25 181.208 190.842C181.016 190.618 180.52 190.25 180.248 190.122C182.088 187.658 182.28 184.186 182.28 181.626V177.13ZM184.488 182.01C185.448 185.642 187.432 188.65 190.536 189.914C190.264 190.154 189.896 190.602 189.72 190.906C186.52 189.418 184.536 186.25 183.48 182.25L184.488 182.01ZM188.792 181.274H189L189.208 181.226L189.944 181.466C189.032 186.346 186.488 189.37 183.384 190.858C183.224 190.586 182.904 190.138 182.648 189.914C185.512 188.698 187.976 185.706 188.792 181.498V181.274ZM175.816 179.594H181.448V180.73H175.816V179.594ZM178.232 176.154H179.368V190.858H178.232V176.154ZM178.168 180.298L178.936 180.57C178.408 183.13 177.256 186.266 176.056 187.882C175.928 187.562 175.64 187.082 175.432 186.81C176.568 185.37 177.688 182.602 178.168 180.298ZM179.288 182.026C179.704 182.474 181.24 184.426 181.56 184.906L180.824 185.85C180.424 185.05 179.176 183.226 178.696 182.586L179.288 182.026ZM198.52 181.338H205.096V182.538H198.52V181.338ZM191.816 188.922H206.184V190.122H191.816V188.922ZM197.832 176.394H199.096V189.562H197.832V176.394ZM209.096 178.73H213.96V189.194H209.096V188.106H212.84V179.802H209.096V178.73ZM208.376 178.73H209.496V190.474H208.376V178.73ZM209.016 183.178H213.432V184.25H209.016V183.178ZM210.824 176.122L212.12 176.362C211.8 177.354 211.4 178.458 211.08 179.178L210.12 178.938C210.392 178.17 210.696 176.954 210.824 176.122ZM216.232 178.682H221.144V179.802H216.232V178.682ZM220.728 178.682H221.848C221.848 178.682 221.848 179.13 221.848 179.306C221.592 186.65 221.368 189.13 220.728 189.914C220.376 190.378 220.008 190.522 219.448 190.57C218.904 190.634 217.96 190.602 217.064 190.554C217.032 190.202 216.888 189.706 216.664 189.386C217.704 189.466 218.664 189.482 219.032 189.482C219.352 189.482 219.544 189.434 219.72 189.226C220.248 188.65 220.504 185.994 220.728 178.938V178.682ZM216.568 176.09L217.72 176.362C217.128 178.746 216.184 181.098 215.08 182.618C214.872 182.426 214.376 182.09 214.088 181.93C215.176 180.522 216.056 178.314 216.568 176.09ZM215.832 182.842L216.76 182.298C217.672 183.434 218.776 184.986 219.288 185.93L218.264 186.57C217.784 185.594 216.712 184.01 215.832 182.842ZM228.536 176.122L229.704 176.458C228.952 178.298 227.736 180.058 226.44 181.194C226.248 180.97 225.8 180.538 225.512 180.346C226.776 179.354 227.896 177.786 228.536 176.122ZM228.52 177.754H235.4V178.794H227.976L228.52 177.754ZM228.664 182.522V183.626H233.448V182.522H228.664ZM228.664 180.618V181.706H233.448V180.618H228.664ZM227.56 179.77H234.6V184.474H227.56V179.77ZM229.576 184.122L230.664 184.458C229.704 186.074 228.04 187.466 226.456 188.346C226.28 188.122 225.864 187.706 225.592 187.514C227.208 186.746 228.744 185.53 229.576 184.122ZM228.968 186.138C230.264 187.994 233.096 189.402 236.264 189.866C236.008 190.106 235.688 190.602 235.528 190.906C232.296 190.298 229.512 188.682 228.072 186.474L228.968 186.138ZM229.192 185.386H233.912V186.282H228.616L229.192 185.386ZM233.528 185.386H233.768L233.976 185.338L234.728 185.706C233.24 188.714 229.816 190.266 226.328 190.954C226.216 190.65 225.96 190.234 225.768 189.994C229.016 189.466 232.296 188.026 233.528 185.562V185.386ZM244.12 181.77H254.2V182.826H244.12V181.77ZM245.976 178.378H253.528V179.418H245.976V178.378ZM248.648 176.218H249.848V182.234H248.648V176.218ZM246.136 176.65L247.272 176.89C246.824 178.474 246.056 180.042 245.224 181.05C245 180.874 244.504 180.554 244.216 180.426C245.08 179.482 245.736 178.074 246.136 176.65ZM249.848 182.314H251.032V186.538C251.032 186.938 251.096 186.986 251.496 186.986C251.656 186.986 252.552 186.986 252.776 186.986C253.16 186.986 253.24 186.778 253.272 185.098C253.512 185.306 254.008 185.482 254.344 185.578C254.216 187.61 253.912 188.122 252.904 188.122C252.648 188.122 251.56 188.122 251.336 188.122C250.136 188.122 249.848 187.754 249.848 186.554V182.314ZM247.048 182.346H248.248C247.992 185.13 247.288 187.146 244.424 188.266C244.28 187.962 243.944 187.53 243.688 187.306C246.28 186.394 246.84 184.682 247.048 182.346ZM239.96 177.354L240.872 176.698C241.832 177.45 242.92 178.538 243.432 179.306L242.456 180.042C241.976 179.258 240.904 178.138 239.96 177.354ZM243.016 182.298V188.474H241.848V183.418H239.88V182.298H243.016ZM242.904 187.978C243.4 187.978 243.768 188.394 244.568 188.874C245.576 189.466 246.92 189.562 248.616 189.562C250.44 189.562 252.872 189.45 254.456 189.274C254.312 189.594 254.12 190.186 254.104 190.522C252.856 190.602 250.152 190.698 248.6 190.698C246.728 190.698 245.4 190.522 244.36 189.914C243.72 189.53 243.24 189.066 242.888 189.066C242.28 189.066 241.416 189.882 240.52 190.874L239.72 189.85C240.824 188.81 242.008 187.978 242.904 187.978ZM262.44 177.386H269.432V178.506H262.44V177.386ZM261.752 181.21H270.28V182.33H261.752V181.21ZM265.16 181.754H266.376V189.338C266.376 190.026 266.248 190.378 265.784 190.586C265.304 190.794 264.568 190.81 263.448 190.81C263.4 190.458 263.24 189.946 263.08 189.578C263.896 189.61 264.648 189.61 264.872 189.594C265.096 189.578 265.16 189.53 265.16 189.322V181.754ZM267.464 184.41L268.488 184.09C269.256 185.642 270.04 187.674 270.312 188.938L269.208 189.338C268.952 188.074 268.216 185.994 267.464 184.41ZM262.856 184.122L263.944 184.378C263.464 186.218 262.648 188.09 261.784 189.322C261.576 189.146 261.08 188.826 260.824 188.682C261.704 187.546 262.424 185.818 262.856 184.122ZM255.784 179.546H261.512V180.682H255.784V179.546ZM258.232 176.154H259.416V190.858H258.232V176.154ZM258.072 180.218L258.888 180.474C258.36 182.842 257.24 185.786 256.04 187.29C255.912 186.97 255.592 186.458 255.368 186.17C256.488 184.858 257.592 182.298 258.072 180.218ZM259.336 181.018C259.72 181.434 261.256 183.386 261.592 183.834L260.872 184.794C260.472 184.026 259.208 182.154 258.728 181.562L259.336 181.018ZM272.984 177.29L273.8 176.554C274.68 177.306 275.8 178.346 276.344 179.018L275.48 179.882C274.968 179.178 273.864 178.074 272.984 177.29ZM274.184 190.554L273.976 189.418L274.312 188.906L277.144 186.986C277.224 187.306 277.4 187.786 277.512 188.026C274.84 189.93 274.424 190.25 274.184 190.554ZM271.736 181.194H275.128V182.346H271.736V181.194ZM274.184 190.57C274.056 190.314 273.72 189.866 273.512 189.674C273.8 189.45 274.28 188.906 274.28 188.122V181.194H275.48V189.002C275.48 189.002 274.184 190.09 274.184 190.57ZM278.52 182.538H284.712V183.69H278.52V182.538ZM278.008 182.538H279.224V188.698C279.224 189.338 279.416 189.482 280.44 189.482C280.936 189.482 283.352 189.482 283.976 189.482C284.968 189.482 285.128 189.082 285.224 186.81C285.512 187.034 286.04 187.226 286.392 187.306C286.2 189.914 285.8 190.65 284.056 190.65C283.64 190.65 280.76 190.65 280.376 190.65C278.568 190.65 278.008 190.25 278.008 188.698V182.538ZM277.704 177.29H285.256V184.506H284.056V178.474H277.704V177.29ZM294.44 177.386H301.432V178.506H294.44V177.386ZM293.752 181.21H302.28V182.33H293.752V181.21ZM297.16 181.754H298.376V189.338C298.376 190.026 298.248 190.378 297.784 190.586C297.304 190.794 296.568 190.81 295.448 190.81C295.4 190.458 295.24 189.946 295.08 189.578C295.896 189.61 296.648 189.61 296.872 189.594C297.096 189.578 297.16 189.53 297.16 189.322V181.754ZM299.464 184.41L300.488 184.09C301.256 185.642 302.04 187.674 302.312 188.938L301.208 189.338C300.952 188.074 300.216 185.994 299.464 184.41ZM294.856 184.122L295.944 184.378C295.464 186.218 294.648 188.09 293.784 189.322C293.576 189.146 293.08 188.826 292.824 188.682C293.704 187.546 294.424 185.818 294.856 184.122ZM287.784 179.546H293.512V180.682H287.784V179.546ZM290.232 176.154H291.416V190.858H290.232V176.154ZM290.072 180.218L290.888 180.474C290.36 182.842 289.24 185.786 288.04 187.29C287.912 186.97 287.592 186.458 287.368 186.17C288.488 184.858 289.592 182.298 290.072 180.218ZM291.336 181.018C291.72 181.434 293.256 183.386 293.592 183.834L292.872 184.794C292.472 184.026 291.208 182.154 290.728 181.562L291.336 181.018ZM16.984 196.29L17.8 195.554C18.68 196.306 19.8 197.346 20.344 198.018L19.48 198.882C18.968 198.178 17.864 197.074 16.984 196.29ZM18.184 209.554L17.976 208.418L18.312 207.906L21.144 205.986C21.224 206.306 21.4 206.786 21.512 207.026C18.84 208.93 18.424 209.25 18.184 209.554ZM15.736 200.194H19.128V201.346H15.736V200.194ZM18.184 209.57C18.056 209.314 17.72 208.866 17.512 208.674C17.8 208.45 18.28 207.906 18.28 207.122V200.194H19.48V208.002C19.48 208.002 18.184 209.09 18.184 209.57ZM22.52 201.538H28.712V202.69H22.52V201.538ZM22.008 201.538H23.224V207.698C23.224 208.338 23.416 208.482 24.44 208.482C24.936 208.482 27.352 208.482 27.976 208.482C28.968 208.482 29.128 208.082 29.224 205.81C29.512 206.034 30.04 206.226 30.392 206.306C30.2 208.914 29.8 209.65 28.056 209.65C27.64 209.65 24.76 209.65 24.376 209.65C22.568 209.65 22.008 209.25 22.008 207.698V201.538ZM21.704 196.29H29.256V203.506H28.056V197.474H21.704V196.29ZM33.32 198.93H34.552V206.994C34.552 208.002 34.904 208.242 36.664 208.242C37.512 208.242 41.688 208.242 42.76 208.242C44.52 208.242 44.792 207.698 45 205.106C45.336 205.33 45.864 205.538 46.232 205.602C45.912 208.562 45.4 209.426 42.76 209.426C42.104 209.426 37.336 209.426 36.744 209.426C34.136 209.426 33.32 208.962 33.32 206.962V198.93ZM33.992 201.554H43.432V202.754H33.992V201.554ZM32.488 196.162H44.184V203.538H42.952V197.346H32.488V196.162ZM50.632 199.81H59.336V200.898H50.632V199.81ZM47.896 202.754H62.088V203.89H47.896V202.754ZM52.104 203.538H53.384C53.048 206.658 52.152 208.818 48.248 209.906C48.12 209.602 47.8 209.122 47.544 208.882C51.144 207.986 51.832 206.146 52.104 203.538ZM56.152 203.442H57.352V207.938C57.352 208.418 57.464 208.498 58.136 208.498C58.456 208.498 59.976 208.498 60.392 208.498C61 208.498 61.112 208.21 61.16 206.37C61.416 206.562 61.928 206.754 62.248 206.85C62.12 209.042 61.768 209.602 60.488 209.602C60.168 209.602 58.328 209.602 58.008 209.602C56.536 209.602 56.152 209.234 56.152 207.954V203.442ZM54.328 195.17H55.592V197.714H54.328V195.17ZM48.264 196.882H61.72V200.274H60.456V198.018H49.48V200.274H48.264V196.882ZM65.72 201.154H69.704V202.274H65.72V201.154ZM69.224 201.154H70.392C70.392 201.154 70.392 201.506 70.392 201.666C70.312 205.282 70.216 206.626 69.88 207.074C69.624 207.362 69.368 207.474 68.92 207.522C68.504 207.57 67.784 207.554 67 207.522C66.968 207.17 66.84 206.706 66.664 206.402C67.384 206.466 68.088 206.466 68.36 206.466C68.584 206.466 68.744 206.45 68.856 206.306C69.096 206.018 69.176 204.818 69.224 201.362V201.154ZM73.736 195.97L74.456 195.218C75.448 195.73 76.712 196.498 77.336 197.058L76.584 197.874C75.976 197.314 74.744 196.498 73.736 195.97ZM76.024 200.306L77.224 200.594C75.864 204.77 73.48 207.858 70.2 209.794C70.024 209.554 69.576 209.058 69.32 208.818C72.568 207.09 74.824 204.162 76.024 200.306ZM65.816 197.874H78.2V199.058H65.816V197.874ZM65.048 197.874H66.296V202.386C66.296 204.658 66.04 207.89 64.584 209.986C64.376 209.746 63.864 209.33 63.576 209.186C64.904 207.218 65.048 204.466 65.048 202.37V197.874ZM71.688 195.186H72.936C72.904 202.546 74.472 208.546 76.552 208.546C77 208.546 77.208 207.714 77.304 205.586C77.576 205.858 78.024 206.13 78.344 206.242C78.12 208.978 77.672 209.762 76.456 209.762C73.192 209.762 71.752 202.85 71.688 195.186ZM81.096 197.73H85.96V208.194H81.096V207.106H84.84V198.802H81.096V197.73ZM80.376 197.73H81.496V209.474H80.376V197.73ZM81.016 202.178H85.432V203.25H81.016V202.178ZM82.824 195.122L84.12 195.362C83.8 196.354 83.4 197.458 83.08 198.178L82.12 197.938C82.392 197.17 82.696 195.954 82.824 195.122ZM88.232 197.682H93.144V198.802H88.232V197.682ZM92.728 197.682H93.848C93.848 197.682 93.848 198.13 93.848 198.306C93.592 205.65 93.368 208.13 92.728 208.914C92.376 209.378 92.008 209.522 91.448 209.57C90.904 209.634 89.96 209.602 89.064 209.554C89.032 209.202 88.888 208.706 88.664 208.386C89.704 208.466 90.664 208.482 91.032 208.482C91.352 208.482 91.544 208.434 91.72 208.226C92.248 207.65 92.504 204.994 92.728 197.938V197.682ZM88.568 195.09L89.72 195.362C89.128 197.746 88.184 200.098 87.08 201.618C86.872 201.426 86.376 201.09 86.088 200.93C87.176 199.522 88.056 197.314 88.568 195.09ZM87.832 201.842L88.76 201.298C89.672 202.434 90.776 203.986 91.288 204.93L90.264 205.57C89.784 204.594 88.712 203.01 87.832 201.842ZM108.808 195.554L109.704 196.562C107.368 197.362 103.784 197.954 100.744 198.322C100.696 198.034 100.52 197.586 100.392 197.298C103.368 196.914 106.84 196.274 108.808 195.554ZM99.848 202.018H110.36V203.17H99.848V202.018ZM100.472 208.114H110.104V209.266H100.472V208.114ZM104.616 197.33H105.816V208.434H104.616V197.33ZM97.96 199.41L99.144 198.226L99.16 198.258V209.874H97.96V199.41ZM99.704 195.17L100.872 195.538C99.736 198.322 97.944 201.09 96.072 202.914C95.944 202.626 95.576 202.002 95.336 201.698C97.064 200.13 98.712 197.682 99.704 195.17ZM113.016 204.098H124.12V205.154H113.016V204.098ZM123.72 204.098H124.92C124.92 204.098 124.888 204.45 124.856 204.626C124.488 207.538 124.136 208.77 123.576 209.266C123.24 209.586 122.872 209.666 122.28 209.698C121.8 209.714 120.84 209.714 119.88 209.65C119.864 209.33 119.704 208.882 119.496 208.578C120.504 208.674 121.544 208.69 121.944 208.69C122.28 208.69 122.472 208.674 122.648 208.546C123.064 208.194 123.416 206.978 123.704 204.258L123.72 204.098ZM118.12 202.498L119.368 202.61C118.728 206.946 116.616 208.866 112.568 209.858C112.44 209.586 112.12 209.074 111.896 208.834C115.768 208.098 117.672 206.37 118.12 202.498ZM116.136 196.802H123.896V197.842H116.136V196.802ZM123.608 196.802H123.848L124.056 196.754L124.792 197.25C122.472 200.706 117.144 202.306 112.2 202.882C112.12 202.578 111.912 202.098 111.72 201.826C116.472 201.378 121.672 199.874 123.608 196.962V196.802ZM116.12 198.018C117.864 200.274 121.736 201.346 126.36 201.618C126.12 201.89 125.832 202.354 125.688 202.69C121.016 202.306 117.144 201.074 115.128 198.434L116.12 198.018ZM117.112 195.138L118.36 195.378C117.288 197.122 115.624 198.882 113.192 200.242C113.032 199.954 112.68 199.522 112.44 199.346C114.696 198.178 116.28 196.546 117.112 195.138Z" fill="#2D3342"/>
<path d="M214.936 121.042C213.64 123.026 211.144 125.298 208.44 126.834C208.168 126.37 207.608 125.65 207.176 125.25C210.024 123.762 212.632 121.122 213.8 119.042H215.88C217.608 121.682 220.232 123.89 222.872 125.042C222.36 125.538 221.928 126.194 221.56 126.802C218.984 125.378 216.28 123.026 214.936 121.042ZM213.912 124.466H215.96V134.034H213.912V124.466ZM236.632 119.234L238.04 120.85C235.512 121.698 232.088 122.258 229.112 122.578C229.032 122.114 228.76 121.378 228.552 120.93C231.432 120.578 234.616 119.954 236.632 119.234ZM228.088 125.698H238.424V127.538H228.088V125.698ZM228.744 131.65H238.248V133.49H228.744V131.65ZM232.456 121.586H234.408V132.226H232.456V121.586ZM225.656 123.666L227.544 121.794L227.56 121.826V134.018H225.656V123.666ZM227.256 119.058L229.144 119.666C228.04 122.466 226.216 125.426 224.344 127.282C224.152 126.802 223.576 125.746 223.224 125.25C224.824 123.778 226.344 121.426 227.256 119.058ZM240.872 127.922H251.928V129.554H240.872V127.922ZM251.32 127.922H253.224C253.224 127.922 253.176 128.434 253.128 128.69C252.776 131.426 252.376 132.706 251.768 133.25C251.304 133.682 250.808 133.794 250.056 133.842C249.48 133.874 248.44 133.874 247.384 133.826C247.352 133.33 247.112 132.626 246.776 132.162C247.832 132.258 249 132.274 249.464 132.274C249.816 132.274 250.04 132.258 250.248 132.114C250.664 131.794 251.032 130.578 251.304 128.162L251.32 127.922ZM245.672 126.562L247.672 126.722C246.92 130.93 244.84 132.946 240.936 134.018C240.728 133.602 240.168 132.786 239.816 132.434C243.432 131.698 245.24 130.034 245.672 126.562ZM244.024 120.53H252.04V122.13H244.024V120.53ZM251.56 120.53H251.928L252.232 120.45L253.416 121.218C251 124.802 245.704 126.418 240.424 127.042C240.296 126.562 239.976 125.794 239.672 125.378C244.68 124.946 249.736 123.506 251.56 120.77V120.53ZM244.296 122.178C246.104 124.114 249.912 124.978 254.536 125.17C254.152 125.586 253.704 126.354 253.48 126.866C248.712 126.514 245 125.394 242.728 122.818L244.296 122.178ZM244.76 118.994L246.712 119.378C245.544 121.298 243.864 122.978 241.288 124.306C241.064 123.858 240.536 123.138 240.168 122.834C242.44 121.81 243.944 120.354 244.76 118.994ZM264.248 120.802H266.136V129.634H264.248V120.802ZM267.976 119.314H269.88V131.746C269.88 132.834 269.656 133.362 269.032 133.666C268.36 133.97 267.368 134.034 265.928 134.034C265.832 133.49 265.56 132.642 265.288 132.114C266.248 132.146 267.256 132.13 267.56 132.13C267.864 132.13 267.976 132.034 267.976 131.746V119.314ZM258.216 123.282H262.328V125.026H258.216V123.282ZM255.864 119.73H263.816V121.506H255.864V119.73ZM257.24 127.506L258.136 126.082C259.064 126.61 260.36 127.41 260.984 127.938L260.024 129.554C259.432 128.978 258.168 128.114 257.24 127.506ZM261.656 123.282H262.024L262.344 123.218L263.544 123.618C262.744 128.914 260.6 132.37 257.656 134.082C257.368 133.666 256.648 132.962 256.216 132.674C259.096 131.154 261.032 128.194 261.656 123.666V123.282ZM258.504 120.706L260.424 121.074C259.688 123.842 258.488 126.946 256.568 128.834C256.232 128.466 255.608 127.89 255.208 127.586C256.936 125.938 258.024 123.058 258.504 120.706ZM272.472 120.066H285.576V121.698H272.472V120.066ZM273.208 122.514H284.952V124.05H273.208V122.514ZM271.88 124.93H286.088V126.562H271.88V124.93ZM277.976 119.01H279.928V126.306H277.976V119.01ZM277.992 125.538L279.656 126.322C277.944 128.162 275.112 129.778 272.504 130.594C272.216 130.13 271.672 129.426 271.272 129.026C273.8 128.37 276.584 126.994 277.992 125.538ZM280.76 125.842C281.592 129.026 283.368 131.346 286.664 132.29C286.232 132.674 285.688 133.474 285.416 134.002C281.832 132.754 280.056 130.098 279.016 126.178L280.76 125.842ZM284.456 126.802L286.04 128.002C284.84 128.866 283.4 129.746 282.296 130.29L281.08 129.266C282.152 128.642 283.592 127.618 284.456 126.802ZM272.968 132.226C274.904 131.89 277.848 131.282 280.584 130.69L280.76 132.418C278.248 132.994 275.528 133.586 273.544 134.018L272.968 132.226ZM275.16 128.978L276.424 127.714L277.08 127.89V132.498H275.16V128.978Z" fill="#6663CF"/>
<path d="M35.868 44.5409H69.204V49.2569H35.868V44.5409ZM88.356 34.9289C85.44 39.3929 79.824 44.5049 73.74 47.9609C73.128 46.9169 71.868 45.2969 70.896 44.3969C77.304 41.0489 83.172 35.1089 85.8 30.4289H90.48C94.368 36.3689 100.272 41.3369 106.212 43.9289C105.06 45.0449 104.088 46.5209 103.26 47.8889C97.464 44.6849 91.38 39.3929 88.356 34.9289ZM86.052 42.6329H90.66V64.1609H86.052V42.6329ZM108.156 36.1169H140.808V40.2569H108.156V36.1169ZM120.18 44.9369H133.968V49.0409H120.18V44.9369ZM132.384 44.9369H136.848C136.848 44.9369 136.812 46.2329 136.704 46.8089C136.056 56.6729 135.3 60.7409 133.86 62.3249C132.78 63.4769 131.628 63.8369 129.972 64.0169C128.604 64.1249 126.192 64.0889 123.78 64.0169C123.708 62.7569 123.06 60.9569 122.232 59.7689C124.716 59.9849 127.272 59.9849 128.316 59.9849C129.108 59.9849 129.612 59.9489 130.08 59.5529C131.16 58.6169 131.844 54.5129 132.348 45.6209L132.384 44.9369ZM118.56 38.5649H123.42C122.88 48.2129 121.908 58.7249 110.604 64.4129C109.956 63.2609 108.66 61.6769 107.508 60.7769C117.984 55.9169 118.2 46.7729 118.56 38.5649ZM122.052 30.1769H126.516V37.7369H122.052V30.1769ZM154.632 32.1929H176.772V35.9729H154.632V32.1929ZM157.62 53.1809C161.112 57.4649 168.42 59.4449 177.96 59.8769C177.024 60.8849 175.908 62.7209 175.368 63.9089C165.396 63.0809 158.232 60.3809 153.84 54.4769L157.62 53.1809ZM159.132 46.8809V49.5449H171.732V46.8809H159.132ZM159.132 41.3009V43.8929H171.732V41.3009H159.132ZM155.136 38.1329H175.908V52.6769H155.136V38.1329ZM163.452 33.3089H167.736V48.1769C167.736 54.9809 165.36 61.1369 154.956 64.1969C154.416 63.2249 153.156 61.5329 152.256 60.6689C162.552 58.6169 163.452 53.5409 163.452 48.1049V33.3089ZM150.924 30.5009L154.992 31.7249C152.868 37.8449 149.376 44.3609 145.668 48.5009C145.272 47.4569 144.084 45.0809 143.328 44.0369C146.388 40.7249 149.232 35.6129 150.924 30.5009ZM147.54 40.4369L151.644 36.3329L151.68 36.3689V64.1249H147.54V40.4369ZM183.648 36.1889H194.7V60.4529H183.648V56.6369H190.776V39.9689H183.648V36.1889ZM181.128 36.1889H185.052V63.1169H181.128V36.1889ZM183.468 45.8009H192.684V49.5449H183.468V45.8009ZM186.24 30.3209L190.956 31.0049C190.128 33.4529 189.228 36.0089 188.508 37.7009L185.052 36.9449C185.556 35.0729 186.06 32.3009 186.24 30.3209ZM199.452 35.9369H209.964V39.8609H199.452V35.9369ZM208.488 35.9369H212.484C212.484 35.9369 212.484 37.3409 212.448 37.8809C211.98 54.0809 211.548 59.8049 210.072 61.7129C209.064 63.1169 208.056 63.5129 206.58 63.7289C205.212 63.9449 203.016 63.9089 200.928 63.8009C200.856 62.6129 200.28 60.7769 199.488 59.6249C201.828 59.8049 203.988 59.8409 204.888 59.8409C205.608 59.8409 206.004 59.6969 206.472 59.1929C207.624 57.9689 208.092 51.7769 208.488 36.7649V35.9369ZM199.56 30.3569L203.7 31.3289C202.296 36.6569 199.956 42.1289 197.508 45.5849C196.716 44.8649 194.952 43.6409 193.944 43.0649C196.356 40.0409 198.408 35.1449 199.56 30.3569ZM197.796 46.3049L201.18 44.3969C202.944 46.8809 205.32 50.3369 206.436 52.4609L202.764 54.6929C201.792 52.4969 199.524 48.9689 197.796 46.3049ZM231.42 38.1329H245.856V42.2009H231.42V38.1329ZM244.092 38.1329H248.232C248.232 38.1329 248.196 39.5369 248.196 40.0409C247.872 54.9089 247.584 60.2369 246.396 61.8929C245.532 63.1529 244.668 63.5489 243.372 63.7649C242.22 63.9449 240.348 63.9089 238.476 63.8729C238.404 62.6849 237.9 60.8849 237.18 59.7689C238.98 59.8769 240.564 59.9129 241.356 59.9129C241.932 59.9129 242.328 59.7689 242.652 59.3009C243.552 58.1849 243.84 52.9649 244.092 38.9969V38.1329ZM236.208 30.3929H240.42C240.384 45.4049 240.348 57.5009 230.7 64.1969C230.052 63.1169 228.72 61.6409 227.676 60.9209C236.604 55.0169 236.172 44.4329 236.208 30.3929ZM217.884 31.8689H230.448V55.3409H226.452V35.7569H221.7V57.6089H217.884V31.8689ZM215.364 56.2049C219.504 55.4849 225.984 54.1529 232.032 52.8209L232.428 56.7089C226.74 58.1129 220.62 59.5529 216.084 60.6329L215.364 56.2049ZM219.9 39.3569H228.468V43.1369H219.9V39.3569ZM219.9 46.8449H228.468V50.6249H219.9V46.8449ZM278.652 30.2849L281.784 33.8489C274.368 35.7569 264 36.6569 255.18 36.9449C255.072 35.8649 254.532 34.1009 254.136 33.1649C262.812 32.8049 272.748 31.8689 278.652 30.2849ZM254.46 40.5089H282.936V44.6489H254.46V40.5089ZM251.976 48.8969H285.06V53.1089H251.976V48.8969ZM266.304 35.3609H270.804V59.0129C270.804 61.5689 270.156 62.7209 268.428 63.3689C266.7 64.0529 264.072 64.1609 260.4 64.1249C260.112 62.9009 259.284 60.9569 258.636 59.8409C261.3 59.9489 264.324 59.9129 265.152 59.9129C265.98 59.9129 266.304 59.6609 266.304 58.9409V35.3609Z" fill="url(#paint0_linear_957_6310)"/>
<defs>
<linearGradient id="paint0_linear_957_6310" x1="137.645" y1="22.9209" x2="202.197" y2="57.2153" gradientUnits="userSpaceOnUse">
<stop stop-color="#5955B3"/>
<stop offset="1" stop-color="#6563CE"/>
</linearGradient>
</defs>
</svg>
