<svg width="759" height="408" viewBox="0 0 759 408" fill="none" xmlns="http://www.w3.org/2000/svg">
<rect width="751" height="408" rx="5" fill="white"/>
<path opacity="0.2" fill-rule="evenodd" clip-rule="evenodd" d="M750.694 388.071C750.656 399.045 741.779 407.937 730.811 408H441.949C438.488 408 436.089 404.582 437.503 401.424C453.801 365.02 506.22 303.231 608.883 303.231C718.034 303.231 748.903 248.907 750.694 221.744V388.071Z" fill="#79A4E2"/>
<path opacity="0.2" fill-rule="evenodd" clip-rule="evenodd" d="M204.97 4.5796e-07C208.023 1.6812e-07 210.361 2.70608 209.671 5.67927C204.71 27.056 185.638 70.9654 124.398 91.9214C62.7501 113.017 20.9485 107.365 2.9751 100.59C1.13611 99.8966 0.00043335 98.1015 0.000433192 96.1361L0.000427064 20C0.000426175 8.95433 8.95473 1.90716e-05 20.0004 1.80227e-05L204.97 4.5796e-07Z" fill="#89AFFF"/>
<path d="M502.66 251.962V329.523C502.66 330.54 501.795 331.374 500.702 331.411L279.148 338.906M502.66 251.962L462.307 240.701C462.118 240.649 461.921 240.622 461.723 240.622L427.839 243.016M502.66 251.962L427.478 255.777M279.148 338.906V263.303M279.148 338.906L276.791 338.083M279.148 263.303L352.298 259.591M279.148 263.303L276.791 262.48M427.839 243.016L427.478 255.777M427.839 243.016L429.511 183.92M425.447 327.565L427.478 255.777M427.478 255.777L352.298 259.591M429.511 183.92H352.298M429.511 183.92L393.249 172.676C393.042 172.612 392.825 172.579 392.606 172.579H319.787M352.298 183.92V259.591M352.298 183.92L351.04 183.481M319.787 172.579L315.723 244.402M319.787 172.579L322.434 173.502M315.723 244.402L246.637 251.962M315.723 244.402L318.695 245.636M352.298 259.591V331.345M352.298 259.591L349.085 258.257M246.637 251.962V326.255C246.637 327.043 247.163 327.748 247.956 328.025L249.712 328.638M246.637 251.962L249.712 253.035M322.434 173.502L318.695 245.636M322.434 173.502L325.808 174.679M318.695 245.636L322.557 247.24M322.557 247.24L325.808 174.679M322.557 247.24L326.025 248.68M325.808 174.679L329.691 176.034M329.691 176.034L326.025 248.68M329.691 176.034L331.978 176.832M326.025 248.68L329.411 250.086M329.411 250.086L331.978 176.832M329.411 250.086L332.329 251.298M331.978 176.832L335.423 178.033M335.423 178.033L332.329 251.298M335.423 178.033L338.387 179.067M332.329 251.298L335.184 252.484M335.184 252.484L338.387 179.067M335.184 252.484L337.765 253.556M338.387 179.067L341.461 180.139M341.461 180.139L337.765 253.556M341.461 180.139L344.17 181.084M337.765 253.556L340.106 254.528M340.106 254.528L344.17 181.084M340.106 254.528L343.03 255.742M344.17 181.084L347.267 182.165M347.267 182.165L343.03 255.742M347.267 182.165L349.782 183.042M343.03 255.742L345.872 256.923M345.872 256.923L349.782 183.042M345.872 256.923L349.085 258.257M349.782 183.042L351.04 183.481M351.04 183.481L349.085 258.257M276.791 338.083V262.48M276.791 338.083L274.279 337.207M276.791 262.48L274.279 261.604M274.279 261.604V337.207M274.279 261.604L271.021 260.467M274.279 337.207L271.021 336.07M271.021 336.07V260.467M271.021 336.07L268.311 335.125M271.021 260.467L268.311 259.522M268.311 259.522V335.125M268.311 259.522L264.794 258.295M268.311 335.125L264.794 333.898M264.794 333.898V258.295M264.794 333.898L262.893 333.235M264.794 258.295L262.893 257.632M262.893 257.632V333.235M262.893 257.632L259.859 256.574M262.893 333.235L259.859 332.177M259.859 332.177V256.574M259.859 332.177L256.182 330.894M259.859 256.574L256.182 255.291M256.182 255.291V330.894M256.182 255.291L252.787 254.107M256.182 330.894L252.787 329.71M252.787 329.71V254.107M252.787 329.71L249.712 328.638M252.787 254.107L249.712 253.035M249.712 253.035V328.638" stroke="black" stroke-width="2"/>
<path d="M418.585 318.032C413.765 309.771 410.641 293.988 409.576 286.389C409.532 286.076 409.258 285.855 408.942 285.879C400.357 286.555 382.571 287.432 375.775 285.835M407.195 292.15C406.765 292.293 405.561 292.578 404.185 292.578M401.175 293.007C400.458 293.15 398.939 293.35 398.594 293.007M395.584 293.007H393.004M389.564 293.007C388.847 293.15 387.328 293.35 386.984 293.007M383.543 293.007H380.963M375.983 288.574C376.98 296.957 379.371 314.866 381.112 320.847C381.181 321.086 381.387 321.244 381.636 321.256C389.695 321.657 406.985 322.024 414.893 320.419" stroke="black" stroke-linecap="round"/>
<path d="M373.36 293.065C373.502 301.98 374.202 321.017 375.868 327.355C375.933 327.606 376.16 327.771 376.42 327.774M373.36 293.065C373.797 303.82 375.021 325.82 376.42 327.774M373.36 293.065C373.942 304.232 375.458 326.81 376.857 327.78M373.36 293.065C374.088 304.372 375.895 327.146 377.294 327.785M373.36 293.065C374.234 304.375 376.332 327.154 377.731 327.79M373.36 293.065C374.38 304.378 376.77 327.161 378.169 327.794M373.36 293.065C374.537 304.379 377.195 327.165 378.405 327.796M373.36 293.065C373.388 293.293 373.418 293.525 373.448 293.761M373.36 293.065C373.452 293.709 373.549 294.389 373.652 295.1M373.36 293.065C373.681 295.052 374.059 297.387 374.467 299.89M373.36 293.065L376.979 313.607M373.36 293.065C373.379 293.249 373.409 293.482 373.448 293.761M376.42 327.774L376.857 327.78M376.857 327.78L377.294 327.785M377.294 327.785L377.731 327.79M377.731 327.79L378.169 327.794M378.169 327.794L378.405 327.796M378.405 327.796L378.606 327.797M378.606 327.797C377.92 327.5 374.939 305.421 373.448 293.761M378.606 327.797L378.876 327.799M373.448 293.761C373.5 294.131 373.569 294.581 373.652 295.1M378.876 327.799C378.42 327.515 375.37 307.03 373.652 295.1M378.876 327.799L379.196 327.801M373.652 295.1C373.85 296.347 374.132 297.993 374.467 299.89M379.196 327.801C379.008 327.553 376.408 311.812 374.467 299.89M379.196 327.801L379.48 327.803M374.467 299.89C375.161 303.824 376.086 308.836 376.979 313.607M379.48 327.803C389.017 327.851 404.277 327.574 409.21 326.135M379.48 327.803L379.437 327.559M409.21 326.135C401.02 326.948 383.6 328.371 379.437 327.559M409.21 326.135C389.274 327.768 381.009 327.507 379.369 327.172M409.21 326.135C409.337 326.055 409.486 325.96 409.647 325.855M379.437 327.559L379.369 327.172M379.369 327.172L379.299 326.772M409.647 325.855C400.456 326.565 381.52 327.744 379.299 326.772M409.647 325.855C409.785 325.764 409.932 325.666 410.084 325.562M409.647 325.855C391.11 327.264 381.657 326.86 379.247 326.481M379.299 326.772L379.247 326.481M410.084 325.562C387 327.063 379.874 326.606 379.196 326.19M410.084 325.562C389.798 326.737 381 326.247 379.137 325.855M410.084 325.562C410.227 325.464 410.374 325.361 410.521 325.256M379.196 326.19L379.247 326.481M379.196 326.19L379.137 325.855M379.137 325.855L379.108 325.687M379.137 325.855L407.447 325.342C407.583 325.34 407.603 325.536 407.47 325.56C407.464 325.561 407.458 325.562 407.452 325.562L382.541 326.135M379.078 325.519L410.959 324.934M379.078 325.519L379.026 325.227M379.078 325.519L379.108 325.687M410.959 324.934C411.043 324.87 411.126 324.805 411.208 324.741M410.959 324.934L379.026 325.227M410.959 324.934C410.815 325.043 410.668 325.151 410.521 325.256M411.208 324.741L378.975 324.934M411.208 324.741C411.309 324.661 411.408 324.581 411.501 324.502M376.979 313.607L378.975 324.934M376.979 313.607C377.694 317.427 378.39 321.092 378.932 323.925M378.975 324.934L379.026 325.227M411.501 324.502L395.559 324.543M411.501 324.502C411.581 324.434 411.658 324.367 411.73 324.301M395.559 324.543C393.536 324.613 391.516 324.666 389.578 324.697M395.559 324.543C397.561 324.475 399.567 324.392 401.497 324.301M389.578 324.697C386.96 324.739 384.492 324.739 382.369 324.677M389.578 324.697C397.982 324.43 408.546 323.436 410.323 323.053C412.669 322.548 412.599 323.264 412.27 323.685M389.578 324.697C386.81 324.785 384.277 324.794 382.369 324.677M382.369 324.677C381.317 324.646 380.35 324.6 379.492 324.537C379.226 324.517 379.008 324.321 378.958 324.059L378.932 323.925M382.369 324.677C380.505 324.562 379.238 324.326 378.932 323.925M401.497 324.301H411.73M401.497 324.301C404.034 324.182 406.442 324.051 408.546 323.925M411.73 324.301C411.861 324.182 411.976 324.068 412.069 323.961M412.069 323.961C412.157 323.861 412.226 323.768 412.27 323.685M412.069 323.961L408.546 323.925M412.27 323.685C411.195 323.759 409.937 323.841 408.546 323.925M410.521 325.256L379.108 325.687" stroke="black" stroke-opacity="0.3" stroke-linecap="round"/>
<path d="M346.67 312.056C341.851 303.795 338.726 288.012 337.661 280.413C337.618 280.1 337.343 279.879 337.027 279.904C328.442 280.58 310.656 281.456 303.86 279.859M335.28 286.174C334.85 286.317 333.646 286.603 332.27 286.603M329.26 287.031C328.543 287.174 327.024 287.374 326.68 287.031M323.669 287.031H321.089M317.649 287.031C316.932 287.174 315.413 287.374 315.069 287.031M311.629 287.031H309.048M304.068 282.598C305.066 290.982 307.456 308.89 309.197 314.871C309.266 315.11 309.472 315.268 309.721 315.28C317.78 315.681 335.07 316.049 342.979 314.443" stroke="black" stroke-linecap="round"/>
<path d="M301.445 287.089C301.587 296.004 302.287 315.041 303.953 321.379C304.019 321.63 304.245 321.795 304.505 321.798M301.445 287.089C301.882 297.844 303.106 319.844 304.505 321.798M301.445 287.089C302.028 298.257 303.543 320.834 304.942 321.804M301.445 287.089C302.173 298.396 303.98 321.17 305.379 321.809M301.445 287.089C302.319 298.399 304.418 321.178 305.817 321.814M301.445 287.089C302.465 298.402 304.855 321.185 306.254 321.818M301.445 287.089C302.622 298.403 305.28 321.189 306.49 321.82M301.445 287.089C301.474 287.317 301.503 287.549 301.534 287.786M301.445 287.089C301.537 287.733 301.634 288.413 301.737 289.124M301.445 287.089C301.766 289.077 302.144 291.411 302.552 293.914M301.445 287.089L305.064 307.631M301.445 287.089C301.464 287.273 301.494 287.507 301.534 287.786M304.505 321.798L304.942 321.804M304.942 321.804L305.379 321.809M305.379 321.809L305.817 321.814M305.817 321.814L306.254 321.818M306.254 321.818L306.49 321.82M306.49 321.82L306.691 321.821M306.691 321.821C306.005 321.524 303.024 299.445 301.534 287.786M306.691 321.821L306.961 321.823M301.534 287.786C301.586 288.156 301.654 288.605 301.737 289.124M306.961 321.823C306.505 321.539 303.455 301.054 301.737 289.124M306.961 321.823L307.281 321.825M301.737 289.124C301.936 290.371 302.217 292.017 302.552 293.914M307.281 321.825C307.093 321.577 304.494 305.836 302.552 293.914M307.281 321.825L307.565 321.827M302.552 293.914C303.247 297.848 304.171 302.86 305.064 307.631M307.565 321.827C317.102 321.875 332.362 321.598 337.295 320.159M307.565 321.827L307.522 321.583M337.295 320.159C329.105 320.972 311.685 322.395 307.522 321.583M337.295 320.159C317.359 321.792 309.094 321.531 307.454 321.196M337.295 320.159C337.423 320.079 337.571 319.985 337.732 319.879M307.522 321.583L307.454 321.196M307.454 321.196L307.384 320.797M337.732 319.879C328.541 320.59 309.605 321.768 307.384 320.797M337.732 319.879C337.87 319.789 338.017 319.69 338.169 319.586M337.732 319.879C319.195 321.288 309.742 320.884 307.333 320.505M307.384 320.797L307.333 320.505M338.169 319.586C315.085 321.088 307.959 320.63 307.281 320.214M338.169 319.586C317.883 320.761 309.085 320.271 307.222 319.879M338.169 319.586C338.312 319.488 338.459 319.386 338.607 319.28M307.281 320.214L307.333 320.505M307.281 320.214L307.222 319.879M307.222 319.879L307.193 319.711M307.222 319.879L335.533 319.366C335.668 319.364 335.688 319.56 335.555 319.584C335.549 319.586 335.543 319.586 335.537 319.586L310.626 320.159M307.163 319.543L339.044 318.958M307.163 319.543L307.112 319.251M307.163 319.543L307.193 319.711M339.044 318.958C339.128 318.894 339.212 318.83 339.293 318.765M339.044 318.958L307.112 319.251M339.044 318.958C338.9 319.067 338.753 319.175 338.607 319.28M339.293 318.765L307.06 318.958M339.293 318.765C339.395 318.685 339.493 318.605 339.586 318.526M305.064 307.631L307.06 318.958M305.064 307.631C305.78 311.451 306.475 315.116 307.018 317.949M307.06 318.958L307.112 319.251M339.586 318.526L323.644 318.568M339.586 318.526C339.667 318.458 339.743 318.391 339.815 318.325M323.644 318.568C321.621 318.637 319.601 318.691 317.663 318.721M323.644 318.568C325.646 318.499 327.652 318.416 329.583 318.325M317.663 318.721C315.045 318.763 312.577 318.763 310.454 318.701M317.663 318.721C326.067 318.454 336.631 317.46 338.408 317.077C340.754 316.572 340.684 317.288 340.355 317.709M317.663 318.721C314.896 318.809 312.362 318.819 310.454 318.701M310.454 318.701C309.402 318.67 308.436 318.624 307.577 318.561C307.311 318.542 307.094 318.345 307.044 318.083L307.018 317.949M310.454 318.701C308.59 318.586 307.323 318.35 307.018 317.949M329.583 318.325H339.815M329.583 318.325C332.119 318.207 334.527 318.075 336.632 317.949M339.815 318.325C339.946 318.206 340.061 318.092 340.154 317.985M340.154 317.985C340.242 317.885 340.311 317.792 340.355 317.709M340.154 317.985L336.632 317.949M340.355 317.709C339.28 317.784 338.022 317.865 336.632 317.949M338.607 319.28L307.193 319.711" stroke="black" stroke-opacity="0.3" stroke-linecap="round"/>
<path d="M418.585 239.493C413.765 231.231 410.641 215.449 409.576 207.85C409.532 207.536 409.258 207.315 408.942 207.34C400.357 208.016 382.571 208.893 375.775 207.295M407.195 213.61C406.765 213.753 405.561 214.039 404.185 214.039M401.175 214.468C400.458 214.611 398.939 214.811 398.594 214.468M395.584 214.468H393.004M389.564 214.468C388.847 214.611 387.328 214.811 386.984 214.468M383.543 214.468H380.963M375.983 210.035C376.98 218.418 379.371 236.326 381.112 242.308C381.181 242.546 381.387 242.704 381.636 242.717C389.695 243.118 406.985 243.485 414.893 241.88" stroke="black" stroke-linecap="round"/>
<path d="M373.36 214.526C373.502 223.441 374.202 242.478 375.868 248.816C375.933 249.067 376.16 249.231 376.42 249.235M373.36 214.526C373.797 225.281 375.021 247.28 376.42 249.235M373.36 214.526C373.942 225.693 375.458 248.271 376.857 249.241M373.36 214.526C374.088 225.833 375.895 248.606 377.294 249.246M373.36 214.526C374.234 225.836 376.332 248.615 377.731 249.25M373.36 214.526C374.38 225.838 376.77 248.622 378.169 249.254M373.36 214.526C374.537 225.84 377.195 248.625 378.405 249.256M373.36 214.526C373.388 214.753 373.418 214.986 373.448 215.222M373.36 214.526C373.452 215.17 373.549 215.85 373.652 216.561M373.36 214.526C373.681 216.513 374.059 218.848 374.467 221.351M373.36 214.526L376.979 235.067M373.36 214.526C373.379 214.709 373.409 214.943 373.448 215.222M376.42 249.235L376.857 249.241M376.857 249.241L377.294 249.246M377.294 249.246L377.731 249.25M377.731 249.25L378.169 249.254M378.169 249.254L378.405 249.256M378.405 249.256L378.606 249.258M378.606 249.258C377.92 248.961 374.939 226.882 373.448 215.222M378.606 249.258L378.876 249.26M373.448 215.222C373.5 215.592 373.569 216.042 373.652 216.561M378.876 249.26C378.42 248.975 375.37 228.49 373.652 216.561M378.876 249.26L379.196 249.262M373.652 216.561C373.85 217.808 374.132 219.454 374.467 221.351M379.196 249.262C379.008 249.014 376.408 233.272 374.467 221.351M379.196 249.262L379.48 249.263M374.467 221.351C375.161 225.284 376.086 230.297 376.979 235.067M379.48 249.263C389.017 249.311 404.277 249.035 409.21 247.595M379.48 249.263L379.437 249.019M409.21 247.595C401.02 248.408 383.6 249.832 379.437 249.019M409.21 247.595C389.274 249.228 381.009 248.967 379.369 248.633M409.21 247.595C409.337 247.516 409.486 247.421 409.647 247.315M379.437 249.019L379.369 248.633M379.369 248.633L379.299 248.233M409.647 247.315C400.456 248.026 381.52 249.204 379.299 248.233M409.647 247.315C409.785 247.225 409.932 247.127 410.084 247.023M409.647 247.315C391.11 248.725 381.657 248.32 379.247 247.942M379.299 248.233L379.247 247.942M410.084 247.023C387 248.524 379.874 248.067 379.196 247.651M410.084 247.023C389.798 248.198 381 247.707 379.137 247.315M410.084 247.023C410.227 246.925 410.374 246.822 410.521 246.717M379.196 247.651L379.247 247.942M379.196 247.651L379.137 247.315M379.137 247.315L379.108 247.148M379.137 247.315L407.447 246.803C407.583 246.8 407.603 246.996 407.47 247.021C407.464 247.022 407.458 247.023 407.452 247.023L382.541 247.595M379.078 246.98L410.959 246.395M379.078 246.98L379.026 246.687M379.078 246.98L379.108 247.148M410.959 246.395C411.043 246.331 411.126 246.266 411.208 246.202M410.959 246.395L379.026 246.687M410.959 246.395C410.815 246.503 410.668 246.611 410.521 246.717M411.208 246.202L378.975 246.395M411.208 246.202C411.309 246.121 411.408 246.041 411.501 245.962M376.979 235.067L378.975 246.395M376.979 235.067C377.694 238.887 378.39 242.553 378.932 245.385M378.975 246.395L379.026 246.687M411.501 245.962L395.559 246.004M411.501 245.962C411.581 245.894 411.658 245.828 411.73 245.762M395.559 246.004C393.536 246.073 391.516 246.127 389.578 246.158M395.559 246.004C397.561 245.936 399.567 245.853 401.497 245.762M389.578 246.158C386.96 246.2 384.492 246.199 382.369 246.137M389.578 246.158C397.982 245.891 408.546 244.897 410.323 244.514C412.669 244.008 412.599 244.725 412.27 245.146M389.578 246.158C386.81 246.246 384.277 246.255 382.369 246.137M382.369 246.137C381.317 246.107 380.35 246.061 379.492 245.998C379.226 245.978 379.008 245.782 378.958 245.52L378.932 245.385M382.369 246.137C380.505 246.022 379.238 245.787 378.932 245.385M401.497 245.762H411.73M401.497 245.762C404.034 245.643 406.442 245.512 408.546 245.385M411.73 245.762C411.861 245.643 411.976 245.528 412.069 245.422M412.069 245.422C412.157 245.322 412.226 245.229 412.27 245.146M412.069 245.422L408.546 245.385M412.27 245.146C411.195 245.22 409.937 245.302 408.546 245.385M410.521 246.717L379.108 247.148" stroke="black" stroke-opacity="0.3" stroke-linecap="round"/>
<path d="M493.009 300.105C488.189 291.843 485.064 276.061 484 268.462C483.956 268.148 483.682 267.927 483.365 267.952C474.78 268.628 456.994 269.505 450.199 267.907M481.619 274.222C481.189 274.365 479.985 274.651 478.608 274.651M475.598 275.08C474.882 275.222 473.362 275.423 473.018 275.08M470.008 275.08H467.428M463.987 275.08C463.271 275.222 461.751 275.423 461.407 275.08M457.967 275.08H455.387M450.406 270.647C451.404 279.03 453.795 296.938 455.535 302.92C455.605 303.158 455.811 303.316 456.06 303.329C464.119 303.729 481.408 304.097 489.317 302.491" stroke="black" stroke-linecap="round"/>
<path d="M447.783 275.137C447.926 284.053 448.625 303.09 450.291 309.428C450.357 309.679 450.583 309.843 450.843 309.847M447.783 275.137C448.22 285.893 449.444 307.892 450.843 309.847M447.783 275.137C448.366 286.305 449.882 308.882 451.281 309.852M447.783 275.137C448.512 286.444 450.319 309.218 451.718 309.858M447.783 275.137C448.657 286.448 450.756 309.227 452.155 309.862M447.783 275.137C448.803 286.45 451.193 309.234 452.592 309.866M447.783 275.137C448.961 286.451 451.619 309.237 452.829 309.868M447.783 275.137C447.812 275.365 447.842 275.597 447.872 275.834M447.783 275.137C447.875 275.781 447.973 276.462 448.075 277.172M447.783 275.137C448.104 277.125 448.483 279.46 448.891 281.963M447.783 275.137L451.403 295.679M447.783 275.137C447.803 275.321 447.833 275.555 447.872 275.834M450.843 309.847L451.281 309.852M451.281 309.852L451.718 309.858M451.718 309.858L452.155 309.862M452.155 309.862L452.592 309.866M452.592 309.866L452.829 309.868M452.829 309.868L453.029 309.87M453.029 309.87C452.344 309.573 449.362 287.493 447.872 275.834M453.029 309.87L453.3 309.872M447.872 275.834C447.924 276.204 447.992 276.654 448.075 277.172M453.3 309.872C452.844 309.587 449.793 289.102 448.075 277.172M453.3 309.872L453.62 309.874M448.075 277.172C448.274 278.419 448.556 280.066 448.891 281.963M453.62 309.874C453.432 309.626 450.832 293.884 448.891 281.963M453.62 309.874L453.904 309.875M448.891 281.963C449.585 285.896 450.509 290.908 451.403 295.679M453.904 309.875C463.441 309.923 478.7 309.647 483.633 308.207M453.904 309.875L453.861 309.631M483.633 308.207C475.444 309.02 458.024 310.444 453.861 309.631M483.633 308.207C463.697 309.84 455.433 309.579 453.793 309.244M483.633 308.207C483.761 308.128 483.909 308.033 484.071 307.927M453.861 309.631L453.793 309.244M453.793 309.244L453.722 308.845M484.071 307.927C474.88 308.638 455.943 309.816 453.722 308.845M484.071 307.927C484.208 307.837 484.356 307.738 484.508 307.634M484.071 307.927C465.533 309.337 456.08 308.932 453.671 308.554M453.722 308.845L453.671 308.554M484.508 307.634C461.424 309.136 454.297 308.679 453.62 308.262M484.508 307.634C464.222 308.809 455.424 308.319 453.561 307.927M484.508 307.634C484.651 307.537 484.798 307.434 484.945 307.328M453.62 308.262L453.671 308.554M453.62 308.262L453.561 307.927M453.561 307.927L453.531 307.76M453.561 307.927L481.871 307.415C482.006 307.412 482.026 307.608 481.893 307.633C481.887 307.634 481.882 307.635 481.876 307.635L456.964 308.207M453.502 307.592L485.382 307.007M453.502 307.592L453.45 307.299M453.502 307.592L453.531 307.76M485.382 307.007C485.467 306.942 485.55 306.878 485.631 306.814M485.382 307.007L453.45 307.299M485.382 307.007C485.239 307.115 485.092 307.223 484.945 307.328M485.631 306.814L453.398 307.007M485.631 306.814C485.733 306.733 485.831 306.653 485.925 306.574M451.403 295.679L453.398 307.007M451.403 295.679C452.118 299.499 452.814 303.165 453.356 305.997M453.398 307.007L453.45 307.299M485.925 306.574L469.982 306.616M485.925 306.574C486.005 306.506 486.082 306.439 486.153 306.374M469.982 306.616C467.96 306.685 465.94 306.739 464.002 306.77M469.982 306.616C471.985 306.548 473.99 306.464 475.921 306.374M464.002 306.77C461.384 306.811 458.915 306.811 456.792 306.749M464.002 306.77C472.406 306.503 482.97 305.508 484.746 305.126C487.093 304.62 487.022 305.336 486.694 305.758M464.002 306.77C461.234 306.858 458.7 306.867 456.792 306.749M456.792 306.749C455.741 306.719 454.774 306.673 453.916 306.61C453.649 306.59 453.432 306.393 453.382 306.132L453.356 305.997M456.792 306.749C454.929 306.634 453.662 306.398 453.356 305.997M475.921 306.374H486.153M475.921 306.374C478.457 306.255 480.865 306.124 482.97 305.997M486.153 306.374C486.284 306.255 486.399 306.14 486.493 306.034M486.493 306.034C486.581 305.934 486.649 305.841 486.694 305.758M486.493 306.034L482.97 305.997M486.694 305.758C485.618 305.832 484.36 305.913 482.97 305.997M484.945 307.328L453.531 307.76" stroke="black" stroke-opacity="0.3" stroke-linecap="round"/>
<path d="M336.291 18.08H341.051V28.96C341.051 30.44 341.451 30.64 343.811 30.64C344.891 30.64 349.451 30.64 350.771 30.64C352.771 30.64 353.091 30 353.371 26.04C354.371 26.76 356.411 27.48 357.691 27.76C357.091 33.44 355.691 34.92 351.131 34.92C349.931 34.92 344.491 34.92 343.331 34.92C337.731 34.92 336.291 33.56 336.291 28.96V18.08ZM351.771 19.76L355.331 23.24C350.891 25.08 344.931 26.52 339.811 27.48C339.571 26.44 338.891 24.84 338.371 23.92C343.171 22.92 348.531 21.32 351.771 19.76ZM336.211 37.24H355.731V55.4H350.971V41.2H340.731V55.6H336.211V37.24ZM338.611 43.68H352.611V47.4H338.611V43.68ZM338.411 50.04H352.611V53.84H338.411V50.04ZM319.811 38.44C323.531 37.64 329.091 36.28 334.291 34.92L334.851 39.32C330.091 40.68 324.971 42 320.971 43.04L319.811 38.44ZM320.411 25.56H334.211V30.04H320.411V25.56ZM325.411 18.04H330.131V50.44C330.131 52.76 329.731 53.96 328.371 54.68C327.011 55.4 325.091 55.56 322.251 55.52C322.131 54.32 321.491 52.36 320.931 51.16C322.491 51.2 324.131 51.2 324.651 51.2C325.211 51.16 325.411 51 325.411 50.44V18.04ZM361.211 21.36H396.731V25.84H361.211V21.36ZM369.971 38.56H387.891V42.28H369.971V38.56ZM369.131 44.92H388.771V48.76H369.131V44.92ZM376.531 40.36H381.091V54.44H376.531V40.36ZM362.691 28.84H391.651V33.24H367.531V55.52H362.691V28.84ZM390.291 28.84H395.251V50.72C395.251 53.04 394.691 54.12 393.051 54.8C391.451 55.48 389.091 55.52 385.851 55.52C385.611 54.28 384.891 52.52 384.251 51.44C386.211 51.56 388.731 51.56 389.371 51.52C390.091 51.48 390.291 51.28 390.291 50.68V28.84ZM371.491 34.32L375.331 33.2C376.251 34.48 377.171 36.32 377.611 37.52L373.611 38.88C373.251 37.6 372.331 35.72 371.491 34.32ZM382.771 33.28L386.851 34.4C385.771 36.32 384.691 38.2 383.771 39.48L380.371 38.48C381.211 37 382.251 34.8 382.771 33.28ZM376.371 18.28H381.651V31.92H376.371V18.28ZM424.237 37.6534V42.4545H410.97V37.6534H424.237ZM153.767 76H171.527V80.36H153.767V76ZM174.807 87.6H190.527V92.2H174.807V87.6ZM182.167 90.84H186.927V111.64H182.167V90.84ZM172.887 77.6L178.647 78.96C178.607 79.36 178.327 79.56 177.607 79.68V88.76C177.607 95.24 176.687 105.12 170.327 111.56C169.687 110.52 167.887 108.88 166.767 108.32C172.367 102.64 172.887 94.68 172.887 88.72V77.6ZM155.047 83.36H159.607V93.6C159.607 99 159.047 106.76 155.927 111.68C155.167 110.84 153.167 109.32 152.167 108.8C154.807 104.48 155.047 98.2 155.047 93.56V83.36ZM186.047 74.44L190.247 78.04C185.967 80.16 180.327 81.8 175.447 82.88C175.167 81.8 174.407 80.04 173.807 79.04C178.287 77.92 183.167 76.16 186.047 74.44ZM157.687 83.36H170.687V97.04H157.687V92.76H166.047V87.68H157.687V83.36ZM193.807 78.88H229.487V83.36H193.807V78.88ZM204.607 93.28H222.007V97.28H204.607V93.28ZM201.047 86.52H221.287V90.72H205.807V111.56H201.047V86.52ZM220.327 86.52H225.007V106.4C225.007 108.76 224.567 110.08 222.927 110.84C221.327 111.56 219.047 111.6 215.807 111.6C215.607 110.28 214.967 108.24 214.327 107C216.407 107.12 218.767 107.08 219.447 107.08C220.087 107.08 220.327 106.88 220.327 106.32V86.52ZM206.207 74L211.167 75.12C208.367 84.16 203.567 93.36 195.767 98.8C195.087 97.72 193.567 96 192.607 95.08C199.727 90.4 204.207 81.8 206.207 74ZM204.607 99.88H222.007V103.88H204.607V99.88ZM243.127 83.04H248.247V104C248.247 106.04 248.567 106.32 250.647 106.32C251.607 106.32 255.607 106.32 256.727 106.32C258.767 106.32 259.127 105.2 259.447 99.48C260.567 100.32 262.727 101.24 264.127 101.52C263.487 108.8 262.087 111.12 257.127 111.12C255.927 111.12 251.207 111.12 250.047 111.12C244.647 111.12 243.127 109.52 243.127 103.96V83.04ZM243.607 77.48L246.727 74C249.967 76.04 254.047 79.04 256.327 80.8L253.167 84.76C250.887 82.8 246.767 79.64 243.607 77.48ZM236.727 84.88L241.327 86.04C240.447 90.76 239.167 96.44 237.167 99.88L232.487 98.16C234.527 94.68 236.007 89.6 236.727 84.88ZM260.287 89.6L264.647 87.56C267.167 91.32 269.647 96.2 270.727 99.56L266.087 101.92C265.167 98.56 262.687 93.4 260.287 89.6ZM262.207 76.36L267.047 78.32C260.607 90.64 250.047 102.64 235.727 109.68C235.007 108.56 233.607 106.8 232.607 105.84C246.167 99.64 256.847 87.64 262.207 76.36ZM273.287 95.72H310.007V99.6H273.287V95.72ZM274.047 75.44H309.047V79.6H274.047V75.44ZM286.607 91.88L291.327 93.08C288.767 97.32 285.367 102.36 282.927 105.56L278.287 104.16C280.767 100.96 284.287 95.8 286.607 91.88ZM298.207 97.16L302.847 98.36C298.887 107.8 290.647 110.52 275.807 111.68C275.487 110.28 274.767 108.6 274.007 107.56C287.487 107 295.007 104.84 298.207 97.16ZM281.047 104.48L283.487 101.04C292.687 102.92 302.647 105.68 308.647 107.88L305.767 111.76C299.967 109.4 290.607 106.52 281.047 104.48ZM284.567 77.08H289.087V90.76H284.567V77.08ZM293.647 77.08H298.167V90.76H293.647V77.08ZM280.367 85.64V89.4H302.967V85.64H280.367ZM275.887 81.88H307.767V93.16H275.887V81.88ZM317.367 80.52H329.647V107.48H317.367V103.24H325.287V84.72H317.367V80.52ZM314.567 80.52H318.927V110.44H314.567V80.52ZM317.167 91.2H327.407V95.36H317.167V91.2ZM320.247 74L325.487 74.76C324.567 77.48 323.567 80.32 322.767 82.2L318.927 81.36C319.487 79.28 320.047 76.2 320.247 74ZM334.927 80.24H346.607V84.6H334.927V80.24ZM344.967 80.24H349.407C349.407 80.24 349.407 81.8 349.367 82.4C348.847 100.4 348.367 106.76 346.727 108.88C345.607 110.44 344.487 110.88 342.847 111.12C341.327 111.36 338.887 111.32 336.567 111.2C336.487 109.88 335.847 107.84 334.967 106.56C337.567 106.76 339.967 106.8 340.967 106.8C341.767 106.8 342.207 106.64 342.727 106.08C344.007 104.72 344.527 97.84 344.967 81.16V80.24ZM335.047 74.04L339.647 75.12C338.087 81.04 335.487 87.12 332.767 90.96C331.887 90.16 329.927 88.8 328.807 88.16C331.487 84.8 333.767 79.36 335.047 74.04ZM333.087 91.76L336.847 89.64C338.807 92.4 341.447 96.24 342.687 98.6L338.607 101.08C337.527 98.64 335.007 94.72 333.087 91.76ZM368.567 75.6H387.007V79.36H368.567V75.6ZM367.927 87.12H387.727V90.88H367.927V87.12ZM367.927 92.84H387.567V96.6H367.927V92.84ZM369.847 106.2H385.767V110H369.847V106.2ZM364.767 81.32H390.527V85.2H364.767V81.32ZM367.287 98.6H388.287V111.44H383.447V102.32H371.887V111.56H367.287V98.6ZM361.807 74.12L366.287 75.56C363.567 82.36 359.167 89.52 354.607 94.04C354.207 92.92 352.927 90.28 352.127 89.12C355.927 85.52 359.647 79.84 361.807 74.12ZM357.967 85.2L362.487 80.64L362.527 80.68V111.48H357.967V85.2ZM403.047 100.2H407.807V105.96C407.807 107.08 408.127 107.24 410.047 107.24C410.887 107.24 414.487 107.24 415.567 107.24C417.087 107.24 417.367 106.8 417.567 103.84C418.527 104.52 420.567 105.24 421.847 105.48C421.247 110.28 419.927 111.48 416.047 111.48C414.927 111.48 410.567 111.48 409.487 111.48C404.287 111.48 403.047 110.16 403.047 106V100.2ZM407.487 99.28L411.007 96.92C413.127 98.52 415.567 100.84 416.687 102.64L412.927 105.2C411.927 103.48 409.567 101 407.487 99.28ZM419.927 101.36L423.767 98.92C426.567 101.44 429.647 104.92 430.847 107.64L426.687 110.32C425.607 107.72 422.727 104.04 419.927 101.36ZM397.127 99.44L401.407 101C400.407 104.28 398.967 107.88 396.527 110.24L392.527 107.44C394.687 105.52 396.287 102.44 397.127 99.44ZM403.687 86.16V88.16H419.887V86.16H403.687ZM403.687 91.64V93.64H419.887V91.64H403.687ZM403.687 80.72V82.72H419.887V80.72H403.687ZM399.047 77.08H424.727V97.32H399.047V77.08ZM409.167 73.6L415.007 74.32C414.087 76.24 413.047 77.88 412.367 79.08L407.927 78.2C408.407 76.8 408.927 74.96 409.167 73.6ZM434.847 78.28H448.687V82.4H434.847V78.28ZM439.647 105.56H449.687V109.44H439.647V105.56ZM439.647 99.16H449.807V102.8H439.647V99.16ZM433.127 85.68H453.607V89.84H433.127V85.68ZM440.127 74.36H444.567V88.44H440.127V74.36ZM450.647 75.8L454.967 77.04C450.887 87.52 443.887 95.64 434.847 100.52C434.327 99.48 432.927 97.48 432.087 96.52C440.687 92.44 447.167 85.24 450.647 75.8ZM441.167 92.8H449.607V96.64H441.167V111.52H436.847V95.56L439.447 92.8H441.167ZM447.687 92.8H452.247V110.96H447.687V92.8ZM454.887 76.28H466.647V80.76H459.607V111.56H454.887V76.28ZM465.527 76.28H466.447L467.167 76.08L470.647 78.24C469.247 82.08 467.447 86.64 465.847 90.2C469.207 93.76 469.927 96.92 469.927 99.56C469.927 102.56 469.247 104.52 467.687 105.56C466.887 106.12 465.927 106.48 464.847 106.6C463.887 106.72 462.607 106.76 461.367 106.68C461.327 105.4 460.847 103.32 460.087 102.04C461.127 102.12 461.927 102.16 462.647 102.12C463.247 102.12 463.847 102 464.287 101.76C465.047 101.32 465.327 100.4 465.327 99.04C465.327 96.84 464.407 93.88 461.127 90.8C462.767 86.88 464.647 80.8 465.527 77.92V76.28ZM473.847 79.6H509.527V84.2H473.847V79.6ZM486.887 92.56H507.847V97H486.887V92.56ZM485.327 106.16H509.367V110.6H485.327V106.16ZM495.047 85.92H499.887V108.52H495.047V85.92ZM486.447 74L491.447 75.2C488.487 84.84 483.447 94.56 474.887 100.4C474.407 99.04 473.287 96.92 472.567 95.76C479.807 91.04 484.367 82.08 486.447 74ZM478.447 90.76H483.287V111.52H478.447V90.76ZM520.607 102.16C521.967 102.16 523.047 103.2 525.327 104.36C527.967 105.8 531.687 106.04 536.007 106.04C540.007 106.04 546.487 105.68 550.487 105.08C549.927 106.48 549.127 108.96 549.047 110.4C546.167 110.6 539.927 110.84 535.847 110.84C530.887 110.84 527.527 110.36 524.607 108.88C522.767 107.92 521.447 106.8 520.527 106.8C519.247 106.8 517.407 109.28 515.807 111.52L512.487 106.76C515.247 104.04 518.407 102.16 520.607 102.16ZM513.287 78.16L517.087 75.6C519.087 77.4 521.647 80 522.847 81.84L518.767 84.68C517.727 82.88 515.287 80.12 513.287 78.16ZM522.487 88.92V104.56H517.887V93.36H513.367V88.92H522.487ZM523.287 79.76H549.487V84.24H523.287V79.76ZM540.567 80.68L545.327 81.56C542.407 93.24 536.367 100.36 526.087 104.4C525.607 103.36 524.167 101.24 523.287 100.24C532.887 97.08 538.327 90.88 540.567 80.68ZM531.767 75.16L536.367 73.72C537.447 75.52 538.647 77.92 539.087 79.52L534.207 81.16C533.847 79.6 532.767 77.04 531.767 75.16ZM524.447 88.04L527.727 85.16C534.327 89.68 543.847 96.4 548.487 100.8L544.847 104.28C540.567 99.88 531.327 92.84 524.447 88.04ZM562.327 86.84V90.16H581.447V86.84H562.327ZM562.327 79.72V82.92H581.447V79.72H562.327ZM557.527 75.44H586.487V94.4H557.527V75.44ZM553.607 106H589.767V110.44H553.607V106ZM556.327 97.8H587.727V102.24H556.327V97.8ZM569.647 78.12H574.207V93.36H574.527V108.8H569.287V93.36H569.647V78.12ZM597.598 108.369C596.661 108.369 595.856 108.038 595.183 107.375C594.521 106.703 594.189 105.898 594.189 104.96C594.189 104.032 594.521 103.237 595.183 102.574C595.856 101.911 596.661 101.58 597.598 101.58C598.507 101.58 599.303 101.911 599.985 102.574C600.666 103.237 601.007 104.032 601.007 104.96C601.007 105.585 600.846 106.158 600.524 106.679C600.212 107.19 599.8 107.602 599.289 107.915C598.777 108.218 598.214 108.369 597.598 108.369ZM597.598 93.0852C596.661 93.0852 595.856 92.7538 595.183 92.0909C594.521 91.428 594.189 90.6231 594.189 89.6761C594.189 88.7481 594.521 87.9574 595.183 87.304C595.856 86.6411 596.661 86.3097 597.598 86.3097C598.507 86.3097 599.303 86.6411 599.985 87.304C600.666 87.9574 601.007 88.7481 601.007 89.6761C601.007 90.3106 600.846 90.8883 600.524 91.4091C600.212 91.9205 599.8 92.3277 599.289 92.6307C598.777 92.9337 598.214 93.0852 597.598 93.0852Z" fill="url(#paint0_linear_941_6163)"/>
<path d="M570.936 271.144C570.417 271.137 569.906 271.042 569.402 270.86C568.902 270.679 568.448 270.376 568.039 269.951C567.63 269.527 567.302 268.957 567.056 268.241C566.813 267.525 566.692 266.631 566.692 265.559C566.692 264.544 566.792 263.643 566.993 262.855C567.198 262.067 567.491 261.402 567.874 260.86C568.256 260.315 568.719 259.9 569.26 259.616C569.802 259.332 570.41 259.19 571.084 259.19C571.777 259.19 572.393 259.326 572.931 259.599C573.469 259.872 573.904 260.249 574.237 260.73C574.575 261.211 574.789 261.758 574.88 262.372H573.147C573.029 261.887 572.796 261.491 572.448 261.184C572.099 260.877 571.645 260.724 571.084 260.724C570.232 260.724 569.567 261.095 569.09 261.838C568.616 262.58 568.378 263.612 568.374 264.934H568.459C568.66 264.605 568.906 264.324 569.198 264.093C569.493 263.858 569.823 263.679 570.186 263.554C570.554 263.425 570.94 263.36 571.345 263.36C572.02 263.36 572.63 263.525 573.175 263.855C573.724 264.18 574.162 264.631 574.487 265.207C574.813 265.783 574.976 266.442 574.976 267.184C574.976 267.927 574.808 268.599 574.47 269.201C574.137 269.804 573.667 270.281 573.061 270.633C572.455 270.982 571.747 271.152 570.936 271.144ZM570.931 269.667C571.378 269.667 571.777 269.557 572.13 269.338C572.482 269.118 572.76 268.822 572.965 268.451C573.169 268.08 573.272 267.665 573.272 267.207C573.272 266.76 573.171 266.353 572.97 265.985C572.773 265.618 572.501 265.326 572.152 265.11C571.808 264.894 571.414 264.786 570.97 264.786C570.633 264.786 570.321 264.851 570.033 264.98C569.749 265.108 569.499 265.286 569.283 265.514C569.067 265.741 568.897 266.002 568.772 266.298C568.65 266.59 568.59 266.898 568.59 267.224C568.59 267.66 568.69 268.063 568.891 268.434C569.095 268.805 569.374 269.105 569.726 269.332C570.082 269.555 570.484 269.667 570.931 269.667ZM578.398 271.093C578.087 271.093 577.82 270.983 577.597 270.764C577.373 270.54 577.262 270.271 577.262 269.957C577.262 269.646 577.373 269.381 577.597 269.161C577.82 268.938 578.087 268.826 578.398 268.826C578.709 268.826 578.976 268.938 579.199 269.161C579.423 269.381 579.534 269.646 579.534 269.957C579.534 270.165 579.481 270.357 579.375 270.531C579.273 270.701 579.137 270.838 578.966 270.94C578.796 271.042 578.606 271.093 578.398 271.093ZM619.299 270.825H628.563V271.929H619.299V270.825ZM621.539 262.441H626.771V263.529H621.539V262.441ZM621.555 266.601H626.787V267.689H621.555V266.601ZM620.915 258.345H627.171V271.385H625.971V259.449H622.051V271.385H620.915V258.345ZM614.371 268.073C614.323 267.849 614.131 267.305 614.003 267.017C614.355 266.937 614.755 266.537 615.283 265.961C615.859 265.385 617.667 263.129 618.899 260.937L619.859 261.529C618.467 263.753 616.803 265.913 615.171 267.465V267.481C615.171 267.481 614.371 267.833 614.371 268.073ZM614.371 268.073L614.323 267.145L614.899 266.729L619.635 265.849C619.603 266.169 619.619 266.617 619.635 266.841C615.283 267.737 614.707 267.881 614.371 268.073ZM614.259 264.233C614.195 263.993 614.019 263.417 613.891 263.113C614.179 263.033 614.467 262.665 614.835 262.121C615.235 261.577 616.483 259.497 617.203 257.545L618.307 258.057C617.395 260.057 616.195 262.137 614.995 263.577V263.609C614.995 263.609 614.259 263.993 614.259 264.233ZM614.259 264.233L614.243 263.353L614.803 262.985L618.003 262.649C617.955 262.937 617.923 263.385 617.923 263.625C614.995 263.993 614.531 264.105 614.259 264.233ZM613.987 270.073C615.363 269.785 617.475 269.289 619.507 268.809L619.635 269.817C617.715 270.329 615.715 270.825 614.211 271.225L613.987 270.073ZM631.315 260.121H636.179V270.585H631.315V269.497H635.059V261.193H631.315V260.121ZM630.595 260.121H631.715V271.865H630.595V260.121ZM631.235 264.569H635.651V265.641H631.235V264.569ZM633.043 257.513L634.339 257.753C634.019 258.745 633.619 259.849 633.299 260.569L632.339 260.329C632.611 259.561 632.915 258.345 633.043 257.513ZM638.451 260.073H643.363V261.193H638.451V260.073ZM642.947 260.073H644.067C644.067 260.073 644.067 260.521 644.067 260.697C643.811 268.041 643.587 270.521 642.947 271.305C642.595 271.769 642.227 271.913 641.667 271.961C641.123 272.025 640.179 271.993 639.283 271.945C639.251 271.593 639.107 271.097 638.883 270.777C639.923 270.857 640.883 270.873 641.251 270.873C641.571 270.873 641.763 270.825 641.939 270.617C642.467 270.041 642.723 267.385 642.947 260.329V260.073ZM638.787 257.481L639.939 257.753C639.347 260.137 638.403 262.489 637.299 264.009C637.091 263.817 636.595 263.481 636.307 263.321C637.395 261.913 638.275 259.705 638.787 257.481ZM638.051 264.233L638.979 263.689C639.891 264.825 640.995 266.377 641.507 267.321L640.483 267.961C640.003 266.985 638.931 265.401 638.051 264.233ZM649.187 262.985V269.865H648.019V264.089H645.923V262.985H649.187ZM646.531 258.329L647.459 257.737C648.291 258.601 649.299 259.801 649.763 260.585L648.787 261.257C648.355 260.473 647.363 259.225 646.531 258.329ZM648.563 269.017C649.091 269.017 649.475 269.513 650.403 270.089C651.475 270.777 652.867 270.905 654.755 270.905C656.723 270.905 659.187 270.761 660.787 270.585C660.643 270.905 660.435 271.545 660.419 271.929C659.283 271.993 656.323 272.105 654.707 272.105C652.611 272.105 651.267 271.913 650.099 271.193C649.443 270.745 648.883 270.169 648.531 270.169C648.035 270.169 647.315 271.193 646.595 272.297L645.699 271.145C646.739 269.897 647.779 269.017 648.563 269.017ZM655.155 261.129H656.403V270.473H655.155V261.129ZM650.275 266.409H660.259V267.545H650.275V266.409ZM650.387 259.225H659.971V260.281H650.387V259.225ZM651.235 264.457V263.481L651.955 263.097H659.507V264.233H652.691C651.923 264.233 651.379 264.313 651.235 264.457ZM651.235 264.457C651.187 264.201 650.979 263.625 650.835 263.305C651.123 263.241 651.379 262.841 651.699 262.265C652.035 261.705 653.043 259.529 653.587 257.561L654.835 257.897C654.115 260.009 653.123 262.233 652.131 263.769V263.785C652.131 263.785 651.235 264.201 651.235 264.457ZM662.227 268.057C662.163 267.801 661.955 267.193 661.811 266.873C662.179 266.809 662.563 266.409 663.075 265.833C663.651 265.273 665.411 263.065 666.563 260.921L667.651 261.593C666.291 263.737 664.659 265.865 663.059 267.385V267.417C663.059 267.417 662.227 267.801 662.227 268.057ZM662.227 268.057L662.163 267.049L662.803 266.633L667.571 265.849C667.571 266.169 667.603 266.633 667.651 266.889C663.171 267.705 662.595 267.849 662.227 268.057ZM662.115 264.169C662.035 263.897 661.843 263.289 661.683 262.969C661.987 262.889 662.275 262.537 662.611 262.009C662.963 261.497 664.115 259.513 664.771 257.657L665.987 258.153C665.155 260.089 664.019 262.089 662.931 263.465V263.497C662.931 263.497 662.115 263.897 662.115 264.169ZM662.115 264.169L662.083 263.257L662.691 262.889L666.067 262.585C666.003 262.889 665.971 263.353 665.971 263.593C662.899 263.929 662.403 264.025 662.115 264.169ZM661.779 270.153C663.251 269.897 665.475 269.449 667.619 269.001L667.715 270.121C665.699 270.585 663.571 271.017 661.987 271.385L661.779 270.153ZM667.747 259.689H676.291V260.857H667.747V259.689ZM668.147 263.337H676.019V264.489H668.147V263.337ZM669.203 270.473H675.011V271.577H669.203V270.473ZM671.427 257.545H672.675V263.929H671.427V257.545ZM668.563 266.121H675.635V272.201H674.419V267.225H669.731V272.265H668.563V266.121Z" fill="#2D3342"/>
<path d="M593.332 259.349L596.145 268.19H596.253L599.071 259.349H601.798L597.787 270.985H594.616L590.599 259.349H593.332ZM603.199 270.985V259.349H605.659V264.48H605.812L610 259.349H612.949L608.63 264.559L613 270.985H610.057L606.869 266.201L605.659 267.679V270.985H603.199Z" fill="#6663CF"/>
<path d="M570.936 271.144C570.417 271.137 569.906 271.042 569.402 270.86C568.902 270.679 568.448 270.376 568.039 269.951C567.63 269.527 567.302 268.957 567.056 268.241C566.813 267.525 566.692 266.631 566.692 265.559C566.692 264.544 566.792 263.643 566.993 262.855C567.198 262.067 567.491 261.402 567.874 260.86C568.256 260.315 568.719 259.9 569.26 259.616C569.802 259.332 570.41 259.19 571.084 259.19C571.777 259.19 572.393 259.326 572.931 259.599C573.469 259.872 573.904 260.249 574.237 260.73C574.575 261.211 574.789 261.758 574.88 262.372H573.147C573.029 261.887 572.796 261.491 572.448 261.184C572.099 260.877 571.645 260.724 571.084 260.724C570.232 260.724 569.567 261.095 569.09 261.838C568.616 262.58 568.378 263.612 568.374 264.934H568.459C568.66 264.605 568.906 264.324 569.198 264.093C569.493 263.858 569.823 263.679 570.186 263.554C570.554 263.425 570.94 263.36 571.345 263.36C572.02 263.36 572.63 263.525 573.175 263.855C573.724 264.18 574.162 264.631 574.487 265.207C574.813 265.783 574.976 266.442 574.976 267.184C574.976 267.927 574.808 268.599 574.47 269.201C574.137 269.804 573.667 270.281 573.061 270.633C572.455 270.982 571.747 271.152 570.936 271.144ZM570.931 269.667C571.378 269.667 571.777 269.557 572.13 269.338C572.482 269.118 572.76 268.822 572.965 268.451C573.169 268.08 573.272 267.665 573.272 267.207C573.272 266.76 573.171 266.353 572.97 265.985C572.773 265.618 572.501 265.326 572.152 265.11C571.808 264.894 571.414 264.786 570.97 264.786C570.633 264.786 570.321 264.851 570.033 264.98C569.749 265.108 569.499 265.286 569.283 265.514C569.067 265.741 568.897 266.002 568.772 266.298C568.65 266.59 568.59 266.898 568.59 267.224C568.59 267.66 568.69 268.063 568.891 268.434C569.095 268.805 569.374 269.105 569.726 269.332C570.082 269.555 570.484 269.667 570.931 269.667ZM578.398 271.093C578.087 271.093 577.82 270.983 577.597 270.764C577.373 270.54 577.262 270.271 577.262 269.957C577.262 269.646 577.373 269.381 577.597 269.161C577.82 268.938 578.087 268.826 578.398 268.826C578.709 268.826 578.976 268.938 579.199 269.161C579.423 269.381 579.534 269.646 579.534 269.957C579.534 270.165 579.481 270.357 579.375 270.531C579.273 270.701 579.137 270.838 578.966 270.94C578.796 271.042 578.606 271.093 578.398 271.093ZM619.299 270.825H628.563V271.929H619.299V270.825ZM621.539 262.441H626.771V263.529H621.539V262.441ZM621.555 266.601H626.787V267.689H621.555V266.601ZM620.915 258.345H627.171V271.385H625.971V259.449H622.051V271.385H620.915V258.345ZM614.371 268.073C614.323 267.849 614.131 267.305 614.003 267.017C614.355 266.937 614.755 266.537 615.283 265.961C615.859 265.385 617.667 263.129 618.899 260.937L619.859 261.529C618.467 263.753 616.803 265.913 615.171 267.465V267.481C615.171 267.481 614.371 267.833 614.371 268.073ZM614.371 268.073L614.323 267.145L614.899 266.729L619.635 265.849C619.603 266.169 619.619 266.617 619.635 266.841C615.283 267.737 614.707 267.881 614.371 268.073ZM614.259 264.233C614.195 263.993 614.019 263.417 613.891 263.113C614.179 263.033 614.467 262.665 614.835 262.121C615.235 261.577 616.483 259.497 617.203 257.545L618.307 258.057C617.395 260.057 616.195 262.137 614.995 263.577V263.609C614.995 263.609 614.259 263.993 614.259 264.233ZM614.259 264.233L614.243 263.353L614.803 262.985L618.003 262.649C617.955 262.937 617.923 263.385 617.923 263.625C614.995 263.993 614.531 264.105 614.259 264.233ZM613.987 270.073C615.363 269.785 617.475 269.289 619.507 268.809L619.635 269.817C617.715 270.329 615.715 270.825 614.211 271.225L613.987 270.073ZM631.315 260.121H636.179V270.585H631.315V269.497H635.059V261.193H631.315V260.121ZM630.595 260.121H631.715V271.865H630.595V260.121ZM631.235 264.569H635.651V265.641H631.235V264.569ZM633.043 257.513L634.339 257.753C634.019 258.745 633.619 259.849 633.299 260.569L632.339 260.329C632.611 259.561 632.915 258.345 633.043 257.513ZM638.451 260.073H643.363V261.193H638.451V260.073ZM642.947 260.073H644.067C644.067 260.073 644.067 260.521 644.067 260.697C643.811 268.041 643.587 270.521 642.947 271.305C642.595 271.769 642.227 271.913 641.667 271.961C641.123 272.025 640.179 271.993 639.283 271.945C639.251 271.593 639.107 271.097 638.883 270.777C639.923 270.857 640.883 270.873 641.251 270.873C641.571 270.873 641.763 270.825 641.939 270.617C642.467 270.041 642.723 267.385 642.947 260.329V260.073ZM638.787 257.481L639.939 257.753C639.347 260.137 638.403 262.489 637.299 264.009C637.091 263.817 636.595 263.481 636.307 263.321C637.395 261.913 638.275 259.705 638.787 257.481ZM638.051 264.233L638.979 263.689C639.891 264.825 640.995 266.377 641.507 267.321L640.483 267.961C640.003 266.985 638.931 265.401 638.051 264.233ZM649.187 262.985V269.865H648.019V264.089H645.923V262.985H649.187ZM646.531 258.329L647.459 257.737C648.291 258.601 649.299 259.801 649.763 260.585L648.787 261.257C648.355 260.473 647.363 259.225 646.531 258.329ZM648.563 269.017C649.091 269.017 649.475 269.513 650.403 270.089C651.475 270.777 652.867 270.905 654.755 270.905C656.723 270.905 659.187 270.761 660.787 270.585C660.643 270.905 660.435 271.545 660.419 271.929C659.283 271.993 656.323 272.105 654.707 272.105C652.611 272.105 651.267 271.913 650.099 271.193C649.443 270.745 648.883 270.169 648.531 270.169C648.035 270.169 647.315 271.193 646.595 272.297L645.699 271.145C646.739 269.897 647.779 269.017 648.563 269.017ZM655.155 261.129H656.403V270.473H655.155V261.129ZM650.275 266.409H660.259V267.545H650.275V266.409ZM650.387 259.225H659.971V260.281H650.387V259.225ZM651.235 264.457V263.481L651.955 263.097H659.507V264.233H652.691C651.923 264.233 651.379 264.313 651.235 264.457ZM651.235 264.457C651.187 264.201 650.979 263.625 650.835 263.305C651.123 263.241 651.379 262.841 651.699 262.265C652.035 261.705 653.043 259.529 653.587 257.561L654.835 257.897C654.115 260.009 653.123 262.233 652.131 263.769V263.785C652.131 263.785 651.235 264.201 651.235 264.457ZM662.227 268.057C662.163 267.801 661.955 267.193 661.811 266.873C662.179 266.809 662.563 266.409 663.075 265.833C663.651 265.273 665.411 263.065 666.563 260.921L667.651 261.593C666.291 263.737 664.659 265.865 663.059 267.385V267.417C663.059 267.417 662.227 267.801 662.227 268.057ZM662.227 268.057L662.163 267.049L662.803 266.633L667.571 265.849C667.571 266.169 667.603 266.633 667.651 266.889C663.171 267.705 662.595 267.849 662.227 268.057ZM662.115 264.169C662.035 263.897 661.843 263.289 661.683 262.969C661.987 262.889 662.275 262.537 662.611 262.009C662.963 261.497 664.115 259.513 664.771 257.657L665.987 258.153C665.155 260.089 664.019 262.089 662.931 263.465V263.497C662.931 263.497 662.115 263.897 662.115 264.169ZM662.115 264.169L662.083 263.257L662.691 262.889L666.067 262.585C666.003 262.889 665.971 263.353 665.971 263.593C662.899 263.929 662.403 264.025 662.115 264.169ZM661.779 270.153C663.251 269.897 665.475 269.449 667.619 269.001L667.715 270.121C665.699 270.585 663.571 271.017 661.987 271.385L661.779 270.153ZM667.747 259.689H676.291V260.857H667.747V259.689ZM668.147 263.337H676.019V264.489H668.147V263.337ZM669.203 270.473H675.011V271.577H669.203V270.473ZM671.427 257.545H672.675V263.929H671.427V257.545ZM668.563 266.121H675.635V272.201H674.419V267.225H669.731V272.265H668.563V266.121Z" fill="#2D3342"/>
<path d="M593.332 259.349L596.145 268.19H596.253L599.071 259.349H601.798L597.787 270.985H594.616L590.599 259.349H593.332ZM603.199 270.985V259.349H605.659V264.48H605.812L610 259.349H612.949L608.63 264.559L613 270.985H610.057L606.869 266.201L605.659 267.679V270.985H603.199Z" fill="#6663CF"/>
<path d="M573.514 280.631C572.843 280.532 556.591 278.363 557.268 263.243C557.33 261.853 557.503 260.59 557.773 259.444M573.514 280.631C564.606 280.043 560.08 276.552 558.054 272.37M573.514 280.631C574.592 280.791 575.703 280.779 576.803 280.604M557.773 259.444C558.11 258.01 558.597 256.761 559.206 255.682M557.773 259.444C556.559 262.806 555.924 267.971 558.054 272.37M559.206 255.682C564.196 246.843 577.317 249.483 582.314 255.682C584.275 258.117 588.384 264.291 586.381 272.008C585.126 276.846 581.054 279.931 576.803 280.604M559.206 255.682C557.307 258.35 554.553 264.597 556.908 270.263M558.054 272.37C557.583 271.682 557.205 270.977 556.908 270.263M576.803 280.604C571.182 281.583 559.333 280.883 556.908 270.263" stroke="#6663CF" stroke-linecap="round"/>
<path d="M119.356 141.026V152.663H117.594V142.788H117.526L114.742 144.606V142.924L117.646 141.026H119.356ZM125.124 152.771C124.814 152.771 124.547 152.661 124.323 152.441C124.1 152.218 123.988 151.949 123.988 151.634C123.988 151.324 124.1 151.058 124.323 150.839C124.547 150.615 124.814 150.504 125.124 150.504C125.435 150.504 125.702 150.615 125.925 150.839C126.149 151.058 126.261 151.324 126.261 151.634C126.261 151.843 126.208 152.034 126.102 152.208C125.999 152.379 125.863 152.515 125.693 152.617C125.522 152.719 125.333 152.771 125.124 152.771ZM137.937 141.703H151.953V142.871H137.937V141.703ZM142.897 146.775H151.329V147.895H142.897V146.775ZM142.273 152.439H151.953V153.575H142.273V152.439ZM146.513 143.687H147.713V153.047H146.513V143.687ZM143.201 139.223L144.433 139.527C143.313 143.191 141.361 146.919 138.177 149.207C138.049 148.887 137.745 148.375 137.553 148.103C140.433 146.071 142.305 142.519 143.201 139.223ZM140.033 145.815H141.233V153.895H140.033V145.815ZM158.369 140.791H168.337V141.943H158.369V140.791ZM165.969 141.207H167.169V152.295C167.169 153.159 166.945 153.511 166.369 153.719C165.777 153.911 164.721 153.943 163.153 153.927C163.089 153.591 162.897 153.047 162.721 152.695C164.001 152.743 165.169 152.727 165.537 152.711C165.873 152.695 165.969 152.615 165.969 152.295V141.207ZM158.849 144.199H159.969V150.855H158.849V144.199ZM159.361 144.199H163.873V149.735H159.361V148.663H162.737V145.271H159.361V144.199ZM157.201 139.239L158.337 139.591C157.377 142.263 155.841 144.967 154.209 146.743C154.097 146.471 153.745 145.831 153.537 145.559C155.009 144.023 156.369 141.639 157.201 139.239ZM155.697 143.415L156.881 142.247L156.897 142.263V153.927H155.697V143.415ZM172.705 141.767H176.209V142.887H172.705V141.767ZM175.841 141.767H176.081L176.305 141.735L177.105 141.943C176.353 148.503 173.953 152.167 170.465 153.975C170.257 153.703 169.793 153.223 169.489 153.031C172.929 151.367 175.201 148.071 175.841 142.055V141.767ZM172.449 143.783C173.953 151.111 177.697 152.215 181.601 152.215C182.097 152.215 183.745 152.215 184.369 152.199C184.177 152.503 183.953 153.111 183.889 153.463H181.537C177.105 153.463 173.121 152.135 171.489 144.119L172.449 143.783ZM172.465 139.287L173.729 139.591C173.153 142.855 172.113 145.991 170.753 147.799C170.529 147.607 170.081 147.287 169.777 147.127C171.041 145.447 172.017 142.423 172.465 139.287ZM179.505 143.719L180.465 143.175C181.697 144.503 183.201 146.295 183.921 147.447L182.881 148.103C182.209 146.951 180.721 145.079 179.505 143.719ZM178.785 139.255H180.065V151.031H178.785V139.255ZM189.969 143.687H195.905V144.727H189.969V143.687ZM185.985 152.567H199.921V153.575H185.985V152.567ZM186.945 139.847H191.681V140.855H186.945V139.847ZM191.297 139.847H191.505L191.729 139.783L192.497 140.183C191.297 143.255 188.625 145.543 186.081 146.727C185.921 146.471 185.601 146.055 185.361 145.847C187.713 144.855 190.305 142.615 191.297 140.071V139.847ZM194.001 139.271C195.233 141.991 197.681 144.471 200.449 145.543C200.161 145.783 199.825 146.215 199.633 146.535C196.801 145.255 194.353 142.647 192.993 139.607L194.001 139.271ZM186.513 142.103L187.153 141.447C188.001 141.927 188.993 142.663 189.457 143.239L188.785 143.975C188.305 143.415 187.345 142.615 186.513 142.103ZM197.217 139.367L198.129 140.007C197.297 140.791 196.193 141.655 195.361 142.215L194.625 141.639C195.441 141.047 196.577 140.071 197.217 139.367ZM199.009 141.255L199.905 141.895C199.057 142.695 197.905 143.559 197.025 144.103L196.289 143.527C197.153 142.951 198.337 141.975 199.009 141.255ZM189.681 147.031V149.143H196.161V147.031H189.681ZM188.497 146.039H197.393V150.135H188.497V146.039ZM189.425 150.391L190.529 150.087C190.977 150.775 191.393 151.719 191.553 152.343L190.417 152.695C190.257 152.071 189.857 151.095 189.425 150.391ZM195.377 150.039L196.545 150.359C196.113 151.207 195.633 152.087 195.233 152.711L194.209 152.407C194.609 151.783 195.121 150.743 195.377 150.039ZM202.929 140.359L203.745 139.623C204.625 140.375 205.745 141.415 206.289 142.087L205.425 142.951C204.913 142.247 203.809 141.143 202.929 140.359ZM204.129 153.623L203.921 152.487L204.257 151.975L207.089 150.055C207.169 150.375 207.345 150.855 207.457 151.095C204.785 152.999 204.369 153.319 204.129 153.623ZM201.681 144.263H205.073V145.415H201.681V144.263ZM204.129 153.639C204.001 153.383 203.665 152.935 203.457 152.743C203.745 152.519 204.225 151.975 204.225 151.191V144.263H205.425V152.071C205.425 152.071 204.129 153.159 204.129 153.639ZM208.465 145.607H214.657V146.759H208.465V145.607ZM207.953 145.607H209.169V151.767C209.169 152.407 209.361 152.551 210.385 152.551C210.881 152.551 213.297 152.551 213.921 152.551C214.913 152.551 215.073 152.151 215.169 149.879C215.457 150.103 215.985 150.295 216.337 150.375C216.145 152.983 215.745 153.719 214.001 153.719C213.585 153.719 210.705 153.719 210.321 153.719C208.513 153.719 207.953 153.319 207.953 151.767V145.607ZM207.649 140.359H215.201V147.575H214.001V141.543H207.649V140.359Z" fill="#2D3342"/>
<path d="M119.243 164.304C118.572 164.204 102.32 162.036 102.997 146.915C103.059 145.526 103.232 144.262 103.502 143.116M119.243 164.304C110.335 163.715 105.809 160.225 103.783 156.042M119.243 164.304C120.321 164.464 121.432 164.451 122.532 164.277M103.502 143.116C103.839 141.682 104.326 140.433 104.935 139.355M103.502 143.116C102.288 146.479 101.653 151.643 103.783 156.042M104.935 139.355C109.925 130.515 123.046 133.156 128.043 139.355C130.004 141.789 134.113 147.963 132.11 155.681C130.855 160.518 126.783 163.604 122.532 164.277M104.935 139.355C103.036 142.022 100.282 148.27 102.637 153.935M103.783 156.042C103.312 155.355 102.934 154.65 102.637 153.935M122.532 164.277C116.911 165.255 105.062 164.556 102.637 153.935" stroke="#6663CF" stroke-linecap="round"/>
<path d="M70.4231 207.528V206.256L74.3606 202.176C74.7811 201.733 75.1277 201.345 75.4004 201.011C75.6769 200.674 75.8833 200.354 76.0197 200.051C76.1561 199.748 76.2242 199.426 76.2242 199.085C76.2242 198.699 76.1333 198.365 75.9515 198.085C75.7697 197.801 75.5216 197.583 75.2072 197.432C74.8928 197.276 74.5386 197.199 74.1447 197.199C73.728 197.199 73.3644 197.284 73.0538 197.454C72.7432 197.625 72.5046 197.865 72.3379 198.176C72.1712 198.487 72.0879 198.85 72.0879 199.267H70.4117C70.4117 198.559 70.5746 197.939 70.9004 197.409C71.2261 196.879 71.6731 196.468 72.2413 196.176C72.8095 195.881 73.4553 195.733 74.1788 195.733C74.9099 195.733 75.5538 195.879 76.1106 196.17C76.6712 196.458 77.1087 196.852 77.4231 197.352C77.7375 197.848 77.8947 198.409 77.8947 199.034C77.8947 199.466 77.8133 199.888 77.6504 200.301C77.4913 200.714 77.2129 201.174 76.8152 201.682C76.4174 202.186 75.8644 202.797 75.1561 203.517L72.8436 205.937V206.023H78.0822V207.528H70.4231ZM81.7654 207.636C81.4548 207.636 81.1878 207.526 80.9643 207.307C80.7408 207.083 80.6291 206.814 80.6291 206.5C80.6291 206.189 80.7408 205.924 80.9643 205.704C81.1878 205.481 81.4548 205.369 81.7654 205.369C82.076 205.369 82.3431 205.481 82.5666 205.704C82.7901 205.924 82.9018 206.189 82.9018 206.5C82.9018 206.708 82.8488 206.9 82.7427 207.074C82.6404 207.244 82.5041 207.381 82.3336 207.483C82.1632 207.585 81.9738 207.636 81.7654 207.636ZM90.3596 196.168H104.376V197.304H90.3596V196.168ZM94.2636 201.88H101.784V202.92H94.2636V201.88ZM93.4156 199.16H101.592V200.232H94.5996V208.808H93.4156V199.16ZM101.32 199.16H102.488V207.32C102.488 208.024 102.344 208.392 101.8 208.584C101.288 208.776 100.392 208.776 99.0156 208.776C98.9676 208.44 98.7916 207.944 98.6156 207.608C99.6876 207.656 100.664 207.64 100.952 207.64C101.224 207.624 101.32 207.544 101.32 207.304V199.16ZM95.5916 194.088L96.8076 194.376C95.7196 197.896 93.7996 201.448 90.7436 203.592C90.5836 203.32 90.2156 202.904 89.9756 202.664C92.8396 200.696 94.7276 197.304 95.5916 194.088ZM94.2636 204.584H101.784V205.624H94.2636V204.584ZM108.632 197.704H118.04V198.856H108.632V197.704ZM108.04 201.608H118.696V202.744H108.04V201.608ZM113.928 201.992C114.664 204.808 116.312 206.904 119.064 207.752C118.776 208.008 118.424 208.488 118.248 208.808C115.384 207.768 113.72 205.464 112.888 202.216L113.928 201.992ZM116.296 194.12L117.544 194.552C116.968 195.576 116.264 196.76 115.704 197.512L114.728 197.112C115.256 196.312 115.928 195.016 116.296 194.12ZM109.288 194.776L110.264 194.28C110.936 195.096 111.64 196.232 111.928 196.984L110.888 197.56C110.616 196.792 109.928 195.624 109.288 194.776ZM112.632 197.976H113.88V201.304C113.88 203.768 113.288 206.824 108.376 208.872C108.2 208.584 107.832 208.168 107.544 207.928C112.312 206.12 112.632 203.368 112.632 201.304V197.976ZM122.344 196.568H136.36V197.736H122.344V196.568ZM127.304 201.64H135.736V202.76H127.304V201.64ZM126.68 207.304H136.36V208.44H126.68V207.304ZM130.92 198.552H132.12V207.912H130.92V198.552ZM127.608 194.088L128.84 194.392C127.72 198.056 125.768 201.784 122.584 204.072C122.456 203.752 122.152 203.24 121.96 202.968C124.84 200.936 126.712 197.384 127.608 194.088ZM124.44 200.68H125.64V208.76H124.44V200.68ZM138.6 204.616C138.536 204.376 138.36 203.832 138.216 203.512C138.568 203.464 138.936 203.064 139.416 202.456C139.96 201.88 141.64 199.64 142.76 197.448L143.752 198.072C142.488 200.248 140.936 202.424 139.416 203.976V204.008C139.416 204.008 138.6 204.376 138.6 204.616ZM138.6 204.616L138.536 203.656L139.128 203.24L143.48 202.456C143.448 202.76 143.448 203.224 143.48 203.464C139.464 204.28 138.92 204.424 138.6 204.616ZM138.488 200.776C138.44 200.52 138.232 199.944 138.104 199.624C138.392 199.56 138.664 199.176 139.016 198.648C139.368 198.12 140.52 196.056 141.176 194.152L142.296 194.68C141.464 196.632 140.344 198.68 139.224 200.12V200.152C139.224 200.152 138.488 200.52 138.488 200.776ZM138.488 200.776L138.472 199.88L139.048 199.496L142.024 199.208C141.96 199.512 141.944 199.96 141.944 200.184C139.208 200.536 138.76 200.632 138.488 200.776ZM138.2 206.664C139.528 206.344 141.56 205.784 143.544 205.24L143.704 206.248C141.864 206.808 139.928 207.368 138.456 207.816L138.2 206.664ZM144.264 197.944L151.784 196.824L151.992 197.88L144.472 199.032L144.264 197.944ZM143.944 201.384L152.232 199.832L152.44 200.904L144.152 202.472L143.944 201.384ZM146.696 194.072H147.88C147.832 201.56 149.08 207.608 151.176 207.608C151.624 207.608 151.784 207.224 151.848 205.816C152.104 206.072 152.472 206.328 152.744 206.456C152.536 208.248 152.152 208.776 151.048 208.776C147.832 208.776 146.744 201.88 146.696 194.072ZM148.616 195.048L149.304 194.392C150.088 194.744 151.112 195.32 151.624 195.752L150.936 196.504C150.408 196.056 149.416 195.432 148.616 195.048ZM151.544 201.96L152.536 202.424C150.776 205.176 147.688 207.32 144.2 208.536C144.04 208.232 143.72 207.816 143.448 207.544C146.856 206.504 149.912 204.504 151.544 201.96ZM154.904 195.112L155.704 194.408C156.504 195.112 157.512 196.104 157.992 196.744L157.128 197.56C156.68 196.904 155.688 195.864 154.904 195.112ZM156.152 208.168L155.928 207.064L156.216 206.568L158.952 204.296C159.064 204.616 159.272 205.064 159.4 205.272C156.76 207.512 156.36 207.864 156.152 208.168ZM154.04 199.096H157.016V200.2H154.04V199.096ZM158.76 202.392H168.632V203.496H158.76V202.392ZM164.648 202.92C165.592 204.52 167.384 206.264 168.904 207.096C168.632 207.32 168.264 207.736 168.072 208.04C166.552 207.032 164.808 205.064 163.816 203.272L164.648 202.92ZM160.728 198.376V200.04H166.488V198.376H160.728ZM160.728 195.768V197.416H166.488V195.768H160.728ZM159.624 194.776H167.624V201.032H159.624V194.776ZM162.76 202.92L163.608 203.24C162.6 205.24 160.76 207.208 159 208.184C158.824 207.896 158.472 207.496 158.216 207.272C159.96 206.456 161.816 204.68 162.76 202.92ZM163.16 195.272H164.264V200.536H164.312V208.808H163.128V200.536H163.16V195.272ZM156.152 208.168C156.008 207.944 155.64 207.528 155.416 207.368C155.72 207.096 156.28 206.472 156.28 205.64V199.096H157.432V206.44C157.432 206.44 156.152 207.688 156.152 208.168ZM179.656 201.64H180.84V208.04H179.656V201.64ZM176.136 201.208H184.408V202.264H176.136V201.208ZM175.448 207.32H184.76V208.392H175.448V207.32ZM176.52 204.184H184.04V205.224H176.52V204.184ZM177.864 195.8V198.76H182.68V195.8H177.864ZM176.744 194.76H183.848V199.8H176.744V194.76ZM172.744 195.416H173.912V208.776H172.744V195.416ZM170.12 198.6H175.928V199.736H170.12V198.6ZM172.808 199.032L173.56 199.352C172.92 201.608 171.64 204.408 170.408 205.896C170.296 205.56 170.008 205.064 169.8 204.792C170.952 203.512 172.232 201.016 172.808 199.032ZM175.112 194.328L175.96 195.256C174.488 195.848 172.248 196.296 170.392 196.552C170.328 196.28 170.168 195.896 170.024 195.624C171.832 195.32 173.944 194.872 175.112 194.328ZM173.864 200.664C174.264 201.016 175.768 202.536 176.088 202.936L175.384 203.88C175 203.224 173.8 201.704 173.304 201.144L173.864 200.664ZM194.28 205.624H199.24V206.776H194.28V205.624ZM193.832 195.592H199.8V207.992H198.584V196.728H195V208.104H193.832V195.592ZM189.288 195.448H190.488V208.792H189.288V195.448ZM186.152 198.824H193.288V199.944H186.152V198.824ZM189.224 199.224L190.072 199.528C189.32 202.008 187.848 204.968 186.408 206.504C186.28 206.168 185.976 205.688 185.768 205.4C187.112 204.024 188.584 201.432 189.224 199.224ZM192.36 194.248L193.176 195.176C191.464 195.816 188.84 196.28 186.648 196.536C186.584 196.264 186.44 195.864 186.296 195.592C188.424 195.304 190.968 194.824 192.36 194.248ZM190.392 200.264C190.904 200.776 192.76 202.952 193.176 203.48L192.44 204.456C191.928 203.608 190.376 201.56 189.784 200.856L190.392 200.264ZM209.128 206.072L209.88 205.592C210.68 206.392 211.64 207.464 212.104 208.152L211.32 208.696C210.872 207.992 209.944 206.872 209.128 206.072ZM206.328 195.032H211.736V205.032H210.76V195.944H207.288V205.064H206.328V195.032ZM215.208 194.296H216.2V207.416C216.2 208.088 216.04 208.392 215.64 208.568C215.224 208.728 214.552 208.76 213.416 208.76C213.384 208.488 213.224 208.04 213.08 207.752C213.928 207.768 214.664 207.768 214.888 207.752C215.128 207.752 215.208 207.672 215.208 207.432V194.296ZM213.016 195.544H213.976V205.128H213.016V195.544ZM208.472 197.096H209.4V202.776C209.4 204.904 208.952 207.336 206.072 208.792C205.96 208.584 205.672 208.2 205.48 208.04C208.168 206.696 208.472 204.68 208.472 202.76V197.096ZM202.648 195.128L203.352 194.264C204.232 194.728 205.384 195.432 205.976 195.928L205.224 196.904C204.68 196.376 203.544 195.624 202.648 195.128ZM201.944 199.432L202.632 198.584C203.512 199.032 204.68 199.72 205.288 200.168L204.584 201.128C204.008 200.648 202.84 199.928 201.944 199.432ZM202.28 207.976C202.904 206.744 203.8 204.648 204.456 202.856L205.416 203.496C204.824 205.16 204.04 207.128 203.352 208.616L202.28 207.976ZM219.256 195.128L220.072 194.408C220.888 195.08 221.928 196.056 222.424 196.68L221.576 197.528C221.112 196.856 220.088 195.848 219.256 195.128ZM220.2 208.408L220.024 207.336L220.376 206.84L223.288 204.968C223.368 205.272 223.496 205.736 223.608 205.976C220.888 207.832 220.456 208.104 220.2 208.408ZM218.152 199.112H220.984V200.28H218.152V199.112ZM222.888 197.432H232.696V198.584H222.888V197.432ZM223.4 200.904H227.688V202.024H223.4V200.904ZM225.064 201.544H226.168V206.408L225.064 206.536V201.544ZM223.096 206.568C224.344 206.248 226.216 205.736 228.056 205.224L228.216 206.28C226.536 206.792 224.776 207.304 223.432 207.688L223.096 206.568ZM229.784 194.808L230.6 194.296C231.272 194.968 232.04 195.896 232.376 196.52L231.496 197.112C231.176 196.488 230.44 195.512 229.784 194.808ZM228.072 194.168H229.288C229.336 201.192 230.008 207.128 231.272 207.192C231.56 207.208 231.752 206.296 231.848 204.744C232.072 204.984 232.6 205.288 232.808 205.4C232.488 208.088 231.864 208.776 231.24 208.76C228.824 208.712 228.248 202.536 228.072 194.168ZM220.2 208.408C220.104 208.104 219.8 207.592 219.592 207.352C219.88 207.176 220.36 206.712 220.36 206.04V199.112H221.512V207.08C221.512 207.08 220.2 207.96 220.2 208.408ZM235.448 196.664H240.312V207.128H235.448V206.04H239.192V197.736H235.448V196.664ZM234.728 196.664H235.848V208.408H234.728V196.664ZM235.368 201.112H239.784V202.184H235.368V201.112ZM237.176 194.056L238.472 194.296C238.152 195.288 237.752 196.392 237.432 197.112L236.472 196.872C236.744 196.104 237.048 194.888 237.176 194.056ZM242.584 196.616H247.496V197.736H242.584V196.616ZM247.08 196.616H248.2C248.2 196.616 248.2 197.064 248.2 197.24C247.944 204.584 247.72 207.064 247.08 207.848C246.728 208.312 246.36 208.456 245.8 208.504C245.256 208.568 244.312 208.536 243.416 208.488C243.384 208.136 243.24 207.64 243.016 207.32C244.056 207.4 245.016 207.416 245.384 207.416C245.704 207.416 245.896 207.368 246.072 207.16C246.6 206.584 246.856 203.928 247.08 196.872V196.616ZM242.92 194.024L244.072 194.296C243.48 196.68 242.536 199.032 241.432 200.552C241.224 200.36 240.728 200.024 240.44 199.864C241.528 198.456 242.408 196.248 242.92 194.024ZM242.184 200.776L243.112 200.232C244.024 201.368 245.128 202.92 245.64 203.864L244.616 204.504C244.136 203.528 243.064 201.944 242.184 200.776ZM255.816 194.856H263.224V195.832H255.816V194.856ZM255.624 199.288H263.512V200.28H255.624V199.288ZM255.624 201.512H263.48V202.504H255.624V201.512ZM256.088 207.064H263.032V208.056H256.088V207.064ZM254.312 197.064H264.728V198.072H254.312V197.064ZM255.464 203.736H263.656V208.76H262.456V204.712H256.616V208.808H255.464V203.736ZM253.768 194.136L254.904 194.488C253.816 197.192 252.104 199.88 250.328 201.656C250.216 201.384 249.88 200.76 249.656 200.472C251.272 198.952 252.84 196.568 253.768 194.136ZM252.104 198.264L253.24 197.128L253.256 197.144V208.776H252.104V198.264ZM270.136 204.504H271.32V207.144C271.32 207.56 271.464 207.64 272.328 207.64C272.712 207.64 274.728 207.64 275.256 207.64C275.944 207.64 276.056 207.448 276.12 206.088C276.392 206.28 276.888 206.456 277.208 206.52C277.048 208.296 276.696 208.728 275.368 208.728C275 208.728 272.584 208.728 272.232 208.728C270.552 208.728 270.136 208.392 270.136 207.16V204.504ZM271.784 203.944L272.664 203.32C273.608 203.944 274.664 204.872 275.144 205.592L274.2 206.264C273.752 205.56 272.712 204.584 271.784 203.944ZM276.952 204.808L277.912 204.216C279.064 205.192 280.328 206.584 280.84 207.608L279.816 208.28C279.32 207.272 278.12 205.832 276.952 204.808ZM267.944 204.376L269 204.76C268.6 206.008 267.976 207.416 266.92 208.28L265.944 207.592C266.92 206.824 267.592 205.544 267.944 204.376ZM269.688 198.584V199.912H277.176V198.584H269.688ZM269.688 200.84V202.168H277.176V200.84H269.688ZM269.688 196.36V197.672H277.176V196.36H269.688ZM268.536 195.4H278.376V203.144H268.536V195.4ZM272.792 193.928L274.184 194.168C273.864 194.856 273.48 195.496 273.208 195.96L272.136 195.704C272.376 195.192 272.648 194.44 272.792 193.928Z" fill="#2D3342"/>
<path d="M74.137 217.174C73.5185 217.075 58.5444 214.906 59.1681 199.786C59.2254 198.396 59.3851 197.133 59.6332 195.987M74.137 217.174C65.9296 216.586 61.7591 213.095 59.8926 208.913M74.137 217.174C75.13 217.334 76.1541 217.322 77.1672 217.147M59.6332 195.987C59.9438 194.553 60.3931 193.304 60.9538 192.225M59.6332 195.987C58.515 199.349 57.9297 204.514 59.8926 208.913M60.9538 192.225C65.5511 183.385 77.6413 186.026 82.2452 192.225C84.0517 194.66 87.8378 200.834 85.9927 208.551C84.8361 213.389 81.0838 216.474 77.1672 217.147M60.9538 192.225C59.2045 194.893 56.6664 201.14 58.8363 206.806M59.8926 208.913C59.4583 208.225 59.1099 207.52 58.8363 206.806M77.1672 217.147C71.9881 218.125 61.0713 217.426 58.8363 206.806" stroke="#6663CF" stroke-linecap="round"/>
<path d="M50.8628 271.137C50.0825 271.137 49.3855 271.003 48.7719 270.734C48.1621 270.465 47.6791 270.092 47.323 269.614C46.9708 269.133 46.7814 268.577 46.7549 267.944H48.5389C48.5617 268.289 48.6772 268.588 48.8855 268.842C49.0977 269.092 49.3742 269.285 49.7151 269.421C50.056 269.558 50.4348 269.626 50.8514 269.626C51.3098 269.626 51.7151 269.546 52.0674 269.387C52.4234 269.228 52.7018 269.006 52.9026 268.722C53.1033 268.434 53.2037 268.103 53.2037 267.728C53.2037 267.338 53.1033 266.995 52.9026 266.7C52.7056 266.4 52.4158 266.166 52.0333 265.995C51.6545 265.825 51.1961 265.739 50.6583 265.739H49.6753V264.308H50.6583C51.0901 264.308 51.4689 264.23 51.7946 264.075C52.1242 263.919 52.3817 263.703 52.5674 263.427C52.753 263.147 52.8458 262.819 52.8458 262.444C52.8458 262.084 52.7643 261.772 52.6014 261.506C52.4424 261.237 52.2151 261.027 51.9196 260.876C51.628 260.724 51.2833 260.648 50.8855 260.648C50.5067 260.648 50.1526 260.719 49.823 260.859C49.4973 260.995 49.2321 261.192 49.0276 261.45C48.823 261.703 48.7132 262.008 48.698 262.364H46.9992C47.0181 261.736 47.2037 261.183 47.556 260.705C47.9121 260.228 48.3817 259.855 48.9651 259.586C49.5484 259.317 50.1961 259.183 50.9083 259.183C51.6545 259.183 52.2984 259.328 52.8401 259.62C53.3855 259.908 53.806 260.292 54.1014 260.773C54.4007 261.255 54.5484 261.781 54.5446 262.353C54.5484 263.005 54.3666 263.558 53.9992 264.012C53.6355 264.467 53.1507 264.772 52.5446 264.927V265.018C53.3174 265.135 53.9158 265.442 54.3401 265.938C54.7681 266.434 54.9802 267.05 54.9764 267.785C54.9802 268.425 54.8022 268.999 54.4424 269.506C54.0863 270.014 53.5996 270.414 52.9821 270.705C52.3647 270.993 51.6583 271.137 50.8628 271.137ZM58.3926 271.086C58.082 271.086 57.815 270.976 57.5915 270.756C57.368 270.533 57.2563 270.264 57.2563 269.95C57.2563 269.639 57.368 269.374 57.5915 269.154C57.815 268.931 58.082 268.819 58.3926 268.819C58.7032 268.819 58.9703 268.931 59.1938 269.154C59.4173 269.374 59.529 269.639 59.529 269.95C59.529 270.158 59.476 270.349 59.3699 270.523C59.2676 270.694 59.1313 270.83 58.9608 270.933C58.7904 271.035 58.601 271.086 58.3926 271.086ZM186.141 269.074H191.101V270.226H186.141V269.074ZM185.693 259.042H191.661V271.442H190.445V260.178H186.861V271.554H185.693V259.042ZM181.149 258.898H182.349V272.242H181.149V258.898ZM178.013 262.274H185.149V263.394H178.013V262.274ZM181.085 262.674L181.933 262.978C181.181 265.458 179.709 268.418 178.269 269.954C178.141 269.618 177.837 269.138 177.629 268.85C178.973 267.474 180.445 264.882 181.085 262.674ZM184.221 257.698L185.037 258.626C183.325 259.266 180.701 259.73 178.509 259.986C178.445 259.714 178.301 259.314 178.157 259.042C180.285 258.754 182.829 258.274 184.221 257.698ZM182.253 263.714C182.765 264.226 184.621 266.402 185.037 266.93L184.301 267.906C183.789 267.058 182.237 265.01 181.645 264.306L182.253 263.714ZM67.7548 277.61L68.5548 276.89C69.4188 277.626 70.5228 278.698 71.0348 279.37L70.1868 280.234C69.6748 279.53 68.6188 278.394 67.7548 277.61ZM66.6828 281.562H69.7068V282.746H66.6828V281.562ZM68.7788 290.65L68.5388 289.45L68.8748 288.938L72.0588 286.698C72.1548 287.034 72.3308 287.514 72.4748 287.77C69.4668 289.978 69.0028 290.33 68.7788 290.65ZM68.7788 290.65C68.6668 290.346 68.3308 289.802 68.0908 289.546C68.4108 289.338 69.0188 288.794 69.0188 288.074V281.562H70.2188V289.178C70.2188 289.178 68.7788 290.17 68.7788 290.65ZM72.7948 277.018L73.8028 276.586C74.4268 277.434 75.0828 278.554 75.3228 279.306L74.2188 279.786C74.0108 279.034 73.3868 277.866 72.7948 277.018ZM78.3628 276.554L79.6108 276.954C79.0828 278.138 78.4588 279.466 77.9308 280.362L76.8588 279.978C77.3708 279.066 78.0108 277.594 78.3628 276.554ZM73.2748 280.842V283.754H78.7148V280.842H73.2748ZM72.1228 279.77H79.9308V284.842H72.1228V279.77ZM74.1548 284.57H75.3708C75.1468 287.77 74.5068 290.026 71.4668 291.274C71.3228 291.002 70.9868 290.57 70.7148 290.362C73.4988 289.306 73.9788 287.322 74.1548 284.57ZM76.7948 284.474H77.9788V289.434C77.9788 289.85 78.0428 289.914 78.4428 289.914C78.6188 289.914 79.5148 289.914 79.7388 289.914C80.1228 289.914 80.2028 289.674 80.2348 287.946C80.4908 288.154 80.9708 288.346 81.3068 288.426C81.1948 290.506 80.8908 291.05 79.8668 291.05C79.6268 291.05 78.5068 291.05 78.2668 291.05C77.0828 291.05 76.7948 290.682 76.7948 289.45V284.474ZM83.9148 277.53H88.5068V287.082H83.9148V285.962H87.3868V278.634H83.9148V277.53ZM83.9308 281.674H87.8668V282.762H83.9308V281.674ZM90.6828 277.226H96.0748V278.346H90.6828V277.226ZM90.6828 281.114H96.0748V282.218H90.6828V281.114ZM90.5868 285.05H96.0428V286.138H90.5868V285.05ZM83.2588 277.53H84.3788V288.57H83.2588V277.53ZM95.6268 277.226H96.8268V289.69C96.8268 290.442 96.6348 290.81 96.1228 291.018C95.6108 291.21 94.7308 291.226 93.3548 291.226C93.2908 290.906 93.0988 290.378 92.9228 290.058C93.9468 290.09 94.9548 290.074 95.2428 290.074C95.5308 290.058 95.6268 289.962 95.6268 289.674V277.226ZM89.9788 277.226H91.1628V282.938C91.1628 285.626 90.7628 289.162 87.8828 291.37C87.7068 291.13 87.2588 290.714 87.0028 290.554C89.7068 288.474 89.9788 285.434 89.9788 282.938V277.226Z" fill="#2D3342"/>
<path d="M71.2245 270.978V259.342H75.8154C76.698 259.342 77.4499 259.51 78.0711 259.847C78.6923 260.181 79.1658 260.645 79.4915 261.239C79.8211 261.83 79.9859 262.512 79.9859 263.285C79.9859 264.058 79.8192 264.739 79.4859 265.33C79.1525 265.921 78.6696 266.381 78.037 266.711C77.4082 267.041 76.6468 267.205 75.7529 267.205H72.8268V265.234H75.3552C75.8287 265.234 76.2188 265.152 76.5256 264.989C76.8362 264.823 77.0673 264.594 77.2188 264.302C77.3741 264.006 77.4518 263.667 77.4518 263.285C77.4518 262.898 77.3741 262.561 77.2188 262.273C77.0673 261.982 76.8362 261.756 76.5256 261.597C76.215 261.434 75.8211 261.353 75.3438 261.353H73.6847V270.978H71.2245ZM81.5839 270.978V259.342H86.1748C87.0536 259.342 87.8036 259.499 88.4248 259.813C89.0498 260.124 89.5252 260.565 89.8509 261.137C90.1805 261.705 90.3452 262.374 90.3452 263.143C90.3452 263.916 90.1786 264.58 89.8452 265.137C89.5119 265.69 89.0289 266.114 88.3964 266.41C87.7676 266.705 87.0062 266.853 86.1123 266.853H83.0384V264.876H85.7146C86.1843 264.876 86.5744 264.811 86.885 264.683C87.1956 264.554 87.4267 264.361 87.5782 264.103C87.7335 263.845 87.8111 263.525 87.8111 263.143C87.8111 262.756 87.7335 262.431 87.5782 262.166C87.4267 261.9 87.1937 261.7 86.8793 261.563C86.5687 261.423 86.1767 261.353 85.7032 261.353H84.0441V270.978H81.5839ZM87.868 265.683L90.76 270.978H88.0441L85.2146 265.683H87.868ZM102.777 265.16C102.777 266.429 102.537 267.508 102.055 268.398C101.578 269.289 100.927 269.969 100.101 270.438C99.2789 270.904 98.3547 271.137 97.3282 271.137C96.2941 271.137 95.3661 270.902 94.5441 270.433C93.7221 269.963 93.0725 269.283 92.5952 268.393C92.118 267.503 91.8793 266.425 91.8793 265.16C91.8793 263.891 92.118 262.811 92.5952 261.921C93.0725 261.031 93.7221 260.353 94.5441 259.887C95.3661 259.417 96.2941 259.183 97.3282 259.183C98.3547 259.183 99.2789 259.417 100.101 259.887C100.927 260.353 101.578 261.031 102.055 261.921C102.537 262.811 102.777 263.891 102.777 265.16ZM100.283 265.16C100.283 264.338 100.16 263.645 99.9134 263.08C99.671 262.516 99.3282 262.088 98.885 261.796C98.4418 261.505 97.9229 261.359 97.3282 261.359C96.7335 261.359 96.2146 261.505 95.7714 261.796C95.3282 262.088 94.9835 262.516 94.7373 263.08C94.4949 263.645 94.3736 264.338 94.3736 265.16C94.3736 265.982 94.4949 266.675 94.7373 267.239C94.9835 267.804 95.3282 268.232 95.7714 268.523C96.2146 268.815 96.7335 268.961 97.3282 268.961C97.9229 268.961 98.4418 268.815 98.885 268.523C99.3282 268.232 99.671 267.804 99.9134 267.239C100.16 266.675 100.283 265.982 100.283 265.16ZM114.867 263.416H112.378C112.332 263.094 112.24 262.808 112.099 262.558C111.959 262.304 111.779 262.088 111.56 261.91C111.34 261.732 111.086 261.595 110.798 261.501C110.514 261.406 110.206 261.359 109.872 261.359C109.27 261.359 108.745 261.508 108.298 261.808C107.851 262.103 107.505 262.535 107.259 263.103C107.012 263.667 106.889 264.353 106.889 265.16C106.889 265.989 107.012 266.686 107.259 267.251C107.509 267.815 107.857 268.241 108.304 268.529C108.751 268.817 109.268 268.961 109.855 268.961C110.185 268.961 110.49 268.917 110.77 268.83C111.054 268.743 111.306 268.616 111.526 268.45C111.745 268.279 111.927 268.073 112.071 267.83C112.219 267.588 112.321 267.311 112.378 267.001L114.867 267.012C114.802 267.546 114.641 268.061 114.384 268.558C114.13 269.05 113.787 269.491 113.355 269.881C112.927 270.268 112.416 270.575 111.821 270.802C111.23 271.025 110.562 271.137 109.815 271.137C108.778 271.137 107.849 270.902 107.031 270.433C106.217 269.963 105.573 269.283 105.099 268.393C104.63 267.503 104.395 266.425 104.395 265.16C104.395 263.891 104.634 262.811 105.111 261.921C105.588 261.031 106.236 260.353 107.054 259.887C107.872 259.417 108.793 259.183 109.815 259.183C110.49 259.183 111.115 259.277 111.69 259.467C112.27 259.656 112.783 259.933 113.23 260.296C113.677 260.656 114.041 261.097 114.321 261.62C114.605 262.143 114.787 262.741 114.867 263.416ZM116.188 261.37V259.342H125.744V261.37H122.182V270.978H119.75V261.37H116.188ZM137.48 265.16C137.48 266.429 137.24 267.508 136.759 268.398C136.281 269.289 135.63 269.969 134.804 270.438C133.982 270.904 133.058 271.137 132.031 271.137C130.997 271.137 130.069 270.902 129.247 270.433C128.425 269.963 127.776 269.283 127.298 268.393C126.821 267.503 126.582 266.425 126.582 265.16C126.582 263.891 126.821 262.811 127.298 261.921C127.776 261.031 128.425 260.353 129.247 259.887C130.069 259.417 130.997 259.183 132.031 259.183C133.058 259.183 133.982 259.417 134.804 259.887C135.63 260.353 136.281 261.031 136.759 261.921C137.24 262.811 137.48 263.891 137.48 265.16ZM134.986 265.16C134.986 264.338 134.863 263.645 134.617 263.08C134.374 262.516 134.031 262.088 133.588 261.796C133.145 261.505 132.626 261.359 132.031 261.359C131.437 261.359 130.918 261.505 130.474 261.796C130.031 262.088 129.687 262.516 129.44 263.08C129.198 263.645 129.077 264.338 129.077 265.16C129.077 265.982 129.198 266.675 129.44 267.239C129.687 267.804 130.031 268.232 130.474 268.523C130.918 268.815 131.437 268.961 132.031 268.961C132.626 268.961 133.145 268.815 133.588 268.523C134.031 268.232 134.374 267.804 134.617 267.239C134.863 266.675 134.986 265.982 134.986 265.16ZM139.303 270.978V259.342H143.894C144.772 259.342 145.522 259.499 146.144 259.813C146.769 260.124 147.244 260.565 147.57 261.137C147.899 261.705 148.064 262.374 148.064 263.143C148.064 263.916 147.897 264.58 147.564 265.137C147.231 265.69 146.748 266.114 146.115 266.41C145.486 266.705 144.725 266.853 143.831 266.853H140.757V264.876H143.433C143.903 264.876 144.293 264.811 144.604 264.683C144.914 264.554 145.145 264.361 145.297 264.103C145.452 263.845 145.53 263.525 145.53 263.143C145.53 262.756 145.452 262.431 145.297 262.166C145.145 261.9 144.912 261.7 144.598 261.563C144.287 261.423 143.895 261.353 143.422 261.353H141.763V270.978H139.303ZM145.587 265.683L148.479 270.978H145.763L142.933 265.683H145.587ZM152.263 259.342V270.978H149.803V259.342H152.263ZM164.02 259.342V270.978H161.895L156.832 263.654H156.747V270.978H154.287V259.342H156.446L161.469 266.66H161.571V259.342H164.02ZM173.769 263.103C173.689 262.827 173.577 262.582 173.433 262.37C173.289 262.154 173.113 261.972 172.905 261.825C172.7 261.673 172.466 261.558 172.2 261.478C171.939 261.398 171.649 261.359 171.331 261.359C170.736 261.359 170.214 261.506 169.763 261.802C169.316 262.097 168.967 262.527 168.717 263.092C168.467 263.652 168.342 264.338 168.342 265.148C168.342 265.959 168.466 266.648 168.712 267.217C168.958 267.785 169.306 268.219 169.757 268.518C170.208 268.813 170.74 268.961 171.354 268.961C171.911 268.961 172.386 268.862 172.78 268.666C173.178 268.465 173.481 268.183 173.689 267.819C173.901 267.455 174.007 267.025 174.007 266.529L174.507 266.603H171.507V264.751H176.376V266.217C176.376 267.239 176.161 268.118 175.729 268.853C175.297 269.584 174.702 270.148 173.945 270.546C173.187 270.94 172.32 271.137 171.342 271.137C170.251 271.137 169.293 270.897 168.467 270.416C167.642 269.931 166.998 269.243 166.536 268.353C166.077 267.459 165.848 266.398 165.848 265.171C165.848 264.228 165.984 263.387 166.257 262.648C166.534 261.906 166.92 261.277 167.416 260.762C167.912 260.247 168.49 259.855 169.149 259.586C169.808 259.317 170.522 259.183 171.291 259.183C171.95 259.183 172.564 259.279 173.132 259.472C173.7 259.662 174.204 259.931 174.644 260.279C175.087 260.628 175.448 261.042 175.729 261.523C176.009 262.001 176.189 262.527 176.269 263.103H173.769ZM196.685 259.342V270.978H194.224V259.342H196.685ZM198.266 261.37V259.342H207.823V261.37H204.26V270.978H201.828V261.37H198.266ZM219.132 263.416H216.644C216.598 263.094 216.505 262.808 216.365 262.558C216.225 262.304 216.045 262.088 215.825 261.91C215.606 261.732 215.352 261.595 215.064 261.501C214.78 261.406 214.471 261.359 214.138 261.359C213.536 261.359 213.011 261.508 212.564 261.808C212.117 262.103 211.77 262.535 211.524 263.103C211.278 263.667 211.155 264.353 211.155 265.16C211.155 265.989 211.278 266.686 211.524 267.251C211.774 267.815 212.123 268.241 212.57 268.529C213.017 268.817 213.534 268.961 214.121 268.961C214.45 268.961 214.755 268.917 215.036 268.83C215.32 268.743 215.572 268.616 215.791 268.45C216.011 268.279 216.193 268.073 216.337 267.83C216.484 267.588 216.587 267.311 216.644 267.001L219.132 267.012C219.068 267.546 218.907 268.061 218.649 268.558C218.395 269.05 218.053 269.491 217.621 269.881C217.193 270.268 216.681 270.575 216.087 270.802C215.496 271.025 214.827 271.137 214.081 271.137C213.043 271.137 212.115 270.902 211.297 270.433C210.483 269.963 209.839 269.283 209.365 268.393C208.895 267.503 208.661 266.425 208.661 265.16C208.661 263.891 208.899 262.811 209.376 261.921C209.854 261.031 210.501 260.353 211.32 259.887C212.138 259.417 213.058 259.183 214.081 259.183C214.755 259.183 215.38 259.277 215.956 259.467C216.536 259.656 217.049 259.933 217.496 260.296C217.943 260.656 218.306 261.097 218.587 261.62C218.871 262.143 219.053 262.741 219.132 263.416Z" fill="#6663CF"/>
<path d="M51.5139 277.631C50.8426 277.532 34.5908 275.363 35.2677 260.243C35.3299 258.853 35.5031 257.59 35.7724 256.444M51.5139 277.631C42.6061 277.043 38.0797 273.552 36.054 269.37M51.5139 277.631C52.5916 277.791 53.7031 277.779 54.8026 277.604M35.7724 256.444C36.1095 255.01 36.5971 253.761 37.2057 252.682M35.7724 256.444C34.5588 259.806 33.9236 264.971 36.054 269.37M37.2057 252.682C42.1953 243.843 55.3172 246.483 60.3139 252.682C62.2745 255.117 66.3837 261.291 64.3812 269.008C63.1259 273.846 59.0534 276.931 54.8026 277.604M37.2057 252.682C35.3071 255.35 32.5525 261.597 34.9076 267.263M36.054 269.37C35.5826 268.682 35.2045 267.977 34.9076 267.263M54.8026 277.604C49.1816 278.583 37.3332 277.883 34.9076 267.263" stroke="#6663CF" stroke-linecap="round"/>
<path d="M474.368 146.4V144.979L479.396 137.036H480.516V139.127H479.805L476.209 144.82V144.911H483.101V146.4H474.368ZM479.885 148.673V145.968L479.896 145.32V137.036H481.561V148.673H479.885ZM486.303 148.781C485.992 148.781 485.725 148.671 485.501 148.451C485.278 148.228 485.166 147.959 485.166 147.644C485.166 147.334 485.278 147.068 485.501 146.849C485.725 146.625 485.992 146.514 486.303 146.514C486.613 146.514 486.88 146.625 487.104 146.849C487.327 147.068 487.439 147.334 487.439 147.644C487.439 147.853 487.386 148.044 487.28 148.218C487.178 148.389 487.041 148.525 486.871 148.627C486.7 148.729 486.511 148.781 486.303 148.781ZM495.361 138.849H496.545V149.969H495.361V138.849ZM495.537 136.017L496.417 135.457C497.217 136.241 498.305 137.377 498.833 138.049L497.921 138.705C497.393 138.017 496.353 136.865 495.537 136.017ZM499.569 136.145H508.017V137.265H499.569V136.145ZM507.201 136.145H508.401V148.289C508.401 149.057 508.209 149.425 507.713 149.633C507.201 149.825 506.337 149.857 505.025 149.841C504.977 149.505 504.785 148.961 504.625 148.625C505.585 148.673 506.561 148.657 506.817 148.657C507.105 148.641 507.201 148.545 507.201 148.273V136.145ZM499.633 140.097H504.657V145.985H499.633V144.897H503.489V141.185H499.633V140.097ZM499.025 140.097H500.129V147.025H499.025V140.097ZM512.689 138.833V140.049H515.969V138.833H512.689ZM512.689 136.785V137.985H515.969V136.785H512.689ZM511.617 135.921H517.089V140.945H511.617V135.921ZM510.657 142.129H517.905V143.057H510.657V142.129ZM517.873 135.969H525.169V136.961H517.873V135.969ZM513.905 142.433H514.945V148.529L513.905 147.905V142.433ZM514.385 144.785H517.601V145.697H514.385V144.785ZM520.929 136.305L522.145 136.545C521.825 137.377 521.489 138.273 521.201 138.881L520.241 138.641C520.481 137.985 520.785 136.993 520.929 136.305ZM512.561 145.505C513.681 148.257 516.161 148.609 519.713 148.609C520.433 148.609 524.369 148.609 525.297 148.577C525.121 148.833 524.913 149.297 524.865 149.617H519.697C515.681 149.617 513.121 149.089 511.825 145.777L512.561 145.505ZM518.513 138.497H524.385V145.185H523.329V139.409H519.537V145.233H518.513V138.497ZM511.857 143.857L512.881 143.921C512.769 146.497 512.369 148.529 511.281 149.921C511.105 149.777 510.657 149.473 510.417 149.329C511.489 148.081 511.777 146.161 511.857 143.857ZM520.993 140.193H522.017C521.905 144.705 521.441 147.041 517.793 148.241C517.681 148.017 517.425 147.633 517.201 147.457C520.561 146.385 520.897 144.353 520.993 140.193ZM521.553 145.713L522.257 145.073C523.249 145.745 524.513 146.753 525.137 147.425L524.417 148.161C523.793 147.489 522.561 146.433 521.553 145.713ZM533.889 139.985C533.233 139.985 532.673 139.505 532.673 138.785C532.673 138.049 533.233 137.569 533.889 137.569C534.529 137.569 535.089 138.049 535.089 138.785C535.089 139.505 534.529 139.985 533.889 139.985ZM533.889 147.809C533.233 147.809 532.673 147.345 532.673 146.609C532.673 145.873 533.233 145.409 533.889 145.409C534.529 145.409 535.089 145.873 535.089 146.609C535.089 147.345 534.529 147.809 533.889 147.809ZM542.881 137.713H556.897V138.881H542.881V137.713ZM547.841 142.785H556.273V143.905H547.841V142.785ZM547.217 148.449H556.897V149.585H547.217V148.449ZM551.457 139.697H552.657V149.057H551.457V139.697ZM548.145 135.233L549.377 135.537C548.257 139.201 546.305 142.929 543.121 145.217C542.993 144.897 542.689 144.385 542.497 144.113C545.377 142.081 547.249 138.529 548.145 135.233ZM544.977 141.825H546.177V149.905H544.977V141.825ZM559.665 136.353H562.577V145.905H559.665V144.817H561.601V137.457H559.665V136.353ZM559.025 136.353H560.001V147.217H559.025V136.353ZM563.073 136.017H567.329V137.057H563.073V136.017ZM563.265 139.809H568.353V140.849H563.265V139.809ZM563.137 143.649H568.369V144.673H563.137V143.649ZM566.817 136.017H567.841C567.841 136.017 567.841 136.481 567.825 136.625C567.793 145.729 567.793 148.561 567.393 149.265C567.137 149.713 566.865 149.825 566.465 149.889C566.065 149.937 565.537 149.937 564.961 149.905C564.945 149.601 564.849 149.137 564.689 148.833C565.265 148.865 565.761 148.865 566.017 148.865C566.225 148.881 566.337 148.833 566.465 148.561C566.753 148.033 566.801 145.169 566.817 136.321V136.017ZM564.465 136.513H565.473V140.769C565.473 143.505 565.153 147.393 562.865 150.001C562.737 149.777 562.353 149.393 562.145 149.249C564.257 146.785 564.465 143.345 564.465 140.753V136.513ZM568.897 136.017H572.321V137.025H569.937V149.969H568.897V136.017ZM572.017 136.017H572.209L572.353 135.985L573.105 136.401C572.673 137.937 572.081 139.921 571.569 141.393C572.673 142.897 572.913 144.193 572.929 145.329C572.929 146.273 572.769 147.025 572.337 147.361C572.129 147.521 571.857 147.617 571.553 147.649C571.265 147.681 570.929 147.697 570.609 147.681C570.593 147.393 570.513 146.945 570.337 146.641C570.657 146.673 570.929 146.673 571.153 146.657C571.329 146.657 571.489 146.593 571.617 146.481C571.857 146.289 571.921 145.761 571.921 145.185C571.921 144.177 571.681 142.945 570.577 141.505C571.137 139.841 571.697 137.585 572.017 136.369V136.017ZM577.537 139.985V142.017H586.401V139.985H577.537ZM577.537 136.961V138.961H586.401V136.961H577.537ZM576.353 135.873H587.649V143.105H576.353V135.873ZM574.753 148.385H589.041V149.505H574.753V148.385ZM575.825 144.945H588.177V146.081H575.825V144.945ZM581.361 136.561H582.513V142.929H582.577V149.025H581.297V142.929H581.361V136.561ZM598.817 146.769H603.777V147.921H598.817V146.769ZM598.369 136.737H604.337V149.137H603.121V137.873H599.537V149.249H598.369V136.737ZM593.825 136.593H595.025V149.937H593.825V136.593ZM590.689 139.969H597.825V141.089H590.689V139.969ZM593.761 140.369L594.609 140.673C593.857 143.153 592.385 146.113 590.945 147.649C590.817 147.313 590.513 146.833 590.305 146.545C591.649 145.169 593.121 142.577 593.761 140.369ZM596.897 135.393L597.713 136.321C596.001 136.961 593.377 137.425 591.185 137.681C591.121 137.409 590.977 137.009 590.833 136.737C592.961 136.449 595.505 135.969 596.897 135.393ZM594.929 141.409C595.441 141.921 597.297 144.097 597.713 144.625L596.977 145.601C596.465 144.753 594.913 142.705 594.321 142.001L594.929 141.409ZM607.457 138.001H619.633V139.185H608.641V149.953H607.457V138.001ZM619.185 138.001H620.385V148.369C620.385 149.153 620.209 149.553 619.649 149.745C619.073 149.937 618.065 149.969 616.609 149.969C616.545 149.617 616.369 149.057 616.177 148.721C617.345 148.769 618.449 148.769 618.785 148.753C619.105 148.737 619.185 148.657 619.185 148.353V138.001ZM612.897 135.201L614.385 135.457C613.889 136.593 613.281 137.889 612.801 138.737L611.649 138.465C612.097 137.569 612.625 136.177 612.897 135.201ZM610.753 141.297H611.857V147.745H610.753V141.297ZM611.265 141.297H617.025V146.593H611.265V145.521H615.905V142.385H611.265V141.297ZM629.361 141.249H636.401V142.337H629.361V141.249ZM629.361 144.401H636.401V145.489H629.361V144.401ZM629.345 147.697H637.217V148.817H629.345V147.697ZM632.721 138.513H633.857V148.305H632.721V138.513ZM629.873 138.129H636.769V139.233H629.873V149.969H628.721V138.881L629.441 138.129H629.873ZM630.001 135.329L631.185 135.649C630.401 137.809 629.105 140.305 627.569 141.937C627.393 141.681 627.057 141.249 626.817 141.041C628.225 139.553 629.409 137.201 630.001 135.329ZM632.129 135.809L633.137 135.393C633.601 136.081 634.065 137.009 634.241 137.617L633.185 138.097C633.009 137.473 632.577 136.513 632.129 135.809ZM623.569 136.321L624.353 135.601C625.217 136.305 626.305 137.329 626.817 138.001L625.985 138.833C625.489 138.145 624.417 137.073 623.569 136.321ZM624.673 149.505L624.449 148.401L624.737 147.905L627.617 145.713C627.729 146.017 627.937 146.481 628.081 146.705C625.345 148.849 624.929 149.185 624.673 149.505ZM622.577 140.257H625.409V141.425H622.577V140.257ZM624.673 149.505C624.545 149.281 624.145 148.881 623.921 148.689C624.257 148.433 624.833 147.809 624.833 146.961V140.257H625.985V147.793C625.985 147.793 624.673 149.025 624.673 149.505Z" fill="#2D3342"/>
<path d="M478.772 158.319C478.206 158.219 464.499 156.051 465.069 140.93C465.122 139.541 465.268 138.277 465.495 137.131M478.772 158.319C471.259 157.73 467.441 154.24 465.733 150.057M478.772 158.319C479.681 158.479 480.619 158.466 481.546 158.292M465.495 137.131C465.78 135.697 466.191 134.448 466.704 133.37M465.495 137.131C464.472 140.493 463.936 145.658 465.733 150.057M466.704 133.37C470.913 124.53 481.98 127.171 486.195 133.37C487.849 135.804 491.315 141.978 489.626 149.696C488.567 154.533 485.132 157.619 481.546 158.292M466.704 133.37C465.103 136.037 462.779 142.285 464.766 147.95M465.733 150.057C465.335 149.369 465.016 148.664 464.766 147.95M481.546 158.292C476.805 159.27 466.812 158.571 464.766 147.95" stroke="#6663CF" stroke-linecap="round"/>
<path d="M518.699 211.142C517.987 211.142 517.347 211.006 516.779 210.733C516.215 210.456 515.764 210.078 515.427 209.597C515.09 209.115 514.91 208.566 514.887 207.949H516.591C516.633 208.449 516.855 208.86 517.256 209.182C517.658 209.504 518.139 209.665 518.699 209.665C519.146 209.665 519.542 209.562 519.887 209.358C520.235 209.15 520.508 208.864 520.705 208.5C520.906 208.136 521.006 207.722 521.006 207.256C521.006 206.782 520.904 206.36 520.699 205.989C520.495 205.617 520.213 205.326 519.853 205.114C519.497 204.901 519.088 204.794 518.626 204.79C518.273 204.79 517.919 204.85 517.563 204.972C517.207 205.093 516.919 205.252 516.699 205.449L515.091 205.21L515.745 199.347H522.143V200.852H517.205L516.836 204.108H516.904C517.131 203.888 517.432 203.705 517.807 203.557C518.186 203.409 518.591 203.335 519.023 203.335C519.732 203.335 520.362 203.504 520.915 203.841C521.472 204.178 521.91 204.638 522.228 205.222C522.55 205.801 522.709 206.468 522.705 207.222C522.709 207.975 522.538 208.648 522.194 209.239C521.853 209.83 521.379 210.295 520.773 210.636C520.171 210.973 519.48 211.142 518.699 211.142ZM526.28 211.091C525.97 211.091 525.703 210.981 525.479 210.761C525.256 210.538 525.144 210.269 525.144 209.955C525.144 209.644 525.256 209.379 525.479 209.159C525.703 208.936 525.97 208.824 526.28 208.824C526.591 208.824 526.858 208.936 527.081 209.159C527.305 209.379 527.417 209.644 527.417 209.955C527.417 210.163 527.364 210.354 527.258 210.528C527.155 210.699 527.019 210.835 526.849 210.937C526.678 211.04 526.489 211.091 526.28 211.091ZM549.919 205.335H551.135V212.279H549.919V205.335ZM547.343 203.143V204.695H553.391V203.143H547.343ZM546.175 202.231H554.623V205.623H546.175V202.231ZM544.751 206.951H555.471V208.039H545.951V211.543H544.751V206.951ZM554.879 206.951H556.095V210.295C556.095 210.919 555.967 211.255 555.471 211.431C554.959 211.623 554.143 211.623 552.895 211.623C552.831 211.303 552.655 210.855 552.479 210.535C553.439 210.567 554.303 210.567 554.559 210.551C554.799 210.535 554.879 210.471 554.879 210.295V206.951ZM549.807 197.543H551.039V200.455H549.807V197.543ZM543.695 200.023H557.071V203.479H555.871V201.095H544.863V203.479H543.695V200.023ZM545.023 198.135L546.095 197.703C546.623 198.279 547.183 199.047 547.455 199.575L546.303 200.103C546.063 199.559 545.519 198.727 545.023 198.135ZM554.527 197.671L555.775 198.103C555.247 198.807 554.639 199.543 554.159 200.039L553.183 199.639C553.631 199.111 554.223 198.247 554.527 197.671ZM566.607 206.231H567.791V210.199C567.791 210.679 567.935 210.759 568.735 210.759C569.103 210.759 570.927 210.759 571.423 210.759C572.175 210.759 572.303 210.455 572.367 208.311C572.655 208.519 573.151 208.695 573.471 208.775C573.327 211.271 572.975 211.879 571.503 211.879C571.151 211.879 568.975 211.879 568.639 211.879C567.071 211.879 566.607 211.543 566.607 210.199V206.231ZM565.551 201.143H566.815C566.639 207.223 566.223 210.695 559.759 212.279C559.647 211.975 559.311 211.495 559.071 211.239C565.199 209.863 565.423 206.807 565.551 201.143ZM561.167 198.439H571.439V207.591H570.159V199.655H562.415V207.591H561.167V198.439ZM575.807 201.159H576.991V212.279H575.807V201.159ZM575.983 198.327L576.863 197.767C577.663 198.551 578.751 199.687 579.279 200.359L578.367 201.015C577.839 200.327 576.799 199.175 575.983 198.327ZM580.015 198.455H588.463V199.575H580.015V198.455ZM587.647 198.455H588.847V210.599C588.847 211.367 588.655 211.735 588.159 211.943C587.647 212.135 586.783 212.167 585.471 212.151C585.423 211.815 585.231 211.271 585.071 210.935C586.031 210.983 587.007 210.967 587.263 210.967C587.551 210.951 587.647 210.855 587.647 210.583V198.455ZM580.079 202.407H585.103V208.295H580.079V207.207H583.935V203.495H580.079V202.407ZM579.471 202.407H580.575V209.335H579.471V202.407ZM593.135 201.143V202.359H596.415V201.143H593.135ZM593.135 199.095V200.295H596.415V199.095H593.135ZM592.063 198.231H597.535V203.255H592.063V198.231ZM591.103 204.439H598.351V205.367H591.103V204.439ZM598.319 198.279H605.615V199.271H598.319V198.279ZM594.351 204.743H595.391V210.839L594.351 210.215V204.743ZM594.831 207.095H598.047V208.007H594.831V207.095ZM601.375 198.615L602.591 198.855C602.271 199.687 601.935 200.583 601.647 201.191L600.687 200.951C600.927 200.295 601.231 199.303 601.375 198.615ZM593.007 207.815C594.127 210.567 596.607 210.919 600.159 210.919C600.879 210.919 604.815 210.919 605.743 210.887C605.567 211.143 605.359 211.607 605.311 211.927H600.143C596.127 211.927 593.567 211.399 592.271 208.087L593.007 207.815ZM598.959 200.807H604.831V207.495H603.775V201.719H599.983V207.543H598.959V200.807ZM592.303 206.167L593.327 206.231C593.215 208.807 592.815 210.839 591.727 212.231C591.551 212.087 591.103 211.783 590.863 211.639C591.935 210.391 592.223 208.471 592.303 206.167ZM601.439 202.503H602.463C602.351 207.015 601.887 209.351 598.239 210.551C598.127 210.327 597.871 209.943 597.647 209.767C601.007 208.695 601.343 206.663 601.439 202.503ZM601.999 208.023L602.703 207.383C603.695 208.055 604.959 209.063 605.583 209.735L604.863 210.471C604.239 209.799 603.007 208.743 601.999 208.023Z" fill="#2D3342"/>
<path d="M521.734 219.631C520.978 219.532 502.666 217.363 503.429 202.243C503.499 200.853 503.694 199.59 503.997 198.444M521.734 219.631C511.697 219.043 506.597 215.552 504.315 211.37M521.734 219.631C522.949 219.791 524.201 219.779 525.44 219.604M503.997 198.444C504.377 197.01 504.927 195.761 505.612 194.682M503.997 198.444C502.63 201.806 501.914 206.971 504.315 211.37M505.612 194.682C511.234 185.843 526.02 188.483 531.65 194.682C533.859 197.117 538.489 203.291 536.233 211.008C534.818 215.846 530.23 218.931 525.44 219.604M505.612 194.682C503.473 197.35 500.369 203.597 503.023 209.263M504.315 211.37C503.783 210.682 503.357 209.977 503.023 209.263M525.44 219.604C519.106 220.583 505.756 219.883 503.023 209.263" stroke="#6663CF" stroke-linecap="round"/>
<defs>
<linearGradient id="paint0_linear_941_6163" x1="327.81" y1="9" x2="407.468" y2="98.5509" gradientUnits="userSpaceOnUse">
<stop stop-color="#5955B3"/>
<stop offset="1" stop-color="#6563CE"/>
</linearGradient>
</defs>
</svg>
