<svg width="751" height="408" viewBox="0 0 751 408" fill="none" xmlns="http://www.w3.org/2000/svg">
<rect width="751" height="408" rx="5" fill="white"/>
<path opacity="0.2" fill-rule="evenodd" clip-rule="evenodd" d="M750.693 388.036C750.674 399.024 741.793 407.934 730.816 408H434.842C447.376 373.077 499.731 303.231 608.883 303.231C718.034 303.231 748.903 248.907 750.693 221.744L750.693 388C750.693 388.012 750.693 388.024 750.693 388.036Z" fill="#79A4E2"/>
<path opacity="0.2" fill-rule="evenodd" clip-rule="evenodd" d="M210.763 0C208.095 18.0677 191.746 68.875 124.398 91.9214C59.0545 114.281 16.0082 106.592 0.000500549 99.3648L0.000494162 20C0.000493273 8.95433 8.95479 1.91637e-05 20.0005 1.81148e-05L210.763 0Z" fill="#89AFFF"/>
<path d="M89.52 50.8H126.56V56.04H89.52V50.8ZM147.84 40.12C144.6 45.08 138.36 50.76 131.6 54.6C130.92 53.44 129.52 51.64 128.44 50.64C135.56 46.92 142.08 40.32 145 35.12H150.2C154.52 41.72 161.08 47.24 167.68 50.12C166.4 51.36 165.32 53 164.4 54.52C157.96 50.96 151.2 45.08 147.84 40.12ZM145.28 48.68H150.4V72.6H145.28V48.68ZM169.84 41.44H206.12V46.04H169.84V41.44ZM183.2 51.24H198.52V55.8H183.2V51.24ZM196.76 51.24H201.72C201.72 51.24 201.68 52.68 201.56 53.32C200.84 64.28 200 68.8 198.4 70.56C197.2 71.84 195.92 72.24 194.08 72.44C192.56 72.56 189.88 72.52 187.2 72.44C187.12 71.04 186.4 69.04 185.48 67.72C188.24 67.96 191.08 67.96 192.24 67.96C193.12 67.96 193.68 67.92 194.2 67.48C195.4 66.44 196.16 61.88 196.72 52L196.76 51.24ZM181.4 44.16H186.8C186.2 54.88 185.12 66.56 172.56 72.88C171.84 71.6 170.4 69.84 169.12 68.84C180.76 63.44 181 53.28 181.4 44.16ZM185.28 34.84H190.24V43.24H185.28V34.84ZM221.48 37.08H246.08V41.28H221.48V37.08ZM224.8 60.4C228.68 65.16 236.8 67.36 247.4 67.84C246.36 68.96 245.12 71 244.52 72.32C233.44 71.4 225.48 68.4 220.6 61.84L224.8 60.4ZM226.48 53.4V56.36H240.48V53.4H226.48ZM226.48 47.2V50.08H240.48V47.2H226.48ZM222.04 43.68H245.12V59.84H222.04V43.68ZM231.28 38.32H236.04V54.84C236.04 62.4 233.4 69.24 221.84 72.64C221.24 71.56 219.84 69.68 218.84 68.72C230.28 66.44 231.28 60.8 231.28 54.76V38.32ZM217.36 35.2L221.88 36.56C219.52 43.36 215.64 50.6 211.52 55.2C211.08 54.04 209.76 51.4 208.92 50.24C212.32 46.56 215.48 40.88 217.36 35.2ZM213.6 46.24L218.16 41.68L218.2 41.72V72.56H213.6V46.24ZM253.72 41.52H266V68.48H253.72V64.24H261.64V45.72H253.72V41.52ZM250.92 41.52H255.28V71.44H250.92V41.52ZM253.52 52.2H263.76V56.36H253.52V52.2ZM256.6 35L261.84 35.76C260.92 38.48 259.92 41.32 259.12 43.2L255.28 42.36C255.84 40.28 256.4 37.2 256.6 35ZM271.28 41.24H282.96V45.6H271.28V41.24ZM281.32 41.24H285.76C285.76 41.24 285.76 42.8 285.72 43.4C285.2 61.4 284.72 67.76 283.08 69.88C281.96 71.44 280.84 71.88 279.2 72.12C277.68 72.36 275.24 72.32 272.92 72.2C272.84 70.88 272.2 68.84 271.32 67.56C273.92 67.76 276.32 67.8 277.32 67.8C278.12 67.8 278.56 67.64 279.08 67.08C280.36 65.72 280.88 58.84 281.32 42.16V41.24ZM271.4 35.04L276 36.12C274.44 42.04 271.84 48.12 269.12 51.96C268.24 51.16 266.28 49.8 265.16 49.16C267.84 45.8 270.12 40.36 271.4 35.04ZM269.44 52.76L273.2 50.64C275.16 53.4 277.8 57.24 279.04 59.6L274.96 62.08C273.88 59.64 271.36 55.72 269.44 52.76ZM306.8 43.68H322.84V48.2H306.8V43.68ZM320.88 43.68H325.48C325.48 43.68 325.44 45.24 325.44 45.8C325.08 62.32 324.76 68.24 323.44 70.08C322.48 71.48 321.52 71.92 320.08 72.16C318.8 72.36 316.72 72.32 314.64 72.28C314.56 70.96 314 68.96 313.2 67.72C315.2 67.84 316.96 67.88 317.84 67.88C318.48 67.88 318.92 67.72 319.28 67.2C320.28 65.96 320.6 60.16 320.88 44.64V43.68ZM312.12 35.08H316.8C316.76 51.76 316.72 65.2 306 72.64C305.28 71.44 303.8 69.8 302.64 69C312.56 62.44 312.08 50.68 312.12 35.08ZM291.76 36.72H305.72V62.8H301.28V41.04H296V65.32H291.76V36.72ZM288.96 63.76C293.56 62.96 300.76 61.48 307.48 60L307.92 64.32C301.6 65.88 294.8 67.48 289.76 68.68L288.96 63.76ZM294 45.04H303.52V49.24H294V45.04ZM294 53.36H303.52V57.56H294V53.36ZM359.28 34.96L362.76 38.92C354.52 41.04 343 42.04 333.2 42.36C333.08 41.16 332.48 39.2 332.04 38.16C341.68 37.76 352.72 36.72 359.28 34.96ZM332.4 46.32H364.04V50.92H332.4V46.32ZM329.64 55.64H366.4V60.32H329.64V55.64ZM345.56 40.6H350.56V66.88C350.56 69.72 349.84 71 347.92 71.72C346 72.48 343.08 72.6 339 72.56C338.68 71.2 337.76 69.04 337.04 67.8C340 67.92 343.36 67.88 344.28 67.88C345.2 67.88 345.56 67.6 345.56 66.8V40.6Z" fill="url(#paint0_linear_941_6208)"/>
<path d="M71.11 165.416H83.462V166.616H71.11V165.416ZM82.966 165.416H84.214C84.214 165.416 84.214 165.864 84.198 166.04C83.958 172.456 83.734 174.728 83.094 175.464C82.742 175.912 82.358 176.056 81.782 176.104C81.222 176.152 80.198 176.136 79.222 176.072C79.19 175.72 79.03 175.192 78.806 174.824C79.878 174.936 80.886 174.936 81.286 174.936C81.622 174.936 81.798 174.888 81.99 174.696C82.502 174.184 82.758 171.816 82.966 165.672V165.416ZM76.374 161.592H77.59V163.496C77.59 167.08 77.206 172.36 71.622 176.072C71.43 175.784 70.982 175.384 70.678 175.176C76.038 171.704 76.374 166.808 76.374 163.496V161.592ZM72.39 162.456L73.43 162.008C74.07 162.712 74.822 163.72 75.158 164.376L74.07 164.888C73.766 164.248 73.03 163.208 72.39 162.456ZM77.782 169.08L78.774 168.584C79.622 169.528 80.598 170.824 81.014 171.672L79.958 172.232C79.558 171.384 78.598 170.04 77.782 169.08ZM93.206 167.016H94.454V174.744C94.454 175.544 94.246 175.912 93.622 176.088C92.998 176.28 91.926 176.296 90.31 176.296C90.23 175.944 90.006 175.432 89.814 175.08C91.142 175.128 92.374 175.128 92.742 175.112C93.094 175.096 93.206 175 93.206 174.712V167.016ZM87.382 162.824H98.934V163.992H87.382V162.824ZM98.502 162.824H98.822L99.11 162.744L100.038 163.416C98.614 165.112 96.358 167 94.374 168.12C94.198 167.864 93.814 167.464 93.558 167.288C95.382 166.28 97.494 164.44 98.502 163.112V162.824ZM102.918 162.696H116.694V163.912H102.918V162.696ZM110.758 167.352L111.654 166.584C113.526 167.8 115.974 169.608 117.158 170.84L116.182 171.752C115.062 170.52 112.662 168.648 110.758 167.352ZM110.454 163.112L111.766 163.592C109.942 166.904 106.95 170.072 103.334 171.976C103.142 171.672 102.758 171.192 102.518 170.936C105.99 169.192 108.966 166.12 110.454 163.112ZM109.142 166.312L110.438 165.032V176.264H109.142V166.312ZM128.678 162.168L129.302 161.464C130.102 161.72 131.094 162.168 131.606 162.568L130.95 163.368C130.47 162.952 129.494 162.456 128.678 162.168ZM120.406 163.192H132.87V164.184H120.406V163.192ZM121.542 165.272H126.454V166.12H121.542V165.272ZM121.798 167.208H122.806V170.12H121.798V167.208ZM130.294 164.952L131.414 165.224C130.518 167.88 128.902 170.04 126.95 171.432C126.774 171.208 126.326 170.808 126.086 170.6C128.022 169.352 129.526 167.352 130.294 164.952ZM126.518 161.56H127.67C127.846 166.488 130.022 170.488 131.654 170.472C132.054 170.472 132.214 169.896 132.294 168.44C132.534 168.664 132.934 168.872 133.238 168.984C133.046 171.016 132.614 171.576 131.59 171.576C129.062 171.576 126.774 166.936 126.518 161.56ZM121.798 167.208H126.198V170.568H121.798V169.704H125.174V168.056H121.798V167.208ZM122.598 172.04H123.782V174.52C123.782 174.92 123.942 175 124.79 175C125.19 175 127.19 175 127.718 175C128.422 175 128.534 174.808 128.598 173.32C128.854 173.512 129.35 173.672 129.686 173.752C129.526 175.64 129.174 176.088 127.814 176.088C127.446 176.088 125.062 176.088 124.71 176.088C123.014 176.088 122.598 175.768 122.598 174.536V172.04ZM123.846 171.512L124.614 170.84C125.622 171.304 126.806 172.072 127.366 172.696L126.55 173.464C126.006 172.84 124.838 172.024 123.846 171.512ZM129.366 172.52L130.342 171.976C131.494 172.872 132.694 174.2 133.19 175.192L132.118 175.784C131.67 174.808 130.518 173.448 129.366 172.52ZM120.566 172.136L121.622 172.504C121.222 173.8 120.566 175.144 119.43 175.96L118.438 175.288C119.51 174.552 120.214 173.336 120.566 172.136ZM119.846 163.192H120.966V165.608C120.966 167.464 120.678 170.088 119.206 171.896C119.046 171.672 118.566 171.272 118.326 171.144C119.67 169.48 119.846 167.224 119.846 165.592V163.192ZM134.614 162.616H142.822V163.704H134.614V162.616ZM135.094 170.232H142.358V171.32H135.094V170.232ZM138.15 168.328H139.334V174.6L138.15 174.776V168.328ZM134.438 174.6C136.518 174.376 139.766 173.944 142.854 173.528L142.886 174.648C139.91 175.064 136.758 175.512 134.63 175.8L134.438 174.6ZM134.582 166.968C136.406 166.904 139.222 166.776 141.974 166.632L141.942 167.688C139.318 167.848 136.582 167.992 134.678 168.104L134.582 166.968ZM139.686 165.016L140.582 164.52C141.558 165.64 142.678 167.144 143.142 168.104L142.182 168.68C141.718 167.704 140.646 166.152 139.686 165.016ZM137.382 163.192L138.678 163.448C138.118 164.856 137.43 166.616 136.838 167.72L135.782 167.464C136.342 166.328 137.03 164.456 137.382 163.192ZM143.526 163.496H144.678V172.36H143.526V163.496ZM147.302 162.024H148.486V174.664C148.486 175.496 148.294 175.864 147.766 176.056C147.238 176.264 146.262 176.296 144.966 176.296C144.902 175.96 144.726 175.4 144.55 175.032C145.622 175.08 146.614 175.064 146.934 175.064C147.222 175.048 147.302 174.968 147.302 174.68V162.024ZM153.302 166.28H162.422V167.304H153.302V166.28ZM158.614 166.712C159.398 168.76 160.966 170.792 162.662 171.72C162.406 171.928 162.054 172.328 161.862 172.616C160.166 171.496 158.63 169.256 157.814 166.968L158.614 166.712ZM157.19 164.04H158.326V173.576H157.19V164.04ZM156.918 166.632L157.766 166.904C156.934 169.24 155.398 171.496 153.734 172.664C153.542 172.392 153.206 172.024 152.966 171.816C154.598 170.84 156.134 168.744 156.918 166.632ZM151.158 162.328H164.502V176.328H163.254V163.448H152.342V176.328H151.158V162.328ZM151.83 174.44H163.75V175.56H151.83V174.44ZM176.326 162.312L177.014 161.592C177.894 161.912 178.934 162.488 179.446 162.984L178.726 163.768C178.23 163.288 177.206 162.68 176.326 162.312ZM166.822 163.576H180.806V164.632H166.822V163.576ZM166.614 170.328C168.406 170.184 171.142 169.912 173.798 169.624V170.632C171.238 170.904 168.566 171.192 166.71 171.4L166.614 170.328ZM178.294 165.288L179.43 165.576C178.422 168.136 176.63 170.168 174.566 171.464C174.39 171.256 173.942 170.824 173.686 170.632C175.734 169.48 177.414 167.592 178.294 165.288ZM173.814 161.56H175.014C175.19 166.472 177.366 170.488 179.35 170.472C179.814 170.472 179.974 169.96 180.054 168.504C180.31 168.728 180.726 168.952 181.03 169.064C180.822 171.08 180.374 171.624 179.286 171.624C176.406 171.624 174.054 166.968 173.814 161.56ZM170.086 172.296H171.27V174.536C171.27 174.952 171.446 175.032 172.422 175.032C172.886 175.032 175.222 175.032 175.846 175.032C176.63 175.032 176.758 174.84 176.838 173.48C177.094 173.64 177.574 173.816 177.894 173.88C177.75 175.672 177.366 176.088 175.942 176.088C175.542 176.088 172.742 176.088 172.358 176.088C170.55 176.088 170.086 175.768 170.086 174.552V172.296ZM172.246 171.96L172.982 171.256C173.99 171.736 175.19 172.536 175.782 173.16L174.998 173.928C174.438 173.304 173.27 172.472 172.246 171.96ZM177.942 172.472L179.03 172.104C179.798 173.128 180.614 174.488 180.934 175.384L179.782 175.816C179.478 174.92 178.694 173.512 177.942 172.472ZM168.182 172.12L169.238 172.536C168.902 173.608 168.39 175 167.75 175.896L166.678 175.288C167.334 174.472 167.878 173.16 168.182 172.12ZM168.966 166.456V167.976H171.862V166.456H168.966ZM167.878 165.608H172.998V168.84H167.878V165.608ZM184.326 176.712L183.958 175.88C185.27 175.336 185.99 174.52 185.99 173.32L185.686 171.96L186.55 173.176C186.326 173.464 186.006 173.544 185.702 173.544C185.046 173.544 184.502 173.16 184.502 172.392C184.502 171.64 185.078 171.24 185.718 171.24C186.614 171.24 187.094 171.976 187.094 173.096C187.094 174.824 186.006 176.136 184.326 176.712ZM198.694 162.744H212.934V163.96H198.694V162.744ZM204.854 163.704H206.118V176.264H204.854V163.704ZM205.558 167.496L206.342 166.568C208.262 167.496 210.79 168.952 212.07 169.912L211.222 171C209.99 170.008 207.494 168.488 205.558 167.496ZM219.494 168.68H223.878V169.672H219.494V168.68ZM219.494 171.464H223.926V172.456H219.494V171.464ZM216.198 174.328H227.494V175.448H216.198V174.328ZM215.462 165.784H228.15V176.296H226.934V166.904H216.63V176.296H215.462V165.784ZM218.934 166.488H220.022V174.84H218.934V166.488ZM223.414 166.488H224.518V174.792H223.414V166.488ZM221.014 163.16L222.406 163.48C222.07 164.552 221.734 165.784 221.414 166.584L220.326 166.28C220.582 165.416 220.902 164.088 221.014 163.16ZM214.742 162.632H228.918V163.784H214.742V162.632ZM230.742 168.616H244.902V169.704H230.742V168.616ZM237.862 171.48H243.846V172.536H237.862V171.48ZM237.334 169.096H238.55V175.16H237.334V169.096ZM234.198 171.704C235.174 174.328 237.286 174.824 240.422 174.84C241.03 174.84 244.374 174.84 245.206 174.824C245.03 175.096 244.838 175.624 244.774 175.976H240.374C236.63 175.976 234.454 175.304 233.206 172.072L234.198 171.704ZM233.51 170.216L234.71 170.392C234.198 173.048 233.046 175.032 231.286 176.312C231.11 176.088 230.646 175.656 230.374 175.464C232.07 174.36 233.094 172.568 233.51 170.216ZM233.59 165.304V166.616H241.926V165.304H233.59ZM233.59 163.144V164.44H241.926V163.144H233.59ZM232.422 162.232H243.142V167.528H232.422V162.232ZM246.518 168.104H261.158V169.416H246.518V168.104ZM344.326 176.712L343.958 175.88C345.27 175.336 345.99 174.52 345.99 173.32L345.686 171.96L346.55 173.176C346.326 173.464 346.006 173.544 345.702 173.544C345.046 173.544 344.502 173.16 344.502 172.392C344.502 171.64 345.078 171.24 345.718 171.24C346.614 171.24 347.094 171.976 347.094 173.096C347.094 174.824 346.006 176.136 344.326 176.712ZM369.75 163.064H370.998V174.568C370.998 175.432 370.79 175.848 370.166 176.04C369.526 176.248 368.406 176.264 366.822 176.264C366.742 175.912 366.502 175.32 366.31 174.968C367.606 175.032 368.902 175.016 369.286 175C369.638 174.984 369.75 174.872 369.75 174.536V163.064ZM360.342 166.264H361.51V173.512H360.342V166.264ZM360.838 166.264H366.902V172.232H360.838V171.08H365.702V167.4H360.838V166.264ZM358.694 162.696H372.966V163.912H358.694V162.696ZM379.638 164.088L380.71 163.56C381.782 164.728 382.806 166.312 383.27 167.4L382.118 168.024C381.702 166.92 380.662 165.272 379.638 164.088ZM374.374 173.304C376.006 172.664 378.566 171.576 380.966 170.52L381.238 171.688C379.014 172.712 376.582 173.784 374.806 174.552L374.374 173.304ZM383.974 171.192L384.902 170.408C386.422 171.912 388.406 173.992 389.35 175.304L388.326 176.248C387.43 174.92 385.51 172.76 383.974 171.192ZM386.198 162.392L387.494 162.52C386.678 169.912 384.806 173.992 379.206 176.328C379.03 176.072 378.55 175.544 378.246 175.288C383.782 173.272 385.478 169.352 386.198 162.392ZM376.326 162.44L377.558 162.392L377.83 172.968L376.598 173.016L376.326 162.44ZM70.854 181.84H78.342V182.816H70.854V181.84ZM70.598 186.176H78.438V187.136H70.598V186.176ZM71.206 183.984H78.022V184.928H71.206V183.984ZM79.158 181.232H83.782V182.272H80.31V189.168H79.158V181.232ZM83.542 181.232H83.782L83.974 181.184L84.806 181.696C84.214 182.528 83.494 183.504 82.838 184.304C84.198 185.152 84.662 185.92 84.678 186.64C84.694 187.328 84.406 187.776 83.894 188.064C83.622 188.208 83.238 188.288 82.934 188.336C82.374 188.384 81.686 188.384 81.062 188.336C81.046 188.032 80.886 187.6 80.678 187.312C81.366 187.392 81.958 187.392 82.422 187.36C82.646 187.344 82.902 187.296 83.078 187.232C83.366 187.12 83.494 186.896 83.494 186.544C83.478 185.968 82.966 185.264 81.542 184.464C82.294 183.472 83.078 182.272 83.542 181.456V181.232ZM74.182 180.56H75.398V185.312C75.398 186.592 74.646 188.752 71.75 189.888C71.558 189.648 71.19 189.248 70.918 189.024C73.526 188.144 74.182 186.336 74.182 185.296V180.56ZM77.142 188.56H78.39V195.264H77.142V188.56ZM72.214 189.824H82.95V190.912H73.414V194.416H72.214V189.824ZM82.438 189.824H83.654V193.104C83.654 193.712 83.51 194.032 82.998 194.208C82.486 194.384 81.638 194.384 80.294 194.384C80.214 194.064 80.038 193.648 79.878 193.344C80.886 193.376 81.83 193.376 82.102 193.36C82.374 193.344 82.438 193.28 82.438 193.088V189.824ZM93.27 184.192H100.038V185.328H93.27V184.192ZM99.526 184.192H100.678C100.678 184.192 100.662 184.64 100.662 184.8C100.502 191.568 100.358 193.856 99.83 194.544C99.51 194.976 99.174 195.104 98.662 195.152C98.166 195.2 97.302 195.184 96.454 195.152C96.422 194.8 96.294 194.304 96.086 194C97.014 194.064 97.846 194.064 98.182 194.064C98.454 194.08 98.63 194.032 98.774 193.824C99.206 193.328 99.382 190.992 99.526 184.448V184.192ZM95.926 180.576H97.094C97.078 186.704 97.062 192.4 92.614 195.312C92.438 195.024 92.038 194.624 91.734 194.432C96.006 191.776 95.91 186.4 95.926 180.576ZM87.51 181.344H92.726V191.76H91.606V182.448H88.582V192.784H87.51V181.344ZM86.358 192.496C88.134 192.144 90.95 191.552 93.606 190.96L93.718 192.048C91.174 192.656 88.486 193.28 86.566 193.712L86.358 192.496ZM88.07 184.784H92.134V185.872H88.07V184.784ZM88.07 188.208H92.134V189.28H88.07V188.208ZM109.302 180.576L110.406 180.848C109.782 182.56 108.742 184.192 107.622 185.28C107.446 185.072 106.998 184.688 106.726 184.512C107.814 183.568 108.758 182.112 109.302 180.576ZM109.238 184.608L110.358 184.896C109.862 186.16 109.03 187.408 108.23 188.24C108.006 188.064 107.526 187.76 107.254 187.616C108.086 186.848 108.806 185.728 109.238 184.608ZM109.142 182.144H116.086V183.2H108.726L109.142 182.144ZM111.494 182.864H112.646V188.432C112.646 189.04 112.534 189.36 112.086 189.536C111.67 189.712 111.014 189.728 110.006 189.728C109.942 189.408 109.782 188.96 109.606 188.656C110.358 188.688 111.03 188.688 111.238 188.672C111.446 188.656 111.494 188.608 111.494 188.432V182.864ZM113.526 184.96L114.518 184.528C115.302 185.568 116.086 186.976 116.422 187.904L115.382 188.4C115.062 187.456 114.278 186 113.526 184.96ZM115.75 182.144H115.942L116.134 182.112L116.966 182.32C116.566 183.328 116.07 184.496 115.686 185.2L114.646 184.992C115.014 184.32 115.446 183.216 115.75 182.32V182.144ZM106.598 190.512H107.782V193.408C107.782 193.84 107.942 193.92 108.79 193.92C109.19 193.92 111.19 193.92 111.718 193.92C112.422 193.92 112.534 193.712 112.614 192.128C112.87 192.336 113.35 192.512 113.686 192.592C113.542 194.528 113.174 195.008 111.798 195.008C111.43 195.008 109.046 195.008 108.694 195.008C107.03 195.008 106.598 194.672 106.598 193.408V190.512ZM107.974 190.032L108.774 189.312C109.798 189.808 111.03 190.624 111.606 191.264L110.742 192.048C110.198 191.408 109.014 190.544 107.974 190.032ZM113.238 191.008L114.23 190.448C115.414 191.456 116.662 192.896 117.158 193.984L116.086 194.592C115.622 193.536 114.438 192.032 113.238 191.008ZM104.646 190.704L105.718 191.056C105.318 192.496 104.694 193.92 103.43 194.768L102.438 194.08C103.622 193.328 104.31 192.048 104.646 190.704ZM106.182 180.56L107.254 180.928C106.214 182.912 104.598 184.88 103.046 186.144C102.902 185.904 102.502 185.424 102.262 185.216C103.766 184.08 105.27 182.32 106.182 180.56ZM104.71 183.568L105.846 182.432L105.862 182.448V189.712H104.71V183.568ZM125.174 181.696H126.358V186.672H125.174V181.696ZM118.63 189.696H133.014V190.784H118.63V189.696ZM122.342 187.664H123.526V189.632C123.526 191.648 123.03 193.872 119.142 195.264C118.982 194.992 118.63 194.544 118.374 194.32C121.942 193.088 122.342 191.232 122.342 189.6V187.664ZM128.054 187.664H129.27V195.296H128.054V187.664ZM119.43 181.328H132.086V182.368H119.43V181.328ZM120.038 183.776H131.558V184.752H120.038V183.776ZM118.774 186.208H132.822V187.264H118.774V186.208ZM140.982 189.44H147.174V190.288H140.982V189.44ZM139.286 181.584H148.662V182.512H139.286V181.584ZM139.686 183.52H148.278V184.384H139.686V183.52ZM138.758 185.488H149.19V186.416H138.758V185.488ZM140.982 191.504H147.222V192.384H140.982V191.504ZM140.23 187.328H147.286V188.272H141.35V195.264H140.23V187.328ZM146.806 187.328H147.942V193.936C147.942 194.56 147.83 194.88 147.382 195.04C146.918 195.216 146.198 195.216 145.078 195.216C145.03 194.928 144.87 194.48 144.71 194.192C145.526 194.208 146.294 194.208 146.502 194.192C146.726 194.192 146.806 194.128 146.806 193.92V187.328ZM143.286 180.56H144.47V186.048H143.286V180.56ZM135.206 181.568L135.878 180.704C136.886 181.136 138.134 181.856 138.758 182.416L138.07 183.392C137.462 182.816 136.23 182.048 135.206 181.568ZM134.406 185.92L135.062 185.024C136.086 185.408 137.382 186.096 138.022 186.624L137.334 187.616C136.71 187.072 135.446 186.352 134.406 185.92ZM134.886 194.288C135.702 193.056 136.87 190.928 137.734 189.104L138.646 189.84C137.862 191.536 136.806 193.568 135.926 195.056L134.886 194.288ZM151.046 187.6H163.75V188.672H151.046V187.6ZM157.814 190.64H162.886V191.696H157.814V190.64ZM163.462 187.6H163.67L163.862 187.552L164.71 187.776C164.326 188.72 163.83 189.776 163.398 190.448L162.342 190.176C162.726 189.568 163.19 188.592 163.462 187.76V187.6ZM154.31 190.72C155.126 193.472 156.982 194 160.054 194.016C160.662 194.016 164.374 194.016 165.206 194C165.03 194.272 164.838 194.784 164.774 195.12H160.022C156.31 195.12 154.39 194.416 153.302 191.072L154.31 190.72ZM153.462 189.44H154.742C154.438 191.76 153.734 194.064 151.254 195.36C151.094 195.072 150.726 194.624 150.454 194.4C152.646 193.328 153.206 191.28 153.462 189.44ZM157.174 188.016H158.358V194.544L157.174 194.224V188.016ZM150.726 182.048H157.51V183.056H150.726V182.048ZM153.654 180.576H154.758V187.024H153.654V180.576ZM157.862 182.048H164.982V183.056H157.862V182.048ZM160.678 180.576H161.798V186.992H160.678V180.576ZM161.974 182.512C162.694 183.76 164.086 185.104 165.35 185.76C165.078 185.968 164.726 186.352 164.534 186.64C163.302 185.824 161.91 184.272 161.158 182.832L161.974 182.512ZM154.71 183.328C155.19 183.6 156.886 184.672 157.27 184.944L156.63 185.936C156.166 185.44 154.742 184.304 154.166 183.888L154.71 183.328ZM153.558 182.512L154.358 182.832C153.638 184.272 152.326 185.808 151.142 186.624C150.966 186.352 150.614 185.968 150.358 185.776C151.558 185.12 152.87 183.776 153.558 182.512ZM160.63 182.512L161.43 182.832C160.71 184.288 159.366 185.808 158.134 186.624C157.958 186.352 157.59 185.952 157.35 185.744C158.582 185.104 159.926 183.776 160.63 182.512ZM167.958 181.216H179.654V182.176H167.958V181.216ZM166.838 188.304H180.822V189.28H166.838V188.304ZM168.902 184.864H172.358V185.68H168.902V184.864ZM168.566 186.544H172.358V187.36H168.566V186.544ZM175.174 186.544H179.094V187.36H175.174V186.544ZM175.174 184.864H178.71V185.68H175.174V184.864ZM173.174 181.584H174.342V187.776H173.174V181.584ZM171.59 191.056H172.71V195.168H171.59V191.056ZM175.142 191.056H176.246V195.168H175.142V191.056ZM167.03 183.104H180.614V186.176H179.478V183.984H168.118V186.176H167.03V183.104ZM168.086 190.432H179.062V191.424H169.222V195.264H168.086V190.432ZM178.758 190.432H179.91V194.096C179.91 194.64 179.83 194.928 179.414 195.104C179.014 195.296 178.422 195.28 177.542 195.28C177.494 194.992 177.318 194.576 177.174 194.288C177.814 194.304 178.358 194.304 178.534 194.288C178.71 194.272 178.758 194.224 178.758 194.08V190.432ZM173.19 188.672L174.502 188.72C174.214 189.584 173.878 190.464 173.606 191.056L172.55 190.944C172.79 190.288 173.078 189.328 173.19 188.672ZM182.534 189.312H197.094V190.32H182.534V189.312ZM182.918 181.264H196.694V182.32H182.918V181.264ZM188.086 187.632L189.254 187.952C188.214 189.616 186.742 191.712 185.718 193.024L184.582 192.64C185.606 191.344 187.094 189.2 188.086 187.632ZM192.886 189.664L194.038 190C192.63 193.52 189.222 194.832 183.222 195.28C183.142 194.928 182.95 194.496 182.758 194.224C188.47 193.92 191.606 192.784 192.886 189.664ZM185.446 192.48L186.054 191.6C190.006 192.304 194.118 193.376 196.598 194.352L195.878 195.328C193.43 194.32 189.51 193.232 185.446 192.48ZM187.286 181.664H188.422V187.248H187.286V181.664ZM191.014 181.664H192.15V187.248H191.014V181.664ZM184.838 184.672V186.848H194.822V184.672H184.838ZM183.718 183.696H196.022V187.84H183.718V183.696ZM204.39 180.752H205.542V188.368H204.39V180.752ZM202.166 183.68H207.638V184.784H202.166V183.68ZM202.598 187.84H203.654V194.56H202.598V187.84ZM203.222 187.84H207.318V193.52H203.222V192.464H206.246V188.88H203.222V187.84ZM208.95 180.576L210.038 180.752C209.574 183.632 208.806 186.432 207.59 188.256C207.462 188.032 207.062 187.552 206.854 187.328C207.926 185.68 208.582 183.152 208.95 180.576ZM208.886 183.68H213.174V184.72H208.582L208.886 183.68ZM211.414 184.096L212.486 184.176C211.942 189.616 210.63 193.12 207.206 195.312C207.062 195.104 206.662 194.672 206.438 194.48C209.782 192.544 210.966 189.168 211.414 184.096ZM208.982 184.4C209.334 187.92 210.166 192.32 213.334 194.336C213.126 194.56 212.758 194.992 212.598 195.28C209.35 192.992 208.486 188.464 208.134 184.928L208.982 184.4ZM201.526 180.656L202.646 180.96C201.734 183.712 200.31 186.512 198.726 188.368C198.614 188.096 198.294 187.456 198.086 187.152C199.494 185.552 200.758 183.104 201.526 180.656ZM200.246 184.576L201.318 183.488L201.35 183.52V195.28H200.246V184.576ZM218.454 180.624L219.59 180.976C218.502 183.728 216.838 186.48 215.078 188.288C214.95 188.016 214.598 187.392 214.39 187.12C216.006 185.536 217.526 183.104 218.454 180.624ZM216.822 184.752L217.974 183.584L217.99 183.6V195.264H216.822V184.752ZM219.03 186.096H229.094V187.28H219.03V186.096ZM223.526 180.736H224.758V195.28H223.526V180.736ZM238.774 184.56L240.102 185.104C238.47 188.032 236.102 191.664 234.246 193.952L233.222 193.44C235.062 191.104 237.414 187.376 238.774 184.56ZM231.574 193.232C234.486 193.104 239.126 192.816 243.414 192.528L243.398 193.68C239.206 194 234.726 194.32 231.766 194.496L231.574 193.232ZM239.558 189.632L240.646 189.008C242.326 190.656 244.086 192.896 244.87 194.432L243.718 195.184C242.95 193.632 241.19 191.264 239.558 189.632ZM236.694 180.672L237.958 181.136C236.406 183.648 233.99 186.416 231.526 188.224C231.302 187.952 230.87 187.536 230.582 187.312C232.982 185.648 235.43 182.944 236.694 180.672ZM77.302 218.576L78.406 218.848C77.782 220.56 76.742 222.192 75.622 223.28C75.446 223.072 74.998 222.688 74.726 222.512C75.814 221.568 76.758 220.112 77.302 218.576ZM77.238 222.608L78.358 222.896C77.862 224.16 77.03 225.408 76.23 226.24C76.006 226.064 75.526 225.76 75.254 225.616C76.086 224.848 76.806 223.728 77.238 222.608ZM77.142 220.144H84.086V221.2H76.726L77.142 220.144ZM79.494 220.864H80.646V226.432C80.646 227.04 80.534 227.36 80.086 227.536C79.67 227.712 79.014 227.728 78.006 227.728C77.942 227.408 77.782 226.96 77.606 226.656C78.358 226.688 79.03 226.688 79.238 226.672C79.446 226.656 79.494 226.608 79.494 226.432V220.864ZM81.526 222.96L82.518 222.528C83.302 223.568 84.086 224.976 84.422 225.904L83.382 226.4C83.062 225.456 82.278 224 81.526 222.96ZM83.75 220.144H83.942L84.134 220.112L84.966 220.32C84.566 221.328 84.07 222.496 83.686 223.2L82.646 222.992C83.014 222.32 83.446 221.216 83.75 220.32V220.144ZM74.598 228.512H75.782V231.408C75.782 231.84 75.942 231.92 76.79 231.92C77.19 231.92 79.19 231.92 79.718 231.92C80.422 231.92 80.534 231.712 80.614 230.128C80.87 230.336 81.35 230.512 81.686 230.592C81.542 232.528 81.174 233.008 79.798 233.008C79.43 233.008 77.046 233.008 76.694 233.008C75.03 233.008 74.598 232.672 74.598 231.408V228.512ZM75.974 228.032L76.774 227.312C77.798 227.808 79.03 228.624 79.606 229.264L78.742 230.048C78.198 229.408 77.014 228.544 75.974 228.032ZM81.238 229.008L82.23 228.448C83.414 229.456 84.662 230.896 85.158 231.984L84.086 232.592C83.622 231.536 82.438 230.032 81.238 229.008ZM72.646 228.704L73.718 229.056C73.318 230.496 72.694 231.92 71.43 232.768L70.438 232.08C71.622 231.328 72.31 230.048 72.646 228.704ZM74.182 218.56L75.254 218.928C74.214 220.912 72.598 222.88 71.046 224.144C70.902 223.904 70.502 223.424 70.262 223.216C71.766 222.08 73.27 220.32 74.182 218.56ZM72.71 221.568L73.846 220.432L73.862 220.448V227.712H72.71V221.568ZM97.75 220.064H98.998V231.568C98.998 232.432 98.79 232.848 98.166 233.04C97.526 233.248 96.406 233.264 94.822 233.264C94.742 232.912 94.502 232.32 94.31 231.968C95.606 232.032 96.902 232.016 97.286 232C97.638 231.984 97.75 231.872 97.75 231.536V220.064ZM88.342 223.264H89.51V230.512H88.342V223.264ZM88.838 223.264H94.902V229.232H88.838V228.08H93.702V224.4H88.838V223.264ZM86.694 219.696H100.966V220.912H86.694V219.696ZM107.638 221.088L108.71 220.56C109.782 221.728 110.806 223.312 111.27 224.4L110.118 225.024C109.702 223.92 108.662 222.272 107.638 221.088ZM102.374 230.304C104.006 229.664 106.566 228.576 108.966 227.52L109.238 228.688C107.014 229.712 104.582 230.784 102.806 231.552L102.374 230.304ZM111.974 228.192L112.902 227.408C114.422 228.912 116.406 230.992 117.35 232.304L116.326 233.248C115.43 231.92 113.51 229.76 111.974 228.192ZM114.198 219.392L115.494 219.52C114.678 226.912 112.806 230.992 107.206 233.328C107.03 233.072 106.55 232.544 106.246 232.288C111.782 230.272 113.478 226.352 114.198 219.392ZM104.326 219.44L105.558 219.392L105.83 229.968L104.598 230.016L104.326 219.44ZM122.934 220.336H133.206V221.456H122.934V220.336ZM124.518 224.032V226.432H131.51V224.032H124.518ZM123.414 223.008H132.678V227.456H123.414V223.008ZM124.406 227.776C125.91 230.288 129.19 231.776 133.35 232.24C133.094 232.496 132.79 232.976 132.63 233.312C128.39 232.704 125.11 231.04 123.414 228.112L124.406 227.776ZM127.382 218.624H128.566V225.712C128.566 228.8 128.038 231.872 123.078 233.344C122.934 233.072 122.598 232.592 122.358 232.336C127.11 231.136 127.382 228.4 127.382 225.696V218.624ZM122.246 218.528L123.382 218.88C122.294 221.584 120.582 224.272 118.806 226.048C118.694 225.776 118.358 225.152 118.134 224.864C119.75 223.344 121.318 220.96 122.246 218.528ZM120.566 222.72L121.702 221.584L121.718 221.6V233.36H120.566V222.72ZM136.934 219.696H147.286V220.848H136.934V219.696ZM136.934 223.424H147.27V224.56H136.934V223.424ZM136.854 227.248H147.302V228.384H136.854V227.248ZM136.262 219.696H137.446V225.504C137.446 227.936 137.158 231.248 135.254 233.376C135.062 233.136 134.582 232.736 134.326 232.576C136.086 230.592 136.262 227.744 136.262 225.488V219.696ZM146.806 219.696H147.99V231.648C147.99 232.432 147.798 232.8 147.27 233.008C146.726 233.2 145.798 233.216 144.278 233.2C144.23 232.88 144.038 232.352 143.862 232.032C144.998 232.08 146.086 232.064 146.39 232.064C146.694 232.048 146.806 231.952 146.806 231.648V219.696ZM141.286 220.128H142.502V233.136H141.286V220.128ZM163.622 218.96L164.518 219.968C162.182 220.768 158.598 221.36 155.558 221.728C155.51 221.44 155.334 220.992 155.206 220.704C158.182 220.32 161.654 219.68 163.622 218.96ZM154.662 225.424H165.174V226.576H154.662V225.424ZM155.286 231.52H164.918V232.672H155.286V231.52ZM159.43 220.736H160.63V231.84H159.43V220.736ZM152.774 222.816L153.958 221.632L153.974 221.664V233.28H152.774V222.816ZM154.518 218.576L155.686 218.944C154.55 221.728 152.758 224.496 150.886 226.32C150.758 226.032 150.39 225.408 150.15 225.104C151.878 223.536 153.526 221.088 154.518 218.576ZM167.83 227.504H178.934V228.56H167.83V227.504ZM178.534 227.504H179.734C179.734 227.504 179.702 227.856 179.67 228.032C179.302 230.944 178.95 232.176 178.39 232.672C178.054 232.992 177.686 233.072 177.094 233.104C176.614 233.12 175.654 233.12 174.694 233.056C174.678 232.736 174.518 232.288 174.31 231.984C175.318 232.08 176.358 232.096 176.758 232.096C177.094 232.096 177.286 232.08 177.462 231.952C177.878 231.6 178.23 230.384 178.518 227.664L178.534 227.504ZM172.934 225.904L174.182 226.016C173.542 230.352 171.43 232.272 167.382 233.264C167.254 232.992 166.934 232.48 166.71 232.24C170.582 231.504 172.486 229.776 172.934 225.904ZM170.95 220.208H178.71V221.248H170.95V220.208ZM178.422 220.208H178.662L178.87 220.16L179.606 220.656C177.286 224.112 171.958 225.712 167.014 226.288C166.934 225.984 166.726 225.504 166.534 225.232C171.286 224.784 176.486 223.28 178.422 220.368V220.208ZM170.934 221.424C172.678 223.68 176.55 224.752 181.174 225.024C180.934 225.296 180.646 225.76 180.502 226.096C175.83 225.712 171.958 224.48 169.942 221.84L170.934 221.424ZM171.926 218.544L173.174 218.784C172.102 220.528 170.438 222.288 168.006 223.648C167.846 223.36 167.494 222.928 167.254 222.752C169.51 221.584 171.094 219.952 171.926 218.544ZM182.886 221.456H196.694V222.624H182.886V221.456ZM187.174 225.696H196.278V226.848H187.174V225.696ZM185.526 231.664H196.982V232.816H185.526V231.664ZM190.774 226.208H191.99V232.32H190.774V226.208ZM187.718 218.576L188.966 218.736C188.102 223.712 186.63 229.04 183.062 232.32C182.886 232.048 182.502 231.616 182.262 231.376C185.606 228.368 187.014 223.2 187.718 218.576ZM201.03 218.576L202.086 218.848C201.35 221.552 200.198 224.384 198.854 226.24C198.758 226 198.438 225.408 198.246 225.12C199.43 223.488 200.422 221.024 201.03 218.576ZM200.038 222.592L201.014 221.632L201.046 221.648V233.232H200.038V222.592ZM205.478 230.416L206.214 229.936C206.966 230.752 207.894 231.856 208.294 232.544L207.542 233.136C207.126 232.4 206.23 231.248 205.478 230.416ZM202.486 219.584H207.942V229.536H206.918V220.496H203.462V229.584H202.486V219.584ZM211.542 218.704H212.566V231.888C212.566 232.528 212.422 232.848 212.022 233.024C211.638 233.2 210.998 233.232 209.926 233.232C209.894 232.96 209.734 232.496 209.59 232.192C210.374 232.208 211.046 232.208 211.254 232.208C211.462 232.192 211.542 232.128 211.542 231.888V218.704ZM209.206 220.096H210.166V229.68H209.206V220.096ZM204.726 221.584H205.654V227.024C205.654 229.184 205.254 231.728 202.63 233.296C202.502 233.088 202.182 232.72 201.99 232.576C204.438 231.104 204.726 228.96 204.726 227.024V221.584ZM219.494 225.68H223.878V226.672H219.494V225.68ZM219.494 228.464H223.926V229.456H219.494V228.464ZM216.198 231.328H227.494V232.448H216.198V231.328ZM215.462 222.784H228.15V233.296H226.934V223.904H216.63V233.296H215.462V222.784ZM218.934 223.488H220.022V231.84H218.934V223.488ZM223.414 223.488H224.518V231.792H223.414V223.488ZM221.014 220.16L222.406 220.48C222.07 221.552 221.734 222.784 221.414 223.584L220.326 223.28C220.582 222.416 220.902 221.088 221.014 220.16ZM214.742 219.632H228.918V220.784H214.742V219.632ZM237.67 219.536H244.934V220.672H237.67V219.536ZM237.718 223.68H243.862V224.784H237.718V223.68ZM237.094 219.536H238.246V224.048C238.246 226.752 237.958 230.656 236.022 233.248C235.83 233.024 235.334 232.656 235.062 232.528C236.902 230.064 237.094 226.592 237.094 224.032V219.536ZM239.302 224.416C240.262 228.048 242.246 231.056 245.35 232.32C245.078 232.56 244.71 233.008 244.534 233.312C241.334 231.824 239.35 228.656 238.294 224.656L239.302 224.416ZM243.606 223.68H243.814L244.022 223.632L244.758 223.872C243.846 228.752 241.302 231.776 238.198 233.264C238.038 232.992 237.718 232.544 237.462 232.32C240.326 231.104 242.79 228.112 243.606 223.904V223.68ZM230.63 222H236.262V223.136H230.63V222ZM233.046 218.56H234.182V233.264H233.046V218.56ZM232.982 222.704L233.75 222.976C233.222 225.536 232.07 228.672 230.87 230.288C230.742 229.968 230.454 229.488 230.246 229.216C231.382 227.776 232.502 225.008 232.982 222.704ZM234.102 224.432C234.518 224.88 236.054 226.832 236.374 227.312L235.638 228.256C235.238 227.456 233.99 225.632 233.51 224.992L234.102 224.432ZM253.334 223.744H259.91V224.944H253.334V223.744ZM246.63 231.328H260.998V232.528H246.63V231.328ZM252.646 218.8H253.91V231.968H252.646V218.8ZM263.91 221.136H268.774V231.6H263.91V230.512H267.654V222.208H263.91V221.136ZM263.19 221.136H264.31V232.88H263.19V221.136ZM263.83 225.584H268.246V226.656H263.83V225.584ZM265.638 218.528L266.934 218.768C266.614 219.76 266.214 220.864 265.894 221.584L264.934 221.344C265.206 220.576 265.51 219.36 265.638 218.528ZM271.046 221.088H275.958V222.208H271.046V221.088ZM275.542 221.088H276.662C276.662 221.088 276.662 221.536 276.662 221.712C276.406 229.056 276.182 231.536 275.542 232.32C275.19 232.784 274.822 232.928 274.262 232.976C273.718 233.04 272.774 233.008 271.878 232.96C271.846 232.608 271.702 232.112 271.478 231.792C272.518 231.872 273.478 231.888 273.846 231.888C274.166 231.888 274.358 231.84 274.534 231.632C275.062 231.056 275.318 228.4 275.542 221.344V221.088ZM271.382 218.496L272.534 218.768C271.942 221.152 270.998 223.504 269.894 225.024C269.686 224.832 269.19 224.496 268.902 224.336C269.99 222.928 270.87 220.72 271.382 218.496ZM270.646 225.248L271.574 224.704C272.486 225.84 273.59 227.392 274.102 228.336L273.078 228.976C272.598 228 271.526 226.416 270.646 225.248ZM283.35 218.528L284.518 218.864C283.766 220.704 282.55 222.464 281.254 223.6C281.062 223.376 280.614 222.944 280.326 222.752C281.59 221.76 282.71 220.192 283.35 218.528ZM283.334 220.16H290.214V221.2H282.79L283.334 220.16ZM283.478 224.928V226.032H288.262V224.928H283.478ZM283.478 223.024V224.112H288.262V223.024H283.478ZM282.374 222.176H289.414V226.88H282.374V222.176ZM284.39 226.528L285.478 226.864C284.518 228.48 282.854 229.872 281.27 230.752C281.094 230.528 280.678 230.112 280.406 229.92C282.022 229.152 283.558 227.936 284.39 226.528ZM283.782 228.544C285.078 230.4 287.91 231.808 291.078 232.272C290.822 232.512 290.502 233.008 290.342 233.312C287.11 232.704 284.326 231.088 282.886 228.88L283.782 228.544ZM284.006 227.792H288.726V228.688H283.43L284.006 227.792ZM288.342 227.792H288.582L288.79 227.744L289.542 228.112C288.054 231.12 284.63 232.672 281.142 233.36C281.03 233.056 280.774 232.64 280.582 232.4C283.83 231.872 287.11 230.432 288.342 227.968V227.792ZM298.934 224.176H309.014V225.232H298.934V224.176ZM300.79 220.784H308.342V221.824H300.79V220.784ZM303.462 218.624H304.662V224.64H303.462V218.624ZM300.95 219.056L302.086 219.296C301.638 220.88 300.87 222.448 300.038 223.456C299.814 223.28 299.318 222.96 299.03 222.832C299.894 221.888 300.55 220.48 300.95 219.056ZM304.662 224.72H305.846V228.944C305.846 229.344 305.91 229.392 306.31 229.392C306.47 229.392 307.366 229.392 307.59 229.392C307.974 229.392 308.054 229.184 308.086 227.504C308.326 227.712 308.822 227.888 309.158 227.984C309.03 230.016 308.726 230.528 307.718 230.528C307.462 230.528 306.374 230.528 306.15 230.528C304.95 230.528 304.662 230.16 304.662 228.96V224.72ZM301.862 224.752H303.062C302.806 227.536 302.102 229.552 299.238 230.672C299.094 230.368 298.758 229.936 298.502 229.712C301.094 228.8 301.654 227.088 301.862 224.752ZM294.774 219.76L295.686 219.104C296.646 219.856 297.734 220.944 298.246 221.712L297.27 222.448C296.79 221.664 295.718 220.544 294.774 219.76ZM297.83 224.704V230.88H296.662V225.824H294.694V224.704H297.83ZM297.718 230.384C298.214 230.384 298.582 230.8 299.382 231.28C300.39 231.872 301.734 231.968 303.43 231.968C305.254 231.968 307.686 231.856 309.27 231.68C309.126 232 308.934 232.592 308.918 232.928C307.67 233.008 304.966 233.104 303.414 233.104C301.542 233.104 300.214 232.928 299.174 232.32C298.534 231.936 298.054 231.472 297.702 231.472C297.094 231.472 296.23 232.288 295.334 233.28L294.534 232.256C295.638 231.216 296.822 230.384 297.718 230.384ZM317.254 219.792H324.246V220.912H317.254V219.792ZM316.566 223.616H325.094V224.736H316.566V223.616ZM319.974 224.16H321.19V231.744C321.19 232.432 321.062 232.784 320.598 232.992C320.118 233.2 319.382 233.216 318.262 233.216C318.214 232.864 318.054 232.352 317.894 231.984C318.71 232.016 319.462 232.016 319.686 232C319.91 231.984 319.974 231.936 319.974 231.728V224.16ZM322.278 226.816L323.302 226.496C324.07 228.048 324.854 230.08 325.126 231.344L324.022 231.744C323.766 230.48 323.03 228.4 322.278 226.816ZM317.67 226.528L318.758 226.784C318.278 228.624 317.462 230.496 316.598 231.728C316.39 231.552 315.894 231.232 315.638 231.088C316.518 229.952 317.238 228.224 317.67 226.528ZM310.598 221.952H316.326V223.088H310.598V221.952ZM313.046 218.56H314.23V233.264H313.046V218.56ZM312.886 222.624L313.702 222.88C313.174 225.248 312.054 228.192 310.854 229.696C310.726 229.376 310.406 228.864 310.182 228.576C311.302 227.264 312.406 224.704 312.886 222.624ZM314.15 223.424C314.534 223.84 316.07 225.792 316.406 226.24L315.686 227.2C315.286 226.432 314.022 224.56 313.542 223.968L314.15 223.424ZM327.798 219.696L328.614 218.96C329.494 219.712 330.614 220.752 331.158 221.424L330.294 222.288C329.782 221.584 328.678 220.48 327.798 219.696ZM328.998 232.96L328.79 231.824L329.126 231.312L331.958 229.392C332.038 229.712 332.214 230.192 332.326 230.432C329.654 232.336 329.238 232.656 328.998 232.96ZM326.55 223.6H329.942V224.752H326.55V223.6ZM328.998 232.976C328.87 232.72 328.534 232.272 328.326 232.08C328.614 231.856 329.094 231.312 329.094 230.528V223.6H330.294V231.408C330.294 231.408 328.998 232.496 328.998 232.976ZM333.334 224.944H339.526V226.096H333.334V224.944ZM332.822 224.944H334.038V231.104C334.038 231.744 334.23 231.888 335.254 231.888C335.75 231.888 338.166 231.888 338.79 231.888C339.782 231.888 339.942 231.488 340.038 229.216C340.326 229.44 340.854 229.632 341.206 229.712C341.014 232.32 340.614 233.056 338.87 233.056C338.454 233.056 335.574 233.056 335.19 233.056C333.382 233.056 332.822 232.656 332.822 231.104V224.944ZM332.518 219.696H340.07V226.912H338.87V220.88H332.518V219.696ZM349.254 219.792H356.246V220.912H349.254V219.792ZM348.566 223.616H357.094V224.736H348.566V223.616ZM351.974 224.16H353.19V231.744C353.19 232.432 353.062 232.784 352.598 232.992C352.118 233.2 351.382 233.216 350.262 233.216C350.214 232.864 350.054 232.352 349.894 231.984C350.71 232.016 351.462 232.016 351.686 232C351.91 231.984 351.974 231.936 351.974 231.728V224.16ZM354.278 226.816L355.302 226.496C356.07 228.048 356.854 230.08 357.126 231.344L356.022 231.744C355.766 230.48 355.03 228.4 354.278 226.816ZM349.67 226.528L350.758 226.784C350.278 228.624 349.462 230.496 348.598 231.728C348.39 231.552 347.894 231.232 347.638 231.088C348.518 229.952 349.238 228.224 349.67 226.528ZM342.598 221.952H348.326V223.088H342.598V221.952ZM345.046 218.56H346.23V233.264H345.046V218.56ZM344.886 222.624L345.702 222.88C345.174 225.248 344.054 228.192 342.854 229.696C342.726 229.376 342.406 228.864 342.182 228.576C343.302 227.264 344.406 224.704 344.886 222.624ZM346.15 223.424C346.534 223.84 348.07 225.792 348.406 226.24L347.686 227.2C347.286 226.432 346.022 224.56 345.542 223.968L346.15 223.424ZM359.798 219.696L360.614 218.96C361.494 219.712 362.614 220.752 363.158 221.424L362.294 222.288C361.782 221.584 360.678 220.48 359.798 219.696ZM360.998 232.96L360.79 231.824L361.126 231.312L363.958 229.392C364.038 229.712 364.214 230.192 364.326 230.432C361.654 232.336 361.238 232.656 360.998 232.96ZM358.55 223.6H361.942V224.752H358.55V223.6ZM360.998 232.976C360.87 232.72 360.534 232.272 360.326 232.08C360.614 231.856 361.094 231.312 361.094 230.528V223.6H362.294V231.408C362.294 231.408 360.998 232.496 360.998 232.976ZM365.334 224.944H371.526V226.096H365.334V224.944ZM364.822 224.944H366.038V231.104C366.038 231.744 366.23 231.888 367.254 231.888C367.75 231.888 370.166 231.888 370.79 231.888C371.782 231.888 371.942 231.488 372.038 229.216C372.326 229.44 372.854 229.632 373.206 229.712C373.014 232.32 372.614 233.056 370.87 233.056C370.454 233.056 367.574 233.056 367.19 233.056C365.382 233.056 364.822 232.656 364.822 231.104V224.944ZM364.518 219.696H372.07V226.912H370.87V220.88H364.518V219.696ZM376.134 222.336H377.366V230.4C377.366 231.408 377.718 231.648 379.478 231.648C380.326 231.648 384.502 231.648 385.574 231.648C387.334 231.648 387.606 231.104 387.814 228.512C388.15 228.736 388.678 228.944 389.046 229.008C388.726 231.968 388.214 232.832 385.574 232.832C384.918 232.832 380.15 232.832 379.558 232.832C376.95 232.832 376.134 232.368 376.134 230.368V222.336ZM376.806 224.96H386.246V226.16H376.806V224.96ZM375.302 219.568H386.998V226.944H385.766V220.752H375.302V219.568ZM73.446 242.216H82.15V243.304H73.446V242.216ZM70.71 245.16H84.902V246.296H70.71V245.16ZM74.918 245.944H76.198C75.862 249.064 74.966 251.224 71.062 252.312C70.934 252.008 70.614 251.528 70.358 251.288C73.958 250.392 74.646 248.552 74.918 245.944ZM78.966 245.848H80.166V250.344C80.166 250.824 80.278 250.904 80.95 250.904C81.27 250.904 82.79 250.904 83.206 250.904C83.814 250.904 83.926 250.616 83.974 248.776C84.23 248.968 84.742 249.16 85.062 249.256C84.934 251.448 84.582 252.008 83.302 252.008C82.982 252.008 81.142 252.008 80.822 252.008C79.35 252.008 78.966 251.64 78.966 250.36V245.848ZM77.142 237.576H78.406V240.12H77.142V237.576ZM71.078 239.288H84.534V242.68H83.27V240.424H72.294V242.68H71.078V239.288ZM88.534 243.56H92.518V244.68H88.534V243.56ZM92.038 243.56H93.206C93.206 243.56 93.206 243.912 93.206 244.072C93.126 247.688 93.03 249.032 92.694 249.48C92.438 249.768 92.182 249.88 91.734 249.928C91.318 249.976 90.598 249.96 89.814 249.928C89.782 249.576 89.654 249.112 89.478 248.808C90.198 248.872 90.902 248.872 91.174 248.872C91.398 248.872 91.558 248.856 91.67 248.712C91.91 248.424 91.99 247.224 92.038 243.768V243.56ZM96.55 238.376L97.27 237.624C98.262 238.136 99.526 238.904 100.15 239.464L99.398 240.28C98.79 239.72 97.558 238.904 96.55 238.376ZM98.838 242.712L100.038 243C98.678 247.176 96.294 250.264 93.014 252.2C92.838 251.96 92.39 251.464 92.134 251.224C95.382 249.496 97.638 246.568 98.838 242.712ZM88.63 240.28H101.014V241.464H88.63V240.28ZM87.862 240.28H89.11V244.792C89.11 247.064 88.854 250.296 87.398 252.392C87.19 252.152 86.678 251.736 86.39 251.592C87.718 249.624 87.862 246.872 87.862 244.776V240.28ZM94.502 237.592H95.75C95.718 244.952 97.286 250.952 99.366 250.952C99.814 250.952 100.022 250.12 100.118 247.992C100.39 248.264 100.838 248.536 101.158 248.648C100.934 251.384 100.486 252.168 99.27 252.168C96.006 252.168 94.566 245.256 94.502 237.592ZM103.91 240.136H108.774V250.6H103.91V249.512H107.654V241.208H103.91V240.136ZM103.19 240.136H104.31V251.88H103.19V240.136ZM103.83 244.584H108.246V245.656H103.83V244.584ZM105.638 237.528L106.934 237.768C106.614 238.76 106.214 239.864 105.894 240.584L104.934 240.344C105.206 239.576 105.51 238.36 105.638 237.528ZM111.046 240.088H115.958V241.208H111.046V240.088ZM115.542 240.088H116.662C116.662 240.088 116.662 240.536 116.662 240.712C116.406 248.056 116.182 250.536 115.542 251.32C115.19 251.784 114.822 251.928 114.262 251.976C113.718 252.04 112.774 252.008 111.878 251.96C111.846 251.608 111.702 251.112 111.478 250.792C112.518 250.872 113.478 250.888 113.846 250.888C114.166 250.888 114.358 250.84 114.534 250.632C115.062 250.056 115.318 247.4 115.542 240.344V240.088ZM111.382 237.496L112.534 237.768C111.942 240.152 110.998 242.504 109.894 244.024C109.686 243.832 109.19 243.496 108.902 243.336C109.99 241.928 110.87 239.72 111.382 237.496ZM110.646 244.248L111.574 243.704C112.486 244.84 113.59 246.392 114.102 247.336L113.078 247.976C112.598 247 111.526 245.416 110.646 244.248ZM131.622 237.96L132.518 238.968C130.182 239.768 126.598 240.36 123.558 240.728C123.51 240.44 123.334 239.992 123.206 239.704C126.182 239.32 129.654 238.68 131.622 237.96ZM122.662 244.424H133.174V245.576H122.662V244.424ZM123.286 250.52H132.918V251.672H123.286V250.52ZM127.43 239.736H128.63V250.84H127.43V239.736ZM120.774 241.816L121.958 240.632L121.974 240.664V252.28H120.774V241.816ZM122.518 237.576L123.686 237.944C122.55 240.728 120.758 243.496 118.886 245.32C118.758 245.032 118.39 244.408 118.15 244.104C119.878 242.536 121.526 240.088 122.518 237.576ZM135.83 246.504H146.934V247.56H135.83V246.504ZM146.534 246.504H147.734C147.734 246.504 147.702 246.856 147.67 247.032C147.302 249.944 146.95 251.176 146.39 251.672C146.054 251.992 145.686 252.072 145.094 252.104C144.614 252.12 143.654 252.12 142.694 252.056C142.678 251.736 142.518 251.288 142.31 250.984C143.318 251.08 144.358 251.096 144.758 251.096C145.094 251.096 145.286 251.08 145.462 250.952C145.878 250.6 146.23 249.384 146.518 246.664L146.534 246.504ZM140.934 244.904L142.182 245.016C141.542 249.352 139.43 251.272 135.382 252.264C135.254 251.992 134.934 251.48 134.71 251.24C138.582 250.504 140.486 248.776 140.934 244.904ZM138.95 239.208H146.71V240.248H138.95V239.208ZM146.422 239.208H146.662L146.87 239.16L147.606 239.656C145.286 243.112 139.958 244.712 135.014 245.288C134.934 244.984 134.726 244.504 134.534 244.232C139.286 243.784 144.486 242.28 146.422 239.368V239.208ZM138.934 240.424C140.678 242.68 144.55 243.752 149.174 244.024C148.934 244.296 148.646 244.76 148.502 245.096C143.83 244.712 139.958 243.48 137.942 240.84L138.934 240.424ZM139.926 237.544L141.174 237.784C140.102 239.528 138.438 241.288 136.006 242.648C135.846 242.36 135.494 241.928 135.254 241.752C137.51 240.584 139.094 238.952 139.926 237.544Z" fill="#2D3342"/>
<path d="M269.75 163.448C268.454 165.432 265.958 167.704 263.254 169.24C262.982 168.776 262.422 168.056 261.99 167.656C264.838 166.168 267.446 163.528 268.614 161.448H270.694C272.422 164.088 275.046 166.296 277.686 167.448C277.174 167.944 276.742 168.6 276.374 169.208C273.798 167.784 271.094 165.432 269.75 163.448ZM268.726 166.872H270.774V176.44H268.726V166.872ZM291.446 161.64L292.854 163.256C290.326 164.104 286.902 164.664 283.926 164.984C283.846 164.52 283.574 163.784 283.366 163.336C286.246 162.984 289.43 162.36 291.446 161.64ZM282.902 168.104H293.238V169.944H282.902V168.104ZM283.558 174.056H293.062V175.896H283.558V174.056ZM287.27 163.992H289.222V174.632H287.27V163.992ZM280.47 166.072L282.358 164.2L282.374 164.232V176.424H280.47V166.072ZM282.07 161.464L283.958 162.072C282.854 164.872 281.03 167.832 279.158 169.688C278.966 169.208 278.39 168.152 278.038 167.656C279.638 166.184 281.158 163.832 282.07 161.464ZM295.686 170.328H306.742V171.96H295.686V170.328ZM306.134 170.328H308.038C308.038 170.328 307.99 170.84 307.942 171.096C307.59 173.832 307.19 175.112 306.582 175.656C306.118 176.088 305.622 176.2 304.87 176.248C304.294 176.28 303.254 176.28 302.198 176.232C302.166 175.736 301.926 175.032 301.59 174.568C302.646 174.664 303.814 174.68 304.278 174.68C304.63 174.68 304.854 174.664 305.062 174.52C305.478 174.2 305.846 172.984 306.118 170.568L306.134 170.328ZM300.486 168.968L302.486 169.128C301.734 173.336 299.654 175.352 295.75 176.424C295.542 176.008 294.982 175.192 294.63 174.84C298.246 174.104 300.054 172.44 300.486 168.968ZM298.838 162.936H306.854V164.536H298.838V162.936ZM306.374 162.936H306.742L307.046 162.856L308.23 163.624C305.814 167.208 300.518 168.824 295.238 169.448C295.11 168.968 294.79 168.2 294.486 167.784C299.494 167.352 304.55 165.912 306.374 163.176V162.936ZM299.11 164.584C300.918 166.52 304.726 167.384 309.35 167.576C308.966 167.992 308.518 168.76 308.294 169.272C303.526 168.92 299.814 167.8 297.542 165.224L299.11 164.584ZM299.574 161.4L301.526 161.784C300.358 163.704 298.678 165.384 296.102 166.712C295.878 166.264 295.35 165.544 294.982 165.24C297.254 164.216 298.758 162.76 299.574 161.4ZM319.062 163.208H320.95V172.04H319.062V163.208ZM322.79 161.72H324.694V174.152C324.694 175.24 324.47 175.768 323.846 176.072C323.174 176.376 322.182 176.44 320.742 176.44C320.646 175.896 320.374 175.048 320.102 174.52C321.062 174.552 322.07 174.536 322.374 174.536C322.678 174.536 322.79 174.44 322.79 174.152V161.72ZM313.03 165.688H317.142V167.432H313.03V165.688ZM310.678 162.136H318.63V163.912H310.678V162.136ZM312.054 169.912L312.95 168.488C313.878 169.016 315.174 169.816 315.798 170.344L314.838 171.96C314.246 171.384 312.982 170.52 312.054 169.912ZM316.47 165.688H316.838L317.158 165.624L318.358 166.024C317.558 171.32 315.414 174.776 312.47 176.488C312.182 176.072 311.462 175.368 311.03 175.08C313.91 173.56 315.846 170.6 316.47 166.072V165.688ZM313.318 163.112L315.238 163.48C314.502 166.248 313.302 169.352 311.382 171.24C311.046 170.872 310.422 170.296 310.022 169.992C311.75 168.344 312.838 165.464 313.318 163.112ZM327.286 162.472H340.39V164.104H327.286V162.472ZM328.022 164.92H339.766V166.456H328.022V164.92ZM326.694 167.336H340.902V168.968H326.694V167.336ZM332.79 161.416H334.742V168.712H332.79V161.416ZM332.806 167.944L334.47 168.728C332.758 170.568 329.926 172.184 327.318 173C327.03 172.536 326.486 171.832 326.086 171.432C328.614 170.776 331.398 169.4 332.806 167.944ZM335.574 168.248C336.406 171.432 338.182 173.752 341.478 174.696C341.046 175.08 340.502 175.88 340.23 176.408C336.646 175.16 334.87 172.504 333.83 168.584L335.574 168.248ZM339.27 169.208L340.854 170.408C339.654 171.272 338.214 172.152 337.11 172.696L335.894 171.672C336.966 171.048 338.406 170.024 339.27 169.208ZM327.782 174.632C329.718 174.296 332.662 173.688 335.398 173.096L335.574 174.824C333.062 175.4 330.342 175.992 328.358 176.424L327.782 174.632ZM329.974 171.384L331.238 170.12L331.894 170.296V174.904H329.974V171.384Z" fill="#6663CF"/>
<path d="M553.679 310.692C544.541 304.278 524.426 292.578 517.113 297.088C507.975 302.724 513.809 303.501 518.477 302.335" stroke="#2A2A2A" stroke-width="2" stroke-linecap="round"/>
<path d="M526.837 302.522C522.129 301.84 512.631 301.927 512.317 307.729C512.139 311.112 513.103 310.55 514.869 309.493C516.135 308.737 517.811 307.729 519.775 307.729H528.212" stroke="#2A2A2A" stroke-width="2" stroke-linecap="round"/>
<path d="M528.212 308H519.724C517.748 308 516.062 309.03 514.788 309.801C513.542 311.985 512.62 316.013 518.932 314.645C525.245 313.278 527.751 313.696 528.212 314.076" stroke="#2A2A2A" stroke-width="2" stroke-linecap="round"/>
<path d="M518.823 314.538C516.736 316.843 514.327 321.184 521.368 320.109C528.409 319.033 533.949 322.35 535.838 324.143C539.031 326.191 546.597 328.752 551.291 322.606" stroke="#2A2A2A" stroke-width="2" stroke-linecap="round"/>
<path d="M586.428 320.449C553.343 302.722 553.309 319.417 556.104 329.598C560.239 339.891 580.749 351.23 589.957 352.586C602.947 355.47 625.946 352.052 614.018 315.302C599.104 269.365 592.358 235.817 542.537 226.859" stroke="#2A2A2A" stroke-width="2" stroke-linecap="round"/>
<path d="M568.402 280.697C568.402 298.045 569.452 297.636 577.156 313.384" stroke="#2A2A2A" stroke-width="2" stroke-linecap="round"/>
<path d="M500.756 289.926V284.927" stroke="#2A2A2A" stroke-width="2" stroke-linecap="round"/>
<path d="M494.787 289.542L492.798 283.389" stroke="#2A2A2A" stroke-width="2" stroke-linecap="round"/>
<path d="M488.818 291.08L484.043 280.312" stroke="#2A2A2A" stroke-width="2" stroke-linecap="round"/>
<path d="M580.737 351.455C579.351 366.46 578.761 365.51 576.384 374.056C552.384 380.894 499.285 388.757 478.871 365.51" stroke="#2A2A2A" stroke-width="2" stroke-linecap="round"/>
<path d="M556.065 261.469L555.315 260.369C550.789 253.77 542.063 251.135 534.426 254.064C527.573 256.692 519.74 254.861 514.91 249.503L508.714 242.626" stroke="#2A2A2A" stroke-width="2" stroke-linecap="round"/>
<path d="M513.054 226.517C511.314 221.796 512.905 218.619 514.45 218.014C523.756 226.004 537.871 223.038 543.1 218.195C544.962 219.793 543.878 224.52 543.1 225.973C533.021 236.431 518.676 230.573 513.054 226.517Z" fill="#2A2A2A"/>
<path d="M533.072 298.386L543.335 281.722C544.137 280.42 543.682 278.732 542.323 277.979C540.999 277.246 539.314 277.672 538.533 278.938L527.814 296.272" stroke="#2A2A2A" stroke-width="2" stroke-linecap="round"/>
<path d="M530.6 356.454C525.142 339.405 512.435 306.305 504.364 307.251C503.998 307.294 503.631 307.395 503.265 307.445L472.902 311.556" stroke="#2A2A2A" stroke-width="2" stroke-linecap="round"/>
<path d="M468.525 318.383L471.31 326.459" stroke="#2A2A2A" stroke-width="2" stroke-linecap="round"/>
<path d="M503.634 311.461C509.456 314.897 518.118 338.469 523.17 354.332C524.273 357.789 521.836 361.326 518.111 361.776L489.335 365.253C486.393 365.608 483.615 363.89 482.723 361.171L480.462 354.262" stroke="#2A2A2A" stroke-width="2" stroke-linecap="round"/>
<path d="M498.968 314.538C497.047 313.863 493.052 309.886 494.192 306.032C494.386 305.364 494.738 304.698 495.284 304.054C498.968 299.704 505.312 304.055 503.674 307.615" stroke="#2A2A2A" stroke-width="2" stroke-linecap="round"/>
<path d="M494.389 306.14C492.429 303.824 487.132 302.766 484.363 307.33C481.789 312.888 486.738 316.064 489.707 316.461" stroke="#2A2A2A" stroke-width="2" stroke-linecap="round"/>
<path d="M484.043 307.219C481.975 305.693 476.437 303.636 473.232 307.617C469.433 313.787 476.234 317.768 479.04 317.171" stroke="#2A2A2A" stroke-width="2" stroke-linecap="round"/>
<path d="M473.3 307.632C470.659 306.134 465.967 305.482 464.163 309.391C462.359 313.301 466.804 318.383 471.071 318.383" stroke="#2A2A2A" stroke-width="2" stroke-linecap="round"/>
<path d="M488.374 339.918C489.46 341.353 489.235 345.054 479.666 348.379" stroke="#2A2A2A" stroke-width="2" stroke-linecap="round"/>
<path d="M463.352 332.292C473.694 330.367 484.309 329.653 488.33 329.537C490.487 329.475 492.883 331.255 491.678 333.27C491.345 333.786 490.297 334.932 488.78 335.394C482.336 337.423 479.587 337.603 476.749 337.611" stroke="#2A2A2A" stroke-width="2" stroke-linecap="round"/>
<path d="M476.881 337.527C479.719 337.519 482.469 337.338 488.916 335.304C490.386 335.818 490.577 338.264 488.249 339.791C486.778 340.759 484.117 341.946 479.719 343.379" stroke="#2A2A2A" stroke-width="2" stroke-linecap="round"/>
<path d="M512.693 226.859C480.532 239.201 454.885 275.469 458.044 325.218C458.505 332.243 462.268 346.789 473.63 348.763" stroke="#2A2A2A" stroke-width="2" stroke-linecap="round"/>
<path d="M489.135 185.296V185.296C491.146 185.296 512.6 167.131 519.975 161.292C527.35 155.453 538.667 140.454 544.536 136.638C544.311 150.789 552.156 164.536 552.156 164.536C554.209 167.807 556.178 169.077 556.178 178.092C556.178 188.361 557.864 186.346 559.269 184.079C563.314 171.452 570.8 176.192 573.61 179.457C583.755 144.492 555.565 120.719 545.451 121.717C537.81 115.403 523.651 119.754 516.623 122.365C489.135 132.578 489.135 159.352 489.135 185.296Z" fill="url(#paint1_linear_941_6208)"/>
<path d="M557.553 193.726C553.923 215.167 525.215 225.94 511.93 211.247C502.544 200.867 501.873 193.077 502.544 168.428" stroke="#2B2B2B" stroke-width="2" stroke-linecap="round"/>
<path d="M571.908 176.763C574.126 182.031 572.045 193.704 557.553 193.704" stroke="#2B2B2B" stroke-width="2" stroke-linecap="round"/>
<path d="M565.516 179.656C565.837 180.784 565.58 183.455 561.988 185.12" stroke="#2B2B2B" stroke-width="2" stroke-linecap="round"/>
<path d="M502.544 190.973C497.813 189.064 494.479 181.998 495.762 170.681" stroke="#2B2B2B" stroke-width="2" stroke-linecap="round"/>
<path d="M531.372 204.111C526.735 205.281 524.165 205.64 520.645 202.813" stroke="#2B2B2B" stroke-width="2" stroke-linecap="round"/>
<ellipse cx="3.0244" cy="2.92667" rx="3.0244" ry="2.92667" transform="matrix(-1 0 0 1 516.086 173.667)" fill="#2B2B2B"/>
<ellipse cx="3.0244" cy="2.92667" rx="3.0244" ry="2.92667" transform="matrix(-1 0 0 1 542.701 174.057)" fill="#2B2B2B"/>
<path d="M546.262 170.291C545.625 168.478 542.879 165.123 536.987 166.211" stroke="#2B2B2B" stroke-width="2" stroke-linecap="round"/>
<path d="M518.034 166.779C516.629 165.601 512.806 163.952 508.759 166.779" stroke="#2B2B2B" stroke-width="2" stroke-linecap="round"/>
<path d="M527.79 174.974C528.26 178.827 528.579 186.641 526.099 187.071" stroke="#2B2B2B" stroke-width="2" stroke-linecap="round"/>
<path d="M559.631 116.544C554.895 100.805 555.668 64.3371 597.063 64.3372C697.897 64.3373 715.121 51.1047 699.331 161.653" stroke="#2A2A2A" stroke-width="2" stroke-linecap="round"/>
<path d="M581.543 175.872C590.104 173.507 609.248 171.069 617.335 180.239C627.445 191.702 622.527 195.25 634.002 180.239C643.182 168.23 680.268 166.32 697.663 166.866" stroke="#2A2A2A" stroke-width="2" stroke-linecap="round"/>
<path d="M613.841 99.8022C615.505 97.9677 617.224 91.4907 613.361 88.1794C612.696 87.6023 611.857 87.1226 610.82 86.7796C603.815 84.4591 599.347 92.3427 603.56 95.0555M613.253 87.891C613.85 84.3362 618.943 80.6236 625.083 83.7062C631.68 87.9311 628.366 94.144 625.357 96.3116M625.361 83.4008C626.613 80.5984 631.332 75.1947 637.559 77.4159C645.921 81.5491 641.107 89.6915 637.607 90.7337M637.488 77.0291C639.389 73.9164 644.133 70.9079 648.765 73.8836C653.398 76.86 651.929 84.7471 647.221 87.2719" stroke="black" stroke-width="2" stroke-linecap="round"/>
<path d="M607.27 161.874C601.768 141.01 593.419 99.2562 602.963 95.4587C603.396 95.2866 603.869 95.1742 604.307 95.0089L640.586 81.2939M650.029 85.7657L652.414 95.7666M606.612 99.3804C602.511 106.379 608.885 135.885 614.031 155.281C615.15 159.51 620.231 161.726 624.645 159.988L658.744 146.556C662.23 145.182 664.134 141.761 663.281 138.421L654.324 103.606" stroke="black" stroke-width="2" stroke-linecap="round"/>
<path d="M623.746 113.771C629.272 111.469 641.779 107.241 647.598 108.74M612.963 116.28C613.135 116.682 614.474 118.231 614.606 117.125C614.765 115.805 614.889 114.448 616.607 112.741M626.322 123.536C631.848 121.235 644.356 117.007 650.174 118.506M615.539 126.046C615.711 126.447 617.05 127.996 617.183 126.891C617.341 125.57 617.465 124.214 619.183 122.507M628.898 133.302C634.425 131.001 646.932 126.772 652.751 128.271M620.762 138.004C620.855 137.965 623.122 137.053 622.486 135.038C621.754 132.72 619.213 133.718 618.604 134.971C618.408 135.374 618.035 136.364 618.598 137.329C619.043 138.091 620.033 138.308 620.762 138.004Z" stroke="black" stroke-width="2" stroke-linecap="round"/>
<defs>
<linearGradient id="paint0_linear_941_6208" x1="295.906" y1="26" x2="358.378" y2="91.296" gradientUnits="userSpaceOnUse">
<stop stop-color="#5955B3"/>
<stop offset="1" stop-color="#6563CE"/>
</linearGradient>
<linearGradient id="paint1_linear_941_6208" x1="532.01" y1="118.458" x2="532.01" y2="185.911" gradientUnits="userSpaceOnUse">
<stop stop-color="#2A2A2A"/>
<stop offset="0.825" stop-color="#5955B3"/>
</linearGradient>
</defs>
</svg>
