<svg width="751" height="408" viewBox="0 0 751 408" fill="none" xmlns="http://www.w3.org/2000/svg">
<rect width="751" height="408" rx="5" fill="white"/>
<path opacity="0.2" fill-rule="evenodd" clip-rule="evenodd" d="M750.693 388.123C750.627 399.073 741.762 407.937 730.811 408H434.842C447.376 373.077 499.731 303.231 608.882 303.231C718.034 303.231 748.903 248.907 750.693 221.745V388.123Z" fill="#79A4E2"/>
<path opacity="0.2" fill-rule="evenodd" clip-rule="evenodd" d="M210.763 0C208.095 18.0677 191.746 68.875 124.398 91.9214C59.0546 114.281 16.0082 106.592 0.000526816 99.3648L0.000520412 20C0.000519521 8.95433 8.95482 1.91169e-05 20.0005 1.80705e-05L210.763 0Z" fill="#89AFFF"/>
<path d="M487.655 118.102V106.185H489.629C490.301 105.702 490.917 105.02 491.476 104.139C492.034 103.249 492.513 102.023 492.91 100.46C493.308 98.8885 493.592 96.8336 493.763 94.2957L494.586 81.9945H513.834V106.185H517.015V118.074H511.106V111.085H493.564V118.102H487.655ZM496.731 106.185H507.925V87.0656H500.126L499.672 94.2957C499.549 96.218 499.345 97.9226 499.061 99.4093C498.786 100.896 498.45 102.198 498.052 103.316C497.664 104.424 497.224 105.38 496.731 106.185ZM530.499 111.512C528.293 111.512 526.385 111.043 524.775 110.105C523.174 109.158 521.938 107.842 521.067 106.156C520.196 104.461 519.76 102.496 519.76 100.262C519.76 98.0078 520.196 96.0381 521.067 94.3525C521.938 92.6574 523.174 91.3411 524.775 90.4036C526.385 89.4567 528.293 88.9832 530.499 88.9832C532.706 88.9832 534.609 89.4567 536.209 90.4036C537.819 91.3411 539.06 92.6574 539.931 94.3525C540.802 96.0381 541.238 98.0078 541.238 100.262C541.238 102.496 540.802 104.461 539.931 106.156C539.06 107.842 537.819 109.158 536.209 110.105C534.609 111.043 532.706 111.512 530.499 111.512ZM530.528 106.824C531.531 106.824 532.369 106.54 533.042 105.972C533.714 105.394 534.221 104.608 534.562 103.614C534.912 102.62 535.087 101.488 535.087 100.219C535.087 98.95 534.912 97.8184 534.562 96.8241C534.221 95.8298 533.714 95.0438 533.042 94.4661C532.369 93.8885 531.531 93.5997 530.528 93.5997C529.514 93.5997 528.662 93.8885 527.971 94.4661C527.289 95.0438 526.773 95.8298 526.422 96.8241C526.081 97.8184 525.911 98.95 525.911 100.219C525.911 101.488 526.081 102.62 526.422 103.614C526.773 104.608 527.289 105.394 527.971 105.972C528.662 106.54 529.514 106.824 530.528 106.824ZM563.312 81.2559L565.158 85.2048C564.543 85.7161 563.861 86.0949 563.113 86.3411C562.365 86.5779 561.47 86.7341 560.428 86.8099C559.396 86.8856 558.136 86.9377 556.65 86.9661C554.964 86.9851 553.591 87.255 552.53 87.7758C551.47 88.2966 550.665 89.1158 550.116 90.2332C549.566 91.3411 549.206 92.79 549.036 94.5798H549.249C549.903 93.2445 550.821 92.2123 552.005 91.4832C553.198 90.754 554.67 90.3894 556.422 90.3894C558.278 90.3894 559.903 90.7966 561.295 91.611C562.696 92.4254 563.785 93.5949 564.562 95.1195C565.338 96.6442 565.726 98.4718 565.726 100.602C565.726 102.818 565.291 104.745 564.42 106.384C563.558 108.013 562.331 109.277 560.741 110.176C559.15 111.067 557.256 111.512 555.059 111.512C552.852 111.512 550.949 111.048 549.349 110.12C547.758 109.192 546.527 107.823 545.655 106.014C544.794 104.206 544.363 101.98 544.363 99.3383V97.5485C544.363 92.2928 545.385 88.3961 547.431 85.8582C549.476 83.3203 552.483 82.0324 556.451 81.9945C557.53 81.9756 558.506 81.9709 559.377 81.9803C560.248 81.9898 561.01 81.9472 561.664 81.8525C562.327 81.7578 562.876 81.5589 563.312 81.2559ZM555.087 106.824C556.015 106.824 556.811 106.583 557.474 106.1C558.146 105.617 558.662 104.925 559.022 104.026C559.391 103.126 559.576 102.051 559.576 100.801C559.576 99.5608 559.391 98.5097 559.022 97.6479C558.662 96.7767 558.146 96.1139 557.474 95.6593C556.801 95.2048 555.996 94.9775 555.059 94.9775C554.358 94.9775 553.728 95.1053 553.17 95.361C552.611 95.6167 552.133 95.9955 551.735 96.4974C551.347 96.9898 551.044 97.6006 550.826 98.3298C550.617 99.0495 550.513 99.8733 550.513 100.801C550.513 102.667 550.916 104.139 551.721 105.219C552.535 106.289 553.657 106.824 555.087 106.824ZM569.743 119.267V89.2673H575.709V92.932H575.978C576.244 92.3449 576.627 91.7483 577.129 91.1423C577.64 90.5267 578.303 90.0154 579.118 89.6082C579.942 89.1915 580.964 88.9832 582.186 88.9832C583.777 88.9832 585.245 89.3998 586.589 90.2332C587.934 91.057 589.009 92.3023 589.814 93.969C590.619 95.6262 591.021 97.7048 591.021 100.205C591.021 102.638 590.628 104.693 589.842 106.37C589.066 108.036 588.005 109.3 586.66 110.162C585.325 111.014 583.829 111.441 582.172 111.441C580.997 111.441 579.998 111.246 579.175 110.858C578.36 110.47 577.693 109.982 577.172 109.395C576.651 108.799 576.253 108.197 575.978 107.591H575.794V119.267H569.743ZM575.666 100.176C575.666 101.474 575.846 102.605 576.206 103.571C576.566 104.537 577.086 105.29 577.768 105.83C578.45 106.36 579.279 106.625 580.254 106.625C581.239 106.625 582.072 106.355 582.754 105.816C583.436 105.266 583.952 104.509 584.302 103.543C584.662 102.567 584.842 101.445 584.842 100.176C584.842 98.9169 584.667 97.8089 584.317 96.8525C583.966 95.8961 583.45 95.1479 582.768 94.6082C582.086 94.0684 581.248 93.7985 580.254 93.7985C579.269 93.7985 578.436 94.0589 577.754 94.5798C577.082 95.1006 576.566 95.8392 576.206 96.7957C575.846 97.7521 575.666 98.879 575.666 100.176ZM604.913 111.512C602.707 111.512 600.799 111.043 599.189 110.105C597.588 109.158 596.353 107.842 595.481 106.156C594.61 104.461 594.175 102.496 594.175 100.262C594.175 98.0078 594.61 96.0381 595.481 94.3525C596.353 92.6574 597.588 91.3411 599.189 90.4036C600.799 89.4567 602.707 88.9832 604.913 88.9832C607.12 88.9832 609.023 89.4567 610.623 90.4036C612.233 91.3411 613.474 92.6574 614.345 94.3525C615.216 96.0381 615.652 98.0078 615.652 100.262C615.652 102.496 615.216 104.461 614.345 106.156C613.474 107.842 612.233 109.158 610.623 110.105C609.023 111.043 607.12 111.512 604.913 111.512ZM604.942 106.824C605.945 106.824 606.783 106.54 607.456 105.972C608.128 105.394 608.635 104.608 608.976 103.614C609.326 102.62 609.501 101.488 609.501 100.219C609.501 98.95 609.326 97.8184 608.976 96.8241C608.635 95.8298 608.128 95.0438 607.456 94.4661C606.783 93.8885 605.945 93.5997 604.942 93.5997C603.928 93.5997 603.076 93.8885 602.385 94.4661C601.703 95.0438 601.187 95.8298 600.836 96.8241C600.496 97.8184 600.325 98.95 600.325 100.219C600.325 101.488 600.496 102.62 600.836 103.614C601.187 104.608 601.703 105.394 602.385 105.972C603.076 106.54 603.928 106.824 604.942 106.824ZM425.075 160.085V138.267H444.151V160.085H438.37V143.026H430.785V160.085H425.075ZM458.839 160.512C456.632 160.512 454.724 160.043 453.115 159.105C451.514 158.158 450.278 156.842 449.407 155.156C448.536 153.461 448.1 151.496 448.1 149.262C448.1 147.008 448.536 145.038 449.407 143.352C450.278 141.657 451.514 140.341 453.115 139.404C454.724 138.457 456.632 137.983 458.839 137.983C461.045 137.983 462.949 138.457 464.549 139.404C466.159 140.341 467.4 141.657 468.271 143.352C469.142 145.038 469.578 147.008 469.578 149.262C469.578 151.496 469.142 153.461 468.271 155.156C467.4 156.842 466.159 158.158 464.549 159.105C462.949 160.043 461.045 160.512 458.839 160.512ZM458.867 155.824C459.871 155.824 460.709 155.54 461.382 154.972C462.054 154.394 462.561 153.608 462.901 152.614C463.252 151.62 463.427 150.488 463.427 149.219C463.427 147.95 463.252 146.818 462.901 145.824C462.561 144.83 462.054 144.044 461.382 143.466C460.709 142.888 459.871 142.6 458.867 142.6C457.854 142.6 457.002 142.888 456.311 143.466C455.629 144.044 455.113 144.83 454.762 145.824C454.421 146.818 454.251 147.95 454.251 149.219C454.251 150.488 454.421 151.62 454.762 152.614C455.113 153.608 455.629 154.394 456.311 154.972C457.002 155.54 457.854 155.824 458.867 155.824ZM471.311 160.085L478.938 148.736L471.353 138.267H478.257L483.924 146.804H484.862V138.267H490.913V146.804H491.822L497.49 138.267H504.393L496.822 148.736L504.436 160.085H497.376L491.765 151.563H490.913V160.085H484.862V151.563H484.009L478.37 160.085H471.311ZM513.953 160.497C512.561 160.497 511.32 160.256 510.231 159.773C509.142 159.281 508.28 158.556 507.646 157.6C507.021 156.634 506.708 155.431 506.708 153.992C506.708 152.78 506.931 151.762 507.376 150.938C507.821 150.114 508.427 149.451 509.194 148.949C509.961 148.447 510.832 148.068 511.808 147.813C512.793 147.557 513.825 147.377 514.904 147.273C516.173 147.14 517.196 147.017 517.972 146.904C518.749 146.781 519.312 146.601 519.663 146.364C520.013 146.127 520.188 145.777 520.188 145.313V145.227C520.188 144.328 519.904 143.632 519.336 143.139C518.777 142.647 517.982 142.401 516.95 142.401C515.861 142.401 514.994 142.642 514.35 143.125C513.706 143.599 513.28 144.195 513.072 144.915L507.475 144.46C507.759 143.135 508.318 141.989 509.151 141.023C509.985 140.048 511.06 139.299 512.376 138.779C513.702 138.248 515.236 137.983 516.978 137.983C518.19 137.983 519.35 138.125 520.458 138.409C521.576 138.693 522.565 139.134 523.427 139.73C524.298 140.327 524.985 141.094 525.487 142.031C525.989 142.96 526.24 144.072 526.24 145.37V160.085H520.501V157.06H520.33C519.98 157.742 519.511 158.343 518.924 158.864C518.337 159.375 517.632 159.778 516.808 160.071C515.984 160.355 515.032 160.497 513.953 160.497ZM515.686 156.321C516.576 156.321 517.362 156.146 518.043 155.796C518.725 155.436 519.26 154.953 519.649 154.347C520.037 153.741 520.231 153.054 520.231 152.287V149.972C520.042 150.095 519.781 150.209 519.45 150.313C519.128 150.407 518.763 150.497 518.356 150.583C517.949 150.658 517.542 150.729 517.134 150.796C516.727 150.852 516.358 150.905 516.026 150.952C515.316 151.056 514.696 151.222 514.166 151.449C513.635 151.676 513.223 151.984 512.93 152.372C512.636 152.751 512.49 153.225 512.49 153.793C512.49 154.617 512.788 155.246 513.384 155.682C513.99 156.108 514.757 156.321 515.686 156.321ZM529.656 160.085L529.627 155.284H530.352C530.863 155.284 531.303 155.161 531.673 154.915C532.052 154.659 532.364 154.247 532.61 153.679C532.856 153.111 533.051 152.358 533.193 151.421C533.335 150.474 533.429 149.309 533.477 147.926L533.832 138.267H550.423V160.085H544.656V143.026H539.272L538.931 149.688C538.846 151.515 538.623 153.087 538.264 154.404C537.913 155.72 537.426 156.799 536.801 157.642C536.176 158.476 535.423 159.091 534.542 159.489C533.661 159.887 532.639 160.085 531.474 160.085H529.656ZM564.972 160.512C562.765 160.512 560.857 160.043 559.247 159.105C557.647 158.158 556.411 156.842 555.54 155.156C554.669 153.461 554.233 151.496 554.233 149.262C554.233 147.008 554.669 145.038 555.54 143.352C556.411 141.657 557.647 140.341 559.247 139.404C560.857 138.457 562.765 137.983 564.972 137.983C567.178 137.983 569.082 138.457 570.682 139.404C572.292 140.341 573.532 141.657 574.404 143.352C575.275 145.038 575.71 147.008 575.71 149.262C575.71 151.496 575.275 153.461 574.404 155.156C573.532 156.842 572.292 158.158 570.682 159.105C569.082 160.043 567.178 160.512 564.972 160.512ZM565 155.824C566.004 155.824 566.842 155.54 567.514 154.972C568.187 154.394 568.693 153.608 569.034 152.614C569.385 151.62 569.56 150.488 569.56 149.219C569.56 147.95 569.385 146.818 569.034 145.824C568.693 144.83 568.187 144.044 567.514 143.466C566.842 142.888 566.004 142.6 565 142.6C563.987 142.6 563.135 142.888 562.443 143.466C561.762 144.044 561.245 144.83 560.895 145.824C560.554 146.818 560.384 147.95 560.384 149.219C560.384 150.488 560.554 151.62 560.895 152.614C561.245 153.608 561.762 154.394 562.443 154.972C563.135 155.54 563.987 155.824 565 155.824ZM579.645 160.085V138.267H588.949C591.638 138.267 593.764 138.779 595.327 139.801C596.889 140.824 597.671 142.278 597.671 144.162C597.671 145.346 597.23 146.331 596.35 147.117C595.469 147.903 594.247 148.433 592.685 148.708C593.992 148.802 595.104 149.101 596.023 149.602C596.951 150.095 597.656 150.734 598.139 151.52C598.632 152.306 598.878 153.177 598.878 154.134C598.878 155.374 598.547 156.44 597.884 157.33C597.23 158.22 596.269 158.902 595 159.375C593.741 159.849 592.202 160.085 590.384 160.085H579.645ZM585.284 155.554H590.384C591.226 155.554 591.885 155.355 592.358 154.958C592.841 154.55 593.083 153.996 593.083 153.296C593.083 152.519 592.841 151.908 592.358 151.463C591.885 151.018 591.226 150.796 590.384 150.796H585.284V155.554ZM585.284 147.245H589.077C589.683 147.245 590.199 147.159 590.625 146.989C591.061 146.809 591.392 146.553 591.619 146.222C591.856 145.89 591.975 145.497 591.975 145.043C591.975 144.37 591.705 143.845 591.165 143.466C590.625 143.087 589.887 142.898 588.949 142.898H585.284V147.245ZM608.914 160.497C607.521 160.497 606.281 160.256 605.192 159.773C604.103 159.281 603.241 158.556 602.607 157.6C601.982 156.634 601.669 155.431 601.669 153.992C601.669 152.78 601.892 151.762 602.337 150.938C602.782 150.114 603.388 149.451 604.155 148.949C604.922 148.447 605.793 148.068 606.769 147.813C607.753 147.557 608.786 147.377 609.865 147.273C611.134 147.14 612.157 147.017 612.933 146.904C613.71 146.781 614.273 146.601 614.624 146.364C614.974 146.127 615.149 145.777 615.149 145.313V145.227C615.149 144.328 614.865 143.632 614.297 143.139C613.738 142.647 612.943 142.401 611.911 142.401C610.822 142.401 609.955 142.642 609.311 143.125C608.667 143.599 608.241 144.195 608.033 144.915L602.436 144.46C602.72 143.135 603.279 141.989 604.112 141.023C604.946 140.048 606.021 139.299 607.337 138.779C608.663 138.248 610.197 137.983 611.939 137.983C613.151 137.983 614.311 138.125 615.419 138.409C616.537 138.693 617.526 139.134 618.388 139.73C619.259 140.327 619.946 141.094 620.448 142.031C620.949 142.96 621.2 144.072 621.2 145.37V160.085H615.462V157.06H615.291C614.941 157.742 614.472 158.343 613.885 158.864C613.298 159.375 612.592 159.778 611.769 160.071C610.945 160.355 609.993 160.497 608.914 160.497ZM610.646 156.321C611.537 156.321 612.323 156.146 613.004 155.796C613.686 155.436 614.221 154.953 614.61 154.347C614.998 153.741 615.192 153.054 615.192 152.287V149.972C615.003 150.095 614.742 150.209 614.411 150.313C614.089 150.407 613.724 150.497 613.317 150.583C612.91 150.658 612.503 150.729 612.095 150.796C611.688 150.852 611.319 150.905 610.987 150.952C610.277 151.056 609.657 151.222 609.127 151.449C608.596 151.676 608.184 151.984 607.891 152.372C607.597 152.751 607.45 153.225 607.45 153.793C607.45 154.617 607.749 155.246 608.345 155.682C608.951 156.108 609.718 156.321 610.646 156.321ZM623.704 143.026V138.267H643.477V143.026H636.445V160.085H630.678V143.026H623.704ZM650.938 144.972H657.458C660.346 144.972 662.6 145.663 664.219 147.046C665.838 148.419 666.648 150.256 666.648 152.557C666.648 154.053 666.283 155.37 665.554 156.506C664.825 157.633 663.774 158.513 662.401 159.148C661.028 159.773 659.38 160.085 657.458 160.085H647.145V138.267H652.926V155.327H657.458C658.471 155.327 659.304 155.071 659.958 154.56C660.611 154.049 660.942 153.395 660.952 152.6C660.942 151.757 660.611 151.07 659.958 150.54C659.304 150 658.471 149.73 657.458 149.73H650.938V144.972ZM677.891 130.995L677.337 151.364H672.138L671.57 130.995H677.891ZM674.737 160.455C673.8 160.455 672.995 160.123 672.323 159.46C671.65 158.788 671.319 157.983 671.328 157.046C671.319 156.118 671.65 155.322 672.323 154.659C672.995 153.996 673.8 153.665 674.737 153.665C675.637 153.665 676.428 153.996 677.11 154.659C677.791 155.322 678.137 156.118 678.146 157.046C678.137 157.671 677.971 158.244 677.649 158.764C677.337 159.276 676.925 159.688 676.414 160C675.902 160.303 675.343 160.455 674.737 160.455Z" fill="url(#paint0_linear_512_6543)"/>
<path d="M444.227 190.046V201.683H442.477V191.546H437V201.683H435.25V190.046H444.227ZM450.537 201.859C449.677 201.859 448.937 201.675 448.316 201.308C447.698 200.936 447.221 200.416 446.884 199.745C446.55 199.071 446.384 198.281 446.384 197.376C446.384 196.482 446.55 195.694 446.884 195.012C447.221 194.33 447.691 193.798 448.293 193.416C448.899 193.033 449.607 192.842 450.418 192.842C450.91 192.842 451.387 192.923 451.85 193.086C452.312 193.249 452.727 193.505 453.094 193.853C453.461 194.202 453.751 194.654 453.963 195.211C454.175 195.764 454.281 196.436 454.281 197.228V197.83H447.344V196.558H452.617C452.617 196.111 452.526 195.715 452.344 195.37C452.162 195.022 451.906 194.747 451.577 194.546C451.251 194.345 450.869 194.245 450.429 194.245C449.952 194.245 449.535 194.363 449.179 194.597C448.827 194.828 448.554 195.131 448.361 195.506C448.172 195.878 448.077 196.281 448.077 196.717V197.711C448.077 198.294 448.179 198.791 448.384 199.2C448.592 199.609 448.882 199.921 449.253 200.137C449.624 200.349 450.058 200.455 450.554 200.455C450.876 200.455 451.17 200.41 451.435 200.319C451.7 200.224 451.929 200.084 452.122 199.899C452.316 199.713 452.463 199.484 452.566 199.211L454.173 199.501C454.045 199.974 453.814 200.389 453.48 200.745C453.151 201.097 452.736 201.372 452.236 201.569C451.74 201.762 451.173 201.859 450.537 201.859ZM456.166 204.955V192.955H457.825V194.37H457.968C458.066 194.188 458.208 193.978 458.394 193.739C458.579 193.501 458.837 193.292 459.166 193.114C459.496 192.933 459.932 192.842 460.473 192.842C461.178 192.842 461.807 193.02 462.36 193.376C462.913 193.732 463.346 194.245 463.661 194.916C463.979 195.586 464.138 196.393 464.138 197.336C464.138 198.279 463.981 199.088 463.666 199.762C463.352 200.433 462.92 200.95 462.371 201.313C461.822 201.673 461.195 201.853 460.49 201.853C459.96 201.853 459.526 201.764 459.189 201.586C458.856 201.408 458.594 201.2 458.405 200.961C458.216 200.722 458.07 200.51 457.968 200.325H457.865V204.955H456.166ZM457.831 197.319C457.831 197.933 457.92 198.47 458.098 198.933C458.276 199.395 458.534 199.756 458.871 200.018C459.208 200.275 459.621 200.404 460.11 200.404C460.617 200.404 461.041 200.27 461.382 200.001C461.723 199.728 461.981 199.359 462.155 198.893C462.333 198.427 462.422 197.902 462.422 197.319C462.422 196.743 462.335 196.226 462.161 195.768C461.99 195.31 461.733 194.948 461.388 194.683C461.047 194.417 460.621 194.285 460.11 194.285C459.617 194.285 459.2 194.412 458.86 194.666C458.522 194.919 458.267 195.274 458.093 195.728C457.918 196.183 457.831 196.713 457.831 197.319ZM469.803 201.859C468.943 201.859 468.202 201.675 467.581 201.308C466.964 200.936 466.486 200.416 466.149 199.745C465.816 199.071 465.649 198.281 465.649 197.376C465.649 196.482 465.816 195.694 466.149 195.012C466.486 194.33 466.956 193.798 467.558 193.416C468.164 193.033 468.873 192.842 469.683 192.842C470.176 192.842 470.653 192.923 471.115 193.086C471.577 193.249 471.992 193.505 472.36 193.853C472.727 194.202 473.017 194.654 473.229 195.211C473.441 195.764 473.547 196.436 473.547 197.228V197.83H466.61V196.558H471.882C471.882 196.111 471.791 195.715 471.61 195.37C471.428 195.022 471.172 194.747 470.843 194.546C470.517 194.345 470.134 194.245 469.695 194.245C469.218 194.245 468.801 194.363 468.445 194.597C468.093 194.828 467.82 195.131 467.627 195.506C467.437 195.878 467.343 196.281 467.343 196.717V197.711C467.343 198.294 467.445 198.791 467.649 199.2C467.858 199.609 468.147 199.921 468.519 200.137C468.89 200.349 469.324 200.455 469.82 200.455C470.142 200.455 470.435 200.41 470.7 200.319C470.966 200.224 471.195 200.084 471.388 199.899C471.581 199.713 471.729 199.484 471.831 199.211L473.439 199.501C473.31 199.974 473.079 200.389 472.746 200.745C472.416 201.097 472.002 201.372 471.502 201.569C471.005 201.762 470.439 201.859 469.803 201.859ZM474.58 204.2V200.211H475.29C475.472 200.044 475.625 199.845 475.75 199.614C475.879 199.383 475.987 199.109 476.074 198.791C476.165 198.472 476.241 198.101 476.301 197.677C476.362 197.249 476.415 196.76 476.46 196.211L476.733 192.955H482.665V200.211H484.006V204.2H482.347V201.683H476.262V204.2H474.58ZM477.108 200.211H481.006V194.41H478.256L478.074 196.211C477.987 197.128 477.877 197.923 477.744 198.597C477.612 199.268 477.4 199.806 477.108 200.211ZM489.901 201.683V192.955H493.52C494.505 192.955 495.285 193.166 495.861 193.586C496.437 194.003 496.725 194.569 496.725 195.285C496.725 195.796 496.562 196.202 496.236 196.501C495.91 196.8 495.478 197.001 494.941 197.103C495.331 197.149 495.689 197.266 496.014 197.455C496.34 197.641 496.602 197.891 496.798 198.205C496.999 198.52 497.1 198.895 497.1 199.33C497.1 199.792 496.98 200.202 496.742 200.558C496.503 200.91 496.156 201.186 495.702 201.387C495.251 201.584 494.708 201.683 494.071 201.683H489.901ZM491.497 200.262H494.071C494.492 200.262 494.821 200.162 495.06 199.961C495.298 199.76 495.418 199.488 495.418 199.143C495.418 198.738 495.298 198.419 495.06 198.188C494.821 197.953 494.492 197.836 494.071 197.836H491.497V200.262ZM491.497 196.592H493.537C493.855 196.592 494.128 196.546 494.355 196.455C494.586 196.364 494.762 196.236 494.884 196.069C495.009 195.899 495.071 195.698 495.071 195.467C495.071 195.13 494.933 194.866 494.656 194.677C494.38 194.488 494.001 194.393 493.52 194.393H491.497V196.592ZM501.503 201.876C500.95 201.876 500.45 201.774 500.003 201.569C499.556 201.361 499.202 201.06 498.941 200.666C498.683 200.272 498.554 199.789 498.554 199.217C498.554 198.724 498.649 198.319 498.838 198.001C499.028 197.683 499.283 197.431 499.605 197.245C499.927 197.06 500.287 196.919 500.685 196.825C501.083 196.73 501.488 196.658 501.901 196.609C502.423 196.548 502.848 196.499 503.173 196.461C503.499 196.419 503.736 196.353 503.884 196.262C504.031 196.171 504.105 196.024 504.105 195.819V195.779C504.105 195.283 503.965 194.899 503.685 194.626C503.408 194.353 502.995 194.217 502.446 194.217C501.874 194.217 501.423 194.344 501.094 194.597C500.768 194.847 500.543 195.126 500.418 195.433L498.821 195.069C499.011 194.539 499.287 194.111 499.651 193.785C500.018 193.455 500.441 193.217 500.918 193.069C501.395 192.917 501.897 192.842 502.423 192.842C502.772 192.842 503.141 192.883 503.531 192.967C503.925 193.046 504.293 193.194 504.634 193.41C504.978 193.626 505.261 193.935 505.48 194.336C505.7 194.734 505.81 195.251 505.81 195.887V201.683H504.151V200.489H504.083C503.973 200.709 503.808 200.925 503.588 201.137C503.369 201.349 503.086 201.525 502.742 201.666C502.397 201.806 501.984 201.876 501.503 201.876ZM501.872 200.512C502.342 200.512 502.744 200.419 503.077 200.234C503.414 200.048 503.67 199.806 503.844 199.506C504.022 199.203 504.111 198.88 504.111 198.535V197.41C504.05 197.47 503.933 197.527 503.759 197.58C503.588 197.63 503.393 197.673 503.173 197.711C502.954 197.745 502.74 197.777 502.531 197.808C502.323 197.834 502.149 197.857 502.009 197.876C501.679 197.917 501.378 197.988 501.105 198.086C500.836 198.185 500.62 198.327 500.458 198.512C500.298 198.694 500.219 198.936 500.219 199.239C500.219 199.66 500.374 199.978 500.685 200.194C500.995 200.406 501.391 200.512 501.872 200.512ZM512.97 199.58L515.789 192.955H517.254L513.601 201.683H512.34L508.76 192.955H510.209L512.97 199.58ZM509.737 192.955V201.683H508.073V192.955H509.737ZM516.249 201.683V192.955H517.902V201.683H516.249ZM521.831 199.302L525.678 192.955H527.507V201.683H525.843V195.33L522.013 201.683H520.166V192.955H521.831V199.302ZM642.423 204.2V200.211H643.134C643.316 200.044 643.469 199.845 643.594 199.614C643.723 199.383 643.831 199.109 643.918 198.791C644.009 198.472 644.084 198.101 644.145 197.677C644.206 197.249 644.259 196.76 644.304 196.211L644.577 192.955H650.509V200.211H651.85V204.2H650.191V201.683H644.105V204.2H642.423ZM644.952 200.211H648.85V194.41H646.1L645.918 196.211C645.831 197.128 645.721 197.923 645.588 198.597C645.456 199.268 645.244 199.806 644.952 200.211ZM652.823 201.683L652.817 200.211H653.129C653.372 200.211 653.575 200.16 653.737 200.058C653.904 199.952 654.04 199.774 654.146 199.524C654.253 199.274 654.334 198.929 654.391 198.489C654.448 198.046 654.489 197.489 654.516 196.819L654.669 192.955H660.76V201.683H659.095V194.421H656.243L656.107 197.387C656.073 198.107 655.999 198.736 655.885 199.274C655.775 199.811 655.614 200.26 655.402 200.62C655.19 200.976 654.917 201.243 654.584 201.421C654.251 201.595 653.845 201.683 653.368 201.683H652.823ZM668.23 201.683V194.404H666.139C665.643 194.404 665.257 194.52 664.98 194.751C664.704 194.982 664.566 195.285 664.566 195.66C664.566 196.031 664.692 196.33 664.946 196.558C665.204 196.781 665.564 196.893 666.026 196.893H668.725V198.268H666.026C665.382 198.268 664.825 198.162 664.355 197.95C663.889 197.734 663.53 197.429 663.276 197.035C663.026 196.641 662.901 196.175 662.901 195.637C662.901 195.088 663.03 194.614 663.287 194.217C663.548 193.815 663.922 193.505 664.406 193.285C664.895 193.065 665.473 192.955 666.139 192.955H669.827V201.683H668.23ZM662.503 201.683L664.963 197.274H666.702L664.242 201.683H662.503ZM428.666 220.683V211.955H435.786V220.683H434.121V213.421H430.32V220.683H428.666ZM441.733 220.859C440.915 220.859 440.201 220.671 439.591 220.296C438.981 219.921 438.508 219.397 438.171 218.722C437.834 218.048 437.665 217.26 437.665 216.359C437.665 215.453 437.834 214.662 438.171 213.984C438.508 213.306 438.981 212.779 439.591 212.404C440.201 212.029 440.915 211.842 441.733 211.842C442.551 211.842 443.265 212.029 443.875 212.404C444.485 212.779 444.959 213.306 445.296 213.984C445.633 214.662 445.801 215.453 445.801 216.359C445.801 217.26 445.633 218.048 445.296 218.722C444.959 219.397 444.485 219.921 443.875 220.296C443.265 220.671 442.551 220.859 441.733 220.859ZM441.739 219.433C442.269 219.433 442.709 219.292 443.057 219.012C443.405 218.732 443.663 218.359 443.83 217.893C444 217.427 444.085 216.914 444.085 216.353C444.085 215.796 444 215.285 443.83 214.819C443.663 214.349 443.405 213.972 443.057 213.688C442.709 213.404 442.269 213.262 441.739 213.262C441.205 213.262 440.762 213.404 440.409 213.688C440.061 213.972 439.801 214.349 439.631 214.819C439.464 215.285 439.381 215.796 439.381 216.353C439.381 216.914 439.464 217.427 439.631 217.893C439.801 218.359 440.061 218.732 440.409 219.012C440.762 219.292 441.205 219.433 441.739 219.433ZM452.595 218.58L455.414 211.955H456.879L453.226 220.683H451.965L448.385 211.955H449.834L452.595 218.58ZM449.362 211.955V220.683H447.698V211.955H449.362ZM455.874 220.683V211.955H457.527V220.683H455.874ZM463.468 220.859C462.649 220.859 461.935 220.671 461.325 220.296C460.716 219.921 460.242 219.397 459.905 218.722C459.568 218.048 459.399 217.26 459.399 216.359C459.399 215.453 459.568 214.662 459.905 213.984C460.242 213.306 460.716 212.779 461.325 212.404C461.935 212.029 462.649 211.842 463.468 211.842C464.286 211.842 465 212.029 465.61 212.404C466.219 212.779 466.693 213.306 467.03 213.984C467.367 214.662 467.536 215.453 467.536 216.359C467.536 217.26 467.367 218.048 467.03 218.722C466.693 219.397 466.219 219.921 465.61 220.296C465 220.671 464.286 220.859 463.468 220.859ZM463.473 219.433C464.003 219.433 464.443 219.292 464.791 219.012C465.14 218.732 465.397 218.359 465.564 217.893C465.735 217.427 465.82 216.914 465.82 216.353C465.82 215.796 465.735 215.285 465.564 214.819C465.397 214.349 465.14 213.972 464.791 213.688C464.443 213.404 464.003 213.262 463.473 213.262C462.939 213.262 462.496 213.404 462.144 213.688C461.795 213.972 461.536 214.349 461.365 214.819C461.199 215.285 461.115 215.796 461.115 216.353C461.115 216.914 461.199 217.427 461.365 217.893C461.536 218.359 461.795 218.732 462.144 219.012C462.496 219.292 462.939 219.433 463.473 219.433ZM481.938 219.217L481.779 223.183H480.114V220.683H479.029V219.217H481.938ZM469.432 211.955H471.097V219.211H474.114V211.955H475.779V219.211H478.796V211.955H480.46V220.683H469.432V211.955ZM485.394 218.302L489.24 211.955H491.07V220.683H489.405V214.33L485.575 220.683H483.729V211.955H485.394V218.302ZM501.264 220.859C500.42 220.859 499.692 220.667 499.083 220.285C498.477 219.899 498.011 219.366 497.685 218.688C497.359 218.01 497.196 217.234 497.196 216.359C497.196 215.472 497.363 214.69 497.696 214.012C498.03 213.33 498.499 212.798 499.105 212.416C499.711 212.033 500.425 211.842 501.247 211.842C501.91 211.842 502.501 211.965 503.02 212.211C503.539 212.453 503.958 212.794 504.276 213.234C504.598 213.673 504.789 214.186 504.85 214.774H503.196C503.105 214.364 502.897 214.012 502.571 213.717C502.249 213.421 501.817 213.274 501.276 213.274C500.802 213.274 500.387 213.399 500.031 213.649C499.679 213.895 499.405 214.247 499.208 214.705C499.011 215.16 498.912 215.698 498.912 216.319C498.912 216.955 499.009 217.505 499.202 217.967C499.395 218.429 499.668 218.787 500.02 219.041C500.376 219.294 500.795 219.421 501.276 219.421C501.598 219.421 501.889 219.363 502.151 219.245C502.416 219.124 502.637 218.952 502.816 218.728C502.997 218.505 503.124 218.236 503.196 217.921H504.85C504.789 218.486 504.605 218.989 504.298 219.433C503.992 219.876 503.581 220.224 503.066 220.478C502.554 220.732 501.954 220.859 501.264 220.859ZM506.006 213.421V211.955H513.369V213.421H510.523V220.683H508.864V213.421H506.006ZM516.24 223.955C515.986 223.955 515.755 223.935 515.547 223.893C515.339 223.855 515.183 223.813 515.081 223.768L515.49 222.376C515.801 222.459 516.077 222.495 516.32 222.484C516.562 222.472 516.776 222.381 516.962 222.211C517.151 222.041 517.318 221.762 517.462 221.376L517.672 220.796L514.479 211.955H516.297L518.507 218.728H518.598L520.808 211.955H522.632L519.036 221.847C518.869 222.302 518.657 222.686 518.399 223.001C518.142 223.319 517.835 223.558 517.479 223.717C517.123 223.876 516.71 223.955 516.24 223.955ZM522.658 223.2V219.211H523.368C523.55 219.044 523.703 218.845 523.828 218.614C523.957 218.383 524.065 218.109 524.152 217.791C524.243 217.472 524.319 217.101 524.379 216.677C524.44 216.249 524.493 215.76 524.539 215.211L524.811 211.955H530.743V219.211H532.084V223.2H530.425V220.683H524.34V223.2H522.658ZM525.186 219.211H529.084V213.41H526.334L526.152 215.211C526.065 216.128 525.955 216.923 525.823 217.597C525.69 218.268 525.478 218.806 525.186 219.211ZM537.506 220.859C536.646 220.859 535.905 220.675 535.284 220.308C534.667 219.936 534.19 219.416 533.852 218.745C533.519 218.071 533.352 217.281 533.352 216.376C533.352 215.482 533.519 214.694 533.852 214.012C534.19 213.33 534.659 212.798 535.262 212.416C535.868 212.033 536.576 211.842 537.387 211.842C537.879 211.842 538.356 211.923 538.818 212.086C539.28 212.249 539.695 212.505 540.063 212.853C540.43 213.202 540.72 213.654 540.932 214.211C541.144 214.764 541.25 215.436 541.25 216.228V216.83H534.313V215.558H539.585C539.585 215.111 539.494 214.715 539.313 214.37C539.131 214.022 538.875 213.747 538.546 213.546C538.22 213.345 537.837 213.245 537.398 213.245C536.921 213.245 536.504 213.363 536.148 213.597C535.796 213.828 535.523 214.131 535.33 214.506C535.14 214.878 535.046 215.281 535.046 215.717V216.711C535.046 217.294 535.148 217.791 535.352 218.2C535.561 218.609 535.851 218.921 536.222 219.137C536.593 219.349 537.027 219.455 537.523 219.455C537.845 219.455 538.138 219.41 538.404 219.319C538.669 219.224 538.898 219.084 539.091 218.899C539.284 218.713 539.432 218.484 539.534 218.211L541.142 218.501C541.013 218.974 540.782 219.389 540.449 219.745C540.119 220.097 539.705 220.372 539.205 220.569C538.709 220.762 538.142 220.859 537.506 220.859ZM549.05 215.586V217.058H544.323V215.586H549.05ZM544.8 211.955V220.683H543.135V211.955H544.8ZM550.237 211.955V220.683H548.578V211.955H550.237ZM551.428 213.421V211.955H558.791V213.421H555.945V220.683H554.286V213.421H551.428ZM562.722 220.876C562.169 220.876 561.669 220.774 561.222 220.569C560.775 220.361 560.421 220.06 560.159 219.666C559.902 219.272 559.773 218.789 559.773 218.217C559.773 217.724 559.868 217.319 560.057 217.001C560.246 216.683 560.502 216.431 560.824 216.245C561.146 216.06 561.506 215.919 561.904 215.825C562.301 215.73 562.707 215.658 563.119 215.609C563.642 215.548 564.066 215.499 564.392 215.461C564.718 215.419 564.955 215.353 565.102 215.262C565.25 215.171 565.324 215.024 565.324 214.819V214.779C565.324 214.283 565.184 213.899 564.904 213.626C564.627 213.353 564.214 213.217 563.665 213.217C563.093 213.217 562.642 213.344 562.313 213.597C561.987 213.847 561.762 214.126 561.637 214.433L560.04 214.069C560.229 213.539 560.506 213.111 560.869 212.785C561.237 212.455 561.659 212.217 562.137 212.069C562.614 211.917 563.116 211.842 563.642 211.842C563.991 211.842 564.36 211.883 564.75 211.967C565.144 212.046 565.512 212.194 565.852 212.41C566.197 212.626 566.479 212.935 566.699 213.336C566.919 213.734 567.029 214.251 567.029 214.887V220.683H565.369V219.489H565.301C565.191 219.709 565.027 219.925 564.807 220.137C564.587 220.349 564.305 220.525 563.96 220.666C563.616 220.806 563.203 220.876 562.722 220.876ZM563.091 219.512C563.561 219.512 563.962 219.419 564.296 219.234C564.633 219.048 564.888 218.806 565.063 218.506C565.241 218.203 565.33 217.88 565.33 217.535V216.41C565.269 216.47 565.152 216.527 564.977 216.58C564.807 216.63 564.612 216.673 564.392 216.711C564.173 216.745 563.959 216.777 563.75 216.808C563.542 216.834 563.368 216.857 563.227 216.876C562.898 216.917 562.597 216.988 562.324 217.086C562.055 217.185 561.839 217.327 561.676 217.512C561.517 217.694 561.438 217.936 561.438 218.239C561.438 218.66 561.593 218.978 561.904 219.194C562.214 219.406 562.61 219.512 563.091 219.512ZM574.189 218.58L577.007 211.955H578.473L574.82 220.683H573.558L569.979 211.955H571.428L574.189 218.58ZM570.956 211.955V220.683H569.291V211.955H570.956ZM577.468 220.683V211.955H579.121V220.683H577.468ZM583.595 219.092L583.51 219.711C583.453 220.166 583.357 220.639 583.22 221.131C583.088 221.628 582.95 222.088 582.806 222.512C582.665 222.936 582.55 223.274 582.459 223.524H581.254C581.304 223.289 581.372 222.97 581.459 222.569C581.546 222.171 581.631 221.726 581.715 221.234C581.798 220.741 581.86 220.239 581.902 219.728L581.959 219.092H583.595ZM591.706 218.302L595.553 211.955H597.382V220.683H595.718V214.33L591.888 220.683H590.041V211.955H591.706V218.302ZM608.798 218.58L611.617 211.955H613.083L609.429 220.683H608.168L604.588 211.955H606.037L608.798 218.58ZM605.566 211.955V220.683H603.901V211.955H605.566ZM612.077 220.683V211.955H613.73V220.683H612.077ZM617.273 214.955H619.807C620.875 214.955 621.697 215.22 622.273 215.751C622.849 216.281 623.137 216.965 623.137 217.802C623.137 218.347 623.008 218.838 622.75 219.274C622.493 219.709 622.116 220.054 621.619 220.308C621.123 220.558 620.519 220.683 619.807 220.683H615.994V211.955H617.659V219.217H619.807C620.296 219.217 620.697 219.09 621.012 218.836C621.326 218.578 621.483 218.251 621.483 217.853C621.483 217.433 621.326 217.09 621.012 216.825C620.697 216.556 620.296 216.421 619.807 216.421H617.273V214.955ZM624.375 220.683V211.955H626.074V220.683H624.375ZM632.071 218.376H633.81C633.833 218.732 633.994 219.006 634.293 219.2C634.596 219.393 634.988 219.489 635.469 219.489C635.958 219.489 636.374 219.385 636.719 219.177C637.064 218.965 637.236 218.637 637.236 218.194C637.236 217.929 637.17 217.698 637.037 217.501C636.908 217.3 636.725 217.145 636.486 217.035C636.251 216.925 635.973 216.87 635.651 216.87H634.23V215.535H635.651C636.132 215.535 636.492 215.425 636.73 215.205C636.969 214.986 637.088 214.711 637.088 214.381C637.088 214.025 636.959 213.739 636.702 213.524C636.448 213.304 636.094 213.194 635.639 213.194C635.177 213.194 634.793 213.298 634.486 213.506C634.179 213.711 634.018 213.976 634.003 214.302H632.287C632.298 213.813 632.446 213.385 632.73 213.018C633.018 212.647 633.405 212.359 633.889 212.154C634.378 211.946 634.933 211.842 635.554 211.842C636.202 211.842 636.762 211.946 637.236 212.154C637.709 212.363 638.075 212.65 638.333 213.018C638.594 213.385 638.725 213.808 638.725 214.285C638.725 214.766 638.581 215.16 638.293 215.467C638.009 215.77 637.637 215.988 637.179 216.12V216.211C637.516 216.234 637.816 216.336 638.077 216.518C638.338 216.7 638.543 216.94 638.691 217.239C638.838 217.539 638.912 217.878 638.912 218.256C638.912 218.791 638.764 219.253 638.469 219.643C638.177 220.033 637.772 220.334 637.253 220.546C636.738 220.755 636.149 220.859 635.486 220.859C634.842 220.859 634.264 220.758 633.753 220.558C633.245 220.353 632.842 220.065 632.543 219.694C632.247 219.323 632.09 218.883 632.071 218.376ZM639.814 223.2V219.211H640.524C640.706 219.044 640.86 218.845 640.985 218.614C641.113 218.383 641.221 218.109 641.308 217.791C641.399 217.472 641.475 217.101 641.536 216.677C641.596 216.249 641.649 215.76 641.695 215.211L641.968 211.955H647.899V219.211H649.24V223.2H647.581V220.683H641.496V223.2H639.814ZM642.343 219.211H646.24V213.41H643.49L643.308 215.211C643.221 216.128 643.111 216.923 642.979 217.597C642.846 218.268 642.634 218.806 642.343 219.211ZM654.662 220.859C653.802 220.859 653.062 220.675 652.441 220.308C651.823 219.936 651.346 219.416 651.009 218.745C650.675 218.071 650.509 217.281 650.509 216.376C650.509 215.482 650.675 214.694 651.009 214.012C651.346 213.33 651.816 212.798 652.418 212.416C653.024 212.033 653.732 211.842 654.543 211.842C655.035 211.842 655.512 211.923 655.975 212.086C656.437 212.249 656.852 212.505 657.219 212.853C657.586 213.202 657.876 213.654 658.088 214.211C658.3 214.764 658.406 215.436 658.406 216.228V216.83H651.469V215.558H656.742C656.742 215.111 656.651 214.715 656.469 214.37C656.287 214.022 656.031 213.747 655.702 213.546C655.376 213.345 654.994 213.245 654.554 213.245C654.077 213.245 653.66 213.363 653.304 213.597C652.952 213.828 652.679 214.131 652.486 214.506C652.297 214.878 652.202 215.281 652.202 215.717V216.711C652.202 217.294 652.304 217.791 652.509 218.2C652.717 218.609 653.007 218.921 653.378 219.137C653.749 219.349 654.183 219.455 654.679 219.455C655.001 219.455 655.295 219.41 655.56 219.319C655.825 219.224 656.054 219.084 656.247 218.899C656.441 218.713 656.588 218.484 656.691 218.211L658.298 218.501C658.17 218.974 657.939 219.389 657.605 219.745C657.276 220.097 656.861 220.372 656.361 220.569C655.865 220.762 655.298 220.859 654.662 220.859ZM663.968 220.859C663.123 220.859 662.396 220.667 661.786 220.285C661.18 219.899 660.714 219.366 660.388 218.688C660.062 218.01 659.899 217.234 659.899 216.359C659.899 215.472 660.066 214.69 660.399 214.012C660.733 213.33 661.202 212.798 661.808 212.416C662.414 212.033 663.128 211.842 663.95 211.842C664.613 211.842 665.204 211.965 665.723 212.211C666.242 212.453 666.661 212.794 666.979 213.234C667.301 213.673 667.492 214.186 667.553 214.774H665.899C665.808 214.364 665.6 214.012 665.274 213.717C664.952 213.421 664.521 213.274 663.979 213.274C663.505 213.274 663.091 213.399 662.735 213.649C662.382 213.895 662.108 214.247 661.911 214.705C661.714 215.16 661.615 215.698 661.615 216.319C661.615 216.955 661.712 217.505 661.905 217.967C662.098 218.429 662.371 218.787 662.723 219.041C663.079 219.294 663.498 219.421 663.979 219.421C664.301 219.421 664.593 219.363 664.854 219.245C665.119 219.124 665.341 218.952 665.519 218.728C665.7 218.505 665.827 218.236 665.899 217.921H667.553C667.492 218.486 667.308 218.989 667.002 219.433C666.695 219.876 666.284 220.224 665.769 220.478C665.257 220.732 664.657 220.859 663.968 220.859ZM670.648 214.955H673.182C674.25 214.955 675.072 215.22 675.648 215.751C676.224 216.281 676.512 216.965 676.512 217.802C676.512 218.347 676.383 218.838 676.125 219.274C675.868 219.709 675.491 220.054 674.994 220.308C674.498 220.558 673.894 220.683 673.182 220.683H669.369V211.955H671.034V219.217H673.182C673.671 219.217 674.072 219.09 674.387 218.836C674.701 218.578 674.858 218.251 674.858 217.853C674.858 217.433 674.701 217.09 674.387 216.825C674.072 216.556 673.671 216.421 673.182 216.421H670.648V214.955ZM441.423 242.2V238.211H442.134C442.316 238.044 442.469 237.845 442.594 237.614C442.723 237.383 442.831 237.109 442.918 236.791C443.009 236.472 443.084 236.101 443.145 235.677C443.206 235.249 443.259 234.76 443.304 234.211L443.577 230.955H449.509V238.211H450.85V242.2H449.191V239.683H443.105V242.2H441.423ZM443.952 238.211H447.85V232.41H445.1L444.918 234.211C444.831 235.128 444.721 235.923 444.588 236.597C444.456 237.268 444.244 237.806 443.952 238.211ZM451.823 239.683L451.817 238.211H452.129C452.372 238.211 452.575 238.16 452.737 238.058C452.904 237.952 453.04 237.774 453.146 237.524C453.253 237.274 453.334 236.929 453.391 236.489C453.448 236.046 453.489 235.489 453.516 234.819L453.669 230.955H459.76V239.683H458.095V232.421H455.243L455.107 235.387C455.073 236.107 454.999 236.736 454.885 237.274C454.775 237.811 454.614 238.26 454.402 238.62C454.19 238.976 453.917 239.243 453.584 239.421C453.251 239.595 452.845 239.683 452.368 239.683H451.823ZM467.23 239.683V232.404H465.139C464.643 232.404 464.257 232.52 463.98 232.751C463.704 232.982 463.566 233.285 463.566 233.66C463.566 234.031 463.692 234.33 463.946 234.558C464.204 234.781 464.564 234.893 465.026 234.893H467.725V236.268H465.026C464.382 236.268 463.825 236.162 463.355 235.95C462.889 235.734 462.53 235.429 462.276 235.035C462.026 234.641 461.901 234.175 461.901 233.637C461.901 233.088 462.03 232.614 462.287 232.217C462.548 231.815 462.922 231.505 463.406 231.285C463.895 231.065 464.473 230.955 465.139 230.955H468.827V239.683H467.23ZM461.503 239.683L463.963 235.274H465.702L463.242 239.683H461.503ZM474.834 232.421V230.955H482.198V232.421H479.351V239.683H477.692V232.421H474.834ZM487.264 239.859C486.446 239.859 485.732 239.671 485.122 239.296C484.512 238.921 484.039 238.397 483.702 237.722C483.365 237.048 483.196 236.26 483.196 235.359C483.196 234.453 483.365 233.662 483.702 232.984C484.039 232.306 484.512 231.779 485.122 231.404C485.732 231.029 486.446 230.842 487.264 230.842C488.083 230.842 488.797 231.029 489.406 231.404C490.016 231.779 490.49 232.306 490.827 232.984C491.164 233.662 491.333 234.453 491.333 235.359C491.333 236.26 491.164 237.048 490.827 237.722C490.49 238.397 490.016 238.921 489.406 239.296C488.797 239.671 488.083 239.859 487.264 239.859ZM487.27 238.433C487.8 238.433 488.24 238.292 488.588 238.012C488.937 237.732 489.194 237.359 489.361 236.893C489.531 236.427 489.617 235.914 489.617 235.353C489.617 234.796 489.531 234.285 489.361 233.819C489.194 233.349 488.937 232.972 488.588 232.688C488.24 232.404 487.8 232.262 487.27 232.262C486.736 232.262 486.293 232.404 485.941 232.688C485.592 232.972 485.333 233.349 485.162 233.819C484.995 234.285 484.912 234.796 484.912 235.353C484.912 235.914 484.995 236.427 485.162 236.893C485.333 237.359 485.592 237.732 485.941 238.012C486.293 238.292 486.736 238.433 487.27 238.433ZM498.808 230.955V232.421H494.905V239.683H493.229V230.955H498.808ZM503.874 239.859C503.056 239.859 502.342 239.671 501.732 239.296C501.122 238.921 500.648 238.397 500.311 237.722C499.974 237.048 499.806 236.26 499.806 235.359C499.806 234.453 499.974 233.662 500.311 232.984C500.648 232.306 501.122 231.779 501.732 231.404C502.342 231.029 503.056 230.842 503.874 230.842C504.692 230.842 505.406 231.029 506.016 231.404C506.626 231.779 507.099 232.306 507.436 232.984C507.773 233.662 507.942 234.453 507.942 235.359C507.942 236.26 507.773 237.048 507.436 237.722C507.099 238.397 506.626 238.921 506.016 239.296C505.406 239.671 504.692 239.859 503.874 239.859ZM503.879 238.433C504.41 238.433 504.849 238.292 505.198 238.012C505.546 237.732 505.804 237.359 505.97 236.893C506.141 236.427 506.226 235.914 506.226 235.353C506.226 234.796 506.141 234.285 505.97 233.819C505.804 233.349 505.546 232.972 505.198 232.688C504.849 232.404 504.41 232.262 503.879 232.262C503.345 232.262 502.902 232.404 502.55 232.688C502.201 232.972 501.942 233.349 501.771 233.819C501.605 234.285 501.521 234.796 501.521 235.353C501.521 235.914 501.605 236.427 501.771 236.893C501.942 237.359 502.201 237.732 502.55 238.012C502.902 238.292 503.345 238.433 503.879 238.433ZM512.048 238.092L511.963 238.711C511.906 239.166 511.81 239.639 511.673 240.131C511.541 240.628 511.403 241.088 511.259 241.512C511.119 241.936 511.003 242.274 510.912 242.524H509.708C509.757 242.289 509.825 241.97 509.912 241.569C509.999 241.171 510.084 240.726 510.168 240.234C510.251 239.741 510.314 239.239 510.355 238.728L510.412 238.092H512.048ZM525.5 230.955V239.683H523.841V230.955H525.5ZM524.779 235.006V236.472C524.517 236.578 524.241 236.673 523.949 236.756C523.657 236.836 523.351 236.899 523.029 236.944C522.707 236.989 522.371 237.012 522.023 237.012C520.943 237.012 520.085 236.749 519.449 236.222C518.813 235.692 518.494 234.881 518.494 233.791V230.938H520.148V233.791C520.148 234.203 520.224 234.539 520.375 234.796C520.527 235.054 520.743 235.243 521.023 235.364C521.303 235.486 521.637 235.546 522.023 235.546C522.534 235.546 523.006 235.499 523.438 235.404C523.873 235.306 524.32 235.173 524.779 235.006ZM526.678 232.421V230.955H534.041V232.421H531.195V239.683H529.536V232.421H526.678ZM539.108 239.859C538.29 239.859 537.576 239.671 536.966 239.296C536.356 238.921 535.883 238.397 535.546 237.722C535.209 237.048 535.04 236.26 535.04 235.359C535.04 234.453 535.209 233.662 535.546 232.984C535.883 232.306 536.356 231.779 536.966 231.404C537.576 231.029 538.29 230.842 539.108 230.842C539.926 230.842 540.64 231.029 541.25 231.404C541.86 231.779 542.334 232.306 542.671 232.984C543.008 233.662 543.176 234.453 543.176 235.359C543.176 236.26 543.008 237.048 542.671 237.722C542.334 238.397 541.86 238.921 541.25 239.296C540.64 239.671 539.926 239.859 539.108 239.859ZM539.114 238.433C539.644 238.433 540.084 238.292 540.432 238.012C540.78 237.732 541.038 237.359 541.205 236.893C541.375 236.427 541.46 235.914 541.46 235.353C541.46 234.796 541.375 234.285 541.205 233.819C541.038 233.349 540.78 232.972 540.432 232.688C540.084 232.404 539.644 232.262 539.114 232.262C538.58 232.262 538.137 232.404 537.784 232.688C537.436 232.972 537.176 233.349 537.006 233.819C536.839 234.285 536.756 234.796 536.756 235.353C536.756 235.914 536.839 236.427 537.006 236.893C537.176 237.359 537.436 237.732 537.784 238.012C538.137 238.292 538.58 238.433 539.114 238.433ZM551.806 227.705L552.51 228.779C552.249 229.018 551.951 229.188 551.618 229.291C551.289 229.389 550.908 229.452 550.476 229.478C550.044 229.501 549.55 229.522 548.993 229.541C548.364 229.56 547.847 229.696 547.442 229.95C547.037 230.2 546.724 230.571 546.504 231.063C546.289 231.552 546.148 232.166 546.084 232.904H546.192C546.476 232.363 546.87 231.957 547.374 231.688C547.881 231.419 548.451 231.285 549.084 231.285C549.789 231.285 550.415 231.446 550.965 231.768C551.514 232.09 551.946 232.561 552.26 233.183C552.578 233.8 552.737 234.556 552.737 235.45C552.737 236.355 552.571 237.137 552.237 237.796C551.908 238.455 551.442 238.965 550.84 239.325C550.241 239.681 549.535 239.859 548.72 239.859C547.906 239.859 547.196 239.675 546.59 239.308C545.987 238.936 545.52 238.387 545.186 237.66C544.857 236.933 544.692 236.035 544.692 234.967V234.103C544.692 232.107 545.048 230.605 545.76 229.597C546.472 228.59 547.537 228.073 548.953 228.046C549.412 228.035 549.821 228.033 550.181 228.041C550.54 228.044 550.855 228.027 551.124 227.989C551.396 227.948 551.624 227.853 551.806 227.705ZM548.726 238.433C549.2 238.433 549.607 238.313 549.948 238.075C550.292 237.832 550.557 237.489 550.743 237.046C550.929 236.603 551.021 236.08 551.021 235.478C551.021 234.887 550.929 234.385 550.743 233.972C550.557 233.56 550.292 233.245 549.948 233.029C549.603 232.81 549.19 232.7 548.709 232.7C548.353 232.7 548.035 232.762 547.754 232.887C547.474 233.008 547.234 233.188 547.033 233.427C546.836 233.666 546.682 233.957 546.573 234.302C546.467 234.643 546.41 235.035 546.402 235.478C546.402 236.38 546.609 237.097 547.021 237.631C547.438 238.166 548.006 238.433 548.726 238.433ZM555.914 233.955H558.448C559.516 233.955 560.338 234.22 560.914 234.751C561.489 235.281 561.777 235.965 561.777 236.802C561.777 237.347 561.648 237.838 561.391 238.274C561.133 238.709 560.756 239.054 560.26 239.308C559.764 239.558 559.16 239.683 558.448 239.683H554.635V230.955H556.3V238.217H558.448C558.936 238.217 559.338 238.09 559.652 237.836C559.967 237.578 560.124 237.251 560.124 236.853C560.124 236.433 559.967 236.09 559.652 235.825C559.338 235.556 558.936 235.421 558.448 235.421H555.914V233.955ZM563.016 239.683V230.955H564.715V239.683H563.016ZM571.229 239.683V230.955H578.348V239.683H576.683V232.421H572.882V239.683H571.229ZM584.296 239.859C583.477 239.859 582.763 239.671 582.154 239.296C581.544 238.921 581.07 238.397 580.733 237.722C580.396 237.048 580.227 236.26 580.227 235.359C580.227 234.453 580.396 233.662 580.733 232.984C581.07 232.306 581.544 231.779 582.154 231.404C582.763 231.029 583.477 230.842 584.296 230.842C585.114 230.842 585.828 231.029 586.438 231.404C587.048 231.779 587.521 232.306 587.858 232.984C588.195 233.662 588.364 234.453 588.364 235.359C588.364 236.26 588.195 237.048 587.858 237.722C587.521 238.397 587.048 238.921 586.438 239.296C585.828 239.671 585.114 239.859 584.296 239.859ZM584.301 238.433C584.832 238.433 585.271 238.292 585.619 238.012C585.968 237.732 586.226 237.359 586.392 236.893C586.563 236.427 586.648 235.914 586.648 235.353C586.648 234.796 586.563 234.285 586.392 233.819C586.226 233.349 585.968 232.972 585.619 232.688C585.271 232.404 584.832 232.262 584.301 232.262C583.767 232.262 583.324 232.404 582.972 232.688C582.623 232.972 582.364 233.349 582.193 233.819C582.027 234.285 581.943 234.796 581.943 235.353C581.943 235.914 582.027 236.427 582.193 236.893C582.364 237.359 582.623 237.732 582.972 238.012C583.324 238.292 583.767 238.433 584.301 238.433ZM595.158 237.58L597.976 230.955H599.442L595.789 239.683H594.527L590.948 230.955H592.396L595.158 237.58ZM591.925 230.955V239.683H590.26V230.955H591.925ZM598.436 239.683V230.955H600.09V239.683H598.436ZM606.03 239.859C605.212 239.859 604.498 239.671 603.888 239.296C603.278 238.921 602.805 238.397 602.468 237.722C602.13 237.048 601.962 236.26 601.962 235.359C601.962 234.453 602.13 233.662 602.468 232.984C602.805 232.306 603.278 231.779 603.888 231.404C604.498 231.029 605.212 230.842 606.03 230.842C606.848 230.842 607.562 231.029 608.172 231.404C608.782 231.779 609.255 232.306 609.593 232.984C609.93 233.662 610.098 234.453 610.098 235.359C610.098 236.26 609.93 237.048 609.593 237.722C609.255 238.397 608.782 238.921 608.172 239.296C607.562 239.671 606.848 239.859 606.03 239.859ZM606.036 238.433C606.566 238.433 607.005 238.292 607.354 238.012C607.702 237.732 607.96 237.359 608.127 236.893C608.297 236.427 608.382 235.914 608.382 235.353C608.382 234.796 608.297 234.285 608.127 233.819C607.96 233.349 607.702 232.972 607.354 232.688C607.005 232.404 606.566 232.262 606.036 232.262C605.502 232.262 605.058 232.404 604.706 232.688C604.358 232.972 604.098 233.349 603.928 233.819C603.761 234.285 603.678 234.796 603.678 235.353C603.678 235.914 603.761 236.427 603.928 236.893C604.098 237.359 604.358 237.732 604.706 238.012C605.058 238.292 605.502 238.433 606.036 238.433ZM619 230.955V239.683H617.341V230.955H619ZM618.279 235.006V236.472C618.017 236.578 617.741 236.673 617.449 236.756C617.157 236.836 616.851 236.899 616.529 236.944C616.207 236.989 615.871 237.012 615.523 237.012C614.443 237.012 613.585 236.749 612.949 236.222C612.313 235.692 611.994 234.881 611.994 233.791V230.938H613.648V233.791C613.648 234.203 613.724 234.539 613.875 234.796C614.027 235.054 614.243 235.243 614.523 235.364C614.803 235.486 615.137 235.546 615.523 235.546C616.034 235.546 616.506 235.499 616.938 235.404C617.373 235.306 617.82 235.173 618.279 235.006ZM622.539 233.955H625.073C626.141 233.955 626.963 234.22 627.539 234.751C628.114 235.281 628.402 235.965 628.402 236.802C628.402 237.347 628.273 237.838 628.016 238.274C627.758 238.709 627.381 239.054 626.885 239.308C626.389 239.558 625.785 239.683 625.073 239.683H621.26V230.955H622.925V238.217H625.073C625.561 238.217 625.963 238.09 626.277 237.836C626.592 237.578 626.749 237.251 626.749 236.853C626.749 236.433 626.592 236.09 626.277 235.825C625.963 235.556 625.561 235.421 625.073 235.421H622.539V233.955ZM634.541 239.683V230.955H638.161C639.146 230.955 639.926 231.166 640.502 231.586C641.077 232.003 641.365 232.569 641.365 233.285C641.365 233.796 641.202 234.202 640.877 234.501C640.551 234.8 640.119 235.001 639.581 235.103C639.971 235.149 640.329 235.266 640.655 235.455C640.981 235.641 641.242 235.891 641.439 236.205C641.64 236.52 641.74 236.895 641.74 237.33C641.74 237.792 641.621 238.202 641.382 238.558C641.144 238.91 640.797 239.186 640.343 239.387C639.892 239.584 639.348 239.683 638.712 239.683H634.541ZM636.138 238.262H638.712C639.132 238.262 639.462 238.162 639.7 237.961C639.939 237.76 640.058 237.488 640.058 237.143C640.058 236.738 639.939 236.419 639.7 236.188C639.462 235.953 639.132 235.836 638.712 235.836H636.138V238.262ZM636.138 234.592H638.178C638.496 234.592 638.769 234.546 638.996 234.455C639.227 234.364 639.403 234.236 639.524 234.069C639.649 233.899 639.712 233.698 639.712 233.467C639.712 233.13 639.574 232.866 639.297 232.677C639.021 232.488 638.642 232.393 638.161 232.393H636.138V234.592ZM646.144 239.876C645.591 239.876 645.091 239.774 644.644 239.569C644.197 239.361 643.843 239.06 643.581 238.666C643.324 238.272 643.195 237.789 643.195 237.217C643.195 236.724 643.289 236.319 643.479 236.001C643.668 235.683 643.924 235.431 644.246 235.245C644.568 235.06 644.928 234.919 645.325 234.825C645.723 234.73 646.128 234.658 646.541 234.609C647.064 234.548 647.488 234.499 647.814 234.461C648.14 234.419 648.377 234.353 648.524 234.262C648.672 234.171 648.746 234.024 648.746 233.819V233.779C648.746 233.283 648.606 232.899 648.325 232.626C648.049 232.353 647.636 232.217 647.087 232.217C646.515 232.217 646.064 232.344 645.735 232.597C645.409 232.847 645.183 233.126 645.058 233.433L643.462 233.069C643.651 232.539 643.928 232.111 644.291 231.785C644.659 231.455 645.081 231.217 645.558 231.069C646.036 230.917 646.538 230.842 647.064 230.842C647.413 230.842 647.782 230.883 648.172 230.967C648.566 231.046 648.933 231.194 649.274 231.41C649.619 231.626 649.901 231.935 650.121 232.336C650.341 232.734 650.45 233.251 650.45 233.887V239.683H648.791V238.489H648.723C648.613 238.709 648.449 238.925 648.229 239.137C648.009 239.349 647.727 239.525 647.382 239.666C647.038 239.806 646.625 239.876 646.144 239.876ZM646.513 238.512C646.983 238.512 647.384 238.419 647.718 238.234C648.055 238.048 648.31 237.806 648.485 237.506C648.663 237.203 648.752 236.88 648.752 236.535V235.41C648.691 235.47 648.574 235.527 648.399 235.58C648.229 235.63 648.034 235.673 647.814 235.711C647.594 235.745 647.38 235.777 647.172 235.808C646.964 235.834 646.789 235.857 646.649 235.876C646.32 235.917 646.019 235.988 645.746 236.086C645.477 236.185 645.261 236.327 645.098 236.512C644.939 236.694 644.86 236.936 644.86 237.239C644.86 237.66 645.015 237.978 645.325 238.194C645.636 238.406 646.032 238.512 646.513 238.512ZM657.611 237.58L660.429 230.955H661.895L658.242 239.683H656.98L653.401 230.955H654.85L657.611 237.58ZM654.378 230.955V239.683H652.713V230.955H654.378ZM660.889 239.683V230.955H662.543V239.683H660.889ZM451.261 253.586V255.058H446.534V253.586H451.261ZM447.011 249.955V258.683H445.346V249.955H447.011ZM452.448 249.955V258.683H450.789V249.955H452.448ZM457.261 258.876C456.708 258.876 456.208 258.774 455.761 258.569C455.314 258.361 454.96 258.06 454.698 257.666C454.441 257.272 454.312 256.789 454.312 256.217C454.312 255.724 454.407 255.319 454.596 255.001C454.785 254.683 455.041 254.431 455.363 254.245C455.685 254.06 456.045 253.919 456.443 253.825C456.84 253.73 457.246 253.658 457.659 253.609C458.181 253.548 458.606 253.499 458.931 253.461C459.257 253.419 459.494 253.353 459.642 253.262C459.789 253.171 459.863 253.024 459.863 252.819V252.779C459.863 252.283 459.723 251.899 459.443 251.626C459.166 251.353 458.753 251.217 458.204 251.217C457.632 251.217 457.181 251.344 456.852 251.597C456.526 251.847 456.301 252.126 456.176 252.433L454.579 252.069C454.768 251.539 455.045 251.111 455.409 250.785C455.776 250.455 456.198 250.217 456.676 250.069C457.153 249.917 457.655 249.842 458.181 249.842C458.53 249.842 458.899 249.883 459.289 249.967C459.683 250.046 460.051 250.194 460.392 250.41C460.736 250.626 461.018 250.935 461.238 251.336C461.458 251.734 461.568 252.251 461.568 252.887V258.683H459.909V257.489H459.84C459.731 257.709 459.566 257.925 459.346 258.137C459.126 258.349 458.844 258.525 458.499 258.666C458.155 258.806 457.742 258.876 457.261 258.876ZM457.63 257.512C458.1 257.512 458.501 257.419 458.835 257.234C459.172 257.048 459.427 256.806 459.602 256.506C459.78 256.203 459.869 255.88 459.869 255.535V254.41C459.808 254.47 459.691 254.527 459.517 254.58C459.346 254.63 459.151 254.673 458.931 254.711C458.712 254.745 458.498 254.777 458.289 254.808C458.081 254.834 457.907 254.857 457.767 254.876C457.437 254.917 457.136 254.988 456.863 255.086C456.594 255.185 456.378 255.327 456.215 255.512C456.056 255.694 455.977 255.936 455.977 256.239C455.977 256.66 456.132 256.978 456.443 257.194C456.753 257.406 457.149 257.512 457.63 257.512ZM470.836 249.955V258.683H469.177V249.955H470.836ZM470.115 254.006V255.472C469.853 255.578 469.577 255.673 469.285 255.756C468.993 255.836 468.686 255.899 468.365 255.944C468.043 255.989 467.707 256.012 467.359 256.012C466.279 256.012 465.421 255.749 464.785 255.222C464.149 254.692 463.83 253.881 463.83 252.791V249.938H465.484V252.791C465.484 253.203 465.56 253.539 465.711 253.796C465.863 254.054 466.079 254.243 466.359 254.364C466.639 254.486 466.972 254.546 467.359 254.546C467.87 254.546 468.342 254.499 468.774 254.404C469.209 254.306 469.656 254.173 470.115 254.006ZM475.636 258.876C475.083 258.876 474.583 258.774 474.136 258.569C473.689 258.361 473.335 258.06 473.073 257.666C472.816 257.272 472.687 256.789 472.687 256.217C472.687 255.724 472.782 255.319 472.971 255.001C473.16 254.683 473.416 254.431 473.738 254.245C474.06 254.06 474.42 253.919 474.818 253.825C475.215 253.73 475.621 253.658 476.034 253.609C476.556 253.548 476.981 253.499 477.306 253.461C477.632 253.419 477.869 253.353 478.017 253.262C478.164 253.171 478.238 253.024 478.238 252.819V252.779C478.238 252.283 478.098 251.899 477.818 251.626C477.541 251.353 477.128 251.217 476.579 251.217C476.007 251.217 475.556 251.344 475.227 251.597C474.901 251.847 474.676 252.126 474.551 252.433L472.954 252.069C473.143 251.539 473.42 251.111 473.784 250.785C474.151 250.455 474.573 250.217 475.051 250.069C475.528 249.917 476.03 249.842 476.556 249.842C476.905 249.842 477.274 249.883 477.664 249.967C478.058 250.046 478.426 250.194 478.767 250.41C479.111 250.626 479.393 250.935 479.613 251.336C479.833 251.734 479.943 252.251 479.943 252.887V258.683H478.284V257.489H478.215C478.106 257.709 477.941 257.925 477.721 258.137C477.501 258.349 477.219 258.525 476.874 258.666C476.53 258.806 476.117 258.876 475.636 258.876ZM476.005 257.512C476.475 257.512 476.876 257.419 477.21 257.234C477.547 257.048 477.802 256.806 477.977 256.506C478.155 256.203 478.244 255.88 478.244 255.535V254.41C478.183 254.47 478.066 254.527 477.892 254.58C477.721 254.63 477.526 254.673 477.306 254.711C477.087 254.745 476.873 254.777 476.664 254.808C476.456 254.834 476.282 254.857 476.142 254.876C475.812 254.917 475.511 254.988 475.238 255.086C474.969 255.185 474.753 255.327 474.59 255.512C474.431 255.694 474.352 255.936 474.352 256.239C474.352 256.66 474.507 256.978 474.818 257.194C475.128 257.406 475.524 257.512 476.005 257.512ZM481.123 251.421V249.955H488.487V251.421H485.64V258.683H483.981V251.421H481.123ZM491.562 252.955H494.096C495.164 252.955 495.986 253.22 496.562 253.751C497.138 254.281 497.426 254.965 497.426 255.802C497.426 256.347 497.297 256.838 497.039 257.274C496.782 257.709 496.405 258.054 495.909 258.308C495.412 258.558 494.808 258.683 494.096 258.683H490.284V249.955H491.948V257.217H494.096C494.585 257.217 494.986 257.09 495.301 256.836C495.615 256.578 495.772 256.251 495.772 255.853C495.772 255.433 495.615 255.09 495.301 254.825C494.986 254.556 494.585 254.421 494.096 254.421H491.562V252.955ZM503.565 258.683V249.955H507.184C508.169 249.955 508.949 250.166 509.525 250.586C510.101 251.003 510.389 251.569 510.389 252.285C510.389 252.796 510.226 253.202 509.9 253.501C509.574 253.8 509.142 254.001 508.605 254.103C508.995 254.149 509.353 254.266 509.678 254.455C510.004 254.641 510.266 254.891 510.463 255.205C510.663 255.52 510.764 255.895 510.764 256.33C510.764 256.792 510.644 257.202 510.406 257.558C510.167 257.91 509.82 258.186 509.366 258.387C508.915 258.584 508.372 258.683 507.735 258.683H503.565ZM505.161 257.262H507.735C508.156 257.262 508.485 257.162 508.724 256.961C508.963 256.76 509.082 256.488 509.082 256.143C509.082 255.738 508.963 255.419 508.724 255.188C508.485 254.953 508.156 254.836 507.735 254.836H505.161V257.262ZM505.161 253.592H507.201C507.519 253.592 507.792 253.546 508.019 253.455C508.25 253.364 508.427 253.236 508.548 253.069C508.673 252.899 508.735 252.698 508.735 252.467C508.735 252.13 508.597 251.866 508.32 251.677C508.044 251.488 507.665 251.393 507.184 251.393H505.161V253.592ZM515.167 258.876C514.614 258.876 514.114 258.774 513.667 258.569C513.22 258.361 512.866 258.06 512.605 257.666C512.347 257.272 512.218 256.789 512.218 256.217C512.218 255.724 512.313 255.319 512.502 255.001C512.692 254.683 512.947 254.431 513.269 254.245C513.591 254.06 513.951 253.919 514.349 253.825C514.747 253.73 515.152 253.658 515.565 253.609C516.088 253.548 516.512 253.499 516.838 253.461C517.163 253.419 517.4 253.353 517.548 253.262C517.695 253.171 517.769 253.024 517.769 252.819V252.779C517.769 252.283 517.629 251.899 517.349 251.626C517.072 251.353 516.66 251.217 516.11 251.217C515.538 251.217 515.088 251.344 514.758 251.597C514.432 251.847 514.207 252.126 514.082 252.433L512.485 252.069C512.675 251.539 512.951 251.111 513.315 250.785C513.682 250.455 514.105 250.217 514.582 250.069C515.059 249.917 515.561 249.842 516.088 249.842C516.436 249.842 516.805 249.883 517.195 249.967C517.589 250.046 517.957 250.194 518.298 250.41C518.642 250.626 518.925 250.935 519.144 251.336C519.364 251.734 519.474 252.251 519.474 252.887V258.683H517.815V257.489H517.747C517.637 257.709 517.472 257.925 517.252 258.137C517.033 258.349 516.75 258.525 516.406 258.666C516.061 258.806 515.648 258.876 515.167 258.876ZM515.536 257.512C516.006 257.512 516.408 257.419 516.741 257.234C517.078 257.048 517.334 256.806 517.508 256.506C517.686 256.203 517.775 255.88 517.775 255.535V254.41C517.714 254.47 517.597 254.527 517.423 254.58C517.252 254.63 517.057 254.673 516.838 254.711C516.618 254.745 516.404 254.777 516.195 254.808C515.987 254.834 515.813 254.857 515.673 254.876C515.343 254.917 515.042 254.988 514.769 255.086C514.5 255.185 514.285 255.327 514.122 255.512C513.963 255.694 513.883 255.936 513.883 256.239C513.883 256.66 514.038 256.978 514.349 257.194C514.66 257.406 515.055 257.512 515.536 257.512ZM521.737 249.955H523.401V257.211H526.418V249.955H528.083V257.211H531.1V249.955H532.765V258.683H521.737V249.955ZM535.795 261.955C535.541 261.955 535.31 261.935 535.102 261.893C534.893 261.855 534.738 261.813 534.636 261.768L535.045 260.376C535.356 260.459 535.632 260.495 535.874 260.484C536.117 260.472 536.331 260.381 536.517 260.211C536.706 260.041 536.873 259.762 537.017 259.376L537.227 258.796L534.034 249.955H535.852L538.062 256.728H538.153L540.363 249.955H542.187L538.59 259.847C538.424 260.302 538.212 260.686 537.954 261.001C537.696 261.319 537.39 261.558 537.034 261.717C536.677 261.876 536.265 261.955 535.795 261.955ZM551.694 258.859C550.849 258.859 550.122 258.667 549.512 258.285C548.906 257.899 548.44 257.366 548.115 256.688C547.789 256.01 547.626 255.234 547.626 254.359C547.626 253.472 547.793 252.69 548.126 252.012C548.459 251.33 548.929 250.798 549.535 250.416C550.141 250.033 550.855 249.842 551.677 249.842C552.34 249.842 552.931 249.965 553.45 250.211C553.969 250.453 554.387 250.794 554.705 251.234C555.027 251.673 555.219 252.186 555.279 252.774H553.626C553.535 252.364 553.327 252.012 553.001 251.717C552.679 251.421 552.247 251.274 551.705 251.274C551.232 251.274 550.817 251.399 550.461 251.649C550.109 251.895 549.834 252.247 549.637 252.705C549.44 253.16 549.342 253.698 549.342 254.319C549.342 254.955 549.438 255.505 549.632 255.967C549.825 256.429 550.097 256.787 550.45 257.041C550.806 257.294 551.224 257.421 551.705 257.421C552.027 257.421 552.319 257.363 552.58 257.245C552.846 257.124 553.067 256.952 553.245 256.728C553.427 256.505 553.554 256.236 553.626 255.921H555.279C555.219 256.486 555.035 256.989 554.728 257.433C554.421 257.876 554.01 258.224 553.495 258.478C552.984 258.732 552.383 258.859 551.694 258.859ZM556.436 251.421V249.955H563.799V251.421H560.953V258.683H559.293V251.421H556.436ZM566.67 261.955C566.416 261.955 566.185 261.935 565.977 261.893C565.768 261.855 565.613 261.813 565.511 261.768L565.92 260.376C566.231 260.459 566.507 260.495 566.749 260.484C566.992 260.472 567.206 260.381 567.392 260.211C567.581 260.041 567.748 259.762 567.892 259.376L568.102 258.796L564.909 249.955H566.727L568.937 256.728H569.028L571.238 249.955H573.062L569.465 259.847C569.299 260.302 569.087 260.686 568.829 261.001C568.571 261.319 568.265 261.558 567.909 261.717C567.552 261.876 567.14 261.955 566.67 261.955ZM573.088 261.2V257.211H573.798C573.98 257.044 574.133 256.845 574.258 256.614C574.387 256.383 574.495 256.109 574.582 255.791C574.673 255.472 574.749 255.101 574.809 254.677C574.87 254.249 574.923 253.76 574.968 253.211L575.241 249.955H581.173V257.211H582.514V261.2H580.855V258.683H574.769V261.2H573.088ZM575.616 257.211H579.514V251.41H576.764L576.582 253.211C576.495 254.128 576.385 254.923 576.252 255.597C576.12 256.268 575.908 256.806 575.616 257.211ZM587.936 258.859C587.076 258.859 586.335 258.675 585.714 258.308C585.097 257.936 584.619 257.416 584.282 256.745C583.949 256.071 583.782 255.281 583.782 254.376C583.782 253.482 583.949 252.694 584.282 252.012C584.619 251.33 585.089 250.798 585.691 250.416C586.297 250.033 587.006 249.842 587.816 249.842C588.309 249.842 588.786 249.923 589.248 250.086C589.71 250.249 590.125 250.505 590.492 250.853C590.86 251.202 591.15 251.654 591.362 252.211C591.574 252.764 591.68 253.436 591.68 254.228V254.83H584.742V253.558H590.015C590.015 253.111 589.924 252.715 589.742 252.37C589.561 252.022 589.305 251.747 588.975 251.546C588.65 251.345 588.267 251.245 587.828 251.245C587.35 251.245 586.934 251.363 586.578 251.597C586.225 251.828 585.953 252.131 585.759 252.506C585.57 252.878 585.475 253.281 585.475 253.717V254.711C585.475 255.294 585.578 255.791 585.782 256.2C585.99 256.609 586.28 256.921 586.651 257.137C587.023 257.349 587.456 257.455 587.953 257.455C588.275 257.455 588.568 257.41 588.833 257.319C589.098 257.224 589.328 257.084 589.521 256.899C589.714 256.713 589.862 256.484 589.964 256.211L591.572 256.501C591.443 256.974 591.212 257.389 590.879 257.745C590.549 258.097 590.134 258.372 589.634 258.569C589.138 258.762 588.572 258.859 587.936 258.859ZM599.48 253.586V255.058H594.752V253.586H599.48ZM595.23 249.955V258.683H593.565V249.955H595.23ZM600.667 249.955V258.683H599.008V249.955H600.667ZM609.945 249.955V258.683H608.286V249.955H609.945ZM609.224 254.006V255.472C608.963 255.578 608.686 255.673 608.394 255.756C608.103 255.836 607.796 255.899 607.474 255.944C607.152 255.989 606.817 256.012 606.468 256.012C605.389 256.012 604.531 255.749 603.894 255.222C603.258 254.692 602.94 253.881 602.94 252.791V249.938H604.593V252.791C604.593 253.203 604.669 253.539 604.82 253.796C604.972 254.054 605.188 254.243 605.468 254.364C605.749 254.486 606.082 254.546 606.468 254.546C606.98 254.546 607.451 254.499 607.883 254.404C608.319 254.306 608.766 254.173 609.224 254.006ZM615.967 258.859C615.107 258.859 614.366 258.675 613.745 258.308C613.128 257.936 612.651 257.416 612.313 256.745C611.98 256.071 611.813 255.281 611.813 254.376C611.813 253.482 611.98 252.694 612.313 252.012C612.651 251.33 613.12 250.798 613.722 250.416C614.329 250.033 615.037 249.842 615.847 249.842C616.34 249.842 616.817 249.923 617.279 250.086C617.741 250.249 618.156 250.505 618.524 250.853C618.891 251.202 619.181 251.654 619.393 252.211C619.605 252.764 619.711 253.436 619.711 254.228V254.83H612.774V253.558H618.046C618.046 253.111 617.955 252.715 617.774 252.37C617.592 252.022 617.336 251.747 617.007 251.546C616.681 251.345 616.298 251.245 615.859 251.245C615.382 251.245 614.965 251.363 614.609 251.597C614.257 251.828 613.984 252.131 613.791 252.506C613.601 252.878 613.507 253.281 613.507 253.717V254.711C613.507 255.294 613.609 255.791 613.813 256.2C614.022 256.609 614.311 256.921 614.683 257.137C615.054 257.349 615.488 257.455 615.984 257.455C616.306 257.455 616.599 257.41 616.865 257.319C617.13 257.224 617.359 257.084 617.552 256.899C617.745 256.713 617.893 256.484 617.995 256.211L619.603 256.501C619.474 256.974 619.243 257.389 618.91 257.745C618.58 258.097 618.166 258.372 617.666 258.569C617.169 258.762 616.603 258.859 615.967 258.859ZM625.272 258.859C624.427 258.859 623.7 258.667 623.09 258.285C622.484 257.899 622.018 257.366 621.693 256.688C621.367 256.01 621.204 255.234 621.204 254.359C621.204 253.472 621.371 252.69 621.704 252.012C622.037 251.33 622.507 250.798 623.113 250.416C623.719 250.033 624.433 249.842 625.255 249.842C625.918 249.842 626.509 249.965 627.028 250.211C627.547 250.453 627.965 250.794 628.284 251.234C628.606 251.673 628.797 252.186 628.857 252.774H627.204C627.113 252.364 626.905 252.012 626.579 251.717C626.257 251.421 625.825 251.274 625.284 251.274C624.81 251.274 624.395 251.399 624.039 251.649C623.687 251.895 623.412 252.247 623.215 252.705C623.018 253.16 622.92 253.698 622.92 254.319C622.92 254.955 623.017 255.505 623.21 255.967C623.403 256.429 623.676 256.787 624.028 257.041C624.384 257.294 624.802 257.421 625.284 257.421C625.606 257.421 625.897 257.363 626.159 257.245C626.424 257.124 626.645 256.952 626.823 256.728C627.005 256.505 627.132 256.236 627.204 255.921H628.857C628.797 256.486 628.613 256.989 628.306 257.433C627.999 257.876 627.588 258.224 627.073 258.478C626.562 258.732 625.962 258.859 625.272 258.859ZM630.674 258.683V249.955H632.373V253.614H633.191L636.072 249.955H638.174L634.793 254.2L638.214 258.683H636.106L633.475 255.194H632.373V258.683H630.674ZM640.654 261.955C640.401 261.955 640.169 261.935 639.961 261.893C639.753 261.855 639.597 261.813 639.495 261.768L639.904 260.376C640.215 260.459 640.491 260.495 640.734 260.484C640.976 260.472 641.19 260.381 641.376 260.211C641.565 260.041 641.732 259.762 641.876 259.376L642.086 258.796L638.893 249.955H640.711L642.921 256.728H643.012L645.222 249.955H647.046L643.45 259.847C643.283 260.302 643.071 260.686 642.813 261.001C642.556 261.319 642.249 261.558 641.893 261.717C641.537 261.876 641.124 261.955 640.654 261.955ZM653.035 253.649V255.126H648.382V253.649H653.035ZM649.762 249.955V258.683H648.063V249.955H649.762ZM655.694 258.859C654.883 258.859 654.175 258.669 653.569 258.291C652.963 257.912 652.493 257.385 652.16 256.711C651.827 256.033 651.66 255.247 651.66 254.353C651.66 253.452 651.827 252.664 652.16 251.989C652.493 251.311 652.963 250.785 653.569 250.41C654.175 250.031 654.883 249.842 655.694 249.842C656.508 249.842 657.217 250.031 657.819 250.41C658.425 250.785 658.895 251.311 659.228 251.989C659.565 252.664 659.734 253.452 659.734 254.353C659.734 255.247 659.565 256.033 659.228 256.711C658.895 257.385 658.425 257.912 657.819 258.291C657.217 258.669 656.508 258.859 655.694 258.859ZM655.694 257.404C656.243 257.404 656.692 257.266 657.041 256.989C657.393 256.709 657.652 256.338 657.819 255.876C657.986 255.414 658.069 254.906 658.069 254.353C658.069 253.796 657.986 253.287 657.819 252.825C657.652 252.359 657.393 251.986 657.041 251.705C656.692 251.425 656.243 251.285 655.694 251.285C655.149 251.285 654.7 251.425 654.347 251.705C653.995 251.986 653.736 252.359 653.569 252.825C653.402 253.287 653.319 253.796 653.319 254.353C653.319 254.906 653.402 255.414 653.569 255.876C653.736 256.338 653.995 256.709 654.347 256.989C654.7 257.266 655.149 257.404 655.694 257.404ZM525.82 277.683L529.201 273.217L525.86 268.955H527.838L530.536 272.58H531.144V268.955H532.843V272.58H533.434L536.133 268.955H538.11L534.786 273.217L538.15 277.683H536.133L533.411 274.046H532.843V277.683H531.144V274.046H530.576L527.838 277.683H525.82ZM541.542 275.302L545.389 268.955H547.218V277.683H545.553V271.33L541.724 277.683H539.877V268.955H541.542V275.302ZM548.985 275.376H550.724C550.747 275.732 550.908 276.006 551.207 276.2C551.51 276.393 551.902 276.489 552.383 276.489C552.872 276.489 553.288 276.385 553.633 276.177C553.978 275.965 554.15 275.637 554.15 275.194C554.15 274.929 554.084 274.698 553.951 274.501C553.822 274.3 553.639 274.145 553.4 274.035C553.165 273.925 552.887 273.87 552.565 273.87H551.144V272.535H552.565C553.046 272.535 553.406 272.425 553.644 272.205C553.883 271.986 554.002 271.711 554.002 271.381C554.002 271.025 553.874 270.739 553.616 270.524C553.362 270.304 553.008 270.194 552.553 270.194C552.091 270.194 551.707 270.298 551.4 270.506C551.093 270.711 550.932 270.976 550.917 271.302H549.201C549.213 270.813 549.36 270.385 549.644 270.018C549.932 269.647 550.319 269.359 550.803 269.154C551.292 268.946 551.847 268.842 552.468 268.842C553.116 268.842 553.677 268.946 554.15 269.154C554.624 269.363 554.989 269.65 555.247 270.018C555.508 270.385 555.639 270.808 555.639 271.285C555.639 271.766 555.495 272.16 555.207 272.467C554.923 272.77 554.552 272.988 554.093 273.12V273.211C554.43 273.234 554.73 273.336 554.991 273.518C555.252 273.7 555.457 273.94 555.605 274.239C555.752 274.539 555.826 274.878 555.826 275.256C555.826 275.791 555.678 276.253 555.383 276.643C555.091 277.033 554.686 277.334 554.167 277.546C553.652 277.755 553.063 277.859 552.4 277.859C551.756 277.859 551.178 277.758 550.667 277.558C550.16 277.353 549.756 277.065 549.457 276.694C549.161 276.323 549.004 275.883 548.985 275.376ZM563.495 272.586V274.058H558.768V272.586H563.495ZM559.245 268.955V277.683H557.58V268.955H559.245ZM564.683 268.955V277.683H563.024V268.955H564.683ZM568.234 271.955H570.768C571.836 271.955 572.658 272.22 573.234 272.751C573.81 273.281 574.097 273.965 574.097 274.802C574.097 275.347 573.969 275.838 573.711 276.274C573.454 276.709 573.077 277.054 572.58 277.308C572.084 277.558 571.48 277.683 570.768 277.683H566.955V268.955H568.62V276.217H570.768C571.257 276.217 571.658 276.09 571.972 275.836C572.287 275.578 572.444 275.251 572.444 274.853C572.444 274.433 572.287 274.09 571.972 273.825C571.658 273.556 571.257 273.421 570.768 273.421H568.234V271.955ZM578.144 266.046L577.997 274.336H576.423L576.275 266.046H578.144ZM577.213 277.791C576.898 277.791 576.629 277.681 576.406 277.461C576.182 277.238 576.072 276.969 576.076 276.654C576.072 276.344 576.182 276.078 576.406 275.859C576.629 275.635 576.898 275.524 577.213 275.524C577.519 275.524 577.785 275.635 578.008 275.859C578.231 276.078 578.345 276.344 578.349 276.654C578.345 276.863 578.29 277.054 578.184 277.228C578.082 277.399 577.945 277.535 577.775 277.637C577.605 277.739 577.417 277.791 577.213 277.791Z" fill="#2D3342"/>
<path d="M533.85 204.955V192.955H536.236V194.421H536.344C536.45 194.186 536.603 193.948 536.804 193.705C537.009 193.459 537.274 193.255 537.6 193.092C537.929 192.925 538.338 192.842 538.827 192.842C539.463 192.842 540.05 193.008 540.588 193.342C541.126 193.671 541.556 194.169 541.878 194.836C542.2 195.499 542.361 196.33 542.361 197.33C542.361 198.304 542.204 199.126 541.889 199.796C541.579 200.463 541.155 200.969 540.617 201.313C540.083 201.654 539.484 201.825 538.821 201.825C538.352 201.825 537.952 201.747 537.622 201.592C537.297 201.436 537.03 201.241 536.821 201.006C536.613 200.768 536.454 200.527 536.344 200.285H536.27V204.955H533.85ZM536.219 197.319C536.219 197.838 536.291 198.291 536.435 198.677C536.579 199.063 536.787 199.364 537.06 199.58C537.333 199.792 537.664 199.899 538.054 199.899C538.448 199.899 538.781 199.791 539.054 199.575C539.327 199.355 539.533 199.052 539.673 198.666C539.817 198.275 539.889 197.827 539.889 197.319C539.889 196.815 539.819 196.372 539.679 195.989C539.539 195.607 539.333 195.308 539.06 195.092C538.787 194.876 538.452 194.768 538.054 194.768C537.66 194.768 537.327 194.872 537.054 195.08C536.785 195.289 536.579 195.584 536.435 195.967C536.291 196.349 536.219 196.8 536.219 197.319ZM545.188 204.955C544.881 204.955 544.593 204.931 544.324 204.881C544.059 204.836 543.839 204.777 543.665 204.705L544.21 202.899C544.494 202.986 544.75 203.033 544.977 203.041C545.209 203.048 545.407 202.995 545.574 202.881C545.744 202.768 545.883 202.575 545.989 202.302L546.131 201.933L543 192.955H545.546L547.352 199.364H547.443L549.267 192.955H551.83L548.438 202.626C548.275 203.095 548.053 203.505 547.773 203.853C547.496 204.205 547.146 204.476 546.722 204.666C546.298 204.859 545.786 204.955 545.188 204.955ZM553.068 201.683V192.955H555.489V196.342H556.171L558.546 192.955H561.387L558.301 197.285L561.421 201.683H558.546L556.392 198.586H555.489V201.683H553.068ZM566.027 201.853C565.145 201.853 564.381 201.666 563.737 201.291C563.097 200.912 562.603 200.385 562.254 199.711C561.906 199.033 561.732 198.247 561.732 197.353C561.732 196.452 561.906 195.664 562.254 194.989C562.603 194.311 563.097 193.785 563.737 193.41C564.381 193.031 565.145 192.842 566.027 192.842C566.91 192.842 567.671 193.031 568.311 193.41C568.955 193.785 569.451 194.311 569.8 194.989C570.148 195.664 570.323 196.452 570.323 197.353C570.323 198.247 570.148 199.033 569.8 199.711C569.451 200.385 568.955 200.912 568.311 201.291C567.671 201.666 566.91 201.853 566.027 201.853ZM566.039 199.978C566.44 199.978 566.775 199.864 567.044 199.637C567.313 199.406 567.516 199.092 567.652 198.694C567.792 198.296 567.862 197.844 567.862 197.336C567.862 196.828 567.792 196.376 567.652 195.978C567.516 195.58 567.313 195.266 567.044 195.035C566.775 194.804 566.44 194.688 566.039 194.688C565.633 194.688 565.292 194.804 565.016 195.035C564.743 195.266 564.537 195.58 564.396 195.978C564.26 196.376 564.192 196.828 564.192 197.336C564.192 197.844 564.26 198.296 564.396 198.694C564.537 199.092 564.743 199.406 565.016 199.637C565.292 199.864 565.633 199.978 566.039 199.978ZM571.896 201.683V192.955H575.618C576.694 192.955 577.544 193.16 578.169 193.569C578.794 193.978 579.107 194.56 579.107 195.313C579.107 195.787 578.931 196.181 578.578 196.495C578.226 196.81 577.737 197.022 577.112 197.131C577.635 197.169 578.08 197.289 578.448 197.489C578.819 197.686 579.101 197.942 579.294 198.256C579.491 198.571 579.59 198.919 579.59 199.302C579.59 199.798 579.457 200.224 579.192 200.58C578.931 200.936 578.546 201.209 578.039 201.399C577.535 201.588 576.919 201.683 576.192 201.683H571.896ZM574.152 199.87H576.192C576.529 199.87 576.792 199.791 576.982 199.631C577.175 199.469 577.271 199.247 577.271 198.967C577.271 198.656 577.175 198.412 576.982 198.234C576.792 198.056 576.529 197.967 576.192 197.967H574.152V199.87ZM574.152 196.546H575.669C575.912 196.546 576.118 196.512 576.289 196.444C576.463 196.372 576.595 196.27 576.686 196.137C576.781 196.005 576.828 195.847 576.828 195.666C576.828 195.397 576.72 195.186 576.504 195.035C576.289 194.883 575.993 194.808 575.618 194.808H574.152V196.546ZM585.058 201.853C584.176 201.853 583.413 201.666 582.769 201.291C582.128 200.912 581.634 200.385 581.286 199.711C580.937 199.033 580.763 198.247 580.763 197.353C580.763 196.452 580.937 195.664 581.286 194.989C581.634 194.311 582.128 193.785 582.769 193.41C583.413 193.031 584.176 192.842 585.058 192.842C585.941 192.842 586.702 193.031 587.343 193.41C587.986 193.785 588.483 194.311 588.831 194.989C589.18 195.664 589.354 196.452 589.354 197.353C589.354 198.247 589.18 199.033 588.831 199.711C588.483 200.385 587.986 200.912 587.343 201.291C586.702 201.666 585.941 201.853 585.058 201.853ZM585.07 199.978C585.471 199.978 585.807 199.864 586.075 199.637C586.344 199.406 586.547 199.092 586.683 198.694C586.824 198.296 586.894 197.844 586.894 197.336C586.894 196.828 586.824 196.376 586.683 195.978C586.547 195.58 586.344 195.266 586.075 195.035C585.807 194.804 585.471 194.688 585.07 194.688C584.664 194.688 584.324 194.804 584.047 195.035C583.774 195.266 583.568 195.58 583.428 195.978C583.291 196.376 583.223 196.828 583.223 197.336C583.223 197.844 583.291 198.296 583.428 198.694C583.568 199.092 583.774 199.406 584.047 199.637C584.324 199.864 584.664 199.978 585.07 199.978ZM590.246 204.239V199.762H590.916C591.11 199.641 591.265 199.448 591.382 199.183C591.503 198.917 591.602 198.605 591.678 198.245C591.757 197.885 591.818 197.497 591.86 197.08C591.905 196.66 591.945 196.236 591.979 195.808L592.206 192.955H598.899V199.762H600.252V204.239H597.945V201.683H592.61V204.239H590.246ZM593.325 199.762H596.615V194.819H594.263L594.172 195.808C594.108 196.739 594.015 197.531 593.894 198.183C593.772 198.83 593.583 199.357 593.325 199.762ZM605.605 201.853C604.711 201.853 603.942 201.664 603.298 201.285C602.658 200.902 602.166 200.372 601.821 199.694C601.48 199.016 601.31 198.236 601.31 197.353C601.31 196.459 601.482 195.675 601.827 195.001C602.175 194.323 602.67 193.794 603.31 193.416C603.95 193.033 604.711 192.842 605.594 192.842C606.355 192.842 607.022 192.98 607.594 193.256C608.166 193.533 608.619 193.921 608.952 194.421C609.285 194.921 609.469 195.508 609.503 196.183H607.219C607.155 195.747 606.984 195.397 606.708 195.131C606.435 194.863 606.077 194.728 605.634 194.728C605.259 194.728 604.931 194.83 604.651 195.035C604.374 195.236 604.158 195.529 604.003 195.916C603.848 196.302 603.77 196.77 603.77 197.319C603.77 197.876 603.846 198.349 603.997 198.739C604.153 199.13 604.37 199.427 604.651 199.631C604.931 199.836 605.259 199.938 605.634 199.938C605.91 199.938 606.158 199.881 606.378 199.768C606.602 199.654 606.785 199.489 606.929 199.274C607.077 199.054 607.173 198.791 607.219 198.484H609.503C609.465 199.15 609.283 199.738 608.958 200.245C608.636 200.749 608.191 201.143 607.622 201.427C607.054 201.711 606.382 201.853 605.605 201.853ZM610.458 194.859V192.955H618.367V194.859H615.554V201.683H613.247V194.859H610.458ZM619.834 201.683V192.955H623.556C624.631 192.955 625.482 193.16 626.107 193.569C626.732 193.978 627.044 194.56 627.044 195.313C627.044 195.787 626.868 196.181 626.516 196.495C626.164 196.81 625.675 197.022 625.05 197.131C625.573 197.169 626.018 197.289 626.385 197.489C626.756 197.686 627.039 197.942 627.232 198.256C627.429 198.571 627.527 198.919 627.527 199.302C627.527 199.798 627.395 200.224 627.129 200.58C626.868 200.936 626.484 201.209 625.976 201.399C625.472 201.588 624.857 201.683 624.129 201.683H619.834ZM622.09 199.87H624.129C624.467 199.87 624.73 199.791 624.919 199.631C625.112 199.469 625.209 199.247 625.209 198.967C625.209 198.656 625.112 198.412 624.919 198.234C624.73 198.056 624.467 197.967 624.129 197.967H622.09V199.87ZM622.09 196.546H623.607C623.849 196.546 624.056 196.512 624.226 196.444C624.4 196.372 624.533 196.27 624.624 196.137C624.718 196.005 624.766 195.847 624.766 195.666C624.766 195.397 624.658 195.186 624.442 195.035C624.226 194.883 623.931 194.808 623.556 194.808H622.09V196.546ZM632.996 201.853C632.113 201.853 631.35 201.666 630.706 201.291C630.066 200.912 629.572 200.385 629.223 199.711C628.875 199.033 628.7 198.247 628.7 197.353C628.7 196.452 628.875 195.664 629.223 194.989C629.572 194.311 630.066 193.785 630.706 193.41C631.35 193.031 632.113 192.842 632.996 192.842C633.878 192.842 634.64 193.031 635.28 193.41C635.924 193.785 636.42 194.311 636.769 194.989C637.117 195.664 637.291 196.452 637.291 197.353C637.291 198.247 637.117 199.033 636.769 199.711C636.42 200.385 635.924 200.912 635.28 201.291C634.64 201.666 633.878 201.853 632.996 201.853ZM633.007 199.978C633.409 199.978 633.744 199.864 634.013 199.637C634.282 199.406 634.485 199.092 634.621 198.694C634.761 198.296 634.831 197.844 634.831 197.336C634.831 196.828 634.761 196.376 634.621 195.978C634.485 195.58 634.282 195.266 634.013 195.035C633.744 194.804 633.409 194.688 633.007 194.688C632.602 194.688 632.261 194.804 631.985 195.035C631.712 195.266 631.505 195.58 631.365 195.978C631.229 196.376 631.161 196.828 631.161 197.336C631.161 197.844 631.229 198.296 631.365 198.694C631.505 199.092 631.712 199.406 631.985 199.637C632.261 199.864 632.602 199.978 633.007 199.978Z" fill="#5955B3"/>
<path d="M56.4918 188.08C58.4869 188.08 60.1042 186.462 60.1042 184.467C60.1042 182.471 58.4869 180.854 56.4918 180.854C54.4967 180.854 52.8794 182.471 52.8794 184.467C52.8794 186.462 54.4967 188.08 56.4918 188.08Z" stroke="#6663CF" stroke-width="2"/>
<path d="M63.5698 184.835C70.8561 184.084 82.289 184.972 83.6404 190.609C84.9917 196.246 79.8315 198.308 77.0827 198.634C66.6169 200.298 52.7397 199.515 52.7397 190.609" stroke="#6663CF" stroke-width="2" stroke-linecap="round"/>
<path d="M60.9371 193.361C61.3975 193.361 61.7708 192.987 61.7708 192.527C61.7708 192.066 61.3975 191.693 60.9371 191.693C60.4767 191.693 60.1035 192.066 60.1035 192.527C60.1035 192.987 60.4767 193.361 60.9371 193.361Z" stroke="#6663CF" stroke-width="2"/>
<path d="M68.9954 192.527C68.9954 192.932 68.6181 193.361 68.0229 193.361C67.4276 193.361 67.0503 192.932 67.0503 192.527C67.0503 192.122 67.4276 191.693 68.0229 191.693C68.6181 191.693 68.9954 192.122 68.9954 192.527Z" stroke="#6663CF" stroke-width="2"/>
<path d="M75.109 193.361C75.5694 193.361 75.9426 192.987 75.9426 192.527C75.9426 192.066 75.5694 191.693 75.109 191.693C74.6486 191.693 74.2754 192.066 74.2754 192.527C74.2754 192.987 74.6486 193.361 75.109 193.361Z" stroke="#6663CF" stroke-width="2"/>
<path d="M330.616 86.3556C332.458 86.3556 333.951 84.8624 333.951 83.0204C333.951 81.1784 332.458 79.6852 330.616 79.6852C328.775 79.6852 327.282 81.1784 327.282 83.0204C327.282 84.8624 328.775 86.3556 330.616 86.3556Z" stroke="#6663CF" stroke-width="2"/>
<path d="M337.167 80.1022C339.61 80.1022 346.592 80.1022 349.877 80.1022C352.537 80.1022 353.818 80.6908 353.818 84.8109C353.818 88.814 353.785 93.9995 353.818 96.0923C353.841 97.5637 353.108 99.1921 350.665 99.4275C348.221 99.663 338.415 99.5257 333.817 99.4275C332.109 99.4275 329.087 98.4592 329.087 94.5225V90.1081" stroke="#6663CF" stroke-width="2" stroke-linecap="round"/>
<path d="M335.479 87.0504L341.592 91.2194" stroke="#6663CF" stroke-width="2" stroke-linecap="round"/>
<path d="M341.592 91.2195L352.707 80.9359" stroke="#6663CF" stroke-width="2" stroke-linecap="round"/>
<path d="M344.41 88.7181L347.447 91.7754L350.484 94.8327" stroke="#6663CF" stroke-width="2" stroke-linecap="round"/>
<path d="M333.256 94.8327L337.737 88.7181" stroke="#6663CF" stroke-width="2" stroke-linecap="round"/>
<path d="M118.874 250.773C117.876 246.916 114.558 239.802 109.283 242.207C104.008 244.611 107.085 248.919 109.283 250.773C110.762 251.775 113.942 252.847 114.828 249.12C115.714 245.393 111.981 243.86 110.931 245.513C110.378 246.164 109.753 247.797 111.681 249.12" stroke="#6663CF" stroke-width="2" stroke-linecap="round"/>
<path d="M142.733 64.5897C142.443 62.9573 144.151 61.7014 145.622 62.4645L147.061 63.2103C148.229 63.8163 149.621 63.8083 150.783 63.189L152.213 62.4265C153.676 61.6467 155.398 62.8828 155.127 64.5183L154.862 66.1176C154.647 67.4165 155.084 68.7381 156.032 69.6517L157.199 70.7764C158.393 71.9268 157.749 73.9467 156.11 74.1945L154.508 74.4367C153.207 74.6335 152.085 75.4584 151.509 76.6425L150.801 78.0996C150.076 79.5905 147.956 79.6027 147.214 78.1203L146.489 76.6709C145.899 75.4936 144.769 74.6818 143.465 74.4999L141.86 74.276C140.218 74.047 139.552 72.0347 140.732 70.8708L141.886 69.7328C142.823 68.8083 143.246 67.4817 143.016 66.1853L142.733 64.5897Z" stroke="#6663CF" stroke-width="2"/>
<path d="M228.219 188.056V211.681" stroke="#2B2B2B" stroke-width="2" stroke-linecap="round"/>
<path d="M246.003 190.836V213.348" stroke="#2B2B2B" stroke-width="2" stroke-linecap="round"/>
<path d="M204.407 293.139C198.535 293.871 184.787 296.568 181.776 302.053C180.872 303.698 179.825 307.703 182.86 310.555C185.896 313.407 191.443 312.657 193.837 311.926L207.795 306.304" stroke="#2B2B2B" stroke-width="2" stroke-linecap="round"/>
<path d="M284.433 251.748C273.475 252.101 225.08 275.535 202.252 287.208C200.308 300.071 208.511 309.307 212.856 312.317C235.61 305.71 282.312 292.318 287.084 291.613C291.855 290.909 296.583 287.502 298.35 285.887C310.721 271.439 301.59 259.163 295.478 254.832C291.127 251.748 287.371 251.654 284.433 251.748Z" fill="#2B2B2B"/>
<path d="M181.795 248.47C189.558 248.988 223.426 262.116 239.473 268.997L202.774 287.34C186.35 292.157 176.26 290.57 173.179 289.532C155.393 280.961 162.361 259.816 169.428 251.984C173.982 248.106 179.013 248.284 181.795 248.47Z" fill="#2B2B2B"/>
<path d="M268.201 295.641C273.054 297.973 275.677 301.029 277.007 303.534C279.858 310.06 274.739 313.983 268.895 312.138C265.666 311.119 264.905 310.436 263.194 309.017C262.326 308.297 258.273 304.53 253.645 300.08" stroke="#2B2B2B" stroke-width="2" stroke-linecap="round"/>
<path d="M175.439 191.794L178.375 245.171C178.667 250.472 183.051 254.622 188.36 254.622H278.24C283.763 254.622 288.24 250.145 288.24 244.622V189.993C288.24 184.417 283.68 179.919 278.105 179.994L185.289 181.245C179.604 181.322 175.126 186.117 175.439 191.794Z" fill="#2B2B2B"/>
<rect x="178.201" y="255.594" width="110.039" height="5.28076" rx="2.64038" fill="#2B2B2B"/>
<path d="M246.281 150.535C255.96 150.396 277.264 157.761 285.739 180.969" stroke="#2B2B2B" stroke-width="2" stroke-linecap="round"/>
<path d="M225.023 150.396C202.932 154.704 192.372 164.154 184.036 182.359" stroke="#2B2B2B" stroke-width="2" stroke-linecap="round"/>
<path d="M298.938 172.377L304.357 163.344" stroke="#2B2B2B" stroke-width="2" stroke-linecap="round"/>
<path d="M304.357 174.878L311.721 168.763" stroke="#2B2B2B" stroke-width="2" stroke-linecap="round"/>
<path d="M305.468 179.047C306.903 179.603 310.164 180.131 311.72 177.796" stroke="#2B2B2B" stroke-width="2" stroke-linecap="round"/>
<path d="M163.335 170.685L154.999 162.069" stroke="#2B2B2B" stroke-width="2" stroke-linecap="round"/>
<path d="M171.81 169.296L166.808 156.372" stroke="#2B2B2B" stroke-width="2" stroke-linecap="round"/>
<path d="M161.251 175.549L154.999 173.187" stroke="#2B2B2B" stroke-width="2" stroke-linecap="round"/>
<path d="M291.296 196.557C296.437 204.617 302.272 214.206 291.296 232.248" stroke="#2B2B2B" stroke-width="2" stroke-linecap="round"/>
<path d="M246.419 151.23C247.67 147.617 246.531 145.185 245.419 144.722C238.75 150.836 228.635 148.567 224.884 144.861C223.55 146.084 224.328 149.701 224.884 150.813C232.109 158.817 242.39 154.333 246.419 151.23Z" fill="#2B2B2B"/>
<path d="M216.826 173.465L217.387 172.603C220.532 167.775 226.654 165.847 231.998 168.003V168.003C236.797 169.938 242.296 168.595 245.663 164.667L250.032 159.568" stroke="#2B2B2B" stroke-width="2" stroke-linecap="round"/>
<path d="M173.338 201.675C171.254 206.585 168.781 218.49 175.561 226.828" stroke="#2B2B2B" stroke-width="2" stroke-linecap="round"/>
<path d="M262.733 121.066V121.066C261.347 121.066 246.564 108.128 241.482 103.969C236.4 99.8104 228.601 89.1278 224.558 86.4099C224.712 96.4889 219.307 106.28 219.307 106.28C217.892 108.61 216.535 109.514 216.535 115.935C216.535 123.249 215.373 121.814 214.405 120.199C211.618 111.205 206.459 114.582 204.523 116.908C197.532 92.0035 216.958 75.0712 223.927 75.7819C229.192 71.2852 238.949 74.3841 243.792 76.244C262.733 83.5179 262.733 102.588 262.733 121.066Z" fill="url(#paint1_linear_512_6543)"/>
<path d="M215.587 127.07C218.088 142.342 237.871 150.015 247.026 139.55C253.493 132.156 253.955 126.608 253.493 109.052" stroke="#2B2B2B" stroke-width="2" stroke-linecap="round"/>
<path d="M205.695 114.989C204.167 118.741 205.601 127.055 215.588 127.055" stroke="#2B2B2B" stroke-width="2" stroke-linecap="round"/>
<path d="M210.1 117.05C209.879 117.852 210.055 119.755 212.531 120.941" stroke="#2B2B2B" stroke-width="2" stroke-linecap="round"/>
<path d="M253.493 125.11C256.753 123.75 259.051 118.717 258.167 110.657" stroke="#2B2B2B" stroke-width="2" stroke-linecap="round"/>
<path d="M233.628 134.467C236.824 135.301 238.595 135.556 241.02 133.543" stroke="#2B2B2B" stroke-width="2" stroke-linecap="round"/>
<ellipse cx="246.246" cy="114.867" rx="2.08407" ry="2.08451" fill="#2B2B2B"/>
<ellipse cx="227.905" cy="115.146" rx="2.08407" ry="2.08451" fill="#2B2B2B"/>
<path d="M223.368 110.379C223.807 109.088 225.699 106.698 229.759 107.473" stroke="#2B2B2B" stroke-width="2" stroke-linecap="round"/>
<path d="M242.819 107.878C243.788 107.039 246.422 105.864 249.21 107.878" stroke="#2B2B2B" stroke-width="2" stroke-linecap="round"/>
<path d="M236.097 113.714C235.773 116.459 235.553 122.024 237.262 122.33" stroke="#2B2B2B" stroke-width="2" stroke-linecap="round"/>
<path d="M316.167 239.776C353.263 250.059 419.898 261.871 389.665 226.852C380.124 217.448 366.045 206.424 343.398 196.696" stroke="#6663CF" stroke-width="2" stroke-linecap="round"/>
<path d="M356.32 167.926C379.383 153.149 416.535 122.623 380.634 118.732C344.732 114.841 311.952 128.32 300.05 135.547" stroke="#6663CF" stroke-width="2" stroke-linecap="round"/>
<path d="M262.563 142.635C277.846 109.7 302.577 41.4393 279.235 31.8783C250.058 19.9271 212.267 54.3911 181.423 136.66" stroke="#6663CF" stroke-width="2" stroke-linecap="round"/>
<path d="M151.852 117.961C117.674 99.2463 47.8988 70.4615 42.2302 105.037C36.5615 139.612 105.817 168.452 141.154 178.55" stroke="#6663CF" stroke-width="2" stroke-linecap="round"/>
<path d="M150.227 196.696C100.349 222.127 37.8513 257.298 72.4691 275.629C86.6406 283.134 122.904 278.548 139.576 271.738" stroke="#6663CF" stroke-width="2" stroke-linecap="round"/>
<ellipse cx="231.831" cy="363.179" rx="68.7744" ry="8.33805" fill="#6663CF"/>
<path d="M349.346 288.433C351.487 288.822 356.397 288.684 358.908 285.021" stroke="#6663CF" stroke-width="2" stroke-linecap="round"/>
<path d="M343.701 282.983C345.055 283.471 348.42 283.812 351.051 281.276" stroke="#6663CF" stroke-width="2" stroke-linecap="round"/>
<path d="M339.133 276.068C341.469 276.32 346.688 276.441 348.875 274.908" stroke="#6663CF" stroke-width="2" stroke-linecap="round"/>
<path d="M353.766 297.526C340.056 296.039 331.886 280.305 328.836 270.652C328.446 269.417 329.385 268.2 330.68 268.186L351.965 267.943C352.744 267.934 353.451 268.382 353.824 269.065C358.141 276.967 367.313 283.378 374.02 287.025C375.636 287.903 375.495 290.423 373.752 291.007L354.576 297.434C354.316 297.521 354.038 297.555 353.766 297.526Z" stroke="#6663CF" stroke-width="2" stroke-linecap="round"/>
<defs>
<linearGradient id="paint0_linear_512_6543" x1="529.111" y1="72.0854" x2="602.405" y2="98.2953" gradientUnits="userSpaceOnUse">
<stop stop-color="#5955B3"/>
<stop offset="1" stop-color="#6563CE"/>
</linearGradient>
<linearGradient id="paint1_linear_512_6543" x1="233.189" y1="73.4613" x2="233.189" y2="121.504" gradientUnits="userSpaceOnUse">
<stop stop-color="#2A2A2A"/>
<stop offset="0.825" stop-color="#5955B3"/>
</linearGradient>
</defs>
</svg>
