<svg width="751" height="408" viewBox="0 0 751 408" fill="none" xmlns="http://www.w3.org/2000/svg">
<rect width="751" height="408" rx="5" fill="white"/>
<path opacity="0.2" fill-rule="evenodd" clip-rule="evenodd" d="M750.693 388.123C750.627 399.073 741.762 407.937 730.811 408H434.842C447.376 373.077 499.731 303.231 608.882 303.231C718.034 303.231 748.903 248.907 750.693 221.744V388.123Z" fill="#79A4E2"/>
<path opacity="0.2" fill-rule="evenodd" clip-rule="evenodd" d="M210.763 0C208.095 18.0677 191.746 68.875 124.398 91.9214C59.0546 114.281 16.0082 106.592 0.000526816 99.3648L0.000520412 20C0.000519521 8.95433 8.95482 1.91169e-05 20.0005 1.80705e-05L210.763 0Z" fill="#89AFFF"/>
<path d="M480.744 135L472.42 105.909H479.139L483.954 126.122H484.196L489.508 105.909H495.261L500.559 126.165H500.815L505.63 105.909H512.349L504.025 135H498.031L492.491 115.98H492.264L486.738 135H480.744ZM523.127 135.426C520.882 135.426 518.951 134.972 517.331 134.062C515.721 133.144 514.481 131.847 513.61 130.17C512.739 128.485 512.303 126.491 512.303 124.19C512.303 121.946 512.739 119.976 513.61 118.281C514.481 116.586 515.707 115.265 517.289 114.318C518.88 113.371 520.745 112.898 522.885 112.898C524.325 112.898 525.665 113.13 526.905 113.594C528.155 114.048 529.244 114.735 530.172 115.653C531.11 116.572 531.839 117.727 532.36 119.119C532.881 120.502 533.141 122.121 533.141 123.977V125.639H514.718V121.889H527.445C527.445 121.018 527.256 120.246 526.877 119.574C526.498 118.902 525.972 118.376 525.3 117.997C524.637 117.609 523.865 117.415 522.985 117.415C522.066 117.415 521.252 117.628 520.542 118.054C519.841 118.471 519.292 119.034 518.894 119.744C518.496 120.445 518.293 121.226 518.283 122.088V125.653C518.283 126.733 518.482 127.666 518.88 128.452C519.287 129.238 519.86 129.844 520.598 130.27C521.337 130.696 522.213 130.909 523.226 130.909C523.899 130.909 524.514 130.814 525.073 130.625C525.632 130.436 526.11 130.152 526.507 129.773C526.905 129.394 527.208 128.93 527.417 128.381L533.013 128.75C532.729 130.095 532.147 131.269 531.266 132.273C530.395 133.267 529.268 134.044 527.885 134.602C526.512 135.152 524.926 135.426 523.127 135.426ZM543.141 105.909V135H537.09V105.909H543.141ZM557.846 135.426C555.611 135.426 553.689 134.953 552.079 134.006C550.479 133.049 549.248 131.723 548.386 130.028C547.534 128.333 547.108 126.383 547.108 124.176C547.108 121.941 547.538 119.981 548.4 118.295C549.271 116.6 550.507 115.279 552.108 114.332C553.708 113.376 555.611 112.898 557.818 112.898C559.721 112.898 561.388 113.243 562.818 113.935C564.248 114.626 565.379 115.597 566.213 116.847C567.046 118.097 567.505 119.564 567.591 121.25H561.88C561.719 120.161 561.293 119.285 560.602 118.622C559.92 117.95 559.025 117.614 557.917 117.614C556.98 117.614 556.161 117.869 555.46 118.381C554.769 118.883 554.229 119.616 553.841 120.582C553.452 121.548 553.258 122.718 553.258 124.091C553.258 125.483 553.448 126.667 553.826 127.642C554.215 128.617 554.759 129.361 555.46 129.872C556.161 130.384 556.98 130.639 557.917 130.639C558.609 130.639 559.229 130.497 559.778 130.213C560.337 129.929 560.796 129.517 561.156 128.977C561.525 128.428 561.767 127.77 561.88 127.003H567.591C567.496 128.67 567.041 130.137 566.227 131.406C565.422 132.666 564.309 133.651 562.889 134.361C561.468 135.071 559.788 135.426 557.846 135.426ZM581.323 135.426C579.116 135.426 577.208 134.957 575.598 134.02C573.998 133.073 572.762 131.757 571.891 130.071C571.02 128.376 570.584 126.411 570.584 124.176C570.584 121.922 571.02 119.953 571.891 118.267C572.762 116.572 573.998 115.256 575.598 114.318C577.208 113.371 579.116 112.898 581.323 112.898C583.529 112.898 585.433 113.371 587.033 114.318C588.643 115.256 589.883 116.572 590.755 118.267C591.626 119.953 592.061 121.922 592.061 124.176C592.061 126.411 591.626 128.376 590.755 130.071C589.883 131.757 588.643 133.073 587.033 134.02C585.433 134.957 583.529 135.426 581.323 135.426ZM581.351 130.739C582.355 130.739 583.193 130.455 583.865 129.886C584.538 129.309 585.044 128.523 585.385 127.528C585.736 126.534 585.911 125.402 585.911 124.134C585.911 122.865 585.736 121.733 585.385 120.739C585.044 119.744 584.538 118.958 583.865 118.381C583.193 117.803 582.355 117.514 581.351 117.514C580.338 117.514 579.486 117.803 578.794 118.381C578.113 118.958 577.596 119.744 577.246 120.739C576.905 121.733 576.735 122.865 576.735 124.134C576.735 125.402 576.905 126.534 577.246 127.528C577.596 128.523 578.113 129.309 578.794 129.886C579.486 130.455 580.338 130.739 581.351 130.739ZM595.996 135V113.182H601.763V117.031H602.019C602.473 115.753 603.231 114.744 604.292 114.006C605.352 113.267 606.621 112.898 608.098 112.898C609.595 112.898 610.868 113.272 611.919 114.02C612.971 114.759 613.671 115.762 614.022 117.031H614.249C614.694 115.781 615.499 114.782 616.664 114.034C617.838 113.277 619.225 112.898 620.826 112.898C622.862 112.898 624.514 113.546 625.783 114.844C627.061 116.132 627.701 117.959 627.701 120.327V135H621.664V121.52C621.664 120.308 621.342 119.399 620.698 118.793C620.054 118.187 619.249 117.884 618.283 117.884C617.185 117.884 616.328 118.234 615.712 118.935C615.096 119.626 614.789 120.54 614.789 121.676V135H608.922V121.392C608.922 120.322 608.614 119.47 607.999 118.835C607.393 118.201 606.593 117.884 605.598 117.884C604.926 117.884 604.32 118.054 603.78 118.395C603.25 118.726 602.829 119.195 602.516 119.801C602.204 120.398 602.047 121.098 602.047 121.903V135H595.996ZM642.424 135.426C640.179 135.426 638.248 134.972 636.628 134.062C635.018 133.144 633.778 131.847 632.907 130.17C632.035 128.485 631.6 126.491 631.6 124.19C631.6 121.946 632.035 119.976 632.907 118.281C633.778 116.586 635.004 115.265 636.586 114.318C638.177 113.371 640.042 112.898 642.182 112.898C643.622 112.898 644.962 113.13 646.202 113.594C647.452 114.048 648.541 114.735 649.469 115.653C650.407 116.572 651.136 117.727 651.657 119.119C652.177 120.502 652.438 122.121 652.438 123.977V125.639H634.015V121.889H646.742C646.742 121.018 646.552 120.246 646.174 119.574C645.795 118.902 645.269 118.376 644.597 117.997C643.934 117.609 643.162 117.415 642.282 117.415C641.363 117.415 640.549 117.628 639.838 118.054C639.138 118.471 638.588 119.034 638.191 119.744C637.793 120.445 637.589 121.226 637.58 122.088V125.653C637.58 126.733 637.779 127.666 638.177 128.452C638.584 129.238 639.157 129.844 639.895 130.27C640.634 130.696 641.51 130.909 642.523 130.909C643.195 130.909 643.811 130.814 644.37 130.625C644.928 130.436 645.407 130.152 645.804 129.773C646.202 129.394 646.505 128.93 646.713 128.381L652.31 128.75C652.026 130.095 651.444 131.269 650.563 132.273C649.692 133.267 648.565 134.044 647.182 134.602C645.809 135.152 644.223 135.426 642.424 135.426ZM663.617 105.909L663.063 126.278H657.864L657.296 105.909H663.617ZM660.463 135.369C659.526 135.369 658.721 135.038 658.049 134.375C657.376 133.703 657.045 132.898 657.054 131.96C657.045 131.032 657.376 130.237 658.049 129.574C658.721 128.911 659.526 128.58 660.463 128.58C661.363 128.58 662.154 128.911 662.836 129.574C663.517 130.237 663.863 131.032 663.873 131.96C663.863 132.585 663.697 133.158 663.375 133.679C663.063 134.19 662.651 134.602 662.14 134.915C661.628 135.218 661.07 135.369 660.463 135.369Z" fill="url(#paint0_linear_870_6975)"/>
<path d="M465.777 182V167.455H467.971V173.776H475.223V167.455H477.424V182H475.223V175.658H467.971V182H465.777ZM485.152 182.22C484.077 182.22 483.151 181.991 482.375 181.531C481.603 181.067 481.006 180.416 480.585 179.578C480.168 178.735 479.96 177.748 479.96 176.616C479.96 175.499 480.168 174.514 480.585 173.662C481.006 172.81 481.593 172.144 482.346 171.666C483.104 171.188 483.989 170.949 485.002 170.949C485.618 170.949 486.215 171.051 486.792 171.254C487.37 171.458 487.888 171.777 488.348 172.213C488.807 172.649 489.169 173.214 489.434 173.911C489.699 174.602 489.832 175.442 489.832 176.432V177.185H481.16V175.594H487.751C487.751 175.035 487.637 174.54 487.41 174.109C487.183 173.674 486.863 173.33 486.451 173.08C486.044 172.829 485.566 172.703 485.017 172.703C484.42 172.703 483.899 172.85 483.454 173.143C483.014 173.432 482.673 173.811 482.431 174.28C482.195 174.744 482.076 175.248 482.076 175.793V177.036C482.076 177.765 482.204 178.385 482.46 178.896C482.72 179.408 483.083 179.798 483.547 180.068C484.011 180.333 484.553 180.466 485.173 180.466C485.575 180.466 485.942 180.409 486.274 180.295C486.605 180.177 486.892 180.002 487.133 179.77C487.375 179.538 487.559 179.251 487.687 178.911L489.697 179.273C489.536 179.865 489.247 180.383 488.831 180.828C488.419 181.268 487.9 181.612 487.275 181.858C486.655 182.099 485.947 182.22 485.152 182.22ZM492.188 182V171.091H494.241V172.824H494.354C494.553 172.237 494.904 171.775 495.406 171.439C495.912 171.098 496.485 170.928 497.124 170.928C497.257 170.928 497.413 170.932 497.593 170.942C497.778 170.951 497.922 170.963 498.026 170.977V173.009C497.941 172.985 497.79 172.959 497.572 172.93C497.354 172.897 497.136 172.881 496.918 172.881C496.416 172.881 495.969 172.987 495.576 173.2C495.188 173.409 494.88 173.7 494.653 174.074C494.425 174.443 494.312 174.865 494.312 175.338V182H492.188ZM504.175 182.22C503.1 182.22 502.175 181.991 501.398 181.531C500.626 181.067 500.03 180.416 499.608 179.578C499.192 178.735 498.983 177.748 498.983 176.616C498.983 175.499 499.192 174.514 499.608 173.662C500.03 172.81 500.617 172.144 501.37 171.666C502.127 171.188 503.013 170.949 504.026 170.949C504.641 170.949 505.238 171.051 505.816 171.254C506.393 171.458 506.912 171.777 507.371 172.213C507.83 172.649 508.193 173.214 508.458 173.911C508.723 174.602 508.855 175.442 508.855 176.432V177.185H500.184V175.594H506.775C506.775 175.035 506.661 174.54 506.434 174.109C506.206 173.674 505.887 173.33 505.475 173.08C505.068 172.829 504.589 172.703 504.04 172.703C503.444 172.703 502.923 172.85 502.478 173.143C502.037 173.432 501.696 173.811 501.455 174.28C501.218 174.744 501.1 175.248 501.1 175.793V177.036C501.1 177.765 501.228 178.385 501.483 178.896C501.744 179.408 502.106 179.798 502.57 180.068C503.034 180.333 503.576 180.466 504.196 180.466C504.599 180.466 504.966 180.409 505.297 180.295C505.629 180.177 505.915 180.002 506.157 179.77C506.398 179.538 506.583 179.251 506.711 178.911L508.721 179.273C508.56 179.865 508.271 180.383 507.854 180.828C507.442 181.268 506.924 181.612 506.299 181.858C505.678 182.099 504.971 182.22 504.175 182.22ZM516.505 182V171.091H518.628V182H516.505ZM517.577 169.408C517.208 169.408 516.891 169.285 516.625 169.038C516.365 168.787 516.235 168.489 516.235 168.143C516.235 167.793 516.365 167.495 516.625 167.249C516.891 166.998 517.208 166.872 517.577 166.872C517.946 166.872 518.261 166.998 518.522 167.249C518.787 167.495 518.919 167.793 518.919 168.143C518.919 168.489 518.787 168.787 518.522 169.038C518.261 169.285 517.946 169.408 517.577 169.408ZM529.66 173.754L527.735 174.095C527.655 173.849 527.527 173.615 527.352 173.392C527.181 173.17 526.949 172.987 526.656 172.845C526.362 172.703 525.995 172.632 525.555 172.632C524.953 172.632 524.451 172.767 524.049 173.037C523.647 173.302 523.445 173.645 523.445 174.067C523.445 174.431 523.58 174.725 523.85 174.947C524.12 175.17 524.556 175.352 525.157 175.494L526.89 175.892C527.894 176.124 528.642 176.482 529.134 176.964C529.627 177.447 529.873 178.075 529.873 178.847C529.873 179.5 529.683 180.082 529.305 180.594C528.931 181.1 528.407 181.498 527.735 181.787C527.067 182.076 526.293 182.22 525.413 182.22C524.191 182.22 523.194 181.96 522.423 181.439C521.651 180.913 521.177 180.168 521.002 179.202L523.055 178.889C523.183 179.424 523.445 179.829 523.843 180.104C524.241 180.374 524.759 180.509 525.398 180.509C526.094 180.509 526.651 180.364 527.067 180.075C527.484 179.782 527.692 179.424 527.692 179.003C527.692 178.662 527.565 178.375 527.309 178.143C527.058 177.911 526.672 177.736 526.151 177.618L524.305 177.213C523.287 176.981 522.534 176.612 522.046 176.105C521.563 175.598 521.322 174.957 521.322 174.18C521.322 173.536 521.502 172.973 521.862 172.49C522.221 172.007 522.719 171.631 523.353 171.361C523.987 171.086 524.714 170.949 525.533 170.949C526.712 170.949 527.64 171.205 528.317 171.716C528.995 172.223 529.442 172.902 529.66 173.754ZM540.675 182.241C539.984 182.241 539.359 182.114 538.8 181.858C538.242 181.598 537.799 181.221 537.472 180.729C537.15 180.236 536.989 179.633 536.989 178.918C536.989 178.302 537.108 177.795 537.344 177.398C537.581 177 537.901 176.685 538.303 176.453C538.706 176.221 539.156 176.046 539.653 175.928C540.15 175.809 540.656 175.719 541.173 175.658C541.826 175.582 542.356 175.52 542.763 175.473C543.171 175.421 543.467 175.338 543.651 175.224C543.836 175.111 543.928 174.926 543.928 174.67V174.621C543.928 174 543.753 173.52 543.403 173.179C543.057 172.838 542.541 172.668 541.854 172.668C541.139 172.668 540.576 172.826 540.164 173.143C539.757 173.456 539.475 173.804 539.319 174.188L537.323 173.733C537.56 173.07 537.906 172.535 538.36 172.128C538.819 171.716 539.347 171.418 539.944 171.233C540.54 171.044 541.168 170.949 541.826 170.949C542.262 170.949 542.723 171.001 543.211 171.105C543.703 171.205 544.163 171.389 544.589 171.659C545.02 171.929 545.372 172.315 545.647 172.817C545.922 173.314 546.059 173.96 546.059 174.756V182H543.985V180.509H543.9C543.763 180.783 543.557 181.053 543.282 181.318C543.007 181.583 542.655 181.804 542.224 181.979C541.793 182.154 541.277 182.241 540.675 182.241ZM541.137 180.537C541.724 180.537 542.226 180.421 542.643 180.189C543.064 179.957 543.384 179.654 543.602 179.28C543.824 178.901 543.935 178.496 543.935 178.065V176.659C543.86 176.735 543.713 176.806 543.495 176.872C543.282 176.934 543.038 176.988 542.763 177.036C542.489 177.078 542.221 177.118 541.961 177.156C541.701 177.189 541.483 177.218 541.308 177.241C540.896 177.294 540.519 177.381 540.178 177.504C539.842 177.627 539.572 177.805 539.369 178.037C539.17 178.264 539.07 178.567 539.07 178.946C539.07 179.472 539.264 179.869 539.653 180.139C540.041 180.404 540.536 180.537 541.137 180.537ZM562.355 173.754L560.43 174.095C560.35 173.849 560.222 173.615 560.047 173.392C559.876 173.17 559.644 172.987 559.351 172.845C559.057 172.703 558.69 172.632 558.25 172.632C557.649 172.632 557.147 172.767 556.744 173.037C556.342 173.302 556.141 173.645 556.141 174.067C556.141 174.431 556.276 174.725 556.545 174.947C556.815 175.17 557.251 175.352 557.852 175.494L559.585 175.892C560.589 176.124 561.337 176.482 561.83 176.964C562.322 177.447 562.568 178.075 562.568 178.847C562.568 179.5 562.379 180.082 562 180.594C561.626 181.1 561.103 181.498 560.43 181.787C559.763 182.076 558.989 182.22 558.108 182.22C556.886 182.22 555.89 181.96 555.118 181.439C554.346 180.913 553.873 180.168 553.697 179.202L555.75 178.889C555.878 179.424 556.141 179.829 556.538 180.104C556.936 180.374 557.455 180.509 558.094 180.509C558.79 180.509 559.346 180.364 559.763 180.075C560.179 179.782 560.388 179.424 560.388 179.003C560.388 178.662 560.26 178.375 560.004 178.143C559.753 177.911 559.367 177.736 558.847 177.618L557 177.213C555.982 176.981 555.229 176.612 554.741 176.105C554.259 175.598 554.017 174.957 554.017 174.18C554.017 173.536 554.197 172.973 554.557 172.49C554.917 172.007 555.414 171.631 556.048 171.361C556.683 171.086 557.41 170.949 558.229 170.949C559.408 170.949 560.336 171.205 561.013 171.716C561.69 172.223 562.137 172.902 562.355 173.754ZM569.995 171.091V172.795H564.037V171.091H569.995ZM565.635 168.477H567.758V178.797C567.758 179.209 567.82 179.519 567.943 179.727C568.066 179.931 568.225 180.071 568.419 180.146C568.618 180.217 568.833 180.253 569.065 180.253C569.235 180.253 569.385 180.241 569.512 180.217C569.64 180.194 569.74 180.175 569.811 180.161L570.194 181.915C570.071 181.962 569.896 182.009 569.669 182.057C569.441 182.109 569.157 182.137 568.816 182.142C568.258 182.152 567.737 182.052 567.254 181.844C566.771 181.635 566.38 181.313 566.082 180.878C565.784 180.442 565.635 179.895 565.635 179.237V168.477ZM579.255 177.476V171.091H581.386V182H579.298V180.111H579.184C578.933 180.693 578.531 181.179 577.977 181.567C577.427 181.95 576.743 182.142 575.924 182.142C575.223 182.142 574.603 181.988 574.063 181.68C573.528 181.368 573.107 180.906 572.799 180.295C572.496 179.685 572.344 178.929 572.344 178.03V171.091H574.468V177.774C574.468 178.518 574.674 179.109 575.086 179.55C575.498 179.99 576.033 180.21 576.691 180.21C577.089 180.21 577.484 180.111 577.877 179.912C578.275 179.713 578.604 179.412 578.864 179.01C579.129 178.607 579.26 178.096 579.255 177.476ZM588.323 182.213C587.442 182.213 586.656 181.988 585.965 181.538C585.278 181.084 584.739 180.437 584.346 179.599C583.957 178.757 583.763 177.746 583.763 176.567C583.763 175.388 583.96 174.379 584.353 173.541C584.75 172.703 585.295 172.062 585.986 171.616C586.677 171.171 587.461 170.949 588.337 170.949C589.014 170.949 589.559 171.062 589.971 171.29C590.387 171.512 590.709 171.773 590.936 172.071C591.168 172.369 591.348 172.632 591.476 172.859H591.604V167.455H593.728V182H591.654V180.303H591.476C591.348 180.535 591.164 180.8 590.922 181.098C590.685 181.396 590.359 181.657 589.942 181.879C589.525 182.102 588.986 182.213 588.323 182.213ZM588.792 180.402C589.402 180.402 589.918 180.241 590.34 179.919C590.766 179.592 591.088 179.14 591.306 178.562C591.528 177.985 591.64 177.312 591.64 176.545C591.64 175.788 591.531 175.125 591.313 174.557C591.095 173.989 590.775 173.546 590.354 173.229C589.933 172.911 589.412 172.753 588.792 172.753C588.152 172.753 587.62 172.919 587.194 173.25C586.767 173.581 586.445 174.034 586.228 174.607C586.015 175.179 585.908 175.826 585.908 176.545C585.908 177.275 586.017 177.93 586.235 178.513C586.453 179.095 586.775 179.557 587.201 179.898C587.632 180.234 588.162 180.402 588.792 180.402ZM601.46 182.22C600.385 182.22 599.46 181.991 598.683 181.531C597.911 181.067 597.315 180.416 596.893 179.578C596.477 178.735 596.268 177.748 596.268 176.616C596.268 175.499 596.477 174.514 596.893 173.662C597.315 172.81 597.902 172.144 598.655 171.666C599.412 171.188 600.298 170.949 601.311 170.949C601.927 170.949 602.523 171.051 603.101 171.254C603.679 171.458 604.197 171.777 604.656 172.213C605.116 172.649 605.478 173.214 605.743 173.911C606.008 174.602 606.141 175.442 606.141 176.432V177.185H597.469V175.594H604.06C604.06 175.035 603.946 174.54 603.719 174.109C603.491 173.674 603.172 173.33 602.76 173.08C602.353 172.829 601.875 172.703 601.325 172.703C600.729 172.703 600.208 172.85 599.763 173.143C599.322 173.432 598.982 173.811 598.74 174.28C598.503 174.744 598.385 175.248 598.385 175.793V177.036C598.385 177.765 598.513 178.385 598.768 178.896C599.029 179.408 599.391 179.798 599.855 180.068C600.319 180.333 600.861 180.466 601.482 180.466C601.884 180.466 602.251 180.409 602.582 180.295C602.914 180.177 603.2 180.002 603.442 179.77C603.683 179.538 603.868 179.251 603.996 178.911L606.006 179.273C605.845 179.865 605.556 180.383 605.139 180.828C604.727 181.268 604.209 181.612 603.584 181.858C602.964 182.099 602.256 182.22 601.46 182.22ZM610.62 175.523V182H608.497V171.091H610.535V172.866H610.67C610.921 172.289 611.314 171.825 611.849 171.474C612.389 171.124 613.068 170.949 613.887 170.949C614.631 170.949 615.282 171.105 615.841 171.418C616.399 171.725 616.833 172.185 617.14 172.795C617.448 173.406 617.602 174.161 617.602 175.061V182H615.478V175.317C615.478 174.526 615.272 173.908 614.86 173.463C614.449 173.013 613.883 172.788 613.163 172.788C612.671 172.788 612.233 172.895 611.849 173.108C611.47 173.321 611.17 173.634 610.947 174.045C610.729 174.453 610.62 174.945 610.62 175.523ZM625.542 171.091V172.795H619.583V171.091H625.542ZM621.181 168.477H623.305V178.797C623.305 179.209 623.367 179.519 623.49 179.727C623.613 179.931 623.771 180.071 623.966 180.146C624.164 180.217 624.38 180.253 624.612 180.253C624.782 180.253 624.931 180.241 625.059 180.217C625.187 180.194 625.287 180.175 625.358 180.161L625.741 181.915C625.618 181.962 625.443 182.009 625.216 182.057C624.988 182.109 624.704 182.137 624.363 182.142C623.805 182.152 623.284 182.052 622.801 181.844C622.318 181.635 621.927 181.313 621.629 180.878C621.331 180.442 621.181 179.895 621.181 179.237V168.477ZM635.308 175.523V182H633.184V167.455H635.279V172.866H635.414C635.67 172.279 636.061 171.813 636.586 171.467C637.112 171.122 637.798 170.949 638.646 170.949C639.394 170.949 640.047 171.103 640.606 171.411C641.17 171.718 641.605 172.178 641.913 172.788C642.225 173.394 642.382 174.152 642.382 175.061V182H640.258V175.317C640.258 174.517 640.052 173.896 639.64 173.456C639.228 173.011 638.655 172.788 637.922 172.788C637.42 172.788 636.97 172.895 636.572 173.108C636.179 173.321 635.869 173.634 635.642 174.045C635.419 174.453 635.308 174.945 635.308 175.523ZM649.917 182.22C648.842 182.22 647.917 181.991 647.14 181.531C646.368 181.067 645.772 180.416 645.35 179.578C644.934 178.735 644.725 177.748 644.725 176.616C644.725 175.499 644.934 174.514 645.35 173.662C645.772 172.81 646.359 172.144 647.112 171.666C647.869 171.188 648.755 170.949 649.768 170.949C650.384 170.949 650.98 171.051 651.558 171.254C652.136 171.458 652.654 171.777 653.113 172.213C653.573 172.649 653.935 173.214 654.2 173.911C654.465 174.602 654.598 175.442 654.598 176.432V177.185H645.926V175.594H652.517C652.517 175.035 652.403 174.54 652.176 174.109C651.949 173.674 651.629 173.33 651.217 173.08C650.81 172.829 650.332 172.703 649.782 172.703C649.186 172.703 648.665 172.85 648.22 173.143C647.779 173.432 647.439 173.811 647.197 174.28C646.96 174.744 646.842 175.248 646.842 175.793V177.036C646.842 177.765 646.97 178.385 647.225 178.896C647.486 179.408 647.848 179.798 648.312 180.068C648.776 180.333 649.318 180.466 649.939 180.466C650.341 180.466 650.708 180.409 651.039 180.295C651.371 180.177 651.657 180.002 651.899 179.77C652.14 179.538 652.325 179.251 652.453 178.911L654.463 179.273C654.302 179.865 654.013 180.383 653.596 180.828C653.184 181.268 652.666 181.612 652.041 181.858C651.421 182.099 650.713 182.22 649.917 182.22ZM659.077 167.455V182H656.954V167.455H659.077ZM661.934 186.091V171.091H664.008V172.859H664.186C664.309 172.632 664.486 172.369 664.718 172.071C664.95 171.773 665.272 171.512 665.684 171.29C666.096 171.062 666.641 170.949 667.318 170.949C668.199 170.949 668.984 171.171 669.676 171.616C670.367 172.062 670.909 172.703 671.302 173.541C671.7 174.379 671.899 175.388 671.899 176.567C671.899 177.746 671.702 178.757 671.309 179.599C670.916 180.437 670.377 181.084 669.69 181.538C669.003 181.988 668.22 182.213 667.339 182.213C666.676 182.213 666.134 182.102 665.713 181.879C665.296 181.657 664.969 181.396 664.733 181.098C664.496 180.8 664.314 180.535 664.186 180.303H664.058V186.091H661.934ZM664.015 176.545C664.015 177.312 664.127 177.985 664.349 178.562C664.572 179.14 664.894 179.592 665.315 179.919C665.736 180.241 666.252 180.402 666.863 180.402C667.498 180.402 668.028 180.234 668.454 179.898C668.88 179.557 669.202 179.095 669.42 178.513C669.643 177.93 669.754 177.275 669.754 176.545C669.754 175.826 669.645 175.179 669.427 174.607C669.214 174.034 668.892 173.581 668.461 173.25C668.035 172.919 667.502 172.753 666.863 172.753C666.248 172.753 665.727 172.911 665.301 173.229C664.879 173.546 664.56 173.989 664.342 174.557C664.124 175.125 664.015 175.788 664.015 176.545ZM506.142 203.011L506.036 203.786C505.965 204.354 505.844 204.946 505.674 205.561C505.508 206.181 505.335 206.757 505.155 207.287C504.98 207.817 504.836 208.239 504.722 208.551H503.216C503.278 208.258 503.363 207.86 503.472 207.358C503.581 206.861 503.687 206.304 503.792 205.689C503.896 205.073 503.974 204.446 504.026 203.807L504.097 203.011H506.142ZM517.375 205.241C516.683 205.241 516.058 205.114 515.5 204.858C514.941 204.598 514.498 204.221 514.172 203.729C513.85 203.236 513.689 202.633 513.689 201.918C513.689 201.302 513.807 200.795 514.044 200.398C514.28 200 514.6 199.685 515.002 199.453C515.405 199.221 515.855 199.046 516.352 198.928C516.849 198.809 517.356 198.719 517.872 198.658C518.525 198.582 519.056 198.52 519.463 198.473C519.87 198.421 520.166 198.338 520.35 198.224C520.535 198.111 520.627 197.926 520.627 197.67V197.621C520.627 197 520.452 196.52 520.102 196.179C519.756 195.838 519.24 195.668 518.554 195.668C517.839 195.668 517.275 195.826 516.863 196.143C516.456 196.456 516.174 196.804 516.018 197.188L514.022 196.733C514.259 196.07 514.605 195.535 515.059 195.128C515.519 194.716 516.047 194.418 516.643 194.233C517.24 194.044 517.867 193.949 518.525 193.949C518.961 193.949 519.422 194.001 519.91 194.105C520.403 194.205 520.862 194.389 521.288 194.659C521.719 194.929 522.072 195.315 522.346 195.817C522.621 196.314 522.758 196.96 522.758 197.756V205H520.684V203.509H520.599C520.462 203.783 520.256 204.053 519.981 204.318C519.707 204.583 519.354 204.804 518.923 204.979C518.492 205.154 517.976 205.241 517.375 205.241ZM517.836 203.537C518.423 203.537 518.925 203.421 519.342 203.189C519.763 202.957 520.083 202.654 520.301 202.28C520.523 201.901 520.635 201.496 520.635 201.065V199.659C520.559 199.735 520.412 199.806 520.194 199.872C519.981 199.934 519.737 199.988 519.463 200.036C519.188 200.078 518.921 200.118 518.66 200.156C518.4 200.189 518.182 200.218 518.007 200.241C517.595 200.294 517.218 200.381 516.877 200.504C516.541 200.627 516.271 200.805 516.068 201.037C515.869 201.264 515.77 201.567 515.77 201.946C515.77 202.472 515.964 202.869 516.352 203.139C516.74 203.404 517.235 203.537 517.836 203.537ZM527.71 198.523V205H525.587V194.091H527.625V195.866H527.76C528.011 195.289 528.404 194.825 528.939 194.474C529.479 194.124 530.158 193.949 530.977 193.949C531.721 193.949 532.372 194.105 532.93 194.418C533.489 194.725 533.922 195.185 534.23 195.795C534.538 196.406 534.692 197.161 534.692 198.061V205H532.568V198.317C532.568 197.526 532.362 196.908 531.95 196.463C531.538 196.013 530.973 195.788 530.253 195.788C529.76 195.788 529.322 195.895 528.939 196.108C528.56 196.321 528.259 196.634 528.037 197.045C527.819 197.453 527.71 197.945 527.71 198.523ZM541.624 205.213C540.743 205.213 539.957 204.988 539.266 204.538C538.579 204.084 538.039 203.437 537.646 202.599C537.258 201.757 537.064 200.746 537.064 199.567C537.064 198.388 537.26 197.379 537.653 196.541C538.051 195.703 538.596 195.062 539.287 194.616C539.978 194.171 540.762 193.949 541.638 193.949C542.315 193.949 542.859 194.062 543.271 194.29C543.688 194.512 544.01 194.773 544.237 195.071C544.469 195.369 544.649 195.632 544.777 195.859H544.905V190.455H547.028V205H544.955V203.303H544.777C544.649 203.535 544.464 203.8 544.223 204.098C543.986 204.396 543.66 204.657 543.243 204.879C542.826 205.102 542.286 205.213 541.624 205.213ZM542.092 203.402C542.703 203.402 543.219 203.241 543.641 202.919C544.067 202.592 544.389 202.14 544.607 201.562C544.829 200.985 544.94 200.312 544.94 199.545C544.94 198.788 544.831 198.125 544.614 197.557C544.396 196.989 544.076 196.546 543.655 196.229C543.233 195.911 542.713 195.753 542.092 195.753C541.453 195.753 540.92 195.919 540.494 196.25C540.068 196.581 539.746 197.034 539.528 197.607C539.315 198.179 539.209 198.826 539.209 199.545C539.209 200.275 539.318 200.93 539.536 201.513C539.753 202.095 540.075 202.557 540.501 202.898C540.932 203.234 541.463 203.402 542.092 203.402ZM557.717 205L554.507 194.091H556.702L558.839 202.102H558.946L561.091 194.091H563.286L565.416 202.067H565.523L567.646 194.091H569.841L566.638 205H564.472L562.256 197.124H562.092L559.876 205H557.717ZM576.226 205.22C575.151 205.22 574.225 204.991 573.449 204.531C572.677 204.067 572.08 203.416 571.659 202.578C571.242 201.735 571.034 200.748 571.034 199.616C571.034 198.499 571.242 197.514 571.659 196.662C572.08 195.81 572.668 195.144 573.42 194.666C574.178 194.188 575.063 193.949 576.077 193.949C576.692 193.949 577.289 194.051 577.866 194.254C578.444 194.458 578.963 194.777 579.422 195.213C579.881 195.649 580.243 196.214 580.509 196.911C580.774 197.602 580.906 198.442 580.906 199.432V200.185H572.234V198.594H578.825C578.825 198.035 578.712 197.54 578.484 197.109C578.257 196.674 577.937 196.33 577.526 196.08C577.118 195.829 576.64 195.703 576.091 195.703C575.494 195.703 574.973 195.85 574.528 196.143C574.088 196.432 573.747 196.811 573.506 197.28C573.269 197.744 573.151 198.248 573.151 198.793V200.036C573.151 200.765 573.278 201.385 573.534 201.896C573.795 202.408 574.157 202.798 574.621 203.068C575.085 203.333 575.627 203.466 576.247 203.466C576.65 203.466 577.017 203.409 577.348 203.295C577.679 203.177 577.966 203.002 578.207 202.77C578.449 202.538 578.634 202.251 578.761 201.911L580.771 202.273C580.61 202.865 580.321 203.383 579.905 203.828C579.493 204.268 578.974 204.612 578.349 204.858C577.729 205.099 577.021 205.22 576.226 205.22ZM591.73 205.241C591.039 205.241 590.414 205.114 589.855 204.858C589.296 204.598 588.854 204.221 588.527 203.729C588.205 203.236 588.044 202.633 588.044 201.918C588.044 201.302 588.162 200.795 588.399 200.398C588.636 200 588.955 199.685 589.358 199.453C589.76 199.221 590.21 199.046 590.707 198.928C591.205 198.809 591.711 198.719 592.227 198.658C592.881 198.582 593.411 198.52 593.818 198.473C594.225 198.421 594.521 198.338 594.706 198.224C594.891 198.111 594.983 197.926 594.983 197.67V197.621C594.983 197 594.808 196.52 594.457 196.179C594.112 195.838 593.596 195.668 592.909 195.668C592.194 195.668 591.631 195.826 591.219 196.143C590.812 196.456 590.53 196.804 590.374 197.188L588.378 196.733C588.615 196.07 588.96 195.535 589.415 195.128C589.874 194.716 590.402 194.418 590.999 194.233C591.595 194.044 592.223 193.949 592.881 193.949C593.316 193.949 593.778 194.001 594.266 194.105C594.758 194.205 595.217 194.389 595.643 194.659C596.074 194.929 596.427 195.315 596.702 195.817C596.976 196.314 597.114 196.96 597.114 197.756V205H595.04V203.509H594.955C594.817 203.783 594.611 204.053 594.337 204.318C594.062 204.583 593.709 204.804 593.278 204.979C592.848 205.154 592.331 205.241 591.73 205.241ZM592.192 203.537C592.779 203.537 593.281 203.421 593.697 203.189C594.119 202.957 594.438 202.654 594.656 202.28C594.879 201.901 594.99 201.496 594.99 201.065V199.659C594.914 199.735 594.768 199.806 594.55 199.872C594.337 199.934 594.093 199.988 593.818 200.036C593.544 200.078 593.276 200.118 593.016 200.156C592.755 200.189 592.537 200.218 592.362 200.241C591.95 200.294 591.574 200.381 591.233 200.504C590.897 200.627 590.627 200.805 590.423 201.037C590.224 201.264 590.125 201.567 590.125 201.946C590.125 202.472 590.319 202.869 590.707 203.139C591.096 203.404 591.59 203.537 592.192 203.537ZM599.942 205V194.091H601.995V195.824H602.108C602.307 195.237 602.658 194.775 603.159 194.439C603.666 194.098 604.239 193.928 604.878 193.928C605.011 193.928 605.167 193.932 605.347 193.942C605.532 193.951 605.676 193.963 605.78 193.977V196.009C605.695 195.985 605.543 195.959 605.326 195.93C605.108 195.897 604.89 195.881 604.672 195.881C604.17 195.881 603.723 195.987 603.33 196.2C602.942 196.409 602.634 196.7 602.407 197.074C602.179 197.443 602.066 197.865 602.066 198.338V205H599.942ZM611.929 205.22C610.854 205.22 609.929 204.991 609.152 204.531C608.38 204.067 607.784 203.416 607.362 202.578C606.946 201.735 606.737 200.748 606.737 199.616C606.737 198.499 606.946 197.514 607.362 196.662C607.784 195.81 608.371 195.144 609.124 194.666C609.881 194.188 610.767 193.949 611.78 193.949C612.395 193.949 612.992 194.051 613.57 194.254C614.147 194.458 614.666 194.777 615.125 195.213C615.584 195.649 615.946 196.214 616.212 196.911C616.477 197.602 616.609 198.442 616.609 199.432V200.185H607.937V198.594H614.528C614.528 198.035 614.415 197.54 614.187 197.109C613.96 196.674 613.641 196.33 613.229 196.08C612.821 195.829 612.343 195.703 611.794 195.703C611.197 195.703 610.677 195.85 610.232 196.143C609.791 196.432 609.45 196.811 609.209 197.28C608.972 197.744 608.854 198.248 608.854 198.793V200.036C608.854 200.765 608.982 201.385 609.237 201.896C609.498 202.408 609.86 202.798 610.324 203.068C610.788 203.333 611.33 203.466 611.95 203.466C612.353 203.466 612.72 203.409 613.051 203.295C613.383 203.177 613.669 203.002 613.911 202.77C614.152 202.538 614.337 202.251 614.464 201.911L616.474 202.273C616.313 202.865 616.025 203.383 615.608 203.828C615.196 204.268 614.678 204.612 614.053 204.858C613.432 205.099 612.724 205.22 611.929 205.22ZM626.382 198.523V205H624.259V190.455H626.354V195.866H626.489C626.744 195.279 627.135 194.813 627.661 194.467C628.186 194.122 628.873 193.949 629.72 193.949C630.468 193.949 631.122 194.103 631.68 194.411C632.244 194.718 632.679 195.178 632.987 195.788C633.3 196.394 633.456 197.152 633.456 198.061V205H631.332V198.317C631.332 197.517 631.126 196.896 630.714 196.456C630.303 196.011 629.73 195.788 628.996 195.788C628.494 195.788 628.044 195.895 627.646 196.108C627.253 196.321 626.943 196.634 626.716 197.045C626.493 197.453 626.382 197.945 626.382 198.523ZM640.991 205.22C639.917 205.22 638.991 204.991 638.214 204.531C637.443 204.067 636.846 203.416 636.425 202.578C636.008 201.735 635.8 200.748 635.8 199.616C635.8 198.499 636.008 197.514 636.425 196.662C636.846 195.81 637.433 195.144 638.186 194.666C638.944 194.188 639.829 193.949 640.842 193.949C641.458 193.949 642.054 194.051 642.632 194.254C643.21 194.458 643.728 194.777 644.187 195.213C644.647 195.649 645.009 196.214 645.274 196.911C645.539 197.602 645.672 198.442 645.672 199.432V200.185H637V198.594H643.591C643.591 198.035 643.477 197.54 643.25 197.109C643.023 196.674 642.703 196.33 642.291 196.08C641.884 195.829 641.406 195.703 640.857 195.703C640.26 195.703 639.739 195.85 639.294 196.143C638.854 196.432 638.513 196.811 638.271 197.28C638.035 197.744 637.916 198.248 637.916 198.793V200.036C637.916 200.765 638.044 201.385 638.3 201.896C638.56 202.408 638.922 202.798 639.386 203.068C639.85 203.333 640.393 203.466 641.013 203.466C641.415 203.466 641.782 203.409 642.114 203.295C642.445 203.177 642.732 203.002 642.973 202.77C643.214 202.538 643.399 202.251 643.527 201.911L645.537 202.273C645.376 202.865 645.087 203.383 644.67 203.828C644.259 204.268 643.74 204.612 643.115 204.858C642.495 205.099 641.787 205.22 640.991 205.22ZM648.028 205V194.091H650.081V195.824H650.194C650.393 195.237 650.743 194.775 651.245 194.439C651.752 194.098 652.325 193.928 652.964 193.928C653.097 193.928 653.253 193.932 653.433 193.942C653.618 193.951 653.762 193.963 653.866 193.977V196.009C653.781 195.985 653.629 195.959 653.412 195.93C653.194 195.897 652.976 195.881 652.758 195.881C652.256 195.881 651.809 195.987 651.416 196.2C651.028 196.409 650.72 196.7 650.493 197.074C650.265 197.443 650.152 197.865 650.152 198.338V205H648.028ZM660.015 205.22C658.94 205.22 658.014 204.991 657.238 204.531C656.466 204.067 655.87 203.416 655.448 202.578C655.031 201.735 654.823 200.748 654.823 199.616C654.823 198.499 655.031 197.514 655.448 196.662C655.87 195.81 656.457 195.144 657.21 194.666C657.967 194.188 658.853 193.949 659.866 193.949C660.481 193.949 661.078 194.051 661.656 194.254C662.233 194.458 662.752 194.777 663.211 195.213C663.67 195.649 664.032 196.214 664.298 196.911C664.563 197.602 664.695 198.442 664.695 199.432V200.185H656.023V198.594H662.614C662.614 198.035 662.501 197.54 662.273 197.109C662.046 196.674 661.727 196.33 661.315 196.08C660.907 195.829 660.429 195.703 659.88 195.703C659.283 195.703 658.763 195.85 658.317 196.143C657.877 196.432 657.536 196.811 657.295 197.28C657.058 197.744 656.94 198.248 656.94 198.793V200.036C656.94 200.765 657.067 201.385 657.323 201.896C657.584 202.408 657.946 202.798 658.41 203.068C658.874 203.333 659.416 203.466 660.036 203.466C660.439 203.466 660.806 203.409 661.137 203.295C661.469 203.177 661.755 203.002 661.996 202.77C662.238 202.538 662.423 202.251 662.55 201.911L664.56 202.273C664.399 202.865 664.111 203.383 663.694 203.828C663.282 204.268 662.763 204.612 662.138 204.858C661.518 205.099 660.81 205.22 660.015 205.22ZM677.437 194.091V195.795H671.478V194.091H677.437ZM673.076 191.477H675.2V201.797C675.2 202.209 675.261 202.519 675.384 202.727C675.507 202.931 675.666 203.071 675.86 203.146C676.059 203.217 676.274 203.253 676.506 203.253C676.677 203.253 676.826 203.241 676.954 203.217C677.082 203.194 677.181 203.175 677.252 203.161L677.636 204.915C677.513 204.962 677.337 205.009 677.11 205.057C676.883 205.109 676.599 205.137 676.258 205.142C675.699 205.152 675.178 205.052 674.695 204.844C674.212 204.635 673.822 204.313 673.523 203.878C673.225 203.442 673.076 202.895 673.076 202.237V191.477ZM684.264 205.22C683.241 205.22 682.349 204.986 681.586 204.517C680.824 204.048 680.232 203.393 679.811 202.55C679.389 201.707 679.179 200.722 679.179 199.595C679.179 198.464 679.389 197.474 679.811 196.626C680.232 195.779 680.824 195.121 681.586 194.652C682.349 194.183 683.241 193.949 684.264 193.949C685.287 193.949 686.179 194.183 686.941 194.652C687.704 195.121 688.296 195.779 688.717 196.626C689.138 197.474 689.349 198.464 689.349 199.595C689.349 200.722 689.138 201.707 688.717 202.55C688.296 203.393 687.704 204.048 686.941 204.517C686.179 204.986 685.287 205.22 684.264 205.22ZM684.271 203.438C684.934 203.438 685.483 203.262 685.919 202.912C686.354 202.562 686.676 202.095 686.885 201.513C687.098 200.93 687.204 200.289 687.204 199.588C687.204 198.892 687.098 198.253 686.885 197.67C686.676 197.083 686.354 196.612 685.919 196.257C685.483 195.902 684.934 195.724 684.271 195.724C683.603 195.724 683.049 195.902 682.609 196.257C682.173 196.612 681.849 197.083 681.636 197.67C681.428 198.253 681.324 198.892 681.324 199.588C681.324 200.289 681.428 200.93 681.636 201.513C681.849 202.095 682.173 202.562 682.609 202.912C683.049 203.262 683.603 203.438 684.271 203.438ZM442.681 221.523V228H440.557V213.455H442.653V218.866H442.787C443.043 218.279 443.434 217.813 443.959 217.467C444.485 217.122 445.171 216.949 446.019 216.949C446.767 216.949 447.421 217.103 447.979 217.411C448.543 217.718 448.978 218.178 449.286 218.788C449.599 219.394 449.755 220.152 449.755 221.061V228H447.631V221.317C447.631 220.517 447.425 219.896 447.013 219.456C446.601 219.011 446.028 218.788 445.295 218.788C444.793 218.788 444.343 218.895 443.945 219.108C443.552 219.321 443.242 219.634 443.015 220.045C442.792 220.453 442.681 220.945 442.681 221.523ZM457.29 228.22C456.215 228.22 455.29 227.991 454.513 227.531C453.742 227.067 453.145 226.416 452.724 225.578C452.307 224.735 452.099 223.748 452.099 222.616C452.099 221.499 452.307 220.514 452.724 219.662C453.145 218.81 453.732 218.144 454.485 217.666C455.242 217.188 456.128 216.949 457.141 216.949C457.757 216.949 458.353 217.051 458.931 217.254C459.509 217.458 460.027 217.777 460.486 218.213C460.946 218.649 461.308 219.214 461.573 219.911C461.838 220.602 461.971 221.442 461.971 222.432V223.185H453.299V221.594H459.89C459.89 221.035 459.776 220.54 459.549 220.109C459.322 219.674 459.002 219.33 458.59 219.08C458.183 218.829 457.705 218.703 457.155 218.703C456.559 218.703 456.038 218.85 455.593 219.143C455.153 219.432 454.812 219.811 454.57 220.28C454.333 220.744 454.215 221.248 454.215 221.793V223.036C454.215 223.765 454.343 224.385 454.599 224.896C454.859 225.408 455.221 225.798 455.685 226.068C456.149 226.333 456.691 226.466 457.312 226.466C457.714 226.466 458.081 226.409 458.412 226.295C458.744 226.177 459.03 226.002 459.272 225.77C459.513 225.538 459.698 225.251 459.826 224.911L461.836 225.273C461.675 225.865 461.386 226.383 460.969 226.828C460.557 227.268 460.039 227.612 459.414 227.858C458.794 228.099 458.086 228.22 457.29 228.22ZM466.45 213.455V228H464.327V213.455H466.45ZM469.307 232.091V217.091H471.381V218.859H471.559C471.682 218.632 471.859 218.369 472.091 218.071C472.323 217.773 472.645 217.512 473.057 217.29C473.469 217.062 474.014 216.949 474.691 216.949C475.572 216.949 476.358 217.171 477.049 217.616C477.74 218.062 478.282 218.703 478.675 219.541C479.073 220.379 479.272 221.388 479.272 222.567C479.272 223.746 479.075 224.757 478.682 225.599C478.289 226.437 477.75 227.084 477.063 227.538C476.376 227.988 475.593 228.213 474.712 228.213C474.049 228.213 473.507 228.102 473.086 227.879C472.669 227.657 472.342 227.396 472.106 227.098C471.869 226.8 471.687 226.535 471.559 226.303H471.431V232.091H469.307ZM471.388 222.545C471.388 223.312 471.5 223.985 471.722 224.562C471.945 225.14 472.267 225.592 472.688 225.919C473.109 226.241 473.626 226.402 474.236 226.402C474.871 226.402 475.401 226.234 475.827 225.898C476.253 225.557 476.575 225.095 476.793 224.513C477.016 223.93 477.127 223.275 477.127 222.545C477.127 221.826 477.018 221.179 476.8 220.607C476.587 220.034 476.265 219.581 475.834 219.25C475.408 218.919 474.876 218.753 474.236 218.753C473.621 218.753 473.1 218.911 472.674 219.229C472.252 219.546 471.933 219.989 471.715 220.557C471.497 221.125 471.388 221.788 471.388 222.545ZM488.286 232.091C487.969 232.091 487.68 232.065 487.42 232.013C487.16 231.965 486.965 231.913 486.838 231.857L487.349 230.116C487.737 230.221 488.083 230.266 488.386 230.251C488.689 230.237 488.956 230.124 489.188 229.911C489.425 229.697 489.633 229.349 489.813 228.866L490.076 228.142L486.085 217.091H488.357L491.12 225.557H491.234L493.997 217.091H496.276L491.781 229.456C491.572 230.024 491.307 230.505 490.985 230.898C490.663 231.295 490.28 231.594 489.835 231.793C489.39 231.991 488.874 232.091 488.286 232.091ZM502.496 228.22C501.474 228.22 500.581 227.986 499.819 227.517C499.056 227.048 498.465 226.393 498.043 225.55C497.622 224.707 497.411 223.722 497.411 222.595C497.411 221.464 497.622 220.474 498.043 219.626C498.465 218.779 499.056 218.121 499.819 217.652C500.581 217.183 501.474 216.949 502.496 216.949C503.519 216.949 504.412 217.183 505.174 217.652C505.936 218.121 506.528 218.779 506.949 219.626C507.371 220.474 507.581 221.464 507.581 222.595C507.581 223.722 507.371 224.707 506.949 225.55C506.528 226.393 505.936 227.048 505.174 227.517C504.412 227.986 503.519 228.22 502.496 228.22ZM502.503 226.438C503.166 226.438 503.715 226.262 504.151 225.912C504.587 225.562 504.909 225.095 505.117 224.513C505.33 223.93 505.437 223.289 505.437 222.588C505.437 221.892 505.33 221.253 505.117 220.67C504.909 220.083 504.587 219.612 504.151 219.257C503.715 218.902 503.166 218.724 502.503 218.724C501.836 218.724 501.282 218.902 500.841 219.257C500.406 219.612 500.081 220.083 499.868 220.67C499.66 221.253 499.556 221.892 499.556 222.588C499.556 223.289 499.66 223.93 499.868 224.513C500.081 225.095 500.406 225.562 500.841 225.912C501.282 226.262 501.836 226.438 502.503 226.438ZM516.862 223.476V217.091H518.993V228H516.905V226.111H516.791C516.54 226.693 516.138 227.179 515.584 227.567C515.035 227.95 514.351 228.142 513.531 228.142C512.831 228.142 512.21 227.988 511.671 227.68C511.136 227.368 510.714 226.906 510.406 226.295C510.103 225.685 509.952 224.929 509.952 224.03V217.091H512.075V223.774C512.075 224.518 512.281 225.109 512.693 225.55C513.105 225.99 513.64 226.21 514.298 226.21C514.696 226.21 515.092 226.111 515.485 225.912C515.882 225.713 516.211 225.412 516.472 225.01C516.737 224.607 516.867 224.096 516.862 223.476ZM535.314 219.754L533.389 220.095C533.309 219.849 533.181 219.615 533.006 219.392C532.835 219.17 532.603 218.987 532.31 218.845C532.016 218.703 531.649 218.632 531.209 218.632C530.608 218.632 530.106 218.767 529.703 219.037C529.301 219.302 529.1 219.645 529.1 220.067C529.1 220.431 529.235 220.725 529.504 220.947C529.774 221.17 530.21 221.352 530.811 221.494L532.544 221.892C533.548 222.124 534.296 222.482 534.789 222.964C535.281 223.447 535.527 224.075 535.527 224.847C535.527 225.5 535.338 226.082 534.959 226.594C534.585 227.1 534.062 227.498 533.389 227.787C532.722 228.076 531.948 228.22 531.067 228.22C529.845 228.22 528.849 227.96 528.077 227.439C527.305 226.913 526.832 226.168 526.656 225.202L528.709 224.889C528.837 225.424 529.1 225.829 529.497 226.104C529.895 226.374 530.414 226.509 531.053 226.509C531.749 226.509 532.305 226.364 532.722 226.075C533.138 225.782 533.347 225.424 533.347 225.003C533.347 224.662 533.219 224.375 532.963 224.143C532.712 223.911 532.326 223.736 531.806 223.618L529.959 223.213C528.941 222.981 528.188 222.612 527.7 222.105C527.218 221.598 526.976 220.957 526.976 220.18C526.976 219.536 527.156 218.973 527.516 218.49C527.876 218.007 528.373 217.631 529.007 217.361C529.642 217.086 530.369 216.949 531.188 216.949C532.367 216.949 533.295 217.205 533.972 217.716C534.649 218.223 535.096 218.902 535.314 219.754ZM542.954 217.091V218.795H536.996V217.091H542.954ZM538.594 214.477H540.717V224.797C540.717 225.209 540.779 225.519 540.902 225.727C541.025 225.931 541.184 226.071 541.378 226.146C541.577 226.217 541.792 226.253 542.024 226.253C542.194 226.253 542.344 226.241 542.471 226.217C542.599 226.194 542.699 226.175 542.77 226.161L543.153 227.915C543.03 227.962 542.855 228.009 542.628 228.057C542.4 228.109 542.116 228.137 541.775 228.142C541.217 228.152 540.696 228.052 540.213 227.844C539.73 227.635 539.339 227.313 539.041 226.878C538.743 226.442 538.594 225.895 538.594 225.237V214.477ZM548.478 228.241C547.787 228.241 547.162 228.114 546.603 227.858C546.044 227.598 545.602 227.221 545.275 226.729C544.953 226.236 544.792 225.633 544.792 224.918C544.792 224.302 544.91 223.795 545.147 223.398C545.384 223 545.704 222.685 546.106 222.453C546.508 222.221 546.958 222.046 547.455 221.928C547.953 221.809 548.459 221.719 548.975 221.658C549.629 221.582 550.159 221.52 550.566 221.473C550.973 221.421 551.269 221.338 551.454 221.224C551.639 221.111 551.731 220.926 551.731 220.67V220.621C551.731 220 551.556 219.52 551.205 219.179C550.86 218.838 550.344 218.668 549.657 218.668C548.942 218.668 548.379 218.826 547.967 219.143C547.56 219.456 547.278 219.804 547.122 220.188L545.126 219.733C545.363 219.07 545.708 218.535 546.163 218.128C546.622 217.716 547.15 217.418 547.747 217.233C548.343 217.044 548.971 216.949 549.629 216.949C550.064 216.949 550.526 217.001 551.014 217.105C551.506 217.205 551.965 217.389 552.392 217.659C552.822 217.929 553.175 218.315 553.45 218.817C553.724 219.314 553.862 219.96 553.862 220.756V228H551.788V226.509H551.703C551.565 226.783 551.359 227.053 551.085 227.318C550.81 227.583 550.457 227.804 550.026 227.979C549.596 228.154 549.079 228.241 548.478 228.241ZM548.94 226.537C549.527 226.537 550.029 226.421 550.445 226.189C550.867 225.957 551.186 225.654 551.404 225.28C551.627 224.901 551.738 224.496 551.738 224.065V222.659C551.662 222.735 551.516 222.806 551.298 222.872C551.085 222.934 550.841 222.988 550.566 223.036C550.292 223.078 550.024 223.118 549.764 223.156C549.503 223.189 549.285 223.218 549.11 223.241C548.698 223.294 548.322 223.381 547.981 223.504C547.645 223.627 547.375 223.805 547.171 224.037C546.972 224.264 546.873 224.567 546.873 224.946C546.873 225.472 547.067 225.869 547.455 226.139C547.844 226.404 548.338 226.537 548.94 226.537ZM556.69 228V217.091H558.743V218.824H558.856C559.055 218.237 559.406 217.775 559.907 217.439C560.414 217.098 560.987 216.928 561.626 216.928C561.759 216.928 561.915 216.932 562.095 216.942C562.28 216.951 562.424 216.963 562.528 216.977V219.009C562.443 218.985 562.291 218.959 562.074 218.93C561.856 218.897 561.638 218.881 561.42 218.881C560.918 218.881 560.471 218.987 560.078 219.2C559.69 219.409 559.382 219.7 559.155 220.074C558.927 220.443 558.814 220.865 558.814 221.338V228H556.69ZM570.103 217.091V218.795H564.144V217.091H570.103ZM565.742 214.477H567.866V224.797C567.866 225.209 567.927 225.519 568.05 225.727C568.173 225.931 568.332 226.071 568.526 226.146C568.725 226.217 568.94 226.253 569.172 226.253C569.343 226.253 569.492 226.241 569.62 226.217C569.748 226.194 569.847 226.175 569.918 226.161L570.302 227.915C570.179 227.962 570.003 228.009 569.776 228.057C569.549 228.109 569.265 228.137 568.924 228.142C568.365 228.152 567.844 228.052 567.361 227.844C566.878 227.635 566.488 227.313 566.189 226.878C565.891 226.442 565.742 225.895 565.742 225.237V214.477ZM579.087 232.091C578.77 232.091 578.481 232.065 578.221 232.013C577.96 231.965 577.766 231.913 577.638 231.857L578.15 230.116C578.538 230.221 578.884 230.266 579.187 230.251C579.49 230.237 579.757 230.124 579.989 229.911C580.226 229.697 580.434 229.349 580.614 228.866L580.877 228.142L576.885 217.091H579.158L581.921 225.557H582.035L584.797 217.091H587.077L582.581 229.456C582.373 230.024 582.108 230.505 581.786 230.898C581.464 231.295 581.081 231.594 580.635 231.793C580.19 231.991 579.674 232.091 579.087 232.091ZM593.297 228.22C592.274 228.22 591.382 227.986 590.619 227.517C589.857 227.048 589.265 226.393 588.844 225.55C588.423 224.707 588.212 223.722 588.212 222.595C588.212 221.464 588.423 220.474 588.844 219.626C589.265 218.779 589.857 218.121 590.619 217.652C591.382 217.183 592.274 216.949 593.297 216.949C594.32 216.949 595.212 217.183 595.975 217.652C596.737 218.121 597.329 218.779 597.75 219.626C598.172 220.474 598.382 221.464 598.382 222.595C598.382 223.722 598.172 224.707 597.75 225.55C597.329 226.393 596.737 227.048 595.975 227.517C595.212 227.986 594.32 228.22 593.297 228.22ZM593.304 226.438C593.967 226.438 594.516 226.262 594.952 225.912C595.387 225.562 595.709 225.095 595.918 224.513C596.131 223.93 596.237 223.289 596.237 222.588C596.237 221.892 596.131 221.253 595.918 220.67C595.709 220.083 595.387 219.612 594.952 219.257C594.516 218.902 593.967 218.724 593.304 218.724C592.637 218.724 592.083 218.902 591.642 219.257C591.207 219.612 590.882 220.083 590.669 220.67C590.461 221.253 590.357 221.892 590.357 222.588C590.357 223.289 590.461 223.93 590.669 224.513C590.882 225.095 591.207 225.562 591.642 225.912C592.083 226.262 592.637 226.438 593.304 226.438ZM607.663 223.476V217.091H609.794V228H607.706V226.111H607.592C607.341 226.693 606.939 227.179 606.385 227.567C605.836 227.95 605.151 228.142 604.332 228.142C603.631 228.142 603.011 227.988 602.471 227.68C601.936 227.368 601.515 226.906 601.207 226.295C600.904 225.685 600.753 224.929 600.753 224.03V217.091H602.876V223.774C602.876 224.518 603.082 225.109 603.494 225.55C603.906 225.99 604.441 226.21 605.099 226.21C605.497 226.21 605.892 226.111 606.285 225.912C606.683 225.713 607.012 225.412 607.273 225.01C607.538 224.607 607.668 224.096 607.663 223.476ZM612.647 228V217.091H614.7V218.824H614.813C615.012 218.237 615.363 217.775 615.865 217.439C616.371 217.098 616.944 216.928 617.583 216.928C617.716 216.928 617.872 216.932 618.052 216.942C618.237 216.951 618.381 216.963 618.485 216.977V219.009C618.4 218.985 618.249 218.959 618.031 218.93C617.813 218.897 617.595 218.881 617.377 218.881C616.875 218.881 616.428 218.987 616.035 219.2C615.647 219.409 615.339 219.7 615.112 220.074C614.884 220.443 614.771 220.865 614.771 221.338V228H612.647ZM633.791 219.754L631.866 220.095C631.785 219.849 631.658 219.615 631.482 219.392C631.312 219.17 631.08 218.987 630.786 218.845C630.493 218.703 630.126 218.632 629.686 218.632C629.084 218.632 628.582 218.767 628.18 219.037C627.777 219.302 627.576 219.645 627.576 220.067C627.576 220.431 627.711 220.725 627.981 220.947C628.251 221.17 628.686 221.352 629.288 221.494L631.021 221.892C632.025 222.124 632.773 222.482 633.265 222.964C633.758 223.447 634.004 224.075 634.004 224.847C634.004 225.5 633.814 226.082 633.436 226.594C633.061 227.1 632.538 227.498 631.866 227.787C631.198 228.076 630.424 228.22 629.543 228.22C628.322 228.22 627.325 227.96 626.553 227.439C625.782 226.913 625.308 226.168 625.133 225.202L627.186 224.889C627.313 225.424 627.576 225.829 627.974 226.104C628.372 226.374 628.89 226.509 629.529 226.509C630.225 226.509 630.782 226.364 631.198 226.075C631.615 225.782 631.823 225.424 631.823 225.003C631.823 224.662 631.695 224.375 631.44 224.143C631.189 223.911 630.803 223.736 630.282 223.618L628.436 223.213C627.418 222.981 626.665 222.612 626.177 222.105C625.694 221.598 625.453 220.957 625.453 220.18C625.453 219.536 625.633 218.973 625.992 218.49C626.352 218.007 626.849 217.631 627.484 217.361C628.118 217.086 628.845 216.949 629.664 216.949C630.843 216.949 631.771 217.205 632.448 217.716C633.125 218.223 633.573 218.902 633.791 219.754ZM641.431 217.091V218.795H635.472V217.091H641.431ZM637.07 214.477H639.194V224.797C639.194 225.209 639.255 225.519 639.378 225.727C639.501 225.931 639.66 226.071 639.854 226.146C640.053 226.217 640.269 226.253 640.501 226.253C640.671 226.253 640.82 226.241 640.948 226.217C641.076 226.194 641.175 226.175 641.246 226.161L641.63 227.915C641.507 227.962 641.331 228.009 641.104 228.057C640.877 228.109 640.593 228.137 640.252 228.142C639.693 228.152 639.172 228.052 638.689 227.844C638.206 227.635 637.816 227.313 637.518 226.878C637.219 226.442 637.07 225.895 637.07 225.237V214.477ZM650.691 223.476V217.091H652.821V228H650.733V226.111H650.619C650.369 226.693 649.966 227.179 649.412 227.567C648.863 227.95 648.179 228.142 647.36 228.142C646.659 228.142 646.039 227.988 645.499 227.68C644.964 227.368 644.542 226.906 644.235 226.295C643.932 225.685 643.78 224.929 643.78 224.03V217.091H645.904V223.774C645.904 224.518 646.11 225.109 646.521 225.55C646.933 225.99 647.468 226.21 648.127 226.21C648.524 226.21 648.92 226.111 649.313 225.912C649.71 225.713 650.039 225.412 650.3 225.01C650.565 224.607 650.695 224.096 650.691 223.476ZM659.758 228.213C658.878 228.213 658.092 227.988 657.4 227.538C656.714 227.084 656.174 226.437 655.781 225.599C655.393 224.757 655.199 223.746 655.199 222.567C655.199 221.388 655.395 220.379 655.788 219.541C656.186 218.703 656.73 218.062 657.422 217.616C658.113 217.171 658.897 216.949 659.773 216.949C660.45 216.949 660.994 217.062 661.406 217.29C661.823 217.512 662.145 217.773 662.372 218.071C662.604 218.369 662.784 218.632 662.912 218.859H663.04V213.455H665.163V228H663.089V226.303H662.912C662.784 226.535 662.599 226.8 662.358 227.098C662.121 227.396 661.794 227.657 661.378 227.879C660.961 228.102 660.421 228.213 659.758 228.213ZM660.227 226.402C660.838 226.402 661.354 226.241 661.775 225.919C662.202 225.592 662.523 225.14 662.741 224.562C662.964 223.985 663.075 223.312 663.075 222.545C663.075 221.788 662.966 221.125 662.748 220.557C662.531 219.989 662.211 219.546 661.79 219.229C661.368 218.911 660.847 218.753 660.227 218.753C659.588 218.753 659.055 218.919 658.629 219.25C658.203 219.581 657.881 220.034 657.663 220.607C657.45 221.179 657.344 221.826 657.344 222.545C657.344 223.275 657.452 223.93 657.67 224.513C657.888 225.095 658.21 225.557 658.636 225.898C659.067 226.234 659.597 226.402 660.227 226.402ZM672.896 228.22C671.821 228.22 670.895 227.991 670.119 227.531C669.347 227.067 668.75 226.416 668.329 225.578C667.912 224.735 667.704 223.748 667.704 222.616C667.704 221.499 667.912 220.514 668.329 219.662C668.75 218.81 669.338 218.144 670.09 217.666C670.848 217.188 671.733 216.949 672.747 216.949C673.362 216.949 673.959 217.051 674.536 217.254C675.114 217.458 675.633 217.777 676.092 218.213C676.551 218.649 676.913 219.214 677.178 219.911C677.444 220.602 677.576 221.442 677.576 222.432V223.185H668.904V221.594H675.495C675.495 221.035 675.382 220.54 675.154 220.109C674.927 219.674 674.607 219.33 674.195 219.08C673.788 218.829 673.31 218.703 672.761 218.703C672.164 218.703 671.643 218.85 671.198 219.143C670.758 219.432 670.417 219.811 670.176 220.28C669.939 220.744 669.82 221.248 669.82 221.793V223.036C669.82 223.765 669.948 224.385 670.204 224.896C670.464 225.408 670.827 225.798 671.291 226.068C671.755 226.333 672.297 226.466 672.917 226.466C673.32 226.466 673.686 226.409 674.018 226.295C674.349 226.177 674.636 226.002 674.877 225.77C675.119 225.538 675.303 225.251 675.431 224.911L677.441 225.273C677.28 225.865 676.991 226.383 676.575 226.828C676.163 227.268 675.644 227.612 675.019 227.858C674.399 228.099 673.691 228.22 672.896 228.22ZM682.056 221.523V228H679.932V217.091H681.971V218.866H682.106C682.357 218.289 682.75 217.825 683.285 217.474C683.824 217.124 684.504 216.949 685.323 216.949C686.066 216.949 686.717 217.105 687.276 217.418C687.835 217.725 688.268 218.185 688.576 218.795C688.884 219.406 689.037 220.161 689.037 221.061V228H686.914V221.317C686.914 220.526 686.708 219.908 686.296 219.463C685.884 219.013 685.318 218.788 684.599 218.788C684.106 218.788 683.668 218.895 683.285 219.108C682.906 219.321 682.605 219.634 682.383 220.045C682.165 220.453 682.056 220.945 682.056 221.523ZM696.978 217.091V218.795H691.019V217.091H696.978ZM692.617 214.477H694.741V224.797C694.741 225.209 694.802 225.519 694.925 225.727C695.048 225.931 695.207 226.071 695.401 226.146C695.6 226.217 695.815 226.253 696.047 226.253C696.218 226.253 696.367 226.241 696.495 226.217C696.623 226.194 696.722 226.175 696.793 226.161L697.177 227.915C697.054 227.962 696.878 228.009 696.651 228.057C696.424 228.109 696.14 228.137 695.799 228.142C695.24 228.152 694.719 228.052 694.236 227.844C693.753 227.635 693.363 227.313 693.064 226.878C692.766 226.442 692.617 225.895 692.617 225.237V214.477ZM554.8 236.455V251H552.676V236.455H554.8ZM557.657 251V240.091H559.781V251H557.657ZM558.729 238.408C558.36 238.408 558.043 238.285 557.778 238.038C557.517 237.787 557.387 237.489 557.387 237.143C557.387 236.793 557.517 236.495 557.778 236.249C558.043 235.998 558.36 235.872 558.729 235.872C559.099 235.872 559.414 235.998 559.674 236.249C559.939 236.495 560.072 236.793 560.072 237.143C560.072 237.489 559.939 237.787 559.674 238.038C559.414 238.285 559.099 238.408 558.729 238.408ZM567.829 240.091V241.795H561.664V240.091H567.829ZM563.355 251V238.827C563.355 238.145 563.504 237.579 563.802 237.129C564.1 236.675 564.496 236.336 564.988 236.114C565.481 235.886 566.016 235.773 566.593 235.773C567.02 235.773 567.384 235.808 567.687 235.879C567.99 235.946 568.215 236.007 568.362 236.064L567.865 237.783C567.765 237.754 567.637 237.721 567.481 237.683C567.325 237.641 567.136 237.619 566.913 237.619C566.397 237.619 566.028 237.747 565.805 238.003C565.587 238.259 565.478 238.628 565.478 239.111V251H563.355ZM574.292 251.22C573.217 251.22 572.292 250.991 571.515 250.531C570.743 250.067 570.147 249.416 569.725 248.578C569.309 247.735 569.1 246.748 569.1 245.616C569.1 244.499 569.309 243.514 569.725 242.662C570.147 241.81 570.734 241.144 571.487 240.666C572.244 240.188 573.13 239.949 574.143 239.949C574.759 239.949 575.355 240.051 575.933 240.254C576.511 240.458 577.029 240.777 577.488 241.213C577.948 241.649 578.31 242.214 578.575 242.911C578.84 243.602 578.973 244.442 578.973 245.432V246.185H570.301V244.594H576.892C576.892 244.035 576.778 243.54 576.551 243.109C576.324 242.674 576.004 242.33 575.592 242.08C575.185 241.829 574.707 241.703 574.157 241.703C573.561 241.703 573.04 241.85 572.595 242.143C572.154 242.432 571.814 242.811 571.572 243.28C571.335 243.744 571.217 244.248 571.217 244.793V246.036C571.217 246.765 571.345 247.385 571.6 247.896C571.861 248.408 572.223 248.798 572.687 249.068C573.151 249.333 573.693 249.466 574.314 249.466C574.716 249.466 575.083 249.409 575.414 249.295C575.746 249.177 576.032 249.002 576.274 248.77C576.515 248.538 576.7 248.251 576.828 247.911L578.838 248.273C578.677 248.865 578.388 249.383 577.971 249.828C577.559 250.268 577.041 250.612 576.416 250.858C575.796 251.099 575.088 251.22 574.292 251.22ZM584.006 236.455L583.822 246.817H581.854L581.67 236.455H584.006ZM582.842 251.135C582.449 251.135 582.112 250.998 581.833 250.723C581.554 250.444 581.416 250.107 581.421 249.714C581.416 249.326 581.554 248.995 581.833 248.72C582.112 248.441 582.449 248.301 582.842 248.301C583.225 248.301 583.557 248.441 583.836 248.72C584.115 248.995 584.257 249.326 584.262 249.714C584.257 249.975 584.189 250.214 584.056 250.432C583.928 250.645 583.758 250.815 583.545 250.943C583.332 251.071 583.097 251.135 582.842 251.135Z" fill="#2D3342"/>
<path d="M452.859 209.318C451.879 209.318 451.039 209.183 450.338 208.913C449.642 208.648 449.088 208.286 448.676 207.827C448.264 207.367 447.997 206.851 447.874 206.278L450.672 205.902C450.757 206.12 450.892 206.323 451.077 206.513C451.261 206.702 451.505 206.854 451.808 206.967C452.116 207.086 452.49 207.145 452.93 207.145C453.589 207.145 454.131 206.984 454.557 206.662C454.988 206.345 455.203 205.812 455.203 205.064V203.068H455.075C454.943 203.371 454.744 203.658 454.479 203.928C454.214 204.197 453.873 204.418 453.456 204.588C453.039 204.759 452.542 204.844 451.964 204.844C451.145 204.844 450.4 204.654 449.727 204.276C449.06 203.892 448.527 203.307 448.129 202.521C447.736 201.731 447.54 200.732 447.54 199.524C447.54 198.288 447.741 197.256 448.143 196.428C448.546 195.599 449.081 194.979 449.749 194.567C450.421 194.155 451.157 193.949 451.957 193.949C452.568 193.949 453.08 194.053 453.491 194.261C453.903 194.465 454.235 194.721 454.486 195.028C454.741 195.331 454.938 195.63 455.075 195.923H455.189V194.091H458.193V205.107C458.193 206.035 457.966 206.811 457.511 207.436C457.057 208.061 456.427 208.53 455.622 208.842C454.822 209.16 453.901 209.318 452.859 209.318ZM452.923 202.571C453.411 202.571 453.823 202.45 454.159 202.209C454.5 201.963 454.76 201.612 454.94 201.158C455.125 200.698 455.217 200.149 455.217 199.51C455.217 198.871 455.127 198.317 454.947 197.848C454.768 197.375 454.507 197.008 454.166 196.747C453.825 196.487 453.411 196.357 452.923 196.357C452.426 196.357 452.007 196.491 451.666 196.761C451.325 197.027 451.067 197.396 450.892 197.869C450.717 198.343 450.629 198.89 450.629 199.51C450.629 200.14 450.717 200.684 450.892 201.143C451.072 201.598 451.33 201.951 451.666 202.202C452.007 202.448 452.426 202.571 452.923 202.571ZM467.597 200.355V194.091H470.622V205H467.717V203.018H467.604C467.357 203.658 466.948 204.171 466.375 204.56C465.807 204.948 465.113 205.142 464.294 205.142C463.565 205.142 462.923 204.976 462.369 204.645C461.815 204.313 461.382 203.842 461.07 203.232C460.762 202.621 460.606 201.889 460.601 201.037V194.091H463.626V200.497C463.631 201.141 463.804 201.65 464.145 202.024C464.486 202.398 464.943 202.585 465.516 202.585C465.88 202.585 466.221 202.502 466.538 202.337C466.856 202.166 467.111 201.915 467.305 201.584C467.504 201.252 467.601 200.843 467.597 200.355ZM473.042 205V194.091H476.068V205H473.042ZM474.562 192.685C474.112 192.685 473.726 192.536 473.404 192.237C473.087 191.934 472.929 191.572 472.929 191.151C472.929 190.734 473.087 190.376 473.404 190.078C473.726 189.775 474.112 189.624 474.562 189.624C475.012 189.624 475.395 189.775 475.713 190.078C476.035 190.376 476.196 190.734 476.196 191.151C476.196 191.572 476.035 191.934 475.713 192.237C475.395 192.536 475.012 192.685 474.562 192.685ZM482.511 205.178C481.683 205.178 480.932 204.964 480.26 204.538C479.592 204.107 479.062 203.475 478.669 202.642C478.281 201.804 478.087 200.777 478.087 199.56C478.087 198.31 478.288 197.27 478.69 196.442C479.093 195.608 479.628 194.986 480.295 194.574C480.968 194.157 481.704 193.949 482.504 193.949C483.115 193.949 483.624 194.053 484.031 194.261C484.443 194.465 484.775 194.721 485.026 195.028C485.281 195.331 485.475 195.63 485.608 195.923H485.7V190.455H488.719V205H485.736V203.253H485.608C485.466 203.556 485.265 203.857 485.004 204.155C484.749 204.448 484.415 204.692 484.003 204.886C483.596 205.08 483.098 205.178 482.511 205.178ZM483.47 202.77C483.958 202.77 484.37 202.637 484.706 202.372C485.047 202.102 485.307 201.726 485.487 201.243C485.672 200.76 485.764 200.194 485.764 199.545C485.764 198.897 485.674 198.333 485.494 197.855C485.314 197.377 485.054 197.008 484.713 196.747C484.372 196.487 483.958 196.357 483.47 196.357C482.973 196.357 482.554 196.491 482.213 196.761C481.872 197.031 481.614 197.405 481.439 197.884C481.264 198.362 481.176 198.916 481.176 199.545C481.176 200.18 481.264 200.741 481.439 201.229C481.619 201.712 481.877 202.09 482.213 202.365C482.554 202.635 482.973 202.77 483.47 202.77ZM496.178 205.213C495.056 205.213 494.09 204.986 493.28 204.531C492.475 204.072 491.855 203.423 491.419 202.585C490.984 201.742 490.766 200.746 490.766 199.595C490.766 198.473 490.984 197.488 491.419 196.641C491.855 195.793 492.468 195.133 493.259 194.659C494.054 194.186 494.987 193.949 496.057 193.949C496.777 193.949 497.447 194.065 498.067 194.297C498.692 194.524 499.237 194.867 499.701 195.327C500.169 195.786 500.534 196.364 500.794 197.06C501.055 197.751 501.185 198.561 501.185 199.489V200.32H491.973V198.445H498.337C498.337 198.009 498.242 197.623 498.053 197.287C497.864 196.951 497.601 196.688 497.265 196.499C496.933 196.304 496.547 196.207 496.107 196.207C495.648 196.207 495.24 196.314 494.885 196.527C494.535 196.735 494.26 197.017 494.061 197.372C493.863 197.723 493.761 198.113 493.756 198.544V200.327C493.756 200.866 493.855 201.333 494.054 201.726C494.258 202.119 494.544 202.422 494.914 202.635C495.283 202.848 495.721 202.955 496.228 202.955C496.564 202.955 496.872 202.907 497.151 202.812C497.43 202.718 497.669 202.576 497.868 202.386C498.067 202.197 498.219 201.965 498.323 201.69L501.121 201.875C500.979 202.547 500.688 203.134 500.248 203.636C499.812 204.134 499.248 204.522 498.557 204.801C497.871 205.076 497.078 205.213 496.178 205.213Z" fill="#6663CF"/>
<path d="M56.4918 188.08C58.4869 188.08 60.1042 186.462 60.1042 184.467C60.1042 182.471 58.4869 180.854 56.4918 180.854C54.4967 180.854 52.8794 182.471 52.8794 184.467C52.8794 186.462 54.4967 188.08 56.4918 188.08Z" stroke="#6663CF" stroke-width="2"/>
<path d="M63.5698 184.835C70.8561 184.085 82.289 184.972 83.6404 190.609C84.9917 196.246 79.8315 198.308 77.0827 198.634C66.6169 200.298 52.7397 199.515 52.7397 190.609" stroke="#6663CF" stroke-width="2" stroke-linecap="round"/>
<path d="M60.9371 193.361C61.3975 193.361 61.7708 192.987 61.7708 192.527C61.7708 192.066 61.3975 191.693 60.9371 191.693C60.4767 191.693 60.1035 192.066 60.1035 192.527C60.1035 192.987 60.4767 193.361 60.9371 193.361Z" stroke="#6663CF" stroke-width="2"/>
<path d="M68.9954 192.527C68.9954 192.932 68.6181 193.361 68.0229 193.361C67.4276 193.361 67.0503 192.932 67.0503 192.527C67.0503 192.122 67.4276 191.693 68.0229 191.693C68.6181 191.693 68.9954 192.122 68.9954 192.527Z" stroke="#6663CF" stroke-width="2"/>
<path d="M75.109 193.361C75.5694 193.361 75.9426 192.987 75.9426 192.527C75.9426 192.066 75.5694 191.693 75.109 191.693C74.6486 191.693 74.2754 192.066 74.2754 192.527C74.2754 192.987 74.6486 193.361 75.109 193.361Z" stroke="#6663CF" stroke-width="2"/>
<path d="M330.616 86.3557C332.458 86.3557 333.951 84.8625 333.951 83.0205C333.951 81.1785 332.458 79.6853 330.616 79.6853C328.775 79.6853 327.282 81.1785 327.282 83.0205C327.282 84.8625 328.775 86.3557 330.616 86.3557Z" stroke="#6663CF" stroke-width="2"/>
<path d="M337.167 80.1023C339.61 80.1023 346.592 80.1023 349.877 80.1023C352.537 80.1023 353.818 80.691 353.818 84.8111C353.818 88.8142 353.785 93.9996 353.818 96.0925C353.841 97.5638 353.108 99.1923 350.665 99.4277C348.221 99.6631 338.415 99.5258 333.817 99.4277C332.109 99.4277 329.087 98.4593 329.087 94.5227V90.1082" stroke="#6663CF" stroke-width="2" stroke-linecap="round"/>
<path d="M335.479 87.0505L341.592 91.2196" stroke="#6663CF" stroke-width="2" stroke-linecap="round"/>
<path d="M341.592 91.2196L352.707 80.936" stroke="#6663CF" stroke-width="2" stroke-linecap="round"/>
<path d="M344.41 88.7183L347.447 91.7755L350.484 94.8328" stroke="#6663CF" stroke-width="2" stroke-linecap="round"/>
<path d="M333.256 94.8328L337.737 88.7183" stroke="#6663CF" stroke-width="2" stroke-linecap="round"/>
<path d="M118.874 250.774C117.876 246.916 114.558 239.802 109.283 242.207C104.008 244.611 107.085 248.92 109.283 250.774C110.762 251.776 113.942 252.848 114.828 249.12C115.714 245.393 111.981 243.86 110.931 245.513C110.378 246.165 109.753 247.798 111.681 249.12" stroke="#6663CF" stroke-width="2" stroke-linecap="round"/>
<path d="M142.733 64.5897C142.443 62.9573 144.151 61.7014 145.622 62.4645L147.061 63.2103C148.229 63.8163 149.621 63.8083 150.783 63.189L152.213 62.4265C153.676 61.6467 155.398 62.8828 155.127 64.5183L154.862 66.1176C154.647 67.4165 155.084 68.7381 156.032 69.6517L157.199 70.7764C158.393 71.9268 157.749 73.9467 156.11 74.1945L154.508 74.4367C153.207 74.6335 152.085 75.4584 151.509 76.6425L150.801 78.0996C150.076 79.5905 147.956 79.6027 147.214 78.1203L146.489 76.6709C145.899 75.4936 144.769 74.6818 143.465 74.4999L141.86 74.276C140.218 74.047 139.552 72.0347 140.732 70.8708L141.886 69.7328C142.823 68.8083 143.246 67.4817 143.016 66.1853L142.733 64.5897Z" stroke="#6663CF" stroke-width="2"/>
<path d="M228.219 188.056V211.681" stroke="#2B2B2B" stroke-width="2" stroke-linecap="round"/>
<path d="M246.003 190.836V213.348" stroke="#2B2B2B" stroke-width="2" stroke-linecap="round"/>
<path d="M204.407 293.139C198.535 293.871 184.787 296.568 181.776 302.053C180.872 303.698 179.825 307.703 182.86 310.555C185.896 313.407 191.443 312.657 193.837 311.926L207.795 306.304" stroke="#2B2B2B" stroke-width="2" stroke-linecap="round"/>
<path d="M284.433 251.748C273.475 252.101 225.08 275.535 202.252 287.208C200.308 300.071 208.511 309.307 212.856 312.317C235.61 305.71 282.312 292.318 287.084 291.613C291.855 290.909 296.583 287.502 298.35 285.887C310.721 271.439 301.59 259.163 295.478 254.832C291.127 251.748 287.371 251.654 284.433 251.748Z" fill="#2B2B2B"/>
<path d="M181.795 248.47C189.558 248.988 223.426 262.117 239.473 268.998L202.774 287.34C186.35 292.157 176.26 290.57 173.179 289.532C155.393 280.961 162.361 259.817 169.428 251.984C173.982 248.107 179.013 248.285 181.795 248.47Z" fill="#2B2B2B"/>
<path d="M268.201 295.641C273.054 297.973 275.677 301.029 277.007 303.534C279.858 310.06 274.739 313.983 268.895 312.138C265.666 311.119 264.905 310.436 263.194 309.017C262.326 308.297 258.273 304.53 253.645 300.08" stroke="#2B2B2B" stroke-width="2" stroke-linecap="round"/>
<path d="M175.439 191.794L178.375 245.171C178.667 250.472 183.051 254.622 188.36 254.622H278.24C283.763 254.622 288.24 250.145 288.24 244.622V189.993C288.24 184.417 283.68 179.919 278.105 179.994L185.289 181.245C179.604 181.322 175.126 186.117 175.439 191.794Z" fill="#2B2B2B"/>
<rect x="178.201" y="255.594" width="110.039" height="5.28076" rx="2.64038" fill="#2B2B2B"/>
<path d="M246.281 150.535C255.96 150.396 277.264 157.761 285.739 180.969" stroke="#2B2B2B" stroke-width="2" stroke-linecap="round"/>
<path d="M225.023 150.396C202.932 154.704 192.372 164.154 184.036 182.359" stroke="#2B2B2B" stroke-width="2" stroke-linecap="round"/>
<path d="M298.938 172.377L304.357 163.344" stroke="#2B2B2B" stroke-width="2" stroke-linecap="round"/>
<path d="M304.357 174.878L311.721 168.763" stroke="#2B2B2B" stroke-width="2" stroke-linecap="round"/>
<path d="M305.468 179.047C306.903 179.603 310.164 180.131 311.72 177.796" stroke="#2B2B2B" stroke-width="2" stroke-linecap="round"/>
<path d="M163.335 170.685L154.999 162.069" stroke="#2B2B2B" stroke-width="2" stroke-linecap="round"/>
<path d="M171.81 169.296L166.808 156.372" stroke="#2B2B2B" stroke-width="2" stroke-linecap="round"/>
<path d="M161.251 175.549L154.999 173.187" stroke="#2B2B2B" stroke-width="2" stroke-linecap="round"/>
<path d="M291.296 196.557C296.437 204.617 302.272 214.206 291.296 232.248" stroke="#2B2B2B" stroke-width="2" stroke-linecap="round"/>
<path d="M246.419 151.23C247.67 147.617 246.531 145.185 245.419 144.722C238.75 150.837 228.635 148.567 224.884 144.861C223.55 146.084 224.328 149.701 224.884 150.813C232.109 158.818 242.39 154.334 246.419 151.23Z" fill="#2B2B2B"/>
<path d="M216.826 173.465L217.387 172.603C220.532 167.775 226.654 165.847 231.998 168.003V168.003C236.797 169.938 242.296 168.595 245.663 164.667L250.032 159.568" stroke="#2B2B2B" stroke-width="2" stroke-linecap="round"/>
<path d="M173.338 201.675C171.254 206.585 168.781 218.49 175.561 226.828" stroke="#2B2B2B" stroke-width="2" stroke-linecap="round"/>
<path d="M262.733 121.066V121.066C261.347 121.066 246.564 108.128 241.482 103.969C236.4 99.8105 228.601 89.1279 224.558 86.41C224.712 96.489 219.307 106.28 219.307 106.28C217.892 108.61 216.535 109.514 216.535 115.935C216.535 123.249 215.373 121.814 214.405 120.199C211.618 111.206 206.459 114.582 204.523 116.908C197.532 92.0036 216.958 75.0714 223.927 75.7821C229.192 71.2853 238.949 74.3842 243.792 76.2442C262.733 83.518 262.733 102.588 262.733 121.066Z" fill="url(#paint1_linear_870_6975)"/>
<path d="M215.587 127.07C218.088 142.342 237.871 150.015 247.026 139.55C253.493 132.157 253.955 126.608 253.493 109.052" stroke="#2B2B2B" stroke-width="2" stroke-linecap="round"/>
<path d="M205.695 114.989C204.167 118.741 205.601 127.055 215.588 127.055" stroke="#2B2B2B" stroke-width="2" stroke-linecap="round"/>
<path d="M210.1 117.05C209.879 117.852 210.055 119.755 212.531 120.941" stroke="#2B2B2B" stroke-width="2" stroke-linecap="round"/>
<path d="M253.493 125.11C256.753 123.751 259.051 118.717 258.167 110.657" stroke="#2B2B2B" stroke-width="2" stroke-linecap="round"/>
<path d="M233.628 134.467C236.824 135.301 238.595 135.556 241.02 133.543" stroke="#2B2B2B" stroke-width="2" stroke-linecap="round"/>
<ellipse cx="246.246" cy="114.868" rx="2.08407" ry="2.08451" fill="#2B2B2B"/>
<ellipse cx="227.905" cy="115.146" rx="2.08407" ry="2.08451" fill="#2B2B2B"/>
<path d="M223.368 110.379C223.807 109.088 225.699 106.698 229.759 107.473" stroke="#2B2B2B" stroke-width="2" stroke-linecap="round"/>
<path d="M242.819 107.878C243.788 107.039 246.422 105.864 249.21 107.878" stroke="#2B2B2B" stroke-width="2" stroke-linecap="round"/>
<path d="M236.097 113.714C235.773 116.459 235.553 122.024 237.262 122.33" stroke="#2B2B2B" stroke-width="2" stroke-linecap="round"/>
<path d="M316.167 239.776C353.263 250.059 419.898 261.872 389.665 226.852C380.124 217.448 366.045 206.424 343.398 196.696" stroke="#6663CF" stroke-width="2" stroke-linecap="round"/>
<path d="M356.32 167.926C379.383 153.149 416.535 122.623 380.634 118.732C344.732 114.841 311.952 128.32 300.05 135.547" stroke="#6663CF" stroke-width="2" stroke-linecap="round"/>
<path d="M262.563 142.636C277.846 109.7 302.577 41.4394 279.235 31.8785C250.058 19.9273 212.267 54.3912 181.423 136.66" stroke="#6663CF" stroke-width="2" stroke-linecap="round"/>
<path d="M151.852 117.961C117.674 99.2464 47.8988 70.4616 42.2302 105.037C36.5615 139.612 105.817 168.452 141.154 178.55" stroke="#6663CF" stroke-width="2" stroke-linecap="round"/>
<path d="M150.227 196.696C100.349 222.127 37.8513 257.298 72.4691 275.63C86.6406 283.134 122.904 278.548 139.576 271.738" stroke="#6663CF" stroke-width="2" stroke-linecap="round"/>
<ellipse cx="231.831" cy="363.179" rx="68.7744" ry="8.33805" fill="#6663CF"/>
<path d="M349.346 288.433C351.487 288.822 356.397 288.684 358.908 285.021" stroke="#6663CF" stroke-width="2" stroke-linecap="round"/>
<path d="M343.701 282.984C345.055 283.471 348.42 283.812 351.051 281.276" stroke="#6663CF" stroke-width="2" stroke-linecap="round"/>
<path d="M339.133 276.069C341.469 276.32 346.688 276.441 348.875 274.909" stroke="#6663CF" stroke-width="2" stroke-linecap="round"/>
<path d="M353.766 297.526C340.056 296.039 331.886 280.305 328.836 270.652C328.446 269.417 329.385 268.201 330.68 268.186L351.965 267.943C352.744 267.934 353.451 268.382 353.824 269.065C358.141 276.967 367.313 283.378 374.02 287.025C375.636 287.903 375.495 290.423 373.752 291.007L354.576 297.434C354.316 297.521 354.038 297.555 353.766 297.526Z" stroke="#6663CF" stroke-width="2" stroke-linecap="round"/>
<defs>
<linearGradient id="paint0_linear_870_6975" x1="546.478" y1="96" x2="619.772" y2="122.21" gradientUnits="userSpaceOnUse">
<stop stop-color="#5955B3"/>
<stop offset="1" stop-color="#6563CE"/>
</linearGradient>
<linearGradient id="paint1_linear_870_6975" x1="233.189" y1="73.4614" x2="233.189" y2="121.504" gradientUnits="userSpaceOnUse">
<stop stop-color="#2A2A2A"/>
<stop offset="0.825" stop-color="#5955B3"/>
</linearGradient>
</defs>
</svg>
