<svg width="325" height="290" viewBox="0 0 325 290" fill="none" xmlns="http://www.w3.org/2000/svg">
<rect width="325" height="290" rx="5" fill="white"/>
<path opacity="0.2" fill-rule="evenodd" clip-rule="evenodd" d="M324.665 269.81C324.613 280.783 315.724 289.668 304.75 289.713H171.145C177.237 275.753 202.684 247.832 255.738 247.832C308.791 247.832 323.794 226.116 324.665 215.258V269.81Z" fill="#89AFFF"/>
<path opacity="0.2" fill-rule="evenodd" clip-rule="evenodd" d="M149.339 0C147.452 10.5057 135.894 40.0486 88.2783 53.4492C42.0804 66.4509 11.6465 61.9796 0.329229 57.7773L0.329226 20C0.329225 8.95432 9.28349 1.09491e-05 20.3292 1.00855e-05L149.339 0Z" fill="#89AFFF"/>
<path d="M128.818 25.3861H133.102V35.1781C133.102 36.5101 133.462 36.6901 135.586 36.6901C136.558 36.6901 140.662 36.6901 141.85 36.6901C143.65 36.6901 143.938 36.1141 144.19 32.5501C145.09 33.1981 146.926 33.8461 148.078 34.0981C147.538 39.2101 146.278 40.5421 142.174 40.5421C141.094 40.5421 136.198 40.5421 135.154 40.5421C130.114 40.5421 128.818 39.3181 128.818 35.1781V25.3861ZM142.75 26.8981L145.954 30.0301C141.958 31.6861 136.594 32.9821 131.986 33.8461C131.77 32.9101 131.158 31.4701 130.69 30.6421C135.01 29.7421 139.834 28.3021 142.75 26.8981ZM128.746 42.6301H146.314V58.9741H142.03V46.1941H132.814V59.1541H128.746V42.6301ZM130.906 48.4261H143.506V51.7741H130.906V48.4261ZM130.726 54.1501H143.506V57.5701H130.726V54.1501ZM113.986 43.7101C117.334 42.9901 122.338 41.7661 127.018 40.5421L127.522 44.5021C123.238 45.7261 118.63 46.9141 115.03 47.8501L113.986 43.7101ZM114.526 32.1181H126.946V36.1501H114.526V32.1181ZM119.026 25.3501H123.274V54.5101C123.274 56.5981 122.914 57.6781 121.69 58.3261C120.466 58.9741 118.738 59.1181 116.182 59.0821C116.074 58.0021 115.498 56.2381 114.994 55.1581C116.398 55.1941 117.874 55.1941 118.342 55.1941C118.846 55.1581 119.026 55.0141 119.026 54.5101V25.3501ZM151.246 28.3381H183.214V32.3701H151.246V28.3381ZM159.13 43.8181H175.258V47.1661H159.13V43.8181ZM158.374 49.5421H176.05V52.9981H158.374V49.5421ZM165.034 45.4381H169.138V58.1101H165.034V45.4381ZM152.578 35.0701H178.642V39.0301H156.934V59.0821H152.578V35.0701ZM177.418 35.0701H181.882V54.7621C181.882 56.8501 181.378 57.8221 179.902 58.4341C178.462 59.0461 176.338 59.0821 173.422 59.0821C173.206 57.9661 172.558 56.3821 171.982 55.4101C173.746 55.5181 176.014 55.5181 176.59 55.4821C177.238 55.4461 177.418 55.2661 177.418 54.7261V35.0701ZM160.498 40.0021L163.954 38.9941C164.782 40.1461 165.61 41.8021 166.006 42.8821L162.406 44.1061C162.082 42.9541 161.254 41.2621 160.498 40.0021ZM170.65 39.0661L174.322 40.0741C173.35 41.8021 172.378 43.4941 171.55 44.6461L168.49 43.7461C169.246 42.4141 170.182 40.4341 170.65 39.0661ZM164.89 25.5661H169.642V37.8421H164.89V25.5661ZM207.97 43.0021V47.3232H196.03V43.0021H207.97ZM31.6978 72.7141H42.3538V75.3301H31.6978V72.7141ZM44.3218 79.6741H53.7538V82.4341H44.3218V79.6741ZM48.7378 81.6181H51.5938V94.0981H48.7378V81.6181ZM43.1698 73.6741L46.6258 74.4901C46.6018 74.7301 46.4338 74.8501 46.0018 74.9221V80.3701C46.0018 84.2581 45.4498 90.1861 41.6338 94.0501C41.2498 93.4261 40.1698 92.4421 39.4978 92.1061C42.8578 88.6981 43.1698 83.9221 43.1698 80.3461V73.6741ZM32.4658 77.1301H35.2018V83.2741C35.2018 86.5141 34.8658 91.1701 32.9938 94.1221C32.5378 93.6181 31.3378 92.7061 30.7378 92.3941C32.3218 89.8021 32.4658 86.0341 32.4658 83.2501V77.1301ZM51.0658 71.7781L53.5858 73.9381C51.0178 75.2101 47.6338 76.1941 44.7058 76.8421C44.5378 76.1941 44.0818 75.1381 43.7218 74.5381C46.4098 73.8661 49.3378 72.8101 51.0658 71.7781ZM34.0498 77.1301H41.8498V85.3381H34.0498V82.7701H39.0658V79.7221H34.0498V77.1301ZM55.7218 74.4421H77.1298V77.1301H55.7218V74.4421ZM62.2018 83.0821H72.6418V85.4821H62.2018V83.0821ZM60.0658 79.0261H72.2098V81.5461H62.9218V94.0501H60.0658V79.0261ZM71.6338 79.0261H74.4418V90.9541C74.4418 92.3701 74.1778 93.1621 73.1938 93.6181C72.2338 94.0501 70.8658 94.0741 68.9218 94.0741C68.8018 93.2821 68.4178 92.0581 68.0338 91.3141C69.2818 91.3861 70.6978 91.3621 71.1058 91.3621C71.4898 91.3621 71.6338 91.2421 71.6338 90.9061V79.0261ZM63.1618 71.5141L66.1378 72.1861C64.4578 77.6101 61.5778 83.1301 56.8978 86.3941C56.4898 85.7461 55.5778 84.7141 55.0018 84.1621C59.2738 81.3541 61.9618 76.1941 63.1618 71.5141ZM62.2018 87.0421H72.6418V89.4421H62.2018V87.0421ZM85.3138 76.9381H88.3858V89.5141C88.3858 90.7381 88.5778 90.9061 89.8258 90.9061C90.4018 90.9061 92.8018 90.9061 93.4738 90.9061C94.6978 90.9061 94.9138 90.2341 95.1058 86.8021C95.7778 87.3061 97.0738 87.8581 97.9138 88.0261C97.5298 92.3941 96.6898 93.7861 93.7138 93.7861C92.9938 93.7861 90.1618 93.7861 89.4658 93.7861C86.2258 93.7861 85.3138 92.8261 85.3138 89.4901V76.9381ZM85.6018 73.6021L87.4738 71.5141C89.4178 72.7381 91.8658 74.5381 93.2338 75.5941L91.3378 77.9701C89.9698 76.7941 87.4978 74.8981 85.6018 73.6021ZM81.4738 78.0421L84.2338 78.7381C83.7058 81.5701 82.9378 84.9781 81.7378 87.0421L78.9298 86.0101C80.1538 83.9221 81.0418 80.8741 81.4738 78.0421ZM95.6098 80.8741L98.2258 79.6501C99.7378 81.9061 101.226 84.8341 101.874 86.8501L99.0898 88.2661C98.5378 86.2501 97.0498 83.1541 95.6098 80.8741ZM96.7618 72.9301L99.6658 74.1061C95.8018 81.4981 89.4658 88.6981 80.8738 92.9221C80.4418 92.2501 79.6018 91.1941 79.0018 90.6181C87.1378 86.8981 93.5458 79.6981 96.7618 72.9301ZM103.41 84.5461H125.442V86.8741H103.41V84.5461ZM103.866 72.3781H124.866V74.8741H103.866V72.3781ZM111.402 82.2421L114.234 82.9621C112.698 85.5061 110.658 88.5301 109.194 90.4501L106.41 89.6101C107.898 87.6901 110.01 84.5941 111.402 82.2421ZM118.362 85.4101L121.146 86.1301C118.77 91.7941 113.826 93.4261 104.922 94.1221C104.73 93.2821 104.298 92.2741 103.842 91.6501C111.93 91.3141 116.442 90.0181 118.362 85.4101ZM108.066 89.8021L109.53 87.7381C115.05 88.8661 121.026 90.5221 124.626 91.8421L122.898 94.1701C119.418 92.7541 113.802 91.0261 108.066 89.8021ZM110.178 73.3621H112.89V81.5701H110.178V73.3621ZM115.626 73.3621H118.338V81.5701H115.626V73.3621ZM107.658 78.4981V80.7541H121.218V78.4981H107.658ZM104.97 76.2421H124.098V83.0101H104.97V76.2421ZM129.858 75.4261H137.226V91.6021H129.858V89.0581H134.61V77.9461H129.858V75.4261ZM128.178 75.4261H130.794V93.3781H128.178V75.4261ZM129.738 81.8341H135.882V84.3301H129.738V81.8341ZM131.586 71.5141L134.73 71.9701C134.178 73.6021 133.578 75.3061 133.098 76.4341L130.794 75.9301C131.13 74.6821 131.466 72.8341 131.586 71.5141ZM140.394 75.2581H147.402V77.8741H140.394V75.2581ZM146.418 75.2581H149.082C149.082 75.2581 149.082 76.1941 149.058 76.5541C148.746 87.3541 148.458 91.1701 147.474 92.4421C146.802 93.3781 146.13 93.6421 145.146 93.7861C144.234 93.9301 142.77 93.9061 141.378 93.8341C141.33 93.0421 140.946 91.8181 140.418 91.0501C141.978 91.1701 143.418 91.1941 144.018 91.1941C144.498 91.1941 144.762 91.0981 145.074 90.7621C145.842 89.9461 146.154 85.8181 146.418 75.8101V75.2581ZM140.466 71.5381L143.226 72.1861C142.29 75.7381 140.73 79.3861 139.098 81.6901C138.57 81.2101 137.394 80.3941 136.722 80.0101C138.33 77.9941 139.698 74.7301 140.466 71.5381ZM139.29 82.1701L141.546 80.8981C142.722 82.5541 144.306 84.8581 145.05 86.2741L142.602 87.7621C141.954 86.2981 140.442 83.9461 139.29 82.1701ZM160.578 72.4741H171.642V74.7301H160.578V72.4741ZM160.194 79.3861H172.074V81.6421H160.194V79.3861ZM160.194 82.8181H171.978V85.0741H160.194V82.8181ZM161.346 90.8341H170.898V93.1141H161.346V90.8341ZM158.298 75.9061H173.754V78.2341H158.298V75.9061ZM159.81 86.2741H172.41V93.9781H169.506V88.5061H162.57V94.0501H159.81V86.2741ZM156.522 71.5861L159.21 72.4501C157.578 76.5301 154.938 80.8261 152.202 83.5381C151.962 82.8661 151.194 81.2821 150.714 80.5861C152.994 78.4261 155.226 75.0181 156.522 71.5861ZM154.218 78.2341L156.93 75.4981L156.954 75.5221V94.0021H154.218V78.2341ZM181.266 87.2341H184.122V90.6901C184.122 91.3621 184.314 91.4581 185.466 91.4581C185.97 91.4581 188.13 91.4581 188.778 91.4581C189.69 91.4581 189.858 91.1941 189.978 89.4181C190.554 89.8261 191.778 90.2581 192.546 90.4021C192.186 93.2821 191.394 94.0021 189.066 94.0021C188.394 94.0021 185.778 94.0021 185.13 94.0021C182.01 94.0021 181.266 93.2101 181.266 90.7141V87.2341ZM183.93 86.6821L186.042 85.2661C187.314 86.2261 188.778 87.6181 189.45 88.6981L187.194 90.2341C186.594 89.2021 185.178 87.7141 183.93 86.6821ZM191.394 87.9301L193.698 86.4661C195.378 87.9781 197.226 90.0661 197.946 91.6981L195.45 93.3061C194.802 91.7461 193.074 89.5381 191.394 87.9301ZM177.714 86.7781L180.282 87.7141C179.682 89.6821 178.818 91.8421 177.354 93.2581L174.954 91.5781C176.25 90.4261 177.21 88.5781 177.714 86.7781ZM181.65 78.8101V80.0101H191.37V78.8101H181.65ZM181.65 82.0981V83.2981H191.37V82.0981H181.65ZM181.65 75.5461V76.7461H191.37V75.5461H181.65ZM178.866 73.3621H194.274V85.5061H178.866V73.3621ZM184.938 71.2741L188.442 71.7061C187.89 72.8581 187.266 73.8421 186.858 74.5621L184.194 74.0341C184.482 73.1941 184.794 72.0901 184.938 71.2741ZM200.346 74.0821H208.65V76.5541H200.346V74.0821ZM203.226 90.4501H209.25V92.7781H203.226V90.4501ZM203.226 86.6101H209.322V88.7941H203.226V86.6101ZM199.314 78.5221H211.602V81.0181H199.314V78.5221ZM203.514 71.7301H206.178V80.1781H203.514V71.7301ZM209.826 72.5941L212.418 73.3381C209.97 79.6261 205.77 84.4981 200.346 87.4261C200.034 86.8021 199.194 85.6021 198.69 85.0261C203.85 82.5781 207.738 78.2581 209.826 72.5941ZM204.138 82.7941H209.202V85.0981H204.138V94.0261H201.546V84.4501L203.106 82.7941H204.138ZM208.05 82.7941H210.786V93.6901H208.05V82.7941ZM212.37 72.8821H219.426V75.5701H215.202V94.0501H212.37V72.8821ZM218.754 72.8821H219.306L219.738 72.7621L221.826 74.0581C220.986 76.3621 219.906 79.0981 218.946 81.2341C220.962 83.3701 221.394 85.2661 221.394 86.8501C221.394 88.6501 220.986 89.8261 220.05 90.4501C219.57 90.7861 218.994 91.0021 218.346 91.0741C217.77 91.1461 217.002 91.1701 216.258 91.1221C216.234 90.3541 215.946 89.1061 215.49 88.3381C216.114 88.3861 216.594 88.4101 217.026 88.3861C217.386 88.3861 217.746 88.3141 218.01 88.1701C218.466 87.9061 218.634 87.3541 218.634 86.5381C218.634 85.2181 218.082 83.4421 216.114 81.5941C217.098 79.2421 218.226 75.5941 218.754 73.8661V72.8821ZM223.746 74.8741H245.154V77.6341H223.746V74.8741ZM231.57 82.6501H244.146V85.3141H231.57V82.6501ZM230.634 90.8101H245.058V93.4741H230.634V90.8101ZM236.466 78.6661H239.37V92.2261H236.466V78.6661ZM231.306 71.5141L234.306 72.2341C232.53 78.0181 229.506 83.8501 224.37 87.3541C224.082 86.5381 223.41 85.2661 222.978 84.5701C227.322 81.7381 230.058 76.3621 231.306 71.5141ZM226.506 81.5701H229.41V94.0261H226.506V81.5701ZM251.802 88.4101C252.618 88.4101 253.266 89.0341 254.634 89.7301C256.218 90.5941 258.45 90.7381 261.042 90.7381C263.442 90.7381 267.33 90.5221 269.73 90.1621C269.394 91.0021 268.914 92.4901 268.866 93.3541C267.138 93.4741 263.394 93.6181 260.946 93.6181C257.97 93.6181 255.954 93.3301 254.202 92.4421C253.098 91.8661 252.306 91.1941 251.754 91.1941C250.986 91.1941 249.882 92.6821 248.922 94.0261L246.93 91.1701C248.586 89.5381 250.482 88.4101 251.802 88.4101ZM247.41 74.0101L249.69 72.4741C250.89 73.5541 252.426 75.1141 253.146 76.2181L250.698 77.9221C250.074 76.8421 248.61 75.1861 247.41 74.0101ZM252.93 80.4661V89.8501H250.17V83.1301H247.458V80.4661H252.93ZM253.41 74.9701H269.13V77.6581H253.41V74.9701ZM263.778 75.5221L266.634 76.0501C264.882 83.0581 261.258 87.3301 255.09 89.7541C254.802 89.1301 253.938 87.8581 253.41 87.2581C259.17 85.3621 262.434 81.6421 263.778 75.5221ZM258.498 72.2101L261.258 71.3461C261.906 72.4261 262.626 73.8661 262.89 74.8261L259.962 75.8101C259.746 74.8741 259.098 73.3381 258.498 72.2101ZM254.106 79.9381L256.074 78.2101C260.034 80.9221 265.746 84.9541 268.53 87.5941L266.346 89.6821C263.778 87.0421 258.234 82.8181 254.106 79.9381ZM276.834 79.2181V81.2101H288.306V79.2181H276.834ZM276.834 74.9461V76.8661H288.306V74.9461H276.834ZM273.954 72.3781H291.33V83.7541H273.954V72.3781ZM271.602 90.7141H293.298V93.3781H271.602V90.7141ZM273.234 85.7941H292.074V88.4581H273.234V85.7941ZM281.226 73.9861H283.962V83.1301H284.154V92.3941H281.01V83.1301H281.226V73.9861ZM297.997 92.1357C297.434 92.1357 296.951 91.9368 296.548 91.5391C296.15 91.1357 295.951 90.6527 295.951 90.0902C295.951 89.5334 296.15 89.0561 296.548 88.6584C296.951 88.2607 297.434 88.0618 297.997 88.0618C298.542 88.0618 299.02 88.2607 299.429 88.6584C299.838 89.0561 300.042 89.5334 300.042 90.0902C300.042 90.4652 299.946 90.8089 299.752 91.1214C299.565 91.4283 299.318 91.6754 299.011 91.8629C298.704 92.0447 298.366 92.1357 297.997 92.1357ZM297.997 82.9652C297.434 82.9652 296.951 82.7663 296.548 82.3686C296.15 81.9709 295.951 81.4879 295.951 80.9197C295.951 80.3629 296.15 79.8885 296.548 79.4964C296.951 79.0987 297.434 78.8999 297.997 78.8999C298.542 78.8999 299.02 79.0987 299.429 79.4964C299.838 79.8885 300.042 80.3629 300.042 80.9197C300.042 81.3004 299.946 81.647 299.752 81.9595C299.565 82.2663 299.318 82.5107 299.011 82.6925C298.704 82.8743 298.366 82.9652 297.997 82.9652Z" fill="url(#paint0_linear_957_6283)"/>
<path d="M27.3019 112.44V122.622H25.7607V113.981H25.7011L23.265 115.572V114.101L25.8055 112.44H27.3019ZM32.3493 122.717C32.0775 122.717 31.8439 122.62 31.6483 122.428C31.4528 122.233 31.355 121.997 31.355 121.722C31.355 121.45 31.4528 121.218 31.6483 121.026C31.8439 120.831 32.0775 120.733 32.3493 120.733C32.6211 120.733 32.8548 120.831 33.0503 121.026C33.2459 121.218 33.3436 121.45 33.3436 121.722C33.3436 121.905 33.2972 122.072 33.2044 122.224C33.115 122.373 32.9956 122.493 32.8465 122.582C32.6973 122.672 32.5316 122.717 32.3493 122.717ZM43.5603 113.032H55.8243V114.054H43.5603V113.032ZM47.9003 117.47H55.2783V118.45H47.9003V117.47ZM47.3543 122.426H55.8243V123.42H47.3543V122.426ZM51.0643 114.768H52.1143V122.958H51.0643V114.768ZM48.1663 110.862L49.2443 111.128C48.2643 114.334 46.5563 117.596 43.7703 119.598C43.6583 119.318 43.3923 118.87 43.2243 118.632C45.7443 116.854 47.3823 113.746 48.1663 110.862ZM45.3943 116.63H46.4443V123.7H45.3943V116.63ZM61.4383 112.234H70.1603V113.242H61.4383V112.234ZM68.0883 112.598H69.1383V122.3C69.1383 123.056 68.9423 123.364 68.4383 123.546C67.9203 123.714 66.9963 123.742 65.6243 123.728C65.5683 123.434 65.4003 122.958 65.2463 122.65C66.3663 122.692 67.3883 122.678 67.7103 122.664C68.0043 122.65 68.0883 122.58 68.0883 122.3V112.598ZM61.8583 115.216H62.8383V121.04H61.8583V115.216ZM62.3063 115.216H66.2543V120.06H62.3063V119.122H65.2603V116.154H62.3063V115.216ZM60.4163 110.876L61.4103 111.184C60.5703 113.522 59.2263 115.888 57.7983 117.442C57.7003 117.204 57.3923 116.644 57.2103 116.406C58.4983 115.062 59.6883 112.976 60.4163 110.876ZM59.1003 114.53L60.1363 113.508L60.1503 113.522V123.728H59.1003V114.53ZM73.9823 113.088H77.0483V114.068H73.9823V113.088ZM76.7263 113.088H76.9363L77.1323 113.06L77.8323 113.242C77.1743 118.982 75.0743 122.188 72.0223 123.77C71.8403 123.532 71.4343 123.112 71.1683 122.944C74.1783 121.488 76.1663 118.604 76.7263 113.34V113.088ZM73.7583 114.852C75.0743 121.264 78.3503 122.23 81.7663 122.23C82.2003 122.23 83.6423 122.23 84.1883 122.216C84.0203 122.482 83.8243 123.014 83.7683 123.322H81.7103C77.8323 123.322 74.3463 122.16 72.9183 115.146L73.7583 114.852ZM73.7723 110.918L74.8783 111.184C74.3743 114.04 73.4643 116.784 72.2743 118.366C72.0783 118.198 71.6863 117.918 71.4203 117.778C72.5263 116.308 73.3803 113.662 73.7723 110.918ZM79.9323 114.796L80.7723 114.32C81.8503 115.482 83.1663 117.05 83.7963 118.058L82.8863 118.632C82.2983 117.624 80.9963 115.986 79.9323 114.796ZM79.3023 110.89H80.4223V121.194H79.3023V110.89ZM89.0883 114.768H94.2823V115.678H89.0883V114.768ZM85.6023 122.538H97.7963V123.42H85.6023V122.538ZM86.4423 111.408H90.5863V112.29H86.4423V111.408ZM90.2503 111.408H90.4323L90.6283 111.352L91.3003 111.702C90.2503 114.39 87.9123 116.392 85.6863 117.428C85.5463 117.204 85.2663 116.84 85.0563 116.658C87.1143 115.79 89.3823 113.83 90.2503 111.604V111.408ZM92.6163 110.904C93.6943 113.284 95.8363 115.454 98.2583 116.392C98.0063 116.602 97.7123 116.98 97.5443 117.26C95.0663 116.14 92.9243 113.858 91.7343 111.198L92.6163 110.904ZM86.0643 113.382L86.6243 112.808C87.3663 113.228 88.2343 113.872 88.6403 114.376L88.0523 115.02C87.6323 114.53 86.7923 113.83 86.0643 113.382ZM95.4303 110.988L96.2283 111.548C95.5003 112.234 94.5343 112.99 93.8063 113.48L93.1623 112.976C93.8763 112.458 94.8703 111.604 95.4303 110.988ZM96.9983 112.64L97.7823 113.2C97.0403 113.9 96.0323 114.656 95.2623 115.132L94.6183 114.628C95.3743 114.124 96.4103 113.27 96.9983 112.64ZM88.8363 117.694V119.542H94.5063V117.694H88.8363ZM87.8003 116.826H95.5843V120.41H87.8003V116.826ZM88.6123 120.634L89.5783 120.368C89.9703 120.97 90.3343 121.796 90.4743 122.342L89.4803 122.65C89.3403 122.104 88.9903 121.25 88.6123 120.634ZM93.8203 120.326L94.8423 120.606C94.4643 121.348 94.0443 122.118 93.6943 122.664L92.7983 122.398C93.1483 121.852 93.5963 120.942 93.8203 120.326ZM100.428 111.856L101.142 111.212C101.912 111.87 102.892 112.78 103.368 113.368L102.612 114.124C102.164 113.508 101.198 112.542 100.428 111.856ZM101.478 123.462L101.296 122.468L101.59 122.02L104.068 120.34C104.138 120.62 104.292 121.04 104.39 121.25C102.052 122.916 101.688 123.196 101.478 123.462ZM99.3363 115.272H102.304V116.28H99.3363V115.272ZM101.478 123.476C101.366 123.252 101.072 122.86 100.89 122.692C101.142 122.496 101.562 122.02 101.562 121.334V115.272H102.612V122.104C102.612 122.104 101.478 123.056 101.478 123.476ZM105.272 116.448H110.69V117.456H105.272V116.448ZM104.824 116.448H105.888V121.838C105.888 122.398 106.056 122.524 106.952 122.524C107.386 122.524 109.5 122.524 110.046 122.524C110.914 122.524 111.054 122.174 111.138 120.186C111.39 120.382 111.852 120.55 112.16 120.62C111.992 122.902 111.642 123.546 110.116 123.546C109.752 123.546 107.232 123.546 106.896 123.546C105.314 123.546 104.824 123.196 104.824 121.838V116.448ZM104.558 111.856H111.166V118.17H110.116V112.892H104.558V111.856Z" fill="#2D3342"/>
<path d="M27.8195 127.362C27.3665 127.294 16.3988 125.827 16.8557 115.594C16.8976 114.654 17.0146 113.799 17.1963 113.024M27.8195 127.362C21.8081 126.964 18.7534 124.602 17.3863 121.771M27.8195 127.362C28.5468 127.47 29.2969 127.462 30.0389 127.344M17.1963 113.024C17.4238 112.053 17.7528 111.208 18.1636 110.478M17.1963 113.024C16.3773 115.299 15.9486 118.794 17.3863 121.771M18.1636 110.478C21.5308 104.496 30.3862 106.283 33.7582 110.478C35.0814 112.125 37.8545 116.304 36.5031 121.526C35.656 124.8 32.9076 126.888 30.0389 127.344M18.1636 110.478C16.8823 112.283 15.0233 116.511 16.6126 120.345M17.3863 121.771C17.0682 121.306 16.813 120.829 16.6126 120.345M30.0389 127.344C26.2455 128.006 18.2496 127.533 16.6126 120.345" stroke="#6663CF" stroke-linecap="round"/>
<path d="M22.2554 150.526V149.412L25.7007 145.843C26.0686 145.455 26.3718 145.115 26.6105 144.823C26.8524 144.528 27.0331 144.248 27.1524 143.983C27.2717 143.718 27.3313 143.436 27.3313 143.138C27.3313 142.8 27.2518 142.508 27.0927 142.263C26.9336 142.015 26.7165 141.824 26.4414 141.691C26.1663 141.555 25.8564 141.488 25.5117 141.488C25.1472 141.488 24.829 141.562 24.5572 141.711C24.2854 141.86 24.0766 142.071 23.9308 142.343C23.7849 142.614 23.712 142.933 23.712 143.297H22.2454C22.2454 142.677 22.3879 142.135 22.673 141.671C22.958 141.207 23.3491 140.848 23.8463 140.593C24.3434 140.334 24.9085 140.205 25.5416 140.205C26.1813 140.205 26.7447 140.332 27.2319 140.588C27.7224 140.84 28.1053 141.184 28.3804 141.622C28.6554 142.056 28.793 142.546 28.793 143.093C28.793 143.471 28.7217 143.841 28.5792 144.202C28.44 144.563 28.1964 144.966 27.8484 145.41C27.5004 145.851 27.0165 146.386 26.3967 147.016L24.3733 149.134V149.208H28.9571V150.526H22.2554ZM32.1799 150.62C31.9081 150.62 31.6744 150.524 31.4789 150.332C31.2833 150.136 31.1856 149.901 31.1856 149.626C31.1856 149.354 31.2833 149.122 31.4789 148.93C31.6744 148.734 31.9081 148.637 32.1799 148.637C32.4517 148.637 32.6853 148.734 32.8809 148.93C33.0764 149.122 33.1742 149.354 33.1742 149.626C33.1742 149.808 33.1278 149.976 33.035 150.128C32.9455 150.277 32.8262 150.397 32.6771 150.486C32.5279 150.576 32.3622 150.62 32.1799 150.62ZM43.4048 140.586H55.6688V141.58H43.4048V140.586ZM46.8208 145.584H53.4008V146.494H46.8208V145.584ZM46.0788 143.204H53.2328V144.142H47.1148V151.646H46.0788V143.204ZM52.9948 143.204H54.0168V150.344C54.0168 150.96 53.8908 151.282 53.4148 151.45C52.9668 151.618 52.1828 151.618 50.9788 151.618C50.9368 151.324 50.7828 150.89 50.6288 150.596C51.5668 150.638 52.4208 150.624 52.6728 150.624C52.9108 150.61 52.9948 150.54 52.9948 150.33V143.204ZM47.9828 138.766L49.0468 139.018C48.0948 142.098 46.4148 145.206 43.7408 147.082C43.6008 146.844 43.2788 146.48 43.0688 146.27C45.5748 144.548 47.2268 141.58 47.9828 138.766ZM46.8208 147.95H53.4008V148.86H46.8208V147.95ZM59.3928 141.93H67.6248V142.938H59.3928V141.93ZM58.8748 145.346H68.1988V146.34H58.8748V145.346ZM64.0268 145.682C64.6708 148.146 66.1128 149.98 68.5208 150.722C68.2688 150.946 67.9608 151.366 67.8068 151.646C65.3008 150.736 63.8448 148.72 63.1168 145.878L64.0268 145.682ZM66.0988 138.794L67.1908 139.172C66.6868 140.068 66.0708 141.104 65.5808 141.762L64.7268 141.412C65.1888 140.712 65.7768 139.578 66.0988 138.794ZM59.9668 139.368L60.8208 138.934C61.4088 139.648 62.0248 140.642 62.2768 141.3L61.3668 141.804C61.1288 141.132 60.5268 140.11 59.9668 139.368ZM62.8928 142.168H63.9848V145.08C63.9848 147.236 63.4668 149.91 59.1688 151.702C59.0148 151.45 58.6928 151.086 58.4408 150.876C62.6128 149.294 62.8928 146.886 62.8928 145.08V142.168ZM71.3908 140.936H83.6548V141.958H71.3908V140.936ZM75.7308 145.374H83.1088V146.354H75.7308V145.374ZM75.1848 150.33H83.6548V151.324H75.1848V150.33ZM78.8948 142.672H79.9448V150.862H78.8948V142.672ZM75.9968 138.766L77.0748 139.032C76.0948 142.238 74.3868 145.5 71.6008 147.502C71.4888 147.222 71.2228 146.774 71.0548 146.536C73.5748 144.758 75.2128 141.65 75.9968 138.766ZM73.2248 144.534H74.2748V151.604H73.2248V144.534ZM85.6148 147.978C85.5588 147.768 85.4048 147.292 85.2788 147.012C85.5868 146.97 85.9088 146.62 86.3288 146.088C86.8048 145.584 88.2748 143.624 89.2548 141.706L90.1228 142.252C89.0168 144.156 87.6588 146.06 86.3288 147.418V147.446C86.3288 147.446 85.6148 147.768 85.6148 147.978ZM85.6148 147.978L85.5588 147.138L86.0768 146.774L89.8848 146.088C89.8568 146.354 89.8568 146.76 89.8848 146.97C86.3708 147.684 85.8948 147.81 85.6148 147.978ZM85.5168 144.618C85.4748 144.394 85.2928 143.89 85.1808 143.61C85.4328 143.554 85.6708 143.218 85.9788 142.756C86.2868 142.294 87.2948 140.488 87.8688 138.822L88.8488 139.284C88.1208 140.992 87.1408 142.784 86.1608 144.044V144.072C86.1608 144.072 85.5168 144.394 85.5168 144.618ZM85.5168 144.618L85.5028 143.834L86.0068 143.498L88.6108 143.246C88.5548 143.512 88.5408 143.904 88.5408 144.1C86.1468 144.408 85.7548 144.492 85.5168 144.618ZM85.2648 149.77C86.4268 149.49 88.2048 149 89.9408 148.524L90.0808 149.406C88.4708 149.896 86.7768 150.386 85.4888 150.778L85.2648 149.77ZM90.5708 142.14L97.1508 141.16L97.3328 142.084L90.7528 143.092L90.5708 142.14ZM90.2908 145.15L97.5428 143.792L97.7248 144.73L90.4728 146.102L90.2908 145.15ZM92.6988 138.752H93.7348C93.6928 145.304 94.7848 150.596 96.6188 150.596C97.0108 150.596 97.1508 150.26 97.2068 149.028C97.4308 149.252 97.7528 149.476 97.9908 149.588C97.8088 151.156 97.4728 151.618 96.5068 151.618C93.6928 151.618 92.7408 145.584 92.6988 138.752ZM94.3788 139.606L94.9808 139.032C95.6668 139.34 96.5628 139.844 97.0108 140.222L96.4088 140.88C95.9468 140.488 95.0788 139.942 94.3788 139.606ZM96.9408 145.654L97.8088 146.06C96.2688 148.468 93.5668 150.344 90.5148 151.408C90.3748 151.142 90.0948 150.778 89.8568 150.54C92.8388 149.63 95.5128 147.88 96.9408 145.654ZM99.8808 139.662L100.581 139.046C101.281 139.662 102.163 140.53 102.583 141.09L101.827 141.804C101.435 141.23 100.567 140.32 99.8808 139.662ZM100.973 151.086L100.777 150.12L101.029 149.686L103.423 147.698C103.521 147.978 103.703 148.37 103.815 148.552C101.505 150.512 101.155 150.82 100.973 151.086ZM99.1248 143.148H101.729V144.114H99.1248V143.148ZM103.255 146.032H111.893V146.998H103.255V146.032ZM108.407 146.494C109.233 147.894 110.801 149.42 112.131 150.148C111.893 150.344 111.571 150.708 111.403 150.974C110.073 150.092 108.547 148.37 107.679 146.802L108.407 146.494ZM104.977 142.518V143.974H110.017V142.518H104.977ZM104.977 140.236V141.678H110.017V140.236H104.977ZM104.011 139.368H111.011V144.842H104.011V139.368ZM106.755 146.494L107.497 146.774C106.615 148.524 105.005 150.246 103.465 151.1C103.311 150.848 103.003 150.498 102.779 150.302C104.305 149.588 105.929 148.034 106.755 146.494ZM107.105 139.802H108.071V144.408H108.113V151.646H107.077V144.408H107.105V139.802ZM100.973 151.086C100.847 150.89 100.525 150.526 100.329 150.386C100.595 150.148 101.085 149.602 101.085 148.874V143.148H102.093V149.574C102.093 149.574 100.973 150.666 100.973 151.086ZM121.539 145.374H122.575V150.974H121.539V145.374ZM118.459 144.996H125.697V145.92H118.459V144.996ZM117.857 150.344H126.005V151.282H117.857V150.344ZM118.795 147.6H125.375V148.51H118.795V147.6ZM119.971 140.264V142.854H124.185V140.264H119.971ZM118.991 139.354H125.207V143.764H118.991V139.354ZM115.491 139.928H116.513V151.618H115.491V139.928ZM113.195 142.714H118.277V143.708H113.195V142.714ZM115.547 143.092L116.205 143.372C115.645 145.346 114.525 147.796 113.447 149.098C113.349 148.804 113.097 148.37 112.915 148.132C113.923 147.012 115.043 144.828 115.547 143.092ZM117.563 138.976L118.305 139.788C117.017 140.306 115.057 140.698 113.433 140.922C113.377 140.684 113.237 140.348 113.111 140.11C114.693 139.844 116.541 139.452 117.563 138.976ZM116.471 144.52C116.821 144.828 118.137 146.158 118.417 146.508L117.801 147.334C117.465 146.76 116.415 145.43 115.981 144.94L116.471 144.52ZM134.335 148.86H138.675V149.868H134.335V148.86ZM133.943 140.082H139.165V150.932H138.101V141.076H134.965V151.03H133.943V140.082ZM129.967 139.956H131.017V151.632H129.967V139.956ZM127.223 142.91H133.467V143.89H127.223V142.91ZM129.911 143.26L130.653 143.526C129.995 145.696 128.707 148.286 127.447 149.63C127.335 149.336 127.069 148.916 126.887 148.664C128.063 147.46 129.351 145.192 129.911 143.26ZM132.655 138.906L133.369 139.718C131.871 140.278 129.575 140.684 127.657 140.908C127.601 140.67 127.475 140.32 127.349 140.082C129.211 139.83 131.437 139.41 132.655 138.906ZM130.933 144.17C131.381 144.618 133.005 146.522 133.369 146.984L132.725 147.838C132.277 147.096 130.919 145.304 130.401 144.688L130.933 144.17ZM147.327 149.252L147.985 148.832C148.685 149.532 149.525 150.47 149.931 151.072L149.245 151.548C148.853 150.932 148.041 149.952 147.327 149.252ZM144.877 139.592H149.609V148.342H148.755V140.39H145.717V148.37H144.877V139.592ZM152.647 138.948H153.515V150.428C153.515 151.016 153.375 151.282 153.025 151.436C152.661 151.576 152.073 151.604 151.079 151.604C151.051 151.366 150.911 150.974 150.785 150.722C151.527 150.736 152.171 150.736 152.367 150.722C152.577 150.722 152.647 150.652 152.647 150.442V138.948ZM150.729 140.04H151.569V148.426H150.729V140.04ZM146.753 141.398H147.565V146.368C147.565 148.23 147.173 150.358 144.653 151.632C144.555 151.45 144.303 151.114 144.135 150.974C146.487 149.798 146.753 148.034 146.753 146.354V141.398ZM141.657 139.676L142.273 138.92C143.043 139.326 144.051 139.942 144.569 140.376L143.911 141.23C143.435 140.768 142.441 140.11 141.657 139.676ZM141.041 143.442L141.643 142.7C142.413 143.092 143.435 143.694 143.967 144.086L143.351 144.926C142.847 144.506 141.825 143.876 141.041 143.442ZM141.335 150.918C141.881 149.84 142.665 148.006 143.239 146.438L144.079 146.998C143.561 148.454 142.875 150.176 142.273 151.478L141.335 150.918ZM156.189 139.676L156.903 139.046C157.617 139.634 158.527 140.488 158.961 141.034L158.219 141.776C157.813 141.188 156.917 140.306 156.189 139.676ZM157.015 151.296L156.861 150.358L157.169 149.924L159.717 148.286C159.787 148.552 159.899 148.958 159.997 149.168C157.617 150.792 157.239 151.03 157.015 151.296ZM155.223 143.162H157.701V144.184H155.223V143.162ZM159.367 141.692H167.949V142.7H159.367V141.692ZM159.815 144.73H163.567V145.71H159.815V144.73ZM161.271 145.29H162.237V149.546L161.271 149.658V145.29ZM159.549 149.686C160.641 149.406 162.279 148.958 163.889 148.51L164.029 149.434C162.559 149.882 161.019 150.33 159.843 150.666L159.549 149.686ZM165.401 139.396L166.115 138.948C166.703 139.536 167.375 140.348 167.669 140.894L166.899 141.412C166.619 140.866 165.975 140.012 165.401 139.396ZM163.903 138.836H164.967C165.009 144.982 165.597 150.176 166.703 150.232C166.955 150.246 167.123 149.448 167.207 148.09C167.403 148.3 167.865 148.566 168.047 148.664C167.767 151.016 167.221 151.618 166.675 151.604C164.561 151.562 164.057 146.158 163.903 138.836ZM157.015 151.296C156.931 151.03 156.665 150.582 156.483 150.372C156.735 150.218 157.155 149.812 157.155 149.224V143.162H158.163V150.134C158.163 150.134 157.015 150.904 157.015 151.296ZM170.357 141.02H174.613V150.176H170.357V149.224H173.633V141.958H170.357V141.02ZM169.727 141.02H170.707V151.296H169.727V141.02ZM170.287 144.912H174.151V145.85H170.287V144.912ZM171.869 138.738L173.003 138.948C172.723 139.816 172.373 140.782 172.093 141.412L171.253 141.202C171.491 140.53 171.757 139.466 171.869 138.738ZM176.601 140.978H180.899V141.958H176.601V140.978ZM180.535 140.978H181.515C181.515 140.978 181.515 141.37 181.515 141.524C181.291 147.95 181.095 150.12 180.535 150.806C180.227 151.212 179.905 151.338 179.415 151.38C178.939 151.436 178.113 151.408 177.329 151.366C177.301 151.058 177.175 150.624 176.979 150.344C177.889 150.414 178.729 150.428 179.051 150.428C179.331 150.428 179.499 150.386 179.653 150.204C180.115 149.7 180.339 147.376 180.535 141.202V140.978ZM176.895 138.71L177.903 138.948C177.385 141.034 176.559 143.092 175.593 144.422C175.411 144.254 174.977 143.96 174.725 143.82C175.677 142.588 176.447 140.656 176.895 138.71ZM176.251 144.618L177.063 144.142C177.861 145.136 178.827 146.494 179.275 147.32L178.379 147.88C177.959 147.026 177.021 145.64 176.251 144.618ZM188.179 139.438H194.661V140.292H188.179V139.438ZM188.011 143.316H194.913V144.184H188.011V143.316ZM188.011 145.262H194.885V146.13H188.011V145.262ZM188.417 150.12H194.493V150.988H188.417V150.12ZM186.863 141.37H195.977V142.252H186.863V141.37ZM187.871 147.208H195.039V151.604H193.989V148.062H188.879V151.646H187.871V147.208ZM186.387 138.808L187.381 139.116C186.429 141.482 184.931 143.834 183.377 145.388C183.279 145.15 182.985 144.604 182.789 144.352C184.203 143.022 185.575 140.936 186.387 138.808ZM184.931 142.42L185.925 141.426L185.939 141.44V151.618H184.931V142.42ZM200.709 147.88H201.745V150.19C201.745 150.554 201.871 150.624 202.627 150.624C202.963 150.624 204.727 150.624 205.189 150.624C205.791 150.624 205.889 150.456 205.945 149.266C206.183 149.434 206.617 149.588 206.897 149.644C206.757 151.198 206.449 151.576 205.287 151.576C204.965 151.576 202.851 151.576 202.543 151.576C201.073 151.576 200.709 151.282 200.709 150.204V147.88ZM202.151 147.39L202.921 146.844C203.747 147.39 204.671 148.202 205.091 148.832L204.265 149.42C203.873 148.804 202.963 147.95 202.151 147.39ZM206.673 148.146L207.513 147.628C208.521 148.482 209.627 149.7 210.075 150.596L209.179 151.184C208.745 150.302 207.695 149.042 206.673 148.146ZM198.791 147.768L199.715 148.104C199.365 149.196 198.819 150.428 197.895 151.184L197.041 150.582C197.895 149.91 198.483 148.79 198.791 147.768ZM200.317 142.7V143.862H206.869V142.7H200.317ZM200.317 144.674V145.836H206.869V144.674H200.317ZM200.317 140.754V141.902H206.869V140.754H200.317ZM199.309 139.914H207.919V146.69H199.309V139.914ZM203.033 138.626L204.251 138.836C203.971 139.438 203.635 139.998 203.397 140.404L202.459 140.18C202.669 139.732 202.907 139.074 203.033 138.626Z" fill="#2D3342"/>
<path d="M26.8114 155.266C26.397 155.198 16.3648 153.731 16.7827 143.498C16.8211 142.558 16.928 141.703 17.0942 140.927M26.8114 155.266C21.3127 154.867 18.5185 152.505 17.268 149.675M26.8114 155.266C27.4766 155.374 28.1627 155.365 28.8415 155.248M17.0942 140.927C17.3023 139.957 17.6033 139.111 17.979 138.382M17.0942 140.927C16.3451 143.203 15.953 146.698 17.268 149.675M17.979 138.382C21.059 132.399 29.1591 134.187 32.2435 138.382C33.4539 140.029 35.9904 144.207 34.7543 149.43C33.9794 152.704 31.4655 154.792 28.8415 155.248M17.979 138.382C16.807 140.187 15.1066 144.415 16.5604 148.249M17.268 149.675C16.9771 149.209 16.7437 148.732 16.5604 148.249M28.8415 155.248C25.3717 155.909 18.0577 155.436 16.5604 148.249" stroke="#6663CF" stroke-linecap="round"/>
<path d="M25.7607 178.569C25.078 178.569 24.4681 178.451 23.9312 178.216C23.3976 177.98 22.975 177.654 22.6634 177.236C22.3552 176.815 22.1895 176.328 22.1663 175.775H23.7273C23.7472 176.076 23.8483 176.338 24.0306 176.56C24.2162 176.779 24.4582 176.948 24.7565 177.067C25.0548 177.187 25.3862 177.246 25.7508 177.246C26.1518 177.246 26.5065 177.177 26.8147 177.037C27.1263 176.898 27.3699 176.704 27.5455 176.456C27.7212 176.204 27.809 175.914 27.809 175.586C27.809 175.244 27.7212 174.944 27.5455 174.686C27.3732 174.424 27.1196 174.219 26.7849 174.069C26.4534 173.92 26.0524 173.846 25.5817 173.846H24.7217V172.593H25.5817C25.9596 172.593 26.291 172.525 26.5761 172.389C26.8644 172.253 27.0898 172.064 27.2522 171.822C27.4146 171.577 27.4958 171.29 27.4958 170.962C27.4958 170.647 27.4246 170.374 27.282 170.142C27.1428 169.906 26.944 169.723 26.6854 169.59C26.4302 169.457 26.1286 169.391 25.7806 169.391C25.4492 169.391 25.1393 169.452 24.8509 169.575C24.5659 169.694 24.3339 169.867 24.1549 170.092C23.9759 170.314 23.8798 170.581 23.8665 170.893H22.38C22.3966 170.342 22.559 169.858 22.8673 169.441C23.1788 169.023 23.5898 168.697 24.1002 168.461C24.6106 168.226 25.1774 168.108 25.8005 168.108C26.4534 168.108 27.0169 168.236 27.4908 168.491C27.9681 168.743 28.336 169.08 28.5945 169.5C28.8564 169.921 28.9856 170.382 28.9823 170.883C28.9856 171.453 28.8265 171.937 28.505 172.334C28.1869 172.732 27.7626 172.999 27.2323 173.135V173.214C27.9085 173.317 28.4321 173.585 28.8033 174.02C29.1779 174.454 29.3635 174.992 29.3602 175.635C29.3635 176.196 29.2077 176.698 28.8928 177.142C28.5813 177.586 28.1554 177.936 27.6151 178.191C27.0749 178.443 26.4567 178.569 25.7607 178.569ZM32.3493 178.524C32.0775 178.524 31.8439 178.428 31.6483 178.236C31.4528 178.04 31.355 177.805 31.355 177.53C31.355 177.258 31.4528 177.026 31.6483 176.834C31.8439 176.638 32.0775 176.54 32.3493 176.54C32.6211 176.54 32.8548 176.638 33.0503 176.834C33.2459 177.026 33.3436 177.258 33.3436 177.53C33.3436 177.712 33.2972 177.879 33.2044 178.032C33.115 178.181 32.9956 178.3 32.8465 178.39C32.6973 178.479 32.5316 178.524 32.3493 178.524ZM144.129 176.763H148.469V177.771H144.129V176.763ZM143.737 167.985H148.959V178.835H147.895V168.979H144.759V178.933H143.737V167.985ZM139.761 167.859H140.811V179.535H139.761V167.859ZM137.017 170.813H143.261V171.793H137.017V170.813ZM139.705 171.163L140.447 171.429C139.789 173.599 138.501 176.189 137.241 177.533C137.129 177.239 136.863 176.819 136.681 176.567C137.857 175.363 139.145 173.095 139.705 171.163ZM142.449 166.809L143.163 167.621C141.665 168.181 139.369 168.587 137.451 168.811C137.395 168.573 137.269 168.223 137.143 167.985C139.005 167.733 141.231 167.313 142.449 166.809ZM140.727 172.073C141.175 172.521 142.799 174.425 143.163 174.887L142.519 175.741C142.071 174.999 140.713 173.207 140.195 172.591L140.727 172.073ZM175.209 167.607L175.909 166.977C176.665 167.621 177.631 168.559 178.079 169.147L177.337 169.903C176.889 169.287 175.965 168.293 175.209 167.607ZM174.271 171.065H176.917V172.101H174.271V171.065ZM176.105 179.017L175.895 177.967L176.189 177.519L178.975 175.559C179.059 175.853 179.213 176.273 179.339 176.497C176.707 178.429 176.301 178.737 176.105 179.017ZM176.105 179.017C176.007 178.751 175.713 178.275 175.503 178.051C175.783 177.869 176.315 177.393 176.315 176.763V171.065H177.365V177.729C177.365 177.729 176.105 178.597 176.105 179.017ZM179.619 167.089L180.501 166.711C181.047 167.453 181.621 168.433 181.831 169.091L180.865 169.511C180.683 168.853 180.137 167.831 179.619 167.089ZM184.491 166.683L185.583 167.033C185.121 168.069 184.575 169.231 184.113 170.015L183.175 169.679C183.623 168.881 184.183 167.593 184.491 166.683ZM180.039 170.435V172.983H184.799V170.435H180.039ZM179.031 169.497H185.863V173.935H179.031V169.497ZM180.809 173.697H181.873C181.677 176.497 181.117 178.471 178.457 179.563C178.331 179.325 178.037 178.947 177.799 178.765C180.235 177.841 180.655 176.105 180.809 173.697ZM183.119 173.613H184.155V177.953C184.155 178.317 184.211 178.373 184.561 178.373C184.715 178.373 185.499 178.373 185.695 178.373C186.031 178.373 186.101 178.163 186.129 176.651C186.353 176.833 186.773 177.001 187.067 177.071C186.969 178.891 186.703 179.367 185.807 179.367C185.597 179.367 184.617 179.367 184.407 179.367C183.371 179.367 183.119 179.045 183.119 177.967V173.613ZM189.349 167.537H193.367V175.895H189.349V174.915H192.387V168.503H189.349V167.537ZM189.363 171.163H192.807V172.115H189.363V171.163ZM195.271 167.271H199.989V168.251H195.271V167.271ZM195.271 170.673H199.989V171.639H195.271V170.673ZM195.187 174.117H199.961V175.069H195.187V174.117ZM188.775 167.537H189.755V177.197H188.775V167.537ZM199.597 167.271H200.647V178.177C200.647 178.835 200.479 179.157 200.031 179.339C199.583 179.507 198.813 179.521 197.609 179.521C197.553 179.241 197.385 178.779 197.231 178.499C198.127 178.527 199.009 178.513 199.261 178.513C199.513 178.499 199.597 178.415 199.597 178.163V167.271ZM194.655 167.271H195.691V172.269C195.691 174.621 195.341 177.715 192.821 179.647C192.667 179.437 192.275 179.073 192.051 178.933C194.417 177.113 194.655 174.453 194.655 172.269V167.271Z" fill="#2D3342"/>
<path d="M43.5772 178.429V168.248H47.5942C48.3665 168.248 49.0244 168.395 49.568 168.69C50.1115 168.982 50.5258 169.388 50.8109 169.908C51.0992 170.425 51.2434 171.022 51.2434 171.698C51.2434 172.374 51.0976 172.971 50.8059 173.488C50.5142 174.005 50.0916 174.407 49.5381 174.696C48.988 174.984 48.3218 175.128 47.5396 175.128H44.9792V173.403H47.1916C47.6058 173.403 47.9472 173.332 48.2157 173.189C48.4875 173.044 48.6897 172.843 48.8222 172.588C48.9581 172.329 49.0261 172.033 49.0261 171.698C49.0261 171.36 48.9581 171.065 48.8222 170.813C48.6897 170.558 48.4875 170.361 48.2157 170.221C47.9439 170.079 47.5992 170.008 47.1816 170.008H45.7299V178.429H43.5772ZM52.6417 178.429V168.248H56.6587C57.4276 168.248 58.0839 168.385 58.6275 168.66C59.1743 168.932 59.5903 169.318 59.8753 169.819C60.1637 170.316 60.3079 170.901 60.3079 171.574C60.3079 172.25 60.162 172.831 59.8704 173.319C59.5787 173.803 59.1561 174.174 58.6026 174.432C58.0524 174.691 57.3862 174.82 56.604 174.82H53.9144V173.09H56.256C56.667 173.09 57.0084 173.034 57.2802 172.921C57.5519 172.808 57.7541 172.639 57.8867 172.414C58.0226 172.188 58.0905 171.908 58.0905 171.574C58.0905 171.236 58.0226 170.951 57.8867 170.719C57.7541 170.486 57.5503 170.311 57.2752 170.192C57.0034 170.069 56.6604 170.008 56.2461 170.008H54.7944V178.429H52.6417ZM58.1402 173.796L60.6708 178.429H58.2944L55.8185 173.796H58.1402ZM71.1857 173.339C71.1857 174.449 70.9752 175.393 70.5543 176.172C70.1367 176.951 69.5666 177.546 68.8441 177.957C68.1248 178.365 67.3161 178.569 66.4179 178.569C65.5131 178.569 64.7011 178.363 63.9819 177.952C63.2626 177.541 62.6942 176.946 62.2766 176.167C61.859 175.388 61.6502 174.446 61.6502 173.339C61.6502 172.228 61.859 171.284 62.2766 170.505C62.6942 169.726 63.2626 169.133 63.9819 168.725C64.7011 168.314 65.5131 168.108 66.4179 168.108C67.3161 168.108 68.1248 168.314 68.8441 168.725C69.5666 169.133 70.1367 169.726 70.5543 170.505C70.9752 171.284 71.1857 172.228 71.1857 173.339ZM69.0032 173.339C69.0032 172.619 68.8954 172.013 68.68 171.519C68.4679 171.025 68.1679 170.651 67.7802 170.395C67.3924 170.14 66.9383 170.013 66.4179 170.013C65.8976 170.013 65.4435 170.14 65.0557 170.395C64.6679 170.651 64.3663 171.025 64.1509 171.519C63.9388 172.013 63.8327 172.619 63.8327 173.339C63.8327 174.058 63.9388 174.664 64.1509 175.158C64.3663 175.652 64.6679 176.027 65.0557 176.282C65.4435 176.537 65.8976 176.665 66.4179 176.665C66.9383 176.665 67.3924 176.537 67.7802 176.282C68.1679 176.027 68.4679 175.652 68.68 175.158C68.8954 174.664 69.0032 174.058 69.0032 173.339ZM81.764 171.812H79.5864C79.5467 171.531 79.4655 171.28 79.3428 171.062C79.2202 170.839 79.0628 170.651 78.8705 170.495C78.6783 170.339 78.4562 170.22 78.2043 170.137C77.9558 170.054 77.6856 170.013 77.394 170.013C76.867 170.013 76.4079 170.143 76.0168 170.405C75.6257 170.664 75.3225 171.042 75.107 171.539C74.8916 172.033 74.7839 172.633 74.7839 173.339C74.7839 174.064 74.8916 174.674 75.107 175.168C75.3258 175.662 75.6307 176.035 76.0218 176.287C76.4129 176.539 76.8653 176.665 77.3791 176.665C77.6674 176.665 77.9342 176.626 78.1795 176.55C78.4281 176.474 78.6485 176.363 78.8407 176.217C79.0329 176.068 79.192 175.887 79.318 175.675C79.4472 175.463 79.5367 175.221 79.5864 174.949L81.764 174.959C81.7076 175.427 81.5668 175.877 81.3414 176.312C81.1193 176.742 80.8194 177.129 80.4416 177.47C80.067 177.808 79.6196 178.076 79.0992 178.275C78.5822 178.471 77.9972 178.569 77.3442 178.569C76.4361 178.569 75.6241 178.363 74.9082 177.952C74.1956 177.541 73.6321 176.946 73.2178 176.167C72.8068 175.388 72.6014 174.446 72.6014 173.339C72.6014 172.228 72.8102 171.284 73.2278 170.505C73.6454 169.726 74.2121 169.133 74.9281 168.725C75.644 168.314 76.4494 168.108 77.3442 168.108C77.9342 168.108 78.4811 168.191 78.9849 168.357C79.492 168.523 79.9411 168.765 80.3322 169.083C80.7233 169.398 81.0415 169.784 81.2867 170.241C81.5353 170.699 81.6944 171.222 81.764 171.812ZM82.9199 170.022V168.248H91.2821V170.022H88.1649V178.429H86.0371V170.022H82.9199ZM101.551 173.339C101.551 174.449 101.34 175.393 100.92 176.172C100.502 176.951 99.9318 177.546 99.2093 177.957C98.4901 178.365 97.6814 178.569 96.7832 178.569C95.8783 178.569 95.0663 178.363 94.3471 177.952C93.6279 177.541 93.0594 176.946 92.6418 176.167C92.2242 175.388 92.0154 174.446 92.0154 173.339C92.0154 172.228 92.2242 171.284 92.6418 170.505C93.0594 169.726 93.6279 169.133 94.3471 168.725C95.0663 168.314 95.8783 168.108 96.7832 168.108C97.6814 168.108 98.4901 168.314 99.2093 168.725C99.9318 169.133 100.502 169.726 100.92 170.505C101.34 171.284 101.551 172.228 101.551 173.339ZM99.3684 173.339C99.3684 172.619 99.2607 172.013 99.0452 171.519C98.8331 171.025 98.5332 170.651 98.1454 170.395C97.7576 170.14 97.3035 170.013 96.7832 170.013C96.2628 170.013 95.8087 170.14 95.421 170.395C95.0332 170.651 94.7316 171.025 94.5161 171.519C94.304 172.013 94.1979 172.619 94.1979 173.339C94.1979 174.058 94.304 174.664 94.5161 175.158C94.7316 175.652 95.0332 176.027 95.421 176.282C95.8087 176.537 96.2628 176.665 96.7832 176.665C97.3035 176.665 97.7576 176.537 98.1454 176.282C98.5332 176.027 98.8331 175.652 99.0452 175.158C99.2607 174.664 99.3684 174.058 99.3684 173.339ZM103.146 178.429V168.248H107.163C107.932 168.248 108.588 168.385 109.131 168.66C109.678 168.932 110.094 169.318 110.379 169.819C110.668 170.316 110.812 170.901 110.812 171.574C110.812 172.25 110.666 172.831 110.374 173.319C110.083 173.803 109.66 174.174 109.107 174.432C108.556 174.691 107.89 174.82 107.108 174.82H104.418V173.09H106.76C107.171 173.09 107.512 173.034 107.784 172.921C108.056 172.808 108.258 172.639 108.391 172.414C108.526 172.188 108.594 171.908 108.594 171.574C108.594 171.236 108.526 170.951 108.391 170.719C108.258 170.486 108.054 170.311 107.779 170.192C107.507 170.069 107.164 170.008 106.75 170.008H105.298V178.429H103.146ZM108.644 173.796L111.175 178.429H108.798L106.322 173.796H108.644ZM114.486 168.248V178.429H112.333V168.248H114.486ZM124.773 168.248V178.429H122.914L118.484 172.021H118.41V178.429H116.257V168.248H118.146L122.541 174.651H122.63V168.248H124.773ZM133.303 171.539C133.234 171.297 133.136 171.083 133.01 170.897C132.884 170.709 132.73 170.549 132.548 170.42C132.369 170.288 132.163 170.187 131.931 170.117C131.702 170.047 131.449 170.013 131.17 170.013C130.65 170.013 130.193 170.142 129.798 170.4C129.407 170.659 129.102 171.035 128.883 171.529C128.665 172.019 128.555 172.619 128.555 173.329C128.555 174.038 128.663 174.641 128.879 175.138C129.094 175.635 129.399 176.015 129.793 176.277C130.188 176.535 130.653 176.665 131.19 176.665C131.678 176.665 132.093 176.578 132.438 176.406C132.786 176.23 133.051 175.983 133.234 175.665C133.419 175.347 133.512 174.971 133.512 174.537L133.95 174.601H131.325V172.981H135.585V174.263C135.585 175.158 135.396 175.927 135.018 176.57C134.641 177.21 134.12 177.704 133.457 178.052C132.794 178.396 132.035 178.569 131.18 178.569C130.226 178.569 129.387 178.358 128.665 177.937C127.942 177.513 127.379 176.911 126.974 176.133C126.573 175.35 126.373 174.422 126.373 173.348C126.373 172.523 126.492 171.787 126.731 171.141C126.973 170.491 127.311 169.941 127.745 169.491C128.179 169.04 128.685 168.697 129.261 168.461C129.838 168.226 130.463 168.108 131.136 168.108C131.712 168.108 132.249 168.193 132.746 168.362C133.244 168.528 133.684 168.763 134.069 169.068C134.457 169.373 134.773 169.736 135.018 170.157C135.264 170.574 135.421 171.035 135.491 171.539H133.303ZM153.355 168.248V178.429H151.202V168.248H153.355ZM154.738 170.022V168.248H163.1V170.022H159.983V178.429H157.855V170.022H154.738ZM172.996 171.812H170.819C170.779 171.531 170.698 171.28 170.575 171.062C170.453 170.839 170.295 170.651 170.103 170.495C169.911 170.339 169.689 170.22 169.437 170.137C169.188 170.054 168.918 170.013 168.626 170.013C168.099 170.013 167.64 170.143 167.249 170.405C166.858 170.664 166.555 171.042 166.339 171.539C166.124 172.033 166.016 172.633 166.016 173.339C166.016 174.064 166.124 174.674 166.339 175.168C166.558 175.662 166.863 176.035 167.254 176.287C167.645 176.539 168.098 176.665 168.611 176.665C168.9 176.665 169.167 176.626 169.412 176.55C169.66 176.474 169.881 176.363 170.073 176.217C170.265 176.068 170.424 175.887 170.55 175.675C170.68 175.463 170.769 175.221 170.819 174.949L172.996 174.959C172.94 175.427 172.799 175.877 172.574 176.312C172.352 176.742 172.052 177.129 171.674 177.47C171.299 177.808 170.852 178.076 170.332 178.275C169.815 178.471 169.23 178.569 168.577 178.569C167.669 178.569 166.857 178.363 166.141 177.952C165.428 177.541 164.865 176.946 164.45 176.167C164.039 175.388 163.834 174.446 163.834 173.339C163.834 172.228 164.043 171.284 164.46 170.505C164.878 169.726 165.445 169.133 166.16 168.725C166.876 168.314 167.682 168.108 168.577 168.108C169.167 168.108 169.714 168.191 170.217 168.357C170.724 168.523 171.173 168.765 171.565 169.083C171.956 169.398 172.274 169.784 172.519 170.241C172.768 170.699 172.927 171.222 172.996 171.812Z" fill="#6663CF"/>
<path d="M27.8195 183.17C27.3665 183.102 16.3988 181.635 16.8557 171.402C16.8976 170.462 17.0146 169.606 17.1963 168.831M27.8195 183.17C21.8081 182.771 18.7534 180.409 17.3863 177.579M27.8195 183.17C28.5468 183.278 29.2969 183.269 30.0389 183.151M17.1963 168.831C17.4238 167.861 17.7528 167.015 18.1636 166.285M17.1963 168.831C16.3773 171.106 15.9486 174.602 17.3863 177.579M18.1636 166.285C21.5308 160.303 30.3862 162.09 33.7582 166.285C35.0814 167.933 37.8545 172.111 36.5031 177.334C35.656 180.608 32.9076 182.696 30.0389 183.151M18.1636 166.285C16.8823 168.091 15.0233 172.319 16.6126 176.153M17.3863 177.579C17.0682 177.113 16.813 176.636 16.6126 176.153M30.0389 183.151C26.2455 183.813 18.2496 183.34 16.6126 176.153" stroke="#6663CF" stroke-linecap="round"/>
<path d="M25.716 234.376C25.0929 234.376 24.5327 234.257 24.0356 234.018C23.5417 233.776 23.1473 233.445 22.8523 233.024C22.5574 232.603 22.3999 232.122 22.38 231.582H23.8715C23.908 232.02 24.1019 232.379 24.4532 232.661C24.8045 232.943 25.2255 233.084 25.716 233.084C26.1071 233.084 26.4534 232.994 26.755 232.815C27.06 232.633 27.2986 232.383 27.471 232.064C27.6466 231.746 27.7344 231.383 27.7344 230.976C27.7344 230.561 27.645 230.192 27.466 229.867C27.287 229.542 27.0401 229.287 26.7252 229.101C26.4137 228.916 26.0557 228.821 25.6514 228.818C25.3431 228.818 25.0332 228.871 24.7217 228.977C24.4101 229.083 24.1582 229.222 23.966 229.395L22.559 229.186L23.1308 224.055H28.7288V225.373H24.4085L24.0853 228.221H24.145C24.3438 228.029 24.6073 227.868 24.9354 227.739C25.2669 227.61 25.6215 227.545 25.9994 227.545C26.6192 227.545 27.171 227.693 27.6549 227.988C28.1421 228.283 28.5249 228.685 28.8033 229.196C29.0851 229.703 29.2243 230.286 29.221 230.946C29.2243 231.605 29.0751 232.194 28.7735 232.711C28.4752 233.228 28.0609 233.635 27.5306 233.934C27.0036 234.229 26.3987 234.376 25.716 234.376ZM32.3493 234.332C32.0775 234.332 31.8439 234.235 31.6483 234.043C31.4528 233.848 31.355 233.612 31.355 233.337C31.355 233.065 31.4528 232.833 31.6483 232.641C31.8439 232.446 32.0775 232.348 32.3493 232.348C32.6211 232.348 32.8548 232.446 33.0503 232.641C33.2459 232.833 33.3436 233.065 33.3436 233.337C33.3436 233.519 33.2972 233.687 33.2044 233.839C33.115 233.988 32.9956 234.108 32.8465 234.197C32.6973 234.287 32.5316 234.332 32.3493 234.332ZM49.3283 229.295H50.3923V235.371H49.3283V229.295ZM47.0743 227.377V228.735H52.3663V227.377H47.0743ZM46.0523 226.579H53.4443V229.547H46.0523V226.579ZM44.8063 230.709H54.1863V231.661H45.8563V234.727H44.8063V230.709ZM53.6683 230.709H54.7323V233.635C54.7323 234.181 54.6203 234.475 54.1863 234.629C53.7383 234.797 53.0243 234.797 51.9323 234.797C51.8763 234.517 51.7223 234.125 51.5683 233.845C52.4083 233.873 53.1643 233.873 53.3883 233.859C53.5983 233.845 53.6683 233.789 53.6683 233.635V230.709ZM49.2303 222.477H50.3083V225.025H49.2303V222.477ZM43.8823 224.647H55.5863V227.671H54.5363V225.585H44.9043V227.671H43.8823V224.647ZM45.0443 222.995L45.9823 222.617C46.4443 223.121 46.9343 223.793 47.1723 224.255L46.1643 224.717C45.9543 224.241 45.4783 223.513 45.0443 222.995ZM53.3603 222.589L54.4523 222.967C53.9903 223.583 53.4583 224.227 53.0383 224.661L52.1843 224.311C52.5763 223.849 53.0943 223.093 53.3603 222.589ZM63.9303 230.079H64.9663V233.551C64.9663 233.971 65.0923 234.041 65.7923 234.041C66.1143 234.041 67.7103 234.041 68.1443 234.041C68.8023 234.041 68.9143 233.775 68.9703 231.899C69.2223 232.081 69.6563 232.235 69.9363 232.305C69.8103 234.489 69.5023 235.021 68.2143 235.021C67.9063 235.021 66.0023 235.021 65.7083 235.021C64.3363 235.021 63.9303 234.727 63.9303 233.551V230.079ZM63.0063 225.627H64.1123C63.9583 230.947 63.5943 233.985 57.9383 235.371C57.8403 235.105 57.5463 234.685 57.3363 234.461C62.6983 233.257 62.8943 230.583 63.0063 225.627ZM59.1703 223.261H68.1583V231.269H67.0383V224.325H60.2623V231.269H59.1703V223.261ZM71.9803 225.641H73.0163V235.371H71.9803V225.641ZM72.1343 223.163L72.9043 222.673C73.6043 223.359 74.5563 224.353 75.0183 224.941L74.2203 225.515C73.7583 224.913 72.8483 223.905 72.1343 223.163ZM75.6623 223.275H83.0543V224.255H75.6623V223.275ZM82.3403 223.275H83.3903V233.901C83.3903 234.573 83.2223 234.895 82.7883 235.077C82.3403 235.245 81.5843 235.273 80.4363 235.259C80.3943 234.965 80.2263 234.489 80.0863 234.195C80.9263 234.237 81.7803 234.223 82.0043 234.223C82.2563 234.209 82.3403 234.125 82.3403 233.887V223.275ZM75.7183 226.733H80.1143V231.885H75.7183V230.933H79.0923V227.685H75.7183V226.733ZM75.1863 226.733H76.1523V232.795H75.1863V226.733ZM87.1423 225.627V226.691H90.0123V225.627H87.1423ZM87.1423 223.835V224.885H90.0123V223.835H87.1423ZM86.2043 223.079H90.9923V227.475H86.2043V223.079ZM85.3643 228.511H91.7063V229.323H85.3643V228.511ZM91.6783 223.121H98.0623V223.989H91.6783V223.121ZM88.2063 228.777H89.1163V234.111L88.2063 233.565V228.777ZM88.6263 230.835H91.4403V231.633H88.6263V230.835ZM94.3523 223.415L95.4163 223.625C95.1363 224.353 94.8423 225.137 94.5903 225.669L93.7503 225.459C93.9603 224.885 94.2263 224.017 94.3523 223.415ZM87.0303 231.465C88.0103 233.873 90.1803 234.181 93.2883 234.181C93.9183 234.181 97.3623 234.181 98.1743 234.153C98.0203 234.377 97.8383 234.783 97.7963 235.063H93.2743C89.7603 235.063 87.5203 234.601 86.3863 231.703L87.0303 231.465ZM92.2383 225.333H97.3763V231.185H96.4523V226.131H93.1343V231.227H92.2383V225.333ZM86.4143 230.023L87.3103 230.079C87.2123 232.333 86.8623 234.111 85.9103 235.329C85.7563 235.203 85.3643 234.937 85.1543 234.811C86.0923 233.719 86.3443 232.039 86.4143 230.023ZM94.4083 226.817H95.3043C95.2063 230.765 94.8003 232.809 91.6083 233.859C91.5103 233.663 91.2863 233.327 91.0903 233.173C94.0303 232.235 94.3243 230.457 94.4083 226.817ZM94.8983 231.647L95.5143 231.087C96.3823 231.675 97.4883 232.557 98.0343 233.145L97.4043 233.789C96.8583 233.201 95.7803 232.277 94.8983 231.647Z" fill="#2D3342"/>
<path d="M27.8195 238.977C27.3665 238.909 16.3989 237.442 16.8557 227.209C16.8976 226.269 17.0146 225.414 17.1963 224.639M27.8195 238.977C21.8081 238.579 18.7534 236.217 17.3863 233.386M27.8195 238.977C28.5468 239.085 29.2969 239.077 30.0389 238.959M17.1963 224.639C17.4238 223.668 17.7529 222.823 18.1636 222.093M17.1963 224.639C16.3773 226.914 15.9486 230.409 17.3863 233.386M18.1636 222.093C21.5308 216.11 30.3862 217.898 33.7582 222.093C35.0814 223.74 37.8545 227.919 36.5031 233.141C35.656 236.415 32.9076 238.503 30.0389 238.959M18.1636 222.093C16.8823 223.898 15.0233 228.126 16.6126 231.96M17.3863 233.386C17.0682 232.921 16.813 232.444 16.6126 231.96M30.0389 238.959C26.2455 239.621 18.2496 239.148 16.6126 231.96" stroke="#6663CF" stroke-linecap="round"/>
<path d="M21.9065 204.345V203.102L26.3064 196.151H27.2858V197.981H26.6643L23.5173 202.963V203.042H29.5478V204.345H21.9065ZM26.7339 206.333V203.967L26.7439 203.4V196.151H28.2005V206.333H26.7339ZM32.3493 206.428C32.0775 206.428 31.8439 206.332 31.6483 206.139C31.4528 205.944 31.355 205.708 31.355 205.433C31.355 205.162 31.4528 204.93 31.6483 204.737C31.8439 204.542 32.0775 204.444 32.3493 204.444C32.6211 204.444 32.8548 204.542 33.0503 204.737C33.2459 204.93 33.3436 205.162 33.3436 205.433C33.3436 205.616 33.2972 205.783 33.2044 205.936C33.115 206.085 32.9956 206.204 32.8465 206.293C32.6973 206.383 32.5316 206.428 32.3493 206.428ZM43.9803 197.737H45.0163V207.467H43.9803V197.737ZM44.1343 195.259L44.9043 194.769C45.6043 195.455 46.5563 196.449 47.0183 197.037L46.2203 197.611C45.7583 197.009 44.8483 196.001 44.1343 195.259ZM47.6623 195.371H55.0543V196.351H47.6623V195.371ZM54.3403 195.371H55.3903V205.997C55.3903 206.669 55.2223 206.991 54.7883 207.173C54.3403 207.341 53.5843 207.369 52.4363 207.355C52.3943 207.061 52.2263 206.585 52.0863 206.291C52.9263 206.333 53.7803 206.319 54.0043 206.319C54.2563 206.305 54.3403 206.221 54.3403 205.983V195.371ZM47.7183 198.829H52.1143V203.981H47.7183V203.029H51.0923V199.781H47.7183V198.829ZM47.1863 198.829H48.1523V204.891H47.1863V198.829ZM59.1423 197.723V198.787H62.0123V197.723H59.1423ZM59.1423 195.931V196.981H62.0123V195.931H59.1423ZM58.2043 195.175H62.9923V199.571H58.2043V195.175ZM57.3643 200.607H63.7063V201.419H57.3643V200.607ZM63.6783 195.217H70.0623V196.085H63.6783V195.217ZM60.2063 200.873H61.1163V206.207L60.2063 205.661V200.873ZM60.6263 202.931H63.4403V203.729H60.6263V202.931ZM66.3523 195.511L67.4163 195.721C67.1363 196.449 66.8423 197.233 66.5903 197.765L65.7503 197.555C65.9603 196.981 66.2263 196.113 66.3523 195.511ZM59.0303 203.561C60.0103 205.969 62.1803 206.277 65.2883 206.277C65.9183 206.277 69.3623 206.277 70.1743 206.249C70.0203 206.473 69.8383 206.879 69.7963 207.159H65.2743C61.7603 207.159 59.5203 206.697 58.3863 203.799L59.0303 203.561ZM64.2383 197.429H69.3763V203.281H68.4523V198.227H65.1343V203.323H64.2383V197.429ZM58.4143 202.119L59.3103 202.175C59.2123 204.429 58.8623 206.207 57.9103 207.425C57.7563 207.299 57.3643 207.033 57.1543 206.907C58.0923 205.815 58.3443 204.135 58.4143 202.119ZM66.4083 198.913H67.3043C67.2063 202.861 66.8003 204.905 63.6083 205.955C63.5103 205.759 63.2863 205.423 63.0903 205.269C66.0303 204.331 66.3243 202.553 66.4083 198.913ZM66.8983 203.743L67.5143 203.183C68.3823 203.771 69.4883 204.653 70.0343 205.241L69.4043 205.885C68.8583 205.297 67.7803 204.373 66.8983 203.743ZM77.6923 198.731C77.1183 198.731 76.6283 198.311 76.6283 197.681C76.6283 197.037 77.1183 196.617 77.6923 196.617C78.2523 196.617 78.7423 197.037 78.7423 197.681C78.7423 198.311 78.2523 198.731 77.6923 198.731ZM77.6923 205.577C77.1183 205.577 76.6283 205.171 76.6283 204.527C76.6283 203.883 77.1183 203.477 77.6923 203.477C78.2523 203.477 78.7423 203.883 78.7423 204.527C78.7423 205.171 78.2523 205.577 77.6923 205.577ZM85.5603 196.743H97.8243V197.765H85.5603V196.743ZM89.9003 201.181H97.2783V202.161H89.9003V201.181ZM89.3543 206.137H97.8243V207.131H89.3543V206.137ZM93.0643 198.479H94.1143V206.669H93.0643V198.479ZM90.1663 194.573L91.2443 194.839C90.2643 198.045 88.5563 201.307 85.7703 203.309C85.6583 203.029 85.3923 202.581 85.2243 202.343C87.7443 200.565 89.3823 197.457 90.1663 194.573ZM87.3943 200.341H88.4443V207.411H87.3943V200.341ZM100.246 195.553H102.794V203.911H100.246V202.959H101.94V196.519H100.246V195.553ZM99.6863 195.553H100.54V205.059H99.6863V195.553ZM103.228 195.259H106.952V196.169H103.228V195.259ZM103.396 198.577H107.848V199.487H103.396V198.577ZM103.284 201.937H107.862V202.833H103.284V201.937ZM106.504 195.259H107.4C107.4 195.259 107.4 195.665 107.386 195.791C107.358 203.757 107.358 206.235 107.008 206.851C106.784 207.243 106.546 207.341 106.196 207.397C105.846 207.439 105.384 207.439 104.88 207.411C104.866 207.145 104.782 206.739 104.642 206.473C105.146 206.501 105.58 206.501 105.804 206.501C105.986 206.515 106.084 206.473 106.196 206.235C106.448 205.773 106.49 203.267 106.504 195.525V195.259ZM104.446 195.693H105.328V199.417C105.328 201.811 105.048 205.213 103.046 207.495C102.934 207.299 102.598 206.963 102.416 206.837C104.264 204.681 104.446 201.671 104.446 199.403V195.693ZM108.324 195.259H111.32V196.141H109.234V207.467H108.324V195.259ZM111.054 195.259H111.222L111.348 195.231L112.006 195.595C111.628 196.939 111.11 198.675 110.662 199.963C111.628 201.279 111.838 202.413 111.852 203.407C111.852 204.233 111.712 204.891 111.334 205.185C111.152 205.325 110.914 205.409 110.648 205.437C110.396 205.465 110.102 205.479 109.822 205.465C109.808 205.213 109.738 204.821 109.584 204.555C109.864 204.583 110.102 204.583 110.298 204.569C110.452 204.569 110.592 204.513 110.704 204.415C110.914 204.247 110.97 203.785 110.97 203.281C110.97 202.399 110.76 201.321 109.794 200.061C110.284 198.605 110.774 196.631 111.054 195.567V195.259ZM115.884 198.731V200.509H123.64V198.731H115.884ZM115.884 196.085V197.835H123.64V196.085H115.884ZM114.848 195.133H124.732V201.461H114.848V195.133ZM113.448 206.081H125.95V207.061H113.448V206.081ZM114.386 203.071H125.194V204.065H114.386V203.071ZM119.23 195.735H120.238V201.307H120.294V206.641H119.174V201.307H119.23V195.735ZM134.504 204.667H138.844V205.675H134.504V204.667ZM134.112 195.889H139.334V206.739H138.27V196.883H135.134V206.837H134.112V195.889ZM130.136 195.763H131.186V207.439H130.136V195.763ZM127.392 198.717H133.636V199.697H127.392V198.717ZM130.08 199.067L130.822 199.333C130.164 201.503 128.876 204.093 127.616 205.437C127.504 205.143 127.238 204.723 127.056 204.471C128.232 203.267 129.52 200.999 130.08 199.067ZM132.824 194.713L133.538 195.525C132.04 196.085 129.744 196.491 127.826 196.715C127.77 196.477 127.644 196.127 127.518 195.889C129.38 195.637 131.606 195.217 132.824 194.713ZM131.102 199.977C131.55 200.425 133.174 202.329 133.538 202.791L132.894 203.645C132.446 202.903 131.088 201.111 130.57 200.495L131.102 199.977ZM142.064 196.995H152.718V198.031H143.1V207.453H142.064V196.995ZM152.326 196.995H153.376V206.067C153.376 206.753 153.222 207.103 152.732 207.271C152.228 207.439 151.346 207.467 150.072 207.467C150.016 207.159 149.862 206.669 149.694 206.375C150.716 206.417 151.682 206.417 151.976 206.403C152.256 206.389 152.326 206.319 152.326 206.053V196.995ZM146.824 194.545L148.126 194.769C147.692 195.763 147.16 196.897 146.74 197.639L145.732 197.401C146.124 196.617 146.586 195.399 146.824 194.545ZM144.948 199.879H145.914V205.521H144.948V199.879ZM145.396 199.879H150.436V204.513H145.396V203.575H149.456V200.831H145.396V199.879ZM161.23 199.837H167.39V200.789H161.23V199.837ZM161.23 202.595H167.39V203.547H161.23V202.595ZM161.216 205.479H168.104V206.459H161.216V205.479ZM164.17 197.443H165.164V206.011H164.17V197.443ZM161.678 197.107H167.712V198.073H161.678V207.467H160.67V197.765L161.3 197.107H161.678ZM161.79 194.657L162.826 194.937C162.14 196.827 161.006 199.011 159.662 200.439C159.508 200.215 159.214 199.837 159.004 199.655C160.236 198.353 161.272 196.295 161.79 194.657ZM163.652 195.077L164.534 194.713C164.94 195.315 165.346 196.127 165.5 196.659L164.576 197.079C164.422 196.533 164.044 195.693 163.652 195.077ZM156.162 195.525L156.848 194.895C157.604 195.511 158.556 196.407 159.004 196.995L158.276 197.723C157.842 197.121 156.904 196.183 156.162 195.525ZM157.128 207.061L156.932 206.095L157.184 205.661L159.704 203.743C159.802 204.009 159.984 204.415 160.11 204.611C157.716 206.487 157.352 206.781 157.128 207.061ZM155.294 198.969H157.772V199.991H155.294V198.969ZM157.128 207.061C157.016 206.865 156.666 206.515 156.47 206.347C156.764 206.123 157.268 205.577 157.268 204.835V198.969H158.276V205.563C158.276 205.563 157.128 206.641 157.128 207.061Z" fill="#2D3342"/>
<path d="M27.8195 211.073C27.3665 211.006 16.3988 209.538 16.8557 199.306C16.8976 198.366 17.0146 197.51 17.1963 196.735M27.8195 211.073C21.8081 210.675 18.7534 208.313 17.3863 205.482M27.8195 211.073C28.5468 211.182 29.2969 211.173 30.0389 211.055M17.1963 196.735C17.4238 195.764 17.7528 194.919 18.1636 194.189M17.1963 196.735C16.3773 199.01 15.9486 202.506 17.3863 205.482M18.1636 194.189C21.5308 188.207 30.3862 189.994 33.7582 194.189C35.0814 195.837 37.8545 200.015 36.5031 205.238C35.656 208.512 32.9076 210.6 30.0389 211.055M18.1636 194.189C16.8823 195.995 15.0233 200.222 16.6126 204.057M17.3863 205.482C17.0682 205.017 16.813 204.54 16.6126 204.057M30.0389 211.055C26.2455 211.717 18.2496 211.244 16.6126 204.057" stroke="#6663CF" stroke-linecap="round"/>
<path d="M25.8204 262.28C25.3663 262.273 24.9189 262.191 24.4781 262.031C24.0406 261.872 23.6428 261.607 23.2849 261.236C22.9269 260.865 22.6402 260.366 22.4248 259.74C22.2127 259.113 22.1066 258.331 22.1066 257.393C22.1066 256.505 22.1944 255.716 22.3701 255.027C22.5491 254.337 22.8059 253.755 23.1407 253.281C23.4755 252.804 23.8798 252.441 24.3538 252.193C24.8277 251.944 25.3597 251.82 25.9496 251.82C26.5562 251.82 27.0948 251.939 27.5654 252.178C28.0361 252.416 28.4172 252.746 28.7089 253.167C29.0039 253.588 29.1911 254.067 29.2707 254.604H27.7543C27.6516 254.18 27.4478 253.833 27.1428 253.565C26.8379 253.296 26.4402 253.162 25.9496 253.162C25.2039 253.162 24.6222 253.487 24.2046 254.137C23.7903 254.786 23.5815 255.689 23.5782 256.846H23.6528C23.8284 256.558 24.0439 256.313 24.2991 256.11C24.5576 255.905 24.846 255.747 25.1641 255.638C25.4856 255.525 25.8237 255.469 26.1783 255.469C26.7683 255.469 27.3019 255.613 27.7792 255.902C28.2598 256.187 28.6426 256.581 28.9276 257.085C29.2127 257.589 29.3552 258.165 29.3552 258.815C29.3552 259.464 29.2077 260.053 28.9127 260.58C28.621 261.107 28.2101 261.524 27.6798 261.833C27.1495 262.138 26.5297 262.287 25.8204 262.28ZM25.8154 260.987C26.2065 260.987 26.5562 260.891 26.8644 260.699C27.1727 260.507 27.4163 260.248 27.5952 259.924C27.7742 259.599 27.8637 259.236 27.8637 258.835C27.8637 258.444 27.7759 258.087 27.6002 257.766C27.4279 257.444 27.1892 257.189 26.8843 257C26.5827 256.811 26.238 256.717 25.8502 256.717C25.5552 256.717 25.2818 256.773 25.0299 256.886C24.7813 256.999 24.5626 257.154 24.3737 257.353C24.1847 257.552 24.0356 257.781 23.9262 258.039C23.8201 258.295 23.7671 258.565 23.7671 258.85C23.7671 259.231 23.8549 259.584 24.0306 259.909C24.2096 260.233 24.4532 260.495 24.7614 260.694C25.073 260.89 25.4243 260.987 25.8154 260.987ZM32.3493 262.235C32.0775 262.235 31.8439 262.139 31.6483 261.947C31.4528 261.751 31.355 261.516 31.355 261.241C31.355 260.969 31.4528 260.737 31.6483 260.545C31.8439 260.349 32.0775 260.252 32.3493 260.252C32.6211 260.252 32.8548 260.349 33.0503 260.545C33.2459 260.737 33.3436 260.969 33.3436 261.241C33.3436 261.423 33.2972 261.591 33.2044 261.743C33.115 261.892 32.9956 262.012 32.8465 262.101C32.6973 262.191 32.5316 262.235 32.3493 262.235ZM68.1373 262.001H76.2433V262.967H68.1373V262.001ZM70.0973 254.665H74.6753V255.617H70.0973V254.665ZM70.1113 258.305H74.6893V259.257H70.1113V258.305ZM69.5513 251.081H75.0253V262.491H73.9753V252.047H70.5453V262.491H69.5513V251.081ZM63.8253 259.593C63.7833 259.397 63.6153 258.921 63.5033 258.669C63.8113 258.599 64.1613 258.249 64.6233 257.745C65.1273 257.241 66.7093 255.267 67.7873 253.349L68.6273 253.867C67.4093 255.813 65.9533 257.703 64.5253 259.061V259.075C64.5253 259.075 63.8253 259.383 63.8253 259.593ZM63.8253 259.593L63.7833 258.781L64.2873 258.417L68.4313 257.647C68.4033 257.927 68.4173 258.319 68.4313 258.515C64.6233 259.299 64.1193 259.425 63.8253 259.593ZM63.7273 256.233C63.6713 256.023 63.5173 255.519 63.4053 255.253C63.6573 255.183 63.9093 254.861 64.2313 254.385C64.5813 253.909 65.6733 252.089 66.3033 250.381L67.2693 250.829C66.4713 252.579 65.4213 254.399 64.3713 255.659V255.687C64.3713 255.687 63.7273 256.023 63.7273 256.233ZM63.7273 256.233L63.7133 255.463L64.2033 255.141L67.0033 254.847C66.9613 255.099 66.9333 255.491 66.9333 255.701C64.3713 256.023 63.9653 256.121 63.7273 256.233ZM63.4893 261.343C64.6933 261.091 66.5413 260.657 68.3193 260.237L68.4313 261.119C66.7513 261.567 65.0013 262.001 63.6853 262.351L63.4893 261.343ZM78.6513 252.635H82.9073V261.791H78.6513V260.839H81.9273V253.573H78.6513V252.635ZM78.0213 252.635H79.0013V262.911H78.0213V252.635ZM78.5813 256.527H82.4453V257.465H78.5813V256.527ZM80.1633 250.353L81.2973 250.563C81.0173 251.431 80.6673 252.397 80.3873 253.027L79.5473 252.817C79.7853 252.145 80.0513 251.081 80.1633 250.353ZM84.8953 252.593H89.1933V253.573H84.8953V252.593ZM88.8293 252.593H89.8093C89.8093 252.593 89.8093 252.985 89.8093 253.139C89.5853 259.565 89.3893 261.735 88.8293 262.421C88.5213 262.827 88.1993 262.953 87.7093 262.995C87.2333 263.051 86.4073 263.023 85.6233 262.981C85.5953 262.673 85.4693 262.239 85.2733 261.959C86.1833 262.029 87.0233 262.043 87.3453 262.043C87.6253 262.043 87.7933 262.001 87.9473 261.819C88.4093 261.315 88.6333 258.991 88.8293 252.817V252.593ZM85.1893 250.325L86.1973 250.563C85.6793 252.649 84.8533 254.707 83.8873 256.037C83.7053 255.869 83.2713 255.575 83.0193 255.435C83.9713 254.203 84.7413 252.271 85.1893 250.325ZM84.5453 256.233L85.3573 255.757C86.1553 256.751 87.1213 258.109 87.5693 258.935L86.6733 259.495C86.2533 258.641 85.3153 257.255 84.5453 256.233ZM94.2893 255.141V261.161H93.2673V256.107H91.4333V255.141H94.2893ZM91.9653 251.067L92.7773 250.549C93.5053 251.305 94.3873 252.355 94.7933 253.041L93.9393 253.629C93.5613 252.943 92.6933 251.851 91.9653 251.067ZM93.7433 260.419C94.2053 260.419 94.5413 260.853 95.3533 261.357C96.2913 261.959 97.5093 262.071 99.1613 262.071C100.883 262.071 103.039 261.945 104.439 261.791C104.313 262.071 104.131 262.631 104.117 262.967C103.123 263.023 100.533 263.121 99.1193 263.121C97.2853 263.121 96.1093 262.953 95.0873 262.323C94.5133 261.931 94.0233 261.427 93.7153 261.427C93.2813 261.427 92.6513 262.323 92.0213 263.289L91.2373 262.281C92.1473 261.189 93.0573 260.419 93.7433 260.419ZM99.5113 253.517H100.603V261.693H99.5113V253.517ZM95.2413 258.137H103.977V259.131H95.2413V258.137ZM95.3393 251.851H103.725V252.775H95.3393V251.851ZM96.0813 256.429V255.575L96.7113 255.239H103.319V256.233H97.3553C96.6833 256.233 96.2073 256.303 96.0813 256.429ZM96.0813 256.429C96.0393 256.205 95.8573 255.701 95.7313 255.421C95.9833 255.365 96.2073 255.015 96.4873 254.511C96.7813 254.021 97.6633 252.117 98.1393 250.395L99.2313 250.689C98.6013 252.537 97.7333 254.483 96.8653 255.827V255.841C96.8653 255.841 96.0813 256.205 96.0813 256.429ZM105.699 259.579C105.643 259.355 105.461 258.823 105.335 258.543C105.657 258.487 105.993 258.137 106.441 257.633C106.945 257.143 108.485 255.211 109.493 253.335L110.445 253.923C109.255 255.799 107.827 257.661 106.427 258.991V259.019C106.427 259.019 105.699 259.355 105.699 259.579ZM105.699 259.579L105.643 258.697L106.203 258.333L110.375 257.647C110.375 257.927 110.403 258.333 110.445 258.557C106.525 259.271 106.021 259.397 105.699 259.579ZM105.601 256.177C105.531 255.939 105.363 255.407 105.223 255.127C105.489 255.057 105.741 254.749 106.035 254.287C106.343 253.839 107.351 252.103 107.925 250.479L108.989 250.913C108.261 252.607 107.267 254.357 106.315 255.561V255.589C106.315 255.589 105.601 255.939 105.601 256.177ZM105.601 256.177L105.573 255.379L106.105 255.057L109.059 254.791C109.003 255.057 108.975 255.463 108.975 255.673C106.287 255.967 105.853 256.051 105.601 256.177ZM105.307 261.413C106.595 261.189 108.541 260.797 110.417 260.405L110.501 261.385C108.737 261.791 106.875 262.169 105.489 262.491L105.307 261.413ZM110.529 252.257H118.005V253.279H110.529V252.257ZM110.879 255.449H117.767V256.457H110.879V255.449ZM111.803 261.693H116.885V262.659H111.803V261.693ZM113.749 250.381H114.841V255.967H113.749V250.381ZM111.243 257.885H117.431V263.205H116.367V258.851H112.265V263.261H111.243V257.885Z" fill="#2D3342"/>
<path d="M45.4167 251.959L47.8776 259.695H47.9721L50.438 251.959H52.8244L49.3144 262.141H46.5403L43.0254 251.959H45.4167ZM54.0499 262.141V251.959H56.2026V256.448H56.3368L60.0009 251.959H62.5811L58.8027 256.518L62.6259 262.141H60.0506L57.2615 257.955L56.2026 259.247V262.141H54.0499Z" fill="#6663CF"/>
<path d="M27.8195 266.881C27.3665 266.813 16.3988 265.346 16.8557 255.113C16.8976 254.173 17.0146 253.318 17.1963 252.542M27.8195 266.881C21.8081 266.482 18.7534 264.12 17.3863 261.29M27.8195 266.881C28.5468 266.989 29.2969 266.98 30.0389 266.863M17.1963 252.542C17.4238 251.572 17.7528 250.726 18.1636 249.997M17.1963 252.542C16.3773 254.818 15.9486 258.313 17.3863 261.29M18.1636 249.997C21.5308 244.014 30.3862 245.802 33.7582 249.997C35.0814 251.644 37.8545 255.822 36.5031 261.045C35.656 264.319 32.9076 266.407 30.0389 266.863M18.1636 249.997C16.8823 251.802 15.0233 256.03 16.6126 259.864M17.3863 261.29C17.0682 260.824 16.813 260.347 16.6126 259.864M30.0389 266.863C26.2455 267.524 18.2496 267.051 16.6126 259.864" stroke="#6663CF" stroke-linecap="round"/>
<defs>
<linearGradient id="paint0_linear_957_6283" x1="143.515" y1="24.9141" x2="206.665" y2="58.8919" gradientUnits="userSpaceOnUse">
<stop stop-color="#5955B3"/>
<stop offset="1" stop-color="#6563CE"/>
</linearGradient>
</defs>
</svg>
