<svg width="325" height="290" viewBox="0 0 325 290" fill="none" xmlns="http://www.w3.org/2000/svg">
<rect width="325" height="290" rx="5" fill="white"/>
<path opacity="0.2" fill-rule="evenodd" clip-rule="evenodd" d="M324.665 270.066C324.629 281.048 315.744 289.945 304.767 290H171.145C177.237 276.125 202.685 248.375 255.738 248.375C308.791 248.375 323.795 226.792 324.665 216V270.066Z" fill="#89AFFF"/>
<path opacity="0.2" fill-rule="evenodd" clip-rule="evenodd" d="M149.339 0C147.452 10.542 135.894 40.1867 88.2784 53.6336C42.0804 66.6801 11.6464 62.1933 0.329229 57.9765L0.329287 20C0.329286 8.95432 9.28355 1.09491e-05 20.3293 1.00856e-05L149.339 0Z" fill="#89AFFF"/>
<path d="M118.404 53.288H129.852V57.104H118.404V53.288ZM128.7 53.288H129.384L130.104 53.144L132.732 54.044C131.148 66.32 126.864 75.428 120.384 80.684C119.736 79.676 118.44 78.164 117.504 77.444C123.228 73.304 127.404 64.232 128.7 54.188V53.288ZM118.296 61.064L121.32 58.688C125.172 63.8 130.212 70.64 132.3 75.032L128.952 77.948C126.936 73.448 122.148 66.32 118.296 61.064ZM136.98 54.512H148.248V58.4H136.98V54.512ZM135.72 49.508L139.788 50.012C139.032 56.24 137.556 62 135 65.672C134.28 64.988 132.516 63.728 131.58 63.188C133.956 60.056 135.144 54.908 135.72 49.508ZM147.42 54.512H148.068L148.716 54.368L151.632 55.124C150.876 58.436 149.76 62.072 148.68 64.448L145.332 63.332C146.088 61.244 146.988 57.86 147.42 55.124V54.512ZM142.632 63.044C143.82 70.676 146.484 76.94 152.352 79.604C151.416 80.432 150.156 82.124 149.544 83.24C143.136 79.784 140.544 72.8 139.104 63.512L142.632 63.044ZM138.996 60.092H143.064V62.864C143.064 68.624 142.128 77.408 132.696 83.276C132.048 82.34 130.608 80.936 129.636 80.252C138.204 75.14 138.996 67.652 138.996 62.792V60.092ZM162.072 63.476V76.724H158.04V67.472H154.296V63.476H162.072ZM162.072 75.068C163.476 77.516 166.104 78.56 169.812 78.74C174.276 78.92 183.132 78.812 188.244 78.416C187.776 79.352 187.128 81.26 186.948 82.448C182.34 82.664 174.348 82.736 169.848 82.556C165.456 82.376 162.504 81.296 160.344 78.488C158.976 79.928 157.536 81.296 155.844 82.916L153.792 78.776C155.232 77.768 156.96 76.4 158.472 75.068H162.072ZM154.08 52.352L157.464 50.228C159.372 51.92 161.604 54.368 162.576 56.168L158.904 58.58C158.076 56.816 155.916 54.188 154.08 52.352ZM174.78 51.632H184.716V55.268H178.704V77.66H174.78V51.632ZM165.024 51.956L168.984 53V71.576H165.024V51.956ZM182.52 51.632H186.516V69.992C186.516 71.756 186.192 72.764 185.076 73.412C183.96 74.024 182.448 74.06 180.36 74.06C180.18 73.016 179.676 71.396 179.136 70.46C180.36 70.496 181.584 70.496 181.98 70.46C182.376 70.46 182.52 70.316 182.52 69.92V51.632ZM171.9 49.436L174.888 52.64C172.548 54.008 169.776 55.196 167.436 56.024C167.22 55.16 166.644 53.792 166.14 52.964C168.192 52.028 170.496 50.624 171.9 49.436ZM162.936 70.46C165.672 69.884 169.668 68.948 173.52 67.94L173.988 71.612C170.64 72.548 166.968 73.52 164.052 74.276L162.936 70.46ZM205.128 70.748L204.192 58.436L204.012 53.072H209.952L209.772 58.436L208.836 70.748H205.128ZM207 80.36C205.128 80.36 203.796 79.028 203.796 77.156C203.796 75.284 205.164 73.988 207 73.988C208.8 73.988 210.168 75.284 210.168 77.156C210.168 79.028 208.8 80.36 207 80.36Z" fill="url(#paint0_linear_957_6273)"/>
<path d="M35.5782 130.8C36.2182 130.8 36.6982 131.3 37.7782 131.88C39.0382 132.58 40.7982 132.68 42.9582 132.68C45.2382 132.68 48.3782 132.54 50.4182 132.3C50.2182 132.74 49.9782 133.52 49.9382 134C48.3582 134.1 44.9382 134.2 42.9182 134.2C40.5582 134.2 38.8382 134 37.4582 133.28C36.6382 132.82 35.9982 132.26 35.5582 132.26C34.8782 132.26 33.9182 133.3 32.9382 134.44L31.8782 132.98C33.1782 131.74 34.5582 130.8 35.5782 130.8ZM32.3782 117.86L33.5582 117.08C34.6182 117.96 35.8982 119.26 36.4782 120.16L35.2182 121.04C34.6782 120.14 33.4382 118.82 32.3782 117.86ZM36.1982 123.74V131.56H34.7382V125.14H32.1582V123.74H36.1982ZM37.0782 119.34H50.0782V120.76H37.0782V119.34ZM46.2782 119.62L47.7782 119.92C46.1982 125.72 43.0382 129.18 37.8782 131.22C37.7182 130.9 37.2582 130.22 36.9582 129.9C41.9582 128.18 44.9382 124.96 46.2782 119.62ZM41.6382 116.54L43.0582 116.1C43.6382 116.98 44.2982 118.2 44.5782 118.96L43.0782 119.5C42.8382 118.72 42.1982 117.46 41.6382 116.54ZM37.6782 122.78L38.7382 121.86C42.2782 124.3 46.9782 127.82 49.3382 130.06L48.1582 131.16C45.9582 128.92 41.3182 125.28 37.6782 122.78ZM52.3382 125.02H70.0382V126.38H52.3382V125.02ZM61.2382 128.6H68.7182V129.92H61.2382V128.6ZM60.5782 125.62H62.0982V133.2H60.5782V125.62ZM56.6582 128.88C57.8782 132.16 60.5182 132.78 64.4382 132.8C65.1982 132.8 69.3782 132.8 70.4182 132.78C70.1982 133.12 69.9582 133.78 69.8782 134.22H64.3782C59.6982 134.22 56.9782 133.38 55.4182 129.34L56.6582 128.88ZM55.7982 127.02L57.2982 127.24C56.6582 130.56 55.2182 133.04 53.0182 134.64C52.7982 134.36 52.2182 133.82 51.8782 133.58C53.9982 132.2 55.2782 129.96 55.7982 127.02ZM55.8982 120.88V122.52H66.3182V120.88H55.8982ZM55.8982 118.18V119.8H66.3182V118.18H55.8982ZM54.4382 117.04H67.8382V123.66H54.4382V117.04ZM72.0582 124.38H90.3582V126.02H72.0582V124.38ZM234.318 135.14L233.858 134.1C235.498 133.42 236.398 132.4 236.398 130.9L236.018 129.2L237.098 130.72C236.818 131.08 236.418 131.18 236.038 131.18C235.218 131.18 234.538 130.7 234.538 129.74C234.538 128.8 235.258 128.3 236.058 128.3C237.178 128.3 237.778 129.22 237.778 130.62C237.778 132.78 236.418 134.42 234.318 135.14ZM265.238 117.52L266.378 116.74C267.558 117.74 268.958 119.16 269.618 120.08L268.378 120.96C267.778 120 266.418 118.56 265.238 117.52ZM252.278 122.12H270.098V123.56H252.278V122.12ZM251.978 128C254.358 127.56 258.118 126.76 261.638 126L261.758 127.36C258.478 128.12 254.938 128.94 252.418 129.5L251.978 128ZM256.578 118.24H258.078V132.68C258.078 133.66 257.838 134.1 257.198 134.34C256.558 134.58 255.498 134.64 253.838 134.62C253.758 134.22 253.498 133.54 253.278 133.1C254.558 133.16 255.738 133.14 256.098 133.12C256.458 133.12 256.578 133.02 256.578 132.66V118.24ZM260.378 116.44L261.438 117.7C259.118 118.5 255.718 119.12 252.858 119.52C252.778 119.18 252.598 118.62 252.398 118.28C255.218 117.84 258.458 117.16 260.378 116.44ZM262.378 116.38H263.938C263.898 125.56 265.858 133.16 268.298 133.16C268.838 133.16 269.078 132.12 269.198 129.54C269.518 129.88 270.058 130.22 270.478 130.38C270.198 133.7 269.658 134.68 268.158 134.68C264.238 134.68 262.458 125.9 262.378 116.38ZM267.798 124.48L269.138 125.04C267.178 128.7 263.878 131.92 260.198 133.86C259.958 133.48 259.538 133 259.158 132.66C262.718 130.94 266.018 127.86 267.798 124.48ZM282.678 116.94H288.698V118.32H282.678V116.94ZM288.118 116.94H289.618V132.72C289.618 133.62 289.398 134.06 288.778 134.3C288.178 134.54 287.158 134.56 285.578 134.56C285.518 134.18 285.298 133.52 285.098 133.12C286.238 133.18 287.338 133.16 287.678 133.14C287.998 133.12 288.118 133.02 288.118 132.7V116.94ZM278.778 116.86L279.938 116.22C280.818 117.42 281.878 119.06 282.338 120.06L281.098 120.78C280.658 119.76 279.658 118.08 278.778 116.86ZM277.938 120.24H279.398V134.6H277.938V120.24ZM275.658 116.32L277.058 116.7C276.058 120.16 274.498 123.68 272.698 126.02C272.558 125.68 272.138 124.88 271.878 124.5C273.458 122.48 274.838 119.4 275.658 116.32ZM274.078 121.36L275.458 119.96L275.518 120V134.6H274.078V121.36ZM32.4182 142.3H49.9382V143.76H32.4182V142.3ZM38.6182 148.64H49.1582V150.04H38.6182V148.64ZM37.8382 155.72H49.9382V157.14H37.8382V155.72ZM43.1382 144.78H44.6382V156.48H43.1382V144.78ZM38.9982 139.2L40.5382 139.58C39.1382 144.16 36.6982 148.82 32.7182 151.68C32.5582 151.28 32.1782 150.64 31.9382 150.3C35.5382 147.76 37.8782 143.32 38.9982 139.2ZM35.0382 147.44H36.5382V157.54H35.0382V147.44ZM55.5782 153.8C56.2182 153.8 56.6982 154.3 57.7782 154.88C59.0382 155.58 60.7982 155.68 62.9582 155.68C65.2382 155.68 68.3782 155.54 70.4182 155.3C70.2182 155.74 69.9782 156.52 69.9382 157C68.3582 157.1 64.9382 157.2 62.9182 157.2C60.5582 157.2 58.8382 157 57.4582 156.28C56.6382 155.82 55.9982 155.26 55.5582 155.26C54.8782 155.26 53.9182 156.3 52.9382 157.44L51.8782 155.98C53.1782 154.74 54.5582 153.8 55.5782 153.8ZM52.3782 140.86L53.5582 140.08C54.6182 140.96 55.8982 142.26 56.4782 143.16L55.2182 144.04C54.6782 143.14 53.4382 141.82 52.3782 140.86ZM56.1982 146.74V154.56H54.7382V148.14H52.1582V146.74H56.1982ZM57.0782 142.34H70.0782V143.76H57.0782V142.34ZM66.2782 142.62L67.7782 142.92C66.1982 148.72 63.0382 152.18 57.8782 154.22C57.7182 153.9 57.2582 153.22 56.9582 152.9C61.9582 151.18 64.9382 147.96 66.2782 142.62ZM61.6382 139.54L63.0582 139.1C63.6382 139.98 64.2982 141.2 64.5782 141.96L63.0782 142.5C62.8382 141.72 62.1982 140.46 61.6382 139.54ZM57.6782 145.78L58.7382 144.86C62.2782 147.3 66.9782 150.82 69.3382 153.06L68.1582 154.16C65.9582 151.92 61.3182 148.28 57.6782 145.78ZM75.7382 145.14V147.68H86.8182V145.14H75.7382ZM75.7382 141.36V143.86H86.8182V141.36H75.7382ZM74.2582 140H88.3782V149.04H74.2582V140ZM72.2582 155.64H90.1182V157.04H72.2582V155.64ZM73.5982 151.34H89.0382V152.76H73.5982V151.34ZM80.5182 140.86H81.9582V148.82H82.0382V156.44H80.4382V148.82H80.5182V140.86ZM92.4782 140.8H101.838V142.02H92.4782V140.8ZM92.1582 146.22H101.958V147.42H92.1582V146.22ZM92.9182 143.48H101.438V144.66H92.9182V143.48ZM102.858 140.04H108.638V141.34H104.298V149.96H102.858V140.04ZM108.338 140.04H108.638L108.878 139.98L109.918 140.62C109.178 141.66 108.278 142.88 107.458 143.88C109.158 144.94 109.738 145.9 109.758 146.8C109.778 147.66 109.418 148.22 108.778 148.58C108.438 148.76 107.958 148.86 107.578 148.92C106.878 148.98 106.018 148.98 105.238 148.92C105.218 148.54 105.018 148 104.758 147.64C105.618 147.74 106.358 147.74 106.938 147.7C107.218 147.68 107.538 147.62 107.758 147.54C108.118 147.4 108.278 147.12 108.278 146.68C108.258 145.96 107.618 145.08 105.838 144.08C106.778 142.84 107.758 141.34 108.338 140.32V140.04ZM96.6382 139.2H98.1582V145.14C98.1582 146.74 97.2182 149.44 93.5982 150.86C93.3582 150.56 92.8982 150.06 92.5582 149.78C95.8182 148.68 96.6382 146.42 96.6382 145.12V139.2ZM100.338 149.2H101.898V157.58H100.338V149.2ZM94.1782 150.78H107.598V152.14H95.6782V156.52H94.1782V150.78ZM106.958 150.78H108.478V154.88C108.478 155.64 108.298 156.04 107.658 156.26C107.018 156.48 105.958 156.48 104.278 156.48C104.178 156.08 103.958 155.56 103.758 155.18C105.018 155.22 106.198 155.22 106.538 155.2C106.878 155.18 106.958 155.1 106.958 154.86V150.78ZM120.498 143.74H128.958V145.16H120.498V143.74ZM128.318 143.74H129.758C129.758 143.74 129.738 144.3 129.738 144.5C129.538 152.96 129.358 155.82 128.698 156.68C128.298 157.22 127.878 157.38 127.238 157.44C126.618 157.5 125.538 157.48 124.478 157.44C124.438 157 124.278 156.38 124.018 156C125.178 156.08 126.218 156.08 126.638 156.08C126.978 156.1 127.198 156.04 127.378 155.78C127.918 155.16 128.138 152.24 128.318 144.06V143.74ZM123.818 139.22H125.278C125.258 146.88 125.238 154 119.678 157.64C119.458 157.28 118.958 156.78 118.578 156.54C123.918 153.22 123.798 146.5 123.818 139.22ZM113.298 140.18H119.818V153.2H118.418V141.56H114.638V154.48H113.298V140.18ZM111.858 154.12C114.078 153.68 117.598 152.94 120.918 152.2L121.058 153.56C117.878 154.32 114.518 155.1 112.118 155.64L111.858 154.12ZM113.998 144.48H119.078V145.84H113.998V144.48ZM113.998 148.76H119.078V150.1H113.998V148.76ZM140.478 139.3L141.958 139.62C141.178 142.82 139.918 145.9 138.378 147.94C138.118 147.68 137.518 147.2 137.178 146.98C138.658 145.12 139.818 142.24 140.478 139.3ZM140.138 147.78L141.598 148.08C140.978 150.7 139.898 153.24 138.678 154.92C138.378 154.68 137.738 154.28 137.378 154.1C138.618 152.56 139.578 150.18 140.138 147.78ZM140.298 143.06H149.298V144.46H139.718L140.298 143.06ZM143.398 143.64H144.898V155.78C144.898 156.64 144.718 157.08 144.158 157.32C143.618 157.58 142.758 157.62 141.518 157.62C141.418 157.2 141.198 156.54 140.978 156.1C141.918 156.14 142.778 156.12 143.058 156.12C143.318 156.12 143.398 156.04 143.398 155.78V143.64ZM146.338 148.08L147.678 147.64C148.838 149.74 149.838 152.5 150.178 154.36L148.758 154.84C148.438 153 147.438 150.18 146.338 148.08ZM148.858 143.06H149.058L149.318 143.02L150.358 143.24C150.078 144.72 149.738 146.44 149.478 147.52L148.178 147.28C148.398 146.28 148.658 144.6 148.858 143.28V143.06ZM136.458 139.28L137.878 139.72C136.558 143.12 134.498 146.5 132.338 148.74C132.178 148.4 131.758 147.6 131.478 147.26C133.458 145.32 135.338 142.32 136.458 139.28ZM134.378 144.44L135.778 143.02L135.818 143.04V157.58H134.378V144.44ZM152.958 140.52H169.518V141.94H152.958V140.52ZM152.218 147.66H170.158V149.1H152.218V147.66ZM164.138 141.26H165.678V157.62H164.138V141.26ZM157.018 141.26H158.538V146.8C158.538 150.68 158.038 154.78 153.438 157.68C153.178 157.34 152.638 156.82 152.258 156.58C156.558 153.92 157.018 150.26 157.018 146.8V141.26ZM181.738 155.36H188.718V156.72H181.738V155.36ZM180.958 149.5H189.498V157.54H188.018V150.88H182.398V157.62H180.958V149.5ZM179.598 146.14C181.958 146.02 185.678 145.82 189.238 145.58L189.218 146.92C185.838 147.18 182.258 147.46 179.778 147.62L179.598 146.14ZM186.218 142.92L187.418 142.3C188.758 143.96 190.138 146.2 190.678 147.68L189.358 148.4C188.878 146.9 187.538 144.62 186.218 142.92ZM183.498 139.2L185.138 139.54C184.318 141.98 183.178 145.04 182.238 146.94L180.958 146.58C181.858 144.64 182.938 141.44 183.498 139.2ZM172.038 143.34H178.638V144.76H172.038V143.34ZM175.078 139.2L176.518 139.36C175.698 143.36 174.418 148.76 173.478 152.1L172.238 151.42C173.138 148.38 174.378 143 175.078 139.2ZM173.038 150.82L173.878 149.76C176.118 151.02 178.778 152.94 179.978 154.42L179.058 155.64C177.878 154.14 175.278 152.12 173.038 150.82ZM178.058 143.34H178.318L178.578 143.3L179.478 143.48C178.938 151.22 176.778 155.46 173.098 157.66C172.878 157.3 172.478 156.76 172.158 156.46C175.478 154.7 177.578 150.44 178.058 143.66V143.34ZM200.478 139.3L201.958 139.62C201.178 142.82 199.918 145.9 198.378 147.94C198.118 147.68 197.518 147.2 197.178 146.98C198.658 145.12 199.818 142.24 200.478 139.3ZM200.138 147.78L201.598 148.08C200.978 150.7 199.898 153.24 198.678 154.92C198.378 154.68 197.738 154.28 197.378 154.1C198.618 152.56 199.578 150.18 200.138 147.78ZM200.298 143.06H209.298V144.46H199.718L200.298 143.06ZM203.398 143.64H204.898V155.78C204.898 156.64 204.718 157.08 204.158 157.32C203.618 157.58 202.758 157.62 201.518 157.62C201.418 157.2 201.198 156.54 200.978 156.1C201.918 156.14 202.778 156.12 203.058 156.12C203.318 156.12 203.398 156.04 203.398 155.78V143.64ZM206.338 148.08L207.678 147.64C208.838 149.74 209.838 152.5 210.178 154.36L208.758 154.84C208.438 153 207.438 150.18 206.338 148.08ZM208.858 143.06H209.058L209.318 143.02L210.358 143.24C210.078 144.72 209.738 146.44 209.478 147.52L208.178 147.28C208.398 146.28 208.658 144.6 208.858 143.28V143.06ZM196.458 139.28L197.878 139.72C196.558 143.12 194.498 146.5 192.338 148.74C192.178 148.4 191.758 147.6 191.478 147.26C193.458 145.32 195.338 142.32 196.458 139.28ZM194.378 144.44L195.778 143.02L195.818 143.04V157.58H194.378V144.44ZM213.798 142.42H219.878V155.5H213.798V154.14H218.478V143.76H213.798V142.42ZM212.898 142.42H214.298V157.1H212.898V142.42ZM213.698 147.98H219.218V149.32H213.698V147.98ZM215.958 139.16L217.578 139.46C217.178 140.7 216.678 142.08 216.278 142.98L215.078 142.68C215.418 141.72 215.798 140.2 215.958 139.16ZM222.718 142.36H228.858V143.76H222.718V142.36ZM228.338 142.36H229.738C229.738 142.36 229.738 142.92 229.738 143.14C229.418 152.32 229.138 155.42 228.338 156.4C227.898 156.98 227.438 157.16 226.738 157.22C226.058 157.3 224.878 157.26 223.758 157.2C223.718 156.76 223.538 156.14 223.258 155.74C224.558 155.84 225.758 155.86 226.218 155.86C226.618 155.86 226.858 155.8 227.078 155.54C227.738 154.82 228.058 151.5 228.338 142.68V142.36ZM223.138 139.12L224.578 139.46C223.838 142.44 222.658 145.38 221.278 147.28C221.018 147.04 220.398 146.62 220.038 146.42C221.398 144.66 222.498 141.9 223.138 139.12ZM222.218 147.56L223.378 146.88C224.518 148.3 225.898 150.24 226.538 151.42L225.258 152.22C224.658 151 223.318 149.02 222.218 147.56ZM235.738 145.96H245.638V147.28H235.738V145.96ZM232.378 150.52H250.058V151.92H232.378V150.52ZM240.418 149.06H241.958V155.82C241.958 156.72 241.718 157.16 240.958 157.38C240.238 157.6 239.078 157.62 237.258 157.62C237.158 157.2 236.858 156.58 236.618 156.18C238.158 156.22 239.518 156.22 239.918 156.2C240.318 156.18 240.418 156.08 240.418 155.78V149.06ZM245.178 145.96H245.558L245.878 145.88L246.838 146.62C245.478 148 243.378 149.38 241.478 150.2C241.298 149.94 240.898 149.54 240.638 149.32C242.318 148.6 244.238 147.28 245.178 146.26V145.96ZM232.778 142.54H249.718V147H248.238V143.9H234.198V147H232.778V142.54ZM247.078 139.34L248.638 139.86C247.798 141.1 246.718 142.44 245.878 143.32L244.698 142.82C245.498 141.88 246.518 140.4 247.078 139.34ZM234.138 140.04L235.398 139.44C236.178 140.28 236.998 141.42 237.338 142.22L235.998 142.86C235.678 142.1 234.878 140.9 234.138 140.04ZM239.278 139.6L240.578 139.12C241.258 140.06 241.978 141.36 242.218 142.2L240.838 142.74C240.598 141.9 239.938 140.58 239.278 139.6ZM255.338 143.1H269.198V144.56H255.338V143.1ZM254.458 148.96H268.478V150.4H254.458V148.96ZM252.278 155.5H270.138V156.96H252.278V155.5ZM260.438 139.22H261.978V156.24H260.438V139.22ZM255.938 139.54L257.478 139.88C256.598 142.98 255.198 145.94 253.598 147.86C253.298 147.6 252.618 147.16 252.238 146.96C253.878 145.18 255.178 142.4 255.938 139.54ZM275.338 143.1H289.198V144.56H275.338V143.1ZM274.458 148.96H288.478V150.4H274.458V148.96ZM272.278 155.5H290.138V156.96H272.278V155.5ZM280.438 139.22H281.978V156.24H280.438V139.22ZM275.938 139.54L277.478 139.88C276.598 142.98 275.198 145.94 273.598 147.86C273.298 147.6 272.618 147.16 272.238 146.96C273.878 145.18 275.178 142.4 275.938 139.54ZM149.018 172.82H158.998V180.5H157.558V174.2H150.398V180.6H149.018V172.82ZM158.258 162.28L159.438 163.46C156.698 164.4 152.518 165.02 148.938 165.36C148.878 165 148.678 164.42 148.498 164.08C151.978 163.7 156.038 163.08 158.258 162.28ZM153.338 164.02H154.778V173.62H153.338V164.02ZM147.558 168.08H160.298V169.52H147.558V168.08ZM149.958 178.36H158.218V179.74H149.958V178.36ZM142.978 163.52L143.818 162.46C145.038 163.06 146.738 163.96 147.598 164.54L146.718 165.76C145.878 165.16 144.218 164.18 142.978 163.52ZM141.998 169.04L142.838 167.94C144.018 168.52 145.698 169.4 146.538 169.98L145.698 171.2C144.878 170.64 143.218 169.68 141.998 169.04ZM142.478 179.32C143.558 177.8 145.138 175.16 146.298 172.88L147.378 173.86C146.318 175.98 144.918 178.48 143.738 180.34L142.478 179.32ZM170.518 174.18L170.118 166.42L170.058 164.04H172.278L172.218 166.42L171.818 174.18H170.518ZM171.178 179.1C170.458 179.1 169.878 178.6 169.878 177.8C169.878 177 170.458 176.46 171.178 176.46C171.878 176.46 172.458 177 172.458 177.8C172.458 178.6 171.878 179.1 171.178 179.1Z" fill="#2D3342"/>
<path d="M101.098 118.56C99.4782 121.04 96.3582 123.88 92.9782 125.8C92.6382 125.22 91.9382 124.32 91.3982 123.82C94.9582 121.96 98.2182 118.66 99.6782 116.06H102.278C104.438 119.36 107.718 122.12 111.018 123.56C110.378 124.18 109.838 125 109.378 125.76C106.158 123.98 102.778 121.04 101.098 118.56ZM99.8182 122.84H102.378V134.8H99.8182V122.84ZM115.838 122.86H125.058V124.92H115.838V122.86ZM112.258 127.34H130.158V129.56H112.258V127.34ZM119.958 126.06H122.418V132.24C122.418 133.48 122.118 134.1 121.158 134.46C120.218 134.78 118.938 134.82 117.238 134.82C117.078 134.14 116.638 133.12 116.258 132.5C117.538 132.54 119.038 132.54 119.438 132.54C119.838 132.54 119.958 132.44 119.958 132.16V126.06ZM124.278 122.86H124.878L125.378 122.74L126.898 123.9C125.518 125.38 123.538 126.94 121.578 127.88C121.298 127.48 120.658 126.82 120.298 126.5C121.838 125.7 123.538 124.28 124.278 123.3V122.86ZM112.498 119.2H129.938V124.1H127.558V121.32H114.758V124.1H112.498V119.2ZM126.358 116.16L128.958 116.92C128.038 118.24 126.998 119.6 126.178 120.48L124.218 119.76C124.978 118.78 125.878 117.28 126.358 116.16ZM113.838 117.14L115.878 116.22C116.598 117 117.398 118.08 117.718 118.86L115.538 119.86C115.258 119.12 114.518 117.98 113.838 117.14ZM118.878 116.7L120.998 115.9C121.638 116.78 122.318 118 122.578 118.8L120.298 119.68C120.098 118.88 119.478 117.62 118.878 116.7ZM135.318 119.64H149.238V121.98H135.318V119.64ZM134.498 125.54H148.478V127.84H134.498V125.54ZM132.178 131.88H150.258V134.22H132.178V131.88ZM139.958 116.02H142.458V133.04H139.958V116.02ZM135.338 116.26L137.818 116.82C136.938 119.92 135.478 123 133.918 124.92C133.438 124.5 132.378 123.8 131.758 123.46C133.338 121.78 134.618 119.02 135.338 116.26ZM152.218 117.38H161.858V119.24H152.218V117.38ZM151.978 122.86H161.858V124.68H151.978V122.86ZM152.658 120.16H161.298V121.92H152.658V120.16ZM162.558 116.8H168.198V118.82H164.858V126.88H162.558V116.8ZM167.798 116.8H168.278L168.658 116.72L170.378 117.66C169.718 118.66 168.938 119.86 168.218 120.8C169.738 121.82 170.218 122.78 170.218 123.62C170.238 124.64 169.878 125.28 169.118 125.74C168.738 125.96 168.278 126.08 167.818 126.14C167.198 126.2 166.398 126.22 165.638 126.16C165.598 125.56 165.298 124.7 164.918 124.16C165.618 124.24 166.138 124.24 166.618 124.22C166.878 124.22 167.178 124.16 167.358 124.1C167.678 123.98 167.798 123.76 167.798 123.4C167.798 122.82 167.258 121.98 165.738 121.12C166.478 119.9 167.338 118.26 167.798 117.26V116.8ZM156.058 116.02H158.518V122.9C158.518 125 157.218 127.12 153.818 128.16C153.438 127.66 152.678 126.88 152.158 126.44C154.938 125.88 156.058 124.14 156.058 122.88V116.02ZM159.838 126.08H162.358V134.74H159.838V126.08ZM153.838 127.6H167.358V129.74H156.278V133.68H153.838V127.6ZM166.338 127.6H168.798V131.46C168.798 132.52 168.538 133.1 167.718 133.42C166.898 133.74 165.778 133.76 164.258 133.76C164.118 133.12 163.758 132.26 163.458 131.7C164.418 131.74 165.618 131.74 165.918 131.74C166.238 131.72 166.338 131.64 166.338 131.4V127.6ZM180.578 120.34H188.598V122.6H180.578V120.34ZM187.618 120.34H189.918C189.918 120.34 189.898 121.12 189.898 121.4C189.718 129.66 189.558 132.62 188.898 133.54C188.418 134.24 187.938 134.46 187.218 134.58C186.578 134.68 185.538 134.66 184.498 134.64C184.458 133.98 184.178 132.98 183.778 132.36C184.778 132.42 185.658 132.44 186.098 132.44C186.418 132.44 186.638 132.36 186.818 132.1C187.318 131.48 187.478 128.58 187.618 120.82V120.34ZM183.238 116.04H185.578C185.558 124.38 185.538 131.1 180.178 134.82C179.818 134.22 179.078 133.4 178.498 133C183.458 129.72 183.218 123.84 183.238 116.04ZM173.058 116.86H180.038V129.9H177.818V119.02H175.178V131.16H173.058V116.86ZM171.658 130.38C173.958 129.98 177.558 129.24 180.918 128.5L181.138 130.66C177.978 131.44 174.578 132.24 172.058 132.84L171.658 130.38ZM174.178 121.02H178.938V123.12H174.178V121.02ZM174.178 125.18H178.938V127.28H174.178V125.18ZM199.838 116.04H202.218V121.48C202.218 122.22 202.418 122.32 203.598 122.32C204.138 122.32 206.418 122.32 207.078 122.32C208.078 122.32 208.238 122 208.378 120.02C208.878 120.38 209.898 120.74 210.538 120.88C210.238 123.72 209.538 124.46 207.258 124.46C206.658 124.46 203.938 124.46 203.358 124.46C200.558 124.46 199.838 123.78 199.838 121.48V116.04ZM207.578 116.88L209.358 118.62C207.138 119.54 204.158 120.26 201.598 120.74C201.478 120.22 201.138 119.42 200.878 118.96C203.278 118.46 205.958 117.66 207.578 116.88ZM199.798 125.62H209.558V134.7H207.178V127.6H202.058V134.8H199.798V125.62ZM200.998 128.84H207.998V130.7H200.998V128.84ZM200.898 132.02H207.998V133.92H200.898V132.02ZM191.598 126.22C193.458 125.82 196.238 125.14 198.838 124.46L199.118 126.66C196.738 127.34 194.178 128 192.178 128.52L191.598 126.22ZM191.898 119.78H198.798V122.02H191.898V119.78ZM194.398 116.02H196.758V132.22C196.758 133.38 196.558 133.98 195.878 134.34C195.198 134.7 194.238 134.78 192.818 134.76C192.758 134.16 192.438 133.18 192.158 132.58C192.938 132.6 193.758 132.6 194.018 132.6C194.298 132.58 194.398 132.5 194.398 132.22V116.02ZM212.298 117.68H230.058V119.92H212.298V117.68ZM216.678 126.28H225.638V128.14H216.678V126.28ZM216.258 129.46H226.078V131.38H216.258V129.46ZM219.958 127.18H222.238V134.22H219.958V127.18ZM213.038 121.42H227.518V123.62H215.458V134.76H213.038V121.42ZM226.838 121.42H229.318V132.36C229.318 133.52 229.038 134.06 228.218 134.4C227.418 134.74 226.238 134.76 224.618 134.76C224.498 134.14 224.138 133.26 223.818 132.72C224.798 132.78 226.058 132.78 226.378 132.76C226.738 132.74 226.838 132.64 226.838 132.34V121.42ZM217.438 124.16L219.358 123.6C219.818 124.24 220.278 125.16 220.498 125.76L218.498 126.44C218.318 125.8 217.858 124.86 217.438 124.16ZM223.078 123.64L225.118 124.2C224.578 125.16 224.038 126.1 223.578 126.74L221.878 126.24C222.298 125.5 222.818 124.4 223.078 123.64ZM219.878 116.14H222.518V122.96H219.878V116.14Z" fill="#6663CF"/>
<defs>
<linearGradient id="paint0_linear_957_6273" x1="150.438" y1="45" x2="210.808" y2="74.1728" gradientUnits="userSpaceOnUse">
<stop stop-color="#5955B3"/>
<stop offset="1" stop-color="#6563CE"/>
</linearGradient>
</defs>
</svg>
