<svg width="24" height="24" viewBox="0 0 24 24" fill="none" xmlns="http://www.w3.org/2000/svg">
<path d="M22.5075 21.1408C23.2346 17.4304 23.0891 5.83951 22.5074 2.50014M21.7803 22.5322C15.5519 22.7377 4.45592 23.0962 0.999832 22.9757M0.999756 22.0001C2.41826 20.5876 2.77301 7.44559 2.77301 4.62055C2.77301 1.79552 2.31888 1.06945 4.19151 1.44239C5.72965 1.74872 15.7183 1.52567 22.1199 1.00014" stroke="#D1D0FB" stroke-width="1.5" stroke-linecap="round"/>
<path d="M16.5002 19C18.5864 17.9571 17 16 15.0002 16L6.99994 16C4.99994 16 5 17.5 5.00031 18C5 20.5 15.4999 19.5 16.5002 19Z" stroke="#D1D0FB" stroke-linecap="round"/>
<path d="M11.4489 7.48276C12.6188 6.61969 11.7292 5 10.6077 5L6.12136 5C4.9998 5 4.99983 6.24138 5 6.65517C4.99983 8.72414 10.888 7.89655 11.4489 7.48276Z" stroke="#D1D0FB" stroke-linecap="round"/>
<path d="M18.8191 13.3103C21.3261 12.1596 19.4197 10 17.0166 10L7.40291 10C4.99956 10 4.99964 11.6552 5.00001 12.2069C4.99964 14.9655 17.6171 13.8621 18.8191 13.3103Z" stroke="#D1D0FB" stroke-linecap="round"/>
</svg>
