<svg width="24" height="24" viewBox="0 0 24 24" fill="none" xmlns="http://www.w3.org/2000/svg">
<path d="M2.85937 22.5077C6.56979 23.2348 18.1606 23.0893 21.5 22.5077M1.46796 21.7805C1.26247 15.5521 0.903982 4.45617 1.02445 1.00008M2 1C3.41252 2.41851 16.5546 2.77325 19.3796 2.77325C22.2046 2.77325 22.9307 2.31912 22.5577 4.19176C22.2514 5.7299 22.4745 15.7185 23 22.1201" stroke="#5955B3" stroke-linecap="round"/>
<path d="M13.3681 6.42997C14 6.72399 13.9879 6.11696 13.9228 7.40768C13.8699 8.45723 13.9075 15.2153 13.9972 19.6316C13.9989 19.7157 13.9592 19.7951 13.8819 19.8283C13.7894 19.868 13.6735 19.9006 13.5401 19.9263M13.3681 6.42997C13.2824 6.39007 13.119 6.34051 12.9096 6.28937M13.3681 6.42997L13.5401 19.9263M7.3681 13.215C7.99997 13.362 7.98787 13.0585 7.92278 13.7038C7.8708 14.2193 7.90617 17.488 7.99248 19.6966C7.9968 19.8071 7.92895 19.9067 7.82013 19.9263C7.69784 19.9483 7.54368 19.9651 7.3681 19.9772M7.3681 13.215V19.9772M7.3681 13.215C7.24289 13.1859 6.95214 13.1464 6.59418 13.1093M7.3681 19.9772C7.19756 19.9889 7.0068 19.996 6.80539 19.9987M6.59418 13.1093L6.80539 19.9987M6.59418 13.1093C6.46062 13.0954 6.3177 13.0819 6.17054 13.0693M6.80539 19.9987C6.6014 20.0015 6.38647 19.9998 6.17054 19.9938M6.17054 19.9938V13.0693M6.17054 19.9938C5.97871 19.9885 5.78609 19.9798 5.59965 19.9679M6.17054 13.0693C5.95082 13.0505 5.72163 13.0339 5.49997 13.0217M5.49997 13.0217L5.59965 19.9679M5.49997 13.0217C5.28874 13.01 5.08434 13.0023 4.90149 13.0004M5.59965 19.9679C5.42577 19.9568 5.25726 19.9429 5.09977 19.9263M5.09977 19.9263L4.90149 13.0004M5.09977 19.9263C4.95229 19.9108 4.81448 19.8929 4.69096 19.8728M4.90149 13.0004C4.76901 12.9991 4.64784 13.0008 4.54358 13.0063M4.54358 13.0063C4.30849 13.0186 4.15936 13.0502 4.16035 13.1093C3.78198 13.1092 4.18469 17.3938 4.2385 19.5982C4.24099 19.6999 4.30337 19.7898 4.402 19.8147C4.48522 19.8357 4.58259 19.8551 4.69096 19.8728M4.54358 13.0063L4.69096 19.8728M10.779 19.7728C10.6065 19.7221 10.4573 19.6634 10.3423 19.5973C10.2759 19.559 10.2416 19.4888 10.2409 19.4122C10.1983 15.0741 9.7757 6.21836 10.1603 6.21853C10.1594 6.10793 10.2902 6.0455 10.5 6.01771M10.779 19.7728L10.5 6.01771M10.779 19.7728C10.9985 19.8372 11.2558 19.8887 11.5285 19.9263M10.5 6.01771C10.6376 5.99948 10.8092 5.99616 11 6.00394M11 6.00394L11.5285 19.9263M11 6.00394C11.2298 6.01331 11.4873 6.03879 11.7465 6.0737M11.5285 19.9263C11.6858 19.9479 11.8482 19.965 12.0114 19.9772M12.0114 19.9772L11.7465 6.0737M12.0114 19.9772C12.1749 19.9894 12.3392 19.9968 12.5 19.9992M11.7465 6.0737C12.0045 6.10845 12.2642 6.15254 12.5 6.1994M12.5 6.1994L12.5 19.9992M12.5 6.1994C12.6481 6.22884 12.7867 6.25937 12.9096 6.28937M12.5 19.9992C12.6401 20.0012 12.7776 19.9995 12.9096 19.9938M12.9096 19.9938L12.9096 6.28937M12.9096 19.9938C13.142 19.9837 13.3574 19.9615 13.5401 19.9263M16.7503 19.8147C16.6009 19.7791 16.4701 19.7386 16.3651 19.6936C16.2858 19.6596 16.2415 19.5814 16.2403 19.4951C16.1947 16.0714 15.7773 9.17157 16.1603 9.17171C16.1596 9.10535 16.2357 9.06107 16.3651 9.03411M16.7503 19.8147L16.3651 9.03411M16.7503 19.8147C16.8386 19.8358 16.9334 19.8551 17.0332 19.8728M16.3651 9.03411C16.5164 9.0026 16.7405 8.99478 17 9.0031M17 9.0031L17.0332 19.8728M17 9.0031C17.1565 9.00811 17.326 9.019 17.5 9.03411M17.0332 19.8728C17.1797 19.8987 17.3369 19.9208 17.5 19.9389M17.5 19.9389L17.5 9.03411M17.5 19.9389C17.6624 19.9571 17.8307 19.9713 18 19.9814M17.5 9.03411C17.6648 9.04841 17.8338 9.0665 18 9.08695M18 9.08695V19.9814M18 9.08695C18.2069 9.11243 18.4095 9.14159 18.5942 9.17171M18 19.9814C18.2485 19.9963 18.4992 20.0024 18.7369 19.9992M18.7369 19.9992L18.5942 9.17171M18.7369 19.9992C18.8892 19.9971 19.0362 19.9912 19.1738 19.9814M18.5942 9.17171C18.8024 9.20567 18.9879 9.24085 19.1313 9.27335M19.1313 9.27335C19.2344 9.29671 19.3157 9.31869 19.3681 9.33783C19.4743 9.37665 19.5623 9.39548 19.6349 9.40475M19.1313 9.27335L19.1738 19.9814M19.1738 19.9814C19.3444 19.9692 19.5006 19.9509 19.6349 19.9263M19.6349 19.9263C19.7185 19.9109 19.7936 19.8931 19.8583 19.8728C19.9482 19.8445 19.9984 19.7572 19.996 19.6631C19.9071 16.1923 19.8701 10.9269 19.9228 10.106C19.9769 9.2623 19.9944 9.45066 19.6349 9.40475M19.6349 19.9263V9.40475" stroke="#5955B3" stroke-linecap="round"/>
</svg>
