<svg width="24" height="24" viewBox="0 0 24 24" fill="none" xmlns="http://www.w3.org/2000/svg">
<path d="M22.5076 21.1408C23.2347 17.4304 23.0892 5.83953 22.5075 2.50015M21.7804 22.5322C15.552 22.7377 4.45604 23.0962 0.999954 22.9757M0.999878 22.0002C2.41838 20.5876 2.77313 7.4456 2.77313 4.62057C2.77313 1.79554 2.319 1.06946 4.19164 1.44241C5.72978 1.74874 15.7184 1.52568 22.12 1.00015" stroke="white" stroke-width="1.5" stroke-linecap="round"/>
<path d="M16.5 19C18.5863 17.9571 16.9999 16 15 16L6.99982 16C4.99982 16 4.99988 17.5 5.00018 18C4.99988 20.5 15.4998 19.5 16.5 19Z" stroke="white" stroke-linecap="round"/>
<path d="M11.4488 7.48276C12.6187 6.61969 11.7291 5 10.6076 5L6.12124 5C4.99968 5 4.99971 6.24138 4.99988 6.65517C4.99971 8.72414 10.8879 7.89655 11.4488 7.48276Z" stroke="white" stroke-linecap="round"/>
<path d="M18.8189 13.3103C21.3259 12.1596 19.4196 10 17.0164 10L7.40279 10C4.99944 10 4.99952 11.6552 4.99989 12.2069C4.99952 14.9655 17.617 13.8621 18.8189 13.3103Z" stroke="white" stroke-linecap="round"/>
</svg>
