<svg width="220" height="24" viewBox="0 0 220 24" fill="none" xmlns="http://www.w3.org/2000/svg">
<g clip-path="url(#clip0_1359_7642)">
<path d="M32.122 17.042C31.5993 17.042 31.128 16.9533 30.708 16.776C30.2973 16.5893 29.9707 16.314 29.728 15.95C29.4947 15.5767 29.378 15.1147 29.378 14.564C29.378 14.0133 29.5647 13.402 29.938 12.73C30.3113 12.0487 30.9367 11.3673 31.814 10.686L31.674 11.974L30.414 10.994L31.73 9.384C32.4393 9.92533 33.046 10.4527 33.55 10.966C34.0633 11.47 34.4553 11.988 34.726 12.52C34.9967 13.052 35.132 13.6167 35.132 14.214C35.132 14.5033 35.0853 14.816 34.992 15.152C34.8987 15.4787 34.74 15.7867 34.516 16.076C34.292 16.356 33.984 16.5893 33.592 16.776C33.2093 16.9533 32.7193 17.042 32.122 17.042ZM32.276 15.11C32.5093 15.11 32.696 15.0633 32.836 14.97C32.9853 14.8767 33.0973 14.7553 33.172 14.606C33.2467 14.4567 33.284 14.298 33.284 14.13C33.284 13.962 33.2467 13.78 33.172 13.584C33.0973 13.388 32.9527 13.1687 32.738 12.926C32.5233 12.6833 32.206 12.4033 31.786 12.086L32.85 11.946C32.4673 12.2073 32.1593 12.4733 31.926 12.744C31.6927 13.0147 31.5247 13.276 31.422 13.528C31.3287 13.7707 31.282 13.9947 31.282 14.2C31.282 14.4987 31.38 14.7273 31.576 14.886C31.772 15.0353 32.0053 15.11 32.276 15.11ZM33.424 8.334C33.1533 8.334 32.92 8.24067 32.724 8.054C32.5373 7.858 32.444 7.62933 32.444 7.368C32.444 7.09733 32.5373 6.864 32.724 6.668C32.92 6.472 33.1533 6.374 33.424 6.374C33.6853 6.374 33.9093 6.472 34.096 6.668C34.2827 6.864 34.376 7.09733 34.376 7.368C34.376 7.62933 34.2827 7.858 34.096 8.054C33.9093 8.24067 33.6853 8.334 33.424 8.334ZM31.002 8.32C30.7313 8.32 30.498 8.22667 30.302 8.04C30.1153 7.844 30.022 7.61533 30.022 7.354C30.022 7.08333 30.1153 6.85 30.302 6.654C30.498 6.458 30.7313 6.36 31.002 6.36C31.2633 6.36 31.4873 6.458 31.674 6.654C31.8607 6.85 31.954 7.08333 31.954 7.354C31.954 7.61533 31.8607 7.844 31.674 8.04C31.4873 8.22667 31.2633 8.32 31.002 8.32ZM36.0798 16.44L36.7658 14.662C37.1112 14.8113 37.4425 14.9233 37.7598 14.998C38.0772 15.0727 38.3945 15.11 38.7118 15.11C39.0385 15.11 39.3092 15.082 39.5238 15.026C39.7478 14.9607 39.9158 14.8673 40.0278 14.746C40.1398 14.6247 40.1958 14.48 40.1958 14.312C40.1958 14.1533 40.1445 13.934 40.0418 13.654C39.9485 13.374 39.7758 13.01 39.5238 12.562C39.2718 12.1047 38.9032 11.54 38.4178 10.868L40.0838 9.762C40.5318 10.3967 40.9192 11.0173 41.2458 11.624C41.5725 12.2213 41.8245 12.7813 42.0018 13.304C42.1885 13.8173 42.2818 14.27 42.2818 14.662C42.2818 15.1473 42.1512 15.572 41.8898 15.936C41.6378 16.2907 41.2598 16.5707 40.7558 16.776C40.2612 16.9813 39.6498 17.084 38.9218 17.084C38.6512 17.084 38.3478 17.0607 38.0118 17.014C37.6758 16.9673 37.3352 16.8973 36.9898 16.804C36.6538 16.7107 36.3505 16.5893 36.0798 16.44ZM47.2603 17.07C46.3923 17.07 45.7203 16.9813 45.2443 16.804C44.7776 16.6267 44.4509 16.3513 44.2643 15.978C44.0776 15.5953 43.9703 15.1147 43.9423 14.536L43.6483 6.752H45.6083L45.9023 13.598C45.9209 14.0273 45.9676 14.3493 46.0423 14.564C46.1169 14.7787 46.2569 14.9233 46.4623 14.998C46.6769 15.0727 46.9896 15.11 47.4003 15.11C47.7549 15.11 48.0069 15.2033 48.1563 15.39C48.3149 15.5673 48.3943 15.7913 48.3943 16.062C48.3943 16.3513 48.2963 16.594 48.1003 16.79C47.9043 16.9767 47.6243 17.07 47.2603 17.07ZM47.2233 17.07L47.3633 15.11C48.0166 15.11 48.6046 15.068 49.1273 14.984C49.65 14.8907 50.1073 14.7693 50.4993 14.62C50.9006 14.4707 51.232 14.298 51.4933 14.102C51.764 13.906 51.9646 13.7007 52.0953 13.486C52.2353 13.262 52.3053 13.0427 52.3053 12.828C52.3053 12.7067 52.2726 12.5947 52.2073 12.492C52.1513 12.38 52.0533 12.2913 51.9133 12.226C51.7733 12.1513 51.582 12.114 51.3393 12.114C51.218 12.114 51.0733 12.128 50.9053 12.156C50.7373 12.184 50.5693 12.226 50.4013 12.282C50.2333 12.3287 50.0746 12.394 49.9253 12.478C50.1213 12.6273 50.336 12.8187 50.5693 13.052C50.8026 13.276 51.036 13.514 51.2693 13.766C51.5026 14.0087 51.7033 14.2467 51.8713 14.48C52.0673 14.564 52.282 14.648 52.5153 14.732C52.758 14.8067 53.0193 14.872 53.2993 14.928C53.5793 14.984 53.8733 15.0307 54.1813 15.068C54.4893 15.096 54.8066 15.11 55.1333 15.11C55.488 15.11 55.74 15.2033 55.8893 15.39C56.048 15.5673 56.1273 15.7913 56.1273 16.062C56.1273 16.3513 56.0293 16.594 55.8333 16.79C55.6373 16.9767 55.3573 17.07 54.9933 17.07C54.2466 17.07 53.584 17.014 53.0053 16.902C52.4266 16.7807 51.9086 16.608 51.4513 16.384C51.0033 16.1507 50.5833 15.8707 50.1913 15.544C50.0793 15.348 49.9206 15.138 49.7153 14.914C49.5193 14.6807 49.3093 14.4567 49.0853 14.242C48.8706 14.0273 48.6746 13.85 48.4973 13.71C48.4506 13.6727 48.3946 13.5747 48.3293 13.416C48.2733 13.248 48.222 13.0753 48.1753 12.898C48.1286 12.7113 48.1053 12.5807 48.1053 12.506C48.1053 12.2913 48.2033 12.0627 48.3993 11.82C48.6046 11.5773 48.8753 11.3533 49.2113 11.148C49.5566 10.9333 49.9346 10.7607 50.3453 10.63C50.7653 10.49 51.19 10.42 51.6193 10.42C52.198 10.42 52.6786 10.5087 53.0613 10.686C53.4533 10.854 53.7473 11.092 53.9433 11.4C54.1393 11.6987 54.2373 12.0487 54.2373 12.45C54.2373 12.898 54.1393 13.346 53.9433 13.794C53.7473 14.2327 53.458 14.648 53.0753 15.04C52.702 15.432 52.2306 15.782 51.6613 16.09C51.1013 16.3887 50.448 16.6267 49.7013 16.804C48.964 16.9813 48.138 17.07 47.2233 17.07ZM55.0039 17.07L55.1439 15.11C55.4799 15.11 55.7692 15.0773 56.0119 15.012C56.2546 14.9467 56.4599 14.816 56.6279 14.62C56.7959 14.4147 56.9359 14.116 57.0479 13.724C57.1692 13.332 57.2766 12.8093 57.3699 12.156L59.2039 12.464C59.1852 12.604 59.1572 12.7673 59.1199 12.954C59.0919 13.1407 59.0639 13.332 59.0359 13.528C59.0172 13.7147 59.0079 13.892 59.0079 14.06C59.0079 14.228 59.0406 14.3773 59.1059 14.508C59.1712 14.6387 59.2739 14.7507 59.4139 14.844C59.5632 14.928 59.7546 14.9933 59.9879 15.04C60.2306 15.0867 60.5246 15.11 60.8699 15.11C61.2246 15.11 61.4766 15.2033 61.6259 15.39C61.7752 15.5673 61.8499 15.7913 61.8499 16.062C61.8499 16.3513 61.7519 16.594 61.5559 16.79C61.3692 16.9767 61.0939 17.07 60.7299 17.07C60.3099 17.07 59.9272 17.0373 59.5819 16.972C59.2459 16.9067 58.9519 16.7993 58.6999 16.65C58.4572 16.4913 58.2566 16.286 58.0979 16.034C57.9486 15.7727 57.8552 15.4553 57.8179 15.082H58.4899C58.3219 15.53 58.1072 15.8893 57.8459 16.16C57.5939 16.4213 57.3092 16.6173 56.9919 16.748C56.6746 16.8787 56.3432 16.9627 55.9979 17C55.6619 17.0467 55.3306 17.07 55.0039 17.07ZM59.4979 10.896C59.2272 10.896 58.9939 10.8027 58.7979 10.616C58.6112 10.42 58.5179 10.1913 58.5179 9.93C58.5179 9.65933 58.6112 9.426 58.7979 9.23C58.9939 9.034 59.2272 8.936 59.4979 8.936C59.7592 8.936 59.9832 9.034 60.1699 9.23C60.3566 9.426 60.4499 9.65933 60.4499 9.93C60.4499 10.1913 60.3566 10.42 60.1699 10.616C59.9832 10.8027 59.7592 10.896 59.4979 10.896ZM57.0759 10.882C56.8052 10.882 56.5719 10.7887 56.3759 10.602C56.1892 10.406 56.0959 10.1773 56.0959 9.916C56.0959 9.64533 56.1892 9.412 56.3759 9.216C56.5719 9.02 56.8052 8.922 57.0759 8.922C57.3372 8.922 57.5612 9.02 57.7479 9.216C57.9346 9.412 58.0279 9.64533 58.0279 9.916C58.0279 10.1773 57.9346 10.406 57.7479 10.602C57.5612 10.7887 57.3372 10.882 57.0759 10.882ZM60.7324 17.07L60.8724 15.11C61.1804 15.11 61.4324 15.0867 61.6284 15.04C61.8244 14.984 61.9831 14.8673 62.1044 14.69C62.2351 14.5033 62.3471 14.228 62.4404 13.864C62.5431 13.4907 62.6551 12.9867 62.7764 12.352L64.5964 12.688C64.5684 12.828 64.5358 12.9913 64.4984 13.178C64.4611 13.3647 64.4284 13.556 64.4004 13.752C64.3724 13.9387 64.3584 14.1067 64.3584 14.256C64.3584 14.5173 64.4424 14.7273 64.6104 14.886C64.7784 15.0353 65.0958 15.11 65.5624 15.11C65.7958 15.11 65.9964 15.0867 66.1644 15.04C66.3418 14.984 66.4911 14.8673 66.6124 14.69C66.7431 14.5033 66.8551 14.2187 66.9484 13.836C67.0511 13.444 67.1491 12.9167 67.2424 12.254L69.0904 12.548C69.0531 12.7627 69.0158 12.9913 68.9784 13.234C68.9411 13.4767 68.9084 13.7007 68.8804 13.906C68.8524 14.1113 68.8384 14.2793 68.8384 14.41C68.8384 14.5313 68.8711 14.648 68.9364 14.76C69.0111 14.8627 69.1418 14.9467 69.3284 15.012C69.5244 15.0773 69.7998 15.11 70.1544 15.11C70.4064 15.11 70.6211 15.0773 70.7984 15.012C70.9851 14.9467 71.1251 14.8393 71.2184 14.69C71.3211 14.5407 71.3724 14.3447 71.3724 14.102C71.3724 13.7567 71.2931 13.304 71.1344 12.744C70.9758 12.184 70.7891 11.596 70.5744 10.98L72.5484 10.392C72.6978 10.7933 72.8284 11.2227 72.9404 11.68C73.0618 12.128 73.1551 12.5667 73.2204 12.996C73.2951 13.416 73.3324 13.7847 73.3324 14.102C73.3324 14.578 73.2578 15.0027 73.1084 15.376C72.9591 15.74 72.7491 16.048 72.4784 16.3C72.2078 16.552 71.8858 16.7433 71.5124 16.874C71.1391 17.0047 70.7284 17.07 70.2804 17.07C69.7391 17.07 69.2958 17.0187 68.9504 16.916C68.6051 16.804 68.3391 16.622 68.1524 16.37C67.9751 16.1087 67.8584 15.754 67.8024 15.306H68.2784C68.0824 15.8567 67.8631 16.258 67.6204 16.51C67.3778 16.7527 67.0884 16.9067 66.7524 16.972C66.4258 17.0373 66.0151 17.07 65.5204 17.07C65.2124 17.07 64.8951 17.0373 64.5684 16.972C64.2511 16.8973 63.9664 16.7293 63.7144 16.468C63.4624 16.2067 63.2758 15.8007 63.1544 15.25L63.9104 15.222C63.7144 15.7727 63.4578 16.1787 63.1404 16.44C62.8324 16.7013 62.4778 16.874 62.0764 16.958C61.6751 17.0327 61.2271 17.07 60.7324 17.07ZM79.5512 9.496C79.5512 9.188 79.5325 8.88 79.4952 8.572C79.4672 8.264 79.4298 7.97467 79.3832 7.704C79.3365 7.424 79.2945 7.18133 79.2572 6.976L81.2172 6.696C81.2545 6.88267 81.2918 7.13 81.3292 7.438C81.3665 7.746 81.3992 8.07267 81.4272 8.418C81.4552 8.754 81.4692 9.076 81.4692 9.384C81.4692 9.86933 81.4272 10.3267 81.3432 10.756C81.2592 11.1853 81.1332 11.5913 80.9652 11.974C80.7972 12.3473 80.5872 12.7067 80.3352 13.052L80.0832 13.388C79.8405 13.6867 79.5558 13.9807 79.2292 14.27C78.9118 14.5593 78.5618 14.8393 78.1792 15.11H79.0892C79.4065 15.11 79.6492 15.0913 79.8172 15.054C79.9852 15.0167 80.0972 14.9653 80.1532 14.9C80.2185 14.8253 80.2512 14.7413 80.2512 14.648C80.2512 14.48 80.1065 14.2327 79.8172 13.906C79.5278 13.57 79.1265 13.1873 78.6132 12.758C78.0998 12.3193 77.4978 11.8573 76.8072 11.372C76.1258 10.8773 75.3885 10.3827 74.5952 9.888L75.6172 8.39C76.7185 9.07133 77.6472 9.69667 78.4032 10.266C79.1685 10.8353 79.7938 11.3533 80.2792 11.82C80.7738 12.2867 81.1565 12.7113 81.4272 13.094C81.6978 13.4767 81.8845 13.822 81.9872 14.13C82.0898 14.4287 82.1412 14.6993 82.1412 14.942C82.1412 15.2127 82.0992 15.474 82.0152 15.726C81.9312 15.9687 81.7958 16.188 81.6092 16.384C81.4225 16.5707 81.1798 16.72 80.8812 16.832C80.5825 16.944 80.2138 17 79.7752 17H75.6592V15.124C76.6205 14.4333 77.3812 13.78 77.9412 13.164C78.5105 12.548 78.9212 11.9413 79.1732 11.344C79.4252 10.7467 79.5512 10.1307 79.5512 9.496ZM84.0009 17L83.7069 6.752H85.6669L85.9609 17H84.0009ZM87.507 20.22L87.101 18.26C87.7637 18.176 88.3423 18.0733 88.837 17.952C89.3317 17.84 89.747 17.6813 90.083 17.476C90.419 17.2707 90.671 16.9907 90.839 16.636C91.007 16.272 91.091 15.8053 91.091 15.236C91.091 15.0307 91.0723 14.8253 91.035 14.62C90.9977 14.4053 90.9417 14.2093 90.867 14.032C90.7923 13.8547 90.6943 13.71 90.573 13.598C90.461 13.486 90.3257 13.43 90.167 13.43C89.999 13.43 89.8497 13.4907 89.719 13.612C89.5883 13.724 89.4857 13.8687 89.411 14.046C89.3363 14.214 89.299 14.3867 89.299 14.564C89.299 14.6947 89.3317 14.8067 89.397 14.9C89.4623 14.984 89.5603 15.0493 89.691 15.096C89.8217 15.1333 89.985 15.152 90.181 15.152C90.405 15.152 90.6337 15.1287 90.867 15.082C91.1097 15.026 91.329 14.9513 91.525 14.858L91.581 16.384C91.357 16.5613 91.1003 16.72 90.811 16.86C90.5217 16.9907 90.1717 17.056 89.761 17.056C89.425 17.056 89.1123 17.0187 88.823 16.944C88.5337 16.86 88.277 16.734 88.053 16.566C87.8383 16.398 87.6703 16.1833 87.549 15.922C87.4277 15.6513 87.367 15.3293 87.367 14.956C87.367 14.4987 87.4417 14.0553 87.591 13.626C87.7403 13.1967 87.9457 12.814 88.207 12.478C88.4777 12.1327 88.7857 11.862 89.131 11.666C89.4857 11.4607 89.859 11.358 90.251 11.358C90.7177 11.358 91.1237 11.4747 91.469 11.708C91.8237 11.9413 92.1177 12.2493 92.351 12.632C92.5843 13.0053 92.7617 13.4113 92.883 13.85C93.0043 14.2887 93.065 14.7087 93.065 15.11C93.065 16.1647 92.841 17.0607 92.393 17.798C91.945 18.5353 91.3057 19.1047 90.475 19.506C89.6443 19.9167 88.655 20.1547 87.507 20.22ZM102.872 17.294L103.236 15.334C104.141 15.334 104.93 15.3107 105.602 15.264C106.274 15.208 106.829 15.1287 107.268 15.026C107.716 14.914 108.047 14.7693 108.262 14.592C108.486 14.4147 108.598 14.2 108.598 13.948C108.598 13.612 108.542 13.2107 108.43 12.744C108.318 12.268 108.173 11.7873 107.996 11.302L109.83 10.77C109.951 11.0873 110.068 11.4373 110.18 11.82C110.292 12.1933 110.381 12.5713 110.446 12.954C110.521 13.3273 110.558 13.6773 110.558 14.004C110.558 14.5827 110.432 15.082 110.18 15.502C109.928 15.9127 109.508 16.2533 108.92 16.524C108.341 16.7853 107.557 16.9767 106.568 17.098C105.579 17.2287 104.347 17.294 102.872 17.294ZM102.858 17.294C101.85 17.294 100.996 17.2147 100.296 17.056C99.6052 16.9067 99.0405 16.692 98.6019 16.412C98.1725 16.1227 97.8599 15.7867 97.6639 15.404C97.4679 15.0213 97.3699 14.6013 97.3699 14.144C97.3699 13.8453 97.3932 13.5467 97.4399 13.248C97.4959 12.94 97.5612 12.6413 97.6359 12.352C97.7199 12.0627 97.7945 11.8013 97.8599 11.568L99.6099 11.974C99.5725 12.142 99.5305 12.324 99.4839 12.52C99.4372 12.716 99.3999 12.9073 99.3719 13.094C99.3439 13.2713 99.3299 13.4347 99.3299 13.584C99.3299 13.9293 99.4512 14.2373 99.6939 14.508C99.9459 14.7693 100.357 14.9747 100.926 15.124C101.495 15.264 102.261 15.334 103.222 15.334L103.502 16.846L102.858 17.294ZM105.168 10.896C104.897 10.896 104.664 10.8027 104.468 10.616C104.281 10.42 104.188 10.1913 104.188 9.93C104.188 9.65933 104.281 9.426 104.468 9.23C104.664 9.034 104.897 8.936 105.168 8.936C105.429 8.936 105.653 9.034 105.84 9.23C106.027 9.426 106.12 9.65933 106.12 9.93C106.12 10.1913 106.027 10.42 105.84 10.616C105.653 10.8027 105.429 10.896 105.168 10.896ZM102.746 10.882C102.475 10.882 102.242 10.7887 102.046 10.602C101.859 10.406 101.766 10.1773 101.766 9.916C101.766 9.64533 101.859 9.412 102.046 9.216C102.242 9.02 102.475 8.922 102.746 8.922C103.007 8.922 103.231 9.02 103.418 9.216C103.605 9.412 103.698 9.64533 103.698 9.916C103.698 10.1773 103.605 10.406 103.418 10.602C103.231 10.7887 103.007 10.882 102.746 10.882ZM115.702 17.07C114.834 17.07 114.162 16.9813 113.686 16.804C113.219 16.6267 112.892 16.3513 112.706 15.978C112.519 15.5953 112.412 15.1147 112.384 14.536L112.09 6.752H114.05L114.344 13.598C114.362 14.0273 114.409 14.3493 114.484 14.564C114.558 14.7787 114.698 14.9233 114.904 14.998C115.118 15.0727 115.431 15.11 115.842 15.11C116.196 15.11 116.448 15.2033 116.598 15.39C116.756 15.5673 116.836 15.7913 116.836 16.062C116.836 16.3513 116.738 16.594 116.542 16.79C116.346 16.9767 116.066 17.07 115.702 17.07ZM115.721 17.07L115.861 15.11C116.271 15.11 116.593 15.082 116.827 15.026C117.069 14.97 117.242 14.8673 117.345 14.718C117.447 14.5593 117.499 14.3353 117.499 14.046C117.499 13.7847 117.461 13.472 117.387 13.108C117.321 12.744 117.233 12.366 117.121 11.974C117.009 11.582 116.897 11.2227 116.785 10.896L118.717 10.364C118.829 10.6813 118.941 11.05 119.053 11.47C119.165 11.89 119.258 12.324 119.333 12.772C119.417 13.2107 119.459 13.6353 119.459 14.046C119.459 14.5593 119.393 14.9933 119.263 15.348C119.132 15.6933 118.95 15.9827 118.717 16.216C118.493 16.44 118.222 16.6173 117.905 16.748C117.597 16.8693 117.256 16.9533 116.883 17C116.509 17.0467 116.122 17.07 115.721 17.07ZM117.737 9.202C117.447 9.202 117.2 9.104 116.995 8.908C116.799 8.712 116.701 8.46933 116.701 8.18C116.701 7.89067 116.799 7.64333 116.995 7.438C117.2 7.23267 117.447 7.13 117.737 7.13C118.017 7.13 118.255 7.23267 118.451 7.438C118.656 7.64333 118.759 7.89067 118.759 8.18C118.759 8.46933 118.656 8.712 118.451 8.908C118.255 9.104 118.017 9.202 117.737 9.202ZM124.602 17.07C123.734 17.07 123.062 16.9813 122.586 16.804C122.119 16.6267 121.793 16.3513 121.606 15.978C121.419 15.5953 121.312 15.1147 121.284 14.536L120.99 6.752H122.95L123.244 13.598C123.263 14.0273 123.309 14.3493 123.384 14.564C123.459 14.7787 123.599 14.9233 123.804 14.998C124.019 15.0727 124.331 15.11 124.742 15.11C125.097 15.11 125.349 15.2033 125.498 15.39C125.657 15.5673 125.736 15.7913 125.736 16.062C125.736 16.3513 125.638 16.594 125.442 16.79C125.246 16.9767 124.966 17.07 124.602 17.07ZM133.777 17.07C133.348 17.07 132.946 17.0373 132.573 16.972C132.209 16.9067 131.873 16.7947 131.565 16.636C131.257 16.468 130.982 16.2393 130.739 15.95C130.506 15.6607 130.31 15.2967 130.151 14.858L131.257 13.976C131.425 14.2747 131.63 14.508 131.873 14.676C132.116 14.8347 132.405 14.9467 132.741 15.012C133.077 15.0773 133.469 15.11 133.917 15.11C134.272 15.11 134.524 15.2033 134.673 15.39C134.822 15.5673 134.897 15.7913 134.897 16.062C134.897 16.3513 134.799 16.594 134.603 16.79C134.416 16.9767 134.141 17.07 133.777 17.07ZM124.621 17.07L124.761 15.11C125.265 15.11 125.764 15.082 126.259 15.026C126.754 14.97 127.234 14.886 127.701 14.774C128.168 14.662 128.611 14.5173 129.031 14.34C129.46 14.1627 129.862 13.948 130.235 13.696C129.955 13.528 129.652 13.3833 129.325 13.262C128.998 13.1407 128.648 13.052 128.275 12.996C127.911 12.9307 127.524 12.898 127.113 12.898C126.964 12.898 126.805 12.9027 126.637 12.912C126.478 12.9213 126.315 12.94 126.147 12.968C125.979 12.9867 125.811 13.0147 125.643 13.052L125.363 11.134C125.634 11.0593 125.918 11.008 126.217 10.98C126.525 10.9427 126.796 10.924 127.029 10.924C127.533 10.924 127.995 10.98 128.415 11.092C128.844 11.204 129.236 11.344 129.591 11.512C129.955 11.68 130.291 11.848 130.599 12.016C130.916 12.184 131.215 12.324 131.495 12.436C131.784 12.548 132.064 12.604 132.335 12.604H132.853L133.077 14.466C132.676 14.4847 132.298 14.564 131.943 14.704C131.598 14.8347 131.252 15.0027 130.907 15.208C130.571 15.404 130.207 15.6093 129.815 15.824C129.432 16.0387 128.998 16.2393 128.513 16.426C128.028 16.6127 127.468 16.7667 126.833 16.888C126.198 17.0093 125.461 17.07 124.621 17.07ZM133.781 17.07L133.921 15.11C134.257 15.11 134.547 15.0773 134.789 15.012C135.032 14.9467 135.237 14.816 135.405 14.62C135.573 14.4147 135.713 14.116 135.825 13.724C135.947 13.332 136.054 12.8093 136.147 12.156L137.981 12.464C137.963 12.604 137.935 12.7673 137.897 12.954C137.869 13.1407 137.841 13.332 137.813 13.528C137.795 13.7147 137.785 13.892 137.785 14.06C137.785 14.228 137.818 14.3773 137.883 14.508C137.949 14.6387 138.051 14.7507 138.191 14.844C138.341 14.928 138.532 14.9933 138.765 15.04C139.008 15.0867 139.302 15.11 139.647 15.11C140.002 15.11 140.254 15.2033 140.403 15.39C140.553 15.5673 140.627 15.7913 140.627 16.062C140.627 16.3513 140.529 16.594 140.333 16.79C140.147 16.9767 139.871 17.07 139.507 17.07C139.087 17.07 138.705 17.0373 138.359 16.972C138.023 16.9067 137.729 16.7993 137.477 16.65C137.235 16.4913 137.034 16.286 136.875 16.034C136.726 15.7727 136.633 15.4553 136.595 15.082H137.267C137.099 15.53 136.885 15.8893 136.623 16.16C136.371 16.4213 136.087 16.6173 135.769 16.748C135.452 16.8787 135.121 16.9627 134.775 17C134.439 17.0467 134.108 17.07 133.781 17.07ZM138.275 10.896C138.005 10.896 137.771 10.8027 137.575 10.616C137.389 10.42 137.295 10.1913 137.295 9.93C137.295 9.65933 137.389 9.426 137.575 9.23C137.771 9.034 138.005 8.936 138.275 8.936C138.537 8.936 138.761 9.034 138.947 9.23C139.134 9.426 139.227 9.65933 139.227 9.93C139.227 10.1913 139.134 10.42 138.947 10.616C138.761 10.8027 138.537 10.896 138.275 10.896ZM135.853 10.882C135.583 10.882 135.349 10.7887 135.153 10.602C134.967 10.406 134.873 10.1773 134.873 9.916C134.873 9.64533 134.967 9.412 135.153 9.216C135.349 9.02 135.583 8.922 135.853 8.922C136.115 8.922 136.339 9.02 136.525 9.216C136.712 9.412 136.805 9.64533 136.805 9.916C136.805 10.1773 136.712 10.406 136.525 10.602C136.339 10.7887 136.115 10.882 135.853 10.882ZM139.51 17.07L139.65 15.11C139.864 15.11 140.046 15.0587 140.196 14.956C140.354 14.844 140.518 14.662 140.686 14.41C140.854 14.1487 141.05 13.7987 141.274 13.36C141.554 12.8 141.843 12.3613 142.142 12.044C142.45 11.7267 142.762 11.5027 143.08 11.372C143.406 11.232 143.733 11.162 144.06 11.162C144.47 11.162 144.853 11.2507 145.208 11.428C145.562 11.6053 145.87 11.848 146.132 12.156C146.393 12.4547 146.594 12.8 146.734 13.192C146.883 13.5747 146.958 13.9713 146.958 14.382C146.958 14.8767 146.85 15.3247 146.636 15.726C146.43 16.118 146.141 16.4307 145.768 16.664C145.404 16.888 144.984 17 144.508 17C144.106 17 143.64 16.93 143.108 16.79C142.576 16.65 142.016 16.356 141.428 15.908L142.142 14.214C142.562 14.5033 142.954 14.7133 143.318 14.844C143.691 14.9747 143.999 15.04 144.242 15.04C144.428 15.04 144.582 15.0213 144.704 14.984C144.825 14.9467 144.914 14.886 144.97 14.802C145.026 14.718 145.054 14.606 145.054 14.466C145.054 14.27 145.007 14.0693 144.914 13.864C144.82 13.6587 144.694 13.486 144.536 13.346C144.386 13.1967 144.209 13.122 144.004 13.122C143.808 13.122 143.64 13.1967 143.5 13.346C143.369 13.486 143.238 13.6913 143.108 13.962C142.986 14.2233 142.837 14.5313 142.66 14.886C142.445 15.3153 142.235 15.6747 142.03 15.964C141.824 16.244 141.605 16.468 141.372 16.636C141.148 16.7947 140.882 16.9067 140.574 16.972C140.275 17.0373 139.92 17.07 139.51 17.07ZM153.174 9.496C153.174 9.188 153.156 8.88 153.118 8.572C153.09 8.264 153.053 7.97467 153.006 7.704C152.96 7.424 152.918 7.18133 152.88 6.976L154.84 6.696C154.878 6.88267 154.915 7.13 154.952 7.438C154.99 7.746 155.022 8.07267 155.05 8.418C155.078 8.754 155.092 9.076 155.092 9.384C155.092 9.86933 155.05 10.3267 154.966 10.756C154.882 11.1853 154.756 11.5913 154.588 11.974C154.42 12.3473 154.21 12.7067 153.958 13.052L153.706 13.388C153.464 13.6867 153.179 13.9807 152.852 14.27C152.535 14.5593 152.185 14.8393 151.802 15.11H152.712C153.03 15.11 153.272 15.0913 153.44 15.054C153.608 15.0167 153.72 14.9653 153.776 14.9C153.842 14.8253 153.874 14.7413 153.874 14.648C153.874 14.48 153.73 14.2327 153.44 13.906C153.151 13.57 152.75 13.1873 152.236 12.758C151.723 12.3193 151.121 11.8573 150.43 11.372C149.749 10.8773 149.012 10.3827 148.218 9.888L149.24 8.39C150.342 9.07133 151.27 9.69667 152.026 10.266C152.792 10.8353 153.417 11.3533 153.902 11.82C154.397 12.2867 154.78 12.7113 155.05 13.094C155.321 13.4767 155.508 13.822 155.61 14.13C155.713 14.4287 155.764 14.6993 155.764 14.942C155.764 15.2127 155.722 15.474 155.638 15.726C155.554 15.9687 155.419 16.188 155.232 16.384C155.046 16.5707 154.803 16.72 154.504 16.832C154.206 16.944 153.837 17 153.398 17H149.282V15.124C150.244 14.4333 151.004 13.78 151.564 13.164C152.134 12.548 152.544 11.9413 152.796 11.344C153.048 10.7467 153.174 10.1307 153.174 9.496ZM157.624 17L157.33 6.752H159.29L159.584 17H157.624Z" fill="#5955B3"/>
<g filter="url(#filter0_d_1359_7642)">
<path d="M9.60272 16.9412L4.65144 10.5529L9.60272 4.23528" stroke="#6663CF" stroke-width="2" stroke-miterlimit="10" stroke-linecap="round" stroke-linejoin="round"/>
<path d="M9.60272 16.9412L4.65144 10.5529L9.60272 4.23528" stroke="#6663CF" stroke-width="2" stroke-miterlimit="10" stroke-linecap="round" stroke-linejoin="round"/>
<path d="M23 10.5529L14.3949 10.5529L5.96203 10.5529" stroke="#6663CF" stroke-width="2" stroke-miterlimit="10" stroke-linecap="round" stroke-linejoin="round"/>
<path d="M23 10.5529L14.3949 10.5529L5.96203 10.5529" stroke="#6663CF" stroke-width="2" stroke-miterlimit="10" stroke-linecap="round" stroke-linejoin="round"/>
</g>
</g>
<defs>
<filter id="filter0_d_1359_7642" x="-0.348572" y="3.23523" width="28.3486" height="22.706" filterUnits="userSpaceOnUse" color-interpolation-filters="sRGB">
<feFlood flood-opacity="0" result="BackgroundImageFix"/>
<feColorMatrix in="SourceAlpha" type="matrix" values="0 0 0 0 0 0 0 0 0 0 0 0 0 0 0 0 0 0 127 0" result="hardAlpha"/>
<feOffset dy="4"/>
<feGaussianBlur stdDeviation="2"/>
<feComposite in2="hardAlpha" operator="out"/>
<feColorMatrix type="matrix" values="0 0 0 0 0 0 0 0 0 0 0 0 0 0 0 0 0 0 0.25 0"/>
<feBlend mode="normal" in2="BackgroundImageFix" result="effect1_dropShadow_1359_7642"/>
<feBlend mode="normal" in="SourceGraphic" in2="effect1_dropShadow_1359_7642" result="shape"/>
</filter>
<clipPath id="clip0_1359_7642">
<rect width="220" height="24" fill="white"/>
</clipPath>
</defs>
</svg>
