<svg width="140" height="24" viewBox="0 0 140 24" fill="none" xmlns="http://www.w3.org/2000/svg">
<g clip-path="url(#clip0_1359_7624)">
<path d="M35.8 18.336L36.216 16.096C37.2507 16.096 38.152 16.0693 38.92 16.016C39.688 15.952 40.3227 15.8613 40.824 15.744C41.336 15.616 41.7147 15.4507 41.96 15.248C42.216 15.0453 42.344 14.8 42.344 14.512C42.344 14.128 42.28 13.6693 42.152 13.136C42.024 12.592 41.8587 12.0427 41.656 11.488L43.752 10.88C43.8907 11.2427 44.024 11.6427 44.152 12.08C44.28 12.5067 44.3813 12.9387 44.456 13.376C44.5413 13.8027 44.584 14.2027 44.584 14.576C44.584 15.2373 44.44 15.808 44.152 16.288C43.864 16.7573 43.384 17.1467 42.712 17.456C42.0507 17.7547 41.1547 17.9733 40.024 18.112C38.8933 18.2613 37.4853 18.336 35.8 18.336ZM35.784 18.336C34.632 18.336 33.656 18.2453 32.856 18.064C32.0667 17.8933 31.4213 17.648 30.92 17.328C30.4293 16.9973 30.072 16.6133 29.848 16.176C29.624 15.7387 29.512 15.2587 29.512 14.736C29.512 14.3947 29.5387 14.0533 29.592 13.712C29.656 13.36 29.7307 13.0187 29.816 12.688C29.912 12.3573 29.9973 12.0587 30.072 11.792L32.072 12.256C32.0293 12.448 31.9813 12.656 31.928 12.88C31.8747 13.104 31.832 13.3227 31.8 13.536C31.768 13.7387 31.752 13.9253 31.752 14.096C31.752 14.4907 31.8907 14.8427 32.168 15.152C32.456 15.4507 32.9253 15.6853 33.576 15.856C34.2267 16.016 35.1013 16.096 36.2 16.096L36.52 17.824L35.784 18.336ZM38.424 11.024C38.1147 11.024 37.848 10.9173 37.624 10.704C37.4107 10.48 37.304 10.2187 37.304 9.92C37.304 9.61067 37.4107 9.344 37.624 9.12C37.848 8.896 38.1147 8.784 38.424 8.784C38.7227 8.784 38.9787 8.896 39.192 9.12C39.4053 9.344 39.512 9.61067 39.512 9.92C39.512 10.2187 39.4053 10.48 39.192 10.704C38.9787 10.9173 38.7227 11.024 38.424 11.024ZM35.656 11.008C35.3467 11.008 35.08 10.9013 34.856 10.688C34.6427 10.464 34.536 10.2027 34.536 9.904C34.536 9.59467 34.6427 9.328 34.856 9.104C35.08 8.88 35.3467 8.768 35.656 8.768C35.9547 8.768 36.2107 8.88 36.424 9.104C36.6373 9.328 36.744 9.59467 36.744 9.904C36.744 10.2027 36.6373 10.464 36.424 10.688C36.2107 10.9013 35.9547 11.008 35.656 11.008ZM46.6706 18L46.3346 6.288H48.5746L48.9106 18H46.6706ZM49.6154 21.68L48.7994 19.632C49.7167 19.312 50.458 18.96 51.0234 18.576C51.5994 18.192 52.0207 17.7813 52.2874 17.344C52.5647 16.9067 52.7034 16.4533 52.7034 15.984C52.7034 15.6853 52.6607 15.376 52.5754 15.056C52.49 14.7253 52.3674 14.3787 52.2074 14.016C52.058 13.6533 51.8767 13.2747 51.6634 12.88L53.7594 11.872C54.1327 12.5867 54.4207 13.2693 54.6234 13.92C54.8367 14.5707 54.9434 15.1787 54.9434 15.744C54.9434 16.2667 54.874 16.768 54.7354 17.248C54.6074 17.728 54.4047 18.176 54.1274 18.592C53.8607 19.0187 53.514 19.4187 53.0874 19.792C52.6607 20.1653 52.1594 20.5067 51.5834 20.816C51.0074 21.136 50.3514 21.424 49.6154 21.68ZM56.8183 21.68L56.3543 19.44C57.1116 19.344 57.7729 19.2267 58.3383 19.088C58.9036 18.96 59.3783 18.7787 59.7623 18.544C60.1463 18.3093 60.4343 17.9893 60.6263 17.584C60.8183 17.168 60.9143 16.6347 60.9143 15.984C60.9143 15.7493 60.8929 15.5147 60.8503 15.28C60.8076 15.0347 60.7436 14.8107 60.6583 14.608C60.5729 14.4053 60.4609 14.24 60.3223 14.112C60.1943 13.984 60.0396 13.92 59.8583 13.92C59.6663 13.92 59.4956 13.9893 59.3463 14.128C59.1969 14.256 59.0796 14.4213 58.9943 14.624C58.9089 14.816 58.8663 15.0133 58.8663 15.216C58.8663 15.3653 58.9036 15.4933 58.9783 15.6C59.0529 15.696 59.1649 15.7707 59.3143 15.824C59.4636 15.8667 59.6503 15.888 59.8743 15.888C60.1303 15.888 60.3916 15.8613 60.6583 15.808C60.9356 15.744 61.1863 15.6587 61.4103 15.552L61.4743 17.296C61.2183 17.4987 60.9249 17.68 60.5943 17.84C60.2636 17.9893 59.8636 18.064 59.3943 18.064C59.0103 18.064 58.6529 18.0213 58.3223 17.936C57.9916 17.84 57.6983 17.696 57.4423 17.504C57.1969 17.312 57.0049 17.0667 56.8663 16.768C56.7276 16.4587 56.6583 16.0907 56.6583 15.664C56.6583 15.1413 56.7436 14.6347 56.9143 14.144C57.0849 13.6533 57.3196 13.216 57.6183 12.832C57.9276 12.4373 58.2796 12.128 58.6743 11.904C59.0796 11.6693 59.5063 11.552 59.9543 11.552C60.4876 11.552 60.9516 11.6853 61.3463 11.952C61.7516 12.2187 62.0876 12.5707 62.3543 13.008C62.6209 13.4347 62.8236 13.8987 62.9623 14.4C63.1009 14.9013 63.1703 15.3813 63.1703 15.84C63.1703 17.0453 62.9143 18.0693 62.4023 18.912C61.8903 19.7547 61.1596 20.4053 60.2103 20.864C59.2609 21.3333 58.1303 21.6053 56.8183 21.68ZM67.363 15.84C67.843 15.84 68.211 15.7973 68.467 15.712C68.723 15.6267 68.899 15.5147 68.995 15.376C69.091 15.2373 69.139 15.088 69.139 14.928C69.139 14.672 69.0643 14.3733 68.915 14.032C68.7763 13.6907 68.6003 13.3333 68.387 12.96C68.1737 12.5867 67.9497 12.2293 67.715 11.888C67.491 11.5467 67.2883 11.248 67.107 10.992L69.011 9.728C69.4697 10.3467 69.8643 10.96 70.195 11.568C70.5257 12.1653 70.7923 12.72 70.995 13.232C71.2083 13.744 71.3577 14.1813 71.443 14.544C71.5283 14.8853 71.6563 15.152 71.827 15.344C72.0083 15.5253 72.2163 15.6533 72.451 15.728C72.6857 15.8027 72.9203 15.84 73.155 15.84C73.5603 15.84 73.8483 15.9467 74.019 16.16C74.2003 16.3627 74.291 16.6187 74.291 16.928C74.291 17.2587 74.179 17.536 73.955 17.76C73.7417 17.9733 73.4217 18.08 72.995 18.08C72.5257 18.08 72.115 18.016 71.763 17.888C71.411 17.76 71.1123 17.5573 70.867 17.28C70.6217 17.0027 70.4137 16.6507 70.243 16.224L71.219 16.432C71.1337 16.7307 70.9363 17.008 70.627 17.264C70.3283 17.5093 69.9283 17.712 69.427 17.872C68.9363 18.0213 68.355 18.096 67.683 18.096C67.363 18.096 67.0057 18.0693 66.611 18.016C66.227 17.9627 65.843 17.8827 65.459 17.776C65.0857 17.6693 64.7443 17.5307 64.435 17.36L65.219 15.328C65.6137 15.4987 65.9923 15.6267 66.355 15.712C66.7283 15.7973 67.0643 15.84 67.363 15.84ZM73.0156 18.08L73.1756 15.84C73.6663 15.84 74.0183 15.792 74.2316 15.696C74.445 15.5893 74.573 15.3973 74.6156 15.12C74.6583 14.832 74.669 14.416 74.6476 13.872L74.3596 6.288H76.6156L76.9356 14.032C76.957 14.6507 76.9303 15.2107 76.8556 15.712C76.7916 16.2027 76.6263 16.624 76.3596 16.976C76.1036 17.328 75.7036 17.6 75.1596 17.792C74.6263 17.984 73.9116 18.08 73.0156 18.08ZM79.0456 18L78.7096 6.288H80.9496L81.2856 18H79.0456ZM86.2598 17.552C86.2598 17.1787 86.3078 16.7147 86.4038 16.16C86.5104 15.5947 86.7398 14.9227 87.0918 14.144L89.0598 14.832C88.8784 15.3333 88.7398 15.7653 88.6438 16.128C88.5478 16.48 88.4998 16.8267 88.4998 17.168C88.4998 17.648 88.6064 18.0587 88.8198 18.4C89.0438 18.7413 89.3691 19.0027 89.7958 19.184C90.2331 19.3653 90.7664 19.456 91.3958 19.456C92.0358 19.456 92.5691 19.3867 92.9958 19.248C93.4224 19.1093 93.7584 18.912 94.0038 18.656C94.2491 18.4107 94.4251 18.1227 94.5318 17.792C94.6384 17.4613 94.6918 17.104 94.6918 16.72C94.6918 16.4213 94.6544 16.0853 94.5798 15.712C94.5158 15.3387 94.4198 14.9333 94.2917 14.496C94.1638 14.048 94.0198 13.5787 93.8598 13.088L96.0998 12.512C96.2064 12.9173 96.2918 13.264 96.3558 13.552C96.4304 13.84 96.4944 14.08 96.5478 14.272C96.6011 14.4533 96.6438 14.6027 96.6758 14.72C96.7824 15.04 96.9264 15.28 97.1078 15.44C97.2891 15.6 97.5238 15.7067 97.8118 15.76C98.1104 15.8133 98.4678 15.84 98.8838 15.84C99.2891 15.84 99.5771 15.9467 99.7478 16.16C99.9184 16.3627 100.004 16.6187 100.004 16.928C100.004 17.2587 99.8918 17.536 99.6678 17.76C99.4438 17.9733 99.1291 18.08 98.7238 18.08C98.3611 18.08 97.9984 18.032 97.6358 17.936C97.2838 17.8293 96.9798 17.6587 96.7238 17.424C96.4678 17.1893 96.3024 16.8747 96.2278 16.48L96.8198 17.12C96.7984 17.8453 96.6544 18.4907 96.3878 19.056C96.1211 19.6213 95.7478 20.1013 95.2678 20.496C94.7984 20.8907 94.2278 21.1893 93.5558 21.392C92.8944 21.5947 92.1531 21.696 91.3318 21.696C90.6171 21.696 89.9504 21.616 89.3318 21.456C88.7238 21.3067 88.1851 21.0613 87.7158 20.72C87.2571 20.3893 86.8998 19.9627 86.6438 19.44C86.3878 18.9173 86.2598 18.288 86.2598 17.552ZM91.4758 11.472C91.1451 11.472 90.8624 11.36 90.6278 11.136C90.4038 10.912 90.2918 10.6347 90.2918 10.304C90.2918 9.97333 90.4038 9.69067 90.6278 9.456C90.8624 9.22133 91.1451 9.104 91.4758 9.104C91.7958 9.104 92.0678 9.22133 92.2918 9.456C92.5264 9.69067 92.6438 9.97333 92.6438 10.304C92.6438 10.6347 92.5264 10.912 92.2918 11.136C92.0678 11.36 91.7958 11.472 91.4758 11.472ZM98.7188 18.08L98.8788 15.84C99.3801 15.84 99.7641 15.8347 100.031 15.824C100.308 15.8133 100.516 15.8027 100.655 15.792C100.793 15.7707 100.911 15.7547 101.007 15.744C100.9 15.6373 100.761 15.4827 100.591 15.28C100.42 15.0773 100.265 14.816 100.127 14.496C99.9988 14.176 99.9348 13.792 99.9348 13.344C99.9348 12.6933 100.1 12.1227 100.431 11.632C100.772 11.1413 101.231 10.7573 101.807 10.48C102.383 10.2027 103.028 10.064 103.743 10.064C104.084 10.064 104.399 10.0853 104.687 10.128C104.985 10.1707 105.284 10.2347 105.583 10.32L105.231 12.448C105.017 12.3947 104.793 12.352 104.559 12.32C104.324 12.288 104.116 12.272 103.935 12.272C103.583 12.272 103.273 12.3307 103.007 12.448C102.751 12.5547 102.548 12.7093 102.399 12.912C102.26 13.104 102.191 13.3387 102.191 13.616C102.191 13.7973 102.223 13.968 102.287 14.128C102.361 14.288 102.452 14.432 102.559 14.56C102.665 14.688 102.783 14.8 102.911 14.896C103.039 14.992 103.161 15.072 103.279 15.136C103.407 15.1893 103.513 15.2267 103.599 15.248C103.865 15.1733 104.095 15.1093 104.287 15.056C104.489 14.992 104.681 14.9333 104.863 14.88C105.055 14.816 105.263 14.736 105.487 14.64C105.711 14.544 105.988 14.4267 106.319 14.288L107.039 16.4C106.143 16.8373 105.268 17.1787 104.415 17.424C103.561 17.6693 102.676 17.84 101.759 17.936C100.841 18.032 99.8281 18.08 98.7188 18.08ZM113.632 16.432C113.461 16.3467 113.291 16.2293 113.12 16.08C112.949 15.92 112.795 15.7333 112.656 15.52C112.517 15.3067 112.405 15.0773 112.32 14.832C112.245 14.576 112.208 14.3147 112.208 14.048C112.208 13.4613 112.347 12.944 112.624 12.496C112.901 12.0373 113.275 11.68 113.744 11.424C114.213 11.1573 114.731 11.024 115.296 11.024C115.605 11.024 115.888 11.0453 116.144 11.088C116.411 11.12 116.677 11.1733 116.944 11.248L116.592 13.328C116.4 13.2747 116.213 13.2373 116.032 13.216C115.861 13.184 115.707 13.168 115.568 13.168C115.344 13.168 115.147 13.216 114.976 13.312C114.805 13.3973 114.672 13.5253 114.576 13.696C114.491 13.856 114.448 14.0427 114.448 14.256C114.448 14.5013 114.501 14.72 114.608 14.912C114.725 15.104 114.896 15.2693 115.12 15.408C115.355 15.536 115.643 15.6373 115.984 15.712L113.632 16.432ZM112.192 18.912L111.472 16.816C112.027 16.6667 112.629 16.496 113.28 16.304C113.931 16.1013 114.613 15.872 115.328 15.616C116.053 15.36 116.789 15.0827 117.536 14.784L118.368 16.832C117.941 17.0027 117.467 17.1893 116.944 17.392C116.421 17.584 115.877 17.776 115.312 17.968C114.747 18.16 114.197 18.336 113.664 18.496C113.131 18.656 112.64 18.7947 112.192 18.912ZM119.26 17.552C119.26 17.3067 119.281 17.0187 119.324 16.688C119.366 16.3573 119.446 15.984 119.564 15.568C119.681 15.1413 119.857 14.6667 120.092 14.144L122.06 14.832C121.942 15.1627 121.841 15.4667 121.756 15.744C121.67 16.0107 121.606 16.2613 121.564 16.496C121.521 16.72 121.5 16.944 121.5 17.168C121.5 17.52 121.574 17.8347 121.724 18.112C121.884 18.4 122.113 18.64 122.412 18.832C122.71 19.0347 123.073 19.1893 123.5 19.296C123.937 19.4027 124.438 19.456 125.004 19.456C125.59 19.456 126.113 19.4293 126.572 19.376C127.041 19.3227 127.436 19.2427 127.756 19.136C128.086 19.0293 128.337 18.8907 128.508 18.72C128.678 18.56 128.764 18.3733 128.764 18.16C128.764 18.064 128.726 17.9733 128.652 17.888C128.588 17.8027 128.476 17.712 128.316 17.616C128.166 17.52 127.964 17.4187 127.708 17.312C127.462 17.2053 127.164 17.088 126.812 16.96L127.34 14.704C127.798 14.896 128.23 15.0667 128.636 15.216C129.052 15.3547 129.446 15.472 129.82 15.568C130.193 15.6533 130.545 15.7227 130.876 15.776C131.206 15.8187 131.516 15.84 131.804 15.84C132.209 15.84 132.497 15.9467 132.668 16.16C132.838 16.3627 132.924 16.6187 132.924 16.928C132.924 17.2587 132.812 17.536 132.588 17.76C132.364 17.9733 132.049 18.08 131.644 18.08C131.558 18.08 131.473 18.08 131.388 18.08C131.313 18.08 131.233 18.08 131.148 18.08C131.073 18.08 130.993 18.08 130.908 18.08C130.929 18.1867 130.94 18.2773 130.94 18.352C130.94 18.4373 130.94 18.5173 130.94 18.592C130.94 18.944 130.817 19.3013 130.572 19.664C130.337 20.0267 129.969 20.3627 129.468 20.672C128.966 20.9813 128.326 21.2267 127.548 21.408C126.78 21.6 125.862 21.696 124.796 21.696C123.644 21.696 122.652 21.5467 121.82 21.248C120.998 20.96 120.364 20.5067 119.916 19.888C119.478 19.28 119.26 18.5013 119.26 17.552ZM126.364 25.408C126.054 25.408 125.788 25.296 125.564 25.072C125.35 24.8587 125.244 24.6027 125.244 24.304C125.244 23.9947 125.35 23.728 125.564 23.504C125.788 23.28 126.054 23.168 126.364 23.168C126.662 23.168 126.918 23.28 127.132 23.504C127.345 23.728 127.452 23.9947 127.452 24.304C127.452 24.6027 127.345 24.8587 127.132 25.072C126.918 25.296 126.662 25.408 126.364 25.408ZM123.596 25.408C123.286 25.408 123.02 25.296 122.796 25.072C122.582 24.8587 122.476 24.6027 122.476 24.304C122.476 23.9947 122.582 23.728 122.796 23.504C123.02 23.28 123.286 23.168 123.596 23.168C123.894 23.168 124.15 23.28 124.364 23.504C124.577 23.728 124.684 23.9947 124.684 24.304C124.684 24.6027 124.577 24.8587 124.364 25.072C124.15 25.296 123.894 25.408 123.596 25.408ZM131.641 18.08L131.801 15.84C132.153 15.84 132.441 15.8133 132.665 15.76C132.889 15.696 133.07 15.5627 133.209 15.36C133.358 15.1467 133.486 14.832 133.593 14.416C133.71 13.9893 133.838 13.4133 133.977 12.688L136.057 13.072C136.025 13.232 135.987 13.4187 135.945 13.632C135.902 13.8453 135.865 14.064 135.833 14.288C135.801 14.5013 135.785 14.6933 135.785 14.864C135.785 15.1627 135.881 15.4027 136.073 15.584C136.265 15.7547 136.627 15.84 137.161 15.84C137.427 15.84 137.657 15.8133 137.849 15.76C138.051 15.696 138.222 15.5627 138.361 15.36C138.51 15.1467 138.638 14.8213 138.745 14.384C138.862 13.936 138.974 13.3333 139.081 12.576L141.193 12.912C141.15 13.1573 141.107 13.4187 141.065 13.696C141.022 13.9733 140.985 14.2293 140.953 14.464C140.921 14.6987 140.905 14.8907 140.905 15.04C140.905 15.1787 140.942 15.312 141.017 15.44C141.102 15.5573 141.251 15.6533 141.465 15.728C141.689 15.8027 142.003 15.84 142.409 15.84C142.697 15.84 142.942 15.8027 143.145 15.728C143.358 15.6533 143.518 15.5307 143.625 15.36C143.742 15.1893 143.801 14.9653 143.801 14.688C143.801 14.2933 143.71 13.776 143.529 13.136C143.347 12.496 143.134 11.824 142.889 11.12L145.145 10.448C145.315 10.9067 145.465 11.3973 145.593 11.92C145.731 12.432 145.838 12.9333 145.913 13.424C145.998 13.904 146.041 14.3253 146.041 14.688C146.041 15.232 145.955 15.7173 145.785 16.144C145.614 16.56 145.374 16.912 145.065 17.2C144.755 17.488 144.387 17.7067 143.961 17.856C143.534 18.0053 143.065 18.08 142.553 18.08C141.934 18.08 141.427 18.0213 141.033 17.904C140.638 17.776 140.334 17.568 140.121 17.28C139.918 16.9813 139.785 16.576 139.721 16.064H140.265C140.041 16.6933 139.79 17.152 139.513 17.44C139.235 17.7173 138.905 17.8933 138.521 17.968C138.147 18.0427 137.678 18.08 137.113 18.08C136.761 18.08 136.398 18.0427 136.025 17.968C135.662 17.8827 135.337 17.6907 135.049 17.392C134.761 17.0933 134.547 16.6293 134.409 16L135.273 15.968C135.049 16.5973 134.755 17.0613 134.393 17.36C134.041 17.6587 133.635 17.856 133.177 17.952C132.718 18.0373 132.206 18.08 131.641 18.08ZM140.009 8.176C139.742 8.176 139.507 8.07467 139.305 7.872C139.113 7.66933 139.017 7.42933 139.017 7.152C139.017 6.87467 139.113 6.64 139.305 6.448C139.507 6.256 139.742 6.16 140.009 6.16C140.286 6.16 140.521 6.256 140.713 6.448C140.905 6.64 141.001 6.87467 141.001 7.152C141.001 7.42933 140.905 7.66933 140.713 7.872C140.521 8.07467 140.286 8.176 140.009 8.176ZM138.729 10.288C138.462 10.288 138.227 10.1867 138.025 9.984C137.833 9.78133 137.737 9.54133 137.737 9.264C137.737 8.98667 137.833 8.752 138.025 8.56C138.227 8.368 138.462 8.272 138.729 8.272C139.006 8.272 139.241 8.368 139.433 8.56C139.625 8.752 139.721 8.98667 139.721 9.264C139.721 9.54133 139.625 9.78133 139.433 9.984C139.241 10.1867 139.006 10.288 138.729 10.288ZM141.209 10.288C140.942 10.288 140.707 10.1867 140.505 9.984C140.313 9.78133 140.217 9.54133 140.217 9.264C140.217 8.98667 140.313 8.752 140.505 8.56C140.707 8.368 140.942 8.272 141.209 8.272C141.486 8.272 141.721 8.368 141.913 8.56C142.105 8.752 142.201 8.98667 142.201 9.264C142.201 9.54133 142.105 9.78133 141.913 9.984C141.721 10.1867 141.486 10.288 141.209 10.288ZM150.963 17.552C150.963 17.3067 150.984 17.0187 151.027 16.688C151.07 16.3573 151.15 15.984 151.267 15.568C151.384 15.1413 151.56 14.6667 151.795 14.144L153.763 14.832C153.646 15.1627 153.544 15.4667 153.459 15.744C153.374 16.0107 153.31 16.2613 153.267 16.496C153.224 16.72 153.203 16.944 153.203 17.168C153.203 17.648 153.32 18.064 153.555 18.416C153.8 18.7787 154.131 19.056 154.547 19.248C154.974 19.4507 155.464 19.552 156.019 19.552C156.926 19.552 157.619 19.4027 158.099 19.104C158.59 18.816 158.92 18.3573 159.091 17.728C159.272 17.088 159.342 16.2613 159.299 15.248L158.979 6.288H161.235L161.475 13.856C161.496 14.3893 161.571 14.8 161.699 15.088C161.827 15.376 162.024 15.5733 162.291 15.68C162.568 15.7867 162.926 15.84 163.363 15.84C163.768 15.84 164.056 15.9467 164.227 16.16C164.398 16.3627 164.483 16.6187 164.483 16.928C164.483 17.2587 164.371 17.536 164.147 17.76C163.923 17.9733 163.608 18.08 163.203 18.08C162.968 18.08 162.718 18.048 162.451 17.984C162.184 17.92 161.928 17.8187 161.683 17.68C161.438 17.5413 161.224 17.36 161.043 17.136C160.862 16.9013 160.739 16.6133 160.675 16.272L161.539 15.84C161.539 16.9173 161.411 17.8293 161.155 18.576C160.91 19.3227 160.547 19.9253 160.067 20.384C159.598 20.8427 159.016 21.1733 158.323 21.376C157.64 21.5893 156.851 21.696 155.955 21.696C155.272 21.696 154.627 21.6107 154.019 21.44C153.422 21.2693 152.894 21.0133 152.435 20.672C151.976 20.3307 151.614 19.8987 151.347 19.376C151.091 18.864 150.963 18.256 150.963 17.552ZM163.203 18.08L163.363 15.84H165.651C165.875 15.84 166.072 15.8293 166.243 15.808C166.414 15.776 166.552 15.728 166.659 15.664C166.776 15.6 166.862 15.52 166.915 15.424C166.968 15.328 166.995 15.216 166.995 15.088C166.995 14.96 166.926 14.7573 166.787 14.48C166.659 14.192 166.376 13.8453 165.939 13.44C165.704 13.2267 165.448 13.0027 165.171 12.768C164.904 12.5227 164.648 12.2933 164.403 12.08C164.158 11.856 163.955 11.6587 163.795 11.488C163.635 11.3173 163.555 11.1947 163.555 11.12C163.555 10.96 163.566 10.784 163.587 10.592C163.608 10.4 163.64 10.224 163.683 10.064C163.736 9.904 163.806 9.78667 163.891 9.712C164.072 9.54133 164.339 9.344 164.691 9.12C165.054 8.88533 165.486 8.63467 165.987 8.368C166.488 8.09067 167.048 7.80267 167.667 7.504C168.296 7.19467 168.968 6.88533 169.683 6.576L170.595 8.528C170.008 8.784 169.454 9.03467 168.931 9.28C168.408 9.51467 167.918 9.74933 167.459 9.984C167.011 10.208 166.595 10.432 166.211 10.656C165.838 10.8693 165.507 11.0827 165.219 11.296L165.427 10.112C166.334 10.8053 167.054 11.4293 167.587 11.984C168.131 12.5387 168.536 13.0347 168.803 13.472C169.07 13.8987 169.246 14.2827 169.331 14.624C169.416 14.9547 169.459 15.248 169.459 15.504C169.459 15.76 169.395 16.0373 169.267 16.336C169.15 16.624 168.931 16.9013 168.611 17.168C168.302 17.4347 167.864 17.6533 167.299 17.824C166.734 17.9947 166.008 18.08 165.123 18.08H163.203Z" fill="#5955B3"/>
<g filter="url(#filter0_d_1359_7624)">
<path d="M8.40009 16.9412L2.96 10.5529L8.40009 4.23528" stroke="#6663CF" stroke-width="2" stroke-miterlimit="10" stroke-linecap="round" stroke-linejoin="round"/>
<path d="M8.40009 16.9412L2.96 10.5529L8.40009 4.23528" stroke="#6663CF" stroke-width="2" stroke-miterlimit="10" stroke-linecap="round" stroke-linejoin="round"/>
<path d="M23.12 10.5529H13.6653L4.4 10.5529" stroke="#6663CF" stroke-width="2" stroke-miterlimit="10" stroke-linecap="round" stroke-linejoin="round"/>
<path d="M23.12 10.5529H13.6653L4.4 10.5529" stroke="#6663CF" stroke-width="2" stroke-miterlimit="10" stroke-linecap="round" stroke-linejoin="round"/>
</g>
</g>
<defs>
<filter id="filter0_d_1359_7624" x="-2.04001" y="3.23526" width="30.16" height="22.7059" filterUnits="userSpaceOnUse" color-interpolation-filters="sRGB">
<feFlood flood-opacity="0" result="BackgroundImageFix"/>
<feColorMatrix in="SourceAlpha" type="matrix" values="0 0 0 0 0 0 0 0 0 0 0 0 0 0 0 0 0 0 127 0" result="hardAlpha"/>
<feOffset dy="4"/>
<feGaussianBlur stdDeviation="2"/>
<feComposite in2="hardAlpha" operator="out"/>
<feColorMatrix type="matrix" values="0 0 0 0 0 0 0 0 0 0 0 0 0 0 0 0 0 0 0.25 0"/>
<feBlend mode="normal" in2="BackgroundImageFix" result="effect1_dropShadow_1359_7624"/>
<feBlend mode="normal" in="SourceGraphic" in2="effect1_dropShadow_1359_7624" result="shape"/>
</filter>
<clipPath id="clip0_1359_7624">
<rect width="140" height="24" fill="white"/>
</clipPath>
</defs>
</svg>
