<svg width="325" height="290" viewBox="0 0 325 290" fill="none" xmlns="http://www.w3.org/2000/svg">
<rect width="325" height="290" rx="5" fill="white"/>
<path d="M182.827 129.135C182.438 129.135 182.105 128.998 181.825 128.723C181.546 128.444 181.406 128.107 181.406 127.714C181.406 127.326 181.546 126.995 181.825 126.72C182.105 126.441 182.438 126.301 182.827 126.301C183.215 126.301 183.549 126.441 183.828 126.72C184.107 126.995 184.247 127.326 184.247 127.714C184.247 127.975 184.181 128.214 184.048 128.432C183.92 128.645 183.75 128.815 183.537 128.943C183.324 129.071 183.087 129.135 182.827 129.135ZM182.827 121.195C182.438 121.195 182.105 121.055 181.825 120.776C181.546 120.496 181.406 120.162 181.406 119.774C181.406 119.386 181.546 119.054 181.825 118.78C182.105 118.5 182.438 118.361 182.827 118.361C183.215 118.361 183.549 118.5 183.828 118.78C184.107 119.054 184.247 119.386 184.247 119.774C184.247 120.035 184.181 120.274 184.048 120.491C183.92 120.705 183.75 120.875 183.537 121.003C183.324 121.131 183.087 121.195 182.827 121.195ZM186.264 129.02C186.264 128.54 186.331 128.007 186.464 127.42C186.597 126.833 186.811 126.187 187.104 125.48L188.544 126.04C188.331 126.6 188.171 127.113 188.064 127.58C187.957 128.047 187.904 128.48 187.904 128.88C187.904 129.56 188.084 130.133 188.444 130.6C188.804 131.067 189.271 131.413 189.844 131.64C190.431 131.88 191.057 132 191.724 132C193.017 132 194.031 131.767 194.764 131.3C195.511 130.847 196.024 130.24 196.304 129.48C196.597 128.733 196.731 127.913 196.704 127.02L196.264 114.72H197.924L198.244 124.86C198.257 125.54 198.364 126.073 198.564 126.46C198.764 126.833 199.031 127.093 199.364 127.24C199.697 127.387 200.064 127.46 200.464 127.46C200.744 127.46 200.944 127.54 201.064 127.7C201.197 127.847 201.264 128.027 201.264 128.24C201.264 128.453 201.171 128.653 200.984 128.84C200.797 129.013 200.557 129.1 200.264 129.1C199.771 129.1 199.364 129.027 199.044 128.88C198.737 128.72 198.491 128.527 198.304 128.3C198.211 128.967 198.024 129.613 197.744 130.24C197.477 130.88 197.084 131.453 196.564 131.96C196.044 132.48 195.377 132.887 194.564 133.18C193.764 133.487 192.784 133.64 191.624 133.64C190.691 133.64 189.817 133.453 189.004 133.08C188.191 132.72 187.531 132.193 187.024 131.5C186.517 130.82 186.264 129.993 186.264 129.02ZM200.273 129.1L200.453 127.46C201.827 127.46 203.16 127.26 204.453 126.86C205.747 126.447 206.927 125.867 207.993 125.12C207.473 124.667 206.833 124.3 206.073 124.02C205.327 123.74 204.5 123.6 203.593 123.6C203.26 123.6 202.967 123.62 202.713 123.66C202.46 123.687 202.153 123.74 201.793 123.82L201.473 122.3C202.22 122.073 202.927 121.96 203.593 121.96C204.287 121.96 204.913 122.047 205.473 122.22C206.033 122.38 206.54 122.58 206.993 122.82C207.46 123.06 207.893 123.3 208.293 123.54C208.707 123.78 209.107 123.987 209.493 124.16C209.88 124.32 210.28 124.4 210.693 124.4H211.113L211.253 125.84C210.573 125.84 209.953 125.953 209.393 126.18C208.833 126.393 208.267 126.667 207.693 127C207.133 127.32 206.513 127.64 205.833 127.96C205.167 128.28 204.387 128.553 203.493 128.78C202.6 128.993 201.527 129.1 200.273 129.1ZM203.613 119.9C203.333 119.9 203.093 119.807 202.893 119.62C202.707 119.42 202.613 119.187 202.613 118.92C202.613 118.653 202.707 118.42 202.893 118.22C203.093 118.02 203.333 117.92 203.613 117.92C203.88 117.92 204.107 118.02 204.293 118.22C204.493 118.42 204.593 118.653 204.593 118.92C204.593 119.187 204.493 119.42 204.293 119.62C204.107 119.807 203.88 119.9 203.613 119.9ZM212.751 128.1L213.551 126.72C213.817 126.907 214.191 127.08 214.671 127.24C215.151 127.387 215.711 127.46 216.351 127.46C217.337 127.46 218.037 127.313 218.451 127.02C218.864 126.713 219.071 126.293 219.071 125.76C219.071 125.493 219.011 125.167 218.891 124.78C218.784 124.38 218.544 123.847 218.171 123.18C217.797 122.5 217.224 121.613 216.451 120.52L217.831 119.62C218.884 121.087 219.624 122.333 220.051 123.36C220.477 124.387 220.691 125.22 220.691 125.86C220.691 126.407 220.557 126.927 220.291 127.42C220.024 127.913 219.577 128.32 218.951 128.64C218.324 128.96 217.457 129.12 216.351 129.12C215.617 129.12 214.937 129.033 214.311 128.86C213.684 128.673 213.164 128.42 212.751 128.1ZM223.362 129L223.022 116.12H224.642L224.982 129H223.362ZM222.042 114.92L221.802 113.84C222.002 113.8 222.175 113.76 222.322 113.72C222.469 113.68 222.609 113.647 222.742 113.62C222.489 113.447 222.269 113.22 222.082 112.94C221.895 112.66 221.802 112.353 221.802 112.02C221.802 111.42 222.009 110.967 222.422 110.66C222.849 110.353 223.329 110.2 223.862 110.2C224.169 110.2 224.482 110.253 224.802 110.36L224.642 111.36C224.509 111.333 224.375 111.307 224.242 111.28C224.122 111.253 223.995 111.24 223.862 111.24C223.209 111.24 222.882 111.48 222.882 111.96C222.882 112.307 223.009 112.593 223.262 112.82C223.529 113.047 223.789 113.193 224.042 113.26C224.549 113.113 224.995 112.967 225.382 112.82L225.702 113.84C225.382 113.96 225.002 114.087 224.562 114.22C224.135 114.353 223.695 114.487 223.242 114.62C222.802 114.74 222.402 114.84 222.042 114.92ZM238.916 129.135C238.528 129.135 238.194 128.998 237.914 128.723C237.635 128.444 237.495 128.107 237.495 127.714C237.495 127.326 237.635 126.995 237.914 126.72C238.194 126.441 238.528 126.301 238.916 126.301C239.304 126.301 239.638 126.441 239.917 126.72C240.197 126.995 240.336 127.326 240.336 127.714C240.336 127.975 240.27 128.214 240.137 128.432C240.01 128.645 239.839 128.815 239.626 128.943C239.413 129.071 239.176 129.135 238.916 129.135ZM243.586 129V127.409L248.507 122.31C249.033 121.756 249.466 121.27 249.807 120.854C250.153 120.432 250.411 120.032 250.581 119.653C250.752 119.275 250.837 118.872 250.837 118.446C250.837 117.963 250.723 117.546 250.496 117.196C250.269 116.841 249.959 116.569 249.566 116.379C249.173 116.185 248.73 116.088 248.238 116.088C247.717 116.088 247.262 116.195 246.874 116.408C246.486 116.621 246.187 116.921 245.979 117.31C245.771 117.698 245.666 118.152 245.666 118.673H243.571C243.571 117.788 243.775 117.014 244.182 116.351C244.589 115.688 245.148 115.174 245.858 114.81C246.568 114.44 247.376 114.256 248.28 114.256C249.194 114.256 249.999 114.438 250.695 114.803C251.396 115.162 251.943 115.655 252.336 116.28C252.729 116.9 252.925 117.601 252.925 118.382C252.925 118.922 252.823 119.45 252.62 119.966C252.421 120.482 252.073 121.057 251.576 121.692C251.078 122.321 250.387 123.086 249.502 123.986L246.611 127.011V127.118H253.159V129H243.586Z" fill="#2D3342"/>
<path opacity="0.2" fill-rule="evenodd" clip-rule="evenodd" d="M324.664 269.81C324.612 280.783 315.724 289.668 304.749 289.713H171.145C177.237 275.753 202.684 247.832 255.737 247.832C308.79 247.832 323.794 226.116 324.664 215.258V269.81Z" fill="#89AFFF"/>
<path opacity="0.2" fill-rule="evenodd" clip-rule="evenodd" d="M149.339 0C147.453 10.5057 135.894 40.0486 88.2786 53.4492C42.0808 66.4509 11.6469 61.9796 0.329595 57.7773L0.329592 20C0.329591 8.95432 9.28386 1.09491e-05 20.3296 1.00855e-05L149.339 0Z" fill="#89AFFF"/>
<path d="M95.7197 49.544C94.2957 49.544 93.0077 49.312 91.8557 48.848C90.7197 48.384 89.8157 47.688 89.1437 46.76C88.4717 45.848 88.1357 44.704 88.1357 43.328C88.1357 42.784 88.2077 42.088 88.3517 41.24C88.5117 40.392 88.8557 39.384 89.3837 38.216L92.3357 39.248C92.0637 40 91.8557 40.648 91.7117 41.192C91.5677 41.72 91.4957 42.24 91.4957 42.752C91.4957 43.712 91.8717 44.52 92.6237 45.176C93.3917 45.848 94.4557 46.184 95.8157 46.184C97.5437 46.184 98.7997 45.832 99.5837 45.128C100.384 44.44 100.784 43.44 100.784 42.128C100.784 41.44 100.656 40.632 100.4 39.704C100.144 38.776 99.8557 37.752 99.5357 36.632L102.896 35.768C103.12 36.696 103.296 37.424 103.424 37.952C103.552 38.464 103.664 38.84 103.76 39.08C103.904 39.432 104.104 39.736 104.36 39.992C104.632 40.232 105.056 40.432 105.632 40.592C106.224 39.68 106.888 38.8 107.624 37.952C108.376 37.104 109.184 36.344 110.048 35.672C110.912 34.984 111.808 34.44 112.736 34.04C113.68 33.64 114.64 33.44 115.616 33.44C116.688 33.44 117.6 33.656 118.352 34.088C119.104 34.504 119.68 35.088 120.08 35.84C120.496 36.576 120.704 37.408 120.704 38.336C120.704 39.504 120.376 40.536 119.72 41.432C119.064 42.328 118 43.032 116.528 43.544C115.072 44.056 113.12 44.312 110.672 44.312C109.376 44.312 108.136 44.208 106.952 44C105.784 43.808 104.824 43.504 104.072 43.088C103.928 44.432 103.496 45.584 102.776 46.544C102.056 47.504 101.096 48.24 99.8957 48.752C98.6957 49.28 97.3037 49.544 95.7197 49.544ZM115.304 36.8C114.568 36.8 113.824 37.016 113.072 37.448C112.32 37.88 111.608 38.416 110.936 39.056C110.264 39.696 109.68 40.32 109.184 40.928C109.552 40.944 109.952 40.952 110.384 40.952C112.128 40.952 113.504 40.856 114.512 40.664C115.536 40.456 116.264 40.176 116.696 39.824C117.128 39.472 117.344 39.056 117.344 38.576C117.344 38.16 117.184 37.76 116.864 37.376C116.544 36.992 116.024 36.8 115.304 36.8ZM122.096 44.12C120.864 44.12 119.72 43.96 118.664 43.64C117.608 43.304 116.8 42.896 116.24 42.416L118.4 40.088C118.976 40.328 119.568 40.504 120.176 40.616C120.784 40.712 121.504 40.76 122.336 40.76C122.928 40.76 123.36 40.92 123.632 41.24C123.904 41.544 124.04 41.928 124.04 42.392C124.04 42.888 123.872 43.304 123.536 43.64C123.2 43.96 122.72 44.12 122.096 44.12ZM114.752 31.28C114.256 31.28 113.832 31.112 113.48 30.776C113.144 30.44 112.976 30.024 112.976 29.528C112.976 29.032 113.144 28.608 113.48 28.256C113.832 27.904 114.256 27.728 114.752 27.728C115.232 27.728 115.64 27.904 115.976 28.256C116.328 28.608 116.504 29.032 116.504 29.528C116.504 30.024 116.328 30.44 115.976 30.776C115.64 31.112 115.232 31.28 114.752 31.28ZM122.129 44.12L122.369 40.76C123.329 40.76 124.065 40.712 124.577 40.616C125.089 40.52 125.441 40.344 125.633 40.088C125.841 39.816 125.945 39.432 125.945 38.936C125.945 38.488 125.881 37.952 125.753 37.328C125.641 36.704 125.489 36.064 125.297 35.408C125.105 34.736 124.913 34.112 124.721 33.536L128.033 32.624C128.225 33.168 128.417 33.8 128.609 34.52C128.817 35.24 128.985 35.984 129.113 36.752C129.241 37.52 129.305 38.248 129.305 38.936C129.305 40.024 129.129 40.912 128.777 41.6C128.425 42.272 127.929 42.792 127.289 43.16C126.665 43.528 125.913 43.784 125.033 43.928C124.153 44.056 123.185 44.12 122.129 44.12ZM128.057 49.688C127.593 49.688 127.193 49.528 126.857 49.208C126.537 48.888 126.377 48.496 126.377 48.032C126.377 47.568 126.537 47.168 126.857 46.832C127.193 46.496 127.593 46.328 128.057 46.328C128.505 46.328 128.889 46.496 129.209 46.832C129.529 47.168 129.689 47.568 129.689 48.032C129.689 48.496 129.529 48.888 129.209 49.208C128.889 49.528 128.505 49.688 128.057 49.688ZM123.905 49.688C123.441 49.688 123.041 49.528 122.705 49.208C122.385 48.888 122.225 48.496 122.225 48.032C122.225 47.568 122.385 47.168 122.705 46.832C123.041 46.496 123.441 46.328 123.905 46.328C124.353 46.328 124.737 46.496 125.057 46.832C125.377 47.168 125.537 47.568 125.537 48.032C125.537 48.496 125.377 48.888 125.057 49.208C124.737 49.528 124.353 49.688 123.905 49.688ZM132.122 49.52L131.426 46.16C132.866 45.984 134.074 45.752 135.05 45.464C136.042 45.192 136.81 44.744 137.354 44.12H136.706C135.202 44.12 134.018 43.848 133.154 43.304C132.306 42.744 131.882 41.792 131.882 40.448C131.882 39.728 132.002 39.008 132.242 38.288C132.498 37.568 132.85 36.912 133.298 36.32C133.746 35.712 134.266 35.232 134.858 34.88C135.466 34.512 136.122 34.328 136.826 34.328C137.77 34.328 138.602 34.624 139.322 35.216C140.058 35.808 140.626 36.592 141.026 37.568C141.442 38.544 141.65 39.608 141.65 40.76H143.546C144.138 40.76 144.57 40.92 144.842 41.24C145.114 41.544 145.25 41.928 145.25 42.392C145.25 42.888 145.082 43.304 144.746 43.64C144.41 43.96 143.93 44.12 143.306 44.12H141.098C140.474 45.784 139.386 47.064 137.834 47.96C136.298 48.872 134.394 49.392 132.122 49.52ZM135.194 39.872C135.194 40.048 135.25 40.232 135.362 40.424C135.49 40.6 135.77 40.744 136.202 40.856C136.634 40.952 137.322 40.96 138.266 40.88C138.25 39.952 138.098 39.224 137.81 38.696C137.522 38.152 137.146 37.88 136.682 37.88C136.346 37.88 136.066 38 135.842 38.24C135.618 38.464 135.45 38.736 135.338 39.056C135.242 39.36 135.194 39.632 135.194 39.872ZM143.34 44.12L143.58 40.784C144.06 40.8 144.508 40.8 144.924 40.784C145.356 40.752 145.756 40.72 146.124 40.688C145.772 40.272 145.476 39.808 145.236 39.296C145.012 38.768 144.9 38.176 144.9 37.52C144.9 36.528 145.148 35.664 145.644 34.928C146.14 34.176 146.764 33.592 147.516 33.176C148.284 32.76 149.068 32.552 149.868 32.552C150.828 32.552 151.66 32.776 152.364 33.224C153.068 33.672 153.612 34.264 153.996 35C154.396 35.72 154.596 36.496 154.596 37.328C154.596 38 154.484 38.616 154.26 39.176C154.036 39.736 153.74 40.232 153.372 40.664C153.852 40.696 154.332 40.72 154.812 40.736C155.308 40.752 155.788 40.76 156.252 40.76C156.86 40.76 157.292 40.92 157.548 41.24C157.82 41.544 157.956 41.928 157.956 42.392C157.956 42.888 157.788 43.304 157.452 43.64C157.116 43.96 156.636 44.12 156.012 44.12C154.828 44.12 153.676 44.04 152.556 43.88C151.436 43.72 150.46 43.488 149.628 43.184C149.036 43.44 148.188 43.664 147.084 43.856C145.98 44.048 144.732 44.136 143.34 44.12ZM148.212 37.76C148.212 38.16 148.324 38.536 148.548 38.888C148.772 39.24 149.084 39.568 149.484 39.872C150.06 39.616 150.5 39.296 150.804 38.912C151.124 38.528 151.284 38.112 151.284 37.664C151.284 37.232 151.148 36.808 150.876 36.392C150.62 35.976 150.26 35.768 149.796 35.768C149.348 35.768 148.972 35.96 148.668 36.344C148.364 36.728 148.212 37.2 148.212 37.76ZM149.892 30.32C149.396 30.32 148.972 30.152 148.62 29.816C148.284 29.48 148.116 29.064 148.116 28.568C148.116 28.072 148.284 27.648 148.62 27.296C148.972 26.944 149.396 26.768 149.892 26.768C150.372 26.768 150.78 26.944 151.116 27.296C151.468 27.648 151.644 28.072 151.644 28.568C151.644 29.064 151.468 29.48 151.116 29.816C150.78 30.152 150.372 30.32 149.892 30.32ZM156.043 44.12L156.283 40.76C156.859 40.76 157.355 40.704 157.771 40.592C158.187 40.48 158.539 40.256 158.827 39.92C159.115 39.568 159.355 39.056 159.547 38.384C159.755 37.712 159.939 36.816 160.099 35.696L163.243 36.224C163.179 36.592 163.107 37.032 163.027 37.544C162.947 38.056 162.907 38.528 162.907 38.96C162.907 39.536 163.147 39.984 163.627 40.304C164.107 40.608 164.931 40.76 166.099 40.76C166.691 40.76 167.115 40.92 167.371 41.24C167.643 41.544 167.779 41.928 167.779 42.392C167.779 42.888 167.611 43.304 167.275 43.64C166.955 43.96 166.483 44.12 165.859 44.12C164.739 44.12 163.779 43.976 162.979 43.688C162.195 43.4 161.619 42.888 161.251 42.152C160.819 42.728 160.307 43.16 159.715 43.448C159.139 43.72 158.531 43.904 157.891 44C157.267 44.08 156.651 44.12 156.043 44.12ZM159.595 33.512C159.131 33.512 158.731 33.352 158.395 33.032C158.075 32.696 157.915 32.304 157.915 31.856C157.915 31.392 158.075 30.992 158.395 30.656C158.731 30.32 159.131 30.152 159.595 30.152C160.043 30.152 160.427 30.32 160.747 30.656C161.067 30.992 161.227 31.392 161.227 31.856C161.227 32.304 161.067 32.696 160.747 33.032C160.427 33.352 160.043 33.512 159.595 33.512ZM163.747 33.536C163.283 33.536 162.883 33.376 162.547 33.056C162.227 32.736 162.067 32.344 162.067 31.88C162.067 31.416 162.227 31.016 162.547 30.68C162.883 30.344 163.283 30.176 163.747 30.176C164.195 30.176 164.579 30.344 164.899 30.68C165.219 31.016 165.379 31.416 165.379 31.88C165.379 32.344 165.219 32.736 164.899 33.056C164.579 33.376 164.195 33.536 163.747 33.536ZM165.863 44.12L166.103 40.76C166.839 40.76 167.367 40.688 167.687 40.544C168.007 40.384 168.199 40.096 168.263 39.68C168.327 39.248 168.343 38.624 168.311 37.808L167.879 26.432H171.263L171.743 38.048C171.775 38.976 171.735 39.816 171.623 40.568C171.527 41.304 171.279 41.936 170.879 42.464C170.495 42.992 169.895 43.4 169.079 43.688C168.279 43.976 167.207 44.12 165.863 44.12ZM174.908 44L174.404 26.432H177.764L178.268 44H174.908ZM190.457 44.072C189.561 44.072 188.753 43.92 188.033 43.616C187.329 43.296 186.769 42.824 186.353 42.2C185.953 41.56 185.753 40.768 185.753 39.824C185.753 39.056 185.961 38.208 186.377 37.28C186.809 36.352 187.505 35.408 188.465 34.448L187.529 33.704L189.785 30.944C191.609 32.336 193.033 33.68 194.057 34.976C195.097 36.272 195.617 37.688 195.617 39.224C195.617 39.72 195.537 40.256 195.377 40.832C195.217 41.392 194.945 41.92 194.561 42.416C194.177 42.896 193.649 43.296 192.977 43.616C192.321 43.92 191.481 44.072 190.457 44.072ZM190.721 40.76C191.313 40.76 191.745 40.592 192.017 40.256C192.305 39.904 192.449 39.512 192.449 39.08C192.449 38.712 192.337 38.296 192.113 37.832C191.889 37.368 191.401 36.816 190.649 36.176C190.057 36.736 189.633 37.28 189.377 37.808C189.137 38.32 189.017 38.784 189.017 39.2C189.017 39.712 189.185 40.104 189.521 40.376C189.857 40.632 190.257 40.76 190.721 40.76ZM188.537 29.12C188.073 29.12 187.673 28.96 187.337 28.64C187.017 28.304 186.857 27.912 186.857 27.464C186.857 27 187.017 26.6 187.337 26.264C187.673 25.928 188.073 25.76 188.537 25.76C188.985 25.76 189.369 25.928 189.689 26.264C190.009 26.6 190.169 27 190.169 27.464C190.169 27.912 190.009 28.304 189.689 28.64C189.369 28.96 188.985 29.12 188.537 29.12ZM192.689 29.144C192.225 29.144 191.825 28.984 191.489 28.664C191.169 28.344 191.009 27.952 191.009 27.488C191.009 27.024 191.169 26.624 191.489 26.288C191.825 25.952 192.225 25.784 192.689 25.784C193.137 25.784 193.521 25.952 193.841 26.288C194.161 26.624 194.321 27.024 194.321 27.488C194.321 27.952 194.161 28.344 193.841 28.664C193.521 28.984 193.137 29.144 192.689 29.144ZM201.634 40.76C202.706 40.76 203.418 40.624 203.77 40.352C204.122 40.064 204.298 39.744 204.298 39.392C204.298 39.008 204.186 38.56 203.962 38.048C203.754 37.536 203.49 37 203.17 36.44C202.85 35.88 202.514 35.344 202.162 34.832C201.81 34.32 201.506 33.872 201.25 33.488L204.106 31.592C205.146 32.984 205.962 34.336 206.554 35.648C207.162 36.944 207.562 38 207.754 38.816C207.93 39.584 208.266 40.104 208.762 40.376C209.258 40.632 209.778 40.76 210.322 40.76C210.93 40.76 211.362 40.92 211.618 41.24C211.89 41.544 212.026 41.928 212.026 42.392C212.026 42.888 211.858 43.304 211.522 43.64C211.202 43.96 210.722 44.12 210.082 44.12C208.578 44.12 207.458 43.656 206.722 42.728C206.29 43.144 205.682 43.488 204.898 43.76C204.114 44.016 203.186 44.144 202.114 44.144C201.378 44.144 200.554 44.056 199.642 43.88C198.73 43.704 197.93 43.424 197.242 43.04L198.418 39.992C199.01 40.264 199.578 40.464 200.122 40.592C200.682 40.704 201.186 40.76 201.634 40.76ZM201.778 29.768C201.282 29.768 200.858 29.6 200.506 29.264C200.17 28.928 200.002 28.512 200.002 28.016C200.002 27.52 200.17 27.096 200.506 26.744C200.858 26.392 201.282 26.216 201.778 26.216C202.258 26.216 202.666 26.392 203.002 26.744C203.354 27.096 203.53 27.52 203.53 28.016C203.53 28.512 203.354 28.928 203.002 29.264C202.666 29.6 202.258 29.768 201.778 29.768ZM210.113 44.12L210.353 40.784C211.665 40.784 212.729 40.776 213.545 40.76C214.361 40.744 214.993 40.712 215.441 40.664C215.905 40.6 216.249 40.528 216.473 40.448C216.697 40.352 216.889 40.248 217.049 40.136C217.177 40.04 217.289 39.92 217.385 39.776C217.497 39.632 217.593 39.456 217.673 39.248C217.017 39.488 216.337 39.608 215.633 39.608C214.353 39.608 213.345 39.344 212.609 38.816C211.873 38.272 211.505 37.32 211.505 35.96C211.505 35.256 211.625 34.56 211.865 33.872C212.105 33.168 212.449 32.536 212.897 31.976C213.345 31.4 213.873 30.944 214.481 30.608C215.089 30.256 215.761 30.08 216.497 30.08C217.585 30.08 218.481 30.4 219.185 31.04C219.905 31.664 220.433 32.512 220.769 33.584C221.121 34.64 221.297 35.816 221.297 37.112C221.297 38.248 221.129 39.24 220.793 40.088C220.457 40.92 220.057 41.576 219.593 42.056C219.209 42.456 218.769 42.792 218.273 43.064C217.777 43.336 217.169 43.552 216.449 43.712C215.745 43.856 214.873 43.96 213.833 44.024C212.809 44.088 211.569 44.12 210.113 44.12ZM214.817 35.312C214.817 36 215.353 36.344 216.425 36.344C216.937 36.344 217.449 36.264 217.961 36.104C217.881 35.224 217.697 34.552 217.409 34.088C217.121 33.624 216.753 33.392 216.305 33.392C215.921 33.392 215.577 33.576 215.273 33.944C214.969 34.312 214.817 34.768 214.817 35.312ZM216.449 27.848C215.953 27.848 215.529 27.68 215.177 27.344C214.841 27.008 214.673 26.592 214.673 26.096C214.673 25.6 214.841 25.176 215.177 24.824C215.529 24.472 215.953 24.296 216.449 24.296C216.929 24.296 217.337 24.472 217.673 24.824C218.025 25.176 218.201 25.6 218.201 26.096C218.201 26.592 218.025 27.008 217.673 27.344C217.337 27.68 216.929 27.848 216.449 27.848ZM229.838 44.12C228.35 44.12 227.198 43.968 226.382 43.664C225.582 43.36 225.014 42.888 224.678 42.248C224.358 41.592 224.182 40.768 224.15 39.776L223.646 26.432H227.006L227.51 38.168C227.542 38.904 227.622 39.456 227.75 39.824C227.878 40.192 228.118 40.44 228.47 40.568C228.822 40.696 229.358 40.76 230.078 40.76C230.67 40.76 231.102 40.92 231.374 41.24C231.646 41.544 231.782 41.928 231.782 42.392C231.782 42.888 231.614 43.304 231.278 43.64C230.942 43.96 230.462 44.12 229.838 44.12ZM229.871 44.12L230.111 40.76C231.151 40.76 231.879 40.648 232.295 40.424C232.711 40.184 232.919 39.688 232.919 38.936C232.919 38.488 232.855 37.952 232.727 37.328C232.615 36.704 232.463 36.064 232.271 35.408C232.079 34.736 231.887 34.112 231.695 33.536L235.007 32.624C235.199 33.168 235.391 33.8 235.583 34.52C235.775 35.24 235.935 35.984 236.063 36.752C236.207 37.52 236.279 38.248 236.279 38.936C236.279 40.024 236.111 40.912 235.775 41.6C235.439 42.272 234.967 42.792 234.359 43.16C233.767 43.528 233.087 43.784 232.319 43.928C231.551 44.056 230.735 44.12 229.871 44.12ZM233.327 30.632C232.831 30.632 232.407 30.464 232.055 30.128C231.719 29.792 231.551 29.376 231.551 28.88C231.551 28.384 231.719 27.96 232.055 27.608C232.407 27.256 232.831 27.08 233.327 27.08C233.807 27.08 234.215 27.256 234.551 27.608C234.903 27.96 235.079 28.384 235.079 28.88C235.079 29.376 234.903 29.792 234.551 30.128C234.215 30.464 233.807 30.632 233.327 30.632Z" fill="url(#paint0_linear_1404_8965)"/>
<path d="M23.6 88.02C23.6 87.54 23.6667 87.0067 23.8 86.42C23.9333 85.8333 24.1467 85.1867 24.44 84.48L25.88 85.04C25.6667 85.6 25.5067 86.1133 25.4 86.58C25.2933 87.0467 25.24 87.48 25.24 87.88C25.24 88.8533 25.6067 89.6133 26.34 90.16C27.0867 90.72 28.06 91 29.26 91C30.5533 91 31.5533 90.7467 32.26 90.24C32.9667 89.7467 33.4467 88.9867 33.7 87.96C33.9533 86.92 34.0467 85.5933 33.98 83.98L33.6 73.72H35.26L35.6 84.4C35.64 85.52 35.5667 86.58 35.38 87.58C35.2067 88.5667 34.88 89.44 34.4 90.2C33.9333 90.96 33.2733 91.5533 32.42 91.98C31.58 92.42 30.5067 92.64 29.2 92.64C28.4933 92.64 27.8067 92.5467 27.14 92.36C26.4733 92.1733 25.8733 91.8933 25.34 91.52C24.8067 91.1467 24.38 90.6667 24.06 90.08C23.7533 89.5067 23.6 88.82 23.6 88.02ZM38.0663 92.6L37.7063 90.96C38.5329 90.8533 39.2863 90.6933 39.9663 90.48C40.6596 90.28 41.2529 89.9933 41.7463 89.62C42.2396 89.2467 42.6063 88.74 42.8463 88.1H41.5663C40.9663 88.1 40.4063 88.02 39.8863 87.86C39.3796 87.6867 38.9663 87.4133 38.6463 87.04C38.3396 86.6667 38.1863 86.18 38.1863 85.58C38.1863 84.8467 38.3329 84.1533 38.6263 83.5C38.9196 82.8333 39.3196 82.2933 39.8263 81.88C40.3329 81.4667 40.9063 81.26 41.5463 81.26C42.4663 81.26 43.2263 81.6667 43.8263 82.48C44.4396 83.28 44.7463 84.5133 44.7463 86.18C44.7463 86.2733 44.7463 86.3667 44.7463 86.46H46.5463C46.8263 86.46 47.0263 86.54 47.1463 86.7C47.2796 86.8467 47.3463 87.0267 47.3463 87.24C47.3463 87.4533 47.2529 87.6533 47.0663 87.84C46.8796 88.0133 46.6396 88.1 46.3463 88.1H44.5063C43.8263 90.6867 41.6796 92.1867 38.0663 92.6ZM42.3263 86.46H43.1663C43.1796 86.3267 43.1863 86.1933 43.1863 86.06C43.1863 85.1533 43.0196 84.4 42.6863 83.8C42.3529 83.2 41.9196 82.9 41.3863 82.9C41.1063 82.9 40.8396 83.0067 40.5863 83.22C40.3463 83.4333 40.1529 83.72 40.0063 84.08C39.8596 84.44 39.7863 84.8333 39.7863 85.26C39.7863 85.7267 39.9929 86.0467 40.4063 86.22C40.8329 86.38 41.4729 86.46 42.3263 86.46ZM46.3398 88.1L46.5198 86.46C47.8932 86.46 49.2265 86.26 50.5198 85.86C51.8132 85.4467 52.9932 84.8667 54.0598 84.12C53.5398 83.6667 52.8998 83.3 52.1398 83.02C51.3932 82.74 50.5665 82.6 49.6598 82.6C49.3265 82.6 49.0332 82.62 48.7798 82.66C48.5265 82.6867 48.2198 82.74 47.8598 82.82L47.5398 81.3C48.2865 81.0733 48.9932 80.96 49.6598 80.96C50.3532 80.96 50.9798 81.0467 51.5398 81.22C52.0998 81.38 52.6065 81.58 53.0598 81.82C53.5265 82.06 53.9598 82.3 54.3598 82.54C54.7732 82.78 55.1732 82.9867 55.5598 83.16C55.9465 83.32 56.3465 83.4 56.7598 83.4H57.1798L57.3198 84.84C56.6398 84.84 56.0198 84.9533 55.4598 85.18C54.8998 85.3933 54.3332 85.6667 53.7598 86C53.1998 86.32 52.5798 86.64 51.8998 86.96C51.2332 87.28 50.4532 87.5533 49.5598 87.78C48.6665 87.9933 47.5932 88.1 46.3398 88.1ZM49.6798 78.9C49.3998 78.9 49.1598 78.8067 48.9598 78.62C48.7732 78.42 48.6798 78.1867 48.6798 77.92C48.6798 77.6533 48.7732 77.42 48.9598 77.22C49.1598 77.02 49.3998 76.92 49.6798 76.92C49.9465 76.92 50.1732 77.02 50.3598 77.22C50.5598 77.42 50.6598 77.6533 50.6598 77.92C50.6598 78.1867 50.5598 78.42 50.3598 78.62C50.1732 78.8067 49.9465 78.9 49.6798 78.9ZM62.4172 86.46C63.4039 86.46 64.1039 86.3133 64.5172 86.02C64.9305 85.7133 65.1372 85.2933 65.1372 84.76C65.1372 84.4133 65.0172 83.9667 64.7772 83.42C64.5372 82.8733 64.2172 82.2667 63.8172 81.6C63.4305 80.92 62.9972 80.2267 62.5172 79.52L63.8972 78.62C64.6705 79.8067 65.2972 80.8933 65.7772 81.88C66.2705 82.8533 66.6372 83.7333 66.8772 84.52C67.0639 85.1067 67.2705 85.54 67.4972 85.82C67.7372 86.1 67.9839 86.28 68.2372 86.36C68.4905 86.4267 68.7239 86.46 68.9372 86.46C69.2172 86.46 69.4239 86.54 69.5572 86.7C69.6905 86.8467 69.7572 87.0267 69.7572 87.24C69.7572 87.4533 69.6639 87.6533 69.4772 87.84C69.2905 88.0133 69.0505 88.1 68.7572 88.1C68.2372 88.1 67.7372 87.9867 67.2572 87.76C66.7772 87.5333 66.3905 87.1467 66.0972 86.6C65.8305 87.04 65.4039 87.4067 64.8172 87.7C64.2439 87.98 63.4439 88.12 62.4172 88.12C61.6839 88.12 61.0039 88.0333 60.3772 87.86C59.7505 87.6733 59.2305 87.42 58.8172 87.1L59.6172 85.72C59.8839 85.9067 60.2572 86.08 60.7372 86.24C61.2172 86.3867 61.7772 86.46 62.4172 86.46ZM68.7617 88.1L68.9417 86.46C69.7017 86.46 70.2351 86.3867 70.5417 86.24C70.8484 86.0933 71.0217 85.84 71.0617 85.48C71.1151 85.1067 71.1284 84.58 71.1017 83.9L70.7217 73.72H72.3417L72.7417 83.72C72.7817 84.6667 72.7151 85.4667 72.5417 86.12C72.3817 86.7733 72.0084 87.2667 71.4217 87.6C70.8484 87.9333 69.9617 88.1 68.7617 88.1ZM75.797 88L75.397 73.72H77.017L77.417 88H75.797ZM84.6156 88.02C84.6156 87.54 84.6823 87.0067 84.8156 86.42C84.949 85.8333 85.1623 85.1867 85.4556 84.48L86.8956 85.04C86.6823 85.6 86.5223 86.1133 86.4156 86.58C86.309 87.0467 86.2556 87.48 86.2556 87.88C86.2556 88.56 86.4356 89.1333 86.7956 89.6C87.1556 90.0667 87.6223 90.4133 88.1956 90.64C88.7823 90.88 89.409 91 90.0756 91C91.369 91 92.3823 90.7667 93.1156 90.3C93.8623 89.8467 94.3756 89.24 94.6556 88.48C94.949 87.7333 95.0823 86.9133 95.0556 86.02L94.6156 73.72H96.2756L96.5956 83.86C96.609 84.54 96.7156 85.0733 96.9156 85.46C97.1156 85.8333 97.3823 86.0933 97.7156 86.24C98.049 86.3867 98.4156 86.46 98.8156 86.46C99.0956 86.46 99.2956 86.54 99.4156 86.7C99.549 86.8467 99.6156 87.0267 99.6156 87.24C99.6156 87.4533 99.5223 87.6533 99.3356 87.84C99.149 88.0133 98.909 88.1 98.6156 88.1C98.1223 88.1 97.7156 88.0267 97.3956 87.88C97.089 87.72 96.8423 87.5267 96.6556 87.3C96.5623 87.9667 96.3756 88.6133 96.0956 89.24C95.829 89.88 95.4356 90.4533 94.9156 90.96C94.3956 91.48 93.729 91.8867 92.9156 92.18C92.1156 92.4867 91.1356 92.64 89.9756 92.64C89.0423 92.64 88.169 92.4533 87.3556 92.08C86.5423 91.72 85.8823 91.1933 85.3756 90.5C84.869 89.82 84.6156 88.9933 84.6156 88.02ZM98.625 88.1L98.825 86.46C99.4917 86.46 100.012 86.4133 100.385 86.32C100.758 86.2133 101.038 86.02 101.225 85.74C101.425 85.4467 101.585 85.0267 101.705 84.48C101.825 83.9333 101.972 83.22 102.145 82.34L103.705 82.64C103.625 83 103.532 83.4133 103.425 83.88C103.332 84.3467 103.285 84.74 103.285 85.06C103.285 85.26 103.298 85.4467 103.325 85.62C103.352 85.7933 103.452 85.94 103.625 86.06C103.798 86.18 104.092 86.28 104.505 86.36C104.918 86.4267 105.512 86.46 106.285 86.46C106.565 86.46 106.765 86.54 106.885 86.7C107.018 86.8467 107.085 87.0267 107.085 87.24C107.085 87.4533 106.992 87.6533 106.805 87.84C106.618 88.0133 106.378 88.1 106.085 88.1C105.218 88.1 104.538 88.0533 104.045 87.96C103.565 87.8533 103.205 87.7067 102.965 87.52C102.738 87.32 102.572 87.0733 102.465 86.78C102.078 87.3267 101.598 87.6867 101.025 87.86C100.465 88.02 99.665 88.1 98.625 88.1ZM103.665 91.88C103.385 91.88 103.145 91.78 102.945 91.58C102.758 91.3933 102.665 91.1667 102.665 90.9C102.665 90.6333 102.758 90.4 102.945 90.2C103.145 90 103.385 89.9 103.665 89.9C103.932 89.9 104.158 90 104.345 90.2C104.545 90.4 104.645 90.6333 104.645 90.9C104.645 91.1667 104.545 91.3933 104.345 91.58C104.158 91.78 103.932 91.88 103.665 91.88ZM100.925 91.88C100.645 91.88 100.405 91.78 100.205 91.58C100.018 91.3933 99.925 91.1667 99.925 90.9C99.925 90.6333 100.018 90.4 100.205 90.2C100.405 90 100.645 89.9 100.925 89.9C101.192 89.9 101.418 90 101.605 90.2C101.805 90.4 101.905 90.6333 101.905 90.9C101.905 91.1667 101.805 91.3933 101.605 91.58C101.418 91.78 101.192 91.88 100.925 91.88ZM106.086 88.1L106.266 86.46C107.639 86.46 108.973 86.26 110.266 85.86C111.559 85.4467 112.739 84.8667 113.806 84.12C113.286 83.6667 112.646 83.3 111.886 83.02C111.139 82.74 110.313 82.6 109.406 82.6C109.073 82.6 108.779 82.62 108.526 82.66C108.273 82.6867 107.966 82.74 107.606 82.82L107.286 81.3C108.033 81.0733 108.739 80.96 109.406 80.96C110.099 80.96 110.726 81.0467 111.286 81.22C111.846 81.38 112.353 81.58 112.806 81.82C113.273 82.06 113.706 82.3 114.106 82.54C114.519 82.78 114.919 82.9867 115.306 83.16C115.693 83.32 116.093 83.4 116.506 83.4H116.926L117.066 84.84C116.653 84.84 116.253 84.8867 115.866 84.98C116.119 85.58 116.479 85.98 116.946 86.18C117.413 86.3667 118.106 86.46 119.026 86.46C119.306 86.46 119.506 86.54 119.626 86.7C119.759 86.8467 119.826 87.0267 119.826 87.24C119.826 87.4533 119.733 87.6533 119.546 87.84C119.359 88.0133 119.119 88.1 118.826 88.1C118.106 88.1 117.459 88.04 116.886 87.92C116.326 87.7867 115.846 87.5333 115.446 87.16C115.046 86.7733 114.753 86.2 114.566 85.44C114.059 85.68 113.539 85.9533 113.006 86.26C112.486 86.5533 111.906 86.84 111.266 87.12C110.626 87.4 109.886 87.6333 109.046 87.82C108.206 88.0067 107.219 88.1 106.086 88.1ZM111.306 91.72C111.026 91.72 110.786 91.62 110.586 91.42C110.399 91.2333 110.306 91.0067 110.306 90.74C110.306 90.4733 110.399 90.24 110.586 90.04C110.786 89.84 111.026 89.74 111.306 89.74C111.573 89.74 111.799 89.84 111.986 90.04C112.186 90.24 112.286 90.4733 112.286 90.74C112.286 91.0067 112.186 91.2333 111.986 91.42C111.799 91.62 111.573 91.72 111.306 91.72ZM118.82 88.1L119.02 86.46C119.447 86.46 119.794 86.4333 120.06 86.38C120.327 86.3133 120.547 86.16 120.72 85.92C120.907 85.6667 121.08 85.2733 121.24 84.74C121.4 84.2067 121.587 83.46 121.8 82.5L123.3 82.92C123.22 83.2667 123.127 83.6733 123.02 84.14C122.914 84.6067 122.86 85.0267 122.86 85.4C122.86 85.7333 122.987 85.9933 123.24 86.18C123.494 86.3667 123.954 86.46 124.62 86.46C125.02 86.46 125.347 86.4267 125.6 86.36C125.854 86.2933 126.06 86.1333 126.22 85.88C126.394 85.6267 126.547 85.2267 126.68 84.68C126.814 84.12 126.954 83.3467 127.1 82.36L128.62 82.64C128.58 82.88 128.527 83.1733 128.46 83.52C128.407 83.8667 128.36 84.2133 128.32 84.56C128.28 84.8933 128.26 85.1733 128.26 85.4C128.26 85.5867 128.3 85.7667 128.38 85.94C128.474 86.1 128.647 86.2267 128.9 86.32C129.167 86.4133 129.56 86.46 130.08 86.46C130.747 86.46 131.227 86.3267 131.52 86.06C131.827 85.78 131.98 85.3467 131.98 84.76C131.98 84.3067 131.967 83.8067 131.94 83.26C131.914 82.7133 131.847 82.0267 131.74 81.2L133.2 81.1C133.28 82.18 133.367 83.0667 133.46 83.76C133.567 84.4533 133.714 85 133.9 85.4C134.1 85.7867 134.367 86.06 134.7 86.22C135.034 86.38 135.474 86.46 136.02 86.46C136.3 86.46 136.5 86.54 136.62 86.7C136.754 86.8467 136.82 87.0267 136.82 87.24C136.82 87.4533 136.727 87.6533 136.54 87.84C136.354 88.0133 136.114 88.1 135.82 88.1C135.074 88.1 134.454 87.9333 133.96 87.6C133.48 87.2667 133.127 86.8467 132.9 86.34C132.634 87.0467 132.227 87.52 131.68 87.76C131.147 87.9867 130.554 88.1 129.9 88.1C129.22 88.1 128.68 88.0067 128.28 87.82C127.894 87.62 127.607 87.32 127.42 86.92C127.1 87.4 126.714 87.72 126.26 87.88C125.82 88.0267 125.194 88.1 124.38 88.1C124.1 88.1 123.8 88.0667 123.48 88C123.174 87.9333 122.887 87.8067 122.62 87.62C122.354 87.42 122.147 87.1267 122 86.74C121.654 87.3267 121.22 87.7 120.7 87.86C120.194 88.02 119.567 88.1 118.82 88.1ZM135.812 88.1L136.013 86.46C136.786 86.46 137.393 86.4333 137.833 86.38C138.286 86.3133 138.606 86.16 138.793 85.92C138.979 85.68 139.073 85.2867 139.073 84.74C139.073 84.2467 138.953 83.6133 138.713 82.84C138.486 82.0667 138.226 81.3 137.933 80.54L139.553 79.94C139.726 80.38 139.886 80.8733 140.033 81.42C140.193 81.9533 140.326 82.4867 140.433 83.02C140.539 83.5533 140.593 84.02 140.593 84.42C140.593 85.7667 140.219 86.72 139.473 87.28C138.726 87.8267 137.506 88.1 135.812 88.1ZM140.173 77.86C139.893 77.86 139.653 77.7667 139.453 77.58C139.266 77.38 139.173 77.1467 139.173 76.88C139.173 76.6133 139.266 76.38 139.453 76.18C139.653 75.98 139.893 75.88 140.173 75.88C140.439 75.88 140.666 75.98 140.853 76.18C141.053 76.38 141.153 76.6133 141.153 76.88C141.153 77.1467 141.053 77.38 140.853 77.58C140.666 77.7667 140.439 77.86 140.173 77.86ZM137.433 77.86C137.153 77.86 136.913 77.7667 136.713 77.58C136.526 77.38 136.433 77.1467 136.433 76.88C136.433 76.6133 136.526 76.38 136.713 76.18C136.913 75.98 137.153 75.88 137.433 75.88C137.699 75.88 137.926 75.98 138.113 76.18C138.313 76.38 138.413 76.6133 138.413 76.88C138.413 77.1467 138.313 77.38 138.113 77.58C137.926 77.7667 137.699 77.86 137.433 77.86ZM147.162 92.6L146.582 91.08C147.929 90.6533 148.962 90.1467 149.682 89.56C150.415 88.9733 150.915 88.36 151.182 87.72C151.462 87.0667 151.602 86.4467 151.602 85.86C151.602 85.4867 151.562 85.1267 151.482 84.78C151.402 84.4333 151.262 84.04 151.062 83.6C150.862 83.16 150.582 82.6133 150.222 81.96L151.682 81.22C152.189 82.0867 152.549 82.9067 152.762 83.68C152.989 84.4533 153.102 85.1333 153.102 85.72C153.102 86.56 152.962 87.32 152.682 88C152.415 88.68 152.055 89.28 151.602 89.8C151.162 90.3333 150.675 90.7867 150.142 91.16C149.622 91.5333 149.095 91.84 148.562 92.08C148.042 92.32 147.575 92.4933 147.162 92.6ZM154.506 92.6L153.926 91.08C155.272 90.6533 156.306 90.1467 157.026 89.56C157.759 88.9733 158.259 88.36 158.526 87.72C158.806 87.0667 158.946 86.4467 158.946 85.86C158.946 85.4867 158.906 85.1267 158.826 84.78C158.746 84.4333 158.606 84.04 158.406 83.6C158.206 83.16 157.926 82.6133 157.566 81.96L159.026 81.22C159.532 82.0867 159.892 82.9067 160.106 83.68C160.332 84.4533 160.446 85.1333 160.446 85.72C160.446 86.56 160.306 87.32 160.026 88C159.759 88.68 159.399 89.28 158.946 89.8C158.506 90.3333 158.019 90.7867 157.486 91.16C156.966 91.5333 156.439 91.84 155.906 92.08C155.386 92.32 154.919 92.4933 154.506 92.6ZM157.966 78.92C157.686 78.92 157.446 78.8267 157.246 78.64C157.059 78.44 156.966 78.2067 156.966 77.94C156.966 77.6733 157.059 77.44 157.246 77.24C157.446 77.04 157.686 76.94 157.966 76.94C158.232 76.94 158.459 77.04 158.646 77.24C158.846 77.44 158.946 77.6733 158.946 77.94C158.946 78.2067 158.846 78.44 158.646 78.64C158.459 78.8267 158.232 78.92 157.966 78.92ZM181.783 88.1L181.963 86.46C182.723 86.46 183.256 86.3867 183.563 86.24C183.869 86.0933 184.043 85.84 184.083 85.48C184.136 85.1067 184.149 84.58 184.123 83.9L183.783 73.72H185.443L185.763 83.86C185.776 84.54 185.883 85.0733 186.083 85.46C186.283 85.8333 186.549 86.0933 186.883 86.24C187.216 86.3867 187.583 86.46 187.983 86.46C188.263 86.46 188.463 86.54 188.583 86.7C188.716 86.8467 188.783 87.0267 188.783 87.24C188.783 87.4533 188.689 87.6533 188.503 87.84C188.316 88.0133 188.076 88.1 187.783 88.1C187.103 88.1 186.563 87.9733 186.163 87.72C185.763 87.4533 185.476 87.1333 185.303 86.76C185.036 87.2 184.623 87.5333 184.063 87.76C183.516 87.9867 182.756 88.1 181.783 88.1ZM167.663 88.02C167.663 87.54 167.729 87.0067 167.863 86.42C167.996 85.8333 168.209 85.1867 168.503 84.48L169.943 85.04C169.729 85.6 169.569 86.1133 169.463 86.58C169.356 87.0467 169.303 87.48 169.303 87.88C169.303 88.6267 169.516 89.2267 169.943 89.68C170.383 90.1467 170.956 90.4867 171.663 90.7C172.383 90.9133 173.169 91.02 174.023 91.02C175.049 91.02 175.983 90.9 176.823 90.66C177.676 90.4333 178.356 90.12 178.863 89.72C179.369 89.32 179.623 88.88 179.623 88.4C179.623 88.0533 179.356 87.7533 178.822 87.5C178.289 87.2467 177.543 86.9867 176.583 86.72L176.963 85.06C178.336 85.6067 179.409 85.98 180.183 86.18C180.969 86.3667 181.569 86.46 181.983 86.46C182.263 86.46 182.463 86.54 182.583 86.7C182.716 86.8467 182.783 87.0267 182.783 87.24C182.783 87.4533 182.689 87.6533 182.503 87.84C182.316 88.0133 182.076 88.1 181.783 88.1H181.043C181.056 88.22 181.069 88.3133 181.083 88.38C181.109 88.46 181.123 88.56 181.123 88.68C181.123 89.3333 180.823 89.96 180.223 90.56C179.623 91.1733 178.756 91.6733 177.622 92.06C176.503 92.4467 175.156 92.64 173.583 92.64C172.516 92.64 171.536 92.4733 170.643 92.14C169.749 91.8067 169.029 91.2933 168.483 90.6C167.936 89.92 167.663 89.06 167.663 88.02ZM187.785 88.1L187.985 86.46C188.825 86.46 189.472 86.4533 189.925 86.44C190.392 86.4267 190.732 86.4133 190.945 86.4C191.158 86.3733 191.305 86.36 191.385 86.36C191.145 86.2267 190.865 86.02 190.545 85.74C190.225 85.4467 189.945 85.08 189.705 84.64C189.465 84.1867 189.345 83.6533 189.345 83.04C189.345 82.2933 189.518 81.6333 189.865 81.06C190.225 80.4733 190.712 80.02 191.325 79.7C191.952 79.38 192.665 79.22 193.465 79.22C194.105 79.22 194.765 79.3267 195.445 79.54L195.105 81.08C194.545 80.9333 193.998 80.86 193.465 80.86C192.732 80.86 192.132 81.06 191.665 81.46C191.212 81.8467 190.985 82.3733 190.985 83.04C190.985 83.48 191.098 83.8733 191.325 84.22C191.552 84.5533 191.832 84.84 192.165 85.08C192.512 85.3067 192.865 85.48 193.225 85.6C193.598 85.72 193.932 85.7733 194.225 85.76C194.438 85.6933 194.632 85.6333 194.805 85.58C194.992 85.5133 195.218 85.4267 195.485 85.32C195.765 85.2133 196.165 85.04 196.685 84.8L197.245 86.26C196.352 86.62 195.438 86.94 194.505 87.22C193.585 87.5 192.578 87.72 191.485 87.88C190.405 88.0267 189.172 88.1 187.785 88.1ZM203.217 92.64L202.637 91.12C203.93 90.6933 204.937 90.1867 205.657 89.6C206.39 89.0133 206.903 88.4 207.197 87.76C207.503 87.1067 207.657 86.4733 207.657 85.86C207.657 85.2067 207.51 84.5467 207.217 83.88C206.937 83.2 206.623 82.56 206.277 81.96L207.737 81.22C208.11 81.9267 208.423 82.6067 208.677 83.26C208.943 83.9133 209.15 84.4867 209.297 84.98C209.483 85.5533 209.723 85.9467 210.017 86.16C210.323 86.36 210.737 86.46 211.257 86.46C211.537 86.46 211.737 86.54 211.857 86.7C211.99 86.8467 212.057 87.0267 212.057 87.24C212.057 87.4533 211.963 87.6533 211.777 87.84C211.59 88.0133 211.35 88.1 211.057 88.1C210.55 88.1 210.123 88.02 209.777 87.86C209.443 87.7 209.17 87.4867 208.957 87.22C208.823 87.9667 208.543 88.6467 208.117 89.26C207.69 89.8733 207.19 90.4067 206.617 90.86C206.043 91.3267 205.457 91.7067 204.857 92C204.257 92.2933 203.71 92.5067 203.217 92.64ZM211.066 88.1L211.266 86.46C211.72 86.46 212.186 86.4533 212.666 86.44C213.16 86.4267 213.633 86.3933 214.086 86.34C213.766 86.0467 213.453 85.6667 213.146 85.2C212.84 84.7333 212.686 84.1667 212.686 83.5C212.686 82.7933 212.853 82.1533 213.186 81.58C213.52 80.9933 213.946 80.5333 214.466 80.2C215 79.8667 215.573 79.7 216.186 79.7C216.84 79.7 217.413 79.88 217.906 80.24C218.4 80.6 218.78 81.06 219.046 81.62C219.326 82.1667 219.466 82.74 219.466 83.34C219.466 83.9667 219.34 84.5267 219.086 85.02C218.833 85.5133 218.493 85.9467 218.066 86.32C218.6 86.36 219.146 86.3933 219.706 86.42C220.266 86.4467 220.753 86.46 221.166 86.46C221.446 86.46 221.646 86.54 221.766 86.7C221.9 86.8467 221.966 87.0267 221.966 87.24C221.966 87.4533 221.873 87.6533 221.686 87.84C221.5 88.0133 221.26 88.1 220.966 88.1C220.153 88.1 219.306 88.04 218.426 87.92C217.546 87.7867 216.773 87.6267 216.106 87.44C215.893 87.52 215.673 87.5933 215.446 87.66C214.833 87.8333 214.133 87.9467 213.346 88C212.56 88.0667 211.8 88.1 211.066 88.1ZM214.326 83.54C214.326 84.06 214.486 84.52 214.806 84.92C215.126 85.3067 215.486 85.62 215.886 85.86C216.433 85.62 216.893 85.3 217.266 84.9C217.64 84.5 217.826 84.02 217.826 83.46C217.826 83.1533 217.753 82.84 217.606 82.52C217.46 82.1867 217.26 81.9067 217.006 81.68C216.753 81.4533 216.46 81.34 216.126 81.34C215.806 81.34 215.506 81.4533 215.226 81.68C214.96 81.8933 214.74 82.1667 214.566 82.5C214.406 82.8333 214.326 83.18 214.326 83.54ZM217.406 77.64C217.126 77.64 216.886 77.5467 216.686 77.36C216.5 77.16 216.406 76.9267 216.406 76.66C216.406 76.3933 216.5 76.16 216.686 75.96C216.886 75.76 217.126 75.66 217.406 75.66C217.673 75.66 217.9 75.76 218.086 75.96C218.286 76.16 218.386 76.3933 218.386 76.66C218.386 76.9267 218.286 77.16 218.086 77.36C217.9 77.5467 217.673 77.64 217.406 77.64ZM214.666 77.64C214.386 77.64 214.146 77.5467 213.946 77.36C213.76 77.16 213.666 76.9267 213.666 76.66C213.666 76.3933 213.76 76.16 213.946 75.96C214.146 75.76 214.386 75.66 214.666 75.66C214.933 75.66 215.16 75.76 215.346 75.96C215.546 76.16 215.646 76.3933 215.646 76.66C215.646 76.9267 215.546 77.16 215.346 77.36C215.16 77.5467 214.933 77.64 214.666 77.64ZM220.969 88.1L221.169 86.46C221.809 86.46 222.322 86.42 222.709 86.34C223.109 86.26 223.395 86.1 223.569 85.86C223.742 85.6067 223.829 85.2333 223.829 84.74C223.829 84.2467 223.709 83.6133 223.469 82.84C223.242 82.0667 222.982 81.3 222.689 80.54L224.309 79.94C224.482 80.38 224.642 80.8733 224.789 81.42C224.949 81.9533 225.082 82.4867 225.189 83.02C225.295 83.5533 225.349 84.02 225.349 84.42C225.349 85.7667 224.989 86.72 224.269 87.28C223.562 87.8267 222.462 88.1 220.969 88.1ZM223.529 77.86C223.249 77.86 223.009 77.7667 222.809 77.58C222.622 77.38 222.529 77.1467 222.529 76.88C222.529 76.6133 222.622 76.38 222.809 76.18C223.009 75.98 223.249 75.88 223.529 75.88C223.795 75.88 224.022 75.98 224.209 76.18C224.409 76.38 224.509 76.6133 224.509 76.88C224.509 77.1467 224.409 77.38 224.209 77.58C224.022 77.7667 223.795 77.86 223.529 77.86ZM228.18 88L227.78 73.72H229.4L229.8 88H228.18ZM238.439 88.1349C238.051 88.1349 237.717 87.9976 237.438 87.723C237.158 87.4437 237.019 87.1075 237.019 86.7145C237.019 86.3262 237.158 85.9948 237.438 85.7202C237.717 85.4408 238.051 85.3011 238.439 85.3011C238.827 85.3011 239.161 85.4408 239.441 85.7202C239.72 85.9948 239.86 86.3262 239.86 86.7145C239.86 86.9749 239.793 87.214 239.661 87.4318C239.533 87.6449 239.363 87.8153 239.149 87.9432C238.936 88.071 238.7 88.1349 238.439 88.1349ZM250.076 73.4545V88H247.875V75.6562H247.789L244.309 77.929V75.8267L247.939 73.4545H250.076Z" fill="#2D3342"/>
<path d="M267.363 163.853C147.038 144.097 55.956 144.547 33.0555 184.554C8.53827 227.385 426.341 204.708 267.363 163.853Z" stroke="#5A56B4" stroke-width="2" stroke-linecap="round"/>
<path d="M67.3341 179.68L66.5181 177.632C67.8835 177.152 68.8755 176.603 69.4941 175.984C70.1128 175.355 70.4221 174.688 70.4221 173.984C70.4221 173.536 70.3261 173.056 70.1341 172.544C69.9421 172.032 69.6915 171.477 69.3821 170.88L71.4781 169.872C71.8515 170.587 72.1395 171.269 72.3421 171.92C72.5555 172.571 72.6621 173.179 72.6621 173.744C72.6621 175.056 72.2355 176.213 71.3821 177.216C70.5288 178.219 69.1795 179.04 67.3341 179.68ZM74.537 179.68L74.073 177.44C75.097 177.312 75.9503 177.141 76.633 176.928C77.3263 176.725 77.8383 176.379 78.169 175.888C78.0197 175.941 77.8543 175.984 77.673 176.016C77.5023 176.048 77.3157 176.064 77.113 176.064C76.601 176.064 76.137 175.984 75.721 175.824C75.3157 175.653 74.9903 175.392 74.745 175.04C74.4997 174.688 74.377 174.229 74.377 173.664C74.377 173.141 74.4623 172.635 74.633 172.144C74.8037 171.653 75.0383 171.216 75.337 170.832C75.6463 170.437 75.9983 170.128 76.393 169.904C76.7983 169.669 77.225 169.552 77.673 169.552C78.1957 169.552 78.6597 169.685 79.065 169.952C79.4703 170.219 79.8063 170.571 80.073 171.008C80.3397 171.435 80.5423 171.899 80.681 172.4C80.8197 172.901 80.889 173.381 80.889 173.84C80.889 175.045 80.633 176.069 80.121 176.912C79.609 177.755 78.8783 178.405 77.929 178.864C76.9797 179.333 75.849 179.605 74.537 179.68ZM76.585 173.216C76.585 173.664 76.921 173.888 77.593 173.888C77.945 173.888 78.2917 173.84 78.633 173.744C78.6117 173.456 78.5583 173.173 78.473 172.896C78.3983 172.608 78.2863 172.373 78.137 172.192C77.9877 172.011 77.801 171.92 77.577 171.92C77.2783 171.92 77.0383 172.064 76.857 172.352C76.6757 172.629 76.585 172.917 76.585 173.216ZM81.8498 179.696L81.0337 177.712C81.7911 177.445 82.4631 177.131 83.0498 176.768C83.6364 176.416 84.0951 176.011 84.4258 175.552C84.7671 175.083 84.9378 174.56 84.9378 173.984C84.9378 173.536 84.8364 173.045 84.6338 172.512C84.4311 171.979 84.1858 171.435 83.8978 170.88L85.9938 169.872C86.1751 170.203 86.3404 170.56 86.4898 170.944C86.6391 171.317 86.7618 171.653 86.8578 171.952C86.9538 172.251 87.0178 172.453 87.0498 172.56C87.1991 173.072 87.4018 173.413 87.6578 173.584C87.9244 173.755 88.3511 173.84 88.9378 173.84C89.3324 173.84 89.6204 173.947 89.8018 174.16C89.9831 174.363 90.0738 174.619 90.0738 174.928C90.0738 175.259 89.9618 175.536 89.7378 175.76C89.5138 175.973 89.1938 176.08 88.7778 176.08C87.9671 176.08 87.3484 175.861 86.9218 175.424C86.7404 176.085 86.3938 176.693 85.8818 177.248C85.3804 177.813 84.7778 178.304 84.0738 178.72C83.3698 179.136 82.6284 179.461 81.8498 179.696ZM88.7969 176.08L88.9569 173.84C89.2129 173.84 89.4102 173.787 89.5489 173.68C89.6982 173.573 89.8422 173.392 89.9809 173.136C90.1195 172.869 90.3115 172.501 90.5569 172.032C91.0902 171.019 91.6555 170.315 92.2529 169.92C92.8609 169.525 93.4475 169.328 94.0129 169.328C94.5995 169.328 95.1382 169.525 95.6289 169.92C96.1302 170.304 96.5995 171.019 97.0369 172.064C97.3462 172.789 97.6555 173.269 97.9649 173.504C98.2742 173.728 98.5995 173.84 98.9409 173.84C99.3462 173.84 99.6342 173.947 99.8049 174.16C99.9755 174.363 100.061 174.619 100.061 174.928C100.061 175.259 99.9489 175.536 99.7249 175.76C99.5009 175.973 99.1862 176.08 98.7809 176.08C98.3115 176.08 97.8795 176.011 97.4849 175.872C97.0902 175.733 96.7649 175.531 96.5089 175.264C96.3275 175.531 96.0769 175.771 95.7569 175.984C95.4475 176.187 95.0689 176.288 94.6209 176.288C94.3542 176.288 94.0395 176.235 93.6769 176.128C93.3249 176.032 92.9569 175.867 92.5729 175.632C92.1995 175.387 91.8529 175.056 91.5329 174.64C91.2235 175.205 90.8662 175.589 90.4609 175.792C90.0555 175.984 89.5009 176.08 88.7969 176.08ZM92.4609 172.752C92.6635 173.083 92.9569 173.387 93.3409 173.664C93.7249 173.931 94.1249 174.064 94.5409 174.064C94.7542 174.064 94.9302 173.984 95.0689 173.824C95.2075 173.653 95.2129 173.403 95.0849 173.072C95.0102 172.891 94.9035 172.677 94.7649 172.432C94.6369 172.187 94.4875 171.979 94.3169 171.808C94.1569 171.627 93.9809 171.536 93.7889 171.536C93.5755 171.536 93.3569 171.632 93.1329 171.824C92.9089 172.016 92.6849 172.325 92.4609 172.752ZM98.7812 176.08L98.9413 173.84C99.4319 173.84 99.7839 173.792 99.9973 173.696C100.211 173.589 100.339 173.397 100.381 173.12C100.424 172.832 100.435 172.416 100.413 171.872L100.125 164.288H102.381L102.701 172.032C102.723 172.651 102.696 173.211 102.621 173.712C102.557 174.203 102.392 174.624 102.125 174.976C101.869 175.328 101.469 175.6 100.925 175.792C100.392 175.984 99.6773 176.08 98.7812 176.08ZM104.811 176L104.475 164.288H106.715L107.051 176H104.811ZM120.505 176.08C119.705 176.08 119.023 175.973 118.457 175.76C117.892 175.547 117.465 175.184 117.177 174.672C116.505 174.8 115.86 174.843 115.241 174.8C114.623 174.747 114.073 174.613 113.593 174.4C113.113 174.176 112.735 173.861 112.457 173.456C112.18 173.04 112.041 172.528 112.041 171.92C112.041 171.205 112.233 170.581 112.617 170.048C113.012 169.504 113.545 169.045 114.217 168.672C114.9 168.299 115.668 168.011 116.521 167.808L116.473 166.592H118.729L119.001 172.256C119.033 172.917 119.177 173.349 119.433 173.552C119.7 173.744 120.111 173.84 120.665 173.84C121.071 173.84 121.359 173.947 121.529 174.16C121.7 174.363 121.785 174.619 121.785 174.928C121.785 175.259 121.673 175.536 121.449 175.76C121.236 175.973 120.921 176.08 120.505 176.08ZM114.281 171.712C114.281 171.957 114.399 172.149 114.633 172.288C114.879 172.427 115.188 172.517 115.561 172.56C115.935 172.592 116.324 172.571 116.729 172.496L116.633 170.032C115.908 170.149 115.332 170.363 114.905 170.672C114.489 170.981 114.281 171.328 114.281 171.712ZM114.857 164.928C114.548 164.928 114.281 164.821 114.057 164.608C113.844 164.384 113.737 164.123 113.737 163.824C113.737 163.515 113.844 163.248 114.057 163.024C114.281 162.8 114.548 162.688 114.857 162.688C115.156 162.688 115.412 162.8 115.625 163.024C115.839 163.248 115.945 163.515 115.945 163.824C115.945 164.123 115.839 164.384 115.625 164.608C115.412 164.821 115.156 164.928 114.857 164.928ZM117.625 164.944C117.316 164.944 117.049 164.837 116.825 164.624C116.612 164.411 116.505 164.149 116.505 163.84C116.505 163.531 116.612 163.264 116.825 163.04C117.049 162.816 117.316 162.704 117.625 162.704C117.924 162.704 118.18 162.816 118.393 163.04C118.607 163.264 118.713 163.531 118.713 163.84C118.713 164.149 118.607 164.411 118.393 164.624C118.18 164.837 117.924 164.944 117.625 164.944ZM120.5 176.08L120.66 173.84C120.916 173.84 121.113 173.787 121.252 173.68C121.401 173.573 121.545 173.392 121.684 173.136C121.823 172.869 122.015 172.501 122.26 172.032C122.793 171.019 123.359 170.315 123.956 169.92C124.564 169.525 125.151 169.328 125.716 169.328C126.303 169.328 126.841 169.525 127.332 169.92C127.833 170.304 128.303 171.019 128.74 172.064C129.049 172.789 129.359 173.269 129.668 173.504C129.977 173.728 130.303 173.84 130.644 173.84C131.049 173.84 131.337 173.947 131.508 174.16C131.679 174.363 131.764 174.619 131.764 174.928C131.764 175.259 131.652 175.536 131.428 175.76C131.204 175.973 130.889 176.08 130.484 176.08C130.015 176.08 129.583 176.011 129.188 175.872C128.793 175.733 128.468 175.531 128.212 175.264C128.031 175.531 127.78 175.771 127.46 175.984C127.151 176.187 126.772 176.288 126.324 176.288C126.057 176.288 125.743 176.235 125.38 176.128C125.028 176.032 124.66 175.867 124.276 175.632C123.903 175.387 123.556 175.056 123.236 174.64C122.927 175.205 122.569 175.589 122.164 175.792C121.759 175.984 121.204 176.08 120.5 176.08ZM124.164 172.752C124.367 173.083 124.66 173.387 125.044 173.664C125.428 173.931 125.828 174.064 126.244 174.064C126.457 174.064 126.633 173.984 126.772 173.824C126.911 173.653 126.916 173.403 126.788 173.072C126.713 172.891 126.607 172.677 126.468 172.432C126.34 172.187 126.191 171.979 126.02 171.808C125.86 171.627 125.684 171.536 125.492 171.536C125.279 171.536 125.06 171.632 124.836 171.824C124.612 172.016 124.388 172.325 124.164 172.752ZM130.484 176.08L130.644 173.84C131.135 173.84 131.487 173.792 131.7 173.696C131.914 173.589 132.042 173.397 132.084 173.12C132.127 172.832 132.138 172.416 132.116 171.872L131.86 164.288H134.132L134.404 171.856C134.426 172.4 134.49 172.816 134.596 173.104C134.703 173.381 134.879 173.573 135.124 173.68C135.38 173.787 135.722 173.84 136.148 173.84C136.554 173.84 136.842 173.947 137.012 174.16C137.183 174.363 137.268 174.619 137.268 174.928C137.268 175.259 137.156 175.536 136.932 175.76C136.708 175.973 136.394 176.08 135.988 176.08C135.434 176.08 134.927 176.005 134.468 175.856C134.01 175.707 133.663 175.403 133.428 174.944C133.13 175.392 132.746 175.696 132.276 175.856C131.807 176.005 131.21 176.08 130.484 176.08ZM135.984 176.08L136.144 173.84H138.432C139.328 173.84 139.776 173.589 139.776 173.088C139.776 172.96 139.707 172.757 139.568 172.48C139.44 172.192 139.158 171.845 138.72 171.44C138.486 171.227 138.23 171.003 137.952 170.768C137.686 170.523 137.43 170.293 137.184 170.08C136.939 169.856 136.736 169.659 136.576 169.488C136.416 169.317 136.336 169.195 136.336 169.12C136.336 168.885 136.358 168.619 136.4 168.32C136.454 168.021 136.544 167.819 136.672 167.712C136.918 167.488 137.312 167.211 137.856 166.88C138.411 166.549 139.078 166.187 139.856 165.792C140.646 165.397 141.515 164.992 142.464 164.576L143.376 166.528C142.48 166.912 141.659 167.285 140.912 167.648C140.166 168.011 139.51 168.357 138.944 168.688C139.68 169.296 140.267 169.845 140.704 170.336C141.152 170.816 141.483 171.253 141.696 171.648C141.92 172.032 142.064 172.379 142.128 172.688C142.203 172.997 142.24 173.269 142.24 173.504C142.24 173.76 142.176 174.037 142.048 174.336C141.931 174.624 141.712 174.901 141.392 175.168C141.083 175.435 140.646 175.653 140.08 175.824C139.515 175.995 138.79 176.08 137.904 176.08H135.984ZM144.162 179.68L143.698 177.44C144.722 177.312 145.575 177.141 146.258 176.928C146.951 176.725 147.463 176.379 147.794 175.888C147.645 175.941 147.479 175.984 147.298 176.016C147.127 176.048 146.941 176.064 146.738 176.064C146.226 176.064 145.762 175.984 145.346 175.824C144.941 175.653 144.615 175.392 144.37 175.04C144.125 174.688 144.002 174.229 144.002 173.664C144.002 173.141 144.087 172.635 144.258 172.144C144.429 171.653 144.663 171.216 144.962 170.832C145.271 170.437 145.623 170.128 146.018 169.904C146.423 169.669 146.85 169.552 147.298 169.552C147.821 169.552 148.285 169.685 148.69 169.952C149.095 170.219 149.431 170.571 149.698 171.008C149.965 171.435 150.167 171.899 150.306 172.4C150.445 172.901 150.514 173.381 150.514 173.84C150.514 175.045 150.258 176.069 149.746 176.912C149.234 177.755 148.503 178.405 147.554 178.864C146.605 179.333 145.474 179.605 144.162 179.68ZM146.21 173.216C146.21 173.664 146.546 173.888 147.218 173.888C147.57 173.888 147.917 173.84 148.258 173.744C148.237 173.456 148.183 173.173 148.098 172.896C148.023 172.608 147.911 172.373 147.762 172.192C147.613 172.011 147.426 171.92 147.202 171.92C146.903 171.92 146.663 172.064 146.482 172.352C146.301 172.629 146.21 172.917 146.21 173.216ZM155.338 175.552C155.338 175.189 155.386 174.725 155.482 174.16C155.589 173.595 155.818 172.923 156.17 172.144L158.138 172.832C157.957 173.333 157.818 173.765 157.722 174.128C157.626 174.48 157.578 174.827 157.578 175.168C157.578 175.979 157.839 176.576 158.362 176.96C158.895 177.355 159.599 177.552 160.474 177.552C161.242 177.552 161.85 177.424 162.298 177.168C162.746 176.912 163.071 176.555 163.274 176.096C163.477 175.648 163.599 175.125 163.642 174.528C163.695 173.931 163.711 173.285 163.69 172.592L163.386 164.288H165.642L165.914 172.448C165.935 173.141 165.909 173.835 165.834 174.528C165.77 175.221 165.626 175.877 165.402 176.496C165.189 177.115 164.874 177.664 164.458 178.144C164.042 178.624 163.503 179.003 162.842 179.28C162.191 179.557 161.386 179.696 160.426 179.696C159.498 179.696 158.645 179.552 157.866 179.264C157.098 178.976 156.485 178.523 156.026 177.904C155.567 177.296 155.338 176.512 155.338 175.552ZM167.693 179.68L167.229 177.44C168.189 177.323 168.995 177.168 169.645 176.976C170.307 176.795 170.819 176.496 171.181 176.08H170.749C169.747 176.08 168.957 175.899 168.381 175.536C167.816 175.163 167.533 174.528 167.533 173.632C167.533 173.152 167.613 172.672 167.773 172.192C167.944 171.712 168.179 171.275 168.477 170.88C168.776 170.475 169.123 170.155 169.517 169.92C169.923 169.675 170.36 169.552 170.829 169.552C171.459 169.552 172.013 169.749 172.493 170.144C172.984 170.539 173.363 171.061 173.629 171.712C173.907 172.363 174.045 173.072 174.045 173.84H175.309C175.704 173.84 175.992 173.947 176.173 174.16C176.355 174.363 176.445 174.619 176.445 174.928C176.445 175.259 176.333 175.536 176.109 175.76C175.885 175.973 175.565 176.08 175.149 176.08H173.677C173.261 177.189 172.536 178.043 171.501 178.64C170.477 179.248 169.208 179.595 167.693 179.68ZM169.741 173.248C169.741 173.365 169.779 173.488 169.853 173.616C169.939 173.733 170.125 173.829 170.413 173.904C170.701 173.968 171.16 173.973 171.789 173.92C171.779 173.301 171.677 172.816 171.485 172.464C171.293 172.101 171.043 171.92 170.733 171.92C170.509 171.92 170.323 172 170.173 172.16C170.024 172.309 169.912 172.491 169.837 172.704C169.773 172.907 169.741 173.088 169.741 173.248ZM175.172 176.08L175.332 173.84C176.484 173.84 177.604 173.712 178.692 173.456C179.78 173.2 180.745 172.789 181.588 172.224C181.097 171.936 180.553 171.712 179.956 171.552C179.369 171.392 178.724 171.312 178.02 171.312C177.753 171.312 177.476 171.328 177.188 171.36C176.911 171.381 176.628 171.424 176.34 171.488L176.02 169.296C176.329 169.221 176.655 169.163 176.996 169.12C177.337 169.077 177.647 169.056 177.924 169.056C178.649 169.056 179.3 169.152 179.876 169.344C180.452 169.536 180.975 169.76 181.444 170.016C181.924 170.272 182.367 170.496 182.772 170.688C183.188 170.88 183.593 170.976 183.988 170.976H184.58L184.836 173.104C184.367 173.136 183.935 173.227 183.54 173.376C183.145 173.525 182.751 173.717 182.356 173.952C181.972 174.176 181.556 174.411 181.108 174.656C180.671 174.901 180.175 175.131 179.62 175.344C179.065 175.557 178.425 175.733 177.7 175.872C176.975 176.011 176.132 176.08 175.172 176.08ZM177.94 167.568C177.609 167.568 177.327 167.456 177.092 167.232C176.868 167.008 176.756 166.731 176.756 166.4C176.756 166.069 176.868 165.787 177.092 165.552C177.327 165.317 177.609 165.2 177.94 165.2C178.26 165.2 178.532 165.317 178.756 165.552C178.991 165.787 179.108 166.069 179.108 166.4C179.108 166.731 178.991 167.008 178.756 167.232C178.532 167.456 178.26 167.568 177.94 167.568ZM188.722 173.84C189.437 173.84 189.912 173.749 190.146 173.568C190.381 173.376 190.498 173.163 190.498 172.928C190.498 172.672 190.424 172.373 190.274 172.032C190.136 171.691 189.96 171.333 189.746 170.96C189.533 170.587 189.309 170.229 189.074 169.888C188.84 169.547 188.637 169.248 188.466 168.992L190.37 167.728C191.064 168.656 191.608 169.557 192.002 170.432C192.408 171.296 192.674 172 192.802 172.544C192.92 173.056 193.144 173.403 193.474 173.584C193.805 173.755 194.152 173.84 194.514 173.84C194.92 173.84 195.208 173.947 195.378 174.16C195.56 174.363 195.65 174.619 195.65 174.928C195.65 175.259 195.538 175.536 195.314 175.76C195.101 175.973 194.781 176.08 194.354 176.08C193.352 176.08 192.605 175.771 192.114 175.152C191.826 175.429 191.421 175.659 190.898 175.84C190.376 176.011 189.757 176.096 189.042 176.096C188.552 176.096 188.002 176.037 187.394 175.92C186.786 175.803 186.253 175.616 185.794 175.36L186.578 173.328C186.973 173.509 187.352 173.643 187.714 173.728C188.088 173.803 188.424 173.84 188.722 173.84ZM194.375 176.08L194.535 173.84C195.026 173.84 195.378 173.792 195.591 173.696C195.804 173.589 195.932 173.397 195.975 173.12C196.018 172.832 196.028 172.416 196.007 171.872L195.719 164.288H197.975L198.295 172.032C198.316 172.651 198.29 173.211 198.215 173.712C198.151 174.203 197.986 174.624 197.719 174.976C197.463 175.328 197.063 175.6 196.519 175.792C195.986 175.984 195.271 176.08 194.375 176.08ZM200.405 176L200.069 164.288H202.309L202.645 176H200.405ZM207.619 175.552C207.619 175.189 207.667 174.725 207.763 174.16C207.87 173.595 208.099 172.923 208.451 172.144L210.419 172.832C210.238 173.333 210.099 173.765 210.003 174.128C209.907 174.48 209.859 174.827 209.859 175.168C209.859 175.893 210.12 176.469 210.643 176.896C211.166 177.333 211.843 177.552 212.675 177.552C213.582 177.552 214.275 177.403 214.755 177.104C215.246 176.816 215.576 176.357 215.747 175.728C215.918 175.099 215.987 174.272 215.955 173.248L215.635 164.288H217.891L218.131 171.856C218.142 172.4 218.211 172.816 218.339 173.104C218.478 173.381 218.68 173.573 218.947 173.68C219.224 173.787 219.582 173.84 220.019 173.84C220.414 173.84 220.696 173.947 220.867 174.16C221.048 174.363 221.139 174.619 221.139 174.928C221.139 175.259 221.027 175.536 220.803 175.76C220.579 175.973 220.264 176.08 219.859 176.08C219.582 176.08 219.278 176.037 218.947 175.952C218.627 175.856 218.334 175.707 218.067 175.504C217.822 177.029 217.235 178.107 216.307 178.736C215.379 179.376 214.147 179.696 212.611 179.696C211.704 179.696 210.872 179.541 210.115 179.232C209.358 178.933 208.75 178.48 208.291 177.872C207.843 177.264 207.619 176.491 207.619 175.552ZM219.859 176.08L220.019 173.84C220.403 173.84 220.734 173.803 221.011 173.728C221.289 173.653 221.523 173.504 221.715 173.28C221.907 173.045 222.067 172.704 222.195 172.256C222.334 171.808 222.457 171.211 222.563 170.464L224.659 170.816C224.617 171.061 224.569 171.355 224.515 171.696C224.462 172.037 224.435 172.352 224.435 172.64C224.435 173.024 224.595 173.323 224.915 173.536C225.235 173.739 225.785 173.84 226.563 173.84C226.958 173.84 227.241 173.947 227.411 174.16C227.593 174.363 227.683 174.619 227.683 174.928C227.683 175.259 227.571 175.536 227.347 175.76C227.134 175.973 226.819 176.08 226.403 176.08C225.657 176.08 225.017 175.984 224.483 175.792C223.961 175.6 223.577 175.259 223.331 174.768C223.043 175.152 222.702 175.44 222.307 175.632C221.923 175.813 221.518 175.936 221.091 176C220.675 176.053 220.265 176.08 219.859 176.08ZM224.323 179.792C224.014 179.792 223.747 179.685 223.523 179.472C223.31 179.259 223.203 178.997 223.203 178.688C223.203 178.379 223.31 178.112 223.523 177.888C223.747 177.664 224.014 177.552 224.323 177.552C224.622 177.552 224.878 177.664 225.091 177.888C225.305 178.112 225.411 178.379 225.411 178.688C225.411 178.997 225.305 179.259 225.091 179.472C224.878 179.685 224.622 179.792 224.323 179.792ZM221.555 179.792C221.246 179.792 220.979 179.685 220.755 179.472C220.542 179.259 220.435 178.997 220.435 178.688C220.435 178.379 220.542 178.112 220.755 177.888C220.979 177.664 221.246 177.552 221.555 177.552C221.854 177.552 222.11 177.664 222.323 177.888C222.537 178.112 222.643 178.379 222.643 178.688C222.643 178.997 222.537 179.259 222.323 179.472C222.11 179.685 221.854 179.792 221.555 179.792ZM226.406 176.08L226.566 173.84C227.718 173.84 228.838 173.712 229.926 173.456C231.014 173.2 231.98 172.789 232.822 172.224C232.332 171.936 231.788 171.712 231.19 171.552C230.604 171.392 229.958 171.312 229.254 171.312C228.988 171.312 228.71 171.328 228.422 171.36C228.145 171.381 227.862 171.424 227.574 171.488L227.254 169.296C227.564 169.221 227.889 169.163 228.23 169.12C228.572 169.077 228.881 169.056 229.158 169.056C229.884 169.056 230.534 169.152 231.11 169.344C231.686 169.536 232.209 169.76 232.678 170.016C233.158 170.272 233.601 170.496 234.006 170.688C234.422 170.88 234.828 170.976 235.222 170.976H235.814L236.07 173.104C235.836 173.115 235.612 173.147 235.398 173.2C235.185 173.253 234.977 173.317 234.774 173.392C235.041 173.563 235.361 173.68 235.734 173.744C236.108 173.808 236.54 173.84 237.03 173.84C237.436 173.84 237.724 173.947 237.894 174.16C238.065 174.363 238.15 174.619 238.15 174.928C238.15 175.259 238.038 175.536 237.814 175.76C237.601 175.973 237.286 176.08 236.87 176.08C236.017 176.08 235.265 175.957 234.614 175.712C233.964 175.467 233.441 174.987 233.046 174.272C232.556 174.549 232.012 174.827 231.414 175.104C230.828 175.381 230.129 175.616 229.318 175.808C228.508 175.989 227.537 176.08 226.406 176.08ZM230.934 179.68C230.625 179.68 230.358 179.573 230.134 179.36C229.921 179.147 229.814 178.885 229.814 178.576C229.814 178.267 229.921 177.995 230.134 177.76C230.358 177.536 230.625 177.424 230.934 177.424C231.233 177.424 231.494 177.536 231.718 177.76C231.942 177.995 232.054 178.267 232.054 178.576C232.054 178.885 231.942 179.147 231.718 179.36C231.494 179.573 231.233 179.68 230.934 179.68ZM236.875 176.08L237.035 173.84C237.387 173.84 237.675 173.813 237.899 173.76C238.123 173.696 238.304 173.563 238.443 173.36C238.592 173.147 238.72 172.832 238.827 172.416C238.944 171.989 239.072 171.413 239.211 170.688L241.291 171.072C241.248 171.307 241.19 171.6 241.115 171.952C241.051 172.304 241.019 172.608 241.019 172.864C241.019 173.163 241.11 173.403 241.291 173.584C241.483 173.755 241.846 173.84 242.379 173.84C242.656 173.84 242.891 173.813 243.083 173.76C243.286 173.696 243.456 173.563 243.595 173.36C243.744 173.147 243.872 172.821 243.979 172.384C244.096 171.936 244.208 171.333 244.315 170.576L246.427 170.912C246.363 171.285 246.299 171.68 246.235 172.096C246.171 172.512 246.139 172.827 246.139 173.04C246.139 173.253 246.235 173.44 246.427 173.6C246.63 173.76 247.03 173.84 247.627 173.84C248.566 173.84 249.035 173.419 249.035 172.576C249.035 172.213 249.019 171.803 248.987 171.344C248.966 170.875 248.912 170.293 248.827 169.6L250.891 169.44C250.966 170.357 251.051 171.104 251.147 171.68C251.243 172.256 251.371 172.704 251.531 173.024C251.702 173.333 251.926 173.547 252.203 173.664C252.491 173.781 252.864 173.84 253.323 173.84C253.728 173.84 254.016 173.947 254.187 174.16C254.368 174.363 254.459 174.619 254.459 174.928C254.459 175.259 254.347 175.536 254.123 175.76C253.91 175.973 253.59 176.08 253.163 176.08C252.811 176.08 252.448 176.043 252.075 175.968C251.702 175.893 251.35 175.739 251.019 175.504C250.699 175.269 250.438 174.917 250.235 174.448C250 175.099 249.659 175.536 249.211 175.76C248.763 175.973 248.182 176.08 247.467 176.08C246.902 176.08 246.411 175.995 245.995 175.824C245.579 175.643 245.286 175.339 245.115 174.912C244.912 175.253 244.683 175.509 244.427 175.68C244.171 175.84 243.867 175.947 243.515 176C243.163 176.053 242.747 176.08 242.267 176.08C241.979 176.08 241.691 176.059 241.403 176.016C241.126 175.973 240.859 175.877 240.603 175.728C240.358 175.568 240.15 175.317 239.979 174.976C239.616 175.456 239.174 175.76 238.651 175.888C238.128 176.016 237.536 176.08 236.875 176.08ZM253.172 176.08L253.332 173.84C253.972 173.84 254.463 173.808 254.804 173.744C255.145 173.68 255.38 173.563 255.508 173.392C255.647 173.211 255.716 172.955 255.716 172.624C255.716 172.325 255.673 171.968 255.588 171.552C255.513 171.136 255.412 170.709 255.284 170.272C255.156 169.824 255.028 169.408 254.9 169.024L257.108 168.416C257.236 168.779 257.364 169.2 257.492 169.68C257.631 170.16 257.743 170.656 257.828 171.168C257.913 171.68 257.956 172.165 257.956 172.624C257.956 173.349 257.839 173.941 257.604 174.4C257.369 174.848 257.039 175.195 256.612 175.44C256.196 175.685 255.695 175.856 255.108 175.952C254.521 176.037 253.876 176.08 253.172 176.08ZM254.74 167.104C254.431 167.104 254.164 166.997 253.94 166.784C253.727 166.56 253.62 166.299 253.62 166C253.62 165.691 253.727 165.424 253.94 165.2C254.164 164.976 254.431 164.864 254.74 164.864C255.039 164.864 255.295 164.976 255.508 165.2C255.721 165.424 255.828 165.691 255.828 166C255.828 166.299 255.721 166.56 255.508 166.784C255.295 166.997 255.039 167.104 254.74 167.104ZM257.508 167.12C257.199 167.12 256.932 167.013 256.708 166.8C256.495 166.587 256.388 166.325 256.388 166.016C256.388 165.707 256.495 165.44 256.708 165.216C256.932 164.992 257.199 164.88 257.508 164.88C257.807 164.88 258.063 164.992 258.276 165.216C258.489 165.44 258.596 165.707 258.596 166.016C258.596 166.325 258.489 166.587 258.276 166.8C258.063 167.013 257.807 167.12 257.508 167.12ZM119.474 195.08C118.674 195.08 117.991 194.973 117.426 194.76C116.861 194.547 116.434 194.184 116.146 193.672C115.474 193.8 114.829 193.843 114.21 193.8C113.591 193.747 113.042 193.613 112.562 193.4C112.082 193.176 111.703 192.861 111.426 192.456C111.149 192.04 111.01 191.528 111.01 190.92C111.01 190.205 111.202 189.581 111.586 189.048C111.981 188.504 112.514 188.045 113.186 187.672C113.869 187.299 114.637 187.011 115.49 186.808L115.442 185.592H117.698L117.97 191.256C118.002 191.917 118.146 192.349 118.402 192.552C118.669 192.744 119.079 192.84 119.634 192.84C120.039 192.84 120.327 192.947 120.498 193.16C120.669 193.363 120.754 193.619 120.754 193.928C120.754 194.259 120.642 194.536 120.418 194.76C120.205 194.973 119.89 195.08 119.474 195.08ZM113.25 190.712C113.25 190.957 113.367 191.149 113.602 191.288C113.847 191.427 114.157 191.517 114.53 191.56C114.903 191.592 115.293 191.571 115.698 191.496L115.602 189.032C114.877 189.149 114.301 189.363 113.874 189.672C113.458 189.981 113.25 190.328 113.25 190.712ZM113.826 183.928C113.517 183.928 113.25 183.821 113.026 183.608C112.813 183.384 112.706 183.123 112.706 182.824C112.706 182.515 112.813 182.248 113.026 182.024C113.25 181.8 113.517 181.688 113.826 181.688C114.125 181.688 114.381 181.8 114.594 182.024C114.807 182.248 114.914 182.515 114.914 182.824C114.914 183.123 114.807 183.384 114.594 183.608C114.381 183.821 114.125 183.928 113.826 183.928ZM116.594 183.944C116.285 183.944 116.018 183.837 115.794 183.624C115.581 183.411 115.474 183.149 115.474 182.84C115.474 182.531 115.581 182.264 115.794 182.04C116.018 181.816 116.285 181.704 116.594 181.704C116.893 181.704 117.149 181.816 117.362 182.04C117.575 182.264 117.682 182.531 117.682 182.84C117.682 183.149 117.575 183.411 117.362 183.624C117.149 183.837 116.893 183.944 116.594 183.944ZM119.469 195.08L119.629 192.84H121.917C122.813 192.84 123.261 192.589 123.261 192.088C123.261 191.96 123.191 191.757 123.053 191.48C122.925 191.192 122.642 190.845 122.205 190.44C121.97 190.227 121.714 190.003 121.437 189.768C121.17 189.523 120.914 189.293 120.669 189.08C120.423 188.856 120.221 188.659 120.061 188.488C119.901 188.317 119.821 188.195 119.821 188.12C119.821 187.885 119.842 187.619 119.885 187.32C119.938 187.021 120.029 186.819 120.157 186.712C120.402 186.488 120.797 186.211 121.341 185.88C121.895 185.549 122.562 185.187 123.341 184.792C124.13 184.397 124.999 183.992 125.949 183.576L126.861 185.528C125.965 185.912 125.143 186.285 124.397 186.648C123.65 187.011 122.994 187.357 122.429 187.688C123.165 188.296 123.751 188.845 124.189 189.336C124.637 189.816 124.967 190.253 125.181 190.648C125.405 191.032 125.549 191.379 125.613 191.688C125.687 191.997 125.725 192.269 125.725 192.504C125.725 192.76 125.661 193.037 125.533 193.336C125.415 193.624 125.197 193.901 124.877 194.168C124.567 194.435 124.13 194.653 123.565 194.824C122.999 194.995 122.274 195.08 121.389 195.08H119.469ZM126.35 198.696L125.534 196.712C126.291 196.445 126.963 196.131 127.55 195.768C128.136 195.416 128.595 195.011 128.926 194.552C129.267 194.083 129.438 193.56 129.438 192.984C129.438 192.536 129.336 192.045 129.134 191.512C128.931 190.979 128.686 190.435 128.398 189.88L130.494 188.872C130.675 189.203 130.84 189.56 130.99 189.944C131.139 190.317 131.262 190.653 131.358 190.952C131.454 191.251 131.518 191.453 131.55 191.56C131.699 192.072 131.902 192.413 132.158 192.584C132.424 192.755 132.851 192.84 133.438 192.84C133.832 192.84 134.12 192.947 134.302 193.16C134.483 193.363 134.574 193.619 134.574 193.928C134.574 194.259 134.462 194.536 134.238 194.76C134.014 194.973 133.694 195.08 133.278 195.08C132.467 195.08 131.848 194.861 131.422 194.424C131.24 195.085 130.894 195.693 130.382 196.248C129.88 196.813 129.278 197.304 128.574 197.72C127.87 198.136 127.128 198.461 126.35 198.696ZM133.297 195.08L133.457 192.84C133.809 192.84 134.097 192.813 134.321 192.76C134.545 192.696 134.726 192.563 134.865 192.36C135.014 192.147 135.142 191.832 135.249 191.416C135.366 190.989 135.494 190.413 135.633 189.688L137.713 190.072C137.67 190.307 137.612 190.6 137.537 190.952C137.473 191.304 137.441 191.608 137.441 191.864C137.441 192.163 137.532 192.403 137.713 192.584C137.905 192.755 138.268 192.84 138.801 192.84C139.078 192.84 139.313 192.813 139.505 192.76C139.708 192.696 139.878 192.563 140.017 192.36C140.166 192.147 140.294 191.821 140.401 191.384C140.518 190.936 140.63 190.333 140.737 189.576L142.849 189.912C142.785 190.285 142.721 190.68 142.657 191.096C142.593 191.512 142.561 191.827 142.561 192.04C142.561 192.253 142.657 192.44 142.849 192.6C143.052 192.76 143.452 192.84 144.049 192.84C144.988 192.84 145.457 192.419 145.457 191.576C145.457 191.213 145.441 190.803 145.409 190.344C145.388 189.875 145.334 189.293 145.249 188.6L147.313 188.44C147.388 189.357 147.473 190.104 147.569 190.68C147.665 191.256 147.793 191.704 147.953 192.024C148.124 192.333 148.348 192.547 148.625 192.664C148.913 192.781 149.286 192.84 149.745 192.84C150.15 192.84 150.438 192.947 150.609 193.16C150.79 193.363 150.881 193.619 150.881 193.928C150.881 194.259 150.769 194.536 150.545 194.76C150.332 194.973 150.012 195.08 149.585 195.08C149.233 195.08 148.87 195.043 148.497 194.968C148.124 194.893 147.772 194.739 147.441 194.504C147.121 194.269 146.86 193.917 146.657 193.448C146.422 194.099 146.081 194.536 145.633 194.76C145.185 194.973 144.604 195.08 143.889 195.08C143.324 195.08 142.833 194.995 142.417 194.824C142.001 194.643 141.708 194.339 141.537 193.912C141.334 194.253 141.105 194.509 140.849 194.68C140.593 194.84 140.289 194.947 139.937 195C139.585 195.053 139.169 195.08 138.689 195.08C138.401 195.08 138.113 195.059 137.825 195.016C137.548 194.973 137.281 194.877 137.025 194.728C136.78 194.568 136.572 194.317 136.401 193.976C136.038 194.456 135.596 194.76 135.073 194.888C134.55 195.016 133.958 195.08 133.297 195.08ZM141.505 185.176C141.228 185.176 140.993 185.075 140.801 184.872C140.609 184.669 140.513 184.429 140.513 184.152C140.513 183.875 140.609 183.64 140.801 183.448C140.993 183.256 141.228 183.16 141.505 183.16C141.782 183.16 142.017 183.256 142.209 183.448C142.401 183.64 142.497 183.875 142.497 184.152C142.497 184.429 142.401 184.669 142.209 184.872C142.017 185.075 141.782 185.176 141.505 185.176ZM140.225 187.288C139.948 187.288 139.713 187.187 139.521 186.984C139.329 186.781 139.233 186.541 139.233 186.264C139.233 185.987 139.329 185.752 139.521 185.56C139.713 185.368 139.948 185.272 140.225 185.272C140.502 185.272 140.737 185.368 140.929 185.56C141.121 185.752 141.217 185.987 141.217 186.264C141.217 186.541 141.121 186.781 140.929 186.984C140.737 187.187 140.502 187.288 140.225 187.288ZM142.705 187.288C142.438 187.288 142.204 187.187 142.001 186.984C141.809 186.781 141.713 186.541 141.713 186.264C141.713 185.987 141.809 185.752 142.001 185.56C142.204 185.368 142.438 185.272 142.705 185.272C142.982 185.272 143.217 185.368 143.409 185.56C143.601 185.752 143.697 185.987 143.697 186.264C143.697 186.541 143.601 186.781 143.409 186.984C143.217 187.187 142.982 187.288 142.705 187.288ZM149.594 195.08L149.754 192.84C150.244 192.84 150.596 192.792 150.81 192.696C151.023 192.589 151.151 192.397 151.194 192.12C151.236 191.832 151.247 191.416 151.226 190.872L150.938 183.288H153.194L153.514 191.032C153.535 191.651 153.508 192.211 153.434 192.712C153.37 193.203 153.204 193.624 152.938 193.976C152.682 194.328 152.282 194.6 151.738 194.792C151.204 194.984 150.49 195.08 149.594 195.08ZM155.624 195L155.288 183.288H157.528L157.864 195H155.624ZM169.206 195.336C167.67 195.336 166.443 195.181 165.526 194.872C164.609 194.563 163.947 194.136 163.542 193.592C163.137 193.048 162.934 192.429 162.934 191.736C162.934 191.235 162.998 190.723 163.126 190.2C163.254 189.667 163.377 189.197 163.494 188.792L165.494 189.256C165.419 189.555 165.345 189.875 165.27 190.216C165.206 190.547 165.174 190.84 165.174 191.096C165.174 191.501 165.313 191.853 165.59 192.152C165.878 192.451 166.347 192.685 166.998 192.856C167.649 193.016 168.523 193.096 169.622 193.096V193.144L169.638 193.096C171.707 193.096 173.243 192.979 174.246 192.744C175.259 192.509 175.766 192.099 175.766 191.512C175.766 191.128 175.702 190.669 175.574 190.136C175.446 189.603 175.281 189.053 175.078 188.488L177.174 187.88C177.313 188.243 177.446 188.643 177.574 189.08C177.702 189.507 177.803 189.939 177.878 190.376C177.963 190.803 178.006 191.203 178.006 191.576C178.006 192.237 177.862 192.808 177.574 193.288C177.286 193.757 176.806 194.147 176.134 194.456C175.473 194.755 174.577 194.973 173.446 195.112C172.315 195.261 170.907 195.336 169.222 195.336V195.32L169.206 195.336ZM170.438 199.08C170.129 199.08 169.862 198.973 169.638 198.76C169.425 198.547 169.318 198.285 169.318 197.976C169.318 197.667 169.425 197.395 169.638 197.16C169.862 196.936 170.129 196.824 170.438 196.824C170.737 196.824 170.998 196.936 171.222 197.16C171.446 197.395 171.558 197.667 171.558 197.976C171.558 198.285 171.446 198.547 171.222 198.76C170.998 198.973 170.737 199.08 170.438 199.08ZM183.885 195.08C182.893 195.08 182.125 194.979 181.581 194.776C181.047 194.573 180.669 194.259 180.445 193.832C180.231 193.395 180.114 192.845 180.093 192.184L179.757 183.288H181.997L182.333 191.112C182.354 191.603 182.407 191.971 182.493 192.216C182.578 192.461 182.738 192.627 182.973 192.712C183.207 192.797 183.565 192.84 184.045 192.84C184.439 192.84 184.727 192.947 184.909 193.16C185.09 193.363 185.181 193.619 185.181 193.928C185.181 194.259 185.069 194.536 184.845 194.76C184.621 194.973 184.301 195.08 183.885 195.08ZM183.906 195.08L184.066 192.84C184.418 192.84 184.706 192.813 184.93 192.76C185.154 192.696 185.336 192.563 185.474 192.36C185.624 192.147 185.752 191.832 185.858 191.416C185.976 190.989 186.104 190.413 186.242 189.688L188.322 190.072C188.28 190.307 188.221 190.6 188.146 190.952C188.082 191.304 188.05 191.608 188.05 191.864C188.05 192.163 188.141 192.403 188.322 192.584C188.514 192.755 188.877 192.84 189.41 192.84C189.688 192.84 189.922 192.813 190.114 192.76C190.317 192.696 190.488 192.563 190.626 192.36C190.776 192.147 190.904 191.821 191.01 191.384C191.128 190.936 191.24 190.333 191.346 189.576L193.458 189.912C193.394 190.285 193.33 190.68 193.266 191.096C193.202 191.512 193.17 191.827 193.17 192.04C193.17 192.253 193.266 192.44 193.458 192.6C193.661 192.76 194.061 192.84 194.658 192.84C195.597 192.84 196.066 192.419 196.066 191.576C196.066 191.213 196.05 190.803 196.018 190.344C195.997 189.875 195.944 189.293 195.858 188.6L197.922 188.44C197.997 189.357 198.082 190.104 198.178 190.68C198.274 191.256 198.402 191.704 198.562 192.024C198.733 192.333 198.957 192.547 199.234 192.664C199.522 192.781 199.896 192.84 200.354 192.84C200.76 192.84 201.048 192.947 201.218 193.16C201.4 193.363 201.49 193.619 201.49 193.928C201.49 194.259 201.378 194.536 201.154 194.76C200.941 194.973 200.621 195.08 200.194 195.08C199.842 195.08 199.48 195.043 199.106 194.968C198.733 194.893 198.381 194.739 198.05 194.504C197.73 194.269 197.469 193.917 197.266 193.448C197.032 194.099 196.69 194.536 196.242 194.76C195.794 194.973 195.213 195.08 194.498 195.08C193.933 195.08 193.442 194.995 193.026 194.824C192.61 194.643 192.317 194.339 192.146 193.912C191.944 194.253 191.714 194.509 191.458 194.68C191.202 194.84 190.898 194.947 190.546 195C190.194 195.053 189.778 195.08 189.298 195.08C189.01 195.08 188.722 195.059 188.434 195.016C188.157 194.973 187.89 194.877 187.634 194.728C187.389 194.568 187.181 194.317 187.01 193.976C186.648 194.456 186.205 194.76 185.682 194.888C185.16 195.016 184.568 195.08 183.906 195.08ZM200.203 195.08L200.363 192.84C201.515 192.84 202.635 192.712 203.723 192.456C204.811 192.2 205.776 191.789 206.619 191.224C206.128 190.936 205.584 190.712 204.987 190.552C204.4 190.392 203.755 190.312 203.051 190.312C202.784 190.312 202.507 190.328 202.219 190.36C201.942 190.381 201.659 190.424 201.371 190.488L201.051 188.296C201.36 188.221 201.686 188.163 202.027 188.12C202.368 188.077 202.678 188.056 202.955 188.056C203.68 188.056 204.331 188.152 204.907 188.344C205.483 188.536 206.006 188.76 206.475 189.016C206.955 189.272 207.398 189.496 207.803 189.688C208.219 189.88 208.624 189.976 209.019 189.976H209.611L209.867 192.104C209.632 192.115 209.408 192.147 209.195 192.2C208.982 192.253 208.774 192.317 208.571 192.392C208.838 192.563 209.158 192.68 209.531 192.744C209.904 192.808 210.336 192.84 210.827 192.84C211.232 192.84 211.52 192.947 211.691 193.16C211.862 193.363 211.947 193.619 211.947 193.928C211.947 194.259 211.835 194.536 211.611 194.76C211.398 194.973 211.083 195.08 210.667 195.08C209.814 195.08 209.062 194.957 208.411 194.712C207.76 194.467 207.238 193.987 206.843 193.272C206.352 193.549 205.808 193.827 205.211 194.104C204.624 194.381 203.926 194.616 203.115 194.808C202.304 194.989 201.334 195.08 200.203 195.08ZM210.672 195.08L210.832 192.84C211.323 192.84 211.675 192.792 211.888 192.696C212.101 192.589 212.229 192.397 212.272 192.12C212.315 191.832 212.325 191.416 212.304 190.872L212.016 183.288H214.272L214.592 191.032C214.613 191.651 214.587 192.211 214.512 192.712C214.448 193.203 214.283 193.624 214.016 193.976C213.76 194.328 213.36 194.6 212.816 194.792C212.283 194.984 211.568 195.08 210.672 195.08Z" fill="#2D3342"/>
<path d="M246.861 134.754C246.253 134.67 231.535 132.847 232.148 120.134C232.205 118.966 232.361 117.903 232.605 116.94M246.861 134.754C238.794 134.259 234.695 131.324 232.86 127.808M246.861 134.754C247.837 134.888 248.844 134.878 249.84 134.731M232.605 116.94C232.911 115.734 233.352 114.684 233.903 113.778M232.605 116.94C231.506 119.767 230.931 124.109 232.86 127.808M233.903 113.778C238.422 106.345 250.306 108.566 254.831 113.778C256.606 115.824 260.328 121.015 258.514 127.504C257.378 131.571 253.689 134.165 249.84 134.731M233.903 113.778C232.184 116.02 229.689 121.273 231.822 126.036M232.86 127.808C232.433 127.23 232.091 126.637 231.822 126.036M249.84 134.731C244.749 135.553 234.019 134.966 231.822 126.036" stroke="#6663CF" stroke-linecap="round"/>
<path d="M246.728 92.7727C246.164 92.6953 232.497 91.0125 233.066 79.2775C233.119 78.1994 233.264 77.2185 233.491 76.3294M246.728 92.7727C239.237 92.3158 235.431 89.6072 233.727 86.3609M246.728 92.7727C247.635 92.8969 248.569 92.887 249.494 92.7519M233.491 76.3294C233.774 75.2163 234.184 74.2469 234.696 73.4101M233.491 76.3294C232.47 78.9387 231.936 82.9471 233.727 86.3609M234.696 73.4101C238.892 66.5495 249.927 68.5991 254.129 73.4101C255.777 75.2995 259.233 80.091 257.549 86.0805C256.493 89.835 253.069 92.2294 249.494 92.7519M234.696 73.4101C233.099 75.4804 230.783 80.3289 232.763 84.7258M233.727 86.3609C233.331 85.8274 233.013 85.2802 232.763 84.7258M249.494 92.7519C244.767 93.5109 234.803 92.9683 232.763 84.7258" stroke="#6663CF" stroke-linecap="round"/>
<defs>
<linearGradient id="paint0_linear_1404_8965" x1="140.385" y1="20" x2="173.358" y2="59.4168" gradientUnits="userSpaceOnUse">
<stop stop-color="#5955B3"/>
<stop offset="1" stop-color="#6563CE"/>
</linearGradient>
</defs>
</svg>
