<svg width="220" height="24" viewBox="0 0 220 24" fill="none" xmlns="http://www.w3.org/2000/svg">
<g clip-path="url(#clip0_1359_7630)">
<path d="M29.8849 17V6.81818H36.7457V8.59304H32.0376V11.0192H36.3928V12.794H32.0376V15.2251H36.7656V17H29.8849ZM40.1873 9.36364L41.5893 12.0334L43.0261 9.36364H45.1987L42.9863 13.1818L45.2583 17H43.0957L41.5893 14.3601L40.1078 17H37.9203L40.1873 13.1818L37.9998 9.36364H40.1873ZM48.593 17.1442C48.1058 17.1442 47.6716 17.0597 47.2905 16.8906C46.9093 16.7183 46.6077 16.4647 46.3857 16.13C46.1669 15.7919 46.0575 15.371 46.0575 14.8672C46.0575 14.4429 46.1354 14.0866 46.2912 13.7983C46.447 13.5099 46.6591 13.2779 46.9276 13.1023C47.196 12.9266 47.5009 12.794 47.8423 12.7045C48.187 12.6151 48.5483 12.5521 48.9261 12.5156C49.3703 12.4692 49.7282 12.4261 50 12.3864C50.2718 12.3433 50.469 12.2803 50.5916 12.1974C50.7143 12.1146 50.7756 11.992 50.7756 11.8295V11.7997C50.7756 11.4848 50.6761 11.2412 50.4773 11.0689C50.2817 10.8965 50.0033 10.8104 49.642 10.8104C49.2609 10.8104 48.9576 10.8949 48.7322 11.0639C48.5069 11.2296 48.3577 11.4384 48.2848 11.6903L46.326 11.5312C46.4254 11.0672 46.621 10.6662 46.9126 10.3281C47.2043 9.98674 47.5805 9.7249 48.0412 9.54261C48.5052 9.35701 49.0421 9.2642 49.652 9.2642C50.0762 9.2642 50.4822 9.31392 50.87 9.41335C51.2611 9.51278 51.6075 9.6669 51.9091 9.87571C52.214 10.0845 52.4543 10.353 52.63 10.6811C52.8056 11.0059 52.8935 11.3954 52.8935 11.8494V17H50.8849V15.9411H50.8253C50.7027 16.1797 50.5386 16.3902 50.3331 16.5724C50.1276 16.7514 49.8807 16.8923 49.5923 16.995C49.304 17.0945 48.9709 17.1442 48.593 17.1442ZM49.1996 15.6825C49.5111 15.6825 49.7862 15.6212 50.0249 15.4986C50.2635 15.3726 50.4508 15.2036 50.5866 14.9915C50.7225 14.7794 50.7905 14.5391 50.7905 14.2706V13.4602C50.7242 13.5033 50.633 13.5431 50.517 13.5795C50.4044 13.6127 50.2768 13.6442 50.1342 13.674C49.9917 13.7005 49.8492 13.7254 49.7067 13.7486C49.5642 13.7685 49.4349 13.7867 49.3189 13.8033C49.0703 13.8397 48.8532 13.8977 48.6676 13.9773C48.482 14.0568 48.3378 14.1645 48.2351 14.3004C48.1323 14.433 48.081 14.5987 48.081 14.7976C48.081 15.0859 48.1854 15.3063 48.3942 15.4588C48.6063 15.608 48.8748 15.6825 49.1996 15.6825ZM54.5366 17V9.36364H56.555V10.7109H56.6445C56.8036 10.2635 57.0688 9.91051 57.44 9.65199C57.8112 9.39347 58.2553 9.2642 58.7724 9.2642C59.296 9.2642 59.7418 9.39512 60.1097 9.65696C60.4776 9.91548 60.7229 10.2668 60.8455 10.7109H60.9251C61.0808 10.2734 61.3626 9.92377 61.7702 9.66193C62.1812 9.39678 62.6668 9.2642 63.2269 9.2642C63.9395 9.2642 64.5179 9.49124 64.962 9.94531C65.4094 10.3961 65.6332 11.0357 65.6332 11.8643V17H63.5202V12.282C63.5202 11.8577 63.4076 11.5395 63.1822 11.3274C62.9568 11.1153 62.6751 11.0092 62.337 11.0092C61.9525 11.0092 61.6526 11.1319 61.4371 11.3771C61.2217 11.6191 61.114 11.9389 61.114 12.3366V17H59.0607V12.2372C59.0607 11.8627 58.953 11.5644 58.7376 11.3423C58.5255 11.1203 58.2454 11.0092 57.8974 11.0092C57.6621 11.0092 57.4499 11.0689 57.261 11.1882C57.0754 11.3042 56.9279 11.4683 56.8185 11.6804C56.7092 11.8892 56.6545 12.1345 56.6545 12.4162V17H54.5366ZM73.6598 11.5412L71.7209 11.6605C71.6877 11.4948 71.6165 11.3456 71.5071 11.2131C71.3977 11.0772 71.2536 10.9695 71.0746 10.8899C70.8989 10.8071 70.6884 10.7656 70.4432 10.7656C70.1151 10.7656 69.8383 10.8352 69.6129 10.9744C69.3875 11.1103 69.2749 11.2926 69.2749 11.5213C69.2749 11.7036 69.3478 11.8577 69.4936 11.9837C69.6394 12.1096 69.8897 12.2107 70.2443 12.2869L71.6264 12.5653C72.3688 12.7178 72.9223 12.9631 73.2869 13.3011C73.6515 13.6392 73.8338 14.0833 73.8338 14.6335C73.8338 15.134 73.6863 15.5732 73.3913 15.951C73.0997 16.3288 72.6986 16.6238 72.1882 16.8359C71.6811 17.0447 71.0961 17.1491 70.4332 17.1491C69.4223 17.1491 68.617 16.9387 68.017 16.5178C67.4205 16.0935 67.0708 15.5168 66.968 14.7876L69.0511 14.6783C69.1141 14.9865 69.2666 15.2218 69.5085 15.3842C69.7505 15.5433 70.0604 15.6229 70.4382 15.6229C70.8094 15.6229 71.1077 15.5516 71.3331 15.4091C71.5618 15.2633 71.6778 15.076 71.6811 14.8473C71.6778 14.6551 71.5966 14.4976 71.4375 14.375C71.2784 14.2491 71.0331 14.1529 70.7017 14.0866L69.3793 13.8232C68.6335 13.674 68.0784 13.4155 67.7138 13.0476C67.3525 12.6797 67.1719 12.2107 67.1719 11.6406C67.1719 11.1501 67.3045 10.7275 67.5696 10.3729C67.8381 10.0182 68.2143 9.74479 68.6982 9.55256C69.1854 9.36032 69.7554 9.2642 70.4084 9.2642C71.3729 9.2642 72.1319 9.46804 72.6854 9.87571C73.2422 10.2834 73.567 10.8385 73.6598 11.5412ZM80.5852 17.1442C80.098 17.1442 79.6638 17.0597 79.2827 16.8906C78.9015 16.7183 78.5999 16.4647 78.3778 16.13C78.1591 15.7919 78.0497 15.371 78.0497 14.8672C78.0497 14.4429 78.1276 14.0866 78.2834 13.7983C78.4392 13.5099 78.6513 13.2779 78.9197 13.1023C79.1882 12.9266 79.4931 12.794 79.8345 12.7045C80.1792 12.6151 80.5405 12.5521 80.9183 12.5156C81.3625 12.4692 81.7204 12.4261 81.9922 12.3864C82.264 12.3433 82.4612 12.2803 82.5838 12.1974C82.7064 12.1146 82.7678 11.992 82.7678 11.8295V11.7997C82.7678 11.4848 82.6683 11.2412 82.4695 11.0689C82.2739 10.8965 81.9955 10.8104 81.6342 10.8104C81.2531 10.8104 80.9498 10.8949 80.7244 11.0639C80.4991 11.2296 80.3499 11.4384 80.277 11.6903L78.3182 11.5312C78.4176 11.0672 78.6132 10.6662 78.9048 10.3281C79.1965 9.98674 79.5727 9.7249 80.0334 9.54261C80.4974 9.35701 81.0343 9.2642 81.6442 9.2642C82.0684 9.2642 82.4744 9.31392 82.8622 9.41335C83.2533 9.51278 83.5997 9.6669 83.9013 9.87571C84.2062 10.0845 84.4465 10.353 84.6222 10.6811C84.7978 11.0059 84.8857 11.3954 84.8857 11.8494V17H82.8771V15.9411H82.8175C82.6948 16.1797 82.5308 16.3902 82.3253 16.5724C82.1198 16.7514 81.8729 16.8923 81.5845 16.995C81.2962 17.0945 80.9631 17.1442 80.5852 17.1442ZM81.1918 15.6825C81.5033 15.6825 81.7784 15.6212 82.017 15.4986C82.2557 15.3726 82.4429 15.2036 82.5788 14.9915C82.7147 14.7794 82.7827 14.5391 82.7827 14.2706V13.4602C82.7164 13.5033 82.6252 13.5431 82.5092 13.5795C82.3965 13.6127 82.2689 13.6442 82.1264 13.674C81.9839 13.7005 81.8414 13.7254 81.6989 13.7486C81.5563 13.7685 81.4271 13.7867 81.3111 13.8033C81.0625 13.8397 80.8454 13.8977 80.6598 13.9773C80.4742 14.0568 80.33 14.1645 80.2273 14.3004C80.1245 14.433 80.0732 14.5987 80.0732 14.7976C80.0732 15.0859 80.1776 15.3063 80.3864 15.4588C80.5985 15.608 80.867 15.6825 81.1918 15.6825ZM88.6467 12.5852V17H86.5288V9.36364H88.5472V10.7109H88.6367C88.8058 10.2668 89.0891 9.91548 89.4869 9.65696C89.8846 9.39512 90.3668 9.2642 90.9336 9.2642C91.4639 9.2642 91.9263 9.38021 92.3207 9.61222C92.7151 9.84422 93.0217 10.1757 93.2404 10.6065C93.4592 11.0341 93.5685 11.5445 93.5685 12.1378V17H91.4506V12.5156C91.454 12.0483 91.3346 11.6837 91.0927 11.4219C90.8507 11.1567 90.5176 11.0241 90.0934 11.0241C89.8084 11.0241 89.5565 11.0855 89.3377 11.2081C89.1223 11.3307 88.9532 11.5097 88.8306 11.745C88.7113 11.977 88.65 12.2571 88.6467 12.5852ZM98.0517 17.1243C97.4717 17.1243 96.9463 16.9751 96.4757 16.6768C96.0083 16.3752 95.6371 15.9328 95.362 15.3494C95.0903 14.7628 94.9544 14.0436 94.9544 13.1918C94.9544 12.3168 95.0952 11.5893 95.377 11.0092C95.6587 10.4259 96.0332 9.99006 96.5005 9.7017C96.9712 9.41004 97.4866 9.2642 98.0467 9.2642C98.4743 9.2642 98.8306 9.33712 99.1156 9.48295C99.4039 9.62547 99.6359 9.80445 99.8116 10.0199C99.9906 10.232 100.126 10.4408 100.219 10.6463H100.284V6.81818H102.397V17H100.309V15.777H100.219C100.12 15.9891 99.979 16.1996 99.7967 16.4084C99.6177 16.6139 99.3841 16.7846 99.0957 16.9205C98.8107 17.0563 98.4627 17.1243 98.0517 17.1243ZM98.7228 15.4389C99.0642 15.4389 99.3526 15.3461 99.5879 15.1605C99.8265 14.9716 100.009 14.7081 100.135 14.37C100.264 14.032 100.329 13.6359 100.329 13.1818C100.329 12.7277 100.266 12.3333 100.14 11.9986C100.014 11.6638 99.8315 11.4053 99.5929 11.223C99.3542 11.0407 99.0642 10.9496 98.7228 10.9496C98.3748 10.9496 98.0815 11.044 97.8429 11.233C97.6042 11.4219 97.4236 11.6837 97.301 12.0185C97.1783 12.3532 97.117 12.741 97.117 13.1818C97.117 13.6259 97.1783 14.0187 97.301 14.3601C97.4269 14.6982 97.6075 14.9633 97.8429 15.1555C98.0815 15.3445 98.3748 15.4389 98.7228 15.4389ZM107.378 17V9.36364H109.432V10.696H109.511C109.65 10.2221 109.884 9.86411 110.212 9.62216C110.54 9.37689 110.918 9.25426 111.346 9.25426C111.452 9.25426 111.566 9.26089 111.689 9.27415C111.811 9.28741 111.919 9.30563 112.012 9.32883V11.2081C111.912 11.1783 111.775 11.1518 111.599 11.1286C111.424 11.1054 111.263 11.0938 111.117 11.0938C110.805 11.0938 110.527 11.1617 110.282 11.2976C110.04 11.4302 109.848 11.6158 109.705 11.8544C109.566 12.093 109.496 12.3681 109.496 12.6797V17H107.378ZM116.232 17.1491C115.446 17.1491 114.77 16.9901 114.203 16.6719C113.64 16.3504 113.205 15.8963 112.901 15.3097C112.596 14.7197 112.443 14.022 112.443 13.2166C112.443 12.4311 112.596 11.7417 112.901 11.1484C113.205 10.5552 113.635 10.0928 114.188 9.76136C114.745 9.42992 115.398 9.2642 116.147 9.2642C116.651 9.2642 117.12 9.34541 117.554 9.50781C117.991 9.6669 118.373 9.9072 118.697 10.2287C119.026 10.5502 119.281 10.9545 119.463 11.4418C119.645 11.9257 119.737 12.4924 119.737 13.142V13.7237H113.288V12.4112H117.743C117.743 12.1063 117.677 11.8362 117.544 11.6009C117.411 11.3655 117.228 11.1816 116.992 11.049C116.76 10.9131 116.49 10.8452 116.182 10.8452C115.86 10.8452 115.575 10.9197 115.327 11.0689C115.081 11.2147 114.889 11.4119 114.75 11.6605C114.611 11.9058 114.54 12.1792 114.536 12.4808V13.7287C114.536 14.1065 114.606 14.433 114.745 14.7081C114.888 14.9832 115.088 15.1953 115.347 15.3445C115.605 15.4936 115.912 15.5682 116.266 15.5682C116.502 15.5682 116.717 15.535 116.913 15.4688C117.108 15.4025 117.276 15.303 117.415 15.1705C117.554 15.0379 117.66 14.8755 117.733 14.6832L119.692 14.8125C119.592 15.2831 119.388 15.6941 119.08 16.0455C118.775 16.3935 118.381 16.6652 117.897 16.8608C117.416 17.053 116.861 17.1491 116.232 17.1491ZM125.18 9.36364V10.9545H120.582V9.36364H125.18ZM121.626 7.53409H123.744V14.6534C123.744 14.849 123.773 15.0014 123.833 15.1108C123.893 15.2169 123.976 15.2914 124.082 15.3345C124.191 15.3776 124.317 15.3991 124.46 15.3991C124.559 15.3991 124.658 15.3909 124.758 15.3743C124.857 15.3544 124.933 15.3395 124.987 15.3295L125.32 16.9055C125.214 16.9387 125.064 16.9768 124.872 17.0199C124.68 17.0663 124.446 17.0945 124.171 17.1044C123.661 17.1243 123.213 17.0563 122.829 16.9006C122.448 16.7448 122.151 16.5028 121.939 16.1747C121.727 15.8466 121.622 15.4323 121.626 14.9318V7.53409ZM128.738 17.1442C128.25 17.1442 127.816 17.0597 127.435 16.8906C127.054 16.7183 126.752 16.4647 126.53 16.13C126.311 15.7919 126.202 15.371 126.202 14.8672C126.202 14.4429 126.28 14.0866 126.436 13.7983C126.592 13.5099 126.804 13.2779 127.072 13.1023C127.341 12.9266 127.645 12.794 127.987 12.7045C128.332 12.6151 128.693 12.5521 129.071 12.5156C129.515 12.4692 129.873 12.4261 130.145 12.3864C130.416 12.3433 130.614 12.2803 130.736 12.1974C130.859 12.1146 130.92 11.992 130.92 11.8295V11.7997C130.92 11.4848 130.821 11.2412 130.622 11.0689C130.426 10.8965 130.148 10.8104 129.787 10.8104C129.405 10.8104 129.102 10.8949 128.877 11.0639C128.651 11.2296 128.502 11.4384 128.429 11.6903L126.471 11.5312C126.57 11.0672 126.766 10.6662 127.057 10.3281C127.349 9.98674 127.725 9.7249 128.186 9.54261C128.65 9.35701 129.187 9.2642 129.797 9.2642C130.221 9.2642 130.627 9.31392 131.015 9.41335C131.406 9.51278 131.752 9.6669 132.054 9.87571C132.359 10.0845 132.599 10.353 132.775 10.6811C132.95 11.0059 133.038 11.3954 133.038 11.8494V17H131.029V15.9411H130.97C130.847 16.1797 130.683 16.3902 130.478 16.5724C130.272 16.7514 130.025 16.8923 129.737 16.995C129.449 17.0945 129.115 17.1442 128.738 17.1442ZM129.344 15.6825C129.656 15.6825 129.931 15.6212 130.169 15.4986C130.408 15.3726 130.595 15.2036 130.731 14.9915C130.867 14.7794 130.935 14.5391 130.935 14.2706V13.4602C130.869 13.5033 130.778 13.5431 130.662 13.5795C130.549 13.6127 130.421 13.6442 130.279 13.674C130.136 13.7005 129.994 13.7254 129.851 13.7486C129.709 13.7685 129.579 13.7867 129.463 13.8033C129.215 13.8397 128.998 13.8977 128.812 13.9773C128.627 14.0568 128.482 14.1645 128.38 14.3004C128.277 14.433 128.225 14.5987 128.225 14.7976C128.225 15.0859 128.33 15.3063 128.539 15.4588C128.751 15.608 129.019 15.6825 129.344 15.6825ZM136.6 14.8026L136.605 12.2621H136.913L139.359 9.36364H141.79L138.504 13.2017H138.002L136.6 14.8026ZM134.681 17V6.81818H136.799V17H134.681ZM139.454 17L137.207 13.674L138.619 12.1776L141.935 17H139.454ZM145.995 17.1491C145.21 17.1491 144.534 16.9901 143.967 16.6719C143.403 16.3504 142.969 15.8963 142.664 15.3097C142.359 14.7197 142.207 14.022 142.207 13.2166C142.207 12.4311 142.359 11.7417 142.664 11.1484C142.969 10.5552 143.398 10.0928 143.952 9.76136C144.509 9.42992 145.162 9.2642 145.911 9.2642C146.414 9.2642 146.883 9.34541 147.318 9.50781C147.755 9.6669 148.136 9.9072 148.461 10.2287C148.789 10.5502 149.044 10.9545 149.227 11.4418C149.409 11.9257 149.5 12.4924 149.5 13.142V13.7237H143.052V12.4112H147.507C147.507 12.1063 147.44 11.8362 147.308 11.6009C147.175 11.3655 146.991 11.1816 146.756 11.049C146.524 10.9131 146.254 10.8452 145.945 10.8452C145.624 10.8452 145.339 10.9197 145.09 11.0689C144.845 11.2147 144.653 11.4119 144.514 11.6605C144.374 11.9058 144.303 12.1792 144.3 12.4808V13.7287C144.3 14.1065 144.369 14.433 144.509 14.7081C144.651 14.9832 144.852 15.1953 145.11 15.3445C145.369 15.4936 145.675 15.5682 146.03 15.5682C146.265 15.5682 146.481 15.535 146.676 15.4688C146.872 15.4025 147.039 15.303 147.178 15.1705C147.318 15.0379 147.424 14.8755 147.497 14.6832L149.455 14.8125C149.356 15.2831 149.152 15.6941 148.844 16.0455C148.539 16.3935 148.145 16.6652 147.661 16.8608C147.18 17.053 146.625 17.1491 145.995 17.1491ZM157.236 11.5412L155.297 11.6605C155.264 11.4948 155.193 11.3456 155.083 11.2131C154.974 11.0772 154.83 10.9695 154.651 10.8899C154.475 10.8071 154.265 10.7656 154.019 10.7656C153.691 10.7656 153.414 10.8352 153.189 10.9744C152.964 11.1103 152.851 11.2926 152.851 11.5213C152.851 11.7036 152.924 11.8577 153.07 11.9837C153.216 12.1096 153.466 12.2107 153.82 12.2869L155.203 12.5653C155.945 12.7178 156.499 12.9631 156.863 13.3011C157.228 13.6392 157.41 14.0833 157.41 14.6335C157.41 15.134 157.262 15.5732 156.968 15.951C156.676 16.3288 156.275 16.6238 155.764 16.8359C155.257 17.0447 154.672 17.1491 154.009 17.1491C152.999 17.1491 152.193 16.9387 151.593 16.5178C150.997 16.0935 150.647 15.5168 150.544 14.7876L152.627 14.6783C152.69 14.9865 152.843 15.2218 153.085 15.3842C153.327 15.5433 153.637 15.6229 154.014 15.6229C154.386 15.6229 154.684 15.5516 154.909 15.4091C155.138 15.2633 155.254 15.076 155.257 14.8473C155.254 14.6551 155.173 14.4976 155.014 14.375C154.855 14.2491 154.609 14.1529 154.278 14.0866L152.955 13.8232C152.21 13.674 151.655 13.4155 151.29 13.0476C150.929 12.6797 150.748 12.2107 150.748 11.6406C150.748 11.1501 150.881 10.7275 151.146 10.3729C151.414 10.0182 151.79 9.74479 152.274 9.55256C152.762 9.36032 153.332 9.2642 153.985 9.2642C154.949 9.2642 155.708 9.46804 156.262 9.87571C156.818 10.2834 157.143 10.8385 157.236 11.5412Z" fill="#5955B3"/>
<g filter="url(#filter0_d_1359_7630)">
<path d="M9.60272 16.9412L4.65144 10.5529L9.60272 4.23528" stroke="#6663CF" stroke-width="2" stroke-miterlimit="10" stroke-linecap="round" stroke-linejoin="round"/>
<path d="M9.60272 16.9412L4.65144 10.5529L9.60272 4.23528" stroke="#6663CF" stroke-width="2" stroke-miterlimit="10" stroke-linecap="round" stroke-linejoin="round"/>
<path d="M23 10.5529L14.3949 10.5529L5.96203 10.5529" stroke="#6663CF" stroke-width="2" stroke-miterlimit="10" stroke-linecap="round" stroke-linejoin="round"/>
<path d="M23 10.5529L14.3949 10.5529L5.96203 10.5529" stroke="#6663CF" stroke-width="2" stroke-miterlimit="10" stroke-linecap="round" stroke-linejoin="round"/>
</g>
</g>
<defs>
<filter id="filter0_d_1359_7630" x="-0.348572" y="3.23523" width="28.3486" height="22.706" filterUnits="userSpaceOnUse" color-interpolation-filters="sRGB">
<feFlood flood-opacity="0" result="BackgroundImageFix"/>
<feColorMatrix in="SourceAlpha" type="matrix" values="0 0 0 0 0 0 0 0 0 0 0 0 0 0 0 0 0 0 127 0" result="hardAlpha"/>
<feOffset dy="4"/>
<feGaussianBlur stdDeviation="2"/>
<feComposite in2="hardAlpha" operator="out"/>
<feColorMatrix type="matrix" values="0 0 0 0 0 0 0 0 0 0 0 0 0 0 0 0 0 0 0.25 0"/>
<feBlend mode="normal" in2="BackgroundImageFix" result="effect1_dropShadow_1359_7630"/>
<feBlend mode="normal" in="SourceGraphic" in2="effect1_dropShadow_1359_7630" result="shape"/>
</filter>
<clipPath id="clip0_1359_7630">
<rect width="220" height="24" fill="white"/>
</clipPath>
</defs>
</svg>
