<svg width="140" height="24" viewBox="0 0 140 24" fill="none" xmlns="http://www.w3.org/2000/svg">
<g clip-path="url(#clip0_1359_7612)">
<path d="M28.017 17H25.3807L29.3977 5.36364H32.5682L36.5795 17H33.9432L31.0284 8.02273H30.9375L28.017 17ZM27.8523 12.4261H34.0795V14.3466H27.8523V12.4261ZM37.9801 17V5.36364H40.4006V9.73864H40.4744C40.5805 9.50379 40.7339 9.26515 40.9347 9.02273C41.1392 8.77652 41.4044 8.57197 41.7301 8.40909C42.0597 8.24242 42.4688 8.15909 42.9574 8.15909C43.5938 8.15909 44.1809 8.32576 44.7188 8.65909C45.2566 8.98864 45.6866 9.48674 46.0085 10.1534C46.3305 10.8163 46.4915 11.6477 46.4915 12.6477C46.4915 13.6212 46.3343 14.4432 46.0199 15.1136C45.7093 15.7803 45.285 16.286 44.7472 16.6307C44.2131 16.9716 43.6146 17.142 42.9517 17.142C42.482 17.142 42.0824 17.0644 41.7528 16.9091C41.4271 16.7538 41.16 16.5587 40.9517 16.3239C40.7434 16.0852 40.5843 15.8447 40.4744 15.6023H40.3665V17H37.9801ZM40.3494 12.6364C40.3494 13.1553 40.4214 13.608 40.5653 13.9943C40.7093 14.3807 40.9176 14.6818 41.1903 14.8977C41.4631 15.1098 41.7945 15.2159 42.1847 15.2159C42.5786 15.2159 42.9119 15.108 43.1847 14.892C43.4574 14.6723 43.6638 14.3693 43.804 13.983C43.9479 13.5928 44.0199 13.1439 44.0199 12.6364C44.0199 12.1326 43.9498 11.6894 43.8097 11.3068C43.6695 10.9242 43.4631 10.625 43.1903 10.4091C42.9176 10.1932 42.5824 10.0852 42.1847 10.0852C41.7907 10.0852 41.4574 10.1894 41.1847 10.3977C40.9157 10.6061 40.7093 10.9015 40.5653 11.2841C40.4214 11.6667 40.3494 12.1174 40.3494 12.6364ZM52.0497 17.1705C51.1671 17.1705 50.4039 16.983 49.7599 16.608C49.1198 16.2292 48.6255 15.7027 48.277 15.0284C47.9285 14.3504 47.7543 13.5644 47.7543 12.6705C47.7543 11.7689 47.9285 10.9811 48.277 10.3068C48.6255 9.62879 49.1198 9.10227 49.7599 8.72727C50.4039 8.34848 51.1671 8.15909 52.0497 8.15909C52.9323 8.15909 53.6937 8.34848 54.3338 8.72727C54.9777 9.10227 55.474 9.62879 55.8224 10.3068C56.1709 10.9811 56.3452 11.7689 56.3452 12.6705C56.3452 13.5644 56.1709 14.3504 55.8224 15.0284C55.474 15.7027 54.9777 16.2292 54.3338 16.608C53.6937 16.983 52.9323 17.1705 52.0497 17.1705ZM52.0611 15.2955C52.4626 15.2955 52.7978 15.1818 53.0668 14.9545C53.3357 14.7235 53.5384 14.4091 53.6747 14.0114C53.8149 13.6136 53.8849 13.161 53.8849 12.6534C53.8849 12.1458 53.8149 11.6932 53.6747 11.2955C53.5384 10.8977 53.3357 10.5833 53.0668 10.3523C52.7978 10.1212 52.4626 10.0057 52.0611 10.0057C51.6558 10.0057 51.3149 10.1212 51.0384 10.3523C50.7656 10.5833 50.5592 10.8977 50.419 11.2955C50.2827 11.6932 50.2145 12.1458 50.2145 12.6534C50.2145 13.161 50.2827 13.6136 50.419 14.0114C50.5592 14.4091 50.7656 14.7235 51.0384 14.9545C51.3149 15.1818 51.6558 15.2955 52.0611 15.2955ZM63.5156 13.2841V8.27273H65.9361V17H63.6122V15.4148H63.5213C63.3243 15.9261 62.9967 16.3371 62.5384 16.6477C62.0838 16.9583 61.5289 17.1136 60.8736 17.1136C60.2902 17.1136 59.777 16.9811 59.3338 16.7159C58.8906 16.4508 58.544 16.0739 58.294 15.5852C58.0478 15.0966 57.9228 14.5114 57.919 13.8295V8.27273H60.3395V13.3977C60.3433 13.9129 60.4815 14.3201 60.7543 14.6193C61.027 14.9186 61.3925 15.0682 61.8509 15.0682C62.1425 15.0682 62.4152 15.0019 62.669 14.8693C62.9228 14.733 63.1274 14.5322 63.2827 14.267C63.4418 14.0019 63.5194 13.6742 63.5156 13.2841ZM72.5142 8.27273V10.0909H67.2585V8.27273H72.5142ZM68.4517 6.18182H70.8722V14.3182C70.8722 14.5417 70.9063 14.7159 70.9744 14.8409C71.0426 14.9621 71.1373 15.0473 71.2585 15.0966C71.3835 15.1458 71.5275 15.1705 71.6903 15.1705C71.804 15.1705 71.9176 15.161 72.0312 15.142C72.1449 15.1193 72.232 15.1023 72.2926 15.0909L72.6733 16.892C72.5521 16.9299 72.3816 16.9735 72.1619 17.0227C71.9422 17.0758 71.6752 17.108 71.3608 17.1193C70.7775 17.142 70.2661 17.0644 69.8267 16.8864C69.3911 16.7083 69.0521 16.4318 68.8097 16.0568C68.5672 15.6818 68.4479 15.2083 68.4517 14.6364V6.18182ZM81.7372 17.1705C80.8433 17.1705 80.0743 16.9811 79.4304 16.6023C78.7902 16.2197 78.2978 15.6894 77.9531 15.0114C77.6122 14.3333 77.4418 13.553 77.4418 12.6705C77.4418 11.7765 77.6141 10.9924 77.9588 10.3182C78.3073 9.64015 78.8016 9.11174 79.4418 8.73295C80.0819 8.35038 80.8433 8.15909 81.7259 8.15909C82.4872 8.15909 83.1539 8.29735 83.7259 8.57386C84.2978 8.85038 84.7505 9.23864 85.0838 9.73864C85.4171 10.2386 85.6009 10.8258 85.6349 11.5H83.3509C83.2865 11.0644 83.116 10.714 82.8395 10.4489C82.5668 10.1799 82.2088 10.0455 81.7656 10.0455C81.3906 10.0455 81.063 10.1477 80.7827 10.3523C80.5062 10.553 80.2902 10.8466 80.1349 11.233C79.9796 11.6193 79.902 12.0871 79.902 12.6364C79.902 13.1932 79.9777 13.6667 80.1293 14.0568C80.2846 14.447 80.5024 14.7443 80.7827 14.9489C81.063 15.1534 81.3906 15.2557 81.7656 15.2557C82.0421 15.2557 82.2902 15.1989 82.5099 15.0852C82.7334 14.9716 82.9171 14.8068 83.0611 14.5909C83.2088 14.3712 83.3054 14.108 83.3509 13.8011H85.6349C85.5971 14.4678 85.4152 15.0549 85.0895 15.5625C84.7675 16.0663 84.3224 16.4602 83.7543 16.7443C83.1861 17.0284 82.5137 17.1705 81.7372 17.1705ZM91.1278 17.1705C90.2453 17.1705 89.482 16.983 88.8381 16.608C88.1979 16.2292 87.7036 15.7027 87.3551 15.0284C87.0066 14.3504 86.8324 13.5644 86.8324 12.6705C86.8324 11.7689 87.0066 10.9811 87.3551 10.3068C87.7036 9.62879 88.1979 9.10227 88.8381 8.72727C89.482 8.34848 90.2453 8.15909 91.1278 8.15909C92.0104 8.15909 92.7718 8.34848 93.4119 8.72727C94.0559 9.10227 94.5521 9.62879 94.9006 10.3068C95.2491 10.9811 95.4233 11.7689 95.4233 12.6705C95.4233 13.5644 95.2491 14.3504 94.9006 15.0284C94.5521 15.7027 94.0559 16.2292 93.4119 16.608C92.7718 16.983 92.0104 17.1705 91.1278 17.1705ZM91.1392 15.2955C91.5407 15.2955 91.8759 15.1818 92.1449 14.9545C92.4138 14.7235 92.6165 14.4091 92.7528 14.0114C92.893 13.6136 92.9631 13.161 92.9631 12.6534C92.9631 12.1458 92.893 11.6932 92.7528 11.2955C92.6165 10.8977 92.4138 10.5833 92.1449 10.3523C91.8759 10.1212 91.5407 10.0057 91.1392 10.0057C90.7339 10.0057 90.393 10.1212 90.1165 10.3523C89.8438 10.5833 89.6373 10.8977 89.4972 11.2955C89.3608 11.6932 89.2926 12.1458 89.2926 12.6534C89.2926 13.161 89.3608 13.6136 89.4972 14.0114C89.6373 14.4091 89.8438 14.7235 90.1165 14.9545C90.393 15.1818 90.7339 15.2955 91.1392 15.2955ZM102.594 13.2841V8.27273H105.014V17H102.69V15.4148H102.599C102.402 15.9261 102.075 16.3371 101.616 16.6477C101.162 16.9583 100.607 17.1136 99.9517 17.1136C99.3684 17.1136 98.8551 16.9811 98.4119 16.7159C97.9688 16.4508 97.6222 16.0739 97.3722 15.5852C97.1259 15.0966 97.0009 14.5114 96.9972 13.8295V8.27273H99.4176V13.3977C99.4214 13.9129 99.5597 14.3201 99.8324 14.6193C100.105 14.9186 100.471 15.0682 100.929 15.0682C101.221 15.0682 101.493 15.0019 101.747 14.8693C102.001 14.733 102.205 14.5322 102.361 14.267C102.52 14.0019 102.598 13.6742 102.594 13.2841ZM106.95 17V8.27273H109.297V9.79545H109.388C109.547 9.25379 109.814 8.8447 110.189 8.56818C110.564 8.28788 110.996 8.14773 111.484 8.14773C111.606 8.14773 111.736 8.1553 111.876 8.17045C112.017 8.18561 112.14 8.20644 112.246 8.23295V10.3807C112.132 10.3466 111.975 10.3163 111.774 10.2898C111.573 10.2633 111.39 10.25 111.223 10.25C110.867 10.25 110.549 10.3277 110.268 10.483C109.992 10.6345 109.772 10.8466 109.609 11.1193C109.45 11.392 109.371 11.7064 109.371 12.0625V17H106.95ZM120.759 10.7614L118.543 10.8977C118.505 10.7083 118.423 10.5379 118.298 10.3864C118.173 10.2311 118.009 10.108 117.804 10.017C117.603 9.92235 117.363 9.875 117.082 9.875C116.707 9.875 116.391 9.95455 116.134 10.1136C115.876 10.2689 115.747 10.4773 115.747 10.7386C115.747 10.947 115.83 11.1231 115.997 11.267C116.164 11.411 116.45 11.5265 116.855 11.6136L118.435 11.9318C119.283 12.1061 119.916 12.3864 120.332 12.7727C120.749 13.1591 120.957 13.6667 120.957 14.2955C120.957 14.8674 120.789 15.3693 120.452 15.8011C120.118 16.233 119.66 16.5701 119.077 16.8125C118.497 17.0511 117.829 17.1705 117.071 17.1705C115.916 17.1705 114.995 16.9299 114.31 16.4489C113.628 15.964 113.228 15.3049 113.111 14.4716L115.491 14.3466C115.563 14.6989 115.738 14.9678 116.014 15.1534C116.291 15.3352 116.645 15.4261 117.077 15.4261C117.501 15.4261 117.842 15.3447 118.099 15.1818C118.361 15.0152 118.493 14.8011 118.497 14.5398C118.493 14.3201 118.401 14.1402 118.219 14C118.037 13.8561 117.757 13.7462 117.378 13.6705L115.866 13.3693C115.014 13.1989 114.38 12.9034 113.963 12.483C113.55 12.0625 113.344 11.5265 113.344 10.875C113.344 10.3144 113.495 9.83144 113.798 9.42614C114.105 9.02083 114.535 8.70833 115.088 8.48864C115.645 8.26894 116.296 8.15909 117.043 8.15909C118.145 8.15909 119.012 8.39205 119.645 8.85795C120.281 9.32386 120.652 9.95833 120.759 10.7614ZM126.459 17.1705C125.561 17.1705 124.788 16.9886 124.141 16.625C123.497 16.2576 123 15.7386 122.652 15.0682C122.304 14.3939 122.129 13.5966 122.129 12.6761C122.129 11.7784 122.304 10.9905 122.652 10.3125C123 9.63447 123.491 9.10606 124.124 8.72727C124.76 8.34848 125.506 8.15909 126.362 8.15909C126.938 8.15909 127.474 8.25189 127.97 8.4375C128.47 8.61932 128.906 8.89394 129.277 9.26136C129.652 9.62879 129.944 10.0909 130.152 10.6477C130.36 11.2008 130.464 11.8485 130.464 12.5909V13.2557H123.095V11.7557H128.186C128.186 11.4072 128.11 11.0985 127.959 10.8295C127.807 10.5606 127.597 10.3504 127.328 10.1989C127.063 10.0436 126.754 9.96591 126.402 9.96591C126.035 9.96591 125.709 10.0511 125.425 10.2216C125.144 10.3883 124.925 10.6136 124.766 10.8977C124.607 11.178 124.525 11.4905 124.521 11.8352V13.2614C124.521 13.6932 124.601 14.0663 124.76 14.3807C124.923 14.6951 125.152 14.9375 125.447 15.108C125.743 15.2784 126.093 15.3636 126.499 15.3636C126.768 15.3636 127.014 15.3258 127.237 15.25C127.461 15.1742 127.652 15.0606 127.811 14.9091C127.97 14.7576 128.091 14.572 128.175 14.3523L130.413 14.5C130.3 15.0379 130.067 15.5076 129.714 15.9091C129.366 16.3068 128.915 16.6174 128.362 16.8409C127.813 17.0606 127.179 17.1705 126.459 17.1705ZM139.305 10.7614L137.089 10.8977C137.052 10.7083 136.97 10.5379 136.845 10.3864C136.72 10.2311 136.555 10.108 136.351 10.017C136.15 9.92235 135.91 9.875 135.629 9.875C135.254 9.875 134.938 9.95455 134.68 10.1136C134.423 10.2689 134.294 10.4773 134.294 10.7386C134.294 10.947 134.377 11.1231 134.544 11.267C134.711 11.411 134.997 11.5265 135.402 11.6136L136.982 11.9318C137.83 12.1061 138.463 12.3864 138.879 12.7727C139.296 13.1591 139.504 13.6667 139.504 14.2955C139.504 14.8674 139.336 15.3693 138.999 15.8011C138.665 16.233 138.207 16.5701 137.624 16.8125C137.044 17.0511 136.375 17.1705 135.618 17.1705C134.463 17.1705 133.542 16.9299 132.857 16.4489C132.175 15.964 131.775 15.3049 131.658 14.4716L134.038 14.3466C134.11 14.6989 134.285 14.9678 134.561 15.1534C134.838 15.3352 135.192 15.4261 135.624 15.4261C136.048 15.4261 136.389 15.3447 136.646 15.1818C136.908 15.0152 137.04 14.8011 137.044 14.5398C137.04 14.3201 136.947 14.1402 136.766 14C136.584 13.8561 136.304 13.7462 135.925 13.6705L134.413 13.3693C133.561 13.1989 132.927 12.9034 132.51 12.483C132.097 12.0625 131.891 11.5265 131.891 10.875C131.891 10.3144 132.042 9.83144 132.345 9.42614C132.652 9.02083 133.082 8.70833 133.635 8.48864C134.192 8.26894 134.843 8.15909 135.589 8.15909C136.692 8.15909 137.559 8.39205 138.192 8.85795C138.828 9.32386 139.199 9.95833 139.305 10.7614Z" fill="#5955B3"/>
<g filter="url(#filter0_d_1359_7612)">
<path d="M8.40009 16.9412L2.96001 10.5529L8.40009 4.23528" stroke="#6663CF" stroke-width="2" stroke-miterlimit="10" stroke-linecap="round" stroke-linejoin="round"/>
<path d="M8.40009 16.9412L2.96001 10.5529L8.40009 4.23528" stroke="#6663CF" stroke-width="2" stroke-miterlimit="10" stroke-linecap="round" stroke-linejoin="round"/>
<path d="M23.12 10.5529H13.6653L4.4 10.5529" stroke="#6663CF" stroke-width="2" stroke-miterlimit="10" stroke-linecap="round" stroke-linejoin="round"/>
<path d="M23.12 10.5529H13.6653L4.4 10.5529" stroke="#6663CF" stroke-width="2" stroke-miterlimit="10" stroke-linecap="round" stroke-linejoin="round"/>
</g>
</g>
<defs>
<filter id="filter0_d_1359_7612" x="-2.03999" y="3.23526" width="30.16" height="22.7059" filterUnits="userSpaceOnUse" color-interpolation-filters="sRGB">
<feFlood flood-opacity="0" result="BackgroundImageFix"/>
<feColorMatrix in="SourceAlpha" type="matrix" values="0 0 0 0 0 0 0 0 0 0 0 0 0 0 0 0 0 0 127 0" result="hardAlpha"/>
<feOffset dy="4"/>
<feGaussianBlur stdDeviation="2"/>
<feComposite in2="hardAlpha" operator="out"/>
<feColorMatrix type="matrix" values="0 0 0 0 0 0 0 0 0 0 0 0 0 0 0 0 0 0 0.25 0"/>
<feBlend mode="normal" in2="BackgroundImageFix" result="effect1_dropShadow_1359_7612"/>
<feBlend mode="normal" in="SourceGraphic" in2="effect1_dropShadow_1359_7612" result="shape"/>
</filter>
<clipPath id="clip0_1359_7612">
<rect width="140" height="24" fill="white"/>
</clipPath>
</defs>
</svg>
