<svg width="325" height="290" viewBox="0 0 325 290" fill="none" xmlns="http://www.w3.org/2000/svg">
<rect width="325" height="290" rx="5" fill="white"/>
<path d="M32.3394 133V131.409L37.2613 126.31C37.7869 125.756 38.2201 125.27 38.561 124.854C38.9067 124.432 39.1647 124.032 39.3352 123.653C39.5056 123.275 39.5909 122.872 39.5909 122.446C39.5909 121.963 39.4772 121.546 39.2499 121.196C39.0227 120.841 38.7125 120.569 38.3196 120.379C37.9266 120.185 37.4838 120.088 36.9914 120.088C36.4706 120.088 36.016 120.195 35.6278 120.408C35.2395 120.621 34.9412 120.921 34.7329 121.31C34.5246 121.698 34.4204 122.152 34.4204 122.673H32.3252C32.3252 121.788 32.5288 121.014 32.936 120.351C33.3432 119.688 33.9019 119.174 34.6122 118.81C35.3224 118.44 36.1297 118.256 37.034 118.256C37.9479 118.256 38.7528 118.438 39.4488 118.803C40.1496 119.162 40.6964 119.655 41.0894 120.28C41.4824 120.9 41.6789 121.601 41.6789 122.382C41.6789 122.922 41.5771 123.45 41.3735 123.966C41.1747 124.482 40.8267 125.057 40.3295 125.692C39.8323 126.321 39.141 127.086 38.2556 127.986L35.365 131.011V131.118H41.9133V133H32.3394ZM46.5173 133.135C46.1291 133.135 45.7953 132.998 45.5159 132.723C45.2366 132.444 45.0969 132.107 45.0969 131.714C45.0969 131.326 45.2366 130.995 45.5159 130.72C45.7953 130.441 46.1291 130.301 46.5173 130.301C46.9056 130.301 47.2394 130.441 47.5188 130.72C47.7981 130.995 47.9378 131.326 47.9378 131.714C47.9378 131.975 47.8715 132.214 47.7389 132.432C47.6111 132.645 47.4406 132.815 47.2276 132.943C47.0145 133.071 46.7778 133.135 46.5173 133.135ZM57.598 133V118.455H66.7173V120.344H59.7926V124.776H66.2415V126.658H59.7926V131.111H66.8026V133H57.598ZM71.6019 126.523V133H69.4783V122.091H71.5167V123.866H71.6516C71.9026 123.289 72.2956 122.825 72.8306 122.474C73.3704 122.124 74.0498 121.949 74.869 121.949C75.6123 121.949 76.2634 122.105 76.8221 122.418C77.3808 122.725 77.814 123.185 78.1218 123.795C78.4296 124.406 78.5835 125.161 78.5835 126.061V133H76.4599V126.317C76.4599 125.526 76.2539 124.908 75.842 124.463C75.43 124.013 74.8642 123.788 74.1445 123.788C73.6521 123.788 73.2141 123.895 72.8306 124.108C72.4518 124.321 72.1512 124.634 71.9286 125.045C71.7108 125.453 71.6019 125.945 71.6019 126.523ZM86.5238 122.091V123.795H80.565V122.091H86.5238ZM82.163 119.477H84.2866V129.797C84.2866 130.209 84.3481 130.519 84.4712 130.727C84.5943 130.931 84.753 131.071 84.9471 131.146C85.146 131.217 85.3614 131.253 85.5934 131.253C85.7638 131.253 85.913 131.241 86.0408 131.217C86.1687 131.194 86.2681 131.175 86.3391 131.161L86.7227 132.915C86.5996 132.962 86.4244 133.009 86.1971 133.057C85.9698 133.109 85.6857 133.137 85.3448 133.142C84.7861 133.152 84.2653 133.052 83.7823 132.844C83.2994 132.635 82.9087 132.313 82.6104 131.878C82.3121 131.442 82.163 130.895 82.163 130.237V119.477ZM93.4574 133.22C92.3826 133.22 91.4569 132.991 90.6804 132.531C89.9086 132.067 89.312 131.416 88.8906 130.578C88.474 129.735 88.2656 128.748 88.2656 127.616C88.2656 126.499 88.474 125.514 88.8906 124.662C89.312 123.81 89.8991 123.144 90.652 122.666C91.4096 122.188 92.295 121.949 93.3082 121.949C93.9238 121.949 94.5204 122.051 95.098 122.254C95.6757 122.458 96.1941 122.777 96.6534 123.213C97.1127 123.649 97.4749 124.214 97.7401 124.911C98.0052 125.602 98.1378 126.442 98.1378 127.432V128.185H89.4659V126.594H96.0568C96.0568 126.035 95.9432 125.54 95.7159 125.109C95.4886 124.674 95.169 124.33 94.7571 124.08C94.3499 123.829 93.8717 123.703 93.3224 123.703C92.7259 123.703 92.205 123.85 91.7599 124.143C91.3196 124.432 90.9787 124.811 90.7372 125.28C90.5005 125.744 90.3821 126.248 90.3821 126.793V128.036C90.3821 128.765 90.5099 129.385 90.7656 129.896C91.026 130.408 91.3883 130.798 91.8523 131.068C92.3163 131.333 92.8584 131.466 93.4787 131.466C93.8812 131.466 94.2481 131.409 94.5795 131.295C94.911 131.177 95.1974 131.002 95.4389 130.77C95.6804 130.538 95.8651 130.251 95.9929 129.911L98.0028 130.273C97.8419 130.865 97.553 131.383 97.1364 131.828C96.7244 132.268 96.206 132.612 95.581 132.858C94.9607 133.099 94.2528 133.22 93.4574 133.22ZM100.494 133V122.091H102.547V123.824H102.66C102.859 123.237 103.209 122.775 103.711 122.439C104.218 122.098 104.791 121.928 105.43 121.928C105.563 121.928 105.719 121.932 105.899 121.942C106.083 121.951 106.228 121.963 106.332 121.977V124.009C106.247 123.985 106.095 123.959 105.877 123.93C105.66 123.897 105.442 123.881 105.224 123.881C104.722 123.881 104.275 123.987 103.882 124.2C103.493 124.409 103.186 124.7 102.958 125.074C102.731 125.443 102.618 125.865 102.618 126.338V133H100.494Z" fill="#2D3342"/>
<path opacity="0.2" fill-rule="evenodd" clip-rule="evenodd" d="M324.665 269.81C324.613 280.783 315.724 289.668 304.75 289.713H171.145C177.237 275.753 202.684 247.832 255.738 247.832C308.791 247.832 323.794 226.116 324.665 215.258V269.81Z" fill="#89AFFF"/>
<path opacity="0.2" fill-rule="evenodd" clip-rule="evenodd" d="M149.339 0C147.452 10.5057 135.894 40.0486 88.2784 53.4492C42.0805 66.4509 11.6466 61.9796 0.329351 57.7773L0.329348 20C0.329347 8.95432 9.28362 1.09491e-05 20.3293 1.00855e-05L149.339 0Z" fill="#89AFFF"/>
<path d="M35.2013 44H31.2468L37.2724 26.5455H42.0281L48.0451 44H44.0906L39.7184 30.5341H39.582L35.2013 44ZM34.9542 37.1392H44.2951V40.0199H34.9542V37.1392ZM58.4727 38.4261V30.9091H62.1033V44H58.6175V41.6222H58.4812C58.1857 42.3892 57.6942 43.0057 57.0067 43.4716C56.3249 43.9375 55.4925 44.1705 54.5096 44.1705C53.6346 44.1705 52.8647 43.9716 52.1999 43.5739C51.5352 43.1761 51.0153 42.6108 50.6403 41.8778C50.271 41.1449 50.0835 40.267 50.0778 39.2443V30.9091H53.7085V38.5966C53.7141 39.3693 53.9215 39.9801 54.3306 40.429C54.7397 40.8778 55.288 41.1023 55.9755 41.1023C56.413 41.1023 56.8221 41.0028 57.2028 40.804C57.5835 40.5994 57.8903 40.2983 58.1232 39.9006C58.3619 39.5028 58.4783 39.0114 58.4727 38.4261ZM71.9705 30.9091V33.6364H64.087V30.9091H71.9705ZM65.8768 27.7727H69.5075V39.9773C69.5075 40.3125 69.5586 40.5739 69.6609 40.7614C69.7631 40.9432 69.9052 41.071 70.087 41.1449C70.2745 41.2187 70.4904 41.2557 70.7347 41.2557C70.9052 41.2557 71.0756 41.2415 71.2461 41.2131C71.4165 41.179 71.5472 41.1534 71.6381 41.1364L72.2092 43.8381C72.0273 43.8949 71.7717 43.9602 71.4421 44.0341C71.1126 44.1136 70.712 44.1619 70.2404 44.179C69.3654 44.2131 68.5984 44.0966 67.9393 43.8295C67.2859 43.5625 66.7773 43.1477 66.4137 42.5852C66.0501 42.0227 65.8711 41.3125 65.8768 40.4545V27.7727ZM78.2475 36.4318V44H74.6168V26.5455H78.1452V33.2188H78.2987C78.5941 32.446 79.0714 31.8409 79.7305 31.4034C80.3896 30.9602 81.2163 30.7386 82.2106 30.7386C83.1197 30.7386 83.9123 30.9375 84.5884 31.3352C85.2702 31.7273 85.7987 32.2926 86.1737 33.0312C86.5543 33.7642 86.7418 34.642 86.7362 35.6648V44H83.1055V36.3125C83.1112 35.5057 82.9066 34.8778 82.4918 34.429C82.0827 33.9801 81.5089 33.7557 80.7702 33.7557C80.2759 33.7557 79.8384 33.8608 79.4577 34.071C79.0827 34.2812 78.7873 34.5881 78.5714 34.9915C78.3612 35.3892 78.2532 35.8693 78.2475 36.4318ZM95.5082 44.2557C94.1843 44.2557 93.0394 43.9744 92.0735 43.4119C91.1133 42.8437 90.3718 42.054 89.8491 41.0426C89.3263 40.0256 89.065 38.8466 89.065 37.5057C89.065 36.1534 89.3263 34.9716 89.8491 33.9602C90.3718 32.9432 91.1133 32.1534 92.0735 31.5909C93.0394 31.0227 94.1843 30.7386 95.5082 30.7386C96.832 30.7386 97.9741 31.0227 98.9343 31.5909C99.9002 32.1534 100.645 32.9432 101.167 33.9602C101.69 34.9716 101.951 36.1534 101.951 37.5057C101.951 38.8466 101.69 40.0256 101.167 41.0426C100.645 42.054 99.9002 42.8437 98.9343 43.4119C97.9741 43.9744 96.832 44.2557 95.5082 44.2557ZM95.5252 41.4432C96.1275 41.4432 96.6303 41.2727 97.0337 40.9318C97.4371 40.5852 97.7411 40.1136 97.9457 39.517C98.1559 38.9205 98.261 38.2415 98.261 37.4801C98.261 36.7188 98.1559 36.0398 97.9457 35.4432C97.7411 34.8466 97.4371 34.375 97.0337 34.0284C96.6303 33.6818 96.1275 33.5085 95.5252 33.5085C94.9173 33.5085 94.4059 33.6818 93.9911 34.0284C93.582 34.375 93.2724 34.8466 93.0621 35.4432C92.8576 36.0398 92.7553 36.7188 92.7553 37.4801C92.7553 38.2415 92.8576 38.9205 93.0621 39.517C93.2724 40.1136 93.582 40.5852 93.9911 40.9318C94.4059 41.2727 94.9173 41.4432 95.5252 41.4432ZM104.312 44V30.9091H107.832V33.1932H107.968C108.207 32.3807 108.608 31.767 109.17 31.3523C109.733 30.9318 110.38 30.7216 111.113 30.7216C111.295 30.7216 111.491 30.733 111.701 30.7557C111.912 30.7784 112.096 30.8097 112.255 30.8494V34.071C112.085 34.0199 111.849 33.9744 111.548 33.9347C111.247 33.8949 110.971 33.875 110.721 33.875C110.187 33.875 109.71 33.9915 109.289 34.2244C108.875 34.4517 108.545 34.7699 108.301 35.179C108.062 35.5881 107.943 36.0597 107.943 36.5938V44H104.312ZM114.132 44V30.9091H117.763V44H114.132ZM115.956 29.2216C115.417 29.2216 114.953 29.0426 114.567 28.6847C114.186 28.321 113.996 27.8864 113.996 27.3807C113.996 26.8807 114.186 26.4517 114.567 26.0938C114.953 25.7301 115.417 25.5483 115.956 25.5483C116.496 25.5483 116.956 25.7301 117.337 26.0938C117.723 26.4517 117.917 26.8807 117.917 27.3807C117.917 27.8864 117.723 28.321 117.337 28.6847C116.956 29.0426 116.496 29.2216 115.956 29.2216ZM120.603 44V41.8352L127.012 33.9006V33.8068H120.825V30.9091H131.385V33.2699L125.368 41.0085V41.1023H131.606V44H120.603ZM138.115 44.2472C137.28 44.2472 136.536 44.1023 135.882 43.8125C135.229 43.517 134.712 43.0824 134.331 42.5085C133.956 41.929 133.769 41.2074 133.769 40.3438C133.769 39.6165 133.902 39.0057 134.169 38.5114C134.436 38.017 134.8 37.6193 135.26 37.3182C135.721 37.017 136.243 36.7898 136.828 36.6364C137.419 36.483 138.039 36.375 138.686 36.3125C139.448 36.233 140.061 36.1591 140.527 36.0909C140.993 36.017 141.331 35.9091 141.542 35.767C141.752 35.625 141.857 35.4148 141.857 35.1364V35.0852C141.857 34.5455 141.686 34.1278 141.346 33.8324C141.01 33.5369 140.533 33.3892 139.914 33.3892C139.26 33.3892 138.74 33.5341 138.354 33.8239C137.968 34.108 137.712 34.4659 137.587 34.8977L134.229 34.625C134.4 33.8295 134.735 33.142 135.235 32.5625C135.735 31.9773 136.38 31.5284 137.169 31.2159C137.965 30.8977 138.885 30.7386 139.931 30.7386C140.658 30.7386 141.354 30.8239 142.019 30.9943C142.689 31.1648 143.283 31.429 143.8 31.7869C144.323 32.1449 144.735 32.6051 145.036 33.1676C145.337 33.7244 145.488 34.392 145.488 35.1705V44H142.044V42.1847H141.942C141.732 42.5938 141.451 42.9545 141.098 43.267C140.746 43.5739 140.323 43.8153 139.828 43.9915C139.334 44.1619 138.763 44.2472 138.115 44.2472ZM139.155 41.7415C139.689 41.7415 140.161 41.6364 140.57 41.4261C140.979 41.2102 141.3 40.9205 141.533 40.5568C141.766 40.1932 141.882 39.7812 141.882 39.321V37.9318C141.769 38.0057 141.613 38.0739 141.414 38.1364C141.221 38.1932 141.002 38.2472 140.757 38.2983C140.513 38.3437 140.269 38.3864 140.025 38.4261C139.78 38.4602 139.559 38.4915 139.36 38.5199C138.934 38.5824 138.561 38.6818 138.243 38.8182C137.925 38.9545 137.678 39.1392 137.502 39.3722C137.326 39.5994 137.238 39.8835 137.238 40.2244C137.238 40.7188 137.417 41.0966 137.775 41.358C138.138 41.6136 138.598 41.7415 139.155 41.7415ZM155.267 30.9091V33.6364H147.384V30.9091H155.267ZM149.174 27.7727H152.804V39.9773C152.804 40.3125 152.855 40.5739 152.958 40.7614C153.06 40.9432 153.202 41.071 153.384 41.1449C153.571 41.2187 153.787 41.2557 154.032 41.2557C154.202 41.2557 154.373 41.2415 154.543 41.2131C154.713 41.179 154.844 41.1534 154.935 41.1364L155.506 43.8381C155.324 43.8949 155.069 43.9602 154.739 44.0341C154.409 44.1136 154.009 44.1619 153.537 44.179C152.662 44.2131 151.895 44.0966 151.236 43.8295C150.583 43.5625 150.074 43.1477 149.711 42.5852C149.347 42.0227 149.168 41.3125 149.174 40.4545V27.7727ZM157.632 44V30.9091H161.263V44H157.632ZM159.456 29.2216C158.917 29.2216 158.453 29.0426 158.067 28.6847C157.686 28.321 157.496 27.8864 157.496 27.3807C157.496 26.8807 157.686 26.4517 158.067 26.0938C158.453 25.7301 158.917 25.5483 159.456 25.5483C159.996 25.5483 160.456 25.7301 160.837 26.0938C161.223 26.4517 161.417 26.8807 161.417 27.3807C161.417 27.8864 161.223 28.321 160.837 28.6847C160.456 29.0426 159.996 29.2216 159.456 29.2216ZM170.086 44.2557C168.762 44.2557 167.618 43.9744 166.652 43.4119C165.691 42.8437 164.95 42.054 164.427 41.0426C163.904 40.0256 163.643 38.8466 163.643 37.5057C163.643 36.1534 163.904 34.9716 164.427 33.9602C164.95 32.9432 165.691 32.1534 166.652 31.5909C167.618 31.0227 168.762 30.7386 170.086 30.7386C171.41 30.7386 172.552 31.0227 173.512 31.5909C174.478 32.1534 175.223 32.9432 175.745 33.9602C176.268 34.9716 176.529 36.1534 176.529 37.5057C176.529 38.8466 176.268 40.0256 175.745 41.0426C175.223 42.054 174.478 42.8437 173.512 43.4119C172.552 43.9744 171.41 44.2557 170.086 44.2557ZM170.103 41.4432C170.706 41.4432 171.208 41.2727 171.612 40.9318C172.015 40.5852 172.319 40.1136 172.524 39.517C172.734 38.9205 172.839 38.2415 172.839 37.4801C172.839 36.7188 172.734 36.0398 172.524 35.4432C172.319 34.8466 172.015 34.375 171.612 34.0284C171.208 33.6818 170.706 33.5085 170.103 33.5085C169.495 33.5085 168.984 33.6818 168.569 34.0284C168.16 34.375 167.85 34.8466 167.64 35.4432C167.436 36.0398 167.333 36.7188 167.333 37.4801C167.333 38.2415 167.436 38.9205 167.64 39.517C167.85 40.1136 168.16 40.5852 168.569 40.9318C168.984 41.2727 169.495 41.4432 170.103 41.4432ZM182.521 36.4318V44H178.89V30.9091H182.35V33.2188H182.504C182.794 32.4574 183.279 31.8551 183.961 31.4119C184.643 30.9631 185.47 30.7386 186.441 30.7386C187.35 30.7386 188.143 30.9375 188.819 31.3352C189.495 31.733 190.021 32.3011 190.396 33.0398C190.771 33.7727 190.958 34.6477 190.958 35.6648V44H187.328V36.3125C187.333 35.5114 187.129 34.8864 186.714 34.4375C186.299 33.983 185.728 33.7557 185.001 33.7557C184.512 33.7557 184.081 33.8608 183.706 34.071C183.336 34.2812 183.047 34.5881 182.836 34.9915C182.632 35.3892 182.527 35.8693 182.521 36.4318ZM203.372 44L198.377 26.5455H202.409L205.298 38.6733H205.443L208.63 26.5455H212.082L215.261 38.6989H215.414L218.304 26.5455H222.335L217.341 44H213.744L210.42 32.5881H210.284L206.968 44H203.372ZM224.242 44V30.9091H227.873V44H224.242ZM226.066 29.2216C225.526 29.2216 225.063 29.0426 224.676 28.6847C224.296 28.321 224.105 27.8864 224.105 27.3807C224.105 26.8807 224.296 26.4517 224.676 26.0938C225.063 25.7301 225.526 25.5483 226.066 25.5483C226.605 25.5483 227.066 25.7301 227.446 26.0938C227.833 26.4517 228.026 26.8807 228.026 27.3807C228.026 27.8864 227.833 28.321 227.446 28.6847C227.066 29.0426 226.605 29.2216 226.066 29.2216ZM234.412 36.4318V44H230.781V30.9091H234.241V33.2188H234.395C234.684 32.4574 235.17 31.8551 235.852 31.4119C236.534 30.9631 237.36 30.7386 238.332 30.7386C239.241 30.7386 240.034 30.9375 240.71 31.3352C241.386 31.733 241.912 32.3011 242.287 33.0398C242.662 33.7727 242.849 34.6477 242.849 35.6648V44H239.218V36.3125C239.224 35.5114 239.02 34.8864 238.605 34.4375C238.19 33.983 237.619 33.7557 236.892 33.7557C236.403 33.7557 235.971 33.8608 235.596 34.071C235.227 34.2812 234.937 34.5881 234.727 34.9915C234.522 35.3892 234.417 35.8693 234.412 36.4318ZM250.534 44.2131C249.54 44.2131 248.64 43.9574 247.833 43.446C247.032 42.929 246.395 42.1705 245.924 41.1705C245.458 40.1648 245.225 38.9318 245.225 37.4716C245.225 35.9716 245.466 34.7244 245.949 33.7301C246.432 32.7301 247.074 31.983 247.875 31.4886C248.682 30.9886 249.566 30.7386 250.526 30.7386C251.259 30.7386 251.87 30.8636 252.358 31.1136C252.853 31.358 253.25 31.6648 253.551 32.0341C253.858 32.3977 254.091 32.7557 254.25 33.108H254.361V26.5455H257.983V44H254.404V41.9034H254.25C254.08 42.267 253.838 42.6278 253.526 42.9858C253.219 43.3381 252.819 43.6307 252.324 43.8636C251.836 44.0966 251.239 44.2131 250.534 44.2131ZM251.685 41.3239C252.27 41.3239 252.765 41.1648 253.168 40.8466C253.577 40.5227 253.89 40.071 254.105 39.4915C254.327 38.9119 254.438 38.233 254.438 37.4545C254.438 36.6761 254.33 36 254.114 35.4261C253.898 34.8523 253.586 34.4091 253.176 34.0966C252.767 33.7841 252.27 33.6278 251.685 33.6278C251.088 33.6278 250.586 33.7898 250.176 34.1136C249.767 34.4375 249.458 34.8864 249.248 35.4602C249.037 36.0341 248.932 36.6989 248.932 37.4545C248.932 38.2159 249.037 38.8892 249.248 39.4744C249.463 40.054 249.773 40.5085 250.176 40.8381C250.586 41.1619 251.088 41.3239 251.685 41.3239ZM266.883 44.2557C265.559 44.2557 264.414 43.9744 263.449 43.4119C262.488 42.8437 261.747 42.054 261.224 41.0426C260.701 40.0256 260.44 38.8466 260.44 37.5057C260.44 36.1534 260.701 34.9716 261.224 33.9602C261.747 32.9432 262.488 32.1534 263.449 31.5909C264.414 31.0227 265.559 30.7386 266.883 30.7386C268.207 30.7386 269.349 31.0227 270.309 31.5909C271.275 32.1534 272.02 32.9432 272.542 33.9602C273.065 34.9716 273.326 36.1534 273.326 37.5057C273.326 38.8466 273.065 40.0256 272.542 41.0426C272.02 42.054 271.275 42.8437 270.309 43.4119C269.349 43.9744 268.207 44.2557 266.883 44.2557ZM266.9 41.4432C267.502 41.4432 268.005 41.2727 268.409 40.9318C268.812 40.5852 269.116 40.1136 269.321 39.517C269.531 38.9205 269.636 38.2415 269.636 37.4801C269.636 36.7188 269.531 36.0398 269.321 35.4432C269.116 34.8466 268.812 34.375 268.409 34.0284C268.005 33.6818 267.502 33.5085 266.9 33.5085C266.292 33.5085 265.781 33.6818 265.366 34.0284C264.957 34.375 264.647 34.8466 264.437 35.4432C264.233 36.0398 264.13 36.7188 264.13 37.4801C264.13 38.2415 264.233 38.9205 264.437 39.517C264.647 40.1136 264.957 40.5852 265.366 40.9318C265.781 41.2727 266.292 41.4432 266.9 41.4432ZM277.941 44L274.379 30.9091H278.052L280.081 39.7045H280.2L282.314 30.9091H285.919L288.066 39.6534H288.177L290.172 30.9091H293.836L290.282 44H286.439L284.189 35.767H284.027L281.777 44H277.941Z" fill="url(#paint0_linear_1398_7263)"/>
<path d="M36.3068 73.4545V88H34.1051V75.6562H34.0198L30.5397 77.929V75.8267L34.169 73.4545H36.3068ZM43.5173 88.1349C43.1291 88.1349 42.7953 87.9976 42.5159 87.723C42.2366 87.4437 42.0969 87.1075 42.0969 86.7145C42.0969 86.3262 42.2366 85.9948 42.5159 85.7202C42.7953 85.4408 43.1291 85.3011 43.5173 85.3011C43.9056 85.3011 44.2394 85.4408 44.5188 85.7202C44.7981 85.9948 44.9378 86.3262 44.9378 86.7145C44.9378 86.9749 44.8715 87.214 44.7389 87.4318C44.6111 87.6449 44.4406 87.8153 44.2276 87.9432C44.0145 88.071 43.7778 88.1349 43.5173 88.1349ZM66.679 78.1847H64.4631C64.3778 77.7112 64.2192 77.2945 63.9872 76.9347C63.7552 76.5748 63.4711 76.2694 63.1349 76.0185C62.7988 75.7675 62.4223 75.5781 62.0057 75.4503C61.5938 75.3224 61.1558 75.2585 60.6918 75.2585C59.8537 75.2585 59.1032 75.4692 58.4403 75.8906C57.7822 76.312 57.2614 76.9299 56.8778 77.7443C56.4991 78.5587 56.3097 79.553 56.3097 80.7273C56.3097 81.911 56.4991 82.91 56.8778 83.7244C57.2614 84.5388 57.7846 85.1544 58.4474 85.571C59.1103 85.9877 59.8561 86.196 60.6847 86.196C61.1439 86.196 61.5795 86.1345 61.9915 86.0114C62.4081 85.8835 62.7846 85.6965 63.1207 85.4503C63.4569 85.2041 63.741 84.9034 63.973 84.5483C64.2098 84.1884 64.3731 83.7765 64.4631 83.3125L66.679 83.3196C66.5606 84.0346 66.331 84.6927 65.9901 85.294C65.6539 85.8906 65.2206 86.4067 64.6903 86.8423C64.1648 87.2732 63.5634 87.607 62.8864 87.8438C62.2093 88.0805 61.4706 88.1989 60.6705 88.1989C59.411 88.1989 58.2888 87.9006 57.304 87.304C56.3191 86.7027 55.5426 85.8433 54.9744 84.7259C54.411 83.6084 54.1293 82.2756 54.1293 80.7273C54.1293 79.1742 54.4134 77.8414 54.9815 76.7287C55.5497 75.6113 56.3262 74.7543 57.3111 74.1577C58.2959 73.5563 59.4157 73.2557 60.6705 73.2557C61.4422 73.2557 62.1619 73.367 62.8295 73.5895C63.5019 73.8073 64.1056 74.1293 64.6406 74.5554C65.1757 74.9768 65.6184 75.4929 65.9688 76.1037C66.3191 76.7098 66.5559 77.4034 66.679 78.1847ZM71.2582 73.4545V88H69.1346V73.4545H71.2582ZM74.1151 88V77.0909H76.2386V88H74.1151ZM75.1875 75.4077C74.8182 75.4077 74.5009 75.2846 74.2358 75.0384C73.9754 74.7874 73.8452 74.4891 73.8452 74.1435C73.8452 73.7931 73.9754 73.4948 74.2358 73.2486C74.5009 72.9976 74.8182 72.8722 75.1875 72.8722C75.5568 72.8722 75.8717 72.9976 76.1321 73.2486C76.3973 73.4948 76.5298 73.7931 76.5298 74.1435C76.5298 74.4891 76.3973 74.7874 76.1321 75.0384C75.8717 75.2846 75.5568 75.4077 75.1875 75.4077ZM83.6907 88.2202C82.6348 88.2202 81.7257 87.9811 80.9634 87.5028C80.2058 87.0199 79.6235 86.3546 79.2163 85.5071C78.8091 84.6596 78.6055 83.6889 78.6055 82.5952C78.6055 81.4872 78.8138 80.5095 79.2305 79.6619C79.6471 78.8097 80.2343 78.1444 80.9918 77.6662C81.7494 77.188 82.6419 76.9489 83.6694 76.9489C84.498 76.9489 85.2366 77.1027 85.8853 77.4105C86.534 77.7135 87.0572 78.1397 87.4549 78.6889C87.8574 79.2382 88.0965 79.8797 88.1722 80.6136H86.1055C85.9918 80.1023 85.7314 79.6619 85.3242 79.2926C84.9218 78.9233 84.382 78.7386 83.7049 78.7386C83.113 78.7386 82.5946 78.8949 82.1495 79.2074C81.7092 79.5152 81.3659 79.9555 81.1197 80.5284C80.8735 81.0966 80.7504 81.7689 80.7504 82.5455C80.7504 83.3409 80.8711 84.0275 81.1126 84.6051C81.354 85.1828 81.695 85.6302 82.1353 85.9474C82.5804 86.2647 83.1036 86.4233 83.7049 86.4233C84.1074 86.4233 84.4719 86.3499 84.7987 86.2031C85.1301 86.0516 85.4071 85.8362 85.6296 85.5568C85.8569 85.2775 86.0155 84.9413 86.1055 84.5483H88.1722C88.0965 85.2538 87.8668 85.8835 87.4833 86.4375C87.0998 86.9915 86.5861 87.4271 85.9421 87.7443C85.3029 88.0616 84.5524 88.2202 83.6907 88.2202ZM92.3963 84.2997L92.3821 81.7074H92.7514L97.098 77.0909H99.6406L94.6832 82.3466H94.3494L92.3963 84.2997ZM90.4432 88V73.4545H92.5668V88H90.4432ZM97.3324 88L93.4261 82.8153L94.8892 81.331L99.9389 88H97.3324ZM111.961 77.0909V78.7955H106.002V77.0909H111.961ZM107.6 74.4773H109.724V84.7969C109.724 85.2088 109.786 85.5189 109.909 85.7273C110.032 85.9309 110.19 86.0705 110.385 86.1463C110.583 86.2173 110.799 86.2528 111.031 86.2528C111.201 86.2528 111.35 86.241 111.478 86.2173C111.606 86.1937 111.706 86.1747 111.777 86.1605L112.16 87.9148C112.037 87.9621 111.862 88.0095 111.635 88.0568C111.407 88.1089 111.123 88.1373 110.782 88.142C110.224 88.1515 109.703 88.0521 109.22 87.8438C108.737 87.6354 108.346 87.3134 108.048 86.8778C107.75 86.4422 107.6 85.8954 107.6 85.2372V74.4773ZM116.668 81.5227V88H114.545V73.4545H116.64V78.8665H116.775C117.031 78.2794 117.421 77.813 117.947 77.4673C118.472 77.1217 119.159 76.9489 120.006 76.9489C120.754 76.9489 121.408 77.1027 121.967 77.4105C122.53 77.7183 122.966 78.1776 123.273 78.7884C123.586 79.3944 123.742 80.152 123.742 81.0611V88H121.619V81.3168C121.619 80.5166 121.413 79.8963 121.001 79.456C120.589 79.0109 120.016 78.7884 119.282 78.7884C118.78 78.7884 118.33 78.8949 117.933 79.108C117.54 79.321 117.229 79.6335 117.002 80.0455C116.78 80.4527 116.668 80.9451 116.668 81.5227ZM131.278 88.2202C130.203 88.2202 129.277 87.9905 128.501 87.5312C127.729 87.0672 127.132 86.4162 126.711 85.5781C126.294 84.7353 126.086 83.7481 126.086 82.6165C126.086 81.4991 126.294 80.5142 126.711 79.6619C127.132 78.8097 127.719 78.1444 128.472 77.6662C129.23 77.188 130.115 76.9489 131.129 76.9489C131.744 76.9489 132.341 77.0507 132.918 77.2543C133.496 77.4579 134.014 77.7775 134.474 78.2131C134.933 78.6487 135.295 79.2145 135.56 79.9105C135.826 80.6018 135.958 81.4422 135.958 82.4318V83.1847H127.286V81.5938H133.877C133.877 81.035 133.763 80.5402 133.536 80.1094C133.309 79.6738 132.989 79.3305 132.577 79.0795C132.17 78.8286 131.692 78.7031 131.143 78.7031C130.546 78.7031 130.025 78.8499 129.58 79.1435C129.14 79.4323 128.799 79.8111 128.558 80.2798C128.321 80.7438 128.202 81.2481 128.202 81.7926V83.0355C128.202 83.7647 128.33 84.3849 128.586 84.8963C128.846 85.4077 129.209 85.7983 129.673 86.0682C130.137 86.3333 130.679 86.4659 131.299 86.4659C131.701 86.4659 132.068 86.4091 132.4 86.2955C132.731 86.1771 133.018 86.0019 133.259 85.7699C133.501 85.5379 133.685 85.2514 133.813 84.9105L135.823 85.2727C135.662 85.8646 135.373 86.383 134.957 86.8281C134.545 87.2685 134.026 87.6117 133.401 87.858C132.781 88.0994 132.073 88.2202 131.278 88.2202ZM151.711 77.2756C151.635 76.6032 151.323 76.0824 150.773 75.7131C150.224 75.339 149.533 75.152 148.7 75.152C148.103 75.152 147.587 75.2467 147.151 75.4361C146.716 75.6207 146.377 75.8764 146.136 76.2031C145.899 76.5251 145.781 76.892 145.781 77.304C145.781 77.6496 145.861 77.9479 146.022 78.1989C146.188 78.4498 146.403 78.6605 146.668 78.831C146.938 78.9967 147.227 79.1364 147.535 79.25C147.843 79.3589 148.138 79.4489 148.423 79.5199L149.843 79.8892C150.307 80.0028 150.783 80.1567 151.271 80.3509C151.758 80.545 152.21 80.8007 152.627 81.1179C153.044 81.4351 153.38 81.8281 153.636 82.2969C153.896 82.7656 154.026 83.3267 154.026 83.9801C154.026 84.804 153.813 85.5355 153.387 86.1747C152.966 86.8139 152.353 87.3182 151.548 87.6875C150.747 88.0568 149.779 88.2415 148.643 88.2415C147.554 88.2415 146.612 88.0687 145.816 87.723C145.021 87.3774 144.398 86.8873 143.948 86.2528C143.498 85.6136 143.25 84.8561 143.202 83.9801H145.404C145.447 84.5057 145.617 84.9437 145.915 85.294C146.219 85.6397 146.604 85.8977 147.073 86.0682C147.547 86.2339 148.065 86.3168 148.629 86.3168C149.249 86.3168 149.8 86.2197 150.283 86.0256C150.771 85.8267 151.155 85.5521 151.434 85.2017C151.713 84.8466 151.853 84.4323 151.853 83.9588C151.853 83.5279 151.73 83.1752 151.484 82.9006C151.242 82.6259 150.913 82.3987 150.496 82.2188C150.085 82.0388 149.618 81.8802 149.097 81.7429L147.379 81.2741C146.214 80.9569 145.29 80.4905 144.609 79.875C143.932 79.2595 143.593 78.4451 143.593 77.4318C143.593 76.5937 143.82 75.8622 144.275 75.2372C144.729 74.6122 145.345 74.1269 146.121 73.7812C146.898 73.4309 147.774 73.2557 148.749 73.2557C149.734 73.2557 150.603 73.4285 151.356 73.7741C152.113 74.1198 152.71 74.5956 153.146 75.2017C153.581 75.803 153.808 76.4943 153.827 77.2756H151.711ZM156.478 88V77.0909H158.602V88H156.478ZM157.551 75.4077C157.181 75.4077 156.864 75.2846 156.599 75.0384C156.339 74.7874 156.208 74.4891 156.208 74.1435C156.208 73.7931 156.339 73.4948 156.599 73.2486C156.864 72.9976 157.181 72.8722 157.551 72.8722C157.92 72.8722 158.235 72.9976 158.495 73.2486C158.761 73.4948 158.893 73.7931 158.893 74.1435C158.893 74.4891 158.761 74.7874 158.495 75.0384C158.235 75.2846 157.92 75.4077 157.551 75.4077ZM166.033 92.3182C165.166 92.3182 164.42 92.2045 163.795 91.9773C163.175 91.75 162.669 91.4493 162.276 91.0753C161.883 90.7012 161.589 90.2917 161.395 89.8466L163.22 89.0938C163.348 89.3021 163.518 89.5223 163.732 89.7543C163.949 89.991 164.243 90.1922 164.612 90.358C164.986 90.5237 165.467 90.6065 166.054 90.6065C166.859 90.6065 167.524 90.41 168.05 90.017C168.575 89.6288 168.838 89.0085 168.838 88.1562V86.0114H168.703C168.575 86.2434 168.391 86.5014 168.149 86.7855C167.912 87.0696 167.586 87.3158 167.169 87.5241C166.752 87.7325 166.21 87.8366 165.543 87.8366C164.681 87.8366 163.904 87.6354 163.213 87.233C162.527 86.8258 161.982 86.2268 161.58 85.4361C161.182 84.6406 160.983 83.6629 160.983 82.5028C160.983 81.3428 161.179 80.3485 161.572 79.5199C161.97 78.6913 162.515 78.0568 163.206 77.6165C163.897 77.1714 164.681 76.9489 165.557 76.9489C166.234 76.9489 166.781 77.0625 167.197 77.2898C167.614 77.5123 167.938 77.7727 168.17 78.071C168.407 78.3693 168.589 78.6321 168.717 78.8594H168.874V77.0909H170.955V88.2415C170.955 89.179 170.737 89.9484 170.301 90.5497C169.866 91.151 169.276 91.5961 168.533 91.8849C167.794 92.1738 166.961 92.3182 166.033 92.3182ZM166.011 86.0753C166.622 86.0753 167.138 85.9332 167.56 85.6491C167.986 85.3603 168.308 84.9484 168.526 84.4134C168.748 83.8736 168.859 83.2273 168.859 82.4744C168.859 81.7405 168.75 81.0942 168.533 80.5355C168.315 79.9768 167.995 79.5412 167.574 79.2287C167.152 78.9115 166.632 78.7528 166.011 78.7528C165.372 78.7528 164.839 78.9186 164.413 79.25C163.987 79.5767 163.665 80.0218 163.447 80.5852C163.234 81.1487 163.128 81.7784 163.128 82.4744C163.128 83.1894 163.237 83.8168 163.455 84.3565C163.672 84.8963 163.994 85.3177 164.42 85.6207C164.851 85.9238 165.382 86.0753 166.011 86.0753ZM175.926 81.5227V88H173.803V77.0909H175.841V78.8665H175.976C176.227 78.2888 176.62 77.8248 177.155 77.4744C177.695 77.1241 178.374 76.9489 179.193 76.9489C179.937 76.9489 180.588 77.1051 181.146 77.4176C181.705 77.7254 182.138 78.1847 182.446 78.7955C182.754 79.4062 182.908 80.1615 182.908 81.0611V88H180.784V81.3168C180.784 80.526 180.578 79.9081 180.166 79.4631C179.754 79.0133 179.188 78.7884 178.469 78.7884C177.976 78.7884 177.538 78.8949 177.155 79.108C176.776 79.321 176.475 79.6335 176.253 80.0455C176.035 80.4527 175.926 80.9451 175.926 81.5227ZM193.414 73.4545V88H191.219V73.4545H193.414ZM198.563 81.5227V88H196.439V77.0909H198.478V78.8665H198.613C198.864 78.2888 199.257 77.8248 199.792 77.4744C200.331 77.1241 201.011 76.9489 201.83 76.9489C202.573 76.9489 203.224 77.1051 203.783 77.4176C204.342 77.7254 204.775 78.1847 205.083 78.7955C205.391 79.4062 205.544 80.1615 205.544 81.0611V88H203.421V81.3168C203.421 80.526 203.215 79.9081 202.803 79.4631C202.391 79.0133 201.825 78.7884 201.105 78.7884C200.613 78.7884 200.175 78.8949 199.792 79.108C199.413 79.321 199.112 79.6335 198.89 80.0455C198.672 80.4527 198.563 80.9451 198.563 81.5227ZM213.856 88V73.4545H215.979V78.8594H216.107C216.23 78.6321 216.408 78.3693 216.64 78.071C216.872 77.7727 217.194 77.5123 217.606 77.2898C218.018 77.0625 218.562 76.9489 219.239 76.9489C220.12 76.9489 220.906 77.1714 221.597 77.6165C222.289 78.0616 222.831 78.7031 223.224 79.5412C223.621 80.3793 223.82 81.3878 223.82 82.5668C223.82 83.7457 223.624 84.7566 223.231 85.5994C222.838 86.4375 222.298 87.0838 221.612 87.5384C220.925 87.9882 220.141 88.2131 219.261 88.2131C218.598 88.2131 218.056 88.1018 217.634 87.8793C217.218 87.6567 216.891 87.3963 216.654 87.098C216.417 86.7997 216.235 86.5346 216.107 86.3026H215.93V88H213.856ZM215.937 82.5455C215.937 83.3125 216.048 83.9848 216.271 84.5625C216.493 85.1402 216.815 85.5923 217.237 85.919C217.658 86.241 218.174 86.402 218.785 86.402C219.419 86.402 219.95 86.2339 220.376 85.8977C220.802 85.5568 221.124 85.0952 221.342 84.5128C221.564 83.9304 221.675 83.2746 221.675 82.5455C221.675 81.8258 221.567 81.1795 221.349 80.6065C221.136 80.0336 220.814 79.5814 220.383 79.25C219.957 78.9186 219.424 78.7528 218.785 78.7528C218.169 78.7528 217.648 78.9115 217.222 79.2287C216.801 79.5459 216.481 79.9886 216.263 80.5568C216.046 81.125 215.937 81.7879 215.937 82.5455ZM233.115 83.4759V77.0909H235.246V88H233.158V86.1108H233.044C232.793 86.6932 232.391 87.1785 231.837 87.5668C231.288 87.9503 230.604 88.142 229.784 88.142C229.084 88.142 228.463 87.9882 227.924 87.6804C227.389 87.3679 226.967 86.9062 226.659 86.2955C226.356 85.6847 226.205 84.9295 226.205 84.0298V77.0909H228.328V83.7741C228.328 84.5175 228.534 85.1094 228.946 85.5497C229.358 85.9901 229.893 86.2102 230.551 86.2102C230.949 86.2102 231.345 86.1108 231.738 85.9119C232.135 85.7131 232.464 85.4124 232.725 85.0099C232.99 84.6075 233.12 84.0961 233.115 83.4759ZM243.192 77.0909V78.7955H237.233V77.0909H243.192ZM238.831 74.4773H240.955V84.7969C240.955 85.2088 241.016 85.5189 241.139 85.7273C241.262 85.9309 241.421 86.0705 241.615 86.1463C241.814 86.2173 242.029 86.2528 242.261 86.2528C242.432 86.2528 242.581 86.241 242.709 86.2173C242.837 86.1937 242.936 86.1747 243.007 86.1605L243.391 87.9148C243.268 87.9621 243.092 88.0095 242.865 88.0568C242.638 88.1089 242.354 88.1373 242.013 88.142C241.454 88.1515 240.933 88.0521 240.45 87.8438C239.967 87.6354 239.577 87.3134 239.278 86.8778C238.98 86.4422 238.831 85.8954 238.831 85.2372V74.4773ZM250.633 77.0909V78.7955H244.674V77.0909H250.633ZM246.272 74.4773H248.396V84.7969C248.396 85.2088 248.458 85.5189 248.581 85.7273C248.704 85.9309 248.862 86.0705 249.056 86.1463C249.255 86.2173 249.471 86.2528 249.703 86.2528C249.873 86.2528 250.022 86.241 250.15 86.2173C250.278 86.1937 250.377 86.1747 250.449 86.1605L250.832 87.9148C250.709 87.9621 250.534 88.0095 250.306 88.0568C250.079 88.1089 249.795 88.1373 249.454 88.142C248.895 88.1515 248.375 88.0521 247.892 87.8438C247.409 87.6354 247.018 87.3134 246.72 86.8778C246.422 86.4422 246.272 85.8954 246.272 85.2372V74.4773ZM257.46 88.2202C256.438 88.2202 255.545 87.9858 254.783 87.517C254.02 87.0483 253.429 86.3925 253.007 85.5497C252.586 84.7069 252.375 83.7221 252.375 82.5952C252.375 81.4635 252.586 80.474 253.007 79.6264C253.429 78.7789 254.02 78.1207 254.783 77.652C255.545 77.1832 256.438 76.9489 257.46 76.9489C258.483 76.9489 259.375 77.1832 260.138 77.652C260.9 78.1207 261.492 78.7789 261.913 79.6264C262.335 80.474 262.545 81.4635 262.545 82.5952C262.545 83.7221 262.335 84.7069 261.913 85.5497C261.492 86.3925 260.9 87.0483 260.138 87.517C259.375 87.9858 258.483 88.2202 257.46 88.2202ZM257.467 86.4375C258.13 86.4375 258.679 86.2623 259.115 85.9119C259.551 85.5616 259.873 85.0952 260.081 84.5128C260.294 83.9304 260.401 83.2888 260.401 82.5881C260.401 81.892 260.294 81.2528 260.081 80.6705C259.873 80.0833 259.551 79.6122 259.115 79.2571C258.679 78.902 258.13 78.7244 257.467 78.7244C256.8 78.7244 256.246 78.902 255.805 79.2571C255.37 79.6122 255.045 80.0833 254.832 80.6705C254.624 81.2528 254.52 81.892 254.52 82.5881C254.52 83.2888 254.624 83.9304 254.832 84.5128C255.045 85.0952 255.37 85.5616 255.805 85.9119C256.246 86.2623 256.8 86.4375 257.467 86.4375ZM267.039 81.5227V88H264.916V77.0909H266.954V78.8665H267.089C267.34 78.2888 267.733 77.8248 268.268 77.4744C268.808 77.1241 269.487 76.9489 270.306 76.9489C271.05 76.9489 271.701 77.1051 272.26 77.4176C272.818 77.7254 273.252 78.1847 273.559 78.7955C273.867 79.4062 274.021 80.1615 274.021 81.0611V88H271.897V81.3168C271.897 80.526 271.691 79.9081 271.279 79.4631C270.868 79.0133 270.302 78.7884 269.582 78.7884C269.09 78.7884 268.652 78.8949 268.268 79.108C267.889 79.321 267.589 79.6335 267.366 80.0455C267.148 80.4527 267.039 80.9451 267.039 81.5227Z" fill="#2D3342"/>
<path d="M267.363 181.853C147.038 162.097 55.956 162.547 33.0555 202.554C8.53827 245.385 426.341 222.708 267.363 181.853Z" stroke="#5A56B4" stroke-width="2" stroke-linecap="round"/>
<path d="M60.5582 185.364V197H58.1378V185.364H60.5582ZM66.4403 197.17C65.5578 197.17 64.7945 196.983 64.1506 196.608C63.5104 196.229 63.0161 195.703 62.6676 195.028C62.3191 194.35 62.1449 193.564 62.1449 192.67C62.1449 191.769 62.3191 190.981 62.6676 190.307C63.0161 189.629 63.5104 189.102 64.1506 188.727C64.7945 188.348 65.5578 188.159 66.4403 188.159C67.3229 188.159 68.0843 188.348 68.7244 188.727C69.3684 189.102 69.8646 189.629 70.2131 190.307C70.5616 190.981 70.7358 191.769 70.7358 192.67C70.7358 193.564 70.5616 194.35 70.2131 195.028C69.8646 195.703 69.3684 196.229 68.7244 196.608C68.0843 196.983 67.3229 197.17 66.4403 197.17ZM66.4517 195.295C66.8532 195.295 67.1884 195.182 67.4574 194.955C67.7263 194.723 67.929 194.409 68.0653 194.011C68.2055 193.614 68.2756 193.161 68.2756 192.653C68.2756 192.146 68.2055 191.693 68.0653 191.295C67.929 190.898 67.7263 190.583 67.4574 190.352C67.1884 190.121 66.8532 190.006 66.4517 190.006C66.0464 190.006 65.7055 190.121 65.429 190.352C65.1563 190.583 64.9498 190.898 64.8097 191.295C64.6733 191.693 64.6051 192.146 64.6051 192.653C64.6051 193.161 64.6733 193.614 64.8097 194.011C64.9498 194.409 65.1563 194.723 65.429 194.955C65.7055 195.182 66.0464 195.295 66.4517 195.295ZM76.2415 200.455C75.4574 200.455 74.785 200.347 74.2244 200.131C73.6676 199.919 73.2244 199.629 72.8949 199.261C72.5653 198.894 72.3513 198.481 72.2528 198.023L74.4915 197.722C74.5597 197.896 74.6676 198.059 74.8153 198.21C74.9631 198.362 75.1581 198.483 75.4006 198.574C75.6468 198.669 75.946 198.716 76.2983 198.716C76.8248 198.716 77.2585 198.587 77.5994 198.33C77.9441 198.076 78.1165 197.65 78.1165 197.051V195.455H78.0142C77.9081 195.697 77.7491 195.926 77.5369 196.142C77.3248 196.358 77.0521 196.534 76.7188 196.67C76.3854 196.807 75.9877 196.875 75.5256 196.875C74.8703 196.875 74.2737 196.723 73.7358 196.42C73.2017 196.114 72.7756 195.646 72.4574 195.017C72.143 194.384 71.9858 193.585 71.9858 192.619C71.9858 191.631 72.1468 190.805 72.4688 190.142C72.7907 189.479 73.2188 188.983 73.7528 188.653C74.2907 188.324 74.8797 188.159 75.5199 188.159C76.0085 188.159 76.4176 188.242 76.7472 188.409C77.0767 188.572 77.3419 188.777 77.5426 189.023C77.7472 189.265 77.9044 189.504 78.0142 189.739H78.1051V188.273H80.5085V197.085C80.5085 197.828 80.3267 198.449 79.9631 198.949C79.5994 199.449 79.0956 199.824 78.4517 200.074C77.8116 200.328 77.0748 200.455 76.2415 200.455ZM76.2926 195.057C76.6828 195.057 77.0123 194.96 77.2812 194.767C77.554 194.57 77.7623 194.29 77.9062 193.926C78.054 193.559 78.1278 193.119 78.1278 192.608C78.1278 192.097 78.0559 191.653 77.9119 191.278C77.768 190.9 77.5597 190.606 77.2869 190.398C77.0142 190.189 76.6828 190.085 76.2926 190.085C75.8949 190.085 75.5597 190.193 75.2869 190.409C75.0142 190.621 74.8078 190.917 74.6676 191.295C74.5275 191.674 74.4574 192.112 74.4574 192.608C74.4574 193.112 74.5275 193.547 74.6676 193.915C74.8116 194.278 75.018 194.561 75.2869 194.761C75.5597 194.958 75.8949 195.057 76.2926 195.057ZM82.4347 197V188.273H84.8551V197H82.4347ZM83.6506 187.148C83.2907 187.148 82.982 187.028 82.7244 186.79C82.4706 186.547 82.3438 186.258 82.3438 185.92C82.3438 185.587 82.4706 185.301 82.7244 185.062C82.982 184.82 83.2907 184.699 83.6506 184.699C84.0104 184.699 84.3172 184.82 84.571 185.062C84.8286 185.301 84.9574 185.587 84.9574 185.92C84.9574 186.258 84.8286 186.547 84.571 186.79C84.3172 187.028 84.0104 187.148 83.6506 187.148ZM89.2145 191.955V197H86.794V188.273H89.1009V189.812H89.2031C89.3963 189.305 89.7202 188.903 90.1747 188.608C90.6293 188.309 91.1804 188.159 91.8281 188.159C92.4342 188.159 92.9626 188.292 93.4134 188.557C93.8641 188.822 94.2145 189.201 94.4645 189.693C94.7145 190.182 94.8395 190.765 94.8395 191.443V197H92.419V191.875C92.4228 191.341 92.2865 190.924 92.0099 190.625C91.7334 190.322 91.3527 190.17 90.8679 190.17C90.5421 190.17 90.2543 190.241 90.0043 190.381C89.758 190.521 89.5649 190.725 89.4247 190.994C89.2884 191.259 89.2183 191.58 89.2145 191.955ZM102.939 197.165C102.382 197.165 101.886 197.068 101.45 196.875C101.015 196.678 100.67 196.388 100.416 196.006C100.166 195.619 100.041 195.138 100.041 194.562C100.041 194.078 100.13 193.67 100.308 193.341C100.486 193.011 100.729 192.746 101.036 192.545C101.342 192.345 101.691 192.193 102.081 192.091C102.475 191.989 102.888 191.917 103.32 191.875C103.827 191.822 104.236 191.773 104.547 191.727C104.857 191.678 105.083 191.606 105.223 191.511C105.363 191.417 105.433 191.277 105.433 191.091V191.057C105.433 190.697 105.32 190.419 105.092 190.222C104.869 190.025 104.551 189.926 104.138 189.926C103.702 189.926 103.356 190.023 103.098 190.216C102.84 190.405 102.67 190.644 102.587 190.932L100.348 190.75C100.462 190.22 100.685 189.761 101.018 189.375C101.352 188.985 101.782 188.686 102.308 188.477C102.839 188.265 103.452 188.159 104.149 188.159C104.634 188.159 105.098 188.216 105.541 188.33C105.988 188.443 106.384 188.619 106.729 188.858C107.077 189.097 107.352 189.403 107.553 189.778C107.753 190.15 107.854 190.595 107.854 191.114V197H105.558V195.79H105.49C105.35 196.062 105.162 196.303 104.928 196.511C104.693 196.716 104.411 196.877 104.081 196.994C103.751 197.108 103.371 197.165 102.939 197.165ZM103.632 195.494C103.988 195.494 104.303 195.424 104.575 195.284C104.848 195.14 105.062 194.947 105.217 194.705C105.373 194.462 105.45 194.187 105.45 193.881V192.955C105.375 193.004 105.27 193.049 105.138 193.091C105.009 193.129 104.863 193.165 104.7 193.199C104.537 193.229 104.375 193.258 104.212 193.284C104.049 193.307 103.901 193.328 103.768 193.347C103.484 193.388 103.236 193.455 103.024 193.545C102.812 193.636 102.647 193.759 102.53 193.915C102.412 194.066 102.354 194.256 102.354 194.483C102.354 194.812 102.473 195.064 102.712 195.239C102.954 195.409 103.261 195.494 103.632 195.494ZM112.152 191.955V197H109.732V188.273H112.038V189.812H112.141C112.334 189.305 112.658 188.903 113.112 188.608C113.567 188.309 114.118 188.159 114.766 188.159C115.372 188.159 115.9 188.292 116.351 188.557C116.802 188.822 117.152 189.201 117.402 189.693C117.652 190.182 117.777 190.765 117.777 191.443V197H115.357V191.875C115.36 191.341 115.224 190.924 114.947 190.625C114.671 190.322 114.29 190.17 113.805 190.17C113.48 190.17 113.192 190.241 112.942 190.381C112.696 190.521 112.502 190.725 112.362 190.994C112.226 191.259 112.156 191.58 112.152 191.955ZM122.901 197.142C122.238 197.142 121.637 196.972 121.099 196.631C120.565 196.286 120.141 195.78 119.827 195.114C119.516 194.443 119.361 193.621 119.361 192.648C119.361 191.648 119.522 190.816 119.844 190.153C120.166 189.487 120.594 188.989 121.128 188.659C121.666 188.326 122.255 188.159 122.895 188.159C123.384 188.159 123.791 188.242 124.116 188.409C124.446 188.572 124.711 188.777 124.912 189.023C125.116 189.265 125.272 189.504 125.378 189.739H125.452V185.364H127.866V197H125.48V195.602H125.378C125.264 195.845 125.103 196.085 124.895 196.324C124.69 196.559 124.423 196.754 124.094 196.909C123.768 197.064 123.37 197.142 122.901 197.142ZM123.668 195.216C124.058 195.216 124.387 195.11 124.656 194.898C124.929 194.682 125.137 194.381 125.281 193.994C125.429 193.608 125.503 193.155 125.503 192.636C125.503 192.117 125.431 191.667 125.287 191.284C125.143 190.902 124.935 190.606 124.662 190.398C124.389 190.189 124.058 190.085 123.668 190.085C123.27 190.085 122.935 190.193 122.662 190.409C122.389 190.625 122.183 190.924 122.043 191.307C121.902 191.689 121.832 192.133 121.832 192.636C121.832 193.144 121.902 193.593 122.043 193.983C122.187 194.369 122.393 194.672 122.662 194.892C122.935 195.108 123.27 195.216 123.668 195.216ZM133.56 200.273V188.273H135.946V189.739H136.054C136.16 189.504 136.313 189.265 136.514 189.023C136.719 188.777 136.984 188.572 137.31 188.409C137.639 188.242 138.048 188.159 138.537 188.159C139.173 188.159 139.76 188.326 140.298 188.659C140.836 188.989 141.266 189.487 141.588 190.153C141.91 190.816 142.071 191.648 142.071 192.648C142.071 193.621 141.914 194.443 141.599 195.114C141.289 195.78 140.865 196.286 140.327 196.631C139.793 196.972 139.194 197.142 138.531 197.142C138.062 197.142 137.662 197.064 137.332 196.909C137.007 196.754 136.74 196.559 136.531 196.324C136.323 196.085 136.164 195.845 136.054 195.602H135.98V200.273H133.56ZM135.929 192.636C135.929 193.155 136.001 193.608 136.145 193.994C136.289 194.381 136.497 194.682 136.77 194.898C137.043 195.11 137.374 195.216 137.764 195.216C138.158 195.216 138.491 195.108 138.764 194.892C139.037 194.672 139.243 194.369 139.384 193.983C139.527 193.593 139.599 193.144 139.599 192.636C139.599 192.133 139.529 191.689 139.389 191.307C139.249 190.924 139.043 190.625 138.77 190.409C138.497 190.193 138.162 190.085 137.764 190.085C137.37 190.085 137.037 190.189 136.764 190.398C136.495 190.606 136.289 190.902 136.145 191.284C136.001 191.667 135.929 192.117 135.929 192.636ZM146.173 197.165C145.616 197.165 145.12 197.068 144.685 196.875C144.249 196.678 143.904 196.388 143.651 196.006C143.401 195.619 143.276 195.138 143.276 194.562C143.276 194.078 143.365 193.67 143.543 193.341C143.721 193.011 143.963 192.746 144.27 192.545C144.577 192.345 144.925 192.193 145.315 192.091C145.709 191.989 146.122 191.917 146.554 191.875C147.062 191.822 147.471 191.773 147.781 191.727C148.092 191.678 148.317 191.606 148.457 191.511C148.598 191.417 148.668 191.277 148.668 191.091V191.057C148.668 190.697 148.554 190.419 148.327 190.222C148.103 190.025 147.785 189.926 147.372 189.926C146.937 189.926 146.59 190.023 146.332 190.216C146.075 190.405 145.904 190.644 145.821 190.932L143.582 190.75C143.696 190.22 143.92 189.761 144.253 189.375C144.586 188.985 145.016 188.686 145.543 188.477C146.073 188.265 146.687 188.159 147.384 188.159C147.868 188.159 148.332 188.216 148.776 188.33C149.223 188.443 149.618 188.619 149.963 188.858C150.312 189.097 150.586 189.403 150.787 189.778C150.988 190.15 151.088 190.595 151.088 191.114V197H148.793V195.79H148.724C148.584 196.062 148.397 196.303 148.162 196.511C147.927 196.716 147.645 196.877 147.315 196.994C146.986 197.108 146.605 197.165 146.173 197.165ZM146.866 195.494C147.223 195.494 147.537 195.424 147.81 195.284C148.082 195.14 148.296 194.947 148.452 194.705C148.607 194.462 148.685 194.187 148.685 193.881V192.955C148.609 193.004 148.505 193.049 148.372 193.091C148.243 193.129 148.098 193.165 147.935 193.199C147.772 193.229 147.609 193.258 147.446 193.284C147.283 193.307 147.135 193.328 147.003 193.347C146.719 193.388 146.471 193.455 146.259 193.545C146.046 193.636 145.882 193.759 145.764 193.915C145.647 194.066 145.588 194.256 145.588 194.483C145.588 194.812 145.707 195.064 145.946 195.239C146.188 195.409 146.495 195.494 146.866 195.494ZM160.227 190.761L158.011 190.898C157.973 190.708 157.892 190.538 157.767 190.386C157.642 190.231 157.477 190.108 157.273 190.017C157.072 189.922 156.831 189.875 156.551 189.875C156.176 189.875 155.86 189.955 155.602 190.114C155.345 190.269 155.216 190.477 155.216 190.739C155.216 190.947 155.299 191.123 155.466 191.267C155.633 191.411 155.919 191.527 156.324 191.614L157.903 191.932C158.752 192.106 159.384 192.386 159.801 192.773C160.218 193.159 160.426 193.667 160.426 194.295C160.426 194.867 160.258 195.369 159.92 195.801C159.587 196.233 159.129 196.57 158.545 196.812C157.966 197.051 157.297 197.17 156.54 197.17C155.384 197.17 154.464 196.93 153.778 196.449C153.097 195.964 152.697 195.305 152.58 194.472L154.96 194.347C155.032 194.699 155.206 194.968 155.483 195.153C155.759 195.335 156.114 195.426 156.545 195.426C156.97 195.426 157.311 195.345 157.568 195.182C157.83 195.015 157.962 194.801 157.966 194.54C157.962 194.32 157.869 194.14 157.688 194C157.506 193.856 157.225 193.746 156.847 193.67L155.335 193.369C154.483 193.199 153.848 192.903 153.432 192.483C153.019 192.062 152.812 191.527 152.812 190.875C152.812 190.314 152.964 189.831 153.267 189.426C153.574 189.021 154.004 188.708 154.557 188.489C155.114 188.269 155.765 188.159 156.511 188.159C157.614 188.159 158.481 188.392 159.114 188.858C159.75 189.324 160.121 189.958 160.227 190.761ZM169.212 190.761L166.996 190.898C166.958 190.708 166.876 190.538 166.751 190.386C166.626 190.231 166.462 190.108 166.257 190.017C166.056 189.922 165.816 189.875 165.536 189.875C165.161 189.875 164.844 189.955 164.587 190.114C164.329 190.269 164.2 190.477 164.2 190.739C164.2 190.947 164.284 191.123 164.45 191.267C164.617 191.411 164.903 191.527 165.308 191.614L166.888 191.932C167.736 192.106 168.369 192.386 168.786 192.773C169.202 193.159 169.411 193.667 169.411 194.295C169.411 194.867 169.242 195.369 168.905 195.801C168.571 196.233 168.113 196.57 167.53 196.812C166.95 197.051 166.282 197.17 165.524 197.17C164.369 197.17 163.448 196.93 162.763 196.449C162.081 195.964 161.681 195.305 161.564 194.472L163.945 194.347C164.017 194.699 164.191 194.968 164.467 195.153C164.744 195.335 165.098 195.426 165.53 195.426C165.954 195.426 166.295 195.345 166.553 195.182C166.814 195.015 166.946 194.801 166.95 194.54C166.946 194.32 166.854 194.14 166.672 194C166.49 193.856 166.21 193.746 165.831 193.67L164.32 193.369C163.467 193.199 162.833 192.903 162.416 192.483C162.003 192.062 161.797 191.527 161.797 190.875C161.797 190.314 161.948 189.831 162.251 189.426C162.558 189.021 162.988 188.708 163.541 188.489C164.098 188.269 164.75 188.159 165.496 188.159C166.598 188.159 167.465 188.392 168.098 188.858C168.734 189.324 169.106 189.958 169.212 190.761ZM172.656 197L170.281 188.273H172.73L174.082 194.136H174.162L175.571 188.273H177.974L179.406 194.102H179.48L180.81 188.273H183.253L180.884 197H178.321L176.821 191.511H176.713L175.213 197H172.656ZM188.268 197.17C187.386 197.17 186.623 196.983 185.979 196.608C185.339 196.229 184.844 195.703 184.496 195.028C184.147 194.35 183.973 193.564 183.973 192.67C183.973 191.769 184.147 190.981 184.496 190.307C184.844 189.629 185.339 189.102 185.979 188.727C186.623 188.348 187.386 188.159 188.268 188.159C189.151 188.159 189.912 188.348 190.553 188.727C191.196 189.102 191.693 189.629 192.041 190.307C192.39 190.981 192.564 191.769 192.564 192.67C192.564 193.564 192.39 194.35 192.041 195.028C191.693 195.703 191.196 196.229 190.553 196.608C189.912 196.983 189.151 197.17 188.268 197.17ZM188.28 195.295C188.681 195.295 189.017 195.182 189.286 194.955C189.554 194.723 189.757 194.409 189.893 194.011C190.034 193.614 190.104 193.161 190.104 192.653C190.104 192.146 190.034 191.693 189.893 191.295C189.757 190.898 189.554 190.583 189.286 190.352C189.017 190.121 188.681 190.006 188.28 190.006C187.875 190.006 187.534 190.121 187.257 190.352C186.984 190.583 186.778 190.898 186.638 191.295C186.501 191.693 186.433 192.146 186.433 192.653C186.433 193.161 186.501 193.614 186.638 194.011C186.778 194.409 186.984 194.723 187.257 194.955C187.534 195.182 187.875 195.295 188.28 195.295ZM194.138 197V188.273H196.484V189.795H196.575C196.734 189.254 197.001 188.845 197.376 188.568C197.751 188.288 198.183 188.148 198.672 188.148C198.793 188.148 198.924 188.155 199.064 188.17C199.204 188.186 199.327 188.206 199.433 188.233V190.381C199.32 190.347 199.162 190.316 198.962 190.29C198.761 190.263 198.577 190.25 198.411 190.25C198.054 190.25 197.736 190.328 197.456 190.483C197.179 190.634 196.96 190.847 196.797 191.119C196.638 191.392 196.558 191.706 196.558 192.062V197H194.138ZM203.494 197.142C202.831 197.142 202.231 196.972 201.693 196.631C201.159 196.286 200.735 195.78 200.42 195.114C200.11 194.443 199.955 193.621 199.955 192.648C199.955 191.648 200.116 190.816 200.438 190.153C200.759 189.487 201.188 188.989 201.722 188.659C202.259 188.326 202.848 188.159 203.489 188.159C203.977 188.159 204.384 188.242 204.71 188.409C205.04 188.572 205.305 188.777 205.506 189.023C205.71 189.265 205.866 189.504 205.972 189.739H206.045V185.364H208.46V197H206.074V195.602H205.972C205.858 195.845 205.697 196.085 205.489 196.324C205.284 196.559 205.017 196.754 204.688 196.909C204.362 197.064 203.964 197.142 203.494 197.142ZM204.261 195.216C204.652 195.216 204.981 195.11 205.25 194.898C205.523 194.682 205.731 194.381 205.875 193.994C206.023 193.608 206.097 193.155 206.097 192.636C206.097 192.117 206.025 191.667 205.881 191.284C205.737 190.902 205.528 190.606 205.256 190.398C204.983 190.189 204.652 190.085 204.261 190.085C203.864 190.085 203.528 190.193 203.256 190.409C202.983 190.625 202.777 190.924 202.636 191.307C202.496 191.689 202.426 192.133 202.426 192.636C202.426 193.144 202.496 193.593 202.636 193.983C202.78 194.369 202.987 194.672 203.256 194.892C203.528 195.108 203.864 195.216 204.261 195.216Z" fill="#2D3342"/>
<path d="M218.097 197.17C217.214 197.17 216.451 196.983 215.807 196.608C215.167 196.229 214.672 195.703 214.324 195.028C213.975 194.35 213.801 193.564 213.801 192.67C213.801 191.769 213.975 190.981 214.324 190.307C214.672 189.629 215.167 189.102 215.807 188.727C216.451 188.348 217.214 188.159 218.097 188.159C218.979 188.159 219.741 188.348 220.381 188.727C221.025 189.102 221.521 189.629 221.869 190.307C222.218 190.981 222.392 191.769 222.392 192.67C222.392 193.564 222.218 194.35 221.869 195.028C221.521 195.703 221.025 196.229 220.381 196.608C219.741 196.983 218.979 197.17 218.097 197.17ZM218.108 195.295C218.509 195.295 218.845 195.182 219.114 194.955C219.383 194.723 219.585 194.409 219.722 194.011C219.862 193.614 219.932 193.161 219.932 192.653C219.932 192.146 219.862 191.693 219.722 191.295C219.585 190.898 219.383 190.583 219.114 190.352C218.845 190.121 218.509 190.006 218.108 190.006C217.703 190.006 217.362 190.121 217.085 190.352C216.813 190.583 216.606 190.898 216.466 191.295C216.33 191.693 216.261 192.146 216.261 192.653C216.261 193.161 216.33 193.614 216.466 194.011C216.606 194.409 216.813 194.723 217.085 194.955C217.362 195.182 217.703 195.295 218.108 195.295ZM228.659 188.273V190.091H223.273V188.273H228.659ZM224.506 197V187.642C224.506 187.009 224.629 186.485 224.875 186.068C225.125 185.652 225.466 185.339 225.898 185.131C226.33 184.922 226.82 184.818 227.369 184.818C227.741 184.818 228.08 184.847 228.386 184.903C228.697 184.96 228.928 185.011 229.08 185.057L228.648 186.875C228.553 186.845 228.436 186.816 228.295 186.79C228.159 186.763 228.019 186.75 227.875 186.75C227.519 186.75 227.271 186.833 227.131 187C226.991 187.163 226.92 187.392 226.92 187.688V197H224.506ZM238.483 188.273V190.091H233.227V188.273H238.483ZM234.42 186.182H236.841V194.318C236.841 194.542 236.875 194.716 236.943 194.841C237.011 194.962 237.106 195.047 237.227 195.097C237.352 195.146 237.496 195.17 237.659 195.17C237.773 195.17 237.886 195.161 238 195.142C238.114 195.119 238.201 195.102 238.261 195.091L238.642 196.892C238.521 196.93 238.35 196.973 238.131 197.023C237.911 197.076 237.644 197.108 237.33 197.119C236.746 197.142 236.235 197.064 235.795 196.886C235.36 196.708 235.021 196.432 234.778 196.057C234.536 195.682 234.417 195.208 234.42 194.636V186.182ZM242.668 191.955V197H240.247V185.364H242.599V189.812H242.702C242.899 189.297 243.217 188.894 243.656 188.602C244.096 188.307 244.647 188.159 245.31 188.159C245.916 188.159 246.444 188.292 246.895 188.557C247.349 188.818 247.702 189.195 247.952 189.688C248.205 190.176 248.33 190.761 248.327 191.443V197H245.906V191.875C245.91 191.337 245.774 190.919 245.497 190.619C245.224 190.32 244.842 190.17 244.349 190.17C244.02 190.17 243.728 190.241 243.474 190.381C243.224 190.521 243.027 190.725 242.884 190.994C242.743 191.259 242.671 191.58 242.668 191.955ZM254.209 197.17C253.311 197.17 252.538 196.989 251.891 196.625C251.247 196.258 250.75 195.739 250.402 195.068C250.054 194.394 249.879 193.597 249.879 192.676C249.879 191.778 250.054 190.991 250.402 190.312C250.75 189.634 251.241 189.106 251.874 188.727C252.51 188.348 253.256 188.159 254.112 188.159C254.688 188.159 255.224 188.252 255.72 188.438C256.22 188.619 256.656 188.894 257.027 189.261C257.402 189.629 257.694 190.091 257.902 190.648C258.11 191.201 258.214 191.848 258.214 192.591V193.256H250.845V191.756H255.936C255.936 191.407 255.86 191.098 255.709 190.83C255.557 190.561 255.347 190.35 255.078 190.199C254.813 190.044 254.504 189.966 254.152 189.966C253.785 189.966 253.459 190.051 253.175 190.222C252.894 190.388 252.675 190.614 252.516 190.898C252.357 191.178 252.275 191.491 252.271 191.835V193.261C252.271 193.693 252.351 194.066 252.51 194.381C252.673 194.695 252.902 194.938 253.197 195.108C253.493 195.278 253.843 195.364 254.249 195.364C254.518 195.364 254.764 195.326 254.987 195.25C255.211 195.174 255.402 195.061 255.561 194.909C255.72 194.758 255.841 194.572 255.925 194.352L258.163 194.5C258.05 195.038 257.817 195.508 257.464 195.909C257.116 196.307 256.665 196.617 256.112 196.841C255.563 197.061 254.929 197.17 254.209 197.17ZM90.581 216.17C89.687 216.17 88.9181 215.981 88.2741 215.602C87.634 215.22 87.1416 214.689 86.7969 214.011C86.456 213.333 86.2855 212.553 86.2855 211.67C86.2855 210.777 86.4579 209.992 86.8026 209.318C87.151 208.64 87.6454 208.112 88.2855 207.733C88.9257 207.35 89.687 207.159 90.5696 207.159C91.331 207.159 91.9976 207.297 92.5696 207.574C93.1416 207.85 93.5942 208.239 93.9276 208.739C94.2609 209.239 94.4446 209.826 94.4787 210.5H92.1946C92.1302 210.064 91.9598 209.714 91.6832 209.449C91.4105 209.18 91.0526 209.045 90.6094 209.045C90.2344 209.045 89.9067 209.148 89.6264 209.352C89.3499 209.553 89.134 209.847 88.9787 210.233C88.8234 210.619 88.7457 211.087 88.7457 211.636C88.7457 212.193 88.8215 212.667 88.973 213.057C89.1283 213.447 89.3461 213.744 89.6264 213.949C89.9067 214.153 90.2344 214.256 90.6094 214.256C90.8859 214.256 91.134 214.199 91.3537 214.085C91.5772 213.972 91.7609 213.807 91.9048 213.591C92.0526 213.371 92.1491 213.108 92.1946 212.801H94.4787C94.4408 213.468 94.259 214.055 93.9332 214.562C93.6113 215.066 93.1662 215.46 92.598 215.744C92.0298 216.028 91.3575 216.17 90.581 216.17ZM99.9716 216.17C99.089 216.17 98.3258 215.983 97.6818 215.608C97.0417 215.229 96.5473 214.703 96.1989 214.028C95.8504 213.35 95.6761 212.564 95.6761 211.67C95.6761 210.769 95.8504 209.981 96.1989 209.307C96.5473 208.629 97.0417 208.102 97.6818 207.727C98.3258 207.348 99.089 207.159 99.9716 207.159C100.854 207.159 101.616 207.348 102.256 207.727C102.9 208.102 103.396 208.629 103.744 209.307C104.093 209.981 104.267 210.769 104.267 211.67C104.267 212.564 104.093 213.35 103.744 214.028C103.396 214.703 102.9 215.229 102.256 215.608C101.616 215.983 100.854 216.17 99.9716 216.17ZM99.983 214.295C100.384 214.295 100.72 214.182 100.989 213.955C101.258 213.723 101.46 213.409 101.597 213.011C101.737 212.614 101.807 212.161 101.807 211.653C101.807 211.146 101.737 210.693 101.597 210.295C101.46 209.898 101.258 209.583 100.989 209.352C100.72 209.121 100.384 209.006 99.983 209.006C99.5777 209.006 99.2367 209.121 98.9602 209.352C98.6875 209.583 98.4811 209.898 98.3409 210.295C98.2045 210.693 98.1364 211.146 98.1364 211.653C98.1364 212.161 98.2045 212.614 98.3409 213.011C98.4811 213.409 98.6875 213.723 98.9602 213.955C99.2367 214.182 99.5777 214.295 99.983 214.295ZM105.841 216V207.273H108.188V208.795H108.278C108.438 208.254 108.705 207.845 109.08 207.568C109.455 207.288 109.886 207.148 110.375 207.148C110.496 207.148 110.627 207.155 110.767 207.17C110.907 207.186 111.03 207.206 111.136 207.233V209.381C111.023 209.347 110.866 209.316 110.665 209.29C110.464 209.263 110.28 209.25 110.114 209.25C109.758 209.25 109.439 209.328 109.159 209.483C108.883 209.634 108.663 209.847 108.5 210.119C108.341 210.392 108.261 210.706 108.261 211.062V216H105.841ZM112.388 219.273V207.273H114.774V208.739H114.882C114.988 208.504 115.142 208.265 115.342 208.023C115.547 207.777 115.812 207.572 116.138 207.409C116.467 207.242 116.876 207.159 117.365 207.159C118.001 207.159 118.589 207.326 119.126 207.659C119.664 207.989 120.094 208.487 120.416 209.153C120.738 209.816 120.899 210.648 120.899 211.648C120.899 212.621 120.742 213.443 120.428 214.114C120.117 214.78 119.693 215.286 119.155 215.631C118.621 215.972 118.022 216.142 117.359 216.142C116.89 216.142 116.49 216.064 116.161 215.909C115.835 215.754 115.568 215.559 115.359 215.324C115.151 215.085 114.992 214.845 114.882 214.602H114.808V219.273H112.388ZM114.757 211.636C114.757 212.155 114.829 212.608 114.973 212.994C115.117 213.381 115.325 213.682 115.598 213.898C115.871 214.11 116.202 214.216 116.592 214.216C116.986 214.216 117.32 214.108 117.592 213.892C117.865 213.672 118.071 213.369 118.212 212.983C118.356 212.593 118.428 212.144 118.428 211.636C118.428 211.133 118.357 210.689 118.217 210.307C118.077 209.924 117.871 209.625 117.598 209.409C117.325 209.193 116.99 209.085 116.592 209.085C116.198 209.085 115.865 209.189 115.592 209.398C115.323 209.606 115.117 209.902 114.973 210.284C114.829 210.667 114.757 211.117 114.757 211.636ZM126.456 216.17C125.573 216.17 124.81 215.983 124.166 215.608C123.526 215.229 123.032 214.703 122.683 214.028C122.335 213.35 122.161 212.564 122.161 211.67C122.161 210.769 122.335 209.981 122.683 209.307C123.032 208.629 123.526 208.102 124.166 207.727C124.81 207.348 125.573 207.159 126.456 207.159C127.339 207.159 128.1 207.348 128.74 207.727C129.384 208.102 129.88 208.629 130.229 209.307C130.577 209.981 130.751 210.769 130.751 211.67C130.751 212.564 130.577 213.35 130.229 214.028C129.88 214.703 129.384 215.229 128.74 215.608C128.1 215.983 127.339 216.17 126.456 216.17ZM126.467 214.295C126.869 214.295 127.204 214.182 127.473 213.955C127.742 213.723 127.945 213.409 128.081 213.011C128.221 212.614 128.291 212.161 128.291 211.653C128.291 211.146 128.221 210.693 128.081 210.295C127.945 209.898 127.742 209.583 127.473 209.352C127.204 209.121 126.869 209.006 126.467 209.006C126.062 209.006 125.721 209.121 125.445 209.352C125.172 209.583 124.965 209.898 124.825 210.295C124.689 210.693 124.621 211.146 124.621 211.653C124.621 212.161 124.689 212.614 124.825 213.011C124.965 213.409 125.172 213.723 125.445 213.955C125.721 214.182 126.062 214.295 126.467 214.295ZM132.325 216V207.273H134.672V208.795H134.763C134.922 208.254 135.189 207.845 135.564 207.568C135.939 207.288 136.371 207.148 136.859 207.148C136.981 207.148 137.111 207.155 137.251 207.17C137.392 207.186 137.515 207.206 137.621 207.233V209.381C137.507 209.347 137.35 209.316 137.149 209.29C136.948 209.263 136.765 209.25 136.598 209.25C136.242 209.25 135.924 209.328 135.643 209.483C135.367 209.634 135.147 209.847 134.984 210.119C134.825 210.392 134.746 210.706 134.746 211.062V216H132.325ZM141.111 216.165C140.554 216.165 140.058 216.068 139.622 215.875C139.187 215.678 138.842 215.388 138.588 215.006C138.338 214.619 138.213 214.138 138.213 213.562C138.213 213.078 138.302 212.67 138.48 212.341C138.658 212.011 138.901 211.746 139.207 211.545C139.514 211.345 139.863 211.193 140.253 211.091C140.647 210.989 141.06 210.917 141.491 210.875C141.999 210.822 142.408 210.773 142.719 210.727C143.029 210.678 143.255 210.606 143.395 210.511C143.535 210.417 143.605 210.277 143.605 210.091V210.057C143.605 209.697 143.491 209.419 143.264 209.222C143.041 209.025 142.723 208.926 142.31 208.926C141.874 208.926 141.527 209.023 141.27 209.216C141.012 209.405 140.842 209.644 140.759 209.932L138.52 209.75C138.634 209.22 138.857 208.761 139.19 208.375C139.524 207.985 139.954 207.686 140.48 207.477C141.01 207.265 141.624 207.159 142.321 207.159C142.806 207.159 143.27 207.216 143.713 207.33C144.16 207.443 144.556 207.619 144.901 207.858C145.249 208.097 145.524 208.403 145.724 208.778C145.925 209.15 146.026 209.595 146.026 210.114V216H143.73V214.79H143.662C143.522 215.062 143.334 215.303 143.099 215.511C142.865 215.716 142.582 215.877 142.253 215.994C141.923 216.108 141.543 216.165 141.111 216.165ZM141.804 214.494C142.16 214.494 142.474 214.424 142.747 214.284C143.02 214.14 143.234 213.947 143.389 213.705C143.545 213.462 143.622 213.187 143.622 212.881V211.955C143.546 212.004 143.442 212.049 143.31 212.091C143.181 212.129 143.035 212.165 142.872 212.199C142.709 212.229 142.546 212.258 142.384 212.284C142.221 212.307 142.073 212.328 141.94 212.347C141.656 212.388 141.408 212.455 141.196 212.545C140.984 212.636 140.819 212.759 140.702 212.915C140.584 213.066 140.526 213.256 140.526 213.483C140.526 213.812 140.645 214.064 140.884 214.239C141.126 214.409 141.433 214.494 141.804 214.494ZM152.545 207.273V209.091H147.29V207.273H152.545ZM148.483 205.182H150.903V213.318C150.903 213.542 150.938 213.716 151.006 213.841C151.074 213.962 151.169 214.047 151.29 214.097C151.415 214.146 151.559 214.17 151.722 214.17C151.835 214.17 151.949 214.161 152.062 214.142C152.176 214.119 152.263 214.102 152.324 214.091L152.705 215.892C152.583 215.93 152.413 215.973 152.193 216.023C151.973 216.076 151.706 216.108 151.392 216.119C150.809 216.142 150.297 216.064 149.858 215.886C149.422 215.708 149.083 215.432 148.841 215.057C148.598 214.682 148.479 214.208 148.483 213.636V205.182ZM158.006 216.17C157.108 216.17 156.335 215.989 155.688 215.625C155.044 215.258 154.547 214.739 154.199 214.068C153.85 213.394 153.676 212.597 153.676 211.676C153.676 210.778 153.85 209.991 154.199 209.312C154.547 208.634 155.038 208.106 155.67 207.727C156.307 207.348 157.053 207.159 157.909 207.159C158.485 207.159 159.021 207.252 159.517 207.438C160.017 207.619 160.453 207.894 160.824 208.261C161.199 208.629 161.491 209.091 161.699 209.648C161.907 210.201 162.011 210.848 162.011 211.591V212.256H154.642V210.756H159.733C159.733 210.407 159.657 210.098 159.506 209.83C159.354 209.561 159.144 209.35 158.875 209.199C158.61 209.044 158.301 208.966 157.949 208.966C157.581 208.966 157.256 209.051 156.972 209.222C156.691 209.388 156.472 209.614 156.312 209.898C156.153 210.178 156.072 210.491 156.068 210.835V212.261C156.068 212.693 156.148 213.066 156.307 213.381C156.47 213.695 156.699 213.938 156.994 214.108C157.29 214.278 157.64 214.364 158.045 214.364C158.314 214.364 158.561 214.326 158.784 214.25C159.008 214.174 159.199 214.061 159.358 213.909C159.517 213.758 159.638 213.572 159.722 213.352L161.96 213.5C161.847 214.038 161.614 214.508 161.261 214.909C160.913 215.307 160.462 215.617 159.909 215.841C159.36 216.061 158.725 216.17 158.006 216.17ZM169.783 216.165C169.226 216.165 168.73 216.068 168.294 215.875C167.858 215.678 167.514 215.388 167.26 215.006C167.01 214.619 166.885 214.138 166.885 213.562C166.885 213.078 166.974 212.67 167.152 212.341C167.33 212.011 167.572 211.746 167.879 211.545C168.186 211.345 168.535 211.193 168.925 211.091C169.319 210.989 169.732 210.917 170.163 210.875C170.671 210.822 171.08 210.773 171.391 210.727C171.701 210.678 171.927 210.606 172.067 210.511C172.207 210.417 172.277 210.277 172.277 210.091V210.057C172.277 209.697 172.163 209.419 171.936 209.222C171.713 209.025 171.394 208.926 170.982 208.926C170.546 208.926 170.199 209.023 169.942 209.216C169.684 209.405 169.514 209.644 169.43 209.932L167.192 209.75C167.305 209.22 167.529 208.761 167.862 208.375C168.196 207.985 168.625 207.686 169.152 207.477C169.682 207.265 170.296 207.159 170.993 207.159C171.478 207.159 171.942 207.216 172.385 207.33C172.832 207.443 173.228 207.619 173.572 207.858C173.921 208.097 174.196 208.403 174.396 208.778C174.597 209.15 174.697 209.595 174.697 210.114V216H172.402V214.79H172.334C172.194 215.062 172.006 215.303 171.771 215.511C171.536 215.716 171.254 215.877 170.925 215.994C170.595 216.108 170.214 216.165 169.783 216.165ZM170.476 214.494C170.832 214.494 171.146 214.424 171.419 214.284C171.692 214.14 171.906 213.947 172.061 213.705C172.216 213.462 172.294 213.187 172.294 212.881V211.955C172.218 212.004 172.114 212.049 171.982 212.091C171.853 212.129 171.707 212.165 171.544 212.199C171.381 212.229 171.218 212.258 171.055 212.284C170.893 212.307 170.745 212.328 170.612 212.347C170.328 212.388 170.08 212.455 169.868 212.545C169.656 212.636 169.491 212.759 169.374 212.915C169.256 213.066 169.197 213.256 169.197 213.483C169.197 213.812 169.317 214.064 169.555 214.239C169.798 214.409 170.105 214.494 170.476 214.494ZM180.518 216.17C179.625 216.17 178.856 215.981 178.212 215.602C177.571 215.22 177.079 214.689 176.734 214.011C176.393 213.333 176.223 212.553 176.223 211.67C176.223 210.777 176.395 209.992 176.74 209.318C177.089 208.64 177.583 208.112 178.223 207.733C178.863 207.35 179.625 207.159 180.507 207.159C181.268 207.159 181.935 207.297 182.507 207.574C183.079 207.85 183.532 208.239 183.865 208.739C184.198 209.239 184.382 209.826 184.416 210.5H182.132C182.068 210.064 181.897 209.714 181.621 209.449C181.348 209.18 180.99 209.045 180.547 209.045C180.172 209.045 179.844 209.148 179.564 209.352C179.287 209.553 179.071 209.847 178.916 210.233C178.761 210.619 178.683 211.087 178.683 211.636C178.683 212.193 178.759 212.667 178.911 213.057C179.066 213.447 179.284 213.744 179.564 213.949C179.844 214.153 180.172 214.256 180.547 214.256C180.823 214.256 181.071 214.199 181.291 214.085C181.515 213.972 181.698 213.807 181.842 213.591C181.99 213.371 182.087 213.108 182.132 212.801H184.416C184.378 213.468 184.196 214.055 183.871 214.562C183.549 215.066 183.104 215.46 182.536 215.744C181.967 216.028 181.295 216.17 180.518 216.17ZM189.909 216.17C189.015 216.17 188.246 215.981 187.602 215.602C186.962 215.22 186.47 214.689 186.125 214.011C185.784 213.333 185.614 212.553 185.614 211.67C185.614 210.777 185.786 209.992 186.131 209.318C186.479 208.64 186.973 208.112 187.614 207.733C188.254 207.35 189.015 207.159 189.898 207.159C190.659 207.159 191.326 207.297 191.898 207.574C192.47 207.85 192.922 208.239 193.256 208.739C193.589 209.239 193.773 209.826 193.807 210.5H191.523C191.458 210.064 191.288 209.714 191.011 209.449C190.739 209.18 190.381 209.045 189.938 209.045C189.562 209.045 189.235 209.148 188.955 209.352C188.678 209.553 188.462 209.847 188.307 210.233C188.152 210.619 188.074 211.087 188.074 211.636C188.074 212.193 188.15 212.667 188.301 213.057C188.456 213.447 188.674 213.744 188.955 213.949C189.235 214.153 189.562 214.256 189.938 214.256C190.214 214.256 190.462 214.199 190.682 214.085C190.905 213.972 191.089 213.807 191.233 213.591C191.381 213.371 191.477 213.108 191.523 212.801H193.807C193.769 213.468 193.587 214.055 193.261 214.562C192.939 215.066 192.494 215.46 191.926 215.744C191.358 216.028 190.686 216.17 189.909 216.17ZM199.3 216.17C198.417 216.17 197.654 215.983 197.01 215.608C196.37 215.229 195.875 214.703 195.527 214.028C195.179 213.35 195.004 212.564 195.004 211.67C195.004 210.769 195.179 209.981 195.527 209.307C195.875 208.629 196.37 208.102 197.01 207.727C197.654 207.348 198.417 207.159 199.3 207.159C200.182 207.159 200.944 207.348 201.584 207.727C202.228 208.102 202.724 208.629 203.072 209.307C203.421 209.981 203.595 210.769 203.595 211.67C203.595 212.564 203.421 213.35 203.072 214.028C202.724 214.703 202.228 215.229 201.584 215.608C200.944 215.983 200.182 216.17 199.3 216.17ZM199.311 214.295C199.713 214.295 200.048 214.182 200.317 213.955C200.586 213.723 200.788 213.409 200.925 213.011C201.065 212.614 201.135 212.161 201.135 211.653C201.135 211.146 201.065 210.693 200.925 210.295C200.788 209.898 200.586 209.583 200.317 209.352C200.048 209.121 199.713 209.006 199.311 209.006C198.906 209.006 198.565 209.121 198.288 209.352C198.016 209.583 197.809 209.898 197.669 210.295C197.533 210.693 197.464 211.146 197.464 211.653C197.464 212.161 197.533 212.614 197.669 213.011C197.809 213.409 198.016 213.723 198.288 213.955C198.565 214.182 198.906 214.295 199.311 214.295ZM210.766 212.284V207.273H213.186V216H210.862V214.415H210.771C210.574 214.926 210.247 215.337 209.788 215.648C209.334 215.958 208.779 216.114 208.124 216.114C207.54 216.114 207.027 215.981 206.584 215.716C206.141 215.451 205.794 215.074 205.544 214.585C205.298 214.097 205.173 213.511 205.169 212.83V207.273H207.589V212.398C207.593 212.913 207.732 213.32 208.004 213.619C208.277 213.919 208.643 214.068 209.101 214.068C209.393 214.068 209.665 214.002 209.919 213.869C210.173 213.733 210.377 213.532 210.533 213.267C210.692 213.002 210.769 212.674 210.766 212.284ZM217.543 210.955V216H215.122V207.273H217.429V208.812H217.531C217.724 208.305 218.048 207.903 218.503 207.608C218.957 207.309 219.509 207.159 220.156 207.159C220.762 207.159 221.291 207.292 221.741 207.557C222.192 207.822 222.543 208.201 222.793 208.693C223.043 209.182 223.168 209.765 223.168 210.443V216H220.747V210.875C220.751 210.341 220.615 209.924 220.338 209.625C220.062 209.322 219.681 209.17 219.196 209.17C218.87 209.17 218.582 209.241 218.332 209.381C218.086 209.521 217.893 209.725 217.753 209.994C217.616 210.259 217.546 210.58 217.543 210.955ZM229.717 207.273V209.091H224.462V207.273H229.717ZM225.655 205.182H228.075V213.318C228.075 213.542 228.109 213.716 228.178 213.841C228.246 213.962 228.34 214.047 228.462 214.097C228.587 214.146 228.731 214.17 228.893 214.17C229.007 214.17 229.121 214.161 229.234 214.142C229.348 214.119 229.435 214.102 229.496 214.091L229.876 215.892C229.755 215.93 229.585 215.973 229.365 216.023C229.145 216.076 228.878 216.108 228.564 216.119C227.981 216.142 227.469 216.064 227.03 215.886C226.594 215.708 226.255 215.432 226.013 215.057C225.77 214.682 225.651 214.208 225.655 213.636V205.182Z" fill="#6663CF"/>
<path d="M39.5954 136.782C39.0743 136.708 26.4587 135.095 26.9842 123.849C27.0325 122.816 27.167 121.876 27.376 121.024M39.5954 136.782C32.6807 136.344 29.167 133.749 27.5945 130.638M39.5954 136.782C40.432 136.901 41.2947 136.892 42.1483 136.762M27.376 121.024C27.6377 119.957 28.0162 119.028 28.4886 118.226M27.376 121.024C26.4339 123.525 25.9408 127.366 27.5945 130.638M28.4886 118.226C32.3618 111.652 42.5477 113.616 46.4264 118.226C47.9484 120.037 51.1382 124.629 49.5837 130.369C48.6093 133.967 45.448 136.262 42.1483 136.762M28.4886 118.226C27.0148 120.21 24.8765 124.857 26.7046 129.071M27.5945 130.638C27.2287 130.126 26.9351 129.602 26.7046 129.071M42.1483 136.762C37.7849 137.49 28.5876 136.97 26.7046 129.071" stroke="#6663CF" stroke-linecap="round"/>
<path d="M38.5954 91.7916C38.0743 91.7207 25.4587 90.1781 25.9842 79.4211C26.0325 78.4327 26.167 77.5337 26.376 76.7187M38.5954 91.7916C31.6807 91.3728 28.167 88.8899 26.5945 85.9142M38.5954 91.7916C39.432 91.9055 40.2947 91.8964 41.1483 91.7725M26.376 76.7187C26.6377 75.6983 27.0162 74.8097 27.4886 74.0426M26.376 76.7187C25.4339 79.1105 24.9408 82.7848 26.5945 85.9142M27.4886 74.0426C31.3618 67.7537 41.5477 69.6325 45.4264 74.0426C46.9484 75.7745 50.1382 80.1668 48.5837 85.6571C47.6093 89.0988 44.448 91.2936 41.1483 91.7725M27.4886 74.0426C26.0148 75.9404 23.8765 80.3848 25.7046 84.4153M26.5945 85.9142C26.2287 85.4251 25.9351 84.9235 25.7046 84.4153M41.1483 91.7725C36.7849 92.4683 27.5876 91.971 25.7046 84.4153" stroke="#6663CF" stroke-linecap="round"/>
<defs>
<linearGradient id="paint0_linear_1398_7263" x1="140.385" y1="20" x2="173.358" y2="59.4168" gradientUnits="userSpaceOnUse">
<stop stop-color="#5955B3"/>
<stop offset="1" stop-color="#6563CE"/>
</linearGradient>
</defs>
</svg>
