<svg width="325" height="290" viewBox="0 0 325 290" fill="none" xmlns="http://www.w3.org/2000/svg">
<rect width="325" height="290" rx="5" fill="white"/>
<path opacity="0.2" fill-rule="evenodd" clip-rule="evenodd" d="M324.665 269.81C324.613 280.783 315.724 289.668 304.75 289.713H171.145C177.237 275.753 202.684 247.832 255.738 247.832C308.791 247.832 323.794 226.116 324.665 215.258V269.81Z" fill="#89AFFF"/>
<path opacity="0.2" fill-rule="evenodd" clip-rule="evenodd" d="M149.339 0C147.452 10.5057 135.894 40.0486 88.2784 53.4492C42.0805 66.4509 11.6466 61.9796 0.329351 57.7773L0.329348 20C0.329347 8.95432 9.28362 1.09491e-05 20.3293 1.00855e-05L149.339 0Z" fill="#89AFFF"/>
<path d="M77.7248 40.2727C77.7248 42.1761 77.364 43.7955 76.6424 45.1307C75.9265 46.4659 74.9492 47.4858 73.7106 48.1903C72.4776 48.8892 71.0913 49.2386 69.5515 49.2386C68.0004 49.2386 66.6083 48.8864 65.3754 48.1818C64.1424 47.4773 63.168 46.4574 62.4521 45.1222C61.7362 43.7869 61.3782 42.1705 61.3782 40.2727C61.3782 38.3693 61.7362 36.75 62.4521 35.4148C63.168 34.0795 64.1424 33.0625 65.3754 32.3636C66.6083 31.6591 68.0004 31.3068 69.5515 31.3068C71.0913 31.3068 72.4776 31.6591 73.7106 32.3636C74.9492 33.0625 75.9265 34.0795 76.6424 35.4148C77.364 36.75 77.7248 38.3693 77.7248 40.2727ZM73.9833 40.2727C73.9833 39.0398 73.7987 38 73.4293 37.1534C73.0657 36.3068 72.5515 35.6648 71.8867 35.2273C71.2219 34.7898 70.4435 34.571 69.5515 34.571C68.6594 34.571 67.881 34.7898 67.2163 35.2273C66.5515 35.6648 66.0344 36.3068 65.6651 37.1534C65.3015 38 65.1197 39.0398 65.1197 40.2727C65.1197 41.5057 65.3015 42.5455 65.6651 43.392C66.0344 44.2386 66.5515 44.8807 67.2163 45.3182C67.881 45.7557 68.6594 45.9744 69.5515 45.9744C70.4435 45.9744 71.2219 45.7557 71.8867 45.3182C72.5515 44.8807 73.0657 44.2386 73.4293 43.392C73.7987 42.5455 73.9833 41.5057 73.9833 40.2727ZM84.021 41.4318V49H80.3903V35.9091H83.8505V38.2188H84.0039C84.2937 37.4574 84.7795 36.8551 85.4613 36.4119C86.1431 35.9631 86.9698 35.7386 87.9414 35.7386C88.8505 35.7386 89.6431 35.9375 90.3192 36.3352C90.9954 36.733 91.521 37.3011 91.896 38.0398C92.271 38.7727 92.4585 39.6477 92.4585 40.6648V49H88.8278V41.3125C88.8335 40.5114 88.6289 39.8864 88.2141 39.4375C87.7994 38.983 87.2283 38.7557 86.5011 38.7557C86.0124 38.7557 85.5806 38.8608 85.2056 39.071C84.8363 39.2812 84.5465 39.5881 84.3363 39.9915C84.1317 40.3892 84.0266 40.8693 84.021 41.4318ZM98.9506 31.5455V49H95.32V31.5455H98.9506ZM101.859 49V35.9091H105.49V49H101.859ZM103.683 34.2216C103.143 34.2216 102.68 34.0426 102.294 33.6847C101.913 33.321 101.723 32.8864 101.723 32.3807C101.723 31.8807 101.913 31.4517 102.294 31.0938C102.68 30.7301 103.143 30.5483 103.683 30.5483C104.223 30.5483 104.683 30.7301 105.064 31.0938C105.45 31.4517 105.643 31.8807 105.643 32.3807C105.643 32.8864 105.45 33.321 105.064 33.6847C104.683 34.0426 104.223 34.2216 103.683 34.2216ZM112.029 41.4318V49H108.398V35.9091H111.858V38.2188H112.012C112.301 37.4574 112.787 36.8551 113.469 36.4119C114.151 35.9631 114.978 35.7386 115.949 35.7386C116.858 35.7386 117.651 35.9375 118.327 36.3352C119.003 36.733 119.529 37.3011 119.904 38.0398C120.279 38.7727 120.466 39.6477 120.466 40.6648V49H116.836V41.3125C116.841 40.5114 116.637 39.8864 116.222 39.4375C115.807 38.983 115.236 38.7557 114.509 38.7557C114.02 38.7557 113.588 38.8608 113.213 39.071C112.844 39.2812 112.554 39.5881 112.344 39.9915C112.14 40.3892 112.034 40.8693 112.029 41.4318ZM129.294 49.2557C127.947 49.2557 126.788 48.983 125.816 48.4375C124.85 47.8864 124.106 47.108 123.583 46.1023C123.061 45.0909 122.799 43.8949 122.799 42.5142C122.799 41.1676 123.061 39.9858 123.583 38.9688C124.106 37.9517 124.842 37.1591 125.791 36.5909C126.745 36.0227 127.865 35.7386 129.149 35.7386C130.012 35.7386 130.816 35.8778 131.561 36.1562C132.311 36.429 132.964 36.8409 133.521 37.392C134.083 37.9432 134.521 38.6364 134.833 39.4716C135.146 40.3011 135.302 41.2727 135.302 42.3864V43.3835H124.248V41.1335H131.885C131.885 40.6108 131.771 40.1477 131.544 39.7443C131.316 39.3409 131.001 39.0256 130.598 38.7983C130.2 38.5653 129.737 38.4489 129.208 38.4489C128.657 38.4489 128.169 38.5767 127.743 38.8324C127.322 39.0824 126.993 39.4205 126.754 39.8466C126.515 40.267 126.393 40.7358 126.387 41.2528V43.392C126.387 44.0398 126.507 44.5994 126.745 45.071C126.99 45.5426 127.333 45.9062 127.777 46.1619C128.22 46.4176 128.745 46.5455 129.353 46.5455C129.757 46.5455 130.126 46.4886 130.461 46.375C130.797 46.2614 131.083 46.0909 131.322 45.8636C131.561 45.6364 131.743 45.358 131.868 45.0284L135.225 45.25C135.055 46.0568 134.706 46.7614 134.177 47.3636C133.654 47.9602 132.978 48.4261 132.149 48.7614C131.325 49.0909 130.373 49.2557 129.294 49.2557ZM149.141 49.2557C147.8 49.2557 146.647 48.9716 145.681 48.4034C144.721 47.8295 143.982 47.0341 143.465 46.017C142.953 45 142.698 43.8295 142.698 42.5057C142.698 41.1648 142.956 39.9886 143.473 38.9773C143.996 37.9602 144.738 37.1676 145.698 36.5994C146.658 36.0256 147.8 35.7386 149.124 35.7386C150.266 35.7386 151.266 35.946 152.124 36.3608C152.982 36.7756 153.661 37.358 154.161 38.108C154.661 38.858 154.936 39.7386 154.988 40.75H151.561C151.465 40.0966 151.209 39.571 150.794 39.1733C150.385 38.7699 149.848 38.5682 149.184 38.5682C148.621 38.5682 148.13 38.7216 147.709 39.0284C147.294 39.3295 146.971 39.7699 146.738 40.3494C146.505 40.929 146.388 41.6307 146.388 42.4545C146.388 43.2898 146.502 44 146.729 44.5852C146.962 45.1705 147.289 45.6165 147.709 45.9233C148.13 46.2301 148.621 46.3835 149.184 46.3835C149.598 46.3835 149.971 46.2983 150.3 46.1278C150.635 45.9574 150.911 45.7102 151.127 45.3864C151.348 45.0568 151.493 44.6619 151.561 44.2017H154.988C154.931 45.2017 154.658 46.0824 154.169 46.8438C153.686 47.5994 153.019 48.1903 152.167 48.6165C151.314 49.0426 150.306 49.2557 149.141 49.2557ZM163.227 49.2557C161.903 49.2557 160.758 48.9744 159.792 48.4119C158.832 47.8437 158.091 47.054 157.568 46.0426C157.045 45.0256 156.784 43.8466 156.784 42.5057C156.784 41.1534 157.045 39.9716 157.568 38.9602C158.091 37.9432 158.832 37.1534 159.792 36.5909C160.758 36.0227 161.903 35.7386 163.227 35.7386C164.551 35.7386 165.693 36.0227 166.653 36.5909C167.619 37.1534 168.363 37.9432 168.886 38.9602C169.409 39.9716 169.67 41.1534 169.67 42.5057C169.67 43.8466 169.409 45.0256 168.886 46.0426C168.363 47.054 167.619 47.8437 166.653 48.4119C165.693 48.9744 164.551 49.2557 163.227 49.2557ZM163.244 46.4432C163.846 46.4432 164.349 46.2727 164.752 45.9318C165.156 45.5852 165.46 45.1136 165.664 44.517C165.875 43.9205 165.98 43.2415 165.98 42.4801C165.98 41.7188 165.875 41.0398 165.664 40.4432C165.46 39.8466 165.156 39.375 164.752 39.0284C164.349 38.6818 163.846 38.5085 163.244 38.5085C162.636 38.5085 162.125 38.6818 161.71 39.0284C161.301 39.375 160.991 39.8466 160.781 40.4432C160.576 41.0398 160.474 41.7188 160.474 42.4801C160.474 43.2415 160.576 43.9205 160.781 44.517C160.991 45.1136 161.301 45.5852 161.71 45.9318C162.125 46.2727 162.636 46.4432 163.244 46.4432ZM180.426 43.4261V35.9091H184.056V49H180.571V46.6222H180.434C180.139 47.3892 179.647 48.0057 178.96 48.4716C178.278 48.9375 177.446 49.1705 176.463 49.1705C175.588 49.1705 174.818 48.9716 174.153 48.5739C173.488 48.1761 172.968 47.6108 172.593 46.8778C172.224 46.1449 172.037 45.267 172.031 44.2443V35.9091H175.662V43.5966C175.667 44.3693 175.875 44.9801 176.284 45.429C176.693 45.8778 177.241 46.1023 177.929 46.1023C178.366 46.1023 178.775 46.0028 179.156 45.804C179.537 45.5994 179.843 45.2983 180.076 44.9006C180.315 44.5028 180.431 44.0114 180.426 43.4261ZM186.961 49V35.9091H190.48V38.1932H190.617C190.855 37.3807 191.256 36.767 191.819 36.3523C192.381 35.9318 193.029 35.7216 193.762 35.7216C193.944 35.7216 194.14 35.733 194.35 35.7557C194.56 35.7784 194.745 35.8097 194.904 35.8494V39.071C194.733 39.0199 194.498 38.9744 194.196 38.9347C193.895 38.8949 193.62 38.875 193.37 38.875C192.836 38.875 192.358 38.9915 191.938 39.2244C191.523 39.4517 191.194 39.7699 190.949 40.179C190.711 40.5881 190.591 41.0597 190.591 41.5938V49H186.961ZM207.673 39.642L204.349 39.8466C204.292 39.5625 204.17 39.3068 203.983 39.0795C203.795 38.8466 203.548 38.6619 203.241 38.5256C202.94 38.3835 202.579 38.3125 202.159 38.3125C201.596 38.3125 201.122 38.4318 200.735 38.6705C200.349 38.9034 200.156 39.2159 200.156 39.608C200.156 39.9205 200.281 40.1847 200.531 40.4006C200.781 40.6165 201.21 40.7898 201.818 40.9205L204.187 41.3977C205.46 41.6591 206.409 42.0795 207.034 42.6591C207.659 43.2386 207.971 44 207.971 44.9432C207.971 45.8011 207.718 46.554 207.213 47.2017C206.713 47.8494 206.025 48.3551 205.15 48.7188C204.281 49.0767 203.278 49.2557 202.142 49.2557C200.409 49.2557 199.028 48.8949 198 48.1733C196.977 47.446 196.377 46.4574 196.201 45.2074L199.772 45.0199C199.88 45.5483 200.142 45.9517 200.556 46.2301C200.971 46.5028 201.502 46.6392 202.15 46.6392C202.787 46.6392 203.298 46.517 203.684 46.2727C204.076 46.0227 204.275 45.7017 204.281 45.3097C204.275 44.9801 204.136 44.7102 203.863 44.5C203.591 44.2841 203.17 44.1193 202.602 44.0057L200.335 43.554C199.056 43.2983 198.105 42.8551 197.48 42.2244C196.86 41.5937 196.551 40.7898 196.551 39.8125C196.551 38.9716 196.778 38.2472 197.233 37.6392C197.693 37.0312 198.338 36.5625 199.167 36.233C200.002 35.9034 200.98 35.7386 202.099 35.7386C203.752 35.7386 205.054 36.0881 206.002 36.7869C206.957 37.4858 207.514 38.4375 207.673 39.642ZM216.223 49.2557C214.877 49.2557 213.718 48.983 212.746 48.4375C211.78 47.8864 211.036 47.108 210.513 46.1023C209.99 45.0909 209.729 43.8949 209.729 42.5142C209.729 41.1676 209.99 39.9858 210.513 38.9688C211.036 37.9517 211.772 37.1591 212.721 36.5909C213.675 36.0227 214.794 35.7386 216.078 35.7386C216.942 35.7386 217.746 35.8778 218.49 36.1562C219.24 36.429 219.894 36.8409 220.451 37.392C221.013 37.9432 221.451 38.6364 221.763 39.4716C222.076 40.3011 222.232 41.2727 222.232 42.3864V43.3835H211.178V41.1335H218.814C218.814 40.6108 218.701 40.1477 218.473 39.7443C218.246 39.3409 217.931 39.0256 217.527 38.7983C217.13 38.5653 216.667 38.4489 216.138 38.4489C215.587 38.4489 215.098 38.5767 214.672 38.8324C214.252 39.0824 213.922 39.4205 213.684 39.8466C213.445 40.267 213.323 40.7358 213.317 41.2528V43.392C213.317 44.0398 213.436 44.5994 213.675 45.071C213.919 45.5426 214.263 45.9062 214.706 46.1619C215.15 46.4176 215.675 46.5455 216.283 46.5455C216.686 46.5455 217.056 46.4886 217.391 46.375C217.726 46.2614 218.013 46.0909 218.252 45.8636C218.49 45.6364 218.672 45.358 218.797 45.0284L222.155 45.25C221.985 46.0568 221.635 46.7614 221.107 47.3636C220.584 47.9602 219.908 48.4261 219.078 48.7614C218.255 49.0909 217.303 49.2557 216.223 49.2557ZM235.493 39.642L232.169 39.8466C232.113 39.5625 231.99 39.3068 231.803 39.0795C231.615 38.8466 231.368 38.6619 231.061 38.5256C230.76 38.3835 230.4 38.3125 229.979 38.3125C229.417 38.3125 228.942 38.4318 228.556 38.6705C228.169 38.9034 227.976 39.2159 227.976 39.608C227.976 39.9205 228.101 40.1847 228.351 40.4006C228.601 40.6165 229.03 40.7898 229.638 40.9205L232.007 41.3977C233.28 41.6591 234.229 42.0795 234.854 42.6591C235.479 43.2386 235.792 44 235.792 44.9432C235.792 45.8011 235.539 46.554 235.033 47.2017C234.533 47.8494 233.846 48.3551 232.971 48.7188C232.101 49.0767 231.098 49.2557 229.962 49.2557C228.229 49.2557 226.848 48.8949 225.82 48.1733C224.797 47.446 224.198 46.4574 224.022 45.2074L227.593 45.0199C227.701 45.5483 227.962 45.9517 228.377 46.2301C228.792 46.5028 229.323 46.6392 229.971 46.6392C230.607 46.6392 231.118 46.517 231.505 46.2727C231.897 46.0227 232.096 45.7017 232.101 45.3097C232.096 44.9801 231.956 44.7102 231.684 44.5C231.411 44.2841 230.99 44.1193 230.422 44.0057L228.155 43.554C226.877 43.2983 225.925 42.8551 225.3 42.2244C224.681 41.5937 224.371 40.7898 224.371 39.8125C224.371 38.9716 224.598 38.2472 225.053 37.6392C225.513 37.0312 226.158 36.5625 226.988 36.233C227.823 35.9034 228.8 35.7386 229.919 35.7386C231.573 35.7386 232.874 36.0881 233.823 36.7869C234.777 37.4858 235.334 38.4375 235.493 39.642ZM249.547 49.2557C248.223 49.2557 247.078 48.9744 246.113 48.4119C245.152 47.8437 244.411 47.054 243.888 46.0426C243.365 45.0256 243.104 43.8466 243.104 42.5057C243.104 41.1534 243.365 39.9716 243.888 38.9602C244.411 37.9432 245.152 37.1534 246.113 36.5909C247.078 36.0227 248.223 35.7386 249.547 35.7386C250.871 35.7386 252.013 36.0227 252.973 36.5909C253.939 37.1534 254.684 37.9432 255.206 38.9602C255.729 39.9716 255.99 41.1534 255.99 42.5057C255.99 43.8466 255.729 45.0256 255.206 46.0426C254.684 47.054 253.939 47.8437 252.973 48.4119C252.013 48.9744 250.871 49.2557 249.547 49.2557ZM249.564 46.4432C250.167 46.4432 250.669 46.2727 251.073 45.9318C251.476 45.5852 251.78 45.1136 251.985 44.517C252.195 43.9205 252.3 43.2415 252.3 42.4801C252.3 41.7188 252.195 41.0398 251.985 40.4432C251.78 39.8466 251.476 39.375 251.073 39.0284C250.669 38.6818 250.167 38.5085 249.564 38.5085C248.956 38.5085 248.445 38.6818 248.03 39.0284C247.621 39.375 247.311 39.8466 247.101 40.4432C246.897 41.0398 246.794 41.7188 246.794 42.4801C246.794 43.2415 246.897 43.9205 247.101 44.517C247.311 45.1136 247.621 45.5852 248.03 45.9318C248.445 46.2727 248.956 46.4432 249.564 46.4432ZM261.982 41.4318V49H258.351V35.9091H261.811V38.2188H261.965C262.255 37.4574 262.74 36.8551 263.422 36.4119C264.104 35.9631 264.931 35.7386 265.902 35.7386C266.811 35.7386 267.604 35.9375 268.28 36.3352C268.956 36.733 269.482 37.3011 269.857 38.0398C270.232 38.7727 270.419 39.6477 270.419 40.6648V49H266.789V41.3125C266.794 40.5114 266.59 39.8864 266.175 39.4375C265.76 38.983 265.189 38.7557 264.462 38.7557C263.973 38.7557 263.542 38.8608 263.167 39.071C262.797 39.2812 262.507 39.5881 262.297 39.9915C262.093 40.3892 261.988 40.8693 261.982 41.4318ZM118.076 61.5455H121.766V72.8807C121.766 74.1534 121.462 75.267 120.854 76.2216C120.252 77.1761 119.408 77.9205 118.323 78.4545C117.238 78.983 115.973 79.2472 114.53 79.2472C113.081 79.2472 111.814 78.983 110.729 78.4545C109.644 77.9205 108.8 77.1761 108.198 76.2216C107.596 75.267 107.294 74.1534 107.294 72.8807V61.5455H110.985V72.5653C110.985 73.2301 111.13 73.821 111.419 74.3381C111.715 74.8551 112.13 75.2614 112.664 75.5568C113.198 75.8523 113.82 76 114.53 76C115.246 76 115.868 75.8523 116.397 75.5568C116.931 75.2614 117.343 74.8551 117.632 74.3381C117.928 73.821 118.076 73.2301 118.076 72.5653V61.5455ZM128.365 61.5455V79H124.734V61.5455H128.365ZM137.239 79.2557C135.892 79.2557 134.733 78.983 133.762 78.4375C132.796 77.8864 132.051 77.108 131.529 76.1023C131.006 75.0909 130.745 73.8949 130.745 72.5142C130.745 71.1676 131.006 69.9858 131.529 68.9688C132.051 67.9517 132.787 67.1591 133.736 66.5909C134.691 66.0227 135.81 65.7386 137.094 65.7386C137.958 65.7386 138.762 65.8778 139.506 66.1562C140.256 66.429 140.909 66.8409 141.466 67.392C142.029 67.9432 142.466 68.6364 142.779 69.4716C143.091 70.3011 143.248 71.2727 143.248 72.3864V73.3835H132.194V71.1335H139.83C139.83 70.6108 139.716 70.1477 139.489 69.7443C139.262 69.3409 138.946 69.0256 138.543 68.7983C138.145 68.5653 137.682 68.4489 137.154 68.4489C136.603 68.4489 136.114 68.5767 135.688 68.8324C135.267 69.0824 134.938 69.4205 134.699 69.8466C134.461 70.267 134.338 70.7358 134.333 71.2528V73.392C134.333 74.0398 134.452 74.5994 134.691 75.071C134.935 75.5426 135.279 75.9062 135.722 76.1619C136.165 76.4176 136.691 76.5455 137.299 76.5455C137.702 76.5455 138.071 76.4886 138.407 76.375C138.742 76.2614 139.029 76.0909 139.267 75.8636C139.506 75.6364 139.688 75.358 139.813 75.0284L143.171 75.25C143 76.0568 142.651 76.7614 142.123 77.3636C141.6 77.9602 140.924 78.4261 140.094 78.7614C139.27 79.0909 138.319 79.2557 137.239 79.2557ZM149.35 79.2472C148.515 79.2472 147.77 79.1023 147.117 78.8125C146.463 78.517 145.946 78.0824 145.566 77.5085C145.191 76.929 145.003 76.2074 145.003 75.3438C145.003 74.6165 145.137 74.0057 145.404 73.5114C145.671 73.017 146.034 72.6193 146.495 72.3182C146.955 72.017 147.478 71.7898 148.063 71.6364C148.654 71.483 149.273 71.375 149.921 71.3125C150.682 71.233 151.296 71.1591 151.762 71.0909C152.228 71.017 152.566 70.9091 152.776 70.767C152.986 70.625 153.091 70.4148 153.091 70.1364V70.0852C153.091 69.5455 152.921 69.1278 152.58 68.8324C152.245 68.5369 151.767 68.3892 151.148 68.3892C150.495 68.3892 149.975 68.5341 149.588 68.8239C149.202 69.108 148.946 69.4659 148.821 69.8977L145.463 69.625C145.634 68.8295 145.969 68.142 146.469 67.5625C146.969 66.9773 147.614 66.5284 148.404 66.2159C149.199 65.8977 150.12 65.7386 151.165 65.7386C151.892 65.7386 152.588 65.8239 153.253 65.9943C153.924 66.1648 154.517 66.429 155.034 66.7869C155.557 67.1449 155.969 67.6051 156.27 68.1676C156.571 68.7244 156.722 69.392 156.722 70.1705V79H153.279V77.1847H153.176C152.966 77.5938 152.685 77.9545 152.333 78.267C151.98 78.5739 151.557 78.8153 151.063 78.9915C150.569 79.1619 149.998 79.2472 149.35 79.2472ZM150.39 76.7415C150.924 76.7415 151.395 76.6364 151.804 76.4261C152.213 76.2102 152.534 75.9205 152.767 75.5568C153 75.1932 153.117 74.7812 153.117 74.321V72.9318C153.003 73.0057 152.847 73.0739 152.648 73.1364C152.455 73.1932 152.236 73.2472 151.992 73.2983C151.748 73.3437 151.503 73.3864 151.259 73.4261C151.015 73.4602 150.793 73.4915 150.594 73.5199C150.168 73.5824 149.796 73.6818 149.478 73.8182C149.159 73.9545 148.912 74.1392 148.736 74.3722C148.56 74.5994 148.472 74.8835 148.472 75.2244C148.472 75.7188 148.651 76.0966 149.009 76.358C149.373 76.6136 149.833 76.7415 150.39 76.7415ZM159.539 79V65.9091H163.059V68.1932H163.195C163.434 67.3807 163.834 66.767 164.397 66.3523C164.959 65.9318 165.607 65.7216 166.34 65.7216C166.522 65.7216 166.718 65.733 166.928 65.7557C167.138 65.7784 167.323 65.8097 167.482 65.8494V69.071C167.311 69.0199 167.076 68.9744 166.775 68.9347C166.473 68.8949 166.198 68.875 165.948 68.875C165.414 68.875 164.936 68.9915 164.516 69.2244C164.101 69.4517 163.772 69.7699 163.527 70.179C163.289 70.5881 163.169 71.0597 163.169 71.5938V79H159.539ZM172.99 71.4318V79H169.359V65.9091H172.819V68.2188H172.973C173.262 67.4574 173.748 66.8551 174.43 66.4119C175.112 65.9631 175.939 65.7386 176.91 65.7386C177.819 65.7386 178.612 65.9375 179.288 66.3352C179.964 66.733 180.49 67.3011 180.865 68.0398C181.24 68.7727 181.427 69.6477 181.427 70.6648V79H177.797V71.3125C177.802 70.5114 177.598 69.8864 177.183 69.4375C176.768 68.983 176.197 68.7557 175.47 68.7557C174.981 68.7557 174.549 68.8608 174.174 69.071C173.805 69.2812 173.515 69.5881 173.305 69.9915C173.1 70.3892 172.995 70.8693 172.99 71.4318ZM186.411 79.2216C185.848 79.2216 185.365 79.0227 184.962 78.625C184.564 78.2216 184.365 77.7386 184.365 77.1761C184.365 76.6193 184.564 76.142 184.962 75.7443C185.365 75.3466 185.848 75.1477 186.411 75.1477C186.956 75.1477 187.434 75.3466 187.843 75.7443C188.252 76.142 188.456 76.6193 188.456 77.1761C188.456 77.5511 188.36 77.8949 188.167 78.2074C187.979 78.5142 187.732 78.7614 187.425 78.9489C187.118 79.1307 186.78 79.2216 186.411 79.2216ZM191.437 79V65.9091H194.897V68.2188H195.051C195.324 67.4517 195.778 66.8466 196.414 66.4034C197.051 65.9602 197.812 65.7386 198.699 65.7386C199.596 65.7386 200.36 65.9631 200.991 66.4119C201.622 66.8551 202.042 67.4574 202.252 68.2188H202.389C202.656 67.4688 203.139 66.8693 203.838 66.4205C204.542 65.9659 205.375 65.7386 206.335 65.7386C207.556 65.7386 208.548 66.1278 209.309 66.9062C210.076 67.679 210.46 68.7756 210.46 70.196V79H206.838V70.9119C206.838 70.1847 206.645 69.6392 206.258 69.2756C205.872 68.9119 205.389 68.7301 204.809 68.7301C204.15 68.7301 203.636 68.9403 203.267 69.3608C202.897 69.7756 202.713 70.3239 202.713 71.0057V79H199.193V70.8352C199.193 70.1932 199.008 69.6818 198.639 69.3011C198.275 68.9205 197.795 68.7301 197.199 68.7301C196.795 68.7301 196.431 68.8324 196.108 69.0369C195.789 69.2358 195.537 69.517 195.349 69.8807C195.162 70.2386 195.068 70.6591 195.068 71.142V79H191.437ZM219.294 79.2557C217.947 79.2557 216.788 78.983 215.816 78.4375C214.85 77.8864 214.106 77.108 213.583 76.1023C213.061 75.0909 212.799 73.8949 212.799 72.5142C212.799 71.1676 213.061 69.9858 213.583 68.9688C214.106 67.9517 214.842 67.1591 215.791 66.5909C216.745 66.0227 217.865 65.7386 219.149 65.7386C220.012 65.7386 220.816 65.8778 221.561 66.1562C222.311 66.429 222.964 66.8409 223.521 67.392C224.083 67.9432 224.521 68.6364 224.833 69.4716C225.146 70.3011 225.302 71.2727 225.302 72.3864V73.3835H214.248V71.1335H221.885C221.885 70.6108 221.771 70.1477 221.544 69.7443C221.316 69.3409 221.001 69.0256 220.598 68.7983C220.2 68.5653 219.737 68.4489 219.208 68.4489C218.657 68.4489 218.169 68.5767 217.743 68.8324C217.322 69.0824 216.993 69.4205 216.754 69.8466C216.515 70.267 216.393 70.7358 216.387 71.2528V73.392C216.387 74.0398 216.507 74.5994 216.745 75.071C216.99 75.5426 217.333 75.9062 217.777 76.1619C218.22 76.4176 218.745 76.5455 219.353 76.5455C219.757 76.5455 220.126 76.4886 220.461 76.375C220.797 76.2614 221.083 76.0909 221.322 75.8636C221.561 75.6364 221.743 75.358 221.868 75.0284L225.225 75.25C225.055 76.0568 224.706 76.7614 224.177 77.3636C223.654 77.9602 222.978 78.4261 222.149 78.7614C221.325 79.0909 220.373 79.2557 219.294 79.2557Z" fill="url(#paint0_linear_1398_7177)"/>
<path d="M113.119 103V92.8182H116.748C117.537 92.8182 118.191 92.9541 118.712 93.2259C119.235 93.4976 119.626 93.8738 119.885 94.3544C120.143 94.8317 120.273 95.3835 120.273 96.0099C120.273 96.633 120.142 97.1816 119.88 97.6555C119.621 98.1262 119.23 98.4924 118.707 98.7543C118.186 99.0161 117.532 99.147 116.743 99.147H113.994V97.8246H116.604C117.101 97.8246 117.505 97.7533 117.817 97.6108C118.132 97.4683 118.362 97.2611 118.508 96.9893C118.654 96.7176 118.727 96.3911 118.727 96.0099C118.727 95.6255 118.652 95.2924 118.503 95.0107C118.357 94.7289 118.127 94.5135 117.812 94.3643C117.5 94.2119 117.091 94.1357 116.584 94.1357H114.655V103H113.119ZM118.145 98.4062L120.661 103H118.911L116.445 98.4062H118.145ZM125.218 103.154C124.466 103.154 123.818 102.993 123.274 102.672C122.734 102.347 122.316 101.891 122.021 101.305C121.73 100.715 121.584 100.024 121.584 99.2315C121.584 98.4493 121.73 97.7599 122.021 97.1634C122.316 96.5668 122.727 96.1011 123.254 95.7663C123.785 95.4316 124.405 95.2642 125.114 95.2642C125.545 95.2642 125.962 95.3355 126.367 95.478C126.771 95.6205 127.134 95.8442 127.455 96.1491C127.777 96.4541 128.03 96.8501 128.216 97.3374C128.402 97.8213 128.494 98.4096 128.494 99.1023V99.6293H122.424V98.5156H127.038C127.038 98.1245 126.958 97.7782 126.799 97.4766C126.64 97.1716 126.416 96.9313 126.128 96.7557C125.843 96.58 125.508 96.4922 125.124 96.4922C124.706 96.4922 124.342 96.5949 124.03 96.8004C123.722 97.0026 123.483 97.2678 123.314 97.5959C123.148 97.9207 123.066 98.2737 123.066 98.6548V99.5249C123.066 100.035 123.155 100.469 123.334 100.827C123.516 101.185 123.77 101.459 124.095 101.648C124.419 101.833 124.799 101.926 125.233 101.926C125.515 101.926 125.772 101.886 126.004 101.807C126.236 101.724 126.436 101.601 126.605 101.439C126.774 101.277 126.904 101.076 126.993 100.837L128.4 101.091C128.287 101.505 128.085 101.868 127.794 102.18C127.505 102.488 127.142 102.728 126.705 102.901C126.271 103.07 125.775 103.154 125.218 103.154ZM133.346 106.023C132.739 106.023 132.217 105.943 131.779 105.784C131.345 105.625 130.991 105.415 130.716 105.153C130.44 104.891 130.235 104.604 130.099 104.293L131.377 103.766C131.466 103.911 131.586 104.066 131.735 104.228C131.887 104.394 132.093 104.535 132.351 104.651C132.613 104.767 132.949 104.825 133.36 104.825C133.924 104.825 134.39 104.687 134.757 104.412C135.125 104.14 135.309 103.706 135.309 103.109V101.608H135.215C135.125 101.77 134.996 101.951 134.827 102.15C134.661 102.349 134.433 102.521 134.141 102.667C133.849 102.813 133.47 102.886 133.002 102.886C132.399 102.886 131.856 102.745 131.372 102.463C130.891 102.178 130.51 101.759 130.228 101.205C129.95 100.648 129.811 99.964 129.811 99.152C129.811 98.34 129.948 97.6439 130.223 97.0639C130.502 96.4839 130.883 96.0398 131.367 95.7315C131.851 95.42 132.399 95.2642 133.012 95.2642C133.486 95.2642 133.869 95.3438 134.161 95.5028C134.453 95.6586 134.68 95.8409 134.842 96.0497C135.008 96.2585 135.135 96.4425 135.225 96.6016H135.334V95.3636H136.791V103.169C136.791 103.825 136.638 104.364 136.333 104.785C136.029 105.206 135.616 105.517 135.096 105.719C134.578 105.922 133.995 106.023 133.346 106.023ZM133.331 101.653C133.758 101.653 134.119 101.553 134.414 101.354C134.713 101.152 134.938 100.864 135.091 100.489C135.246 100.112 135.324 99.6591 135.324 99.1321C135.324 98.6184 135.248 98.166 135.096 97.7749C134.943 97.3838 134.719 97.0788 134.424 96.8601C134.129 96.638 133.765 96.527 133.331 96.527C132.883 96.527 132.51 96.643 132.212 96.875C131.914 97.1037 131.688 97.4152 131.536 97.8097C131.387 98.2041 131.312 98.6449 131.312 99.1321C131.312 99.6326 131.388 100.072 131.541 100.45C131.693 100.827 131.919 101.122 132.217 101.335C132.519 101.547 132.89 101.653 133.331 101.653ZM138.784 103V95.3636H140.271V103H138.784ZM139.535 94.1854C139.277 94.1854 139.055 94.0992 138.869 93.9268C138.687 93.7512 138.596 93.5424 138.596 93.3004C138.596 93.0552 138.687 92.8464 138.869 92.674C139.055 92.4983 139.277 92.4105 139.535 92.4105C139.794 92.4105 140.014 92.4983 140.196 92.674C140.382 92.8464 140.475 93.0552 140.475 93.3004C140.475 93.5424 140.382 93.7512 140.196 93.9268C140.014 94.0992 139.794 94.1854 139.535 94.1854ZM147.993 97.228L146.646 97.4666C146.589 97.2943 146.5 97.1302 146.377 96.9744C146.258 96.8187 146.096 96.6911 145.89 96.5916C145.685 96.4922 145.428 96.4425 145.119 96.4425C144.699 96.4425 144.347 96.5369 144.066 96.7259C143.784 96.9115 143.643 97.1518 143.643 97.4467C143.643 97.7019 143.737 97.9074 143.926 98.0632C144.115 98.219 144.42 98.3466 144.841 98.446L146.054 98.7244C146.757 98.8868 147.28 99.1371 147.625 99.4751C147.97 99.8132 148.142 100.252 148.142 100.793C148.142 101.25 148.01 101.658 147.744 102.016C147.483 102.37 147.116 102.649 146.646 102.851C146.178 103.053 145.637 103.154 145.02 103.154C144.165 103.154 143.467 102.972 142.927 102.607C142.387 102.239 142.055 101.717 141.933 101.041L143.369 100.822C143.459 101.197 143.643 101.48 143.921 101.673C144.2 101.862 144.563 101.956 145.01 101.956C145.497 101.956 145.887 101.855 146.178 101.653C146.47 101.447 146.616 101.197 146.616 100.902C146.616 100.663 146.526 100.463 146.347 100.3C146.172 100.138 145.902 100.015 145.537 99.9325L144.244 99.6491C143.532 99.4867 143.005 99.2282 142.664 98.8736C142.325 98.5189 142.156 98.0698 142.156 97.5263C142.156 97.0755 142.282 96.6811 142.534 96.343C142.786 96.005 143.134 95.7415 143.578 95.5526C144.022 95.3603 144.531 95.2642 145.105 95.2642C145.93 95.2642 146.579 95.4432 147.053 95.8011C147.527 96.1558 147.841 96.6314 147.993 97.228ZM153.341 95.3636V96.5568H149.17V95.3636H153.341ZM150.289 93.5341H151.775V100.758C151.775 101.046 151.818 101.263 151.904 101.409C151.991 101.552 152.102 101.649 152.238 101.702C152.377 101.752 152.528 101.777 152.69 101.777C152.809 101.777 152.914 101.769 153.003 101.752C153.093 101.736 153.162 101.722 153.212 101.712L153.48 102.94C153.394 102.973 153.272 103.007 153.113 103.04C152.953 103.076 152.755 103.096 152.516 103.099C152.125 103.106 151.76 103.036 151.422 102.891C151.084 102.745 150.811 102.519 150.602 102.214C150.393 101.91 150.289 101.527 150.289 101.066V93.5341ZM158.195 103.154C157.442 103.154 156.794 102.993 156.251 102.672C155.711 102.347 155.293 101.891 154.998 101.305C154.706 100.715 154.561 100.024 154.561 99.2315C154.561 98.4493 154.706 97.7599 154.998 97.1634C155.293 96.5668 155.704 96.1011 156.231 95.7663C156.761 95.4316 157.381 95.2642 158.09 95.2642C158.521 95.2642 158.939 95.3355 159.343 95.478C159.748 95.6205 160.11 95.8442 160.432 96.1491C160.753 96.4541 161.007 96.8501 161.193 97.3374C161.378 97.8213 161.471 98.4096 161.471 99.1023V99.6293H155.401V98.5156H160.014C160.014 98.1245 159.935 97.7782 159.776 97.4766C159.617 97.1716 159.393 96.9313 159.105 96.7557C158.82 96.58 158.485 96.4922 158.1 96.4922C157.683 96.4922 157.318 96.5949 157.007 96.8004C156.698 97.0026 156.46 97.2678 156.291 97.5959C156.125 97.9207 156.042 98.2737 156.042 98.6548V99.5249C156.042 100.035 156.132 100.469 156.311 100.827C156.493 101.185 156.746 101.459 157.071 101.648C157.396 101.833 157.776 101.926 158.21 101.926C158.491 101.926 158.748 101.886 158.98 101.807C159.212 101.724 159.413 101.601 159.582 101.439C159.751 101.277 159.88 101.076 159.97 100.837L161.377 101.091C161.264 101.505 161.062 101.868 160.77 102.18C160.482 102.488 160.119 102.728 159.681 102.901C159.247 103.07 158.752 103.154 158.195 103.154ZM163.12 103V95.3636H164.557V96.5767H164.637C164.776 96.1657 165.021 95.8426 165.373 95.6072C165.727 95.3686 166.128 95.2493 166.576 95.2493C166.668 95.2493 166.778 95.2526 166.904 95.2592C167.033 95.2659 167.134 95.2741 167.207 95.2841V96.706C167.147 96.6894 167.041 96.6712 166.889 96.6513C166.736 96.6281 166.584 96.6165 166.431 96.6165C166.08 96.6165 165.767 96.6911 165.492 96.8402C165.22 96.986 165.005 97.1899 164.846 97.4517C164.686 97.7102 164.607 98.0052 164.607 98.3366V103H163.12ZM177.036 99.8331V95.3636H178.527V103H177.066V101.678H176.986C176.81 102.085 176.529 102.425 176.141 102.697C175.757 102.965 175.278 103.099 174.704 103.099C174.214 103.099 173.779 102.992 173.402 102.776C173.027 102.558 172.732 102.234 172.517 101.807C172.305 101.379 172.199 100.851 172.199 100.221V95.3636H173.685V100.042C173.685 100.562 173.829 100.977 174.118 101.285C174.406 101.593 174.78 101.747 175.241 101.747C175.52 101.747 175.796 101.678 176.071 101.538C176.35 101.399 176.58 101.189 176.762 100.907C176.948 100.625 177.039 100.267 177.036 99.8331ZM186.247 97.228L184.9 97.4666C184.843 97.2943 184.754 97.1302 184.631 96.9744C184.512 96.8187 184.349 96.6911 184.144 96.5916C183.939 96.4922 183.682 96.4425 183.373 96.4425C182.952 96.4425 182.601 96.5369 182.319 96.7259C182.038 96.9115 181.897 97.1518 181.897 97.4467C181.897 97.7019 181.991 97.9074 182.18 98.0632C182.369 98.219 182.674 98.3466 183.095 98.446L184.308 98.7244C185.011 98.8868 185.534 99.1371 185.879 99.4751C186.224 99.8132 186.396 100.252 186.396 100.793C186.396 101.25 186.264 101.658 185.998 102.016C185.737 102.37 185.37 102.649 184.9 102.851C184.432 103.053 183.89 103.154 183.274 103.154C182.419 103.154 181.721 102.972 181.181 102.607C180.641 102.239 180.309 101.717 180.187 101.041L181.623 100.822C181.713 101.197 181.897 101.48 182.175 101.673C182.454 101.862 182.817 101.956 183.264 101.956C183.751 101.956 184.141 101.855 184.432 101.653C184.724 101.447 184.87 101.197 184.87 100.902C184.87 100.663 184.78 100.463 184.601 100.3C184.426 100.138 184.156 100.015 183.791 99.9325L182.498 99.6491C181.786 99.4867 181.259 99.2282 180.917 98.8736C180.579 98.5189 180.41 98.0698 180.41 97.5263C180.41 97.0755 180.536 96.6811 180.788 96.343C181.04 96.005 181.388 95.7415 181.832 95.5526C182.276 95.3603 182.785 95.2642 183.358 95.2642C184.184 95.2642 184.833 95.4432 185.307 95.8011C185.781 96.1558 186.095 96.6314 186.247 97.228ZM188.031 103V95.3636H189.517V103H188.031ZM188.781 94.1854C188.523 94.1854 188.301 94.0992 188.115 93.9268C187.933 93.7512 187.842 93.5424 187.842 93.3004C187.842 93.0552 187.933 92.8464 188.115 92.674C188.301 92.4983 188.523 92.4105 188.781 92.4105C189.04 92.4105 189.26 92.4983 189.442 92.674C189.628 92.8464 189.721 93.0552 189.721 93.3004C189.721 93.5424 189.628 93.7512 189.442 93.9268C189.26 94.0992 189.04 94.1854 188.781 94.1854ZM193.003 98.4659V103H191.517V95.3636H192.944V96.6065H193.038C193.214 96.2022 193.489 95.8774 193.863 95.6321C194.241 95.3868 194.717 95.2642 195.29 95.2642C195.811 95.2642 196.266 95.3736 196.657 95.5923C197.049 95.8078 197.352 96.1293 197.567 96.5568C197.783 96.9844 197.89 97.513 197.89 98.1428V103H196.404V98.3217C196.404 97.7682 196.26 97.3357 195.971 97.0241C195.683 96.7093 195.287 96.5518 194.783 96.5518C194.439 96.5518 194.132 96.6264 193.863 96.7756C193.598 96.9247 193.388 97.1435 193.232 97.4318C193.08 97.7169 193.003 98.0616 193.003 98.4659ZM203.086 106.023C202.479 106.023 201.957 105.943 201.52 105.784C201.086 105.625 200.731 105.415 200.456 105.153C200.181 104.891 199.975 104.604 199.839 104.293L201.117 103.766C201.206 103.911 201.326 104.066 201.475 104.228C201.627 104.394 201.833 104.535 202.091 104.651C202.353 104.767 202.69 104.825 203.101 104.825C203.664 104.825 204.13 104.687 204.498 104.412C204.866 104.14 205.05 103.706 205.05 103.109V101.608H204.955C204.866 101.77 204.736 101.951 204.567 102.15C204.402 102.349 204.173 102.521 203.881 102.667C203.59 102.813 203.21 102.886 202.743 102.886C202.14 102.886 201.596 102.745 201.112 102.463C200.631 102.178 200.25 101.759 199.969 101.205C199.69 100.648 199.551 99.964 199.551 99.152C199.551 98.34 199.689 97.6439 199.964 97.0639C200.242 96.4839 200.623 96.0398 201.107 95.7315C201.591 95.42 202.14 95.2642 202.753 95.2642C203.227 95.2642 203.609 95.3438 203.901 95.5028C204.193 95.6586 204.42 95.8409 204.582 96.0497C204.748 96.2585 204.876 96.4425 204.965 96.6016H205.074V95.3636H206.531V103.169C206.531 103.825 206.379 104.364 206.074 104.785C205.769 105.206 205.356 105.517 204.836 105.719C204.319 105.922 203.735 106.023 203.086 106.023ZM203.071 101.653C203.498 101.653 203.86 101.553 204.155 101.354C204.453 101.152 204.678 100.864 204.831 100.489C204.987 100.112 205.064 99.6591 205.064 99.1321C205.064 98.6184 204.988 98.166 204.836 97.7749C204.683 97.3838 204.46 97.0788 204.165 96.8601C203.87 96.638 203.505 96.527 203.071 96.527C202.623 96.527 202.251 96.643 201.952 96.875C201.654 97.1037 201.429 97.4152 201.276 97.8097C201.127 98.2041 201.052 98.6449 201.052 99.1321C201.052 99.6326 201.129 100.072 201.281 100.45C201.434 100.827 201.659 101.122 201.957 101.335C202.259 101.547 202.63 101.653 203.071 101.653ZM209.504 103.094C209.232 103.094 208.999 102.998 208.803 102.806C208.608 102.611 208.51 102.375 208.51 102.1C208.51 101.828 208.608 101.596 208.803 101.404C208.999 101.209 209.232 101.111 209.504 101.111C209.776 101.111 210.01 101.209 210.205 101.404C210.401 101.596 210.498 101.828 210.498 102.1C210.498 102.282 210.452 102.45 210.359 102.602C210.27 102.751 210.15 102.871 210.001 102.96C209.852 103.05 209.686 103.094 209.504 103.094ZM209.504 97.5362C209.232 97.5362 208.999 97.4384 208.803 97.2429C208.608 97.0473 208.51 96.8137 208.51 96.5419C208.51 96.2701 208.608 96.0381 208.803 95.8459C208.999 95.6503 209.232 95.5526 209.504 95.5526C209.776 95.5526 210.01 95.6503 210.205 95.8459C210.401 96.0381 210.498 96.2701 210.498 96.5419C210.498 96.7242 210.452 96.8916 210.359 97.044C210.27 97.1932 210.15 97.3125 210.001 97.402C209.852 97.4915 209.686 97.5362 209.504 97.5362Z" fill="#2D3342"/>
<path d="M28.6454 126.364V138H26.884V128.125H26.8159L24.0318 129.943V128.261L26.9352 126.364H28.6454ZM34.4139 138.108C34.1033 138.108 33.8362 137.998 33.6127 137.778C33.3893 137.555 33.2775 137.286 33.2775 136.972C33.2775 136.661 33.3893 136.396 33.6127 136.176C33.8362 135.953 34.1033 135.841 34.4139 135.841C34.7245 135.841 34.9915 135.953 35.215 136.176C35.4385 136.396 35.5502 136.661 35.5502 136.972C35.5502 137.18 35.4972 137.371 35.3912 137.545C35.2889 137.716 35.1525 137.852 34.9821 137.955C34.8116 138.057 34.6222 138.108 34.4139 138.108ZM52.9432 130.148H51.1705C51.1023 129.769 50.9754 129.436 50.7898 129.148C50.6042 128.86 50.3769 128.616 50.108 128.415C49.839 128.214 49.5379 128.062 49.2045 127.96C48.875 127.858 48.5246 127.807 48.1534 127.807C47.483 127.807 46.8826 127.975 46.3523 128.312C45.8258 128.65 45.4091 129.144 45.1023 129.795C44.7992 130.447 44.6477 131.242 44.6477 132.182C44.6477 133.129 44.7992 133.928 45.1023 134.58C45.4091 135.231 45.8277 135.723 46.358 136.057C46.8883 136.39 47.4848 136.557 48.1477 136.557C48.5152 136.557 48.8636 136.508 49.1932 136.409C49.5265 136.307 49.8277 136.157 50.0966 135.96C50.3655 135.763 50.5928 135.523 50.7784 135.239C50.9678 134.951 51.0985 134.621 51.1705 134.25L52.9432 134.256C52.8485 134.828 52.6648 135.354 52.392 135.835C52.1231 136.312 51.7765 136.725 51.3523 137.074C50.9318 137.419 50.4508 137.686 49.9091 137.875C49.3674 138.064 48.7765 138.159 48.1364 138.159C47.1288 138.159 46.2311 137.92 45.4432 137.443C44.6553 136.962 44.0341 136.275 43.5795 135.381C43.1288 134.487 42.9034 133.42 42.9034 132.182C42.9034 130.939 43.1307 129.873 43.5852 128.983C44.0398 128.089 44.661 127.403 45.4489 126.926C46.2367 126.445 47.1326 126.205 48.1364 126.205C48.7538 126.205 49.3295 126.294 49.8636 126.472C50.4015 126.646 50.8845 126.903 51.3125 127.244C51.7405 127.581 52.0947 127.994 52.375 128.483C52.6553 128.968 52.8447 129.523 52.9432 130.148ZM54.9077 138V129.273H56.5497V130.659H56.6406C56.7997 130.189 57.08 129.82 57.4815 129.551C57.8868 129.278 58.3452 129.142 58.8565 129.142C58.9626 129.142 59.0876 129.146 59.2315 129.153C59.3793 129.161 59.4948 129.17 59.5781 129.182V130.807C59.5099 130.788 59.3887 130.767 59.2145 130.744C59.0402 130.718 58.866 130.705 58.6918 130.705C58.2902 130.705 57.9323 130.79 57.6179 130.96C57.3073 131.127 57.0611 131.36 56.8793 131.659C56.6974 131.955 56.6065 132.292 56.6065 132.67V138H54.9077ZM64.4972 138.176C63.6373 138.176 62.8968 137.992 62.2756 137.625C61.6581 137.254 61.1809 136.733 60.8438 136.062C60.5104 135.388 60.3438 134.598 60.3438 133.693C60.3438 132.799 60.5104 132.011 60.8438 131.33C61.1809 130.648 61.6506 130.116 62.2528 129.733C62.8589 129.35 63.5672 129.159 64.3778 129.159C64.8703 129.159 65.3475 129.241 65.8097 129.403C66.2718 129.566 66.6866 129.822 67.054 130.17C67.4214 130.519 67.7112 130.972 67.9233 131.528C68.1354 132.081 68.2415 132.754 68.2415 133.545V134.148H61.304V132.875H66.5767C66.5767 132.428 66.4858 132.032 66.304 131.688C66.1222 131.339 65.8665 131.064 65.5369 130.864C65.2112 130.663 64.8286 130.562 64.3892 130.562C63.9119 130.562 63.4953 130.68 63.1392 130.915C62.7869 131.146 62.5142 131.449 62.321 131.824C62.1316 132.195 62.0369 132.598 62.0369 133.034V134.028C62.0369 134.612 62.1392 135.108 62.3438 135.517C62.5521 135.926 62.8419 136.239 63.2131 136.455C63.5843 136.667 64.018 136.773 64.5142 136.773C64.8362 136.773 65.1297 136.727 65.3949 136.636C65.66 136.542 65.8892 136.402 66.0824 136.216C66.2756 136.03 66.4233 135.801 66.5256 135.528L68.1335 135.818C68.0047 136.292 67.7737 136.706 67.4403 137.062C67.1108 137.415 66.696 137.689 66.196 137.886C65.6998 138.08 65.1335 138.176 64.4972 138.176ZM72.6662 138.193C72.1132 138.193 71.6132 138.091 71.1662 137.886C70.7192 137.678 70.3651 137.377 70.1037 136.983C69.8461 136.589 69.7173 136.106 69.7173 135.534C69.7173 135.042 69.812 134.636 70.0014 134.318C70.1908 134 70.4465 133.748 70.7685 133.562C71.0904 133.377 71.4503 133.237 71.848 133.142C72.2457 133.047 72.651 132.975 73.0639 132.926C73.5866 132.866 74.0109 132.816 74.3366 132.778C74.6624 132.737 74.8991 132.67 75.0469 132.58C75.1946 132.489 75.2685 132.341 75.2685 132.136V132.097C75.2685 131.6 75.1283 131.216 74.848 130.943C74.5715 130.67 74.1586 130.534 73.6094 130.534C73.0374 130.534 72.5866 130.661 72.2571 130.915C71.9313 131.165 71.706 131.443 71.581 131.75L69.9844 131.386C70.1738 130.856 70.4503 130.428 70.8139 130.102C71.1813 129.773 71.6037 129.534 72.081 129.386C72.5582 129.235 73.0601 129.159 73.5866 129.159C73.9351 129.159 74.3045 129.201 74.6946 129.284C75.0885 129.364 75.456 129.511 75.7969 129.727C76.1416 129.943 76.4238 130.252 76.6435 130.653C76.8632 131.051 76.973 131.568 76.973 132.205V138H75.3139V136.807H75.2457C75.1359 137.027 74.9711 137.242 74.7514 137.455C74.5317 137.667 74.2495 137.843 73.9048 137.983C73.5601 138.123 73.1473 138.193 72.6662 138.193ZM73.0355 136.83C73.5052 136.83 73.9067 136.737 74.2401 136.551C74.5772 136.366 74.8329 136.123 75.0071 135.824C75.1851 135.521 75.2741 135.197 75.2741 134.852V133.727C75.2135 133.788 75.0961 133.845 74.9219 133.898C74.7514 133.947 74.5563 133.991 74.3366 134.028C74.117 134.062 73.9029 134.095 73.6946 134.125C73.4863 134.152 73.312 134.174 73.1719 134.193C72.8423 134.235 72.5412 134.305 72.2685 134.403C71.9995 134.502 71.7836 134.644 71.6207 134.83C71.4616 135.011 71.3821 135.254 71.3821 135.557C71.3821 135.977 71.5374 136.295 71.848 136.511C72.1586 136.723 72.5545 136.83 73.0355 136.83ZM83.3097 129.273V130.636H78.5426V129.273H83.3097ZM79.821 127.182H81.5199V135.438C81.5199 135.767 81.5691 136.015 81.6676 136.182C81.7661 136.345 81.893 136.456 82.0483 136.517C82.2074 136.574 82.3797 136.602 82.5653 136.602C82.7017 136.602 82.821 136.593 82.9233 136.574C83.0256 136.555 83.1051 136.54 83.1619 136.528L83.4688 137.932C83.3703 137.97 83.2301 138.008 83.0483 138.045C82.8665 138.087 82.6392 138.11 82.3665 138.114C81.9195 138.121 81.5028 138.042 81.1165 137.875C80.7301 137.708 80.4176 137.451 80.179 137.102C79.9403 136.754 79.821 136.316 79.821 135.79V127.182ZM88.8565 138.176C87.9967 138.176 87.2562 137.992 86.6349 137.625C86.0175 137.254 85.5402 136.733 85.2031 136.062C84.8698 135.388 84.7031 134.598 84.7031 133.693C84.7031 132.799 84.8698 132.011 85.2031 131.33C85.5402 130.648 86.0099 130.116 86.6122 129.733C87.2183 129.35 87.9266 129.159 88.7372 129.159C89.2296 129.159 89.7069 129.241 90.169 129.403C90.6312 129.566 91.0459 129.822 91.4134 130.17C91.7808 130.519 92.0705 130.972 92.2827 131.528C92.4948 132.081 92.6009 132.754 92.6009 133.545V134.148H85.6634V132.875H90.9361C90.9361 132.428 90.8452 132.032 90.6634 131.688C90.4815 131.339 90.2259 131.064 89.8963 130.864C89.5705 130.663 89.188 130.562 88.7486 130.562C88.2713 130.562 87.8546 130.68 87.4986 130.915C87.1463 131.146 86.8736 131.449 86.6804 131.824C86.491 132.195 86.3963 132.598 86.3963 133.034V134.028C86.3963 134.612 86.4986 135.108 86.7031 135.517C86.9115 135.926 87.2012 136.239 87.5724 136.455C87.9437 136.667 88.3774 136.773 88.8736 136.773C89.1955 136.773 89.4891 136.727 89.7543 136.636C90.0194 136.542 90.2486 136.402 90.4418 136.216C90.6349 136.03 90.7827 135.801 90.8849 135.528L92.4929 135.818C92.3641 136.292 92.133 136.706 91.7997 137.062C91.4702 137.415 91.0554 137.689 90.5554 137.886C90.0592 138.08 89.4929 138.176 88.8565 138.176ZM99.794 141.273C99.5402 141.273 99.3092 141.252 99.1009 141.21C98.8925 141.172 98.7372 141.131 98.6349 141.085L99.044 139.693C99.3546 139.777 99.6312 139.813 99.8736 139.801C100.116 139.79 100.33 139.699 100.516 139.528C100.705 139.358 100.872 139.08 101.016 138.693L101.226 138.114L98.0327 129.273H99.8509L102.061 136.045H102.152L104.362 129.273H106.186L102.589 139.165C102.423 139.619 102.211 140.004 101.953 140.318C101.696 140.636 101.389 140.875 101.033 141.034C100.677 141.193 100.264 141.273 99.794 141.273ZM111.162 138.176C110.344 138.176 109.63 137.989 109.02 137.614C108.41 137.239 107.937 136.714 107.599 136.04C107.262 135.366 107.094 134.578 107.094 133.676C107.094 132.771 107.262 131.979 107.599 131.301C107.937 130.623 108.41 130.097 109.02 129.722C109.63 129.347 110.344 129.159 111.162 129.159C111.98 129.159 112.694 129.347 113.304 129.722C113.914 130.097 114.387 130.623 114.724 131.301C115.062 131.979 115.23 132.771 115.23 133.676C115.23 134.578 115.062 135.366 114.724 136.04C114.387 136.714 113.914 137.239 113.304 137.614C112.694 137.989 111.98 138.176 111.162 138.176ZM111.168 136.75C111.698 136.75 112.137 136.61 112.486 136.33C112.834 136.049 113.092 135.676 113.259 135.21C113.429 134.744 113.514 134.231 113.514 133.67C113.514 133.114 113.429 132.602 113.259 132.136C113.092 131.667 112.834 131.29 112.486 131.006C112.137 130.722 111.698 130.58 111.168 130.58C110.634 130.58 110.19 130.722 109.838 131.006C109.49 131.29 109.23 131.667 109.06 132.136C108.893 132.602 108.81 133.114 108.81 133.67C108.81 134.231 108.893 134.744 109.06 135.21C109.23 135.676 109.49 136.049 109.838 136.33C110.19 136.61 110.634 136.75 111.168 136.75ZM122.655 134.381V129.273H124.359V138H122.689V136.489H122.598C122.397 136.955 122.075 137.343 121.632 137.653C121.193 137.96 120.645 138.114 119.99 138.114C119.429 138.114 118.933 137.991 118.501 137.744C118.073 137.494 117.736 137.125 117.49 136.636C117.248 136.148 117.126 135.544 117.126 134.824V129.273H118.825V134.619C118.825 135.214 118.99 135.687 119.32 136.04C119.649 136.392 120.077 136.568 120.604 136.568C120.922 136.568 121.238 136.489 121.553 136.33C121.871 136.17 122.134 135.93 122.342 135.608C122.554 135.286 122.659 134.877 122.655 134.381ZM126.642 138V129.273H128.284V130.659H128.375C128.534 130.189 128.814 129.82 129.216 129.551C129.621 129.278 130.08 129.142 130.591 129.142C130.697 129.142 130.822 129.146 130.966 129.153C131.114 129.161 131.229 129.17 131.312 129.182V130.807C131.244 130.788 131.123 130.767 130.949 130.744C130.775 130.718 130.6 130.705 130.426 130.705C130.025 130.705 129.667 130.79 129.352 130.96C129.042 131.127 128.795 131.36 128.614 131.659C128.432 131.955 128.341 132.292 128.341 132.67V138H126.642ZM139.557 138.193C139.004 138.193 138.504 138.091 138.057 137.886C137.61 137.678 137.256 137.377 136.994 136.983C136.737 136.589 136.608 136.106 136.608 135.534C136.608 135.042 136.703 134.636 136.892 134.318C137.081 134 137.337 133.748 137.659 133.562C137.981 133.377 138.341 133.237 138.739 133.142C139.136 133.047 139.542 132.975 139.955 132.926C140.477 132.866 140.902 132.816 141.227 132.778C141.553 132.737 141.79 132.67 141.938 132.58C142.085 132.489 142.159 132.341 142.159 132.136V132.097C142.159 131.6 142.019 131.216 141.739 130.943C141.462 130.67 141.049 130.534 140.5 130.534C139.928 130.534 139.477 130.661 139.148 130.915C138.822 131.165 138.597 131.443 138.472 131.75L136.875 131.386C137.064 130.856 137.341 130.428 137.705 130.102C138.072 129.773 138.494 129.534 138.972 129.386C139.449 129.235 139.951 129.159 140.477 129.159C140.826 129.159 141.195 129.201 141.585 129.284C141.979 129.364 142.347 129.511 142.688 129.727C143.032 129.943 143.314 130.252 143.534 130.653C143.754 131.051 143.864 131.568 143.864 132.205V138H142.205V136.807H142.136C142.027 137.027 141.862 137.242 141.642 137.455C141.422 137.667 141.14 137.843 140.795 137.983C140.451 138.123 140.038 138.193 139.557 138.193ZM139.926 136.83C140.396 136.83 140.797 136.737 141.131 136.551C141.468 136.366 141.723 136.123 141.898 135.824C142.076 135.521 142.165 135.197 142.165 134.852V133.727C142.104 133.788 141.987 133.845 141.812 133.898C141.642 133.947 141.447 133.991 141.227 134.028C141.008 134.062 140.794 134.095 140.585 134.125C140.377 134.152 140.203 134.174 140.062 134.193C139.733 134.235 139.432 134.305 139.159 134.403C138.89 134.502 138.674 134.644 138.511 134.83C138.352 135.011 138.273 135.254 138.273 135.557C138.273 135.977 138.428 136.295 138.739 136.511C139.049 136.723 139.445 136.83 139.926 136.83ZM149.803 138.176C148.958 138.176 148.231 137.985 147.621 137.602C147.015 137.216 146.549 136.684 146.223 136.006C145.897 135.328 145.734 134.551 145.734 133.676C145.734 132.79 145.901 132.008 146.234 131.33C146.568 130.648 147.037 130.116 147.643 129.733C148.25 129.35 148.964 129.159 149.786 129.159C150.448 129.159 151.039 129.282 151.558 129.528C152.077 129.771 152.496 130.112 152.814 130.551C153.136 130.991 153.327 131.504 153.388 132.091H151.734C151.643 131.682 151.435 131.33 151.109 131.034C150.787 130.739 150.356 130.591 149.814 130.591C149.34 130.591 148.926 130.716 148.57 130.966C148.217 131.212 147.943 131.564 147.746 132.023C147.549 132.477 147.45 133.015 147.45 133.636C147.45 134.273 147.547 134.822 147.74 135.284C147.933 135.746 148.206 136.104 148.558 136.358C148.914 136.612 149.333 136.739 149.814 136.739C150.136 136.739 150.428 136.68 150.689 136.562C150.954 136.441 151.176 136.269 151.354 136.045C151.536 135.822 151.662 135.553 151.734 135.239H153.388C153.327 135.803 153.143 136.307 152.837 136.75C152.53 137.193 152.119 137.542 151.604 137.795C151.092 138.049 150.492 138.176 149.803 138.176ZM158.881 138.176C158.036 138.176 157.309 137.985 156.699 137.602C156.093 137.216 155.627 136.684 155.301 136.006C154.975 135.328 154.812 134.551 154.812 133.676C154.812 132.79 154.979 132.008 155.312 131.33C155.646 130.648 156.116 130.116 156.722 129.733C157.328 129.35 158.042 129.159 158.864 129.159C159.527 129.159 160.117 129.282 160.636 129.528C161.155 129.771 161.574 130.112 161.892 130.551C162.214 130.991 162.405 131.504 162.466 132.091H160.812C160.722 131.682 160.513 131.33 160.188 131.034C159.866 130.739 159.434 130.591 158.892 130.591C158.419 130.591 158.004 130.716 157.648 130.966C157.295 131.212 157.021 131.564 156.824 132.023C156.627 132.477 156.528 133.015 156.528 133.636C156.528 134.273 156.625 134.822 156.818 135.284C157.011 135.746 157.284 136.104 157.636 136.358C157.992 136.612 158.411 136.739 158.892 136.739C159.214 136.739 159.506 136.68 159.767 136.562C160.032 136.441 160.254 136.269 160.432 136.045C160.614 135.822 160.741 135.553 160.812 135.239H162.466C162.405 135.803 162.222 136.307 161.915 136.75C161.608 137.193 161.197 137.542 160.682 137.795C160.17 138.049 159.57 138.176 158.881 138.176ZM167.959 138.176C167.141 138.176 166.427 137.989 165.817 137.614C165.207 137.239 164.733 136.714 164.396 136.04C164.059 135.366 163.891 134.578 163.891 133.676C163.891 132.771 164.059 131.979 164.396 131.301C164.733 130.623 165.207 130.097 165.817 129.722C166.427 129.347 167.141 129.159 167.959 129.159C168.777 129.159 169.491 129.347 170.101 129.722C170.711 130.097 171.184 130.623 171.521 131.301C171.858 131.979 172.027 132.771 172.027 133.676C172.027 134.578 171.858 135.366 171.521 136.04C171.184 136.714 170.711 137.239 170.101 137.614C169.491 137.989 168.777 138.176 167.959 138.176ZM167.964 136.75C168.495 136.75 168.934 136.61 169.283 136.33C169.631 136.049 169.889 135.676 170.055 135.21C170.226 134.744 170.311 134.231 170.311 133.67C170.311 133.114 170.226 132.602 170.055 132.136C169.889 131.667 169.631 131.29 169.283 131.006C168.934 130.722 168.495 130.58 167.964 130.58C167.43 130.58 166.987 130.722 166.635 131.006C166.286 131.29 166.027 131.667 165.857 132.136C165.69 132.602 165.607 133.114 165.607 133.67C165.607 134.231 165.69 134.744 165.857 135.21C166.027 135.676 166.286 136.049 166.635 136.33C166.987 136.61 167.43 136.75 167.964 136.75ZM179.452 134.381V129.273H181.156V138H179.486V136.489H179.395C179.194 136.955 178.872 137.343 178.429 137.653C177.99 137.96 177.442 138.114 176.787 138.114C176.226 138.114 175.73 137.991 175.298 137.744C174.87 137.494 174.533 137.125 174.287 136.636C174.045 136.148 173.923 135.544 173.923 134.824V129.273H175.622V134.619C175.622 135.214 175.787 135.687 176.116 136.04C176.446 136.392 176.874 136.568 177.401 136.568C177.719 136.568 178.035 136.489 178.349 136.33C178.668 136.17 178.931 135.93 179.139 135.608C179.351 135.286 179.455 134.877 179.452 134.381ZM185.138 132.818V138H183.439V129.273H185.07V130.693H185.178C185.378 130.231 185.693 129.86 186.121 129.58C186.553 129.299 187.096 129.159 187.751 129.159C188.346 129.159 188.867 129.284 189.314 129.534C189.761 129.78 190.107 130.148 190.354 130.636C190.6 131.125 190.723 131.729 190.723 132.449V138H189.024V132.653C189.024 132.021 188.859 131.527 188.53 131.17C188.2 130.811 187.748 130.631 187.172 130.631C186.778 130.631 186.428 130.716 186.121 130.886C185.818 131.057 185.577 131.307 185.399 131.636C185.225 131.962 185.138 132.356 185.138 132.818ZM197.075 129.273V130.636H192.308V129.273H197.075ZM193.587 127.182H195.286V135.438C195.286 135.767 195.335 136.015 195.433 136.182C195.532 136.345 195.659 136.456 195.814 136.517C195.973 136.574 196.145 136.602 196.331 136.602C196.467 136.602 196.587 136.593 196.689 136.574C196.791 136.555 196.871 136.54 196.928 136.528L197.234 137.932C197.136 137.97 196.996 138.008 196.814 138.045C196.632 138.087 196.405 138.11 196.132 138.114C195.685 138.121 195.268 138.042 194.882 137.875C194.496 137.708 194.183 137.451 193.945 137.102C193.706 136.754 193.587 136.316 193.587 135.79V127.182ZM205.081 138L202.513 129.273H204.268L205.979 135.682H206.064L207.78 129.273H209.536L211.24 135.653H211.325L213.024 129.273H214.78L212.217 138H210.484L208.712 131.699H208.581L206.808 138H205.081ZM216.392 138V129.273H218.091V138H216.392ZM217.25 127.926C216.955 127.926 216.701 127.828 216.489 127.631C216.28 127.43 216.176 127.191 216.176 126.915C216.176 126.634 216.28 126.396 216.489 126.199C216.701 125.998 216.955 125.898 217.25 125.898C217.545 125.898 217.797 125.998 218.006 126.199C218.218 126.396 218.324 126.634 218.324 126.915C218.324 127.191 218.218 127.43 218.006 127.631C217.797 127.828 217.545 127.926 217.25 127.926ZM224.45 129.273V130.636H219.683V129.273H224.45ZM220.962 127.182H222.661V135.438C222.661 135.767 222.71 136.015 222.808 136.182C222.907 136.345 223.034 136.456 223.189 136.517C223.348 136.574 223.52 136.602 223.706 136.602C223.842 136.602 223.962 136.593 224.064 136.574C224.166 136.555 224.246 136.54 224.303 136.528L224.609 137.932C224.511 137.97 224.371 138.008 224.189 138.045C224.007 138.087 223.78 138.11 223.507 138.114C223.06 138.121 222.643 138.042 222.257 137.875C221.871 137.708 221.558 137.451 221.32 137.102C221.081 136.754 220.962 136.316 220.962 135.79V127.182ZM228.216 132.818V138H226.517V126.364H228.193V130.693H228.301C228.506 130.223 228.818 129.85 229.239 129.574C229.659 129.297 230.208 129.159 230.886 129.159C231.485 129.159 232.008 129.282 232.455 129.528C232.905 129.775 233.254 130.142 233.5 130.631C233.75 131.116 233.875 131.722 233.875 132.449V138H232.176V132.653C232.176 132.013 232.011 131.517 231.682 131.165C231.352 130.809 230.894 130.631 230.307 130.631C229.905 130.631 229.545 130.716 229.227 130.886C228.913 131.057 228.665 131.307 228.483 131.636C228.305 131.962 228.216 132.356 228.216 132.818ZM241.45 141.273C241.196 141.273 240.965 141.252 240.757 141.21C240.549 141.172 240.393 141.131 240.291 141.085L240.7 139.693C241.011 139.777 241.287 139.813 241.53 139.801C241.772 139.79 241.986 139.699 242.172 139.528C242.361 139.358 242.528 139.08 242.672 138.693L242.882 138.114L239.689 129.273H241.507L243.717 136.045H243.808L246.018 129.273H247.842L244.246 139.165C244.079 139.619 243.867 140.004 243.609 140.318C243.352 140.636 243.045 140.875 242.689 141.034C242.333 141.193 241.92 141.273 241.45 141.273ZM252.818 138.176C252 138.176 251.286 137.989 250.676 137.614C250.066 137.239 249.593 136.714 249.256 136.04C248.919 135.366 248.75 134.578 248.75 133.676C248.75 132.771 248.919 131.979 249.256 131.301C249.593 130.623 250.066 130.097 250.676 129.722C251.286 129.347 252 129.159 252.818 129.159C253.636 129.159 254.35 129.347 254.96 129.722C255.57 130.097 256.044 130.623 256.381 131.301C256.718 131.979 256.886 132.771 256.886 133.676C256.886 134.578 256.718 135.366 256.381 136.04C256.044 136.714 255.57 137.239 254.96 137.614C254.35 137.989 253.636 138.176 252.818 138.176ZM252.824 136.75C253.354 136.75 253.794 136.61 254.142 136.33C254.491 136.049 254.748 135.676 254.915 135.21C255.085 134.744 255.17 134.231 255.17 133.67C255.17 133.114 255.085 132.602 254.915 132.136C254.748 131.667 254.491 131.29 254.142 131.006C253.794 130.722 253.354 130.58 252.824 130.58C252.29 130.58 251.847 130.722 251.494 131.006C251.146 131.29 250.886 131.667 250.716 132.136C250.549 132.602 250.466 133.114 250.466 133.67C250.466 134.231 250.549 134.744 250.716 135.21C250.886 135.676 251.146 136.049 251.494 136.33C251.847 136.61 252.29 136.75 252.824 136.75ZM264.311 134.381V129.273H266.016V138H264.345V136.489H264.254C264.054 136.955 263.732 137.343 263.288 137.653C262.849 137.96 262.302 138.114 261.646 138.114C261.086 138.114 260.589 137.991 260.158 137.744C259.73 137.494 259.393 137.125 259.146 136.636C258.904 136.148 258.783 135.544 258.783 134.824V129.273H260.482V134.619C260.482 135.214 260.646 135.687 260.976 136.04C261.305 136.392 261.733 136.568 262.26 136.568C262.578 136.568 262.894 136.489 263.209 136.33C263.527 136.17 263.79 135.93 263.999 135.608C264.211 135.286 264.315 134.877 264.311 134.381ZM268.298 138V129.273H269.94V130.659H270.031C270.19 130.189 270.471 129.82 270.872 129.551C271.277 129.278 271.736 129.142 272.247 129.142C272.353 129.142 272.478 129.146 272.622 129.153C272.77 129.161 272.885 129.17 272.969 129.182V130.807C272.901 130.788 272.779 130.767 272.605 130.744C272.431 130.718 272.257 130.705 272.082 130.705C271.681 130.705 271.323 130.79 271.009 130.96C270.698 131.127 270.452 131.36 270.27 131.659C270.088 131.955 269.997 132.292 269.997 132.67V138H268.298ZM46.9034 157.176C46.0436 157.176 45.303 156.992 44.6818 156.625C44.0644 156.254 43.5871 155.733 43.25 155.062C42.9167 154.388 42.75 153.598 42.75 152.693C42.75 151.799 42.9167 151.011 43.25 150.33C43.5871 149.648 44.0568 149.116 44.6591 148.733C45.2652 148.35 45.9735 148.159 46.7841 148.159C47.2765 148.159 47.7538 148.241 48.2159 148.403C48.678 148.566 49.0928 148.822 49.4602 149.17C49.8277 149.519 50.1174 149.972 50.3295 150.528C50.5417 151.081 50.6477 151.754 50.6477 152.545V153.148H43.7102V151.875H48.983C48.983 151.428 48.892 151.032 48.7102 150.688C48.5284 150.339 48.2727 150.064 47.9432 149.864C47.6174 149.663 47.2348 149.562 46.7955 149.562C46.3182 149.562 45.9015 149.68 45.5455 149.915C45.1932 150.146 44.9205 150.449 44.7273 150.824C44.5379 151.195 44.4432 151.598 44.4432 152.034V153.028C44.4432 153.612 44.5455 154.108 44.75 154.517C44.9583 154.926 45.2481 155.239 45.6193 155.455C45.9905 155.667 46.4242 155.773 46.9205 155.773C47.2424 155.773 47.536 155.727 47.8011 155.636C48.0663 155.542 48.2955 155.402 48.4886 155.216C48.6818 155.03 48.8295 154.801 48.9318 154.528L50.5398 154.818C50.411 155.292 50.1799 155.706 49.8466 156.062C49.517 156.415 49.1023 156.689 48.6023 156.886C48.1061 157.08 47.5398 157.176 46.9034 157.176ZM52.5327 157V148.273H54.1634V149.693H54.2713C54.4531 149.212 54.7505 148.837 55.1634 148.568C55.5762 148.295 56.0705 148.159 56.6463 148.159C57.2296 148.159 57.7183 148.295 58.1122 148.568C58.5099 148.841 58.8035 149.216 58.9929 149.693H59.0838C59.2921 149.227 59.6236 148.856 60.0781 148.58C60.5327 148.299 61.0743 148.159 61.7031 148.159C62.4948 148.159 63.1406 148.407 63.6406 148.903C64.1444 149.4 64.3963 150.148 64.3963 151.148V157H62.6974V151.307C62.6974 150.716 62.5365 150.288 62.2145 150.023C61.8925 149.758 61.508 149.625 61.0611 149.625C60.508 149.625 60.0781 149.795 59.7713 150.136C59.4645 150.473 59.3111 150.907 59.3111 151.438V157H57.6179V151.199C57.6179 150.725 57.4702 150.345 57.1747 150.057C56.8793 149.769 56.4948 149.625 56.0213 149.625C55.6993 149.625 55.402 149.71 55.1293 149.881C54.8603 150.047 54.6425 150.28 54.4759 150.58C54.313 150.879 54.2315 151.225 54.2315 151.619V157H52.5327ZM69.2131 157.193C68.66 157.193 68.16 157.091 67.7131 156.886C67.2661 156.678 66.9119 156.377 66.6506 155.983C66.393 155.589 66.2642 155.106 66.2642 154.534C66.2642 154.042 66.3589 153.636 66.5483 153.318C66.7377 153 66.9934 152.748 67.3153 152.562C67.6373 152.377 67.9972 152.237 68.3949 152.142C68.7926 152.047 69.1979 151.975 69.6108 151.926C70.1335 151.866 70.5578 151.816 70.8835 151.778C71.2093 151.737 71.446 151.67 71.5938 151.58C71.7415 151.489 71.8153 151.341 71.8153 151.136V151.097C71.8153 150.6 71.6752 150.216 71.3949 149.943C71.1184 149.67 70.7055 149.534 70.1562 149.534C69.5843 149.534 69.1335 149.661 68.804 149.915C68.4782 150.165 68.2528 150.443 68.1278 150.75L66.5312 150.386C66.7206 149.856 66.9972 149.428 67.3608 149.102C67.7282 148.773 68.1506 148.534 68.6278 148.386C69.1051 148.235 69.607 148.159 70.1335 148.159C70.482 148.159 70.8513 148.201 71.2415 148.284C71.6354 148.364 72.0028 148.511 72.3438 148.727C72.6884 148.943 72.9706 149.252 73.1903 149.653C73.41 150.051 73.5199 150.568 73.5199 151.205V157H71.8608V155.807H71.7926C71.6828 156.027 71.518 156.242 71.2983 156.455C71.0786 156.667 70.7964 156.843 70.4517 156.983C70.107 157.123 69.6941 157.193 69.2131 157.193ZM69.5824 155.83C70.0521 155.83 70.4536 155.737 70.7869 155.551C71.1241 155.366 71.3797 155.123 71.554 154.824C71.732 154.521 71.821 154.197 71.821 153.852V152.727C71.7604 152.788 71.643 152.845 71.4688 152.898C71.2983 152.947 71.1032 152.991 70.8835 153.028C70.6638 153.062 70.4498 153.095 70.2415 153.125C70.0331 153.152 69.8589 153.174 69.7188 153.193C69.3892 153.235 69.0881 153.305 68.8153 153.403C68.5464 153.502 68.3305 153.644 68.1676 153.83C68.0085 154.011 67.929 154.254 67.929 154.557C67.929 154.977 68.0843 155.295 68.3949 155.511C68.7055 155.723 69.1013 155.83 69.5824 155.83ZM75.7827 157V148.273H77.4815V157H75.7827ZM76.6406 146.926C76.3452 146.926 76.0914 146.828 75.8793 146.631C75.6709 146.43 75.5668 146.191 75.5668 145.915C75.5668 145.634 75.6709 145.396 75.8793 145.199C76.0914 144.998 76.3452 144.898 76.6406 144.898C76.9361 144.898 77.188 144.998 77.3963 145.199C77.6084 145.396 77.7145 145.634 77.7145 145.915C77.7145 146.191 77.6084 146.43 77.3963 146.631C77.188 146.828 76.9361 146.926 76.6406 146.926ZM81.4659 145.364V157H79.767V145.364H81.4659Z" fill="#2D3342"/>
<path d="M27.8112 141.73C27.3968 141.662 17.3647 140.195 17.7826 129.962C17.821 129.022 17.9279 128.167 18.0941 127.391M27.8112 141.73C22.3125 141.331 19.5184 138.969 18.2679 136.139M27.8112 141.73C28.4765 141.838 29.1626 141.829 29.8413 141.711M18.0941 127.391C18.3022 126.421 18.6032 125.575 18.9789 124.846M18.0941 127.391C17.345 129.667 16.9529 133.162 18.2679 136.139M18.9789 124.846C22.0589 118.863 30.159 120.65 33.2434 124.846C34.4537 126.493 36.9903 130.671 35.7542 135.894C34.9793 139.168 32.4653 141.256 29.8413 141.711M18.9789 124.846C17.8069 126.651 16.1065 130.879 17.5602 134.713M18.2679 136.139C17.977 135.673 17.7435 135.196 17.5602 134.713M29.8413 141.711C26.3715 142.373 19.0576 141.9 17.5602 134.713" stroke="#6663CF" stroke-linecap="round"/>
<path d="M23.0715 185V183.727L27.009 179.648C27.4295 179.205 27.7761 178.816 28.0488 178.483C28.3253 178.146 28.5318 177.826 28.6681 177.523C28.8045 177.22 28.8727 176.898 28.8727 176.557C28.8727 176.17 28.7818 175.837 28.6 175.557C28.4181 175.273 28.17 175.055 27.8556 174.903C27.5412 174.748 27.1871 174.67 26.7931 174.67C26.3765 174.67 26.0128 174.756 25.7022 174.926C25.3916 175.097 25.153 175.337 24.9863 175.648C24.8197 175.958 24.7363 176.322 24.7363 176.739H23.0602C23.0602 176.03 23.2231 175.411 23.5488 174.881C23.8746 174.35 24.3215 173.939 24.8897 173.648C25.4579 173.352 26.1037 173.205 26.8272 173.205C27.5583 173.205 28.2022 173.35 28.759 173.642C29.3197 173.93 29.7572 174.324 30.0715 174.824C30.3859 175.32 30.5431 175.881 30.5431 176.506C30.5431 176.938 30.4617 177.36 30.2988 177.773C30.1397 178.186 29.8613 178.646 29.4636 179.153C29.0659 179.657 28.5128 180.269 27.8045 180.989L25.492 183.409V183.494H30.7306V185H23.0715ZM34.4139 185.108C34.1033 185.108 33.8362 184.998 33.6127 184.778C33.3893 184.555 33.2775 184.286 33.2775 183.972C33.2775 183.661 33.3893 183.396 33.6127 183.176C33.8362 182.953 34.1033 182.841 34.4139 182.841C34.7245 182.841 34.9915 182.953 35.215 183.176C35.4385 183.396 35.5502 183.661 35.5502 183.972C35.5502 184.18 35.4972 184.371 35.3912 184.545C35.2889 184.716 35.1525 184.852 34.9821 184.955C34.8116 185.057 34.6222 185.108 34.4139 185.108ZM50.7614 173.364H52.5227V181.017C52.5227 181.831 52.3314 182.553 51.9489 183.182C51.5663 183.807 51.0284 184.299 50.3352 184.659C49.642 185.015 48.8295 185.193 47.8977 185.193C46.9697 185.193 46.1591 185.015 45.4659 184.659C44.7727 184.299 44.2348 183.807 43.8523 183.182C43.4697 182.553 43.2784 181.831 43.2784 181.017V173.364H45.0341V180.875C45.0341 181.402 45.1496 181.869 45.3807 182.278C45.6155 182.688 45.947 183.009 46.375 183.244C46.803 183.475 47.3106 183.591 47.8977 183.591C48.4886 183.591 48.9981 183.475 49.4261 183.244C49.858 183.009 50.1875 182.688 50.4148 182.278C50.6458 181.869 50.7614 181.402 50.7614 180.875V173.364ZM61.4787 178.403L59.9389 178.676C59.8745 178.479 59.7723 178.292 59.6321 178.114C59.4957 177.936 59.3101 177.79 59.0753 177.676C58.8404 177.562 58.5469 177.506 58.1946 177.506C57.7135 177.506 57.312 177.614 56.9901 177.83C56.6681 178.042 56.5071 178.316 56.5071 178.653C56.5071 178.945 56.6151 179.18 56.831 179.358C57.0469 179.536 57.3954 179.682 57.8764 179.795L59.2628 180.114C60.0658 180.299 60.6643 180.585 61.0582 180.972C61.4522 181.358 61.6491 181.86 61.6491 182.477C61.6491 183 61.4976 183.466 61.1946 183.875C60.8954 184.28 60.4768 184.598 59.9389 184.83C59.4048 185.061 58.7855 185.176 58.081 185.176C57.1037 185.176 56.3063 184.968 55.6889 184.551C55.0715 184.131 54.6927 183.534 54.5526 182.761L56.1946 182.511C56.2969 182.939 56.5071 183.263 56.8253 183.483C57.1435 183.699 57.5582 183.807 58.0696 183.807C58.6264 183.807 59.0715 183.691 59.4048 183.46C59.7382 183.225 59.9048 182.939 59.9048 182.602C59.9048 182.33 59.8026 182.1 59.598 181.915C59.3973 181.729 59.0885 181.589 58.6719 181.494L57.1946 181.17C56.3802 180.985 55.7779 180.689 55.3878 180.284C55.0014 179.879 54.8082 179.366 54.8082 178.744C54.8082 178.229 54.9522 177.778 55.2401 177.392C55.5279 177.006 55.9257 176.705 56.4332 176.489C56.9408 176.269 57.5223 176.159 58.1776 176.159C59.1207 176.159 59.8632 176.364 60.4048 176.773C60.9465 177.178 61.3045 177.722 61.4787 178.403ZM63.517 185V176.273H65.2159V185H63.517ZM64.375 174.926C64.0795 174.926 63.8258 174.828 63.6136 174.631C63.4053 174.43 63.3011 174.191 63.3011 173.915C63.3011 173.634 63.4053 173.396 63.6136 173.199C63.8258 172.998 64.0795 172.898 64.375 172.898C64.6705 172.898 64.9223 172.998 65.1307 173.199C65.3428 173.396 65.4489 173.634 65.4489 173.915C65.4489 174.191 65.3428 174.43 65.1307 174.631C64.9223 174.828 64.6705 174.926 64.375 174.926ZM69.2003 179.818V185H67.5014V176.273H69.1321V177.693H69.2401C69.4408 177.231 69.7552 176.86 70.1832 176.58C70.6151 176.299 71.1586 176.159 71.8139 176.159C72.4086 176.159 72.9295 176.284 73.3764 176.534C73.8234 176.78 74.17 177.148 74.4162 177.636C74.6624 178.125 74.7855 178.729 74.7855 179.449V185H73.0866V179.653C73.0866 179.021 72.9219 178.527 72.5923 178.17C72.2628 177.811 71.8101 177.631 71.2344 177.631C70.8404 177.631 70.4901 177.716 70.1832 177.886C69.8802 178.057 69.6397 178.307 69.4616 178.636C69.2874 178.962 69.2003 179.356 69.2003 179.818ZM80.723 188.455C80.0298 188.455 79.4332 188.364 78.9332 188.182C78.437 188 78.0317 187.759 77.7173 187.46C77.4029 187.161 77.1681 186.833 77.0128 186.477L78.473 185.875C78.5753 186.042 78.7116 186.218 78.8821 186.403C79.0563 186.593 79.2912 186.754 79.5866 186.886C79.8859 187.019 80.2704 187.085 80.7401 187.085C81.384 187.085 81.9162 186.928 82.3366 186.614C82.7571 186.303 82.9673 185.807 82.9673 185.125V183.409H82.8594C82.7571 183.595 82.6094 183.801 82.4162 184.028C82.2268 184.256 81.9654 184.453 81.6321 184.619C81.2988 184.786 80.8651 184.869 80.331 184.869C79.6416 184.869 79.0204 184.708 78.4673 184.386C77.9181 184.061 77.4825 183.581 77.1605 182.949C76.8423 182.312 76.6832 181.53 76.6832 180.602C76.6832 179.674 76.8404 178.879 77.1548 178.216C77.473 177.553 77.9086 177.045 78.4616 176.693C79.0147 176.337 79.6416 176.159 80.3423 176.159C80.884 176.159 81.3215 176.25 81.6548 176.432C81.9882 176.61 82.2476 176.818 82.4332 177.057C82.6226 177.295 82.7685 177.506 82.8707 177.688H82.9957V176.273H84.6605V185.193C84.6605 185.943 84.4863 186.559 84.1378 187.04C83.7893 187.521 83.3177 187.877 82.723 188.108C82.1321 188.339 81.4654 188.455 80.723 188.455ZM80.706 183.46C81.1946 183.46 81.6075 183.347 81.9446 183.119C82.2855 182.888 82.5431 182.559 82.7173 182.131C82.8954 181.699 82.9844 181.182 82.9844 180.58C82.9844 179.992 82.8973 179.475 82.723 179.028C82.5488 178.581 82.2931 178.233 81.956 177.983C81.6188 177.729 81.2022 177.602 80.706 177.602C80.1946 177.602 79.7685 177.735 79.4276 178C79.0866 178.261 78.8291 178.617 78.6548 179.068C78.4844 179.519 78.3991 180.023 78.3991 180.58C78.3991 181.152 78.4863 181.653 78.6605 182.085C78.8348 182.517 79.0923 182.854 79.4332 183.097C79.7779 183.339 80.2022 183.46 80.706 183.46ZM93.7131 185.193C93.16 185.193 92.66 185.091 92.2131 184.886C91.7661 184.678 91.4119 184.377 91.1506 183.983C90.893 183.589 90.7642 183.106 90.7642 182.534C90.7642 182.042 90.8589 181.636 91.0483 181.318C91.2377 181 91.4934 180.748 91.8153 180.562C92.1373 180.377 92.4972 180.237 92.8949 180.142C93.2926 180.047 93.6979 179.975 94.1108 179.926C94.6335 179.866 95.0578 179.816 95.3835 179.778C95.7093 179.737 95.946 179.67 96.0938 179.58C96.2415 179.489 96.3153 179.341 96.3153 179.136V179.097C96.3153 178.6 96.1752 178.216 95.8949 177.943C95.6184 177.67 95.2055 177.534 94.6562 177.534C94.0843 177.534 93.6335 177.661 93.304 177.915C92.9782 178.165 92.7528 178.443 92.6278 178.75L91.0312 178.386C91.2206 177.856 91.4972 177.428 91.8608 177.102C92.2282 176.773 92.6506 176.534 93.1278 176.386C93.6051 176.235 94.107 176.159 94.6335 176.159C94.982 176.159 95.3513 176.201 95.7415 176.284C96.1354 176.364 96.5028 176.511 96.8438 176.727C97.1884 176.943 97.4706 177.252 97.6903 177.653C97.91 178.051 98.0199 178.568 98.0199 179.205V185H96.3608V183.807H96.2926C96.1828 184.027 96.018 184.242 95.7983 184.455C95.5786 184.667 95.2964 184.843 94.9517 184.983C94.607 185.123 94.1941 185.193 93.7131 185.193ZM94.0824 183.83C94.5521 183.83 94.9536 183.737 95.2869 183.551C95.6241 183.366 95.8797 183.123 96.054 182.824C96.232 182.521 96.321 182.197 96.321 181.852V180.727C96.2604 180.788 96.143 180.845 95.9688 180.898C95.7983 180.947 95.6032 180.991 95.3835 181.028C95.1638 181.062 94.9498 181.095 94.7415 181.125C94.5331 181.152 94.3589 181.174 94.2188 181.193C93.8892 181.235 93.5881 181.305 93.3153 181.403C93.0464 181.502 92.8305 181.644 92.6676 181.83C92.5085 182.011 92.429 182.254 92.429 182.557C92.429 182.977 92.5843 183.295 92.8949 183.511C93.2055 183.723 93.6013 183.83 94.0824 183.83ZM165.714 185H163.851L168.038 173.364H170.067L174.254 185H172.391L169.101 175.477H169.01L165.714 185ZM166.027 180.443H172.072V181.92H166.027V180.443ZM179.334 185.176C178.489 185.176 177.762 184.985 177.152 184.602C176.546 184.216 176.08 183.684 175.754 183.006C175.429 182.328 175.266 181.551 175.266 180.676C175.266 179.79 175.432 179.008 175.766 178.33C176.099 177.648 176.569 177.116 177.175 176.733C177.781 176.35 178.495 176.159 179.317 176.159C179.98 176.159 180.571 176.282 181.089 176.528C181.608 176.771 182.027 177.112 182.345 177.551C182.667 177.991 182.858 178.504 182.919 179.091H181.266C181.175 178.682 180.966 178.33 180.641 178.034C180.319 177.739 179.887 177.591 179.345 177.591C178.872 177.591 178.457 177.716 178.101 177.966C177.749 178.212 177.474 178.564 177.277 179.023C177.08 179.477 176.982 180.015 176.982 180.636C176.982 181.273 177.078 181.822 177.271 182.284C177.464 182.746 177.737 183.104 178.089 183.358C178.446 183.612 178.864 183.739 179.345 183.739C179.667 183.739 179.959 183.68 180.22 183.562C180.485 183.441 180.707 183.269 180.885 183.045C181.067 182.822 181.194 182.553 181.266 182.239H182.919C182.858 182.803 182.675 183.307 182.368 183.75C182.061 184.193 181.65 184.542 181.135 184.795C180.624 185.049 180.023 185.176 179.334 185.176ZM188.412 185.176C187.567 185.176 186.84 184.985 186.23 184.602C185.624 184.216 185.158 183.684 184.832 183.006C184.507 182.328 184.344 181.551 184.344 180.676C184.344 179.79 184.51 179.008 184.844 178.33C185.177 177.648 185.647 177.116 186.253 176.733C186.859 176.35 187.573 176.159 188.395 176.159C189.058 176.159 189.649 176.282 190.168 176.528C190.687 176.771 191.105 177.112 191.423 177.551C191.745 177.991 191.937 178.504 191.997 179.091H190.344C190.253 178.682 190.045 178.33 189.719 178.034C189.397 177.739 188.965 177.591 188.423 177.591C187.95 177.591 187.535 177.716 187.179 177.966C186.827 178.212 186.552 178.564 186.355 179.023C186.158 179.477 186.06 180.015 186.06 180.636C186.06 181.273 186.156 181.822 186.349 182.284C186.543 182.746 186.815 183.104 187.168 183.358C187.524 183.612 187.942 183.739 188.423 183.739C188.745 183.739 189.037 183.68 189.298 183.562C189.563 183.441 189.785 183.269 189.963 183.045C190.145 182.822 190.272 182.553 190.344 182.239H191.997C191.937 182.803 191.753 183.307 191.446 183.75C191.139 184.193 190.728 184.542 190.213 184.795C189.702 185.049 189.101 185.176 188.412 185.176ZM197.49 185.176C196.672 185.176 195.958 184.989 195.348 184.614C194.738 184.239 194.265 183.714 193.928 183.04C193.59 182.366 193.422 181.578 193.422 180.676C193.422 179.771 193.59 178.979 193.928 178.301C194.265 177.623 194.738 177.097 195.348 176.722C195.958 176.347 196.672 176.159 197.49 176.159C198.308 176.159 199.022 176.347 199.632 176.722C200.242 177.097 200.715 177.623 201.053 178.301C201.39 178.979 201.558 179.771 201.558 180.676C201.558 181.578 201.39 182.366 201.053 183.04C200.715 183.714 200.242 184.239 199.632 184.614C199.022 184.989 198.308 185.176 197.49 185.176ZM197.496 183.75C198.026 183.75 198.465 183.61 198.814 183.33C199.162 183.049 199.42 182.676 199.587 182.21C199.757 181.744 199.842 181.231 199.842 180.67C199.842 180.114 199.757 179.602 199.587 179.136C199.42 178.667 199.162 178.29 198.814 178.006C198.465 177.722 198.026 177.58 197.496 177.58C196.962 177.58 196.518 177.722 196.166 178.006C195.818 178.29 195.558 178.667 195.388 179.136C195.221 179.602 195.138 180.114 195.138 180.67C195.138 181.231 195.221 181.744 195.388 182.21C195.558 182.676 195.818 183.049 196.166 183.33C196.518 183.61 196.962 183.75 197.496 183.75ZM208.983 181.381V176.273H210.688V185H209.017V183.489H208.926C208.725 183.955 208.403 184.343 207.96 184.653C207.521 184.96 206.973 185.114 206.318 185.114C205.758 185.114 205.261 184.991 204.83 184.744C204.402 184.494 204.064 184.125 203.818 183.636C203.576 183.148 203.455 182.544 203.455 181.824V176.273H205.153V181.619C205.153 182.214 205.318 182.687 205.648 183.04C205.977 183.392 206.405 183.568 206.932 183.568C207.25 183.568 207.566 183.489 207.881 183.33C208.199 183.17 208.462 182.93 208.67 182.608C208.883 182.286 208.987 181.877 208.983 181.381ZM214.669 179.818V185H212.97V176.273H214.601V177.693H214.709C214.91 177.231 215.224 176.86 215.652 176.58C216.084 176.299 216.627 176.159 217.283 176.159C217.877 176.159 218.398 176.284 218.845 176.534C219.292 176.78 219.639 177.148 219.885 177.636C220.131 178.125 220.254 178.729 220.254 179.449V185H218.555V179.653C218.555 179.021 218.391 178.527 218.061 178.17C217.732 177.811 217.279 177.631 216.703 177.631C216.309 177.631 215.959 177.716 215.652 177.886C215.349 178.057 215.108 178.307 214.93 178.636C214.756 178.962 214.669 179.356 214.669 179.818ZM226.607 176.273V177.636H221.839V176.273H226.607ZM223.118 174.182H224.817V182.438C224.817 182.767 224.866 183.015 224.964 183.182C225.063 183.345 225.19 183.456 225.345 183.517C225.504 183.574 225.677 183.602 225.862 183.602C225.999 183.602 226.118 183.593 226.22 183.574C226.322 183.555 226.402 183.54 226.459 183.528L226.766 184.932C226.667 184.97 226.527 185.008 226.345 185.045C226.163 185.087 225.936 185.11 225.663 185.114C225.216 185.121 224.8 185.042 224.413 184.875C224.027 184.708 223.714 184.451 223.476 184.102C223.237 183.754 223.118 183.316 223.118 182.79V174.182Z" fill="#2D3342"/>
<path d="M112.102 177.125C112.023 176.848 111.911 176.604 111.767 176.392C111.623 176.176 111.447 175.994 111.239 175.847C111.034 175.695 110.799 175.58 110.534 175.5C110.273 175.42 109.983 175.381 109.665 175.381C109.07 175.381 108.547 175.528 108.097 175.824C107.65 176.119 107.301 176.549 107.051 177.114C106.801 177.674 106.676 178.36 106.676 179.17C106.676 179.981 106.799 180.67 107.045 181.239C107.292 181.807 107.64 182.241 108.091 182.54C108.542 182.835 109.074 182.983 109.688 182.983C110.244 182.983 110.72 182.884 111.114 182.688C111.511 182.487 111.814 182.205 112.023 181.841C112.235 181.477 112.341 181.047 112.341 180.551L112.841 180.625H109.841V178.773H114.71V180.239C114.71 181.261 114.494 182.14 114.062 182.875C113.631 183.606 113.036 184.17 112.278 184.568C111.521 184.962 110.653 185.159 109.676 185.159C108.585 185.159 107.627 184.919 106.801 184.438C105.975 183.953 105.331 183.265 104.869 182.375C104.411 181.481 104.182 180.42 104.182 179.193C104.182 178.25 104.318 177.409 104.591 176.67C104.867 175.928 105.254 175.299 105.75 174.784C106.246 174.269 106.824 173.877 107.483 173.608C108.142 173.339 108.856 173.205 109.625 173.205C110.284 173.205 110.898 173.301 111.466 173.494C112.034 173.684 112.538 173.953 112.977 174.301C113.42 174.65 113.782 175.064 114.062 175.545C114.343 176.023 114.523 176.549 114.602 177.125H112.102ZM120.456 185.17C119.573 185.17 118.81 184.983 118.166 184.608C117.526 184.229 117.032 183.703 116.683 183.028C116.335 182.35 116.161 181.564 116.161 180.67C116.161 179.769 116.335 178.981 116.683 178.307C117.032 177.629 117.526 177.102 118.166 176.727C118.81 176.348 119.573 176.159 120.456 176.159C121.339 176.159 122.1 176.348 122.74 176.727C123.384 177.102 123.88 177.629 124.229 178.307C124.577 178.981 124.751 179.769 124.751 180.67C124.751 181.564 124.577 182.35 124.229 183.028C123.88 183.703 123.384 184.229 122.74 184.608C122.1 184.983 121.339 185.17 120.456 185.17ZM120.467 183.295C120.869 183.295 121.204 183.182 121.473 182.955C121.742 182.723 121.945 182.409 122.081 182.011C122.221 181.614 122.291 181.161 122.291 180.653C122.291 180.146 122.221 179.693 122.081 179.295C121.945 178.898 121.742 178.583 121.473 178.352C121.204 178.121 120.869 178.006 120.467 178.006C120.062 178.006 119.721 178.121 119.445 178.352C119.172 178.583 118.965 178.898 118.825 179.295C118.689 179.693 118.621 180.146 118.621 180.653C118.621 181.161 118.689 181.614 118.825 182.011C118.965 182.409 119.172 182.723 119.445 182.955C119.721 183.182 120.062 183.295 120.467 183.295ZM130.268 185.17C129.386 185.17 128.623 184.983 127.979 184.608C127.339 184.229 126.844 183.703 126.496 183.028C126.147 182.35 125.973 181.564 125.973 180.67C125.973 179.769 126.147 178.981 126.496 178.307C126.844 177.629 127.339 177.102 127.979 176.727C128.623 176.348 129.386 176.159 130.268 176.159C131.151 176.159 131.912 176.348 132.553 176.727C133.196 177.102 133.693 177.629 134.041 178.307C134.39 178.981 134.564 179.769 134.564 180.67C134.564 181.564 134.39 182.35 134.041 183.028C133.693 183.703 133.196 184.229 132.553 184.608C131.912 184.983 131.151 185.17 130.268 185.17ZM130.28 183.295C130.681 183.295 131.017 183.182 131.286 182.955C131.554 182.723 131.757 182.409 131.893 182.011C132.034 181.614 132.104 181.161 132.104 180.653C132.104 180.146 132.034 179.693 131.893 179.295C131.757 178.898 131.554 178.583 131.286 178.352C131.017 178.121 130.681 178.006 130.28 178.006C129.875 178.006 129.534 178.121 129.257 178.352C128.984 178.583 128.778 178.898 128.638 179.295C128.501 179.693 128.433 180.146 128.433 180.653C128.433 181.161 128.501 181.614 128.638 182.011C128.778 182.409 128.984 182.723 129.257 182.955C129.534 183.182 129.875 183.295 130.28 183.295ZM140.07 188.455C139.286 188.455 138.613 188.347 138.053 188.131C137.496 187.919 137.053 187.629 136.723 187.261C136.393 186.894 136.179 186.481 136.081 186.023L138.32 185.722C138.388 185.896 138.496 186.059 138.643 186.21C138.791 186.362 138.986 186.483 139.229 186.574C139.475 186.669 139.774 186.716 140.126 186.716C140.653 186.716 141.087 186.587 141.428 186.33C141.772 186.076 141.945 185.65 141.945 185.051V183.455H141.842C141.736 183.697 141.577 183.926 141.365 184.142C141.153 184.358 140.88 184.534 140.547 184.67C140.214 184.807 139.816 184.875 139.354 184.875C138.698 184.875 138.102 184.723 137.564 184.42C137.03 184.114 136.604 183.646 136.286 183.017C135.971 182.384 135.814 181.585 135.814 180.619C135.814 179.631 135.975 178.805 136.297 178.142C136.619 177.479 137.047 176.983 137.581 176.653C138.119 176.324 138.708 176.159 139.348 176.159C139.837 176.159 140.246 176.242 140.575 176.409C140.905 176.572 141.17 176.777 141.371 177.023C141.575 177.265 141.732 177.504 141.842 177.739H141.933V176.273H144.337V185.085C144.337 185.828 144.155 186.449 143.791 186.949C143.428 187.449 142.924 187.824 142.28 188.074C141.64 188.328 140.903 188.455 140.07 188.455ZM140.121 183.057C140.511 183.057 140.84 182.96 141.109 182.767C141.382 182.57 141.59 182.29 141.734 181.926C141.882 181.559 141.956 181.119 141.956 180.608C141.956 180.097 141.884 179.653 141.74 179.278C141.596 178.9 141.388 178.606 141.115 178.398C140.842 178.189 140.511 178.085 140.121 178.085C139.723 178.085 139.388 178.193 139.115 178.409C138.842 178.621 138.636 178.917 138.496 179.295C138.356 179.674 138.286 180.112 138.286 180.608C138.286 181.112 138.356 181.547 138.496 181.915C138.64 182.278 138.846 182.561 139.115 182.761C139.388 182.958 139.723 183.057 140.121 183.057ZM148.683 173.364V185H146.263V173.364H148.683ZM154.599 185.17C153.702 185.17 152.929 184.989 152.281 184.625C151.637 184.258 151.141 183.739 150.793 183.068C150.444 182.394 150.27 181.597 150.27 180.676C150.27 179.778 150.444 178.991 150.793 178.312C151.141 177.634 151.632 177.106 152.264 176.727C152.901 176.348 153.647 176.159 154.503 176.159C155.079 176.159 155.615 176.252 156.111 176.438C156.611 176.619 157.046 176.894 157.418 177.261C157.793 177.629 158.084 178.091 158.293 178.648C158.501 179.201 158.605 179.848 158.605 180.591V181.256H151.236V179.756H156.327C156.327 179.407 156.251 179.098 156.099 178.83C155.948 178.561 155.738 178.35 155.469 178.199C155.204 178.044 154.895 177.966 154.543 177.966C154.175 177.966 153.849 178.051 153.565 178.222C153.285 178.388 153.065 178.614 152.906 178.898C152.747 179.178 152.666 179.491 152.662 179.835V181.261C152.662 181.693 152.741 182.066 152.901 182.381C153.063 182.695 153.293 182.938 153.588 183.108C153.884 183.278 154.234 183.364 154.639 183.364C154.908 183.364 155.154 183.326 155.378 183.25C155.601 183.174 155.793 183.061 155.952 182.909C156.111 182.758 156.232 182.572 156.315 182.352L158.554 182.5C158.44 183.038 158.207 183.508 157.855 183.909C157.507 184.307 157.056 184.617 156.503 184.841C155.954 185.061 155.319 185.17 154.599 185.17Z" fill="#5955B3"/>
<path d="M28.8195 188.73C28.3665 188.662 17.3988 187.195 17.8557 176.962C17.8976 176.022 18.0146 175.167 18.1963 174.391M28.8195 188.73C22.8081 188.331 19.7534 185.969 18.3863 183.139M28.8195 188.73C29.5468 188.838 30.2969 188.829 31.0389 188.711M18.1963 174.391C18.4238 173.421 18.7528 172.575 19.1636 171.846M18.1963 174.391C17.3773 176.667 16.9486 180.162 18.3863 183.139M19.1636 171.846C22.5308 165.863 31.3862 167.65 34.7582 171.846C36.0814 173.493 38.8545 177.671 37.5031 182.894C36.656 186.168 33.9076 188.256 31.0389 188.711M19.1636 171.846C17.8823 173.651 16.0233 177.879 17.6126 181.713M18.3863 183.139C18.0682 182.673 17.813 182.196 17.6126 181.713M31.0389 188.711C27.2455 189.373 19.2496 188.9 17.6126 181.713" stroke="#6663CF" stroke-linecap="round"/>
<path d="M26.8711 232.149C26.0908 232.149 25.3938 232.014 24.7802 231.745C24.1704 231.476 23.6874 231.103 23.3313 230.626C22.9791 230.145 22.7897 229.588 22.7632 228.956H24.5472C24.57 229.3 24.6855 229.6 24.8938 229.853C25.106 230.103 25.3825 230.297 25.7234 230.433C26.0643 230.569 26.4431 230.637 26.8597 230.637C27.3181 230.637 27.7234 230.558 28.0757 230.399C28.4317 230.24 28.7101 230.018 28.9109 229.734C29.1116 229.446 29.212 229.115 29.212 228.74C29.212 228.35 29.1116 228.007 28.9109 227.711C28.7139 227.412 28.4241 227.177 28.0416 227.007C27.6628 226.836 27.2044 226.751 26.6666 226.751H25.6836V225.319H26.6666C27.0984 225.319 27.4772 225.242 27.8029 225.086C28.1325 224.931 28.39 224.715 28.5757 224.439C28.7613 224.158 28.8541 223.831 28.8541 223.456C28.8541 223.096 28.7726 222.783 28.6097 222.518C28.4507 222.249 28.2234 222.039 27.9279 221.887C27.6363 221.736 27.2916 221.66 26.8938 221.66C26.515 221.66 26.1609 221.73 25.8313 221.87C25.5056 222.007 25.2404 222.204 25.0359 222.461C24.8313 222.715 24.7215 223.02 24.7063 223.376H23.0075C23.0264 222.747 23.212 222.194 23.5643 221.717C23.9204 221.24 24.39 220.867 24.9734 220.598C25.5567 220.329 26.2044 220.194 26.9166 220.194C27.6628 220.194 28.3067 220.34 28.8484 220.632C29.3938 220.92 29.8143 221.304 30.1097 221.785C30.409 222.266 30.5567 222.793 30.5529 223.365C30.5567 224.016 30.3749 224.569 30.0075 225.024C29.6438 225.478 29.159 225.783 28.5529 225.939V226.03C29.3257 226.147 29.9241 226.454 30.3484 226.95C30.7764 227.446 30.9885 228.062 30.9847 228.797C30.9885 229.437 30.8105 230.011 30.4507 230.518C30.0946 231.026 29.6079 231.425 28.9904 231.717C28.373 232.005 27.6666 232.149 26.8711 232.149ZM34.4009 232.098C34.0903 232.098 33.8233 231.988 33.5998 231.768C33.3763 231.545 33.2646 231.276 33.2646 230.961C33.2646 230.651 33.3763 230.386 33.5998 230.166C33.8233 229.942 34.0903 229.831 34.4009 229.831C34.7115 229.831 34.9786 229.942 35.2021 230.166C35.4256 230.386 35.5373 230.651 35.5373 230.961C35.5373 231.17 35.4843 231.361 35.3782 231.535C35.2759 231.706 35.1396 231.842 34.9691 231.944C34.7987 232.047 34.6093 232.098 34.4009 232.098ZM50.7484 220.353H52.5098V228.007C52.5098 228.821 52.3185 229.543 51.9359 230.172C51.5533 230.797 51.0155 231.289 50.3223 231.649C49.6291 232.005 48.8166 232.183 47.8848 232.183C46.9568 232.183 46.1462 232.005 45.453 231.649C44.7598 231.289 44.2219 230.797 43.8393 230.172C43.4568 229.543 43.2655 228.821 43.2655 228.007V220.353H45.0212V227.865C45.0212 228.391 45.1367 228.859 45.3677 229.268C45.6026 229.677 45.934 229.999 46.3621 230.234C46.7901 230.465 47.2977 230.581 47.8848 230.581C48.4757 230.581 48.9852 230.465 49.4132 230.234C49.845 229.999 50.1746 229.677 50.4018 229.268C50.6329 228.859 50.7484 228.391 50.7484 227.865V220.353ZM61.4658 225.393L59.926 225.666C59.8616 225.469 59.7593 225.281 59.6192 225.103C59.4828 224.925 59.2972 224.78 59.0623 224.666C58.8275 224.552 58.5339 224.495 58.1817 224.495C57.7006 224.495 57.2991 224.603 56.9771 224.819C56.6551 225.031 56.4942 225.306 56.4942 225.643C56.4942 225.935 56.6021 226.17 56.818 226.348C57.0339 226.526 57.3824 226.672 57.8635 226.785L59.2498 227.103C60.0529 227.289 60.6514 227.575 61.0453 227.961C61.4392 228.348 61.6362 228.85 61.6362 229.467C61.6362 229.99 61.4847 230.456 61.1817 230.865C60.8824 231.27 60.4639 231.588 59.926 231.819C59.3919 232.05 58.7726 232.166 58.068 232.166C57.0908 232.166 56.2934 231.958 55.676 231.541C55.0586 231.12 54.6798 230.524 54.5396 229.751L56.1817 229.501C56.2839 229.929 56.4942 230.253 56.8123 230.473C57.1305 230.689 57.5453 230.797 58.0567 230.797C58.6135 230.797 59.0586 230.681 59.3919 230.45C59.7252 230.215 59.8919 229.929 59.8919 229.592C59.8919 229.319 59.7896 229.09 59.5851 228.905C59.3843 228.719 59.0756 228.579 58.6589 228.484L57.1817 228.16C56.3673 227.975 55.765 227.679 55.3748 227.274C54.9885 226.869 54.7953 226.355 54.7953 225.734C54.7953 225.219 54.9392 224.768 55.2271 224.382C55.515 223.995 55.9127 223.694 56.4203 223.478C56.9279 223.259 57.5093 223.149 58.1646 223.149C59.1078 223.149 59.8502 223.353 60.3919 223.762C60.9336 224.168 61.2915 224.711 61.4658 225.393ZM63.5041 231.99V223.262H65.203V231.99H63.5041ZM64.3621 221.916C64.0666 221.916 63.8128 221.817 63.6007 221.62C63.3924 221.42 63.2882 221.181 63.2882 220.905C63.2882 220.624 63.3924 220.386 63.6007 220.189C63.8128 219.988 64.0666 219.887 64.3621 219.887C64.6575 219.887 64.9094 219.988 65.1177 220.189C65.3299 220.386 65.4359 220.624 65.4359 220.905C65.4359 221.181 65.3299 221.42 65.1177 221.62C64.9094 221.817 64.6575 221.916 64.3621 221.916ZM69.1873 226.808V231.99H67.4885V223.262H69.1192V224.683H69.2271C69.4279 224.221 69.7423 223.85 70.1703 223.569C70.6021 223.289 71.1457 223.149 71.801 223.149C72.3957 223.149 72.9165 223.274 73.3635 223.524C73.8105 223.77 74.157 224.137 74.4033 224.626C74.6495 225.115 74.7726 225.719 74.7726 226.439V231.99H73.0737V226.643C73.0737 226.011 72.9089 225.516 72.5794 225.16C72.2498 224.8 71.7972 224.62 71.2214 224.62C70.8275 224.62 70.4771 224.706 70.1703 224.876C69.8673 225.047 69.6267 225.297 69.4487 225.626C69.2745 225.952 69.1873 226.346 69.1873 226.808ZM80.7101 235.444C80.0169 235.444 79.4203 235.353 78.9203 235.172C78.4241 234.99 78.0188 234.749 77.7044 234.45C77.39 234.151 77.1551 233.823 76.9998 233.467L78.4601 232.865C78.5623 233.031 78.6987 233.208 78.8692 233.393C79.0434 233.583 79.2783 233.744 79.5737 233.876C79.873 234.009 80.2574 234.075 80.7271 234.075C81.3711 234.075 81.9033 233.918 82.3237 233.603C82.7442 233.293 82.9544 232.797 82.9544 232.115V230.399H82.8464C82.7442 230.584 82.5964 230.791 82.4033 231.018C82.2139 231.245 81.9525 231.442 81.6192 231.609C81.2858 231.776 80.8521 231.859 80.318 231.859C79.6286 231.859 79.0074 231.698 78.4544 231.376C77.9051 231.05 77.4695 230.571 77.1476 229.939C76.8294 229.302 76.6703 228.52 76.6703 227.592C76.6703 226.664 76.8275 225.869 77.1419 225.206C77.4601 224.543 77.8957 224.035 78.4487 223.683C79.0017 223.327 79.6286 223.149 80.3294 223.149C80.8711 223.149 81.3086 223.24 81.6419 223.422C81.9752 223.6 82.2347 223.808 82.4203 224.047C82.6097 224.285 82.7555 224.495 82.8578 224.677H82.9828V223.262H84.6476V232.183C84.6476 232.933 84.4733 233.548 84.1248 234.03C83.7764 234.511 83.3048 234.867 82.7101 235.098C82.1192 235.329 81.4525 235.444 80.7101 235.444ZM80.693 230.45C81.1817 230.45 81.5945 230.336 81.9317 230.109C82.2726 229.878 82.5301 229.548 82.7044 229.12C82.8824 228.689 82.9714 228.172 82.9714 227.569C82.9714 226.982 82.8843 226.465 82.7101 226.018C82.5358 225.571 82.2801 225.223 81.943 224.973C81.6059 224.719 81.1892 224.592 80.693 224.592C80.1817 224.592 79.7555 224.725 79.4146 224.99C79.0737 225.251 78.8161 225.607 78.6419 226.058C78.4714 226.509 78.3862 227.012 78.3862 227.569C78.3862 228.141 78.4733 228.643 78.6476 229.075C78.8218 229.507 79.0794 229.844 79.4203 230.086C79.765 230.329 80.1892 230.45 80.693 230.45ZM93.7001 232.183C93.1471 232.183 92.6471 232.081 92.2001 231.876C91.7532 231.668 91.399 231.367 91.1376 230.973C90.8801 230.579 90.7513 230.096 90.7513 229.524C90.7513 229.031 90.846 228.626 91.0354 228.308C91.2247 227.99 91.4804 227.738 91.8024 227.552C92.1244 227.367 92.4842 227.226 92.8819 227.132C93.2797 227.037 93.685 226.965 94.0979 226.916C94.6206 226.855 95.0448 226.806 95.3706 226.768C95.6963 226.726 95.9331 226.66 96.0808 226.569C96.2285 226.478 96.3024 226.331 96.3024 226.126V226.086C96.3024 225.59 96.1623 225.206 95.8819 224.933C95.6054 224.66 95.1926 224.524 94.6433 224.524C94.0713 224.524 93.6206 224.651 93.291 224.905C92.9653 225.155 92.7399 225.433 92.6149 225.74L91.0183 225.376C91.2077 224.846 91.4842 224.418 91.8479 224.092C92.2153 223.762 92.6376 223.524 93.1149 223.376C93.5922 223.225 94.0941 223.149 94.6206 223.149C94.9691 223.149 95.3384 223.191 95.7285 223.274C96.1225 223.353 96.4899 223.501 96.8308 223.717C97.1755 223.933 97.4577 224.242 97.6774 224.643C97.8971 225.041 98.0069 225.558 98.0069 226.194V231.99H96.3479V230.797H96.2797C96.1698 231.016 96.0051 231.232 95.7854 231.444C95.5657 231.656 95.2835 231.833 94.9388 231.973C94.5941 232.113 94.1812 232.183 93.7001 232.183ZM94.0694 230.819C94.5391 230.819 94.9407 230.726 95.274 230.541C95.6111 230.355 95.8668 230.113 96.041 229.814C96.2191 229.511 96.3081 229.187 96.3081 228.842V227.717C96.2475 227.778 96.1301 227.834 95.9558 227.887C95.7854 227.937 95.5903 227.98 95.3706 228.018C95.1509 228.052 94.9369 228.084 94.7285 228.115C94.5202 228.141 94.346 228.164 94.2058 228.183C93.8763 228.225 93.5751 228.295 93.3024 228.393C93.0335 228.492 92.8176 228.634 92.6547 228.819C92.4956 229.001 92.416 229.244 92.416 229.547C92.416 229.967 92.5713 230.285 92.8819 230.501C93.1926 230.713 93.5884 230.819 94.0694 230.819ZM134.278 232.183C133.725 232.183 133.225 232.081 132.778 231.876C132.331 231.668 131.977 231.367 131.716 230.973C131.458 230.579 131.329 230.096 131.329 229.524C131.329 229.031 131.424 228.626 131.613 228.308C131.803 227.99 132.059 227.738 132.381 227.552C132.702 227.367 133.062 227.226 133.46 227.132C133.858 227.037 134.263 226.965 134.676 226.916C135.199 226.855 135.623 226.806 135.949 226.768C136.274 226.726 136.511 226.66 136.659 226.569C136.807 226.478 136.881 226.331 136.881 226.126V226.086C136.881 225.59 136.74 225.206 136.46 224.933C136.184 224.66 135.771 224.524 135.221 224.524C134.649 224.524 134.199 224.651 133.869 224.905C133.543 225.155 133.318 225.433 133.193 225.74L131.596 225.376C131.786 224.846 132.062 224.418 132.426 224.092C132.793 223.762 133.216 223.524 133.693 223.376C134.17 223.225 134.672 223.149 135.199 223.149C135.547 223.149 135.917 223.191 136.307 223.274C136.701 223.353 137.068 223.501 137.409 223.717C137.754 223.933 138.036 224.242 138.256 224.643C138.475 225.041 138.585 225.558 138.585 226.194V231.99H136.926V230.797H136.858C136.748 231.016 136.583 231.232 136.363 231.444C136.144 231.656 135.862 231.833 135.517 231.973C135.172 232.113 134.759 232.183 134.278 232.183ZM134.648 230.819C135.117 230.819 135.519 230.726 135.852 230.541C136.189 230.355 136.445 230.113 136.619 229.814C136.797 229.511 136.886 229.187 136.886 228.842V227.717C136.826 227.778 136.708 227.834 136.534 227.887C136.363 227.937 136.168 227.98 135.949 228.018C135.729 228.052 135.515 228.084 135.307 228.115C135.098 228.141 134.924 228.164 134.784 228.183C134.454 228.225 134.153 228.295 133.881 228.393C133.612 228.492 133.396 228.634 133.233 228.819C133.074 229.001 132.994 229.244 132.994 229.547C132.994 229.967 133.149 230.285 133.46 230.501C133.771 230.713 134.167 230.819 134.648 230.819ZM144.524 232.166C143.679 232.166 142.952 231.975 142.342 231.592C141.736 231.206 141.27 230.673 140.944 229.995C140.619 229.317 140.456 228.541 140.456 227.666C140.456 226.78 140.622 225.997 140.956 225.319C141.289 224.637 141.759 224.105 142.365 223.723C142.971 223.34 143.685 223.149 144.507 223.149C145.17 223.149 145.761 223.272 146.28 223.518C146.799 223.761 147.217 224.101 147.535 224.541C147.857 224.98 148.049 225.494 148.109 226.081H146.456C146.365 225.672 146.157 225.319 145.831 225.024C145.509 224.728 145.077 224.581 144.535 224.581C144.062 224.581 143.647 224.706 143.291 224.956C142.939 225.202 142.664 225.554 142.467 226.012C142.27 226.467 142.172 227.005 142.172 227.626C142.172 228.262 142.268 228.812 142.461 229.274C142.655 229.736 142.927 230.094 143.28 230.348C143.636 230.601 144.054 230.728 144.535 230.728C144.857 230.728 145.149 230.67 145.41 230.552C145.676 230.431 145.897 230.259 146.075 230.035C146.257 229.812 146.384 229.543 146.456 229.228H148.109C148.049 229.793 147.865 230.297 147.558 230.74C147.251 231.183 146.84 231.531 146.325 231.785C145.814 232.039 145.213 232.166 144.524 232.166ZM153.602 232.166C152.757 232.166 152.03 231.975 151.42 231.592C150.814 231.206 150.348 230.673 150.023 229.995C149.697 229.317 149.534 228.541 149.534 227.666C149.534 226.78 149.701 225.997 150.034 225.319C150.367 224.637 150.837 224.105 151.443 223.723C152.049 223.34 152.763 223.149 153.585 223.149C154.248 223.149 154.839 223.272 155.358 223.518C155.877 223.761 156.295 224.101 156.613 224.541C156.935 224.98 157.127 225.494 157.187 226.081H155.534C155.443 225.672 155.235 225.319 154.909 225.024C154.587 224.728 154.155 224.581 153.613 224.581C153.14 224.581 152.725 224.706 152.369 224.956C152.017 225.202 151.742 225.554 151.545 226.012C151.348 226.467 151.25 227.005 151.25 227.626C151.25 228.262 151.346 228.812 151.54 229.274C151.733 229.736 152.006 230.094 152.358 230.348C152.714 230.601 153.132 230.728 153.613 230.728C153.935 230.728 154.227 230.67 154.488 230.552C154.754 230.431 154.975 230.259 155.153 230.035C155.335 229.812 155.462 229.543 155.534 229.228H157.187C157.127 229.793 156.943 230.297 156.636 230.74C156.329 231.183 155.918 231.531 155.403 231.785C154.892 232.039 154.292 232.166 153.602 232.166ZM162.68 232.166C161.862 232.166 161.148 231.978 160.538 231.603C159.928 231.228 159.455 230.704 159.118 230.03C158.781 229.355 158.612 228.567 158.612 227.666C158.612 226.761 158.781 225.969 159.118 225.291C159.455 224.613 159.928 224.086 160.538 223.711C161.148 223.336 161.862 223.149 162.68 223.149C163.498 223.149 164.212 223.336 164.822 223.711C165.432 224.086 165.906 224.613 166.243 225.291C166.58 225.969 166.748 226.761 166.748 227.666C166.748 228.567 166.58 229.355 166.243 230.03C165.906 230.704 165.432 231.228 164.822 231.603C164.212 231.978 163.498 232.166 162.68 232.166ZM162.686 230.74C163.216 230.74 163.656 230.6 164.004 230.319C164.353 230.039 164.61 229.666 164.777 229.2C164.947 228.734 165.033 228.221 165.033 227.66C165.033 227.103 164.947 226.592 164.777 226.126C164.61 225.656 164.353 225.28 164.004 224.995C163.656 224.711 163.216 224.569 162.686 224.569C162.152 224.569 161.709 224.711 161.356 224.995C161.008 225.28 160.748 225.656 160.578 226.126C160.411 226.592 160.328 227.103 160.328 227.66C160.328 228.221 160.411 228.734 160.578 229.2C160.748 229.666 161.008 230.039 161.356 230.319C161.709 230.6 162.152 230.74 162.686 230.74ZM174.173 228.37V223.262H175.878V231.99H174.207V230.478H174.116C173.916 230.944 173.594 231.333 173.15 231.643C172.711 231.95 172.164 232.103 171.508 232.103C170.948 232.103 170.452 231.98 170.02 231.734C169.592 231.484 169.255 231.115 169.008 230.626C168.766 230.137 168.645 229.533 168.645 228.814V223.262H170.344V228.609C170.344 229.204 170.508 229.677 170.838 230.03C171.167 230.382 171.595 230.558 172.122 230.558C172.44 230.558 172.756 230.478 173.071 230.319C173.389 230.16 173.652 229.92 173.861 229.598C174.073 229.276 174.177 228.867 174.173 228.37ZM179.859 226.808V231.99H178.16V223.262H179.791V224.683H179.899C180.1 224.221 180.414 223.85 180.842 223.569C181.274 223.289 181.818 223.149 182.473 223.149C183.068 223.149 183.588 223.274 184.035 223.524C184.482 223.77 184.829 224.137 185.075 224.626C185.321 225.115 185.444 225.719 185.444 226.439V231.99H183.746V226.643C183.746 226.011 183.581 225.516 183.251 225.16C182.922 224.8 182.469 224.62 181.893 224.62C181.499 224.62 181.149 224.706 180.842 224.876C180.539 225.047 180.299 225.297 180.121 225.626C179.946 225.952 179.859 226.346 179.859 226.808ZM191.797 223.262V224.626H187.03V223.262H191.797ZM188.308 221.172H190.007V229.427C190.007 229.757 190.056 230.005 190.155 230.172C190.253 230.334 190.38 230.446 190.535 230.507C190.694 230.564 190.867 230.592 191.052 230.592C191.189 230.592 191.308 230.583 191.41 230.564C191.513 230.545 191.592 230.53 191.649 230.518L191.956 231.922C191.857 231.959 191.717 231.997 191.535 232.035C191.354 232.077 191.126 232.1 190.854 232.103C190.407 232.111 189.99 232.031 189.604 231.865C189.217 231.698 188.905 231.441 188.666 231.092C188.427 230.744 188.308 230.306 188.308 229.78V221.172Z" fill="#2D3342"/>
<path d="M106.476 220.353L109.288 229.194H109.396L112.214 220.353H114.942L110.93 231.99H107.76L103.743 220.353H106.476ZM116.342 231.99V220.353H118.802V225.484H118.956L123.143 220.353H126.092L121.774 225.564L126.143 231.99H123.2L120.013 227.206L118.802 228.683V231.99H116.342Z" fill="#6663CF"/>
<path d="M28.8195 235.73C28.3665 235.662 17.3988 234.195 17.8557 223.962C17.8976 223.022 18.0146 222.167 18.1963 221.391M28.8195 235.73C22.8081 235.331 19.7534 232.969 18.3863 230.139M28.8195 235.73C29.5468 235.838 30.2969 235.829 31.0389 235.711M18.1963 221.391C18.4238 220.421 18.7528 219.575 19.1636 218.846M18.1963 221.391C17.3773 223.667 16.9486 227.162 18.3863 230.139M19.1636 218.846C22.5308 212.863 31.3862 214.65 34.7582 218.846C36.0814 220.493 38.8545 224.671 37.5031 229.894C36.656 233.168 33.9076 235.256 31.0389 235.711M19.1636 218.846C17.8823 220.651 16.0233 224.879 17.6126 228.713M18.3863 230.139C18.0682 229.673 17.813 229.196 17.6126 228.713M31.0389 235.711C27.2455 236.373 19.2496 235.9 17.6126 228.713" stroke="#6663CF" stroke-linecap="round"/>
<defs>
<linearGradient id="paint0_linear_1398_7177" x1="143.515" y1="25" x2="206.665" y2="58.9779" gradientUnits="userSpaceOnUse">
<stop stop-color="#5955B3"/>
<stop offset="1" stop-color="#6563CE"/>
</linearGradient>
</defs>
</svg>
