<svg width="220" height="24" viewBox="0 0 220 24" fill="none" xmlns="http://www.w3.org/2000/svg">
<g clip-path="url(#clip0_1295_6999)">
<path d="M37.1385 11.1584V12.8835H32.7486V11.1584H37.1385ZM29.7159 13.6641H31.8587C31.8951 14.2474 32.0774 14.6866 32.4055 14.9815C32.7337 15.2765 33.2192 15.424 33.8622 15.424C34.3859 15.424 34.8018 15.3014 35.1101 15.0561C35.4183 14.8108 35.6404 14.4579 35.7763 13.9972C35.9122 13.5331 35.9801 12.978 35.9801 12.3317V11.5064C35.9801 10.8402 35.9022 10.2784 35.7464 9.82102C35.594 9.36032 35.3603 9.01231 35.0455 8.77699C34.7339 8.54167 34.3345 8.42401 33.8473 8.42401C33.3667 8.42401 32.9856 8.49692 32.7038 8.64276C32.4221 8.78859 32.2166 8.9974 32.0874 9.26918C31.9581 9.53764 31.8786 9.86245 31.8487 10.2436H29.706C29.7723 9.5741 29.9645 8.97088 30.2827 8.43395C30.6042 7.8937 31.0599 7.46615 31.6499 7.15128C32.2431 6.83641 32.9756 6.67898 33.8473 6.67898C34.7124 6.67898 35.4631 6.87618 36.0994 7.2706C36.7358 7.66501 37.228 8.22348 37.576 8.94602C37.924 9.66856 38.098 10.5237 38.098 11.5114V12.3366C38.098 13.3243 37.9273 14.1778 37.5859 14.897C37.2479 15.6129 36.7623 16.1664 36.1293 16.5575C35.4962 16.9453 34.7405 17.1392 33.8622 17.1392C33.0237 17.1392 32.3045 16.9934 31.7045 16.7017C31.1046 16.4067 30.6357 15.9991 30.2976 15.4787C29.9595 14.955 29.7656 14.3501 29.7159 13.6641ZM39.6479 17V9.36364H41.7658V12.3267H42.3624L44.4405 9.36364H46.9263L44.2267 13.152L46.9561 17H44.4405L42.5563 14.2905H41.7658V17H39.6479ZM47.4583 14.8374H49.5115C49.5215 15.0893 49.6342 15.2881 49.8496 15.4339C50.065 15.5798 50.3435 15.6527 50.6848 15.6527C51.0295 15.6527 51.3195 15.5732 51.5549 15.4141C51.7902 15.2517 51.9078 15.0196 51.9078 14.718C51.9078 14.5324 51.8614 14.3717 51.7686 14.2358C51.6758 14.0966 51.5466 13.9872 51.3809 13.9077C51.2151 13.8281 51.0229 13.7884 50.8042 13.7884H49.7054V12.4013H50.8042C51.1323 12.4013 51.3842 12.325 51.5598 12.1726C51.7388 12.0201 51.8283 11.8295 51.8283 11.6009C51.8283 11.3423 51.7355 11.1352 51.5499 10.9794C51.3676 10.8203 51.1207 10.7408 50.8091 10.7408C50.4943 10.7408 50.2324 10.812 50.0236 10.9545C49.8181 11.0937 49.7121 11.276 49.7054 11.5014H47.6621C47.6687 11.044 47.8063 10.648 48.0748 10.3132C48.3465 9.97846 48.7111 9.71993 49.1685 9.53764C49.6292 9.35535 50.1446 9.2642 50.7147 9.2642C51.3378 9.2642 51.8747 9.35204 52.3255 9.5277C52.7795 9.70005 53.1275 9.94697 53.3695 10.2685C53.6148 10.59 53.7374 10.9728 53.7374 11.4169C53.7374 11.8213 53.6048 12.1593 53.3397 12.4311C53.0745 12.7029 52.7033 12.8968 52.226 13.0128V13.0923C52.5409 13.1122 52.8259 13.1967 53.0811 13.3459C53.3364 13.495 53.5402 13.7005 53.6926 13.9624C53.8451 14.2209 53.9213 14.5275 53.9213 14.8821C53.9213 15.3561 53.7821 15.7621 53.5037 16.1001C53.2286 16.4382 52.8475 16.6984 52.3603 16.8807C51.8764 17.0597 51.3212 17.1491 50.6948 17.1491C50.0849 17.1491 49.5381 17.0613 49.0542 16.8857C48.5736 16.7067 48.1908 16.4448 47.9057 16.1001C47.624 15.7554 47.4748 15.3345 47.4583 14.8374ZM57.3977 17.1442C56.9105 17.1442 56.4763 17.0597 56.0952 16.8906C55.714 16.7183 55.4124 16.4647 55.1903 16.13C54.9716 15.7919 54.8622 15.371 54.8622 14.8672C54.8622 14.4429 54.9401 14.0866 55.0959 13.7983C55.2517 13.5099 55.4638 13.2779 55.7322 13.1023C56.0007 12.9266 56.3056 12.794 56.647 12.7045C56.9917 12.6151 57.353 12.5521 57.7308 12.5156C58.175 12.4692 58.5329 12.4261 58.8047 12.3864C59.0765 12.3433 59.2737 12.2803 59.3963 12.1974C59.5189 12.1146 59.5803 11.992 59.5803 11.8295V11.7997C59.5803 11.4848 59.4808 11.2412 59.282 11.0689C59.0864 10.8965 58.808 10.8104 58.4467 10.8104C58.0656 10.8104 57.7623 10.8949 57.5369 11.0639C57.3116 11.2296 57.1624 11.4384 57.0895 11.6903L55.1307 11.5312C55.2301 11.0672 55.4257 10.6662 55.7173 10.3281C56.009 9.98674 56.3852 9.7249 56.8459 9.54261C57.3099 9.35701 57.8468 9.2642 58.4567 9.2642C58.8809 9.2642 59.2869 9.31392 59.6747 9.41335C60.0658 9.51278 60.4122 9.6669 60.7138 9.87571C61.0187 10.0845 61.259 10.353 61.4347 10.6811C61.6103 11.0059 61.6982 11.3954 61.6982 11.8494V17H59.6896V15.9411H59.63C59.5073 16.1797 59.3433 16.3902 59.1378 16.5724C58.9323 16.7514 58.6854 16.8923 58.397 16.995C58.1087 17.0945 57.7756 17.1442 57.3977 17.1442ZM58.0043 15.6825C58.3158 15.6825 58.5909 15.6212 58.8295 15.4986C59.0682 15.3726 59.2554 15.2036 59.3913 14.9915C59.5272 14.7794 59.5952 14.5391 59.5952 14.2706V13.4602C59.5289 13.5033 59.4377 13.5431 59.3217 13.5795C59.209 13.6127 59.0814 13.6442 58.9389 13.674C58.7964 13.7005 58.6539 13.7254 58.5114 13.7486C58.3688 13.7685 58.2396 13.7867 58.1236 13.8033C57.875 13.8397 57.6579 13.8977 57.4723 13.9773C57.2867 14.0568 57.1425 14.1645 57.0398 14.3004C56.937 14.433 56.8857 14.5987 56.8857 14.7976C56.8857 15.0859 56.9901 15.3063 57.1989 15.4588C57.411 15.608 57.6795 15.6825 58.0043 15.6825ZM67.8555 14.6584L69.9237 9.36364H71.5344L68.5565 17H67.1495L64.2411 9.36364H65.8469L67.8555 14.6584ZM65.3647 9.36364V17H63.3413V9.36364H65.3647ZM70.4506 17V9.36364H72.4492V17H70.4506ZM77.5675 17.1491C76.782 17.1491 76.1058 16.9901 75.5391 16.6719C74.9756 16.3504 74.5414 15.8963 74.2365 15.3097C73.9316 14.7197 73.7791 14.022 73.7791 13.2166C73.7791 12.4311 73.9316 11.7417 74.2365 11.1484C74.5414 10.5552 74.9706 10.0928 75.5241 9.76136C76.081 9.42992 76.7339 9.2642 77.483 9.2642C77.9867 9.2642 78.4557 9.34541 78.8899 9.50781C79.3274 9.6669 79.7086 9.9072 80.0334 10.2287C80.3615 10.5502 80.6167 10.9545 80.799 11.4418C80.9813 11.9257 81.0724 12.4924 81.0724 13.142V13.7237H74.6243V12.4112H79.0788C79.0788 12.1063 79.0125 11.8362 78.88 11.6009C78.7474 11.3655 78.5634 11.1816 78.3281 11.049C78.0961 10.9131 77.826 10.8452 77.5178 10.8452C77.1963 10.8452 76.9112 10.9197 76.6626 11.0689C76.4174 11.2147 76.2251 11.4119 76.0859 11.6605C75.9467 11.9058 75.8755 12.1792 75.8722 12.4808V13.7287C75.8722 14.1065 75.9418 14.433 76.081 14.7081C76.2235 14.9832 76.424 15.1953 76.6825 15.3445C76.9411 15.4936 77.2476 15.5682 77.6023 15.5682C77.8376 15.5682 78.053 15.535 78.2486 15.4688C78.4441 15.4025 78.6115 15.303 78.7507 15.1705C78.8899 15.0379 78.996 14.8755 79.0689 14.6832L81.0277 14.8125C80.9283 15.2831 80.7244 15.6941 80.4162 16.0455C80.1113 16.3935 79.7169 16.6652 79.233 16.8608C78.7524 17.053 78.1972 17.1491 77.5675 17.1491ZM87.7692 12.3366V14.0021H83.782V12.3366H87.7692ZM84.478 9.36364V17H82.4545V9.36364H84.478ZM89.0966 9.36364V17H87.0881V9.36364H89.0966ZM92.0671 11.7102H94.3491C95.36 11.7102 96.1488 11.9522 96.7156 12.4361C97.2823 12.9167 97.5657 13.5597 97.5657 14.3651C97.5657 14.8887 97.4381 15.3494 97.1829 15.7472C96.9277 16.1416 96.5598 16.4498 96.0792 16.6719C95.5986 16.8906 95.0219 17 94.3491 17H90.7397V9.36364H92.7631V15.3345H94.3491C94.7037 15.3345 94.9954 15.245 95.2241 15.0661C95.4528 14.8871 95.5688 14.6584 95.5721 14.38C95.5688 14.085 95.4528 13.8447 95.2241 13.6591C94.9954 13.4702 94.7037 13.3757 94.3491 13.3757H92.0671V11.7102ZM98.386 17V9.36364H100.504V17H98.386ZM107.46 14.206L110.21 9.36364H112.298V17H110.279V12.1428L107.54 17H105.437V9.36364H107.46V14.206ZM117.236 17V9.36364H123.913V17H121.889V11.0291H119.234V17H117.236ZM129.083 17.1491C128.298 17.1491 127.621 16.9901 127.055 16.6719C126.491 16.3504 126.057 15.8963 125.752 15.3097C125.447 14.7197 125.295 14.022 125.295 13.2166C125.295 12.4311 125.447 11.7417 125.752 11.1484C126.057 10.5552 126.486 10.0928 127.04 9.76136C127.597 9.42992 128.25 9.2642 128.999 9.2642C129.502 9.2642 129.971 9.34541 130.406 9.50781C130.843 9.6669 131.224 9.9072 131.549 10.2287C131.877 10.5502 132.132 10.9545 132.315 11.4418C132.497 11.9257 132.588 12.4924 132.588 13.142V13.7237H126.14V12.4112H130.594C130.594 12.1063 130.528 11.8362 130.396 11.6009C130.263 11.3655 130.079 11.1816 129.844 11.049C129.612 10.9131 129.342 10.8452 129.033 10.8452C128.712 10.8452 128.427 10.9197 128.178 11.0689C127.933 11.2147 127.741 11.4119 127.602 11.6605C127.462 11.9058 127.391 12.1792 127.388 12.4808V13.7287C127.388 14.1065 127.457 14.433 127.597 14.7081C127.739 14.9832 127.94 15.1953 128.198 15.3445C128.457 15.4936 128.763 15.5682 129.118 15.5682C129.353 15.5682 129.569 15.535 129.764 15.4688C129.96 15.4025 130.127 15.303 130.266 15.1705C130.406 15.0379 130.512 14.8755 130.585 14.6832L132.543 14.8125C132.444 15.2831 132.24 15.6941 131.932 16.0455C131.627 16.3935 131.232 16.6652 130.749 16.8608C130.268 17.053 129.713 17.1491 129.083 17.1491ZM133.97 19.8636V9.36364H136.058V10.6463H136.153C136.246 10.4408 136.38 10.232 136.555 10.0199C136.734 9.80445 136.966 9.62547 137.251 9.48295C137.54 9.33712 137.898 9.2642 138.325 9.2642C138.882 9.2642 139.396 9.41004 139.866 9.7017C140.337 9.99006 140.713 10.4259 140.995 11.0092C141.277 11.5893 141.418 12.3168 141.418 13.1918C141.418 14.0436 141.28 14.7628 141.005 15.3494C140.733 15.9328 140.362 16.3752 139.891 16.6768C139.424 16.9751 138.9 17.1243 138.32 17.1243C137.909 17.1243 137.56 17.0563 137.271 16.9205C136.986 16.7846 136.753 16.6139 136.57 16.4084C136.388 16.1996 136.249 15.9891 136.153 15.777H136.088V19.8636H133.97ZM136.043 13.1818C136.043 13.6359 136.106 14.032 136.232 14.37C136.358 14.7081 136.54 14.9716 136.779 15.1605C137.018 15.3461 137.308 15.4389 137.649 15.4389C137.994 15.4389 138.286 15.3445 138.524 15.1555C138.763 14.9633 138.943 14.6982 139.066 14.3601C139.192 14.0187 139.255 13.6259 139.255 13.1818C139.255 12.741 139.194 12.3532 139.071 12.0185C138.948 11.6837 138.768 11.4219 138.529 11.233C138.29 11.044 137.997 10.9496 137.649 10.9496C137.304 10.9496 137.013 11.0407 136.774 11.223C136.539 11.4053 136.358 11.6638 136.232 11.9986C136.106 12.3333 136.043 12.7277 136.043 13.1818ZM146.31 17.1491C145.524 17.1491 144.848 16.9901 144.281 16.6719C143.718 16.3504 143.284 15.8963 142.979 15.3097C142.674 14.7197 142.521 14.022 142.521 13.2166C142.521 12.4311 142.674 11.7417 142.979 11.1484C143.284 10.5552 143.713 10.0928 144.266 9.76136C144.823 9.42992 145.476 9.2642 146.225 9.2642C146.729 9.2642 147.198 9.34541 147.632 9.50781C148.07 9.6669 148.451 9.9072 148.776 10.2287C149.104 10.5502 149.359 10.9545 149.541 11.4418C149.723 11.9257 149.815 12.4924 149.815 13.142V13.7237H143.366V12.4112H147.821C147.821 12.1063 147.755 11.8362 147.622 11.6009C147.49 11.3655 147.306 11.1816 147.07 11.049C146.838 10.9131 146.568 10.8452 146.26 10.8452C145.938 10.8452 145.653 10.9197 145.405 11.0689C145.16 11.2147 144.967 11.4119 144.828 11.6605C144.689 11.9058 144.618 12.1792 144.614 12.4808V13.7287C144.614 14.1065 144.684 14.433 144.823 14.7081C144.966 14.9832 145.166 15.1953 145.425 15.3445C145.683 15.4936 145.99 15.5682 146.344 15.5682C146.58 15.5682 146.795 15.535 146.991 15.4688C147.186 15.4025 147.354 15.303 147.493 15.1705C147.632 15.0379 147.738 14.8755 147.811 14.6832L149.77 14.8125C149.67 15.2831 149.467 15.6941 149.158 16.0455C148.853 16.3935 148.459 16.6652 147.975 16.8608C147.495 17.053 146.939 17.1491 146.31 17.1491ZM154.647 17.1491C153.865 17.1491 153.192 16.9834 152.629 16.652C152.068 16.3172 151.638 15.8532 151.336 15.2599C151.038 14.6667 150.888 13.9839 150.888 13.2116C150.888 12.4295 151.039 11.7434 151.341 11.1534C151.646 10.5601 152.078 10.0978 152.638 9.76633C153.199 9.43158 153.865 9.2642 154.637 9.2642C155.303 9.2642 155.887 9.38518 156.387 9.62713C156.888 9.86908 157.284 10.2088 157.575 10.6463C157.867 11.0838 158.028 11.5975 158.058 12.1875H156.059C156.003 11.8063 155.853 11.4998 155.612 11.2678C155.373 11.0324 155.06 10.9148 154.672 10.9148C154.344 10.9148 154.057 11.0043 153.812 11.1832C153.57 11.3589 153.381 11.6158 153.245 11.9538C153.109 12.2919 153.041 12.7012 153.041 13.1818C153.041 13.669 153.107 14.0833 153.24 14.4247C153.376 14.7661 153.567 15.0263 153.812 15.2053C154.057 15.3842 154.344 15.4737 154.672 15.4737C154.914 15.4737 155.131 15.424 155.323 15.3246C155.519 15.2251 155.679 15.081 155.805 14.892C155.935 14.6998 156.019 14.4695 156.059 14.201H158.058C158.024 14.7843 157.865 15.2981 157.58 15.7422C157.299 16.183 156.909 16.5277 156.412 16.7763C155.915 17.0249 155.326 17.1491 154.647 17.1491ZM158.817 19.2372V15.3196H159.404C159.573 15.2135 159.709 15.0445 159.811 14.8125C159.917 14.5805 160.003 14.3071 160.07 13.9922C160.139 13.6773 160.192 13.3376 160.229 12.973C160.269 12.6051 160.303 12.2339 160.333 11.8594L160.532 9.36364H166.389V15.3196H167.572V19.2372H165.553V17H160.885V19.2372H158.817ZM161.512 15.3196H164.39V10.9943H162.332L162.252 11.8594C162.196 12.6747 162.115 13.3674 162.009 13.9375C161.903 14.5043 161.737 14.965 161.512 15.3196ZM170.984 17.1442C170.496 17.1442 170.062 17.0597 169.681 16.8906C169.3 16.7183 168.998 16.4647 168.776 16.13C168.558 15.7919 168.448 15.371 168.448 14.8672C168.448 14.4429 168.526 14.0866 168.682 13.7983C168.838 13.5099 169.05 13.2779 169.318 13.1023C169.587 12.9266 169.892 12.794 170.233 12.7045C170.578 12.6151 170.939 12.5521 171.317 12.5156C171.761 12.4692 172.119 12.4261 172.391 12.3864C172.662 12.3433 172.86 12.2803 172.982 12.1974C173.105 12.1146 173.166 11.992 173.166 11.8295V11.7997C173.166 11.4848 173.067 11.2412 172.868 11.0689C172.672 10.8965 172.394 10.8104 172.033 10.8104C171.652 10.8104 171.348 10.8949 171.123 11.0639C170.897 11.2296 170.748 11.4384 170.675 11.6903L168.717 11.5312C168.816 11.0672 169.012 10.6662 169.303 10.3281C169.595 9.98674 169.971 9.7249 170.432 9.54261C170.896 9.35701 171.433 9.2642 172.043 9.2642C172.467 9.2642 172.873 9.31392 173.261 9.41335C173.652 9.51278 173.998 9.6669 174.3 9.87571C174.605 10.0845 174.845 10.353 175.021 10.6811C175.196 11.0059 175.284 11.3954 175.284 11.8494V17H173.276V15.9411H173.216C173.093 16.1797 172.929 16.3902 172.724 16.5724C172.518 16.7514 172.271 16.8923 171.983 16.995C171.695 17.0945 171.362 17.1442 170.984 17.1442ZM171.59 15.6825C171.902 15.6825 172.177 15.6212 172.415 15.4986C172.654 15.3726 172.841 15.2036 172.977 14.9915C173.113 14.7794 173.181 14.5391 173.181 14.2706V13.4602C173.115 13.5033 173.024 13.5431 172.908 13.5795C172.795 13.6127 172.667 13.6442 172.525 13.674C172.382 13.7005 172.24 13.7254 172.097 13.7486C171.955 13.7685 171.826 13.7867 171.71 13.8033C171.461 13.8397 171.244 13.8977 171.058 13.9773C170.873 14.0568 170.728 14.1645 170.626 14.3004C170.523 14.433 170.472 14.5987 170.472 14.7976C170.472 15.0859 170.576 15.3063 170.785 15.4588C170.997 15.608 171.265 15.6825 171.59 15.6825ZM183.554 9.36364V17H181.546V9.36364H183.554ZM182.575 12.7145V14.3849C182.413 14.4579 182.21 14.5275 181.968 14.5938C181.726 14.6567 181.473 14.7081 181.208 14.7479C180.943 14.7876 180.694 14.8075 180.462 14.8075C179.365 14.8075 178.502 14.5821 177.872 14.1314C177.242 13.6773 176.927 12.9531 176.927 11.9588V9.35369H178.926V11.9588C178.926 12.2538 178.975 12.4875 179.075 12.6598C179.178 12.8321 179.34 12.9564 179.562 13.0327C179.788 13.1056 180.087 13.142 180.462 13.142C180.81 13.142 181.151 13.1056 181.486 13.0327C181.821 12.9598 182.184 12.8537 182.575 12.7145ZM187.222 14.206L189.971 9.36364H192.059V17H190.041V12.1428L187.302 17H185.199V9.36364H187.222V14.206Z" fill="#5955B3"/>
<g filter="url(#filter0_d_1295_6999)">
<path d="M9.60271 16.9412L4.65142 10.5529L9.60271 4.23528" stroke="#6663CF" stroke-width="2" stroke-miterlimit="10" stroke-linecap="round" stroke-linejoin="round"/>
<path d="M9.60271 16.9412L4.65142 10.5529L9.60271 4.23528" stroke="#6663CF" stroke-width="2" stroke-miterlimit="10" stroke-linecap="round" stroke-linejoin="round"/>
<path d="M23 10.5529L14.3949 10.5529L5.96203 10.5529" stroke="#6663CF" stroke-width="2" stroke-miterlimit="10" stroke-linecap="round" stroke-linejoin="round"/>
<path d="M23 10.5529L14.3949 10.5529L5.96203 10.5529" stroke="#6663CF" stroke-width="2" stroke-miterlimit="10" stroke-linecap="round" stroke-linejoin="round"/>
</g>
</g>
<defs>
<filter id="filter0_d_1295_6999" x="-0.348572" y="3.23523" width="28.3486" height="22.706" filterUnits="userSpaceOnUse" color-interpolation-filters="sRGB">
<feFlood flood-opacity="0" result="BackgroundImageFix"/>
<feColorMatrix in="SourceAlpha" type="matrix" values="0 0 0 0 0 0 0 0 0 0 0 0 0 0 0 0 0 0 127 0" result="hardAlpha"/>
<feOffset dy="4"/>
<feGaussianBlur stdDeviation="2"/>
<feComposite in2="hardAlpha" operator="out"/>
<feColorMatrix type="matrix" values="0 0 0 0 0 0 0 0 0 0 0 0 0 0 0 0 0 0 0.25 0"/>
<feBlend mode="normal" in2="BackgroundImageFix" result="effect1_dropShadow_1295_6999"/>
<feBlend mode="normal" in="SourceGraphic" in2="effect1_dropShadow_1295_6999" result="shape"/>
</filter>
<clipPath id="clip0_1295_6999">
<rect width="220" height="24" fill="white"/>
</clipPath>
</defs>
</svg>
