<svg width="166" height="13" viewBox="0 0 166 13" fill="none" xmlns="http://www.w3.org/2000/svg">
<g clip-path="url(#clip0_128_905)">
<path d="M29.9759 6.9929V8.47159H26.2131V6.9929H29.9759ZM23.6136 9.14062H25.4503C25.4815 9.64062 25.6378 10.017 25.919 10.2699C26.2003 10.5227 26.6165 10.6491 27.1676 10.6491C27.6165 10.6491 27.973 10.544 28.2372 10.3338C28.5014 10.1236 28.6918 9.82102 28.8082 9.42614C28.9247 9.02841 28.983 8.55256 28.983 7.99858V7.29119C28.983 6.72017 28.9162 6.23864 28.7827 5.84659C28.652 5.4517 28.4517 5.15341 28.1818 4.9517C27.9148 4.75 27.5724 4.64915 27.1548 4.64915C26.7429 4.64915 26.4162 4.71165 26.1747 4.83665C25.9332 4.96165 25.7571 5.14062 25.6463 5.37358C25.5355 5.60369 25.4673 5.8821 25.4418 6.20881H23.6051C23.6619 5.63494 23.8267 5.1179 24.0994 4.65767C24.375 4.1946 24.7656 3.82812 25.2713 3.55824C25.7798 3.28835 26.4077 3.15341 27.1548 3.15341C27.8963 3.15341 28.5398 3.32244 29.0852 3.66051C29.6307 3.99858 30.0526 4.47727 30.3509 5.09659C30.6491 5.71591 30.7983 6.44886 30.7983 7.29545V8.00284C30.7983 8.84943 30.652 9.58097 30.3594 10.1974C30.0696 10.8111 29.6534 11.2855 29.1108 11.6207C28.5682 11.9531 27.9205 12.1193 27.1676 12.1193C26.4489 12.1193 25.8324 11.9943 25.3182 11.7443C24.804 11.4915 24.402 11.142 24.1122 10.696C23.8224 10.2472 23.6563 9.72869 23.6136 9.14062ZM32.1268 12V5.45455H33.9421V7.99432H34.4535L36.2347 5.45455H38.3654L36.0515 8.7017L38.391 12H36.2347L34.6197 9.67756H33.9421V12H32.1268ZM38.8214 10.1463H40.5813C40.5898 10.3622 40.6864 10.5327 40.8711 10.6577C41.0558 10.7827 41.2944 10.8452 41.587 10.8452C41.8825 10.8452 42.131 10.777 42.3327 10.6406C42.5344 10.5014 42.6353 10.3026 42.6353 10.044C42.6353 9.88494 42.5955 9.74716 42.516 9.63068C42.4364 9.51136 42.3256 9.41761 42.1836 9.34943C42.0415 9.28125 41.8768 9.24716 41.6893 9.24716H40.7475V8.05824H41.6893C41.9705 8.05824 42.1864 7.9929 42.337 7.86222C42.4904 7.73153 42.5671 7.56818 42.5671 7.37216C42.5671 7.15057 42.4876 6.97301 42.3285 6.83949C42.1722 6.70312 41.9606 6.63494 41.6935 6.63494C41.4237 6.63494 41.1992 6.69602 41.0202 6.81818C40.8441 6.9375 40.7532 7.09375 40.7475 7.28693H38.9961C39.0018 6.89489 39.1197 6.5554 39.3498 6.26847C39.5827 5.98153 39.8952 5.75994 40.2873 5.60369C40.6822 5.44744 41.1239 5.36932 41.6126 5.36932C42.1467 5.36932 42.6069 5.4446 42.9933 5.59517C43.3825 5.7429 43.6808 5.95455 43.8881 6.23011C44.0984 6.50568 44.2035 6.83381 44.2035 7.21449C44.2035 7.56108 44.0898 7.85085 43.8626 8.08381C43.6353 8.31676 43.3171 8.48295 42.908 8.58239V8.65057C43.1779 8.66761 43.4222 8.74006 43.641 8.8679C43.8597 8.99574 44.0344 9.17187 44.1651 9.39631C44.2958 9.6179 44.3612 9.88068 44.3612 10.1847C44.3612 10.5909 44.2418 10.9389 44.0032 11.2287C43.7674 11.5185 43.4407 11.7415 43.0231 11.8977C42.6083 12.0511 42.1325 12.1278 41.5955 12.1278C41.0728 12.1278 40.604 12.0526 40.1893 11.902C39.7773 11.7486 39.4492 11.5241 39.2049 11.2287C38.9634 10.9332 38.8356 10.5724 38.8214 10.1463ZM47.3409 12.1236C46.9233 12.1236 46.5511 12.0511 46.2244 11.9062C45.8977 11.7585 45.6392 11.5412 45.4489 11.2543C45.2614 10.9645 45.1676 10.6037 45.1676 10.1719C45.1676 9.80824 45.2344 9.50284 45.3679 9.25568C45.5014 9.00852 45.6832 8.80966 45.9134 8.65909C46.1435 8.50852 46.4048 8.39489 46.6974 8.31818C46.9929 8.24148 47.3026 8.1875 47.6264 8.15625C48.0071 8.11648 48.3139 8.07955 48.5469 8.04545C48.7798 8.00852 48.9489 7.95455 49.054 7.88352C49.1591 7.8125 49.2116 7.70739 49.2116 7.56818V7.54261C49.2116 7.27273 49.1264 7.06392 48.956 6.91619C48.7884 6.76847 48.5497 6.6946 48.2401 6.6946C47.9134 6.6946 47.6534 6.76705 47.4602 6.91193C47.267 7.05398 47.1392 7.23295 47.0767 7.44886L45.3977 7.3125C45.483 6.91477 45.6506 6.57102 45.9006 6.28125C46.1506 5.98864 46.473 5.7642 46.8679 5.60795C47.2656 5.44886 47.7259 5.36932 48.2486 5.36932C48.6122 5.36932 48.9602 5.41193 49.2926 5.49716C49.6278 5.58239 49.9247 5.71449 50.1832 5.89347C50.4446 6.07244 50.6506 6.30256 50.8011 6.58381C50.9517 6.86222 51.027 7.19602 51.027 7.58523V12H49.3054V11.0923H49.2543C49.1491 11.2969 49.0085 11.4773 48.8324 11.6335C48.6562 11.7869 48.4446 11.9077 48.1974 11.9957C47.9503 12.081 47.6648 12.1236 47.3409 12.1236ZM47.8608 10.8707C48.1278 10.8707 48.3636 10.8182 48.5682 10.7131C48.7727 10.6051 48.9332 10.4602 49.0497 10.2784C49.1662 10.0966 49.2244 9.89062 49.2244 9.66051V8.96591C49.1676 9.00284 49.0895 9.03693 48.9901 9.06818C48.8935 9.09659 48.7841 9.12358 48.6619 9.14915C48.5398 9.17187 48.4176 9.19318 48.2955 9.21307C48.1733 9.23011 48.0625 9.24574 47.9631 9.25994C47.75 9.29119 47.5639 9.34091 47.4048 9.40909C47.2457 9.47727 47.1222 9.5696 47.0341 9.68608C46.946 9.79972 46.902 9.94176 46.902 10.1122C46.902 10.3594 46.9915 10.5483 47.1705 10.679C47.3523 10.8068 47.5824 10.8707 47.8608 10.8707ZM56.3047 9.9929L58.0774 5.45455H59.4581L56.9055 12H55.6996L53.2067 5.45455H54.5831L56.3047 9.9929ZM54.1697 5.45455V12H52.4354V5.45455H54.1697ZM58.5291 12V5.45455H60.2422V12H58.5291ZM64.6293 12.1278C63.956 12.1278 63.3764 11.9915 62.8906 11.7188C62.4077 11.4432 62.0355 11.054 61.7741 10.5511C61.5128 10.0455 61.3821 9.44744 61.3821 8.7571C61.3821 8.08381 61.5128 7.4929 61.7741 6.98438C62.0355 6.47585 62.4034 6.07955 62.8778 5.79545C63.3551 5.51136 63.9148 5.36932 64.5568 5.36932C64.9886 5.36932 65.3906 5.43892 65.7628 5.57812C66.1378 5.71449 66.4645 5.92045 66.7429 6.19602C67.0241 6.47159 67.2429 6.81818 67.3991 7.2358C67.5554 7.65057 67.6335 8.13636 67.6335 8.69318V9.19176H62.1065V8.06676H65.9247C65.9247 7.8054 65.8679 7.57386 65.7543 7.37216C65.6406 7.17045 65.483 7.01278 65.2812 6.89915C65.0824 6.78267 64.8509 6.72443 64.5866 6.72443C64.3111 6.72443 64.0668 6.78835 63.8537 6.91619C63.6435 7.04119 63.4787 7.21023 63.3594 7.4233C63.2401 7.63352 63.179 7.8679 63.1761 8.12642V9.19602C63.1761 9.51989 63.2358 9.79972 63.3551 10.0355C63.4773 10.2713 63.6491 10.4531 63.8707 10.581C64.0923 10.7088 64.3551 10.7727 64.6591 10.7727C64.8608 10.7727 65.0455 10.7443 65.2131 10.6875C65.3807 10.6307 65.5241 10.5455 65.6435 10.4318C65.7628 10.3182 65.8537 10.179 65.9162 10.0142L67.5952 10.125C67.5099 10.5284 67.3352 10.8807 67.071 11.1818C66.8097 11.4801 66.4716 11.7131 66.0568 11.8807C65.6449 12.0455 65.169 12.1278 64.6293 12.1278ZM73.3736 8.00284V9.4304H69.956V8.00284H73.3736ZM70.5526 5.45455V12H68.8182V5.45455H70.5526ZM74.5114 5.45455V12H72.7898V5.45455H74.5114ZM77.0575 7.46591H79.0135C79.88 7.46591 80.5561 7.6733 81.0419 8.08807C81.5277 8.5 81.7706 9.05114 81.7706 9.74148C81.7706 10.1903 81.6612 10.5852 81.4425 10.9261C81.2237 11.2642 80.9084 11.5284 80.4964 11.7188C80.0845 11.9062 79.5902 12 79.0135 12H75.9197V5.45455H77.6541V10.5724H79.0135C79.3175 10.5724 79.5675 10.4957 79.7635 10.3423C79.9595 10.1889 80.0589 9.9929 80.0618 9.75426C80.0589 9.50142 79.9595 9.29545 79.7635 9.13636C79.5675 8.97443 79.3175 8.89347 79.0135 8.89347H77.0575V7.46591ZM82.4737 12V5.45455H84.2891V12H82.4737ZM90.2518 9.60511L92.6083 5.45455H94.3981V12H92.668V7.83665L90.32 12H88.5174V5.45455H90.2518V9.60511ZM98.6307 12V5.45455H104.354V12H102.619V6.8821H100.344V12H98.6307ZM108.786 12.1278C108.112 12.1278 107.533 11.9915 107.047 11.7188C106.564 11.4432 106.192 11.054 105.93 10.5511C105.669 10.0455 105.538 9.44744 105.538 8.7571C105.538 8.08381 105.669 7.4929 105.93 6.98438C106.192 6.47585 106.56 6.07955 107.034 5.79545C107.511 5.51136 108.071 5.36932 108.713 5.36932C109.145 5.36932 109.547 5.43892 109.919 5.57812C110.294 5.71449 110.621 5.92045 110.899 6.19602C111.18 6.47159 111.399 6.81818 111.555 7.2358C111.712 7.65057 111.79 8.13636 111.79 8.69318V9.19176H106.263V8.06676H110.081C110.081 7.8054 110.024 7.57386 109.911 7.37216C109.797 7.17045 109.639 7.01278 109.438 6.89915C109.239 6.78267 109.007 6.72443 108.743 6.72443C108.467 6.72443 108.223 6.78835 108.01 6.91619C107.8 7.04119 107.635 7.21023 107.516 7.4233C107.396 7.63352 107.335 7.8679 107.332 8.12642V9.19602C107.332 9.51989 107.392 9.79972 107.511 10.0355C107.634 10.2713 107.805 10.4531 108.027 10.581C108.249 10.7088 108.511 10.7727 108.815 10.7727C109.017 10.7727 109.202 10.7443 109.369 10.6875C109.537 10.6307 109.68 10.5455 109.8 10.4318C109.919 10.3182 110.01 10.179 110.072 10.0142L111.751 10.125C111.666 10.5284 111.491 10.8807 111.227 11.1818C110.966 11.4801 110.628 11.7131 110.213 11.8807C109.801 12.0455 109.325 12.1278 108.786 12.1278ZM112.974 14.4545V5.45455H114.764V6.55398H114.845C114.925 6.37784 115.04 6.19886 115.19 6.01705C115.344 5.83239 115.543 5.67898 115.787 5.55682C116.034 5.43182 116.341 5.36932 116.707 5.36932C117.185 5.36932 117.625 5.49432 118.028 5.74432C118.432 5.99148 118.754 6.36506 118.996 6.86506C119.237 7.36222 119.358 7.9858 119.358 8.7358C119.358 9.46591 119.24 10.0824 119.004 10.5852C118.771 11.0852 118.453 11.4645 118.05 11.723C117.649 11.9787 117.2 12.1065 116.703 12.1065C116.351 12.1065 116.051 12.0483 115.804 11.9318C115.56 11.8153 115.359 11.669 115.203 11.4929C115.047 11.3139 114.928 11.1335 114.845 10.9517H114.79V14.4545H112.974ZM114.751 8.72727C114.751 9.11648 114.805 9.45597 114.913 9.74574C115.021 10.0355 115.178 10.2614 115.382 10.4233C115.587 10.5824 115.835 10.6619 116.128 10.6619C116.423 10.6619 116.673 10.581 116.878 10.419C117.082 10.2543 117.237 10.027 117.342 9.73722C117.45 9.4446 117.504 9.10795 117.504 8.72727C117.504 8.34943 117.452 8.01705 117.347 7.73011C117.241 7.44318 117.087 7.21875 116.882 7.05682C116.678 6.89489 116.426 6.81392 116.128 6.81392C115.832 6.81392 115.582 6.89205 115.378 7.0483C115.176 7.20455 115.021 7.42614 114.913 7.71307C114.805 8 114.751 8.33807 114.751 8.72727ZM123.551 12.1278C122.878 12.1278 122.298 11.9915 121.812 11.7188C121.33 11.4432 120.957 11.054 120.696 10.5511C120.435 10.0455 120.304 9.44744 120.304 8.7571C120.304 8.08381 120.435 7.4929 120.696 6.98438C120.957 6.47585 121.325 6.07955 121.8 5.79545C122.277 5.51136 122.837 5.36932 123.479 5.36932C123.911 5.36932 124.313 5.43892 124.685 5.57812C125.06 5.71449 125.386 5.92045 125.665 6.19602C125.946 6.47159 126.165 6.81818 126.321 7.2358C126.477 7.65057 126.555 8.13636 126.555 8.69318V9.19176H121.028V8.06676H124.847C124.847 7.8054 124.79 7.57386 124.676 7.37216C124.563 7.17045 124.405 7.01278 124.203 6.89915C124.004 6.78267 123.773 6.72443 123.509 6.72443C123.233 6.72443 122.989 6.78835 122.776 6.91619C122.565 7.04119 122.401 7.21023 122.281 7.4233C122.162 7.63352 122.101 7.8679 122.098 8.12642V9.19602C122.098 9.51989 122.158 9.79972 122.277 10.0355C122.399 10.2713 122.571 10.4531 122.793 10.581C123.014 10.7088 123.277 10.7727 123.581 10.7727C123.783 10.7727 123.967 10.7443 124.135 10.6875C124.303 10.6307 124.446 10.5455 124.565 10.4318C124.685 10.3182 124.776 10.179 124.838 10.0142L126.517 10.125C126.432 10.5284 126.257 10.8807 125.993 11.1818C125.732 11.4801 125.393 11.7131 124.979 11.8807C124.567 12.0455 124.091 12.1278 123.551 12.1278ZM130.697 12.1278C130.027 12.1278 129.45 11.9858 128.967 11.7017C128.487 11.4148 128.118 11.017 127.859 10.5085C127.604 10 127.476 9.41477 127.476 8.75284C127.476 8.08239 127.605 7.49432 127.864 6.98864C128.125 6.48011 128.496 6.08381 128.976 5.79972C129.456 5.51278 130.027 5.36932 130.689 5.36932C131.26 5.36932 131.76 5.47301 132.189 5.6804C132.618 5.88778 132.957 6.17898 133.207 6.55398C133.457 6.92898 133.595 7.36932 133.621 7.875H131.908C131.859 7.5483 131.732 7.28551 131.524 7.08665C131.32 6.88494 131.051 6.78409 130.719 6.78409C130.438 6.78409 130.192 6.8608 129.982 7.0142C129.774 7.16477 129.612 7.38494 129.496 7.67472C129.379 7.96449 129.321 8.31534 129.321 8.72727C129.321 9.14489 129.378 9.5 129.491 9.79261C129.608 10.0852 129.771 10.3082 129.982 10.4616C130.192 10.6151 130.438 10.6918 130.719 10.6918C130.926 10.6918 131.112 10.6491 131.277 10.5639C131.445 10.4787 131.582 10.3551 131.69 10.1932C131.801 10.0284 131.874 9.83097 131.908 9.60085H133.621C133.592 10.1009 133.456 10.5412 133.212 10.9219C132.97 11.2997 132.636 11.5952 132.21 11.8082C131.784 12.0213 131.28 12.1278 130.697 12.1278ZM134.272 13.9176V10.5597H134.775C134.919 10.4687 135.036 10.3239 135.124 10.125C135.215 9.92614 135.289 9.69176 135.346 9.42188C135.405 9.15199 135.451 8.8608 135.482 8.5483C135.516 8.23295 135.546 7.91477 135.571 7.59375L135.742 5.45455H140.762V10.5597H141.776V13.9176H140.046V12H136.044V13.9176H134.272ZM136.581 10.5597H139.049V6.85227H137.284L137.216 7.59375C137.168 8.29261 137.098 8.88636 137.007 9.375C136.917 9.8608 136.775 10.2557 136.581 10.5597ZM144.7 12.1236C144.283 12.1236 143.911 12.0511 143.584 11.9062C143.257 11.7585 142.999 11.5412 142.808 11.2543C142.621 10.9645 142.527 10.6037 142.527 10.1719C142.527 9.80824 142.594 9.50284 142.727 9.25568C142.861 9.00852 143.043 8.80966 143.273 8.65909C143.503 8.50852 143.764 8.39489 144.057 8.31818C144.352 8.24148 144.662 8.1875 144.986 8.15625C145.366 8.11648 145.673 8.07955 145.906 8.04545C146.139 8.00852 146.308 7.95455 146.413 7.88352C146.518 7.8125 146.571 7.70739 146.571 7.56818V7.54261C146.571 7.27273 146.486 7.06392 146.315 6.91619C146.148 6.76847 145.909 6.6946 145.599 6.6946C145.273 6.6946 145.013 6.76705 144.82 6.91193C144.626 7.05398 144.499 7.23295 144.436 7.44886L142.757 7.3125C142.842 6.91477 143.01 6.57102 143.26 6.28125C143.51 5.98864 143.832 5.7642 144.227 5.60795C144.625 5.44886 145.085 5.36932 145.608 5.36932C145.972 5.36932 146.32 5.41193 146.652 5.49716C146.987 5.58239 147.284 5.71449 147.543 5.89347C147.804 6.07244 148.01 6.30256 148.161 6.58381C148.311 6.86222 148.386 7.19602 148.386 7.58523V12H146.665V11.0923H146.614C146.509 11.2969 146.368 11.4773 146.192 11.6335C146.016 11.7869 145.804 11.9077 145.557 11.9957C145.31 12.081 145.024 12.1236 144.7 12.1236ZM145.22 10.8707C145.487 10.8707 145.723 10.8182 145.928 10.7131C146.132 10.6051 146.293 10.4602 146.409 10.2784C146.526 10.0966 146.584 9.89062 146.584 9.66051V8.96591C146.527 9.00284 146.449 9.03693 146.349 9.06818C146.253 9.09659 146.143 9.12358 146.021 9.14915C145.899 9.17187 145.777 9.19318 145.655 9.21307C145.533 9.23011 145.422 9.24574 145.322 9.25994C145.109 9.29119 144.923 9.34091 144.764 9.40909C144.605 9.47727 144.482 9.5696 144.393 9.68608C144.305 9.79972 144.261 9.94176 144.261 10.1122C144.261 10.3594 144.351 10.5483 144.53 10.679C144.712 10.8068 144.942 10.8707 145.22 10.8707ZM155.475 5.45455V12H153.754V5.45455H155.475ZM154.636 8.3267V9.75852C154.496 9.82102 154.323 9.88068 154.116 9.9375C153.908 9.99148 153.691 10.0355 153.464 10.0696C153.237 10.1037 153.023 10.1207 152.825 10.1207C151.884 10.1207 151.144 9.92756 150.604 9.54119C150.065 9.15199 149.795 8.53125 149.795 7.67898V5.44602H151.508V7.67898C151.508 7.93182 151.55 8.1321 151.636 8.27983C151.724 8.42756 151.863 8.53409 152.053 8.59943C152.246 8.66193 152.504 8.69318 152.825 8.69318C153.123 8.69318 153.415 8.66193 153.702 8.59943C153.989 8.53693 154.3 8.44602 154.636 8.3267ZM158.619 9.60511L160.975 5.45455H162.765V12H161.035V7.83665L158.687 12H156.885V5.45455H158.619V9.60511Z" fill="#5955B3"/>
<path d="M7.04761 11L2.99994 6.475L7.04761 2" stroke="#6663CF" stroke-width="2" stroke-miterlimit="10" stroke-linecap="round" stroke-linejoin="round"/>
<path d="M7.04761 11L2.99994 6.475L7.04761 2" stroke="#6663CF" stroke-width="2" stroke-miterlimit="10" stroke-linecap="round" stroke-linejoin="round"/>
<path d="M18 6.47501L10.9653 6.47501H4.07148" stroke="#6663CF" stroke-width="2" stroke-miterlimit="10" stroke-linecap="round" stroke-linejoin="round"/>
<path d="M18 6.47501L10.9653 6.47501H4.07148" stroke="#6663CF" stroke-width="2" stroke-miterlimit="10" stroke-linecap="round" stroke-linejoin="round"/>
</g>
<defs>
<clipPath id="clip0_128_905">
<rect width="166" height="13" fill="white"/>
</clipPath>
</defs>
</svg>
