<svg width="100" height="17" viewBox="0 0 100 17" fill="none" xmlns="http://www.w3.org/2000/svg">
<path d="M21.7585 13V4.27273H25.2528C25.8949 4.27273 26.4304 4.3679 26.8594 4.55824C27.2884 4.74858 27.6108 5.01278 27.8267 5.35085C28.0426 5.68608 28.1506 6.07244 28.1506 6.50994C28.1506 6.85085 28.0824 7.15057 27.946 7.40909C27.8097 7.66477 27.6222 7.875 27.3835 8.03977C27.1477 8.2017 26.8778 8.31676 26.5739 8.38494V8.47017C26.9063 8.48437 27.2173 8.57812 27.5071 8.75142C27.7997 8.92472 28.0369 9.16761 28.2188 9.48011C28.4006 9.78977 28.4915 10.1591 28.4915 10.5881C28.4915 11.0511 28.3764 11.4645 28.1463 11.8281C27.919 12.1889 27.5824 12.4744 27.1364 12.6847C26.6903 12.8949 26.1406 13 25.4872 13H21.7585ZM23.6037 11.4915H25.108C25.6222 11.4915 25.9972 11.3935 26.233 11.1974C26.4688 10.9986 26.5866 10.7344 26.5866 10.4048C26.5866 10.1634 26.5284 9.95028 26.4119 9.76562C26.2955 9.58097 26.1293 9.43608 25.9134 9.33097C25.7003 9.22585 25.446 9.1733 25.1506 9.1733H23.6037V11.4915ZM23.6037 7.92472H24.9716C25.2244 7.92472 25.4489 7.88068 25.6449 7.79261C25.8438 7.7017 26 7.57386 26.1136 7.40909C26.2301 7.24432 26.2884 7.04688 26.2884 6.81676C26.2884 6.50142 26.1761 6.24716 25.9517 6.05398C25.7301 5.8608 25.4148 5.7642 25.0057 5.7642H23.6037V7.92472ZM32.6154 13.1278C31.945 13.1278 31.3683 12.9858 30.8853 12.7017C30.4052 12.4148 30.0359 12.017 29.7773 11.5085C29.5217 11 29.3938 10.4148 29.3938 9.75284C29.3938 9.08239 29.5231 8.49432 29.7816 7.98864C30.043 7.48011 30.4137 7.08381 30.8938 6.79972C31.3739 6.51278 31.945 6.36932 32.6069 6.36932C33.1779 6.36932 33.6779 6.47301 34.1069 6.6804C34.5359 6.88778 34.8754 7.17898 35.1254 7.55398C35.3754 7.92898 35.5131 8.36932 35.5387 8.875H33.8256C33.7773 8.5483 33.6495 8.28551 33.4421 8.08665C33.2376 7.88494 32.9691 7.78409 32.6367 7.78409C32.3555 7.78409 32.1097 7.8608 31.8995 8.0142C31.6921 8.16477 31.5302 8.38494 31.4137 8.67472C31.2972 8.96449 31.239 9.31534 31.239 9.72727C31.239 10.1449 31.2958 10.5 31.4094 10.7926C31.5259 11.0852 31.6893 11.3082 31.8995 11.4616C32.1097 11.6151 32.3555 11.6918 32.6367 11.6918C32.8441 11.6918 33.0302 11.6491 33.195 11.5639C33.3626 11.4787 33.5004 11.3551 33.6083 11.1932C33.7191 11.0284 33.7915 10.831 33.8256 10.6009H35.5387C35.5103 11.1009 35.3739 11.5412 35.1296 11.9219C34.8881 12.2997 34.5543 12.5952 34.1282 12.8082C33.7021 13.0213 33.1978 13.1278 32.6154 13.1278ZM39.6839 13.1278C39.0107 13.1278 38.4311 12.9915 37.9453 12.7188C37.4624 12.4432 37.0902 12.054 36.8288 11.5511C36.5675 11.0455 36.4368 10.4474 36.4368 9.7571C36.4368 9.08381 36.5675 8.4929 36.8288 7.98438C37.0902 7.47585 37.4581 7.07955 37.9325 6.79545C38.4098 6.51136 38.9695 6.36932 39.6115 6.36932C40.0433 6.36932 40.4453 6.43892 40.8175 6.57812C41.1925 6.71449 41.5192 6.92045 41.7976 7.19602C42.0788 7.47159 42.2976 7.81818 42.4538 8.2358C42.6101 8.65057 42.6882 9.13636 42.6882 9.69318V10.1918H37.1612V9.06676H40.9794C40.9794 8.8054 40.9226 8.57386 40.8089 8.37216C40.6953 8.17045 40.5376 8.01278 40.3359 7.89915C40.1371 7.78267 39.9055 7.72443 39.6413 7.72443C39.3658 7.72443 39.1214 7.78835 38.9084 7.91619C38.6982 8.04119 38.5334 8.21023 38.4141 8.4233C38.2947 8.63352 38.2337 8.8679 38.2308 9.12642V10.196C38.2308 10.5199 38.2905 10.7997 38.4098 11.0355C38.532 11.2713 38.7038 11.4531 38.9254 11.581C39.147 11.7088 39.4098 11.7727 39.7138 11.7727C39.9155 11.7727 40.1001 11.7443 40.2678 11.6875C40.4354 11.6307 40.5788 11.5455 40.6982 11.4318C40.8175 11.3182 40.9084 11.179 40.9709 11.0142L42.6499 11.125C42.5646 11.5284 42.3899 11.8807 42.1257 12.1818C41.8643 12.4801 41.5263 12.7131 41.1115 12.8807C40.6996 13.0455 40.2237 13.1278 39.6839 13.1278ZM49.6076 13.1278C48.9457 13.1278 48.3732 12.9872 47.8903 12.706C47.4102 12.4219 47.0394 12.027 46.7781 11.5213C46.5167 11.0128 46.386 10.4233 46.386 9.75284C46.386 9.0767 46.5167 8.4858 46.7781 7.98011C47.0394 7.47159 47.4102 7.0767 47.8903 6.79545C48.3732 6.51136 48.9457 6.36932 49.6076 6.36932C50.2695 6.36932 50.8406 6.51136 51.3207 6.79545C51.8036 7.0767 52.1758 7.47159 52.4371 7.98011C52.6985 8.4858 52.8292 9.0767 52.8292 9.75284C52.8292 10.4233 52.6985 11.0128 52.4371 11.5213C52.1758 12.027 51.8036 12.4219 51.3207 12.706C50.8406 12.9872 50.2695 13.1278 49.6076 13.1278ZM49.6161 11.7216C49.9173 11.7216 50.1687 11.6364 50.3704 11.4659C50.5721 11.2926 50.7241 11.0568 50.8263 10.7585C50.9315 10.4602 50.984 10.1207 50.984 9.74006C50.984 9.35938 50.9315 9.01989 50.8263 8.72159C50.7241 8.4233 50.5721 8.1875 50.3704 8.0142C50.1687 7.84091 49.9173 7.75426 49.6161 7.75426C49.3121 7.75426 49.0565 7.84091 48.8491 8.0142C48.6445 8.1875 48.4897 8.4233 48.3846 8.72159C48.2823 9.01989 48.2312 9.35938 48.2312 9.74006C48.2312 10.1207 48.2823 10.4602 48.3846 10.7585C48.4897 11.0568 48.6445 11.2926 48.8491 11.4659C49.0565 11.6364 49.3121 11.7216 49.6161 11.7216ZM56.7869 13V6.45455H58.6023V8.99432H59.1136L60.8949 6.45455H63.0256L60.7116 9.7017L63.0511 13H60.8949L59.2798 10.6776H58.6023V13H56.7869ZM65.0444 15.4545C64.8143 15.4545 64.5984 15.4361 64.3967 15.3991C64.1978 15.3651 64.033 15.321 63.9023 15.267L64.3114 13.9119C64.5245 13.9773 64.7163 14.0128 64.8867 14.0185C65.06 14.0241 65.2092 13.9844 65.3342 13.8991C65.462 13.8139 65.5657 13.669 65.6452 13.4645L65.7518 13.1875L63.4038 6.45455H65.3129L66.668 11.2614H66.7362L68.104 6.45455H70.0259L67.4819 13.7074C67.3597 14.0597 67.1935 14.3665 66.9833 14.6278C66.7759 14.892 66.5131 15.0952 66.195 15.2372C65.8768 15.3821 65.4933 15.4545 65.0444 15.4545ZM70.9549 15.4545V6.45455H72.7447V7.55398H72.8256C72.9052 7.37784 73.0202 7.19886 73.1708 7.01705C73.3242 6.83239 73.5231 6.67898 73.7674 6.55682C74.0146 6.43182 74.3214 6.36932 74.6879 6.36932C75.1651 6.36932 75.6055 6.49432 76.0089 6.74432C76.4123 6.99148 76.7347 7.36506 76.9762 7.86506C77.2177 8.36222 77.3384 8.9858 77.3384 9.7358C77.3384 10.4659 77.2205 11.0824 76.9847 11.5852C76.7518 12.0852 76.4336 12.4645 76.0302 12.723C75.6296 12.9787 75.1808 13.1065 74.6836 13.1065C74.3313 13.1065 74.0316 13.0483 73.7844 12.9318C73.5401 12.8153 73.3398 12.669 73.1836 12.4929C73.0273 12.3139 72.908 12.1335 72.8256 11.9517H72.7702V15.4545H70.9549ZM72.7319 9.72727C72.7319 10.1165 72.7859 10.456 72.8938 10.7457C73.0018 11.0355 73.158 11.2614 73.3626 11.4233C73.5671 11.5824 73.8157 11.6619 74.1083 11.6619C74.4038 11.6619 74.6538 11.581 74.8583 11.419C75.0629 11.2543 75.2177 11.027 75.3228 10.7372C75.4308 10.4446 75.4847 10.108 75.4847 9.72727C75.4847 9.34943 75.4322 9.01705 75.3271 8.73011C75.2219 8.44318 75.0671 8.21875 74.8626 8.05682C74.658 7.89489 74.4066 7.81392 74.1083 7.81392C73.8129 7.81392 73.5629 7.89205 73.3583 8.0483C73.1566 8.20455 73.0018 8.42614 72.8938 8.71307C72.7859 9 72.7319 9.33807 72.7319 9.72727ZM81.506 13.1278C80.8356 13.1278 80.2589 12.9858 79.7759 12.7017C79.2958 12.4148 78.9265 12.017 78.668 11.5085C78.4123 11 78.2844 10.4148 78.2844 9.75284C78.2844 9.08239 78.4137 8.49432 78.6722 7.98864C78.9336 7.48011 79.3043 7.08381 79.7844 6.79972C80.2646 6.51278 80.8356 6.36932 81.4975 6.36932C82.0685 6.36932 82.5685 6.47301 82.9975 6.6804C83.4265 6.88778 83.766 7.17898 84.016 7.55398C84.266 7.92898 84.4038 8.36932 84.4293 8.875H82.7163C82.668 8.5483 82.5401 8.28551 82.3327 8.08665C82.1282 7.88494 81.8597 7.78409 81.5273 7.78409C81.2461 7.78409 81.0004 7.8608 80.7901 8.0142C80.5827 8.16477 80.4208 8.38494 80.3043 8.67472C80.1879 8.96449 80.1296 9.31534 80.1296 9.72727C80.1296 10.1449 80.1864 10.5 80.3001 10.7926C80.4165 11.0852 80.5799 11.3082 80.7901 11.4616C81.0004 11.6151 81.2461 11.6918 81.5273 11.6918C81.7347 11.6918 81.9208 11.6491 82.0856 11.5639C82.2532 11.4787 82.391 11.3551 82.4989 11.1932C82.6097 11.0284 82.6822 10.831 82.7163 10.6009H84.4293C84.4009 11.1009 84.2646 11.5412 84.0202 11.9219C83.7788 12.2997 83.445 12.5952 83.0188 12.8082C82.5927 13.0213 82.0884 13.1278 81.506 13.1278ZM87.4581 13.1236C87.0405 13.1236 86.6683 13.0511 86.3416 12.9062C86.0149 12.7585 85.7564 12.5412 85.5661 12.2543C85.3786 11.9645 85.2848 11.6037 85.2848 11.1719C85.2848 10.8082 85.3516 10.5028 85.4851 10.2557C85.6186 10.0085 85.8004 9.80966 86.0305 9.65909C86.2607 9.50852 86.522 9.39489 86.8146 9.31818C87.1101 9.24148 87.4197 9.1875 87.7436 9.15625C88.1243 9.11648 88.4311 9.07955 88.6641 9.04545C88.897 9.00852 89.0661 8.95455 89.1712 8.88352C89.2763 8.8125 89.3288 8.70739 89.3288 8.56818V8.54261C89.3288 8.27273 89.2436 8.06392 89.0732 7.91619C88.9055 7.76847 88.6669 7.6946 88.3572 7.6946C88.0305 7.6946 87.7706 7.76705 87.5774 7.91193C87.3842 8.05398 87.2564 8.23295 87.1939 8.44886L85.5149 8.3125C85.6001 7.91477 85.7678 7.57102 86.0178 7.28125C86.2678 6.98864 86.5902 6.7642 86.9851 6.60795C87.3828 6.44886 87.843 6.36932 88.3658 6.36932C88.7294 6.36932 89.0774 6.41193 89.4098 6.49716C89.745 6.58239 90.0419 6.71449 90.3004 6.89347C90.5618 7.07244 90.7678 7.30256 90.9183 7.58381C91.0689 7.86222 91.1442 8.19602 91.1442 8.58523V13H89.4226V12.0923H89.3714C89.2663 12.2969 89.1257 12.4773 88.9496 12.6335C88.7734 12.7869 88.5618 12.9077 88.3146 12.9957C88.0675 13.081 87.782 13.1236 87.4581 13.1236ZM87.978 11.8707C88.245 11.8707 88.4808 11.8182 88.6854 11.7131C88.8899 11.6051 89.0504 11.4602 89.1669 11.2784C89.2834 11.0966 89.3416 10.8906 89.3416 10.6605V9.96591C89.2848 10.0028 89.2067 10.0369 89.1072 10.0682C89.0107 10.0966 88.9013 10.1236 88.7791 10.1491C88.657 10.1719 88.5348 10.1932 88.4126 10.2131C88.2905 10.2301 88.1797 10.2457 88.0803 10.2599C87.8672 10.2912 87.6811 10.3409 87.522 10.4091C87.3629 10.4773 87.2393 10.5696 87.1513 10.6861C87.0632 10.7997 87.0192 10.9418 87.0192 11.1122C87.0192 11.3594 87.1087 11.5483 87.2876 11.679C87.4695 11.8068 87.6996 11.8707 87.978 11.8707ZM94.0696 6.45455L95.2713 8.7429L96.5028 6.45455H98.3651L96.4688 9.72727L98.4162 13H96.5625L95.2713 10.7372L94.0014 13H92.1264L94.0696 9.72727L92.1946 6.45455H94.0696Z" fill="#5955B3"/>
<path d="M6.00024 12L2.11447 7.475L6.00024 3" stroke="#6663CF" stroke-width="2" stroke-miterlimit="10" stroke-linecap="round" stroke-linejoin="round"/>
<path d="M6.00024 12L2.11447 7.475L6.00024 3" stroke="#6663CF" stroke-width="2" stroke-miterlimit="10" stroke-linecap="round" stroke-linejoin="round"/>
<path d="M16.5144 7.47501L9.76107 7.47501L3.14298 7.47501" stroke="#6663CF" stroke-width="2" stroke-miterlimit="10" stroke-linecap="round" stroke-linejoin="round"/>
<path d="M16.5144 7.47501L9.76107 7.47501L3.14298 7.47501" stroke="#6663CF" stroke-width="2" stroke-miterlimit="10" stroke-linecap="round" stroke-linejoin="round"/>
</svg>
