<svg width="140" height="24" viewBox="0 0 140 24" fill="none" xmlns="http://www.w3.org/2000/svg">
<g clip-path="url(#clip0_1287_7062)">
<path d="M30.0114 18V6.36364H34.6705C35.5265 6.36364 36.2405 6.49053 36.8125 6.74432C37.3845 6.99811 37.8144 7.35038 38.1023 7.80114C38.3902 8.24811 38.5341 8.76326 38.5341 9.34659C38.5341 9.80114 38.4432 10.2008 38.2614 10.5455C38.0795 10.8864 37.8295 11.1667 37.5114 11.3864C37.197 11.6023 36.8371 11.7557 36.4318 11.8466V11.9602C36.875 11.9792 37.2898 12.1042 37.6761 12.3352C38.0663 12.5663 38.3826 12.8902 38.625 13.3068C38.8674 13.7197 38.9886 14.2121 38.9886 14.7841C38.9886 15.4015 38.8352 15.9527 38.5284 16.4375C38.2254 16.9186 37.7765 17.2992 37.1818 17.5795C36.5871 17.8598 35.8542 18 34.983 18H30.0114ZM32.4716 15.9886H34.4773C35.1629 15.9886 35.6629 15.858 35.9773 15.5966C36.2917 15.3314 36.4489 14.9792 36.4489 14.5398C36.4489 14.2178 36.3712 13.9337 36.2159 13.6875C36.0606 13.4413 35.839 13.2481 35.5511 13.108C35.267 12.9678 34.928 12.8977 34.5341 12.8977H32.4716V15.9886ZM32.4716 11.233H34.2955C34.6326 11.233 34.9318 11.1742 35.1932 11.0568C35.4583 10.9356 35.6667 10.7652 35.8182 10.5455C35.9735 10.3258 36.0511 10.0625 36.0511 9.75568C36.0511 9.33523 35.9015 8.99621 35.6023 8.73864C35.3068 8.48106 34.8864 8.35227 34.3409 8.35227H32.4716V11.233ZM44.4872 18.1705C43.5933 18.1705 42.8243 17.9811 42.1804 17.6023C41.5402 17.2197 41.0478 16.6894 40.7031 16.0114C40.3622 15.3333 40.1918 14.553 40.1918 13.6705C40.1918 12.7765 40.3641 11.9924 40.7088 11.3182C41.0573 10.6402 41.5516 10.1117 42.1918 9.73295C42.8319 9.35038 43.5933 9.15909 44.4759 9.15909C45.2372 9.15909 45.9039 9.29735 46.4759 9.57386C47.0478 9.85038 47.5005 10.2386 47.8338 10.7386C48.1671 11.2386 48.3509 11.8258 48.3849 12.5H46.1009C46.0365 12.0644 45.866 11.714 45.5895 11.4489C45.3168 11.1799 44.9588 11.0455 44.5156 11.0455C44.1406 11.0455 43.813 11.1477 43.5327 11.3523C43.2562 11.553 43.0402 11.8466 42.8849 12.233C42.7296 12.6193 42.652 13.0871 42.652 13.6364C42.652 14.1932 42.7277 14.6667 42.8793 15.0568C43.0346 15.447 43.2524 15.7443 43.5327 15.9489C43.813 16.1534 44.1406 16.2557 44.5156 16.2557C44.7921 16.2557 45.0402 16.1989 45.2599 16.0852C45.4834 15.9716 45.6671 15.8068 45.8111 15.5909C45.9588 15.3712 46.0554 15.108 46.1009 14.8011H48.3849C48.3471 15.4678 48.1652 16.0549 47.8395 16.5625C47.5175 17.0663 47.0724 17.4602 46.5043 17.7443C45.9361 18.0284 45.2637 18.1705 44.4872 18.1705ZM53.9119 18.1705C53.0142 18.1705 52.2415 17.9886 51.5938 17.625C50.9498 17.2576 50.4536 16.7386 50.1051 16.0682C49.7566 15.3939 49.5824 14.5966 49.5824 13.6761C49.5824 12.7784 49.7566 11.9905 50.1051 11.3125C50.4536 10.6345 50.9441 10.1061 51.5767 9.72727C52.2131 9.34848 52.9593 9.15909 53.8153 9.15909C54.3911 9.15909 54.9271 9.25189 55.4233 9.4375C55.9233 9.61932 56.3589 9.89394 56.7301 10.2614C57.1051 10.6288 57.3968 11.0909 57.6051 11.6477C57.8134 12.2008 57.9176 12.8485 57.9176 13.5909V14.2557H50.5483V12.7557H55.6392C55.6392 12.4072 55.5634 12.0985 55.4119 11.8295C55.2604 11.5606 55.0502 11.3504 54.7812 11.1989C54.5161 11.0436 54.2074 10.9659 53.8551 10.9659C53.4877 10.9659 53.1619 11.0511 52.8778 11.2216C52.5975 11.3883 52.3778 11.6136 52.2188 11.8977C52.0597 12.178 51.9782 12.4905 51.9744 12.8352V14.2614C51.9744 14.6932 52.054 15.0663 52.2131 15.3807C52.3759 15.6951 52.6051 15.9375 52.9006 16.108C53.196 16.2784 53.5464 16.3636 53.9517 16.3636C54.2206 16.3636 54.4669 16.3258 54.6903 16.25C54.9138 16.1742 55.1051 16.0606 55.2642 15.9091C55.4233 15.7576 55.5445 15.572 55.6278 15.3523L57.8665 15.5C57.7528 16.0379 57.5199 16.5076 57.1676 16.9091C56.8191 17.3068 56.3684 17.6174 55.8153 17.8409C55.2661 18.0606 54.6316 18.1705 53.9119 18.1705ZM67.1435 18.1705C66.2609 18.1705 65.4976 17.983 64.8537 17.608C64.2135 17.2292 63.7192 16.7027 63.3707 16.0284C63.0223 15.3504 62.848 14.5644 62.848 13.6705C62.848 12.7689 63.0223 11.9811 63.3707 11.3068C63.7192 10.6288 64.2135 10.1023 64.8537 9.72727C65.4976 9.34848 66.2609 9.15909 67.1435 9.15909C68.026 9.15909 68.7874 9.34848 69.4276 9.72727C70.0715 10.1023 70.5677 10.6288 70.9162 11.3068C71.2647 11.9811 71.4389 12.7689 71.4389 13.6705C71.4389 14.5644 71.2647 15.3504 70.9162 16.0284C70.5677 16.7027 70.0715 17.2292 69.4276 17.608C68.7874 17.983 68.026 18.1705 67.1435 18.1705ZM67.1548 16.2955C67.5563 16.2955 67.8916 16.1818 68.1605 15.9545C68.4295 15.7235 68.6321 15.4091 68.7685 15.0114C68.9086 14.6136 68.9787 14.161 68.9787 13.6534C68.9787 13.1458 68.9086 12.6932 68.7685 12.2955C68.6321 11.8977 68.4295 11.5833 68.1605 11.3523C67.8916 11.1212 67.5563 11.0057 67.1548 11.0057C66.7495 11.0057 66.4086 11.1212 66.1321 11.3523C65.8594 11.5833 65.6529 11.8977 65.5128 12.2955C65.3764 12.6932 65.3082 13.1458 65.3082 13.6534C65.3082 14.161 65.3764 14.6136 65.5128 15.0114C65.6529 15.4091 65.8594 15.7235 66.1321 15.9545C66.4086 16.1818 66.7495 16.2955 67.1548 16.2955ZM76.7159 18V9.27273H79.1364V12.6591H79.8182L82.1932 9.27273H85.0341L81.9489 13.6023L85.0682 18H82.1932L80.0398 14.9034H79.1364V18H76.7159ZM87.7259 21.2727C87.419 21.2727 87.1312 21.2481 86.8622 21.1989C86.5971 21.1534 86.3774 21.0947 86.2031 21.0227L86.7486 19.2159C87.0327 19.303 87.2884 19.3504 87.5156 19.358C87.7467 19.3655 87.9455 19.3125 88.1122 19.1989C88.2827 19.0852 88.4209 18.892 88.527 18.6193L88.669 18.25L85.5384 9.27273H88.0838L89.8906 15.6818H89.9815L91.8054 9.27273H94.3679L90.9759 18.9432C90.813 19.4129 90.5914 19.822 90.3111 20.1705C90.0346 20.5227 89.6842 20.7936 89.2599 20.983C88.8357 21.1761 88.3243 21.2727 87.7259 21.2727ZM95.6065 21.2727V9.27273H97.9929V10.7386H98.1009C98.2069 10.5038 98.3603 10.2652 98.5611 10.0227C98.7656 9.77652 99.0308 9.57197 99.3565 9.40909C99.6861 9.24242 100.095 9.15909 100.584 9.15909C101.22 9.15909 101.807 9.32576 102.345 9.65909C102.883 9.98864 103.313 10.4867 103.635 11.1534C103.957 11.8163 104.118 12.6477 104.118 13.6477C104.118 14.6212 103.961 15.4432 103.646 16.1136C103.336 16.7803 102.911 17.286 102.374 17.6307C101.839 17.9716 101.241 18.142 100.578 18.142C100.108 18.142 99.7088 18.0644 99.3793 17.9091C99.0535 17.7538 98.7865 17.5587 98.5781 17.3239C98.3698 17.0852 98.2107 16.8447 98.1009 16.6023H98.027V21.2727H95.6065ZM97.9759 13.6364C97.9759 14.1553 98.0478 14.608 98.1918 14.9943C98.3357 15.3807 98.544 15.6818 98.8168 15.8977C99.0895 16.1098 99.4209 16.2159 99.8111 16.2159C100.205 16.2159 100.538 16.108 100.811 15.892C101.084 15.6723 101.29 15.3693 101.43 14.983C101.574 14.5928 101.646 14.1439 101.646 13.6364C101.646 13.1326 101.576 12.6894 101.436 12.3068C101.296 11.9242 101.089 11.625 100.817 11.4091C100.544 11.1932 100.209 11.0852 99.8111 11.0852C99.4171 11.0852 99.0838 11.1894 98.8111 11.3977C98.5421 11.6061 98.3357 11.9015 98.1918 12.2841C98.0478 12.6667 97.9759 13.1174 97.9759 13.6364ZM109.675 18.1705C108.781 18.1705 108.012 17.9811 107.368 17.6023C106.728 17.2197 106.235 16.6894 105.891 16.0114C105.55 15.3333 105.379 14.553 105.379 13.6705C105.379 12.7765 105.552 11.9924 105.896 11.3182C106.245 10.6402 106.739 10.1117 107.379 9.73295C108.019 9.35038 108.781 9.15909 109.663 9.15909C110.425 9.15909 111.091 9.29735 111.663 9.57386C112.235 9.85038 112.688 10.2386 113.021 10.7386C113.355 11.2386 113.538 11.8258 113.572 12.5H111.288C111.224 12.0644 111.054 11.714 110.777 11.4489C110.504 11.1799 110.146 11.0455 109.703 11.0455C109.328 11.0455 109 11.1477 108.72 11.3523C108.444 11.553 108.228 11.8466 108.072 12.233C107.917 12.6193 107.839 13.0871 107.839 13.6364C107.839 14.1932 107.915 14.6667 108.067 15.0568C108.222 15.447 108.44 15.7443 108.72 15.9489C109 16.1534 109.328 16.2557 109.703 16.2557C109.98 16.2557 110.228 16.1989 110.447 16.0852C110.671 15.9716 110.855 15.8068 110.999 15.5909C111.146 15.3712 111.243 15.108 111.288 14.8011H113.572C113.535 15.4678 113.353 16.0549 113.027 16.5625C112.705 17.0663 112.26 17.4602 111.692 17.7443C111.124 18.0284 110.451 18.1705 109.675 18.1705ZM117.611 18.1648C117.054 18.1648 116.558 18.0682 116.122 17.875C115.687 17.678 115.342 17.3883 115.088 17.0057C114.838 16.6193 114.713 16.1383 114.713 15.5625C114.713 15.0777 114.802 14.6705 114.98 14.3409C115.158 14.0114 115.401 13.7462 115.707 13.5455C116.014 13.3447 116.363 13.1932 116.753 13.0909C117.147 12.9886 117.56 12.9167 117.991 12.875C118.499 12.822 118.908 12.7727 119.219 12.7273C119.529 12.678 119.755 12.6061 119.895 12.5114C120.035 12.4167 120.105 12.2765 120.105 12.0909V12.0568C120.105 11.697 119.991 11.4186 119.764 11.2216C119.541 11.0246 119.223 10.9261 118.81 10.9261C118.374 10.9261 118.027 11.0227 117.77 11.2159C117.512 11.4053 117.342 11.6439 117.259 11.9318L115.02 11.75C115.134 11.2197 115.357 10.7614 115.69 10.375C116.024 9.98485 116.454 9.68561 116.98 9.47727C117.51 9.26515 118.124 9.15909 118.821 9.15909C119.306 9.15909 119.77 9.21591 120.213 9.32955C120.66 9.44318 121.056 9.61932 121.401 9.85795C121.749 10.0966 122.024 10.4034 122.224 10.7784C122.425 11.1496 122.526 11.5947 122.526 12.1136V18H120.23V16.7898H120.162C120.022 17.0625 119.834 17.303 119.599 17.5114C119.365 17.7159 119.082 17.8769 118.753 17.9943C118.423 18.108 118.043 18.1648 117.611 18.1648ZM118.304 16.4943C118.66 16.4943 118.974 16.4242 119.247 16.2841C119.52 16.1402 119.734 15.947 119.889 15.7045C120.045 15.4621 120.122 15.1875 120.122 14.8807V13.9545C120.046 14.0038 119.942 14.0492 119.81 14.0909C119.681 14.1288 119.535 14.1648 119.372 14.1989C119.209 14.2292 119.046 14.2576 118.884 14.2841C118.721 14.3068 118.573 14.3277 118.44 14.3466C118.156 14.3883 117.908 14.4545 117.696 14.5455C117.484 14.6364 117.319 14.7595 117.202 14.9148C117.084 15.0663 117.026 15.2557 117.026 15.483C117.026 15.8125 117.145 16.0644 117.384 16.2386C117.626 16.4091 117.933 16.4943 118.304 16.4943ZM126.426 9.27273L128.028 12.3239L129.67 9.27273H132.153L129.625 13.6364L132.222 18H129.75L128.028 14.983L126.335 18H123.835L126.426 13.6364L123.926 9.27273H126.426Z" fill="#5955B3"/>
<g filter="url(#filter0_d_1287_7062)">
<path d="M8.40009 16.9412L2.96001 10.5529L8.40009 4.23528" stroke="#6663CF" stroke-width="2" stroke-miterlimit="10" stroke-linecap="round" stroke-linejoin="round"/>
<path d="M8.40009 16.9412L2.96001 10.5529L8.40009 4.23528" stroke="#6663CF" stroke-width="2" stroke-miterlimit="10" stroke-linecap="round" stroke-linejoin="round"/>
<path d="M23.12 10.5529H13.6653L4.4 10.5529" stroke="#6663CF" stroke-width="2" stroke-miterlimit="10" stroke-linecap="round" stroke-linejoin="round"/>
<path d="M23.12 10.5529H13.6653L4.4 10.5529" stroke="#6663CF" stroke-width="2" stroke-miterlimit="10" stroke-linecap="round" stroke-linejoin="round"/>
</g>
</g>
<defs>
<filter id="filter0_d_1287_7062" x="-2.03999" y="3.23526" width="30.16" height="22.7059" filterUnits="userSpaceOnUse" color-interpolation-filters="sRGB">
<feFlood flood-opacity="0" result="BackgroundImageFix"/>
<feColorMatrix in="SourceAlpha" type="matrix" values="0 0 0 0 0 0 0 0 0 0 0 0 0 0 0 0 0 0 127 0" result="hardAlpha"/>
<feOffset dy="4"/>
<feGaussianBlur stdDeviation="2"/>
<feComposite in2="hardAlpha" operator="out"/>
<feColorMatrix type="matrix" values="0 0 0 0 0 0 0 0 0 0 0 0 0 0 0 0 0 0 0.25 0"/>
<feBlend mode="normal" in2="BackgroundImageFix" result="effect1_dropShadow_1287_7062"/>
<feBlend mode="normal" in="SourceGraphic" in2="effect1_dropShadow_1287_7062" result="shape"/>
</filter>
<clipPath id="clip0_1287_7062">
<rect width="140" height="24" fill="white"/>
</clipPath>
</defs>
</svg>
