<svg width="266" height="235" viewBox="0 0 266 235" fill="none" xmlns="http://www.w3.org/2000/svg">
<path d="M207.247 4.01918L185.475 90.6817C185.342 91.2117 185.659 91.7504 186.187 91.8915L187.642 92.2802C188.18 92.424 188.732 92.1001 188.869 91.56L210.831 5.00993C210.962 4.49239 210.664 3.96298 210.153 3.80738L208.508 3.30623C207.961 3.13962 207.386 3.46466 207.247 4.01918Z" stroke="#6663CF" stroke-width="5" stroke-linecap="round"/>
<path d="M140.18 83.1533C146.037 85.0865 151.602 79.1382 153.945 76.1641" stroke="#2D3342" stroke-width="5" stroke-linecap="round"/>
<path d="M31.8603 108.193C29.2476 105.66 22.6683 101.789 17.2529 106.565C11.8375 111.34 6.44588 118.443 4.42698 121.398C3.00187 123.75 1.39863 128.272 6.3865 127.548C12.6213 126.644 16.7186 118.685 22.0627 119.408" stroke="#2D3342" stroke-width="5" stroke-linecap="round"/>
<path d="M42.5466 97.6819C39.5892 94.869 32.1888 89.5386 26.2465 90.72C18.8187 92.1968 4.16923 102.745 8.91482 104.855C13.6604 106.964 20.6356 101.767 29.5425 101.767" stroke="#2D3342" stroke-width="5" stroke-linecap="round"/>
<path d="M101.332 64.671C87.7245 59.2682 56.857 62.8277 57.5208 102.491" stroke="#6663CF" stroke-width="5" stroke-linecap="round"/>
<path d="M128.053 102.491V134.034C128.053 138.94 126.806 147.352 116.652 147.352" stroke="#6563CE" stroke-width="5" stroke-linecap="round"/>
<path d="M97.194 150.735L127.413 147.422C127.838 147.375 128.274 147.378 128.692 147.465C137.721 149.336 134.845 160.919 128.053 160.919H57.0621C56.3018 160.919 55.5378 160.758 54.8873 160.365C47.0487 155.623 52.053 146.309 58.0444 147.352L96.2063 150.745C96.5351 150.774 96.8659 150.771 97.194 150.735Z" stroke="#6563CE" stroke-width="5" stroke-linecap="round"/>
<path d="M60.4057 161.1L57.3126 208.247C57.2268 209.556 58.2651 210.664 59.5765 210.664V210.664C60.6816 210.664 61.626 209.868 61.8126 208.779L69.98 161.1" stroke="#6663CF" stroke-width="5" stroke-linecap="round"/>
<path d="M124.801 161.1L127.894 208.247C127.98 209.556 126.942 210.664 125.631 210.664V210.664C124.525 210.664 123.581 209.868 123.394 208.779L115.227 161.1" stroke="#6563CE" stroke-width="5" stroke-linecap="round"/>
<path d="M58.2229 137.584C57.8072 140.659 58.6148 146.737 65.1703 146.447" stroke="#6563CE" stroke-width="5" stroke-linecap="round"/>
<path d="M117.365 46.9568C121.462 43.5198 132.898 38.093 151.567 43.158" stroke="#2D3342" stroke-width="5" stroke-linecap="round"/>
<path d="M146.758 42.0727C153.289 34.3546 173.371 20.438 201.446 26.516" stroke="#2D3342" stroke-width="5" stroke-linecap="round"/>
<path d="M184.701 40.4446C169.5 46.1126 144.244 62.8121 161.899 86.5721C175.341 104.661 179.713 89.6473 174.191 75.1759C173.3 72.1008 172.053 67.072 178.466 64.3224" stroke="#2D3342" stroke-width="5" stroke-linecap="round"/>
<path d="M93.6122 118.066C93.7885 71.0428 104.945 53.1048 112.448 48.8212C113.873 48.0073 115.6 48.4966 116.846 49.5653C122.643 54.5369 137.959 68.4107 136.958 84.7891C136.958 108.124 119.859 132.7 114.871 142.106C109.883 151.512 94.2662 150.608 87.0813 148.98C65.8235 141.684 24.8042 124.849 30.7896 115.877C36.1006 107.916 66.9562 116.171 86.744 122.977C90.0854 124.127 93.599 121.599 93.6122 118.066Z" fill="#2D3342"/>
<path d="M88.1153 109.012C88.9403 107.048 89.8958 104.935 90.8688 102.867C92.6475 99.0877 97.8205 99.3006 98.9397 103.325C102.182 114.987 102.5 128.65 88.8625 128.539C66.5953 128.358 30.7895 104.119 42.0122 99.7773C49.4585 96.8967 67.1407 105.348 79.1233 112.271C82.2464 114.076 86.7183 112.338 88.1153 109.012Z" fill="#2D3342"/>
<path d="M172.324 97.7875C171.255 100.32 172.217 104.553 173.927 105.566" stroke="#2D3342" stroke-width="5" stroke-linecap="round"/>
<path d="M190.936 105.928C192.005 107.556 192.005 109.184 190.58 109.726C189.154 110.269 187.373 106.832 186.839 105.385" stroke="#2D3342" stroke-width="5" stroke-linecap="round"/>
<path d="M189.154 109.365C188.917 110.095 187.52 111.339 185.948 109.726C184.879 108.63 184.523 107.917 183.988 106.832" stroke="#2D3342" stroke-width="5" stroke-linecap="round"/>
<path d="M178.466 105.928H138.574C135.884 105.928 133.645 108.3 135.358 110.375C136.133 111.313 137.246 112.122 138.814 112.519C139.119 112.596 139.434 112.621 139.748 112.621H144.073C146.835 112.621 149.073 114.859 149.073 117.621V220.497C149.073 223.259 151.312 225.497 154.073 225.497H217.835" stroke="#2D3342" stroke-width="5" stroke-linecap="round"/>
<path d="M148.361 111.897V118.047L242.774 114.884V111.897H148.361Z" fill="#2D3342"/>
<path d="M241.883 144.458V117.273C241.883 114.578 244.02 112.367 246.714 112.276L247.228 112.259C248.95 112.259 250.265 111.836 251.179 110.908C253.163 108.896 250.409 106.109 247.583 106.109H194.499" stroke="#2D3342" stroke-width="5" stroke-linecap="round"/>
<path d="M185.592 109.726C184.938 110.872 182.706 111.752 179 106.109" stroke="#2D3342" stroke-width="5" stroke-linecap="round"/>
<path d="M188.62 92.3607C196.636 83.497 212.17 53.5774 210.887 4.08533" stroke="#5A56B4" stroke-width="5" stroke-linecap="round"/>
<path d="M214.978 51.1173C214.978 52.77 213.669 54.0441 212.134 54.0441C210.6 54.0441 209.29 52.77 209.29 51.1173C209.29 49.4646 210.6 48.1906 212.134 48.1906C213.669 48.1906 214.978 49.4646 214.978 51.1173Z" stroke="#6663CF" stroke-width="5"/>
<path d="M210.887 56.0014L217.835 91.2754C218.429 94.3505 217.585 100.718 209.462 101.586H194.677C194.083 101.526 192.895 101.695 192.895 102.852" stroke="#6563CE" stroke-width="5" stroke-linecap="round"/>
<path d="M179 99.4155C180.447 98.5996 183.342 97.4895 187.425 98.2092C188.331 98.3687 189.139 98.8578 189.755 99.5399C192.16 102.205 195.338 106.306 193.964 107.194C192.396 108.207 189.511 104.481 188.798 103.214" stroke="#2D3342" stroke-width="5" stroke-linecap="round"/>
<path d="M213.025 105.566C216.944 104.601 224.319 100.139 222.466 90.0092C220.614 79.8792 216.707 62.393 214.985 54.9161" stroke="#6563CE" stroke-width="5" stroke-linecap="round"/>
<path d="M219.619 231.228L213.407 203.506C213.238 202.751 213.955 202.097 214.697 202.317C231.67 207.358 245.113 205.036 251.364 202.645C252.151 202.344 253.022 203.035 252.847 203.859L247.039 231.217C246.941 231.679 246.534 232.009 246.061 232.009H220.595C220.127 232.009 219.722 231.685 219.619 231.228Z" stroke="#2D3342" stroke-width="5" stroke-linecap="round"/>
<path d="M245.484 138.741C229.749 160.365 228.03 189.302 229.417 203.311C229.508 204.233 230.24 204.949 231.164 205.016C234.514 205.257 239.543 205.285 241.865 204.128C242.243 203.94 242.488 203.557 242.609 203.152C255.251 160.767 251.337 148.395 249.524 139.846C249.139 138.031 246.576 137.24 245.484 138.741Z" fill="#5A56B4"/>
<path d="M265.985 154.84C265.592 167.663 257.57 183.439 250.359 194.873C249.126 196.828 246.173 195.317 246.801 193.092C250.259 180.849 252.285 168.738 252.553 163.676C252.568 163.402 252.63 163.142 252.758 162.9C254.801 159.034 259.693 155.453 263.326 153.297C264.546 152.572 266.028 153.421 265.985 154.84Z" fill="#5955B3"/>
<path d="M223.357 129.805C231.338 137.765 234.639 149.764 235.292 154.769C228.309 172.279 227.87 195.349 228.523 204.695C227.525 204.695 226.088 204.333 225.495 204.152C212.241 175.209 218.547 142.528 223.357 129.805Z" fill="#6E6AC7"/>
<path d="M212.746 177.561C213.316 193.335 211.125 197.941 213.738 202.705C212.027 202.705 215.834 210.242 214.171 209.579C192.937 187.148 189.054 161.642 189.767 151.693C198.317 154.877 208.649 170.265 212.746 177.561Z" fill="black" fill-opacity="0.3"/>
<path d="M216.588 170.506C217.158 186.28 222.526 199.75 225.138 204.514C223.428 204.514 219.675 203.187 218.013 202.524C196.779 180.093 192.895 154.588 193.608 144.639C202.158 147.822 212.491 163.21 216.588 170.506Z" fill="#6663CF"/>
</svg>
