<svg width="20" height="20" viewBox="0 0 20 20" fill="none" xmlns="http://www.w3.org/2000/svg">
<g clip-path="url(#clip0_1340_7103)">
<line x1="9.44092" y1="2" x2="9.44092" y2="16" stroke="#6663CF"/>
<path d="M5.70546 10.1095C5.75422 9.9841 5.86946 9.86853 5.95445 9.77097C6.16956 9.52403 6.39433 9.27624 6.64266 9.06177C6.78485 8.93897 6.94424 8.82602 7.03992 8.66032C7.12333 8.51589 6.90267 8.71358 6.87766 8.73026C6.69469 8.85224 6.15487 9.2248 6.31394 9.07296C6.37968 9.01021 6.93075 8.74731 6.75177 8.58898C6.64174 8.49165 6.39473 8.55336 6.27618 8.57219C5.83503 8.64226 5.40084 8.75173 4.9613 8.83097C4.52319 8.90995 4.08559 9.00134 3.64362 9.05618C3.51813 9.07175 3.35856 9.1301 3.41142 8.96246C3.46309 8.79859 3.54095 8.63166 3.6702 8.51484C3.78994 8.40662 3.94371 8.34418 4.06047 8.23228C4.18228 8.11554 4.14615 8.03494 3.98213 8.01407C3.64426 7.97107 3.32095 7.86859 2.97779 7.86859C2.76729 7.86859 2.58129 7.92595 2.3833 7.99448C2.27563 8.03176 2.10517 8.06261 2.04339 8.17493C1.98008 8.29003 2.00493 8.4717 2.00422 8.59597C2.00351 8.72005 2.00011 8.84541 2.00562 8.96945C2.01484 9.17676 2.05819 9.37644 2.16648 9.55555C2.18467 9.58562 2.26904 9.73709 2.32035 9.72341C2.43398 9.69311 2.5052 9.36344 2.52738 9.28418C2.61366 8.97585 2.65295 8.6526 2.65886 8.333C2.65968 8.28906 2.66582 8.0908 2.70922 8.07562C2.74931 8.06159 2.81723 8.11491 2.8463 8.13157C2.97388 8.20467 3.10937 8.28823 3.26175 8.28823C3.53075 8.28823 3.78074 8.08119 3.99612 7.94413C4.23767 7.79042 4.55794 7.77685 4.83121 7.71612C5.03317 7.67124 4.41301 7.63414 4.21154 7.68115C4.12632 7.70104 4.38422 7.71487 4.47172 7.71612C4.91733 7.72249 5.36332 7.71752 5.80897 7.71752C5.9787 7.71752 6.14842 7.71691 6.31814 7.71752C6.39771 7.71781 6.62087 7.69251 6.55594 7.7385C6.30785 7.91423 5.91123 7.97963 5.62433 8.04764C5.42944 8.09384 5.23048 8.13636 5.03264 8.16934C4.97475 8.17898 5.14277 8.12847 5.1991 8.11198C5.37341 8.06097 5.58852 8.08304 5.76701 8.06722C6.05371 8.04182 6.34026 8.00971 6.62308 7.95532C6.69267 7.94194 6.72388 7.93385 6.69582 7.8546C6.58465 7.54073 6.22218 7.48343 5.93207 7.45455C5.35456 7.39706 4.70622 7.47621 4.16957 7.71472C4.06466 7.76135 3.99057 8.01839 4.0241 8.11898C4.06969 8.25574 4.37377 8.23676 4.47172 8.24067C4.735 8.25121 5.00484 8.25714 5.26764 8.23228C5.2757 8.23152 5.54407 8.18841 5.36695 8.17633C5.00598 8.15172 4.63638 8.19989 4.27588 8.22109C4.20849 8.22506 4.31106 8.24418 4.32204 8.24487C4.44342 8.25246 4.56899 8.24653 4.68993 8.24067C5.3026 8.21103 6.0221 8.15651 6.51957 7.75949C6.69546 7.61911 6.85527 7.4691 7.03992 7.33984" stroke="#6663CF" stroke-linecap="round"/>
<path d="M5.81807 9.94336C5.79565 10.2124 5.7667 10.4783 5.76771 10.7491C5.76933 11.1796 5.86427 11.5165 6.08244 11.8877C6.09681 11.9121 6.36121 12.4442 6.3664 12.2038C6.37611 11.7539 6.27142 11.2071 5.96494 10.8652C5.66049 10.5255 5.2904 10.1832 4.86269 10.0091C4.55797 9.88506 4.20059 9.85583 3.87932 9.79229C3.71667 9.76011 3.51221 9.69221 3.34358 9.71815C3.29251 9.72601 3.30022 9.92785 3.30022 9.96294C3.30022 10.2113 3.46808 10.2982 3.65552 10.4231C3.93403 10.6088 4.26434 10.7231 4.46962 11.0023C4.62144 11.2087 4.7898 11.3999 4.9676 11.5856C5.16344 11.7901 5.28189 12.0361 5.42081 12.2822C5.59082 12.5833 5.7678 12.8651 5.96914 13.1466C6.02293 13.2218 6.09503 13.2972 6.09503 13.3928C6.09503 13.7064 6.0546 13.9975 6.0195 14.309C5.99907 14.4903 5.96653 14.7147 5.86843 14.8727C5.81623 14.9568 5.81807 15.0975 5.81807 15.1945C5.81807 15.6565 5.60484 16.0553 5.4264 16.4632C5.33652 16.6686 5.23896 16.919 5.23896 17.1444C5.23896 17.1906 5.2128 17.359 5.24596 17.3822C5.27835 17.4049 5.34945 17.39 5.38164 17.385C5.6113 17.3495 5.83792 17.2904 6.06706 17.2507C6.32034 17.2068 6.69997 17.2107 6.91054 17.0325C7.01629 16.943 7.04284 16.774 7.15253 16.6856C7.2944 16.5713 7.44849 16.4928 7.59175 16.3835C7.72338 16.283 7.82739 16.2161 7.93306 16.0869C8.03546 15.9618 8.06773 15.7936 8.14428 15.6575C8.17116 15.6097 8.20711 15.3563 8.21003 15.5638C8.21037 15.5883 8.26272 15.8242 8.33032 15.7092C8.39181 15.6047 8.30781 15.527 8.27297 15.4225C8.14985 15.0531 7.53654 15.1772 7.26024 15.1819C6.99908 15.1863 6.71861 15.1808 6.46152 15.2322C6.35476 15.2536 6.34682 15.2947 6.34682 15.1861C6.34682 14.9757 6.79458 14.8733 6.94551 14.8028C7.26638 14.6529 7.58019 14.4759 7.83235 14.2237C7.86883 14.1872 7.9142 14.1711 7.94845 14.1328C8.06351 14.0042 8.09408 14.1372 8.16527 14.2321C8.30471 14.418 8.26392 14.5349 8.29815 14.7608C8.30053 14.7765 8.31497 14.9486 8.33592 14.9119C8.40678 14.7879 8.39855 14.5375 8.40866 14.3986C8.43147 14.0849 8.41146 13.7625 8.41146 13.4488C8.41146 12.8998 8.53735 12.3555 8.53735 11.808C8.53735 11.222 8.53171 10.6356 8.53735 10.0497C8.54189 9.57763 8.5935 9.1027 8.55973 8.62988C8.55502 8.56397 8.54094 8.54372 8.48979 8.59771C8.36905 8.72515 8.26453 8.87704 8.15967 9.01735C7.90524 9.35778 7.70886 9.71387 7.59315 10.1238C7.48809 10.496 7.36236 10.8641 7.28262 11.2428C7.20891 11.593 7.14426 11.9403 7.05741 12.2878C6.95349 12.7035 6.90151 13.13 6.80283 13.5467C6.74844 13.7763 6.74861 13.6274 6.74967 13.4935C6.75218 13.1779 6.81111 12.8704 6.8336 12.5563C6.88553 11.8313 6.87857 11.1058 6.9497 10.3812C7.00639 9.80372 7.05182 9.22167 7.05182 8.64107C7.05182 8.40337 7.09035 8.19216 7.13994 7.96405C7.14607 7.93584 7.17786 7.83134 7.12735 7.82836C7.11455 7.82761 7.04802 7.83741 7.05741 7.81158C7.08171 7.74475 7.17283 7.678 7.21827 7.62414C7.3185 7.50535 7.43268 7.40196 7.53301 7.28283C7.67592 7.11312 7.86474 6.93926 8.05896 6.82682C8.10533 6.79997 8.15148 6.66134 8.16107 6.60861C8.17986 6.50525 8.24661 6.53244 8.32333 6.51629C8.42941 6.49395 8.43175 6.38337 8.50657 6.34283C8.54104 6.32416 8.54718 6.72203 8.54994 6.76387C8.55181 6.79228 8.56253 7.12753 8.56253 6.92474C8.56253 6.57798 8.59769 6.19924 8.56113 5.85185C8.55535 5.79697 8.52157 5.75078 8.50098 5.70078C8.45985 5.60091 8.48516 5.45298 8.48699 5.34688C8.48892 5.2352 8.53278 5.11706 8.55693 5.00837C8.57684 4.91878 8.61295 4.84447 8.63806 4.75659C8.64928 4.71733 8.66159 4.69142 8.66324 4.65028C8.6654 4.59636 8.71877 4.59128 8.73598 4.54397C8.78001 4.42287 8.86467 4.28518 8.86467 4.1523C8.86467 4.08849 8.91033 4.03371 8.93461 3.97605C8.96014 3.91542 8.92631 3.85841 8.96538 3.7998" stroke="#6663CF" stroke-width="2" stroke-linecap="round"/>
<path d="M8.2989 7.29004C8.24655 7.34893 8.24855 7.44192 8.24855 7.51665" stroke="#6663CF" stroke-width="2" stroke-linecap="round"/>
<path d="M11.4435 2.9252L12.9102 5.85853C13.1102 6.26686 13.6435 6.65853 14.0935 6.73353L16.7519 7.1752C18.4519 7.45853 18.8519 8.69186 17.6269 9.90853L15.5602 11.9752C15.2102 12.3252 15.0185 13.0002 15.1269 13.4835L15.7185 16.0419C16.1852 18.0669 15.1102 18.8502 13.3185 17.7919L10.8269 16.3169C10.3769 16.0502 9.63521 16.0502 9.17688 16.3169L6.68521 17.7919C4.90188 18.8502 3.81854 18.0585 4.28521 16.0419L4.87688 13.4835C4.98521 13.0002 4.79354 12.3252 4.44354 11.9752L2.37688 9.90853C1.16021 8.69186 1.55188 7.45853 3.25188 7.1752L5.91021 6.73353C6.35188 6.65853 6.88521 6.26686 7.08521 5.85853L8.55188 2.9252C9.35188 1.33353 10.6519 1.33353 11.4435 2.9252Z" stroke="#6663CF" stroke-linecap="round" stroke-linejoin="round"/>
</g>
<defs>
<clipPath id="clip0_1340_7103">
<rect width="20" height="20" fill="white"/>
</clipPath>
</defs>
</svg>
