<svg  class="svg_star" width="20" height="20" viewBox="0 0 20 20" fill="none" xmlns="http://www.w3.org/2000/svg">
    
        <path d="M11.4438 2.92507L12.9105 5.85841C13.1105 6.26674 13.6438 6.65841 14.0938 6.73341L16.7521 7.17507C18.4521 7.45841 18.8521 8.69174 17.6271 9.90841L15.5605 11.9751C15.2105 12.3251 15.0188 13.0001 15.1271 13.4834L15.7188 16.0417C16.1855 18.0667 15.1105 18.8501 13.3188 17.7917L10.8271 16.3167C10.3771 16.0501 9.63545 16.0501 9.17712 16.3167L6.68545 17.7917C4.90212 18.8501 3.81879 18.0584 4.28545 16.0417L4.87712 13.4834C4.98545 13.0001 4.79379 12.3251 4.44379 11.9751L2.37712 9.90841C1.16045 8.69174 1.55212 7.45841 3.25212 7.17507L5.91045 6.73341C6.35212 6.65841 6.88545 6.26674 7.08545 5.85841L8.55212 2.92507C9.35212 1.33341 10.6521 1.33341 11.4438 2.92507Z" stroke="#6663CF" stroke-linecap="round" stroke-linejoin="round"/>
    
</svg>