<svg width="20" height="20" viewBox="0 0 20 20" fill="none" xmlns="http://www.w3.org/2000/svg">
<path d="M11.4435 2.9252L12.9102 5.85853C13.1102 6.26686 13.6435 6.65853 14.0935 6.73353L16.7519 7.1752C18.4519 7.45853 18.8519 8.69186 17.6269 9.90853L15.5602 11.9752C15.2102 12.3252 15.0185 13.0002 15.1269 13.4835L15.7185 16.0419C16.1852 18.0669 15.1102 18.8502 13.3185 17.7919L10.8269 16.3169C10.3769 16.0502 9.63521 16.0502 9.17688 16.3169L6.68521 17.7919C4.90188 18.8502 3.81854 18.0585 4.28521 16.0419L4.87688 13.4835C4.98521 13.0002 4.79354 12.3252 4.44354 11.9752L2.37688 9.90853C1.16021 8.69186 1.55188 7.45853 3.25188 7.1752L5.91021 6.73353C6.35188 6.65853 6.88521 6.26686 7.08521 5.85853L8.55188 2.9252C9.35188 1.33353 10.6519 1.33353 11.4435 2.9252Z" stroke="#6663CF" stroke-linecap="round" stroke-linejoin="round"/>
</svg>
