<svg width="757" height="409" viewBox="0 0 757 409" fill="none" xmlns="http://www.w3.org/2000/svg">
<rect width="757" height="409" fill="white"/>
<path d="M204.612 100.016L205.236 99.392C205.938 99.964 206.848 100.77 207.277 101.29L206.614 102.018C206.198 101.472 205.314 100.614 204.612 100.016ZM205.652 110.78L205.47 109.87L205.73 109.441L207.966 107.751C208.044 108.011 208.187 108.375 208.304 108.57C206.172 110.247 205.834 110.507 205.652 110.78ZM203.741 103.175H206.406V104.111H203.741V103.175ZM205.652 110.793C205.548 110.585 205.275 110.234 205.119 110.078C205.34 109.896 205.743 109.454 205.743 108.817V103.175H206.679V109.532C206.679 109.532 205.652 110.403 205.652 110.793ZM208.408 101.576H215.311V102.473H208.408V101.576ZM208.811 104.28H214.895V105.164H208.811V104.28ZM208.096 107.01H215.597V107.92H208.096V107.01ZM211.398 101.914H212.386V111.04H211.398V101.914ZM209.123 99.47L209.968 99.145C210.436 99.782 210.93 100.627 211.112 101.186L210.215 101.563C210.033 101.004 209.565 100.12 209.123 99.47ZM213.946 99.054L214.934 99.379C214.479 100.341 213.894 101.433 213.426 102.122L212.594 101.81C213.062 101.082 213.647 99.899 213.946 99.054ZM217.04 107.621C217.001 107.426 216.845 106.945 216.728 106.698C217.014 106.633 217.352 106.334 217.82 105.892C218.301 105.437 219.822 103.695 220.862 101.992L221.694 102.525C220.498 104.241 219.068 105.905 217.69 107.101V107.127C217.69 107.127 217.04 107.413 217.04 107.621ZM217.04 107.621L217.001 106.828L217.495 106.49L221.473 105.931C221.46 106.191 221.486 106.555 221.512 106.763C217.807 107.348 217.339 107.465 217.04 107.621ZM216.962 104.488C216.91 104.28 216.754 103.799 216.637 103.539C216.884 103.474 217.131 103.175 217.456 102.733C217.781 102.291 218.834 100.627 219.471 99.028L220.42 99.444C219.627 101.082 218.613 102.759 217.612 103.942V103.955C217.612 103.955 216.962 104.28 216.962 104.488ZM216.962 104.488L216.949 103.76L217.43 103.461L220.355 103.188C220.303 103.448 220.277 103.812 220.277 104.007C217.599 104.306 217.209 104.371 216.962 104.488ZM216.702 109.324C217.898 109.142 219.718 108.804 221.486 108.479L221.551 109.35C219.874 109.701 218.145 110.026 216.858 110.286L216.702 109.324ZM222.409 109.103H227.7V110.013H222.409V109.103ZM222.37 104.501H227.765V105.411H222.37V104.501ZM224.619 100.445H225.529V109.493H224.619V100.445ZM221.85 99.756H228.298V110.741H227.362V100.731H222.747V110.858H221.85V99.756ZM230.664 99.951L231.314 99.366C232.016 99.964 232.913 100.835 233.329 101.381L232.64 102.083C232.224 101.511 231.366 100.588 230.664 99.951ZM229.793 103.162H232.25V104.124H229.793V103.162ZM231.496 110.546L231.301 109.571L231.574 109.155L234.161 107.335C234.239 107.608 234.382 107.998 234.499 108.206C232.055 110 231.678 110.286 231.496 110.546ZM231.496 110.546C231.405 110.299 231.132 109.857 230.937 109.649C231.197 109.48 231.691 109.038 231.691 108.453V103.162H232.666V109.35C232.666 109.35 231.496 110.156 231.496 110.546ZM234.759 99.47L235.578 99.119C236.085 99.808 236.618 100.718 236.813 101.329L235.916 101.719C235.747 101.108 235.24 100.159 234.759 99.47ZM239.283 99.093L240.297 99.418C239.868 100.38 239.361 101.459 238.932 102.187L238.061 101.875C238.477 101.134 238.997 99.938 239.283 99.093ZM235.149 102.577V104.943H239.569V102.577H235.149ZM234.213 101.706H240.557V105.827H234.213V101.706ZM235.864 105.606H236.852C236.67 108.206 236.15 110.039 233.68 111.053C233.563 110.832 233.29 110.481 233.069 110.312C235.331 109.454 235.721 107.842 235.864 105.606ZM238.009 105.528H238.971V109.558C238.971 109.896 239.023 109.948 239.348 109.948C239.491 109.948 240.219 109.948 240.401 109.948C240.713 109.948 240.778 109.753 240.804 108.349C241.012 108.518 241.402 108.674 241.675 108.739C241.584 110.429 241.337 110.871 240.505 110.871C240.31 110.871 239.4 110.871 239.205 110.871C238.243 110.871 238.009 110.572 238.009 109.571V105.528ZM243.794 99.886H247.525V107.647H243.794V106.737H246.615V100.783H243.794V99.886ZM243.807 103.253H247.005V104.137H243.807V103.253ZM249.293 99.639H253.674V100.549H249.293V99.639ZM249.293 102.798H253.674V103.695H249.293V102.798ZM249.215 105.996H253.648V106.88H249.215V105.996ZM243.261 99.886H244.171V108.856H243.261V99.886ZM253.31 99.639H254.285V109.766C254.285 110.377 254.129 110.676 253.713 110.845C253.297 111.001 252.582 111.014 251.464 111.014C251.412 110.754 251.256 110.325 251.113 110.065C251.945 110.091 252.764 110.078 252.998 110.078C253.232 110.065 253.31 109.987 253.31 109.753V99.639ZM248.721 99.639H249.683V104.28C249.683 106.464 249.358 109.337 247.018 111.131C246.875 110.936 246.511 110.598 246.303 110.468C248.5 108.778 248.721 106.308 248.721 104.28V99.639ZM257.058 110.088C256.806 110.088 256.589 109.998 256.407 109.82C256.226 109.638 256.135 109.42 256.135 109.164C256.135 108.912 256.226 108.697 256.407 108.518C256.589 108.337 256.806 108.246 257.058 108.246C257.31 108.246 257.527 108.337 257.709 108.518C257.891 108.697 257.981 108.912 257.981 109.164C257.981 109.334 257.938 109.489 257.852 109.631C257.769 109.769 257.658 109.88 257.52 109.963C257.381 110.046 257.227 110.088 257.058 110.088ZM257.058 104.926C256.806 104.926 256.589 104.836 256.407 104.654C256.226 104.473 256.135 104.256 256.135 104.003C256.135 103.751 256.226 103.535 256.407 103.357C256.589 103.175 256.806 103.085 257.058 103.085C257.31 103.085 257.527 103.175 257.709 103.357C257.891 103.535 257.981 103.751 257.981 104.003C257.981 104.172 257.938 104.328 257.852 104.469C257.769 104.608 257.658 104.719 257.52 104.802C257.381 104.885 257.227 104.926 257.058 104.926ZM268.091 105.79V110H266.711V100.545H268.073V104.063H268.161C268.327 103.682 268.581 103.378 268.922 103.154C269.264 102.929 269.71 102.817 270.261 102.817C270.747 102.817 271.172 102.917 271.535 103.117C271.902 103.317 272.185 103.615 272.385 104.012C272.588 104.406 272.689 104.899 272.689 105.49V110H271.309V105.656C271.309 105.136 271.175 104.733 270.907 104.446C270.64 104.157 270.267 104.012 269.79 104.012C269.464 104.012 269.172 104.082 268.913 104.22C268.658 104.359 268.456 104.562 268.308 104.83C268.164 105.094 268.091 105.414 268.091 105.79ZM277.841 102.909V104.017H273.968V102.909H277.841ZM275.007 101.21H276.387V107.918C276.387 108.186 276.427 108.387 276.507 108.523C276.587 108.655 276.69 108.746 276.817 108.795C276.946 108.841 277.086 108.864 277.237 108.864C277.347 108.864 277.444 108.857 277.528 108.841C277.611 108.826 277.675 108.814 277.721 108.804L277.971 109.945C277.891 109.975 277.777 110.006 277.629 110.037C277.481 110.071 277.297 110.089 277.075 110.092C276.712 110.098 276.373 110.034 276.059 109.898C275.746 109.763 275.492 109.554 275.298 109.271C275.104 108.987 275.007 108.632 275.007 108.204V101.21ZM282.678 102.909V104.017H278.805V102.909H282.678ZM279.844 101.21H281.224V107.918C281.224 108.186 281.264 108.387 281.344 108.523C281.424 108.655 281.527 108.746 281.653 108.795C281.783 108.841 281.923 108.864 282.074 108.864C282.184 108.864 282.281 108.857 282.364 108.841C282.448 108.826 282.512 108.814 282.558 108.804L282.808 109.945C282.728 109.975 282.614 110.006 282.466 110.037C282.318 110.071 282.134 110.089 281.912 110.092C281.549 110.098 281.21 110.034 280.896 109.898C280.582 109.763 280.329 109.554 280.135 109.271C279.941 108.987 279.844 108.632 279.844 108.204V101.21ZM284.205 112.659V102.909H285.553V104.059H285.669C285.749 103.911 285.864 103.74 286.015 103.546C286.166 103.352 286.375 103.183 286.643 103.038C286.911 102.891 287.264 102.817 287.705 102.817C288.277 102.817 288.788 102.961 289.237 103.251C289.687 103.54 290.039 103.957 290.294 104.502C290.553 105.047 290.682 105.702 290.682 106.468C290.682 107.235 290.554 107.892 290.299 108.44C290.044 108.984 289.693 109.404 289.246 109.7C288.8 109.992 288.291 110.138 287.718 110.138C287.288 110.138 286.935 110.066 286.661 109.922C286.39 109.777 286.178 109.608 286.024 109.414C285.87 109.22 285.752 109.047 285.669 108.897H285.586V112.659H284.205ZM285.558 106.455C285.558 106.953 285.63 107.39 285.775 107.766C285.92 108.141 286.129 108.435 286.403 108.647C286.677 108.857 287.012 108.961 287.409 108.961C287.821 108.961 288.166 108.852 288.443 108.634C288.72 108.412 288.929 108.112 289.071 107.733C289.216 107.355 289.288 106.929 289.288 106.455C289.288 105.987 289.217 105.567 289.076 105.194C288.937 104.822 288.728 104.528 288.448 104.312C288.171 104.097 287.825 103.989 287.409 103.989C287.009 103.989 286.67 104.092 286.393 104.299C286.12 104.505 285.912 104.793 285.77 105.162C285.629 105.531 285.558 105.962 285.558 106.455ZM297.542 104.64L296.291 104.862C296.239 104.702 296.156 104.549 296.042 104.405C295.931 104.26 295.78 104.142 295.589 104.049C295.399 103.957 295.16 103.911 294.874 103.911C294.483 103.911 294.157 103.999 293.895 104.174C293.634 104.346 293.503 104.569 293.503 104.843C293.503 105.08 293.591 105.271 293.766 105.416C293.941 105.56 294.225 105.679 294.615 105.771L295.742 106.03C296.394 106.181 296.881 106.413 297.201 106.727C297.521 107.041 297.681 107.449 297.681 107.95C297.681 108.375 297.558 108.754 297.311 109.086C297.068 109.415 296.728 109.674 296.291 109.862C295.857 110.049 295.354 110.143 294.782 110.143C293.988 110.143 293.34 109.974 292.838 109.635C292.336 109.294 292.029 108.809 291.915 108.181L293.249 107.978C293.332 108.326 293.503 108.589 293.761 108.767C294.02 108.943 294.357 109.031 294.772 109.031C295.225 109.031 295.586 108.937 295.857 108.749C296.128 108.558 296.263 108.326 296.263 108.052C296.263 107.83 296.18 107.644 296.014 107.493C295.851 107.342 295.6 107.229 295.262 107.152L294.061 106.888C293.4 106.738 292.91 106.498 292.593 106.168C292.279 105.839 292.123 105.422 292.123 104.917C292.123 104.499 292.239 104.132 292.473 103.819C292.707 103.505 293.03 103.26 293.443 103.085C293.855 102.906 294.328 102.817 294.86 102.817C295.626 102.817 296.23 102.983 296.67 103.315C297.11 103.645 297.401 104.086 297.542 104.64ZM300.108 110.088C299.855 110.088 299.639 109.998 299.457 109.82C299.275 109.638 299.185 109.42 299.185 109.164C299.185 108.912 299.275 108.697 299.457 108.518C299.639 108.337 299.855 108.246 300.108 108.246C300.36 108.246 300.577 108.337 300.759 108.518C300.94 108.697 301.031 108.912 301.031 109.164C301.031 109.334 300.988 109.489 300.902 109.631C300.819 109.769 300.708 109.88 300.57 109.963C300.431 110.046 300.277 110.088 300.108 110.088ZM300.108 104.926C299.855 104.926 299.639 104.836 299.457 104.654C299.275 104.473 299.185 104.256 299.185 104.003C299.185 103.751 299.275 103.535 299.457 103.357C299.639 103.175 299.855 103.085 300.108 103.085C300.36 103.085 300.577 103.175 300.759 103.357C300.94 103.535 301.031 103.751 301.031 104.003C301.031 104.172 300.988 104.328 300.902 104.469C300.819 104.608 300.708 104.719 300.57 104.802C300.431 104.885 300.277 104.926 300.108 104.926ZM306.481 100.102L303.434 111.422H302.201L305.248 100.102H306.481ZM311.254 100.102L308.207 111.422H306.975L310.022 100.102H311.254ZM315.737 102.909V104.017H311.864V102.909H315.737ZM312.902 101.21H314.283V107.918C314.283 108.186 314.323 108.387 314.403 108.523C314.483 108.655 314.586 108.746 314.712 108.795C314.841 108.841 314.981 108.864 315.132 108.864C315.243 108.864 315.34 108.857 315.423 108.841C315.506 108.826 315.571 108.814 315.617 108.804L315.866 109.945C315.786 109.975 315.672 110.006 315.525 110.037C315.377 110.071 315.192 110.089 314.971 110.092C314.607 110.098 314.269 110.034 313.955 109.898C313.641 109.763 313.387 109.554 313.193 109.271C312.999 108.987 312.902 108.632 312.902 108.204V101.21ZM320.244 110.143C319.545 110.143 318.943 109.994 318.439 109.695C317.937 109.394 317.549 108.971 317.275 108.426C317.005 107.878 316.869 107.236 316.869 106.501C316.869 105.774 317.005 105.134 317.275 104.58C317.549 104.026 317.931 103.594 318.42 103.283C318.913 102.972 319.488 102.817 320.147 102.817C320.547 102.817 320.935 102.883 321.31 103.015C321.686 103.148 322.023 103.355 322.321 103.638C322.62 103.922 322.855 104.289 323.028 104.742C323.2 105.191 323.286 105.737 323.286 106.381V106.87H317.649V105.836H321.933C321.933 105.473 321.86 105.151 321.712 104.871C321.564 104.588 321.356 104.365 321.089 104.202C320.824 104.039 320.513 103.957 320.156 103.957C319.768 103.957 319.43 104.052 319.14 104.243C318.854 104.431 318.633 104.677 318.476 104.982C318.322 105.283 318.245 105.611 318.245 105.965V106.773C318.245 107.247 318.328 107.65 318.494 107.983C318.663 108.315 318.899 108.569 319.2 108.744C319.502 108.917 319.854 109.003 320.258 109.003C320.519 109.003 320.758 108.966 320.973 108.892C321.189 108.815 321.375 108.701 321.532 108.55C321.689 108.4 321.809 108.213 321.892 107.992L323.198 108.227C323.094 108.612 322.906 108.949 322.635 109.238C322.367 109.525 322.03 109.748 321.624 109.908C321.221 110.065 320.761 110.143 320.244 110.143ZM326.198 100.545V110H324.818V100.545H326.198ZM331.111 110.143C330.412 110.143 329.811 109.994 329.306 109.695C328.804 109.394 328.416 108.971 328.143 108.426C327.872 107.878 327.736 107.236 327.736 106.501C327.736 105.774 327.872 105.134 328.143 104.58C328.416 104.026 328.798 103.594 329.287 103.283C329.78 102.972 330.355 102.817 331.014 102.817C331.414 102.817 331.802 102.883 332.177 103.015C332.553 103.148 332.89 103.355 333.188 103.638C333.487 103.922 333.722 104.289 333.895 104.742C334.067 105.191 334.153 105.737 334.153 106.381V106.87H328.517V105.836H332.801C332.801 105.473 332.727 105.151 332.579 104.871C332.431 104.588 332.224 104.365 331.956 104.202C331.691 104.039 331.38 103.957 331.023 103.957C330.635 103.957 330.297 104.052 330.008 104.243C329.721 104.431 329.5 104.677 329.343 104.982C329.189 105.283 329.112 105.611 329.112 105.965V106.773C329.112 107.247 329.195 107.65 329.361 107.983C329.531 108.315 329.766 108.569 330.068 108.744C330.369 108.917 330.722 109.003 331.125 109.003C331.386 109.003 331.625 108.966 331.84 108.892C332.056 108.815 332.242 108.701 332.399 108.55C332.556 108.4 332.676 108.213 332.759 107.992L334.066 108.227C333.961 108.612 333.773 108.949 333.502 109.238C333.235 109.525 332.898 109.748 332.491 109.908C332.088 110.065 331.628 110.143 331.111 110.143ZM338.995 102.909V104.017H335.122V102.909H338.995ZM336.16 101.21H337.541V107.918C337.541 108.186 337.581 108.387 337.661 108.523C337.741 108.655 337.844 108.746 337.97 108.795C338.099 108.841 338.239 108.864 338.39 108.864C338.501 108.864 338.598 108.857 338.681 108.841C338.764 108.826 338.829 108.814 338.875 108.804L339.124 109.945C339.044 109.975 338.93 110.006 338.782 110.037C338.635 110.071 338.45 110.089 338.228 110.092C337.865 110.098 337.527 110.034 337.213 109.898C336.899 109.763 336.645 109.554 336.451 109.271C336.257 108.987 336.16 108.632 336.16 108.204V101.21ZM341.394 112.659C341.188 112.659 341 112.642 340.831 112.608C340.662 112.578 340.536 112.544 340.452 112.507L340.785 111.376C341.037 111.443 341.262 111.473 341.459 111.463C341.656 111.454 341.83 111.38 341.98 111.242C342.134 111.103 342.27 110.877 342.387 110.563L342.558 110.092L339.963 102.909H341.44L343.236 108.412H343.31L345.106 102.909H346.588L343.665 110.946C343.53 111.316 343.358 111.628 343.148 111.884C342.939 112.142 342.69 112.336 342.401 112.465C342.111 112.594 341.776 112.659 341.394 112.659ZM347.885 112.659V102.909H349.233V104.059H349.348C349.428 103.911 349.544 103.74 349.695 103.546C349.845 103.352 350.055 103.183 350.322 103.038C350.59 102.891 350.944 102.817 351.384 102.817C351.957 102.817 352.468 102.961 352.917 103.251C353.366 103.54 353.719 103.957 353.974 104.502C354.233 105.047 354.362 105.702 354.362 106.468C354.362 107.235 354.234 107.892 353.979 108.44C353.723 108.984 353.372 109.404 352.926 109.7C352.48 109.992 351.971 110.138 351.398 110.138C350.967 110.138 350.615 110.066 350.341 109.922C350.07 109.777 349.858 109.608 349.704 109.414C349.55 109.22 349.431 109.047 349.348 108.897H349.265V112.659H347.885ZM349.238 106.455C349.238 106.953 349.31 107.39 349.455 107.766C349.599 108.141 349.808 108.435 350.082 108.647C350.356 108.857 350.692 108.961 351.089 108.961C351.501 108.961 351.846 108.852 352.123 108.634C352.4 108.412 352.609 108.112 352.751 107.733C352.895 107.355 352.968 106.929 352.968 106.455C352.968 105.987 352.897 105.567 352.755 105.194C352.617 104.822 352.408 104.528 352.127 104.312C351.85 104.097 351.504 103.989 351.089 103.989C350.689 103.989 350.35 104.092 350.073 104.299C349.799 104.505 349.592 104.793 349.45 105.162C349.308 105.531 349.238 105.962 349.238 106.455ZM358.964 110.143C358.266 110.143 357.664 109.994 357.159 109.695C356.658 109.394 356.27 108.971 355.996 108.426C355.725 107.878 355.59 107.236 355.59 106.501C355.59 105.774 355.725 105.134 355.996 104.58C356.27 104.026 356.652 103.594 357.141 103.283C357.633 102.972 358.209 102.817 358.868 102.817C359.268 102.817 359.655 102.883 360.031 103.015C360.406 103.148 360.743 103.355 361.042 103.638C361.34 103.922 361.576 104.289 361.748 104.742C361.921 105.191 362.007 105.737 362.007 106.381V106.87H356.37V105.836H360.654C360.654 105.473 360.58 105.151 360.433 104.871C360.285 104.588 360.077 104.365 359.809 104.202C359.545 104.039 359.234 103.957 358.877 103.957C358.489 103.957 358.15 104.052 357.861 104.243C357.575 104.431 357.353 104.677 357.196 104.982C357.042 105.283 356.966 105.611 356.966 105.965V106.773C356.966 107.247 357.049 107.65 357.215 107.983C357.384 108.315 357.62 108.569 357.921 108.744C358.223 108.917 358.575 109.003 358.978 109.003C359.24 109.003 359.478 108.966 359.694 108.892C359.909 108.815 360.096 108.701 360.252 108.55C360.409 108.4 360.529 108.213 360.613 107.992L361.919 108.227C361.814 108.612 361.627 108.949 361.356 109.238C361.088 109.525 360.751 109.748 360.345 109.908C359.942 110.065 359.482 110.143 358.964 110.143ZM364.448 110.088C364.195 110.088 363.978 109.998 363.797 109.82C363.615 109.638 363.524 109.42 363.524 109.164C363.524 108.912 363.615 108.697 363.797 108.518C363.978 108.337 364.195 108.246 364.448 108.246C364.7 108.246 364.917 108.337 365.099 108.518C365.28 108.697 365.371 108.912 365.371 109.164C365.371 109.334 365.328 109.489 365.242 109.631C365.159 109.769 365.048 109.88 364.909 109.963C364.771 110.046 364.617 110.088 364.448 110.088ZM367.22 110V102.909H368.6V110H367.22ZM367.917 101.815C367.677 101.815 367.471 101.735 367.298 101.575C367.129 101.412 367.044 101.218 367.044 100.993C367.044 100.766 367.129 100.572 367.298 100.412C367.471 100.248 367.677 100.167 367.917 100.167C368.157 100.167 368.362 100.248 368.531 100.412C368.703 100.572 368.79 100.766 368.79 100.993C368.79 101.218 368.703 101.412 368.531 101.575C368.362 101.735 368.157 101.815 367.917 101.815ZM371.838 105.79V110H370.457V102.909H371.782V104.063H371.87C372.033 103.688 372.288 103.386 372.636 103.158C372.987 102.931 373.429 102.817 373.961 102.817C374.444 102.817 374.867 102.918 375.231 103.121C375.594 103.321 375.875 103.62 376.075 104.017C376.276 104.414 376.376 104.905 376.376 105.49V110H374.995V105.656C374.995 105.142 374.861 104.74 374.594 104.451C374.326 104.159 373.958 104.012 373.49 104.012C373.17 104.012 372.885 104.082 372.636 104.22C372.39 104.359 372.195 104.562 372.05 104.83C371.908 105.094 371.838 105.414 371.838 105.79ZM381.828 100.102L378.781 111.422H377.548L380.595 100.102H381.828ZM388.692 112.571C387.738 112.571 386.892 112.441 386.153 112.179C385.418 111.92 384.798 111.539 384.293 111.034C383.788 110.532 383.405 109.917 383.143 109.188C382.882 108.458 382.751 107.626 382.751 106.69C382.751 105.779 382.883 104.96 383.148 104.234C383.413 103.508 383.797 102.889 384.302 102.378C384.81 101.864 385.427 101.472 386.153 101.201C386.88 100.93 387.704 100.795 388.628 100.795C389.511 100.795 390.29 100.933 390.964 101.21C391.638 101.487 392.204 101.867 392.662 102.35C393.124 102.834 393.472 103.388 393.706 104.012C393.94 104.637 394.057 105.297 394.057 105.993C394.057 106.479 394.026 106.955 393.964 107.419C393.903 107.881 393.789 108.3 393.623 108.675C393.46 109.047 393.223 109.346 392.912 109.571C392.604 109.792 392.204 109.908 391.711 109.917C391.45 109.926 391.196 109.895 390.95 109.825C390.704 109.754 390.494 109.64 390.322 109.483C390.15 109.323 390.045 109.12 390.008 108.874H389.953C389.879 109.055 389.756 109.224 389.583 109.381C389.411 109.535 389.191 109.658 388.923 109.751C388.658 109.84 388.351 109.877 388 109.862C387.612 109.846 387.263 109.758 386.952 109.598C386.641 109.438 386.375 109.217 386.153 108.934C385.935 108.65 385.767 108.315 385.65 107.927C385.533 107.539 385.475 107.109 385.475 106.635C385.475 106.179 385.541 105.771 385.673 105.411C385.805 105.048 385.985 104.736 386.213 104.474C386.444 104.209 386.709 104 387.007 103.846C387.306 103.692 387.621 103.595 387.954 103.555C388.277 103.518 388.574 103.528 388.845 103.583C389.115 103.638 389.34 103.723 389.519 103.837C389.7 103.951 389.814 104.076 389.86 104.211H389.92V103.694H391.056V107.978C391.056 108.221 391.119 108.427 391.245 108.597C391.374 108.766 391.558 108.85 391.795 108.85C392.075 108.85 392.293 108.747 392.45 108.541C392.61 108.335 392.722 108.018 392.787 107.59C392.855 107.162 392.889 106.615 392.889 105.947C392.889 105.479 392.826 105.039 392.699 104.626C392.576 104.211 392.393 103.835 392.15 103.5C391.91 103.161 391.615 102.871 391.264 102.627C390.913 102.384 390.513 102.197 390.063 102.064C389.617 101.932 389.123 101.866 388.581 101.866C387.846 101.866 387.192 101.98 386.619 102.207C386.047 102.432 385.564 102.757 385.17 103.181C384.779 103.606 384.482 104.116 384.279 104.71C384.079 105.3 383.979 105.964 383.979 106.699C383.979 107.466 384.082 108.146 384.288 108.74C384.494 109.331 384.799 109.829 385.202 110.235C385.605 110.642 386.104 110.949 386.698 111.159C387.292 111.371 387.977 111.477 388.752 111.477C389.097 111.477 389.436 111.446 389.768 111.385C390.1 111.326 390.396 111.259 390.654 111.182C390.916 111.108 391.111 111.048 391.241 111.002L391.564 112.013C391.373 112.102 391.119 112.19 390.802 112.276C390.488 112.362 390.146 112.433 389.777 112.488C389.411 112.544 389.049 112.571 388.692 112.571ZM388.268 108.73C388.668 108.73 388.989 108.65 389.232 108.49C389.479 108.33 389.656 108.092 389.763 107.775C389.874 107.455 389.93 107.055 389.93 106.575C389.926 106.107 389.866 105.734 389.749 105.457C389.636 105.177 389.457 104.977 389.214 104.857C388.974 104.734 388.665 104.673 388.286 104.673C387.938 104.673 387.641 104.757 387.395 104.926C387.152 105.096 386.966 105.325 386.836 105.614C386.71 105.904 386.646 106.225 386.643 106.579C386.646 106.952 386.698 107.302 386.8 107.632C386.904 107.958 387.073 108.223 387.307 108.426C387.544 108.629 387.864 108.73 388.268 108.73ZM400.073 107.059V102.909H401.458V110H400.101V108.772H400.027C399.864 109.151 399.602 109.466 399.242 109.718C398.885 109.968 398.44 110.092 397.908 110.092C397.452 110.092 397.049 109.992 396.698 109.792C396.351 109.589 396.077 109.289 395.877 108.892C395.68 108.495 395.581 108.004 395.581 107.419V102.909H396.962V107.253C396.962 107.736 397.095 108.121 397.363 108.407C397.631 108.694 397.979 108.837 398.407 108.837C398.665 108.837 398.922 108.772 399.177 108.643C399.436 108.513 399.65 108.318 399.819 108.056C399.992 107.795 400.076 107.462 400.073 107.059ZM403.313 110V102.909H404.647V104.036H404.721C404.85 103.654 405.078 103.354 405.404 103.135C405.733 102.914 406.106 102.803 406.521 102.803C406.607 102.803 406.709 102.806 406.826 102.812C406.946 102.818 407.04 102.826 407.107 102.835V104.156C407.052 104.14 406.954 104.123 406.812 104.105C406.67 104.083 406.529 104.072 406.387 104.072C406.061 104.072 405.77 104.142 405.515 104.28C405.262 104.416 405.062 104.605 404.915 104.848C404.767 105.088 404.693 105.362 404.693 105.67V110H403.313ZM412.096 102.909V104.017H408.088V102.909H412.096ZM409.187 110V102.087C409.187 101.644 409.284 101.276 409.478 100.984C409.672 100.689 409.929 100.469 410.249 100.324C410.569 100.176 410.917 100.102 411.292 100.102C411.569 100.102 411.806 100.125 412.003 100.172C412.2 100.215 412.346 100.255 412.442 100.292L412.119 101.409C412.054 101.39 411.971 101.369 411.869 101.344C411.768 101.316 411.645 101.303 411.5 101.303C411.165 101.303 410.924 101.386 410.78 101.552C410.638 101.718 410.567 101.958 410.567 102.272V110H409.187ZM418.012 107.059V102.909H419.396V110H418.039V108.772H417.965C417.802 109.151 417.541 109.466 417.181 109.718C416.824 109.968 416.379 110.092 415.846 110.092C415.391 110.092 414.988 109.992 414.637 109.792C414.289 109.589 414.015 109.289 413.815 108.892C413.618 108.495 413.52 108.004 413.52 107.419V102.909H414.9V107.253C414.9 107.736 415.034 108.121 415.302 108.407C415.569 108.694 415.917 108.837 416.345 108.837C416.604 108.837 416.86 108.772 417.116 108.643C417.374 108.513 417.588 108.318 417.758 108.056C417.93 107.795 418.015 107.462 418.012 107.059ZM426.315 110V111.173H420.309V110H426.315ZM430.218 110.143C429.553 110.143 428.973 109.991 428.477 109.686C427.982 109.381 427.597 108.955 427.323 108.407C427.049 107.859 426.912 107.219 426.912 106.487C426.912 105.751 427.049 105.108 427.323 104.557C427.597 104.006 427.982 103.578 428.477 103.274C428.973 102.969 429.553 102.817 430.218 102.817C430.882 102.817 431.462 102.969 431.958 103.274C432.453 103.578 432.838 104.006 433.112 104.557C433.386 105.108 433.523 105.751 433.523 106.487C433.523 107.219 433.386 107.859 433.112 108.407C432.838 108.955 432.453 109.381 431.958 109.686C431.462 109.991 430.882 110.143 430.218 110.143ZM430.222 108.984C430.653 108.984 431.01 108.871 431.293 108.643C431.576 108.415 431.786 108.112 431.921 107.733C432.059 107.355 432.129 106.938 432.129 106.482C432.129 106.03 432.059 105.614 431.921 105.236C431.786 104.854 431.576 104.548 431.293 104.317C431.01 104.086 430.653 103.971 430.222 103.971C429.788 103.971 429.428 104.086 429.142 104.317C428.859 104.548 428.648 104.854 428.509 105.236C428.374 105.614 428.306 106.03 428.306 106.482C428.306 106.938 428.374 107.355 428.509 107.733C428.648 108.112 428.859 108.415 429.142 108.643C429.428 108.871 429.788 108.984 430.222 108.984ZM436.444 105.79V110H435.064V102.909H436.389V104.063H436.476C436.639 103.688 436.895 103.386 437.243 103.158C437.593 102.931 438.035 102.817 438.568 102.817C439.051 102.817 439.474 102.918 439.837 103.121C440.2 103.321 440.482 103.62 440.682 104.017C440.882 104.414 440.982 104.905 440.982 105.49V110H439.602V105.656C439.602 105.142 439.468 104.74 439.2 104.451C438.932 104.159 438.564 104.012 438.097 104.012C437.777 104.012 437.492 104.082 437.243 104.22C436.996 104.359 436.801 104.562 436.656 104.83C436.515 105.094 436.444 105.414 436.444 105.79ZM444.214 100.545V110H442.833V100.545H444.214ZM446.07 110V102.909H447.451V110H446.07ZM446.768 101.815C446.528 101.815 446.321 101.735 446.149 101.575C445.98 101.412 445.895 101.218 445.895 100.993C445.895 100.766 445.98 100.572 446.149 100.412C446.321 100.248 446.528 100.167 446.768 100.167C447.008 100.167 447.212 100.248 447.382 100.412C447.554 100.572 447.64 100.766 447.64 100.993C447.64 101.218 447.554 101.412 447.382 101.575C447.212 101.735 447.008 101.815 446.768 101.815ZM450.688 105.79V110H449.308V102.909H450.633V104.063H450.72C450.884 103.688 451.139 103.386 451.487 103.158C451.838 102.931 452.279 102.817 452.812 102.817C453.295 102.817 453.718 102.918 454.081 103.121C454.444 103.321 454.726 103.62 454.926 104.017C455.126 104.414 455.226 104.905 455.226 105.49V110H453.846V105.656C453.846 105.142 453.712 104.74 453.444 104.451C453.176 104.159 452.809 104.012 452.341 104.012C452.021 104.012 451.736 104.082 451.487 104.22C451.241 104.359 451.045 104.562 450.9 104.83C450.759 105.094 450.688 105.414 450.688 105.79ZM460.133 110.143C459.435 110.143 458.833 109.994 458.328 109.695C457.827 109.394 457.439 108.971 457.165 108.426C456.894 107.878 456.759 107.236 456.759 106.501C456.759 105.774 456.894 105.134 457.165 104.58C457.439 104.026 457.821 103.594 458.31 103.283C458.802 102.972 459.378 102.817 460.036 102.817C460.437 102.817 460.824 102.883 461.2 103.015C461.575 103.148 461.912 103.355 462.211 103.638C462.509 103.922 462.745 104.289 462.917 104.742C463.09 105.191 463.176 105.737 463.176 106.381V106.87H457.539V105.836H461.823C461.823 105.473 461.749 105.151 461.601 104.871C461.454 104.588 461.246 104.365 460.978 104.202C460.714 104.039 460.403 103.957 460.046 103.957C459.658 103.957 459.319 104.052 459.03 104.243C458.744 104.431 458.522 104.677 458.365 104.982C458.211 105.283 458.134 105.611 458.134 105.965V106.773C458.134 107.247 458.218 107.65 458.384 107.983C458.553 108.315 458.789 108.569 459.09 108.744C459.392 108.917 459.744 109.003 460.147 109.003C460.409 109.003 460.647 108.966 460.863 108.892C461.078 108.815 461.264 108.701 461.421 108.55C461.578 108.4 461.698 108.213 461.782 107.992L463.088 108.227C462.983 108.612 462.796 108.949 462.525 109.238C462.257 109.525 461.92 109.748 461.514 109.908C461.111 110.065 460.65 110.143 460.133 110.143ZM468.308 100.102L465.261 111.422H464.029L467.075 100.102H468.308ZM472.468 110.143C471.781 110.143 471.19 109.988 470.695 109.677C470.202 109.363 469.824 108.931 469.559 108.38C469.294 107.829 469.162 107.198 469.162 106.487C469.162 105.767 469.298 105.131 469.568 104.58C469.839 104.026 470.221 103.594 470.713 103.283C471.206 102.972 471.786 102.817 472.454 102.817C472.992 102.817 473.472 102.917 473.894 103.117C474.316 103.314 474.656 103.591 474.914 103.948C475.176 104.305 475.331 104.722 475.381 105.199H474.037C473.963 104.866 473.794 104.58 473.529 104.34C473.268 104.1 472.917 103.98 472.477 103.98C472.092 103.98 471.755 104.082 471.466 104.285C471.18 104.485 470.956 104.771 470.796 105.143C470.636 105.513 470.556 105.95 470.556 106.455C470.556 106.972 470.635 107.418 470.792 107.793C470.949 108.169 471.17 108.46 471.456 108.666C471.746 108.872 472.086 108.975 472.477 108.975C472.738 108.975 472.975 108.927 473.188 108.832C473.403 108.734 473.583 108.594 473.728 108.412C473.876 108.23 473.979 108.012 474.037 107.756H475.381C475.331 108.215 475.182 108.624 474.933 108.984C474.683 109.344 474.349 109.628 473.931 109.834C473.515 110.04 473.028 110.143 472.468 110.143ZM480.13 110.129C479.496 110.129 478.929 110.02 478.431 109.801C477.935 109.583 477.543 109.28 477.254 108.892C476.967 108.501 476.814 108.049 476.792 107.535H478.242C478.26 107.815 478.354 108.058 478.523 108.264C478.696 108.467 478.92 108.624 479.197 108.735C479.474 108.846 479.782 108.901 480.12 108.901C480.493 108.901 480.822 108.837 481.108 108.707C481.398 108.578 481.624 108.398 481.787 108.167C481.95 107.933 482.032 107.664 482.032 107.359C482.032 107.042 481.95 106.764 481.787 106.524C481.627 106.281 481.392 106.09 481.081 105.951C480.773 105.813 480.401 105.744 479.964 105.744H479.165V104.58H479.964C480.314 104.58 480.622 104.517 480.887 104.391C481.155 104.265 481.364 104.089 481.515 103.865C481.665 103.637 481.741 103.371 481.741 103.066C481.741 102.774 481.675 102.52 481.542 102.304C481.413 102.086 481.228 101.915 480.988 101.792C480.751 101.669 480.471 101.607 480.148 101.607C479.84 101.607 479.553 101.664 479.285 101.778C479.02 101.889 478.805 102.049 478.639 102.258C478.472 102.464 478.383 102.712 478.371 103.001H476.991C477.006 102.491 477.157 102.041 477.443 101.653C477.732 101.266 478.114 100.962 478.588 100.744C479.062 100.525 479.588 100.416 480.167 100.416C480.773 100.416 481.296 100.535 481.736 100.772C482.179 101.006 482.521 101.318 482.761 101.709C483.004 102.1 483.124 102.527 483.121 102.992C483.124 103.522 482.977 103.971 482.678 104.34C482.383 104.71 481.989 104.957 481.496 105.083V105.157C482.124 105.253 482.61 105.502 482.955 105.905C483.303 106.308 483.475 106.808 483.472 107.406C483.475 107.926 483.33 108.392 483.038 108.804C482.749 109.217 482.353 109.541 481.852 109.778C481.35 110.012 480.776 110.129 480.13 110.129ZM488.546 102.909V104.017H484.672V102.909H488.546ZM485.711 101.21H487.091V107.918C487.091 108.186 487.131 108.387 487.211 108.523C487.291 108.655 487.395 108.746 487.521 108.795C487.65 108.841 487.79 108.864 487.941 108.864C488.052 108.864 488.149 108.857 488.232 108.841C488.315 108.826 488.379 108.814 488.426 108.804L488.675 109.945C488.595 109.975 488.481 110.006 488.333 110.037C488.185 110.071 488.001 110.089 487.779 110.092C487.416 110.098 487.078 110.034 486.764 109.898C486.45 109.763 486.196 109.554 486.002 109.271C485.808 108.987 485.711 108.632 485.711 108.204V101.21ZM493.659 106.935H495.063L496.051 108.223L496.517 108.795L498.091 110.849H496.632L495.58 109.478L495.22 108.98L493.659 106.935ZM498.396 105.273C498.396 106.282 498.211 107.15 497.842 107.876C497.473 108.6 496.966 109.157 496.323 109.548C495.683 109.935 494.955 110.129 494.14 110.129C493.321 110.129 492.59 109.935 491.947 109.548C491.307 109.157 490.802 108.598 490.433 107.872C490.063 107.145 489.879 106.279 489.879 105.273C489.879 104.263 490.063 103.397 490.433 102.674C490.802 101.947 491.307 101.39 491.947 101.002C492.59 100.612 493.321 100.416 494.14 100.416C494.955 100.416 495.683 100.612 496.323 101.002C496.966 101.39 497.473 101.947 497.842 102.674C498.211 103.397 498.396 104.263 498.396 105.273ZM496.983 105.273C496.983 104.503 496.859 103.855 496.609 103.329C496.363 102.8 496.025 102.4 495.594 102.129C495.166 101.855 494.681 101.718 494.14 101.718C493.595 101.718 493.109 101.855 492.681 102.129C492.253 102.4 491.914 102.8 491.665 103.329C491.419 103.855 491.296 104.503 491.296 105.273C491.296 106.042 491.419 106.692 491.665 107.221C491.914 107.747 492.253 108.147 492.681 108.421C493.109 108.692 493.595 108.827 494.14 108.827C494.681 108.827 495.166 108.692 495.594 108.421C496.025 108.147 496.363 107.747 496.609 107.221C496.859 106.692 496.983 106.042 496.983 105.273ZM503.651 106.935H505.054L506.042 108.223L506.508 108.795L508.082 110.849H506.624L505.571 109.478L505.211 108.98L503.651 106.935ZM508.387 105.273C508.387 106.282 508.203 107.15 507.833 107.876C507.464 108.6 506.958 109.157 506.314 109.548C505.674 109.935 504.946 110.129 504.131 110.129C503.312 110.129 502.581 109.935 501.938 109.548C501.298 109.157 500.793 108.598 500.424 107.872C500.054 107.145 499.87 106.279 499.87 105.273C499.87 104.263 500.054 103.397 500.424 102.674C500.793 101.947 501.298 101.39 501.938 101.002C502.581 100.612 503.312 100.416 504.131 100.416C504.946 100.416 505.674 100.612 506.314 101.002C506.958 101.39 507.464 101.947 507.833 102.674C508.203 103.397 508.387 104.263 508.387 105.273ZM506.975 105.273C506.975 104.503 506.85 103.855 506.601 103.329C506.354 102.8 506.016 102.4 505.585 102.129C505.157 101.855 504.672 101.718 504.131 101.718C503.586 101.718 503.1 101.855 502.672 102.129C502.244 102.4 501.906 102.8 501.656 103.329C501.41 103.855 501.287 104.503 501.287 105.273C501.287 106.042 501.41 106.692 501.656 107.221C501.906 107.747 502.244 108.147 502.672 108.421C503.1 108.692 503.586 108.827 504.131 108.827C504.672 108.827 505.157 108.692 505.585 108.421C506.016 108.147 506.354 107.747 506.601 107.221C506.85 106.692 506.975 106.042 506.975 105.273ZM516.564 103.532C516.475 103.252 516.355 103.001 516.204 102.78C516.056 102.555 515.879 102.364 515.673 102.207C515.467 102.047 515.231 101.926 514.967 101.843C514.705 101.76 514.417 101.718 514.104 101.718C513.571 101.718 513.091 101.855 512.663 102.129C512.235 102.403 511.897 102.804 511.648 103.334C511.401 103.86 511.278 104.505 511.278 105.268C511.278 106.034 511.403 106.682 511.652 107.212C511.901 107.741 512.243 108.143 512.677 108.417C513.111 108.69 513.605 108.827 514.159 108.827C514.673 108.827 515.121 108.723 515.502 108.513C515.887 108.304 516.184 108.009 516.393 107.627C516.606 107.242 516.712 106.79 516.712 106.27L517.081 106.339H514.376V105.162H518.092V106.238C518.092 107.032 517.923 107.721 517.584 108.306C517.249 108.887 516.784 109.337 516.19 109.654C515.599 109.971 514.922 110.129 514.159 110.129C513.303 110.129 512.552 109.932 511.906 109.538C511.263 109.144 510.761 108.586 510.401 107.863C510.041 107.136 509.861 106.275 509.861 105.277C509.861 104.523 509.966 103.846 510.175 103.246C510.384 102.646 510.678 102.137 511.057 101.718C511.438 101.296 511.886 100.975 512.4 100.753C512.917 100.529 513.482 100.416 514.094 100.416C514.605 100.416 515.081 100.492 515.521 100.642C515.964 100.793 516.358 101.007 516.703 101.284C517.05 101.561 517.338 101.89 517.566 102.272C517.794 102.651 517.948 103.071 518.028 103.532H516.564ZM522.779 110.143C522.114 110.143 521.534 109.991 521.039 109.686C520.543 109.381 520.158 108.955 519.884 108.407C519.611 107.859 519.474 107.219 519.474 106.487C519.474 105.751 519.611 105.108 519.884 104.557C520.158 104.006 520.543 103.578 521.039 103.274C521.534 102.969 522.114 102.817 522.779 102.817C523.444 102.817 524.024 102.969 524.519 103.274C525.015 103.578 525.4 104.006 525.674 104.557C525.947 105.108 526.084 105.751 526.084 106.487C526.084 107.219 525.947 107.859 525.674 108.407C525.4 108.955 525.015 109.381 524.519 109.686C524.024 109.991 523.444 110.143 522.779 110.143ZM522.784 108.984C523.215 108.984 523.572 108.871 523.855 108.643C524.138 108.415 524.347 108.112 524.483 107.733C524.621 107.355 524.69 106.938 524.69 106.482C524.69 106.03 524.621 105.614 524.483 105.236C524.347 104.854 524.138 104.548 523.855 104.317C523.572 104.086 523.215 103.971 522.784 103.971C522.35 103.971 521.99 104.086 521.703 104.317C521.42 104.548 521.209 104.854 521.071 105.236C520.936 105.614 520.868 106.03 520.868 106.482C520.868 106.938 520.936 107.355 521.071 107.733C521.209 108.112 521.42 108.415 521.703 108.643C521.99 108.871 522.35 108.984 522.784 108.984ZM530.681 110.143C529.983 110.143 529.381 109.994 528.876 109.695C528.375 109.394 527.987 108.971 527.713 108.426C527.442 107.878 527.307 107.236 527.307 106.501C527.307 105.774 527.442 105.134 527.713 104.58C527.987 104.026 528.368 103.594 528.858 103.283C529.35 102.972 529.926 102.817 530.584 102.817C530.984 102.817 531.372 102.883 531.748 103.015C532.123 103.148 532.46 103.355 532.759 103.638C533.057 103.922 533.293 104.289 533.465 104.742C533.637 105.191 533.724 105.737 533.724 106.381V106.87H528.087V105.836H532.371C532.371 105.473 532.297 105.151 532.149 104.871C532.002 104.588 531.794 104.365 531.526 104.202C531.261 104.039 530.951 103.957 530.594 103.957C530.206 103.957 529.867 104.052 529.578 104.243C529.292 104.431 529.07 104.677 528.913 104.982C528.759 105.283 528.682 105.611 528.682 105.965V106.773C528.682 107.247 528.765 107.65 528.932 107.983C529.101 108.315 529.336 108.569 529.638 108.744C529.94 108.917 530.292 109.003 530.695 109.003C530.957 109.003 531.195 108.966 531.411 108.892C531.626 108.815 531.812 108.701 531.969 108.55C532.126 108.4 532.246 108.213 532.329 107.992L533.636 108.227C533.531 108.612 533.343 108.949 533.073 109.238C532.805 109.525 532.468 109.748 532.062 109.908C531.658 110.065 531.198 110.143 530.681 110.143ZM538.242 110.143C537.577 110.143 536.997 109.991 536.502 109.686C536.006 109.381 535.621 108.955 535.347 108.407C535.073 107.859 534.937 107.219 534.937 106.487C534.937 105.751 535.073 105.108 535.347 104.557C535.621 104.006 536.006 103.578 536.502 103.274C536.997 102.969 537.577 102.817 538.242 102.817C538.907 102.817 539.487 102.969 539.982 103.274C540.478 103.578 540.863 104.006 541.136 104.557C541.41 105.108 541.547 105.751 541.547 106.487C541.547 107.219 541.41 107.859 541.136 108.407C540.863 108.955 540.478 109.381 539.982 109.686C539.487 109.991 538.907 110.143 538.242 110.143ZM538.247 108.984C538.677 108.984 539.034 108.871 539.318 108.643C539.601 108.415 539.81 108.112 539.945 107.733C540.084 107.355 540.153 106.938 540.153 106.482C540.153 106.03 540.084 105.614 539.945 105.236C539.81 104.854 539.601 104.548 539.318 104.317C539.034 104.086 538.677 103.971 538.247 103.971C537.813 103.971 537.453 104.086 537.166 104.317C536.883 104.548 536.672 104.854 536.534 105.236C536.398 105.614 536.331 106.03 536.331 106.482C536.331 106.938 536.398 107.355 536.534 107.733C536.672 108.112 536.883 108.415 537.166 108.643C537.453 108.871 537.813 108.984 538.247 108.984ZM544.468 100.545V110H543.088V100.545H544.468ZM549.497 110H546.436V100.545H549.594C550.52 100.545 551.316 100.735 551.981 101.113C552.645 101.489 553.155 102.029 553.509 102.734C553.866 103.435 554.044 104.277 554.044 105.259C554.044 106.244 553.864 107.09 553.504 107.798C553.147 108.506 552.63 109.051 551.953 109.432C551.276 109.811 550.457 110 549.497 110ZM547.863 108.754H549.418C550.139 108.754 550.737 108.618 551.214 108.347C551.691 108.073 552.048 107.678 552.285 107.161C552.522 106.641 552.641 106.007 552.641 105.259C552.641 104.517 552.522 103.888 552.285 103.371C552.051 102.854 551.702 102.461 551.237 102.194C550.773 101.926 550.196 101.792 549.506 101.792H547.863V108.754Z" fill="#5955B3"/>
<path opacity="0.2" fill-rule="evenodd" clip-rule="evenodd" d="M754.692 389.08C754.65 400.044 745.785 408.928 734.827 409H438C450.567 373.992 503.062 303.975 612.504 303.975C721.946 303.975 752.897 249.517 754.692 222.288V389.08Z" fill="#79A4E2"/>
<path opacity="0.2" fill-rule="evenodd" clip-rule="evenodd" d="M213.324 0C210.649 18.1119 194.257 69.0439 126.729 92.1467C61.2117 114.562 18.0506 106.853 2.00053 99.6083L2.00052 20C2.00052 8.95433 10.9548 1.9166e-05 22.0005 1.81199e-05L213.324 0Z" fill="#6EA3E6"/>
<path d="M173.109 43.96H194.517V46.72H173.109V43.96ZM180.933 51.736H193.509V54.4H180.933V51.736ZM179.997 59.896H194.421V62.56H179.997V59.896ZM185.829 47.752H188.733V61.312H185.829V47.752ZM180.669 40.6L183.669 41.32C181.893 47.104 178.869 52.936 173.733 56.44C173.445 55.624 172.773 54.352 172.341 53.656C176.685 50.824 179.421 45.448 180.669 40.6ZM175.869 50.656H178.773V63.112H175.869V50.656ZM200.996 43.5455V61H197.306V43.5455H200.996ZM203.368 46.5881V43.5455H217.703V46.5881H212.359V61H208.712V46.5881H203.368ZM220.064 43.5455H224.615L229.422 55.2727H229.626L234.433 43.5455H238.984V61H235.405V49.6392H235.26L230.743 60.9148H228.305L223.788 49.5966H223.643V61H220.064V43.5455ZM258.065 52.2727C258.065 54.1761 257.704 55.7955 256.982 57.1307C256.266 58.4659 255.289 59.4858 254.05 60.1903C252.817 60.8892 251.431 61.2386 249.891 61.2386C248.34 61.2386 246.948 60.8864 245.715 60.1818C244.482 59.4773 243.508 58.4574 242.792 57.1222C242.076 55.7869 241.718 54.1705 241.718 52.2727C241.718 50.3693 242.076 48.75 242.792 47.4148C243.508 46.0795 244.482 45.0625 245.715 44.3636C246.948 43.6591 248.34 43.3068 249.891 43.3068C251.431 43.3068 252.817 43.6591 254.05 44.3636C255.289 45.0625 256.266 46.0795 256.982 47.4148C257.704 48.75 258.065 50.3693 258.065 52.2727ZM254.323 52.2727C254.323 51.0398 254.138 50 253.769 49.1534C253.406 48.3068 252.891 47.6648 252.227 47.2273C251.562 46.7898 250.783 46.571 249.891 46.571C248.999 46.571 248.221 46.7898 247.556 47.2273C246.891 47.6648 246.374 48.3068 246.005 49.1534C245.641 50 245.46 51.0398 245.46 52.2727C245.46 53.5057 245.641 54.5455 246.005 55.392C246.374 56.2386 246.891 56.8807 247.556 57.3182C248.221 57.7557 248.999 57.9744 249.891 57.9744C250.783 57.9744 251.562 57.7557 252.227 57.3182C252.891 56.8807 253.406 56.2386 253.769 55.392C254.138 54.5455 254.323 53.5057 254.323 52.2727ZM260.73 65.9091V47.9091H264.31V50.108H264.472C264.631 49.7557 264.861 49.3977 265.162 49.0341C265.469 48.6648 265.866 48.358 266.355 48.1136C266.849 47.8636 267.463 47.7386 268.196 47.7386C269.151 47.7386 270.031 47.9886 270.838 48.4886C271.645 48.983 272.29 49.7301 272.773 50.7301C273.256 51.7244 273.497 52.9716 273.497 54.4716C273.497 55.9318 273.261 57.1648 272.79 58.1705C272.324 59.1705 271.688 59.929 270.881 60.446C270.08 60.9574 269.182 61.2131 268.188 61.2131C267.483 61.2131 266.884 61.0966 266.389 60.8636C265.901 60.6307 265.5 60.3381 265.188 59.9858C264.875 59.6278 264.636 59.267 264.472 58.9034H264.361V65.9091H260.73ZM264.284 54.4545C264.284 55.233 264.392 55.9119 264.608 56.4915C264.824 57.071 265.136 57.5227 265.545 57.8466C265.955 58.1648 266.452 58.3239 267.037 58.3239C267.628 58.3239 268.128 58.1619 268.537 57.8381C268.946 57.5085 269.256 57.054 269.466 56.4744C269.682 55.8892 269.79 55.2159 269.79 54.4545C269.79 53.6989 269.685 53.0341 269.474 52.4602C269.264 51.8864 268.955 51.4375 268.545 51.1136C268.136 50.7898 267.634 50.6278 267.037 50.6278C266.446 50.6278 265.946 50.7841 265.537 51.0966C265.134 51.4091 264.824 51.8523 264.608 52.4261C264.392 53 264.284 53.6761 264.284 54.4545ZM275.918 61V47.9091H279.438V50.1932H279.574C279.813 49.3807 280.213 48.767 280.776 48.3523C281.338 47.9318 281.986 47.7216 282.719 47.7216C282.901 47.7216 283.097 47.733 283.307 47.7557C283.517 47.7784 283.702 47.8097 283.861 47.8494V51.071C283.69 51.0199 283.455 50.9744 283.153 50.9347C282.852 50.8949 282.577 50.875 282.327 50.875C281.793 50.875 281.315 50.9915 280.895 51.2244C280.48 51.4517 280.151 51.7699 279.906 52.179C279.668 52.5881 279.548 53.0597 279.548 53.5938V61H275.918ZM291.043 61.2557C289.719 61.2557 288.575 60.9744 287.609 60.4119C286.648 59.8437 285.907 59.054 285.384 58.0426C284.862 57.0256 284.6 55.8466 284.6 54.5057C284.6 53.1534 284.862 51.9716 285.384 50.9602C285.907 49.9432 286.648 49.1534 287.609 48.5909C288.575 48.0227 289.719 47.7386 291.043 47.7386C292.367 47.7386 293.509 48.0227 294.469 48.5909C295.435 49.1534 296.18 49.9432 296.702 50.9602C297.225 51.9716 297.487 53.1534 297.487 54.5057C297.487 55.8466 297.225 57.0256 296.702 58.0426C296.18 59.054 295.435 59.8437 294.469 60.4119C293.509 60.9744 292.367 61.2557 291.043 61.2557ZM291.06 58.4432C291.663 58.4432 292.165 58.2727 292.569 57.9318C292.972 57.5852 293.276 57.1136 293.481 56.517C293.691 55.9205 293.796 55.2415 293.796 54.4801C293.796 53.7188 293.691 53.0398 293.481 52.4432C293.276 51.8466 292.972 51.375 292.569 51.0284C292.165 50.6818 291.663 50.5085 291.06 50.5085C290.452 50.5085 289.941 50.6818 289.526 51.0284C289.117 51.375 288.808 51.8466 288.597 52.4432C288.393 53.0398 288.29 53.7188 288.29 54.4801C288.29 55.2415 288.393 55.9205 288.597 56.517C288.808 57.1136 289.117 57.5852 289.526 57.9318C289.941 58.2727 290.452 58.4432 291.06 58.4432ZM305.762 61.2557C304.421 61.2557 303.268 60.9716 302.302 60.4034C301.342 59.8295 300.603 59.0341 300.086 58.017C299.575 57 299.319 55.8295 299.319 54.5057C299.319 53.1648 299.577 51.9886 300.094 50.9773C300.617 49.9602 301.359 49.1676 302.319 48.5994C303.279 48.0256 304.421 47.7386 305.745 47.7386C306.887 47.7386 307.887 47.946 308.745 48.3608C309.603 48.7756 310.282 49.358 310.782 50.108C311.282 50.858 311.558 51.7386 311.609 52.75H308.183C308.086 52.0966 307.83 51.571 307.415 51.1733C307.006 50.7699 306.469 50.5682 305.805 50.5682C305.242 50.5682 304.751 50.7216 304.33 51.0284C303.915 51.3295 303.592 51.7699 303.359 52.3494C303.126 52.929 303.009 53.6307 303.009 54.4545C303.009 55.2898 303.123 56 303.35 56.5852C303.583 57.1705 303.91 57.6165 304.33 57.9233C304.751 58.2301 305.242 58.3835 305.805 58.3835C306.219 58.3835 306.592 58.2983 306.921 58.1278C307.256 57.9574 307.532 57.7102 307.748 57.3864C307.969 57.0568 308.114 56.6619 308.183 56.2017H311.609C311.552 57.2017 311.279 58.0824 310.79 58.8438C310.308 59.5994 309.64 60.1903 308.788 60.6165C307.935 61.0426 306.927 61.2557 305.762 61.2557ZM320.896 47.9091V50.6364H313.013V47.9091H320.896ZM314.803 44.7727H318.433V56.9773C318.433 57.3125 318.484 57.5739 318.587 57.7614C318.689 57.9432 318.831 58.071 319.013 58.1449C319.2 58.2187 319.416 58.2557 319.661 58.2557C319.831 58.2557 320.001 58.2415 320.172 58.2131C320.342 58.179 320.473 58.1534 320.564 58.1364L321.135 60.8381C320.953 60.8949 320.697 60.9602 320.368 61.0341C320.038 61.1136 319.638 61.1619 319.166 61.179C318.291 61.2131 317.524 61.0966 316.865 60.8295C316.212 60.5625 315.703 60.1477 315.339 59.5852C314.976 59.0227 314.797 58.3125 314.803 57.4545V44.7727ZM329.036 61.2557C327.712 61.2557 326.567 60.9744 325.601 60.4119C324.641 59.8437 323.899 59.054 323.376 58.0426C322.854 57.0256 322.592 55.8466 322.592 54.5057C322.592 53.1534 322.854 51.9716 323.376 50.9602C323.899 49.9432 324.641 49.1534 325.601 48.5909C326.567 48.0227 327.712 47.7386 329.036 47.7386C330.359 47.7386 331.501 48.0227 332.462 48.5909C333.428 49.1534 334.172 49.9432 334.695 50.9602C335.217 51.9716 335.479 53.1534 335.479 54.5057C335.479 55.8466 335.217 57.0256 334.695 58.0426C334.172 59.054 333.428 59.8437 332.462 60.4119C331.501 60.9744 330.359 61.2557 329.036 61.2557ZM329.053 58.4432C329.655 58.4432 330.158 58.2727 330.561 57.9318C330.964 57.5852 331.268 57.1136 331.473 56.517C331.683 55.9205 331.788 55.2415 331.788 54.4801C331.788 53.7188 331.683 53.0398 331.473 52.4432C331.268 51.8466 330.964 51.375 330.561 51.0284C330.158 50.6818 329.655 50.5085 329.053 50.5085C328.445 50.5085 327.933 50.6818 327.518 51.0284C327.109 51.375 326.8 51.8466 326.589 52.4432C326.385 53.0398 326.283 53.7188 326.283 54.4801C326.283 55.2415 326.385 55.9205 326.589 56.517C326.8 57.1136 327.109 57.5852 327.518 57.9318C327.933 58.2727 328.445 58.4432 329.053 58.4432ZM337.839 61V47.9091H341.359V50.1932H341.496C341.734 49.3807 342.135 48.767 342.697 48.3523C343.26 47.9318 343.908 47.7216 344.641 47.7216C344.822 47.7216 345.018 47.733 345.229 47.7557C345.439 47.7784 345.624 47.8097 345.783 47.8494V51.071C345.612 51.0199 345.376 50.9744 345.075 50.9347C344.774 50.8949 344.499 50.875 344.249 50.875C343.714 50.875 343.237 50.9915 342.817 51.2244C342.402 51.4517 342.072 51.7699 341.828 52.179C341.589 52.5881 341.47 53.0597 341.47 53.5938V61H337.839ZM348.299 44.8H368.147V56.848H365.123V47.632H351.203V56.968H348.299V44.8ZM349.811 52.792H366.803V55.624H349.811V52.792ZM356.627 40.624H359.675V63.16H356.627V40.624ZM371.291 60.208H393.155V62.464H371.291V60.208ZM371.435 44.896H392.987V47.152H371.435V44.896ZM373.067 56.776H391.595V58.96H373.067V56.776ZM380.651 42.856H383.531V61.36H380.651V42.856ZM389.459 40.648L390.779 42.856C386.099 43.624 379.427 43.984 373.811 44.032C373.787 43.384 373.475 42.4 373.235 41.824C378.851 41.704 385.379 41.296 389.459 40.648ZM376.667 52.744V53.824H387.755V52.744H376.667ZM376.667 49.936V51.016H387.755V49.936H376.667ZM373.859 48.04H390.707V55.72H373.859V48.04ZM408.491 48.568H417.443V51.232H408.491V48.568ZM395.483 43H406.283V45.352H395.483V43ZM395.243 52.552H406.259V54.976H395.243V52.552ZM395.171 48.352H406.475V50.728H395.171V48.352ZM412.379 49.72H415.163V63.04H412.379V49.72ZM399.491 40.816H402.299V44.056H399.491V40.816ZM399.491 50.584H402.299V63.136H399.491V50.584ZM407.195 42.52L410.555 43.456C410.531 43.696 410.363 43.816 409.931 43.888V50.944C409.931 54.52 409.475 59.824 406.211 63.208C405.851 62.584 404.795 61.6 404.147 61.24C406.931 58.288 407.195 54.184 407.195 50.896V42.52ZM415.043 40.864L417.347 42.952C414.899 44.056 411.635 44.872 408.827 45.4C408.683 44.776 408.275 43.768 407.939 43.216C410.507 42.64 413.339 41.776 415.043 40.864ZM402.083 55.072C402.827 55.528 405.131 57.328 405.707 57.808L404.051 59.872C403.259 58.912 401.435 57.112 400.547 56.32L402.083 55.072ZM396.683 45.712L398.891 45.184C399.323 46.048 399.659 47.224 399.779 48.016L397.427 48.64C397.379 47.848 397.067 46.624 396.683 45.712ZM402.659 45.136L405.203 45.616C404.747 46.72 404.339 47.752 403.979 48.496L401.699 48.016C402.035 47.2 402.443 45.976 402.659 45.136ZM399.515 53.968L401.555 54.712C400.379 57.352 398.387 60.112 396.467 61.672C396.011 61.048 395.171 60.088 394.571 59.632C396.467 58.408 398.459 56.08 399.515 53.968ZM426.395 40.624L429.587 41.416C428.435 43.096 427.091 44.848 426.059 45.976L423.707 45.184C424.667 43.912 425.795 42.04 426.395 40.624ZM432.395 42.76L434.675 41.464C436.667 42.88 439.235 45.04 440.483 46.576L438.011 48.04C436.883 46.552 434.411 44.296 432.395 42.76ZM420.131 44.488C424.523 44.392 431.363 44.224 437.603 44.008L437.507 46.384C431.411 46.672 424.859 46.912 420.443 47.032L420.131 44.488ZM419.315 48.376H441.179V50.8H419.315V48.376ZM430.595 51.544L432.803 52.624C430.931 53.92 428.099 54.88 425.723 55.432C425.363 54.928 424.715 54.208 424.139 53.752C426.323 53.32 429.155 52.456 430.595 51.544ZM432.803 54.184L435.059 55.264C432.707 57.16 428.963 58.432 425.459 59.176C425.123 58.552 424.499 57.688 423.923 57.136C427.115 56.632 430.883 55.576 432.803 54.184ZM435.683 56.728L438.203 57.856C435.059 61.048 429.755 62.488 423.635 63.232C423.371 62.488 422.819 61.504 422.315 60.856C427.883 60.376 433.115 59.2 435.683 56.728ZM427.139 45.88L429.971 46.552C428.171 51.448 424.787 55 420.563 57.112C420.155 56.536 419.099 55.408 418.475 54.904C422.603 53.176 425.675 50.08 427.139 45.88ZM434.531 48.952C435.947 51.304 438.803 53.536 441.707 54.664C441.083 55.192 440.243 56.248 439.835 56.92C436.763 55.48 433.883 52.816 432.131 49.84L434.531 48.952ZM456.899 58.216H463.067V61H456.899V58.216ZM443.387 44.92H452.195V47.752H443.387V44.92ZM455.627 43.36H464.363V62.488H461.459V46.144H458.387V62.68H455.627V43.36ZM451.475 44.92H454.259C454.259 44.92 454.259 45.88 454.259 46.24C454.043 56.512 453.875 60.208 453.107 61.336C452.555 62.128 452.051 62.416 451.259 62.56C450.539 62.728 449.459 62.728 448.355 62.68C448.307 61.84 447.995 60.592 447.515 59.776C448.475 59.872 449.339 59.872 449.795 59.872C450.155 59.896 450.371 59.776 450.611 59.44C451.115 58.72 451.307 55.264 451.475 45.568V44.92ZM446.243 40.96H449.075C449.051 50.416 448.955 58.384 444.803 63.16C444.347 62.464 443.387 61.504 442.667 61.048C446.411 56.824 446.219 49.744 446.243 40.96ZM467.627 47.368H488.627V49.792H467.627V47.368ZM469.475 43.12H482.963V45.472H469.475V43.12ZM475.043 40.624H477.899V48.568H475.043V40.624ZM484.355 50.8L486.107 52.696C482.915 53.56 478.355 54.04 474.491 54.28C474.419 53.704 474.107 52.84 473.867 52.336C477.563 52.072 481.835 51.496 484.355 50.8ZM485.339 41.584L487.667 42.856C482.915 48.928 475.643 53.656 468.347 56.536C467.963 55.96 467.099 54.832 466.571 54.328C473.963 51.76 481.043 47.2 485.339 41.584ZM473.147 50.968L476.003 51.28C475.451 53.824 474.683 56.92 474.107 58.888L471.227 58.504C471.875 56.536 472.667 53.392 473.147 50.968ZM483.251 55.48H486.155C486.155 55.48 486.107 56.248 486.011 56.656C485.459 59.944 484.859 61.576 484.043 62.32C483.395 62.92 482.747 63.088 481.715 63.136C480.923 63.208 479.555 63.208 478.091 63.16C478.043 62.344 477.683 61.24 477.203 60.496C478.571 60.616 480.107 60.664 480.731 60.664C481.187 60.664 481.499 60.616 481.763 60.424C482.315 60.016 482.843 58.6 483.227 55.816L483.251 55.48ZM473.579 55.48H483.923V57.808H472.907L473.579 55.48ZM492.515 42.688L494.387 40.936C495.683 41.992 497.411 43.504 498.203 44.536L496.235 46.528C495.491 45.448 493.811 43.816 492.515 42.688ZM494.267 62.752L493.739 60.28L494.411 59.392L499.067 56.44C499.235 57.208 499.547 58.336 499.811 58.912C495.515 61.744 494.699 62.248 494.267 62.752ZM491.363 48.016H495.707V50.776H491.363V48.016ZM498.611 45.232H513.395V47.968H498.611V45.232ZM499.331 50.728H505.739V53.392H499.331V50.728ZM501.299 52.456H503.915V59.368L501.299 59.608V52.456ZM498.923 59.128C500.819 58.696 503.627 57.952 506.339 57.208L506.723 59.704C504.299 60.448 501.731 61.192 499.667 61.792L498.923 59.128ZM509.075 42.064L511.019 40.888C511.907 41.872 512.915 43.192 513.347 44.104L511.283 45.424C510.899 44.512 509.939 43.096 509.075 42.064ZM506.003 40.792H508.931C508.859 50.44 509.699 59.08 510.827 59.128C511.139 59.128 511.331 57.928 511.403 55.768C511.907 56.368 513.203 57.16 513.659 57.424C513.059 62.104 511.715 63.016 510.707 63.016C506.987 62.968 506.171 54.376 506.003 40.792ZM494.267 62.752C494.051 62.056 493.379 60.808 492.923 60.232C493.451 59.92 494.195 59.128 494.195 58.072V48.016H496.931V60.112C496.931 60.112 494.267 61.768 494.267 62.752ZM517.643 44.512H525.011V60.688H517.643V58.144H522.395V47.032H517.643V44.512ZM515.963 44.512H518.579V62.464H515.963V44.512ZM517.523 50.92H523.667V53.416H517.523V50.92ZM519.371 40.6L522.515 41.056C521.963 42.688 521.363 44.392 520.883 45.52L518.579 45.016C518.915 43.768 519.251 41.92 519.371 40.6ZM528.179 44.344H535.187V46.96H528.179V44.344ZM534.203 44.344H536.867C536.867 44.344 536.867 45.28 536.843 45.64C536.531 56.44 536.243 60.256 535.259 61.528C534.587 62.464 533.915 62.728 532.931 62.872C532.019 63.016 530.555 62.992 529.163 62.92C529.115 62.128 528.731 60.904 528.203 60.136C529.763 60.256 531.203 60.28 531.803 60.28C532.283 60.28 532.547 60.184 532.859 59.848C533.627 59.032 533.939 54.904 534.203 44.896V44.344ZM528.251 40.624L531.011 41.272C530.075 44.824 528.515 48.472 526.883 50.776C526.355 50.296 525.179 49.48 524.507 49.096C526.115 47.08 527.483 43.816 528.251 40.624ZM527.075 51.256L529.331 49.984C530.507 51.64 532.091 53.944 532.835 55.36L530.387 56.848C529.739 55.384 528.227 53.032 527.075 51.256ZM540.227 42.712L542.147 40.984C543.443 42.112 545.219 43.768 546.035 44.848L543.971 46.84C543.203 45.712 541.523 43.936 540.227 42.712ZM539.099 48.016H543.707V50.824H539.099V48.016ZM542.027 62.824L541.307 59.944L541.907 59.008L547.283 54.952C547.499 55.792 547.955 57.016 548.291 57.616C543.347 61.456 542.459 62.2 542.027 62.824ZM542.027 62.824C541.763 62.08 540.971 60.736 540.419 60.136C541.043 59.752 542.051 58.744 542.051 57.616V48.016H544.955V59.824C544.955 59.824 542.027 61.744 542.027 62.824ZM548.003 41.704L550.451 40.672C551.387 41.92 552.371 43.576 552.731 44.728L550.067 45.856C549.779 44.728 548.891 43 548.003 41.704ZM556.211 40.672L559.283 41.56C558.419 43.432 557.459 45.352 556.691 46.648L554.123 45.784C554.867 44.416 555.755 42.28 556.211 40.672ZM549.971 47.944V51.088H556.763V47.944H549.971ZM547.211 45.4H559.667V53.632H547.211V45.4ZM549.851 53.08H552.755C552.443 57.688 551.603 61.144 546.851 63.16C546.515 62.488 545.771 61.456 545.147 60.928C549.179 59.392 549.611 56.68 549.851 53.08ZM554.315 52.792H557.147V59.392C557.147 60.136 557.195 60.208 557.555 60.208C557.699 60.208 558.275 60.208 558.443 60.208C558.827 60.208 558.923 59.872 558.971 57.4C559.523 57.88 560.723 58.336 561.491 58.528C561.227 61.936 560.531 62.872 558.755 62.872C558.347 62.872 557.459 62.872 557.027 62.872C554.795 62.872 554.315 62.008 554.315 59.44V52.792ZM565.379 41.944H572.267V56.68H565.379V54.04H569.603V44.536H565.379V41.944ZM565.403 47.944H570.659V50.512H565.403V47.944ZM575.651 41.584H583.019V44.248H575.651V41.584ZM575.651 47.32H583.019V49.912H575.651V47.32ZM575.603 53.008H582.995V55.576H575.603V53.008ZM563.843 41.944H566.507V58.768H563.843V41.944ZM581.939 41.584H584.795V59.872C584.795 61.36 584.483 62.152 583.547 62.608C582.587 63.064 581.219 63.136 579.179 63.136C579.059 62.344 578.603 61.096 578.195 60.352C579.491 60.424 580.955 60.4 581.363 60.4C581.795 60.4 581.939 60.256 581.939 59.824V41.584ZM573.923 41.584H576.755V50.296C576.755 54.448 576.107 60.088 571.667 63.352C571.235 62.776 570.131 61.792 569.507 61.408C573.563 58.456 573.923 53.944 573.923 50.272V41.584Z" fill="url(#paint0_linear_1411_8626)"/>
<path d="M45.04 198.74H62.98V199.98H45.04V198.74ZM45.14 185.76H62.86V187H45.14V185.76ZM46.52 195.82H61.7V197.02H46.52V195.82ZM53.16 183.74H54.66V199.34H53.16V183.74ZM60.12 182.32L60.92 183.48C57.34 184.14 51.64 184.48 46.96 184.58C46.96 184.22 46.78 183.7 46.64 183.38C51.3 183.26 56.96 182.9 60.12 182.32ZM48.62 191.8V193.34H59.44V191.8H48.62ZM48.62 189.28V190.8H59.44V189.28H48.62ZM47.16 188.2H60.96V194.42H47.16V188.2ZM65.28 188.14H82.5V189.44H65.28V188.14ZM66.82 184.58H78.18V185.84H66.82V184.58ZM71.92 182.2H73.4V188.78H71.92V182.2ZM79.42 190.72L80.4 191.74C77.88 192.42 73.98 192.88 70.72 193.12C70.68 192.82 70.5 192.34 70.36 192.08C73.52 191.8 77.32 191.3 79.42 190.72ZM80.48 183.14L81.7 183.82C77.66 188.72 71.58 192.44 65.42 194.8C65.22 194.5 64.76 193.9 64.46 193.62C70.7 191.46 76.72 187.74 80.48 183.14ZM70.14 190.76L71.62 190.94C71.2 192.88 70.6 195.34 70.14 196.84L68.64 196.64C69.14 195.12 69.76 192.62 70.14 190.76ZM78.86 194.6H80.38C80.38 194.6 80.34 195.04 80.3 195.28C79.82 198.24 79.38 199.56 78.72 200.14C78.3 200.52 77.88 200.62 77.18 200.64C76.56 200.68 75.38 200.66 74.14 200.58C74.1 200.18 73.92 199.6 73.66 199.2C74.92 199.32 76.22 199.34 76.7 199.34C77.12 199.34 77.36 199.32 77.56 199.16C78.06 198.76 78.48 197.54 78.84 194.8L78.86 194.6ZM69.92 194.6H79.26V195.86H69.6L69.92 194.6ZM85.16 191.02H102.86V192.38H85.16V191.02ZM94.06 194.6H101.54V195.92H94.06V194.6ZM93.4 191.62H94.92V199.2H93.4V191.62ZM89.48 194.88C90.7 198.16 93.34 198.78 97.26 198.8C98.02 198.8 102.2 198.8 103.24 198.78C103.02 199.12 102.78 199.78 102.7 200.22H97.2C92.52 200.22 89.8 199.38 88.24 195.34L89.48 194.88ZM88.62 193.02L90.12 193.24C89.48 196.56 88.04 199.04 85.84 200.64C85.62 200.36 85.04 199.82 84.7 199.58C86.82 198.2 88.1 195.96 88.62 193.02ZM88.72 186.88V188.52H99.14V186.88H88.72ZM88.72 184.18V185.8H99.14V184.18H88.72ZM87.26 183.04H100.66V189.66H87.26V183.04ZM105.24 185.3H122.76V186.76H105.24V185.3ZM111.44 191.64H121.98V193.04H111.44V191.64ZM110.66 198.72H122.76V200.14H110.66V198.72ZM115.96 187.78H117.46V199.48H115.96V187.78ZM111.82 182.2L113.36 182.58C111.96 187.16 109.52 191.82 105.54 194.68C105.38 194.28 105 193.64 104.76 193.3C108.36 190.76 110.7 186.32 111.82 182.2ZM107.86 190.44H109.36V200.54H107.86V190.44ZM128.56 188.96H138.46V190.28H128.56V188.96ZM125.2 193.52H142.88V194.92H125.2V193.52ZM133.24 192.06H134.78V198.82C134.78 199.72 134.54 200.16 133.78 200.38C133.06 200.6 131.9 200.62 130.08 200.62C129.98 200.2 129.68 199.58 129.44 199.18C130.98 199.22 132.34 199.22 132.74 199.2C133.14 199.18 133.24 199.08 133.24 198.78V192.06ZM138 188.96H138.38L138.7 188.88L139.66 189.62C138.3 191 136.2 192.38 134.3 193.2C134.12 192.94 133.72 192.54 133.46 192.32C135.14 191.6 137.06 190.28 138 189.26V188.96ZM125.6 185.54H142.54V190H141.06V186.9H127.02V190H125.6V185.54ZM139.9 182.34L141.46 182.86C140.62 184.1 139.54 185.44 138.7 186.32L137.52 185.82C138.32 184.88 139.34 183.4 139.9 182.34ZM126.96 183.04L128.22 182.44C129 183.28 129.82 184.42 130.16 185.22L128.82 185.86C128.5 185.1 127.7 183.9 126.96 183.04ZM132.1 182.6L133.4 182.12C134.08 183.06 134.8 184.36 135.04 185.2L133.66 185.74C133.42 184.9 132.76 183.58 132.1 182.6ZM156.2 183.2H161.76V184.58H156.2V183.2ZM156.2 187.8H161.76V189.14H156.2V187.8ZM156.18 192.46H161.8V193.82H156.18V192.46ZM161.08 183.2H162.54V198.7C162.54 199.56 162.34 200.02 161.76 200.26C161.2 200.5 160.26 200.54 158.78 200.54C158.74 200.12 158.52 199.46 158.32 199.08C159.38 199.1 160.38 199.1 160.68 199.08C160.98 199.08 161.08 198.98 161.08 198.68V183.2ZM155.58 183.2H157V190.46C157 193.54 156.76 197.86 154.96 200.7C154.7 200.42 154.1 199.98 153.76 199.84C155.44 197.16 155.58 193.36 155.58 190.46V183.2ZM145.02 184.88H154.6V186.2H145.02V184.88ZM147.38 187.98H152.44V189.2H147.38V187.98ZM147.38 191.16H152.46V192.36H147.38V191.16ZM144.76 194.38H154.6V195.72H144.76V194.38ZM146.72 182.44H148.1V194.92H146.72V182.44ZM151.74 182.44H153.12V194.92H151.74V182.44ZM147.54 196.16L148.98 196.56C148.24 198.08 147.08 199.62 146 200.62C145.72 200.38 145.14 199.94 144.78 199.74C145.9 198.84 146.94 197.5 147.54 196.16ZM150.42 196.78L151.58 196.16C152.36 197.06 153.3 198.3 153.7 199.12L152.48 199.84C152.1 199.04 151.2 197.72 150.42 196.78ZM165.26 195.34C165.18 195.02 164.92 194.26 164.74 193.86C165.2 193.78 165.68 193.28 166.32 192.56C167.04 191.86 169.24 189.1 170.68 186.42L172.04 187.26C170.34 189.94 168.3 192.6 166.3 194.5V194.54C166.3 194.54 165.26 195.02 165.26 195.34ZM165.26 195.34L165.18 194.08L165.98 193.56L171.94 192.58C171.94 192.98 171.98 193.56 172.04 193.88C166.44 194.9 165.72 195.08 165.26 195.34ZM165.12 190.48C165.02 190.14 164.78 189.38 164.58 188.98C164.96 188.88 165.32 188.44 165.74 187.78C166.18 187.14 167.62 184.66 168.44 182.34L169.96 182.96C168.92 185.38 167.5 187.88 166.14 189.6V189.64C166.14 189.64 165.12 190.14 165.12 190.48ZM165.12 190.48L165.08 189.34L165.84 188.88L170.06 188.5C169.98 188.88 169.94 189.46 169.94 189.76C166.1 190.18 165.48 190.3 165.12 190.48ZM164.7 197.96C166.54 197.64 169.32 197.08 172 196.52L172.12 197.92C169.6 198.5 166.94 199.04 164.96 199.5L164.7 197.96ZM172.16 184.88H182.84V186.34H172.16V184.88ZM172.66 189.44H182.5V190.88H172.66V189.44ZM173.98 198.36H181.24V199.74H173.98V198.36ZM176.76 182.2H178.32V190.18H176.76V182.2ZM173.18 192.92H182.02V200.52H180.5V194.3H174.64V200.6H173.18V192.92ZM185.5 184.34H202.52V185.74H185.5V184.34ZM193.18 182.22H194.74V200.6H193.18V182.22ZM193.04 192.9L194.3 193.46C192.38 196.22 188.94 198.68 185.84 199.94C185.6 199.56 185.14 199 184.78 198.68C187.88 197.62 191.28 195.3 193.04 192.9ZM194.98 192.94C196.72 195.36 200.16 197.62 203.32 198.66C202.96 198.98 202.48 199.56 202.24 199.96C199.08 198.72 195.66 196.22 193.74 193.48L194.98 192.94ZM188.34 189.28V192.34H199.64V189.28H188.34ZM186.88 187.94H201.16V193.7H186.88V187.94ZM207.76 187.76H223.24V189.2H207.76V187.76ZM210.96 198.18H220.5V199.6H210.96V198.18ZM206.98 183.74L208.9 184.12C208.88 184.28 208.76 184.36 208.48 184.4V189.38C208.48 192.62 208.18 197.32 205.8 200.64C205.58 200.3 205.02 199.8 204.62 199.62C206.76 196.58 206.98 192.44 206.98 189.36V183.74ZM220.32 182.38L221.58 183.56C217.94 184.5 212.44 185.12 207.74 185.44C207.7 185.06 207.48 184.48 207.34 184.16C211.94 183.82 217.32 183.16 220.32 182.38ZM210.22 192.06H221.5V200.6H219.98V193.46H211.66V200.62H210.22V192.06ZM227.74 189.78H239.18V191.24H227.74V189.78ZM238.68 189.78H240.24C240.24 189.78 240.22 190.3 240.2 190.5C239.92 196.7 239.64 199.02 238.92 199.78C238.52 200.28 238.08 200.42 237.38 200.48C236.72 200.54 235.46 200.52 234.2 200.46C234.18 200 233.98 199.38 233.7 198.94C235.02 199.06 236.26 199.08 236.74 199.08C237.14 199.08 237.38 199.04 237.58 198.82C238.12 198.28 238.42 196 238.68 190.06V189.78ZM230.48 182.62L232.06 183.08C230.62 186.46 228.26 189.44 225.74 191.36C225.46 191.04 224.82 190.46 224.44 190.18C227 188.46 229.22 185.7 230.48 182.62ZM237.46 182.58C238.76 185.26 241.34 188.3 243.52 189.84C243.12 190.16 242.56 190.76 242.26 191.18C240.04 189.38 237.52 186.14 236.02 183.16L237.46 182.58ZM231.96 190.18H233.56C233.1 194.56 232.06 198.7 226.48 200.7C226.3 200.32 225.86 199.72 225.52 199.4C230.76 197.66 231.56 193.96 231.96 190.18ZM255.82 189.4H261.84V190.84H255.82V189.4ZM255.14 189.4H256.62V198.08C256.62 198.84 256.78 198.98 257.7 198.98C258.12 198.98 260.24 198.98 260.82 198.98C261.7 198.98 261.86 198.46 261.96 195.58C262.3 195.86 262.94 196.12 263.36 196.22C263.16 199.48 262.74 200.4 260.9 200.4C260.48 200.4 257.94 200.4 257.54 200.4C255.7 200.4 255.14 199.94 255.14 198.08V189.4ZM255.06 183.12H262.6V192.2H261.14V184.56H255.06V183.12ZM245.62 186.66H253.64V200.26H252.4V187.94H246.84V200.52H245.62V186.66ZM246.24 194.72H252.98V195.84H246.24V194.72ZM246.24 197.94H252.98V199.16H246.24V197.94ZM245.14 182.98H254.08V184.34H245.14V182.98ZM248.02 183.36H249.1V187.58H248.02V183.36ZM250.26 183.36H251.36V187.58H250.26V183.36ZM248.22 187.56H249.06V189.54C249.06 190.78 248.76 192.38 247.52 193.52C247.38 193.34 247.04 193.04 246.84 192.94C248.02 191.92 248.22 190.6 248.22 189.52V187.56ZM250.16 187.56H251.02V191.72C251.02 191.96 251.06 192 251.28 192C251.38 192 251.9 192 252.02 192C252.24 192 252.3 192 252.32 191.94C252.52 192.1 252.86 192.2 253.12 192.28C253.02 192.7 252.74 192.88 252.18 192.88C252.04 192.88 251.36 192.88 251.2 192.88C250.4 192.88 250.16 192.7 250.16 191.72V187.56ZM265.34 195.36C265.26 195.06 265.02 194.34 264.86 193.94C265.28 193.86 265.74 193.36 266.38 192.62C267.04 191.9 269.18 189.08 270.56 186.34L271.86 187.14C270.26 189.86 268.32 192.6 266.38 194.56V194.58C266.38 194.58 265.34 195.06 265.34 195.36ZM265.34 195.36L265.26 194.14L266 193.62L271.54 192.62C271.5 193.02 271.48 193.6 271.52 193.9C266.46 194.92 265.76 195.12 265.34 195.36ZM265.2 190.56C265.12 190.24 264.88 189.48 264.7 189.08C265.06 189 265.4 188.52 265.82 187.84C266.26 187.2 267.68 184.62 268.46 182.22L269.92 182.88C268.9 185.34 267.52 187.92 266.14 189.7V189.76C266.14 189.76 265.2 190.24 265.2 190.56ZM265.2 190.56L265.18 189.42L265.88 188.94L269.58 188.56C269.52 188.94 269.46 189.52 269.46 189.82C266.1 190.26 265.54 190.4 265.2 190.56ZM264.84 197.94C266.54 197.6 269.12 197.02 271.64 196.44L271.78 197.76C269.42 198.36 266.96 198.96 265.12 199.42L264.84 197.94ZM273.96 188.76H280.28V190.14H273.96V188.76ZM273.6 198.24H280.46V199.6H273.6V198.24ZM272.98 192.4H281.14V200.62H279.64V193.76H274.42V200.66H272.98V192.4ZM277.62 182.8C278.74 185.34 280.92 187.94 283.12 189.18C282.76 189.46 282.28 190.04 282.04 190.42C279.82 188.94 277.64 186.08 276.44 183.2L277.62 182.8ZM276.6 182.24L278.04 182.64C276.94 185.86 274.98 188.74 272.28 190.66C272.06 190.34 271.52 189.82 271.2 189.58C273.74 187.84 275.7 185.1 276.6 182.24ZM288.56 188.96H298.46V190.28H288.56V188.96ZM285.2 193.52H302.88V194.92H285.2V193.52ZM293.24 192.06H294.78V198.82C294.78 199.72 294.54 200.16 293.78 200.38C293.06 200.6 291.9 200.62 290.08 200.62C289.98 200.2 289.68 199.58 289.44 199.18C290.98 199.22 292.34 199.22 292.74 199.2C293.14 199.18 293.24 199.08 293.24 198.78V192.06ZM298 188.96H298.38L298.7 188.88L299.66 189.62C298.3 191 296.2 192.38 294.3 193.2C294.12 192.94 293.72 192.54 293.46 192.32C295.14 191.6 297.06 190.28 298 189.26V188.96ZM285.6 185.54H302.54V190H301.06V186.9H287.02V190H285.6V185.54ZM299.9 182.34L301.46 182.86C300.62 184.1 299.54 185.44 298.7 186.32L297.52 185.82C298.32 184.88 299.34 183.4 299.9 182.34ZM286.96 183.04L288.22 182.44C289 183.28 289.82 184.42 290.16 185.22L288.82 185.86C288.5 185.1 287.7 183.9 286.96 183.04ZM292.1 182.6L293.4 182.12C294.08 183.06 294.8 184.36 295.04 185.2L293.66 185.74C293.42 184.9 292.76 183.58 292.1 182.6ZM308.16 186.1H322.02V187.56H308.16V186.1ZM307.28 191.96H321.3V193.4H307.28V191.96ZM305.1 198.5H322.96V199.96H305.1V198.5ZM313.26 182.22H314.8V199.24H313.26V182.22ZM308.76 182.54L310.3 182.88C309.42 185.98 308.02 188.94 306.42 190.86C306.12 190.6 305.44 190.16 305.06 189.96C306.7 188.18 308 185.4 308.76 182.54ZM326.62 185.42H332.7V198.5H326.62V197.14H331.3V186.76H326.62V185.42ZM325.72 185.42H327.12V200.1H325.72V185.42ZM326.52 190.98H332.04V192.32H326.52V190.98ZM328.78 182.16L330.4 182.46C330 183.7 329.5 185.08 329.1 185.98L327.9 185.68C328.24 184.72 328.62 183.2 328.78 182.16ZM335.54 185.36H341.68V186.76H335.54V185.36ZM341.16 185.36H342.56C342.56 185.36 342.56 185.92 342.56 186.14C342.24 195.32 341.96 198.42 341.16 199.4C340.72 199.98 340.26 200.16 339.56 200.22C338.88 200.3 337.7 200.26 336.58 200.2C336.54 199.76 336.36 199.14 336.08 198.74C337.38 198.84 338.58 198.86 339.04 198.86C339.44 198.86 339.68 198.8 339.9 198.54C340.56 197.82 340.88 194.5 341.16 185.68V185.36ZM335.96 182.12L337.4 182.46C336.66 185.44 335.48 188.38 334.1 190.28C333.84 190.04 333.22 189.62 332.86 189.42C334.22 187.66 335.32 184.9 335.96 182.12ZM335.04 190.56L336.2 189.88C337.34 191.3 338.72 193.24 339.36 194.42L338.08 195.22C337.48 194 336.14 192.02 335.04 190.56ZM354.28 183.4H363.06V184.72H354.28V183.4ZM358.14 184.16L359.44 184.48C359.04 185.54 358.64 186.68 358.26 187.46L357.12 187.14C357.46 186.32 357.92 185.02 358.14 184.16ZM354.6 186.8H362.3V196.2H360.98V188.02H355.9V196.24H354.6V186.8ZM357.86 189.14H359.16C359.06 195.78 358.64 198.96 353.92 200.68C353.78 200.36 353.4 199.86 353.14 199.62C357.5 198.1 357.76 195.34 357.86 189.14ZM358.74 197.32L359.56 196.4C360.86 197.34 362.58 198.66 363.42 199.5L362.58 200.56C361.76 199.68 360.08 198.3 358.74 197.32ZM345.22 184.14H353.94V187.16H352.56V185.38H346.54V187.16H345.22V184.14ZM346.52 194.34H352.76V200.42H351.36V195.56H347.86V200.46H346.52V194.34ZM347.02 198.6H352V199.82H347.02V198.6ZM348.26 186.04L349.62 186.28C348.82 187.94 347.6 189.7 345.68 191.08C345.48 190.78 345.08 190.32 344.8 190.14C346.52 188.98 347.66 187.38 348.26 186.04ZM348.44 187.44H352.04V188.6H347.84L348.44 187.44ZM351.76 187.44H352.08L352.34 187.38L353.16 187.92C351.68 191.18 348.54 193.48 345.38 194.68C345.28 194.28 344.98 193.6 344.76 193.34C347.72 192.34 350.6 190.34 351.76 187.7V187.44ZM348.28 182.6L349.64 182.28C350.06 182.98 350.6 183.96 350.86 184.54L349.42 184.94C349.18 184.34 348.7 183.34 348.28 182.6ZM346.96 190.68L347.92 189.8C349.88 190.76 352.6 192.22 354.02 193.14L353 194.2C351.66 193.26 348.98 191.72 346.96 190.68ZM368.76 185.28H373.86V186.7H368.76V185.28ZM377.5 182.22H379.04V200.56H377.5V182.22ZM366.58 190.3L367.36 189.2C369.04 190.12 371.1 191.54 372.08 192.56L371.24 193.8C370.28 192.76 368.26 191.26 366.58 190.3ZM369.34 182.2L370.84 182.5C369.78 186.42 368.02 189.9 365.78 192.16C365.52 191.9 364.88 191.42 364.52 191.18C366.74 189.14 368.4 185.82 369.34 182.2ZM375.44 186.96C377.14 190.1 380.46 193.2 383.7 194.66C383.34 194.96 382.88 195.52 382.62 195.92C379.36 194.24 376.06 190.92 374.18 187.44L375.44 186.96ZM373.44 185.28H373.72L374 185.22L374.96 185.54C373.76 193.32 370.46 198.1 366.18 200.5C365.92 200.16 365.34 199.62 364.98 199.38C369.24 197.14 372.4 192.74 373.44 185.62V185.28ZM386.34 183.88H391.88V196.9H386.34V195.54H390.48V185.24H386.34V183.88ZM386.42 189.62H391V190.96H386.42V189.62ZM385.62 183.88H387.04V198.5H385.62V183.88ZM392.78 186.22H403.22V187.7H392.78V186.22ZM399.28 182.32H400.8V198.34C400.8 199.44 400.5 199.9 399.78 200.14C399.06 200.38 397.8 200.42 395.78 200.4C395.7 199.98 395.46 199.3 395.24 198.88C396.8 198.92 398.26 198.92 398.7 198.9C399.12 198.88 399.28 198.76 399.28 198.34V182.32ZM393.46 189.96L394.7 189.32C395.78 190.84 397.16 192.88 397.84 194.08L396.52 194.86C395.88 193.64 394.54 191.5 393.46 189.96ZM405.82 186.72H407.34V200.62H405.82V186.72ZM406.1 183.18L407.26 182.48C408.2 183.3 409.28 184.5 409.78 185.32L408.52 186.14C408.08 185.32 407.02 184.08 406.1 183.18ZM411.02 183.34H421.56V184.74H411.02V183.34ZM420.7 183.34H422.24V198.78C422.24 199.62 422.08 200.02 421.56 200.26C421.02 200.5 420.16 200.52 418.92 200.52C418.86 200.14 418.66 199.52 418.46 199.12C419.3 199.16 420.12 199.14 420.36 199.14C420.64 199.14 420.7 199.04 420.7 198.78V183.34ZM411.56 193.1V195.8H416.38V193.1H411.56ZM411.56 189.18V191.86H416.38V189.18H411.56ZM410.2 187.94H417.8V197.06H410.2V187.94ZM427.88 194.14C429.56 194.14 430.92 195.5 430.92 197.18C430.92 198.86 429.56 200.22 427.88 200.22C426.2 200.22 424.82 198.86 424.82 197.18C424.82 195.5 426.2 194.14 427.88 194.14ZM427.88 199.2C429 199.2 429.9 198.3 429.9 197.18C429.9 196.06 429 195.16 427.88 195.16C426.76 195.16 425.84 196.06 425.84 197.18C425.84 198.3 426.76 199.2 427.88 199.2ZM45.24 231.3H62.76V232.76H45.24V231.3ZM51.44 237.64H61.98V239.04H51.44V237.64ZM50.66 244.72H62.76V246.14H50.66V244.72ZM55.96 233.78H57.46V245.48H55.96V233.78ZM51.82 228.2L53.36 228.58C51.96 233.16 49.52 237.82 45.54 240.68C45.38 240.28 45 239.64 44.76 239.3C48.36 236.76 50.7 232.32 51.82 228.2ZM47.86 236.44H49.36V246.54H47.86V236.44ZM65.94 229.48L66.94 228.6C67.94 229.48 69.2 230.72 69.8 231.52L68.72 232.54C68.16 231.72 66.92 230.42 65.94 229.48ZM67.5 245.8L67.22 244.42L67.58 243.8L71 240.96C71.14 241.36 71.4 241.92 71.56 242.18C68.26 244.98 67.76 245.42 67.5 245.8ZM64.86 234.46H68.58V235.84H64.86V234.46ZM70.76 238.58H83.1V239.96H70.76V238.58ZM78.12 239.24C79.3 241.24 81.54 243.42 83.44 244.46C83.1 244.74 82.64 245.26 82.4 245.64C80.5 244.38 78.32 241.92 77.08 239.68L78.12 239.24ZM73.22 233.56V235.64H80.42V233.56H73.22ZM73.22 230.3V232.36H80.42V230.3H73.22ZM71.84 229.06H81.84V236.88H71.84V229.06ZM75.76 239.24L76.82 239.64C75.56 242.14 73.26 244.6 71.06 245.82C70.84 245.46 70.4 244.96 70.08 244.68C72.26 243.66 74.58 241.44 75.76 239.24ZM76.26 229.68H77.64V236.26H77.7V246.6H76.22V236.26H76.26V229.68ZM67.5 245.8C67.32 245.52 66.86 245 66.58 244.8C66.96 244.46 67.66 243.68 67.66 242.64V234.46H69.1V243.64C69.1 243.64 67.5 245.2 67.5 245.8ZM96.88 237.64H98.36V245.64H96.88V237.64ZM92.48 237.1H102.82V238.42H92.48V237.1ZM91.62 244.74H103.26V246.08H91.62V244.74ZM92.96 240.82H102.36V242.12H92.96V240.82ZM94.64 230.34V234.04H100.66V230.34H94.64ZM93.24 229.04H102.12V235.34H93.24V229.04ZM88.24 229.86H89.7V246.56H88.24V229.86ZM84.96 233.84H92.22V235.26H84.96V233.84ZM88.32 234.38L89.26 234.78C88.46 237.6 86.86 241.1 85.32 242.96C85.18 242.54 84.82 241.92 84.56 241.58C86 239.98 87.6 236.86 88.32 234.38ZM91.2 228.5L92.26 229.66C90.42 230.4 87.62 230.96 85.3 231.28C85.22 230.94 85.02 230.46 84.84 230.12C87.1 229.74 89.74 229.18 91.2 228.5ZM89.64 236.42C90.14 236.86 92.02 238.76 92.42 239.26L91.54 240.44C91.06 239.62 89.56 237.72 88.94 237.02L89.64 236.42ZM113.4 234.68H121.62V236.18H113.4V234.68ZM105.02 244.16H122.98V245.66H105.02V244.16ZM112.54 228.5H114.12V244.96H112.54V228.5ZM134.22 230.96H141.6V232.42H134.22V230.96ZM124.94 229.46H134.72V230.86H124.94V229.46ZM127.28 233.52H132.48V234.9H127.28V233.52ZM127.28 237.68H132.48V239.04H127.28V237.68ZM141.16 230.96H141.42L141.7 230.92L142.66 231.18C141.7 239.14 138.64 243.84 134.36 246.32C134.12 245.94 133.7 245.38 133.36 245.1C137.32 243.04 140.3 238.34 141.16 231.32V230.96ZM136.04 232.5C137.1 238.28 139.42 243.02 143.54 245.14C143.2 245.44 142.72 246 142.48 246.4C138.14 243.94 135.84 239.06 134.6 232.78L136.04 232.5ZM126.5 230H127.94V242.98H126.5V230ZM131.86 230H133.3V246.56H131.86V230ZM124.54 242.54C126.5 242.3 129.52 241.88 132.44 241.44L132.52 242.82C129.78 243.26 126.9 243.72 124.82 244.04L124.54 242.54ZM153.62 232.66V234.3H160.24V232.66H153.62ZM153.62 229.96V231.58H160.24V229.96H153.62ZM152.18 228.82H161.74V235.44H152.18V228.82ZM150.94 236.82H162.7V238.08H150.94V236.82ZM150.48 239.8H163.06V241.12H150.48V239.8ZM158.56 237.92H160.06V244.96C160.06 245.76 159.88 246.16 159.28 246.38C158.68 246.62 157.72 246.62 156.22 246.62C156.16 246.22 155.92 245.66 155.72 245.26C156.86 245.3 157.86 245.3 158.16 245.28C158.48 245.26 158.56 245.18 158.56 244.92V237.92ZM152.22 242.14L153.28 241.42C154.2 242.26 155.3 243.44 155.82 244.22L154.68 245.06C154.2 244.26 153.12 243.02 152.22 242.14ZM149.38 232.66L150.7 233.2C149.34 235.58 147.2 238 145.22 239.56C145.1 239.26 144.68 238.46 144.42 238.12C146.24 236.8 148.18 234.74 149.38 232.66ZM149 228.26L150.44 228.82C149.24 230.54 147.32 232.42 145.54 233.6C145.38 233.26 145 232.68 144.74 232.38C146.34 231.34 148.14 229.68 149 228.26ZM147.58 236.2L148.98 234.78L149.04 234.82V246.6H147.58V236.2ZM170.78 231.84H182.48V233.28H170.78V231.84ZM173.6 228.64H175.08V235.64C175.08 238.24 174.68 241.52 172.04 243.52C171.84 243.24 171.26 242.66 170.94 242.46C173.34 240.62 173.6 237.94 173.6 235.62V228.64ZM170.64 236.88H182.86V238.3H170.64V236.88ZM169.22 235.44V243.18H167.76V236.86H164.98V235.44H169.22ZM168.46 242.44C169.14 242.44 169.6 243.04 170.7 243.74C172 244.54 173.68 244.68 175.96 244.68C178.32 244.68 181.32 244.52 183.26 244.3C183.1 244.72 182.86 245.44 182.82 245.86C181.4 245.96 177.82 246.08 175.92 246.08C173.44 246.08 171.76 245.84 170.36 244.98C169.52 244.44 168.9 243.78 168.44 243.78C167.76 243.78 166.78 244.96 165.76 246.32L164.76 244.96C166.12 243.5 167.46 242.44 168.46 242.44ZM165.6 229.46L166.68 228.62C167.8 229.6 169.16 230.98 169.82 231.88L168.66 232.82C168.06 231.9 166.72 230.46 165.6 229.46ZM178.4 228.62H179.88V243.42H178.4V228.62ZM188.98 235.92H202.2V237.22H188.98V235.92ZM188.36 239.26H203V240.56H188.36V239.26ZM191.98 233.96H193.38V239.94H191.98V233.96ZM190.9 239.72H192.3V245.12H190.9V239.72ZM197.4 233.96H198.82V239.88H197.4V233.96ZM186.8 229.18H188.32V235.04C188.32 238.44 188.02 243.36 185.94 246.62C185.66 246.4 184.98 246 184.62 245.86C186.62 242.7 186.8 238.24 186.8 235.04V229.18ZM187.7 229.18H201.82V234.08H187.7V232.78H200.32V230.48H187.7V229.18ZM188.6 244.94C190.58 244.68 193.6 244.2 196.56 243.72L196.62 245.02C193.86 245.52 190.94 245.98 188.84 246.34L188.6 244.94ZM195.82 239.78C196.98 242.68 199.58 244.68 203.2 245.4C202.88 245.72 202.48 246.26 202.3 246.64C198.52 245.7 195.9 243.46 194.58 240.08L195.82 239.78ZM200.8 240.68L201.92 241.46C200.84 242.32 199.38 243.16 198.24 243.74L197.28 243C198.38 242.4 199.92 241.4 200.8 240.68ZM207.14 247.14L206.68 246.1C208.32 245.42 209.22 244.4 209.22 242.9L208.84 241.2L209.92 242.72C209.64 243.08 209.24 243.18 208.86 243.18C208.04 243.18 207.36 242.7 207.36 241.74C207.36 240.8 208.08 240.3 208.88 240.3C210 240.3 210.6 241.22 210.6 242.62C210.6 244.78 209.24 246.42 207.14 247.14ZM230.14 244.4H243.32V245.8H230.14V244.4ZM233.38 236.38V240.4H240.02V236.38H233.38ZM233.38 231.04V234.98H240.02V231.04H233.38ZM231.84 229.64H241.62V241.8H231.84V229.64ZM229.56 228.28L231 228.74C229.68 232.14 227.6 235.54 225.4 237.78C225.24 237.42 224.8 236.62 224.52 236.26C226.52 234.32 228.42 231.32 229.56 228.28ZM227.42 233.44L228.9 231.98L228.92 232V246.58H227.42V233.44ZM245.22 236.42H262.84V237.92H245.22V236.42ZM246.66 231.48H261.46V232.98H246.66V231.48ZM253.18 228.22H254.74V246.6H253.18V228.22ZM252.78 237.18L254.08 237.74C252.18 240.92 248.86 243.92 245.76 245.5C245.5 245.12 245.02 244.54 244.66 244.22C247.74 242.88 251.06 240.02 252.78 237.18ZM255.14 237.18C256.88 240 260.24 242.88 263.32 244.22C262.96 244.52 262.48 245.1 262.22 245.5C259.14 243.94 255.82 240.88 253.9 237.72L255.14 237.18ZM269.16 236.1V243.18H267.74V237.5H264.82V236.1H269.16ZM269.16 242.58C270.14 244.06 271.86 244.74 274.22 244.82C276.42 244.92 281.04 244.86 283.44 244.7C283.26 245.04 283.04 245.74 282.96 246.18C280.74 246.28 276.46 246.32 274.22 246.22C271.6 246.12 269.78 245.42 268.54 243.84C267.52 244.7 266.44 245.58 265.3 246.44L264.56 244.96C265.56 244.34 266.8 243.44 267.86 242.58H269.16ZM265.16 229.6L266.2 228.66C267.48 229.56 268.98 230.92 269.64 231.9L268.5 232.94C267.88 231.96 266.42 230.54 265.16 229.6ZM273.16 231.56L274.12 230.72C276 231.38 278.52 232.48 279.86 233.28L278.84 234.22C277.58 233.44 275.1 232.3 273.16 231.56ZM271.26 233.24H281.6V234.4H272.68V243.6H271.26V233.24ZM280.88 233.24H282.32V242.1C282.32 242.84 282.18 243.18 281.64 243.4C281.12 243.64 280.28 243.64 278.94 243.64C278.88 243.26 278.7 242.74 278.52 242.4C279.46 242.44 280.3 242.42 280.56 242.42C280.82 242.42 280.88 242.34 280.88 242.08V233.24ZM271.26 229.04H281.24V230.24H271.26V229.04ZM272.04 236.16H281.46V237.28H272.04V236.16ZM272.04 239.1H281.46V240.26H272.04V239.1ZM276.04 233.72H277.4V243.52H276.04V233.72ZM280.74 229.04H281.08L281.4 228.96L282.32 229.68C280.98 230.94 278.96 232.18 277.14 232.94C276.94 232.68 276.56 232.28 276.34 232.06C277.98 231.42 279.84 230.26 280.74 229.32V229.04ZM285.56 229.52L286.72 228.76C287.84 229.76 289.16 231.16 289.78 232.08L288.54 232.98C287.96 232.02 286.68 230.56 285.56 229.52ZM289.22 235.7V242.98H287.76V237.12H284.98V235.7H289.22ZM288.46 242.2C289.14 242.2 289.6 242.8 290.72 243.48C292.02 244.3 293.72 244.44 295.96 244.44C298.32 244.44 301.34 244.28 303.28 244.06C303.08 244.48 302.84 245.24 302.82 245.7C301.4 245.78 297.84 245.88 295.94 245.88C293.44 245.88 291.76 245.68 290.38 244.8C289.52 244.26 288.88 243.6 288.44 243.6C287.76 243.6 286.8 244.78 285.78 246.14L284.72 244.74C286.1 243.24 287.46 242.2 288.46 242.2ZM290.64 231.82H302.68V233.24H290.64V231.82ZM298.38 228.28H299.92V241.18C299.92 242.2 299.64 242.64 298.92 242.88C298.24 243.12 297.02 243.16 295.12 243.16C295.06 242.72 294.8 242.06 294.58 241.62C296.06 241.66 297.44 241.66 297.84 241.66C298.24 241.62 298.38 241.52 298.38 241.16V228.28ZM291.6 235.46L292.8 234.82C293.82 236.04 295.08 237.7 295.66 238.74L294.4 239.52C293.86 238.46 292.62 236.72 291.6 235.46ZM309 232.32V233.74H319.04V232.32H309ZM309 229.92V231.3H319.04V229.92H309ZM307.54 228.84H320.52V234.8H307.54V228.84ZM305.16 235.92H322.78V237.16H305.16V235.92ZM314.04 238.42H321.16V239.64H314.04V238.42ZM307.76 238.54H312.7V239.66H307.76V238.54ZM307.76 241.06H312.7V242.18H307.76V241.06ZM316.14 239.54C317.3 242.4 319.86 244.58 323.26 245.42C322.94 245.7 322.54 246.24 322.34 246.6C318.82 245.56 316.24 243.18 314.92 239.9L316.14 239.54ZM320.7 238.42H320.98L321.24 238.36L322.16 238.74C320.84 242.8 317.62 245.3 314.14 246.5C313.98 246.14 313.6 245.6 313.32 245.32C316.52 244.36 319.6 242.02 320.7 238.66V238.42ZM304.98 244.12C306.94 243.96 309.84 243.64 312.66 243.32V244.56C309.96 244.88 307.18 245.22 305.12 245.46L304.98 244.12ZM311.9 236.32H313.34V246.6H311.9V236.32ZM306.88 236.34H308.28V244.48H306.88V236.34ZM325.26 241.34C325.18 241.04 324.94 240.32 324.78 239.96C325.22 239.86 325.68 239.38 326.32 238.66C326.98 237.96 329.12 235.18 330.52 232.5L331.78 233.26C330.16 235.96 328.18 238.64 326.24 240.54V240.58C326.24 240.58 325.26 241.02 325.26 241.34ZM325.26 241.34L325.2 240.12L325.96 239.62L331.52 238.86C331.5 239.24 331.52 239.82 331.56 240.14C326.38 240.94 325.7 241.1 325.26 241.34ZM325.12 236.52C325.04 236.2 324.8 235.48 324.62 235.1C324.98 235 325.34 234.54 325.76 233.84C326.24 233.18 327.68 230.6 328.52 228.18L329.98 228.78C328.92 231.28 327.48 233.88 326.1 235.68V235.72C326.1 235.72 325.12 236.2 325.12 236.52ZM325.12 236.52L325.08 235.44L325.82 235L329.98 234.62C329.92 235 329.86 235.54 329.86 235.82C326.06 236.24 325.48 236.36 325.12 236.52ZM324.7 243.96C326.5 243.66 329.22 243.14 331.86 242.62L331.98 243.96C329.48 244.5 326.88 245 324.96 245.42L324.7 243.96ZM335.3 239.72L336.18 238.76C337.62 239.3 339.42 240.24 340.38 240.94L339.46 242C338.52 241.28 336.74 240.3 335.3 239.72ZM333.08 243.44L333.96 242.36C336.66 243.06 339.98 244.4 341.82 245.4L340.94 246.6C339.12 245.52 335.82 244.16 333.08 243.44ZM335.66 228.2L337.2 228.46C336.22 230.64 334.72 233 332.46 234.9C332.22 234.56 331.72 234.08 331.36 233.88C333.48 232.24 334.9 230 335.66 228.2ZM335.46 230.3H340.9V231.62H334.8L335.46 230.3ZM340.46 230.3H340.78L341.04 230.24L341.98 230.78C340.18 235.04 336.36 238.04 332.54 239.62C332.38 239.26 331.9 238.66 331.6 238.4C335.34 237.02 338.98 234.22 340.46 230.58V230.3ZM335.2 231.44C336.84 234.44 340.1 237.2 343.54 238.4C343.18 238.68 342.76 239.26 342.52 239.64C339.04 238.24 335.78 235.3 333.98 231.9L335.2 231.44ZM351.82 239.06H362.24V240.44H351.82V239.06ZM350.56 244.66H363.2V246.04H350.56V244.66ZM351.16 230.3H363.02V233.56H361.64V231.6H352.48V233.74H351.16V230.3ZM356.18 228.2H357.64V231.14H356.18V228.2ZM356.16 239.72H357.64V245.38H356.16V239.72ZM357.88 231.44H359.26V235.54C359.26 235.96 359.34 236.02 359.8 236.02C360 236.02 361.02 236.02 361.28 236.02C361.7 236.02 361.78 235.82 361.82 234.28C362.1 234.5 362.66 234.72 363.04 234.8C362.9 236.78 362.54 237.28 361.44 237.28C361.14 237.28 359.88 237.28 359.6 237.28C358.2 237.28 357.88 236.9 357.88 235.54V231.44ZM354.6 231.5H355.98C355.82 234.98 355.14 236.9 351.82 237.9C351.7 237.58 351.36 237.1 351.08 236.84C353.98 236.02 354.48 234.48 354.6 231.5ZM344.54 238.58C346.1 238.1 348.44 237.28 350.7 236.48L350.96 237.84C348.86 238.64 346.64 239.44 344.92 240.04L344.54 238.58ZM344.82 232.24H350.82V233.64H344.82V232.24ZM347.34 228.22H348.74V244.86C348.74 245.7 348.54 246.1 348.04 246.34C347.58 246.58 346.8 246.62 345.54 246.62C345.48 246.26 345.3 245.64 345.1 245.22C345.98 245.24 346.74 245.24 346.98 245.22C347.22 245.22 347.34 245.16 347.34 244.86V228.22ZM377.52 230.04H378.92V241.12H377.52V230.04ZM381.08 228.42H382.54V244.52C382.54 245.52 382.3 245.96 381.68 246.24C381.08 246.5 379.98 246.54 378.5 246.54C378.42 246.1 378.2 245.42 378 244.94C379.18 244.98 380.3 244.98 380.66 244.98C380.98 244.96 381.08 244.88 381.08 244.54V228.42ZM369.78 228.28H371.2V246.6H369.78V228.28ZM373.98 237.98H375.36V243.48C375.36 244.16 375.26 244.54 374.76 244.78C374.28 245.02 373.52 245.04 372.4 245.02C372.36 244.64 372.18 244.1 371.98 243.72C372.84 243.74 373.48 243.74 373.72 243.72C373.92 243.72 373.98 243.66 373.98 243.46V237.98ZM365.8 237.98H374.54V239.34H367.16V244.96H365.8V237.98ZM364.88 234.58H376.08V235.96H364.88V234.58ZM366.82 231.1H375.28V232.48H366.54L366.82 231.1ZM366.84 228.68L368.24 228.96C367.76 231.04 366.98 233.16 366.14 234.52C365.84 234.36 365.18 234.1 364.82 233.98C365.72 232.62 366.42 230.62 366.84 228.68ZM386.62 231.42H392.7V244.5H386.62V243.14H391.3V232.76H386.62V231.42ZM385.72 231.42H387.12V246.1H385.72V231.42ZM386.52 236.98H392.04V238.32H386.52V236.98ZM388.78 228.16L390.4 228.46C390 229.7 389.5 231.08 389.1 231.98L387.9 231.68C388.24 230.72 388.62 229.2 388.78 228.16ZM395.54 231.36H401.68V232.76H395.54V231.36ZM401.16 231.36H402.56C402.56 231.36 402.56 231.92 402.56 232.14C402.24 241.32 401.96 244.42 401.16 245.4C400.72 245.98 400.26 246.16 399.56 246.22C398.88 246.3 397.7 246.26 396.58 246.2C396.54 245.76 396.36 245.14 396.08 244.74C397.38 244.84 398.58 244.86 399.04 244.86C399.44 244.86 399.68 244.8 399.9 244.54C400.56 243.82 400.88 240.5 401.16 231.68V231.36ZM395.96 228.12L397.4 228.46C396.66 231.44 395.48 234.38 394.1 236.28C393.84 236.04 393.22 235.62 392.86 235.42C394.22 233.66 395.32 230.9 395.96 228.12ZM395.04 236.56L396.2 235.88C397.34 237.3 398.72 239.24 399.36 240.42L398.08 241.22C397.48 240 396.14 238.02 395.04 236.56ZM408.56 234.96H418.46V236.28H408.56V234.96ZM405.2 239.52H422.88V240.92H405.2V239.52ZM413.24 238.06H414.78V244.82C414.78 245.72 414.54 246.16 413.78 246.38C413.06 246.6 411.9 246.62 410.08 246.62C409.98 246.2 409.68 245.58 409.44 245.18C410.98 245.22 412.34 245.22 412.74 245.2C413.14 245.18 413.24 245.08 413.24 244.78V238.06ZM418 234.96H418.38L418.7 234.88L419.66 235.62C418.3 237 416.2 238.38 414.3 239.2C414.12 238.94 413.72 238.54 413.46 238.32C415.14 237.6 417.06 236.28 418 235.26V234.96ZM405.6 231.54H422.54V236H421.06V232.9H407.02V236H405.6V231.54ZM419.9 228.34L421.46 228.86C420.62 230.1 419.54 231.44 418.7 232.32L417.52 231.82C418.32 230.88 419.34 229.4 419.9 228.34ZM406.96 229.04L408.22 228.44C409 229.28 409.82 230.42 410.16 231.22L408.82 231.86C408.5 231.1 407.7 229.9 406.96 229.04ZM412.1 228.6L413.4 228.12C414.08 229.06 414.8 230.36 415.04 231.2L413.66 231.74C413.42 230.9 412.76 229.58 412.1 228.6ZM428.16 232.1H442.02V233.56H428.16V232.1ZM427.28 237.96H441.3V239.4H427.28V237.96ZM425.1 244.5H442.96V245.96H425.1V244.5ZM433.26 228.22H434.8V245.24H433.26V228.22ZM428.76 228.54L430.3 228.88C429.42 231.98 428.02 234.94 426.42 236.86C426.12 236.6 425.44 236.16 425.06 235.96C426.7 234.18 428 231.4 428.76 228.54ZM445.26 230.8H462.78V232.22H445.26V230.8ZM450.14 237.94H459.54V239.24H450.14V237.94ZM449.08 234.54H459.3V235.88H450.56V246.6H449.08V234.54ZM458.96 234.54H460.42V244.74C460.42 245.62 460.24 246.08 459.56 246.32C458.92 246.56 457.8 246.56 456.08 246.56C456.02 246.14 455.8 245.52 455.58 245.1C456.92 245.16 458.14 245.14 458.5 245.14C458.84 245.12 458.96 245.02 458.96 244.72V234.54ZM451.8 228.2L453.32 228.56C451.96 232.96 449.56 237.4 445.74 240.08C445.54 239.74 445.08 239.22 444.78 238.92C448.36 236.46 450.72 232.22 451.8 228.2ZM450.14 241.32H459.54V242.62H450.14V241.32ZM472.44 230.06H481.76V231.5H472.44V230.06ZM481.24 230.06H481.5L481.78 229.98L482.74 230.3C481.48 239.1 477.5 244.2 472.28 246.64C472.06 246.24 471.64 245.64 471.32 245.34C476.22 243.32 480.08 238.26 481.24 230.38V230.06ZM474.6 231.8C475.86 238.46 478.08 242.28 483.44 245.4C483.04 245.68 482.58 246.22 482.36 246.66C476.82 243.2 474.58 239.12 473.24 232.08L474.6 231.8ZM465 232.46H472.58V233.86H465V232.46ZM468.34 228.2H469.82V246.58H468.34V228.2ZM468.28 233.32L469.4 233.64C468.66 236.92 467.12 240.92 465.46 243C465.3 242.58 464.9 242.02 464.62 241.66C466.14 239.76 467.64 236.28 468.28 233.32ZM469.7 235.88C470.3 236.34 472.5 238.34 472.98 238.82L472.16 240.18C471.52 239.32 469.7 237.38 469 236.68L469.7 235.88ZM485.24 231.3H502.76V232.76H485.24V231.3ZM491.44 237.64H501.98V239.04H491.44V237.64ZM490.66 244.72H502.76V246.14H490.66V244.72ZM495.96 233.78H497.46V245.48H495.96V233.78ZM491.82 228.2L493.36 228.58C491.96 233.16 489.52 237.82 485.54 240.68C485.38 240.28 485 239.64 484.76 239.3C488.36 236.76 490.7 232.32 491.82 228.2ZM487.86 236.44H489.36V246.54H487.86V236.44ZM510.76 234.38H514.6V235.84H510.76V234.38ZM510.22 228.22H511.76V244.24L510.22 244.44V228.22ZM506.5 232.26H507.96V244.8L506.5 245V232.26ZM504.88 244.74C507.3 244.36 511.06 243.7 514.6 243.06L514.72 244.56C511.3 245.2 507.66 245.86 505.14 246.34L504.88 244.74ZM521.48 232.58L522.72 233.78C521.06 235.04 518.72 236.3 516.62 237.3C516.52 236.98 516.24 236.46 516.04 236.14C518.02 235.14 520.22 233.74 521.48 232.58ZM515.6 228.22H517.18V243.26C517.18 244.3 517.32 244.5 518.16 244.5C518.56 244.5 520.42 244.5 520.9 244.5C521.74 244.5 521.86 243.78 521.96 240.94C522.36 241.24 522.98 241.5 523.4 241.6C523.22 244.84 522.82 245.96 521.02 245.96C520.62 245.96 518.36 245.96 517.98 245.96C516.12 245.96 515.6 245.38 515.6 243.22V228.22ZM526.34 229.88H531.88V242.9H526.34V241.54H530.48V231.24H526.34V229.88ZM526.42 235.62H531V236.96H526.42V235.62ZM525.62 229.88H527.04V244.5H525.62V229.88ZM532.78 232.22H543.22V233.7H532.78V232.22ZM539.28 228.32H540.8V244.34C540.8 245.44 540.5 245.9 539.78 246.14C539.06 246.38 537.8 246.42 535.78 246.4C535.7 245.98 535.46 245.3 535.24 244.88C536.8 244.92 538.26 244.92 538.7 244.9C539.12 244.88 539.28 244.76 539.28 244.34V228.32ZM533.46 235.96L534.7 235.32C535.78 236.84 537.16 238.88 537.84 240.08L536.52 240.86C535.88 239.64 534.54 237.5 533.46 235.96ZM551.32 228.2L552.94 228.66C552.04 230 550.92 231.54 550.02 232.54L548.8 232.08C549.66 231.04 550.74 229.38 551.32 228.2ZM556.12 229.76L557.28 229.04C559.1 230.18 561.32 231.92 562.4 233.16L561.14 233.98C560.12 232.76 557.96 230.96 556.12 229.76ZM545.8 231.68C549.34 231.62 555.02 231.5 560.3 231.34L560.24 232.6C555.12 232.8 549.62 232.98 545.98 233.06L545.8 231.68ZM545.04 234.7H562.98V236H545.04V234.7ZM554.58 236.96L555.76 237.54C554.26 238.68 551.88 239.64 549.86 240.2C549.66 239.92 549.3 239.52 548.98 239.28C550.9 238.8 553.3 237.9 554.58 236.96ZM556.66 239.28L557.86 239.86C555.92 241.46 552.68 242.64 549.72 243.32C549.54 243 549.2 242.52 548.88 242.24C551.7 241.68 554.94 240.6 556.66 239.28ZM559.26 241.54L560.56 242.16C558.12 244.7 553.54 246.06 548.46 246.72C548.3 246.34 548.02 245.82 547.74 245.48C552.6 244.94 557.06 243.72 559.26 241.54ZM552.14 232.36L553.62 232.74C552.02 236.66 549.06 239.42 545.46 241.12C545.26 240.84 544.7 240.24 544.36 239.96C547.94 238.48 550.76 235.9 552.14 232.36ZM557.18 234.98C558.46 237 561.02 238.92 563.42 239.84C563.08 240.12 562.64 240.68 562.42 241.02C559.96 239.92 557.36 237.78 555.92 235.48L557.18 234.98ZM576.1 243.38H581.54V244.84H576.1V243.38ZM565.06 232H572.74V233.46H565.06V232ZM575.42 230.7H582.26V246.16H580.74V232.14H576.88V246.3H575.42V230.7ZM572.34 232H573.8C573.8 232 573.8 232.56 573.8 232.76C573.64 241.66 573.5 244.58 572.86 245.46C572.5 245.98 572.14 246.16 571.54 246.22C570.98 246.3 570.06 246.3 569.16 246.24C569.14 245.8 568.98 245.14 568.72 244.72C569.66 244.8 570.52 244.8 570.9 244.8C571.2 244.82 571.38 244.76 571.56 244.5C572.02 243.88 572.2 240.92 572.34 232.36V232ZM567.9 228.48H569.36C569.34 235.86 569.24 242.8 565.72 246.62C565.46 246.28 564.94 245.82 564.56 245.6C567.9 242.08 567.88 235.48 567.9 228.48ZM585.28 234.14H602.5V235.44H585.28V234.14ZM586.82 230.58H598.18V231.84H586.82V230.58ZM591.92 228.2H593.4V234.78H591.92V228.2ZM599.42 236.72L600.4 237.74C597.88 238.42 593.98 238.88 590.72 239.12C590.68 238.82 590.5 238.34 590.36 238.08C593.52 237.8 597.32 237.3 599.42 236.72ZM600.48 229.14L601.7 229.82C597.66 234.72 591.58 238.44 585.42 240.8C585.22 240.5 584.76 239.9 584.46 239.62C590.7 237.46 596.72 233.74 600.48 229.14ZM590.14 236.76L591.62 236.94C591.2 238.88 590.6 241.34 590.14 242.84L588.64 242.64C589.14 241.12 589.76 238.62 590.14 236.76ZM598.86 240.6H600.38C600.38 240.6 600.34 241.04 600.3 241.28C599.82 244.24 599.38 245.56 598.72 246.14C598.3 246.52 597.88 246.62 597.18 246.64C596.56 246.68 595.38 246.66 594.14 246.58C594.1 246.18 593.92 245.6 593.66 245.2C594.92 245.32 596.22 245.34 596.7 245.34C597.12 245.34 597.36 245.32 597.56 245.16C598.06 244.76 598.48 243.54 598.84 240.8L598.86 240.6ZM589.92 240.6H599.26V241.86H589.6L589.92 240.6ZM606.38 229.5L607.4 228.6C608.42 229.44 609.72 230.66 610.34 231.44L609.28 232.5C608.7 231.66 607.42 230.4 606.38 229.5ZM607.56 246.1L607.34 244.76L607.78 244.14L611.42 241.8C611.52 242.18 611.68 242.76 611.82 243.06C608.42 245.38 607.88 245.72 607.56 246.1ZM605 234.48H608.54V235.94H605V234.48ZM610.92 232.38H623.18V233.82H610.92V232.38ZM611.56 236.72H616.92V238.12H611.56V236.72ZM613.64 237.52H615.02V243.6L613.64 243.76V237.52ZM611.18 243.8C612.74 243.4 615.08 242.76 617.38 242.12L617.58 243.44C615.48 244.08 613.28 244.72 611.6 245.2L611.18 243.8ZM619.54 229.1L620.56 228.46C621.4 229.3 622.36 230.46 622.78 231.24L621.68 231.98C621.28 231.2 620.36 229.98 619.54 229.1ZM617.4 228.3H618.92C618.98 237.08 619.82 244.5 621.4 244.58C621.76 244.6 622 243.46 622.12 241.52C622.4 241.82 623.06 242.2 623.32 242.34C622.92 245.7 622.14 246.56 621.36 246.54C618.34 246.48 617.62 238.76 617.4 228.3ZM607.56 246.1C607.44 245.72 607.06 245.08 606.8 244.78C607.16 244.56 607.76 243.98 607.76 243.14V234.48H609.2V244.44C609.2 244.44 607.56 245.54 607.56 246.1ZM627.88 240.14C629.56 240.14 630.92 241.5 630.92 243.18C630.92 244.86 629.56 246.22 627.88 246.22C626.2 246.22 624.82 244.86 624.82 243.18C624.82 241.5 626.2 240.14 627.88 240.14ZM627.88 245.2C629 245.2 629.9 244.3 629.9 243.18C629.9 242.06 629 241.16 627.88 241.16C626.76 241.16 625.84 242.06 625.84 243.18C625.84 244.3 626.76 245.2 627.88 245.2Z" fill="#6663CF"/>
<defs>
<linearGradient id="paint0_linear_1411_8626" x1="334.03" y1="37" x2="399.776" y2="116.907" gradientUnits="userSpaceOnUse">
<stop stop-color="#5955B3"/>
<stop offset="1" stop-color="#6563CE"/>
</linearGradient>
</defs>
</svg>
