<svg width="757" height="409" viewBox="0 0 757 409" fill="none" xmlns="http://www.w3.org/2000/svg">
<rect width="757" height="409" fill="white"/>
<path opacity="0.2" fill-rule="evenodd" clip-rule="evenodd" d="M754.692 389.08C754.65 400.044 745.785 408.928 734.827 409H438C450.567 373.992 503.062 303.975 612.504 303.975C721.946 303.975 752.897 249.517 754.692 222.288V389.08Z" fill="#79A4E2"/>
<path opacity="0.2" fill-rule="evenodd" clip-rule="evenodd" d="M213.324 0C210.649 18.1119 194.257 69.0439 126.729 92.1467C61.2117 114.562 18.0506 106.853 2.00053 99.6083L2.00052 20C2.00052 8.95433 10.9548 1.9166e-05 22.0005 1.81199e-05L213.324 0Z" fill="#6EA3E6"/>
<path d="M45.488 119.56H66.512V121.312H45.488V119.56ZM52.928 127.168H65.576V128.848H52.928V127.168ZM51.992 135.664H66.512V137.368H51.992V135.664ZM58.352 122.536H60.152V136.576H58.352V122.536ZM53.384 115.84L55.232 116.296C53.552 121.792 50.624 127.384 45.848 130.816C45.656 130.336 45.2 129.568 44.912 129.16C49.232 126.112 52.04 120.784 53.384 115.84ZM48.632 125.728H50.432V137.848H48.632V125.728ZM71.4432 118.545L76.3011 132.761H76.4972L81.3551 118.545H84.2017L77.9205 136H74.8778L68.5966 118.545H71.4432ZM86.7223 136V118.545H89.3558V126.881H89.5689L96.8899 118.545H100.205L93.1655 126.403L100.231 136H97.0604L91.4183 128.202L89.3558 130.571V136H86.7223ZM109.862 135.76H123.758V137.416H109.862V135.76ZM113.222 123.184H121.07V124.816H113.222V123.184ZM113.246 129.424H121.094V131.056H113.246V129.424ZM112.286 117.04H121.67V136.6H119.87V118.696H113.99V136.6H112.286V117.04ZM102.47 131.632C102.398 131.296 102.11 130.48 101.918 130.048C102.446 129.928 103.046 129.328 103.838 128.464C104.702 127.6 107.414 124.216 109.262 120.928L110.702 121.816C108.614 125.152 106.118 128.392 103.67 130.72V130.744C103.67 130.744 102.47 131.272 102.47 131.632ZM102.47 131.632L102.398 130.24L103.262 129.616L110.366 128.296C110.318 128.776 110.342 129.448 110.366 129.784C103.838 131.128 102.974 131.344 102.47 131.632ZM102.302 125.872C102.206 125.512 101.942 124.648 101.75 124.192C102.182 124.072 102.614 123.52 103.166 122.704C103.766 121.888 105.638 118.768 106.718 115.84L108.374 116.608C107.006 119.608 105.206 122.728 103.406 124.888V124.936C103.406 124.936 102.302 125.512 102.302 125.872ZM102.302 125.872L102.278 124.552L103.118 124L107.918 123.496C107.846 123.928 107.798 124.6 107.798 124.96C103.406 125.512 102.71 125.68 102.302 125.872ZM101.894 134.632C103.958 134.2 107.126 133.456 110.174 132.736L110.366 134.248C107.486 135.016 104.486 135.76 102.23 136.36L101.894 134.632ZM137.966 115.912H139.886C139.838 126.88 142.19 136.072 145.118 136.072C145.814 136.072 146.078 134.8 146.222 131.608C146.63 132.016 147.302 132.448 147.806 132.616C147.494 136.768 146.798 137.944 144.974 137.944C140.198 137.944 138.086 127.288 137.966 115.912ZM141.326 117.04L142.382 115.936C143.87 116.56 145.646 117.616 146.534 118.408L145.43 119.68C144.566 118.864 142.814 117.736 141.326 117.04ZM144.47 123.184L146.246 123.616C144.158 130.096 140.534 134.92 135.494 137.944C135.23 137.584 134.51 136.864 134.126 136.528C139.118 133.84 142.574 129.232 144.47 123.184ZM126.35 119.68H147.206V121.456H126.35V119.68ZM126.23 134.44C128.846 133.936 132.926 133.12 136.838 132.28L136.982 134.008C133.31 134.824 129.374 135.688 126.566 136.288L126.23 134.44ZM129.398 125.152V129.352H134.294V125.152H129.398ZM127.742 123.592H136.07V130.888H127.742V123.592ZM152.678 124.528H168.566V126.208H152.678V124.528ZM159.566 115.888H161.462V134.008C161.462 135.424 161.75 135.688 163.166 135.688C163.886 135.688 167.414 135.688 168.278 135.688C169.598 135.688 169.838 134.896 170.03 131.8C170.486 132.136 171.254 132.448 171.83 132.592C171.518 136.24 170.918 137.512 168.374 137.512C167.726 137.512 163.67 137.512 163.046 137.512C160.358 137.512 159.566 136.792 159.566 133.984V115.888ZM152.822 119.344H169.478V131.44H152.822V129.688H167.654V121.096H152.822V119.344ZM151.742 119.344H153.614V132.904H151.742V119.344ZM184.142 124.888H193.646V126.544H184.142V124.888ZM186.83 125.776C188.438 130.384 191.702 134.56 195.854 136.336C195.422 136.696 194.87 137.392 194.582 137.872C190.31 135.76 187.046 131.344 185.27 126.208L186.83 125.776ZM193.166 124.888H193.502L193.838 124.816L194.99 125.2C193.838 130.672 190.79 135.448 186.038 137.968C185.75 137.56 185.222 137.008 184.814 136.648C189.302 134.392 192.206 129.928 193.166 125.272V124.888ZM192.422 116.656H194.246C194.246 116.656 194.222 117.16 194.198 117.424C194.078 120.808 193.862 122.2 193.334 122.728C192.902 123.184 192.35 123.304 191.558 123.376C190.814 123.4 189.278 123.4 187.67 123.304C187.646 122.848 187.454 122.224 187.19 121.792C188.75 121.936 190.334 121.936 190.814 121.936C191.318 121.936 191.582 121.912 191.798 121.744C192.134 121.408 192.278 120.136 192.422 116.92V116.656ZM173.51 128.56C175.622 128.032 178.766 127.144 181.79 126.28L181.982 128.008C179.222 128.872 176.246 129.76 173.99 130.384L173.51 128.56ZM173.846 120.688H181.814V122.464H173.846V120.688ZM177.278 115.864H179.102V135.688C179.102 136.816 178.814 137.32 178.118 137.584C177.398 137.896 176.27 137.92 174.374 137.92C174.302 137.464 174.038 136.696 173.774 136.216C175.118 136.264 176.366 136.24 176.726 136.216C177.134 136.216 177.278 136.096 177.278 135.688V115.864ZM182.894 116.656H192.974V118.36H184.67V137.872H182.894V116.656ZM209.174 117.28H219.542V118.864H209.174V117.28ZM213.95 118.192L215.606 118.624C215.102 119.896 214.598 121.288 214.166 122.2L212.702 121.816C213.134 120.808 213.662 119.248 213.95 118.192ZM209.774 121.408H218.846V132.664H217.214V122.8H211.31V132.712H209.774V121.408ZM213.566 123.976H215.078C215.006 132.904 214.55 136.24 208.31 138.016C208.166 137.608 207.758 137.032 207.446 136.72C213.254 135.16 213.494 132.4 213.566 123.976ZM214.19 134.008L215.222 133C216.83 134.152 218.918 135.784 219.95 136.84L218.87 137.992C217.862 136.912 215.822 135.208 214.19 134.008ZM203.87 118.84H208.214V120.352H203.87V118.84ZM197.678 123.328H208.79V124.936H197.678V123.328ZM203.126 115.84H204.734V124.24H203.126V115.84ZM199.478 117.952H200.966V124.24H199.478V117.952ZM207.014 126.736L208.574 127.096C207.23 132.568 204.278 136.096 198.854 138.016C198.662 137.56 198.278 136.984 197.894 136.624C203.006 135.016 205.766 131.752 207.014 126.736ZM199.91 126.472L201.446 126.808C200.894 128.776 199.982 130.816 198.95 132.136C198.662 131.896 198.014 131.488 197.63 131.272C198.638 130.048 199.43 128.248 199.91 126.472ZM202.67 124.6H204.326V132.232H202.67V124.6ZM228.206 118.912H243.47V120.424H228.206V118.912ZM234.758 119.584L236.774 119.752C236.39 120.976 235.934 122.296 235.574 123.16L234.086 122.872C234.326 121.936 234.638 120.52 234.758 119.584ZM238.934 115.84L240.758 116.296C240.086 117.4 239.366 118.576 238.742 119.368L237.23 118.96C237.806 118.096 238.55 116.752 238.934 115.84ZM230.75 116.464L232.166 115.912C232.91 116.704 233.654 117.832 233.918 118.624L232.454 119.272C232.19 118.48 231.47 117.304 230.75 116.464ZM227.006 125.32V133.816H225.254V127H221.894V125.32H227.006ZM227.006 133.024C228.134 134.8 230.27 135.616 233.03 135.736C235.646 135.832 241.046 135.76 243.878 135.568C243.686 136 243.374 136.864 243.302 137.416C240.662 137.512 235.694 137.56 233.03 137.464C229.91 137.344 227.75 136.504 226.214 134.608C225.062 135.64 223.838 136.672 222.542 137.728L221.582 135.88C222.734 135.112 224.15 134.056 225.374 133.024H227.006ZM222.158 117.52L223.478 116.44C225.062 117.448 226.862 119.008 227.702 120.184L226.286 121.36C225.518 120.208 223.718 118.576 222.158 117.52ZM231.806 127.024V129.016H239.798V127.024H231.806ZM231.806 130.336V132.352H239.798V130.336H231.806ZM231.806 123.712V125.704H239.798V123.712H231.806ZM230.102 122.32H241.574V133.744H230.102V122.32ZM247.886 119.704H255.182V135.4H247.886V133.768H253.502V121.312H247.886V119.704ZM246.806 119.704H248.486V137.32H246.806V119.704ZM247.766 126.376H254.39V127.984H247.766V126.376ZM250.478 115.792L252.422 116.152C251.942 117.64 251.342 119.296 250.862 120.376L249.422 120.016C249.83 118.864 250.286 117.04 250.478 115.792ZM258.59 119.632H265.958V121.312H258.59V119.632ZM265.334 119.632H267.014C267.014 119.632 267.014 120.304 267.014 120.568C266.63 131.584 266.294 135.304 265.334 136.48C264.806 137.176 264.254 137.392 263.414 137.464C262.598 137.56 261.182 137.512 259.838 137.44C259.79 136.912 259.574 136.168 259.238 135.688C260.798 135.808 262.238 135.832 262.79 135.832C263.27 135.832 263.558 135.76 263.822 135.448C264.614 134.584 264.998 130.6 265.334 120.016V119.632ZM259.094 115.744L260.822 116.152C259.934 119.728 258.518 123.256 256.862 125.536C256.55 125.248 255.806 124.744 255.374 124.504C257.006 122.392 258.326 119.08 259.094 115.744ZM257.99 125.872L259.382 125.056C260.75 126.76 262.406 129.088 263.174 130.504L261.638 131.464C260.918 130 259.31 127.624 257.99 125.872ZM271.19 120.64H290.27V122.416H271.19V120.64ZM272.294 127.696H289.262V129.448H272.294V127.696ZM270.086 135.352H291.47V137.128H270.086V135.352ZM279.758 122.056H281.702V136.264H279.758V122.056ZM277.694 116.944L279.158 115.936C280.718 117.04 282.662 118.672 283.598 119.824L282.038 120.952C281.174 119.824 279.278 118.12 277.694 116.944ZM293.822 128.968H315.662V130.48H293.822V128.968ZM294.398 116.896H315.062V118.48H294.398V116.896ZM302.15 126.448L303.902 126.928C302.342 129.424 300.134 132.568 298.598 134.536L296.894 133.96C298.43 132.016 300.662 128.8 302.15 126.448ZM309.35 129.496L311.078 130C308.966 135.28 303.854 137.248 294.854 137.92C294.734 137.392 294.446 136.744 294.158 136.336C302.726 135.88 307.43 134.176 309.35 129.496ZM298.19 133.72L299.102 132.4C305.03 133.456 311.198 135.064 314.918 136.528L313.838 137.992C310.166 136.48 304.286 134.848 298.19 133.72ZM300.95 117.496H302.654V125.872H300.95V117.496ZM306.542 117.496H308.246V125.872H306.542V117.496ZM297.278 122.008V125.272H312.254V122.008H297.278ZM295.598 120.544H314.054V126.76H295.598V120.544ZM318.278 122.968H338.942V124.528H318.278V122.968ZM320.126 118.696H333.758V120.208H320.126V118.696ZM326.246 115.84H328.022V123.736H326.246V115.84ZM335.246 126.064L336.422 127.288C333.398 128.104 328.718 128.656 324.806 128.944C324.758 128.584 324.542 128.008 324.374 127.696C328.166 127.36 332.726 126.76 335.246 126.064ZM336.518 116.968L337.982 117.784C333.134 123.664 325.838 128.128 318.446 130.96C318.206 130.6 317.654 129.88 317.294 129.544C324.782 126.952 332.006 122.488 336.518 116.968ZM324.11 126.112L325.886 126.328C325.382 128.656 324.662 131.608 324.11 133.408L322.31 133.168C322.91 131.344 323.654 128.344 324.11 126.112ZM334.574 130.72H336.398C336.398 130.72 336.35 131.248 336.302 131.536C335.726 135.088 335.198 136.672 334.406 137.368C333.902 137.824 333.398 137.944 332.558 137.968C331.814 138.016 330.398 137.992 328.91 137.896C328.862 137.416 328.646 136.72 328.334 136.24C329.846 136.384 331.406 136.408 331.982 136.408C332.486 136.408 332.774 136.384 333.014 136.192C333.614 135.712 334.118 134.248 334.55 130.96L334.574 130.72ZM323.846 130.72H335.054V132.232H323.462L323.846 130.72ZM343.598 117.4L344.822 116.32C346.046 117.328 347.606 118.792 348.35 119.728L347.078 121C346.382 119.992 344.846 118.48 343.598 117.4ZM345.014 137.32L344.75 135.712L345.278 134.968L349.646 132.16C349.766 132.616 349.958 133.312 350.126 133.672C346.046 136.456 345.398 136.864 345.014 137.32ZM341.942 123.376H346.19V125.128H341.942V123.376ZM349.046 120.856H363.758V122.584H349.046V120.856ZM349.814 126.064H356.246V127.744H349.814V126.064ZM352.31 127.024H353.966V134.32L352.31 134.512V127.024ZM349.358 134.56C351.23 134.08 354.038 133.312 356.798 132.544L357.038 134.128C354.518 134.896 351.878 135.664 349.862 136.24L349.358 134.56ZM359.39 116.92L360.614 116.152C361.622 117.16 362.774 118.552 363.278 119.488L361.958 120.376C361.478 119.44 360.374 117.976 359.39 116.92ZM356.822 115.96H358.646C358.718 126.496 359.726 135.4 361.622 135.496C362.054 135.52 362.342 134.152 362.486 131.824C362.822 132.184 363.614 132.64 363.926 132.808C363.446 136.84 362.51 137.872 361.574 137.848C357.95 137.776 357.086 128.512 356.822 115.96ZM345.014 137.32C344.87 136.864 344.414 136.096 344.102 135.736C344.534 135.472 345.254 134.776 345.254 133.768V123.376H346.982V135.328C346.982 135.328 345.014 136.648 345.014 137.32ZM366.254 131.608C366.158 131.224 365.846 130.312 365.63 129.832C366.182 129.736 366.758 129.136 367.526 128.272C368.39 127.432 371.03 124.12 372.758 120.904L374.39 121.912C372.35 125.128 369.902 128.32 367.502 130.6V130.648C367.502 130.648 366.254 131.224 366.254 131.608ZM366.254 131.608L366.158 130.096L367.118 129.472L374.27 128.296C374.27 128.776 374.318 129.472 374.39 129.856C367.67 131.08 366.806 131.296 366.254 131.608ZM366.086 125.776C365.966 125.368 365.678 124.456 365.438 123.976C365.894 123.856 366.326 123.328 366.83 122.536C367.358 121.768 369.086 118.792 370.07 116.008L371.894 116.752C370.646 119.656 368.942 122.656 367.31 124.72V124.768C367.31 124.768 366.086 125.368 366.086 125.776ZM366.086 125.776L366.038 124.408L366.95 123.856L372.014 123.4C371.918 123.856 371.87 124.552 371.87 124.912C367.262 125.416 366.518 125.56 366.086 125.776ZM365.582 134.752C367.79 134.368 371.126 133.696 374.342 133.024L374.486 134.704C371.462 135.4 368.27 136.048 365.894 136.6L365.582 134.752ZM374.534 119.056H387.35V120.808H374.534V119.056ZM375.134 124.528H386.942V126.256H375.134V124.528ZM376.718 135.232H385.43V136.888H376.718V135.232ZM380.054 115.84H381.926V125.416H380.054V115.84ZM375.758 128.704H386.366V137.824H384.542V130.36H377.51V137.92H375.758V128.704ZM390.542 118.408H410.966V120.088H390.542V118.408ZM399.758 115.864H401.63V137.92H399.758V115.864ZM399.59 128.68L401.102 129.352C398.798 132.664 394.67 135.616 390.95 137.128C390.662 136.672 390.11 136 389.678 135.616C393.398 134.344 397.478 131.56 399.59 128.68ZM401.918 128.728C404.006 131.632 408.134 134.344 411.926 135.592C411.494 135.976 410.918 136.672 410.63 137.152C406.838 135.664 402.734 132.664 400.43 129.376L401.918 128.728ZM393.95 124.336V128.008H407.51V124.336H393.95ZM392.198 122.728H409.334V129.64H392.198V122.728ZM417.254 122.512H435.83V124.24H417.254V122.512ZM421.094 135.016H432.542V136.72H421.094V135.016ZM416.318 117.688L418.622 118.144C418.598 118.336 418.454 118.432 418.118 118.48V124.456C418.118 128.344 417.758 133.984 414.902 137.968C414.638 137.56 413.966 136.96 413.486 136.744C416.054 133.096 416.318 128.128 416.318 124.432V117.688ZM432.326 116.056L433.838 117.472C429.47 118.6 422.87 119.344 417.23 119.728C417.182 119.272 416.918 118.576 416.75 118.192C422.27 117.784 428.726 116.992 432.326 116.056ZM420.206 127.672H433.742V137.92H431.918V129.352H421.934V137.944H420.206V127.672ZM440.51 138.568L439.958 137.32C441.926 136.504 443.006 135.28 443.006 133.48L442.55 131.44L443.846 133.264C443.51 133.696 443.03 133.816 442.574 133.816C441.59 133.816 440.774 133.24 440.774 132.088C440.774 130.96 441.638 130.36 442.598 130.36C443.942 130.36 444.662 131.464 444.662 133.144C444.662 135.736 443.03 137.704 440.51 138.568ZM468.926 127.288H483.758V128.968H468.926V127.288ZM478.694 125.368H480.47V135.736C480.47 136.792 480.254 137.32 479.486 137.608C478.718 137.896 477.446 137.92 475.55 137.92C475.478 137.416 475.214 136.672 474.95 136.144C476.438 136.192 477.782 136.192 478.214 136.168C478.598 136.144 478.694 136.072 478.694 135.712V125.368ZM481.118 115.84L482.366 117.232C478.934 118.264 473.678 119.08 469.214 119.536C469.142 119.128 468.926 118.48 468.71 118.096C473.102 117.592 478.214 116.752 481.118 115.84ZM469.574 120.784L471.086 120.28C471.854 121.648 472.622 123.472 472.862 124.648L471.254 125.224C471.014 124.072 470.318 122.176 469.574 120.784ZM474.278 119.848L475.886 119.464C476.462 120.88 476.966 122.656 477.062 123.784L475.358 124.24C475.286 123.088 474.83 121.264 474.278 119.848ZM470.846 130.744L472.334 129.952C473.582 131.176 474.95 132.952 475.55 134.152L473.99 135.064C473.462 133.84 472.094 132.016 470.846 130.744ZM466.19 115.864H467.918V137.92H466.19V115.864ZM461.342 131.56C462.686 130.864 464.702 129.664 466.67 128.464L467.246 129.976C465.542 131.176 463.766 132.4 462.254 133.408L461.342 131.56ZM461.606 119.608L463.07 118.912C464.222 120.424 465.398 122.464 465.854 123.784L464.294 124.624C463.862 123.256 462.71 121.168 461.606 119.608ZM481.694 119.176L483.326 119.992C482.03 122.008 480.278 124.312 478.91 125.872L477.518 125.08C478.862 123.52 480.686 121.048 481.694 119.176ZM494.75 124.552L496.862 125.08C495.35 128.704 493.262 133.192 491.486 136.096L489.83 135.568C491.534 132.616 493.622 127.936 494.75 124.552ZM486.878 135.016C491.27 134.872 498.254 134.584 504.686 134.272L504.638 136C498.35 136.36 491.63 136.72 487.118 136.912L486.878 135.016ZM499.358 129.808L501.086 129.016C503.27 131.536 505.742 134.872 506.942 137.056L505.118 138.04C503.99 135.856 501.494 132.352 499.358 129.808ZM492.326 116.56L494.318 117.112C492.71 120.976 490.19 124.648 487.646 127.024C487.262 126.664 486.422 126.016 485.918 125.728C488.558 123.568 490.934 120.112 492.326 116.56ZM500.918 116.536C502.502 119.68 505.526 123.472 507.734 125.464C507.254 125.848 506.582 126.544 506.222 127C503.99 124.72 500.99 120.64 499.142 117.28L500.918 116.536ZM510.182 119.536H531.326V121.264H510.182V119.536ZM520.958 122.44H522.782V137.944H520.958V122.44ZM514.07 125.656H528.974V127.384H515.846V135.688H514.07V125.656ZM528.182 125.656H530.006V133.432C530.006 134.368 529.79 134.896 529.022 135.184C528.278 135.448 527.006 135.472 524.966 135.448C524.87 134.968 524.606 134.296 524.342 133.816C525.878 133.864 527.27 133.864 527.654 133.84C528.062 133.816 528.182 133.72 528.182 133.408V125.656ZM518.318 115.84L520.166 116.272C518.438 121.864 515.438 127.504 510.542 130.936C510.302 130.504 509.822 129.784 509.462 129.4C513.998 126.304 516.902 120.904 518.318 115.84ZM533.99 135.688H555.518V137.176H533.99V135.688ZM534.11 120.112H555.374V121.6H534.11V120.112ZM535.766 132.184H553.982V133.624H535.766V132.184ZM543.734 117.688H545.534V136.408H543.734V117.688ZM552.086 115.984L553.046 117.376C548.75 118.168 541.91 118.576 536.294 118.696C536.294 118.264 536.078 117.64 535.91 117.256C541.502 117.112 548.294 116.68 552.086 115.984ZM538.286 127.36V129.208H551.27V127.36H538.286ZM538.286 124.336V126.16H551.27V124.336H538.286ZM536.534 123.04H553.094V130.504H536.534V123.04ZM558.278 122.968H578.942V124.528H558.278V122.968ZM560.126 118.696H573.758V120.208H560.126V118.696ZM566.246 115.84H568.022V123.736H566.246V115.84ZM575.246 126.064L576.422 127.288C573.398 128.104 568.718 128.656 564.806 128.944C564.758 128.584 564.542 128.008 564.374 127.696C568.166 127.36 572.726 126.76 575.246 126.064ZM576.518 116.968L577.982 117.784C573.134 123.664 565.838 128.128 558.446 130.96C558.206 130.6 557.654 129.88 557.294 129.544C564.782 126.952 572.006 122.488 576.518 116.968ZM564.11 126.112L565.886 126.328C565.382 128.656 564.662 131.608 564.11 133.408L562.31 133.168C562.91 131.344 563.654 128.344 564.11 126.112ZM574.574 130.72H576.398C576.398 130.72 576.35 131.248 576.302 131.536C575.726 135.088 575.198 136.672 574.406 137.368C573.902 137.824 573.398 137.944 572.558 137.968C571.814 138.016 570.398 137.992 568.91 137.896C568.862 137.416 568.646 136.72 568.334 136.24C569.846 136.384 571.406 136.408 571.982 136.408C572.486 136.408 572.774 136.384 573.014 136.192C573.614 135.712 574.118 134.248 574.55 130.96L574.574 130.72ZM563.846 130.72H575.054V132.232H563.462L563.846 130.72ZM583.55 117.856H590.198V133.48H583.55V131.848H588.518V119.488H583.55V117.856ZM583.646 124.744H589.142V126.352H583.646V124.744ZM582.686 117.856H584.39V135.4H582.686V117.856ZM591.278 120.664H603.806V122.44H591.278V120.664ZM599.078 115.984H600.902V135.208C600.902 136.528 600.542 137.08 599.678 137.368C598.814 137.656 597.302 137.704 594.878 137.68C594.782 137.176 594.494 136.36 594.23 135.856C596.102 135.904 597.854 135.904 598.382 135.88C598.886 135.856 599.078 135.712 599.078 135.208V115.984ZM592.094 125.152L593.582 124.384C594.878 126.208 596.534 128.656 597.35 130.096L595.766 131.032C594.998 129.568 593.39 127 592.094 125.152ZM606.926 121.264H608.75V137.944H606.926V121.264ZM607.262 117.016L608.654 116.176C609.782 117.16 611.078 118.6 611.678 119.584L610.166 120.568C609.638 119.584 608.366 118.096 607.262 117.016ZM613.166 117.208H625.814V118.888H613.166V117.208ZM624.782 117.208H626.63V135.736C626.63 136.744 626.438 137.224 625.814 137.512C625.166 137.8 624.134 137.824 622.646 137.824C622.574 137.368 622.334 136.624 622.094 136.144C623.102 136.192 624.086 136.168 624.374 136.168C624.71 136.168 624.782 136.048 624.782 135.736V117.208ZM613.814 128.92V132.16H619.598V128.92H613.814ZM613.814 124.216V127.432H619.598V124.216H613.814ZM612.182 122.728H621.302V133.672H612.182V122.728ZM631.118 117.856H650.39V119.416H631.118V117.856ZM632.222 121.384H649.454V122.896H632.222V121.384ZM630.23 125.056H651.206V126.64H630.23V125.056ZM639.758 115.84H641.582V126.28H639.758V115.84ZM639.686 125.584L641.246 126.328C638.75 129.064 634.31 131.584 630.59 132.808C630.302 132.352 629.798 131.68 629.414 131.32C633.11 130.264 637.454 127.96 639.686 125.584ZM642.302 125.824C643.742 130.96 646.862 134.752 651.95 136.264C651.542 136.624 651.038 137.368 650.774 137.848C645.47 136.024 642.326 131.968 640.67 126.16L642.302 125.824ZM649.142 127.432L650.582 128.56C648.878 129.928 646.598 131.392 644.87 132.352L643.766 131.368C645.446 130.36 647.774 128.704 649.142 127.432ZM632.078 136.264C634.838 135.664 639.158 134.584 643.262 133.576L643.43 135.184C639.638 136.168 635.534 137.2 632.654 137.92L632.078 136.264ZM635.462 130.048L636.758 128.752L637.262 128.896V136.144H635.462V130.048ZM656.134 136.162C655.668 136.162 655.268 135.997 654.933 135.668C654.597 135.332 654.43 134.929 654.43 134.457C654.43 133.991 654.597 133.594 654.933 133.264C655.268 132.929 655.668 132.761 656.134 132.761C656.6 132.761 657.001 132.929 657.336 133.264C657.671 133.594 657.839 133.991 657.839 134.457C657.839 134.77 657.759 135.057 657.6 135.318C657.447 135.574 657.242 135.778 656.987 135.932C656.731 136.085 656.447 136.162 656.134 136.162ZM656.134 126.634C655.668 126.634 655.268 126.466 654.933 126.131C654.597 125.795 654.43 125.395 654.43 124.929C654.43 124.463 654.597 124.065 654.933 123.736C655.268 123.401 655.668 123.233 656.134 123.233C656.6 123.233 657.001 123.401 657.336 123.736C657.671 124.065 657.839 124.463 657.839 124.929C657.839 125.241 657.759 125.528 657.6 125.79C657.447 126.045 657.242 126.25 656.987 126.403C656.731 126.557 656.447 126.634 656.134 126.634ZM55.232 199.864L56.888 200.272C55.952 202.84 54.392 205.288 52.712 206.92C52.448 206.608 51.776 206.032 51.368 205.768C53 204.352 54.416 202.168 55.232 199.864ZM55.136 205.912L56.816 206.344C56.072 208.24 54.824 210.112 53.624 211.36C53.288 211.096 52.568 210.64 52.16 210.424C53.408 209.272 54.488 207.592 55.136 205.912ZM54.992 202.216H65.408V203.8H54.368L54.992 202.216ZM58.52 203.296H60.248V211.648C60.248 212.56 60.08 213.04 59.408 213.304C58.784 213.568 57.8 213.592 56.288 213.592C56.192 213.112 55.952 212.44 55.688 211.984C56.816 212.032 57.824 212.032 58.136 212.008C58.448 211.984 58.52 211.912 58.52 211.648V203.296ZM61.568 206.44L63.056 205.792C64.232 207.352 65.408 209.464 65.912 210.856L64.352 211.6C63.872 210.184 62.696 208 61.568 206.44ZM64.904 202.216H65.192L65.48 202.168L66.728 202.48C66.128 203.992 65.384 205.744 64.808 206.8L63.248 206.488C63.8 205.48 64.448 203.824 64.904 202.48V202.216ZM51.176 214.768H52.952V219.112C52.952 219.76 53.192 219.88 54.464 219.88C55.064 219.88 58.064 219.88 58.856 219.88C59.912 219.88 60.08 219.568 60.2 217.192C60.584 217.504 61.304 217.768 61.808 217.888C61.592 220.792 61.04 221.512 58.976 221.512C58.424 221.512 54.848 221.512 54.32 221.512C51.824 221.512 51.176 221.008 51.176 219.112V214.768ZM53.24 214.048L54.44 212.968C55.976 213.712 57.824 214.936 58.688 215.896L57.392 217.072C56.576 216.112 54.8 214.816 53.24 214.048ZM61.136 215.512L62.624 214.672C64.4 216.184 66.272 218.344 67.016 219.976L65.408 220.888C64.712 219.304 62.936 217.048 61.136 215.512ZM48.248 215.056L49.856 215.584C49.256 217.744 48.32 219.88 46.424 221.152L44.936 220.12C46.712 218.992 47.744 217.072 48.248 215.056ZM50.552 199.84L52.16 200.392C50.6 203.368 48.176 206.32 45.848 208.216C45.632 207.856 45.032 207.136 44.672 206.824C46.928 205.12 49.184 202.48 50.552 199.84ZM48.344 204.352L50.048 202.648L50.072 202.672V213.568H48.344V204.352ZM71.216 200.824H88.76V202.264H71.216V200.824ZM69.536 211.456H90.512V212.92H69.536V211.456ZM72.632 206.296H77.816V207.52H72.632V206.296ZM72.128 208.816H77.816V210.04H72.128V208.816ZM82.04 208.816H87.92V210.04H82.04V208.816ZM82.04 206.296H87.344V207.52H82.04V206.296ZM79.04 201.376H80.792V210.664H79.04V201.376ZM76.664 215.584H78.344V221.752H76.664V215.584ZM81.992 215.584H83.648V221.752H81.992V215.584ZM69.824 203.656H90.2V208.264H88.496V204.976H71.456V208.264H69.824V203.656ZM71.408 214.648H87.872V216.136H73.112V221.896H71.408V214.648ZM87.416 214.648H89.144V220.144C89.144 220.96 89.024 221.392 88.4 221.656C87.8 221.944 86.912 221.92 85.592 221.92C85.52 221.488 85.256 220.864 85.04 220.432C86 220.456 86.816 220.456 87.08 220.432C87.344 220.408 87.416 220.336 87.416 220.12V214.648ZM79.064 212.008L81.032 212.08C80.6 213.376 80.096 214.696 79.688 215.584L78.104 215.416C78.464 214.432 78.896 212.992 79.064 212.008ZM93.08 212.968H114.92V214.48H93.08V212.968ZM93.656 200.896H114.32V202.48H93.656V200.896ZM101.408 210.448L103.16 210.928C101.6 213.424 99.392 216.568 97.856 218.536L96.152 217.96C97.688 216.016 99.92 212.8 101.408 210.448ZM108.608 213.496L110.336 214C108.224 219.28 103.112 221.248 94.112 221.92C93.992 221.392 93.704 220.744 93.416 220.336C101.984 219.88 106.688 218.176 108.608 213.496ZM97.448 217.72L98.36 216.4C104.288 217.456 110.456 219.064 114.176 220.528L113.096 221.992C109.424 220.48 103.544 218.848 97.448 217.72ZM100.208 201.496H101.912V209.872H100.208V201.496ZM105.8 201.496H107.504V209.872H105.8V201.496ZM96.536 206.008V209.272H111.512V206.008H96.536ZM94.856 204.544H113.312V210.76H94.856V204.544ZM116.936 214.432H139.088V216.112H116.936V214.432ZM117.824 201.304H138.2V202.984H117.824V201.304ZM120.968 209.872H135.08V211.456H120.968V209.872ZM134.384 205.336H136.16V219.712C136.16 220.816 135.92 221.368 135.104 221.656C134.336 221.944 132.992 221.968 130.904 221.968C130.808 221.488 130.52 220.696 130.256 220.24C131.84 220.288 133.376 220.264 133.808 220.24C134.24 220.24 134.384 220.12 134.384 219.712V205.336ZM119.792 205.336H135.128V206.992H121.568V221.968H119.792V205.336ZM126.992 201.832H128.792V215.056H126.992V201.832ZM150.68 199.912L152.552 200.248C151.592 204.4 150.008 208.312 148.064 210.856C147.704 210.568 146.84 210.088 146.336 209.848C148.376 207.496 149.84 203.752 150.68 199.912ZM154.64 205.792H155.552V209.008C155.552 211.144 156.728 217.504 163.256 220.312C162.92 220.744 162.368 221.488 162.08 221.92C157.04 219.616 155 214.648 154.616 212.392C154.208 214.672 152.024 219.496 146.216 221.92C146 221.536 145.448 220.792 145.112 220.456C152.432 217.576 153.68 211.288 153.68 209.008V205.792H154.64ZM140.888 216.976C142.28 215.68 144.464 213.472 146.504 211.336L147.488 212.896C145.712 214.816 143.696 216.904 142.064 218.464L140.888 216.976ZM141.656 202.744L142.928 201.448C144.488 202.456 146.432 203.968 147.368 205L146.024 206.464C145.112 205.408 143.216 203.824 141.656 202.744ZM150.728 204.184H161.528V205.96H149.912L150.728 204.184ZM160.904 204.184H161.192L161.528 204.064L162.848 204.808C162.224 207.112 161.096 209.608 160.208 211.216C159.824 211 159.128 210.64 158.672 210.448C159.464 209.008 160.496 206.464 160.904 204.616V204.184ZM171.536 206.536H180.44V208.096H171.536V206.536ZM165.56 219.856H186.464V221.368H165.56V219.856ZM167 200.776H174.104V202.288H167V200.776ZM173.528 200.776H173.84L174.176 200.68L175.328 201.28C173.528 205.888 169.52 209.32 165.704 211.096C165.464 210.712 164.984 210.088 164.624 209.776C168.152 208.288 172.04 204.928 173.528 201.112V200.776ZM177.584 199.912C179.432 203.992 183.104 207.712 187.256 209.32C186.824 209.68 186.32 210.328 186.032 210.808C181.784 208.888 178.112 204.976 176.072 200.416L177.584 199.912ZM166.352 204.16L167.312 203.176C168.584 203.896 170.072 205 170.768 205.864L169.76 206.968C169.04 206.128 167.6 204.928 166.352 204.16ZM182.408 200.056L183.776 201.016C182.528 202.192 180.872 203.488 179.624 204.328L178.52 203.464C179.744 202.576 181.448 201.112 182.408 200.056ZM185.096 202.888L186.44 203.848C185.168 205.048 183.44 206.344 182.12 207.16L181.016 206.296C182.312 205.432 184.088 203.968 185.096 202.888ZM171.104 211.552V214.72H180.824V211.552H171.104ZM169.328 210.064H182.672V216.208H169.328V210.064ZM170.72 216.592L172.376 216.136C173.048 217.168 173.672 218.584 173.912 219.52L172.208 220.048C171.968 219.112 171.368 217.648 170.72 216.592ZM179.648 216.064L181.4 216.544C180.752 217.816 180.032 219.136 179.432 220.072L177.896 219.616C178.496 218.68 179.264 217.12 179.648 216.064ZM189.584 208.936H210.56V210.544H189.584V208.936ZM199.04 209.752H200.888V219.976C200.888 221.008 200.624 221.464 199.856 221.704C199.112 221.968 197.912 221.992 196.04 221.968C195.92 221.512 195.656 220.864 195.416 220.384C196.808 220.456 198.152 220.456 198.56 220.432C198.944 220.408 199.04 220.288 199.04 219.952V209.752ZM200.672 210.784C202.4 214.912 206.072 218.128 210.872 219.424C210.464 219.784 209.936 220.48 209.672 220.984C204.776 219.424 201.176 215.92 199.208 211.216L200.672 210.784ZM207.416 211.12L208.952 212.248C207.344 213.64 205.232 215.152 203.624 216.136L202.376 215.128C203.984 214.12 206.144 212.416 207.416 211.12ZM191.216 212.392L192.416 211.288C193.928 212.128 195.896 213.376 196.856 214.312L195.584 215.56C194.672 214.624 192.776 213.28 191.216 212.392ZM189.632 218.704C192.08 217.792 196.016 216.208 199.664 214.696L200.024 216.232C196.736 217.672 193.208 219.208 190.592 220.312L189.632 218.704ZM191.936 205.072H206.312V206.728H191.936V205.072ZM205.784 201.184H205.976L206.312 201.112L207.728 201.208C207.656 203.776 207.44 207.256 207.2 209.872L205.352 209.776C205.568 207.112 205.736 203.344 205.784 201.424V201.184ZM191.216 201.184H206.288V202.864H191.216V201.184ZM216.551 202.545V220H213.918V202.545H216.551ZM219.526 204.812V202.545H233.034V204.812H227.588V220H224.963V204.812H219.526ZM242.371 202.545H245.567L251.124 216.114H251.328L256.885 202.545H260.081V220H257.575V207.369H257.413L252.266 219.974H250.186L245.038 207.361H244.876V220H242.371V202.545ZM279.072 211.273C279.072 213.136 278.731 214.739 278.049 216.08C277.367 217.415 276.433 218.443 275.245 219.165C274.063 219.881 272.719 220.239 271.214 220.239C269.702 220.239 268.353 219.881 267.165 219.165C265.984 218.443 265.052 217.412 264.37 216.071C263.688 214.73 263.347 213.131 263.347 211.273C263.347 209.409 263.688 207.81 264.37 206.474C265.052 205.134 265.984 204.105 267.165 203.389C268.353 202.668 269.702 202.307 271.214 202.307C272.719 202.307 274.063 202.668 275.245 203.389C276.433 204.105 277.367 205.134 278.049 206.474C278.731 207.81 279.072 209.409 279.072 211.273ZM276.464 211.273C276.464 209.852 276.234 208.656 275.773 207.685C275.319 206.707 274.694 205.969 273.898 205.469C273.109 204.963 272.214 204.71 271.214 204.71C270.208 204.71 269.31 204.963 268.521 205.469C267.731 205.969 267.106 206.707 266.646 207.685C266.191 208.656 265.964 209.852 265.964 211.273C265.964 212.693 266.191 213.892 266.646 214.869C267.106 215.841 267.731 216.58 268.521 217.085C269.31 217.585 270.208 217.835 271.214 217.835C272.214 217.835 273.109 217.585 273.898 217.085C274.694 216.58 275.319 215.841 275.773 214.869C276.234 213.892 276.464 212.693 276.464 211.273ZM288.502 224.909V206.909H290.991V209.031H291.204C291.352 208.759 291.565 208.443 291.843 208.085C292.121 207.727 292.508 207.415 293.002 207.148C293.496 206.875 294.15 206.739 294.962 206.739C296.019 206.739 296.962 207.006 297.792 207.54C298.621 208.074 299.272 208.844 299.744 209.849C300.221 210.855 300.46 212.065 300.46 213.48C300.46 214.895 300.224 216.108 299.752 217.119C299.281 218.125 298.633 218.901 297.809 219.446C296.985 219.986 296.045 220.256 294.988 220.256C294.192 220.256 293.542 220.122 293.036 219.855C292.536 219.588 292.144 219.276 291.86 218.918C291.576 218.56 291.357 218.241 291.204 217.963H291.05V224.909H288.502ZM290.999 213.455C290.999 214.375 291.133 215.182 291.4 215.875C291.667 216.568 292.053 217.111 292.559 217.503C293.065 217.889 293.684 218.082 294.417 218.082C295.178 218.082 295.815 217.881 296.326 217.477C296.837 217.068 297.224 216.514 297.485 215.815C297.752 215.116 297.886 214.33 297.886 213.455C297.886 212.591 297.755 211.815 297.494 211.128C297.238 210.44 296.852 209.898 296.335 209.5C295.823 209.102 295.184 208.903 294.417 208.903C293.678 208.903 293.053 209.094 292.542 209.474C292.036 209.855 291.653 210.386 291.391 211.068C291.13 211.75 290.999 212.545 290.999 213.455ZM303.315 220V206.909H305.778V208.989H305.914C306.153 208.284 306.573 207.73 307.175 207.327C307.783 206.918 308.471 206.713 309.238 206.713C309.397 206.713 309.585 206.719 309.8 206.73C310.022 206.741 310.195 206.756 310.32 206.773V209.21C310.218 209.182 310.036 209.151 309.775 209.116C309.513 209.077 309.252 209.057 308.991 209.057C308.388 209.057 307.852 209.185 307.38 209.44C306.914 209.69 306.545 210.04 306.272 210.489C305.999 210.932 305.863 211.437 305.863 212.006V220H303.315ZM317.571 220.264C316.344 220.264 315.273 219.983 314.358 219.42C313.443 218.858 312.733 218.071 312.227 217.06C311.722 216.048 311.469 214.866 311.469 213.514C311.469 212.156 311.722 210.969 312.227 209.952C312.733 208.935 313.443 208.145 314.358 207.582C315.273 207.02 316.344 206.739 317.571 206.739C318.798 206.739 319.869 207.02 320.784 207.582C321.699 208.145 322.409 208.935 322.915 209.952C323.42 210.969 323.673 212.156 323.673 213.514C323.673 214.866 323.42 216.048 322.915 217.06C322.409 218.071 321.699 218.858 320.784 219.42C319.869 219.983 318.798 220.264 317.571 220.264ZM317.58 218.125C318.375 218.125 319.034 217.915 319.557 217.494C320.08 217.074 320.466 216.514 320.716 215.815C320.972 215.116 321.099 214.347 321.099 213.506C321.099 212.67 320.972 211.903 320.716 211.205C320.466 210.5 320.08 209.935 319.557 209.509C319.034 209.082 318.375 208.869 317.58 208.869C316.778 208.869 316.114 209.082 315.585 209.509C315.063 209.935 314.673 210.5 314.418 211.205C314.168 211.903 314.043 212.67 314.043 213.506C314.043 214.347 314.168 215.116 314.418 215.815C314.673 216.514 315.063 217.074 315.585 217.494C316.114 217.915 316.778 218.125 317.58 218.125ZM332.032 220.264C330.765 220.264 329.674 219.977 328.759 219.403C327.85 218.824 327.151 218.026 326.663 217.009C326.174 215.991 325.93 214.827 325.93 213.514C325.93 212.185 326.18 211.011 326.68 209.994C327.18 208.972 327.884 208.173 328.793 207.599C329.702 207.026 330.773 206.739 332.006 206.739C333.001 206.739 333.887 206.923 334.665 207.293C335.444 207.656 336.072 208.168 336.549 208.827C337.032 209.486 337.319 210.256 337.41 211.136H334.93C334.793 210.523 334.481 209.994 333.992 209.551C333.509 209.108 332.862 208.886 332.049 208.886C331.339 208.886 330.717 209.074 330.183 209.449C329.654 209.818 329.242 210.347 328.947 211.034C328.651 211.716 328.504 212.523 328.504 213.455C328.504 214.409 328.648 215.233 328.938 215.926C329.228 216.619 329.637 217.156 330.165 217.537C330.7 217.918 331.327 218.108 332.049 218.108C332.532 218.108 332.969 218.02 333.362 217.844C333.759 217.662 334.092 217.403 334.359 217.068C334.631 216.733 334.822 216.33 334.93 215.858H337.41C337.319 216.705 337.043 217.46 336.583 218.125C336.123 218.79 335.506 219.312 334.734 219.693C333.967 220.074 333.066 220.264 332.032 220.264ZM346.246 206.909V208.955H339.095V206.909H346.246ZM341.013 203.773H343.561V216.156C343.561 216.651 343.635 217.023 343.783 217.273C343.93 217.517 344.121 217.685 344.354 217.776C344.592 217.861 344.851 217.903 345.129 217.903C345.334 217.903 345.513 217.889 345.666 217.861C345.82 217.832 345.939 217.81 346.024 217.793L346.484 219.898C346.337 219.955 346.126 220.011 345.854 220.068C345.581 220.131 345.24 220.165 344.831 220.17C344.161 220.182 343.536 220.062 342.956 219.812C342.376 219.562 341.908 219.176 341.55 218.653C341.192 218.131 341.013 217.474 341.013 216.685V203.773ZM354.438 220.264C353.211 220.264 352.14 219.983 351.225 219.42C350.31 218.858 349.6 218.071 349.094 217.06C348.589 216.048 348.336 214.866 348.336 213.514C348.336 212.156 348.589 210.969 349.094 209.952C349.6 208.935 350.31 208.145 351.225 207.582C352.14 207.02 353.211 206.739 354.438 206.739C355.665 206.739 356.737 207.02 357.651 207.582C358.566 208.145 359.276 208.935 359.782 209.952C360.288 210.969 360.54 212.156 360.54 213.514C360.54 214.866 360.288 216.048 359.782 217.06C359.276 218.071 358.566 218.858 357.651 219.42C356.737 219.983 355.665 220.264 354.438 220.264ZM354.447 218.125C355.242 218.125 355.901 217.915 356.424 217.494C356.947 217.074 357.333 216.514 357.583 215.815C357.839 215.116 357.967 214.347 357.967 213.506C357.967 212.67 357.839 211.903 357.583 211.205C357.333 210.5 356.947 209.935 356.424 209.509C355.901 209.082 355.242 208.869 354.447 208.869C353.646 208.869 352.981 209.082 352.452 209.509C351.93 209.935 351.54 210.5 351.285 211.205C351.035 211.903 350.91 212.67 350.91 213.506C350.91 214.347 351.035 215.116 351.285 215.815C351.54 216.514 351.93 217.074 352.452 217.494C352.981 217.915 353.646 218.125 354.447 218.125ZM363.385 220V206.909H365.848V208.989H365.984C366.223 208.284 366.643 207.73 367.246 207.327C367.854 206.918 368.541 206.713 369.308 206.713C369.467 206.713 369.655 206.719 369.871 206.73C370.092 206.741 370.266 206.756 370.391 206.773V209.21C370.288 209.182 370.107 209.151 369.845 209.116C369.584 209.077 369.322 209.057 369.061 209.057C368.459 209.057 367.922 209.185 367.45 209.44C366.984 209.69 366.615 210.04 366.342 210.489C366.07 210.932 365.933 211.437 365.933 212.006V220H363.385ZM373.019 204.808H392.891V206.536H373.019V204.808ZM372.131 211.744H393.659V213.472H372.131V211.744ZM386.267 205.696H388.115V221.92H386.267V205.696ZM377.723 205.696H379.499V211.168C379.499 215.152 378.827 219.304 373.355 222.112C373.115 221.68 372.515 221.056 372.131 220.72C377.147 218.2 377.723 214.576 377.723 211.144V205.696ZM376.091 200.488L377.675 199.864C378.731 201.136 379.811 202.888 380.267 204.04L378.587 204.784C378.179 203.632 377.123 201.808 376.091 200.488ZM387.875 199.792L389.891 200.416C388.955 201.904 387.875 203.632 386.987 204.712L385.427 204.136C386.291 202.96 387.323 201.112 387.875 199.792ZM406.283 208.888H415.787V210.544H406.283V208.888ZM408.971 209.776C410.579 214.384 413.843 218.56 417.995 220.336C417.563 220.696 417.011 221.392 416.723 221.872C412.451 219.76 409.187 215.344 407.411 210.208L408.971 209.776ZM415.307 208.888H415.643L415.979 208.816L417.131 209.2C415.979 214.672 412.931 219.448 408.179 221.968C407.891 221.56 407.363 221.008 406.955 220.648C411.443 218.392 414.347 213.928 415.307 209.272V208.888ZM414.563 200.656H416.387C416.387 200.656 416.363 201.16 416.339 201.424C416.219 204.808 416.003 206.2 415.475 206.728C415.043 207.184 414.491 207.304 413.699 207.376C412.955 207.4 411.419 207.4 409.811 207.304C409.787 206.848 409.595 206.224 409.331 205.792C410.891 205.936 412.475 205.936 412.955 205.936C413.459 205.936 413.723 205.912 413.939 205.744C414.275 205.408 414.419 204.136 414.563 200.92V200.656ZM395.651 212.56C397.763 212.032 400.907 211.144 403.931 210.28L404.123 212.008C401.363 212.872 398.387 213.76 396.131 214.384L395.651 212.56ZM395.987 204.688H403.955V206.464H395.987V204.688ZM399.419 199.864H401.243V219.688C401.243 220.816 400.955 221.32 400.259 221.584C399.539 221.896 398.411 221.92 396.515 221.92C396.443 221.464 396.179 220.696 395.915 220.216C397.259 220.264 398.507 220.24 398.867 220.216C399.275 220.216 399.419 220.096 399.419 219.688V199.864ZM405.035 200.656H415.115V202.36H406.811V221.872H405.035V200.656ZM427.619 219.304H439.211V220.96H427.619V219.304ZM426.803 202.264H435.611V203.872H426.803V202.264ZM427.883 199.768L429.899 200.176C428.099 203.296 425.219 206.56 421.043 209.032C420.779 208.576 420.179 207.952 419.771 207.64C423.731 205.48 426.491 202.384 427.883 199.768ZM435.011 202.264H435.347L435.683 202.168L436.883 202.816C434.003 210.064 427.235 214.888 420.707 217C420.491 216.52 420.035 215.776 419.651 215.392C425.867 213.592 432.515 208.888 435.011 202.576V202.264ZM423.803 206.536L425.147 205.384C427.043 206.68 429.347 208.6 430.451 209.968L428.987 211.264C427.979 209.896 425.699 207.88 423.803 206.536ZM438.323 211.72H440.171V221.968H438.323V211.72ZM428.435 211.72H439.235V213.376H428.435V221.92H426.635V213.136L428.075 211.72H428.435ZM451.667 199.84L453.611 200.392C452.531 202 451.187 203.848 450.107 205.048L448.643 204.496C449.675 203.248 450.971 201.256 451.667 199.84ZM457.427 201.712L458.819 200.848C461.003 202.216 463.667 204.304 464.963 205.792L463.451 206.776C462.227 205.312 459.635 203.152 457.427 201.712ZM445.043 204.016C449.291 203.944 456.107 203.8 462.443 203.608L462.371 205.12C456.227 205.36 449.627 205.576 445.259 205.672L445.043 204.016ZM444.131 207.64H465.659V209.2H444.131V207.64ZM455.579 210.352L456.995 211.048C455.195 212.416 452.339 213.568 449.915 214.24C449.675 213.904 449.243 213.424 448.859 213.136C451.163 212.56 454.043 211.48 455.579 210.352ZM458.075 213.136L459.515 213.832C457.187 215.752 453.299 217.168 449.747 217.984C449.531 217.6 449.123 217.024 448.739 216.688C452.123 216.016 456.011 214.72 458.075 213.136ZM461.195 215.848L462.755 216.592C459.827 219.64 454.331 221.272 448.235 222.064C448.043 221.608 447.707 220.984 447.371 220.576C453.203 219.928 458.555 218.464 461.195 215.848ZM452.651 204.832L454.427 205.288C452.507 209.992 448.955 213.304 444.635 215.344C444.395 215.008 443.723 214.288 443.315 213.952C447.611 212.176 450.995 209.08 452.651 204.832ZM458.699 207.976C460.235 210.4 463.307 212.704 466.187 213.808C465.779 214.144 465.251 214.816 464.987 215.224C462.035 213.904 458.915 211.336 457.187 208.576L458.699 207.976ZM481.403 218.056H487.931V219.808H481.403V218.056ZM468.155 204.4H477.371V206.152H468.155V204.4ZM480.587 202.84H488.795V221.392H486.971V204.568H482.339V221.56H480.587V202.84ZM476.891 204.4H478.643C478.643 204.4 478.643 205.072 478.643 205.312C478.451 215.992 478.283 219.496 477.515 220.552C477.083 221.176 476.651 221.392 475.931 221.464C475.259 221.56 474.155 221.56 473.075 221.488C473.051 220.96 472.859 220.168 472.547 219.664C473.675 219.76 474.707 219.76 475.163 219.76C475.523 219.784 475.739 219.712 475.955 219.4C476.507 218.656 476.723 215.104 476.891 204.832V204.4ZM471.563 200.176H473.315C473.291 209.032 473.171 217.36 468.947 221.944C468.635 221.536 468.011 220.984 467.555 220.72C471.563 216.496 471.539 208.576 471.563 200.176ZM492.419 206.968H513.083V208.528H492.419V206.968ZM494.267 202.696H507.899V204.208H494.267V202.696ZM500.387 199.84H502.163V207.736H500.387V199.84ZM509.387 210.064L510.563 211.288C507.539 212.104 502.859 212.656 498.947 212.944C498.899 212.584 498.683 212.008 498.515 211.696C502.307 211.36 506.867 210.76 509.387 210.064ZM510.659 200.968L512.123 201.784C507.275 207.664 499.979 212.128 492.587 214.96C492.347 214.6 491.795 213.88 491.435 213.544C498.923 210.952 506.147 206.488 510.659 200.968ZM498.251 210.112L500.027 210.328C499.523 212.656 498.803 215.608 498.251 217.408L496.451 217.168C497.051 215.344 497.795 212.344 498.251 210.112ZM508.715 214.72H510.539C510.539 214.72 510.491 215.248 510.443 215.536C509.867 219.088 509.339 220.672 508.547 221.368C508.043 221.824 507.539 221.944 506.699 221.968C505.955 222.016 504.539 221.992 503.051 221.896C503.003 221.416 502.787 220.72 502.475 220.24C503.987 220.384 505.547 220.408 506.123 220.408C506.627 220.408 506.915 220.384 507.155 220.192C507.755 219.712 508.259 218.248 508.691 214.96L508.715 214.72ZM497.987 214.72H509.195V216.232H497.603L497.987 214.72ZM517.739 201.4L518.963 200.32C520.187 201.328 521.747 202.792 522.491 203.728L521.219 205C520.523 203.992 518.987 202.48 517.739 201.4ZM519.155 221.32L518.891 219.712L519.419 218.968L523.787 216.16C523.907 216.616 524.099 217.312 524.267 217.672C520.187 220.456 519.539 220.864 519.155 221.32ZM516.083 207.376H520.331V209.128H516.083V207.376ZM523.187 204.856H537.899V206.584H523.187V204.856ZM523.955 210.064H530.387V211.744H523.955V210.064ZM526.451 211.024H528.107V218.32L526.451 218.512V211.024ZM523.499 218.56C525.371 218.08 528.179 217.312 530.939 216.544L531.179 218.128C528.659 218.896 526.019 219.664 524.003 220.24L523.499 218.56ZM533.531 200.92L534.755 200.152C535.763 201.16 536.915 202.552 537.419 203.488L536.099 204.376C535.619 203.44 534.515 201.976 533.531 200.92ZM530.963 199.96H532.787C532.859 210.496 533.867 219.4 535.763 219.496C536.195 219.52 536.483 218.152 536.627 215.824C536.963 216.184 537.755 216.64 538.067 216.808C537.587 220.84 536.651 221.872 535.715 221.848C532.091 221.776 531.227 212.512 530.963 199.96ZM519.155 221.32C519.011 220.864 518.555 220.096 518.243 219.736C518.675 219.472 519.395 218.776 519.395 217.768V207.376H521.123V219.328C521.123 219.328 519.155 220.648 519.155 221.32ZM550.091 214.216L549.611 204.904L549.539 202.048H552.203L552.131 204.904L551.651 214.216H550.091ZM550.883 220.12C550.019 220.12 549.323 219.52 549.323 218.56C549.323 217.6 550.019 216.952 550.883 216.952C551.723 216.952 552.419 217.6 552.419 218.56C552.419 219.52 551.723 220.12 550.883 220.12Z" fill="#2D3342"/>
<path d="M48.2614 156.227V164H45.7131V146.545H48.2273V153.04H48.3892C48.696 152.335 49.1648 151.776 49.7955 151.361C50.4261 150.946 51.25 150.739 52.267 150.739C53.1648 150.739 53.9489 150.923 54.6193 151.293C55.2955 151.662 55.8182 152.213 56.1875 152.946C56.5625 153.673 56.75 154.582 56.75 155.673V164H54.2017V155.98C54.2017 155.02 53.9545 154.276 53.4602 153.747C52.9659 153.213 52.2784 152.946 51.3977 152.946C50.7955 152.946 50.2557 153.074 49.7784 153.33C49.3068 153.585 48.9347 153.96 48.6619 154.455C48.3949 154.943 48.2614 155.534 48.2614 156.227ZM66.2614 150.909V152.955H59.1108V150.909H66.2614ZM61.0284 147.773H63.5767V160.156C63.5767 160.651 63.6506 161.023 63.7983 161.273C63.946 161.517 64.1364 161.685 64.3693 161.776C64.608 161.861 64.8665 161.903 65.1449 161.903C65.3494 161.903 65.5284 161.889 65.6818 161.861C65.8352 161.832 65.9545 161.81 66.0398 161.793L66.5 163.898C66.3523 163.955 66.142 164.011 65.8693 164.068C65.5966 164.131 65.2557 164.165 64.8466 164.17C64.1761 164.182 63.5511 164.062 62.9716 163.812C62.392 163.562 61.9233 163.176 61.5653 162.653C61.2074 162.131 61.0284 161.474 61.0284 160.685V147.773ZM75.1911 150.909V152.955H68.0405V150.909H75.1911ZM69.9581 147.773H72.5064V160.156C72.5064 160.651 72.5803 161.023 72.728 161.273C72.8757 161.517 73.0661 161.685 73.299 161.776C73.5376 161.861 73.7962 161.903 74.0746 161.903C74.2791 161.903 74.4581 161.889 74.6115 161.861C74.7649 161.832 74.8842 161.81 74.9695 161.793L75.4297 163.898C75.282 163.955 75.0717 164.011 74.799 164.068C74.5263 164.131 74.1854 164.165 73.7763 164.17C73.1058 164.182 72.4808 164.062 71.9013 163.812C71.3217 163.562 70.853 163.176 70.495 162.653C70.1371 162.131 69.9581 161.474 69.9581 160.685V147.773ZM78.0099 168.909V150.909H80.4986V153.031H80.7116C80.8594 152.759 81.0724 152.443 81.3509 152.085C81.6293 151.727 82.0156 151.415 82.5099 151.148C83.0043 150.875 83.6577 150.739 84.4702 150.739C85.527 150.739 86.4702 151.006 87.2997 151.54C88.1293 152.074 88.7798 152.844 89.2514 153.849C89.7287 154.855 89.9673 156.065 89.9673 157.48C89.9673 158.895 89.7315 160.108 89.2599 161.119C88.7884 162.125 88.1406 162.901 87.3168 163.446C86.4929 163.986 85.5526 164.256 84.4957 164.256C83.7003 164.256 83.0497 164.122 82.544 163.855C82.044 163.588 81.652 163.276 81.3679 162.918C81.0838 162.56 80.8651 162.241 80.7116 161.963H80.5582V168.909H78.0099ZM80.5071 157.455C80.5071 158.375 80.6406 159.182 80.9077 159.875C81.1747 160.568 81.5611 161.111 82.0668 161.503C82.5724 161.889 83.1918 162.082 83.9247 162.082C84.6861 162.082 85.3224 161.881 85.8338 161.477C86.3452 161.068 86.7315 160.514 86.9929 159.815C87.2599 159.116 87.3935 158.33 87.3935 157.455C87.3935 156.591 87.2628 155.815 87.0014 155.128C86.7457 154.44 86.3594 153.898 85.8423 153.5C85.331 153.102 84.6918 152.903 83.9247 152.903C83.1861 152.903 82.5611 153.094 82.0497 153.474C81.544 153.855 81.1605 154.386 80.8991 155.068C80.6378 155.75 80.5071 156.545 80.5071 157.455ZM102.632 154.105L100.322 154.514C100.226 154.219 100.072 153.937 99.8622 153.67C99.6577 153.403 99.3793 153.185 99.027 153.014C98.6747 152.844 98.2344 152.759 97.706 152.759C96.9844 152.759 96.3821 152.92 95.8991 153.244C95.4162 153.562 95.1747 153.974 95.1747 154.48C95.1747 154.918 95.3366 155.27 95.6605 155.537C95.9844 155.804 96.5071 156.023 97.2287 156.193L99.3082 156.67C100.513 156.949 101.411 157.378 102.001 157.957C102.592 158.537 102.888 159.29 102.888 160.216C102.888 161 102.661 161.699 102.206 162.312C101.757 162.92 101.129 163.398 100.322 163.744C99.5213 164.091 98.5923 164.264 97.5355 164.264C96.0696 164.264 94.8736 163.952 93.9474 163.327C93.0213 162.696 92.4531 161.801 92.2429 160.642L94.706 160.267C94.8594 160.909 95.1747 161.395 95.652 161.724C96.1293 162.048 96.7514 162.21 97.5185 162.21C98.3537 162.21 99.0213 162.037 99.5213 161.69C100.021 161.338 100.271 160.909 100.271 160.403C100.271 159.994 100.118 159.651 99.8111 159.372C99.5099 159.094 99.0469 158.884 98.4219 158.741L96.206 158.256C94.9844 157.977 94.081 157.534 93.4957 156.926C92.9162 156.318 92.6264 155.548 92.6264 154.616C92.6264 153.844 92.8423 153.168 93.2741 152.588C93.706 152.009 94.3026 151.557 95.0639 151.233C95.8253 150.903 96.6974 150.739 97.6804 150.739C99.0952 150.739 100.209 151.045 101.021 151.659C101.834 152.267 102.371 153.082 102.632 154.105ZM107.369 164.162C106.903 164.162 106.502 163.997 106.167 163.668C105.832 163.332 105.664 162.929 105.664 162.457C105.664 161.991 105.832 161.594 106.167 161.264C106.502 160.929 106.903 160.761 107.369 160.761C107.835 160.761 108.235 160.929 108.57 161.264C108.906 161.594 109.073 161.991 109.073 162.457C109.073 162.77 108.994 163.057 108.835 163.318C108.681 163.574 108.477 163.778 108.221 163.932C107.965 164.085 107.681 164.162 107.369 164.162ZM107.369 154.634C106.903 154.634 106.502 154.466 106.167 154.131C105.832 153.795 105.664 153.395 105.664 152.929C105.664 152.463 105.832 152.065 106.167 151.736C106.502 151.401 106.903 151.233 107.369 151.233C107.835 151.233 108.235 151.401 108.57 151.736C108.906 152.065 109.073 152.463 109.073 152.929C109.073 153.241 108.994 153.528 108.835 153.79C108.681 154.045 108.477 154.25 108.221 154.403C107.965 154.557 107.681 154.634 107.369 154.634ZM119.134 145.727L113.509 166.625H111.234L116.859 145.727H119.134ZM127.947 145.727L122.322 166.625H120.046L125.671 145.727H127.947ZM130.112 164V150.909H132.66V164H130.112ZM131.398 148.889C130.955 148.889 130.575 148.741 130.256 148.446C129.944 148.145 129.788 147.787 129.788 147.372C129.788 146.952 129.944 146.594 130.256 146.298C130.575 145.997 130.955 145.847 131.398 145.847C131.842 145.847 132.219 145.997 132.532 146.298C132.85 146.594 133.009 146.952 133.009 147.372C133.009 147.787 132.85 148.145 132.532 148.446C132.219 148.741 131.842 148.889 131.398 148.889ZM138.636 156.227V164H136.088V150.909H138.534V153.04H138.696C138.997 152.347 139.469 151.79 140.111 151.369C140.759 150.949 141.574 150.739 142.557 150.739C143.449 150.739 144.23 150.926 144.901 151.301C145.571 151.67 146.091 152.222 146.46 152.955C146.83 153.687 147.014 154.594 147.014 155.673V164H144.466V155.98C144.466 155.031 144.219 154.29 143.724 153.756C143.23 153.216 142.551 152.946 141.688 152.946C141.097 152.946 140.571 153.074 140.111 153.33C139.656 153.585 139.295 153.96 139.028 154.455C138.767 154.943 138.636 155.534 138.636 156.227ZM156.662 150.909V152.955H149.264V150.909H156.662ZM151.293 164V149.392C151.293 148.574 151.472 147.895 151.83 147.355C152.188 146.81 152.662 146.403 153.253 146.136C153.844 145.864 154.486 145.727 155.179 145.727C155.69 145.727 156.128 145.77 156.491 145.855C156.855 145.935 157.125 146.009 157.301 146.077L156.705 148.139C156.585 148.105 156.432 148.065 156.244 148.02C156.057 147.969 155.83 147.943 155.562 147.943C154.943 147.943 154.5 148.097 154.233 148.403C153.972 148.71 153.841 149.153 153.841 149.733V164H151.293ZM166.395 155.52V157.727H158.656V155.52H166.395ZM175.305 164.264C174.078 164.264 173.007 163.983 172.092 163.42C171.178 162.858 170.467 162.071 169.962 161.06C169.456 160.048 169.203 158.866 169.203 157.514C169.203 156.156 169.456 154.969 169.962 153.952C170.467 152.935 171.178 152.145 172.092 151.582C173.007 151.02 174.078 150.739 175.305 150.739C176.533 150.739 177.604 151.02 178.518 151.582C179.433 152.145 180.143 152.935 180.649 153.952C181.155 154.969 181.408 156.156 181.408 157.514C181.408 158.866 181.155 160.048 180.649 161.06C180.143 162.071 179.433 162.858 178.518 163.42C177.604 163.983 176.533 164.264 175.305 164.264ZM175.314 162.125C176.109 162.125 176.768 161.915 177.291 161.494C177.814 161.074 178.2 160.514 178.45 159.815C178.706 159.116 178.834 158.347 178.834 157.506C178.834 156.67 178.706 155.903 178.45 155.205C178.2 154.5 177.814 153.935 177.291 153.509C176.768 153.082 176.109 152.869 175.314 152.869C174.513 152.869 173.848 153.082 173.32 153.509C172.797 153.935 172.408 154.5 172.152 155.205C171.902 155.903 171.777 156.67 171.777 157.506C171.777 158.347 171.902 159.116 172.152 159.815C172.408 160.514 172.797 161.074 173.32 161.494C173.848 161.915 174.513 162.125 175.314 162.125ZM186.8 156.227V164H184.252V150.909H186.698V153.04H186.86C187.161 152.347 187.633 151.79 188.275 151.369C188.923 150.949 189.738 150.739 190.721 150.739C191.613 150.739 192.394 150.926 193.065 151.301C193.735 151.67 194.255 152.222 194.624 152.955C194.994 153.687 195.178 154.594 195.178 155.673V164H192.63V155.98C192.63 155.031 192.383 154.29 191.888 153.756C191.394 153.216 190.715 152.946 189.852 152.946C189.261 152.946 188.735 153.074 188.275 153.33C187.82 153.585 187.46 153.96 187.192 154.455C186.931 154.943 186.8 155.534 186.8 156.227ZM201.144 146.545V164H198.596V146.545H201.144ZM204.572 164V150.909H207.121V164H204.572ZM205.859 148.889C205.416 148.889 205.036 148.741 204.717 148.446C204.405 148.145 204.249 147.787 204.249 147.372C204.249 146.952 204.405 146.594 204.717 146.298C205.036 145.997 205.416 145.847 205.859 145.847C206.303 145.847 206.68 145.997 206.993 146.298C207.311 146.594 207.47 146.952 207.47 147.372C207.47 147.787 207.311 148.145 206.993 148.446C206.68 148.741 206.303 148.889 205.859 148.889ZM213.097 156.227V164H210.549V150.909H212.995V153.04H213.157C213.458 152.347 213.93 151.79 214.572 151.369C215.219 150.949 216.035 150.739 217.018 150.739C217.91 150.739 218.691 150.926 219.362 151.301C220.032 151.67 220.552 152.222 220.921 152.955C221.29 153.687 221.475 154.594 221.475 155.673V164H218.927V155.98C218.927 155.031 218.68 154.29 218.185 153.756C217.691 153.216 217.012 152.946 216.148 152.946C215.558 152.946 215.032 153.074 214.572 153.33C214.117 153.585 213.756 153.96 213.489 154.455C213.228 154.943 213.097 155.534 213.097 156.227ZM230.535 164.264C229.245 164.264 228.134 163.989 227.202 163.438C226.276 162.881 225.56 162.099 225.055 161.094C224.555 160.082 224.305 158.898 224.305 157.54C224.305 156.199 224.555 155.017 225.055 153.994C225.56 152.972 226.265 152.173 227.168 151.599C228.077 151.026 229.14 150.739 230.356 150.739C231.094 150.739 231.81 150.861 232.504 151.105C233.197 151.349 233.819 151.733 234.37 152.256C234.921 152.778 235.356 153.457 235.674 154.293C235.992 155.122 236.151 156.131 236.151 157.318V158.222H225.745V156.312H233.654C233.654 155.642 233.518 155.048 233.245 154.531C232.972 154.009 232.589 153.597 232.094 153.295C231.606 152.994 231.032 152.844 230.373 152.844C229.657 152.844 229.032 153.02 228.498 153.372C227.969 153.719 227.56 154.173 227.271 154.736C226.987 155.293 226.844 155.898 226.844 156.551V158.043C226.844 158.918 226.998 159.662 227.305 160.276C227.617 160.889 228.052 161.358 228.609 161.682C229.165 162 229.816 162.159 230.56 162.159C231.043 162.159 231.484 162.091 231.881 161.955C232.279 161.812 232.623 161.602 232.913 161.324C233.202 161.045 233.424 160.702 233.577 160.293L235.989 160.727C235.796 161.437 235.45 162.06 234.95 162.594C234.455 163.122 233.833 163.534 233.083 163.83C232.339 164.119 231.489 164.264 230.535 164.264ZM240.658 164.162C240.192 164.162 239.791 163.997 239.456 163.668C239.121 163.332 238.953 162.929 238.953 162.457C238.953 161.991 239.121 161.594 239.456 161.264C239.791 160.929 240.192 160.761 240.658 160.761C241.124 160.761 241.524 160.929 241.859 161.264C242.195 161.594 242.362 161.991 242.362 162.457C242.362 162.77 242.283 163.057 242.124 163.318C241.97 163.574 241.766 163.778 241.51 163.932C241.254 164.085 240.97 164.162 240.658 164.162ZM254.068 158.571V150.909H256.625V164H254.119V161.733H253.983C253.682 162.432 253.199 163.014 252.534 163.48C251.875 163.94 251.054 164.17 250.071 164.17C249.23 164.17 248.486 163.986 247.838 163.616C247.196 163.241 246.69 162.688 246.321 161.955C245.957 161.222 245.776 160.315 245.776 159.236V150.909H248.324V158.929C248.324 159.821 248.571 160.531 249.065 161.06C249.56 161.588 250.202 161.852 250.991 161.852C251.469 161.852 251.943 161.733 252.415 161.494C252.892 161.256 253.287 160.895 253.599 160.412C253.918 159.929 254.074 159.315 254.068 158.571ZM260.049 164V150.909H262.512V152.989H262.648C262.887 152.284 263.308 151.73 263.91 151.327C264.518 150.918 265.205 150.713 265.972 150.713C266.131 150.713 266.319 150.719 266.535 150.73C266.756 150.741 266.93 150.756 267.055 150.773V153.21C266.952 153.182 266.771 153.151 266.509 153.116C266.248 153.077 265.987 153.057 265.725 153.057C265.123 153.057 264.586 153.185 264.114 153.44C263.648 153.69 263.279 154.04 263.006 154.489C262.734 154.932 262.597 155.437 262.597 156.006V164H260.049ZM276.263 150.909V152.955H268.866V150.909H276.263ZM270.894 164V149.392C270.894 148.574 271.073 147.895 271.431 147.355C271.789 146.81 272.263 146.403 272.854 146.136C273.445 145.864 274.087 145.727 274.781 145.727C275.292 145.727 275.729 145.77 276.093 145.855C276.457 145.935 276.727 146.009 276.903 146.077L276.306 148.139C276.187 148.105 276.033 148.065 275.846 148.02C275.658 147.969 275.431 147.943 275.164 147.943C274.545 147.943 274.102 148.097 273.835 148.403C273.573 148.71 273.442 149.153 273.442 149.733V164H270.894ZM287.185 158.571V150.909H289.742V164H287.237V161.733H287.1C286.799 162.432 286.316 163.014 285.651 163.48C284.992 163.94 284.171 164.17 283.188 164.17C282.347 164.17 281.603 163.986 280.955 163.616C280.313 163.241 279.808 162.688 279.438 161.955C279.075 161.222 278.893 160.315 278.893 159.236V150.909H281.441V158.929C281.441 159.821 281.688 160.531 282.183 161.06C282.677 161.588 283.319 161.852 284.109 161.852C284.586 161.852 285.06 161.733 285.532 161.494C286.009 161.256 286.404 160.895 286.717 160.412C287.035 159.929 287.191 159.315 287.185 158.571ZM294.845 164.162C294.379 164.162 293.979 163.997 293.643 163.668C293.308 163.332 293.141 162.929 293.141 162.457C293.141 161.991 293.308 161.594 293.643 161.264C293.979 160.929 294.379 160.761 294.845 160.761C295.311 160.761 295.712 160.929 296.047 161.264C296.382 161.594 296.55 161.991 296.55 162.457C296.55 162.77 296.47 163.057 296.311 163.318C296.158 163.574 295.953 163.778 295.697 163.932C295.442 164.085 295.158 164.162 294.845 164.162ZM299.963 164V150.909H302.426V152.989H302.562C302.801 152.284 303.222 151.73 303.824 151.327C304.432 150.918 305.119 150.713 305.886 150.713C306.045 150.713 306.233 150.719 306.449 150.73C306.67 150.741 306.844 150.756 306.969 150.773V153.21C306.866 153.182 306.685 153.151 306.423 153.116C306.162 153.077 305.901 153.057 305.639 153.057C305.037 153.057 304.5 153.185 304.028 153.44C303.563 153.69 303.193 154.04 302.92 154.489C302.648 154.932 302.511 155.437 302.511 156.006V164H299.963ZM317.467 158.571V150.909H320.023V164H317.518V161.733H317.381C317.08 162.432 316.597 163.014 315.933 163.48C315.273 163.94 314.452 164.17 313.469 164.17C312.629 164.17 311.884 163.986 311.237 163.616C310.594 163.241 310.089 162.688 309.719 161.955C309.356 161.222 309.174 160.315 309.174 159.236V150.909H311.722V158.929C311.722 159.821 311.969 160.531 312.464 161.06C312.958 161.588 313.6 161.852 314.39 161.852C314.867 161.852 315.342 161.733 315.813 161.494C316.29 161.256 316.685 160.895 316.998 160.412C317.316 159.929 317.472 159.315 317.467 158.571ZM330.095 145.727L324.47 166.625H322.195L327.82 145.727H330.095ZM332.26 164V150.909H334.723V152.989H334.859C335.098 152.284 335.518 151.73 336.121 151.327C336.729 150.918 337.416 150.713 338.183 150.713C338.342 150.713 338.53 150.719 338.746 150.73C338.967 150.741 339.141 150.756 339.266 150.773V153.21C339.163 153.182 338.982 153.151 338.72 153.116C338.459 153.077 338.197 153.057 337.936 153.057C337.334 153.057 336.797 153.185 336.325 153.44C335.859 153.69 335.49 154.04 335.217 154.489C334.945 154.932 334.808 155.437 334.808 156.006V164H332.26ZM349.763 158.571V150.909H352.32V164H349.815V161.733H349.678C349.377 162.432 348.894 163.014 348.229 163.48C347.57 163.94 346.749 164.17 345.766 164.17C344.925 164.17 344.181 163.986 343.533 163.616C342.891 163.241 342.386 162.688 342.016 161.955C341.653 161.222 341.471 160.315 341.471 159.236V150.909H344.019V158.929C344.019 159.821 344.266 160.531 344.761 161.06C345.255 161.588 345.897 161.852 346.687 161.852C347.164 161.852 347.638 161.733 348.11 161.494C348.587 161.256 348.982 160.895 349.295 160.412C349.613 159.929 349.769 159.315 349.763 158.571ZM362.392 145.727L356.767 166.625H354.491L360.116 145.727H362.392ZM370.045 169.182C369.006 169.182 368.111 169.045 367.361 168.773C366.616 168.5 366.009 168.139 365.537 167.69C365.065 167.241 364.713 166.75 364.48 166.216L366.67 165.312C366.824 165.562 367.028 165.827 367.284 166.105C367.545 166.389 367.898 166.631 368.341 166.83C368.79 167.028 369.366 167.128 370.071 167.128C371.037 167.128 371.835 166.892 372.466 166.42C373.097 165.955 373.412 165.21 373.412 164.188V161.614H373.25C373.097 161.892 372.875 162.202 372.585 162.543C372.301 162.884 371.909 163.179 371.409 163.429C370.909 163.679 370.259 163.804 369.457 163.804C368.423 163.804 367.491 163.562 366.662 163.08C365.838 162.591 365.185 161.872 364.702 160.923C364.224 159.969 363.986 158.795 363.986 157.403C363.986 156.011 364.222 154.818 364.693 153.824C365.17 152.83 365.824 152.068 366.653 151.54C367.483 151.006 368.423 150.739 369.474 150.739C370.287 150.739 370.943 150.875 371.443 151.148C371.943 151.415 372.332 151.727 372.611 152.085C372.895 152.443 373.114 152.759 373.267 153.031H373.455V150.909H375.952V164.29C375.952 165.415 375.69 166.338 375.168 167.06C374.645 167.781 373.938 168.315 373.045 168.662C372.159 169.009 371.159 169.182 370.045 169.182ZM370.02 161.69C370.753 161.69 371.372 161.52 371.878 161.179C372.389 160.832 372.776 160.338 373.037 159.696C373.304 159.048 373.438 158.273 373.438 157.369C373.438 156.489 373.307 155.713 373.045 155.043C372.784 154.372 372.401 153.849 371.895 153.474C371.389 153.094 370.764 152.903 370.02 152.903C369.253 152.903 368.614 153.102 368.102 153.5C367.591 153.892 367.205 154.426 366.943 155.102C366.688 155.778 366.56 156.534 366.56 157.369C366.56 158.227 366.69 158.98 366.952 159.628C367.213 160.276 367.599 160.781 368.111 161.145C368.628 161.509 369.264 161.69 370.02 161.69ZM379.369 164V150.909H381.832V152.989H381.969C382.207 152.284 382.628 151.73 383.23 151.327C383.838 150.918 384.526 150.713 385.293 150.713C385.452 150.713 385.639 150.719 385.855 150.73C386.077 150.741 386.25 150.756 386.375 150.773V153.21C386.273 153.182 386.091 153.151 385.83 153.116C385.568 153.077 385.307 153.057 385.045 153.057C384.443 153.057 383.906 153.185 383.435 153.44C382.969 153.69 382.599 154.04 382.327 154.489C382.054 154.932 381.918 155.437 381.918 156.006V164H379.369ZM392.273 164.29C391.443 164.29 390.693 164.136 390.023 163.83C389.352 163.517 388.821 163.065 388.429 162.474C388.043 161.884 387.849 161.159 387.849 160.301C387.849 159.562 387.991 158.955 388.276 158.477C388.56 158 388.943 157.622 389.426 157.344C389.909 157.065 390.449 156.855 391.045 156.713C391.642 156.571 392.25 156.463 392.869 156.389C393.653 156.298 394.29 156.224 394.778 156.168C395.267 156.105 395.622 156.006 395.844 155.869C396.065 155.733 396.176 155.511 396.176 155.205V155.145C396.176 154.401 395.966 153.824 395.545 153.415C395.131 153.006 394.511 152.801 393.688 152.801C392.83 152.801 392.153 152.991 391.659 153.372C391.17 153.747 390.832 154.165 390.645 154.625L388.25 154.08C388.534 153.284 388.949 152.642 389.494 152.153C390.045 151.659 390.679 151.301 391.395 151.08C392.111 150.852 392.864 150.739 393.653 150.739C394.176 150.739 394.73 150.801 395.315 150.926C395.906 151.045 396.457 151.267 396.969 151.591C397.486 151.915 397.909 152.378 398.239 152.98C398.568 153.577 398.733 154.352 398.733 155.307V164H396.244V162.21H396.142C395.977 162.54 395.73 162.864 395.401 163.182C395.071 163.5 394.648 163.764 394.131 163.974C393.614 164.185 392.994 164.29 392.273 164.29ZM392.827 162.244C393.531 162.244 394.134 162.105 394.634 161.827C395.139 161.548 395.523 161.185 395.784 160.736C396.051 160.281 396.185 159.795 396.185 159.278V157.591C396.094 157.682 395.918 157.767 395.656 157.847C395.401 157.92 395.108 157.986 394.778 158.043C394.449 158.094 394.128 158.142 393.815 158.188C393.503 158.227 393.241 158.261 393.031 158.29C392.537 158.352 392.085 158.457 391.676 158.605C391.273 158.753 390.949 158.966 390.705 159.244C390.466 159.517 390.347 159.881 390.347 160.335C390.347 160.966 390.58 161.443 391.045 161.767C391.511 162.085 392.105 162.244 392.827 162.244ZM408.357 150.909V152.955H400.96V150.909H408.357ZM402.988 164V149.392C402.988 148.574 403.167 147.895 403.525 147.355C403.883 146.81 404.357 146.403 404.948 146.136C405.539 145.864 406.181 145.727 406.874 145.727C407.386 145.727 407.823 145.77 408.187 145.855C408.55 145.935 408.82 146.009 408.996 146.077L408.4 148.139C408.281 148.105 408.127 148.065 407.94 148.02C407.752 147.969 407.525 147.943 407.258 147.943C406.638 147.943 406.195 148.097 405.928 148.403C405.667 148.71 405.536 149.153 405.536 149.733V164H402.988ZM410.987 164V150.909H413.535V164H410.987ZM412.273 148.889C411.83 148.889 411.45 148.741 411.131 148.446C410.819 148.145 410.663 147.787 410.663 147.372C410.663 146.952 410.819 146.594 411.131 146.298C411.45 145.997 411.83 145.847 412.273 145.847C412.717 145.847 413.094 145.997 413.407 146.298C413.725 146.594 413.884 146.952 413.884 147.372C413.884 147.787 413.725 148.145 413.407 148.446C413.094 148.741 412.717 148.889 412.273 148.889ZM419.307 159.56L419.29 156.449H419.733L424.949 150.909H428L422.051 157.216H421.651L419.307 159.56ZM416.963 164V146.545H419.511V164H416.963ZM425.23 164L420.543 157.778L422.298 155.997L428.358 164H425.23ZM437.145 155.52V157.727H429.406V155.52H437.145ZM446.183 164.264C444.893 164.264 443.783 163.989 442.851 163.438C441.925 162.881 441.209 162.099 440.703 161.094C440.203 160.082 439.953 158.898 439.953 157.54C439.953 156.199 440.203 155.017 440.703 153.994C441.209 152.972 441.913 152.173 442.817 151.599C443.726 151.026 444.788 150.739 446.004 150.739C446.743 150.739 447.459 150.861 448.152 151.105C448.845 151.349 449.467 151.733 450.018 152.256C450.57 152.778 451.004 153.457 451.322 154.293C451.641 155.122 451.8 156.131 451.8 157.318V158.222H441.393V156.312H449.303C449.303 155.642 449.166 155.048 448.893 154.531C448.621 154.009 448.237 153.597 447.743 153.295C447.254 152.994 446.68 152.844 446.021 152.844C445.305 152.844 444.68 153.02 444.146 153.372C443.618 153.719 443.209 154.173 442.919 154.736C442.635 155.293 442.493 155.898 442.493 156.551V158.043C442.493 158.918 442.646 159.662 442.953 160.276C443.266 160.889 443.7 161.358 444.257 161.682C444.814 162 445.464 162.159 446.209 162.159C446.692 162.159 447.132 162.091 447.53 161.955C447.928 161.812 448.271 161.602 448.561 161.324C448.851 161.045 449.072 160.702 449.226 160.293L451.638 160.727C451.445 161.437 451.098 162.06 450.598 162.594C450.104 163.122 449.482 163.534 448.732 163.83C447.987 164.119 447.138 164.264 446.183 164.264ZM457.175 156.227V164H454.627V146.545H457.141V153.04H457.303C457.61 152.335 458.079 151.776 458.71 151.361C459.34 150.946 460.164 150.739 461.181 150.739C462.079 150.739 462.863 150.923 463.533 151.293C464.21 151.662 464.732 152.213 465.102 152.946C465.477 153.673 465.664 154.582 465.664 155.673V164H463.116V155.98C463.116 155.02 462.869 154.276 462.374 153.747C461.88 153.213 461.192 152.946 460.312 152.946C459.71 152.946 459.17 153.074 458.692 153.33C458.221 153.585 457.849 153.96 457.576 154.455C457.309 154.943 457.175 155.534 457.175 156.227ZM471.408 159.56L471.391 156.449H471.835L477.05 150.909H480.102L474.153 157.216H473.752L471.408 159.56ZM469.065 164V146.545H471.613V164H469.065ZM477.332 164L472.644 157.778L474.4 155.997L480.46 164H477.332ZM482.151 164V162.253L489.242 153.244V153.125H482.381V150.909H492.421V152.767L485.603 161.665V161.784H492.66V164H482.151ZM499.476 164.29C498.646 164.29 497.896 164.136 497.226 163.83C496.555 163.517 496.024 163.065 495.632 162.474C495.246 161.884 495.053 161.159 495.053 160.301C495.053 159.562 495.195 158.955 495.479 158.477C495.763 158 496.146 157.622 496.629 157.344C497.112 157.065 497.652 156.855 498.249 156.713C498.845 156.571 499.453 156.463 500.072 156.389C500.857 156.298 501.493 156.224 501.982 156.168C502.47 156.105 502.825 156.006 503.047 155.869C503.268 155.733 503.379 155.511 503.379 155.205V155.145C503.379 154.401 503.169 153.824 502.749 153.415C502.334 153.006 501.714 152.801 500.891 152.801C500.033 152.801 499.357 152.991 498.862 153.372C498.374 153.747 498.036 154.165 497.848 154.625L495.453 154.08C495.737 153.284 496.152 152.642 496.697 152.153C497.249 151.659 497.882 151.301 498.598 151.08C499.314 150.852 500.067 150.739 500.857 150.739C501.379 150.739 501.933 150.801 502.518 150.926C503.109 151.045 503.661 151.267 504.172 151.591C504.689 151.915 505.112 152.378 505.442 152.98C505.771 153.577 505.936 154.352 505.936 155.307V164H503.447V162.21H503.345C503.18 162.54 502.933 162.864 502.604 163.182C502.274 163.5 501.851 163.764 501.334 163.974C500.817 164.185 500.197 164.29 499.476 164.29ZM500.03 162.244C500.734 162.244 501.337 162.105 501.837 161.827C502.342 161.548 502.726 161.185 502.987 160.736C503.254 160.281 503.388 159.795 503.388 159.278V157.591C503.297 157.682 503.121 157.767 502.859 157.847C502.604 157.92 502.311 157.986 501.982 158.043C501.652 158.094 501.331 158.142 501.018 158.188C500.706 158.227 500.445 158.261 500.234 158.29C499.74 158.352 499.288 158.457 498.879 158.605C498.476 158.753 498.152 158.966 497.908 159.244C497.669 159.517 497.55 159.881 497.55 160.335C497.55 160.966 497.783 161.443 498.249 161.767C498.714 162.085 499.308 162.244 500.03 162.244ZM509.33 164V150.909H511.776V153.04H511.938C512.211 152.318 512.657 151.756 513.276 151.352C513.896 150.943 514.637 150.739 515.501 150.739C516.376 150.739 517.109 150.943 517.7 151.352C518.296 151.761 518.737 152.324 519.021 153.04H519.157C519.469 152.341 519.967 151.784 520.648 151.369C521.33 150.949 522.143 150.739 523.086 150.739C524.273 150.739 525.242 151.111 525.992 151.855C526.748 152.599 527.126 153.722 527.126 155.222V164H524.577V155.46C524.577 154.574 524.336 153.932 523.853 153.534C523.37 153.136 522.793 152.938 522.123 152.938C521.293 152.938 520.648 153.193 520.188 153.705C519.728 154.21 519.498 154.861 519.498 155.656V164H516.958V155.298C516.958 154.588 516.737 154.017 516.293 153.585C515.85 153.153 515.273 152.938 514.563 152.938C514.08 152.938 513.634 153.065 513.225 153.321C512.822 153.571 512.495 153.92 512.245 154.369C512.001 154.818 511.879 155.338 511.879 155.929V164H509.33ZM536.183 164.264C534.893 164.264 533.783 163.989 532.851 163.438C531.925 162.881 531.209 162.099 530.703 161.094C530.203 160.082 529.953 158.898 529.953 157.54C529.953 156.199 530.203 155.017 530.703 153.994C531.209 152.972 531.913 152.173 532.817 151.599C533.726 151.026 534.788 150.739 536.004 150.739C536.743 150.739 537.459 150.861 538.152 151.105C538.845 151.349 539.467 151.733 540.018 152.256C540.57 152.778 541.004 153.457 541.322 154.293C541.641 155.122 541.8 156.131 541.8 157.318V158.222H531.393V156.312H539.303C539.303 155.642 539.166 155.048 538.893 154.531C538.621 154.009 538.237 153.597 537.743 153.295C537.254 152.994 536.68 152.844 536.021 152.844C535.305 152.844 534.68 153.02 534.146 153.372C533.618 153.719 533.209 154.173 532.919 154.736C532.635 155.293 532.493 155.898 532.493 156.551V158.043C532.493 158.918 532.646 159.662 532.953 160.276C533.266 160.889 533.7 161.358 534.257 161.682C534.814 162 535.464 162.159 536.209 162.159C536.692 162.159 537.132 162.091 537.53 161.955C537.928 161.812 538.271 161.602 538.561 161.324C538.851 161.045 539.072 160.702 539.226 160.293L541.638 160.727C541.445 161.437 541.098 162.06 540.598 162.594C540.104 163.122 539.482 163.534 538.732 163.83C537.987 164.119 537.138 164.264 536.183 164.264ZM547.175 156.227V164H544.627V150.909H547.073V153.04H547.235C547.536 152.347 548.008 151.79 548.65 151.369C549.298 150.949 550.113 150.739 551.096 150.739C551.988 150.739 552.769 150.926 553.44 151.301C554.11 151.67 554.63 152.222 554.999 152.955C555.369 153.687 555.553 154.594 555.553 155.673V164H553.005V155.98C553.005 155.031 552.758 154.29 552.263 153.756C551.769 153.216 551.09 152.946 550.227 152.946C549.636 152.946 549.11 153.074 548.65 153.33C548.195 153.585 547.835 153.96 547.567 154.455C547.306 154.943 547.175 155.534 547.175 156.227ZM564.485 164.264C563.258 164.264 562.187 163.983 561.272 163.42C560.357 162.858 559.647 162.071 559.141 161.06C558.636 160.048 558.383 158.866 558.383 157.514C558.383 156.156 558.636 154.969 559.141 153.952C559.647 152.935 560.357 152.145 561.272 151.582C562.187 151.02 563.258 150.739 564.485 150.739C565.712 150.739 566.783 151.02 567.698 151.582C568.613 152.145 569.323 152.935 569.829 153.952C570.335 154.969 570.587 156.156 570.587 157.514C570.587 158.866 570.335 160.048 569.829 161.06C569.323 162.071 568.613 162.858 567.698 163.42C566.783 163.983 565.712 164.264 564.485 164.264ZM564.494 162.125C565.289 162.125 565.948 161.915 566.471 161.494C566.994 161.074 567.38 160.514 567.63 159.815C567.886 159.116 568.013 158.347 568.013 157.506C568.013 156.67 567.886 155.903 567.63 155.205C567.38 154.5 566.994 153.935 566.471 153.509C565.948 153.082 565.289 152.869 564.494 152.869C563.692 152.869 563.028 153.082 562.499 153.509C561.977 153.935 561.587 154.5 561.332 155.205C561.082 155.903 560.957 156.67 560.957 157.506C560.957 158.347 561.082 159.116 561.332 159.815C561.587 160.514 561.977 161.074 562.499 161.494C563.028 161.915 563.692 162.125 564.494 162.125ZM584.185 150.909L579.438 164H576.711L571.955 150.909H574.691L578.006 160.983H578.143L581.45 150.909H584.185ZM591.869 145.727L586.244 166.625H583.968L589.593 145.727H591.869Z" fill="#6663CF"/>
</svg>
