<svg width="753" height="407" viewBox="0 0 753 407" fill="none" xmlns="http://www.w3.org/2000/svg">
<rect width="753" height="407" fill="white"/>
<path d="M57.5607 149.706C56.8876 149.606 40.5925 147.433 41.2713 132.275C41.3336 130.882 41.5073 129.616 41.7773 128.467M57.5607 149.706C48.6292 149.116 44.0907 145.618 42.0596 141.425M57.5607 149.706C58.6413 149.867 59.7557 149.854 60.8582 149.679M41.7773 128.467C42.1153 127.029 42.6042 125.777 43.2145 124.696M41.7773 128.467C40.5605 131.838 39.9236 137.015 42.0596 141.425M43.2145 124.696C48.2173 115.835 61.3741 118.482 66.3841 124.696C68.35 127.137 72.4701 133.326 70.4623 141.062C69.2037 145.912 65.1203 149.005 60.8582 149.679M43.2145 124.696C41.3108 127.371 38.5488 133.633 40.9101 139.313M42.0596 141.425C41.587 140.735 41.2079 140.029 40.9101 139.313M60.8582 149.679C55.2222 150.66 43.3423 149.959 40.9101 139.313" stroke="#6663CF" stroke-linecap="round"/>
<path d="M56.5803 140.179C55.7791 140.179 55.0589 140.026 54.4197 139.719C53.7848 139.408 53.2777 138.982 52.8984 138.44C52.5192 137.899 52.3168 137.281 52.2912 136.587H54.2088C54.2557 137.149 54.505 137.612 54.9567 137.974C55.4084 138.336 55.9496 138.517 56.5803 138.517C57.0831 138.517 57.5284 138.402 57.9162 138.172C58.3082 137.938 58.6151 137.616 58.8366 137.207C59.0625 136.798 59.1754 136.331 59.1754 135.807C59.1754 135.274 59.0604 134.799 58.8303 134.381C58.6001 133.964 58.2827 133.636 57.8778 133.397C57.4773 133.158 57.017 133.037 56.4972 133.033C56.1009 133.033 55.7024 133.101 55.3018 133.237C54.9013 133.374 54.5774 133.553 54.3303 133.774L52.5213 133.506L53.2564 126.909H60.4538V128.603H54.8991L54.4837 132.266H54.5604C54.8161 132.018 55.1548 131.812 55.5767 131.646C56.0028 131.479 56.4588 131.396 56.9446 131.396C57.7415 131.396 58.451 131.586 59.0732 131.965C59.6996 132.344 60.1918 132.862 60.5497 133.518C60.9119 134.17 61.0909 134.92 61.0866 135.768C61.0909 136.616 60.8991 137.373 60.5114 138.038C60.1278 138.702 59.5952 139.227 58.9134 139.61C58.2358 139.989 57.4581 140.179 56.5803 140.179ZM64.2315 140.121C63.8821 140.121 63.5817 139.998 63.3303 139.751C63.0788 139.499 62.9531 139.197 62.9531 138.843C62.9531 138.494 63.0788 138.195 63.3303 137.948C63.5817 137.697 63.8821 137.571 64.2315 137.571C64.581 137.571 64.8814 137.697 65.1328 137.948C65.3842 138.195 65.5099 138.494 65.5099 138.843C65.5099 139.077 65.4503 139.293 65.331 139.489C65.2159 139.68 65.0625 139.834 64.8707 139.949C64.679 140.064 64.4659 140.121 64.2315 140.121Z" fill="#2D3342"/>
<path d="M57.5607 215.706C56.8876 215.606 40.5925 213.433 41.2713 198.275C41.3336 196.882 41.5073 195.616 41.7773 194.467M57.5607 215.706C48.6292 215.116 44.0907 211.618 42.0596 207.425M57.5607 215.706C58.6413 215.867 59.7557 215.854 60.8582 215.679M41.7773 194.467C42.1153 193.029 42.6042 191.777 43.2145 190.696M41.7773 194.467C40.5605 197.838 39.9236 203.015 42.0596 207.425M43.2145 190.696C48.2173 181.835 61.3741 184.482 66.3841 190.696C68.35 193.137 72.4701 199.326 70.4623 207.062C69.2037 211.912 65.1203 215.005 60.8582 215.679M43.2145 190.696C41.3108 193.371 38.5488 199.633 40.9101 205.313M42.0596 207.425C41.587 206.735 41.2079 206.029 40.9101 205.313M60.8582 215.679C55.2222 216.66 43.3423 215.959 40.9101 205.313" stroke="#6663CF" stroke-linecap="round"/>
<path d="M56.8295 206.179C56.2457 206.17 55.6705 206.064 55.1037 205.859C54.5412 205.655 54.0298 205.314 53.5696 204.837C53.1094 204.359 52.7408 203.718 52.4638 202.913C52.1911 202.107 52.0547 201.102 52.0547 199.896C52.0547 198.754 52.1676 197.739 52.3935 196.853C52.6236 195.967 52.9538 195.219 53.3842 194.609C53.8146 193.996 54.3345 193.529 54.9439 193.21C55.5533 192.89 56.2372 192.73 56.9957 192.73C57.7756 192.73 58.468 192.884 59.0732 193.19C59.6783 193.497 60.1683 193.921 60.5433 194.462C60.9226 195.004 61.1634 195.619 61.2656 196.31H59.3161C59.1839 195.764 58.9219 195.319 58.5298 194.974C58.1378 194.629 57.6264 194.456 56.9957 194.456C56.0369 194.456 55.2891 194.874 54.7521 195.709C54.2195 196.544 53.951 197.705 53.9467 199.192H54.0426C54.2685 198.822 54.5455 198.506 54.8736 198.246C55.206 197.982 55.5767 197.78 55.9858 197.639C56.3991 197.494 56.8338 197.422 57.2898 197.422C58.0483 197.422 58.7344 197.607 59.348 197.978C59.9659 198.344 60.4581 198.852 60.8246 199.499C61.1911 200.147 61.3743 200.888 61.3743 201.724C61.3743 202.559 61.1847 203.315 60.8054 203.993C60.4304 204.67 59.902 205.207 59.2202 205.604C58.5384 205.996 57.7415 206.188 56.8295 206.179ZM56.8232 204.517C57.326 204.517 57.7756 204.393 58.1719 204.146C58.5682 203.899 58.8814 203.567 59.1115 203.149C59.3416 202.732 59.4567 202.265 59.4567 201.749C59.4567 201.246 59.3438 200.788 59.1179 200.375C58.8963 199.962 58.5895 199.634 58.1974 199.391C57.8097 199.148 57.3665 199.026 56.8679 199.026C56.4886 199.026 56.1371 199.099 55.8132 199.244C55.4936 199.388 55.2124 199.589 54.9695 199.844C54.7266 200.1 54.5348 200.394 54.3942 200.727C54.2578 201.055 54.1896 201.402 54.1896 201.768C54.1896 202.259 54.3026 202.712 54.5284 203.13C54.7585 203.548 55.0717 203.884 55.468 204.14C55.8686 204.391 56.3203 204.517 56.8232 204.517ZM64.3897 206.121C64.0403 206.121 63.7399 205.998 63.4885 205.751C63.237 205.499 63.1113 205.197 63.1113 204.843C63.1113 204.494 63.237 204.195 63.4885 203.948C63.7399 203.697 64.0403 203.571 64.3897 203.571C64.7392 203.571 65.0396 203.697 65.291 203.948C65.5424 204.195 65.6681 204.494 65.6681 204.843C65.6681 205.077 65.6085 205.293 65.4892 205.489C65.3741 205.68 65.2207 205.834 65.0289 205.949C64.8372 206.064 64.6241 206.121 64.3897 206.121Z" fill="#2D3342"/>
<path opacity="0.2" fill-rule="evenodd" clip-rule="evenodd" d="M752.692 386.791C752.65 397.756 743.785 406.64 732.827 406.712H436C448.567 371.704 501.062 301.687 610.504 301.687C719.946 301.687 750.897 247.229 752.692 220V386.791Z" fill="#79A4E2"/>
<path opacity="0.2" fill-rule="evenodd" clip-rule="evenodd" d="M211.324 1C208.649 19.1119 192.257 70.0439 124.729 93.1467C59.2117 115.562 16.0506 107.853 0.000526837 100.608L0.000520413 21C0.000519521 9.95433 8.95483 1.00002 20.0005 1.00002L211.324 1Z" fill="#6EA3E6"/>
<path d="M339.08 57.208H360.944V59.464H339.08V57.208ZM339.224 41.896H360.776V44.152H339.224V41.896ZM340.856 53.776H359.384V55.96H340.856V53.776ZM348.44 39.856H351.32V58.36H348.44V39.856ZM357.248 37.648L358.568 39.856C353.888 40.624 347.216 40.984 341.6 41.032C341.576 40.384 341.264 39.4 341.024 38.824C346.64 38.704 353.168 38.296 357.248 37.648ZM344.456 49.744V50.824H355.544V49.744H344.456ZM344.456 46.936V48.016H355.544V46.936H344.456ZM341.648 45.04H358.496V52.72H341.648V45.04ZM362.984 50.632H385.016V52.96H362.984V50.632ZM363.44 38.464H384.44V40.96H363.44V38.464ZM370.976 48.328L373.808 49.048C372.272 51.592 370.232 54.616 368.768 56.536L365.984 55.696C367.472 53.776 369.584 50.68 370.976 48.328ZM377.936 51.496L380.72 52.216C378.344 57.88 373.4 59.512 364.496 60.208C364.304 59.368 363.872 58.36 363.416 57.736C371.504 57.4 376.016 56.104 377.936 51.496ZM367.64 55.888L369.104 53.824C374.624 54.952 380.6 56.608 384.2 57.928L382.472 60.256C378.992 58.84 373.376 57.112 367.64 55.888ZM369.752 39.448H372.464V47.656H369.752V39.448ZM375.2 39.448H377.912V47.656H375.2V39.448ZM367.232 44.584V46.84H380.792V44.584H367.232ZM364.544 42.328H383.672V49.096H364.544V42.328ZM396.44 37.624H399.368V57.424C399.368 58.84 399.008 59.416 398.096 59.824C397.16 60.184 395.864 60.232 393.824 60.232C393.68 59.56 393.224 58.552 392.864 57.976C394.016 58.024 395.432 58 395.84 58C396.296 57.976 396.44 57.832 396.44 57.424V37.624ZM387.44 39.184H408.56V41.464H387.44V39.184ZM392.648 44.248V45.4H403.256V44.248H392.648ZM389.912 42.424H406.208V47.224H389.912V42.424ZM389.312 48.28H406.616V57.664H403.688V50.248H389.312V48.28ZM386.888 51.256H409.112V53.44H386.888V51.256ZM389.12 54.568H405.248V56.656H389.12V54.568ZM410.864 40.216H418.88V42.928H410.864V40.216ZM413.624 41.368H416.48V53.392H413.624V41.368ZM410.456 52.984C412.496 52.504 415.76 51.64 418.976 50.776L419.312 53.2C416.48 54.208 413.48 55.24 411.152 56.032L410.456 52.984ZM419.192 38.536H433.088V41.104H419.192V38.536ZM424.304 39.712L427.76 40.168C427.064 41.704 426.224 43.216 425.624 44.224L423.032 43.696C423.536 42.52 424.04 40.912 424.304 39.712ZM424.4 46.408H427.28V51.352C427.28 54.688 425.744 58.144 418.976 60.208C418.64 59.608 417.776 58.576 417.152 58C423.584 56.416 424.4 53.68 424.4 51.328V46.408ZM426.44 56.272L428.24 54.544C429.92 55.552 432.272 57.064 433.4 58.12L431.48 60.064C430.424 58.984 428.168 57.376 426.44 56.272ZM419.84 42.976H431.888V54.232H428.96V45.52H422.648V54.328H419.84V42.976Z" fill="url(#paint0_linear_1411_8927)"/>
<path d="M87.438 141.554H101.19V142.724H87.438V141.554ZM86.34 138.098H100.002V139.268H86.34V138.098ZM95.286 138.584H96.618V145.91C96.618 146.666 96.438 147.026 95.88 147.224C95.322 147.44 94.422 147.458 93.036 147.458C92.946 147.098 92.73 146.558 92.532 146.216C93.63 146.252 94.62 146.234 94.908 146.216C95.214 146.198 95.286 146.144 95.286 145.892V138.584ZM87.564 139.574L88.896 139.736C88.59 140.942 88.176 142.382 87.852 143.318L86.574 143.102C86.916 142.166 87.312 140.708 87.564 139.574ZM94.476 141.968L95.466 142.472C93.252 144.542 89.202 146.198 85.71 146.936C85.53 146.576 85.17 146.072 84.882 145.82C88.392 145.19 92.442 143.732 94.476 141.968ZM92.316 130.88H93.684V133.166H92.316V130.88ZM90.57 133.292H92.01C91.488 135.866 90.174 137.288 85.962 137.972C85.854 137.666 85.53 137.162 85.296 136.928C89.094 136.388 90.174 135.272 90.57 133.292ZM93.954 133.364H95.304V135.74C95.304 136.118 95.394 136.172 95.952 136.172C96.204 136.172 97.518 136.172 97.86 136.172C98.31 136.172 98.4 136.046 98.454 134.966C98.724 135.164 99.246 135.344 99.606 135.416C99.48 136.892 99.102 137.27 98.04 137.27C97.716 137.27 96.078 137.27 95.79 137.27C94.314 137.27 93.954 136.946 93.954 135.74V133.364ZM85.404 132.482H100.65V135.344H99.264V133.652H86.736V135.362H85.404V132.482ZM110.046 131.816H117.948V133.076H110.046V131.816ZM109.434 138.134H119.334V139.43H109.434V138.134ZM113.682 135.74H115.032V145.748C115.032 146.558 114.834 146.954 114.276 147.17C113.682 147.386 112.746 147.422 111.306 147.404C111.234 147.044 111 146.45 110.82 146.09C111.954 146.126 112.962 146.126 113.286 146.108C113.592 146.09 113.682 146 113.682 145.73V135.74ZM117.462 131.816H117.786L118.074 131.744L118.956 132.392C117.876 133.922 116.202 135.668 114.762 136.748C114.564 136.496 114.186 136.136 113.952 135.956C115.248 134.984 116.742 133.292 117.462 132.122V131.816ZM102.774 134.606H108.696V135.866H102.774V134.606ZM105.492 130.898L106.77 131.042C106.086 134.642 104.952 139.502 104.142 142.49L103.008 141.896C103.8 139.142 104.88 134.318 105.492 130.898ZM103.674 141.32L104.43 140.384C106.446 141.518 108.822 143.246 109.902 144.578L109.092 145.676C108.012 144.326 105.69 142.49 103.674 141.32ZM108.246 134.606H108.462L108.714 134.552L109.524 134.714C109.038 141.68 107.076 145.496 103.764 147.476C103.584 147.152 103.206 146.666 102.918 146.396C105.924 144.812 107.796 140.996 108.246 134.876V134.606ZM121.08 133.724H136.92V135.038H121.08V133.724ZM121.962 145.91C124.176 145.514 127.74 144.812 131.07 144.11L131.196 145.406C128.082 146.09 124.716 146.774 122.376 147.278L121.962 145.91ZM135.552 136.442L136.686 137.27C135.246 138.602 133.266 140.078 131.736 141.032L130.746 140.222C132.258 139.286 134.328 137.684 135.552 136.442ZM128.244 130.88H129.648V134.552H128.244V130.88ZM130.134 134.48C130.962 139.862 132.582 143.336 137.424 146.18C137.064 146.45 136.632 146.954 136.434 147.368C131.358 144.128 129.72 140.366 128.838 134.714L130.134 134.48ZM128.352 134.156L129.72 134.696C127.848 137.468 124.716 140.042 121.332 141.572C121.17 141.248 120.81 140.69 120.576 140.42C123.762 139.034 126.876 136.604 128.352 134.156ZM124.68 138.98L125.814 137.864L126.048 137.954V145.892H124.68V138.98ZM140.484 131.546H144.66V132.806H140.484V131.546ZM140.484 135.758H144.696V137.018H140.484V135.758ZM147.504 137.72H154.038V138.98H147.504V137.72ZM140.448 140.078H144.66V141.356H140.448V140.078ZM139.926 131.546H141.168V138.026C141.168 140.834 140.988 144.812 139.71 147.476C139.458 147.26 138.918 146.954 138.594 146.828C139.836 144.29 139.926 140.672 139.926 138.026V131.546ZM143.904 131.546H145.164V145.838C145.164 146.558 145.002 146.972 144.552 147.206C144.084 147.422 143.364 147.458 142.14 147.44C142.086 147.116 141.924 146.504 141.744 146.162C142.59 146.18 143.346 146.18 143.562 146.162C143.814 146.144 143.904 146.072 143.904 145.82V131.546ZM153.102 131.6H154.398V135.092C154.398 135.758 154.254 136.118 153.678 136.316C153.12 136.514 152.22 136.514 150.852 136.514C150.78 136.136 150.582 135.686 150.42 135.362C151.5 135.38 152.454 135.38 152.742 135.362C153.03 135.362 153.102 135.29 153.102 135.074V131.6ZM153.678 137.72H153.912L154.128 137.684L154.92 137.954C154.02 142.562 151.716 145.676 148.908 147.35C148.746 147.044 148.386 146.576 148.116 146.342C150.672 144.992 152.904 141.914 153.678 137.972V137.72ZM149.52 138.494C150.546 141.986 152.634 145.064 155.46 146.432C155.154 146.684 154.776 147.152 154.578 147.458C151.662 145.874 149.574 142.616 148.44 138.782L149.52 138.494ZM146.748 131.6H153.462V132.86H148.026V147.44H146.748V131.6ZM161.472 139.16C161.472 142.688 160.05 145.532 157.89 147.728L156.81 147.17C158.898 145.028 160.176 142.382 160.176 139.16C160.176 135.956 158.898 133.31 156.81 131.168L157.89 130.61C160.05 132.806 161.472 135.65 161.472 139.16ZM176.988 132.122H189.372V141.716H187.986V133.418H178.338V141.806H176.988V132.122ZM177.618 139.862H188.544V141.158H177.618V139.862ZM184.602 143.156L185.7 142.436C187.446 143.66 189.696 145.442 190.776 146.666L189.606 147.494C188.58 146.306 186.384 144.452 184.602 143.156ZM180.084 142.4L181.506 142.976C180.174 144.632 178.05 146.378 176.106 147.476C175.836 147.188 175.35 146.738 175.026 146.504C176.934 145.496 179.04 143.84 180.084 142.4ZM193.134 133.22H208.902V134.498H193.134V133.22ZM197.526 139.646H205.986V140.816H197.526V139.646ZM196.572 136.586H205.77V137.792H197.904V147.44H196.572V136.586ZM205.464 136.586H206.778V145.766C206.778 146.558 206.616 146.972 206.004 147.188C205.428 147.404 204.42 147.404 202.872 147.404C202.818 147.026 202.62 146.468 202.422 146.09C203.628 146.144 204.726 146.126 205.05 146.126C205.356 146.108 205.464 146.018 205.464 145.748V136.586ZM199.02 130.88L200.388 131.204C199.164 135.164 197.004 139.16 193.566 141.572C193.386 141.266 192.972 140.798 192.702 140.528C195.924 138.314 198.048 134.498 199.02 130.88ZM197.526 142.688H205.986V143.858H197.526V142.688ZM219.504 131.06H220.89C220.872 139.304 220.908 145.064 211.8 147.386C211.638 147.062 211.296 146.54 211.008 146.252C219.774 144.128 219.468 138.98 219.504 131.06ZM211.008 139.142H227.028V140.402H211.008V139.142ZM219.648 143.03L220.368 142.076C222.87 143.246 225.462 144.848 226.956 146.162L226.056 147.188C224.616 145.838 222.114 144.236 219.648 143.03ZM213.438 132.662L214.194 131.708C215.634 132.194 217.434 133.058 218.334 133.778L217.56 134.894C216.678 134.156 214.896 133.202 213.438 132.662ZM211.836 135.956L212.646 135.002C214.086 135.524 215.868 136.442 216.786 137.198L215.904 138.26C215.058 137.504 213.276 136.532 211.836 135.956ZM238.8 131.96H244.2V133.238H240.114V147.458H238.8V131.96ZM229.206 132.878H237.81V134.084H229.206V132.878ZM228.738 137.864H238.044V139.106H228.738V137.864ZM232.824 130.952H234.138V133.616H232.824V130.952ZM230.322 134.714L231.456 134.462C231.852 135.362 232.194 136.568 232.302 137.36L231.096 137.648C231.006 136.856 230.7 135.632 230.322 134.714ZM235.488 134.336L236.784 134.642C236.388 135.704 235.956 136.91 235.56 137.702L234.48 137.414C234.84 136.586 235.272 135.254 235.488 134.336ZM230.43 145.208H236.352V146.414H230.43V145.208ZM229.944 140.672H237.036V147.368H235.74V141.878H231.204V147.458H229.944V140.672ZM243.84 131.96H244.11L244.326 131.906L245.316 132.536C244.578 134.228 243.642 136.316 242.814 137.972C244.632 139.646 245.064 141.068 245.082 142.364C245.082 143.462 244.83 144.308 244.2 144.74C243.876 144.938 243.48 145.064 243.012 145.136C242.562 145.19 241.968 145.172 241.446 145.154C241.428 144.776 241.302 144.2 241.068 143.822C241.59 143.858 242.112 143.876 242.472 143.858C242.778 143.84 243.03 143.768 243.246 143.642C243.642 143.408 243.768 142.886 243.768 142.22C243.75 141.086 243.228 139.736 241.41 138.152C242.328 136.298 243.3 133.814 243.84 132.392V131.96ZM248.826 147.926L248.412 146.99C249.888 146.378 250.698 145.46 250.698 144.11L250.356 142.58L251.328 143.948C251.076 144.272 250.716 144.362 250.374 144.362C249.636 144.362 249.024 143.93 249.024 143.066C249.024 142.22 249.672 141.77 250.392 141.77C251.4 141.77 251.94 142.598 251.94 143.858C251.94 145.802 250.716 147.278 248.826 147.926ZM272.496 131.69H281.226V132.932H272.496V131.69ZM276.366 132.284L277.824 132.5C277.428 133.526 276.978 134.66 276.582 135.416L275.448 135.164C275.772 134.354 276.168 133.13 276.366 132.284ZM276.222 137.108H277.5V140.762C277.5 142.976 276.888 145.748 272.712 147.494C272.532 147.224 272.154 146.774 271.884 146.522C275.898 145.064 276.222 142.616 276.222 140.744V137.108ZM277.158 144.344L277.968 143.516C279.156 144.38 280.65 145.64 281.334 146.45L280.47 147.422C279.786 146.594 278.328 145.262 277.158 144.344ZM273.18 134.786H280.596V143.228H279.282V136.01H274.44V143.264H273.18V134.786ZM265.314 131.816H270.84V133.058H265.314V131.816ZM270.48 131.816H270.714L270.966 131.762L271.884 132.212C270.642 135.164 268.032 137.432 265.512 138.746C265.314 138.44 264.918 137.99 264.63 137.756C266.97 136.658 269.472 134.462 270.48 132.086V131.816ZM268.14 140.51H269.436V145.262H268.14V140.51ZM265.332 139.682H272.064V140.888H265.332V139.682ZM268.302 136.1L269.148 135.254C270.3 135.866 271.83 136.82 272.586 137.45L271.704 138.458C270.984 137.792 269.49 136.802 268.302 136.1ZM264.99 145.478C266.772 145.136 269.58 144.542 272.298 143.966L272.406 145.082C269.904 145.694 267.222 146.306 265.332 146.738L264.99 145.478ZM292.8 131.96H298.2V133.238H294.114V147.458H292.8V131.96ZM283.206 132.878H291.81V134.084H283.206V132.878ZM282.738 137.864H292.044V139.106H282.738V137.864ZM286.824 130.952H288.138V133.616H286.824V130.952ZM284.322 134.714L285.456 134.462C285.852 135.362 286.194 136.568 286.302 137.36L285.096 137.648C285.006 136.856 284.7 135.632 284.322 134.714ZM289.488 134.336L290.784 134.642C290.388 135.704 289.956 136.91 289.56 137.702L288.48 137.414C288.84 136.586 289.272 135.254 289.488 134.336ZM284.43 145.208H290.352V146.414H284.43V145.208ZM283.944 140.672H291.036V147.368H289.74V141.878H285.204V147.458H283.944V140.672ZM297.84 131.96H298.11L298.326 131.906L299.316 132.536C298.578 134.228 297.642 136.316 296.814 137.972C298.632 139.646 299.064 141.068 299.082 142.364C299.082 143.462 298.83 144.308 298.2 144.74C297.876 144.938 297.48 145.064 297.012 145.136C296.562 145.19 295.968 145.172 295.446 145.154C295.428 144.776 295.302 144.2 295.068 143.822C295.59 143.858 296.112 143.876 296.472 143.858C296.778 143.84 297.03 143.768 297.246 143.642C297.642 143.408 297.768 142.886 297.768 142.22C297.75 141.086 297.228 139.736 295.41 138.152C296.328 136.298 297.3 133.814 297.84 132.392V131.96ZM310.044 143.858H315.624V145.154H310.044V143.858ZM309.54 132.572H316.254V146.522H314.886V133.85H310.854V146.648H309.54V132.572ZM304.428 132.41H305.778V147.422H304.428V132.41ZM300.9 136.208H308.928V137.468H300.9V136.208ZM304.356 136.658L305.31 137C304.464 139.79 302.808 143.12 301.188 144.848C301.044 144.47 300.702 143.93 300.468 143.606C301.98 142.058 303.636 139.142 304.356 136.658ZM307.884 131.06L308.802 132.104C306.876 132.824 303.924 133.346 301.458 133.634C301.386 133.328 301.224 132.878 301.062 132.572C303.456 132.248 306.318 131.708 307.884 131.06ZM305.67 137.828C306.246 138.404 308.334 140.852 308.802 141.446L307.974 142.544C307.398 141.59 305.652 139.286 304.986 138.494L305.67 137.828ZM332.346 130.916L333.354 132.014C330.096 132.968 324.768 133.454 320.394 133.634C320.358 133.292 320.196 132.752 320.07 132.446C324.354 132.248 329.61 131.762 332.346 130.916ZM320.088 135.992H334.128V137.288H320.088V135.992ZM318.882 140.222H335.136V141.536H318.882V140.222ZM326.316 132.824H327.72V145.568C327.72 146.522 327.432 146.936 326.748 147.152C326.064 147.368 324.894 147.404 322.986 147.386C322.896 147.008 322.644 146.396 322.428 146.036C323.922 146.09 325.362 146.072 325.758 146.054C326.172 146.054 326.316 145.928 326.316 145.55V132.824ZM339.672 139.61H349.788V140.6H341.022V147.458H339.672V139.61ZM349.212 139.61H350.58V146.018C350.58 146.738 350.4 147.062 349.806 147.242C349.248 147.404 348.294 147.404 346.872 147.404C346.8 147.08 346.584 146.648 346.422 146.324C347.484 146.36 348.528 146.36 348.816 146.342C349.122 146.324 349.212 146.252 349.212 146V139.61ZM340.374 141.716H349.77V142.652H340.374V141.716ZM345.198 131.996H352.74V132.968H345.198V131.996ZM345.162 136.622H352.794V137.576H345.162V136.622ZM344.694 134.552H353.226V135.524H344.694V134.552ZM340.374 143.786H349.77V144.776H340.374V143.786ZM348.258 130.898H349.536V132.572H348.258V130.898ZM348.258 135.002H349.536V139.142H348.258V135.002ZM338.628 135.596H344.28V138.836H338.628V137.936H343.146V136.496H338.628V135.596ZM338.358 131.546H344.19V134.66H338.358V133.76H343.002V132.446H338.358V131.546ZM346.26 133.112L347.25 132.914C347.538 133.364 347.808 133.994 347.898 134.426L346.872 134.66C346.782 134.246 346.53 133.598 346.26 133.112ZM350.49 132.914L351.588 133.148C351.318 133.724 351.066 134.264 350.85 134.642L349.878 134.426C350.094 133.976 350.364 133.328 350.49 132.914ZM338.61 135.596H339.708V138.368H338.61V135.596ZM337.818 131.546H338.97V133.526C338.97 135.164 338.718 137.45 337.53 139.106C337.35 138.854 336.882 138.44 336.63 138.296C337.656 136.82 337.818 134.912 337.818 133.508V131.546ZM367.428 132.572H368.832V145.514C368.832 146.486 368.598 146.954 367.896 147.17C367.176 147.404 365.916 147.422 364.134 147.422C364.044 147.026 363.774 146.36 363.558 145.964C365.016 146.036 366.474 146.018 366.906 146C367.302 145.982 367.428 145.856 367.428 145.478V132.572ZM356.844 136.172H358.158V144.326H356.844V136.172ZM357.402 136.172H364.224V142.886H357.402V141.59H362.874V137.45H357.402V136.172ZM354.99 132.158H371.046V133.526H354.99V132.158ZM378.552 133.724L379.758 133.13C380.964 134.444 382.116 136.226 382.638 137.45L381.342 138.152C380.874 136.91 379.704 135.056 378.552 133.724ZM372.63 144.092C374.466 143.372 377.346 142.148 380.046 140.96L380.352 142.274C377.85 143.426 375.114 144.632 373.116 145.496L372.63 144.092ZM383.43 141.716L384.474 140.834C386.184 142.526 388.416 144.866 389.478 146.342L388.326 147.404C387.318 145.91 385.158 143.48 383.43 141.716ZM385.932 131.816L387.39 131.96C386.472 140.276 384.366 144.866 378.066 147.494C377.868 147.206 377.328 146.612 376.986 146.324C383.214 144.056 385.122 139.646 385.932 131.816ZM374.826 131.87L376.212 131.816L376.518 143.714L375.132 143.768L374.826 131.87ZM401.502 131.906H402.78V147.53H401.502V131.906ZM403.14 141.014C404.058 142.85 405.858 144.83 407.496 145.784C407.19 146.036 406.776 146.486 406.56 146.81C404.922 145.676 403.122 143.462 402.114 141.374L403.14 141.014ZM399.072 135.74V137.72H405.282V135.74H399.072ZM399.072 132.698V134.66H405.282V132.698H399.072ZM397.83 131.582H406.542V138.836H397.83V131.582ZM397.146 140.42H407.118V141.626H397.146V140.42ZM401.214 140.978L402.276 141.356C401.178 143.588 399.144 145.748 397.218 146.882C397.02 146.558 396.606 146.108 396.318 145.856C398.208 144.92 400.206 142.922 401.214 140.978ZM393.312 139.718L394.554 138.224V147.458H393.312V139.718ZM390.954 134.318H395.94V135.542H390.954V134.318ZM393.24 130.988H394.5V134.966H393.24V130.988ZM394.446 138.35C394.95 138.854 396.696 141.014 397.092 141.536L396.282 142.454C395.778 141.608 394.32 139.646 393.726 138.944L394.446 138.35ZM395.508 134.318H395.76L396.012 134.246L396.732 134.714C395.616 138.026 393.348 141.176 391.224 142.976C391.08 142.634 390.738 142.022 390.522 141.806C392.52 140.24 394.608 137.342 395.508 134.588V134.318ZM396.606 137.612L397.416 138.206C396.894 138.98 396.282 139.844 395.796 140.384L395.148 139.898C395.598 139.286 396.264 138.278 396.606 137.612ZM412.5 130.952L413.778 131.33C412.734 134.372 411.096 137.432 409.332 139.466C409.188 139.16 408.792 138.458 408.54 138.134C410.142 136.37 411.618 133.67 412.5 130.952ZM410.88 135.596L412.14 134.318L412.158 134.336V147.422H410.88V135.596ZM418.44 130.952H419.754V147.35H418.44V130.952ZM413.364 134.516H425.154V135.812H413.364V134.516ZM415.47 142.868H422.67V144.092H415.47V142.868ZM420.402 135.182C421.428 138.404 423.408 141.752 425.514 143.444C425.19 143.678 424.74 144.146 424.488 144.506C422.382 142.58 420.456 138.998 419.394 135.488L420.402 135.182ZM417.882 135.11L418.872 135.416C417.756 139.016 415.794 142.58 413.616 144.56C413.418 144.218 412.968 143.75 412.662 143.534C414.768 141.824 416.82 138.404 417.882 135.11Z" fill="#2D3342"/>
<path d="M95.88 191.056L96.942 190.426C98.22 191.29 99.858 192.586 100.686 193.468L99.57 194.188C98.796 193.324 97.194 191.992 95.88 191.056ZM87.222 186.016H99.012V187.15H87.222V186.016ZM85.332 179.698H92.118V180.85H85.332V179.698ZM85.17 188.59H100.866V189.76H85.17V188.59ZM92.37 188.896H93.738V193.018C93.738 193.756 93.576 194.098 92.982 194.278C92.388 194.458 91.452 194.476 90.048 194.476C89.958 194.116 89.76 193.63 89.58 193.27C90.714 193.324 91.704 193.324 92.01 193.306C92.316 193.288 92.37 193.216 92.37 192.982V188.896ZM88.446 190.444L89.724 190.858C88.806 192.154 87.348 193.414 86.034 194.224C85.8 193.99 85.278 193.576 84.972 193.36C86.286 192.658 87.654 191.56 88.446 190.444ZM88.338 177.88H89.598V185.386H88.338V177.88ZM92.964 179.698H100.614V180.85H92.964V179.698ZM96.168 177.88H97.428V185.386H96.168V177.88ZM89.472 180.922C90.048 181.264 91.92 182.596 92.406 182.974L91.668 183.892C91.074 183.316 89.454 182.02 88.77 181.534L89.472 180.922ZM97.518 180.364C98.346 181.804 99.912 183.424 101.244 184.198C100.974 184.414 100.56 184.846 100.38 185.134C99.066 184.198 97.5 182.362 96.636 180.724L97.518 180.364ZM88.266 180.202L89.202 180.562C88.392 182.362 86.898 184.27 85.512 185.26C85.296 184.954 84.936 184.522 84.666 184.306C86.016 183.496 87.51 181.804 88.266 180.202ZM95.988 180.31L96.924 180.67C96.06 182.416 94.476 184.216 93 185.134C92.802 184.846 92.442 184.432 92.172 184.216C93.594 183.442 95.178 181.822 95.988 180.31ZM111.684 183.928H118.272V185.278H111.684V183.928ZM102.864 192.208H119.082V193.54H102.864V192.208ZM110.964 177.934H112.386V192.892H110.964V177.934ZM105.366 181.858H106.752V192.838H105.366V181.858ZM125.76 179.878H137.316V181.138H125.76V179.878ZM127.542 184.036V186.736H135.408V184.036H127.542ZM126.3 182.884H136.722V187.888H126.3V182.884ZM127.416 188.248C129.108 191.074 132.798 192.748 137.478 193.27C137.19 193.558 136.848 194.098 136.668 194.476C131.898 193.792 128.208 191.92 126.3 188.626L127.416 188.248ZM130.764 177.952H132.096V185.926C132.096 189.4 131.502 192.856 125.922 194.512C125.76 194.206 125.382 193.666 125.112 193.378C130.458 192.028 130.764 188.95 130.764 185.908V177.952ZM124.986 177.844L126.264 178.24C125.04 181.282 123.114 184.306 121.116 186.304C120.99 185.998 120.612 185.296 120.36 184.972C122.178 183.262 123.942 180.58 124.986 177.844ZM123.096 182.56L124.374 181.282L124.392 181.3V194.53H123.096V182.56ZM141.51 179.158H153.156V180.454H141.51V179.158ZM141.51 183.352H153.138V184.63H141.51V183.352ZM141.42 187.654H153.174V188.932H141.42V187.654ZM140.754 179.158H142.086V185.692C142.086 188.428 141.762 192.154 139.62 194.548C139.404 194.278 138.864 193.828 138.576 193.648C140.556 191.416 140.754 188.212 140.754 185.674V179.158ZM152.616 179.158H153.948V192.604C153.948 193.486 153.732 193.9 153.138 194.134C152.526 194.35 151.482 194.368 149.772 194.35C149.718 193.99 149.502 193.396 149.304 193.036C150.582 193.09 151.806 193.072 152.148 193.072C152.49 193.054 152.616 192.946 152.616 192.604V179.158ZM146.406 179.644H147.774V194.278H146.406V179.644ZM161.652 187.042H173.082V188.266H161.652V187.042ZM168.294 179.716H169.554V183.244C169.554 183.64 169.608 183.712 170.076 183.712C170.274 183.712 171.336 183.712 171.606 183.712C171.984 183.712 172.056 183.532 172.092 182.308C172.362 182.506 172.866 182.668 173.208 182.758C173.082 184.396 172.74 184.81 171.75 184.81C171.48 184.81 170.166 184.81 169.914 184.81C168.6 184.81 168.294 184.486 168.294 183.262V179.716ZM161.904 178.69H172.956V181.696H171.714V179.842H163.11V182.002H161.904V178.69ZM166.566 185.008H167.88V194.44H166.566V185.008ZM165.306 179.734H166.584C166.404 182.938 165.684 184.576 162.318 185.476C162.21 185.17 161.868 184.702 161.634 184.468C164.622 183.748 165.162 182.452 165.306 179.734ZM168.42 187.618C169.428 189.544 171.444 191.542 173.37 192.46C173.046 192.712 172.614 193.198 172.398 193.558C170.49 192.442 168.51 190.192 167.43 187.978L168.42 187.618ZM166.152 187.51L167.214 187.87C166.026 190.318 163.848 192.55 161.634 193.684C161.436 193.378 161.058 192.91 160.77 192.658C162.912 191.704 165.054 189.652 166.152 187.51ZM157.53 179.068L158.322 178.096C159.438 178.6 160.824 179.446 161.508 180.076L160.698 181.174C160.032 180.508 158.682 179.626 157.53 179.068ZM156.702 184.018L157.386 182.974C158.538 183.334 159.978 184 160.698 184.558L159.978 185.746C159.276 185.152 157.854 184.45 156.702 184.018ZM157.17 193.414C158.034 192.046 159.276 189.706 160.194 187.708L161.238 188.5C160.392 190.372 159.294 192.586 158.34 194.242L157.17 193.414ZM177.564 186.88H188.868V188.122H177.564V186.88ZM182.46 182.848H183.81V187.51H182.46V182.848ZM177.51 182.362H189.786V188.914H188.418V183.586H177.51V182.362ZM176.826 182.362H178.176V191.578C178.176 192.73 178.554 192.982 180.534 192.982C181.488 192.982 186.42 192.982 187.626 192.982C189.372 192.982 189.66 192.514 189.876 190.3C190.218 190.534 190.794 190.732 191.208 190.804C190.902 193.468 190.344 194.26 187.662 194.26C186.942 194.26 181.29 194.26 180.624 194.26C177.708 194.26 176.826 193.738 176.826 191.578V182.362ZM179.832 179.086H185.484V180.292H179.22L179.832 179.086ZM179.868 177.826L181.362 178.114C180.084 180.256 178.212 182.632 175.62 184.522C175.404 184.198 174.954 183.748 174.63 183.532C177.078 181.876 178.896 179.644 179.868 177.826ZM184.89 179.086H185.196L185.466 179.014L186.384 179.608C185.682 180.994 184.62 182.542 183.702 183.514C183.504 183.244 183.09 182.848 182.838 182.65C183.612 181.786 184.476 180.364 184.89 179.356V179.086ZM194.034 178.888H198.534V191.524H194.034V190.3H197.274V180.094H194.034V178.888ZM194.034 182.668H197.994V183.856H194.034V182.668ZM194.034 186.484H197.994V187.654H194.034V186.484ZM193.314 178.888H194.574V193.018H193.314V178.888ZM200.208 178.69H201.54V193.018L200.208 193.198V178.69ZM200.874 178.69H208.29V186.592H200.874V185.404H206.976V179.878H200.874V178.69ZM200.91 182.056H207.552V183.19H200.91V182.056ZM198.552 192.982C200.172 192.676 202.656 192.154 205.086 191.632L205.212 192.802C202.98 193.342 200.658 193.864 198.93 194.26L198.552 192.982ZM204.456 185.89C205.194 189.292 206.796 192.1 209.514 193.288C209.208 193.558 208.794 194.08 208.578 194.44C205.752 192.982 204.15 189.958 203.34 186.106L204.456 185.89ZM208.326 187.096L209.226 188.05C208.2 188.896 206.868 189.796 205.842 190.39L205.104 189.526C206.076 188.932 207.516 187.888 208.326 187.096ZM218.01 179.194H226.686V180.31H218.01V179.194ZM217.488 182.434H227.1V183.586H217.488V182.434ZM219.45 180.688L220.566 180.454C220.836 180.976 221.106 181.714 221.214 182.2L220.044 182.506C219.972 182.02 219.72 181.246 219.45 180.688ZM224.094 180.49L225.336 180.778C224.994 181.552 224.598 182.38 224.292 182.938L223.23 182.668C223.536 182.074 223.896 181.12 224.094 180.49ZM219.54 187.564V188.77H225.084V187.564H219.54ZM219.54 185.476V186.682H225.084V185.476H219.54ZM218.334 184.558H226.344V189.706H218.334V184.558ZM220.08 189.436H221.376C221.196 192.352 220.386 193.72 217.056 194.494C216.93 194.188 216.588 193.702 216.318 193.45C219.324 192.856 219.936 191.866 220.08 189.436ZM221.304 178.042L222.51 177.772C222.798 178.33 223.158 179.086 223.302 179.59L222.06 179.932C221.916 179.428 221.592 178.636 221.304 178.042ZM213.132 177.934L214.338 178.294C213.672 180.256 212.574 182.254 211.332 183.55C211.206 183.262 210.846 182.578 210.63 182.29C211.674 181.228 212.61 179.608 213.132 177.934ZM212.7 179.932H216.858V181.174H212.466L212.7 179.932ZM213.222 194.278L213.024 193.036L213.456 192.496L216.912 190.462C216.948 190.822 217.092 191.344 217.218 191.614C214.014 193.63 213.51 193.954 213.222 194.278ZM211.854 183.172H216.57V184.396H211.854V183.172ZM211.026 186.826H217.092V188.05H211.026V186.826ZM213.222 194.278C213.096 193.954 212.736 193.378 212.484 193.09C212.826 192.856 213.456 192.262 213.456 191.47V183.604H214.734V192.694C214.734 192.694 213.222 193.756 213.222 194.278ZM222.942 189.454H224.202V192.766C224.202 193.126 224.274 193.198 224.634 193.198C224.796 193.198 225.606 193.198 225.822 193.198C226.182 193.198 226.254 192.964 226.29 191.326C226.56 191.524 227.046 191.686 227.37 191.776C227.28 193.738 226.956 194.242 225.966 194.242C225.714 194.242 224.67 194.242 224.436 194.242C223.23 194.242 222.942 193.918 222.942 192.766V189.454ZM232.914 194.008C231.744 192.586 230.196 191.056 228.918 190.012L230.088 188.986C231.384 190.03 233.004 191.65 234.138 192.964L232.914 194.008ZM255.504 178.06H256.89C256.872 186.304 256.908 192.064 247.8 194.386C247.638 194.062 247.296 193.54 247.008 193.252C255.774 191.128 255.468 185.98 255.504 178.06ZM247.008 186.142H263.028V187.402H247.008V186.142ZM255.648 190.03L256.368 189.076C258.87 190.246 261.462 191.848 262.956 193.162L262.056 194.188C260.616 192.838 258.114 191.236 255.648 190.03ZM249.438 179.662L250.194 178.708C251.634 179.194 253.434 180.058 254.334 180.778L253.56 181.894C252.678 181.156 250.896 180.202 249.438 179.662ZM247.836 182.956L248.646 182.002C250.086 182.524 251.868 183.442 252.786 184.198L251.904 185.26C251.058 184.504 249.276 183.532 247.836 182.956ZM273.144 180.256H281.01V181.516H273.144V180.256ZM273.45 177.898L274.746 178.186C274.134 180.382 273.18 182.524 272.1 183.91C271.848 183.712 271.272 183.37 270.966 183.226C272.082 181.912 272.964 179.914 273.45 177.898ZM271.776 184.648H279.876V185.872H273.054V191.974H271.776V184.648ZM279.318 184.648H280.596V190.426C280.596 191.074 280.506 191.452 280.056 191.668C279.606 191.902 278.922 191.902 277.914 191.902C277.878 191.524 277.716 191.02 277.536 190.642C278.292 190.66 278.886 190.66 279.084 190.66C279.264 190.66 279.318 190.606 279.318 190.408V184.648ZM275.484 181.174H276.834V194.422H275.484V181.174ZM266.61 180.706H270.408V181.858H266.61V180.706ZM266.718 177.934L267.96 178.168C267.492 181.066 266.682 183.874 265.548 185.728C265.332 185.512 264.81 185.098 264.522 184.918C265.638 183.226 266.322 180.598 266.718 177.934ZM270.084 180.706H270.3L270.516 180.652L271.38 180.922C270.984 182.254 270.444 183.766 269.922 184.702L268.878 184.342C269.31 183.478 269.796 182.074 270.084 180.94V180.706ZM267.042 194.26L266.808 193L267.168 192.424L270.462 190.048C270.552 190.39 270.75 190.912 270.894 191.164C267.762 193.522 267.294 193.9 267.042 194.26ZM267.042 194.278C266.898 194.026 266.538 193.558 266.304 193.36C266.61 193.09 267.06 192.478 267.06 191.596V184.324H268.284V192.568C268.284 192.568 267.042 193.774 267.042 194.278ZM286.914 194.008C285.744 192.586 284.196 191.056 282.918 190.012L284.088 188.986C285.384 190.03 287.004 191.65 288.138 192.964L286.914 194.008ZM302.268 179.77H315.768V193.918H314.31V181.138H303.672V194.008H302.268V179.77ZM302.898 191.074H315.318V192.46H302.898V191.074ZM329.646 179.626V181.318H332.688V179.626H329.646ZM325.434 179.626V181.318H328.404V179.626H325.434ZM321.294 179.626V181.318H324.174V179.626H321.294ZM320.016 178.6H334.02V182.362H320.016V178.6ZM322.032 188.23V189.364H331.914V188.23H322.032ZM322.032 186.16V187.294H331.914V186.16H322.032ZM320.736 185.206H333.282V190.336H320.736V185.206ZM326.694 183.262H334.2V184.252H326.694V183.262ZM318.972 191.416H334.992V192.514H318.972V191.416ZM326.1 182.02H327.45V185.728H326.1V182.02ZM326.262 189.58H327.648V194.44H326.262V189.58ZM340.914 194.008C339.744 192.586 338.196 191.056 336.918 190.012L338.088 188.986C339.384 190.03 341.004 191.65 342.138 192.964L340.914 194.008ZM368.346 177.916L369.354 179.014C366.096 179.968 360.768 180.454 356.394 180.634C356.358 180.292 356.196 179.752 356.07 179.446C360.354 179.248 365.61 178.762 368.346 177.916ZM356.088 182.992H370.128V184.288H356.088V182.992ZM354.882 187.222H371.136V188.536H354.882V187.222ZM362.316 179.824H363.72V192.568C363.72 193.522 363.432 193.936 362.748 194.152C362.064 194.368 360.894 194.404 358.986 194.386C358.896 194.008 358.644 193.396 358.428 193.036C359.922 193.09 361.362 193.072 361.758 193.054C362.172 193.054 362.316 192.928 362.316 192.55V179.824ZM373.782 179.392H388.236V180.562H373.782V179.392ZM374.61 182.038H387.534V183.172H374.61V182.038ZM373.116 184.792H388.848V185.98H373.116V184.792ZM380.262 177.88H381.63V185.71H380.262V177.88ZM380.208 185.188L381.378 185.746C379.506 187.798 376.176 189.688 373.386 190.606C373.17 190.264 372.792 189.76 372.504 189.49C375.276 188.698 378.534 186.97 380.208 185.188ZM382.17 185.368C383.25 189.22 385.59 192.064 389.406 193.198C389.1 193.468 388.722 194.026 388.524 194.386C384.546 193.018 382.188 189.976 380.946 185.62L382.17 185.368ZM387.3 186.574L388.38 187.42C387.102 188.446 385.392 189.544 384.096 190.264L383.268 189.526C384.528 188.77 386.274 187.528 387.3 186.574ZM374.502 193.198C376.572 192.748 379.812 191.938 382.89 191.182L383.016 192.388C380.172 193.126 377.094 193.9 374.934 194.44L374.502 193.198ZM377.04 188.536L378.012 187.564L378.39 187.672V193.108H377.04V188.536ZM396.271 179.295L392.052 194.969H390.345L394.564 179.295H396.271ZM410.955 177.916L411.963 179.014C408.705 179.968 403.377 180.454 399.003 180.634C398.967 180.292 398.805 179.752 398.679 179.446C402.963 179.248 408.219 178.762 410.955 177.916ZM398.697 182.992H412.737V184.288H398.697V182.992ZM397.491 187.222H413.745V188.536H397.491V187.222ZM404.925 179.824H406.329V192.568C406.329 193.522 406.041 193.936 405.357 194.152C404.673 194.368 403.503 194.404 401.595 194.386C401.505 194.008 401.253 193.396 401.037 193.036C402.531 193.09 403.971 193.072 404.367 193.054C404.781 193.054 404.925 192.928 404.925 192.55V179.824ZM428.487 179.68V181.606H430.125V179.68H428.487ZM425.841 179.68V181.606H427.443V179.68H425.841ZM423.267 179.68V181.606H424.797V179.68H423.267ZM422.133 178.654H431.295V182.632H422.133V178.654ZM424.059 182.182L425.265 182.488C424.545 184.216 423.357 185.872 422.133 186.952C421.917 186.736 421.449 186.322 421.161 186.124C422.367 185.17 423.447 183.694 424.059 182.182ZM423.879 183.982H430.503V185.062H423.303L423.879 183.982ZM430.071 183.982H431.313C431.313 183.982 431.313 184.414 431.313 184.576C431.151 191.146 431.007 193.234 430.575 193.846C430.305 194.242 429.999 194.368 429.549 194.404C429.189 194.458 428.595 194.458 428.001 194.422C427.983 194.134 427.857 193.666 427.695 193.396C428.253 193.432 428.757 193.432 428.991 193.432C429.207 193.432 429.333 193.396 429.459 193.18C429.783 192.73 429.927 190.588 430.071 184.27V183.982ZM423.501 187.636V189.364H427.821V187.636H423.501ZM422.493 186.754H428.865V190.228H422.493V186.754ZM425.121 185.404H426.183V192.262L425.121 192.442V185.404ZM421.881 192.136C423.483 192.028 425.841 191.848 428.235 191.65V192.55C426.021 192.766 423.771 193 422.097 193.162L421.881 192.136ZM427.083 190.822L427.965 190.552C428.451 191.308 428.937 192.316 429.153 192.946L428.235 193.288C428.019 192.604 427.533 191.596 427.083 190.822ZM417.633 177.934L418.857 178.294C418.209 180.256 417.129 182.254 415.923 183.568C415.815 183.28 415.437 182.596 415.203 182.29C416.229 181.228 417.129 179.608 417.633 177.934ZM417.291 179.932H421.503V181.192H417.075L417.291 179.932ZM417.723 194.386L417.543 193.144L417.975 192.568L421.197 190.372C421.269 190.732 421.413 191.272 421.521 191.524C418.479 193.702 418.011 194.044 417.723 194.386ZM416.157 183.154H421.215V184.378H416.157V183.154ZM415.653 186.826H421.467V188.068H415.653V186.826ZM417.723 194.386C417.615 194.062 417.309 193.522 417.093 193.234C417.381 193.036 417.867 192.568 417.867 191.776V183.658H419.109V192.946C419.109 192.946 417.723 193.882 417.723 194.386ZM437.523 194.008C436.353 192.586 434.805 191.056 433.527 190.012L434.697 188.986C435.993 190.03 437.613 191.65 438.747 192.964L437.523 194.008ZM454.119 187.024H465.207V194.404H463.821V188.14H455.433V194.44H454.119V187.024ZM454.875 189.832H464.325V190.876H454.875V189.832ZM453.435 179.374H459.177V180.472H453.435V179.374ZM451.491 182.2H459.645V183.298H451.491V182.2ZM454.875 192.658H464.325V193.774H454.875V192.658ZM455.235 179.77H456.531V181.552C456.531 183.298 456.009 185.71 452.193 187.42C452.013 187.15 451.635 186.718 451.329 186.502C454.965 185.062 455.235 182.956 455.235 181.534V179.77ZM453.525 177.826L454.749 178.078C454.281 179.626 453.453 181.12 452.571 182.11C452.337 181.93 451.797 181.588 451.491 181.462C452.409 180.544 453.129 179.194 453.525 177.826ZM456.135 183.568C456.783 183.91 458.979 185.242 459.501 185.602L458.565 186.538C457.899 185.98 456.027 184.648 455.253 184.162L456.135 183.568ZM461.661 180.562V184.396H465.405V180.562H461.661ZM460.401 179.356H466.737V185.638H460.401V179.356ZM472.335 177.88L473.739 178.204C473.091 179.698 472.245 181.444 471.525 182.578L470.373 182.236C471.057 181.084 471.903 179.194 472.335 177.88ZM469.311 181.696C471.201 181.642 474.063 181.516 476.889 181.39L476.871 182.596C474.189 182.758 471.399 182.902 469.437 183.01L469.311 181.696ZM470.409 184.306H476.115V185.458H471.669V194.422H470.409V184.306ZM475.503 184.306H476.835V192.892C476.835 193.576 476.691 193.954 476.205 194.17C475.701 194.386 474.909 194.404 473.775 194.404C473.703 194.044 473.505 193.504 473.325 193.162C474.171 193.198 474.945 193.18 475.197 193.162C475.431 193.162 475.503 193.108 475.503 192.874V184.306ZM471.003 186.988H476.205V188.05H471.003V186.988ZM471.003 189.688H476.205V190.768H471.003V189.688ZM478.527 177.916H479.859V183.874C479.859 184.45 480.003 184.576 480.831 184.576C481.209 184.576 483.171 184.576 483.693 184.576C484.395 184.576 484.521 184.27 484.593 182.488C484.881 182.722 485.421 182.92 485.817 183.01C485.655 185.206 485.259 185.8 483.801 185.8C483.423 185.8 481.065 185.8 480.705 185.8C478.977 185.8 478.527 185.386 478.527 183.892V177.916ZM484.035 179.248L484.935 180.238C483.405 180.958 481.245 181.66 479.391 182.182C479.319 181.894 479.139 181.498 478.977 181.228C480.759 180.67 482.811 179.878 484.035 179.248ZM478.527 186.286H479.859V192.37C479.859 192.982 480.021 193.09 480.885 193.09C481.263 193.09 483.297 193.09 483.837 193.09C484.611 193.09 484.719 192.748 484.809 190.714C485.115 190.93 485.655 191.146 486.033 191.218C485.853 193.648 485.457 194.296 483.945 194.296C483.549 194.296 481.119 194.296 480.741 194.296C478.995 194.296 478.527 193.882 478.527 192.388V186.286ZM484.251 187.276L485.151 188.284C483.639 189.148 481.335 189.886 479.391 190.408C479.319 190.138 479.121 189.706 478.977 189.436C480.849 188.896 483.027 188.068 484.251 187.276ZM474.585 179.59L475.701 179.14C476.655 180.4 477.663 182.056 478.077 183.172L476.889 183.694C476.511 182.596 475.539 180.868 474.585 179.59ZM500.955 177.916L501.963 179.014C498.705 179.968 493.377 180.454 489.003 180.634C488.967 180.292 488.805 179.752 488.679 179.446C492.963 179.248 498.219 178.762 500.955 177.916ZM488.697 182.992H502.737V184.288H488.697V182.992ZM487.491 187.222H503.745V188.536H487.491V187.222ZM494.925 179.824H496.329V192.568C496.329 193.522 496.041 193.936 495.357 194.152C494.673 194.368 493.503 194.404 491.595 194.386C491.505 194.008 491.253 193.396 491.037 193.036C492.531 193.09 493.971 193.072 494.367 193.054C494.781 193.054 494.925 192.928 494.925 192.55V179.824ZM514.365 178.924H518.865V180.202H514.365V178.924ZM513.555 178.924H514.869V184.702C514.869 187.69 514.509 191.776 511.917 194.44C511.701 194.188 511.179 193.756 510.873 193.576C513.321 191.074 513.555 187.474 513.555 184.684V178.924ZM518.253 178.924H519.603V191.902C519.603 192.478 519.621 192.82 519.711 192.91C519.801 192.982 519.909 193.018 520.035 193.018C520.161 193.018 520.395 193.018 520.557 193.018C520.719 193.018 520.845 192.982 520.935 192.874C521.025 192.784 521.079 192.622 521.115 192.19C521.151 191.794 521.169 190.84 521.187 189.616C521.457 189.886 521.889 190.084 522.213 190.21C522.213 191.236 522.141 192.55 522.087 193.018C521.997 193.522 521.835 193.828 521.583 194.026C521.313 194.188 520.989 194.26 520.611 194.26C520.359 194.26 519.927 194.26 519.711 194.26C519.351 194.26 518.937 194.17 518.667 193.918C518.361 193.666 518.253 193.324 518.253 191.776V178.924ZM505.527 181.75H512.493V183.046H505.527V181.75ZM508.533 177.88H509.829V194.422H508.533V177.88ZM508.461 182.542L509.361 182.848C508.677 185.782 507.273 189.292 505.815 191.092C505.671 190.714 505.329 190.174 505.095 189.868C506.481 188.248 507.867 185.17 508.461 182.542ZM509.703 184.522C510.243 185.026 512.169 187.168 512.583 187.69L511.755 188.788C511.233 187.924 509.649 185.908 509.019 185.17L509.703 184.522ZM527.523 194.008C526.353 192.586 524.805 191.056 523.527 190.012L524.697 188.986C525.993 190.03 527.613 191.65 528.747 192.964L527.523 194.008ZM543.561 184.396H555.477V185.656H543.561V184.396ZM548.727 177.916H550.149V191.506C550.149 192.568 550.365 192.766 551.427 192.766C551.967 192.766 554.613 192.766 555.261 192.766C556.251 192.766 556.431 192.172 556.575 189.85C556.917 190.102 557.493 190.336 557.925 190.444C557.691 193.18 557.241 194.134 555.333 194.134C554.847 194.134 551.805 194.134 551.337 194.134C549.321 194.134 548.727 193.594 548.727 191.488V177.916ZM543.669 180.508H556.161V189.58H543.669V188.266H554.793V181.822H543.669V180.508ZM542.859 180.508H544.263V190.678H542.859V180.508ZM99.354 199.006L100.308 200.086C97.86 200.86 94.08 201.4 90.93 201.688C90.876 201.364 90.696 200.86 90.552 200.572C93.648 200.248 97.32 199.69 99.354 199.006ZM90.552 204.424H101.244V205.72H90.552V204.424ZM91.488 208.726H100.2V215.368H98.814V209.968H92.838V215.44H91.488V208.726ZM92.226 213.478H99.444V214.72H92.226V213.478ZM95.142 200.482H96.492V209.446H95.142V200.482ZM85.764 200.194L86.646 199.366C87.564 200.122 88.734 201.202 89.31 201.904L88.374 202.876C87.834 202.156 86.682 201.004 85.764 200.194ZM87.096 214.954L86.844 213.676L87.168 213.118L90.408 210.652C90.534 210.994 90.786 211.534 90.93 211.786C87.87 214.198 87.384 214.576 87.096 214.954ZM84.774 204.532H87.96V205.846H84.774V204.532ZM87.096 214.954C86.97 214.648 86.556 214.126 86.322 213.874C86.664 213.622 87.276 212.974 87.276 212.11V204.532H88.554V213.226C88.554 213.226 87.096 214.414 87.096 214.954ZM106.914 215.008C105.744 213.586 104.196 212.056 102.918 211.012L104.088 209.986C105.384 211.03 107.004 212.65 108.138 213.964L106.914 215.008ZM121.17 199.942H136.866V201.292H121.17V199.942ZM124.608 203.938H133.194V205.198H124.608V203.938ZM124.608 207.898H133.194V209.176H124.608V207.898ZM120.864 212.164C124.806 211.948 131.232 211.552 137.064 211.12L137.028 212.434C131.25 212.866 125.022 213.298 121.026 213.568L120.864 212.164ZM123.96 200.878H125.4V212.506H123.96V200.878ZM132.618 200.878H134.058V215.44H132.618V200.878ZM147.756 199.924H152.256V201.202H147.756V199.924ZM146.946 199.924H148.26V205.702C148.26 208.69 147.9 212.776 145.308 215.44C145.092 215.188 144.57 214.756 144.264 214.576C146.712 212.074 146.946 208.474 146.946 205.684V199.924ZM151.644 199.924H152.994V212.902C152.994 213.478 153.012 213.82 153.102 213.91C153.192 213.982 153.3 214.018 153.426 214.018C153.552 214.018 153.786 214.018 153.948 214.018C154.11 214.018 154.236 213.982 154.326 213.874C154.416 213.784 154.47 213.622 154.506 213.19C154.542 212.794 154.56 211.84 154.578 210.616C154.848 210.886 155.28 211.084 155.604 211.21C155.604 212.236 155.532 213.55 155.478 214.018C155.388 214.522 155.226 214.828 154.974 215.026C154.704 215.188 154.38 215.26 154.002 215.26C153.75 215.26 153.318 215.26 153.102 215.26C152.742 215.26 152.328 215.17 152.058 214.918C151.752 214.666 151.644 214.324 151.644 212.776V199.924ZM138.918 202.75H145.884V204.046H138.918V202.75ZM141.924 198.88H143.22V215.422H141.924V198.88ZM141.852 203.542L142.752 203.848C142.068 206.782 140.664 210.292 139.206 212.092C139.062 211.714 138.72 211.174 138.486 210.868C139.872 209.248 141.258 206.17 141.852 203.542ZM143.094 205.522C143.634 206.026 145.56 208.168 145.974 208.69L145.146 209.788C144.624 208.924 143.04 206.908 142.41 206.17L143.094 205.522ZM166.044 211.858H171.624V213.154H166.044V211.858ZM165.54 200.572H172.254V214.522H170.886V201.85H166.854V214.648H165.54V200.572ZM160.428 200.41H161.778V215.422H160.428V200.41ZM156.9 204.208H164.928V205.468H156.9V204.208ZM160.356 204.658L161.31 205C160.464 207.79 158.808 211.12 157.188 212.848C157.044 212.47 156.702 211.93 156.468 211.606C157.98 210.058 159.636 207.142 160.356 204.658ZM163.884 199.06L164.802 200.104C162.876 200.824 159.924 201.346 157.458 201.634C157.386 201.328 157.224 200.878 157.062 200.572C159.456 200.248 162.318 199.708 163.884 199.06ZM161.67 205.828C162.246 206.404 164.334 208.852 164.802 209.446L163.974 210.544C163.398 209.59 161.652 207.286 160.986 206.494L161.67 205.828ZM174.972 210.328H191.01V211.588H174.972V210.328ZM175.476 201.004H190.578V202.246H175.476V201.004ZM179.148 204.064H186.87V205.216H179.148V204.064ZM179.148 207.178H186.87V208.348H179.148V207.178ZM178.284 198.916H179.616V210.886H178.284V198.916ZM186.33 198.916H187.698V210.886H186.33V198.916ZM184.314 212.848L185.232 211.984C187.374 212.74 189.66 213.73 191.064 214.486L189.84 215.368C188.562 214.612 186.42 213.622 184.314 212.848ZM180.498 211.876L181.686 212.74C180.084 213.73 177.636 214.774 175.692 215.404C175.494 215.134 175.08 214.666 174.792 214.378C176.736 213.82 179.22 212.758 180.498 211.876ZM203.142 198.916H204.42V211.426H203.142V198.916ZM196.878 206.332L207.696 202.138L208.218 203.308L197.382 207.52L196.878 206.332ZM199.146 200.68H200.478V212.722C200.478 213.748 200.73 213.982 202.008 213.982C202.62 213.982 205.842 213.982 206.634 213.982C207.732 213.982 207.93 213.478 208.074 211.354C208.398 211.588 208.938 211.822 209.334 211.912C209.1 214.396 208.668 215.206 206.67 215.206C206.148 215.206 202.44 215.206 201.954 215.206C199.776 215.206 199.146 214.702 199.146 212.704V200.68ZM207.246 202.444H207.084L207.408 202.174L207.642 201.958L208.578 202.354L208.524 202.57C208.506 205.846 208.47 208.438 208.29 209.212C208.146 210.04 207.768 210.382 207.21 210.526C206.724 210.652 205.932 210.67 205.392 210.652C205.356 210.274 205.212 209.716 205.05 209.41C205.554 209.428 206.202 209.428 206.436 209.428C206.742 209.428 206.94 209.356 207.066 208.888C207.21 208.312 207.246 205.954 207.246 202.444ZM196.788 198.952L198.03 199.348C196.86 202.372 195.006 205.432 193.08 207.448C192.936 207.142 192.558 206.44 192.324 206.134C194.106 204.388 195.78 201.688 196.788 198.952ZM194.88 203.596L196.176 202.282L196.194 202.3V215.422H194.88V203.596ZM211.314 202.372H226.812V203.614H211.314V202.372ZM211.242 209.518H226.902V210.796H211.242V209.518ZM223.41 199.258L224.85 199.726C224.112 200.716 223.23 201.76 222.528 202.462L221.394 202.03C222.078 201.292 222.942 200.086 223.41 199.258ZM218.28 198.898H219.63V207.178H218.28V198.898ZM213.276 199.924L214.428 199.384C215.22 200.122 216.084 201.166 216.444 201.886L215.238 202.498C214.878 201.778 214.05 200.698 213.276 199.924ZM220.782 208.006L221.574 207.322C222.618 207.736 224.004 208.366 224.742 208.834L223.896 209.608C223.23 209.122 221.862 208.456 220.782 208.006ZM218.352 207.574H219.774C219.288 211.876 218.046 214.36 211.53 215.458C211.404 215.098 211.08 214.504 210.828 214.216C216.966 213.298 217.956 211.264 218.352 207.574ZM217.776 202.876L218.892 203.344C217.38 205.486 214.608 207.232 211.836 208.042C211.638 207.682 211.242 207.178 210.936 206.89C213.672 206.242 216.426 204.694 217.776 202.876ZM220.098 202.84C221.448 204.676 224.184 206.116 227.064 206.71C226.776 206.962 226.398 207.484 226.218 207.844C223.284 207.106 220.494 205.45 219 203.272L220.098 202.84ZM219.846 209.932C220.872 212.506 223.338 213.802 227.334 214.144C227.028 214.45 226.65 215.044 226.488 215.44C222.312 214.9 219.828 213.352 218.604 210.202L219.846 209.932ZM232.968 211.282C234.57 210.76 237.072 209.878 239.412 209.014L239.664 210.184C237.54 211.048 235.272 211.948 233.526 212.614L232.968 211.282ZM241.104 210.796L242.094 209.968C243.318 211.39 244.884 213.334 245.622 214.486L244.56 215.458C243.84 214.252 242.31 212.254 241.104 210.796ZM237.468 201.706L238.602 201.22C239.556 202.534 240.564 204.316 240.96 205.432L239.754 206.026C239.376 204.874 238.404 203.056 237.468 201.706ZM243.102 199.618L244.488 199.672C244.074 208.708 242.598 213.118 235.848 215.566C235.704 215.278 235.236 214.684 234.948 214.378C241.536 212.344 242.796 208.132 243.102 199.618ZM232.752 198.952L234.03 199.348C232.842 202.408 230.988 205.45 229.044 207.466C228.9 207.16 228.522 206.44 228.27 206.134C230.052 204.388 231.744 201.688 232.752 198.952ZM230.88 203.596L232.14 202.318L232.176 202.336V215.422H230.88V203.596ZM234.75 199.924H236.064L236.172 211.048L234.858 211.192L234.75 199.924ZM248.178 200.05L249.06 199.222C250.032 200.014 251.256 201.166 251.832 201.904L250.914 202.876C250.356 202.102 249.15 200.896 248.178 200.05ZM249.132 215.08L248.88 213.874L249.24 213.316L252.606 210.868C252.732 211.228 252.948 211.732 253.11 211.984C249.906 214.36 249.42 214.738 249.132 215.08ZM246.774 204.532H249.96V205.846H246.774V204.532ZM255.198 199.546H259.914V200.806H255.198V199.546ZM252.894 206.836H261.3V208.114H252.894V206.836ZM260.886 206.836H261.138L261.372 206.782L262.2 207.16C260.724 211.858 256.98 214.342 252.786 215.458C252.66 215.116 252.372 214.576 252.138 214.27C256.026 213.406 259.608 211.03 260.886 207.052V206.836ZM254.712 207.79C256.134 211.084 259.194 213.442 263.334 214.306C263.028 214.594 262.668 215.134 262.488 215.494C258.24 214.468 255.216 211.912 253.578 208.186L254.712 207.79ZM254.838 199.546H256.098V201.562C256.098 203.254 255.522 205.198 252.93 206.44C252.768 206.17 252.3 205.648 252.048 205.45C254.424 204.352 254.838 202.858 254.838 201.544V199.546ZM259.284 199.546H260.562V203.722C260.562 204.226 260.616 204.406 260.886 204.406C261.102 204.406 261.912 204.406 262.146 204.406C262.38 204.406 262.758 204.37 262.992 204.316C263.01 204.658 263.064 205.162 263.118 205.468C262.884 205.558 262.524 205.576 262.164 205.576C261.894 205.576 261.012 205.576 260.796 205.576C259.554 205.576 259.284 205.054 259.284 203.704V199.546ZM249.132 215.08C249.024 214.774 248.646 214.198 248.412 213.946C248.736 213.712 249.312 213.118 249.312 212.308V204.532H250.608V213.46C250.608 213.46 249.132 214.558 249.132 215.08ZM269.85 200.428H277.572V201.634H269.85V200.428ZM277.14 200.428H277.428L277.662 200.374L278.544 200.914C275.988 204.802 270.228 206.98 265.152 207.826C265.026 207.43 264.756 206.836 264.54 206.548C269.436 205.882 274.98 203.83 277.14 200.626V200.428ZM269.778 201.652C271.974 204.208 276.564 205.792 281.496 206.332C281.208 206.638 280.848 207.196 280.668 207.574C275.754 206.926 271.146 205.18 268.608 202.264L269.778 201.652ZM267.06 207.574H278.868V215.404H277.41V208.78H268.446V215.458H267.06V207.574ZM267.618 210.58H278.058V211.678H267.618V210.58ZM267.618 213.676H278.058V214.864H267.618V213.676ZM272.262 208.132H273.666V214.342H272.262V208.132ZM270.642 198.844L272.082 199.132C270.876 201.058 269.04 202.966 266.286 204.424C266.088 204.082 265.674 203.632 265.368 203.416C267.96 202.192 269.742 200.392 270.642 198.844ZM285.492 209.626C287.004 209.626 288.228 210.85 288.228 212.362C288.228 213.874 287.004 215.098 285.492 215.098C283.98 215.098 282.738 213.874 282.738 212.362C282.738 210.85 283.98 209.626 285.492 209.626ZM285.492 214.18C286.5 214.18 287.31 213.37 287.31 212.362C287.31 211.354 286.5 210.544 285.492 210.544C284.484 210.544 283.656 211.354 283.656 212.362C283.656 213.37 284.484 214.18 285.492 214.18Z" fill="#2D3342"/>
<defs>
<linearGradient id="paint0_linear_1411_8927" x1="341.03" y1="34" x2="364.604" y2="91.3026" gradientUnits="userSpaceOnUse">
<stop stop-color="#5955B3"/>
<stop offset="1" stop-color="#6563CE"/>
</linearGradient>
</defs>
</svg>
