<svg width="753" height="407" viewBox="0 0 753 407" fill="none" xmlns="http://www.w3.org/2000/svg">
<rect width="753" height="407" fill="white"/>
<path opacity="0.2" fill-rule="evenodd" clip-rule="evenodd" d="M752.692 386.791C752.65 397.756 743.785 406.64 732.827 406.712H436C448.567 371.704 501.062 301.687 610.504 301.687C719.946 301.687 750.897 247.229 752.692 220V386.791Z" fill="#79A4E2"/>
<path opacity="0.2" fill-rule="evenodd" clip-rule="evenodd" d="M211.324 0C208.649 18.1119 192.257 69.0439 124.729 92.1467C59.2117 114.562 16.0506 106.853 0.000526837 99.6083L0.000520413 20C0.000519521 8.95433 8.95483 1.9166e-05 20.0005 1.81199e-05L211.324 0Z" fill="#6EA3E6"/>
<path d="M84.152 306.852H99.83V308.076H84.152V306.852ZM91.406 307.374H92.81V314.358C92.81 317.832 91.856 320.928 84.638 322.458C84.494 322.17 84.116 321.594 83.828 321.27C90.848 319.974 91.406 317.328 91.406 314.34V307.374ZM87.086 313.602V315.438H97.346V313.602H87.086ZM87.086 310.722V312.522H97.346V310.722H87.086ZM85.808 309.588H98.714V316.572H85.808V309.588ZM87.536 316.716C89.822 320.28 93.926 320.892 100.424 321.054C100.19 321.378 99.92 321.954 99.848 322.386C93.224 322.116 88.796 321.27 86.384 317.184L87.536 316.716ZM105.518 309.858L106.418 309.066C107.768 309.696 109.424 310.704 110.234 311.46L109.28 312.342C108.506 311.586 106.868 310.524 105.518 309.858ZM113.834 307.41H114.104L114.338 307.338L115.22 307.878C112.88 312.072 107.552 314.592 102.8 315.636C102.674 315.294 102.404 314.736 102.152 314.448C106.688 313.602 111.872 311.172 113.834 307.626V307.41ZM107.822 307.41H114.176V308.544H107.822V307.41ZM109.154 305.862L110.666 306.186C109.01 308.094 106.562 309.876 103.214 311.208C103.016 310.884 102.602 310.434 102.296 310.2C105.536 309.066 107.912 307.374 109.154 305.862ZM107.822 316.464L108.812 315.69C110.234 316.428 111.962 317.562 112.826 318.426L111.764 319.29C110.954 318.444 109.244 317.238 107.822 316.464ZM116.462 313.71H116.732L116.984 313.638L117.866 314.124C115.598 319.38 109.982 321.63 104.096 322.494C104.006 322.116 103.736 321.558 103.52 321.252C109.082 320.586 114.518 318.444 116.462 313.908V313.71ZM110.612 313.71H116.822V314.862H110.612V313.71ZM112.07 312.018L113.564 312.36C111.746 314.484 108.902 316.446 104.96 317.832C104.798 317.526 104.402 317.04 104.114 316.788C107.93 315.6 110.666 313.728 112.07 312.018ZM122.69 309.948H133.274V311.244H122.69V309.948ZM122.024 314.34H134.012V315.618H122.024V314.34ZM128.648 314.772C129.476 317.94 131.33 320.298 134.426 321.252C134.102 321.54 133.706 322.08 133.508 322.44C130.286 321.27 128.414 318.678 127.478 315.024L128.648 314.772ZM131.312 305.916L132.716 306.402C132.068 307.554 131.276 308.886 130.646 309.732L129.548 309.282C130.142 308.382 130.898 306.924 131.312 305.916ZM123.428 306.654L124.526 306.096C125.282 307.014 126.074 308.292 126.398 309.138L125.228 309.786C124.922 308.922 124.148 307.608 123.428 306.654ZM127.19 310.254H128.594V313.998C128.594 316.77 127.928 320.208 122.402 322.512C122.204 322.188 121.79 321.72 121.466 321.45C126.83 319.416 127.19 316.32 127.19 313.998V310.254ZM137.972 313.08H154.028V314.412H137.972V313.08ZM145.442 307.626H146.864V320.478C146.864 321.468 146.594 321.882 145.91 322.116C145.244 322.332 144.056 322.368 142.22 322.368C142.13 321.972 141.86 321.342 141.662 320.946C143.138 320.982 144.506 320.982 144.92 320.964C145.298 320.946 145.442 320.838 145.442 320.478V307.626ZM139.232 307.176H152.768V308.508H139.232V307.176ZM161.228 305.844L162.542 306.222C161.696 308.292 160.328 310.272 158.87 311.55C158.654 311.298 158.15 310.812 157.826 310.596C159.248 309.48 160.508 307.716 161.228 305.844ZM161.21 307.68H168.95V308.85H160.598L161.21 307.68ZM161.372 313.044V314.286H166.754V313.044H161.372ZM161.372 310.902V312.126H166.754V310.902H161.372ZM160.13 309.948H168.05V315.24H160.13V309.948ZM162.398 314.844L163.622 315.222C162.542 317.04 160.67 318.606 158.888 319.596C158.69 319.344 158.222 318.876 157.916 318.66C159.734 317.796 161.462 316.428 162.398 314.844ZM161.714 317.112C163.172 319.2 166.358 320.784 169.922 321.306C169.634 321.576 169.274 322.134 169.094 322.476C165.458 321.792 162.326 319.974 160.706 317.49L161.714 317.112ZM161.966 316.266H167.276V317.274H161.318L161.966 316.266ZM166.844 316.266H167.114L167.348 316.212L168.194 316.626C166.52 320.01 162.668 321.756 158.744 322.53C158.618 322.188 158.33 321.72 158.114 321.45C161.768 320.856 165.458 319.236 166.844 316.464V316.266ZM175.142 307.05L176.06 306.24C176.978 306.996 178.148 308.094 178.706 308.796L177.752 309.75C177.23 308.994 176.078 307.86 175.142 307.05ZM176.204 321.99L176.006 320.784L176.402 320.226L179.678 318.12C179.768 318.462 179.912 318.984 180.038 319.254C176.978 321.342 176.492 321.648 176.204 321.99ZM173.9 311.532H177.086V312.846H173.9V311.532ZM179.228 309.642H190.262V310.938H179.228V309.642ZM179.804 313.548H184.628V314.808H179.804V313.548ZM181.676 314.268H182.918V319.74L181.676 319.884V314.268ZM179.462 319.92C180.866 319.56 182.972 318.984 185.042 318.408L185.222 319.596C183.332 320.172 181.352 320.748 179.84 321.18L179.462 319.92ZM186.986 306.69L187.904 306.114C188.66 306.87 189.524 307.914 189.902 308.616L188.912 309.282C188.552 308.58 187.724 307.482 186.986 306.69ZM185.06 305.97H186.428C186.482 313.872 187.238 320.55 188.66 320.622C188.984 320.64 189.2 319.614 189.308 317.868C189.56 318.138 190.154 318.48 190.388 318.606C190.028 321.63 189.326 322.404 188.624 322.386C185.906 322.332 185.258 315.384 185.06 305.97ZM176.204 321.99C176.096 321.648 175.754 321.072 175.52 320.802C175.844 320.604 176.384 320.082 176.384 319.326V311.532H177.68V320.496C177.68 320.496 176.204 321.486 176.204 321.99ZM193.358 308.778H198.83V320.55H193.358V319.326H197.57V309.984H193.358V308.778ZM192.548 308.778H193.808V321.99H192.548V308.778ZM193.268 313.782H198.236V314.988H193.268V313.782ZM195.302 305.844L196.76 306.114C196.4 307.23 195.95 308.472 195.59 309.282L194.51 309.012C194.816 308.148 195.158 306.78 195.302 305.844ZM201.386 308.724H206.912V309.984H201.386V308.724ZM206.444 308.724H207.704C207.704 308.724 207.704 309.228 207.704 309.426C207.416 317.688 207.164 320.478 206.444 321.36C206.048 321.882 205.634 322.044 205.004 322.098C204.392 322.17 203.33 322.134 202.322 322.08C202.286 321.684 202.124 321.126 201.872 320.766C203.042 320.856 204.122 320.874 204.536 320.874C204.896 320.874 205.112 320.82 205.31 320.586C205.904 319.938 206.192 316.95 206.444 309.012V308.724ZM201.764 305.808L203.06 306.114C202.394 308.796 201.332 311.442 200.09 313.152C199.856 312.936 199.298 312.558 198.974 312.378C200.198 310.794 201.188 308.31 201.764 305.808ZM200.936 313.404L201.98 312.792C203.006 314.07 204.248 315.816 204.824 316.878L203.672 317.598C203.132 316.5 201.926 314.718 200.936 313.404ZM216.272 306.744H224.606V307.842H216.272V306.744ZM216.056 311.73H224.93V312.846H216.056V311.73ZM216.056 314.232H224.894V315.348H216.056V314.232ZM216.578 320.478H224.39V321.594H216.578V320.478ZM214.58 309.228H226.298V310.362H214.58V309.228ZM215.876 316.734H225.092V322.386H223.742V317.832H217.172V322.44H215.876V316.734ZM213.968 305.934L215.246 306.33C214.022 309.372 212.096 312.396 210.098 314.394C209.972 314.088 209.594 313.386 209.342 313.062C211.16 311.352 212.924 308.67 213.968 305.934ZM212.096 310.578L213.374 309.3L213.392 309.318V322.404H212.096V310.578ZM232.382 317.598H233.714V320.568C233.714 321.036 233.876 321.126 234.848 321.126C235.28 321.126 237.548 321.126 238.142 321.126C238.916 321.126 239.042 320.91 239.114 319.38C239.42 319.596 239.978 319.794 240.338 319.866C240.158 321.864 239.762 322.35 238.268 322.35C237.854 322.35 235.136 322.35 234.74 322.35C232.85 322.35 232.382 321.972 232.382 320.586V317.598ZM234.236 316.968L235.226 316.266C236.288 316.968 237.476 318.012 238.016 318.822L236.954 319.578C236.45 318.786 235.28 317.688 234.236 316.968ZM240.05 317.94L241.13 317.274C242.426 318.372 243.848 319.938 244.424 321.09L243.272 321.846C242.714 320.712 241.364 319.092 240.05 317.94ZM229.916 317.454L231.104 317.886C230.654 319.29 229.952 320.874 228.764 321.846L227.666 321.072C228.764 320.208 229.52 318.768 229.916 317.454ZM231.878 310.938V312.432H240.302V310.938H231.878ZM231.878 313.476V314.97H240.302V313.476H231.878ZM231.878 308.436V309.912H240.302V308.436H231.878ZM230.582 307.356H241.652V316.068H230.582V307.356ZM235.37 305.7L236.936 305.97C236.576 306.744 236.144 307.464 235.838 307.986L234.632 307.698C234.902 307.122 235.208 306.276 235.37 305.7ZM248.492 316.626C250.004 316.626 251.228 317.85 251.228 319.362C251.228 320.874 250.004 322.098 248.492 322.098C246.98 322.098 245.738 320.874 245.738 319.362C245.738 317.85 246.98 316.626 248.492 316.626ZM248.492 321.18C249.5 321.18 250.31 320.37 250.31 319.362C250.31 318.354 249.5 317.544 248.492 317.544C247.484 317.544 246.656 318.354 246.656 319.362C246.656 320.37 247.484 321.18 248.492 321.18ZM265.544 321.121C265.195 321.121 264.894 320.998 264.643 320.751C264.391 320.499 264.266 320.197 264.266 319.843C264.266 319.494 264.391 319.195 264.643 318.948C264.894 318.697 265.195 318.571 265.544 318.571C265.893 318.571 266.194 318.697 266.445 318.948C266.697 319.195 266.822 319.494 266.822 319.843C266.822 320.077 266.763 320.293 266.643 320.489C266.528 320.68 266.375 320.834 266.183 320.949C265.991 321.064 265.778 321.121 265.544 321.121ZM270.642 321.121C270.292 321.121 269.992 320.998 269.74 320.751C269.489 320.499 269.363 320.197 269.363 319.843C269.363 319.494 269.489 319.195 269.74 318.948C269.992 318.697 270.292 318.571 270.642 318.571C270.991 318.571 271.292 318.697 271.543 318.948C271.794 319.195 271.92 319.494 271.92 319.843C271.92 320.077 271.86 320.293 271.741 320.489C271.626 320.68 271.473 320.834 271.281 320.949C271.089 321.064 270.876 321.121 270.642 321.121Z" fill="#5955B3"/>
<path d="M354.56 54.944C354.416 54.368 353.936 52.952 353.6 52.184C354.272 52.04 354.8 51.512 355.616 50.648C356.504 49.808 359.096 46.52 360.728 43.304L363.296 44.96C361.376 48.056 358.856 51.2 356.408 53.456V53.528C356.408 53.528 354.56 54.416 354.56 54.944ZM354.56 54.944L354.392 52.592L355.712 51.704L362.72 50.624C362.696 51.392 362.792 52.52 362.888 53.12C356.336 54.296 355.28 54.56 354.56 54.944ZM354.368 48.968C354.2 48.368 353.72 46.952 353.36 46.16C353.888 46.016 354.32 45.536 354.848 44.792C355.376 44.072 357.008 41.288 357.896 38.6L360.848 39.8C359.624 42.536 357.8 45.44 356.144 47.408V47.48C356.144 47.48 354.368 48.416 354.368 48.968ZM354.368 48.968L354.296 46.904L355.544 46.088L360.656 45.728C360.488 46.424 360.368 47.504 360.344 48.08C355.808 48.536 354.896 48.704 354.368 48.968ZM353.6 57.248C355.976 56.888 359.552 56.264 362.888 55.616L363.128 58.304C360.008 59 356.648 59.648 354.056 60.2L353.6 57.248ZM362.864 41.552H375.92V44.336H362.864V41.552ZM363.488 46.976H375.368V49.712H363.488V46.976ZM365.624 57.512H373.4V60.104H365.624V57.512ZM367.904 38.6H370.928V48.344H367.904V38.6ZM364.064 51.464H374.912V61.04H371.984V54.056H366.872V61.136H364.064V51.464ZM378.272 51.248H399.752V53.888H378.272V51.248ZM387.512 40.712H390.584V61.16H387.512V40.712ZM386.72 52.544L389.12 53.576C386.864 56.576 383.144 59.168 379.496 60.512C379.064 59.816 378.176 58.736 377.552 58.136C381.104 57.056 384.824 54.872 386.72 52.544ZM391.112 52.376C393.08 54.68 396.92 56.864 400.448 57.944C399.824 58.52 398.936 59.648 398.504 60.368C394.952 58.976 391.16 56.312 388.856 53.384L391.112 52.376ZM383.624 45.872V47.432H394.376V45.872H383.624ZM383.624 42.128V43.64H394.376V42.128H383.624ZM380.624 39.728H397.544V49.832H380.624V39.728Z" fill="url(#paint0_linear_1411_8914)"/>
<path d="M93.296 109.344H98.93V110.622H93.296V109.344ZM92.558 97.824H99.614V111.72H98.282V99.12H93.854V111.99H92.558V97.824ZM83.774 99.57H90.47V100.866H83.774V99.57ZM86.834 95.88L88.148 96.042C87.356 99.642 86.132 104.52 85.232 107.508L84.08 106.95C84.944 104.178 86.132 99.318 86.834 95.88ZM84.71 106.266L85.448 105.276C87.788 106.482 90.56 108.372 91.838 109.848L91.046 111C89.786 109.506 87.032 107.526 84.71 106.266ZM90.092 99.57H90.308L90.56 99.534L91.388 99.696C90.83 106.95 88.598 110.586 84.854 112.458C84.674 112.134 84.314 111.63 84.026 111.342C87.446 109.848 89.588 106.248 90.092 99.858V99.57ZM102.098 105.438H117.902V106.698H102.098V105.438ZM109.28 97.194H110.702V112.44H109.28V97.194ZM108.794 105.978L109.928 106.464C108.254 108.768 105.266 110.82 102.566 111.846C102.368 111.522 101.936 111.018 101.648 110.748C104.312 109.866 107.282 107.958 108.794 105.978ZM111.116 105.924C112.682 107.85 115.742 109.758 118.37 110.64C118.064 110.91 117.65 111.432 117.434 111.774C114.824 110.73 111.764 108.624 110.036 106.41L111.116 105.924ZM105.23 100.866V102.756H114.806V100.866H105.23ZM105.23 97.914V99.768H114.806V97.914H105.23ZM103.844 96.762H116.246V103.908H103.844V96.762ZM120.152 101.226H135.65V102.396H120.152V101.226ZM121.538 98.022H131.762V99.156H121.538V98.022ZM126.128 95.88H127.46V101.802H126.128V95.88ZM132.878 103.548L133.76 104.466C131.492 105.078 127.982 105.492 125.048 105.708C125.012 105.438 124.85 105.006 124.724 104.772C127.568 104.52 130.988 104.07 132.878 103.548ZM133.832 96.726L134.93 97.338C131.294 101.748 125.822 105.096 120.278 107.22C120.098 106.95 119.684 106.41 119.414 106.158C125.03 104.214 130.448 100.866 133.832 96.726ZM124.526 103.584L125.858 103.746C125.48 105.492 124.94 107.706 124.526 109.056L123.176 108.876C123.626 107.508 124.184 105.258 124.526 103.584ZM132.374 107.04H133.742C133.742 107.04 133.706 107.436 133.67 107.652C133.238 110.316 132.842 111.504 132.248 112.026C131.87 112.368 131.492 112.458 130.862 112.476C130.304 112.512 129.242 112.494 128.126 112.422C128.09 112.062 127.928 111.54 127.694 111.18C128.828 111.288 129.998 111.306 130.43 111.306C130.808 111.306 131.024 111.288 131.204 111.144C131.654 110.784 132.032 109.686 132.356 107.22L132.374 107.04ZM124.328 107.04H132.734V108.174H124.04L124.328 107.04ZM139.142 97.05L140.06 96.24C140.978 96.996 142.148 98.094 142.706 98.796L141.752 99.75C141.23 98.994 140.078 97.86 139.142 97.05ZM140.204 111.99L140.006 110.784L140.402 110.226L143.678 108.12C143.768 108.462 143.912 108.984 144.038 109.254C140.978 111.342 140.492 111.648 140.204 111.99ZM137.9 101.532H141.086V102.846H137.9V101.532ZM143.228 99.642H154.262V100.938H143.228V99.642ZM143.804 103.548H148.628V104.808H143.804V103.548ZM145.676 104.268H146.918V109.74L145.676 109.884V104.268ZM143.462 109.92C144.866 109.56 146.972 108.984 149.042 108.408L149.222 109.596C147.332 110.172 145.352 110.748 143.84 111.18L143.462 109.92ZM150.986 96.69L151.904 96.114C152.66 96.87 153.524 97.914 153.902 98.616L152.912 99.282C152.552 98.58 151.724 97.482 150.986 96.69ZM149.06 95.97H150.428C150.482 103.872 151.238 110.55 152.66 110.622C152.984 110.64 153.2 109.614 153.308 107.868C153.56 108.138 154.154 108.48 154.388 108.606C154.028 111.63 153.326 112.404 152.624 112.386C149.906 112.332 149.258 105.384 149.06 95.97ZM140.204 111.99C140.096 111.648 139.754 111.072 139.52 110.802C139.844 110.604 140.384 110.082 140.384 109.326V101.532H141.68V110.496C141.68 110.496 140.204 111.486 140.204 111.99ZM163.28 96.546H168.608V97.806H163.28V96.546ZM161.12 103.836H169.994V105.114H161.12V103.836ZM167.816 96.546H169.166V100.956C169.166 101.316 169.184 101.55 169.292 101.622C169.382 101.676 169.508 101.694 169.706 101.694C169.85 101.694 170.192 101.694 170.39 101.694C170.57 101.694 170.786 101.658 170.894 101.622C171.002 101.568 171.092 101.424 171.128 101.19C171.182 100.92 171.2 100.308 171.218 99.516C171.488 99.768 171.974 99.984 172.334 100.11C172.316 100.884 172.262 101.73 172.136 102.036C172.01 102.342 171.794 102.558 171.506 102.684C171.272 102.792 170.822 102.846 170.498 102.846C170.228 102.846 169.616 102.846 169.4 102.846C169.004 102.846 168.536 102.756 168.248 102.504C167.942 102.27 167.816 101.964 167.816 100.902V96.546ZM169.454 103.836H169.724L169.994 103.782L170.894 104.178C169.22 108.966 165.026 111.414 160.454 112.476C160.31 112.116 160.004 111.54 159.734 111.252C164.036 110.406 168.032 108.102 169.454 104.052V103.836ZM163.676 105.006C165.134 108.174 168.284 110.442 172.478 111.27C172.172 111.558 171.776 112.098 171.578 112.476C167.276 111.486 164.144 109.02 162.47 105.42L163.676 105.006ZM162.722 96.546H164.036V98.634C164.036 100.326 163.514 102.342 161.192 103.656C161.012 103.368 160.526 102.864 160.256 102.666C162.38 101.514 162.722 99.966 162.722 98.616V96.546ZM156.656 97.014L157.394 96.042C158.564 96.528 160.004 97.356 160.688 98.004L159.914 99.102C159.212 98.436 157.808 97.554 156.656 97.014ZM155.684 101.892L156.404 100.884C157.574 101.334 159.032 102.126 159.77 102.738L158.996 103.854C158.294 103.224 156.854 102.396 155.684 101.892ZM156.26 111.306C157.178 109.92 158.492 107.562 159.5 105.51L160.508 106.374C159.608 108.264 158.42 110.532 157.412 112.188L156.26 111.306ZM174.134 98.22H189.902V99.498H174.134V98.22ZM178.526 104.646H186.986V105.816H178.526V104.646ZM177.572 101.586H186.77V102.792H178.904V112.44H177.572V101.586ZM186.464 101.586H187.778V110.766C187.778 111.558 187.616 111.972 187.004 112.188C186.428 112.404 185.42 112.404 183.872 112.404C183.818 112.026 183.62 111.468 183.422 111.09C184.628 111.144 185.726 111.126 186.05 111.126C186.356 111.108 186.464 111.018 186.464 110.748V101.586ZM180.02 95.88L181.388 96.204C180.164 100.164 178.004 104.16 174.566 106.572C174.386 106.266 173.972 105.798 173.702 105.528C176.924 103.314 179.048 99.498 180.02 95.88ZM178.526 107.688H186.986V108.858H178.526V107.688ZM196.508 104.196H207.272V105.402H196.508V104.196ZM197.336 100.956H207.038V102.126H197.336V100.956ZM201.404 96.006H202.7V110.082H201.404V96.006ZM196.598 97.824H207.848V99.012H196.598V97.824ZM206.75 104.196H207.992C207.992 104.196 207.974 104.538 207.956 104.718C207.722 107.184 207.524 108.228 207.092 108.642C206.804 108.912 206.534 109.02 206.084 109.038C205.706 109.074 204.986 109.074 204.248 109.038C204.212 108.696 204.086 108.228 203.906 107.904C204.626 107.994 205.274 107.994 205.544 107.994C205.796 107.994 205.94 107.976 206.084 107.85C206.336 107.562 206.552 106.68 206.75 104.376V104.196ZM195.032 109.2C195.608 109.2 196.04 109.65 196.976 110.154C198.092 110.784 199.658 110.892 201.602 110.892C203.672 110.892 206.48 110.766 208.298 110.568C208.136 110.91 207.938 111.522 207.92 111.918C206.48 112.008 203.366 112.098 201.566 112.098C199.478 112.098 197.93 111.936 196.706 111.27C195.986 110.856 195.41 110.352 195.014 110.352C194.402 110.352 193.52 111.27 192.638 112.296L191.774 111.144C192.926 110.028 194.132 109.2 195.032 109.2ZM192.188 97.338L193.214 96.618C194.258 97.464 195.5 98.706 196.094 99.534L195.014 100.344C194.456 99.516 193.232 98.22 192.188 97.338ZM195.518 102.576V109.794H194.222V103.836H191.9V102.576H195.518ZM210.152 98.886H216.488V100.146H210.152V98.886ZM209.756 103.044H216.704V104.34H209.756V103.044ZM212.726 96.078H214.022V101.91C214.022 105.078 213.752 109.488 210.602 112.26C210.422 111.99 209.972 111.54 209.648 111.324C212.618 108.876 212.726 104.718 212.726 101.928V96.078ZM213.716 105.204C214.31 105.762 216.344 108.21 216.812 108.786L215.876 109.794C215.282 108.84 213.572 106.626 212.888 105.834L213.716 105.204ZM217.55 96.762H225.164V106.338H223.832V97.95H218.864V106.338H217.55V96.762ZM221.33 105.798H222.536V110.388C222.536 110.874 222.698 110.982 223.13 110.982H224.408C224.984 110.982 225.092 110.514 225.164 108.03C225.47 108.282 225.938 108.462 226.262 108.534C226.118 111.36 225.902 112.062 224.426 112.062H222.968C221.798 112.062 221.33 111.738 221.33 110.532V105.798ZM220.736 99.498H221.996V102.972C221.996 106.05 221.186 109.992 216.452 112.422C216.308 112.17 215.876 111.666 215.606 111.45C220.16 109.128 220.736 105.726 220.736 102.954V99.498ZM231.644 102.99V109.362H230.366V104.25H227.738V102.99H231.644ZM231.644 108.822C232.526 110.154 234.074 110.766 236.198 110.838C238.178 110.928 242.336 110.874 244.496 110.73C244.334 111.036 244.136 111.666 244.064 112.062C242.066 112.152 238.214 112.188 236.198 112.098C233.84 112.008 232.202 111.378 231.086 109.956C230.168 110.73 229.196 111.522 228.17 112.296L227.504 110.964C228.404 110.406 229.52 109.596 230.474 108.822H231.644ZM228.044 97.14L228.98 96.294C230.132 97.104 231.482 98.328 232.076 99.21L231.05 100.146C230.492 99.264 229.178 97.986 228.044 97.14ZM235.244 98.904L236.108 98.148C237.8 98.742 240.068 99.732 241.274 100.452L240.356 101.298C239.222 100.596 236.99 99.57 235.244 98.904ZM233.534 100.416H242.84V101.46H234.812V109.74H233.534V100.416ZM242.192 100.416H243.488V108.39C243.488 109.056 243.362 109.362 242.876 109.56C242.408 109.776 241.652 109.776 240.446 109.776C240.392 109.434 240.23 108.966 240.068 108.66C240.914 108.696 241.67 108.678 241.904 108.678C242.138 108.678 242.192 108.606 242.192 108.372V100.416ZM233.534 96.636H242.516V97.716H233.534V96.636ZM234.236 103.044H242.714V104.052H234.236V103.044ZM234.236 105.69H242.714V106.734H234.236V105.69ZM237.836 100.848H239.06V109.668H237.836V100.848ZM242.066 96.636H242.372L242.66 96.564L243.488 97.212C242.282 98.346 240.464 99.462 238.826 100.146C238.646 99.912 238.304 99.552 238.106 99.354C239.582 98.778 241.256 97.734 242.066 96.888V96.636ZM246.404 97.068L247.448 96.384C248.456 97.284 249.644 98.544 250.202 99.372L249.086 100.182C248.564 99.318 247.412 98.004 246.404 97.068ZM249.698 102.63V109.182H248.384V103.908H245.882V102.63H249.698ZM249.014 108.48C249.626 108.48 250.04 109.02 251.048 109.632C252.218 110.37 253.748 110.496 255.764 110.496C257.888 110.496 260.606 110.352 262.352 110.154C262.172 110.532 261.956 111.216 261.938 111.63C260.66 111.702 257.456 111.792 255.746 111.792C253.496 111.792 251.984 111.612 250.742 110.82C249.968 110.334 249.392 109.74 248.996 109.74C248.384 109.74 247.52 110.802 246.602 112.026L245.648 110.766C246.89 109.416 248.114 108.48 249.014 108.48ZM250.976 99.138H261.812V100.416H250.976V99.138ZM257.942 95.952H259.328V107.562C259.328 108.48 259.076 108.876 258.428 109.092C257.816 109.308 256.718 109.344 255.008 109.344C254.954 108.948 254.72 108.354 254.522 107.958C255.854 107.994 257.096 107.994 257.456 107.994C257.816 107.958 257.942 107.868 257.942 107.544V95.952ZM251.84 102.414L252.92 101.838C253.838 102.936 254.972 104.43 255.494 105.366L254.36 106.068C253.874 105.114 252.758 103.548 251.84 102.414ZM265.826 112.926L265.412 111.99C266.888 111.378 267.698 110.46 267.698 109.11L267.356 107.58L268.328 108.948C268.076 109.272 267.716 109.362 267.374 109.362C266.636 109.362 266.024 108.93 266.024 108.066C266.024 107.22 266.672 106.77 267.392 106.77C268.4 106.77 268.94 107.598 268.94 108.858C268.94 110.802 267.716 112.278 265.826 112.926ZM282.152 101.226H297.65V102.396H282.152V101.226ZM283.538 98.022H293.762V99.156H283.538V98.022ZM288.128 95.88H289.46V101.802H288.128V95.88ZM294.878 103.548L295.76 104.466C293.492 105.078 289.982 105.492 287.048 105.708C287.012 105.438 286.85 105.006 286.724 104.772C289.568 104.52 292.988 104.07 294.878 103.548ZM295.832 96.726L296.93 97.338C293.294 101.748 287.822 105.096 282.278 107.22C282.098 106.95 281.684 106.41 281.414 106.158C287.03 104.214 292.448 100.866 295.832 96.726ZM286.526 103.584L287.858 103.746C287.48 105.492 286.94 107.706 286.526 109.056L285.176 108.876C285.626 107.508 286.184 105.258 286.526 103.584ZM294.374 107.04H295.742C295.742 107.04 295.706 107.436 295.67 107.652C295.238 110.316 294.842 111.504 294.248 112.026C293.87 112.368 293.492 112.458 292.862 112.476C292.304 112.512 291.242 112.494 290.126 112.422C290.09 112.062 289.928 111.54 289.694 111.18C290.828 111.288 291.998 111.306 292.43 111.306C292.808 111.306 293.024 111.288 293.204 111.144C293.654 110.784 294.032 109.686 294.356 107.22L294.374 107.04ZM286.328 107.04H294.734V108.174H286.04L286.328 107.04ZM301.142 97.05L302.06 96.24C302.978 96.996 304.148 98.094 304.706 98.796L303.752 99.75C303.23 98.994 302.078 97.86 301.142 97.05ZM302.204 111.99L302.006 110.784L302.402 110.226L305.678 108.12C305.768 108.462 305.912 108.984 306.038 109.254C302.978 111.342 302.492 111.648 302.204 111.99ZM299.9 101.532H303.086V102.846H299.9V101.532ZM305.228 99.642H316.262V100.938H305.228V99.642ZM305.804 103.548H310.628V104.808H305.804V103.548ZM307.676 104.268H308.918V109.74L307.676 109.884V104.268ZM305.462 109.92C306.866 109.56 308.972 108.984 311.042 108.408L311.222 109.596C309.332 110.172 307.352 110.748 305.84 111.18L305.462 109.92ZM312.986 96.69L313.904 96.114C314.66 96.87 315.524 97.914 315.902 98.616L314.912 99.282C314.552 98.58 313.724 97.482 312.986 96.69ZM311.06 95.97H312.428C312.482 103.872 313.238 110.55 314.66 110.622C314.984 110.64 315.2 109.614 315.308 107.868C315.56 108.138 316.154 108.48 316.388 108.606C316.028 111.63 315.326 112.404 314.624 112.386C311.906 112.332 311.258 105.384 311.06 95.97ZM302.204 111.99C302.096 111.648 301.754 111.072 301.52 110.802C301.844 110.604 302.384 110.082 302.384 109.326V101.532H303.68V110.496C303.68 110.496 302.204 111.486 302.204 111.99ZM320.06 102.63H324.542V103.89H320.06V102.63ZM324.002 102.63H325.316C325.316 102.63 325.316 103.026 325.316 103.206C325.226 107.274 325.118 108.786 324.74 109.29C324.452 109.614 324.164 109.74 323.66 109.794C323.192 109.848 322.382 109.83 321.5 109.794C321.464 109.398 321.32 108.876 321.122 108.534C321.932 108.606 322.724 108.606 323.03 108.606C323.282 108.606 323.462 108.588 323.588 108.426C323.858 108.102 323.948 106.752 324.002 102.864V102.63ZM329.078 96.798L329.888 95.952C331.004 96.528 332.426 97.392 333.128 98.022L332.282 98.94C331.598 98.31 330.212 97.392 329.078 96.798ZM331.652 101.676L333.002 102C331.472 106.698 328.79 110.172 325.1 112.35C324.902 112.08 324.398 111.522 324.11 111.252C327.764 109.308 330.302 106.014 331.652 101.676ZM320.168 98.94H334.1V100.272H320.168V98.94ZM319.304 98.94H320.708V104.016C320.708 106.572 320.42 110.208 318.782 112.566C318.548 112.296 317.972 111.828 317.648 111.666C319.142 109.452 319.304 106.356 319.304 103.998V98.94ZM326.774 95.916H328.178C328.142 104.196 329.906 110.946 332.246 110.946C332.75 110.946 332.984 110.01 333.092 107.616C333.398 107.922 333.902 108.228 334.262 108.354C334.01 111.432 333.506 112.314 332.138 112.314C328.466 112.314 326.846 104.538 326.774 95.916ZM336.188 107.724C336.134 107.472 335.954 106.878 335.792 106.572C336.17 106.5 336.584 106.05 337.16 105.384C337.772 104.736 339.662 102.198 340.922 99.75L341.984 100.398C340.526 102.846 338.78 105.312 337.07 107.058V107.076C337.07 107.076 336.188 107.472 336.188 107.724ZM336.188 107.724L336.116 106.698L336.764 106.248L341.84 105.312C341.804 105.654 341.804 106.14 341.822 106.41C337.178 107.346 336.566 107.508 336.188 107.724ZM336.062 103.404C336.008 103.134 335.792 102.504 335.648 102.162C335.954 102.09 336.278 101.676 336.674 101.046C337.088 100.452 338.456 98.094 339.212 95.916L340.418 96.474C339.446 98.724 338.15 101.046 336.854 102.684V102.72C336.854 102.72 336.062 103.134 336.062 103.404ZM336.062 103.404L336.044 102.45L336.656 102.036L339.95 101.694C339.914 102.018 339.86 102.504 339.878 102.756C336.854 103.152 336.35 103.26 336.062 103.404ZM335.756 110.046C337.286 109.74 339.608 109.218 341.876 108.678L342.002 109.812C339.878 110.352 337.664 110.892 335.99 111.306L335.756 110.046ZM342.29 97.464H351.83V98.526H342.29V97.464ZM342.866 99.606H351.38V100.614H342.866V99.606ZM341.804 101.802H352.226V102.828H341.804V101.802ZM346.322 95.988H347.582V102.36H346.322V95.988ZM346.286 106.086H347.528V107.508C347.528 109.128 346.916 111.162 341.768 112.494C341.624 112.188 341.246 111.738 340.976 111.468C345.854 110.388 346.286 108.678 346.286 107.472V106.086ZM347.402 110.316L348.032 109.452C349.454 109.974 351.362 110.802 352.334 111.414L351.686 112.386C350.732 111.774 348.842 110.856 347.402 110.316ZM342.812 103.962H351.29V109.218H349.994V105.042H344.054V109.218H342.812V103.962ZM359.138 104.466H370.262V105.726H359.138V104.466ZM366.464 103.026H367.796V110.802C367.796 111.594 367.634 111.99 367.058 112.206C366.482 112.422 365.528 112.44 364.106 112.44C364.052 112.062 363.854 111.504 363.656 111.108C364.772 111.144 365.78 111.144 366.104 111.126C366.392 111.108 366.464 111.054 366.464 110.784V103.026ZM368.282 95.88L369.218 96.924C366.644 97.698 362.702 98.31 359.354 98.652C359.3 98.346 359.138 97.86 358.976 97.572C362.27 97.194 366.104 96.564 368.282 95.88ZM359.624 99.588L360.758 99.21C361.334 100.236 361.91 101.604 362.09 102.486L360.884 102.918C360.704 102.054 360.182 100.632 359.624 99.588ZM363.152 98.886L364.358 98.598C364.79 99.66 365.168 100.992 365.24 101.838L363.962 102.18C363.908 101.316 363.566 99.948 363.152 98.886ZM360.578 107.058L361.694 106.464C362.63 107.382 363.656 108.714 364.106 109.614L362.936 110.298C362.54 109.38 361.514 108.012 360.578 107.058ZM357.086 95.898H358.382V112.44H357.086V95.898ZM353.45 107.67C354.458 107.148 355.97 106.248 357.446 105.348L357.878 106.482C356.6 107.382 355.268 108.3 354.134 109.056L353.45 107.67ZM353.648 98.706L354.746 98.184C355.61 99.318 356.492 100.848 356.834 101.838L355.664 102.468C355.34 101.442 354.476 99.876 353.648 98.706ZM368.714 98.382L369.938 98.994C368.966 100.506 367.652 102.234 366.626 103.404L365.582 102.81C366.59 101.64 367.958 99.786 368.714 98.382ZM372.116 98.67H387.884V99.984H372.116V98.67ZM377.696 104.376H387.182V105.636H377.696V104.376ZM376.994 110.748H387.884V112.026H376.994V110.748ZM381.764 100.902H383.114V111.432H381.764V100.902ZM378.038 95.88L379.424 96.222C378.164 100.344 375.968 104.538 372.386 107.112C372.242 106.752 371.9 106.176 371.684 105.87C374.924 103.584 377.03 99.588 378.038 95.88ZM374.474 103.296H375.824V112.386H374.474V103.296ZM394.817 111.179C393.939 111.179 393.155 111.028 392.464 110.725C391.778 110.423 391.235 110.003 390.835 109.466C390.438 108.925 390.225 108.298 390.195 107.587H392.202C392.228 107.974 392.358 108.311 392.592 108.597C392.831 108.878 393.142 109.095 393.526 109.249C393.909 109.402 394.335 109.479 394.804 109.479C395.32 109.479 395.776 109.389 396.172 109.21C396.572 109.031 396.886 108.782 397.112 108.462C397.337 108.138 397.45 107.766 397.45 107.344C397.45 106.905 397.337 106.519 397.112 106.187C396.89 105.85 396.564 105.586 396.134 105.394C395.707 105.202 395.192 105.107 394.587 105.107H393.481V103.496H394.587C395.072 103.496 395.499 103.408 395.865 103.234C396.236 103.059 396.526 102.816 396.734 102.505C396.943 102.19 397.048 101.821 397.048 101.399C397.048 100.994 396.956 100.643 396.773 100.344C396.594 100.042 396.338 99.8054 396.006 99.6349C395.678 99.4645 395.29 99.3793 394.842 99.3793C394.416 99.3793 394.018 99.4581 393.647 99.6158C393.281 99.7692 392.982 99.9908 392.752 100.281C392.522 100.566 392.398 100.909 392.381 101.31H390.47C390.491 100.602 390.7 99.9801 391.097 99.4432C391.497 98.9062 392.026 98.4865 392.682 98.1839C393.338 97.8814 394.067 97.7301 394.868 97.7301C395.707 97.7301 396.432 97.8942 397.041 98.2223C397.655 98.5462 398.128 98.9787 398.46 99.5199C398.797 100.061 398.963 100.653 398.959 101.297C398.963 102.03 398.759 102.652 398.345 103.163C397.936 103.675 397.391 104.018 396.709 104.192V104.295C397.578 104.427 398.251 104.772 398.729 105.33C399.21 105.888 399.449 106.581 399.445 107.408C399.449 108.128 399.249 108.773 398.844 109.344C398.443 109.915 397.896 110.365 397.201 110.693C396.506 111.017 395.712 111.179 394.817 111.179ZM409.53 97.338C408.036 99.606 404.994 102.468 401.79 104.34C401.592 104.034 401.214 103.548 400.908 103.26C404.184 101.406 407.316 98.364 408.738 95.934H410.142C412.104 98.724 415.398 101.514 418.35 103.026C418.008 103.368 417.684 103.836 417.432 104.232C414.498 102.54 411.186 99.696 409.53 97.338ZM408.81 101.838H410.232V112.458H408.81V101.838ZM420.474 97.914H434.802V99.318H420.474V97.914ZM419.52 109.722H435.702V111.072H419.52V109.722ZM426.792 98.616H428.304V110.28H426.792V98.616ZM445.368 98.904H453.9V100.2H444.738L445.368 98.904ZM447.618 102.81H453.486V104.052H447.618V102.81ZM447.6 106.77H453.738V108.048H447.6V106.77ZM446.934 99.318H448.32V112.44H446.934V99.318ZM446.052 96.096L447.366 96.438C446.34 99.3 444.774 102.126 443.118 103.98C442.92 103.746 442.38 103.26 442.074 103.044C443.712 101.37 445.17 98.742 446.052 96.096ZM441.732 95.952L443.028 96.366C441.84 99.408 439.986 102.486 438.024 104.502C437.898 104.178 437.484 103.458 437.232 103.134C439.032 101.388 440.706 98.688 441.732 95.952ZM439.806 100.596L441.138 99.246L441.174 99.264V112.422H439.806V100.596ZM457.77 97.104H469.56V112.17H468.138V98.472H459.156V112.242H457.77V97.104ZM458.688 103.35H468.732V104.682H458.688V103.35ZM458.67 109.722H468.768V111.072H458.67V109.722ZM480.72 103.188L481.728 102.468C483.564 104.052 485.904 106.302 487.056 107.706L485.94 108.57C484.86 107.148 482.556 104.844 480.72 103.188ZM480.918 95.88H482.304V99.408C482.304 102.288 481.782 106.086 477.138 108.804C476.958 108.516 476.49 108.03 476.184 107.796C480.684 105.366 480.918 101.892 480.918 99.408V95.88ZM474.366 98.958H488.136V100.29H475.716V112.476H474.366V98.958ZM487.524 98.958H488.856V110.658C488.856 111.54 488.64 111.972 488.028 112.206C487.398 112.422 486.282 112.44 484.662 112.44C484.608 112.062 484.392 111.432 484.212 111.054C485.49 111.108 486.714 111.108 487.074 111.09C487.416 111.072 487.524 110.964 487.524 110.658V98.958ZM497.91 103.71C499.53 107.652 502.95 110.334 507.954 111.306C507.666 111.576 507.288 112.134 507.108 112.494C501.996 111.378 498.594 108.498 496.758 104.07L497.91 103.71ZM504.336 103.206H504.606L504.876 103.152L505.794 103.566C504.156 108.624 500.142 111.252 495.642 112.476C495.498 112.134 495.174 111.612 494.904 111.324C499.116 110.298 502.986 107.778 504.336 103.44V103.206ZM497.514 103.206H504.552V104.502H497.136L497.514 103.206ZM498.756 95.826L500.25 96.06C499.332 102.882 497.226 107.904 492.15 111.018C491.952 110.73 491.466 110.226 491.142 109.974C495.912 107.094 497.964 102.234 498.756 95.826ZM502.698 96.78L503.76 96.15C504.534 96.942 505.578 98.058 506.082 98.724L505.002 99.462C504.498 98.778 503.49 97.626 502.698 96.78ZM493.194 101.586C493.104 101.298 492.888 100.65 492.744 100.326C492.978 100.254 493.194 100.002 493.41 99.606C493.608 99.228 494.31 97.788 494.598 96.402L496.056 96.654C495.606 98.184 494.886 99.786 494.274 100.794V100.812C494.274 100.812 493.194 101.262 493.194 101.586ZM493.194 101.586V100.524L494.094 99.984H507.342V101.28H495.102C493.968 101.28 493.374 101.388 493.194 101.586ZM514.326 103.026H525.684V104.268H514.326V103.026ZM514.902 99.318H525.144V100.524H514.902V99.318ZM519.15 99.876H520.5V102.576C520.5 104.826 519.888 107.778 515.352 109.812C515.172 109.524 514.758 109.056 514.452 108.822C518.826 107.058 519.15 104.412 519.15 102.558V99.876ZM520.878 103.818C521.562 106.338 523.146 108.012 525.72 108.75C525.414 109.02 525.036 109.542 524.856 109.902C522.138 108.948 520.5 107.004 519.708 104.07L520.878 103.818ZM513.3 102.99V109.362H511.986V104.25H509.466V102.99H513.3ZM513.3 108.768C514.146 110.1 515.748 110.712 517.818 110.802C519.78 110.874 523.83 110.82 525.954 110.676C525.81 111 525.576 111.648 525.522 112.062C523.542 112.134 519.816 112.17 517.818 112.098C515.478 112.008 513.858 111.378 512.706 109.956C511.842 110.73 510.924 111.504 509.952 112.296L509.232 110.91C510.096 110.334 511.158 109.542 512.076 108.768H513.3ZM509.664 97.14L510.654 96.33C511.842 97.086 513.21 98.256 513.822 99.138L512.76 100.02C512.184 99.156 510.834 97.932 509.664 97.14ZM522.786 95.88L524.154 96.348C523.542 97.374 522.804 98.562 522.21 99.318L521.112 98.904C521.67 98.094 522.408 96.798 522.786 95.88ZM515.604 96.42L516.756 95.952C517.476 96.816 518.178 98.004 518.43 98.832L517.206 99.372C516.972 98.562 516.306 97.32 515.604 96.42ZM527.808 107.724C527.736 107.454 527.52 106.806 527.376 106.446C527.754 106.374 528.168 105.924 528.744 105.258C529.338 104.61 531.264 102.072 532.506 99.606L533.676 100.326C532.236 102.774 530.49 105.24 528.744 107.004V107.022C528.744 107.022 527.808 107.454 527.808 107.724ZM527.808 107.724L527.736 106.626L528.402 106.158L533.388 105.258C533.352 105.618 533.334 106.14 533.37 106.41C528.816 107.328 528.186 107.508 527.808 107.724ZM527.682 103.404C527.61 103.116 527.394 102.432 527.232 102.072C527.556 102 527.862 101.568 528.24 100.956C528.636 100.38 529.914 98.058 530.616 95.898L531.93 96.492C531.012 98.706 529.77 101.028 528.528 102.63V102.684C528.528 102.684 527.682 103.116 527.682 103.404ZM527.682 103.404L527.664 102.378L528.294 101.946L531.624 101.604C531.57 101.946 531.516 102.468 531.516 102.738C528.492 103.134 527.988 103.26 527.682 103.404ZM527.358 110.046C528.888 109.74 531.21 109.218 533.478 108.696L533.604 109.884C531.48 110.424 529.266 110.964 527.61 111.378L527.358 110.046ZM535.566 101.784H541.254V103.026H535.566V101.784ZM535.242 110.316H541.416V111.54H535.242V110.316ZM534.684 105.06H542.028V112.458H540.678V106.284H535.98V112.494H534.684V105.06ZM538.86 96.42C539.868 98.706 541.83 101.046 543.81 102.162C543.486 102.414 543.054 102.936 542.838 103.278C540.84 101.946 538.878 99.372 537.798 96.78L538.86 96.42ZM537.942 95.916L539.238 96.276C538.248 99.174 536.484 101.766 534.054 103.494C533.856 103.206 533.37 102.738 533.082 102.522C535.368 100.956 537.132 98.49 537.942 95.916ZM546.04 111V97.9091H550.834C551.763 97.9091 552.532 98.0625 553.141 98.3693C553.751 98.6719 554.207 99.0831 554.509 99.603C554.812 100.119 554.963 100.7 554.963 101.348C554.963 101.893 554.863 102.354 554.663 102.729C554.462 103.099 554.194 103.398 553.857 103.624C553.525 103.845 553.158 104.007 552.758 104.109V104.237C553.192 104.259 553.616 104.399 554.03 104.659C554.447 104.915 554.793 105.279 555.065 105.752C555.338 106.225 555.474 106.8 555.474 107.478C555.474 108.147 555.317 108.748 555.001 109.281C554.69 109.809 554.209 110.229 553.557 110.54C552.905 110.847 552.072 111 551.058 111H546.04ZM548.015 109.306H550.866C551.812 109.306 552.489 109.123 552.898 108.756C553.308 108.39 553.512 107.932 553.512 107.382C553.512 106.969 553.408 106.589 553.199 106.244C552.99 105.899 552.692 105.624 552.304 105.42C551.92 105.215 551.464 105.113 550.936 105.113H548.015V109.306ZM548.015 103.572H550.661C551.104 103.572 551.503 103.487 551.857 103.317C552.214 103.146 552.498 102.908 552.707 102.601C552.92 102.29 553.026 101.923 553.026 101.501C553.026 100.96 552.837 100.506 552.457 100.14C552.078 99.7734 551.496 99.5902 550.712 99.5902H548.015V103.572ZM557.817 111V97.9091H562.483C563.498 97.9091 564.339 98.0838 565.008 98.4332C565.681 98.7827 566.184 99.2663 566.517 99.8842C566.849 100.498 567.015 101.207 567.015 102.013C567.015 102.814 566.847 103.519 566.51 104.129C566.178 104.734 565.675 105.205 565.002 105.541C564.333 105.878 563.491 106.046 562.477 106.046H558.942V104.346H562.298C562.937 104.346 563.457 104.254 563.858 104.071C564.262 103.888 564.559 103.621 564.746 103.272C564.934 102.923 565.027 102.503 565.027 102.013C565.027 101.518 564.931 101.09 564.74 100.728C564.552 100.366 564.256 100.089 563.851 99.897C563.451 99.701 562.924 99.603 562.272 99.603H559.792V111H557.817ZM564.279 105.094L567.514 111H565.264L562.093 105.094H564.279ZM576.559 101.348C576.49 100.743 576.209 100.274 575.715 99.9418C575.221 99.6051 574.598 99.4368 573.848 99.4368C573.311 99.4368 572.847 99.522 572.455 99.6925C572.063 99.8587 571.758 100.089 571.541 100.383C571.328 100.673 571.221 101.003 571.221 101.374C571.221 101.685 571.294 101.953 571.439 102.179C571.588 102.405 571.782 102.594 572.02 102.748C572.263 102.897 572.523 103.023 572.8 103.125C573.077 103.223 573.343 103.304 573.599 103.368L574.877 103.7C575.295 103.803 575.723 103.941 576.162 104.116C576.601 104.29 577.008 104.521 577.383 104.806C577.758 105.092 578.061 105.445 578.291 105.867C578.525 106.289 578.642 106.794 578.642 107.382C578.642 108.124 578.451 108.782 578.067 109.357C577.688 109.933 577.136 110.386 576.412 110.719C575.691 111.051 574.82 111.217 573.797 111.217C572.817 111.217 571.969 111.062 571.253 110.751C570.537 110.44 569.977 109.999 569.572 109.428C569.167 108.852 568.944 108.17 568.901 107.382H570.882C570.921 107.855 571.074 108.249 571.343 108.565C571.615 108.876 571.963 109.108 572.385 109.261C572.811 109.411 573.277 109.485 573.784 109.485C574.343 109.485 574.839 109.398 575.274 109.223C575.713 109.044 576.058 108.797 576.309 108.482C576.561 108.162 576.686 107.789 576.686 107.363C576.686 106.975 576.576 106.658 576.354 106.411C576.137 106.163 575.841 105.959 575.466 105.797C575.095 105.635 574.675 105.492 574.206 105.369L572.659 104.947C571.611 104.661 570.78 104.241 570.167 103.688C569.557 103.134 569.252 102.401 569.252 101.489C569.252 100.734 569.457 100.076 569.866 99.5135C570.275 98.951 570.829 98.5142 571.528 98.2031C572.227 97.8878 573.015 97.7301 573.893 97.7301C574.779 97.7301 575.561 97.8857 576.239 98.1967C576.921 98.5078 577.458 98.9361 577.85 99.4815C578.242 100.023 578.446 100.645 578.463 101.348H576.559Z" fill="#2D3342"/>
<path d="M93.296 170.344H98.93V171.622H93.296V170.344ZM92.558 158.824H99.614V172.72H98.282V160.12H93.854V172.99H92.558V158.824ZM83.774 160.57H90.47V161.866H83.774V160.57ZM86.834 156.88L88.148 157.042C87.356 160.642 86.132 165.52 85.232 168.508L84.08 167.95C84.944 165.178 86.132 160.318 86.834 156.88ZM84.71 167.266L85.448 166.276C87.788 167.482 90.56 169.372 91.838 170.848L91.046 172C89.786 170.506 87.032 168.526 84.71 167.266ZM90.092 160.57H90.308L90.56 160.534L91.388 160.696C90.83 167.95 88.598 171.586 84.854 173.458C84.674 173.134 84.314 172.63 84.026 172.342C87.446 170.848 89.588 167.248 90.092 160.858V160.57ZM102.098 166.438H117.902V167.698H102.098V166.438ZM109.28 158.194H110.702V173.44H109.28V158.194ZM108.794 166.978L109.928 167.464C108.254 169.768 105.266 171.82 102.566 172.846C102.368 172.522 101.936 172.018 101.648 171.748C104.312 170.866 107.282 168.958 108.794 166.978ZM111.116 166.924C112.682 168.85 115.742 170.758 118.37 171.64C118.064 171.91 117.65 172.432 117.434 172.774C114.824 171.73 111.764 169.624 110.036 167.41L111.116 166.924ZM105.23 161.866V163.756H114.806V161.866H105.23ZM105.23 158.914V160.768H114.806V158.914H105.23ZM103.844 157.762H116.246V164.908H103.844V157.762ZM120.116 159.67H135.884V160.984H120.116V159.67ZM125.696 165.376H135.182V166.636H125.696V165.376ZM124.994 171.748H135.884V173.026H124.994V171.748ZM129.764 161.902H131.114V172.432H129.764V161.902ZM126.038 156.88L127.424 157.222C126.164 161.344 123.968 165.538 120.386 168.112C120.242 167.752 119.9 167.176 119.684 166.87C122.924 164.584 125.03 160.588 126.038 156.88ZM122.474 164.296H123.824V173.386H122.474V164.296ZM137.882 160.3H143.336V161.56H137.882V160.3ZM140.204 156.88H141.446V173.422H140.204V156.88ZM140.168 161.11L140.996 161.398C140.492 164.224 139.43 167.734 138.278 169.516C138.134 169.138 137.81 168.544 137.576 168.22C138.656 166.654 139.736 163.576 140.168 161.11ZM141.392 162.244C141.77 162.748 143.192 165.034 143.48 165.574L142.67 166.546C142.31 165.646 141.176 163.468 140.726 162.748L141.392 162.244ZM148.79 157.474C149.978 159.328 152.39 161.506 154.388 162.676C154.118 162.982 153.83 163.54 153.686 163.9C151.58 162.496 149.132 160.138 147.8 158.122L148.79 157.474ZM148.214 156.754L149.402 157.186C148.016 159.976 145.73 162.478 143.39 164.08C143.246 163.81 142.832 163.234 142.598 162.982C144.866 161.578 147.008 159.31 148.214 156.754ZM145.424 162.46H151.526V163.648H145.424V162.46ZM144.128 165.61L145.19 165.34C145.73 166.708 146.234 168.49 146.414 169.66L145.298 169.966C145.136 168.796 144.65 166.996 144.128 165.61ZM147.62 165.124L148.682 164.962C149.042 166.348 149.366 168.094 149.474 169.264L148.34 169.444C148.268 168.274 147.944 166.492 147.62 165.124ZM152.156 164.98L153.344 165.286C152.48 167.446 151.274 170.218 150.266 171.91L149.294 171.586C150.266 169.876 151.49 166.978 152.156 164.98ZM143.156 171.37H153.884V172.594H143.156V171.37ZM160.31 168.094V169.588H167.6V168.094H160.31ZM160.31 165.664V167.14H167.6V165.664H160.31ZM158.978 164.692H168.986V170.56H158.978V164.692ZM156.026 159.184H171.992V160.372H156.026V159.184ZM163.262 156.88H164.612V164.134H163.262V156.88ZM162.488 159.526L163.622 159.976C162.002 162.298 159.158 164.404 156.512 165.448C156.314 165.124 155.918 164.638 155.63 164.368C158.222 163.486 161.048 161.542 162.488 159.526ZM165.35 159.544C166.808 161.506 169.688 163.36 172.352 164.206C172.046 164.458 171.65 164.962 171.452 165.322C168.77 164.314 165.89 162.244 164.252 159.976L165.35 159.544ZM156.314 171.658H171.74V172.864H156.314V171.658ZM183.98 157.78H188.984V159.022H183.98V157.78ZM183.98 161.92H188.984V163.126H183.98V161.92ZM183.962 166.114H189.02V167.338H183.962V166.114ZM188.372 157.78H189.686V171.73C189.686 172.504 189.506 172.918 188.984 173.134C188.48 173.35 187.634 173.386 186.302 173.386C186.266 173.008 186.068 172.414 185.888 172.072C186.842 172.09 187.742 172.09 188.012 172.072C188.282 172.072 188.372 171.982 188.372 171.712V157.78ZM183.422 157.78H184.7V164.314C184.7 167.086 184.484 170.974 182.864 173.53C182.63 173.278 182.09 172.882 181.784 172.756C183.296 170.344 183.422 166.924 183.422 164.314V157.78ZM173.918 159.292H182.54V160.48H173.918V159.292ZM176.042 162.082H180.596V163.18H176.042V162.082ZM176.042 164.944H180.614V166.024H176.042V164.944ZM173.684 167.842H182.54V169.048H173.684V167.842ZM175.448 157.096H176.69V168.328H175.448V157.096ZM179.966 157.096H181.208V168.328H179.966V157.096ZM176.186 169.444L177.482 169.804C176.816 171.172 175.772 172.558 174.8 173.458C174.548 173.242 174.026 172.846 173.702 172.666C174.71 171.856 175.646 170.65 176.186 169.444ZM178.778 170.002L179.822 169.444C180.524 170.254 181.37 171.37 181.73 172.108L180.632 172.756C180.29 172.036 179.48 170.848 178.778 170.002ZM192.638 160.948H194.006V173.458H192.638V160.948ZM192.89 157.762L193.934 157.132C194.78 157.87 195.752 158.95 196.202 159.688L195.068 160.426C194.672 159.688 193.718 158.572 192.89 157.762ZM197.318 157.906H206.804V159.166H197.318V157.906ZM206.03 157.906H207.416V171.802C207.416 172.558 207.272 172.918 206.804 173.134C206.318 173.35 205.544 173.368 204.428 173.368C204.374 173.026 204.194 172.468 204.014 172.108C204.77 172.144 205.508 172.126 205.724 172.126C205.976 172.126 206.03 172.036 206.03 171.802V157.906ZM197.804 166.69V169.12H202.142V166.69H197.804ZM197.804 163.162V165.574H202.142V163.162H197.804ZM196.58 162.046H203.42V170.254H196.58V162.046ZM210.116 159.67H225.884V160.984H210.116V159.67ZM215.696 165.376H225.182V166.636H215.696V165.376ZM214.994 171.748H225.884V173.026H214.994V171.748ZM219.764 161.902H221.114V172.432H219.764V161.902ZM216.038 156.88L217.424 157.222C216.164 161.344 213.968 165.538 210.386 168.112C210.242 167.752 209.9 167.176 209.684 166.87C212.924 164.584 215.03 160.588 216.038 156.88ZM212.474 164.296H213.824V173.386H212.474V164.296ZM228.438 172V158.909H233.232C234.161 158.909 234.93 159.062 235.54 159.369C236.149 159.672 236.605 160.083 236.908 160.603C237.21 161.119 237.362 161.7 237.362 162.348C237.362 162.893 237.261 163.354 237.061 163.729C236.861 164.099 236.592 164.398 236.256 164.624C235.923 164.845 235.557 165.007 235.156 165.109V165.237C235.591 165.259 236.015 165.399 236.428 165.659C236.846 165.915 237.191 166.279 237.464 166.752C237.737 167.225 237.873 167.8 237.873 168.478C237.873 169.147 237.715 169.748 237.4 170.281C237.089 170.809 236.607 171.229 235.955 171.54C235.303 171.847 234.47 172 233.456 172H228.438ZM230.413 170.306H233.264C234.21 170.306 234.888 170.123 235.297 169.756C235.706 169.39 235.911 168.932 235.911 168.382C235.911 167.969 235.806 167.589 235.597 167.244C235.388 166.899 235.09 166.624 234.702 166.42C234.319 166.215 233.863 166.113 233.335 166.113H230.413V170.306ZM230.413 164.572H233.06C233.503 164.572 233.901 164.487 234.255 164.317C234.613 164.146 234.896 163.908 235.105 163.601C235.318 163.29 235.425 162.923 235.425 162.501C235.425 161.96 235.235 161.506 234.856 161.14C234.477 160.773 233.895 160.59 233.111 160.59H230.413V164.572ZM240.216 172V158.909H244.882C245.896 158.909 246.738 159.084 247.407 159.433C248.08 159.783 248.583 160.266 248.915 160.884C249.248 161.498 249.414 162.207 249.414 163.013C249.414 163.814 249.245 164.519 248.909 165.129C248.576 165.734 248.074 166.205 247.4 166.541C246.731 166.878 245.89 167.046 244.875 167.046H241.341V165.346H244.696C245.336 165.346 245.855 165.254 246.256 165.071C246.661 164.888 246.957 164.621 247.145 164.272C247.332 163.923 247.426 163.503 247.426 163.013C247.426 162.518 247.33 162.09 247.138 161.728C246.951 161.366 246.654 161.089 246.25 160.897C245.849 160.701 245.323 160.603 244.671 160.603H242.191V172H240.216ZM246.678 166.094L249.912 172H247.662L244.492 166.094H246.678ZM258.957 162.348C258.889 161.743 258.608 161.274 258.113 160.942C257.619 160.605 256.997 160.437 256.247 160.437C255.71 160.437 255.245 160.522 254.853 160.692C254.461 160.859 254.157 161.089 253.939 161.383C253.726 161.673 253.62 162.003 253.62 162.374C253.62 162.685 253.692 162.953 253.837 163.179C253.986 163.405 254.18 163.594 254.419 163.748C254.662 163.897 254.922 164.023 255.199 164.125C255.475 164.223 255.742 164.304 255.998 164.368L257.276 164.7C257.694 164.803 258.122 164.941 258.561 165.116C259 165.29 259.407 165.521 259.782 165.806C260.157 166.092 260.459 166.445 260.689 166.867C260.924 167.289 261.041 167.794 261.041 168.382C261.041 169.124 260.849 169.782 260.466 170.357C260.086 170.933 259.534 171.386 258.81 171.719C258.09 172.051 257.218 172.217 256.196 172.217C255.216 172.217 254.368 172.062 253.652 171.751C252.936 171.44 252.375 170.999 251.971 170.428C251.566 169.852 251.342 169.17 251.299 168.382H253.281C253.319 168.855 253.473 169.249 253.741 169.565C254.014 169.876 254.361 170.108 254.783 170.261C255.209 170.411 255.676 170.485 256.183 170.485C256.741 170.485 257.238 170.398 257.672 170.223C258.111 170.044 258.456 169.797 258.708 169.482C258.959 169.162 259.085 168.789 259.085 168.363C259.085 167.975 258.974 167.658 258.752 167.411C258.535 167.163 258.239 166.959 257.864 166.797C257.493 166.635 257.074 166.492 256.605 166.369L255.058 165.947C254.01 165.661 253.179 165.241 252.565 164.688C251.956 164.134 251.651 163.401 251.651 162.489C251.651 161.734 251.855 161.076 252.265 160.513C252.674 159.951 253.228 159.514 253.926 159.203C254.625 158.888 255.414 158.73 256.292 158.73C257.178 158.73 257.96 158.886 258.637 159.197C259.319 159.508 259.856 159.936 260.248 160.482C260.64 161.023 260.845 161.645 260.862 162.348H258.957ZM263.691 160.102H278.199V168.58H276.795V161.434H265.041V168.67H263.691V160.102ZM264.411 166.222H277.605V167.536H264.411V166.222ZM270.207 156.88H271.611V173.422H270.207V156.88ZM287.271 164.71C288.891 168.652 292.311 171.334 297.315 172.306C297.027 172.576 296.649 173.134 296.469 173.494C291.357 172.378 287.955 169.498 286.119 165.07L287.271 164.71ZM293.697 164.206H293.967L294.237 164.152L295.155 164.566C293.517 169.624 289.503 172.252 285.003 173.476C284.859 173.134 284.535 172.612 284.265 172.324C288.477 171.298 292.347 168.778 293.697 164.44V164.206ZM286.875 164.206H293.913V165.502H286.497L286.875 164.206ZM288.117 156.826L289.611 157.06C288.693 163.882 286.587 168.904 281.511 172.018C281.313 171.73 280.827 171.226 280.503 170.974C285.273 168.094 287.325 163.234 288.117 156.826ZM292.059 157.78L293.121 157.15C293.895 157.942 294.939 159.058 295.443 159.724L294.363 160.462C293.859 159.778 292.851 158.626 292.059 157.78ZM282.555 162.586C282.465 162.298 282.249 161.65 282.105 161.326C282.339 161.254 282.555 161.002 282.771 160.606C282.969 160.228 283.671 158.788 283.959 157.402L285.417 157.654C284.967 159.184 284.247 160.786 283.635 161.794V161.812C283.635 161.812 282.555 162.262 282.555 162.586ZM282.555 162.586V161.524L283.455 160.984H296.703V162.28H284.463C283.329 162.28 282.735 162.388 282.555 162.586ZM298.953 158.104H304.911V159.382H298.953V158.104ZM299.223 163.306H304.533V164.584H299.223V163.306ZM298.737 170.2C300.321 169.804 302.715 169.12 305.001 168.436L305.181 169.678C303.021 170.326 300.735 170.992 299.025 171.514L298.737 170.2ZM301.365 158.68H302.661V169.732L301.365 170.002V158.68ZM305.721 157.762H313.821V167.338H312.489V158.95H307.017V167.338H305.721V157.762ZM309.825 167.05H311.085V171.316C311.085 171.82 311.229 171.946 311.733 171.946H313.227C313.839 171.946 313.947 171.46 314.037 168.886C314.361 169.156 314.793 169.336 315.135 169.408C314.973 172.252 314.775 172.972 313.209 172.972H311.553C310.311 172.972 309.825 172.648 309.825 171.442V167.05ZM309.051 160.498H310.311V163.99C310.311 167.086 309.519 171.046 304.785 173.494C304.623 173.224 304.209 172.738 303.939 172.522C308.475 170.182 309.051 166.78 309.051 163.972V160.498ZM331.497 157.33L332.505 158.464C329.877 159.364 325.845 160.03 322.425 160.444C322.371 160.12 322.173 159.616 322.029 159.292C325.377 158.86 329.283 158.14 331.497 157.33ZM321.417 164.602H333.243V165.898H321.417V164.602ZM322.119 171.46H332.955V172.756H322.119V171.46ZM326.781 159.328H328.131V171.82H326.781V159.328ZM319.293 161.668L320.625 160.336L320.643 160.372V173.44H319.293V161.668ZM321.255 156.898L322.569 157.312C321.291 160.444 319.275 163.558 317.169 165.61C317.025 165.286 316.611 164.584 316.341 164.242C318.285 162.478 320.139 159.724 321.255 156.898ZM340.065 158.644H351.279V159.94H340.065V158.644ZM348.615 159.112H349.965V171.586C349.965 172.558 349.713 172.954 349.065 173.188C348.399 173.404 347.211 173.44 345.447 173.422C345.375 173.044 345.159 172.432 344.961 172.036C346.401 172.09 347.715 172.072 348.129 172.054C348.507 172.036 348.615 171.946 348.615 171.586V159.112ZM340.605 162.478H341.865V169.966H340.605V162.478ZM341.181 162.478H346.257V168.706H341.181V167.5H344.979V163.684H341.181V162.478ZM338.751 156.898L340.029 157.294C338.949 160.3 337.221 163.342 335.385 165.34C335.259 165.034 334.863 164.314 334.629 164.008C336.285 162.28 337.815 159.598 338.751 156.898ZM337.059 161.596L338.391 160.282L338.409 160.3V173.422H337.059V161.596ZM357.471 165.196H368.235V166.402H357.471V165.196ZM358.299 161.956H368.001V163.126H358.299V161.956ZM362.367 157.006H363.663V171.082H362.367V157.006ZM357.561 158.824H368.811V160.012H357.561V158.824ZM367.713 165.196H368.955C368.955 165.196 368.937 165.538 368.919 165.718C368.685 168.184 368.487 169.228 368.055 169.642C367.767 169.912 367.497 170.02 367.047 170.038C366.669 170.074 365.949 170.074 365.211 170.038C365.175 169.696 365.049 169.228 364.869 168.904C365.589 168.994 366.237 168.994 366.507 168.994C366.759 168.994 366.903 168.976 367.047 168.85C367.299 168.562 367.515 167.68 367.713 165.376V165.196ZM355.995 170.2C356.571 170.2 357.003 170.65 357.939 171.154C359.055 171.784 360.621 171.892 362.565 171.892C364.635 171.892 367.443 171.766 369.261 171.568C369.099 171.91 368.901 172.522 368.883 172.918C367.443 173.008 364.329 173.098 362.529 173.098C360.441 173.098 358.893 172.936 357.669 172.27C356.949 171.856 356.373 171.352 355.977 171.352C355.365 171.352 354.483 172.27 353.601 173.296L352.737 172.144C353.889 171.028 355.095 170.2 355.995 170.2ZM353.151 158.338L354.177 157.618C355.221 158.464 356.463 159.706 357.057 160.534L355.977 161.344C355.419 160.516 354.195 159.22 353.151 158.338ZM356.481 163.576V170.794H355.185V164.836H352.863V163.576H356.481ZM371.115 159.886H377.451V161.146H371.115V159.886ZM370.719 164.044H377.667V165.34H370.719V164.044ZM373.689 157.078H374.985V162.91C374.985 166.078 374.715 170.488 371.565 173.26C371.385 172.99 370.935 172.54 370.611 172.324C373.581 169.876 373.689 165.718 373.689 162.928V157.078ZM374.679 166.204C375.273 166.762 377.307 169.21 377.775 169.786L376.839 170.794C376.245 169.84 374.535 167.626 373.851 166.834L374.679 166.204ZM378.513 157.762H386.127V167.338H384.795V158.95H379.827V167.338H378.513V157.762ZM382.293 166.798H383.499V171.388C383.499 171.874 383.661 171.982 384.093 171.982H385.371C385.947 171.982 386.055 171.514 386.127 169.03C386.433 169.282 386.901 169.462 387.225 169.534C387.081 172.36 386.865 173.062 385.389 173.062H383.931C382.761 173.062 382.293 172.738 382.293 171.532V166.798ZM381.699 160.498H382.959V163.972C382.959 167.05 382.149 170.992 377.415 173.422C377.271 173.17 376.839 172.666 376.569 172.45C381.123 170.128 381.699 166.726 381.699 163.954V160.498ZM395.793 157.978H404.631V159.274H395.793V157.978ZM401.049 163.342H402.417V171.712C402.417 172.558 402.219 172.972 401.607 173.188C400.995 173.386 399.969 173.404 398.205 173.404C398.151 173.026 397.971 172.468 397.773 172.072C399.051 172.108 400.257 172.108 400.581 172.09C400.941 172.072 401.049 172 401.049 171.694V163.342ZM395.001 162.946H405.153V164.224H395.001V162.946ZM391.401 164.332L392.589 163.162L392.751 163.234V173.494H391.401V164.332ZM393.489 160.732L394.767 161.218C393.363 163.504 391.239 165.826 389.349 167.338C389.151 167.068 388.683 166.474 388.395 166.222C390.267 164.89 392.247 162.802 393.489 160.732ZM392.751 156.88L394.047 157.402C392.841 158.986 390.987 160.732 389.385 161.884C389.187 161.596 388.827 161.074 388.593 160.804C390.087 159.796 391.833 158.176 392.751 156.88ZM407.421 161.218H421.317V162.568H407.421V161.218ZM420.759 161.218H422.163C422.163 161.218 422.163 161.722 422.145 161.92C421.875 169.138 421.623 171.694 420.903 172.522C420.507 173.026 420.075 173.188 419.427 173.242C418.797 173.296 417.645 173.278 416.547 173.206C416.511 172.81 416.331 172.216 416.079 171.802C417.285 171.928 418.419 171.928 418.869 171.928C419.247 171.928 419.445 171.874 419.661 171.658C420.237 171.082 420.525 168.418 420.759 161.506V161.218ZM413.343 156.916H414.711V159.058C414.711 163.09 414.279 169.03 407.997 173.206C407.781 172.882 407.277 172.432 406.935 172.198C412.965 168.292 413.343 162.784 413.343 159.058V156.916ZM408.861 157.888L410.031 157.384C410.751 158.176 411.597 159.31 411.975 160.048L410.751 160.624C410.409 159.904 409.581 158.734 408.861 157.888ZM414.927 165.34L416.043 164.782C416.997 165.844 418.095 167.302 418.563 168.256L417.375 168.886C416.925 167.932 415.845 166.42 414.927 165.34ZM426.789 173.926L426.375 172.99C427.851 172.378 428.661 171.46 428.661 170.11L428.319 168.58L429.291 169.948C429.039 170.272 428.679 170.362 428.337 170.362C427.599 170.362 426.987 169.93 426.987 169.066C426.987 168.22 427.635 167.77 428.355 167.77C429.363 167.77 429.903 168.598 429.903 169.858C429.903 171.802 428.679 173.278 426.789 173.926ZM448.101 165.466H459.225V166.726H448.101V165.466ZM455.427 164.026H456.759V171.802C456.759 172.594 456.597 172.99 456.021 173.206C455.445 173.422 454.491 173.44 453.069 173.44C453.015 173.062 452.817 172.504 452.619 172.108C453.735 172.144 454.743 172.144 455.067 172.126C455.355 172.108 455.427 172.054 455.427 171.784V164.026ZM457.245 156.88L458.181 157.924C455.607 158.698 451.665 159.31 448.317 159.652C448.263 159.346 448.101 158.86 447.939 158.572C451.233 158.194 455.067 157.564 457.245 156.88ZM448.587 160.588L449.721 160.21C450.297 161.236 450.873 162.604 451.053 163.486L449.847 163.918C449.667 163.054 449.145 161.632 448.587 160.588ZM452.115 159.886L453.321 159.598C453.753 160.66 454.131 161.992 454.203 162.838L452.925 163.18C452.871 162.316 452.529 160.948 452.115 159.886ZM449.541 168.058L450.657 167.464C451.593 168.382 452.619 169.714 453.069 170.614L451.899 171.298C451.503 170.38 450.477 169.012 449.541 168.058ZM446.049 156.898H447.345V173.44H446.049V156.898ZM442.413 168.67C443.421 168.148 444.933 167.248 446.409 166.348L446.841 167.482C445.563 168.382 444.231 169.3 443.097 170.056L442.413 168.67ZM442.611 159.706L443.709 159.184C444.573 160.318 445.455 161.848 445.797 162.838L444.627 163.468C444.303 162.442 443.439 160.876 442.611 159.706ZM457.677 159.382L458.901 159.994C457.929 161.506 456.615 163.234 455.589 164.404L454.545 163.81C455.553 162.64 456.921 160.786 457.677 159.382ZM466.677 164.584H476.901V165.826H466.677V164.584ZM472.707 162.046L473.643 161.38C474.561 161.974 475.659 162.91 476.145 163.576L475.191 164.332C474.705 163.648 473.643 162.694 472.707 162.046ZM472.149 165.232C472.887 168.526 474.471 171.154 477.117 172.324C476.811 172.576 476.415 173.08 476.235 173.422C473.481 172.018 471.879 169.156 471.051 165.43L472.149 165.232ZM461.079 158.32H476.901V159.544H461.079V158.32ZM465.327 156.88H466.677V161.02H465.327V156.88ZM471.339 156.88H472.671V160.93H471.339V156.88ZM470.889 161.29H472.167V163.954C472.167 166.906 471.627 170.722 467.181 173.494C466.947 173.206 466.497 172.846 466.173 172.612C470.421 170.002 470.889 166.492 470.889 163.954V161.29ZM461.637 161.812L462.537 161.11C465.759 163.216 466.191 165.7 466.191 168.292C466.191 170.344 465.993 171.91 465.255 172.756C465.039 173.026 464.697 173.206 464.301 173.26C463.707 173.368 463.041 173.368 462.303 173.332C462.285 172.972 462.141 172.486 461.889 172.144C462.717 172.198 463.383 172.198 463.779 172.144C464.031 172.126 464.193 172.036 464.337 171.856C464.787 171.316 464.931 170.038 464.931 168.22C464.931 165.844 464.409 163.684 461.637 161.812ZM464.769 165.934L465.705 166.492C464.769 167.86 462.969 169.39 461.475 170.218C461.295 169.894 460.953 169.462 460.647 169.21C462.141 168.562 463.905 167.194 464.769 165.934ZM465.795 161.398L466.911 161.992C465.633 163.468 463.527 164.836 461.511 165.772C461.313 165.502 460.953 165.106 460.683 164.89C462.681 164.044 464.697 162.658 465.795 161.398ZM486.621 160.894V162.37H492.579V160.894H486.621ZM486.621 158.464V159.922H492.579V158.464H486.621ZM485.325 157.438H493.929V163.396H485.325V157.438ZM484.209 164.638H494.793V165.772H484.209V164.638ZM483.795 167.32H495.117V168.508H483.795V167.32ZM491.067 165.628H492.417V171.964C492.417 172.684 492.255 173.044 491.715 173.242C491.175 173.458 490.311 173.458 488.961 173.458C488.907 173.098 488.691 172.594 488.511 172.234C489.537 172.27 490.437 172.27 490.707 172.252C490.995 172.234 491.067 172.162 491.067 171.928V165.628ZM485.361 169.426L486.315 168.778C487.143 169.534 488.133 170.596 488.601 171.298L487.575 172.054C487.143 171.334 486.171 170.218 485.361 169.426ZM482.805 160.894L483.993 161.38C482.769 163.522 480.843 165.7 479.061 167.104C478.953 166.834 478.575 166.114 478.341 165.808C479.979 164.62 481.725 162.766 482.805 160.894ZM482.463 156.934L483.759 157.438C482.679 158.986 480.951 160.678 479.349 161.74C479.205 161.434 478.863 160.912 478.629 160.642C480.069 159.706 481.689 158.212 482.463 156.934ZM481.185 164.08L482.445 162.802L482.499 162.838V173.44H481.185V164.08ZM502.189 158.909V172H500.207V160.891H500.131L496.998 162.936V161.044L500.265 158.909H502.189ZM507.837 163.702H518.133V165.016H507.837V163.702ZM517.683 163.702H519.087C519.087 163.702 519.069 164.17 519.051 164.35C518.799 169.93 518.547 172.018 517.899 172.702C517.539 173.152 517.143 173.278 516.513 173.332C515.919 173.386 514.785 173.368 513.651 173.314C513.633 172.9 513.453 172.342 513.201 171.946C514.389 172.054 515.505 172.072 515.937 172.072C516.297 172.072 516.513 172.036 516.693 171.838C517.179 171.352 517.449 169.3 517.683 163.954V163.702ZM510.303 157.258L511.725 157.672C510.429 160.714 508.305 163.396 506.037 165.124C505.785 164.836 505.209 164.314 504.867 164.062C507.171 162.514 509.169 160.03 510.303 157.258ZM516.585 157.222C517.755 159.634 520.077 162.37 522.039 163.756C521.679 164.044 521.175 164.584 520.905 164.962C518.907 163.342 516.639 160.426 515.289 157.744L516.585 157.222ZM511.635 164.062H513.075C512.661 168.004 511.725 171.73 506.703 173.53C506.541 173.188 506.145 172.648 505.839 172.36C510.555 170.794 511.275 167.464 511.635 164.062ZM525.963 167.626C527.475 167.626 528.699 168.85 528.699 170.362C528.699 171.874 527.475 173.098 525.963 173.098C524.451 173.098 523.209 171.874 523.209 170.362C523.209 168.85 524.451 167.626 525.963 167.626ZM525.963 172.18C526.971 172.18 527.781 171.37 527.781 170.362C527.781 169.354 526.971 168.544 525.963 168.544C524.955 168.544 524.127 169.354 524.127 170.362C524.127 171.37 524.955 172.18 525.963 172.18Z" fill="#2D3342"/>
<defs>
<linearGradient id="paint0_linear_1411_8914" x1="332.03" y1="35" x2="355.604" y2="92.3026" gradientUnits="userSpaceOnUse">
<stop stop-color="#5955B3"/>
<stop offset="1" stop-color="#6563CE"/>
</linearGradient>
</defs>
</svg>
