<svg width="751" height="407" viewBox="0 0 751 407" fill="none" xmlns="http://www.w3.org/2000/svg">
<rect width="751" height="406.005" fill="white"/>
<path opacity="0.2" fill-rule="evenodd" clip-rule="evenodd" d="M750.693 386.402C750.615 397.339 741.757 406.19 730.816 406.256H434.842C447.376 371.333 499.731 301.487 608.882 301.487C718.034 301.487 748.903 247.162 750.693 220V386.402Z" fill="#79A4E2"/>
<path opacity="0.2" fill-rule="evenodd" clip-rule="evenodd" d="M210.762 0C208.094 18.0676 191.746 68.8751 124.397 91.9214C59.0537 114.281 16.0073 106.592 -0.000205626 99.3648L-0.000212013 20C-0.000212902 8.95432 8.95409 1.91637e-05 19.9998 1.81148e-05L210.762 0Z" fill="#79A4E2"/>
<path d="M91.3068 71.9193L81.9603 59.5187H79.858V71.9193H73.7074V42.8284H79.858V54.4477H81.0938L90.7529 42.8284H98.4091L87.0597 56.3227L98.9347 71.9193H91.3068ZM108.136 72.3312C106.744 72.3312 105.503 72.0898 104.414 71.6068C103.325 71.1144 102.463 70.39 101.829 69.4335C101.204 68.4676 100.891 67.265 100.891 65.8256C100.891 64.6134 101.114 63.5954 101.559 62.7716C102.004 61.9477 102.61 61.2848 103.377 60.7829C104.144 60.2811 105.015 59.9023 105.991 59.6466C106.976 59.3909 108.008 59.211 109.087 59.1068C110.356 58.9742 111.379 58.8511 112.156 58.7375C112.932 58.6144 113.496 58.4345 113.846 58.1977C114.196 57.961 114.371 57.6106 114.371 57.1466V57.0614C114.371 56.1617 114.087 55.4657 113.519 54.9733C112.96 54.4809 112.165 54.2347 111.133 54.2347C110.044 54.2347 109.177 54.4761 108.533 54.9591C107.889 55.4326 107.463 56.0292 107.255 56.7489L101.658 56.2943C101.942 54.9686 102.501 53.8227 103.335 52.8568C104.168 51.8814 105.243 51.1333 106.559 50.6125C107.885 50.0822 109.419 49.817 111.161 49.817C112.373 49.817 113.533 49.9591 114.641 50.2432C115.759 50.5273 116.748 50.9676 117.61 51.5642C118.481 52.1608 119.168 52.9278 119.67 53.8653C120.172 54.7934 120.423 55.9061 120.423 57.2034V71.9193H114.684V68.8937H114.514C114.163 69.5756 113.694 70.1769 113.107 70.6977C112.52 71.2091 111.815 71.6115 110.991 71.9051C110.167 72.1892 109.215 72.3312 108.136 72.3312ZM109.869 68.1551C110.759 68.1551 111.545 67.9799 112.227 67.6295C112.908 67.2697 113.443 66.7867 113.832 66.1807C114.22 65.5746 114.414 64.8881 114.414 64.121V61.8057C114.225 61.9288 113.964 62.0424 113.633 62.1466C113.311 62.2413 112.946 62.3312 112.539 62.4165C112.132 62.4922 111.725 62.5633 111.317 62.6295C110.91 62.6864 110.541 62.7384 110.21 62.7858C109.499 62.89 108.879 63.0557 108.349 63.2829C107.818 63.5102 107.407 63.818 107.113 64.2062C106.819 64.585 106.673 65.0585 106.673 65.6267C106.673 66.4506 106.971 67.0803 107.567 67.5159C108.174 67.942 108.941 68.1551 109.869 68.1551ZM125.117 71.9193V50.1011H131.168V58.567H132.873L138.81 50.1011H145.913L138.2 60.925L145.998 71.9193H138.81L133.427 64.1778H131.168V71.9193H125.117ZM167.67 72.3454C165.436 72.3454 163.513 71.872 161.903 70.925C160.303 69.9686 159.072 68.6428 158.21 66.9477C157.358 65.2526 156.932 63.3019 156.932 61.0954C156.932 58.8606 157.363 56.9004 158.224 55.2148C159.096 53.5197 160.331 52.1987 161.932 51.2517C163.532 50.2953 165.436 49.817 167.642 49.817C169.545 49.817 171.212 50.1627 172.642 50.854C174.072 51.5453 175.204 52.5159 176.037 53.7659C176.87 55.0159 177.33 56.4837 177.415 58.1693H171.705C171.544 57.0803 171.117 56.2043 170.426 55.5415C169.744 54.8691 168.849 54.5329 167.742 54.5329C166.804 54.5329 165.985 54.7886 165.284 55.3C164.593 55.8019 164.053 56.5358 163.665 57.5017C163.277 58.4676 163.082 59.6371 163.082 61.0102C163.082 62.4023 163.272 63.586 163.651 64.5614C164.039 65.5367 164.583 66.2801 165.284 66.7915C165.985 67.3028 166.804 67.5585 167.742 67.5585C168.433 67.5585 169.053 67.4165 169.602 67.1324C170.161 66.8483 170.62 66.4364 170.98 65.8966C171.349 65.3473 171.591 64.6892 171.705 63.9222H177.415C177.32 65.5888 176.866 67.0566 176.051 68.3256C175.246 69.585 174.134 70.5699 172.713 71.2801C171.293 71.9903 169.612 72.3454 167.67 72.3454ZM181.289 71.9193V50.1011H190.593C193.282 50.1011 195.408 50.6125 196.971 51.6352C198.533 52.6579 199.315 54.1115 199.315 55.996C199.315 57.1797 198.874 58.1646 197.994 58.9506C197.113 59.7365 195.891 60.2668 194.329 60.5415C195.636 60.6362 196.748 60.9345 197.667 61.4364C198.595 61.9288 199.3 62.568 199.783 63.354C200.276 64.14 200.522 65.0112 200.522 65.9676C200.522 67.2081 200.191 68.2735 199.528 69.1636C198.874 70.0538 197.913 70.7356 196.644 71.2091C195.385 71.6826 193.846 71.9193 192.028 71.9193H181.289ZM186.928 67.3881H192.028C192.871 67.3881 193.529 67.1892 194.002 66.7915C194.485 66.3843 194.727 65.8303 194.727 65.1295C194.727 64.353 194.485 63.7422 194.002 63.2972C193.529 62.8521 192.871 62.6295 192.028 62.6295H186.928V67.3881ZM186.928 59.0784H190.721C191.327 59.0784 191.843 58.9932 192.269 58.8227C192.705 58.6428 193.036 58.3871 193.264 58.0557C193.5 57.7242 193.619 57.3312 193.619 56.8767C193.619 56.2043 193.349 55.6788 192.809 55.3C192.269 54.9212 191.531 54.7318 190.593 54.7318H186.928V59.0784ZM217.12 71.9193V54.8454H213.029C211.921 54.8454 211.078 55.1011 210.501 55.6125C209.923 56.1239 209.639 56.7299 209.648 57.4307C209.639 58.1409 209.914 58.7422 210.472 59.2347C211.041 59.7176 211.874 59.9591 212.972 59.9591H219.137V64.05H212.972C211.107 64.05 209.492 63.7659 208.129 63.1977C206.765 62.6295 205.714 61.8388 204.975 60.8256C204.237 59.8028 203.872 58.6144 203.881 57.2602C203.872 55.8398 204.237 54.5945 204.975 53.5244C205.714 52.4449 206.77 51.6068 208.143 51.0102C209.525 50.4042 211.154 50.1011 213.029 50.1011H222.759V71.9193H217.12ZM203.256 71.9193L209.322 60.5557H215.103L209.052 71.9193H203.256ZM226.339 65.7403H232.205C232.234 66.46 232.556 67.0282 233.171 67.4449C233.787 67.8615 234.582 68.0699 235.558 68.0699C236.542 68.0699 237.371 67.8426 238.043 67.3881C238.716 66.924 239.052 66.2612 239.052 65.3994C239.052 64.8691 238.919 64.4098 238.654 64.0216C238.389 63.6239 238.02 63.3114 237.546 63.0841C237.073 62.8568 236.523 62.7432 235.898 62.7432H232.759V58.7801H235.898C236.836 58.7801 237.556 58.5623 238.058 58.1267C238.569 57.6911 238.825 57.1466 238.825 56.4932C238.825 55.7545 238.559 55.1627 238.029 54.7176C237.508 54.2631 236.803 54.0358 235.913 54.0358C235.013 54.0358 234.265 54.2394 233.668 54.6466C233.081 55.0443 232.778 55.5651 232.759 56.2091H226.921C226.94 54.9023 227.333 53.7706 228.1 52.8142C228.877 51.8578 229.918 51.1191 231.225 50.5983C232.541 50.0775 234.014 49.817 235.643 49.817C237.423 49.817 238.957 50.068 240.245 50.5699C241.542 51.0623 242.537 51.7678 243.228 52.6864C243.929 53.6049 244.279 54.6987 244.279 55.9676C244.279 57.1229 243.9 58.0888 243.143 58.8653C242.385 59.6418 241.325 60.1958 239.961 60.5273V60.7545C240.861 60.8114 241.675 61.0528 242.404 61.479C243.133 61.9051 243.716 62.4922 244.151 63.2403C244.587 63.979 244.805 64.8549 244.805 65.8682C244.805 67.2223 244.407 68.3824 243.612 69.3483C242.826 70.3142 241.737 71.0576 240.344 71.5784C238.962 72.0898 237.376 72.3454 235.586 72.3454C233.844 72.3454 232.281 72.0945 230.898 71.5926C229.525 71.0812 228.432 70.3331 227.617 69.3483C226.812 68.3634 226.386 67.1608 226.339 65.7403ZM254.737 72.3312C253.345 72.3312 252.105 72.0898 251.016 71.6068C249.927 71.1144 249.065 70.39 248.43 69.4335C247.805 68.4676 247.493 67.265 247.493 65.8256C247.493 64.6134 247.715 63.5954 248.161 62.7716C248.606 61.9477 249.212 61.2848 249.979 60.7829C250.746 60.2811 251.617 59.9023 252.592 59.6466C253.577 59.3909 254.609 59.211 255.689 59.1068C256.958 58.9742 257.981 58.8511 258.757 58.7375C259.534 58.6144 260.097 58.4345 260.447 58.1977C260.798 57.961 260.973 57.6106 260.973 57.1466V57.0614C260.973 56.1617 260.689 55.4657 260.121 54.9733C259.562 54.4809 258.767 54.2347 257.734 54.2347C256.645 54.2347 255.779 54.4761 255.135 54.9591C254.491 55.4326 254.065 56.0292 253.857 56.7489L248.26 56.2943C248.544 54.9686 249.103 53.8227 249.936 52.8568C250.769 51.8814 251.844 51.1333 253.161 50.6125C254.486 50.0822 256.02 49.817 257.763 49.817C258.975 49.817 260.135 49.9591 261.243 50.2432C262.36 50.5273 263.35 50.9676 264.212 51.5642C265.083 52.1608 265.769 52.9278 266.271 53.8653C266.773 54.7934 267.024 55.9061 267.024 57.2034V71.9193H261.286V68.8937H261.115C260.765 69.5756 260.296 70.1769 259.709 70.6977C259.122 71.2091 258.416 71.6115 257.592 71.9051C256.768 72.1892 255.817 72.3312 254.737 72.3312ZM256.47 68.1551C257.36 68.1551 258.146 67.9799 258.828 67.6295C259.51 67.2697 260.045 66.7867 260.433 66.1807C260.822 65.5746 261.016 64.8881 261.016 64.121V61.8057C260.826 61.9288 260.566 62.0424 260.234 62.1466C259.912 62.2413 259.548 62.3312 259.141 62.4165C258.733 62.4922 258.326 62.5633 257.919 62.6295C257.512 62.6864 257.143 62.7384 256.811 62.7858C256.101 62.89 255.481 63.0557 254.95 63.2829C254.42 63.5102 254.008 63.818 253.715 64.2062C253.421 64.585 253.274 65.0585 253.274 65.6267C253.274 66.4506 253.572 67.0803 254.169 67.5159C254.775 67.942 255.542 68.1551 256.47 68.1551ZM269.528 54.8597V50.1011H289.3V54.8597H282.269V71.9193H276.502V54.8597H269.528ZM296.761 56.8057H303.281C306.17 56.8057 308.423 57.497 310.043 58.8795C311.662 60.2526 312.472 62.0898 312.472 64.3909C312.472 65.8871 312.107 67.2034 311.378 68.3398C310.649 69.4667 309.598 70.3473 308.224 70.9818C306.851 71.6068 305.204 71.9193 303.281 71.9193H292.969V50.1011H298.75V67.1608H303.281C304.295 67.1608 305.128 66.9051 305.781 66.3937C306.435 65.8824 306.766 65.229 306.776 64.4335C306.766 63.5907 306.435 62.9042 305.781 62.3739C305.128 61.8341 304.295 61.5642 303.281 61.5642H296.761V56.8057ZM326.342 72.3454C324.108 72.3454 322.185 71.872 320.575 70.925C318.975 69.9686 317.744 68.6428 316.882 66.9477C316.03 65.2526 315.604 63.3019 315.604 61.0954C315.604 58.8606 316.035 56.9004 316.896 55.2148C317.768 53.5197 319.003 52.1987 320.604 51.2517C322.204 50.2953 324.108 49.817 326.314 49.817C328.217 49.817 329.884 50.1627 331.314 50.854C332.744 51.5453 333.875 52.5159 334.709 53.7659C335.542 55.0159 336.001 56.4837 336.087 58.1693H330.376C330.215 57.0803 329.789 56.2043 329.098 55.5415C328.416 54.8691 327.521 54.5329 326.413 54.5329C325.476 54.5329 324.657 54.7886 323.956 55.3C323.265 55.8019 322.725 56.5358 322.337 57.5017C321.948 58.4676 321.754 59.6371 321.754 61.0102C321.754 62.4023 321.944 63.586 322.322 64.5614C322.711 65.5367 323.255 66.2801 323.956 66.7915C324.657 67.3028 325.476 67.5585 326.413 67.5585C327.105 67.5585 327.725 67.4165 328.274 67.1324C328.833 66.8483 329.292 66.4364 329.652 65.8966C330.021 65.3473 330.263 64.6892 330.376 63.9222H336.087C335.992 65.5888 335.537 67.0566 334.723 68.3256C333.918 69.585 332.805 70.5699 331.385 71.2801C329.965 71.9903 328.284 72.3454 326.342 72.3454ZM352.745 71.9193V54.8454H348.654C347.546 54.8454 346.703 55.1011 346.126 55.6125C345.548 56.1239 345.264 56.7299 345.273 57.4307C345.264 58.1409 345.539 58.7422 346.097 59.2347C346.666 59.7176 347.499 59.9591 348.597 59.9591H354.762V64.05H348.597C346.732 64.05 345.117 63.7659 343.754 63.1977C342.39 62.6295 341.339 61.8388 340.6 60.8256C339.862 59.8028 339.497 58.6144 339.506 57.2602C339.497 55.8398 339.862 54.5945 340.6 53.5244C341.339 52.4449 342.395 51.6068 343.768 51.0102C345.15 50.4042 346.779 50.1011 348.654 50.1011H358.384V71.9193H352.745ZM338.881 71.9193L344.947 60.5557H350.728L344.677 71.9193H338.881Z" fill="url(#paint0_linear_1038_6339)"/>
<path d="M112.942 120.638V149.729H106.792V126.476H106.621L99.9593 130.652V125.197L107.161 120.638H112.942Z" fill="black"/>
<path d="M431.273 135.064C429.576 135.064 428.064 134.772 426.738 134.189C425.42 133.598 424.379 132.787 423.613 131.757C422.856 130.719 422.466 129.522 422.443 128.166H427.398C427.428 128.734 427.613 129.234 427.954 129.666C428.303 130.09 428.765 130.42 429.341 130.655C429.916 130.89 430.564 131.007 431.284 131.007C432.034 131.007 432.697 130.875 433.273 130.609C433.848 130.344 434.299 129.977 434.625 129.507C434.951 129.037 435.113 128.496 435.113 127.882C435.113 127.261 434.939 126.712 434.591 126.234C434.25 125.75 433.757 125.371 433.113 125.098C432.477 124.825 431.72 124.689 430.841 124.689H428.67V121.075H430.841C431.583 121.075 432.238 120.946 432.807 120.689C433.382 120.431 433.829 120.075 434.148 119.621C434.466 119.159 434.625 118.621 434.625 118.007C434.625 117.424 434.485 116.912 434.204 116.473C433.932 116.026 433.545 115.678 433.045 115.428C432.553 115.178 431.977 115.053 431.318 115.053C430.651 115.053 430.041 115.174 429.488 115.416C428.935 115.651 428.492 115.988 428.159 116.428C427.826 116.867 427.648 117.382 427.625 117.973H422.909C422.932 116.632 423.314 115.45 424.057 114.428C424.799 113.405 425.799 112.606 427.057 112.03C428.322 111.446 429.75 111.155 431.341 111.155C432.947 111.155 434.352 111.446 435.557 112.03C436.761 112.613 437.697 113.401 438.363 114.393C439.038 115.378 439.371 116.484 439.363 117.712C439.371 119.015 438.966 120.102 438.148 120.973C437.337 121.844 436.28 122.397 434.977 122.632V122.814C436.689 123.034 437.992 123.628 438.886 124.598C439.788 125.56 440.235 126.765 440.227 128.212C440.235 129.537 439.852 130.715 439.079 131.746C438.314 132.776 437.257 133.587 435.909 134.178C434.56 134.768 433.015 135.064 431.273 135.064ZM448.787 135.075C447.673 135.075 446.681 134.882 445.809 134.496C444.938 134.102 444.249 133.522 443.741 132.757C443.241 131.984 442.991 131.022 442.991 129.871C442.991 128.901 443.169 128.087 443.525 127.428C443.881 126.768 444.366 126.238 444.98 125.837C445.594 125.435 446.291 125.132 447.071 124.928C447.859 124.723 448.684 124.579 449.548 124.496C450.563 124.39 451.381 124.291 452.003 124.2C452.624 124.102 453.075 123.958 453.355 123.768C453.635 123.579 453.775 123.299 453.775 122.928V122.859C453.775 122.14 453.548 121.583 453.094 121.189C452.647 120.795 452.01 120.598 451.184 120.598C450.313 120.598 449.62 120.791 449.105 121.178C448.59 121.556 448.249 122.034 448.082 122.609L443.605 122.246C443.832 121.185 444.279 120.268 444.946 119.496C445.613 118.715 446.472 118.117 447.525 117.7C448.586 117.276 449.813 117.064 451.207 117.064C452.177 117.064 453.105 117.178 453.991 117.405C454.885 117.632 455.677 117.984 456.366 118.462C457.063 118.939 457.613 119.553 458.014 120.303C458.416 121.045 458.616 121.935 458.616 122.973V134.746H454.025V132.325H453.889C453.609 132.871 453.234 133.352 452.764 133.768C452.294 134.178 451.73 134.5 451.071 134.734C450.412 134.962 449.65 135.075 448.787 135.075ZM450.173 131.734C450.885 131.734 451.514 131.594 452.059 131.314C452.605 131.026 453.033 130.64 453.344 130.155C453.654 129.67 453.809 129.121 453.809 128.507V126.655C453.658 126.753 453.45 126.844 453.184 126.928C452.927 127.003 452.635 127.075 452.309 127.143C451.984 127.204 451.658 127.261 451.332 127.314C451.006 127.359 450.711 127.401 450.446 127.439C449.878 127.522 449.381 127.655 448.957 127.837C448.533 128.018 448.203 128.265 447.969 128.575C447.734 128.878 447.616 129.257 447.616 129.712C447.616 130.371 447.855 130.875 448.332 131.223C448.817 131.564 449.431 131.734 450.173 131.734ZM461.008 139.859V130.905H462.349C462.736 130.662 463.046 130.276 463.281 129.746C463.524 129.215 463.72 128.59 463.872 127.871C464.031 127.151 464.152 126.375 464.236 125.541C464.327 124.7 464.406 123.852 464.474 122.996L464.929 117.291H478.315V130.905H481.02V139.859H476.406V134.746H465.736V139.859H461.008ZM467.167 130.905H473.747V121.018H469.042L468.861 122.996C468.732 124.859 468.546 126.443 468.304 127.746C468.061 129.041 467.683 130.094 467.167 130.905ZM488.818 135.075C487.704 135.075 486.712 134.882 485.841 134.496C484.97 134.102 484.28 133.522 483.773 132.757C483.273 131.984 483.023 131.022 483.023 129.871C483.023 128.901 483.201 128.087 483.557 127.428C483.913 126.768 484.398 126.238 485.011 125.837C485.625 125.435 486.322 125.132 487.102 124.928C487.89 124.723 488.716 124.579 489.579 124.496C490.595 124.39 491.413 124.291 492.034 124.2C492.655 124.102 493.106 123.958 493.386 123.768C493.666 123.579 493.807 123.299 493.807 122.928V122.859C493.807 122.14 493.579 121.583 493.125 121.189C492.678 120.795 492.041 120.598 491.216 120.598C490.345 120.598 489.651 120.791 489.136 121.178C488.621 121.556 488.28 122.034 488.113 122.609L483.636 122.246C483.863 121.185 484.31 120.268 484.977 119.496C485.644 118.715 486.504 118.117 487.557 117.7C488.617 117.276 489.845 117.064 491.238 117.064C492.208 117.064 493.136 117.178 494.023 117.405C494.916 117.632 495.708 117.984 496.398 118.462C497.095 118.939 497.644 119.553 498.045 120.303C498.447 121.045 498.648 121.935 498.648 122.973V134.746H494.057V132.325H493.92C493.64 132.871 493.265 133.352 492.795 133.768C492.326 134.178 491.761 134.5 491.102 134.734C490.443 134.962 489.682 135.075 488.818 135.075ZM490.204 131.734C490.916 131.734 491.545 131.594 492.091 131.314C492.636 131.026 493.064 130.64 493.375 130.155C493.685 129.67 493.841 129.121 493.841 128.507V126.655C493.689 126.753 493.481 126.844 493.216 126.928C492.958 127.003 492.666 127.075 492.341 127.143C492.015 127.204 491.689 127.261 491.363 127.314C491.038 127.359 490.742 127.401 490.477 127.439C489.909 127.522 489.413 127.655 488.988 127.837C488.564 128.018 488.235 128.265 488 128.575C487.765 128.878 487.648 129.257 487.648 129.712C487.648 130.371 487.886 130.875 488.363 131.223C488.848 131.564 489.462 131.734 490.204 131.734ZM502.403 134.746V117.291H509.846C511.998 117.291 513.699 117.7 514.949 118.518C516.199 119.337 516.824 120.5 516.824 122.007C516.824 122.954 516.471 123.742 515.767 124.371C515.062 125 514.085 125.424 512.835 125.643C513.881 125.719 514.771 125.958 515.506 126.359C516.248 126.753 516.812 127.265 517.199 127.893C517.593 128.522 517.79 129.219 517.79 129.984C517.79 130.977 517.524 131.829 516.994 132.541C516.471 133.253 515.702 133.799 514.687 134.178C513.68 134.556 512.449 134.746 510.994 134.746H502.403ZM506.915 131.121H510.994C511.668 131.121 512.195 130.962 512.574 130.643C512.96 130.318 513.153 129.875 513.153 129.314C513.153 128.693 512.96 128.204 512.574 127.848C512.195 127.492 511.668 127.314 510.994 127.314H506.915V131.121ZM506.915 124.473H509.949C510.434 124.473 510.846 124.405 511.187 124.268C511.536 124.125 511.801 123.92 511.983 123.655C512.172 123.39 512.267 123.075 512.267 122.712C512.267 122.174 512.051 121.753 511.619 121.45C511.187 121.147 510.596 120.996 509.846 120.996H506.915V124.473ZM525.818 135.075C524.704 135.075 523.712 134.882 522.841 134.496C521.97 134.102 521.28 133.522 520.773 132.757C520.273 131.984 520.023 131.022 520.023 129.871C520.023 128.901 520.201 128.087 520.557 127.428C520.913 126.768 521.398 126.238 522.011 125.837C522.625 125.435 523.322 125.132 524.102 124.928C524.89 124.723 525.716 124.579 526.579 124.496C527.595 124.39 528.413 124.291 529.034 124.2C529.655 124.102 530.106 123.958 530.386 123.768C530.666 123.579 530.807 123.299 530.807 122.928V122.859C530.807 122.14 530.579 121.583 530.125 121.189C529.678 120.795 529.041 120.598 528.216 120.598C527.345 120.598 526.651 120.791 526.136 121.178C525.621 121.556 525.28 122.034 525.113 122.609L520.636 122.246C520.863 121.185 521.31 120.268 521.977 119.496C522.644 118.715 523.504 118.117 524.557 117.7C525.617 117.276 526.845 117.064 528.238 117.064C529.208 117.064 530.136 117.178 531.023 117.405C531.916 117.632 532.708 117.984 533.398 118.462C534.095 118.939 534.644 119.553 535.045 120.303C535.447 121.045 535.648 121.935 535.648 122.973V134.746H531.057V132.325H530.92C530.64 132.871 530.265 133.352 529.795 133.768C529.326 134.178 528.761 134.5 528.102 134.734C527.443 134.962 526.682 135.075 525.818 135.075ZM527.204 131.734C527.916 131.734 528.545 131.594 529.091 131.314C529.636 131.026 530.064 130.64 530.375 130.155C530.685 129.67 530.841 129.121 530.841 128.507V126.655C530.689 126.753 530.481 126.844 530.216 126.928C529.958 127.003 529.666 127.075 529.341 127.143C529.015 127.204 528.689 127.261 528.363 127.314C528.038 127.359 527.742 127.401 527.477 127.439C526.909 127.522 526.413 127.655 525.988 127.837C525.564 128.018 525.235 128.265 525 128.575C524.765 128.878 524.648 129.257 524.648 129.712C524.648 130.371 524.886 130.875 525.363 131.223C525.848 131.564 526.462 131.734 527.204 131.734ZM544.028 128.359L550.312 117.291H555.085V134.746H550.471V123.643L544.21 134.746H539.403V117.291H544.028V128.359ZM549.483 111.2H552.858C552.85 112.579 552.339 113.689 551.324 114.53C550.316 115.371 548.952 115.791 547.233 115.791C545.506 115.791 544.138 115.371 543.131 114.53C542.123 113.689 541.619 112.579 541.619 111.2H544.971C544.964 111.723 545.131 112.193 545.471 112.609C545.82 113.026 546.407 113.234 547.233 113.234C548.036 113.234 548.612 113.03 548.96 112.621C549.309 112.212 549.483 111.738 549.483 111.2ZM566.372 134.746V117.291H573.815C575.967 117.291 577.667 117.7 578.917 118.518C580.167 119.337 580.792 120.5 580.792 122.007C580.792 122.954 580.44 123.742 579.736 124.371C579.031 125 578.054 125.424 576.804 125.643C577.849 125.719 578.739 125.958 579.474 126.359C580.217 126.753 580.781 127.265 581.167 127.893C581.561 128.522 581.758 129.219 581.758 129.984C581.758 130.977 581.493 131.829 580.963 132.541C580.44 133.253 579.671 133.799 578.656 134.178C577.649 134.556 576.417 134.746 574.963 134.746H566.372ZM570.883 131.121H574.963C575.637 131.121 576.164 130.962 576.542 130.643C576.929 130.318 577.122 129.875 577.122 129.314C577.122 128.693 576.929 128.204 576.542 127.848C576.164 127.492 575.637 127.314 574.963 127.314H570.883V131.121ZM570.883 124.473H573.917C574.402 124.473 574.815 124.405 575.156 124.268C575.505 124.125 575.77 123.92 575.952 123.655C576.141 123.39 576.236 123.075 576.236 122.712C576.236 122.174 576.02 121.753 575.588 121.45C575.156 121.147 574.565 120.996 573.815 120.996H570.883V124.473ZM592.696 135.087C590.931 135.087 589.404 134.712 588.116 133.962C586.836 133.204 585.847 132.151 585.15 130.803C584.453 129.446 584.105 127.875 584.105 126.087C584.105 124.284 584.453 122.708 585.15 121.359C585.847 120.003 586.836 118.95 588.116 118.2C589.404 117.443 590.931 117.064 592.696 117.064C594.461 117.064 595.984 117.443 597.264 118.2C598.552 118.95 599.544 120.003 600.241 121.359C600.938 122.708 601.287 124.284 601.287 126.087C601.287 127.875 600.938 129.446 600.241 130.803C599.544 132.151 598.552 133.204 597.264 133.962C595.984 134.712 594.461 135.087 592.696 135.087ZM592.719 131.337C593.522 131.337 594.192 131.109 594.73 130.655C595.268 130.193 595.673 129.564 595.946 128.768C596.226 127.973 596.366 127.068 596.366 126.053C596.366 125.037 596.226 124.132 595.946 123.337C595.673 122.541 595.268 121.912 594.73 121.45C594.192 120.988 593.522 120.757 592.719 120.757C591.908 120.757 591.226 120.988 590.673 121.45C590.128 121.912 589.715 122.541 589.434 123.337C589.162 124.132 589.025 125.037 589.025 126.053C589.025 127.068 589.162 127.973 589.434 128.768C589.715 129.564 590.128 130.193 590.673 130.655C591.226 131.109 591.908 131.337 592.719 131.337ZM604.434 134.746V117.291H619.696V134.746H615.071V121.098H609.003V134.746H604.434ZM623.56 141.291V117.291H628.332V120.223H628.548C628.76 119.753 629.067 119.276 629.469 118.791C629.878 118.299 630.408 117.89 631.06 117.564C631.719 117.231 632.537 117.064 633.514 117.064C634.787 117.064 635.961 117.397 637.037 118.064C638.113 118.723 638.972 119.719 639.616 121.053C640.26 122.378 640.582 124.041 640.582 126.041C640.582 127.988 640.268 129.632 639.639 130.973C639.018 132.306 638.169 133.318 637.094 134.007C636.025 134.689 634.828 135.03 633.503 135.03C632.563 135.03 631.764 134.875 631.105 134.564C630.453 134.253 629.919 133.863 629.503 133.393C629.086 132.916 628.768 132.435 628.548 131.95H628.4V141.291H623.56ZM628.298 126.018C628.298 127.056 628.442 127.962 628.73 128.734C629.018 129.507 629.435 130.109 629.98 130.541C630.525 130.965 631.188 131.178 631.969 131.178C632.756 131.178 633.423 130.962 633.969 130.53C634.514 130.09 634.927 129.484 635.207 128.712C635.495 127.931 635.639 127.034 635.639 126.018C635.639 125.011 635.499 124.125 635.219 123.359C634.938 122.594 634.525 121.996 633.98 121.564C633.435 121.132 632.764 120.916 631.969 120.916C631.181 120.916 630.514 121.125 629.969 121.541C629.431 121.958 629.018 122.549 628.73 123.314C628.442 124.079 628.298 124.981 628.298 126.018ZM651.696 135.087C649.931 135.087 648.404 134.712 647.116 133.962C645.836 133.204 644.847 132.151 644.15 130.803C643.453 129.446 643.105 127.875 643.105 126.087C643.105 124.284 643.453 122.708 644.15 121.359C644.847 120.003 645.836 118.95 647.116 118.2C648.404 117.443 649.931 117.064 651.696 117.064C653.461 117.064 654.984 117.443 656.264 118.2C657.552 118.95 658.544 120.003 659.241 121.359C659.938 122.708 660.287 124.284 660.287 126.087C660.287 127.875 659.938 129.446 659.241 130.803C658.544 132.151 657.552 133.204 656.264 133.962C654.984 134.712 653.461 135.087 651.696 135.087ZM651.719 131.337C652.522 131.337 653.192 131.109 653.73 130.655C654.268 130.193 654.673 129.564 654.946 128.768C655.226 127.973 655.366 127.068 655.366 126.053C655.366 125.037 655.226 124.132 654.946 123.337C654.673 122.541 654.268 121.912 653.73 121.45C653.192 120.988 652.522 120.757 651.719 120.757C650.908 120.757 650.226 120.988 649.673 121.45C649.128 121.912 648.715 122.541 648.435 123.337C648.162 124.132 648.025 125.037 648.025 126.053C648.025 127.068 648.162 127.973 648.435 128.768C648.715 129.564 649.128 130.193 649.673 130.655C650.226 131.109 650.908 131.337 651.719 131.337ZM671.321 135.087C669.533 135.087 667.995 134.708 666.707 133.95C665.427 133.185 664.442 132.125 663.753 130.768C663.071 129.412 662.73 127.852 662.73 126.087C662.73 124.299 663.075 122.731 663.764 121.382C664.461 120.026 665.45 118.969 666.73 118.212C668.01 117.446 669.533 117.064 671.298 117.064C672.821 117.064 674.154 117.34 675.298 117.893C676.442 118.446 677.347 119.223 678.014 120.223C678.681 121.223 679.048 122.397 679.116 123.746H674.548C674.419 122.875 674.078 122.174 673.525 121.643C672.98 121.106 672.264 120.837 671.378 120.837C670.628 120.837 669.972 121.041 669.412 121.45C668.859 121.852 668.427 122.439 668.116 123.212C667.806 123.984 667.65 124.92 667.65 126.018C667.65 127.132 667.802 128.079 668.105 128.859C668.416 129.64 668.851 130.234 669.412 130.643C669.972 131.053 670.628 131.257 671.378 131.257C671.931 131.257 672.427 131.143 672.866 130.916C673.313 130.689 673.681 130.359 673.969 129.928C674.264 129.488 674.457 128.962 674.548 128.348H679.116C679.041 129.681 678.677 130.856 678.025 131.871C677.381 132.878 676.491 133.666 675.355 134.234C674.219 134.803 672.874 135.087 671.321 135.087Z" fill="#5955B3"/>
<path d="M353.957 328.442V340.078H352.207V329.942H346.729V340.078H344.979V328.442H353.957ZM360.266 340.255C359.406 340.255 358.666 340.071 358.045 339.703C357.427 339.332 356.95 338.811 356.613 338.141C356.279 337.467 356.113 336.677 356.113 335.772C356.113 334.878 356.279 334.09 356.613 333.408C356.95 332.726 357.42 332.194 358.022 331.811C358.628 331.429 359.336 331.237 360.147 331.237C360.639 331.237 361.117 331.319 361.579 331.482C362.041 331.645 362.456 331.9 362.823 332.249C363.19 332.597 363.48 333.05 363.692 333.607C363.904 334.16 364.011 334.832 364.011 335.624V336.226H357.073V334.953H362.346C362.346 334.506 362.255 334.111 362.073 333.766C361.891 333.417 361.636 333.143 361.306 332.942C360.98 332.741 360.598 332.641 360.158 332.641C359.681 332.641 359.264 332.758 358.908 332.993C358.556 333.224 358.283 333.527 358.09 333.902C357.901 334.273 357.806 334.677 357.806 335.112V336.107C357.806 336.69 357.908 337.186 358.113 337.595C358.321 338.005 358.611 338.317 358.982 338.533C359.353 338.745 359.787 338.851 360.283 338.851C360.605 338.851 360.899 338.806 361.164 338.715C361.429 338.62 361.658 338.48 361.851 338.294C362.045 338.109 362.192 337.88 362.295 337.607L363.903 337.897C363.774 338.37 363.543 338.785 363.209 339.141C362.88 339.493 362.465 339.768 361.965 339.965C361.469 340.158 360.903 340.255 360.266 340.255ZM365.895 343.351V331.351H367.555V332.766H367.697C367.795 332.584 367.937 332.374 368.123 332.135C368.308 331.897 368.566 331.688 368.895 331.51C369.225 331.328 369.661 331.237 370.202 331.237C370.907 331.237 371.536 331.415 372.089 331.772C372.642 332.128 373.075 332.641 373.39 333.311C373.708 333.982 373.867 334.789 373.867 335.732C373.867 336.675 373.71 337.484 373.395 338.158C373.081 338.828 372.649 339.345 372.1 339.709C371.551 340.069 370.924 340.249 370.219 340.249C369.689 340.249 369.255 340.16 368.918 339.982C368.585 339.804 368.324 339.595 368.134 339.357C367.945 339.118 367.799 338.906 367.697 338.72H367.594V343.351H365.895ZM367.56 335.715C367.56 336.328 367.649 336.866 367.827 337.328C368.005 337.79 368.263 338.152 368.6 338.414C368.937 338.671 369.35 338.8 369.839 338.8C370.346 338.8 370.77 338.665 371.111 338.397C371.452 338.124 371.71 337.755 371.884 337.289C372.062 336.823 372.151 336.298 372.151 335.715C372.151 335.139 372.064 334.622 371.89 334.164C371.719 333.705 371.462 333.344 371.117 333.078C370.776 332.813 370.35 332.681 369.839 332.681C369.346 332.681 368.93 332.808 368.589 333.061C368.252 333.315 367.996 333.669 367.822 334.124C367.647 334.578 367.56 335.109 367.56 335.715ZM379.532 340.255C378.672 340.255 377.931 340.071 377.31 339.703C376.693 339.332 376.216 338.811 375.878 338.141C375.545 337.467 375.378 336.677 375.378 335.772C375.378 334.878 375.545 334.09 375.878 333.408C376.216 332.726 376.685 332.194 377.288 331.811C377.894 331.429 378.602 331.237 379.413 331.237C379.905 331.237 380.382 331.319 380.844 331.482C381.306 331.645 381.721 331.9 382.089 332.249C382.456 332.597 382.746 333.05 382.958 333.607C383.17 334.16 383.276 334.832 383.276 335.624V336.226H376.339V334.953H381.611C381.611 334.506 381.52 334.111 381.339 333.766C381.157 333.417 380.901 333.143 380.572 332.942C380.246 332.741 379.863 332.641 379.424 332.641C378.947 332.641 378.53 332.758 378.174 332.993C377.822 333.224 377.549 333.527 377.356 333.902C377.166 334.273 377.072 334.677 377.072 335.112V336.107C377.072 336.69 377.174 337.186 377.378 337.595C377.587 338.005 377.877 338.317 378.248 338.533C378.619 338.745 379.053 338.851 379.549 338.851C379.871 338.851 380.164 338.806 380.43 338.715C380.695 338.62 380.924 338.48 381.117 338.294C381.31 338.109 381.458 337.88 381.56 337.607L383.168 337.897C383.039 338.37 382.808 338.785 382.475 339.141C382.145 339.493 381.731 339.768 381.231 339.965C380.734 340.158 380.168 340.255 379.532 340.255ZM386.826 337.698L390.672 331.351H392.502V340.078H390.837V333.726L387.008 340.078H385.161V331.351H386.826V337.698ZM389.945 328.397H391.343C391.343 329.037 391.116 329.558 390.661 329.959C390.21 330.357 389.6 330.556 388.832 330.556C388.066 330.556 387.458 330.357 387.008 329.959C386.557 329.558 386.332 329.037 386.332 328.397H387.724C387.724 328.681 387.807 328.933 387.974 329.152C388.14 329.368 388.426 329.476 388.832 329.476C389.229 329.476 389.513 329.368 389.684 329.152C389.858 328.936 389.945 328.684 389.945 328.397ZM393.934 342.595V338.607H394.644C394.826 338.44 394.979 338.241 395.104 338.01C395.233 337.779 395.341 337.505 395.428 337.186C395.519 336.868 395.595 336.497 395.655 336.073C395.716 335.645 395.769 335.156 395.815 334.607L396.087 331.351H402.019V338.607H403.36V342.595H401.701V340.078H395.616V342.595H393.934ZM396.462 338.607H400.36V332.806H397.61L397.428 334.607C397.341 335.523 397.231 336.319 397.099 336.993C396.966 337.664 396.754 338.201 396.462 338.607ZM406.685 337.698L410.532 331.351H412.361V340.078H410.697V333.726L406.867 340.078H405.02V331.351H406.685V337.698ZM418.88 340.078V331.351H425.999V340.078H424.334V332.817H420.533V340.078H418.88ZM431.947 340.255C431.128 340.255 430.414 340.067 429.805 339.692C429.195 339.317 428.721 338.792 428.384 338.118C428.047 337.444 427.878 336.656 427.878 335.755C427.878 334.849 428.047 334.058 428.384 333.38C428.721 332.701 429.195 332.175 429.805 331.8C430.414 331.425 431.128 331.237 431.947 331.237C432.765 331.237 433.479 331.425 434.089 331.8C434.699 332.175 435.172 332.701 435.509 333.38C435.846 334.058 436.015 334.849 436.015 335.755C436.015 336.656 435.846 337.444 435.509 338.118C435.172 338.792 434.699 339.317 434.089 339.692C433.479 340.067 432.765 340.255 431.947 340.255ZM431.952 338.828C432.483 338.828 432.922 338.688 433.27 338.408C433.619 338.128 433.877 337.755 434.043 337.289C434.214 336.823 434.299 336.309 434.299 335.749C434.299 335.192 434.214 334.681 434.043 334.215C433.877 333.745 433.619 333.368 433.27 333.084C432.922 332.8 432.483 332.658 431.952 332.658C431.418 332.658 430.975 332.8 430.623 333.084C430.274 333.368 430.015 333.745 429.844 334.215C429.678 334.681 429.594 335.192 429.594 335.749C429.594 336.309 429.678 336.823 429.844 337.289C430.015 337.755 430.274 338.128 430.623 338.408C430.975 338.688 431.418 338.828 431.952 338.828ZM445.822 340.255C444.977 340.255 444.25 340.063 443.64 339.681C443.034 339.294 442.568 338.762 442.242 338.084C441.916 337.406 441.753 336.63 441.753 335.755C441.753 334.868 441.92 334.086 442.253 333.408C442.587 332.726 443.056 332.194 443.663 331.811C444.269 331.429 444.983 331.237 445.805 331.237C446.467 331.237 447.058 331.361 447.577 331.607C448.096 331.849 448.515 332.19 448.833 332.63C449.155 333.069 449.346 333.582 449.407 334.169H447.753C447.663 333.76 447.454 333.408 447.128 333.112C446.806 332.817 446.375 332.669 445.833 332.669C445.359 332.669 444.945 332.794 444.589 333.044C444.236 333.29 443.962 333.643 443.765 334.101C443.568 334.556 443.469 335.094 443.469 335.715C443.469 336.351 443.566 336.9 443.759 337.362C443.952 337.825 444.225 338.183 444.577 338.436C444.933 338.69 445.352 338.817 445.833 338.817C446.155 338.817 446.447 338.758 446.708 338.641C446.973 338.52 447.195 338.347 447.373 338.124C447.555 337.9 447.681 337.631 447.753 337.317H449.407C449.346 337.881 449.163 338.385 448.856 338.828C448.549 339.272 448.138 339.62 447.623 339.874C447.111 340.128 446.511 340.255 445.822 340.255ZM454.9 340.255C454.055 340.255 453.328 340.063 452.718 339.681C452.112 339.294 451.646 338.762 451.32 338.084C450.994 337.406 450.832 336.63 450.832 335.755C450.832 334.868 450.998 334.086 451.332 333.408C451.665 332.726 452.135 332.194 452.741 331.811C453.347 331.429 454.061 331.237 454.883 331.237C455.546 331.237 456.136 331.361 456.655 331.607C457.174 331.849 457.593 332.19 457.911 332.63C458.233 333.069 458.424 333.582 458.485 334.169H456.832C456.741 333.76 456.532 333.408 456.207 333.112C455.885 332.817 455.453 332.669 454.911 332.669C454.438 332.669 454.023 332.794 453.667 333.044C453.314 333.29 453.04 333.643 452.843 334.101C452.646 334.556 452.547 335.094 452.547 335.715C452.547 336.351 452.644 336.9 452.837 337.362C453.03 337.825 453.303 338.183 453.655 338.436C454.011 338.69 454.43 338.817 454.911 338.817C455.233 338.817 455.525 338.758 455.786 338.641C456.051 338.52 456.273 338.347 456.451 338.124C456.633 337.9 456.76 337.631 456.832 337.317H458.485C458.424 337.881 458.241 338.385 457.934 338.828C457.627 339.272 457.216 339.62 456.701 339.874C456.189 340.128 455.589 340.255 454.9 340.255ZM461.58 334.351H464.114C465.182 334.351 466.004 334.616 466.58 335.147C467.156 335.677 467.444 336.361 467.444 337.198C467.444 337.743 467.315 338.234 467.057 338.669C466.8 339.105 466.423 339.45 465.927 339.703C465.431 339.953 464.826 340.078 464.114 340.078H460.302V331.351H461.966V338.612H464.114C464.603 338.612 465.004 338.486 465.319 338.232C465.633 337.974 465.79 337.647 465.79 337.249C465.79 336.828 465.633 336.486 465.319 336.22C465.004 335.951 464.603 335.817 464.114 335.817H461.58V334.351ZM468.682 340.078V331.351H470.381V340.078H468.682ZM471.974 340.078L471.968 338.607H472.28C472.523 338.607 472.725 338.556 472.888 338.453C473.055 338.347 473.191 338.169 473.297 337.919C473.404 337.669 473.485 337.325 473.542 336.885C473.599 336.442 473.64 335.885 473.667 335.215L473.82 331.351H479.911V340.078H478.246V332.817H475.394L475.258 335.783C475.224 336.503 475.15 337.131 475.036 337.669C474.926 338.207 474.765 338.656 474.553 339.016C474.341 339.372 474.068 339.639 473.735 339.817C473.402 339.991 472.996 340.078 472.519 340.078H471.974ZM482.177 340.078V331.351H483.876V335.01H484.694L487.574 331.351H489.677L486.296 335.595L489.716 340.078H487.609L484.978 336.59H483.876V340.078H482.177ZM494.438 340.255C493.578 340.255 492.838 340.071 492.216 339.703C491.599 339.332 491.122 338.811 490.785 338.141C490.451 337.467 490.285 336.677 490.285 335.772C490.285 334.878 490.451 334.09 490.785 333.408C491.122 332.726 491.591 332.194 492.194 331.811C492.8 331.429 493.508 331.237 494.319 331.237C494.811 331.237 495.288 331.319 495.751 331.482C496.213 331.645 496.627 331.9 496.995 332.249C497.362 332.597 497.652 333.05 497.864 333.607C498.076 334.16 498.182 334.832 498.182 335.624V336.226H491.245V334.953H496.518C496.518 334.506 496.427 334.111 496.245 333.766C496.063 333.417 495.807 333.143 495.478 332.942C495.152 332.741 494.77 332.641 494.33 332.641C493.853 332.641 493.436 332.758 493.08 332.993C492.728 333.224 492.455 333.527 492.262 333.902C492.073 334.273 491.978 334.677 491.978 335.112V336.107C491.978 336.69 492.08 337.186 492.285 337.595C492.493 338.005 492.783 338.317 493.154 338.533C493.525 338.745 493.959 338.851 494.455 338.851C494.777 338.851 495.071 338.806 495.336 338.715C495.601 338.62 495.83 338.48 496.023 338.294C496.216 338.109 496.364 337.88 496.466 337.607L498.074 337.897C497.946 338.37 497.715 338.785 497.381 339.141C497.052 339.493 496.637 339.768 496.137 339.965C495.641 340.158 495.074 340.255 494.438 340.255ZM505.966 337.698L509.813 331.351H511.643V340.078H509.978V333.726L506.148 340.078H504.302V331.351H505.966V337.698ZM513.239 340.078L513.234 338.607H513.546C513.788 338.607 513.991 338.556 514.154 338.453C514.321 338.347 514.457 338.169 514.563 337.919C514.669 337.669 514.751 337.325 514.807 336.885C514.864 336.442 514.906 335.885 514.932 335.215L515.086 331.351H521.177V340.078H519.512V332.817H516.66L516.523 335.783C516.489 336.503 516.415 337.131 516.302 337.669C516.192 338.207 516.031 338.656 515.819 339.016C515.607 339.372 515.334 339.639 515.001 339.817C514.667 339.991 514.262 340.078 513.785 340.078H513.239ZM525.107 337.698L528.954 331.351H530.783V340.078H529.118V333.726L525.289 340.078H523.442V331.351H525.107V337.698ZM378.404 353.982V355.453H373.677V353.982H378.404ZM374.154 350.351V359.078H372.489V350.351H374.154ZM379.591 350.351V359.078H377.932V350.351H379.591ZM384.404 359.272C383.851 359.272 383.351 359.169 382.904 358.965C382.457 358.756 382.103 358.455 381.841 358.061C381.584 357.667 381.455 357.184 381.455 356.612C381.455 356.12 381.55 355.715 381.739 355.397C381.929 355.078 382.184 354.826 382.506 354.641C382.828 354.455 383.188 354.315 383.586 354.22C383.984 354.126 384.389 354.054 384.802 354.005C385.324 353.944 385.749 353.895 386.074 353.857C386.4 353.815 386.637 353.749 386.785 353.658C386.932 353.567 387.006 353.419 387.006 353.215V353.175C387.006 352.679 386.866 352.294 386.586 352.022C386.309 351.749 385.896 351.612 385.347 351.612C384.775 351.612 384.324 351.739 383.995 351.993C383.669 352.243 383.444 352.522 383.319 352.828L381.722 352.465C381.912 351.934 382.188 351.506 382.552 351.181C382.919 350.851 383.341 350.612 383.819 350.465C384.296 350.313 384.798 350.237 385.324 350.237C385.673 350.237 386.042 350.279 386.432 350.362C386.826 350.442 387.194 350.59 387.535 350.806C387.879 351.022 388.162 351.33 388.381 351.732C388.601 352.13 388.711 352.647 388.711 353.283V359.078H387.052V357.885H386.984C386.874 358.105 386.709 358.321 386.489 358.533C386.27 358.745 385.987 358.921 385.643 359.061C385.298 359.201 384.885 359.272 384.404 359.272ZM384.773 357.908C385.243 357.908 385.645 357.815 385.978 357.63C386.315 357.444 386.571 357.201 386.745 356.902C386.923 356.599 387.012 356.275 387.012 355.931V354.806C386.951 354.866 386.834 354.923 386.66 354.976C386.489 355.025 386.294 355.069 386.074 355.107C385.855 355.141 385.641 355.173 385.432 355.203C385.224 355.23 385.05 355.253 384.91 355.272C384.58 355.313 384.279 355.383 384.006 355.482C383.737 355.58 383.521 355.722 383.359 355.908C383.199 356.09 383.12 356.332 383.12 356.635C383.12 357.056 383.275 357.374 383.586 357.59C383.896 357.802 384.292 357.908 384.773 357.908ZM390.974 359.078V350.351H398.093V359.078H396.428V351.817H392.627V359.078H390.974ZM402.029 356.698L405.876 350.351H407.705V359.078H406.04V352.726L402.211 359.078H400.364V350.351H402.029V356.698ZM409.989 350.351H411.654V357.607H414.671V350.351H416.336V357.607H419.353V350.351H421.018V359.078H409.989V350.351ZM424.951 356.698L428.797 350.351H430.627V359.078H428.962V352.726L425.133 359.078H423.286V350.351H424.951V356.698ZM443.06 353.982V355.453H438.333V353.982H443.06ZM438.81 350.351V359.078H437.145V350.351H438.81ZM444.248 350.351V359.078H442.589V350.351H444.248ZM449.06 359.272C448.507 359.272 448.007 359.169 447.56 358.965C447.113 358.756 446.759 358.455 446.498 358.061C446.24 357.667 446.111 357.184 446.111 356.612C446.111 356.12 446.206 355.715 446.395 355.397C446.585 355.078 446.841 354.826 447.163 354.641C447.484 354.455 447.844 354.315 448.242 354.22C448.64 354.126 449.045 354.054 449.458 354.005C449.981 353.944 450.405 353.895 450.731 353.857C451.056 353.815 451.293 353.749 451.441 353.658C451.589 353.567 451.663 353.419 451.663 353.215V353.175C451.663 352.679 451.522 352.294 451.242 352.022C450.966 351.749 450.553 351.612 450.003 351.612C449.431 351.612 448.981 351.739 448.651 351.993C448.325 352.243 448.1 352.522 447.975 352.828L446.378 352.465C446.568 351.934 446.844 351.506 447.208 351.181C447.575 350.851 447.998 350.612 448.475 350.465C448.952 350.313 449.454 350.237 449.981 350.237C450.329 350.237 450.699 350.279 451.089 350.362C451.483 350.442 451.85 350.59 452.191 350.806C452.536 351.022 452.818 351.33 453.038 351.732C453.257 352.13 453.367 352.647 453.367 353.283V359.078H451.708V357.885H451.64C451.53 358.105 451.365 358.321 451.145 358.533C450.926 358.745 450.644 358.921 450.299 359.061C449.954 359.201 449.541 359.272 449.06 359.272ZM449.43 357.908C449.899 357.908 450.301 357.815 450.634 357.63C450.971 357.444 451.227 357.201 451.401 356.902C451.579 356.599 451.668 356.275 451.668 355.931V354.806C451.608 354.866 451.49 354.923 451.316 354.976C451.145 355.025 450.95 355.069 450.731 355.107C450.511 355.141 450.297 355.173 450.089 355.203C449.88 355.23 449.706 355.253 449.566 355.272C449.236 355.313 448.935 355.383 448.663 355.482C448.394 355.58 448.178 355.722 448.015 355.908C447.856 356.09 447.776 356.332 447.776 356.635C447.776 357.056 447.931 357.374 448.242 357.59C448.553 357.802 448.949 357.908 449.43 357.908ZM459.864 359.078V350.351H466.984V359.078H465.319V351.817H461.518V359.078H459.864ZM472.931 359.255C472.113 359.255 471.399 359.067 470.789 358.692C470.179 358.317 469.706 357.792 469.368 357.118C469.031 356.444 468.863 355.656 468.863 354.755C468.863 353.849 469.031 353.058 469.368 352.38C469.706 351.701 470.179 351.175 470.789 350.8C471.399 350.425 472.113 350.237 472.931 350.237C473.749 350.237 474.463 350.425 475.073 350.8C475.683 351.175 476.156 351.701 476.493 352.38C476.831 353.058 476.999 353.849 476.999 354.755C476.999 355.656 476.831 356.444 476.493 357.118C476.156 357.792 475.683 358.317 475.073 358.692C474.463 359.067 473.749 359.255 472.931 359.255ZM472.937 357.828C473.467 357.828 473.906 357.688 474.255 357.408C474.603 357.128 474.861 356.755 475.028 356.289C475.198 355.823 475.283 355.309 475.283 354.749C475.283 354.192 475.198 353.681 475.028 353.215C474.861 352.745 474.603 352.368 474.255 352.084C473.906 351.8 473.467 351.658 472.937 351.658C472.403 351.658 471.959 351.8 471.607 352.084C471.259 352.368 470.999 352.745 470.829 353.215C470.662 353.681 470.579 354.192 470.579 354.749C470.579 355.309 470.662 355.823 470.829 356.289C470.999 356.755 471.259 357.128 471.607 357.408C471.959 357.688 472.403 357.828 472.937 357.828ZM485.901 350.351V359.078H484.242V350.351H485.901ZM485.18 354.402V355.868C484.918 355.974 484.642 356.069 484.35 356.152C484.058 356.232 483.752 356.294 483.43 356.34C483.108 356.385 482.772 356.408 482.424 356.408C481.344 356.408 480.486 356.145 479.85 355.618C479.214 355.088 478.895 354.277 478.895 353.186V350.334H480.549V353.186C480.549 353.599 480.625 353.934 480.776 354.192C480.928 354.45 481.144 354.639 481.424 354.76C481.704 354.881 482.038 354.942 482.424 354.942C482.935 354.942 483.407 354.895 483.839 354.8C484.274 354.701 484.721 354.569 485.18 354.402ZM487.079 351.817V350.351H494.442V351.817H491.596V359.078H489.937V351.817H487.079ZM497.313 362.351C497.059 362.351 496.828 362.33 496.62 362.289C496.412 362.251 496.256 362.209 496.154 362.164L496.563 360.772C496.874 360.855 497.15 360.891 497.393 360.88C497.635 360.868 497.849 360.777 498.035 360.607C498.224 360.436 498.391 360.158 498.535 359.772L498.745 359.192L495.552 350.351H497.37L499.58 357.124H499.671L501.881 350.351H503.705L500.109 360.243C499.942 360.698 499.73 361.082 499.472 361.397C499.215 361.715 498.908 361.953 498.552 362.112C498.196 362.272 497.783 362.351 497.313 362.351Z" fill="#2D3342"/>
<path d="M291.911 144.795C292.11 144.768 296.934 144.175 296.761 139.826C296.745 139.427 296.696 139.063 296.618 138.733M291.911 144.795C294.554 144.643 295.902 143.648 296.511 142.449M291.911 144.795C291.591 144.839 291.261 144.833 290.936 144.781M296.618 138.733C296.52 138.32 296.378 137.96 296.199 137.649M296.618 138.733C296.972 139.702 297.151 141.188 296.511 142.449M296.199 137.649C294.736 135.098 290.839 135.833 289.346 137.606C288.76 138.302 287.53 140.069 288.11 142.292C288.474 143.685 289.676 144.58 290.936 144.781M296.199 137.649C296.758 138.419 297.563 140.221 296.855 141.845M296.511 142.449C296.652 142.252 296.765 142.05 296.855 141.845M290.936 144.781C292.601 145.073 296.116 144.894 296.855 141.845M293.261 148.186L288.455 148.156C286.719 148.145 285.125 149.086 284.339 150.587L284.161 150.927C283.61 151.978 283.47 153.223 284.035 154.267M317.592 144.957C317.393 144.927 312.577 144.273 312.805 139.927C312.826 139.528 312.88 139.165 312.961 138.836M317.592 144.957C314.951 144.771 313.615 143.759 313.022 142.553M317.592 144.957C317.911 145.005 318.241 145.003 318.567 144.955M312.961 138.836C313.064 138.424 313.211 138.066 313.393 137.757M312.961 138.836C312.595 139.8 312.398 141.284 313.022 142.553M313.393 137.757C314.889 135.225 318.776 136.009 320.247 137.8C320.824 138.504 322.031 140.287 321.423 142.502C321.042 143.89 319.829 144.77 318.567 144.955M313.393 137.757C312.825 138.521 311.997 140.312 312.685 141.945M313.022 142.553C312.883 142.354 312.772 142.151 312.685 141.945M318.567 144.955C316.898 145.226 313.386 145.003 312.685 141.945M316.199 148.331L321.005 148.361C322.741 148.372 324.323 149.333 325.09 150.844L325.264 151.186C325.801 152.244 325.926 153.49 325.348 154.527" stroke="#5955B3" stroke-width="2" stroke-linecap="round"/>
<path d="M303.699 159.217C303.978 159.181 310.733 158.397 310.488 152.628C310.465 152.098 310.396 151.616 310.287 151.178M303.699 159.217C307.4 159.016 309.288 157.697 310.139 156.107M303.699 159.217C303.251 159.275 302.79 159.268 302.334 159.198M310.287 151.178C310.151 150.63 309.951 150.152 309.701 149.74M310.287 151.178C310.783 152.463 311.035 154.435 310.139 156.107M309.701 149.74C307.65 146.355 302.195 147.328 300.105 149.679C299.285 150.602 297.563 152.946 298.376 155.895C298.886 157.743 300.57 158.931 302.334 159.198M309.701 149.74C310.483 150.762 311.612 153.152 310.62 155.306M310.139 156.107C310.337 155.846 310.495 155.578 310.62 155.306M302.334 159.198C304.666 159.586 309.588 159.351 310.62 155.306M315.907 167.041L316.404 167.966C317.003 169.085 317.271 170.38 316.709 171.513M315.907 167.041C314.833 165.036 312.618 163.76 310.186 163.745L298.862 163.674C296.43 163.658 294.199 164.906 293.099 166.897L292.85 167.348C292.08 168.742 291.883 170.393 292.675 171.778C295.093 176.006 299.307 177.835 303.581 177.97M315.907 167.041C317.005 170.023 316.076 176.384 303.581 177.97M316.709 171.513C314.741 175.483 309.111 178.144 303.581 177.97M316.709 171.513C316.151 174.149 312.745 179.13 303.581 177.97" stroke="#5955B3" stroke-width="2" stroke-linecap="round"/>
<path d="M111.156 162.479C109.962 162.302 81.0513 158.445 82.2554 131.553C82.3661 129.082 82.6743 126.834 83.1533 124.797M111.156 162.479C95.3099 161.432 87.2578 155.225 83.6541 147.785M111.156 162.479C113.073 162.764 115.05 162.741 117.006 162.431M83.1533 124.797C83.753 122.246 84.6204 120.024 85.7031 118.106M83.1533 124.797C80.9944 130.776 79.8644 139.962 83.6541 147.785M85.7031 118.106C94.5791 102.384 117.922 107.081 126.811 118.106C130.298 122.436 137.608 133.417 134.046 147.143C131.813 155.747 124.568 161.234 117.006 162.431M85.7031 118.106C82.3256 122.851 77.4253 133.962 81.6148 144.038M83.6541 147.785C82.8157 146.563 82.143 145.309 81.6148 144.038M117.006 162.431C107.007 164.171 85.9298 162.927 81.6148 144.038" stroke="#5A56B4" stroke-width="3" stroke-linecap="round"/>
<path d="M401.76 269V264.568L412.115 254.98C412.996 254.128 413.735 253.361 414.331 252.679C414.937 251.997 415.397 251.33 415.709 250.676C416.022 250.013 416.178 249.298 416.178 248.531C416.178 247.679 415.984 246.945 415.596 246.33C415.207 245.705 414.677 245.226 414.005 244.895C413.332 244.554 412.57 244.384 411.718 244.384C410.828 244.384 410.051 244.563 409.388 244.923C408.725 245.283 408.214 245.799 407.854 246.472C407.494 247.144 407.314 247.944 407.314 248.872H401.476C401.476 246.969 401.907 245.316 402.769 243.915C403.631 242.513 404.838 241.429 406.391 240.662C407.944 239.895 409.734 239.511 411.76 239.511C413.844 239.511 415.657 239.881 417.201 240.619C418.754 241.348 419.961 242.362 420.823 243.659C421.685 244.956 422.115 246.443 422.115 248.119C422.115 249.218 421.898 250.302 421.462 251.372C421.036 252.442 420.274 253.631 419.175 254.938C418.077 256.235 416.528 257.793 414.53 259.611L410.283 263.773V263.972H422.499V269H401.76Z" fill="black"/>
<path d="M414.289 279.479C413.051 279.302 383.089 275.445 384.337 248.553C384.452 246.082 384.772 243.834 385.268 241.797M414.289 279.479C397.867 278.432 389.522 272.225 385.787 264.785M414.289 279.479C416.276 279.764 418.325 279.741 420.352 279.431M385.268 241.797C385.889 239.246 386.788 237.024 387.91 235.106M385.268 241.797C383.031 247.776 381.86 256.962 385.787 264.785M387.91 235.106C397.109 219.384 421.301 224.081 430.513 235.106C434.127 239.436 441.703 250.417 438.011 264.143C435.697 272.747 428.189 278.234 420.352 279.431M387.91 235.106C384.41 239.851 379.332 250.962 383.674 261.038M385.787 264.785C384.918 263.563 384.221 262.309 383.674 261.038M420.352 279.431C409.989 281.171 388.145 279.927 383.674 261.038" stroke="#5A56B4" stroke-width="3" stroke-linecap="round"/>
<path d="M683.289 217.479C682.051 217.302 652.089 213.445 653.337 186.553C653.452 184.082 653.772 181.834 654.268 179.797M683.289 217.479C666.867 216.432 658.522 210.225 654.787 202.785M683.289 217.479C685.276 217.764 687.325 217.741 689.352 217.431M654.268 179.797C654.889 177.246 655.788 175.024 656.91 173.106M654.268 179.797C652.031 185.776 650.86 194.962 654.787 202.785M656.91 173.106C666.109 157.384 690.301 162.081 699.513 173.106C703.127 177.436 710.703 188.417 707.011 202.143C704.697 210.747 697.189 216.234 689.352 217.431M656.91 173.106C653.41 177.851 648.332 188.962 652.674 199.038M654.787 202.785C653.918 201.563 653.221 200.309 652.674 199.038M689.352 217.431C678.989 219.171 657.145 217.927 652.674 199.038" stroke="#5A56B4" stroke-width="3" stroke-linecap="round"/>
<path d="M94.4791 199.875V188.239H96.2348V193.296H102.036V188.239H103.797V199.875H102.036V194.801H96.2348V199.875H94.4791ZM108.758 200.068C108.204 200.068 107.704 199.966 107.258 199.761C106.811 199.553 106.456 199.252 106.195 198.858C105.937 198.464 105.809 197.981 105.809 197.409C105.809 196.917 105.903 196.511 106.093 196.193C106.282 195.875 106.538 195.623 106.86 195.438C107.182 195.252 107.542 195.112 107.939 195.017C108.337 194.922 108.742 194.851 109.155 194.801C109.678 194.741 110.102 194.691 110.428 194.654C110.754 194.612 110.99 194.546 111.138 194.455C111.286 194.364 111.36 194.216 111.36 194.011V193.972C111.36 193.476 111.22 193.091 110.939 192.818C110.663 192.546 110.25 192.409 109.701 192.409C109.129 192.409 108.678 192.536 108.348 192.79C108.023 193.04 107.797 193.318 107.672 193.625L106.076 193.261C106.265 192.731 106.542 192.303 106.905 191.977C107.273 191.648 107.695 191.409 108.172 191.261C108.65 191.11 109.151 191.034 109.678 191.034C110.026 191.034 110.396 191.076 110.786 191.159C111.18 191.239 111.547 191.386 111.888 191.602C112.233 191.818 112.515 192.127 112.735 192.529C112.954 192.926 113.064 193.443 113.064 194.08V199.875H111.405V198.682H111.337C111.227 198.902 111.062 199.118 110.843 199.33C110.623 199.542 110.341 199.718 109.996 199.858C109.651 199.998 109.239 200.068 108.758 200.068ZM109.127 198.705C109.597 198.705 109.998 198.612 110.331 198.426C110.668 198.241 110.924 197.998 111.098 197.699C111.276 197.396 111.365 197.072 111.365 196.727V195.602C111.305 195.663 111.187 195.72 111.013 195.773C110.843 195.822 110.648 195.866 110.428 195.904C110.208 195.938 109.994 195.97 109.786 196C109.578 196.027 109.403 196.049 109.263 196.068C108.934 196.11 108.633 196.18 108.36 196.279C108.091 196.377 107.875 196.519 107.712 196.705C107.553 196.886 107.473 197.129 107.473 197.432C107.473 197.852 107.629 198.171 107.939 198.386C108.25 198.599 108.646 198.705 109.127 198.705ZM116.992 197.494L120.838 191.148H122.668V199.875H121.003V193.523L117.174 199.875H115.327V191.148H116.992V197.494ZM120.111 188.193H121.509C121.509 188.833 121.282 189.354 120.827 189.756C120.376 190.154 119.766 190.352 118.998 190.352C118.232 190.352 117.624 190.154 117.174 189.756C116.723 189.354 116.498 188.833 116.498 188.193H117.89C117.89 188.477 117.973 188.729 118.14 188.949C118.306 189.165 118.592 189.273 118.998 189.273C119.395 189.273 119.679 189.165 119.85 188.949C120.024 188.733 120.111 188.481 120.111 188.193ZM124.1 202.392V198.404H124.81C124.992 198.237 125.145 198.038 125.27 197.807C125.399 197.576 125.507 197.301 125.594 196.983C125.685 196.665 125.761 196.294 125.821 195.869C125.882 195.441 125.935 194.953 125.981 194.404L126.253 191.148H132.185V198.404H133.526V202.392H131.867V199.875H125.782V202.392H124.1ZM126.628 198.404H130.526V192.602H127.776L127.594 194.404C127.507 195.32 127.397 196.116 127.265 196.79C127.132 197.46 126.92 197.998 126.628 198.404ZM136.851 197.494L140.698 191.148H142.527V199.875H140.863V193.523L137.033 199.875H135.186V191.148H136.851V197.494ZM149.046 199.875V191.148H152.665C153.65 191.148 154.43 191.358 155.006 191.779C155.582 192.195 155.87 192.761 155.87 193.477C155.87 193.989 155.707 194.394 155.381 194.693C155.055 194.993 154.624 195.193 154.086 195.296C154.476 195.341 154.834 195.458 155.159 195.648C155.485 195.833 155.747 196.083 155.944 196.398C156.144 196.712 156.245 197.087 156.245 197.523C156.245 197.985 156.125 198.394 155.887 198.75C155.648 199.102 155.302 199.379 154.847 199.58C154.396 199.777 153.853 199.875 153.216 199.875H149.046ZM150.642 198.455H153.216C153.637 198.455 153.966 198.354 154.205 198.154C154.444 197.953 154.563 197.68 154.563 197.335C154.563 196.93 154.444 196.612 154.205 196.381C153.966 196.146 153.637 196.029 153.216 196.029H150.642V198.455ZM150.642 194.784H152.682C153 194.784 153.273 194.739 153.5 194.648C153.731 194.557 153.908 194.428 154.029 194.261C154.154 194.091 154.216 193.89 154.216 193.659C154.216 193.322 154.078 193.059 153.802 192.869C153.525 192.68 153.146 192.585 152.665 192.585H150.642V194.784ZM166.019 200.051C165.174 200.051 164.447 199.86 163.837 199.477C163.231 199.091 162.765 198.559 162.439 197.881C162.114 197.203 161.951 196.426 161.951 195.551C161.951 194.665 162.117 193.883 162.451 193.205C162.784 192.523 163.254 191.991 163.86 191.608C164.466 191.226 165.18 191.034 166.002 191.034C166.665 191.034 167.256 191.157 167.775 191.404C168.293 191.646 168.712 191.987 169.03 192.426C169.352 192.866 169.543 193.379 169.604 193.966H167.951C167.86 193.557 167.651 193.205 167.326 192.909C167.004 192.614 166.572 192.466 166.03 192.466C165.557 192.466 165.142 192.591 164.786 192.841C164.434 193.087 164.159 193.44 163.962 193.898C163.765 194.352 163.667 194.89 163.667 195.511C163.667 196.148 163.763 196.697 163.956 197.159C164.15 197.621 164.422 197.979 164.775 198.233C165.131 198.487 165.549 198.614 166.03 198.614C166.352 198.614 166.644 198.555 166.905 198.438C167.17 198.316 167.392 198.144 167.57 197.921C167.752 197.697 167.879 197.428 167.951 197.114H169.604C169.543 197.678 169.36 198.182 169.053 198.625C168.746 199.068 168.335 199.417 167.82 199.671C167.309 199.924 166.708 200.051 166.019 200.051ZM171.421 199.875V191.148H178.54V199.875H176.875V192.614H173.074V199.875H171.421ZM182.476 197.494L186.323 191.148H188.152V199.875H186.488V193.523L182.658 199.875H180.811V191.148H182.476V197.494ZM194.113 200.051C193.268 200.051 192.541 199.86 191.931 199.477C191.325 199.091 190.859 198.559 190.533 197.881C190.207 197.203 190.044 196.426 190.044 195.551C190.044 194.665 190.211 193.883 190.544 193.205C190.878 192.523 191.347 191.991 191.954 191.608C192.56 191.226 193.274 191.034 194.096 191.034C194.758 191.034 195.349 191.157 195.868 191.404C196.387 191.646 196.806 191.987 197.124 192.426C197.446 192.866 197.637 193.379 197.698 193.966H196.044C195.954 193.557 195.745 193.205 195.419 192.909C195.097 192.614 194.666 192.466 194.124 192.466C193.65 192.466 193.236 192.591 192.88 192.841C192.527 193.087 192.253 193.44 192.056 193.898C191.859 194.352 191.76 194.89 191.76 195.511C191.76 196.148 191.857 196.697 192.05 197.159C192.243 197.621 192.516 197.979 192.868 198.233C193.224 198.487 193.643 198.614 194.124 198.614C194.446 198.614 194.738 198.555 194.999 198.438C195.264 198.316 195.486 198.144 195.664 197.921C195.846 197.697 195.972 197.428 196.044 197.114H197.698C197.637 197.678 197.454 198.182 197.147 198.625C196.84 199.068 196.429 199.417 195.914 199.671C195.402 199.924 194.802 200.051 194.113 200.051ZM199.515 199.875V191.148H201.213V194.807H202.032L204.912 191.148H207.015L203.634 195.392L207.054 199.875H204.946L202.316 196.386H201.213V199.875H199.515ZM211.776 200.051C210.916 200.051 210.176 199.868 209.554 199.5C208.937 199.129 208.46 198.608 208.123 197.938C207.789 197.263 207.623 196.474 207.623 195.568C207.623 194.674 207.789 193.886 208.123 193.205C208.46 192.523 208.929 191.991 209.532 191.608C210.138 191.226 210.846 191.034 211.657 191.034C212.149 191.034 212.626 191.116 213.088 191.279C213.551 191.441 213.965 191.697 214.333 192.046C214.7 192.394 214.99 192.847 215.202 193.404C215.414 193.957 215.52 194.629 215.52 195.421V196.023H208.583V194.75H213.856C213.856 194.303 213.765 193.907 213.583 193.563C213.401 193.214 213.145 192.94 212.816 192.739C212.49 192.538 212.107 192.438 211.668 192.438C211.191 192.438 210.774 192.555 210.418 192.79C210.066 193.021 209.793 193.324 209.6 193.699C209.41 194.07 209.316 194.474 209.316 194.909V195.904C209.316 196.487 209.418 196.983 209.623 197.392C209.831 197.801 210.121 198.114 210.492 198.33C210.863 198.542 211.297 198.648 211.793 198.648C212.115 198.648 212.409 198.602 212.674 198.511C212.939 198.417 213.168 198.277 213.361 198.091C213.554 197.905 213.702 197.676 213.804 197.404L215.412 197.693C215.284 198.167 215.052 198.582 214.719 198.938C214.39 199.29 213.975 199.565 213.475 199.761C212.979 199.955 212.412 200.051 211.776 200.051ZM221.151 192.614V191.148H228.515V192.614H225.668V199.875H224.009V192.614H221.151ZM231.59 194.148H234.124C235.192 194.148 236.014 194.413 236.59 194.943C237.166 195.474 237.454 196.157 237.454 196.994C237.454 197.54 237.325 198.03 237.067 198.466C236.81 198.902 236.433 199.246 235.936 199.5C235.44 199.75 234.836 199.875 234.124 199.875H230.311V191.148H231.976V198.409H234.124C234.613 198.409 235.014 198.282 235.329 198.029C235.643 197.771 235.8 197.443 235.8 197.046C235.8 196.625 235.643 196.282 235.329 196.017C235.014 195.748 234.613 195.614 234.124 195.614H231.59V194.148ZM243.75 194.841V196.318H239.097V194.841H243.75ZM240.478 191.148V199.875H238.779V191.148H240.478ZM246.409 200.051C245.599 200.051 244.891 199.862 244.284 199.483C243.678 199.104 243.209 198.578 242.875 197.904C242.542 197.226 242.375 196.44 242.375 195.546C242.375 194.644 242.542 193.856 242.875 193.182C243.209 192.504 243.678 191.977 244.284 191.602C244.891 191.224 245.599 191.034 246.409 191.034C247.224 191.034 247.932 191.224 248.534 191.602C249.141 191.977 249.61 192.504 249.944 193.182C250.281 193.856 250.449 194.644 250.449 195.546C250.449 196.44 250.281 197.226 249.944 197.904C249.61 198.578 249.141 199.104 248.534 199.483C247.932 199.862 247.224 200.051 246.409 200.051ZM246.409 198.597C246.959 198.597 247.408 198.458 247.756 198.182C248.108 197.902 248.368 197.53 248.534 197.068C248.701 196.606 248.784 196.099 248.784 195.546C248.784 194.989 248.701 194.479 248.534 194.017C248.368 193.551 248.108 193.178 247.756 192.898C247.408 192.618 246.959 192.477 246.409 192.477C245.864 192.477 245.415 192.618 245.063 192.898C244.711 193.178 244.451 193.551 244.284 194.017C244.118 194.479 244.034 194.989 244.034 195.546C244.034 196.099 244.118 196.606 244.284 197.068C244.451 197.53 244.711 197.902 245.063 198.182C245.415 198.458 245.864 198.597 246.409 198.597ZM251.401 192.614V191.148H258.765V192.614H255.918V199.875H254.259V192.614H251.401ZM263.831 200.051C263.013 200.051 262.299 199.864 261.689 199.489C261.079 199.114 260.606 198.589 260.269 197.915C259.932 197.241 259.763 196.453 259.763 195.551C259.763 194.646 259.932 193.854 260.269 193.176C260.606 192.498 261.079 191.972 261.689 191.597C262.299 191.222 263.013 191.034 263.831 191.034C264.65 191.034 265.364 191.222 265.973 191.597C266.583 191.972 267.057 192.498 267.394 193.176C267.731 193.854 267.9 194.646 267.9 195.551C267.9 196.453 267.731 197.241 267.394 197.915C267.057 198.589 266.583 199.114 265.973 199.489C265.364 199.864 264.65 200.051 263.831 200.051ZM263.837 198.625C264.367 198.625 264.807 198.485 265.155 198.205C265.504 197.924 265.761 197.551 265.928 197.085C266.098 196.619 266.184 196.106 266.184 195.546C266.184 194.989 266.098 194.477 265.928 194.011C265.761 193.542 265.504 193.165 265.155 192.881C264.807 192.597 264.367 192.455 263.837 192.455C263.303 192.455 262.86 192.597 262.508 192.881C262.159 193.165 261.9 193.542 261.729 194.011C261.562 194.477 261.479 194.989 261.479 195.546C261.479 196.106 261.562 196.619 261.729 197.085C261.9 197.551 262.159 197.924 262.508 198.205C262.86 198.485 263.303 198.625 263.837 198.625ZM269.796 203.148V191.148H271.455V192.563H271.597C271.695 192.381 271.838 192.171 272.023 191.932C272.209 191.693 272.466 191.485 272.796 191.307C273.125 191.125 273.561 191.034 274.103 191.034C274.807 191.034 275.436 191.212 275.989 191.568C276.542 191.924 276.976 192.438 277.29 193.108C277.608 193.779 277.767 194.585 277.767 195.529C277.767 196.472 277.61 197.28 277.296 197.955C276.981 198.625 276.55 199.142 276 199.506C275.451 199.866 274.824 200.046 274.12 200.046C273.589 200.046 273.156 199.957 272.819 199.779C272.485 199.601 272.224 199.392 272.034 199.154C271.845 198.915 271.699 198.703 271.597 198.517H271.495V203.148H269.796ZM271.461 195.511C271.461 196.125 271.55 196.663 271.728 197.125C271.906 197.587 272.163 197.949 272.5 198.21C272.838 198.468 273.25 198.597 273.739 198.597C274.247 198.597 274.671 198.462 275.012 198.193C275.353 197.921 275.61 197.551 275.784 197.085C275.963 196.619 276.052 196.095 276.052 195.511C276.052 194.936 275.964 194.419 275.79 193.96C275.62 193.502 275.362 193.14 275.017 192.875C274.677 192.61 274.25 192.477 273.739 192.477C273.247 192.477 272.83 192.604 272.489 192.858C272.152 193.112 271.896 193.466 271.722 193.921C271.548 194.375 271.461 194.905 271.461 195.511ZM282.211 200.068C281.658 200.068 281.158 199.966 280.711 199.761C280.264 199.553 279.909 199.252 279.648 198.858C279.391 198.464 279.262 197.981 279.262 197.409C279.262 196.917 279.356 196.511 279.546 196.193C279.735 195.875 279.991 195.623 280.313 195.438C280.635 195.252 280.995 195.112 281.392 195.017C281.79 194.922 282.195 194.851 282.608 194.801C283.131 194.741 283.555 194.691 283.881 194.654C284.207 194.612 284.444 194.546 284.591 194.455C284.739 194.364 284.813 194.216 284.813 194.011V193.972C284.813 193.476 284.673 193.091 284.392 192.818C284.116 192.546 283.703 192.409 283.154 192.409C282.582 192.409 282.131 192.536 281.802 192.79C281.476 193.04 281.25 193.318 281.125 193.625L279.529 193.261C279.718 192.731 279.995 192.303 280.358 191.977C280.726 191.648 281.148 191.409 281.625 191.261C282.103 191.11 282.605 191.034 283.131 191.034C283.48 191.034 283.849 191.076 284.239 191.159C284.633 191.239 285 191.386 285.341 191.602C285.686 191.818 285.968 192.127 286.188 192.529C286.408 192.926 286.517 193.443 286.517 194.08V199.875H284.858V198.682H284.79C284.68 198.902 284.516 199.118 284.296 199.33C284.076 199.542 283.794 199.718 283.449 199.858C283.105 199.998 282.692 200.068 282.211 200.068ZM282.58 198.705C283.05 198.705 283.451 198.612 283.784 198.426C284.122 198.241 284.377 197.998 284.552 197.699C284.73 197.396 284.819 197.072 284.819 196.727V195.602C284.758 195.663 284.641 195.72 284.466 195.773C284.296 195.822 284.101 195.866 283.881 195.904C283.661 195.938 283.447 195.97 283.239 196C283.031 196.027 282.856 196.049 282.716 196.068C282.387 196.11 282.086 196.18 281.813 196.279C281.544 196.377 281.328 196.519 281.165 196.705C281.006 196.886 280.927 197.129 280.927 197.432C280.927 197.852 281.082 198.171 281.392 198.386C281.703 198.599 282.099 198.705 282.58 198.705ZM294.679 197.494L298.526 191.148H300.356V199.875H298.691V193.523L294.861 199.875H293.015V191.148H294.679V197.494ZM301.952 199.875L301.946 198.404H302.259C302.501 198.404 302.704 198.352 302.867 198.25C303.034 198.144 303.17 197.966 303.276 197.716C303.382 197.466 303.463 197.121 303.52 196.682C303.577 196.239 303.619 195.682 303.645 195.011L303.799 191.148H309.89V199.875H308.225V192.614H305.373L305.236 195.58C305.202 196.299 305.128 196.928 305.015 197.466C304.905 198.004 304.744 198.453 304.532 198.813C304.32 199.169 304.047 199.436 303.713 199.614C303.38 199.788 302.975 199.875 302.498 199.875H301.952ZM313.82 197.494L317.667 191.148H319.496V199.875H317.831V193.523L314.002 199.875H312.155V191.148H313.82V197.494ZM168.578 213.779V215.25H163.851V213.779H168.578ZM164.328 210.148V218.875H162.663V210.148H164.328ZM169.765 210.148V218.875H168.106V210.148H169.765ZM174.578 219.068C174.025 219.068 173.525 218.966 173.078 218.761C172.631 218.553 172.277 218.252 172.015 217.858C171.758 217.464 171.629 216.981 171.629 216.409C171.629 215.917 171.724 215.511 171.913 215.193C172.102 214.875 172.358 214.623 172.68 214.438C173.002 214.252 173.362 214.112 173.76 214.017C174.157 213.922 174.563 213.851 174.976 213.801C175.498 213.741 175.923 213.691 176.248 213.654C176.574 213.612 176.811 213.546 176.958 213.455C177.106 213.364 177.18 213.216 177.18 213.011V212.972C177.18 212.476 177.04 212.091 176.76 211.818C176.483 211.546 176.07 211.409 175.521 211.409C174.949 211.409 174.498 211.536 174.169 211.79C173.843 212.04 173.618 212.318 173.493 212.625L171.896 212.261C172.085 211.731 172.362 211.303 172.726 210.977C173.093 210.648 173.515 210.409 173.993 210.261C174.47 210.11 174.972 210.034 175.498 210.034C175.847 210.034 176.216 210.076 176.606 210.159C177 210.239 177.368 210.386 177.708 210.602C178.053 210.818 178.335 211.127 178.555 211.529C178.775 211.926 178.885 212.443 178.885 213.08V218.875H177.226V217.682H177.157C177.048 217.902 176.883 218.118 176.663 218.33C176.443 218.542 176.161 218.718 175.816 218.858C175.472 218.998 175.059 219.068 174.578 219.068ZM174.947 217.705C175.417 217.705 175.818 217.612 176.152 217.426C176.489 217.241 176.744 216.998 176.919 216.699C177.097 216.396 177.186 216.072 177.186 215.727V214.602C177.125 214.663 177.008 214.72 176.833 214.773C176.663 214.822 176.468 214.866 176.248 214.904C176.029 214.938 175.815 214.97 175.606 215C175.398 215.027 175.224 215.049 175.083 215.068C174.754 215.11 174.453 215.18 174.18 215.279C173.911 215.377 173.695 215.519 173.532 215.705C173.373 215.886 173.294 216.129 173.294 216.432C173.294 216.852 173.449 217.171 173.76 217.386C174.07 217.599 174.466 217.705 174.947 217.705ZM184.824 219.051C183.979 219.051 183.252 218.86 182.642 218.477C182.036 218.091 181.57 217.559 181.244 216.881C180.918 216.203 180.755 215.426 180.755 214.551C180.755 213.665 180.922 212.883 181.255 212.205C181.589 211.523 182.058 210.991 182.664 210.608C183.271 210.226 183.985 210.034 184.807 210.034C185.469 210.034 186.06 210.157 186.579 210.404C187.098 210.646 187.517 210.987 187.835 211.426C188.157 211.866 188.348 212.379 188.409 212.966H186.755C186.664 212.557 186.456 212.205 186.13 211.909C185.808 211.614 185.377 211.466 184.835 211.466C184.361 211.466 183.947 211.591 183.591 211.841C183.238 212.087 182.964 212.44 182.767 212.898C182.57 213.352 182.471 213.89 182.471 214.511C182.471 215.148 182.568 215.697 182.761 216.159C182.954 216.621 183.227 216.979 183.579 217.233C183.935 217.487 184.354 217.614 184.835 217.614C185.157 217.614 185.449 217.555 185.71 217.438C185.975 217.316 186.197 217.144 186.375 216.921C186.557 216.697 186.683 216.428 186.755 216.114H188.409C188.348 216.678 188.164 217.182 187.858 217.625C187.551 218.068 187.14 218.417 186.625 218.671C186.113 218.924 185.513 219.051 184.824 219.051ZM189.565 211.614V210.148H196.929V211.614H194.082V218.875H192.423V211.614H189.565ZM200.859 219.068C200.306 219.068 199.806 218.966 199.359 218.761C198.912 218.553 198.558 218.252 198.297 217.858C198.039 217.464 197.91 216.981 197.91 216.409C197.91 215.917 198.005 215.511 198.194 215.193C198.384 214.875 198.639 214.623 198.961 214.438C199.283 214.252 199.643 214.112 200.041 214.017C200.439 213.922 200.844 213.851 201.257 213.801C201.78 213.741 202.204 213.691 202.53 213.654C202.855 213.612 203.092 213.546 203.24 213.455C203.387 213.364 203.461 213.216 203.461 213.011V212.972C203.461 212.476 203.321 212.091 203.041 211.818C202.764 211.546 202.351 211.409 201.802 211.409C201.23 211.409 200.78 211.536 200.45 211.79C200.124 212.04 199.899 212.318 199.774 212.625L198.177 212.261C198.367 211.731 198.643 211.303 199.007 210.977C199.374 210.648 199.797 210.409 200.274 210.261C200.751 210.11 201.253 210.034 201.78 210.034C202.128 210.034 202.497 210.076 202.887 210.159C203.281 210.239 203.649 210.386 203.99 210.602C204.334 210.818 204.617 211.127 204.836 211.529C205.056 211.926 205.166 212.443 205.166 213.08V218.875H203.507V217.682H203.439C203.329 217.902 203.164 218.118 202.944 218.33C202.725 218.542 202.442 218.718 202.098 218.858C201.753 218.998 201.34 219.068 200.859 219.068ZM201.228 217.705C201.698 217.705 202.1 217.612 202.433 217.426C202.77 217.241 203.026 216.998 203.2 216.699C203.378 216.396 203.467 216.072 203.467 215.727V214.602C203.406 214.663 203.289 214.72 203.115 214.773C202.944 214.822 202.749 214.866 202.53 214.904C202.31 214.938 202.096 214.97 201.887 215C201.679 215.027 201.505 215.049 201.365 215.068C201.035 215.11 200.734 215.18 200.461 215.279C200.192 215.377 199.976 215.519 199.814 215.705C199.655 215.886 199.575 216.129 199.575 216.432C199.575 216.852 199.73 217.171 200.041 217.386C200.351 217.599 200.747 217.705 201.228 217.705ZM207.429 218.875V210.148H211.048C212.033 210.148 212.813 210.358 213.389 210.779C213.965 211.195 214.253 211.761 214.253 212.477C214.253 212.989 214.09 213.394 213.764 213.693C213.438 213.993 213.006 214.193 212.468 214.296C212.859 214.341 213.217 214.458 213.542 214.648C213.868 214.833 214.129 215.083 214.326 215.398C214.527 215.712 214.628 216.087 214.628 216.523C214.628 216.985 214.508 217.394 214.27 217.75C214.031 218.102 213.684 218.379 213.23 218.58C212.779 218.777 212.235 218.875 211.599 218.875H207.429ZM209.025 217.455H211.599C212.02 217.455 212.349 217.354 212.588 217.154C212.826 216.953 212.946 216.68 212.946 216.335C212.946 215.93 212.826 215.612 212.588 215.381C212.349 215.146 212.02 215.029 211.599 215.029H209.025V217.455ZM209.025 213.784H211.065C211.383 213.784 211.656 213.739 211.883 213.648C212.114 213.557 212.29 213.428 212.412 213.261C212.537 213.091 212.599 212.89 212.599 212.659C212.599 212.322 212.461 212.059 212.184 211.869C211.908 211.68 211.529 211.585 211.048 211.585H209.025V213.784ZM222.406 213.779V215.25H217.679V213.779H222.406ZM218.156 210.148V218.875H216.491V210.148H218.156ZM223.593 210.148V218.875H221.934V210.148H223.593ZM227.531 216.494L231.378 210.148H233.207V218.875H231.542V212.523L227.713 218.875H225.866V210.148H227.531V216.494ZM235.491 218.875V210.148H237.19V213.807H238.008L240.889 210.148H242.991L239.61 214.392L243.031 218.875H240.923L238.292 215.386H237.19V218.875H235.491ZM246.89 219.068C246.337 219.068 245.837 218.966 245.39 218.761C244.943 218.553 244.589 218.252 244.328 217.858C244.07 217.464 243.941 216.981 243.941 216.409C243.941 215.917 244.036 215.511 244.226 215.193C244.415 214.875 244.671 214.623 244.993 214.438C245.315 214.252 245.674 214.112 246.072 214.017C246.47 213.922 246.875 213.851 247.288 213.801C247.811 213.741 248.235 213.691 248.561 213.654C248.887 213.612 249.123 213.546 249.271 213.455C249.419 213.364 249.493 213.216 249.493 213.011V212.972C249.493 212.476 249.352 212.091 249.072 211.818C248.796 211.546 248.383 211.409 247.833 211.409C247.262 211.409 246.811 211.536 246.481 211.79C246.155 212.04 245.93 212.318 245.805 212.625L244.208 212.261C244.398 211.731 244.674 211.303 245.038 210.977C245.405 210.648 245.828 210.409 246.305 210.261C246.782 210.11 247.284 210.034 247.811 210.034C248.159 210.034 248.529 210.076 248.919 210.159C249.313 210.239 249.68 210.386 250.021 210.602C250.366 210.818 250.648 211.127 250.868 211.529C251.087 211.926 251.197 212.443 251.197 213.08V218.875H249.538V217.682H249.47C249.36 217.902 249.195 218.118 248.976 218.33C248.756 218.542 248.474 218.718 248.129 218.858C247.784 218.998 247.371 219.068 246.89 219.068ZM247.26 217.705C247.729 217.705 248.131 217.612 248.464 217.426C248.801 217.241 249.057 216.998 249.231 216.699C249.409 216.396 249.498 216.072 249.498 215.727V214.602C249.438 214.663 249.32 214.72 249.146 214.773C248.976 214.822 248.78 214.866 248.561 214.904C248.341 214.938 248.127 214.97 247.919 215C247.71 215.027 247.536 215.049 247.396 215.068C247.066 215.11 246.765 215.18 246.493 215.279C246.224 215.377 246.008 215.519 245.845 215.705C245.686 215.886 245.606 216.129 245.606 216.432C245.606 216.852 245.762 217.171 246.072 217.386C246.383 217.599 246.779 217.705 247.26 217.705Z" fill="#2D3342"/>
<path d="M267.496 165.003C129.496 165.003 25.599 180.877 38.9145 213.378C52.2299 245.878 484 244 335.994 169.004" stroke="#5A56B4" stroke-width="2" stroke-linecap="round"/>
<path d="M422.598 164.204C444.419 171.142 506.169 183.548 578.598 177.667" stroke="#5955B3" stroke-width="2" stroke-linecap="round"/>
<path d="M633.137 37.9505C641.56 35.9181 651.756 39.8138 655.953 43.9302C658.954 46.8734 667.446 56.7873 655.193 67.3838C654.862 67.67 654.615 68.0578 654.516 68.4839L653.073 74.6652C652.753 76.0337 651.159 76.6547 649.998 75.8629L644.423 72.0604C644.148 71.8729 643.836 71.7586 643.506 71.7205C634.481 70.6787 617.056 65.4751 621.348 49.9863C622.362 46.3293 624.03 43.6126 626.111 41.6578" stroke="#5955B3" stroke-width="2" stroke-linecap="round"/>
<path d="M635.22 52.4221C634.934 53.2493 634.03 53.6912 633.196 53.4039C632.363 53.1166 631.923 52.2111 632.208 51.384C632.493 50.5569 633.398 50.1149 634.231 50.4022C635.065 50.6895 635.505 51.595 635.22 52.4221Z" stroke="#5955B3" stroke-width="2"/>
<path d="M642.048 54.776C641.763 55.6031 640.858 56.0451 640.025 55.7578C639.191 55.4705 638.751 54.565 639.036 53.7379C639.321 52.9107 640.226 52.4688 641.059 52.7561C641.893 53.0434 642.333 53.9489 642.048 54.776Z" stroke="#5955B3" stroke-width="2"/>
<path d="M648.876 57.13C648.591 57.9571 647.686 58.3991 646.853 58.1118C646.019 57.8245 645.579 56.919 645.864 56.0919C646.149 55.2647 647.054 54.8228 647.887 55.1101C648.721 55.3974 649.161 56.3029 648.876 57.13Z" stroke="#5955B3" stroke-width="2"/>
<path d="M617.355 57.3089L612.125 57.5697C610.592 57.6461 609.547 56.0379 610.241 54.6684L611.778 51.6351C611.96 51.276 612.027 50.871 611.984 50.4708C611.265 43.8069 612.457 31.9001 625.613 29.6584C638.516 27.4599 645.644 35.1953 649.933 39.8017" stroke="#5955B3" stroke-width="2" stroke-linecap="round"/>
<path d="M731.598 126.204C736.714 115.308 735.49 90.4546 689.658 78.2039" stroke="#5955B3" stroke-width="2" stroke-linecap="round"/>
<path d="M405.598 97.2039C418.694 87.9454 461.83 68.5836 529.598 65.2039" stroke="#5955B3" stroke-width="2" stroke-linecap="round"/>
<path d="M466.598 185.204C479.421 188.672 513.095 190.752 529.598 190.077" stroke="#5955B3" stroke-width="2" stroke-linecap="round"/>
<path d="M738.729 101.547C739.095 98.1621 737.382 89.9981 727.598 84.4227" stroke="#5955B3" stroke-width="2" stroke-linecap="round"/>
<path d="M401.519 78.2738C414.974 71.7419 427.223 63.8842 469.813 62.2221" stroke="#5955B3" stroke-width="2" stroke-linecap="round"/>
<path d="M478.664 286.59L475.382 286.329" stroke="#0C0993" stroke-linecap="round"/>
<path d="M479.839 283.514L474.595 281.381" stroke="#0C0993" stroke-linecap="round"/>
<path d="M482.047 281.147L478.649 278.237" stroke="#0C0993" stroke-linecap="round"/>
<path d="M485.393 298.865L497.445 301.571C498.322 301.768 499.223 301.356 499.647 300.564L501.73 296.671C502.163 295.862 503.091 295.452 503.98 295.675L507.907 296.66C508.821 296.889 509.772 296.449 510.188 295.602L515.453 284.89C516.18 283.411 518.284 283.397 519.031 284.866L526.9 300.336C527.415 301.35 526.983 302.59 525.948 303.062L493.349 317.958C492.365 318.407 491.203 317.993 490.724 317.024L483.161 301.702C482.417 300.195 483.752 298.497 485.393 298.865Z" fill="#5955B3" stroke="#0C0993" stroke-linecap="round"/>
<path d="M493.258 314.32L497.464 305.246" stroke="#0C0993" stroke-linecap="round"/>
<path d="M513.091 297.903L522.753 300.551" stroke="#0C0993" stroke-linecap="round"/>
<path d="M484.06 291.738L481.424 298.053L488.586 299.38L484.06 291.738Z" fill="#5955B3"/>
<path d="M510.292 279.641L514.323 287.207L517.079 281.391L510.292 279.641Z" fill="#5955B3"/>
<path d="M499.305 276.08L488.662 281.133L492.149 274.377L499.305 276.08Z" fill="#5955B3"/>
<path d="M488.553 299.469L481.774 287.495C481.21 286.501 481.594 285.238 482.615 284.724L504.938 273.485C505.901 273 507.075 273.366 507.592 274.312L514.401 286.769" stroke="#0C0993" stroke-linecap="round"/>
<path d="M492.947 300.255L488.74 292.238C488.208 291.224 488.634 289.971 489.675 289.492L505.426 282.243C506.401 281.794 507.557 282.195 508.044 283.152L512.182 291.282" stroke="#0C0993" stroke-linecap="round"/>
<path d="M495.971 293.938L504.664 289.808" stroke="#0C0993" stroke-linecap="round"/>
<path d="M495.953 298.227L507.747 292.528" stroke="#0C0993" stroke-linecap="round"/>
<path d="M562.594 275.079C564.281 274.48 568.451 273.567 571.638 274.7M591.325 291.975C593.161 294.695 596.877 301.17 597.045 305.31" stroke="black" stroke-opacity="0.3" stroke-linecap="round"/>
<path d="M559.688 296.204L558.691 296.131C558.661 296.541 558.885 296.927 559.255 297.105C559.624 297.283 560.066 297.217 560.367 296.939L559.688 296.204ZM576.06 281.076L576.739 281.811C576.764 281.787 576.789 281.762 576.812 281.736L576.06 281.076ZM582.872 282.138L583.744 281.648L583.744 281.648L582.872 282.138ZM578.123 291.078L577.467 290.324C577.459 290.331 577.452 290.337 577.445 290.344L578.123 291.078ZM569.937 298.643L569.258 297.909C569.05 298.101 568.934 298.373 568.937 298.656C568.941 298.939 569.065 299.208 569.278 299.395L569.937 298.643ZM576.812 324.338L576.258 323.506L576.258 323.506L576.812 324.338ZM553.377 285.75L554.26 286.219L554.26 286.219L553.377 285.75ZM560.367 296.939L576.739 281.811L575.382 280.342L559.01 295.47L560.367 296.939ZM576.812 281.736C576.863 281.677 577.103 281.49 577.566 281.309C578 281.139 578.535 281.013 579.091 280.996C580.172 280.965 581.276 281.338 582 282.627L583.744 281.648C582.577 279.57 580.682 278.949 579.033 278.997C578.223 279.021 577.461 279.202 576.837 279.447C576.242 279.679 575.664 280.012 575.309 280.416L576.812 281.736ZM582 282.627C582.605 283.705 582.271 285.003 581.184 286.523C580.123 288.005 578.575 289.359 577.467 290.324L578.78 291.833C579.859 290.893 581.591 289.391 582.811 287.687C584.004 286.019 584.951 283.799 583.744 281.648L582 282.627ZM577.445 290.344L569.258 297.909L570.616 299.378L578.802 291.813L577.445 290.344ZM569.278 299.395L578.901 307.839L580.22 306.336L570.597 297.891L569.278 299.395ZM578.901 307.839C582.708 311.18 582.741 319.195 576.258 323.506L577.366 325.171C584.777 320.243 585.163 310.673 580.22 306.336L578.901 307.839ZM576.258 323.506C573.785 325.15 571.048 325.802 568.629 325.775C566.181 325.747 564.176 325.028 563.099 324.083L561.78 325.587C563.327 326.945 565.853 327.744 568.607 327.775C571.39 327.806 574.528 327.058 577.366 325.171L576.258 323.506ZM563.099 324.083L550.85 313.335L549.531 314.839L561.78 325.587L563.099 324.083ZM550.85 313.335C548.765 311.505 544.833 303.969 554.26 286.219L552.494 285.281C542.925 303.297 546.368 312.063 549.531 314.839L550.85 313.335ZM554.26 286.219C554.638 285.507 555.111 285.191 555.492 285.114C555.842 285.044 556.323 285.133 556.862 285.699C558.008 286.901 559.136 290.037 558.691 296.131L560.686 296.277C561.14 290.052 560.068 286.163 558.31 284.319C557.398 283.362 556.252 282.922 555.098 283.154C553.976 283.379 553.07 284.195 552.494 285.281L554.26 286.219Z" fill="#5955B3"/>
<g filter="url(#filter0_d_1038_6339)">
<path d="M356.807 255.776C357.164 261.439 358.942 274.875 363.227 285.168C363.404 285.594 362.67 286.301 362.172 286.187C354.596 284.462 337.632 284.032 327.008 285.217" stroke="#5955B3" stroke-width="4" stroke-linecap="round"/>
<path d="M360.316 284.409C347.231 275.136 322.414 260.534 311.361 245.15" stroke="#5955B3" stroke-width="4" stroke-linecap="round"/>
</g>
<g filter="url(#filter1_d_1038_6339)">
<path d="M596.172 208.039C601.714 209.255 615.121 211.246 626.196 209.962C626.654 209.909 627.131 210.809 626.885 211.256C623.14 218.065 618.056 234.254 616.268 244.794" stroke="#5955B3" stroke-width="4" stroke-linecap="round"/>
<path d="M624.665 212.551C612.146 222.576 591.275 242.412 573.442 248.801" stroke="#5955B3" stroke-width="4" stroke-linecap="round"/>
</g>
<g filter="url(#filter2_d_1038_6339)">
<path d="M228.346 121.864C226.367 126.009 222.315 136.205 221.233 145.144C221.188 145.514 220.403 145.731 220.103 145.458C215.541 141.309 203.979 134.448 196.166 131.18" stroke="#5955B3" stroke-width="4" stroke-linecap="round"/>
<path d="M219.518 143.482C214.114 131.863 202.691 111.938 201.094 96.779" stroke="#5955B3" stroke-width="4" stroke-linecap="round"/>
</g>
<path d="M682.427 203.398C680.306 203.398 678.417 203.033 676.76 202.304C675.112 201.565 673.81 200.552 672.853 199.264C671.906 197.967 671.419 196.471 671.39 194.776H677.583C677.621 195.486 677.853 196.111 678.279 196.651C678.715 197.181 679.293 197.593 680.012 197.886C680.732 198.18 681.542 198.327 682.441 198.327C683.379 198.327 684.208 198.161 684.927 197.83C685.647 197.498 686.21 197.039 686.618 196.452C687.025 195.865 687.228 195.187 687.228 194.42C687.228 193.644 687.011 192.957 686.575 192.361C686.149 191.755 685.533 191.281 684.728 190.94C683.933 190.599 682.986 190.429 681.887 190.429H679.174V185.912H681.887C682.815 185.912 683.635 185.751 684.345 185.429C685.065 185.107 685.623 184.662 686.021 184.094C686.419 183.516 686.618 182.844 686.618 182.077C686.618 181.348 686.442 180.708 686.092 180.159C685.751 179.6 685.268 179.165 684.643 178.852C684.028 178.54 683.308 178.384 682.484 178.384C681.651 178.384 680.888 178.535 680.197 178.838C679.506 179.132 678.952 179.553 678.535 180.102C678.118 180.652 677.896 181.295 677.868 182.034H671.973C672.001 180.358 672.479 178.881 673.407 177.602C674.335 176.324 675.585 175.325 677.157 174.605C678.739 173.876 680.524 173.511 682.512 173.511C684.52 173.511 686.277 173.876 687.782 174.605C689.288 175.334 690.458 176.319 691.291 177.56C692.134 178.791 692.55 180.173 692.541 181.707C692.55 183.336 692.044 184.695 691.021 185.784C690.008 186.873 688.687 187.564 687.058 187.858V188.085C689.198 188.36 690.827 189.103 691.944 190.315C693.071 191.518 693.63 193.024 693.62 194.832C693.63 196.49 693.152 197.962 692.186 199.25C691.229 200.538 689.908 201.551 688.223 202.29C686.537 203.028 684.605 203.398 682.427 203.398Z" fill="black"/>
<path d="M539.442 326.809C486.032 299.191 304.442 304.941 304.442 343.809C304.442 382.309 581.037 403.466 545.442 335.809" stroke="#5A56B4" stroke-width="2" stroke-linecap="round"/>
<defs>
<filter id="filter0_d_1038_6339" x="305.6" y="240" width="63.4665" height="58.6875" filterUnits="userSpaceOnUse" color-interpolation-filters="sRGB">
<feFlood flood-opacity="0" result="BackgroundImageFix"/>
<feColorMatrix in="SourceAlpha" type="matrix" values="0 0 0 0 0 0 0 0 0 0 0 0 0 0 0 0 0 0 127 0" result="hardAlpha"/>
<feOffset dy="4"/>
<feGaussianBlur stdDeviation="1.7"/>
<feComposite in2="hardAlpha" operator="out"/>
<feColorMatrix type="matrix" values="0 0 0 0 0 0 0 0 0 0 0 0 0 0 0 0 0 0 0.11 0"/>
<feBlend mode="normal" in2="BackgroundImageFix" result="effect1_dropShadow_1038_6339"/>
<feBlend mode="normal" in="SourceGraphic" in2="effect1_dropShadow_1038_6339" result="shape"/>
</filter>
<filter id="filter1_d_1038_6339" x="567.6" y="198" width="65.3913" height="70.3548" filterUnits="userSpaceOnUse" color-interpolation-filters="sRGB">
<feFlood flood-opacity="0" result="BackgroundImageFix"/>
<feColorMatrix in="SourceAlpha" type="matrix" values="0 0 0 0 0 0 0 0 0 0 0 0 0 0 0 0 0 0 127 0" result="hardAlpha"/>
<feOffset dy="4"/>
<feGaussianBlur stdDeviation="1.7"/>
<feComposite in2="hardAlpha" operator="out"/>
<feColorMatrix type="matrix" values="0 0 0 0 0 0 0 0 0 0 0 0 0 0 0 0 0 0 0.11 0"/>
<feBlend mode="normal" in2="BackgroundImageFix" result="effect1_dropShadow_1038_6339"/>
<feBlend mode="normal" in="SourceGraphic" in2="effect1_dropShadow_1038_6339" result="shape"/>
</filter>
<filter id="filter2_d_1038_6339" x="181.357" y="94.548" width="59.2856" height="59.5442" filterUnits="userSpaceOnUse" color-interpolation-filters="sRGB">
<feFlood flood-opacity="0" result="BackgroundImageFix"/>
<feColorMatrix in="SourceAlpha" type="matrix" values="0 0 0 0 0 0 0 0 0 0 0 0 0 0 0 0 0 0 127 0" result="hardAlpha"/>
<feOffset dy="4"/>
<feGaussianBlur stdDeviation="1"/>
<feComposite in2="hardAlpha" operator="out"/>
<feColorMatrix type="matrix" values="0 0 0 0 0 0 0 0 0 0 0 0 0 0 0 0 0 0 0.14 0"/>
<feBlend mode="normal" in2="BackgroundImageFix" result="effect1_dropShadow_1038_6339"/>
<feBlend mode="normal" in="SourceGraphic" in2="effect1_dropShadow_1038_6339" result="shape"/>
</filter>
<linearGradient id="paint0_linear_1038_6339" x1="193.131" y1="32.9193" x2="253.957" y2="69.2712" gradientUnits="userSpaceOnUse">
<stop stop-color="#5955B3"/>
<stop offset="1" stop-color="#6563CE"/>
</linearGradient>
</defs>
</svg>
