<svg width="751" height="407" viewBox="0 0 751 407" fill="none" xmlns="http://www.w3.org/2000/svg">
<rect width="751" height="406.005" fill="white"/>
<path opacity="0.2" fill-rule="evenodd" clip-rule="evenodd" d="M750.693 388.154C750.632 396.219 745.798 403.148 738.876 406.256H434.842C447.376 371.333 499.731 301.487 608.882 301.487C718.034 301.487 748.903 247.162 750.693 220V388.154Z" fill="#79A4E2"/>
<path opacity="0.2" fill-rule="evenodd" clip-rule="evenodd" d="M210.762 0C208.094 18.0676 191.746 68.8751 124.397 91.9214C59.0537 114.281 16.0073 106.592 -0.000205626 99.3648L-0.000212013 20C-0.000212902 8.95433 8.95409 1.91637e-05 19.9998 1.81148e-05L210.762 0Z" fill="#79A4E2"/>
<path d="M256.172 59.5194H291.812V63.9594H256.172V59.5194ZM278.612 57.2394H283.572V70.6394C283.572 73.0794 282.932 74.2394 281.052 74.8394C279.132 75.4794 276.412 75.4794 272.692 75.4794C272.492 74.1994 271.732 72.3994 271.092 71.1994C273.572 71.3194 276.772 71.2794 277.532 71.2794C278.332 71.2794 278.612 71.0794 278.612 70.4794V57.2394ZM261.492 65.7594L264.732 62.7994C267.292 64.5194 270.412 67.1194 271.852 69.0394L268.372 72.3594C267.092 70.3994 264.052 67.5994 261.492 65.7594ZM258.772 41.4394H263.812V50.5194C263.812 52.1994 264.612 52.5194 268.932 52.5194C270.932 52.5194 280.012 52.5194 282.612 52.5194C285.732 52.5194 286.372 52.1594 286.772 50.0394C287.932 50.6794 289.892 51.1994 291.292 51.3994C290.612 55.4794 288.772 56.3594 283.092 56.3594C281.172 56.3594 270.852 56.3594 269.012 56.3594C261.212 56.3594 258.772 55.2394 258.772 50.6394V41.4394ZM260.332 45.7194H282.292V43.1194H258.772V38.9994H287.012V49.8794H260.332V45.7194ZM309.212 39.7994H332.132V44.1594H309.212V39.7994ZM318.252 41.7994H322.732V75.3994H318.252V41.7994ZM310.252 47.7594H328.532V52.0394H314.612V69.6794H310.252V47.7594ZM326.692 47.7594H331.132V65.0794C331.132 66.9994 330.852 68.1194 329.652 68.8394C328.492 69.5594 326.972 69.5994 324.892 69.5994C324.772 68.3994 324.172 66.5994 323.652 65.4794C324.732 65.5194 325.852 65.5194 326.212 65.5194C326.572 65.5194 326.692 65.3994 326.692 64.9594V47.7594ZM303.452 38.0794H307.852V53.9594C307.852 61.9994 307.092 69.8794 300.852 75.4394C300.052 74.4794 298.332 72.9194 297.252 72.2394C302.812 67.4794 303.452 60.8794 303.452 53.9594V38.0794ZM296.812 42.5994H301.092V62.1594H296.812V42.5994Z" fill="url(#paint0_linear_1020_6510)"/>
<path d="M405.666 85.6844H414.018V86.7724H405.666V85.6844ZM404.514 92.9324H416.306V94.0044H404.514V92.9324ZM405.122 83.2364H416.258V84.3244H405.122V83.2364ZM413.538 85.6844H414.722C414.722 85.6844 414.706 86.1164 414.706 86.2764C414.514 92.7244 414.29 94.8204 413.778 95.4924C413.474 95.8924 413.122 96.0204 412.642 96.0684C412.162 96.1004 411.362 96.1004 410.562 96.0524C410.546 95.7804 410.434 95.3644 410.274 95.0924C411.09 95.1564 411.826 95.1724 412.13 95.1564C412.434 95.1564 412.578 95.1244 412.722 94.9324C413.138 94.4204 413.362 92.1804 413.538 85.9404V85.6844ZM405.074 85.6844H406.29C405.938 88.5484 405.394 92.4044 404.994 94.6124L403.778 94.5324C404.226 92.3084 404.802 88.4524 405.074 85.6844ZM405.842 81.2844L407.09 81.6364C406.13 83.8284 404.674 85.9884 403.282 87.3964C403.026 87.2044 402.482 86.8364 402.162 86.6604C403.634 85.3644 405.01 83.3164 405.842 81.2844ZM407.762 87.4924L408.45 86.8044C409.49 87.2684 410.738 87.9884 411.378 88.5804L410.658 89.3324C410.05 88.7404 408.818 87.9564 407.762 87.4924ZM407.362 90.9964L408.034 90.3244C409.122 90.8364 410.45 91.6844 411.106 92.3084L410.402 93.0764C409.762 92.4364 408.45 91.5564 407.362 90.9964ZM402.194 89.2684H405.186V89.3004H414.018V89.2684H416.866V90.3564H414.018V90.3244H405.186V90.3564H402.194V89.2684ZM425.458 82.6604C424.13 84.6764 421.426 87.2204 418.578 88.8844C418.402 88.6124 418.066 88.1804 417.794 87.9244C420.706 86.2764 423.49 83.5724 424.754 81.4124H426.002C427.746 83.8924 430.674 86.3724 433.298 87.7164C432.994 88.0204 432.706 88.4364 432.482 88.7884C429.874 87.2844 426.93 84.7564 425.458 82.6604ZM424.818 86.6604H426.082V96.1004H424.818V86.6604ZM434.354 84.1324H448.674V85.2844H434.354V84.1324ZM439.586 87.9244H445.986V89.0764H439.586V87.9244ZM445.554 87.9244H446.786C446.786 87.9244 446.77 88.3244 446.738 88.5004C446.418 93.1084 446.098 94.8844 445.474 95.5244C445.106 95.9084 444.706 96.0204 444.098 96.0684C443.538 96.1004 442.482 96.0684 441.394 96.0204C441.378 95.6684 441.202 95.1724 440.978 94.8364C442.13 94.9484 443.266 94.9484 443.682 94.9484C444.034 94.9484 444.258 94.9324 444.434 94.7724C444.946 94.3084 445.266 92.5164 445.538 88.1324L445.554 87.9244ZM439.314 84.7724H440.642C440.402 89.0124 439.938 93.8124 435.058 96.1484C434.882 95.8444 434.498 95.4124 434.194 95.1724C438.866 93.0604 439.138 88.5964 439.314 84.7724ZM440.834 81.3324H442.066V84.6284H440.834V81.3324ZM451.09 84.1324H463.266V85.3164H452.274V96.0844H451.09V84.1324ZM462.818 84.1324H464.018V94.5004C464.018 95.2844 463.842 95.6844 463.282 95.8764C462.706 96.0684 461.698 96.1004 460.242 96.1004C460.178 95.7484 460.002 95.1884 459.81 94.8524C460.978 94.9004 462.082 94.9004 462.418 94.8844C462.738 94.8684 462.818 94.7884 462.818 94.4844V84.1324ZM456.53 81.3324L458.018 81.5884C457.522 82.7244 456.914 84.0204 456.434 84.8684L455.282 84.5964C455.73 83.7004 456.258 82.3084 456.53 81.3324ZM454.386 87.4284H455.49V93.8764H454.386V87.4284ZM454.898 87.4284H460.658V92.7244H454.898V91.6524H459.538V88.5164H454.898V87.4284ZM466.93 83.2364H472.53V84.2924H466.93V83.2364ZM468.626 94.0524H473.106V95.0764H468.626V94.0524ZM468.61 91.3964H473.122V92.3564H468.61V91.3964ZM466.21 86.2124H474.482V87.2844H466.21V86.2124ZM469.41 81.5084H470.53V86.9004H469.41V81.5084ZM473.65 81.9244L474.738 82.2444C472.978 86.2444 470.13 89.3164 466.61 91.2524C466.466 90.9964 466.082 90.5164 465.858 90.2764C469.33 88.5484 472.066 85.6364 473.65 81.9244ZM468.994 88.8364H473.074V89.8444H468.994V96.0204H467.89V89.5404L468.562 88.8364H468.994ZM472.594 88.8364H473.762V95.7964H472.594V88.8364ZM475.154 82.2924H479.938V83.4124H476.354V96.0844H475.154V82.2924ZM479.634 82.2924H479.874L480.066 82.2284L480.93 82.7884C480.258 84.2924 479.394 86.1484 478.61 87.6204C480.29 89.1084 480.722 90.3724 480.722 91.5244C480.738 92.5164 480.498 93.2524 479.906 93.6364C479.618 93.8284 479.25 93.9404 478.834 93.9884C478.402 94.0364 477.826 94.0364 477.33 94.0044C477.314 93.6844 477.17 93.1564 476.978 92.8364C477.49 92.8844 477.97 92.9004 478.322 92.8684C478.61 92.8524 478.882 92.7884 479.074 92.6764C479.458 92.4684 479.57 92.0044 479.57 91.4124C479.57 90.4044 479.058 89.1884 477.362 87.7964C478.226 86.1324 479.122 83.9564 479.634 82.6604V82.2924ZM482.53 83.4444H496.546V84.5804H482.53V83.4444ZM486.434 89.1564H493.954V90.1964H486.434V89.1564ZM485.586 86.4364H493.762V87.5084H486.77V96.0844H485.586V86.4364ZM493.49 86.4364H494.658V94.5964C494.658 95.3004 494.514 95.6684 493.97 95.8604C493.458 96.0524 492.562 96.0524 491.186 96.0524C491.138 95.7164 490.962 95.2204 490.786 94.8844C491.858 94.9324 492.834 94.9164 493.122 94.9164C493.394 94.9004 493.49 94.8204 493.49 94.5804V86.4364ZM487.762 81.3644L488.978 81.6524C487.89 85.1724 485.97 88.7244 482.914 90.8684C482.754 90.5964 482.386 90.1804 482.146 89.9404C485.01 87.9724 486.898 84.5804 487.762 81.3644ZM486.434 91.8604H493.954V92.9004H486.434V91.8604ZM498.226 87.9084H512.866V89.2204H498.226V87.9084ZM521.458 82.6604C520.13 84.6764 517.426 87.2204 514.578 88.8844C514.402 88.6124 514.066 88.1804 513.794 87.9244C516.706 86.2764 519.49 83.5724 520.754 81.4124H522.002C523.746 83.8924 526.674 86.3724 529.298 87.7164C528.994 88.0204 528.706 88.4364 528.482 88.7884C525.874 87.2844 522.93 84.7564 521.458 82.6604ZM520.818 86.6604H522.082V96.1004H520.818V86.6604ZM530.498 90.1484H544.626V91.2844H530.498V90.1484ZM539.874 88.9164H541.106V94.6604C541.106 95.3644 540.914 95.7004 540.338 95.8604C539.762 96.0364 538.802 96.0364 537.25 96.0364C537.202 95.7164 536.994 95.2684 536.834 94.9484C538.018 94.9964 539.17 94.9804 539.474 94.9644C539.778 94.9644 539.874 94.8844 539.874 94.6444V88.9164ZM532.898 91.8924L533.73 91.1884C534.738 92.0044 535.874 93.1724 536.402 93.9884L535.506 94.7884C535.026 93.9564 533.89 92.7404 532.898 91.8924ZM531.682 82.5004H532.93V86.6764C532.93 87.3484 533.25 87.5084 535.026 87.5084C535.858 87.5084 540.29 87.5084 541.41 87.5084C542.722 87.5084 542.946 87.2844 543.09 86.1004C543.394 86.2764 543.89 86.4204 544.242 86.4844C544.034 88.1164 543.522 88.5164 541.506 88.5164C540.85 88.5164 535.714 88.5164 535.106 88.5164C532.466 88.5164 531.682 88.1804 531.682 86.6924V82.5004ZM532.098 84.7404H541.554V83.0604H531.682V82.0044H542.722V85.8124H532.098V84.7404ZM551.65 82.2124H560.69V83.3164H551.65V82.2124ZM555.474 82.6604H556.61V96.0524H555.474V82.6604ZM552.21 85.2844H559.394V86.3724H553.33V93.7804H552.21V85.2844ZM558.946 85.2844H560.066V92.4204C560.066 92.9804 559.97 93.2844 559.586 93.4764C559.202 93.6684 558.642 93.6684 557.762 93.6684C557.714 93.3644 557.554 92.9164 557.41 92.6124C558.018 92.6284 558.546 92.6284 558.722 92.6284C558.898 92.6284 558.946 92.5644 558.946 92.3884V85.2844ZM549.586 81.3964H550.706V87.7964C550.706 90.9644 550.402 93.8924 548.002 96.0684C547.81 95.8284 547.394 95.4444 547.106 95.2684C549.33 93.3004 549.586 90.6604 549.586 87.7964V81.3964ZM547.026 83.2044H548.114V90.9804H547.026V83.2044ZM563.784 94.9124C563.473 94.9124 563.206 94.8025 562.983 94.5829C562.759 94.3594 562.647 94.0904 562.647 93.776C562.647 93.4654 562.759 93.2003 562.983 92.9806C563.206 92.7571 563.473 92.6454 563.784 92.6454C564.094 92.6454 564.361 92.7571 564.585 92.9806C564.808 93.2003 564.92 93.4654 564.92 93.776C564.92 93.9844 564.867 94.1757 564.761 94.3499C564.659 94.5204 564.522 94.6567 564.352 94.759C564.181 94.8613 563.992 94.9124 563.784 94.9124ZM580.004 81.3964H581.14V92.5164H580.004V81.3964ZM574.436 87.9884L584.052 84.2604L584.516 85.3004L574.884 89.0444L574.436 87.9884ZM576.452 82.9644H577.636V93.6684C577.636 94.5804 577.86 94.7884 578.996 94.7884C579.54 94.7884 582.404 94.7884 583.108 94.7884C584.084 94.7884 584.26 94.3404 584.388 92.4524C584.676 92.6604 585.156 92.8684 585.508 92.9484C585.3 95.1564 584.916 95.8764 583.14 95.8764C582.676 95.8764 579.38 95.8764 578.948 95.8764C577.012 95.8764 576.452 95.4284 576.452 93.6524V82.9644ZM583.652 84.5324H583.508L583.796 84.2924L584.004 84.1004L584.836 84.4524L584.788 84.6444C584.772 87.5564 584.74 89.8604 584.58 90.5484C584.452 91.2844 584.116 91.5884 583.62 91.7164C583.188 91.8284 582.484 91.8444 582.004 91.8284C581.972 91.4924 581.844 90.9964 581.7 90.7244C582.148 90.7404 582.724 90.7404 582.932 90.7404C583.204 90.7404 583.38 90.6764 583.492 90.2604C583.62 89.7484 583.652 87.6524 583.652 84.5324ZM574.356 81.4284L575.46 81.7804C574.42 84.4684 572.772 87.1884 571.06 88.9804C570.932 88.7084 570.596 88.0844 570.388 87.8124C571.972 86.2604 573.46 83.8604 574.356 81.4284ZM572.66 85.5564L573.812 84.3884L573.828 84.4044V96.0684H572.66V85.5564ZM587.652 94.3404C590.436 94.2764 594.9 94.1164 599.06 93.9244L599.012 95.0284C594.98 95.2364 590.644 95.4284 587.812 95.5244L587.652 94.3404ZM587.508 89.3964H600.772V90.5324H587.508V89.3964ZM590.244 86.3404H597.892V87.4604H590.244V86.3404ZM591.892 90.1164L593.236 90.5004C592.5 92.0364 591.572 93.9084 590.788 95.1084L589.716 94.7564C590.468 93.5084 591.412 91.5244 591.892 90.1164ZM595.7 91.8124L596.724 91.2684C598.196 92.5324 599.764 94.2604 600.516 95.4764L599.428 96.1324C598.708 94.9324 597.124 93.0924 595.7 91.8124ZM594.036 82.5484C592.724 84.5004 590.1 86.6924 587.38 88.0524C587.236 87.7644 586.932 87.3324 586.676 87.0764C589.428 85.7644 592.1 83.4444 593.348 81.3964H594.58C596.276 83.7644 599.076 85.8604 601.62 86.9004C601.332 87.1884 601.044 87.6204 600.836 87.9724C598.34 86.7724 595.524 84.6284 594.036 82.5484ZM603.092 83.8444H617.108V85.0124H603.092V83.8444ZM608.052 88.9164H616.484V90.0364H608.052V88.9164ZM607.428 94.5804H617.108V95.7164H607.428V94.5804ZM611.668 85.8284H612.868V95.1884H611.668V85.8284ZM608.356 81.3644L609.588 81.6684C608.468 85.3324 606.516 89.0604 603.332 91.3484C603.204 91.0284 602.9 90.5164 602.708 90.2444C605.588 88.2124 607.46 84.6604 608.356 81.3644ZM605.188 87.9564H606.388V96.0364H605.188V87.9564ZM625.54 81.4444L626.724 81.7004C626.1 84.2604 625.092 86.7244 623.86 88.3564C623.652 88.1484 623.172 87.7644 622.9 87.5884C624.084 86.1004 625.012 83.7964 625.54 81.4444ZM625.268 88.2284L626.436 88.4684C625.94 90.5644 625.076 92.5964 624.1 93.9404C623.86 93.7484 623.348 93.4284 623.06 93.2844C624.052 92.0524 624.82 90.1484 625.268 88.2284ZM625.396 84.4524H632.596V85.5724H624.932L625.396 84.4524ZM627.876 84.9164H629.076V94.6284C629.076 95.3164 628.932 95.6684 628.484 95.8604C628.052 96.0684 627.364 96.1004 626.372 96.1004C626.292 95.7644 626.116 95.2364 625.94 94.8844C626.692 94.9164 627.38 94.9004 627.604 94.9004C627.812 94.9004 627.876 94.8364 627.876 94.6284V84.9164ZM630.228 88.4684L631.3 88.1164C632.228 89.7964 633.028 92.0044 633.3 93.4924L632.164 93.8764C631.908 92.4044 631.108 90.1484 630.228 88.4684ZM632.244 84.4524H632.404L632.612 84.4204L633.444 84.5964C633.22 85.7804 632.948 87.1564 632.74 88.0204L631.7 87.8284C631.876 87.0284 632.084 85.6844 632.244 84.6284V84.4524ZM622.324 81.4284L623.46 81.7804C622.404 84.5004 620.756 87.2044 619.028 88.9964C618.9 88.7244 618.564 88.0844 618.34 87.8124C619.924 86.2604 621.428 83.8604 622.324 81.4284ZM620.66 85.5564L621.78 84.4204L621.812 84.4364V96.0684H620.66V85.5564ZM635.924 90.2444H648.34V91.2364H635.924V90.2444ZM634.996 82.4044H642.388V83.2844H634.996V82.4044ZM642.132 92.4684H647.284V93.4124H642.132V92.4684ZM634.852 94.7244H649.38V95.7324H634.852V94.7244ZM641.476 90.6124H642.676V95.2204H641.476V90.6124ZM638.164 81.3644H639.236V89.8124H638.164V81.3644ZM637.476 91.9564H638.628V95.2684H637.476V91.9564ZM636.452 84.9164V86.2284H640.98V84.9164H636.452ZM635.476 84.1004H642.004V87.0444H635.476V84.1004ZM639.22 86.9964C639.78 87.2364 641.62 88.1644 642.116 88.4364L641.524 89.2364C640.916 88.8044 639.316 87.8924 638.628 87.5244L639.22 86.9964ZM644.372 81.3804L645.46 81.6204C644.9 83.4604 643.924 85.1724 642.756 86.2764C642.596 86.0684 642.18 85.6524 641.94 85.4604C643.06 84.4844 643.908 82.9964 644.372 81.3804ZM644.068 83.1564H649.316V84.1484H643.588L644.068 83.1564ZM647.268 83.6044L648.404 83.7324C647.588 86.9644 645.556 88.7724 642.58 89.8764C642.452 89.6364 642.1 89.1724 641.86 88.9804C644.724 88.1004 646.612 86.4524 647.268 83.6044ZM644.196 83.7484C644.884 85.7644 646.58 88.0364 649.588 88.9804C649.364 89.1884 649.06 89.6364 648.9 89.9244C645.876 88.8044 644.148 86.3724 643.412 84.2764L644.196 83.7484ZM638.068 86.6284L638.836 86.9644C638.052 88.0364 636.58 89.2204 635.444 89.8284C635.284 89.5724 634.964 89.2364 634.724 89.0604C635.876 88.5644 637.316 87.5564 638.068 86.6284ZM658.036 82.6604C656.708 84.6764 654.004 87.2204 651.156 88.8844C650.98 88.6124 650.644 88.1804 650.372 87.9244C653.284 86.2764 656.068 83.5724 657.332 81.4124H658.58C660.324 83.8924 663.252 86.3724 665.876 87.7164C665.572 88.0204 665.284 88.4364 665.06 88.7884C662.452 87.2844 659.508 84.7564 658.036 82.6604ZM657.396 86.6604H658.66V96.1004H657.396V86.6604ZM669.748 86.7724H677.668V87.8284H669.748V86.7724ZM667.06 90.4204H681.204V91.5404H667.06V90.4204ZM673.492 89.2524H674.724V94.6604C674.724 95.3804 674.532 95.7324 673.924 95.9084C673.348 96.0844 672.42 96.1004 670.964 96.1004C670.884 95.7644 670.644 95.2684 670.452 94.9484C671.684 94.9804 672.772 94.9804 673.092 94.9644C673.412 94.9484 673.492 94.8684 673.492 94.6284V89.2524ZM677.3 86.7724H677.604L677.86 86.7084L678.628 87.3004C677.54 88.4044 675.86 89.5084 674.34 90.1644C674.196 89.9564 673.876 89.6364 673.668 89.4604C675.012 88.8844 676.548 87.8284 677.3 87.0124V86.7724ZM667.38 84.0364H680.932V87.6044H679.748V85.1244H668.516V87.6044H667.38V84.0364ZM678.82 81.4764L680.068 81.8924C679.396 82.8844 678.532 83.9564 677.86 84.6604L676.916 84.2604C677.556 83.5084 678.372 82.3244 678.82 81.4764ZM668.468 82.0364L669.476 81.5564C670.1 82.2284 670.756 83.1404 671.028 83.7804L669.956 84.2924C669.7 83.6844 669.06 82.7244 668.468 82.0364ZM672.58 81.6844L673.62 81.3004C674.164 82.0524 674.74 83.0924 674.932 83.7644L673.828 84.1964C673.636 83.5244 673.108 82.4684 672.58 81.6844ZM683.988 82.5324H695.54V83.6844H683.988V82.5324ZM685.78 85.7964L686.596 85.0124C688.02 85.9724 689.924 87.3484 690.868 88.2284L690.02 89.1564C689.124 88.2444 687.22 86.8044 685.78 85.7964ZM695.108 82.5324H696.308C696.308 82.5324 696.308 83.0444 696.308 83.2204C696.196 91.6364 696.068 94.3404 695.46 95.1564C695.108 95.7004 694.708 95.8764 694.132 95.9244C693.508 95.9884 692.468 95.9564 691.54 95.9084C691.524 95.5724 691.364 95.0764 691.14 94.7564C692.26 94.8364 693.268 94.8364 693.684 94.8364C693.988 94.8364 694.164 94.7884 694.34 94.5804C694.868 93.9884 694.996 90.8684 695.108 82.8044V82.5324ZM683.748 92.6604C686.052 91.9564 689.844 90.6924 693.348 89.4924L693.556 90.6124C690.26 91.7804 686.628 93.0284 684.164 93.8764L683.748 92.6604ZM699.348 82.4204L700.276 81.8124C701.172 82.6124 702.228 83.7324 702.724 84.4684L701.732 85.1884C701.268 84.4204 700.244 83.2524 699.348 82.4204ZM702.276 87.3644V93.1884H701.108V88.5004H698.884V87.3644H702.276ZM701.668 92.5644C702.212 92.5644 702.58 93.0444 703.476 93.5884C704.516 94.2444 705.876 94.3564 707.668 94.3564C709.556 94.3564 711.972 94.2284 713.524 94.0524C713.364 94.3884 713.172 94.9964 713.156 95.3644C712.02 95.4284 709.172 95.5084 707.652 95.5084C705.652 95.5084 704.308 95.3484 703.204 94.6444C702.516 94.2124 702.004 93.6844 701.652 93.6844C701.108 93.6844 700.34 94.6284 699.524 95.7164L698.676 94.5964C699.78 93.3964 700.868 92.5644 701.668 92.5644ZM703.412 84.2604H713.044V85.3964H703.412V84.2604ZM709.604 81.4284H710.836V91.7484C710.836 92.5644 710.612 92.9164 710.036 93.1084C709.492 93.3004 708.516 93.3324 706.996 93.3324C706.948 92.9804 706.74 92.4524 706.564 92.1004C707.748 92.1324 708.852 92.1324 709.172 92.1324C709.492 92.1004 709.604 92.0204 709.604 91.7324V81.4284ZM704.18 87.1724L705.14 86.6604C705.956 87.6364 706.964 88.9644 707.428 89.7964L706.42 90.4204C705.988 89.5724 704.996 88.1804 704.18 87.1724ZM628.404 107.916H629.588V114.316H628.404V107.916ZM624.884 107.484H633.156V108.54H624.884V107.484ZM624.196 113.596H633.508V114.668H624.196V113.596ZM625.268 110.46H632.788V111.5H625.268V110.46ZM626.612 102.076V105.036H631.428V102.076H626.612ZM625.492 101.036H632.596V106.076H625.492V101.036ZM621.492 101.692H622.66V115.052H621.492V101.692ZM618.868 104.876H624.676V106.012H618.868V104.876ZM621.556 105.308L622.308 105.628C621.668 107.884 620.388 110.684 619.156 112.172C619.044 111.836 618.756 111.34 618.548 111.068C619.7 109.788 620.98 107.292 621.556 105.308ZM623.86 100.604L624.708 101.532C623.236 102.124 620.996 102.572 619.14 102.828C619.076 102.556 618.916 102.172 618.772 101.9C620.58 101.596 622.692 101.148 623.86 100.604ZM622.612 106.94C623.012 107.292 624.516 108.812 624.836 109.212L624.132 110.156C623.748 109.5 622.548 107.98 622.052 107.42L622.612 106.94ZM635.636 103.228H648.532V110.764H647.284V104.412H636.836V110.844H635.636V103.228ZM636.276 108.668H648.004V109.836H636.276V108.668ZM641.428 100.364H642.676V115.068H641.428V100.364ZM651.14 101.644H658.628V102.62H651.14V101.644ZM650.884 105.98H658.724V106.94H650.884V105.98ZM651.492 103.788H658.308V104.732H651.492V103.788ZM659.444 101.036H664.068V102.076H660.596V108.972H659.444V101.036ZM663.828 101.036H664.068L664.26 100.988L665.092 101.5C664.5 102.332 663.78 103.308 663.124 104.108C664.484 104.956 664.948 105.724 664.964 106.444C664.98 107.132 664.692 107.58 664.18 107.868C663.908 108.012 663.524 108.092 663.22 108.14C662.66 108.188 661.972 108.188 661.348 108.14C661.332 107.836 661.172 107.404 660.964 107.116C661.652 107.196 662.244 107.196 662.708 107.164C662.932 107.148 663.188 107.1 663.364 107.036C663.652 106.924 663.78 106.7 663.78 106.348C663.764 105.772 663.252 105.068 661.828 104.268C662.58 103.276 663.364 102.076 663.828 101.26V101.036ZM654.468 100.364H655.684V105.116C655.684 106.396 654.932 108.556 652.036 109.692C651.844 109.452 651.476 109.052 651.204 108.828C653.812 107.948 654.468 106.14 654.468 105.1V100.364ZM657.428 108.364H658.676V115.068H657.428V108.364ZM652.5 109.628H663.236V110.716H653.7V114.22H652.5V109.628ZM662.724 109.628H663.94V112.908C663.94 113.516 663.796 113.836 663.284 114.012C662.772 114.188 661.924 114.188 660.58 114.188C660.5 113.868 660.324 113.452 660.164 113.148C661.172 113.18 662.116 113.18 662.388 113.164C662.66 113.148 662.724 113.084 662.724 112.892V109.628ZM673.556 103.996H680.324V105.132H673.556V103.996ZM679.812 103.996H680.964C680.964 103.996 680.948 104.444 680.948 104.604C680.788 111.372 680.644 113.66 680.116 114.348C679.796 114.78 679.46 114.908 678.948 114.956C678.452 115.004 677.588 114.988 676.74 114.956C676.708 114.604 676.58 114.108 676.372 113.804C677.3 113.868 678.132 113.868 678.468 113.868C678.74 113.884 678.916 113.836 679.06 113.628C679.492 113.132 679.668 110.796 679.812 104.252V103.996ZM676.212 100.38H677.38C677.364 106.508 677.348 112.204 672.9 115.116C672.724 114.828 672.324 114.428 672.02 114.236C676.292 111.58 676.196 106.204 676.212 100.38ZM667.796 101.148H673.012V111.564H671.892V102.252H668.868V112.588H667.796V101.148ZM666.644 112.3C668.42 111.948 671.236 111.356 673.892 110.764L674.004 111.852C671.46 112.46 668.772 113.084 666.852 113.516L666.644 112.3ZM668.356 104.588H672.42V105.676H668.356V104.588ZM668.356 108.012H672.42V109.084H668.356V108.012ZM689.54 100.444L690.724 100.7C690.1 103.26 689.092 105.724 687.86 107.356C687.652 107.148 687.172 106.764 686.9 106.588C688.084 105.1 689.012 102.796 689.54 100.444ZM689.268 107.228L690.436 107.468C689.94 109.564 689.076 111.596 688.1 112.94C687.86 112.748 687.348 112.428 687.06 112.284C688.052 111.052 688.82 109.148 689.268 107.228ZM689.396 103.452H696.596V104.572H688.932L689.396 103.452ZM691.876 103.916H693.076V113.628C693.076 114.316 692.932 114.668 692.484 114.86C692.052 115.068 691.364 115.1 690.372 115.1C690.292 114.764 690.116 114.236 689.94 113.884C690.692 113.916 691.38 113.9 691.604 113.9C691.812 113.9 691.876 113.836 691.876 113.628V103.916ZM694.228 107.468L695.3 107.116C696.228 108.796 697.028 111.004 697.3 112.492L696.164 112.876C695.908 111.404 695.108 109.148 694.228 107.468ZM696.244 103.452H696.404L696.612 103.42L697.444 103.596C697.22 104.78 696.948 106.156 696.74 107.02L695.7 106.828C695.876 106.028 696.084 104.684 696.244 103.628V103.452ZM686.324 100.428L687.46 100.78C686.404 103.5 684.756 106.204 683.028 107.996C682.9 107.724 682.564 107.084 682.34 106.812C683.924 105.26 685.428 102.86 686.324 100.428ZM684.66 104.556L685.78 103.42L685.812 103.436V115.068H684.66V104.556ZM701.204 109.916C702.548 109.916 703.636 111.004 703.636 112.348C703.636 113.692 702.548 114.78 701.204 114.78C699.86 114.78 698.756 113.692 698.756 112.348C698.756 111.004 699.86 109.916 701.204 109.916ZM701.204 113.964C702.1 113.964 702.82 113.244 702.82 112.348C702.82 111.452 702.1 110.732 701.204 110.732C700.308 110.732 699.572 111.452 699.572 112.348C699.572 113.244 700.308 113.964 701.204 113.964Z" fill="#2D3342"/>
<path d="M476.515 177.71C476.205 177.71 475.938 177.6 475.714 177.38C475.491 177.156 475.379 176.888 475.379 176.573C475.379 176.263 475.491 175.997 475.714 175.778C475.938 175.554 476.205 175.442 476.515 175.442C476.826 175.442 477.093 175.554 477.317 175.778C477.54 175.997 477.652 176.263 477.652 176.573C477.652 176.781 477.599 176.973 477.493 177.147C477.39 177.317 477.254 177.454 477.084 177.556C476.913 177.658 476.724 177.71 476.515 177.71ZM481.047 177.71C480.736 177.71 480.469 177.6 480.245 177.38C480.022 177.156 479.91 176.888 479.91 176.573C479.91 176.263 480.022 175.997 480.245 175.778C480.469 175.554 480.736 175.442 481.047 175.442C481.357 175.442 481.624 175.554 481.848 175.778C482.071 175.997 482.183 176.263 482.183 176.573C482.183 176.781 482.13 176.973 482.024 177.147C481.922 177.317 481.785 177.454 481.615 177.556C481.444 177.658 481.255 177.71 481.047 177.71ZM485.578 177.71C485.267 177.71 485 177.6 484.777 177.38C484.553 177.156 484.442 176.888 484.442 176.573C484.442 176.263 484.553 175.997 484.777 175.778C485 175.554 485.267 175.442 485.578 175.442C485.888 175.442 486.156 175.554 486.379 175.778C486.602 175.997 486.714 176.263 486.714 176.573C486.714 176.781 486.661 176.973 486.555 177.147C486.453 177.317 486.317 177.454 486.146 177.556C485.976 177.658 485.786 177.71 485.578 177.71ZM493.304 171.794H503.192V172.914H493.304V171.794ZM499.816 170.514H501V177.426C501 178.13 500.856 178.482 500.344 178.674C499.832 178.866 498.984 178.882 497.72 178.882C497.672 178.546 497.496 178.05 497.32 177.698C498.312 177.73 499.208 177.73 499.496 177.714C499.752 177.698 499.816 177.65 499.816 177.41V170.514ZM501.432 164.162L502.264 165.09C499.976 165.778 496.472 166.322 493.496 166.626C493.448 166.354 493.304 165.922 493.16 165.666C496.088 165.33 499.496 164.77 501.432 164.162ZM493.736 167.458L494.744 167.122C495.256 168.034 495.768 169.25 495.928 170.034L494.856 170.418C494.696 169.65 494.232 168.386 493.736 167.458ZM496.872 166.834L497.944 166.578C498.328 167.522 498.664 168.706 498.728 169.458L497.592 169.762C497.544 168.994 497.24 167.778 496.872 166.834ZM494.584 174.098L495.576 173.57C496.408 174.386 497.32 175.57 497.72 176.37L496.68 176.978C496.328 176.162 495.416 174.946 494.584 174.098ZM491.48 164.178H492.632V178.882H491.48V164.178ZM488.248 174.642C489.144 174.178 490.488 173.378 491.8 172.578L492.184 173.586C491.048 174.386 489.864 175.202 488.856 175.874L488.248 174.642ZM488.424 166.674L489.4 166.21C490.168 167.218 490.952 168.578 491.256 169.458L490.216 170.018C489.928 169.106 489.16 167.714 488.424 166.674ZM501.816 166.386L502.904 166.93C502.04 168.274 500.872 169.81 499.96 170.85L499.032 170.322C499.928 169.282 501.144 167.634 501.816 166.386ZM506.248 176.93H519.048V178.066H506.248V176.93ZM504.84 165.65H518.904V166.754H504.84V165.65ZM505.672 168.53H506.856V178.914H505.672V168.53ZM509.784 171.138V172.466H515.912V171.138H509.784ZM509.784 173.33V174.658H515.912V173.33H509.784ZM509.784 168.978V170.274H515.912V168.978H509.784ZM508.632 168.066H517.112V175.57H508.632V168.066ZM511.464 164.114L512.84 164.21C512.68 165.714 512.424 167.49 512.2 168.61L511.016 168.514C511.208 167.33 511.416 165.426 511.464 164.114ZM529.624 164.162H530.84V166.354H529.624V164.162ZM525.832 165.874H534.728V166.914H525.832V165.874ZM525.192 169.618H535.176V170.674H525.192V169.618ZM527.336 167.058L528.376 166.85C528.728 167.714 529.032 168.834 529.096 169.522L528.008 169.794C527.96 169.09 527.672 167.938 527.336 167.058ZM532.088 166.818L533.272 166.994C532.936 167.938 532.552 169.026 532.216 169.746L531.192 169.57C531.512 168.818 531.896 167.618 532.088 166.818ZM525.272 172.258H535.112V173.298H525.272V172.258ZM528.936 170.386L530.136 170.626C529.32 172.466 528.184 174.802 527.368 176.274L526.328 175.922C527.128 174.498 528.232 172.13 528.936 170.386ZM527.144 175.714L527.848 174.898C530.264 175.586 533.272 176.866 534.824 177.986L534.056 178.898C532.584 177.81 529.592 176.45 527.144 175.714ZM532.088 172.93L533.256 173.106C532.488 176.674 530.296 178.226 525.352 178.882C525.272 178.546 525.064 178.13 524.872 177.874C529.48 177.41 531.4 176.05 532.088 172.93ZM520.28 172.674C521.576 172.354 523.528 171.778 525.416 171.234L525.56 172.306C523.816 172.85 521.976 173.426 520.552 173.858L520.28 172.674ZM520.552 167.394H525.432V168.514H520.552V167.394ZM522.728 164.178H523.88V177.426C523.88 178.114 523.736 178.45 523.32 178.642C522.904 178.85 522.248 178.882 521.208 178.882C521.16 178.578 521 178.05 520.84 177.714C521.56 177.746 522.232 177.746 522.424 177.73C522.632 177.73 522.728 177.666 522.728 177.426V164.178ZM536.84 166.642H550.856V167.81H536.84V166.642ZM541.8 171.714H550.232V172.834H541.8V171.714ZM541.176 177.378H550.856V178.514H541.176V177.378ZM545.416 168.626H546.616V177.986H545.416V168.626ZM542.104 164.162L543.336 164.466C542.216 168.13 540.264 171.858 537.08 174.146C536.952 173.826 536.648 173.314 536.456 173.042C539.336 171.01 541.208 167.458 542.104 164.162ZM538.936 170.754H540.136V178.834H538.936V170.754ZM553.8 170.722H558.632V171.698H553.8V170.722ZM553.144 165.842H558.376V166.898H553.144V165.842ZM552.504 168.466H560.264V169.522H552.504V168.466ZM555.256 164.162H556.392V169.026H555.256V164.162ZM559.512 164.53L560.632 164.866C559.016 168.834 556.376 171.842 553.032 173.746C552.856 173.506 552.424 173.042 552.168 172.834C555.512 171.122 558.072 168.226 559.512 164.53ZM555.896 172.866H557.032V177.602C557.032 178.226 556.904 178.53 556.472 178.706C556.024 178.866 555.336 178.882 554.312 178.882C554.248 178.578 554.088 178.13 553.928 177.826C554.728 177.842 555.4 177.842 555.624 177.842C555.848 177.826 555.896 177.778 555.896 177.602V172.866ZM558.392 170.722H558.632L558.856 170.658L559.56 171.17C558.808 172.098 557.704 173.09 556.76 173.714C556.616 173.506 556.328 173.234 556.136 173.074C556.952 172.53 557.912 171.602 558.392 170.914V170.722ZM552.424 174.642C554.376 174.466 557.416 174.162 560.328 173.842V174.898C557.544 175.202 554.6 175.522 552.568 175.746L552.424 174.642ZM561.512 167.154H567.208V168.274H561.512V167.154ZM561.944 164.162L563.144 164.354C562.6 167.362 561.64 170.21 560.312 172.034C560.104 171.826 559.592 171.41 559.32 171.218C560.616 169.554 561.464 166.914 561.944 164.162ZM565.016 167.762L566.232 167.89C565.464 173.426 563.768 176.85 559.736 178.93C559.608 178.658 559.256 178.114 559.016 177.858C562.824 176.066 564.36 172.85 565.016 167.762ZM562.12 168.098C562.824 172.514 564.344 176.306 567.336 177.874C567.048 178.114 566.664 178.578 566.488 178.898C563.352 177.058 561.832 173.138 561.032 168.274L562.12 168.098ZM571.096 170.946H579.88V171.97H572.296V178.898H571.096V170.946ZM579.48 170.946H580.68V177.602C580.68 178.258 580.52 178.562 580.008 178.722C579.512 178.882 578.68 178.882 577.384 178.882C577.32 178.594 577.144 178.178 577 177.89C577.928 177.922 578.872 177.922 579.128 177.906C579.4 177.89 579.48 177.826 579.48 177.602V170.946ZM571.816 173.186H579.976V174.082H571.816V173.186ZM568.808 165.73H582.888V166.802H568.808V165.73ZM573.256 166.386L574.568 166.77C573.864 167.746 572.968 168.85 572.28 169.57L571.32 169.202C571.976 168.45 572.792 167.234 573.256 166.386ZM577.72 167.394L578.664 166.786C580.088 167.698 581.864 169.042 582.744 170.002L581.736 170.722C580.904 169.762 579.176 168.354 577.72 167.394ZM569.448 168.85C572.296 168.834 576.856 168.738 581.128 168.642L581.064 169.634C576.888 169.778 572.408 169.906 569.496 169.97L569.448 168.85ZM571.816 175.33H579.928V176.21H571.816V175.33ZM575.192 164.162H576.424V166.258H575.192V164.162ZM591.192 164.162H592.424V166.562H591.192V164.162ZM591.192 173.49H592.424V177.922H591.192V173.49ZM589.416 166.77H590.648C590.344 169.714 589.432 171.426 585.56 172.29C585.448 172.002 585.16 171.522 584.904 171.282C588.424 170.594 589.16 169.218 589.416 166.77ZM592.968 166.722H594.152V170.114C594.152 170.498 594.264 170.562 594.856 170.562C595.128 170.562 596.552 170.562 596.92 170.562C597.384 170.562 597.464 170.402 597.528 169.282C597.768 169.458 598.248 169.634 598.584 169.714C598.44 171.234 598.104 171.618 597.032 171.618C596.728 171.618 595.016 171.618 594.728 171.618C593.32 171.618 592.968 171.298 592.968 170.114V166.722ZM585.096 165.826H598.632V168.706H597.416V166.93H586.28V169.058H585.096V165.826ZM586.472 172.978H597.496V174.066H586.472V172.978ZM584.792 177.314H598.888V178.402H584.792V177.314ZM601.304 167.778H602.52V178.898H601.304V167.778ZM601.528 164.946L602.456 164.386C603.208 165.042 604.072 166.002 604.472 166.658L603.464 167.314C603.112 166.658 602.264 165.666 601.528 164.946ZM605.464 165.074H613.896V166.194H605.464V165.074ZM613.208 165.074H614.44V177.426C614.44 178.098 614.312 178.418 613.896 178.61C613.464 178.802 612.776 178.818 611.784 178.818C611.736 178.514 611.576 178.018 611.416 177.698C612.088 177.73 612.744 177.714 612.936 177.714C613.16 177.714 613.208 177.634 613.208 177.426V165.074ZM605.896 172.882V175.042H609.752V172.882H605.896ZM605.896 169.746V171.89H609.752V169.746H605.896ZM604.808 168.754H610.888V176.05H604.808V168.754Z" fill="#2D3342"/>
<path d="M388.622 250.531C388.311 250.531 388.044 250.421 387.821 250.201C387.597 249.978 387.485 249.709 387.485 249.394C387.485 249.084 387.597 248.819 387.821 248.599C388.044 248.376 388.311 248.264 388.622 248.264C388.932 248.264 389.2 248.376 389.423 248.599C389.646 248.819 389.758 249.084 389.758 249.394C389.758 249.603 389.705 249.794 389.599 249.968C389.497 250.139 389.36 250.275 389.19 250.377C389.02 250.48 388.83 250.531 388.622 250.531ZM393.153 250.531C392.842 250.531 392.575 250.421 392.352 250.201C392.128 249.978 392.017 249.709 392.017 249.394C392.017 249.084 392.128 248.819 392.352 248.599C392.575 248.376 392.842 248.264 393.153 248.264C393.464 248.264 393.731 248.376 393.954 248.599C394.178 248.819 394.289 249.084 394.289 249.394C394.289 249.603 394.236 249.794 394.13 249.968C394.028 250.139 393.892 250.275 393.721 250.377C393.551 250.48 393.361 250.531 393.153 250.531ZM397.684 250.531C397.374 250.531 397.107 250.421 396.883 250.201C396.66 249.978 396.548 249.709 396.548 249.394C396.548 249.084 396.66 248.819 396.883 248.599C397.107 248.376 397.374 248.264 397.684 248.264C397.995 248.264 398.262 248.376 398.485 248.599C398.709 248.819 398.821 249.084 398.821 249.394C398.821 249.603 398.768 249.794 398.662 249.968C398.559 250.139 398.423 250.275 398.253 250.377C398.082 250.48 397.893 250.531 397.684 250.531ZM407.858 237.831H414.29V244.615H407.858V243.575H413.138V238.887H407.858V237.831ZM407.938 240.695H413.698V241.751H407.938V240.695ZM407.298 237.831H408.434V250.567H407.298V237.831ZM405.986 250.247C407.378 250.023 409.458 249.591 411.522 249.191L411.602 250.263C409.762 250.679 407.81 251.095 406.338 251.415L405.986 250.247ZM414.338 245.159L415.154 246.055C414.146 246.839 412.882 247.751 411.922 248.327L411.33 247.607C412.242 247.015 413.586 245.927 414.338 245.159ZM410.77 243.991C411.458 247.095 412.978 249.671 415.458 250.743C415.186 250.983 414.818 251.415 414.642 251.751C412.034 250.455 410.514 247.671 409.746 244.199L410.77 243.991ZM400.77 240.423H406.418V241.559H400.77V240.423ZM403.186 236.983H404.322V251.687H403.186V236.983ZM403.122 241.127L403.89 241.399C403.362 243.959 402.21 247.095 401.01 248.711C400.882 248.391 400.594 247.911 400.386 247.639C401.522 246.199 402.642 243.431 403.122 241.127ZM404.242 242.855C404.658 243.303 406.194 245.255 406.514 245.735L405.778 246.679C405.378 245.879 404.13 244.055 403.65 243.415L404.242 242.855ZM422.834 237.687H430.722V241.831H422.866V240.791H429.57V238.743H422.834V237.687ZM422.274 237.687H423.442V242.535C423.442 245.223 423.202 249.127 421.442 251.703C421.234 251.495 420.738 251.143 420.45 251.031C422.114 248.567 422.274 245.079 422.274 242.535V237.687ZM422.914 243.591H431.266V244.647H422.914V243.591ZM424.194 250.071H430.114V251.063H424.194V250.071ZM426.546 241.703H427.698V247.079H426.546V241.703ZM423.682 246.631H430.77V251.655H429.666V247.655H424.754V251.719H423.682V246.631ZM416.418 245.495C417.666 245.143 419.57 244.567 421.41 243.975L421.57 245.079C419.874 245.639 418.098 246.215 416.722 246.663L416.418 245.495ZM416.61 240.215H421.554V241.335H416.61V240.215ZM418.626 236.999H419.73V250.215C419.73 250.871 419.586 251.191 419.186 251.383C418.818 251.575 418.194 251.607 417.186 251.607C417.138 251.319 416.994 250.823 416.834 250.487C417.538 250.503 418.146 250.503 418.338 250.503C418.53 250.503 418.626 250.439 418.626 250.199V236.999ZM434.77 238.071H445.25V251.463H443.986V239.287H436.002V251.527H434.77V238.071ZM435.586 243.623H444.514V244.807H435.586V243.623ZM435.57 249.287H444.546V250.487H435.57V249.287ZM457.714 237.783H462.162V238.887H457.714V237.783ZM457.714 241.463H462.162V242.535H457.714V241.463ZM457.698 245.191H462.194V246.279H457.698V245.191ZM461.618 237.783H462.786V250.183C462.786 250.871 462.626 251.239 462.162 251.431C461.714 251.623 460.962 251.655 459.778 251.655C459.746 251.319 459.57 250.791 459.41 250.487C460.258 250.503 461.058 250.503 461.298 250.487C461.538 250.487 461.618 250.407 461.618 250.167V237.783ZM457.218 237.783H458.354V243.591C458.354 246.055 458.162 249.511 456.722 251.783C456.514 251.559 456.034 251.207 455.762 251.095C457.106 248.951 457.218 245.911 457.218 243.591V237.783ZM448.77 239.127H456.434V240.183H448.77V239.127ZM450.658 241.607H454.706V242.583H450.658V241.607ZM450.658 244.151H454.722V245.111H450.658V244.151ZM448.562 246.727H456.434V247.799H448.562V246.727ZM450.13 237.175H451.234V247.159H450.13V237.175ZM454.146 237.175H455.25V247.159H454.146V237.175ZM450.786 248.151L451.938 248.471C451.346 249.687 450.418 250.919 449.554 251.719C449.33 251.527 448.866 251.175 448.578 251.015C449.474 250.295 450.306 249.223 450.786 248.151ZM453.09 248.647L454.018 248.151C454.642 248.871 455.394 249.863 455.714 250.519L454.738 251.095C454.434 250.455 453.714 249.399 453.09 248.647ZM468.322 251.319C467.282 250.055 465.906 248.695 464.77 247.767L465.81 246.855C466.962 247.783 468.402 249.223 469.41 250.391L468.322 251.319ZM490.114 236.983H491.25V248.135H490.114V236.983ZM485.074 243.591L493.698 239.959L494.146 240.983L485.538 244.647L485.074 243.591ZM486.802 238.487H487.954V249.191C487.954 250.071 488.146 250.263 489.218 250.263C489.746 250.263 492.434 250.263 493.074 250.263C494.018 250.263 494.178 249.831 494.29 247.991C494.578 248.183 495.042 248.375 495.378 248.439C495.186 250.647 494.802 251.351 493.122 251.351C492.69 251.351 489.586 251.351 489.186 251.351C487.346 251.351 486.802 250.919 486.802 249.175V238.487ZM493.49 240.119H493.346L493.634 239.879L493.842 239.703L494.69 240.023L494.642 240.247C494.642 243.255 494.594 245.655 494.482 246.279C494.386 246.919 494.082 247.223 493.618 247.335C493.186 247.447 492.546 247.447 492.114 247.447C492.066 247.127 491.97 246.679 491.826 246.407C492.194 246.423 492.722 246.423 492.898 246.423C493.138 246.423 493.298 246.359 493.378 245.991C493.474 245.575 493.49 243.303 493.49 240.119ZM480.61 240.839H485.698V241.975H480.61V240.839ZM482.674 237.175H483.81V247.559H482.674V237.175ZM480.466 247.975C481.762 247.495 483.73 246.663 485.634 245.847L485.89 246.919C484.178 247.735 482.37 248.551 480.946 249.159L480.466 247.975ZM503.218 236.983H504.434V242.439H503.218V236.983ZM499.73 242.999V245.863H508.098V242.999H499.73ZM498.594 241.863H509.314V246.983H498.594V241.863ZM503.778 238.695H510.514V239.831H503.778V238.695ZM501.378 248.375L502.53 248.279C502.754 249.319 502.93 250.631 502.946 251.415L501.714 251.575C501.714 250.759 501.586 249.415 501.378 248.375ZM504.69 248.391L505.778 248.167C506.274 249.127 506.802 250.423 506.994 251.239L505.81 251.527C505.65 250.727 505.17 249.399 504.69 248.391ZM507.954 248.263L509.026 247.863C509.842 248.855 510.77 250.215 511.154 251.111L510.018 251.575C509.65 250.695 508.77 249.287 507.954 248.263ZM498.786 247.959L499.922 248.247C499.394 249.495 498.578 250.855 497.714 251.703L496.61 251.159C497.458 250.439 498.29 249.143 498.786 247.959ZM520.882 248.519H525.842V249.671H520.882V248.519ZM520.434 238.487H526.402V250.887H525.186V239.623H521.602V250.999H520.434V238.487ZM515.89 238.343H517.09V251.687H515.89V238.343ZM512.754 241.719H519.89V242.839H512.754V241.719ZM515.826 242.119L516.674 242.423C515.922 244.903 514.45 247.863 513.01 249.399C512.882 249.063 512.578 248.583 512.37 248.295C513.714 246.919 515.186 244.327 515.826 242.119ZM518.962 237.143L519.778 238.071C518.066 238.711 515.442 239.175 513.25 239.431C513.186 239.159 513.042 238.759 512.898 238.487C515.026 238.199 517.57 237.719 518.962 237.143ZM516.994 243.159C517.506 243.671 519.362 245.847 519.778 246.375L519.042 247.351C518.53 246.503 516.978 244.455 516.386 243.751L516.994 243.159ZM534.786 246.151H541.154V247.079H534.786V246.151ZM533.298 238.247H542.802V239.159H533.298V238.247ZM533.682 240.183H542.402V241.063H533.682V240.183ZM532.802 242.183H543.266V243.095H532.802V242.183ZM534.786 248.295H541.202V249.191H534.786V248.295ZM533.97 244.039H541.154V244.967H535.09V251.687H533.97V244.039ZM540.866 244.039H542.018V250.359C542.018 250.967 541.89 251.287 541.442 251.463C540.994 251.639 540.274 251.655 539.138 251.639C539.09 251.351 538.93 250.903 538.786 250.599C539.586 250.631 540.354 250.631 540.578 250.615C540.802 250.615 540.866 250.551 540.866 250.343V244.039ZM537.394 236.983H538.578V242.471H537.394V236.983ZM530.37 236.983H531.474V251.687H530.37V236.983ZM529.106 240.071L530.002 240.199C529.954 241.447 529.682 243.303 529.314 244.503L528.386 244.199C528.754 243.095 529.01 241.335 529.106 240.071ZM531.618 239.655L532.418 239.335C532.77 240.071 533.154 241.015 533.298 241.607L532.466 242.007C532.306 241.399 531.938 240.407 531.618 239.655ZM554.754 244.103H555.922V249.831C555.922 250.295 556.002 250.391 556.434 250.391C556.626 250.391 557.554 250.391 557.81 250.391C558.242 250.391 558.322 250.039 558.37 247.895C558.626 248.103 559.122 248.295 559.442 248.391C559.314 250.823 559.026 251.463 557.922 251.463C557.666 251.463 556.514 251.463 556.274 251.463C555.058 251.463 554.754 251.095 554.754 249.831V244.103ZM545.09 238.679L545.906 237.911C546.93 238.679 548.114 239.799 548.674 240.583L547.778 241.479C547.266 240.679 546.098 239.495 545.09 238.679ZM544.594 248.999C545.49 247.767 546.802 245.623 547.778 243.783L548.594 244.615C547.698 246.327 546.514 248.375 545.538 249.863L544.594 248.999ZM550.978 238.887V243.223H557.09V238.887H550.978ZM549.81 237.751H558.29V244.375H549.81V237.751ZM551.666 244.039H552.882C552.674 247.879 552.098 250.375 548.578 251.703C548.434 251.431 548.098 250.983 547.842 250.775C551.074 249.607 551.506 247.447 551.666 244.039ZM560.722 237.863H566.722V238.967H560.722V237.863ZM562.482 242.631H566.178V249.495H562.482V248.407H565.074V243.703H562.482V242.631ZM562.802 238.343L563.954 238.503C563.458 241.879 562.61 245.015 561.138 247.095C561.01 246.855 560.626 246.311 560.386 246.055C561.714 244.231 562.402 241.367 562.802 238.343ZM561.954 242.631H563.026V250.839H561.954V242.631ZM567.954 246.695H574.194V247.751H567.954V246.695ZM568.034 243.863H574.178V244.823H568.034V243.863ZM568.034 241.079H574.178V242.119H568.034V241.079ZM570.482 241.559H571.554V247.143H570.482V241.559ZM573.618 241.079H574.77V250.327C574.77 250.999 574.642 251.351 574.178 251.527C573.746 251.735 572.978 251.751 571.874 251.751C571.826 251.415 571.666 250.919 571.506 250.599C572.322 250.631 573.106 250.631 573.33 250.631C573.554 250.615 573.618 250.551 573.618 250.327V241.079ZM567.394 241.079H568.498V245.319C568.498 247.319 568.21 249.991 566.514 251.751C566.354 251.527 565.89 251.127 565.65 250.983C567.202 249.383 567.394 247.111 567.394 245.303V241.079ZM569.154 236.983L570.258 237.255C569.522 239.335 568.338 241.367 567.074 242.679C566.882 242.487 566.434 242.071 566.178 241.895C567.41 240.711 568.514 238.855 569.154 236.983ZM569.154 238.327H572.37V239.335H568.658L569.154 238.327ZM572.002 238.327H572.274L572.45 238.263L573.234 238.791C572.77 239.799 572.002 240.967 571.41 241.719C571.202 241.559 570.834 241.335 570.578 241.191C571.106 240.487 571.73 239.335 572.002 238.551V238.327ZM579.33 241.879H588.658V243.031H579.33V241.879ZM583.938 245.703H589.33V246.839H583.938V245.703ZM583.298 242.471H584.546V250.567L583.298 250.407V242.471ZM579.506 244.407L580.754 244.535C580.306 247.767 579.298 250.215 577.49 251.783C577.298 251.575 576.786 251.159 576.498 250.983C578.29 249.591 579.154 247.303 579.506 244.407ZM580.258 246.471C581.394 249.735 583.89 250.295 587.138 250.295C587.73 250.295 590.498 250.295 591.282 250.279C591.09 250.567 590.882 251.143 590.834 251.495H587.074C583.266 251.495 580.658 250.743 579.282 246.839L580.258 246.471ZM583.282 236.999H584.546V239.591H583.282V236.999ZM577.266 238.823H590.642V242.311H589.41V239.975H578.45V242.311H577.266V238.823ZM592.786 239.751H607.106V240.903H592.786V239.751ZM598.018 243.543H604.418V244.695H598.018V243.543ZM603.986 243.543H605.218C605.218 243.543 605.202 243.943 605.17 244.119C604.85 248.727 604.53 250.503 603.906 251.143C603.538 251.527 603.138 251.639 602.53 251.687C601.97 251.719 600.914 251.687 599.826 251.639C599.81 251.287 599.634 250.791 599.41 250.455C600.562 250.567 601.698 250.567 602.114 250.567C602.466 250.567 602.69 250.551 602.866 250.391C603.378 249.927 603.698 248.135 603.97 243.751L603.986 243.543ZM597.746 240.391H599.074C598.834 244.631 598.37 249.431 593.49 251.767C593.314 251.463 592.93 251.031 592.626 250.791C597.298 248.679 597.57 244.215 597.746 240.391ZM599.266 236.951H600.498V240.247H599.266V236.951ZM609.522 239.751H621.698V240.935H610.706V251.703H609.522V239.751ZM621.25 239.751H622.45V250.119C622.45 250.903 622.274 251.303 621.714 251.495C621.138 251.687 620.13 251.719 618.674 251.719C618.61 251.367 618.434 250.807 618.242 250.471C619.41 250.519 620.514 250.519 620.85 250.503C621.17 250.487 621.25 250.407 621.25 250.103V239.751ZM614.962 236.951L616.45 237.207C615.954 238.343 615.346 239.639 614.866 240.487L613.714 240.215C614.162 239.319 614.69 237.927 614.962 236.951ZM612.818 243.047H613.922V249.495H612.818V243.047ZM613.33 243.047H619.09V248.343H613.33V247.271H617.97V244.135H613.33V243.047Z" fill="#2D3342"/>
<path d="M269.885 122.87L263.591 129.431C262.901 130.15 261.899 130.48 260.917 130.311L254.092 129.134C252.884 128.926 251.924 128.004 251.668 126.806L249.75 117.843C249.38 116.11 247.595 115.075 245.906 115.613L231.193 120.302C229.597 120.811 228.726 122.53 229.261 124.118L232.856 134.789C233.383 136.356 232.544 138.055 230.979 138.587L226.713 140.038C225.691 140.386 224.56 140.157 223.753 139.439L216.448 132.937C215.084 131.723 212.961 131.999 211.952 133.521L205.485 143.283C204.57 144.664 204.948 146.525 206.329 147.44L212.491 151.523C213.538 152.216 214.042 153.488 213.755 154.711L211.526 164.183C211.277 165.243 210.472 166.085 209.424 166.382L201.233 168.703C199.603 169.165 198.679 170.884 199.192 172.498L202.052 181.503C202.539 183.036 204.149 183.912 205.7 183.489L213.308 181.415C214.525 181.084 215.819 181.548 216.547 182.579L220.866 188.692C221.775 189.978 221.535 191.746 220.318 192.744L214.72 197.331C213.284 198.508 213.251 200.694 214.652 201.914L223.7 209.788C224.794 210.741 226.414 210.774 227.546 209.866L234.565 204.237C235.357 203.602 236.417 203.411 237.381 203.728L244.765 206.162C245.574 206.429 246.232 207.027 246.574 207.809L249.955 215.539C250.593 216.997 252.26 217.704 253.752 217.147L265.158 212.895C266.387 212.437 267.176 211.234 267.106 209.924L266.72 202.7C266.655 201.48 267.337 200.342 268.444 199.824L273.706 197.359C274.856 196.82 276.219 197.064 277.112 197.966L281.36 202.261C282.627 203.542 284.729 203.425 285.846 202.012L294.12 191.549C295.129 190.272 294.937 188.423 293.685 187.382L287.616 182.333C286.607 181.493 286.261 180.093 286.763 178.88L289.419 172.46C289.863 171.386 290.888 170.665 292.049 170.61L298.85 170.287C300.603 170.203 301.91 168.64 301.682 166.9L299.923 153.496C299.729 152.014 298.473 150.901 296.979 150.886L286.988 150.787C285.924 150.777 284.946 150.204 284.416 149.281L279.373 140.499C278.808 139.514 278.847 138.295 279.474 137.348L282.919 132.148C283.834 130.766 283.456 128.905 282.075 127.99L273.707 122.446C272.498 121.645 270.889 121.823 269.885 122.87Z" stroke="black" stroke-width="2"/>
<path d="M251.68 217.678L266.7 212.224C267.942 211.773 268.743 210.563 268.672 209.244L268.288 202.04C268.223 200.82 268.904 199.682 270.011 199.163L275.274 196.698C276.423 196.16 277.787 196.403 278.679 197.305L282.927 201.601C284.194 202.881 286.296 202.765 287.413 201.352L295.687 190.889C296.697 189.612 296.504 187.763 295.253 186.722L289.184 181.672C288.174 180.832 287.828 179.433 288.33 178.219L290.986 171.8C291.431 170.726 292.455 170.005 293.616 169.95L300.417 169.626C302.17 169.543 303.477 167.979 303.249 166.239L301.491 152.835C301.296 151.353 300.041 150.241 298.546 150.226L288.555 150.127C287.492 150.116 286.513 149.543 285.984 148.621L280.941 139.838C280.375 138.854 280.414 137.634 281.041 136.688L284.486 131.487C285.402 130.106 285.024 128.245 283.642 127.329L275.274 121.785C274.065 120.985 272.456 121.163 271.452 122.21L265.158 128.771C264.468 129.49 263.466 129.82 262.484 129.65L255.659 128.474C254.452 128.266 253.492 127.344 253.235 126.145L251.318 117.183C250.947 115.45 249.162 114.414 247.473 114.953L232.761 119.642C231.164 120.151 230.294 121.869 230.829 123.458L234.423 134.129C234.951 135.696 234.111 137.394 232.546 137.927L228.021 139.466C227.141 139.765 226.172 139.64 225.398 139.127L214.454 131.876" stroke="black" stroke-width="2" stroke-linecap="round"/>
<path d="M240.92 181.045C248.481 186.055 258.684 183.975 263.706 176.394C268.728 168.813 266.665 158.608 259.103 153.598C251.542 148.589 241.339 150.668 236.317 158.249C231.295 165.83 233.358 176.036 240.92 181.045Z" stroke="black" stroke-width="2"/>
<path d="M262.189 177.937C256.448 183.191 248.915 183.579 242.192 179.125C235.47 174.671 231.513 165.823 236.987 157.561" stroke="black" stroke-width="2" stroke-linecap="round"/>
<path d="M155.091 221.056C160.05 224.342 166.742 222.978 170.037 218.005C173.332 213.032 171.978 206.337 167.018 203.052C162.059 199.766 155.367 201.13 152.072 206.103C148.777 211.077 150.131 217.771 155.091 221.056Z" stroke="black" stroke-width="2"/>
<path d="M169.368 218.694C164.407 221.918 160.357 222.914 155.842 219.923C151.587 216.538 150.402 212.356 151.699 206.988" stroke="black" stroke-width="2" stroke-linecap="round"/>
<path d="M226.664 258.849C230.865 261.632 236.533 260.477 239.324 256.265C242.115 252.052 240.968 246.382 236.768 243.599C232.567 240.816 226.899 241.971 224.108 246.184C221.317 250.397 222.464 256.067 226.664 258.849Z" stroke="black" stroke-width="2"/>
<path d="M239.045 256.364C235 259.911 230.916 260.106 227.547 258.37C222.575 255.807 222.63 250.867 223.409 247.986" stroke="black" stroke-width="2" stroke-linecap="round"/>
<path d="M184.169 190.525L186.226 193.78C186.873 194.804 188.072 195.339 189.267 195.135L194.769 194.196C196.305 193.933 197.787 194.892 198.178 196.401L199.936 203.196C200.308 204.63 199.576 206.121 198.215 206.705L193.09 208.903C192.109 209.324 191.425 210.235 191.295 211.294L190.895 214.547C190.757 215.675 191.268 216.785 192.216 217.413L195.432 219.544C196.813 220.459 197.191 222.321 196.276 223.702L190.988 231.683C190.073 233.064 188.212 233.442 186.831 232.527L185.187 231.438C184.139 230.744 182.768 230.777 181.754 231.521L177.62 234.557C176.515 235.369 176.1 236.827 176.614 238.098L178.168 241.948C178.859 243.66 177.855 245.583 176.055 245.995L168.462 247.734C166.966 248.076 165.453 247.235 164.955 245.784L163.588 241.8C163.195 240.655 162.153 239.859 160.945 239.78L156.837 239.512C155.904 239.451 154.996 239.829 154.382 240.534L150.129 245.407C149.103 246.583 147.348 246.776 146.091 245.851L139.165 240.755C137.823 239.768 137.542 237.877 138.54 236.542L140.529 233.883C141.232 232.942 141.322 231.677 140.759 230.647L137.956 225.522C137.295 224.312 135.893 223.709 134.559 224.061L130.953 225.012C129.439 225.411 127.874 224.579 127.356 223.103L125.718 218.425C125.144 216.787 126.076 215.005 127.749 214.542L131.762 213.431C133.079 213.066 133.983 211.857 133.961 210.491L133.871 204.979C133.857 204.136 133.489 203.337 132.857 202.779L129.656 199.951C128.424 198.864 128.296 196.988 129.369 195.744L134.25 190.082C135.236 188.938 136.92 188.706 138.179 189.54L140.959 191.382C142.077 192.122 143.549 192.032 144.567 191.16L146.99 189.086C147.672 188.503 148.057 187.645 148.039 186.748L147.897 179.444C147.869 178.012 148.856 176.761 150.255 176.455L156.487 175.091C158.103 174.738 159.7 175.759 160.057 177.375L160.871 181.059C161.174 182.43 162.388 183.407 163.792 183.411L169.642 183.428C170.651 183.431 171.594 182.926 172.151 182.085L174.142 179.079C174.958 177.848 176.549 177.394 177.892 178.008L183.871 180.744C185.383 181.437 186.044 183.228 185.343 184.737L183.985 187.658C183.555 188.583 183.624 189.663 184.169 190.525Z" stroke="black" stroke-width="2"/>
<path d="M129.84 225.058L127.285 217.765C126.712 216.127 127.643 214.345 129.316 213.882L133.329 212.771C134.646 212.406 135.55 211.197 135.528 209.831L135.439 204.319C135.425 203.475 135.057 202.677 134.425 202.119L131.223 199.291C129.992 198.204 129.864 196.328 130.937 195.084L135.817 189.422C136.804 188.278 138.487 188.045 139.746 188.88L142.527 190.722C143.644 191.462 145.116 191.371 146.134 190.5L148.558 188.426C149.239 187.843 149.624 186.985 149.606 186.088L149.464 178.784C149.436 177.352 150.424 176.101 151.822 175.795L158.054 174.431C159.67 174.078 161.268 175.099 161.625 176.715L162.439 180.399C162.742 181.77 163.955 182.747 165.36 182.751L171.209 182.768C172.219 182.771 173.161 182.266 173.719 181.425L175.71 178.419C176.526 177.188 178.116 176.733 179.459 177.348L185.438 180.084C186.951 180.777 187.611 182.568 186.91 184.077L185.552 186.998C185.122 187.923 185.192 189.003 185.737 189.865L187.891 193.275C188.488 194.219 189.56 194.754 190.673 194.663L197.226 194.125" stroke="black" stroke-width="2" stroke-linecap="round"/>
<path d="M209.199 269.969L212.454 268.472C213.397 268.038 214.498 268.123 215.364 268.697L218.559 270.814C219.583 271.491 220.09 272.724 219.839 273.926L219.465 275.722C219.172 277.133 219.923 278.554 221.254 279.105L224.655 280.514C225.981 281.063 227.511 280.596 228.304 279.399L231.064 275.234C231.585 274.447 232.445 273.952 233.387 273.896L235.715 273.757C236.954 273.684 238.111 274.381 238.625 275.512L240.109 278.781C240.831 280.373 242.756 281.012 244.287 280.169L248.235 277.997C249.655 277.215 250.198 275.447 249.46 274.003L247.645 270.452C247.152 269.488 247.218 268.333 247.816 267.43L250.407 263.519C251.09 262.488 252.335 261.982 253.543 262.244L257.716 263.149C259.248 263.481 260.778 262.578 261.226 261.075L262.742 256.002C263.245 254.316 262.197 252.562 260.475 252.205L257.488 251.588C256.044 251.289 255.031 249.986 255.098 248.513L255.273 244.675C255.325 243.542 256.012 242.535 257.047 242.073L257.941 241.674C259.564 240.949 260.205 238.981 259.32 237.44L257.168 233.692C256.364 232.292 254.596 231.779 253.167 232.532L249.922 234.242C248.953 234.753 247.781 234.694 246.867 234.088L243.27 231.705C242.4 231.129 241.893 230.143 241.928 229.101L242.027 226.232C242.079 224.719 240.995 223.404 239.5 223.166L236.348 222.665C234.833 222.424 233.381 223.364 232.981 224.845L232.358 227.15C231.995 228.494 230.755 229.411 229.364 229.366L226.397 229.27C225.264 229.233 224.248 228.56 223.772 227.53L222.753 225.327C222.072 223.853 220.341 223.189 218.849 223.828L214.728 225.593C213.092 226.294 212.423 228.257 213.289 229.811L214.781 232.488C215.327 233.468 215.281 234.67 214.661 235.606L211.662 240.132C210.944 241.217 209.607 241.715 208.354 241.364L206.145 240.747C204.478 240.281 202.763 241.32 202.403 243.013L201.387 247.8C201.057 249.35 201.99 250.888 203.516 251.313L206.859 252.244C208.087 252.586 208.965 253.667 209.048 254.939L209.167 256.769C209.254 258.106 208.444 259.338 207.183 259.789L204.854 260.621C203.116 261.242 202.345 263.27 203.232 264.888L205.314 268.686C206.071 270.067 207.768 270.628 209.199 269.969Z" stroke="black" stroke-width="2"/>
<path d="M203.711 241.048L202.564 247.48C202.293 249.001 203.222 250.479 204.71 250.895L207.954 251.802C209.179 252.145 210.055 253.223 210.14 254.492L210.251 256.159C210.341 257.499 209.528 258.736 208.263 259.186L206.151 259.936C204.409 260.556 203.636 262.588 204.527 264.209L206.488 267.774C207.245 269.151 208.937 269.71 210.366 269.056L213.443 267.646C214.386 267.214 215.485 267.3 216.349 267.873L219.401 269.894C220.423 270.572 220.93 271.803 220.682 273.003L220.342 274.642C220.051 276.051 220.801 277.469 222.13 278.021L225.343 279.354C226.67 279.905 228.201 279.438 228.994 278.24L231.617 274.281C232.139 273.493 233.002 272.997 233.945 272.943L236.132 272.816C237.368 272.745 238.521 273.44 239.034 274.567L240.44 277.65C241.164 279.237 243.083 279.875 244.612 279.036L248.319 277.004C249.744 276.222 250.287 274.449 249.546 273.004L247.828 269.654C247.333 268.689 247.397 267.532 247.996 266.628L250.423 262.964C251.123 261.907 252.413 261.404 253.644 261.709L258.226 262.843" stroke="black" stroke-width="2" stroke-linecap="round"/>
<path d="M183.619 156.096C180.591 155.003 174.169 154.533 169.285 153.634C168.192 153.433 166.718 155.525 167.374 156.422C170.962 161.339 174.05 166.052 175.725 168.011C177.896 170.551 184.473 175.27 188.809 168.45C193.146 161.63 187.156 157.372 183.619 156.096Z" fill="url(#paint1_linear_1020_6510)"/>
<path d="M149.627 151.56C147.89 150.936 144.515 150.619 141.501 150.175C140.402 150.013 138.859 152.293 139.502 153.198C141.518 156.038 143.216 158.596 144.2 159.752C145.68 161.489 150.168 164.711 153.15 160.023C156.132 155.335 152.044 152.427 149.627 151.56Z" fill="url(#paint2_linear_1020_6510)"/>
<path d="M128.288 143.36L114.007 142.559C112.991 142.502 111.981 142.756 111.114 143.288L88.3062 157.268C86.5817 158.325 85.6285 160.361 86.5817 162.145C87.0836 163.085 87.7671 164.074 88.6702 164.974C90.1234 166.423 92.4203 166.067 93.9545 164.704L111.378 149.227C112.315 148.394 113.531 147.944 114.784 147.966L127.1 148.177" stroke="black" stroke-width="2" stroke-linecap="round"/>
<path d="M127.03 149.284C124.902 148.431 126.223 143.185 127.997 142.134C129.514 141.47 130.242 143.622 129.71 146.051C129.284 147.995 127.779 149.78 127.03 149.284Z" fill="black"/>
<path d="M85.9366 158.893C80.7301 155.823 67.5639 152.969 54.8024 164.581C53.5115 165.756 53.034 167.58 53.633 169.219C56.1768 176.181 62.6329 187.513 74.2429 194.043C76.0319 195.049 78.2543 194.656 79.6551 193.155C86.254 186.089 94.5552 174.413 91.2306 166.929" stroke="black" stroke-width="2" stroke-linecap="round"/>
<defs>
<linearGradient id="paint0_linear_1020_6510" x1="271.106" y1="32.9194" x2="344.399" y2="59.1293" gradientUnits="userSpaceOnUse">
<stop stop-color="#5955B3"/>
<stop offset="1" stop-color="#6563CE"/>
</linearGradient>
<linearGradient id="paint1_linear_1020_6510" x1="180.742" y1="153.767" x2="172.402" y2="166.357" gradientUnits="userSpaceOnUse">
<stop offset="0.16" stop-color="#4440C9"/>
<stop offset="0.74" stop-color="#6663CF"/>
</linearGradient>
<linearGradient id="paint2_linear_1020_6510" x1="147.665" y1="149.969" x2="141.931" y2="158.624" gradientUnits="userSpaceOnUse">
<stop offset="0.16" stop-color="#343269"/>
<stop offset="0.74" stop-color="#6663CF"/>
</linearGradient>
</defs>
</svg>
