<svg width="751" height="409" viewBox="0 0 751 409" fill="none" xmlns="http://www.w3.org/2000/svg">
<rect width="751" height="408" fill="white"/>
<path opacity="0.2" fill-rule="evenodd" clip-rule="evenodd" d="M749.851 388.241C749.813 399.213 740.941 408.103 729.976 408.17H434C446.534 373.263 498.889 303.449 608.04 303.449C717.192 303.449 748.061 249.15 749.851 222V388.241Z" fill="#79A4E2"/>
<path opacity="0.2" fill-rule="evenodd" clip-rule="evenodd" d="M210.762 0C208.095 18.1564 191.746 69.2135 124.397 92.3731C59.054 114.843 16.0075 107.116 3.85541e-05 99.853L3.21273e-05 20C3.12383e-05 8.95433 8.95433 1.91637e-05 20 1.81148e-05L210.762 0Z" fill="#6EA3E6"/>
<path d="M359.814 67.6386H387.174V72.3586H359.814V67.6386ZM370.694 37.5186H375.694V70.5186H370.694V37.5186ZM357.454 57.6386H362.334V74.6786H357.454V57.6386ZM384.614 57.6386H389.614V74.6386H384.614V57.6386ZM359.054 40.8786H363.854V50.8386H382.934V40.8786H388.014V55.4786H359.054V40.8786ZM411.134 50.7986H416.214V69.1186C416.214 71.8386 415.534 73.1586 413.534 73.8786C411.574 74.5986 408.694 74.6786 404.854 74.6786C404.574 73.2786 403.654 71.1186 402.894 69.7986C405.734 69.9186 409.014 69.9186 409.934 69.9186C410.814 69.9186 411.134 69.6786 411.134 68.9986V50.7986ZM397.454 39.9186H425.414V44.6386H397.454V39.9186ZM423.614 39.9186H424.894L426.054 39.5986L429.814 42.3986C426.214 46.7986 420.934 51.8786 416.014 54.9586C415.254 53.9186 413.694 52.3186 412.734 51.5586C416.894 48.9186 421.614 44.1186 423.614 41.0786V39.9186ZM450.814 37.1186H455.694V50.9986H450.814V37.1186ZM444.134 53.3586V58.4786H462.534V53.3586H444.134ZM439.574 48.8786H467.414V62.9186H439.574V48.8786ZM453.054 40.6386H470.054V45.1186H453.054V40.6386ZM446.214 65.9586L450.774 65.5186C451.374 68.2386 451.814 71.7186 451.894 73.8386L447.014 74.4386C447.014 72.2786 446.694 68.7186 446.214 65.9586ZM454.454 65.9986L458.814 65.0386C460.054 67.5586 461.374 70.8786 461.894 73.0386L457.174 74.1986C456.774 72.1186 455.574 68.6386 454.454 65.9986ZM462.574 65.7586L466.894 64.1986C468.814 66.7586 471.134 70.2786 472.134 72.5986L467.494 74.3986C466.654 72.1186 464.494 68.4386 462.574 65.7586ZM439.614 64.5186L444.214 65.6786C443.094 68.9186 441.134 72.3586 439.054 74.5586L434.614 72.3586C436.534 70.6386 438.494 67.4386 439.614 64.5186ZM476.414 46.7586H481.174V74.6386H476.414V46.7586ZM476.694 39.6786L480.174 37.3986C482.134 39.3986 484.974 42.3186 486.334 44.0786L482.654 46.7186C481.374 44.8786 478.654 41.8786 476.694 39.6786ZM487.294 39.1186H509.054V43.5586H487.294V39.1186ZM505.694 39.1186H510.494V68.9186C510.494 71.5586 509.934 72.8386 508.374 73.6386C506.774 74.3986 504.414 74.4786 501.014 74.4786C500.854 73.1186 500.134 70.9986 499.534 69.7186C501.574 69.8786 504.054 69.8386 504.734 69.8386C505.454 69.8386 505.694 69.5586 505.694 68.8786V39.1186ZM488.134 49.4386H500.814V64.7186H488.134V60.4386H496.174V53.7186H488.134V49.4386ZM485.734 49.4386H490.054V66.9586H485.734V49.4386ZM521.294 46.7986V48.7186H527.174V46.7986H521.294ZM521.294 41.8786V43.7586H527.174V41.8786H521.294ZM517.054 38.6786H531.614V51.9586H517.054V38.6786ZM515.174 54.2386H533.334V57.7586H515.174V54.2386ZM533.214 38.7586H552.014V42.5186H533.214V38.7586ZM522.694 55.3586H526.734V71.4386L522.694 69.1586V55.3586ZM524.734 60.9986H532.494V64.4386H524.734V60.9986ZM540.774 39.6786L545.574 40.6786C544.494 42.9986 543.414 45.3586 542.574 46.9186L538.814 45.9186C539.534 44.1586 540.374 41.5186 540.774 39.6786ZM520.254 62.6786C522.454 69.3986 527.414 70.0786 535.534 70.1186C538.214 70.1186 549.174 70.1186 552.454 69.9586C551.814 70.8786 551.094 72.7186 550.894 73.9186H535.494C525.654 73.9186 520.214 72.5586 517.414 63.5186L520.254 62.6786ZM534.494 45.3986H550.494V61.9186H546.454V48.7986H538.374V62.1986H534.494V45.3986ZM517.174 59.1586L521.094 59.3986C520.854 65.7986 520.054 71.1186 517.534 74.6786C516.854 74.0786 515.134 72.9186 514.214 72.4386C516.574 69.3986 517.094 64.5986 517.174 59.1586ZM540.614 50.4386H544.574C544.334 61.2386 543.294 66.9586 533.774 69.8786C533.414 68.9586 532.414 67.4786 531.614 66.7586C539.934 64.3586 540.414 59.9186 540.614 50.4386ZM542.654 64.3586L545.294 61.7586C547.494 63.2786 550.614 65.5986 552.174 67.0786L549.414 70.0386C547.934 68.4786 544.934 66.0386 542.654 64.3586ZM561.174 61.1986C564.774 61.1986 567.654 64.0786 567.654 67.6386C567.654 71.2386 564.774 74.1186 561.174 74.1186C557.614 74.1186 554.694 71.2386 554.694 67.6386C554.694 64.0786 557.614 61.1986 561.174 61.1986ZM561.174 71.2386C563.174 71.2386 564.774 69.6386 564.774 67.6386C564.774 65.6786 563.174 64.0786 561.174 64.0786C559.214 64.0786 557.574 65.6786 557.574 67.6386C557.574 69.6386 559.214 71.2386 561.174 71.2386Z" fill="url(#paint0_linear_1020_6462)"/>
<path d="M412.651 168.909H417.659V170.045H412.651V168.909ZM411.995 158.669H418.267V171.021H417.083V159.821H413.147V171.261H411.995V158.669ZM404.187 160.221H410.139V161.373H404.187V160.221ZM406.907 156.941L408.075 157.085C407.371 160.285 406.283 164.621 405.483 167.277L404.459 166.781C405.227 164.317 406.283 159.997 406.907 156.941ZM405.019 166.173L405.675 165.293C407.755 166.365 410.219 168.045 411.355 169.357L410.651 170.381C409.531 169.053 407.083 167.293 405.019 166.173ZM409.803 160.221H409.995L410.219 160.189L410.955 160.333C410.459 166.781 408.475 170.013 405.147 171.677C404.987 171.389 404.667 170.941 404.411 170.685C407.451 169.357 409.355 166.157 409.803 160.477V160.221ZM420.475 165.437H434.523V166.557H420.475V165.437ZM426.859 158.109H428.123V171.661H426.859V158.109ZM426.427 165.917L427.435 166.349C425.947 168.397 423.291 170.221 420.891 171.133C420.715 170.845 420.331 170.397 420.075 170.157C422.443 169.373 425.083 167.677 426.427 165.917ZM428.491 165.869C429.883 167.581 432.603 169.277 434.939 170.061C434.667 170.301 434.299 170.765 434.107 171.069C431.787 170.141 429.067 168.269 427.531 166.301L428.491 165.869ZM423.259 161.373V163.053H431.771V161.373H423.259ZM423.259 158.749V160.397H431.771V158.749H423.259ZM422.027 157.725H433.051V164.077H422.027V157.725ZM442.987 156.957L444.091 157.229C443.467 158.941 442.427 160.573 441.307 161.661C441.131 161.453 440.683 161.069 440.411 160.893C441.499 159.949 442.443 158.493 442.987 156.957ZM442.923 160.989L444.043 161.277C443.547 162.541 442.715 163.789 441.915 164.621C441.691 164.445 441.211 164.141 440.939 163.997C441.771 163.229 442.491 162.109 442.923 160.989ZM442.827 158.525H449.771V159.581H442.411L442.827 158.525ZM445.179 159.245H446.331V164.813C446.331 165.421 446.219 165.741 445.771 165.917C445.355 166.093 444.699 166.109 443.691 166.109C443.627 165.789 443.467 165.341 443.291 165.037C444.043 165.069 444.715 165.069 444.923 165.053C445.131 165.037 445.179 164.989 445.179 164.813V159.245ZM447.211 161.341L448.203 160.909C448.987 161.949 449.771 163.357 450.107 164.285L449.067 164.781C448.747 163.837 447.963 162.381 447.211 161.341ZM449.435 158.525H449.627L449.819 158.493L450.651 158.701C450.251 159.709 449.755 160.877 449.371 161.581L448.331 161.373C448.699 160.701 449.131 159.597 449.435 158.701V158.525ZM440.283 166.893H441.467V169.789C441.467 170.221 441.627 170.301 442.475 170.301C442.875 170.301 444.875 170.301 445.403 170.301C446.107 170.301 446.219 170.093 446.299 168.509C446.555 168.717 447.035 168.893 447.371 168.973C447.227 170.909 446.859 171.389 445.483 171.389C445.115 171.389 442.731 171.389 442.379 171.389C440.715 171.389 440.283 171.053 440.283 169.789V166.893ZM441.659 166.413L442.459 165.693C443.483 166.189 444.715 167.005 445.291 167.645L444.427 168.429C443.883 167.789 442.699 166.925 441.659 166.413ZM446.923 167.389L447.915 166.829C449.099 167.837 450.347 169.277 450.843 170.365L449.771 170.973C449.307 169.917 448.123 168.413 446.923 167.389ZM438.331 167.085L439.403 167.437C439.003 168.877 438.379 170.301 437.115 171.149L436.123 170.461C437.307 169.709 437.995 168.429 438.331 167.085ZM439.867 156.941L440.939 157.309C439.899 159.293 438.283 161.261 436.731 162.525C436.587 162.285 436.187 161.805 435.947 161.597C437.451 160.461 438.955 158.701 439.867 156.941ZM438.395 159.949L439.531 158.813L439.547 158.829V166.093H438.395V159.949ZM452.507 159.021H466.523V160.157H452.507V159.021ZM456.411 164.733H463.931V165.773H456.411V164.733ZM455.563 162.013H463.739V163.085H456.747V171.661H455.563V162.013ZM463.467 162.013H464.635V170.173C464.635 170.877 464.491 171.245 463.947 171.437C463.435 171.629 462.539 171.629 461.163 171.629C461.115 171.293 460.939 170.797 460.763 170.461C461.835 170.509 462.811 170.493 463.099 170.493C463.371 170.477 463.467 170.397 463.467 170.157V162.013ZM457.739 156.941L458.955 157.229C457.867 160.749 455.947 164.301 452.891 166.445C452.731 166.173 452.363 165.757 452.123 165.517C454.987 163.549 456.875 160.157 457.739 156.941ZM456.411 167.437H463.931V168.477H456.411V167.437ZM481.307 157.341L482.203 158.349C479.867 159.149 476.283 159.741 473.243 160.109C473.195 159.821 473.019 159.373 472.891 159.085C475.867 158.701 479.339 158.061 481.307 157.341ZM472.347 163.805H482.859V164.957H472.347V163.805ZM472.971 169.901H482.603V171.053H472.971V169.901ZM477.115 159.117H478.315V170.221H477.115V159.117ZM470.459 161.197L471.643 160.013L471.659 160.045V171.661H470.459V161.197ZM472.203 156.957L473.371 157.325C472.235 160.109 470.443 162.877 468.571 164.701C468.443 164.413 468.075 163.789 467.835 163.485C469.563 161.917 471.211 159.469 472.203 156.957ZM488.923 158.509H498.891V159.661H488.923V158.509ZM496.523 158.925H497.723V170.013C497.723 170.877 497.499 171.229 496.923 171.437C496.331 171.629 495.275 171.661 493.707 171.645C493.643 171.309 493.451 170.765 493.275 170.413C494.555 170.461 495.723 170.445 496.091 170.429C496.427 170.413 496.523 170.333 496.523 170.013V158.925ZM489.403 161.917H490.523V168.573H489.403V161.917ZM489.915 161.917H494.427V167.453H489.915V166.381H493.291V162.989H489.915V161.917ZM487.755 156.957L488.891 157.309C487.931 159.981 486.395 162.685 484.763 164.461C484.651 164.189 484.299 163.549 484.091 163.277C485.563 161.741 486.923 159.357 487.755 156.957ZM486.251 161.133L487.435 159.965L487.451 159.981V171.645H486.251V161.133ZM503.819 170.205H512.283V171.133H503.819V170.205ZM506.875 160.189H508.043V161.965H506.875V160.189ZM500.795 161.437H514.315V164.445H513.131V162.397H501.947V164.445H500.795V161.437ZM503.755 163.389H511.963V166.605H503.755V165.677H510.779V164.301H503.755V163.389ZM503.803 167.709H512.987V171.645H511.803V168.653H503.803V167.709ZM503.115 163.389H504.267V171.677H503.115V163.389ZM502.107 158.173H507.275V159.165H502.107V158.173ZM508.347 158.173H514.811V159.165H508.347V158.173ZM502.411 156.877L503.547 157.165C502.955 158.573 502.011 159.965 501.083 160.877C500.859 160.701 500.379 160.365 500.091 160.221C501.051 159.389 501.915 158.125 502.411 156.877ZM508.715 156.877L509.851 157.149C509.275 158.541 508.267 159.837 507.259 160.669C507.019 160.493 506.523 160.205 506.219 160.061C507.275 159.293 508.203 158.109 508.715 156.877ZM503.003 158.925L504.043 158.653C504.411 159.213 504.827 159.997 504.987 160.493L503.899 160.813C503.755 160.317 503.371 159.517 503.003 158.925ZM509.787 158.941L510.843 158.621C511.339 159.181 511.915 159.965 512.155 160.493L511.067 160.845C510.843 160.333 510.299 159.517 509.787 158.941ZM523.099 161.757V163.821H529.051V161.757H523.099ZM523.099 158.733V160.765H529.051V158.733H523.099ZM522.011 157.693H530.203V164.861H522.011V157.693ZM521.803 166.733H530.427V167.837H521.803V166.733ZM520.571 170.045H530.955V171.133H520.571V170.045ZM516.219 158.029H521.211V159.165H516.219V158.029ZM516.395 162.653H520.987V163.789H516.395V162.653ZM516.059 168.781C517.355 168.429 519.275 167.805 521.131 167.181L521.339 168.333C519.595 168.925 517.771 169.533 516.347 170.013L516.059 168.781ZM518.219 158.477H519.371V168.397L518.219 168.621V158.477ZM525.547 158.189H526.603V164.349H526.683V170.541H525.467V164.349H525.547V158.189ZM533.611 157.709H534.827V162.397C534.827 165.101 534.619 169.021 533.051 171.629C532.827 171.453 532.283 171.149 531.979 171.037C533.483 168.509 533.611 164.941 533.611 162.397V157.709ZM534.459 157.709H545.659V161.725H534.459V160.685H544.459V158.765H534.459V157.709ZM536.363 163.101H545.467V164.157H536.363V163.101ZM535.323 165.837H546.571V166.909H535.323V165.837ZM542.459 167.805L543.499 167.357C544.395 168.589 545.531 170.301 546.059 171.277L544.955 171.821C544.443 170.813 543.355 169.069 542.459 167.805ZM536.107 171.421C536.027 171.165 535.819 170.605 535.675 170.301C535.947 170.237 536.251 169.949 536.603 169.565C536.971 169.165 538.139 167.661 538.875 166.205L540.235 166.557C539.259 168.141 538.027 169.725 536.891 170.781V170.813C536.891 170.813 536.107 171.181 536.107 171.421ZM536.107 171.421L536.059 170.541L536.827 170.141L544.523 169.677C544.587 169.997 544.699 170.413 544.779 170.653C537.387 171.165 536.603 171.229 536.107 171.421ZM548.331 162.749H562.683V163.901H548.331V162.749ZM549.323 158.013H561.755V159.165H549.323V158.013ZM555.675 164.557H556.923V169.661C556.923 170.205 557.083 170.317 557.931 170.317C558.299 170.317 560.251 170.317 560.763 170.317C561.563 170.317 561.675 169.965 561.771 167.757C562.059 167.981 562.603 168.189 562.939 168.253C562.763 170.829 562.395 171.501 560.843 171.501C560.475 171.501 558.155 171.501 557.803 171.501C556.139 171.501 555.675 171.101 555.675 169.661V164.557ZM554.667 158.477H555.883C555.771 164.653 555.611 169.517 548.907 171.709C548.763 171.389 548.411 170.941 548.139 170.685C554.587 168.717 554.587 164.253 554.667 158.477ZM568.411 163.677H578.699V164.813H568.411V163.677ZM569.227 159.565H577.947V160.717H569.227V159.565ZM572.891 156.957H574.123V164.493H572.891V156.957ZM568.427 169.709C570.603 169.613 574.091 169.421 577.403 169.229V170.317C574.219 170.557 570.875 170.781 568.603 170.925L568.427 169.709ZM574.875 166.973L575.899 166.445C577.115 167.869 578.443 169.773 578.971 171.069L577.851 171.693C577.355 170.429 576.075 168.429 574.875 166.973ZM571.819 164.429L573.115 164.797C572.411 166.653 571.451 168.941 570.651 170.397L569.595 170.029C570.379 168.541 571.323 166.141 571.819 164.429ZM564.955 157.949L565.627 157.053C566.715 157.453 568.091 158.141 568.779 158.701L568.091 159.709C567.419 159.133 566.075 158.381 564.955 157.949ZM564.107 162.365L564.731 161.437C565.819 161.789 567.227 162.413 567.947 162.925L567.291 163.933C566.603 163.421 565.227 162.749 564.107 162.365ZM564.667 170.685C565.483 169.453 566.683 167.341 567.563 165.533L568.459 166.285C567.659 167.981 566.603 169.981 565.707 171.469L564.667 170.685ZM580.539 158.221H588.027V159.197H580.539V158.221ZM580.283 162.557H588.123V163.517H580.283V162.557ZM580.891 160.365H587.707V161.309H580.891V160.365ZM588.843 157.613H593.467V158.653H589.995V165.549H588.843V157.613ZM593.227 157.613H593.467L593.659 157.565L594.491 158.077C593.899 158.909 593.179 159.885 592.523 160.685C593.883 161.533 594.347 162.301 594.363 163.021C594.379 163.709 594.091 164.157 593.579 164.445C593.307 164.589 592.923 164.669 592.619 164.717C592.059 164.765 591.371 164.765 590.747 164.717C590.731 164.413 590.571 163.981 590.363 163.693C591.051 163.773 591.643 163.773 592.107 163.741C592.331 163.725 592.587 163.677 592.763 163.613C593.051 163.501 593.179 163.277 593.179 162.925C593.163 162.349 592.651 161.645 591.227 160.845C591.979 159.853 592.763 158.653 593.227 157.837V157.613ZM583.867 156.941H585.083V161.693C585.083 162.973 584.331 165.133 581.435 166.269C581.243 166.029 580.875 165.629 580.603 165.405C583.211 164.525 583.867 162.717 583.867 161.677V156.941ZM586.827 164.941H588.075V171.645H586.827V164.941ZM581.899 166.205H592.635V167.293H583.099V170.797H581.899V166.205ZM592.123 166.205H593.339V169.485C593.339 170.093 593.195 170.413 592.683 170.589C592.171 170.765 591.323 170.765 589.979 170.765C589.899 170.445 589.723 170.029 589.563 169.725C590.571 169.757 591.515 169.757 591.787 169.741C592.059 169.725 592.123 169.661 592.123 169.469V166.205ZM602.955 160.573H609.723V161.709H602.955V160.573ZM609.211 160.573H610.363C610.363 160.573 610.347 161.021 610.347 161.181C610.187 167.949 610.043 170.237 609.515 170.925C609.195 171.357 608.859 171.485 608.347 171.533C607.851 171.581 606.987 171.565 606.139 171.533C606.107 171.181 605.979 170.685 605.771 170.381C606.699 170.445 607.531 170.445 607.867 170.445C608.139 170.461 608.315 170.413 608.459 170.205C608.891 169.709 609.067 167.373 609.211 160.829V160.573ZM605.611 156.957H606.779C606.763 163.085 606.747 168.781 602.299 171.693C602.123 171.405 601.723 171.005 601.419 170.813C605.691 168.157 605.595 162.781 605.611 156.957ZM597.195 157.725H602.411V168.141H601.291V158.829H598.267V169.165H597.195V157.725ZM596.043 168.877C597.819 168.525 600.635 167.933 603.291 167.341L603.403 168.429C600.859 169.037 598.171 169.661 596.251 170.093L596.043 168.877ZM597.755 161.165H601.819V162.253H597.755V161.165ZM597.755 164.589H601.819V165.661H597.755V164.589ZM618.987 156.957L620.091 157.229C619.467 158.941 618.427 160.573 617.307 161.661C617.131 161.453 616.683 161.069 616.411 160.893C617.499 159.949 618.443 158.493 618.987 156.957ZM618.923 160.989L620.043 161.277C619.547 162.541 618.715 163.789 617.915 164.621C617.691 164.445 617.211 164.141 616.939 163.997C617.771 163.229 618.491 162.109 618.923 160.989ZM618.827 158.525H625.771V159.581H618.411L618.827 158.525ZM621.179 159.245H622.331V164.813C622.331 165.421 622.219 165.741 621.771 165.917C621.355 166.093 620.699 166.109 619.691 166.109C619.627 165.789 619.467 165.341 619.291 165.037C620.043 165.069 620.715 165.069 620.923 165.053C621.131 165.037 621.179 164.989 621.179 164.813V159.245ZM623.211 161.341L624.203 160.909C624.987 161.949 625.771 163.357 626.107 164.285L625.067 164.781C624.747 163.837 623.963 162.381 623.211 161.341ZM625.435 158.525H625.627L625.819 158.493L626.651 158.701C626.251 159.709 625.755 160.877 625.371 161.581L624.331 161.373C624.699 160.701 625.131 159.597 625.435 158.701V158.525ZM616.283 166.893H617.467V169.789C617.467 170.221 617.627 170.301 618.475 170.301C618.875 170.301 620.875 170.301 621.403 170.301C622.107 170.301 622.219 170.093 622.299 168.509C622.555 168.717 623.035 168.893 623.371 168.973C623.227 170.909 622.859 171.389 621.483 171.389C621.115 171.389 618.731 171.389 618.379 171.389C616.715 171.389 616.283 171.053 616.283 169.789V166.893ZM617.659 166.413L618.459 165.693C619.483 166.189 620.715 167.005 621.291 167.645L620.427 168.429C619.883 167.789 618.699 166.925 617.659 166.413ZM622.923 167.389L623.915 166.829C625.099 167.837 626.347 169.277 626.843 170.365L625.771 170.973C625.307 169.917 624.123 168.413 622.923 167.389ZM614.331 167.085L615.403 167.437C615.003 168.877 614.379 170.301 613.115 171.149L612.123 170.461C613.307 169.709 613.995 168.429 614.331 167.085ZM615.867 156.941L616.939 157.309C615.899 159.293 614.283 161.261 612.731 162.525C612.587 162.285 612.187 161.805 611.947 161.597C613.451 160.461 614.955 158.701 615.867 156.941ZM614.395 159.949L615.531 158.813L615.547 158.829V166.093H614.395V159.949ZM629.707 161.005H634.331V161.949H629.707V161.005ZM629.707 163.725H634.331V164.637H629.707V163.725ZM629.707 166.509H634.331V167.453H629.707V166.509ZM636.523 164.525H642.619V165.565H636.523V164.525ZM630.539 158.381H633.195V159.325H630.539V158.381ZM635.499 157.757H641.755V158.781H635.499V157.757ZM635.307 167.517H642.891V168.589H635.307V167.517ZM638.683 162.877H639.835V171.597H638.683V162.877ZM631.691 161.469H632.555V166.909H631.691V161.469ZM641.371 157.757H642.459C642.459 157.757 642.459 158.061 642.443 158.205C642.331 160.877 642.171 161.917 641.835 162.285C641.611 162.557 641.371 162.653 640.955 162.685C640.635 162.717 639.963 162.717 639.291 162.685C639.275 162.365 639.163 161.949 639.019 161.677C639.659 161.741 640.235 161.741 640.459 161.741C640.683 161.757 640.827 161.725 640.923 161.597C641.131 161.357 641.259 160.429 641.371 157.917V157.757ZM636.587 163.021L637.627 163.229C637.307 164.717 636.747 166.173 636.075 167.133C635.867 166.989 635.387 166.749 635.131 166.621C635.819 165.725 636.315 164.381 636.587 163.021ZM630.507 156.941L631.611 157.181C631.019 159.341 630.043 161.405 628.907 162.765C628.715 162.573 628.251 162.205 627.995 162.045C629.131 160.813 630.027 158.909 630.507 156.941ZM629.243 161.005H630.235V165.261C630.235 167.213 630.043 169.917 628.907 171.693C628.731 171.533 628.283 171.261 628.043 171.149C629.131 169.453 629.243 167.069 629.243 165.261V161.005ZM634.011 161.005H635.019V170.349C635.019 170.941 634.891 171.277 634.475 171.453C634.075 171.629 633.419 171.645 632.315 171.645C632.267 171.373 632.091 170.909 631.947 170.621C632.763 170.653 633.483 170.653 633.707 170.637C633.915 170.621 634.011 170.557 634.011 170.349V161.005ZM637.771 158.093H638.875C638.603 160.301 637.915 162.125 635.675 163.133C635.531 162.877 635.243 162.493 635.003 162.317C636.971 161.485 637.547 159.901 637.771 158.093ZM632.907 158.381H633.147L633.307 158.317L634.011 158.781C633.675 159.773 633.067 160.957 632.587 161.709C632.395 161.549 632.043 161.341 631.819 161.245C632.219 160.525 632.667 159.373 632.907 158.573V158.381ZM644.299 158.157L645.243 157.581C646.155 158.541 647.291 159.885 647.787 160.749L646.779 161.437C646.299 160.557 645.227 159.165 644.299 158.157ZM644.091 170.205C644.891 168.925 646.043 166.781 646.875 164.909L647.771 165.645C647.019 167.373 646.011 169.405 645.131 170.941L644.091 170.205ZM649.227 159.469H657.275V164.861H656.123V160.621H649.227V159.469ZM648.395 164.317H658.875V165.485H648.395V164.317ZM654.091 164.685C654.795 167.533 656.363 169.709 658.971 170.605C658.699 170.845 658.347 171.325 658.171 171.645C655.419 170.525 653.819 168.173 653.019 164.909L654.091 164.685ZM652.427 156.973H653.675V162.301C653.675 165.453 653.211 169.277 648.347 171.709C648.171 171.437 647.771 170.973 647.483 170.749C652.251 168.589 652.427 165.101 652.427 162.301V156.973ZM661.595 159.517H666.459V169.981H661.595V168.893H665.339V160.589H661.595V159.517ZM660.875 159.517H661.995V171.261H660.875V159.517ZM661.515 163.965H665.931V165.037H661.515V163.965ZM663.323 156.909L664.619 157.149C664.299 158.141 663.899 159.245 663.579 159.965L662.619 159.725C662.891 158.957 663.195 157.741 663.323 156.909ZM668.731 159.469H673.643V160.589H668.731V159.469ZM673.227 159.469H674.347C674.347 159.469 674.347 159.917 674.347 160.093C674.091 167.437 673.867 169.917 673.227 170.701C672.875 171.165 672.507 171.309 671.947 171.357C671.403 171.421 670.459 171.389 669.563 171.341C669.531 170.989 669.387 170.493 669.163 170.173C670.203 170.253 671.163 170.269 671.531 170.269C671.851 170.269 672.043 170.221 672.219 170.013C672.747 169.437 673.003 166.781 673.227 159.725V159.469ZM669.067 156.877L670.219 157.149C669.627 159.533 668.683 161.885 667.579 163.405C667.371 163.213 666.875 162.877 666.587 162.717C667.675 161.309 668.555 159.101 669.067 156.877ZM668.331 163.629L669.259 163.085C670.171 164.221 671.275 165.773 671.787 166.717L670.763 167.357C670.283 166.381 669.211 164.797 668.331 163.629ZM676.971 160.557H678.155V171.677H676.971V160.557ZM677.147 157.725L678.027 157.165C678.827 157.949 679.915 159.085 680.443 159.757L679.531 160.413C679.003 159.725 677.963 158.573 677.147 157.725ZM681.179 157.853H689.627V158.973H681.179V157.853ZM688.811 157.853H690.011V169.997C690.011 170.765 689.819 171.133 689.323 171.341C688.811 171.533 687.947 171.565 686.635 171.549C686.587 171.213 686.395 170.669 686.235 170.333C687.195 170.381 688.171 170.365 688.427 170.365C688.715 170.349 688.811 170.253 688.811 169.981V157.853ZM681.243 161.805H686.267V167.693H681.243V166.605H685.099V162.893H681.243V161.805ZM680.635 161.805H681.739V168.733H680.635V161.805ZM694.299 160.541V161.757H697.579V160.541H694.299ZM694.299 158.493V159.693H697.579V158.493H694.299ZM693.227 157.629H698.699V162.653H693.227V157.629ZM692.267 163.837H699.515V164.765H692.267V163.837ZM699.483 157.677H706.779V158.669H699.483V157.677ZM695.515 164.141H696.555V170.237L695.515 169.613V164.141ZM695.995 166.493H699.211V167.405H695.995V166.493ZM702.539 158.013L703.755 158.253C703.435 159.085 703.099 159.981 702.811 160.589L701.851 160.349C702.091 159.693 702.395 158.701 702.539 158.013ZM694.171 167.213C695.291 169.965 697.771 170.317 701.323 170.317C702.043 170.317 705.979 170.317 706.907 170.285C706.731 170.541 706.523 171.005 706.475 171.325H701.307C697.291 171.325 694.731 170.797 693.435 167.485L694.171 167.213ZM700.123 160.205H705.995V166.893H704.939V161.117H701.147V166.941H700.123V160.205ZM693.467 165.565L694.491 165.629C694.379 168.205 693.979 170.237 692.891 171.629C692.715 171.485 692.267 171.181 692.027 171.037C693.099 169.789 693.387 167.869 693.467 165.565ZM702.603 161.901H703.627C703.515 166.413 703.051 168.749 699.403 169.949C699.291 169.725 699.035 169.341 698.811 169.165C702.171 168.093 702.507 166.061 702.603 161.901ZM703.163 167.421L703.867 166.781C704.859 167.453 706.123 168.461 706.747 169.133L706.027 169.869C705.403 169.197 704.171 168.141 703.163 167.421ZM716.315 156.989H717.595C717.563 164.301 719.131 170.429 721.083 170.429C721.547 170.429 721.723 169.581 721.819 167.453C722.091 167.725 722.539 168.013 722.875 168.125C722.667 170.893 722.203 171.677 720.987 171.677C717.803 171.677 716.395 164.573 716.315 156.989ZM718.555 157.741L719.259 157.005C720.251 157.421 721.435 158.125 722.027 158.653L721.291 159.501C720.715 158.957 719.547 158.205 718.555 157.741ZM720.651 161.837L721.835 162.125C720.443 166.445 718.027 169.661 714.667 171.677C714.491 171.437 714.011 170.957 713.755 170.733C717.083 168.941 719.387 165.869 720.651 161.837ZM708.571 159.501H722.475V160.685H708.571V159.501ZM708.491 169.341C710.235 169.005 712.955 168.461 715.563 167.901L715.659 169.053C713.211 169.597 710.587 170.173 708.715 170.573L708.491 169.341ZM710.603 163.149V165.949H713.867V163.149H710.603ZM709.499 162.109H715.051V166.973H709.499V162.109ZM536.44 179.557H537.624V190.677H536.44V179.557ZM536.616 176.725L537.496 176.165C538.296 176.949 539.384 178.085 539.912 178.757L539 179.413C538.472 178.725 537.432 177.573 536.616 176.725ZM540.648 176.853H549.096V177.973H540.648V176.853ZM548.28 176.853H549.48V188.997C549.48 189.765 549.288 190.133 548.792 190.341C548.28 190.533 547.416 190.565 546.104 190.549C546.056 190.213 545.864 189.669 545.704 189.333C546.664 189.381 547.64 189.365 547.896 189.365C548.184 189.349 548.28 189.253 548.28 188.981V176.853ZM540.712 180.805H545.736V186.693H540.712V185.605H544.568V181.893H540.712V180.805ZM540.104 180.805H541.208V187.733H540.104V180.805ZM553.768 179.541V180.757H557.048V179.541H553.768ZM553.768 177.493V178.693H557.048V177.493H553.768ZM552.696 176.629H558.168V181.653H552.696V176.629ZM551.736 182.837H558.984V183.765H551.736V182.837ZM558.952 176.677H566.248V177.669H558.952V176.677ZM554.984 183.141H556.024V189.237L554.984 188.613V183.141ZM555.464 185.493H558.68V186.405H555.464V185.493ZM562.008 177.013L563.224 177.253C562.904 178.085 562.568 178.981 562.28 179.589L561.32 179.349C561.56 178.693 561.864 177.701 562.008 177.013ZM553.64 186.213C554.76 188.965 557.24 189.317 560.792 189.317C561.512 189.317 565.448 189.317 566.376 189.285C566.2 189.541 565.992 190.005 565.944 190.325H560.776C556.76 190.325 554.2 189.797 552.904 186.485L553.64 186.213ZM559.592 179.205H565.464V185.893H564.408V180.117H560.616V185.941H559.592V179.205ZM552.936 184.565L553.96 184.629C553.848 187.205 553.448 189.237 552.36 190.629C552.184 190.485 551.736 190.181 551.496 190.037C552.568 188.789 552.856 186.869 552.936 184.565ZM562.072 180.901H563.096C562.984 185.413 562.52 187.749 558.872 188.949C558.76 188.725 558.504 188.341 558.28 188.165C561.64 187.093 561.976 185.061 562.072 180.901ZM562.632 186.421L563.336 185.781C564.328 186.453 565.592 187.461 566.216 188.133L565.496 188.869C564.872 188.197 563.64 187.141 562.632 186.421ZM570.072 185.493C571.416 185.493 572.504 186.581 572.504 187.925C572.504 189.269 571.416 190.357 570.072 190.357C568.728 190.357 567.624 189.269 567.624 187.925C567.624 186.581 568.728 185.493 570.072 185.493ZM570.072 189.541C570.968 189.541 571.688 188.821 571.688 187.925C571.688 187.029 570.968 186.309 570.072 186.309C569.176 186.309 568.44 187.029 568.44 187.925C568.44 188.821 569.176 189.541 570.072 189.541ZM585.229 189.489C584.918 189.489 584.651 189.379 584.428 189.159C584.204 188.936 584.093 188.667 584.093 188.352C584.093 188.042 584.204 187.777 584.428 187.557C584.651 187.334 584.918 187.222 585.229 187.222C585.54 187.222 585.807 187.334 586.03 187.557C586.254 187.777 586.365 188.042 586.365 188.352C586.365 188.561 586.312 188.752 586.206 188.926C586.104 189.097 585.968 189.233 585.797 189.335C585.627 189.438 585.437 189.489 585.229 189.489ZM589.76 189.489C589.45 189.489 589.183 189.379 588.959 189.159C588.736 188.936 588.624 188.667 588.624 188.352C588.624 188.042 588.736 187.777 588.959 187.557C589.183 187.334 589.45 187.222 589.76 187.222C590.071 187.222 590.338 187.334 590.561 187.557C590.785 187.777 590.897 188.042 590.897 188.352C590.897 188.561 590.844 188.752 590.738 188.926C590.635 189.097 590.499 189.233 590.329 189.335C590.158 189.438 589.969 189.489 589.76 189.489Z" fill="#2D3342"/>
<path d="M198.028 351.934C197.717 351.934 197.45 351.824 197.226 351.604C197.003 351.381 196.891 351.112 196.891 350.797C196.891 350.487 197.003 350.222 197.226 350.002C197.45 349.778 197.717 349.667 198.028 349.667C198.338 349.667 198.605 349.778 198.829 350.002C199.052 350.222 199.164 350.487 199.164 350.797C199.164 351.006 199.111 351.197 199.005 351.371C198.903 351.542 198.766 351.678 198.596 351.78C198.425 351.883 198.236 351.934 198.028 351.934ZM202.559 351.934C202.248 351.934 201.981 351.824 201.758 351.604C201.534 351.381 201.422 351.112 201.422 350.797C201.422 350.487 201.534 350.222 201.758 350.002C201.981 349.778 202.248 349.667 202.559 349.667C202.869 349.667 203.136 349.778 203.36 350.002C203.583 350.222 203.695 350.487 203.695 350.797C203.695 351.006 203.642 351.197 203.536 351.371C203.434 351.542 203.297 351.678 203.127 351.78C202.956 351.883 202.767 351.934 202.559 351.934ZM212.829 341.794H219.901V342.93H212.829V341.794ZM216.621 342.21C217.149 344.994 218.301 347.186 220.365 348.21C220.093 348.45 219.725 348.898 219.549 349.234C217.373 347.97 216.189 345.57 215.597 342.402L216.621 342.21ZM207.757 342.066L208.301 341.362C209.373 341.842 210.685 342.61 211.357 343.138L210.797 343.938C210.141 343.378 208.813 342.578 207.757 342.066ZM217.149 339.138L218.013 338.642C218.701 339.298 219.485 340.226 219.837 340.85L218.925 341.426C218.573 340.802 217.821 339.826 217.149 339.138ZM206.333 343.858L207.005 343.202C208.061 343.81 209.373 344.69 210.029 345.33L209.325 346.05C208.685 345.41 207.405 344.482 206.333 343.858ZM208.909 338.274L210.061 338.578C209.213 340.77 207.789 343.202 205.981 344.738C205.773 344.498 205.405 344.146 205.149 343.954C206.877 342.546 208.253 340.242 208.909 338.274ZM211.901 339.826H212.141L212.365 339.778L213.117 340.098C212.109 344.898 209.629 347.858 206.557 349.378C206.413 349.09 205.981 348.626 205.725 348.434C208.717 347.074 211.069 344.354 211.901 340.066V339.826ZM210.349 350.018L211.453 349.906C211.661 350.85 211.837 352.066 211.853 352.802L210.669 352.978C210.669 352.226 210.541 350.978 210.349 350.018ZM213.613 350.018L214.733 349.826C215.165 350.738 215.597 351.986 215.757 352.738L214.573 352.994C214.429 352.226 214.029 350.978 213.613 350.018ZM216.893 349.922L218.013 349.538C218.829 350.498 219.757 351.842 220.189 352.706L218.989 353.138C218.605 352.29 217.693 350.914 216.893 349.922ZM207.517 349.602L208.653 349.89C208.269 351.074 207.581 352.354 206.733 353.122L205.645 352.658C206.429 351.97 207.149 350.77 207.517 349.602ZM208.877 339.826H212.333V340.818H208.269L208.877 339.826ZM215.437 338.578H216.589V341.698C216.589 344.258 216.045 347.106 212.301 349.122C212.109 348.85 211.741 348.498 211.453 348.274C215.005 346.402 215.437 343.842 215.437 341.698V338.578ZM223.837 342.834H236.221V343.986H223.837V342.834ZM226.397 351.17H234.029V352.306H226.397V351.17ZM223.213 339.618L224.749 339.922C224.733 340.05 224.637 340.114 224.413 340.146V344.13C224.413 346.722 224.173 350.482 222.269 353.138C222.093 352.866 221.645 352.466 221.325 352.322C223.037 349.89 223.213 346.578 223.213 344.114V339.618ZM233.885 338.53L234.893 339.474C231.981 340.226 227.581 340.722 223.821 340.978C223.789 340.674 223.613 340.21 223.501 339.954C227.181 339.682 231.485 339.154 233.885 338.53ZM225.805 346.274H234.829V353.106H233.613V347.394H226.957V353.122H225.805V346.274ZM237.533 344.93H252.173V346.242H237.533V344.93ZM260.765 339.682C259.437 341.698 256.733 344.242 253.885 345.906C253.709 345.634 253.373 345.202 253.101 344.946C256.013 343.298 258.797 340.594 260.061 338.434H261.309C263.053 340.914 265.981 343.394 268.605 344.738C268.301 345.042 268.013 345.458 267.789 345.81C265.181 344.306 262.237 341.778 260.765 339.682ZM260.125 343.682H261.389V353.122H260.125V343.682ZM147.352 366.17H161.48V367.306H147.352V366.17ZM156.728 364.938H157.96V370.682C157.96 371.386 157.768 371.722 157.192 371.882C156.616 372.058 155.656 372.058 154.104 372.058C154.056 371.738 153.848 371.29 153.688 370.97C154.872 371.018 156.024 371.002 156.328 370.986C156.632 370.986 156.728 370.906 156.728 370.666V364.938ZM149.752 367.914L150.584 367.21C151.592 368.026 152.728 369.194 153.256 370.01L152.36 370.81C151.88 369.978 150.744 368.762 149.752 367.914ZM148.536 358.522H149.784V362.698C149.784 363.37 150.104 363.53 151.88 363.53C152.712 363.53 157.144 363.53 158.264 363.53C159.576 363.53 159.8 363.306 159.944 362.122C160.248 362.298 160.744 362.442 161.096 362.506C160.888 364.138 160.376 364.538 158.36 364.538C157.704 364.538 152.568 364.538 151.96 364.538C149.32 364.538 148.536 364.202 148.536 362.714V358.522ZM148.952 360.762H158.408V359.082H148.536V358.026H159.576V361.834H148.952V360.762ZM168.504 358.234H177.544V359.338H168.504V358.234ZM172.328 358.682H173.464V372.074H172.328V358.682ZM169.064 361.306H176.248V362.394H170.184V369.802H169.064V361.306ZM175.8 361.306H176.92V368.442C176.92 369.002 176.824 369.306 176.44 369.498C176.056 369.69 175.496 369.69 174.616 369.69C174.568 369.386 174.408 368.938 174.264 368.634C174.872 368.65 175.4 368.65 175.576 368.65C175.752 368.65 175.8 368.586 175.8 368.41V361.306ZM166.44 357.418H167.56V363.818C167.56 366.986 167.256 369.914 164.856 372.09C164.664 371.85 164.248 371.466 163.96 371.29C166.184 369.322 166.44 366.682 166.44 363.818V357.418ZM163.88 359.226H164.968V367.002H163.88V359.226ZM187.192 357.434H188.472C188.44 364.746 190.008 370.874 191.96 370.874C192.424 370.874 192.6 370.026 192.696 367.898C192.968 368.17 193.416 368.458 193.752 368.57C193.544 371.338 193.08 372.122 191.864 372.122C188.68 372.122 187.272 365.018 187.192 357.434ZM189.432 358.186L190.136 357.45C191.128 357.866 192.312 358.57 192.904 359.098L192.168 359.946C191.592 359.402 190.424 358.65 189.432 358.186ZM191.528 362.282L192.712 362.57C191.32 366.89 188.904 370.106 185.544 372.122C185.368 371.882 184.888 371.402 184.632 371.178C187.96 369.386 190.264 366.314 191.528 362.282ZM179.448 359.946H193.352V361.13H179.448V359.946ZM179.368 369.786C181.112 369.45 183.832 368.906 186.44 368.346L186.536 369.498C184.088 370.042 181.464 370.618 179.592 371.018L179.368 369.786ZM181.48 363.594V366.394H184.744V363.594H181.48ZM180.376 362.554H185.928V367.418H180.376V362.554ZM195.352 366.17H209.48V367.306H195.352V366.17ZM204.728 364.938H205.96V370.682C205.96 371.386 205.768 371.722 205.192 371.882C204.616 372.058 203.656 372.058 202.104 372.058C202.056 371.738 201.848 371.29 201.688 370.97C202.872 371.018 204.024 371.002 204.328 370.986C204.632 370.986 204.728 370.906 204.728 370.666V364.938ZM197.752 367.914L198.584 367.21C199.592 368.026 200.728 369.194 201.256 370.01L200.36 370.81C199.88 369.978 198.744 368.762 197.752 367.914ZM196.536 358.522H197.784V362.698C197.784 363.37 198.104 363.53 199.88 363.53C200.712 363.53 205.144 363.53 206.264 363.53C207.576 363.53 207.8 363.306 207.944 362.122C208.248 362.298 208.744 362.442 209.096 362.506C208.888 364.138 208.376 364.538 206.36 364.538C205.704 364.538 200.568 364.538 199.96 364.538C197.32 364.538 196.536 364.202 196.536 362.714V358.522ZM196.952 360.762H206.408V359.082H196.536V358.026H207.576V361.834H196.952V360.762ZM216.504 358.234H225.544V359.338H216.504V358.234ZM220.328 358.682H221.464V372.074H220.328V358.682ZM217.064 361.306H224.248V362.394H218.184V369.802H217.064V361.306ZM223.8 361.306H224.92V368.442C224.92 369.002 224.824 369.306 224.44 369.498C224.056 369.69 223.496 369.69 222.616 369.69C222.568 369.386 222.408 368.938 222.264 368.634C222.872 368.65 223.4 368.65 223.576 368.65C223.752 368.65 223.8 368.586 223.8 368.41V361.306ZM214.44 357.418H215.56V363.818C215.56 366.986 215.256 369.914 212.856 372.09C212.664 371.85 212.248 371.466 211.96 371.29C214.184 369.322 214.44 366.682 214.44 363.818V357.418ZM211.88 359.226H212.968V367.002H211.88V359.226ZM227.08 363.93H241.72V365.242H227.08V363.93ZM245.752 362.282H255.08V363.434H245.752V362.282ZM250.36 366.106H255.752V367.242H250.36V366.106ZM249.72 362.874H250.968V370.97L249.72 370.81V362.874ZM245.928 364.81L247.176 364.938C246.728 368.17 245.72 370.618 243.912 372.186C243.72 371.978 243.208 371.562 242.92 371.386C244.712 369.994 245.576 367.706 245.928 364.81ZM246.68 366.874C247.816 370.138 250.312 370.698 253.56 370.698C254.152 370.698 256.92 370.698 257.704 370.682C257.512 370.97 257.304 371.546 257.256 371.898H253.496C249.688 371.898 247.08 371.146 245.704 367.242L246.68 366.874ZM249.704 357.402H250.968V359.994H249.704V357.402ZM243.688 359.226H257.064V362.714H255.832V360.378H244.872V362.714H243.688V359.226ZM261.688 357.386L262.936 357.674C262.36 359.002 261.608 360.554 260.968 361.562L259.944 361.258C260.552 360.234 261.304 358.554 261.688 357.386ZM259 360.778C260.68 360.73 263.224 360.618 265.736 360.506L265.72 361.578C263.336 361.722 260.856 361.85 259.112 361.946L259 360.778ZM259.976 363.098H265.048V364.122H261.096V372.09H259.976V363.098ZM264.504 363.098H265.688V370.73C265.688 371.338 265.56 371.674 265.128 371.866C264.68 372.058 263.976 372.074 262.968 372.074C262.904 371.754 262.728 371.274 262.568 370.97C263.32 371.002 264.008 370.986 264.232 370.97C264.44 370.97 264.504 370.922 264.504 370.714V363.098ZM260.504 365.482H265.128V366.426H260.504V365.482ZM260.504 367.882H265.128V368.842H260.504V367.882ZM267.192 357.418H268.376V362.714C268.376 363.226 268.504 363.338 269.24 363.338C269.576 363.338 271.32 363.338 271.784 363.338C272.408 363.338 272.52 363.066 272.584 361.482C272.84 361.69 273.32 361.866 273.672 361.946C273.528 363.898 273.176 364.426 271.88 364.426C271.544 364.426 269.448 364.426 269.128 364.426C267.592 364.426 267.192 364.058 267.192 362.73V357.418ZM272.088 358.602L272.888 359.482C271.528 360.122 269.608 360.746 267.96 361.21C267.896 360.954 267.736 360.602 267.592 360.362C269.176 359.866 271 359.162 272.088 358.602ZM267.192 364.858H268.376V370.266C268.376 370.81 268.52 370.906 269.288 370.906C269.624 370.906 271.432 370.906 271.912 370.906C272.6 370.906 272.696 370.602 272.776 368.794C273.048 368.986 273.528 369.178 273.864 369.242C273.704 371.402 273.352 371.978 272.008 371.978C271.656 371.978 269.496 371.978 269.16 371.978C267.608 371.978 267.192 371.61 267.192 370.282V364.858ZM272.28 365.738L273.08 366.634C271.736 367.402 269.688 368.058 267.96 368.522C267.896 368.282 267.72 367.898 267.592 367.658C269.256 367.178 271.192 366.442 272.28 365.738ZM263.688 358.906L264.68 358.506C265.528 359.626 266.424 361.098 266.792 362.09L265.736 362.554C265.4 361.578 264.536 360.042 263.688 358.906ZM275.416 358.666H282.904V359.642H275.416V358.666ZM275.16 363.002H283V363.962H275.16V363.002ZM275.768 360.81H282.584V361.754H275.768V360.81ZM283.72 358.058H288.344V359.098H284.872V365.994H283.72V358.058ZM288.104 358.058H288.344L288.536 358.01L289.368 358.522C288.776 359.354 288.056 360.33 287.4 361.13C288.76 361.978 289.224 362.746 289.24 363.466C289.256 364.154 288.968 364.602 288.456 364.89C288.184 365.034 287.8 365.114 287.496 365.162C286.936 365.21 286.248 365.21 285.624 365.162C285.608 364.858 285.448 364.426 285.24 364.138C285.928 364.218 286.52 364.218 286.984 364.186C287.208 364.17 287.464 364.122 287.64 364.058C287.928 363.946 288.056 363.722 288.056 363.37C288.04 362.794 287.528 362.09 286.104 361.29C286.856 360.298 287.64 359.098 288.104 358.282V358.058ZM278.744 357.386H279.96V362.138C279.96 363.418 279.208 365.578 276.312 366.714C276.12 366.474 275.752 366.074 275.48 365.85C278.088 364.97 278.744 363.162 278.744 362.122V357.386ZM281.704 365.386H282.952V372.09H281.704V365.386ZM276.776 366.65H287.512V367.738H277.976V371.242H276.776V366.65ZM287 366.65H288.216V369.93C288.216 370.538 288.072 370.858 287.56 371.034C287.048 371.21 286.2 371.21 284.856 371.21C284.776 370.89 284.6 370.474 284.44 370.17C285.448 370.202 286.392 370.202 286.664 370.186C286.936 370.17 287 370.106 287 369.914V366.65ZM297.832 361.018H304.6V362.154H297.832V361.018ZM304.088 361.018H305.24C305.24 361.018 305.224 361.466 305.224 361.626C305.064 368.394 304.92 370.682 304.392 371.37C304.072 371.802 303.736 371.93 303.224 371.978C302.728 372.026 301.864 372.01 301.016 371.978C300.984 371.626 300.856 371.13 300.648 370.826C301.576 370.89 302.408 370.89 302.744 370.89C303.016 370.906 303.192 370.858 303.336 370.65C303.768 370.154 303.944 367.818 304.088 361.274V361.018ZM300.488 357.402H301.656C301.64 363.53 301.624 369.226 297.176 372.138C297 371.85 296.6 371.45 296.296 371.258C300.568 368.602 300.472 363.226 300.488 357.402ZM292.072 358.17H297.288V368.586H296.168V359.274H293.144V369.61H292.072V358.17ZM290.92 369.322C292.696 368.97 295.512 368.378 298.168 367.786L298.28 368.874C295.736 369.482 293.048 370.106 291.128 370.538L290.92 369.322ZM292.632 361.61H296.696V362.698H292.632V361.61ZM292.632 365.034H296.696V366.106H292.632V365.034ZM313.816 357.466L315 357.722C314.376 360.282 313.368 362.746 312.136 364.378C311.928 364.17 311.448 363.786 311.176 363.61C312.36 362.122 313.288 359.818 313.816 357.466ZM313.544 364.25L314.712 364.49C314.216 366.586 313.352 368.618 312.376 369.962C312.136 369.77 311.624 369.45 311.336 369.306C312.328 368.074 313.096 366.17 313.544 364.25ZM313.672 360.474H320.872V361.594H313.208L313.672 360.474ZM316.152 360.938H317.352V370.65C317.352 371.338 317.208 371.69 316.76 371.882C316.328 372.09 315.64 372.122 314.648 372.122C314.568 371.786 314.392 371.258 314.216 370.906C314.968 370.938 315.656 370.922 315.88 370.922C316.088 370.922 316.152 370.858 316.152 370.65V360.938ZM318.504 364.49L319.576 364.138C320.504 365.818 321.304 368.026 321.576 369.514L320.44 369.898C320.184 368.426 319.384 366.17 318.504 364.49ZM320.52 360.474H320.68L320.888 360.442L321.72 360.618C321.496 361.802 321.224 363.178 321.016 364.042L319.976 363.85C320.152 363.05 320.36 361.706 320.52 360.65V360.474ZM310.6 357.45L311.736 357.802C310.68 360.522 309.032 363.226 307.304 365.018C307.176 364.746 306.84 364.106 306.616 363.834C308.2 362.282 309.704 359.882 310.6 357.45ZM308.936 361.578L310.056 360.442L310.088 360.458V372.09H308.936V361.578Z" fill="#2D3342"/>
<path d="M209.002 176.081C213.302 171.744 221.972 164.372 222.243 169.576C222.583 176.081 214.095 192.858 222.243 185.326C230.392 177.793 240.238 164.44 240.917 169.576C241.596 174.712 242.615 176.081 252.122 166.837" stroke="black" stroke-width="2" stroke-linecap="round"/>
<path d="M44.0144 250.251C45.6004 252.419 50.6757 256.64 58.2885 256.181" stroke="black" stroke-width="2" stroke-linecap="round"/>
<path d="M139.556 259.816C132.075 263.923 110.265 267.817 82.4616 250.911C82.0294 250.648 81.4635 250.737 81.1361 251.123C75.6451 257.593 60.4201 270.626 40.5885 272.25C34.6885 272.733 30.5015 269.763 37.353 267.276C41.1596 265.895 44.0144 264.981 45.3465 263.642" stroke="black" stroke-width="2" stroke-linecap="round"/>
<path d="M34.308 268.998C30.5015 270.784 25.5532 271.982 24.7919 268.616C23.8403 264.407 30.6918 265.172 33.3563 263.068" stroke="black" stroke-width="2" stroke-linecap="round"/>
<path d="M24.2209 268.807C17.7501 270.72 14.747 264.96 20.4146 262.111C25.7436 259.433 30.3113 260.39 33.7371 256.372" stroke="black" stroke-width="2" stroke-linecap="round"/>
<path d="M18.5112 263.45C17.052 262.174 15.3138 258.897 20.0337 255.989C25.9337 252.355 53.5304 240.112 50.1046 230.355C49.0971 227.486 43.6337 227.678 39.0659 221.747C35.6732 217.342 39.0659 212.182 43.253 215.052C44.3315 215.881 50.9801 220.217 54.482 218.687C58.831 216.786 73.1363 215.074 83.4004 227.996C83.5301 228.159 83.702 228.282 83.9021 228.34C92.4206 230.825 110.996 234.39 119.572 229.399" stroke="black" stroke-width="2" stroke-linecap="round"/>
<path d="M54.8628 236.477C57.2101 238.709 63.8079 239.538 67.995 235.521" stroke="black" stroke-width="2" stroke-linecap="round"/>
<path d="M406.926 247.976C405.34 250.144 400.265 254.365 392.652 253.906" stroke="black" stroke-width="2" stroke-linecap="round"/>
<path d="M311.385 257.541C318.866 261.648 340.675 265.542 368.479 248.636C368.911 248.373 369.477 248.462 369.805 248.848C375.296 255.318 390.521 268.351 410.352 269.975C416.252 270.458 420.439 267.488 413.588 265.001C409.781 263.62 406.926 262.706 405.594 261.367" stroke="black" stroke-width="2" stroke-linecap="round"/>
<path d="M416.632 266.723C420.439 268.508 425.387 269.707 426.148 266.34C427.1 262.132 420.248 262.897 417.584 260.793" stroke="black" stroke-width="2" stroke-linecap="round"/>
<path d="M426.72 266.532C433.191 268.445 436.194 262.685 430.526 259.836C425.197 257.158 420.629 258.115 417.204 254.097" stroke="black" stroke-width="2" stroke-linecap="round"/>
<path d="M432.429 261.175C433.888 259.9 435.627 256.622 430.907 253.714C425.007 250.08 397.41 237.837 400.836 228.08C401.843 225.211 407.307 225.403 411.874 219.472C415.267 215.067 411.874 209.907 407.687 212.777C406.609 213.606 399.96 217.942 396.458 216.412C392.109 214.511 377.804 212.799 367.54 225.721C367.41 225.884 367.238 226.007 367.038 226.065C358.52 228.55 339.945 232.115 331.368 227.124" stroke="black" stroke-width="2" stroke-linecap="round"/>
<path d="M396.078 234.202C393.731 236.434 387.133 237.263 382.946 233.246" stroke="black" stroke-width="2" stroke-linecap="round"/>
<path d="M205.107 97.5149C206.544 113.983 213.897 143.026 231.752 144.152C250.561 145.338 258.397 107 258.397 97.1196" stroke="black" stroke-width="2" stroke-linecap="round"/>
<path d="M208.533 96.7371L203.204 95.9719" stroke="black" stroke-width="2" stroke-linecap="round"/>
<path d="M260.417 95.9719C266.189 97.4309 270.728 103.771 256.875 115.867" stroke="black" stroke-width="2" stroke-linecap="round"/>
<path d="M202.609 95.9719C197.577 96.6351 192.281 104.328 207.772 115.867" stroke="black" stroke-width="2" stroke-linecap="round"/>
<ellipse cx="218.43" cy="99.224" rx="3.42579" ry="3.25206" fill="black"/>
<ellipse cx="244.504" cy="99.224" rx="3.23547" ry="3.25206" fill="black"/>
<path d="M229.61 99.0328C229.61 105.036 224.77 109.893 218.81 109.893C212.851 109.893 208.01 105.036 208.01 99.0328C208.01 93.0299 212.851 88.1724 218.81 88.1724C224.77 88.1724 229.61 93.0299 229.61 99.0328Z" stroke="black" stroke-width="2"/>
<path d="M254.733 99.0328C254.733 105.051 249.963 109.893 244.123 109.893C238.284 109.893 233.513 105.051 233.513 99.0328C233.513 93.0145 238.284 88.1724 244.123 88.1724C249.963 88.1724 254.733 93.0145 254.733 99.0328Z" stroke="black" stroke-width="2"/>
<path d="M229.088 97.885H233.655" stroke="black" stroke-width="2" stroke-linecap="round"/>
<path d="M227.24 105.154C226.251 110.67 226.14 119.828 235.939 114.785" stroke="black" stroke-width="2" stroke-linecap="round"/>
<path d="M224.901 126.58C226.994 125.425 232.437 123.808 237.462 126.58" stroke="black" stroke-width="2" stroke-linecap="round"/>
<path d="M253.83 95.9719H260.301" stroke="black" stroke-width="2" stroke-linecap="round"/>
<path d="M201.92 64.0351C181.948 73.4878 191.258 90.0302 198.41 97.1198C199.658 96.1745 203.611 95.9382 205.431 95.9382C201.998 70.7308 214.923 64.0348 220.644 62.4594C236.638 59.7023 254.972 64.0351 258.093 76.6388C261.821 91.6951 261.938 96.7259 264.836 97.1198C275.847 88.2972 274.224 71.3872 272.035 64.0351C274.891 55.8227 268.514 48.4117 264.836 43.9479C261.158 39.4841 251.071 31.344 233.127 32.1319C197.629 35.6767 199.97 57.7332 201.92 64.0351Z" fill="black"/>
<path d="M211.959 83.3453C213.576 83.0573 218.43 82.6541 224.901 83.3453" stroke="black" stroke-width="2" stroke-linecap="round"/>
<path d="M238.604 84.1114C240.126 83.534 244.694 82.7255 250.784 84.1114" stroke="black" stroke-width="2" stroke-linecap="round"/>
<path d="M214.162 142.359C176.479 139.681 167.191 134.287 139.937 199.94" stroke="black" stroke-width="2" stroke-linecap="round"/>
<path d="M250.672 140.978C283.027 146.716 298.633 126.821 319.95 192.437" stroke="black" stroke-width="2" stroke-linecap="round"/>
<path d="M162.585 241.451C158.754 259.849 146.911 261.844 140.336 260.378C139.665 260.229 139.431 259.423 139.825 258.859C152.933 240.1 132.028 226.271 120.557 229.282C120.01 229.425 119.413 229.141 119.311 228.585C117.999 221.439 129.826 219.945 130.992 209.696C131.6 204.339 132.324 201.599 135.369 201.47C148.882 200.896 167.723 216.774 162.585 241.451Z" stroke="black" stroke-width="2" stroke-linecap="round"/>
<path d="M322.614 194.923C325.758 209.609 335.732 216.888 332.45 226.591C332.285 227.079 331.735 227.322 331.238 227.185C308.552 220.962 302.924 246.075 311.086 255.799C311.686 256.515 311.275 257.728 310.346 257.627C294.769 255.933 283.236 229.917 286.833 219.792C297.301 190.332 321.508 189.758 322.614 194.923Z" stroke="black" stroke-width="2" stroke-linecap="round"/>
<path d="M291.592 243.704C291.465 269.019 291.934 295.392 295.588 316.206" stroke="black" stroke-width="2" stroke-linecap="round"/>
<path d="M163.346 239.156C163.6 264.152 162.851 292.834 158.588 317.779" stroke="black" stroke-width="2" stroke-linecap="round"/>
<path d="M247.215 150.312C248.909 145.534 247.36 142.319 245.857 141.706C236.8 149.793 223.064 146.791 217.975 141.89C216.162 143.507 217.217 148.291 217.975 149.761C227.783 160.347 241.744 154.417 247.215 150.312Z" fill="black"/>
<path d="M61.8354 61.3982C75.2584 64.8751 89.5002 66.9391 103.316 65.4162C115.968 64.0014 128.551 59.2271 137.621 50.2347C141.577 46.3342 144.906 40.0967 141.825 35.4184C138.906 30.9327 132.32 31.1991 127.214 32.6475C117.89 35.3011 109.304 40.0703 102.112 46.5911C94.9798 53.082 89.0679 63.0257 92.417 72.1614C95.0158 79.2436 102.413 83.4196 109.675 85.2419C121.106 88.0441 133.133 86.5722 143.517 81.1002C166.841 68.6797 146.357 47.6828 126.271 65.5372C122.547 68.851 118.818 72.3653 116.752 76.9402C114.684 81.5125 114.563 87.3037 117.748 91.1875C119.521 93.3563 122.093 94.6894 124.681 95.7175C133.292 99.118 142.733 99.6954 151.655 97.3672C156.497 96.0829 162.061 92.1129 160.475 87.2667C159.571 84.4842 156.454 82.9299 153.558 82.8636C145.982 82.6806 140.116 92.1673 143.58 98.9733C148.321 108.276 159.916 103.767 166.314 99.4471" stroke="black" stroke-width="2" stroke-miterlimit="10"/>
<defs>
<linearGradient id="paint0_linear_1020_6462" x1="450.628" y1="32.0786" x2="524.003" y2="58.1892" gradientUnits="userSpaceOnUse">
<stop stop-color="#5955B3"/>
<stop offset="1" stop-color="#6563CE"/>
</linearGradient>
</defs>
</svg>
