<svg width="751" height="407" viewBox="0 0 751 407" fill="none" xmlns="http://www.w3.org/2000/svg">
<rect width="751" height="406.005" fill="white"/>
<path opacity="0.2" fill-rule="evenodd" clip-rule="evenodd" d="M750.693 386.402C750.615 397.339 741.757 406.19 730.816 406.256H434.842C447.376 371.333 499.731 301.487 608.882 301.487C718.034 301.487 748.903 247.162 750.693 220V386.402Z" fill="#79A4E2"/>
<path opacity="0.2" fill-rule="evenodd" clip-rule="evenodd" d="M210.762 0C208.094 18.0676 191.746 68.8751 124.397 91.9214C59.0537 114.281 16.0073 106.592 -0.000205626 99.3648L-0.000212013 20C-0.000212902 8.95432 8.95409 1.91637e-05 19.9998 1.81148e-05L210.762 0Z" fill="#79A4E2"/>
<path d="M159.525 66.9194H170.725V71.4394H159.525V66.9194ZM156.885 42.0794H173.285V73.7994H168.525V46.5994H161.445V74.4394H156.885V42.0794ZM137.445 45.8794H151.805V50.4794H137.445V45.8794ZM143.485 37.9194L148.125 38.4394C146.405 46.9994 143.925 57.7994 141.885 64.9594L137.845 63.0394C139.725 56.6394 142.085 45.9994 143.485 37.9194ZM139.525 61.6794L142.005 58.1594C146.885 60.9594 153.045 65.1994 155.805 68.4794L153.045 72.5994C150.405 69.2394 144.405 64.6794 139.525 61.6794ZM150.405 45.8794H151.205L152.045 45.7994L155.005 46.3194C153.925 62.4794 149.485 70.9594 140.525 75.5194C139.885 74.3194 138.645 72.5194 137.685 71.5594C145.445 68.2794 149.525 59.9594 150.405 46.7994V45.8794ZM189.965 41.3994H214.725V45.9994H189.965V41.3994ZM207.485 43.0794H212.325V69.8794C212.325 72.6394 211.725 73.9194 210.005 74.7194C208.285 75.4394 205.565 75.5994 201.845 75.5594C201.645 74.1994 200.885 72.0394 200.205 70.6794C202.845 70.7994 205.605 70.7994 206.445 70.7594C207.245 70.7594 207.485 70.5594 207.485 69.7994V43.0794ZM190.445 50.3194H194.925V67.5194H190.445V50.3194ZM192.405 50.3194H203.805V64.8794H192.405V60.7594H199.365V54.4794H192.405V50.3194ZM185.845 37.8794L190.325 39.3194C187.845 46.0794 183.725 53.2394 179.405 57.7194C179.005 56.5994 177.685 53.9194 176.885 52.7594C180.445 49.1994 183.845 43.5194 185.845 37.8794ZM182.245 49.1194L187.005 44.3594V44.3994V75.4394H182.245V49.1194ZM234.245 46.2394H253.285V50.5594H234.245V46.2394ZM233.485 56.1594H254.485V60.5194H233.485V56.1594ZM240.885 49.9194H245.725V55.7994C245.725 61.5994 244.485 69.9594 235.245 75.9594C234.485 74.9594 232.885 73.3994 231.645 72.5594C240.285 67.5194 240.885 60.2794 240.885 55.7594V49.9194ZM245.325 60.1594C246.925 65.2794 250.165 69.5194 255.085 71.4794C254.045 72.3994 252.645 74.2394 251.965 75.4794C246.525 72.8394 243.205 67.6794 241.285 61.0794L245.325 60.1594ZM247.405 38.6394L252.285 39.8794C250.805 42.7594 249.125 45.7194 247.725 47.7194L243.805 46.5194C245.085 44.3594 246.605 41.0794 247.405 38.6394ZM234.885 40.4394L238.725 38.5994C240.325 40.3594 242.005 42.7594 242.725 44.4794L238.685 46.5994C238.045 44.8794 236.445 42.2794 234.885 40.4394ZM217.565 39.4794H233.125V43.7594H217.565V39.4794ZM221.885 47.9994H229.085V51.9194H221.885V47.9994ZM221.885 56.1194H229.085V60.0394H221.885V56.1194ZM219.245 41.7594H223.485V66.8794H219.245V41.7594ZM227.605 41.7194H231.685V75.5194H227.605V41.7194ZM217.045 65.8394C221.445 65.2794 228.205 64.2394 234.485 63.2394L234.765 67.3594C228.925 68.3994 222.645 69.4794 218.005 70.3194L217.045 65.8394ZM258.485 65.1594C258.245 64.2394 257.485 61.9994 256.965 60.7994C258.005 60.5594 258.885 59.7194 260.165 58.2794C261.525 56.9194 265.565 51.6794 268.165 46.4394L272.245 49.0794C269.285 54.0394 265.325 59.1194 261.605 62.7594V62.8794C261.605 62.8794 258.485 64.3194 258.485 65.1594ZM258.485 65.1594L258.125 61.1994L260.165 59.7194L270.925 57.5194C270.805 58.7994 270.805 60.7194 270.925 61.7194C261.245 63.9594 259.565 64.5194 258.485 65.1594ZM258.205 55.3994C257.965 54.4794 257.165 52.1194 256.605 50.8794C257.485 50.6394 258.205 49.7994 259.085 48.5594C260.005 47.3194 262.765 42.4394 264.245 37.9194L268.845 40.1194C266.805 44.6394 263.725 49.5194 260.805 52.9194V53.0794C260.805 53.0794 258.205 54.5594 258.205 55.3994ZM258.205 55.3994L258.085 51.9594L260.045 50.6394L266.645 50.1194C266.405 51.3594 266.165 53.1194 266.165 54.0794C260.285 54.7194 258.965 55.0394 258.205 55.3994ZM257.125 69.2394C260.565 68.2794 265.765 66.5194 270.805 64.7994L271.645 68.8794C267.045 70.6794 262.125 72.5194 258.245 73.9994L257.125 69.2394ZM273.685 59.9994H291.685V75.1194H287.085V64.1994H278.125V75.2394H273.685V59.9994ZM276.365 68.9194H290.325V73.1194H276.365V68.9194ZM280.125 41.6394H290.285V45.9594H278.005L280.125 41.6394ZM288.725 41.6394H289.685L290.485 41.4794L293.245 43.1994C289.525 52.4794 281.125 58.4394 271.925 61.1994C271.645 59.9194 270.765 57.6394 270.165 56.6394C278.645 54.5194 285.965 49.7194 288.725 42.4394V41.6394ZM278.085 37.3994L282.405 38.6794C280.285 43.9594 276.845 49.1594 273.125 52.4394C272.565 51.4794 271.205 49.3994 270.325 48.4394C273.565 45.8394 276.485 41.7194 278.085 37.3994ZM278.445 45.6394C281.365 50.9594 287.325 54.8394 294.765 56.3994C294.045 57.5594 293.365 59.6394 293.125 60.9194C284.965 58.6394 278.445 53.9594 274.885 47.7994L278.445 45.6394Z" fill="url(#paint0_linear_1020_6702)"/>
<path d="M112.942 120.638V149.729H106.792V126.476H106.621L99.9593 130.652V125.197L107.161 120.638H112.942Z" fill="black"/>
<path d="M472.902 115.29H476.71V137.594H472.902V115.29ZM473.126 109.626L475.91 107.802C477.478 109.402 479.75 111.738 480.838 113.146L477.894 115.258C476.87 113.786 474.694 111.386 473.126 109.626ZM481.606 109.178H499.014V112.73H481.606V109.178ZM496.326 109.178H500.166V133.018C500.166 135.13 499.718 136.154 498.47 136.794C497.19 137.402 495.302 137.466 492.582 137.466C492.454 136.378 491.878 134.682 491.398 133.658C493.03 133.786 495.014 133.754 495.558 133.754C496.134 133.754 496.326 133.53 496.326 132.986V109.178ZM482.278 117.434H492.422V129.658H482.278V126.234H488.71V120.858H482.278V117.434ZM480.358 117.434H483.814V131.45H480.358V117.434ZM503.75 120.186H533.382V124.378H503.75V120.186ZM550.406 111.642C547.814 115.61 542.822 120.154 537.414 123.226C536.87 122.298 535.75 120.858 534.886 120.058C540.582 117.082 545.798 111.802 548.134 107.642H552.294C555.75 112.922 560.998 117.338 566.278 119.642C565.254 120.634 564.39 121.946 563.654 123.162C558.502 120.314 553.094 115.61 550.406 111.642ZM548.358 118.49H552.454V137.626H548.358V118.49ZM568.902 115.29H572.71V137.594H568.902V115.29ZM569.126 109.626L571.91 107.802C573.478 109.402 575.75 111.738 576.838 113.146L573.894 115.258C572.87 113.786 570.694 111.386 569.126 109.626ZM577.606 109.178H595.014V112.73H577.606V109.178ZM592.326 109.178H596.166V133.018C596.166 135.13 595.718 136.154 594.47 136.794C593.19 137.402 591.302 137.466 588.582 137.466C588.454 136.378 587.878 134.682 587.398 133.658C589.03 133.786 591.014 133.754 591.558 133.754C592.134 133.754 592.326 133.53 592.326 132.986V109.178ZM578.278 117.434H588.422V129.658H578.278V126.234H584.71V120.858H578.278V117.434ZM576.358 117.434H579.814V131.45H576.358V117.434ZM604.806 115.322V116.858H609.51V115.322H604.806ZM604.806 111.386V112.89H609.51V111.386H604.806ZM601.414 108.826H613.062V119.45H601.414V108.826ZM599.91 121.274H614.438V124.09H599.91V121.274ZM614.342 108.89H629.382V111.898H614.342V108.89ZM605.926 122.17H609.158V135.034L605.926 133.21V122.17ZM607.558 126.682H613.766V129.434H607.558V126.682ZM620.39 109.626L624.23 110.426C623.366 112.282 622.502 114.17 621.83 115.418L618.822 114.618C619.398 113.21 620.07 111.098 620.39 109.626ZM603.974 128.026C605.734 133.402 609.702 133.946 616.198 133.978C618.342 133.978 627.11 133.978 629.734 133.85C629.222 134.586 628.646 136.058 628.486 137.018H616.166C608.294 137.018 603.942 135.93 601.702 128.698L603.974 128.026ZM615.366 114.202H628.166V127.418H624.934V116.922H618.47V127.642H615.366V114.202ZM601.51 125.21L604.646 125.402C604.454 130.522 603.814 134.778 601.798 137.626C601.254 137.146 599.878 136.218 599.142 135.834C601.03 133.402 601.446 129.562 601.51 125.21ZM620.262 118.234H623.43C623.238 126.874 622.406 131.45 614.79 133.786C614.502 133.05 613.702 131.866 613.062 131.29C619.718 129.37 620.102 125.818 620.262 118.234ZM621.894 129.37L624.006 127.29C625.766 128.506 628.262 130.362 629.51 131.546L627.302 133.914C626.118 132.666 623.718 130.714 621.894 129.37Z" fill="#5955B3"/>
<path d="M365.017 326.638H366.233V332.094H365.017V326.638ZM361.529 332.654V335.518H369.897V332.654H361.529ZM360.393 331.518H371.113V336.638H360.393V331.518ZM365.577 328.35H372.313V329.486H365.577V328.35ZM363.177 338.03L364.329 337.934C364.553 338.974 364.729 340.286 364.745 341.07L363.513 341.23C363.513 340.414 363.385 339.07 363.177 338.03ZM366.489 338.046L367.577 337.822C368.073 338.782 368.601 340.078 368.793 340.894L367.609 341.182C367.449 340.382 366.969 339.054 366.489 338.046ZM369.753 337.918L370.825 337.518C371.641 338.51 372.569 339.87 372.953 340.766L371.817 341.23C371.449 340.35 370.569 338.942 369.753 337.918ZM360.585 337.614L361.721 337.902C361.193 339.15 360.377 340.51 359.513 341.358L358.409 340.814C359.257 340.094 360.089 338.798 360.585 337.614ZM375.977 329.134H387.625V330.318H375.977V329.134ZM374.793 332.83H388.745V334.03H374.793V332.83ZM381.161 326.654H382.425V340.078H381.161V326.654ZM386.153 335.262H387.369V341.374H386.153V335.262ZM376.105 335.262H377.369V339.278H386.953V340.462H376.105V335.262ZM391.945 326.67L392.985 326.942C392.505 328.702 391.721 330.526 390.793 331.726C390.697 331.486 390.377 330.91 390.185 330.67C390.969 329.662 391.593 328.19 391.945 326.67ZM391.961 328.478H395.129V329.534H391.737L391.961 328.478ZM392.169 341.182L391.977 340.142L392.297 339.678L394.825 337.998C394.905 338.286 395.065 338.702 395.177 338.91C392.761 340.59 392.393 340.894 392.169 341.182ZM391.065 331.47H394.841V332.51H391.065V331.47ZM390.505 334.766H395.193V335.822H390.505V334.766ZM392.169 341.182C392.041 340.942 391.721 340.526 391.529 340.334C391.817 340.126 392.313 339.582 392.313 338.798V332.046H393.417V339.678C393.417 339.678 392.169 340.718 392.169 341.182ZM397.913 328.558H405.017V329.598H397.913V328.558ZM401.161 330.35H402.233V339.246H401.161V330.35ZM398.457 333.518C398.393 333.294 398.233 332.766 398.105 332.494C398.345 332.414 398.585 332.014 398.857 331.422C399.113 330.862 399.993 328.622 400.393 326.606L401.545 326.846C400.953 329.022 400.041 331.326 399.161 332.894V332.91C399.161 332.91 398.457 333.294 398.457 333.518ZM398.457 333.518V332.59L399.097 332.286H404.601V333.294H399.705C399.081 333.294 398.601 333.39 398.457 333.518ZM398.057 335.422H404.937V336.494H398.057V335.422ZM397.545 332.334V339.182H396.441V333.438H394.905V332.334H397.545ZM395.369 327.598L396.329 327.262C396.841 328.158 397.401 329.294 397.641 330.062L396.617 330.462C396.377 329.678 395.849 328.478 395.369 327.598ZM397.113 338.43C397.577 338.43 397.929 338.83 398.601 339.246C399.401 339.742 400.345 339.886 401.593 339.886C402.601 339.886 404.233 339.822 405.305 339.694C405.177 340.014 405.017 340.606 405.001 340.942C404.169 340.99 402.537 341.038 401.561 341.038C400.233 341.038 399.257 340.814 398.393 340.286C397.849 339.902 397.417 339.502 397.097 339.502C396.649 339.502 395.961 340.35 395.353 341.214L394.569 340.11C395.449 339.166 396.377 338.43 397.113 338.43ZM415.529 326.638H416.745V328.83H415.529V326.638ZM411.737 328.35H420.633V329.39H411.737V328.35ZM411.097 332.094H421.081V333.15H411.097V332.094ZM413.241 329.534L414.281 329.326C414.633 330.19 414.937 331.31 415.001 331.998L413.913 332.27C413.865 331.566 413.577 330.414 413.241 329.534ZM417.993 329.294L419.177 329.47C418.841 330.414 418.457 331.502 418.121 332.222L417.097 332.046C417.417 331.294 417.801 330.094 417.993 329.294ZM411.177 334.734H421.017V335.774H411.177V334.734ZM414.841 332.862L416.041 333.102C415.225 334.942 414.089 337.278 413.273 338.75L412.233 338.398C413.033 336.974 414.137 334.606 414.841 332.862ZM413.049 338.19L413.753 337.374C416.169 338.062 419.177 339.342 420.729 340.462L419.961 341.374C418.489 340.286 415.497 338.926 413.049 338.19ZM417.993 335.406L419.161 335.582C418.393 339.15 416.201 340.702 411.257 341.358C411.177 341.022 410.969 340.606 410.777 340.35C415.385 339.886 417.305 338.526 417.993 335.406ZM406.185 335.15C407.481 334.83 409.433 334.254 411.321 333.71L411.465 334.782C409.721 335.326 407.881 335.902 406.457 336.334L406.185 335.15ZM406.457 329.87H411.337V330.99H406.457V329.87ZM408.633 326.654H409.785V339.902C409.785 340.59 409.641 340.926 409.225 341.118C408.809 341.326 408.153 341.358 407.113 341.358C407.065 341.054 406.905 340.526 406.745 340.19C407.465 340.222 408.137 340.222 408.329 340.206C408.537 340.206 408.633 340.142 408.633 339.902V326.654ZM430.569 326.686H431.849C431.817 333.998 433.385 340.126 435.337 340.126C435.801 340.126 435.977 339.278 436.073 337.15C436.345 337.422 436.793 337.71 437.129 337.822C436.921 340.59 436.457 341.374 435.241 341.374C432.057 341.374 430.649 334.27 430.569 326.686ZM432.809 327.438L433.513 326.702C434.505 327.118 435.689 327.822 436.281 328.35L435.545 329.198C434.969 328.654 433.801 327.902 432.809 327.438ZM434.905 331.534L436.089 331.822C434.697 336.142 432.281 339.358 428.921 341.374C428.745 341.134 428.265 340.654 428.009 340.43C431.337 338.638 433.641 335.566 434.905 331.534ZM422.825 329.198H436.729V330.382H422.825V329.198ZM422.745 339.038C424.489 338.702 427.209 338.158 429.817 337.598L429.913 338.75C427.465 339.294 424.841 339.87 422.969 340.27L422.745 339.038ZM424.857 332.846V335.646H428.121V332.846H424.857ZM423.753 331.806H429.305V336.67H423.753V331.806ZM439.001 327.518H452.537V331.022H451.289V328.638H440.185V331.022H439.001V327.518ZM442.713 330.654H450.185V331.71H442.713V330.654ZM442.169 333.646H449.097V334.718H442.169V333.646ZM438.617 336.606H452.921V337.726H438.617V336.606ZM448.793 333.646H449.993C449.993 333.646 449.961 334.014 449.945 334.19C449.561 338.51 449.177 340.206 448.537 340.846C448.153 341.214 447.785 341.326 447.177 341.358C446.649 341.39 445.609 341.374 444.569 341.31C444.537 340.974 444.377 340.494 444.169 340.174C445.273 340.286 446.377 340.286 446.777 340.286C447.145 340.286 447.337 340.27 447.529 340.11C448.073 339.646 448.441 337.934 448.777 333.838L448.793 333.646ZM442.537 328.75L443.737 328.878C443.353 330.942 442.761 333.646 442.329 335.246L441.113 335.134C441.577 333.502 442.185 330.766 442.537 328.75ZM460.217 327.406H467.625V328.382H460.217V327.406ZM460.025 331.838H467.913V332.83H460.025V331.838ZM460.025 334.062H467.881V335.054H460.025V334.062ZM460.489 339.614H467.433V340.606H460.489V339.614ZM458.713 329.614H469.129V330.622H458.713V329.614ZM459.865 336.286H468.057V341.31H466.857V337.262H461.017V341.358H459.865V336.286ZM458.169 326.686L459.305 327.038C458.217 329.742 456.505 332.43 454.729 334.206C454.617 333.934 454.281 333.31 454.057 333.022C455.673 331.502 457.241 329.118 458.169 326.686ZM456.505 330.814L457.641 329.678L457.657 329.694V341.326H456.505V330.814ZM470.825 337.166C470.761 336.926 470.569 336.35 470.441 336.03C470.777 335.966 471.145 335.566 471.657 334.974C472.185 334.398 473.897 332.142 475.001 329.95L476.041 330.59C474.761 332.766 473.209 334.958 471.657 336.526V336.542C471.657 336.542 470.825 336.926 470.825 337.166ZM470.825 337.166L470.761 336.19L471.353 335.774L475.785 334.974C475.753 335.294 475.737 335.758 475.769 335.998C471.721 336.814 471.161 336.974 470.825 337.166ZM470.713 333.326C470.649 333.07 470.457 332.462 470.313 332.142C470.601 332.078 470.873 331.694 471.209 331.15C471.561 330.638 472.697 328.574 473.321 326.654L474.489 327.182C473.673 329.15 472.569 331.214 471.465 332.638V332.686C471.465 332.686 470.713 333.07 470.713 333.326ZM470.713 333.326L470.697 332.414L471.257 332.03L474.217 331.726C474.169 332.03 474.121 332.494 474.121 332.734C471.433 333.086 470.985 333.198 470.713 333.326ZM470.425 339.23C471.785 338.958 473.849 338.494 475.865 338.03L475.977 339.086C474.089 339.566 472.121 340.046 470.649 340.414L470.425 339.23ZM477.721 331.886H482.777V332.99H477.721V331.886ZM477.433 339.47H482.921V340.558H477.433V339.47ZM476.937 334.798H483.465V341.374H482.265V335.886H478.089V341.406H476.937V334.798ZM480.649 327.118C481.545 329.15 483.289 331.23 485.049 332.222C484.761 332.446 484.377 332.91 484.185 333.214C482.409 332.03 480.665 329.742 479.705 327.438L480.649 327.118ZM479.833 326.67L480.985 326.99C480.105 329.566 478.537 331.87 476.377 333.406C476.201 333.15 475.769 332.734 475.513 332.542C477.545 331.15 479.113 328.958 479.833 326.67ZM487.097 329.102H494.217V340.126H493.113V330.158H488.153V340.35H487.097V329.102ZM487.593 333.534H493.497V334.574H487.593V333.534ZM487.625 338.238H493.449V339.278H487.625V338.238ZM490.073 326.67H491.241V329.678H491.193V338.974H490.121V329.678H490.073V326.67ZM495.769 327.502H499.961V328.638H496.825V341.342H495.769V327.502ZM499.689 327.502H499.913L500.105 327.454L500.921 327.982C500.345 329.454 499.593 331.278 498.905 332.766C500.377 334.286 500.729 335.55 500.729 336.654C500.729 337.598 500.521 338.366 499.977 338.734C499.721 338.91 499.353 339.006 498.969 339.054C498.569 339.102 498.041 339.102 497.561 339.07C497.529 338.766 497.417 338.27 497.225 337.934C497.705 337.982 498.169 337.982 498.505 337.982C498.745 337.95 498.985 337.918 499.177 337.806C499.513 337.614 499.609 337.102 499.609 336.542C499.609 335.55 499.177 334.366 497.721 332.926C498.473 331.262 499.257 329.118 499.689 327.87V327.502ZM511.417 326.846H512.617V341.358H511.417V326.846ZM508.649 327.454L509.801 327.678C509.369 329.918 508.633 332.11 507.721 333.534C507.481 333.358 506.985 333.07 506.681 332.942C507.609 331.598 508.281 329.534 508.649 327.454ZM508.809 329.918H516.281V331.102H508.505L508.809 329.918ZM506.809 334.622H516.985V335.806H506.809V334.622ZM506.025 326.702L507.161 327.054C506.153 329.758 504.601 332.462 502.937 334.27C502.825 333.998 502.473 333.374 502.249 333.086C503.753 331.534 505.177 329.134 506.025 326.702ZM504.409 330.83L505.545 329.694L505.561 329.71V341.342H504.409V330.83Z" fill="#2D3342"/>
<path d="M291.911 144.795C292.11 144.768 296.934 144.175 296.761 139.826C296.745 139.427 296.696 139.063 296.618 138.733M291.911 144.795C294.554 144.642 295.902 143.648 296.511 142.449M291.911 144.795C291.591 144.839 291.261 144.833 290.936 144.781M296.618 138.733C296.52 138.32 296.378 137.96 296.199 137.649M296.618 138.733C296.972 139.702 297.151 141.188 296.511 142.449M296.199 137.649C294.736 135.098 290.839 135.833 289.346 137.606C288.76 138.302 287.53 140.069 288.11 142.292C288.474 143.685 289.676 144.58 290.936 144.781M296.199 137.649C296.758 138.419 297.563 140.221 296.855 141.845M296.511 142.449C296.652 142.252 296.765 142.05 296.855 141.845M290.936 144.781C292.601 145.073 296.116 144.894 296.855 141.845M293.261 148.186L288.455 148.156C286.719 148.145 285.125 149.086 284.339 150.587L284.161 150.927C283.61 151.978 283.47 153.223 284.035 154.267M317.592 144.957C317.393 144.927 312.577 144.273 312.805 139.927C312.826 139.528 312.88 139.165 312.961 138.836M317.592 144.957C314.951 144.771 313.615 143.759 313.022 142.553M317.592 144.957C317.911 145.005 318.241 145.003 318.567 144.955M312.961 138.836C313.064 138.424 313.211 138.066 313.393 137.757M312.961 138.836C312.595 139.8 312.398 141.284 313.022 142.553M313.393 137.757C314.889 135.225 318.776 136.009 320.247 137.8C320.824 138.504 322.031 140.287 321.423 142.502C321.042 143.89 319.829 144.77 318.567 144.955M313.393 137.757C312.825 138.521 311.997 140.312 312.685 141.945M313.022 142.553C312.883 142.354 312.772 142.151 312.685 141.945M318.567 144.955C316.898 145.226 313.386 145.003 312.685 141.945M316.199 148.331L321.005 148.361C322.741 148.372 324.323 149.333 325.09 150.844L325.264 151.186C325.801 152.244 325.926 153.49 325.348 154.527" stroke="#5955B3" stroke-width="2" stroke-linecap="round"/>
<path d="M303.699 159.217C303.978 159.181 310.733 158.396 310.488 152.628C310.465 152.098 310.396 151.616 310.287 151.178M303.699 159.217C307.4 159.016 309.288 157.697 310.139 156.107M303.699 159.217C303.251 159.275 302.79 159.268 302.334 159.198M310.287 151.178C310.151 150.63 309.951 150.152 309.701 149.74M310.287 151.178C310.783 152.463 311.035 154.435 310.139 156.107M309.701 149.74C307.65 146.355 302.195 147.328 300.105 149.679C299.285 150.602 297.563 152.946 298.376 155.895C298.886 157.743 300.57 158.93 302.334 159.198M309.701 149.74C310.483 150.762 311.612 153.152 310.62 155.306M310.139 156.107C310.337 155.846 310.495 155.578 310.62 155.306M302.334 159.198C304.666 159.586 309.588 159.35 310.62 155.306M315.907 167.041L316.404 167.966C317.003 169.085 317.271 170.38 316.709 171.513M315.907 167.041C314.833 165.036 312.618 163.76 310.186 163.745L298.862 163.674C296.43 163.658 294.199 164.906 293.099 166.897L292.85 167.348C292.08 168.742 291.883 170.393 292.675 171.778C295.093 176.006 299.307 177.835 303.581 177.97M315.907 167.041C317.005 170.023 316.076 176.384 303.581 177.97M316.709 171.513C314.741 175.483 309.111 178.144 303.581 177.97M316.709 171.513C316.151 174.149 312.745 179.13 303.581 177.97" stroke="#5955B3" stroke-width="2" stroke-linecap="round"/>
<path d="M111.156 162.479C109.962 162.302 81.0513 158.445 82.2554 131.553C82.3661 129.082 82.6743 126.834 83.1533 124.797M111.156 162.479C95.3099 161.432 87.2578 155.225 83.6541 147.785M111.156 162.479C113.073 162.764 115.05 162.741 117.006 162.431M83.1533 124.797C83.753 122.246 84.6204 120.024 85.7031 118.106M83.1533 124.797C80.9944 130.776 79.8644 139.962 83.6541 147.785M85.7031 118.106C94.5791 102.384 117.922 107.081 126.811 118.106C130.298 122.436 137.608 133.417 134.046 147.143C131.813 155.747 124.568 161.234 117.006 162.431M85.7031 118.106C82.3256 122.851 77.4253 133.962 81.6148 144.038M83.6541 147.785C82.8157 146.563 82.143 145.309 81.6148 144.038M117.006 162.431C107.007 164.171 85.9298 162.927 81.6148 144.038" stroke="#5A56B4" stroke-width="3" stroke-linecap="round"/>
<path d="M401.76 269V264.568L412.115 254.98C412.996 254.128 413.735 253.361 414.331 252.679C414.937 251.997 415.397 251.33 415.709 250.676C416.022 250.013 416.178 249.298 416.178 248.531C416.178 247.679 415.984 246.945 415.596 246.33C415.207 245.705 414.677 245.226 414.005 244.895C413.332 244.554 412.57 244.384 411.718 244.384C410.828 244.384 410.051 244.563 409.388 244.923C408.725 245.283 408.214 245.799 407.854 246.472C407.494 247.144 407.314 247.944 407.314 248.872H401.476C401.476 246.969 401.907 245.316 402.769 243.915C403.631 242.513 404.838 241.429 406.391 240.662C407.944 239.895 409.734 239.511 411.76 239.511C413.844 239.511 415.657 239.881 417.201 240.619C418.754 241.348 419.961 242.362 420.823 243.659C421.685 244.956 422.115 246.443 422.115 248.119C422.115 249.218 421.898 250.302 421.462 251.372C421.036 252.442 420.274 253.631 419.175 254.938C418.077 256.235 416.528 257.793 414.53 259.611L410.283 263.773V263.972H422.499V269H401.76Z" fill="black"/>
<path d="M414.289 279.479C413.051 279.302 383.089 275.445 384.337 248.553C384.452 246.082 384.772 243.834 385.268 241.797M414.289 279.479C397.867 278.432 389.522 272.225 385.787 264.785M414.289 279.479C416.276 279.764 418.325 279.741 420.352 279.431M385.268 241.797C385.889 239.246 386.788 237.024 387.91 235.106M385.268 241.797C383.031 247.776 381.86 256.962 385.787 264.785M387.91 235.106C397.109 219.384 421.301 224.081 430.513 235.106C434.127 239.436 441.703 250.417 438.011 264.143C435.697 272.747 428.189 278.234 420.352 279.431M387.91 235.106C384.41 239.851 379.332 250.962 383.674 261.038M385.787 264.785C384.918 263.563 384.221 262.309 383.674 261.038M420.352 279.431C409.989 281.171 388.145 279.927 383.674 261.038" stroke="#5A56B4" stroke-width="3" stroke-linecap="round"/>
<path d="M683.289 217.479C682.051 217.302 652.089 213.445 653.337 186.553C653.452 184.082 653.772 181.834 654.268 179.797M683.289 217.479C666.867 216.432 658.522 210.225 654.787 202.785M683.289 217.479C685.276 217.764 687.325 217.741 689.352 217.431M654.268 179.797C654.889 177.246 655.788 175.024 656.91 173.106M654.268 179.797C652.031 185.776 650.86 194.962 654.787 202.785M656.91 173.106C666.109 157.384 690.301 162.081 699.513 173.106C703.127 177.436 710.703 188.417 707.011 202.143C704.697 210.747 697.189 216.234 689.352 217.431M656.91 173.106C653.41 177.851 648.332 188.962 652.674 199.038M654.787 202.785C653.918 201.563 653.221 200.309 652.674 199.038M689.352 217.431C678.989 219.171 657.145 217.927 652.674 199.038" stroke="#5A56B4" stroke-width="3" stroke-linecap="round"/>
<path d="M119.911 188.915H133.927V190.083H119.911V188.915ZM124.871 193.987H133.303V195.107H124.871V193.987ZM124.247 199.651H133.927V200.787H124.247V199.651ZM128.487 190.899H129.687V200.259H128.487V190.899ZM125.175 186.435L126.407 186.739C125.287 190.403 123.335 194.131 120.151 196.419C120.023 196.099 119.719 195.587 119.527 195.315C122.407 193.283 124.279 189.731 125.175 186.435ZM122.007 193.027H123.207V201.107H122.007V193.027ZM144.455 188.275H145.623V197.027H144.455V188.275ZM148.343 186.739H149.543V199.587C149.543 200.403 149.319 200.755 148.839 200.947C148.311 201.155 147.447 201.187 145.991 201.171C145.911 200.851 145.735 200.323 145.559 199.987C146.647 200.019 147.639 200.003 147.927 200.003C148.231 199.987 148.343 199.891 148.343 199.603V186.739ZM138.199 190.755H142.551V191.875H138.199V190.755ZM135.863 187.267H143.831V188.387H135.863V187.267ZM137.063 194.131L137.623 193.251C138.823 193.923 140.375 194.915 141.143 195.555L140.535 196.563C139.783 195.891 138.247 194.851 137.063 194.131ZM142.103 190.755H142.343L142.567 190.707L143.319 190.979C142.439 196.211 140.119 199.507 137.159 201.203C136.983 200.931 136.535 200.499 136.263 200.307C139.175 198.755 141.367 195.731 142.103 191.027V190.755ZM138.759 187.795L139.975 188.019C139.287 190.787 138.103 193.891 136.103 195.795C135.895 195.571 135.511 195.203 135.271 194.995C137.127 193.235 138.263 190.275 138.759 187.795ZM152.503 187.779H165.351V188.819H152.503V187.779ZM153.239 190.131H164.727V191.139H153.239V190.131ZM151.911 192.579H165.895V193.635H151.911V192.579ZM158.263 186.435H159.479V193.395H158.263V186.435ZM158.215 192.931L159.255 193.427C157.591 195.251 154.631 196.931 152.151 197.747C151.959 197.443 151.623 196.995 151.367 196.755C153.831 196.051 156.727 194.515 158.215 192.931ZM159.959 193.091C160.919 196.515 162.999 199.043 166.391 200.051C166.119 200.291 165.783 200.787 165.607 201.107C162.071 199.891 159.975 197.187 158.871 193.315L159.959 193.091ZM164.519 194.163L165.479 194.915C164.343 195.827 162.823 196.803 161.671 197.443L160.935 196.787C162.055 196.115 163.607 195.011 164.519 194.163ZM153.143 200.051C154.983 199.651 157.863 198.931 160.599 198.259L160.711 199.331C158.183 199.987 155.447 200.675 153.527 201.155L153.143 200.051ZM155.399 195.907L156.263 195.043L156.599 195.139V199.971H155.399V195.907ZM168.455 189.299H181.351V196.835H180.103V190.483H169.655V196.915H168.455V189.299ZM169.095 194.739H180.823V195.907H169.095V194.739ZM174.247 186.435H175.495V201.139H174.247V186.435ZM187.639 196.403V197.731H194.119V196.403H187.639ZM187.639 194.243V195.555H194.119V194.243H187.639ZM186.455 193.379H195.351V198.595H186.455V193.379ZM183.831 188.483H198.023V189.539H183.831V188.483ZM190.263 186.435H191.463V192.883H190.263V186.435ZM189.575 188.787L190.583 189.187C189.143 191.251 186.615 193.123 184.263 194.051C184.087 193.763 183.735 193.331 183.479 193.091C185.783 192.307 188.295 190.579 189.575 188.787ZM192.119 188.803C193.415 190.547 195.975 192.195 198.343 192.947C198.071 193.171 197.719 193.619 197.543 193.939C195.159 193.043 192.599 191.203 191.143 189.187L192.119 188.803ZM184.087 199.571H197.799V200.643H184.087V199.571ZM199.447 194.915C200.887 194.563 203.047 193.955 205.079 193.363L205.223 194.467C203.351 195.027 201.335 195.635 199.799 196.067L199.447 194.915ZM199.639 189.667H205.063V190.803H199.639V189.667ZM201.943 186.451H203.111V199.635C203.111 200.307 202.935 200.643 202.535 200.819C202.103 201.011 201.447 201.043 200.343 201.043C200.295 200.739 200.119 200.243 199.975 199.923C200.727 199.955 201.415 199.939 201.623 199.939C201.847 199.939 201.943 199.859 201.943 199.635V186.451ZM205.255 190.963L213.847 190.067L213.975 191.187L205.383 192.115L205.255 190.963ZM209.719 187.427L210.631 186.819C211.431 187.491 212.391 188.467 212.839 189.123L211.879 189.811C211.463 189.139 210.503 188.131 209.719 187.427ZM207.415 186.499H208.631C208.903 193.683 210.199 199.443 212.583 199.683C213.015 199.715 213.271 198.835 213.431 197.075C213.671 197.315 214.199 197.619 214.455 197.731C214.087 200.339 213.447 201.139 212.631 201.091C209.063 200.819 207.799 194.659 207.415 186.499ZM212.167 192.435L213.159 193.043C211.719 196.179 208.839 199.203 205.719 200.611C205.495 200.291 205.111 199.907 204.775 199.667C207.959 198.403 210.839 195.459 212.167 192.435ZM215.895 195.219H230.023V196.355H215.895V195.219ZM225.271 193.987H226.503V199.731C226.503 200.435 226.311 200.771 225.735 200.931C225.159 201.107 224.199 201.107 222.647 201.107C222.599 200.787 222.391 200.339 222.231 200.019C223.415 200.067 224.567 200.051 224.871 200.035C225.175 200.035 225.271 199.955 225.271 199.715V193.987ZM218.295 196.963L219.127 196.259C220.135 197.075 221.271 198.243 221.799 199.059L220.903 199.859C220.423 199.027 219.287 197.811 218.295 196.963ZM217.079 187.571H218.327V191.747C218.327 192.419 218.647 192.579 220.423 192.579C221.255 192.579 225.687 192.579 226.807 192.579C228.119 192.579 228.343 192.355 228.487 191.171C228.791 191.347 229.287 191.491 229.639 191.555C229.431 193.187 228.919 193.587 226.903 193.587C226.247 193.587 221.111 193.587 220.503 193.587C217.863 193.587 217.079 193.251 217.079 191.763V187.571ZM217.495 189.811H226.951V188.131H217.079V187.075H228.119V190.883H217.495V189.811ZM237.047 187.283H246.087V188.387H237.047V187.283ZM240.871 187.731H242.007V201.123H240.871V187.731ZM237.607 190.355H244.791V191.443H238.727V198.851H237.607V190.355ZM244.343 190.355H245.463V197.491C245.463 198.051 245.367 198.355 244.983 198.547C244.599 198.739 244.039 198.739 243.159 198.739C243.111 198.435 242.951 197.987 242.807 197.683C243.415 197.699 243.943 197.699 244.119 197.699C244.295 197.699 244.343 197.635 244.343 197.459V190.355ZM234.983 186.467H236.103V192.867C236.103 196.035 235.799 198.963 233.399 201.139C233.207 200.899 232.791 200.515 232.503 200.339C234.727 198.371 234.983 195.731 234.983 192.867V186.467ZM232.423 188.275H233.511V196.051H232.423V188.275ZM255.735 186.483H257.015C256.983 193.795 258.551 199.923 260.503 199.923C260.967 199.923 261.143 199.075 261.239 196.947C261.511 197.219 261.959 197.507 262.295 197.619C262.087 200.387 261.623 201.171 260.407 201.171C257.223 201.171 255.815 194.067 255.735 186.483ZM257.975 187.235L258.679 186.499C259.671 186.915 260.855 187.619 261.447 188.147L260.711 188.995C260.135 188.451 258.967 187.699 257.975 187.235ZM260.071 191.331L261.255 191.619C259.863 195.939 257.447 199.155 254.087 201.171C253.911 200.931 253.431 200.451 253.175 200.227C256.503 198.435 258.807 195.363 260.071 191.331ZM247.991 188.995H261.895V190.179H247.991V188.995ZM247.911 198.835C249.655 198.499 252.375 197.955 254.983 197.395L255.079 198.547C252.631 199.091 250.007 199.667 248.135 200.067L247.911 198.835ZM250.023 192.643V195.443H253.287V192.643H250.023ZM248.919 191.603H254.471V196.467H248.919V191.603ZM263.895 195.219H278.023V196.355H263.895V195.219ZM273.271 193.987H274.503V199.731C274.503 200.435 274.311 200.771 273.735 200.931C273.159 201.107 272.199 201.107 270.647 201.107C270.599 200.787 270.391 200.339 270.231 200.019C271.415 200.067 272.567 200.051 272.871 200.035C273.175 200.035 273.271 199.955 273.271 199.715V193.987ZM266.295 196.963L267.127 196.259C268.135 197.075 269.271 198.243 269.799 199.059L268.903 199.859C268.423 199.027 267.287 197.811 266.295 196.963ZM265.079 187.571H266.327V191.747C266.327 192.419 266.647 192.579 268.423 192.579C269.255 192.579 273.687 192.579 274.807 192.579C276.119 192.579 276.343 192.355 276.487 191.171C276.791 191.347 277.287 191.491 277.639 191.555C277.431 193.187 276.919 193.587 274.903 193.587C274.247 193.587 269.111 193.587 268.503 193.587C265.863 193.587 265.079 193.251 265.079 191.763V187.571ZM265.495 189.811H274.951V188.131H265.079V187.075H276.119V190.883H265.495V189.811ZM285.047 187.283H294.087V188.387H285.047V187.283ZM288.871 187.731H290.007V201.123H288.871V187.731ZM285.607 190.355H292.791V191.443H286.727V198.851H285.607V190.355ZM292.343 190.355H293.463V197.491C293.463 198.051 293.367 198.355 292.983 198.547C292.599 198.739 292.039 198.739 291.159 198.739C291.111 198.435 290.951 197.987 290.807 197.683C291.415 197.699 291.943 197.699 292.119 197.699C292.295 197.699 292.343 197.635 292.343 197.459V190.355ZM282.983 186.467H284.103V192.867C284.103 196.035 283.799 198.963 281.399 201.139C281.207 200.899 280.791 200.515 280.503 200.339C282.727 198.371 282.983 195.731 282.983 192.867V186.467ZM280.423 188.275H281.511V196.051H280.423V188.275Z" fill="#2D3342"/>
<path d="M267.496 165.002C129.496 165.002 25.599 180.877 38.9145 213.377C52.2299 245.878 484 244 335.994 169.003" stroke="#5A56B4" stroke-width="2" stroke-linecap="round"/>
<path d="M422.598 164.204C444.419 171.142 506.169 183.548 578.598 177.667" stroke="#5955B3" stroke-width="2" stroke-linecap="round"/>
<path d="M633.137 37.9505C641.56 35.9181 651.756 39.8138 655.953 43.9302C658.954 46.8734 667.446 56.7873 655.193 67.3838C654.862 67.67 654.615 68.0578 654.516 68.4839L653.073 74.6652C652.753 76.0337 651.159 76.6547 649.998 75.8629L644.423 72.0604C644.148 71.8729 643.836 71.7586 643.506 71.7205C634.481 70.6787 617.056 65.4751 621.348 49.9863C622.362 46.3293 624.03 43.6126 626.111 41.6578" stroke="#5955B3" stroke-width="2" stroke-linecap="round"/>
<path d="M635.22 52.4221C634.934 53.2493 634.03 53.6912 633.196 53.4039C632.363 53.1166 631.923 52.2111 632.208 51.384C632.493 50.5569 633.398 50.1149 634.231 50.4022C635.065 50.6895 635.505 51.595 635.22 52.4221Z" stroke="#5955B3" stroke-width="2"/>
<path d="M642.048 54.7761C641.763 55.6033 640.858 56.0452 640.025 55.7579C639.191 55.4706 638.751 54.5651 639.036 53.738C639.321 52.9109 640.226 52.4689 641.059 52.7562C641.893 53.0435 642.333 53.949 642.048 54.7761Z" stroke="#5955B3" stroke-width="2"/>
<path d="M648.876 57.1299C648.591 57.957 647.686 58.399 646.853 58.1117C646.019 57.8244 645.579 56.9188 645.864 56.0917C646.149 55.2646 647.054 54.8227 647.887 55.11C648.721 55.3973 649.161 56.3028 648.876 57.1299Z" stroke="#5955B3" stroke-width="2"/>
<path d="M617.355 57.3089L612.125 57.5697C610.592 57.6461 609.547 56.0379 610.241 54.6684L611.778 51.6351C611.96 51.276 612.027 50.871 611.984 50.4708C611.265 43.8069 612.457 31.9001 625.613 29.6584C638.516 27.4599 645.644 35.1953 649.933 39.8017" stroke="#5955B3" stroke-width="2" stroke-linecap="round"/>
<path d="M731.598 126.204C736.714 115.308 735.49 90.4546 689.658 78.2039" stroke="#5955B3" stroke-width="2" stroke-linecap="round"/>
<path d="M405.598 97.2039C418.694 87.9454 461.83 68.5836 529.598 65.2039" stroke="#5955B3" stroke-width="2" stroke-linecap="round"/>
<path d="M466.598 185.204C479.421 188.671 513.095 190.752 529.598 190.077" stroke="#5955B3" stroke-width="2" stroke-linecap="round"/>
<path d="M738.729 101.547C739.095 98.162 737.382 89.998 727.598 84.4226" stroke="#5955B3" stroke-width="2" stroke-linecap="round"/>
<path d="M401.519 78.2738C414.974 71.7419 427.223 63.8842 469.813 62.2221" stroke="#5955B3" stroke-width="2" stroke-linecap="round"/>
<path d="M478.664 286.589L475.382 286.329" stroke="#0C0993" stroke-linecap="round"/>
<path d="M479.839 283.514L474.595 281.381" stroke="#0C0993" stroke-linecap="round"/>
<path d="M482.047 281.147L478.649 278.237" stroke="#0C0993" stroke-linecap="round"/>
<path d="M485.393 298.865L497.445 301.571C498.322 301.768 499.223 301.356 499.647 300.564L501.73 296.671C502.163 295.862 503.091 295.452 503.98 295.675L507.907 296.66C508.821 296.889 509.772 296.449 510.188 295.602L515.453 284.89C516.18 283.411 518.284 283.397 519.031 284.866L526.9 300.336C527.415 301.35 526.983 302.59 525.948 303.062L493.349 317.958C492.365 318.407 491.203 317.993 490.724 317.024L483.161 301.702C482.417 300.195 483.752 298.497 485.393 298.865Z" fill="#5955B3" stroke="#0C0993" stroke-linecap="round"/>
<path d="M493.258 314.32L497.464 305.246" stroke="#0C0993" stroke-linecap="round"/>
<path d="M513.091 297.903L522.753 300.551" stroke="#0C0993" stroke-linecap="round"/>
<path d="M484.06 291.738L481.424 298.053L488.586 299.38L484.06 291.738Z" fill="#5955B3"/>
<path d="M510.292 279.641L514.323 287.207L517.079 281.391L510.292 279.641Z" fill="#5955B3"/>
<path d="M499.305 276.08L488.662 281.133L492.149 274.377L499.305 276.08Z" fill="#5955B3"/>
<path d="M488.553 299.469L481.774 287.495C481.21 286.501 481.594 285.237 482.615 284.724L504.938 273.485C505.901 273 507.075 273.366 507.592 274.312L514.401 286.769" stroke="#0C0993" stroke-linecap="round"/>
<path d="M492.947 300.255L488.74 292.238C488.208 291.224 488.634 289.97 489.675 289.492L505.426 282.242C506.401 281.793 507.557 282.195 508.044 283.152L512.182 291.282" stroke="#0C0993" stroke-linecap="round"/>
<path d="M495.971 293.938L504.664 289.808" stroke="#0C0993" stroke-linecap="round"/>
<path d="M495.953 298.227L507.747 292.528" stroke="#0C0993" stroke-linecap="round"/>
<path d="M562.594 275.079C564.281 274.48 568.451 273.566 571.638 274.7M591.325 291.974C593.161 294.695 596.877 301.17 597.045 305.31" stroke="black" stroke-opacity="0.3" stroke-linecap="round"/>
<path d="M559.688 296.204L558.691 296.131C558.661 296.541 558.885 296.927 559.255 297.105C559.624 297.283 560.066 297.217 560.367 296.939L559.688 296.204ZM576.06 281.076L576.739 281.811C576.764 281.787 576.789 281.762 576.812 281.736L576.06 281.076ZM582.872 282.138L583.744 281.648L583.744 281.648L582.872 282.138ZM578.123 291.078L577.467 290.324C577.459 290.331 577.452 290.337 577.445 290.344L578.123 291.078ZM569.937 298.643L569.258 297.909C569.05 298.101 568.934 298.373 568.937 298.656C568.941 298.939 569.065 299.208 569.278 299.395L569.937 298.643ZM576.812 324.338L576.258 323.506L576.812 324.338ZM553.377 285.75L554.26 286.219L553.377 285.75ZM560.367 296.939L576.739 281.811L575.382 280.342L559.01 295.47L560.367 296.939ZM576.812 281.736C576.863 281.677 577.103 281.49 577.566 281.309C578 281.139 578.535 281.013 579.091 280.996C580.172 280.965 581.276 281.338 582 282.627L583.744 281.648C582.577 279.57 580.682 278.949 579.033 278.997C578.223 279.021 577.461 279.202 576.837 279.447C576.242 279.679 575.664 280.012 575.309 280.416L576.812 281.736ZM582 282.627C582.605 283.704 582.271 285.003 581.184 286.523C580.123 288.005 578.575 289.359 577.467 290.324L578.78 291.833C579.859 290.893 581.591 289.391 582.811 287.686C584.004 286.019 584.951 283.799 583.744 281.648L582 282.627ZM577.445 290.344L569.258 297.909L570.616 299.377L578.802 291.813L577.445 290.344ZM569.278 299.395L578.901 307.839L580.22 306.336L570.597 297.891L569.278 299.395ZM578.901 307.839C582.708 311.179 582.741 319.195 576.258 323.506L577.366 325.171C584.777 320.243 585.163 310.673 580.22 306.336L578.901 307.839ZM576.258 323.506C573.785 325.15 571.048 325.802 568.629 325.775C566.181 325.747 564.176 325.028 563.099 324.083L561.78 325.586C563.327 326.944 565.853 327.744 568.607 327.775C571.39 327.806 574.528 327.058 577.366 325.171L576.258 323.506ZM563.099 324.083L550.85 313.335L549.531 314.839L561.78 325.586L563.099 324.083ZM550.85 313.335C548.765 311.505 544.833 303.969 554.26 286.219L552.494 285.281C542.925 303.297 546.368 312.063 549.531 314.839L550.85 313.335ZM554.26 286.219C554.638 285.507 555.111 285.191 555.492 285.114C555.842 285.044 556.323 285.133 556.862 285.699C558.008 286.901 559.136 290.037 558.691 296.131L560.686 296.277C561.14 290.052 560.068 286.163 558.31 284.319C557.398 283.362 556.252 282.922 555.098 283.153C553.976 283.379 553.07 284.195 552.494 285.281L554.26 286.219Z" fill="#5955B3"/>
<g filter="url(#filter0_d_1020_6702)">
<path d="M356.807 255.776C357.164 261.439 358.942 274.875 363.227 285.168C363.404 285.594 362.67 286.301 362.172 286.187C354.596 284.463 337.632 284.032 327.008 285.217" stroke="#5955B3" stroke-width="4" stroke-linecap="round"/>
<path d="M360.316 284.409C347.231 275.136 322.414 260.534 311.361 245.15" stroke="#5955B3" stroke-width="4" stroke-linecap="round"/>
</g>
<g filter="url(#filter1_d_1020_6702)">
<path d="M596.172 208.039C601.714 209.255 615.121 211.246 626.196 209.962C626.654 209.909 627.131 210.809 626.885 211.256C623.14 218.065 618.056 234.254 616.268 244.794" stroke="#5955B3" stroke-width="4" stroke-linecap="round"/>
<path d="M624.665 212.551C612.146 222.576 591.275 242.412 573.442 248.801" stroke="#5955B3" stroke-width="4" stroke-linecap="round"/>
</g>
<g filter="url(#filter2_d_1020_6702)">
<path d="M228.346 121.864C226.367 126.009 222.315 136.205 221.233 145.145C221.188 145.515 220.403 145.731 220.103 145.458C215.541 141.309 203.979 134.449 196.166 131.18" stroke="#5955B3" stroke-width="4" stroke-linecap="round"/>
<path d="M219.518 143.483C214.114 131.863 202.691 111.938 201.094 96.7792" stroke="#5955B3" stroke-width="4" stroke-linecap="round"/>
</g>
<path d="M682.427 203.398C680.306 203.398 678.417 203.033 676.76 202.304C675.112 201.565 673.81 200.552 672.853 199.264C671.906 197.967 671.419 196.471 671.39 194.776H677.583C677.621 195.486 677.853 196.111 678.279 196.651C678.715 197.181 679.293 197.593 680.012 197.886C680.732 198.18 681.542 198.327 682.441 198.327C683.379 198.327 684.208 198.161 684.927 197.83C685.647 197.498 686.21 197.039 686.618 196.452C687.025 195.865 687.228 195.187 687.228 194.42C687.228 193.644 687.011 192.957 686.575 192.361C686.149 191.755 685.533 191.281 684.728 190.94C683.933 190.599 682.986 190.429 681.887 190.429H679.174V185.912H681.887C682.815 185.912 683.635 185.751 684.345 185.429C685.065 185.107 685.623 184.662 686.021 184.094C686.419 183.516 686.618 182.844 686.618 182.077C686.618 181.348 686.442 180.708 686.092 180.159C685.751 179.6 685.268 179.165 684.643 178.852C684.028 178.54 683.308 178.384 682.484 178.384C681.651 178.384 680.888 178.535 680.197 178.838C679.506 179.132 678.952 179.553 678.535 180.102C678.118 180.652 677.896 181.295 677.868 182.034H671.973C672.001 180.358 672.479 178.881 673.407 177.602C674.335 176.324 675.585 175.325 677.157 174.605C678.739 173.876 680.524 173.511 682.512 173.511C684.52 173.511 686.277 173.876 687.782 174.605C689.288 175.334 690.458 176.319 691.291 177.56C692.134 178.791 692.55 180.173 692.541 181.707C692.55 183.336 692.044 184.695 691.021 185.784C690.008 186.873 688.687 187.564 687.058 187.858V188.085C689.198 188.36 690.827 189.103 691.944 190.315C693.071 191.518 693.63 193.024 693.62 194.832C693.63 196.49 693.152 197.962 692.186 199.25C691.229 200.538 689.908 201.551 688.223 202.29C686.537 203.028 684.605 203.398 682.427 203.398Z" fill="black"/>
<path d="M544.442 320.809C491.032 293.191 309.442 298.941 309.442 337.809C309.442 376.309 586.037 397.466 550.442 329.809" stroke="#5A56B4" stroke-width="2" stroke-linecap="round"/>
<defs>
<filter id="filter0_d_1020_6702" x="305.6" y="240" width="63.4665" height="58.6876" filterUnits="userSpaceOnUse" color-interpolation-filters="sRGB">
<feFlood flood-opacity="0" result="BackgroundImageFix"/>
<feColorMatrix in="SourceAlpha" type="matrix" values="0 0 0 0 0 0 0 0 0 0 0 0 0 0 0 0 0 0 127 0" result="hardAlpha"/>
<feOffset dy="4"/>
<feGaussianBlur stdDeviation="1.7"/>
<feComposite in2="hardAlpha" operator="out"/>
<feColorMatrix type="matrix" values="0 0 0 0 0 0 0 0 0 0 0 0 0 0 0 0 0 0 0.11 0"/>
<feBlend mode="normal" in2="BackgroundImageFix" result="effect1_dropShadow_1020_6702"/>
<feBlend mode="normal" in="SourceGraphic" in2="effect1_dropShadow_1020_6702" result="shape"/>
</filter>
<filter id="filter1_d_1020_6702" x="567.6" y="198" width="65.3913" height="70.3548" filterUnits="userSpaceOnUse" color-interpolation-filters="sRGB">
<feFlood flood-opacity="0" result="BackgroundImageFix"/>
<feColorMatrix in="SourceAlpha" type="matrix" values="0 0 0 0 0 0 0 0 0 0 0 0 0 0 0 0 0 0 127 0" result="hardAlpha"/>
<feOffset dy="4"/>
<feGaussianBlur stdDeviation="1.7"/>
<feComposite in2="hardAlpha" operator="out"/>
<feColorMatrix type="matrix" values="0 0 0 0 0 0 0 0 0 0 0 0 0 0 0 0 0 0 0.11 0"/>
<feBlend mode="normal" in2="BackgroundImageFix" result="effect1_dropShadow_1020_6702"/>
<feBlend mode="normal" in="SourceGraphic" in2="effect1_dropShadow_1020_6702" result="shape"/>
</filter>
<filter id="filter2_d_1020_6702" x="181.357" y="94.5481" width="59.2856" height="59.5442" filterUnits="userSpaceOnUse" color-interpolation-filters="sRGB">
<feFlood flood-opacity="0" result="BackgroundImageFix"/>
<feColorMatrix in="SourceAlpha" type="matrix" values="0 0 0 0 0 0 0 0 0 0 0 0 0 0 0 0 0 0 127 0" result="hardAlpha"/>
<feOffset dy="4"/>
<feGaussianBlur stdDeviation="1"/>
<feComposite in2="hardAlpha" operator="out"/>
<feColorMatrix type="matrix" values="0 0 0 0 0 0 0 0 0 0 0 0 0 0 0 0 0 0 0.14 0"/>
<feBlend mode="normal" in2="BackgroundImageFix" result="effect1_dropShadow_1020_6702"/>
<feBlend mode="normal" in="SourceGraphic" in2="effect1_dropShadow_1020_6702" result="shape"/>
</filter>
<linearGradient id="paint0_linear_1020_6702" x1="193.131" y1="32.9194" x2="253.957" y2="69.2713" gradientUnits="userSpaceOnUse">
<stop stop-color="#5955B3"/>
<stop offset="1" stop-color="#6563CE"/>
</linearGradient>
</defs>
</svg>
