<svg width="751" height="409" viewBox="0 0 751 409" fill="none" xmlns="http://www.w3.org/2000/svg">
<rect width="751" height="408" fill="white"/>
<path opacity="0.2" fill-rule="evenodd" clip-rule="evenodd" d="M749.851 388.241C749.813 399.213 740.941 408.103 729.976 408.17H434C446.534 373.263 498.889 303.449 608.04 303.449C717.192 303.449 748.061 249.15 749.851 222V388.241Z" fill="#79A4E2"/>
<path opacity="0.2" fill-rule="evenodd" clip-rule="evenodd" d="M210.762 0C208.095 18.1564 191.746 69.2135 124.397 92.3731C59.054 114.843 16.0075 107.116 3.85541e-05 99.853L3.21273e-05 20C3.12383e-05 8.95433 8.95433 1.91637e-05 20 1.81148e-05L210.762 0Z" fill="#6EA3E6"/>
<path d="M359.814 67.6386H387.174V72.3586H359.814V67.6386ZM370.694 37.5186H375.694V70.5186H370.694V37.5186ZM357.454 57.6386H362.334V74.6786H357.454V57.6386ZM384.614 57.6386H389.614V74.6386H384.614V57.6386ZM359.054 40.8786H363.854V50.8386H382.934V40.8786H388.014V55.4786H359.054V40.8786ZM411.134 50.7986H416.214V69.1186C416.214 71.8386 415.534 73.1586 413.534 73.8786C411.574 74.5986 408.694 74.6786 404.854 74.6786C404.574 73.2786 403.654 71.1186 402.894 69.7986C405.734 69.9186 409.014 69.9186 409.934 69.9186C410.814 69.9186 411.134 69.6786 411.134 68.9986V50.7986ZM397.454 39.9186H425.414V44.6386H397.454V39.9186ZM423.614 39.9186H424.894L426.054 39.5986L429.814 42.3986C426.214 46.7986 420.934 51.8786 416.014 54.9586C415.254 53.9186 413.694 52.3186 412.734 51.5586C416.894 48.9186 421.614 44.1186 423.614 41.0786V39.9186ZM450.814 37.1186H455.694V50.9986H450.814V37.1186ZM444.134 53.3586V58.4786H462.534V53.3586H444.134ZM439.574 48.8786H467.414V62.9186H439.574V48.8786ZM453.054 40.6386H470.054V45.1186H453.054V40.6386ZM446.214 65.9586L450.774 65.5186C451.374 68.2386 451.814 71.7186 451.894 73.8386L447.014 74.4386C447.014 72.2786 446.694 68.7186 446.214 65.9586ZM454.454 65.9986L458.814 65.0386C460.054 67.5586 461.374 70.8786 461.894 73.0386L457.174 74.1986C456.774 72.1186 455.574 68.6386 454.454 65.9986ZM462.574 65.7586L466.894 64.1986C468.814 66.7586 471.134 70.2786 472.134 72.5986L467.494 74.3986C466.654 72.1186 464.494 68.4386 462.574 65.7586ZM439.614 64.5186L444.214 65.6786C443.094 68.9186 441.134 72.3586 439.054 74.5586L434.614 72.3586C436.534 70.6386 438.494 67.4386 439.614 64.5186ZM476.414 46.7586H481.174V74.6386H476.414V46.7586ZM476.694 39.6786L480.174 37.3986C482.134 39.3986 484.974 42.3186 486.334 44.0786L482.654 46.7186C481.374 44.8786 478.654 41.8786 476.694 39.6786ZM487.294 39.1186H509.054V43.5586H487.294V39.1186ZM505.694 39.1186H510.494V68.9186C510.494 71.5586 509.934 72.8386 508.374 73.6386C506.774 74.3986 504.414 74.4786 501.014 74.4786C500.854 73.1186 500.134 70.9986 499.534 69.7186C501.574 69.8786 504.054 69.8386 504.734 69.8386C505.454 69.8386 505.694 69.5586 505.694 68.8786V39.1186ZM488.134 49.4386H500.814V64.7186H488.134V60.4386H496.174V53.7186H488.134V49.4386ZM485.734 49.4386H490.054V66.9586H485.734V49.4386ZM521.294 46.7986V48.7186H527.174V46.7986H521.294ZM521.294 41.8786V43.7586H527.174V41.8786H521.294ZM517.054 38.6786H531.614V51.9586H517.054V38.6786ZM515.174 54.2386H533.334V57.7586H515.174V54.2386ZM533.214 38.7586H552.014V42.5186H533.214V38.7586ZM522.694 55.3586H526.734V71.4386L522.694 69.1586V55.3586ZM524.734 60.9986H532.494V64.4386H524.734V60.9986ZM540.774 39.6786L545.574 40.6786C544.494 42.9986 543.414 45.3586 542.574 46.9186L538.814 45.9186C539.534 44.1586 540.374 41.5186 540.774 39.6786ZM520.254 62.6786C522.454 69.3986 527.414 70.0786 535.534 70.1186C538.214 70.1186 549.174 70.1186 552.454 69.9586C551.814 70.8786 551.094 72.7186 550.894 73.9186H535.494C525.654 73.9186 520.214 72.5586 517.414 63.5186L520.254 62.6786ZM534.494 45.3986H550.494V61.9186H546.454V48.7986H538.374V62.1986H534.494V45.3986ZM517.174 59.1586L521.094 59.3986C520.854 65.7986 520.054 71.1186 517.534 74.6786C516.854 74.0786 515.134 72.9186 514.214 72.4386C516.574 69.3986 517.094 64.5986 517.174 59.1586ZM540.614 50.4386H544.574C544.334 61.2386 543.294 66.9586 533.774 69.8786C533.414 68.9586 532.414 67.4786 531.614 66.7586C539.934 64.3586 540.414 59.9186 540.614 50.4386ZM542.654 64.3586L545.294 61.7586C547.494 63.2786 550.614 65.5986 552.174 67.0786L549.414 70.0386C547.934 68.4786 544.934 66.0386 542.654 64.3586ZM561.174 61.1986C564.774 61.1986 567.654 64.0786 567.654 67.6386C567.654 71.2386 564.774 74.1186 561.174 74.1186C557.614 74.1186 554.694 71.2386 554.694 67.6386C554.694 64.0786 557.614 61.1986 561.174 61.1986ZM561.174 71.2386C563.174 71.2386 564.774 69.6386 564.774 67.6386C564.774 65.6786 563.174 64.0786 561.174 64.0786C559.214 64.0786 557.574 65.6786 557.574 67.6386C557.574 69.6386 559.214 71.2386 561.174 71.2386Z" fill="url(#paint0_linear_1020_6462)"/>
<path d="M412.651 168.909H417.659V170.045H412.651V168.909ZM411.995 158.669H418.267V171.021H417.083V159.821H413.147V171.261H411.995V158.669ZM404.187 160.221H410.139V161.373H404.187V160.221ZM406.907 156.941L408.075 157.085C407.371 160.285 406.283 164.621 405.483 167.277L404.459 166.781C405.227 164.317 406.283 159.997 406.907 156.941ZM405.019 166.173L405.675 165.293C407.755 166.365 410.219 168.045 411.355 169.357L410.651 170.381C409.531 169.053 407.083 167.293 405.019 166.173ZM409.803 160.221H409.995L410.219 160.189L410.955 160.333C410.459 166.781 408.475 170.013 405.147 171.677C404.987 171.389 404.667 170.941 404.411 170.685C407.451 169.357 409.355 166.157 409.803 160.477V160.221ZM420.475 165.437H434.523V166.557H420.475V165.437ZM426.859 158.109H428.123V171.661H426.859V158.109ZM426.427 165.917L427.435 166.349C425.947 168.397 423.291 170.221 420.891 171.133C420.715 170.845 420.331 170.397 420.075 170.157C422.443 169.373 425.083 167.677 426.427 165.917ZM428.491 165.869C429.883 167.581 432.603 169.277 434.939 170.061C434.667 170.301 434.299 170.765 434.107 171.069C431.787 170.141 429.067 168.269 427.531 166.301L428.491 165.869ZM423.259 161.373V163.053H431.771V161.373H423.259ZM423.259 158.749V160.397H431.771V158.749H423.259ZM422.027 157.725H433.051V164.077H422.027V157.725ZM442.987 156.957L444.091 157.229C443.467 158.941 442.427 160.573 441.307 161.661C441.131 161.453 440.683 161.069 440.411 160.893C441.499 159.949 442.443 158.493 442.987 156.957ZM442.923 160.989L444.043 161.277C443.547 162.541 442.715 163.789 441.915 164.621C441.691 164.445 441.211 164.141 440.939 163.997C441.771 163.229 442.491 162.109 442.923 160.989ZM442.827 158.525H449.771V159.581H442.411L442.827 158.525ZM445.179 159.245H446.331V164.813C446.331 165.421 446.219 165.741 445.771 165.917C445.355 166.093 444.699 166.109 443.691 166.109C443.627 165.789 443.467 165.341 443.291 165.037C444.043 165.069 444.715 165.069 444.923 165.053C445.131 165.037 445.179 164.989 445.179 164.813V159.245ZM447.211 161.341L448.203 160.909C448.987 161.949 449.771 163.357 450.107 164.285L449.067 164.781C448.747 163.837 447.963 162.381 447.211 161.341ZM449.435 158.525H449.627L449.819 158.493L450.651 158.701C450.251 159.709 449.755 160.877 449.371 161.581L448.331 161.373C448.699 160.701 449.131 159.597 449.435 158.701V158.525ZM440.283 166.893H441.467V169.789C441.467 170.221 441.627 170.301 442.475 170.301C442.875 170.301 444.875 170.301 445.403 170.301C446.107 170.301 446.219 170.093 446.299 168.509C446.555 168.717 447.035 168.893 447.371 168.973C447.227 170.909 446.859 171.389 445.483 171.389C445.115 171.389 442.731 171.389 442.379 171.389C440.715 171.389 440.283 171.053 440.283 169.789V166.893ZM441.659 166.413L442.459 165.693C443.483 166.189 444.715 167.005 445.291 167.645L444.427 168.429C443.883 167.789 442.699 166.925 441.659 166.413ZM446.923 167.389L447.915 166.829C449.099 167.837 450.347 169.277 450.843 170.365L449.771 170.973C449.307 169.917 448.123 168.413 446.923 167.389ZM438.331 167.085L439.403 167.437C439.003 168.877 438.379 170.301 437.115 171.149L436.123 170.461C437.307 169.709 437.995 168.429 438.331 167.085ZM439.867 156.941L440.939 157.309C439.899 159.293 438.283 161.261 436.731 162.525C436.587 162.285 436.187 161.805 435.947 161.597C437.451 160.461 438.955 158.701 439.867 156.941ZM438.395 159.949L439.531 158.813L439.547 158.829V166.093H438.395V159.949ZM452.507 159.021H466.523V160.157H452.507V159.021ZM456.411 164.733H463.931V165.773H456.411V164.733ZM455.563 162.013H463.739V163.085H456.747V171.661H455.563V162.013ZM463.467 162.013H464.635V170.173C464.635 170.877 464.491 171.245 463.947 171.437C463.435 171.629 462.539 171.629 461.163 171.629C461.115 171.293 460.939 170.797 460.763 170.461C461.835 170.509 462.811 170.493 463.099 170.493C463.371 170.477 463.467 170.397 463.467 170.157V162.013ZM457.739 156.941L458.955 157.229C457.867 160.749 455.947 164.301 452.891 166.445C452.731 166.173 452.363 165.757 452.123 165.517C454.987 163.549 456.875 160.157 457.739 156.941ZM456.411 167.437H463.931V168.477H456.411V167.437ZM481.307 157.341L482.203 158.349C479.867 159.149 476.283 159.741 473.243 160.109C473.195 159.821 473.019 159.373 472.891 159.085C475.867 158.701 479.339 158.061 481.307 157.341ZM472.347 163.805H482.859V164.957H472.347V163.805ZM472.971 169.901H482.603V171.053H472.971V169.901ZM477.115 159.117H478.315V170.221H477.115V159.117ZM470.459 161.197L471.643 160.013L471.659 160.045V171.661H470.459V161.197ZM472.203 156.957L473.371 157.325C472.235 160.109 470.443 162.877 468.571 164.701C468.443 164.413 468.075 163.789 467.835 163.485C469.563 161.917 471.211 159.469 472.203 156.957ZM488.923 158.509H498.891V159.661H488.923V158.509ZM496.523 158.925H497.723V170.013C497.723 170.877 497.499 171.229 496.923 171.437C496.331 171.629 495.275 171.661 493.707 171.645C493.643 171.309 493.451 170.765 493.275 170.413C494.555 170.461 495.723 170.445 496.091 170.429C496.427 170.413 496.523 170.333 496.523 170.013V158.925ZM489.403 161.917H490.523V168.573H489.403V161.917ZM489.915 161.917H494.427V167.453H489.915V166.381H493.291V162.989H489.915V161.917ZM487.755 156.957L488.891 157.309C487.931 159.981 486.395 162.685 484.763 164.461C484.651 164.189 484.299 163.549 484.091 163.277C485.563 161.741 486.923 159.357 487.755 156.957ZM486.251 161.133L487.435 159.965L487.451 159.981V171.645H486.251V161.133ZM503.819 170.205H512.283V171.133H503.819V170.205ZM506.875 160.189H508.043V161.965H506.875V160.189ZM500.795 161.437H514.315V164.445H513.131V162.397H501.947V164.445H500.795V161.437ZM503.755 163.389H511.963V166.605H503.755V165.677H510.779V164.301H503.755V163.389ZM503.803 167.709H512.987V171.645H511.803V168.653H503.803V167.709ZM503.115 163.389H504.267V171.677H503.115V163.389ZM502.107 158.173H507.275V159.165H502.107V158.173ZM508.347 158.173H514.811V159.165H508.347V158.173ZM502.411 156.877L503.547 157.165C502.955 158.573 502.011 159.965 501.083 160.877C500.859 160.701 500.379 160.365 500.091 160.221C501.051 159.389 501.915 158.125 502.411 156.877ZM508.715 156.877L509.851 157.149C509.275 158.541 508.267 159.837 507.259 160.669C507.019 160.493 506.523 160.205 506.219 160.061C507.275 159.293 508.203 158.109 508.715 156.877ZM503.003 158.925L504.043 158.653C504.411 159.213 504.827 159.997 504.987 160.493L503.899 160.813C503.755 160.317 503.371 159.517 503.003 158.925ZM509.787 158.941L510.843 158.621C511.339 159.181 511.915 159.965 512.155 160.493L511.067 160.845C510.843 160.333 510.299 159.517 509.787 158.941ZM523.099 161.757V163.821H529.051V161.757H523.099ZM523.099 158.733V160.765H529.051V158.733H523.099ZM522.011 157.693H530.203V164.861H522.011V157.693ZM521.803 166.733H530.427V167.837H521.803V166.733ZM520.571 170.045H530.955V171.133H520.571V170.045ZM516.219 158.029H521.211V159.165H516.219V158.029ZM516.395 162.653H520.987V163.789H516.395V162.653ZM516.059 168.781C517.355 168.429 519.275 167.805 521.131 167.181L521.339 168.333C519.595 168.925 517.771 169.533 516.347 170.013L516.059 168.781ZM518.219 158.477H519.371V168.397L518.219 168.621V158.477ZM525.547 158.189H526.603V164.349H526.683V170.541H525.467V164.349H525.547V158.189ZM533.611 157.709H534.827V162.397C534.827 165.101 534.619 169.021 533.051 171.629C532.827 171.453 532.283 171.149 531.979 171.037C533.483 168.509 533.611 164.941 533.611 162.397V157.709ZM534.459 157.709H545.659V161.725H534.459V160.685H544.459V158.765H534.459V157.709ZM536.363 163.101H545.467V164.157H536.363V163.101ZM535.323 165.837H546.571V166.909H535.323V165.837ZM542.459 167.805L543.499 167.357C544.395 168.589 545.531 170.301 546.059 171.277L544.955 171.821C544.443 170.813 543.355 169.069 542.459 167.805ZM536.107 171.421C536.027 171.165 535.819 170.605 535.675 170.301C535.947 170.237 536.251 169.949 536.603 169.565C536.971 169.165 538.139 167.661 538.875 166.205L540.235 166.557C539.259 168.141 538.027 169.725 536.891 170.781V170.813C536.891 170.813 536.107 171.181 536.107 171.421ZM536.107 171.421L536.059 170.541L536.827 170.141L544.523 169.677C544.587 169.997 544.699 170.413 544.779 170.653C537.387 171.165 536.603 171.229 536.107 171.421ZM548.331 162.749H562.683V163.901H548.331V162.749ZM549.323 158.013H561.755V159.165H549.323V158.013ZM555.675 164.557H556.923V169.661C556.923 170.205 557.083 170.317 557.931 170.317C558.299 170.317 560.251 170.317 560.763 170.317C561.563 170.317 561.675 169.965 561.771 167.757C562.059 167.981 562.603 168.189 562.939 168.253C562.763 170.829 562.395 171.501 560.843 171.501C560.475 171.501 558.155 171.501 557.803 171.501C556.139 171.501 555.675 171.101 555.675 169.661V164.557ZM554.667 158.477H555.883C555.771 164.653 555.611 169.517 548.907 171.709C548.763 171.389 548.411 170.941 548.139 170.685C554.587 168.717 554.587 164.253 554.667 158.477ZM568.411 163.677H578.699V164.813H568.411V163.677ZM569.227 159.565H577.947V160.717H569.227V159.565ZM572.891 156.957H574.123V164.493H572.891V156.957ZM568.427 169.709C570.603 169.613 574.091 169.421 577.403 169.229V170.317C574.219 170.557 570.875 170.781 568.603 170.925L568.427 169.709ZM574.875 166.973L575.899 166.445C577.115 167.869 578.443 169.773 578.971 171.069L577.851 171.693C577.355 170.429 576.075 168.429 574.875 166.973ZM571.819 164.429L573.115 164.797C572.411 166.653 571.451 168.941 570.651 170.397L569.595 170.029C570.379 168.541 571.323 166.141 571.819 164.429ZM564.955 157.949L565.627 157.053C566.715 157.453 568.091 158.141 568.779 158.701L568.091 159.709C567.419 159.133 566.075 158.381 564.955 157.949ZM564.107 162.365L564.731 161.437C565.819 161.789 567.227 162.413 567.947 162.925L567.291 163.933C566.603 163.421 565.227 162.749 564.107 162.365ZM564.667 170.685C565.483 169.453 566.683 167.341 567.563 165.533L568.459 166.285C567.659 167.981 566.603 169.981 565.707 171.469L564.667 170.685ZM580.539 158.221H588.027V159.197H580.539V158.221ZM580.283 162.557H588.123V163.517H580.283V162.557ZM580.891 160.365H587.707V161.309H580.891V160.365ZM588.843 157.613H593.467V158.653H589.995V165.549H588.843V157.613ZM593.227 157.613H593.467L593.659 157.565L594.491 158.077C593.899 158.909 593.179 159.885 592.523 160.685C593.883 161.533 594.347 162.301 594.363 163.021C594.379 163.709 594.091 164.157 593.579 164.445C593.307 164.589 592.923 164.669 592.619 164.717C592.059 164.765 591.371 164.765 590.747 164.717C590.731 164.413 590.571 163.981 590.363 163.693C591.051 163.773 591.643 163.773 592.107 163.741C592.331 163.725 592.587 163.677 592.763 163.613C593.051 163.501 593.179 163.277 593.179 162.925C593.163 162.349 592.651 161.645 591.227 160.845C591.979 159.853 592.763 158.653 593.227 157.837V157.613ZM583.867 156.941H585.083V161.693C585.083 162.973 584.331 165.133 581.435 166.269C581.243 166.029 580.875 165.629 580.603 165.405C583.211 164.525 583.867 162.717 583.867 161.677V156.941ZM586.827 164.941H588.075V171.645H586.827V164.941ZM581.899 166.205H592.635V167.293H583.099V170.797H581.899V166.205ZM592.123 166.205H593.339V169.485C593.339 170.093 593.195 170.413 592.683 170.589C592.171 170.765 591.323 170.765 589.979 170.765C589.899 170.445 589.723 170.029 589.563 169.725C590.571 169.757 591.515 169.757 591.787 169.741C592.059 169.725 592.123 169.661 592.123 169.469V166.205ZM602.955 160.573H609.723V161.709H602.955V160.573ZM609.211 160.573H610.363C610.363 160.573 610.347 161.021 610.347 161.181C610.187 167.949 610.043 170.237 609.515 170.925C609.195 171.357 608.859 171.485 608.347 171.533C607.851 171.581 606.987 171.565 606.139 171.533C606.107 171.181 605.979 170.685 605.771 170.381C606.699 170.445 607.531 170.445 607.867 170.445C608.139 170.461 608.315 170.413 608.459 170.205C608.891 169.709 609.067 167.373 609.211 160.829V160.573ZM605.611 156.957H606.779C606.763 163.085 606.747 168.781 602.299 171.693C602.123 171.405 601.723 171.005 601.419 170.813C605.691 168.157 605.595 162.781 605.611 156.957ZM597.195 157.725H602.411V168.141H601.291V158.829H598.267V169.165H597.195V157.725ZM596.043 168.877C597.819 168.525 600.635 167.933 603.291 167.341L603.403 168.429C600.859 169.037 598.171 169.661 596.251 170.093L596.043 168.877ZM597.755 161.165H601.819V162.253H597.755V161.165ZM597.755 164.589H601.819V165.661H597.755V164.589ZM618.987 156.957L620.091 157.229C619.467 158.941 618.427 160.573 617.307 161.661C617.131 161.453 616.683 161.069 616.411 160.893C617.499 159.949 618.443 158.493 618.987 156.957ZM618.923 160.989L620.043 161.277C619.547 162.541 618.715 163.789 617.915 164.621C617.691 164.445 617.211 164.141 616.939 163.997C617.771 163.229 618.491 162.109 618.923 160.989ZM618.827 158.525H625.771V159.581H618.411L618.827 158.525ZM621.179 159.245H622.331V164.813C622.331 165.421 622.219 165.741 621.771 165.917C621.355 166.093 620.699 166.109 619.691 166.109C619.627 165.789 619.467 165.341 619.291 165.037C620.043 165.069 620.715 165.069 620.923 165.053C621.131 165.037 621.179 164.989 621.179 164.813V159.245ZM623.211 161.341L624.203 160.909C624.987 161.949 625.771 163.357 626.107 164.285L625.067 164.781C624.747 163.837 623.963 162.381 623.211 161.341ZM625.435 158.525H625.627L625.819 158.493L626.651 158.701C626.251 159.709 625.755 160.877 625.371 161.581L624.331 161.373C624.699 160.701 625.131 159.597 625.435 158.701V158.525ZM616.283 166.893H617.467V169.789C617.467 170.221 617.627 170.301 618.475 170.301C618.875 170.301 620.875 170.301 621.403 170.301C622.107 170.301 622.219 170.093 622.299 168.509C622.555 168.717 623.035 168.893 623.371 168.973C623.227 170.909 622.859 171.389 621.483 171.389C621.115 171.389 618.731 171.389 618.379 171.389C616.715 171.389 616.283 171.053 616.283 169.789V166.893ZM617.659 166.413L618.459 165.693C619.483 166.189 620.715 167.005 621.291 167.645L620.427 168.429C619.883 167.789 618.699 166.925 617.659 166.413ZM622.923 167.389L623.915 166.829C625.099 167.837 626.347 169.277 626.843 170.365L625.771 170.973C625.307 169.917 624.123 168.413 622.923 167.389ZM614.331 167.085L615.403 167.437C615.003 168.877 614.379 170.301 613.115 171.149L612.123 170.461C613.307 169.709 613.995 168.429 614.331 167.085ZM615.867 156.941L616.939 157.309C615.899 159.293 614.283 161.261 612.731 162.525C612.587 162.285 612.187 161.805 611.947 161.597C613.451 160.461 614.955 158.701 615.867 156.941ZM614.395 159.949L615.531 158.813L615.547 158.829V166.093H614.395V159.949ZM629.707 161.005H634.331V161.949H629.707V161.005ZM629.707 163.725H634.331V164.637H629.707V163.725ZM629.707 166.509H634.331V167.453H629.707V166.509ZM636.523 164.525H642.619V165.565H636.523V164.525ZM630.539 158.381H633.195V159.325H630.539V158.381ZM635.499 157.757H641.755V158.781H635.499V157.757ZM635.307 167.517H642.891V168.589H635.307V167.517ZM638.683 162.877H639.835V171.597H638.683V162.877ZM631.691 161.469H632.555V166.909H631.691V161.469ZM641.371 157.757H642.459C642.459 157.757 642.459 158.061 642.443 158.205C642.331 160.877 642.171 161.917 641.835 162.285C641.611 162.557 641.371 162.653 640.955 162.685C640.635 162.717 639.963 162.717 639.291 162.685C639.275 162.365 639.163 161.949 639.019 161.677C639.659 161.741 640.235 161.741 640.459 161.741C640.683 161.757 640.827 161.725 640.923 161.597C641.131 161.357 641.259 160.429 641.371 157.917V157.757ZM636.587 163.021L637.627 163.229C637.307 164.717 636.747 166.173 636.075 167.133C635.867 166.989 635.387 166.749 635.131 166.621C635.819 165.725 636.315 164.381 636.587 163.021ZM630.507 156.941L631.611 157.181C631.019 159.341 630.043 161.405 628.907 162.765C628.715 162.573 628.251 162.205 627.995 162.045C629.131 160.813 630.027 158.909 630.507 156.941ZM629.243 161.005H630.235V165.261C630.235 167.213 630.043 169.917 628.907 171.693C628.731 171.533 628.283 171.261 628.043 171.149C629.131 169.453 629.243 167.069 629.243 165.261V161.005ZM634.011 161.005H635.019V170.349C635.019 170.941 634.891 171.277 634.475 171.453C634.075 171.629 633.419 171.645 632.315 171.645C632.267 171.373 632.091 170.909 631.947 170.621C632.763 170.653 633.483 170.653 633.707 170.637C633.915 170.621 634.011 170.557 634.011 170.349V161.005ZM637.771 158.093H638.875C638.603 160.301 637.915 162.125 635.675 163.133C635.531 162.877 635.243 162.493 635.003 162.317C636.971 161.485 637.547 159.901 637.771 158.093ZM632.907 158.381H633.147L633.307 158.317L634.011 158.781C633.675 159.773 633.067 160.957 632.587 161.709C632.395 161.549 632.043 161.341 631.819 161.245C632.219 160.525 632.667 159.373 632.907 158.573V158.381ZM644.299 158.157L645.243 157.581C646.155 158.541 647.291 159.885 647.787 160.749L646.779 161.437C646.299 160.557 645.227 159.165 644.299 158.157ZM644.091 170.205C644.891 168.925 646.043 166.781 646.875 164.909L647.771 165.645C647.019 167.373 646.011 169.405 645.131 170.941L644.091 170.205ZM649.227 159.469H657.275V164.861H656.123V160.621H649.227V159.469ZM648.395 164.317H658.875V165.485H648.395V164.317ZM654.091 164.685C654.795 167.533 656.363 169.709 658.971 170.605C658.699 170.845 658.347 171.325 658.171 171.645C655.419 170.525 653.819 168.173 653.019 164.909L654.091 164.685ZM652.427 156.973H653.675V162.301C653.675 165.453 653.211 169.277 648.347 171.709C648.171 171.437 647.771 170.973 647.483 170.749C652.251 168.589 652.427 165.101 652.427 162.301V156.973ZM661.595 159.517H666.459V169.981H661.595V168.893H665.339V160.589H661.595V159.517ZM660.875 159.517H661.995V171.261H660.875V159.517ZM661.515 163.965H665.931V165.037H661.515V163.965ZM663.323 156.909L664.619 157.149C664.299 158.141 663.899 159.245 663.579 159.965L662.619 159.725C662.891 158.957 663.195 157.741 663.323 156.909ZM668.731 159.469H673.643V160.589H668.731V159.469ZM673.227 159.469H674.347C674.347 159.469 674.347 159.917 674.347 160.093C674.091 167.437 673.867 169.917 673.227 170.701C672.875 171.165 672.507 171.309 671.947 171.357C671.403 171.421 670.459 171.389 669.563 171.341C669.531 170.989 669.387 170.493 669.163 170.173C670.203 170.253 671.163 170.269 671.531 170.269C671.851 170.269 672.043 170.221 672.219 170.013C672.747 169.437 673.003 166.781 673.227 159.725V159.469ZM669.067 156.877L670.219 157.149C669.627 159.533 668.683 161.885 667.579 163.405C667.371 163.213 666.875 162.877 666.587 162.717C667.675 161.309 668.555 159.101 669.067 156.877ZM668.331 163.629L669.259 163.085C670.171 164.221 671.275 165.773 671.787 166.717L670.763 167.357C670.283 166.381 669.211 164.797 668.331 163.629ZM676.971 160.557H678.155V171.677H676.971V160.557ZM677.147 157.725L678.027 157.165C678.827 157.949 679.915 159.085 680.443 159.757L679.531 160.413C679.003 159.725 677.963 158.573 677.147 157.725ZM681.179 157.853H689.627V158.973H681.179V157.853ZM688.811 157.853H690.011V169.997C690.011 170.765 689.819 171.133 689.323 171.341C688.811 171.533 687.947 171.565 686.635 171.549C686.587 171.213 686.395 170.669 686.235 170.333C687.195 170.381 688.171 170.365 688.427 170.365C688.715 170.349 688.811 170.253 688.811 169.981V157.853ZM681.243 161.805H686.267V167.693H681.243V166.605H685.099V162.893H681.243V161.805ZM680.635 161.805H681.739V168.733H680.635V161.805ZM694.299 160.541V161.757H697.579V160.541H694.299ZM694.299 158.493V159.693H697.579V158.493H694.299ZM693.227 157.629H698.699V162.653H693.227V157.629ZM692.267 163.837H699.515V164.765H692.267V163.837ZM699.483 157.677H706.779V158.669H699.483V157.677ZM695.515 164.141H696.555V170.237L695.515 169.613V164.141ZM695.995 166.493H699.211V167.405H695.995V166.493ZM702.539 158.013L703.755 158.253C703.435 159.085 703.099 159.981 702.811 160.589L701.851 160.349C702.091 159.693 702.395 158.701 702.539 158.013ZM694.171 167.213C695.291 169.965 697.771 170.317 701.323 170.317C702.043 170.317 705.979 170.317 706.907 170.285C706.731 170.541 706.523 171.005 706.475 171.325H701.307C697.291 171.325 694.731 170.797 693.435 167.485L694.171 167.213ZM700.123 160.205H705.995V166.893H704.939V161.117H701.147V166.941H700.123V160.205ZM693.467 165.565L694.491 165.629C694.379 168.205 693.979 170.237 692.891 171.629C692.715 171.485 692.267 171.181 692.027 171.037C693.099 169.789 693.387 167.869 693.467 165.565ZM702.603 161.901H703.627C703.515 166.413 703.051 168.749 699.403 169.949C699.291 169.725 699.035 169.341 698.811 169.165C702.171 168.093 702.507 166.061 702.603 161.901ZM703.163 167.421L703.867 166.781C704.859 167.453 706.123 168.461 706.747 169.133L706.027 169.869C705.403 169.197 704.171 168.141 703.163 167.421ZM716.315 156.989H717.595C717.563 164.301 719.131 170.429 721.083 170.429C721.547 170.429 721.723 169.581 721.819 167.453C722.091 167.725 722.539 168.013 722.875 168.125C722.667 170.893 722.203 171.677 720.987 171.677C717.803 171.677 716.395 164.573 716.315 156.989ZM718.555 157.741L719.259 157.005C720.251 157.421 721.435 158.125 722.027 158.653L721.291 159.501C720.715 158.957 719.547 158.205 718.555 157.741ZM720.651 161.837L721.835 162.125C720.443 166.445 718.027 169.661 714.667 171.677C714.491 171.437 714.011 170.957 713.755 170.733C717.083 168.941 719.387 165.869 720.651 161.837ZM708.571 159.501H722.475V160.685H708.571V159.501ZM708.491 169.341C710.235 169.005 712.955 168.461 715.563 167.901L715.659 169.053C713.211 169.597 710.587 170.173 708.715 170.573L708.491 169.341ZM710.603 163.149V165.949H713.867V163.149H710.603ZM709.499 162.109H715.051V166.973H709.499V162.109ZM536.44 179.557H537.624V190.677H536.44V179.557ZM536.616 176.725L537.496 176.165C538.296 176.949 539.384 178.085 539.912 178.757L539 179.413C538.472 178.725 537.432 177.573 536.616 176.725ZM540.648 176.853H549.096V177.973H540.648V176.853ZM548.28 176.853H549.48V188.997C549.48 189.765 549.288 190.133 548.792 190.341C548.28 190.533 547.416 190.565 546.104 190.549C546.056 190.213 545.864 189.669 545.704 189.333C546.664 189.381 547.64 189.365 547.896 189.365C548.184 189.349 548.28 189.253 548.28 188.981V176.853ZM540.712 180.805H545.736V186.693H540.712V185.605H544.568V181.893H540.712V180.805ZM540.104 180.805H541.208V187.733H540.104V180.805ZM553.768 179.541V180.757H557.048V179.541H553.768ZM553.768 177.493V178.693H557.048V177.493H553.768ZM552.696 176.629H558.168V181.653H552.696V176.629ZM551.736 182.837H558.984V183.765H551.736V182.837ZM558.952 176.677H566.248V177.669H558.952V176.677ZM554.984 183.141H556.024V189.237L554.984 188.613V183.141ZM555.464 185.493H558.68V186.405H555.464V185.493ZM562.008 177.013L563.224 177.253C562.904 178.085 562.568 178.981 562.28 179.589L561.32 179.349C561.56 178.693 561.864 177.701 562.008 177.013ZM553.64 186.213C554.76 188.965 557.24 189.317 560.792 189.317C561.512 189.317 565.448 189.317 566.376 189.285C566.2 189.541 565.992 190.005 565.944 190.325H560.776C556.76 190.325 554.2 189.797 552.904 186.485L553.64 186.213ZM559.592 179.205H565.464V185.893H564.408V180.117H560.616V185.941H559.592V179.205ZM552.936 184.565L553.96 184.629C553.848 187.205 553.448 189.237 552.36 190.629C552.184 190.485 551.736 190.181 551.496 190.037C552.568 188.789 552.856 186.869 552.936 184.565ZM562.072 180.901H563.096C562.984 185.413 562.52 187.749 558.872 188.949C558.76 188.725 558.504 188.341 558.28 188.165C561.64 187.093 561.976 185.061 562.072 180.901ZM562.632 186.421L563.336 185.781C564.328 186.453 565.592 187.461 566.216 188.133L565.496 188.869C564.872 188.197 563.64 187.141 562.632 186.421ZM570.072 185.493C571.416 185.493 572.504 186.581 572.504 187.925C572.504 189.269 571.416 190.357 570.072 190.357C568.728 190.357 567.624 189.269 567.624 187.925C567.624 186.581 568.728 185.493 570.072 185.493ZM570.072 189.541C570.968 189.541 571.688 188.821 571.688 187.925C571.688 187.029 570.968 186.309 570.072 186.309C569.176 186.309 568.44 187.029 568.44 187.925C568.44 188.821 569.176 189.541 570.072 189.541ZM585.229 189.489C584.918 189.489 584.651 189.379 584.428 189.159C584.204 188.936 584.093 188.667 584.093 188.352C584.093 188.042 584.204 187.777 584.428 187.557C584.651 187.334 584.918 187.222 585.229 187.222C585.54 187.222 585.807 187.334 586.03 187.557C586.254 187.777 586.365 188.042 586.365 188.352C586.365 188.561 586.312 188.752 586.206 188.926C586.104 189.097 585.968 189.233 585.797 189.335C585.627 189.438 585.437 189.489 585.229 189.489ZM589.76 189.489C589.45 189.489 589.183 189.379 588.959 189.159C588.736 188.936 588.624 188.667 588.624 188.352C588.624 188.042 588.736 187.777 588.959 187.557C589.183 187.334 589.45 187.222 589.76 187.222C590.071 187.222 590.338 187.334 590.561 187.557C590.785 187.777 590.897 188.042 590.897 188.352C590.897 188.561 590.844 188.752 590.738 188.926C590.635 189.097 590.499 189.233 590.329 189.335C590.158 189.438 589.969 189.489 589.76 189.489Z" fill="#2D3342"/>
<path d="M200.187 348.108C199.877 348.108 199.61 347.998 199.386 347.778C199.163 347.555 199.051 347.286 199.051 346.972C199.051 346.661 199.163 346.396 199.386 346.176C199.61 345.953 199.877 345.841 200.187 345.841C200.498 345.841 200.765 345.953 200.988 346.176C201.212 346.396 201.324 346.661 201.324 346.972C201.324 347.18 201.271 347.371 201.164 347.545C201.062 347.716 200.926 347.852 200.755 347.955C200.585 348.057 200.396 348.108 200.187 348.108ZM204.718 348.108C204.408 348.108 204.141 347.998 203.917 347.778C203.694 347.555 203.582 347.286 203.582 346.972C203.582 346.661 203.694 346.396 203.917 346.176C204.141 345.953 204.408 345.841 204.718 345.841C205.029 345.841 205.296 345.953 205.52 346.176C205.743 346.396 205.855 346.661 205.855 346.972C205.855 347.18 205.802 347.371 205.696 347.545C205.593 347.716 205.457 347.852 205.287 347.955C205.116 348.057 204.927 348.108 204.718 348.108ZM214.988 337.968H222.06V339.104H214.988V337.968ZM218.78 338.384C219.308 341.168 220.46 343.36 222.524 344.384C222.252 344.624 221.884 345.072 221.708 345.408C219.532 344.144 218.348 341.744 217.756 338.576L218.78 338.384ZM209.916 338.24L210.46 337.536C211.532 338.016 212.844 338.784 213.516 339.312L212.956 340.112C212.3 339.552 210.972 338.752 209.916 338.24ZM219.308 335.312L220.172 334.816C220.86 335.472 221.644 336.4 221.996 337.024L221.084 337.6C220.732 336.976 219.98 336 219.308 335.312ZM208.492 340.032L209.164 339.376C210.22 339.984 211.532 340.864 212.188 341.504L211.484 342.224C210.844 341.584 209.564 340.656 208.492 340.032ZM211.068 334.448L212.22 334.752C211.372 336.944 209.948 339.376 208.14 340.912C207.932 340.672 207.564 340.32 207.308 340.128C209.036 338.72 210.412 336.416 211.068 334.448ZM214.06 336H214.3L214.524 335.952L215.276 336.272C214.268 341.072 211.788 344.032 208.716 345.552C208.572 345.264 208.14 344.8 207.884 344.608C210.876 343.248 213.228 340.528 214.06 336.24V336ZM212.508 346.192L213.612 346.08C213.82 347.024 213.996 348.24 214.012 348.976L212.828 349.152C212.828 348.4 212.7 347.152 212.508 346.192ZM215.772 346.192L216.892 346C217.324 346.912 217.756 348.16 217.916 348.912L216.732 349.168C216.588 348.4 216.188 347.152 215.772 346.192ZM219.052 346.096L220.172 345.712C220.988 346.672 221.916 348.016 222.348 348.88L221.148 349.312C220.764 348.464 219.852 347.088 219.052 346.096ZM209.676 345.776L210.812 346.064C210.428 347.248 209.74 348.528 208.892 349.296L207.804 348.832C208.588 348.144 209.308 346.944 209.676 345.776ZM211.036 336H214.492V336.992H210.428L211.036 336ZM217.596 334.752H218.748V337.872C218.748 340.432 218.204 343.28 214.46 345.296C214.268 345.024 213.9 344.672 213.612 344.448C217.164 342.576 217.596 340.016 217.596 337.872V334.752ZM225.996 339.008H238.38V340.16H225.996V339.008ZM228.556 347.344H236.188V348.48H228.556V347.344ZM225.372 335.792L226.908 336.096C226.892 336.224 226.796 336.288 226.572 336.32V340.304C226.572 342.896 226.332 346.656 224.428 349.312C224.252 349.04 223.804 348.64 223.484 348.496C225.196 346.064 225.372 342.752 225.372 340.288V335.792ZM236.044 334.704L237.052 335.648C234.14 336.4 229.74 336.896 225.98 337.152C225.948 336.848 225.772 336.384 225.66 336.128C229.34 335.856 233.644 335.328 236.044 334.704ZM227.964 342.448H236.988V349.28H235.772V343.568H229.116V349.296H227.964V342.448ZM239.692 341.104H254.332V342.416H239.692V341.104ZM262.924 335.856C261.596 337.872 258.892 340.416 256.044 342.08C255.868 341.808 255.532 341.376 255.26 341.12C258.172 339.472 260.956 336.768 262.22 334.608H263.468C265.212 337.088 268.14 339.568 270.764 340.912C270.46 341.216 270.172 341.632 269.948 341.984C267.34 340.48 264.396 337.952 262.924 335.856ZM262.284 339.856H263.548V349.296H262.284V339.856ZM149.511 362.344H163.639V363.48H149.511V362.344ZM158.887 361.112H160.119V366.856C160.119 367.56 159.927 367.896 159.351 368.056C158.775 368.232 157.815 368.232 156.263 368.232C156.215 367.912 156.007 367.464 155.847 367.144C157.031 367.192 158.183 367.176 158.487 367.16C158.791 367.16 158.887 367.08 158.887 366.84V361.112ZM151.911 364.088L152.743 363.384C153.751 364.2 154.887 365.368 155.415 366.184L154.519 366.984C154.039 366.152 152.903 364.936 151.911 364.088ZM150.695 354.696H151.943V358.872C151.943 359.544 152.263 359.704 154.039 359.704C154.871 359.704 159.303 359.704 160.423 359.704C161.735 359.704 161.959 359.48 162.103 358.296C162.407 358.472 162.903 358.616 163.255 358.68C163.047 360.312 162.535 360.712 160.519 360.712C159.863 360.712 154.727 360.712 154.119 360.712C151.479 360.712 150.695 360.376 150.695 358.888V354.696ZM151.111 356.936H160.567V355.256H150.695V354.2H161.735V358.008H151.111V356.936ZM170.663 354.408H179.703V355.512H170.663V354.408ZM174.487 354.856H175.623V368.248H174.487V354.856ZM171.223 357.48H178.407V358.568H172.343V365.976H171.223V357.48ZM177.959 357.48H179.079V364.616C179.079 365.176 178.983 365.48 178.599 365.672C178.215 365.864 177.655 365.864 176.775 365.864C176.727 365.56 176.567 365.112 176.423 364.808C177.031 364.824 177.559 364.824 177.735 364.824C177.911 364.824 177.959 364.76 177.959 364.584V357.48ZM168.599 353.592H169.719V359.992C169.719 363.16 169.415 366.088 167.015 368.264C166.823 368.024 166.407 367.64 166.119 367.464C168.343 365.496 168.599 362.856 168.599 359.992V353.592ZM166.039 355.4H167.127V363.176H166.039V355.4ZM189.351 353.608H190.631C190.599 360.92 192.167 367.048 194.119 367.048C194.583 367.048 194.759 366.2 194.855 364.072C195.127 364.344 195.575 364.632 195.911 364.744C195.703 367.512 195.239 368.296 194.023 368.296C190.839 368.296 189.431 361.192 189.351 353.608ZM191.591 354.36L192.295 353.624C193.287 354.04 194.471 354.744 195.063 355.272L194.327 356.12C193.751 355.576 192.583 354.824 191.591 354.36ZM193.687 358.456L194.871 358.744C193.479 363.064 191.063 366.28 187.703 368.296C187.527 368.056 187.047 367.576 186.791 367.352C190.119 365.56 192.423 362.488 193.687 358.456ZM181.607 356.12H195.511V357.304H181.607V356.12ZM181.527 365.96C183.271 365.624 185.991 365.08 188.599 364.52L188.695 365.672C186.247 366.216 183.623 366.792 181.751 367.192L181.527 365.96ZM183.639 359.768V362.568H186.903V359.768H183.639ZM182.535 358.728H188.087V363.592H182.535V358.728ZM197.511 362.344H211.639V363.48H197.511V362.344ZM206.887 361.112H208.119V366.856C208.119 367.56 207.927 367.896 207.351 368.056C206.775 368.232 205.815 368.232 204.263 368.232C204.215 367.912 204.007 367.464 203.847 367.144C205.031 367.192 206.183 367.176 206.487 367.16C206.791 367.16 206.887 367.08 206.887 366.84V361.112ZM199.911 364.088L200.743 363.384C201.751 364.2 202.887 365.368 203.415 366.184L202.519 366.984C202.039 366.152 200.903 364.936 199.911 364.088ZM198.695 354.696H199.943V358.872C199.943 359.544 200.263 359.704 202.039 359.704C202.871 359.704 207.303 359.704 208.423 359.704C209.735 359.704 209.959 359.48 210.103 358.296C210.407 358.472 210.903 358.616 211.255 358.68C211.047 360.312 210.535 360.712 208.519 360.712C207.863 360.712 202.727 360.712 202.119 360.712C199.479 360.712 198.695 360.376 198.695 358.888V354.696ZM199.111 356.936H208.567V355.256H198.695V354.2H209.735V358.008H199.111V356.936ZM218.663 354.408H227.703V355.512H218.663V354.408ZM222.487 354.856H223.623V368.248H222.487V354.856ZM219.223 357.48H226.407V358.568H220.343V365.976H219.223V357.48ZM225.959 357.48H227.079V364.616C227.079 365.176 226.983 365.48 226.599 365.672C226.215 365.864 225.655 365.864 224.775 365.864C224.727 365.56 224.567 365.112 224.423 364.808C225.031 364.824 225.559 364.824 225.735 364.824C225.911 364.824 225.959 364.76 225.959 364.584V357.48ZM216.599 353.592H217.719V359.992C217.719 363.16 217.415 366.088 215.015 368.264C214.823 368.024 214.407 367.64 214.119 367.464C216.343 365.496 216.599 362.856 216.599 359.992V353.592ZM214.039 355.4H215.127V363.176H214.039V355.4ZM229.239 360.104H243.879V361.416H229.239V360.104ZM247.911 358.456H257.239V359.608H247.911V358.456ZM252.519 362.28H257.911V363.416H252.519V362.28ZM251.879 359.048H253.127V367.144L251.879 366.984V359.048ZM248.087 360.984L249.335 361.112C248.887 364.344 247.879 366.792 246.071 368.36C245.879 368.152 245.367 367.736 245.079 367.56C246.871 366.168 247.735 363.88 248.087 360.984ZM248.839 363.048C249.975 366.312 252.471 366.872 255.719 366.872C256.311 366.872 259.079 366.872 259.863 366.856C259.671 367.144 259.463 367.72 259.415 368.072H255.655C251.847 368.072 249.239 367.32 247.863 363.416L248.839 363.048ZM251.863 353.576H253.127V356.168H251.863V353.576ZM245.847 355.4H259.223V358.888H257.991V356.552H247.031V358.888H245.847V355.4ZM263.847 353.56L265.095 353.848C264.519 355.176 263.767 356.728 263.127 357.736L262.103 357.432C262.711 356.408 263.463 354.728 263.847 353.56ZM261.159 356.952C262.839 356.904 265.383 356.792 267.895 356.68L267.879 357.752C265.495 357.896 263.015 358.024 261.271 358.12L261.159 356.952ZM262.135 359.272H267.207V360.296H263.255V368.264H262.135V359.272ZM266.663 359.272H267.847V366.904C267.847 367.512 267.719 367.848 267.287 368.04C266.839 368.232 266.135 368.248 265.127 368.248C265.063 367.928 264.887 367.448 264.727 367.144C265.479 367.176 266.167 367.16 266.391 367.144C266.599 367.144 266.663 367.096 266.663 366.888V359.272ZM262.663 361.656H267.287V362.6H262.663V361.656ZM262.663 364.056H267.287V365.016H262.663V364.056ZM269.351 353.592H270.535V358.888C270.535 359.4 270.663 359.512 271.399 359.512C271.735 359.512 273.479 359.512 273.943 359.512C274.567 359.512 274.679 359.24 274.743 357.656C274.999 357.864 275.479 358.04 275.831 358.12C275.687 360.072 275.335 360.6 274.039 360.6C273.703 360.6 271.607 360.6 271.287 360.6C269.751 360.6 269.351 360.232 269.351 358.904V353.592ZM274.247 354.776L275.047 355.656C273.687 356.296 271.767 356.92 270.119 357.384C270.055 357.128 269.895 356.776 269.751 356.536C271.335 356.04 273.159 355.336 274.247 354.776ZM269.351 361.032H270.535V366.44C270.535 366.984 270.679 367.08 271.447 367.08C271.783 367.08 273.591 367.08 274.071 367.08C274.759 367.08 274.855 366.776 274.935 364.968C275.207 365.16 275.687 365.352 276.023 365.416C275.863 367.576 275.511 368.152 274.167 368.152C273.815 368.152 271.655 368.152 271.319 368.152C269.767 368.152 269.351 367.784 269.351 366.456V361.032ZM274.439 361.912L275.239 362.808C273.895 363.576 271.847 364.232 270.119 364.696C270.055 364.456 269.879 364.072 269.751 363.832C271.415 363.352 273.351 362.616 274.439 361.912ZM265.847 355.08L266.839 354.68C267.687 355.8 268.583 357.272 268.951 358.264L267.895 358.728C267.559 357.752 266.695 356.216 265.847 355.08ZM277.575 354.84H285.063V355.816H277.575V354.84ZM277.319 359.176H285.159V360.136H277.319V359.176ZM277.927 356.984H284.743V357.928H277.927V356.984ZM285.879 354.232H290.503V355.272H287.031V362.168H285.879V354.232ZM290.263 354.232H290.503L290.695 354.184L291.527 354.696C290.935 355.528 290.215 356.504 289.559 357.304C290.919 358.152 291.383 358.92 291.399 359.64C291.415 360.328 291.127 360.776 290.615 361.064C290.343 361.208 289.959 361.288 289.655 361.336C289.095 361.384 288.407 361.384 287.783 361.336C287.767 361.032 287.607 360.6 287.399 360.312C288.087 360.392 288.679 360.392 289.143 360.36C289.367 360.344 289.623 360.296 289.799 360.232C290.087 360.12 290.215 359.896 290.215 359.544C290.199 358.968 289.687 358.264 288.263 357.464C289.015 356.472 289.799 355.272 290.263 354.456V354.232ZM280.903 353.56H282.119V358.312C282.119 359.592 281.367 361.752 278.471 362.888C278.279 362.648 277.911 362.248 277.639 362.024C280.247 361.144 280.903 359.336 280.903 358.296V353.56ZM283.863 361.56H285.111V368.264H283.863V361.56ZM278.935 362.824H289.671V363.912H280.135V367.416H278.935V362.824ZM289.159 362.824H290.375V366.104C290.375 366.712 290.231 367.032 289.719 367.208C289.207 367.384 288.359 367.384 287.015 367.384C286.935 367.064 286.759 366.648 286.599 366.344C287.607 366.376 288.551 366.376 288.823 366.36C289.095 366.344 289.159 366.28 289.159 366.088V362.824ZM299.991 357.192H306.759V358.328H299.991V357.192ZM306.247 357.192H307.399C307.399 357.192 307.383 357.64 307.383 357.8C307.223 364.568 307.079 366.856 306.551 367.544C306.231 367.976 305.895 368.104 305.383 368.152C304.887 368.2 304.023 368.184 303.175 368.152C303.143 367.8 303.015 367.304 302.807 367C303.735 367.064 304.567 367.064 304.903 367.064C305.175 367.08 305.351 367.032 305.495 366.824C305.927 366.328 306.103 363.992 306.247 357.448V357.192ZM302.647 353.576H303.815C303.799 359.704 303.783 365.4 299.335 368.312C299.159 368.024 298.759 367.624 298.455 367.432C302.727 364.776 302.631 359.4 302.647 353.576ZM294.231 354.344H299.447V364.76H298.327V355.448H295.303V365.784H294.231V354.344ZM293.079 365.496C294.855 365.144 297.671 364.552 300.327 363.96L300.439 365.048C297.895 365.656 295.207 366.28 293.287 366.712L293.079 365.496ZM294.791 357.784H298.855V358.872H294.791V357.784ZM294.791 361.208H298.855V362.28H294.791V361.208ZM315.975 353.64L317.159 353.896C316.535 356.456 315.527 358.92 314.295 360.552C314.087 360.344 313.607 359.96 313.335 359.784C314.519 358.296 315.447 355.992 315.975 353.64ZM315.703 360.424L316.871 360.664C316.375 362.76 315.511 364.792 314.535 366.136C314.295 365.944 313.783 365.624 313.495 365.48C314.487 364.248 315.255 362.344 315.703 360.424ZM315.831 356.648H323.031V357.768H315.367L315.831 356.648ZM318.311 357.112H319.511V366.824C319.511 367.512 319.367 367.864 318.919 368.056C318.487 368.264 317.799 368.296 316.807 368.296C316.727 367.96 316.551 367.432 316.375 367.08C317.127 367.112 317.815 367.096 318.039 367.096C318.247 367.096 318.311 367.032 318.311 366.824V357.112ZM320.663 360.664L321.735 360.312C322.663 361.992 323.463 364.2 323.735 365.688L322.599 366.072C322.343 364.6 321.543 362.344 320.663 360.664ZM322.679 356.648H322.839L323.047 356.616L323.879 356.792C323.655 357.976 323.383 359.352 323.175 360.216L322.135 360.024C322.311 359.224 322.519 357.88 322.679 356.824V356.648ZM312.759 353.624L313.895 353.976C312.839 356.696 311.191 359.4 309.463 361.192C309.335 360.92 308.999 360.28 308.775 360.008C310.359 358.456 311.863 356.056 312.759 353.624ZM311.095 357.752L312.215 356.616L312.247 356.632V368.264H311.095V357.752Z" fill="#2D3342"/>
<path d="M209.002 176.081C213.302 171.744 221.972 164.372 222.243 169.576C222.583 176.081 214.095 192.858 222.243 185.326C230.392 177.793 240.238 164.44 240.917 169.576C241.596 174.712 242.615 176.081 252.122 166.837" stroke="black" stroke-width="2" stroke-linecap="round"/>
<path d="M44.0144 250.251C45.6004 252.419 50.6757 256.64 58.2885 256.181" stroke="black" stroke-width="2" stroke-linecap="round"/>
<path d="M139.556 259.816C132.075 263.923 110.265 267.817 82.4616 250.911C82.0294 250.648 81.4635 250.737 81.1361 251.123C75.6451 257.593 60.4201 270.626 40.5885 272.25C34.6885 272.733 30.5015 269.763 37.353 267.276C41.1596 265.895 44.0144 264.981 45.3465 263.642" stroke="black" stroke-width="2" stroke-linecap="round"/>
<path d="M34.308 268.998C30.5015 270.784 25.5532 271.982 24.7919 268.616C23.8403 264.407 30.6918 265.172 33.3563 263.068" stroke="black" stroke-width="2" stroke-linecap="round"/>
<path d="M24.2209 268.807C17.7501 270.72 14.747 264.96 20.4146 262.111C25.7436 259.433 30.3113 260.39 33.7371 256.372" stroke="black" stroke-width="2" stroke-linecap="round"/>
<path d="M18.5112 263.45C17.052 262.174 15.3138 258.897 20.0337 255.989C25.9337 252.355 53.5304 240.112 50.1046 230.355C49.0971 227.486 43.6337 227.678 39.0659 221.747C35.6732 217.342 39.0659 212.182 43.253 215.052C44.3315 215.881 50.9801 220.217 54.482 218.687C58.831 216.786 73.1363 215.074 83.4004 227.996C83.5301 228.159 83.702 228.282 83.9021 228.34C92.4206 230.825 110.996 234.39 119.572 229.399" stroke="black" stroke-width="2" stroke-linecap="round"/>
<path d="M54.8628 236.477C57.2101 238.709 63.8079 239.538 67.995 235.521" stroke="black" stroke-width="2" stroke-linecap="round"/>
<path d="M406.926 247.976C405.34 250.144 400.265 254.365 392.652 253.906" stroke="black" stroke-width="2" stroke-linecap="round"/>
<path d="M311.385 257.541C318.866 261.648 340.675 265.542 368.479 248.636C368.911 248.373 369.477 248.462 369.805 248.848C375.296 255.318 390.521 268.351 410.352 269.975C416.252 270.458 420.439 267.488 413.588 265.001C409.781 263.62 406.926 262.706 405.594 261.367" stroke="black" stroke-width="2" stroke-linecap="round"/>
<path d="M416.632 266.723C420.439 268.508 425.387 269.707 426.148 266.34C427.1 262.132 420.248 262.897 417.584 260.793" stroke="black" stroke-width="2" stroke-linecap="round"/>
<path d="M426.72 266.532C433.191 268.445 436.194 262.685 430.526 259.836C425.197 257.158 420.629 258.115 417.204 254.097" stroke="black" stroke-width="2" stroke-linecap="round"/>
<path d="M432.429 261.175C433.888 259.9 435.627 256.622 430.907 253.714C425.007 250.08 397.41 237.837 400.836 228.08C401.843 225.211 407.307 225.403 411.874 219.472C415.267 215.067 411.874 209.907 407.687 212.777C406.609 213.606 399.96 217.942 396.458 216.412C392.109 214.511 377.804 212.799 367.54 225.721C367.41 225.884 367.238 226.007 367.038 226.065C358.52 228.55 339.945 232.115 331.368 227.124" stroke="black" stroke-width="2" stroke-linecap="round"/>
<path d="M396.078 234.202C393.731 236.434 387.133 237.263 382.946 233.246" stroke="black" stroke-width="2" stroke-linecap="round"/>
<path d="M205.107 97.5149C206.544 113.983 213.897 143.026 231.752 144.152C250.561 145.338 258.397 107 258.397 97.1196" stroke="black" stroke-width="2" stroke-linecap="round"/>
<path d="M208.533 96.7371L203.204 95.9719" stroke="black" stroke-width="2" stroke-linecap="round"/>
<path d="M260.417 95.9719C266.189 97.4309 270.728 103.771 256.875 115.867" stroke="black" stroke-width="2" stroke-linecap="round"/>
<path d="M202.609 95.9719C197.577 96.6351 192.281 104.328 207.772 115.867" stroke="black" stroke-width="2" stroke-linecap="round"/>
<ellipse cx="218.43" cy="99.224" rx="3.42579" ry="3.25206" fill="black"/>
<ellipse cx="244.504" cy="99.224" rx="3.23547" ry="3.25206" fill="black"/>
<path d="M229.61 99.0328C229.61 105.036 224.77 109.893 218.81 109.893C212.851 109.893 208.01 105.036 208.01 99.0328C208.01 93.0299 212.851 88.1724 218.81 88.1724C224.77 88.1724 229.61 93.0299 229.61 99.0328Z" stroke="black" stroke-width="2"/>
<path d="M254.733 99.0328C254.733 105.051 249.963 109.893 244.123 109.893C238.284 109.893 233.513 105.051 233.513 99.0328C233.513 93.0145 238.284 88.1724 244.123 88.1724C249.963 88.1724 254.733 93.0145 254.733 99.0328Z" stroke="black" stroke-width="2"/>
<path d="M229.088 97.885H233.655" stroke="black" stroke-width="2" stroke-linecap="round"/>
<path d="M227.24 105.154C226.251 110.67 226.14 119.828 235.939 114.785" stroke="black" stroke-width="2" stroke-linecap="round"/>
<path d="M224.901 126.58C226.994 125.425 232.437 123.808 237.462 126.58" stroke="black" stroke-width="2" stroke-linecap="round"/>
<path d="M253.83 95.9719H260.301" stroke="black" stroke-width="2" stroke-linecap="round"/>
<path d="M201.92 64.0351C181.948 73.4878 191.258 90.0302 198.41 97.1198C199.658 96.1745 203.611 95.9382 205.431 95.9382C201.998 70.7308 214.923 64.0348 220.644 62.4594C236.638 59.7023 254.972 64.0351 258.093 76.6388C261.821 91.6951 261.938 96.7259 264.836 97.1198C275.847 88.2972 274.224 71.3872 272.035 64.0351C274.891 55.8227 268.514 48.4117 264.836 43.9479C261.158 39.4841 251.071 31.344 233.127 32.1319C197.629 35.6767 199.97 57.7332 201.92 64.0351Z" fill="black"/>
<path d="M211.959 83.3453C213.576 83.0573 218.43 82.6541 224.901 83.3453" stroke="black" stroke-width="2" stroke-linecap="round"/>
<path d="M238.604 84.1114C240.126 83.534 244.694 82.7255 250.784 84.1114" stroke="black" stroke-width="2" stroke-linecap="round"/>
<path d="M214.162 142.359C176.479 139.681 167.191 134.287 139.937 199.94" stroke="black" stroke-width="2" stroke-linecap="round"/>
<path d="M250.672 140.978C283.027 146.716 298.633 126.821 319.95 192.437" stroke="black" stroke-width="2" stroke-linecap="round"/>
<path d="M162.585 241.451C158.754 259.849 146.911 261.844 140.336 260.378C139.665 260.229 139.431 259.423 139.825 258.859C152.933 240.1 132.028 226.271 120.557 229.282C120.01 229.425 119.413 229.141 119.311 228.585C117.999 221.439 129.826 219.945 130.992 209.696C131.6 204.339 132.324 201.599 135.369 201.47C148.882 200.896 167.723 216.774 162.585 241.451Z" stroke="black" stroke-width="2" stroke-linecap="round"/>
<path d="M322.614 194.923C325.758 209.609 335.732 216.888 332.45 226.591C332.285 227.079 331.735 227.322 331.238 227.185C308.552 220.962 302.924 246.075 311.086 255.799C311.686 256.515 311.275 257.728 310.346 257.627C294.769 255.933 283.236 229.917 286.833 219.792C297.301 190.332 321.508 189.758 322.614 194.923Z" stroke="black" stroke-width="2" stroke-linecap="round"/>
<path d="M291.592 243.704C291.465 269.019 291.934 295.392 295.588 316.206" stroke="black" stroke-width="2" stroke-linecap="round"/>
<path d="M163.346 239.156C163.6 264.152 162.851 292.834 158.588 317.779" stroke="black" stroke-width="2" stroke-linecap="round"/>
<path d="M247.215 150.312C248.909 145.534 247.36 142.319 245.857 141.706C236.8 149.793 223.064 146.791 217.975 141.89C216.162 143.507 217.217 148.291 217.975 149.761C227.783 160.347 241.744 154.417 247.215 150.312Z" fill="black"/>
<path d="M61.8354 61.3982C75.2584 64.8751 89.5002 66.9391 103.316 65.4162C115.968 64.0014 128.551 59.2271 137.621 50.2347C141.577 46.3342 144.906 40.0967 141.825 35.4184C138.906 30.9327 132.32 31.1991 127.214 32.6475C117.89 35.3011 109.304 40.0703 102.112 46.5911C94.9798 53.082 89.0679 63.0257 92.417 72.1614C95.0158 79.2436 102.413 83.4196 109.675 85.2419C121.106 88.0441 133.133 86.5722 143.517 81.1002C166.841 68.6797 146.357 47.6828 126.271 65.5372C122.547 68.851 118.818 72.3653 116.752 76.9402C114.684 81.5125 114.563 87.3037 117.748 91.1875C119.521 93.3563 122.093 94.6894 124.681 95.7175C133.292 99.118 142.733 99.6954 151.655 97.3672C156.497 96.0829 162.061 92.1129 160.475 87.2667C159.571 84.4842 156.454 82.9299 153.558 82.8636C145.982 82.6806 140.116 92.1673 143.58 98.9733C148.321 108.276 159.916 103.767 166.314 99.4471" stroke="black" stroke-width="2" stroke-miterlimit="10"/>
<defs>
<linearGradient id="paint0_linear_1020_6462" x1="450.628" y1="32.0786" x2="524.003" y2="58.1892" gradientUnits="userSpaceOnUse">
<stop stop-color="#5955B3"/>
<stop offset="1" stop-color="#6563CE"/>
</linearGradient>
</defs>
</svg>
