<svg width="751" height="407" viewBox="0 0 751 407" fill="none" xmlns="http://www.w3.org/2000/svg">
<rect width="751" height="406.005" fill="white"/>
<path opacity="0.2" fill-rule="evenodd" clip-rule="evenodd" d="M750.693 386.402C750.615 397.339 741.757 406.19 730.816 406.256H434.842C447.376 371.333 499.731 301.487 608.882 301.487C718.034 301.487 748.903 247.162 750.693 220V386.402Z" fill="#79A4E2"/>
<path opacity="0.2" fill-rule="evenodd" clip-rule="evenodd" d="M210.762 0C208.094 18.0676 191.746 68.8751 124.397 91.9214C59.0537 114.281 16.0073 106.592 -0.000205626 99.3648L-0.000212013 20C-0.000212902 8.95432 8.95409 1.91637e-05 19.9998 1.81148e-05L210.762 0Z" fill="#79A4E2"/>
<path d="M70.016 71.9193V42.8284H76.1666V54.8312H88.6524V42.8284H94.7887V71.9193H88.6524V59.9023H76.1666V71.9193H70.016ZM109.604 72.3454C107.398 72.3454 105.489 71.8767 103.88 70.9392C102.279 69.9922 101.043 68.6759 100.172 66.9903C99.301 65.2953 98.8654 63.3303 98.8654 61.0954C98.8654 58.8417 99.301 56.872 100.172 55.1864C101.043 53.4913 102.279 52.175 103.88 51.2375C105.489 50.2905 107.398 49.817 109.604 49.817C111.811 49.817 113.714 50.2905 115.314 51.2375C116.924 52.175 118.165 53.4913 119.036 55.1864C119.907 56.872 120.343 58.8417 120.343 61.0954C120.343 63.3303 119.907 65.2953 119.036 66.9903C118.165 68.6759 116.924 69.9922 115.314 70.9392C113.714 71.8767 111.811 72.3454 109.604 72.3454ZM109.632 67.6579C110.636 67.6579 111.474 67.3739 112.147 66.8057C112.819 66.228 113.326 65.442 113.667 64.4477C114.017 63.4534 114.192 62.3218 114.192 61.0528C114.192 59.7839 114.017 58.6523 113.667 57.6579C113.326 56.6636 112.819 55.8776 112.147 55.3C111.474 54.7223 110.636 54.4335 109.632 54.4335C108.619 54.4335 107.767 54.7223 107.076 55.3C106.394 55.8776 105.878 56.6636 105.527 57.6579C105.186 58.6523 105.016 59.7839 105.016 61.0528C105.016 62.3218 105.186 63.4534 105.527 64.4477C105.878 65.442 106.394 66.228 107.076 66.8057C107.767 67.3739 108.619 67.6579 109.632 67.6579ZM128.034 71.9193L122.097 50.1011H128.219L131.6 64.7602H131.799L135.321 50.1011H141.33L144.909 64.675H145.094L148.418 50.1011H154.526L148.603 71.9193H142.196L138.446 58.1977H138.177L134.427 71.9193H128.034ZM178.617 50.1011V54.6466H165.478V50.1011H178.617ZM168.461 44.8739H174.512V65.2148C174.512 65.7735 174.597 66.2091 174.767 66.5216C174.938 66.8246 175.175 67.0377 175.478 67.1608C175.79 67.2839 176.15 67.3454 176.557 67.3454C176.841 67.3454 177.125 67.3218 177.409 67.2744C177.694 67.2176 177.911 67.175 178.063 67.1466L179.015 71.6494C178.712 71.7441 178.285 71.853 177.736 71.9761C177.187 72.1087 176.519 72.1892 175.733 72.2176C174.275 72.2744 172.997 72.0803 171.898 71.6352C170.809 71.1901 169.962 70.4989 169.355 69.5614C168.749 68.6239 168.451 67.4401 168.461 66.0102V44.8739ZM192.182 72.3454C189.976 72.3454 188.068 71.8767 186.458 70.9392C184.857 69.9922 183.622 68.6759 182.75 66.9903C181.879 65.2953 181.444 63.3303 181.444 61.0954C181.444 58.8417 181.879 56.872 182.75 55.1864C183.622 53.4913 184.857 52.175 186.458 51.2375C188.068 50.2905 189.976 49.817 192.182 49.817C194.389 49.817 196.292 50.2905 197.892 51.2375C199.502 52.175 200.743 53.4913 201.614 55.1864C202.485 56.872 202.921 58.8417 202.921 61.0954C202.921 63.3303 202.485 65.2953 201.614 66.9903C200.743 68.6759 199.502 69.9922 197.892 70.9392C196.292 71.8767 194.389 72.3454 192.182 72.3454ZM192.211 67.6579C193.214 67.6579 194.052 67.3739 194.725 66.8057C195.397 66.228 195.904 65.442 196.245 64.4477C196.595 63.4534 196.77 62.3218 196.77 61.0528C196.77 59.7839 196.595 58.6523 196.245 57.6579C195.904 56.6636 195.397 55.8776 194.725 55.3C194.052 54.7223 193.214 54.4335 192.211 54.4335C191.197 54.4335 190.345 54.7223 189.654 55.3C188.972 55.8776 188.456 56.6636 188.105 57.6579C187.765 58.6523 187.594 59.7839 187.594 61.0528C187.594 62.3218 187.765 63.4534 188.105 64.4477C188.456 65.442 188.972 66.228 189.654 66.8057C190.345 67.3739 191.197 67.6579 192.211 67.6579ZM225.971 72.3454C223.736 72.3454 221.814 71.872 220.204 70.925C218.604 69.9686 217.373 68.6428 216.511 66.9477C215.659 65.2526 215.233 63.3019 215.233 61.0954C215.233 58.8606 215.663 56.9004 216.525 55.2148C217.396 53.5197 218.632 52.1987 220.233 51.2517C221.833 50.2953 223.736 49.817 225.943 49.817C227.846 49.817 229.513 50.1627 230.943 50.854C232.373 51.5453 233.504 52.5159 234.338 53.7659C235.171 55.0159 235.63 56.4837 235.716 58.1693H230.005C229.844 57.0803 229.418 56.2043 228.727 55.5415C228.045 54.8691 227.15 54.5329 226.042 54.5329C225.105 54.5329 224.286 54.7886 223.585 55.3C222.894 55.8019 222.354 56.5358 221.966 57.5017C221.577 58.4676 221.383 59.6371 221.383 61.0102C221.383 62.4023 221.573 63.586 221.951 64.5614C222.34 65.5367 222.884 66.2801 223.585 66.7915C224.286 67.3028 225.105 67.5585 226.042 67.5585C226.734 67.5585 227.354 67.4165 227.903 67.1324C228.462 66.8483 228.921 66.4364 229.281 65.8966C229.65 65.3473 229.892 64.6892 230.005 63.9222H235.716C235.621 65.5888 235.166 67.0566 234.352 68.3256C233.547 69.585 232.434 70.5699 231.014 71.2801C229.593 71.9903 227.913 72.3454 225.971 72.3454ZM249.448 72.3454C247.241 72.3454 245.333 71.8767 243.723 70.9392C242.123 69.9922 240.887 68.6759 240.016 66.9903C239.145 65.2953 238.709 63.3303 238.709 61.0954C238.709 58.8417 239.145 56.872 240.016 55.1864C240.887 53.4913 242.123 52.175 243.723 51.2375C245.333 50.2905 247.241 49.817 249.448 49.817C251.654 49.817 253.558 50.2905 255.158 51.2375C256.768 52.175 258.008 53.4913 258.88 55.1864C259.751 56.872 260.186 58.8417 260.186 61.0954C260.186 63.3303 259.751 65.2953 258.88 66.9903C258.008 68.6759 256.768 69.9922 255.158 70.9392C253.558 71.8767 251.654 72.3454 249.448 72.3454ZM249.476 67.6579C250.48 67.6579 251.318 67.3739 251.99 66.8057C252.663 66.228 253.169 65.442 253.51 64.4477C253.861 63.4534 254.036 62.3218 254.036 61.0528C254.036 59.7839 253.861 58.6523 253.51 57.6579C253.169 56.6636 252.663 55.8776 251.99 55.3C251.318 54.7223 250.48 54.4335 249.476 54.4335C248.463 54.4335 247.611 54.7223 246.919 55.3C246.238 55.8776 245.721 56.6636 245.371 57.6579C245.03 58.6523 244.86 59.7839 244.86 61.0528C244.86 62.3218 245.03 63.4534 245.371 64.4477C245.721 65.442 246.238 66.228 246.919 66.8057C247.611 67.3739 248.463 67.6579 249.476 67.6579ZM270.172 59.3057V71.9193H264.121V50.1011H269.888V53.9506H270.144C270.627 52.6816 271.436 51.6778 272.573 50.9392C273.709 50.1911 275.087 49.817 276.706 49.817C278.221 49.817 279.543 50.1485 280.669 50.8114C281.796 51.4742 282.672 52.4212 283.297 53.6523C283.922 54.8739 284.235 56.3322 284.235 58.0273V71.9193H278.184V59.1068C278.193 57.7716 277.852 56.7299 277.161 55.9818C276.47 55.2242 275.518 54.8454 274.306 54.8454C273.491 54.8454 272.772 55.0206 272.147 55.371C271.531 55.7214 271.048 56.2328 270.698 56.9051C270.357 57.568 270.182 58.3682 270.172 59.3057ZM300.609 50.1011V54.6466H287.47V50.1011H300.609ZM290.453 44.8739H296.504V65.2148C296.504 65.7735 296.589 66.2091 296.76 66.5216C296.93 66.8246 297.167 67.0377 297.47 67.1608C297.782 67.2839 298.142 67.3454 298.549 67.3454C298.833 67.3454 299.118 67.3218 299.402 67.2744C299.686 67.2176 299.904 67.175 300.055 67.1466L301.007 71.6494C300.704 71.7441 300.278 71.853 299.728 71.9761C299.179 72.1087 298.512 72.1892 297.726 72.2176C296.267 72.2744 294.989 72.0803 293.89 71.6352C292.801 71.1901 291.954 70.4989 291.348 69.5614C290.742 68.6239 290.443 67.4401 290.453 66.0102V44.8739ZM310.772 72.3312C309.38 72.3312 308.14 72.0898 307.051 71.6068C305.962 71.1144 305.1 70.39 304.466 69.4335C303.841 68.4676 303.528 67.265 303.528 65.8256C303.528 64.6134 303.751 63.5954 304.196 62.7716C304.641 61.9477 305.247 61.2848 306.014 60.7829C306.781 60.2811 307.652 59.9023 308.628 59.6466C309.612 59.3909 310.645 59.211 311.724 59.1068C312.993 58.9742 314.016 58.8511 314.792 58.7375C315.569 58.6144 316.132 58.4345 316.483 58.1977C316.833 57.961 317.008 57.6106 317.008 57.1466V57.0614C317.008 56.1617 316.724 55.4657 316.156 54.9733C315.597 54.4809 314.802 54.2347 313.77 54.2347C312.681 54.2347 311.814 54.4761 311.17 54.9591C310.526 55.4326 310.1 56.0292 309.892 56.7489L304.295 56.2943C304.579 54.9686 305.138 53.8227 305.971 52.8568C306.805 51.8814 307.879 51.1333 309.196 50.6125C310.521 50.0822 312.056 49.817 313.798 49.817C315.01 49.817 316.17 49.9591 317.278 50.2432C318.396 50.5273 319.385 50.9676 320.247 51.5642C321.118 52.1608 321.805 52.9278 322.306 53.8653C322.808 54.7934 323.059 55.9061 323.059 57.2034V71.9193H317.321V68.8937H317.15C316.8 69.5756 316.331 70.1769 315.744 70.6977C315.157 71.2091 314.451 71.6115 313.628 71.9051C312.804 72.1892 311.852 72.3312 310.772 72.3312ZM312.505 68.1551C313.396 68.1551 314.181 67.9799 314.863 67.6295C315.545 67.2697 316.08 66.7867 316.468 66.1807C316.857 65.5746 317.051 64.8881 317.051 64.121V61.8057C316.861 61.9288 316.601 62.0424 316.27 62.1466C315.948 62.2413 315.583 62.3312 315.176 62.4165C314.769 62.4922 314.361 62.5633 313.954 62.6295C313.547 62.6864 313.178 62.7384 312.846 62.7858C312.136 62.89 311.516 63.0557 310.985 63.2829C310.455 63.5102 310.043 63.818 309.75 64.2062C309.456 64.585 309.309 65.0585 309.309 65.6267C309.309 66.4506 309.608 67.0803 310.204 67.5159C310.81 67.942 311.577 68.1551 312.505 68.1551ZM337.612 72.3454C335.377 72.3454 333.455 71.872 331.845 70.925C330.244 69.9686 329.013 68.6428 328.152 66.9477C327.299 65.2526 326.873 63.3019 326.873 61.0954C326.873 58.8606 327.304 56.9004 328.166 55.2148C329.037 53.5197 330.273 52.1987 331.873 51.2517C333.474 50.2953 335.377 49.817 337.583 49.817C339.487 49.817 341.154 50.1627 342.583 50.854C344.013 51.5453 345.145 52.5159 345.978 53.7659C346.812 55.0159 347.271 56.4837 347.356 58.1693H341.646C341.485 57.0803 341.059 56.2043 340.368 55.5415C339.686 54.8691 338.791 54.5329 337.683 54.5329C336.745 54.5329 335.926 54.7886 335.226 55.3C334.534 55.8019 333.994 56.5358 333.606 57.5017C333.218 58.4676 333.024 59.6371 333.024 61.0102C333.024 62.4023 333.213 63.586 333.592 64.5614C333.98 65.5367 334.525 66.2801 335.226 66.7915C335.926 67.3028 336.745 67.5585 337.683 67.5585C338.374 67.5585 338.994 67.4165 339.544 67.1324C340.102 66.8483 340.562 66.4364 340.922 65.8966C341.291 65.3473 341.532 64.6892 341.646 63.9222H347.356C347.262 65.5888 346.807 67.0566 345.993 68.3256C345.188 69.585 344.075 70.5699 342.655 71.2801C341.234 71.9903 339.553 72.3454 337.612 72.3454ZM362.836 50.1011V54.6466H349.696V50.1011H362.836ZM352.679 44.8739H358.731V65.2148C358.731 65.7735 358.816 66.2091 358.986 66.5216C359.157 66.8246 359.393 67.0377 359.696 67.1608C360.009 67.2839 360.369 67.3454 360.776 67.3454C361.06 67.3454 361.344 67.3218 361.628 67.2744C361.912 67.2176 362.13 67.175 362.282 67.1466L363.233 71.6494C362.93 71.7441 362.504 71.853 361.955 71.9761C361.406 72.1087 360.738 72.1892 359.952 72.2176C358.494 72.2744 357.215 72.0803 356.117 71.6352C355.028 71.1901 354.18 70.4989 353.574 69.5614C352.968 68.6239 352.67 67.4401 352.679 66.0102V44.8739Z" fill="url(#paint0_linear_1020_6640)"/>
<path d="M112.942 120.638V149.729H106.792V126.476H106.621L99.9593 130.652V125.197L107.161 120.638H112.942Z" fill="black"/>
<path d="M440.849 134.746H435.577L443.611 111.473H449.952L457.974 134.746H452.702L446.872 116.791H446.69L440.849 134.746ZM440.52 125.598H452.974V129.439H440.52V125.598ZM474.801 122.268L470.369 122.541C470.293 122.162 470.131 121.821 469.881 121.518C469.631 121.208 469.301 120.962 468.892 120.78C468.49 120.59 468.009 120.496 467.449 120.496C466.699 120.496 466.066 120.655 465.551 120.973C465.036 121.284 464.778 121.7 464.778 122.223C464.778 122.64 464.945 122.992 465.278 123.28C465.612 123.568 466.184 123.799 466.994 123.973L470.153 124.609C471.85 124.958 473.115 125.518 473.949 126.291C474.782 127.064 475.199 128.079 475.199 129.337C475.199 130.481 474.862 131.484 474.187 132.348C473.521 133.212 472.604 133.886 471.437 134.371C470.278 134.848 468.941 135.087 467.426 135.087C465.115 135.087 463.274 134.606 461.903 133.643C460.54 132.674 459.74 131.356 459.506 129.689L464.267 129.439C464.411 130.143 464.759 130.681 465.312 131.053C465.865 131.416 466.574 131.598 467.437 131.598C468.286 131.598 468.968 131.435 469.483 131.109C470.006 130.776 470.271 130.348 470.278 129.825C470.271 129.386 470.085 129.026 469.721 128.746C469.358 128.458 468.797 128.238 468.04 128.087L465.017 127.484C463.312 127.143 462.043 126.553 461.21 125.712C460.384 124.871 459.971 123.799 459.971 122.496C459.971 121.375 460.274 120.409 460.881 119.598C461.494 118.787 462.354 118.162 463.46 117.723C464.574 117.284 465.877 117.064 467.369 117.064C469.574 117.064 471.309 117.53 472.574 118.462C473.846 119.393 474.589 120.662 474.801 122.268ZM482.633 129.723L482.645 123.916H483.349L488.94 117.291H494.497L486.986 126.064H485.838L482.633 129.723ZM478.247 134.746V111.473H483.088V134.746H478.247ZM489.156 134.746L484.02 127.143L487.247 123.723L494.827 134.746H489.156ZM509.256 135.075C508.142 135.075 507.149 134.882 506.278 134.496C505.407 134.102 504.718 133.522 504.21 132.757C503.71 131.984 503.46 131.022 503.46 129.871C503.46 128.901 503.638 128.087 503.994 127.428C504.35 126.768 504.835 126.238 505.449 125.837C506.062 125.435 506.759 125.132 507.54 124.928C508.327 124.723 509.153 124.579 510.017 124.496C511.032 124.39 511.85 124.291 512.471 124.2C513.093 124.102 513.543 123.958 513.824 123.768C514.104 123.579 514.244 123.299 514.244 122.928V122.859C514.244 122.14 514.017 121.583 513.562 121.189C513.115 120.795 512.479 120.598 511.653 120.598C510.782 120.598 510.089 120.791 509.574 121.178C509.059 121.556 508.718 122.034 508.551 122.609L504.074 122.246C504.301 121.185 504.748 120.268 505.415 119.496C506.081 118.715 506.941 118.117 507.994 117.7C509.055 117.276 510.282 117.064 511.676 117.064C512.646 117.064 513.574 117.178 514.46 117.405C515.354 117.632 516.146 117.984 516.835 118.462C517.532 118.939 518.081 119.553 518.483 120.303C518.884 121.045 519.085 121.935 519.085 122.973V134.746H514.494V132.325H514.358C514.077 132.871 513.702 133.352 513.233 133.768C512.763 134.178 512.199 134.5 511.54 134.734C510.881 134.962 510.119 135.075 509.256 135.075ZM510.642 131.734C511.354 131.734 511.983 131.594 512.528 131.314C513.074 131.026 513.502 130.64 513.812 130.155C514.123 129.67 514.278 129.121 514.278 128.507V126.655C514.127 126.753 513.918 126.844 513.653 126.928C513.396 127.003 513.104 127.075 512.778 127.143C512.452 127.204 512.127 127.261 511.801 127.314C511.475 127.359 511.18 127.401 510.915 127.439C510.346 127.522 509.85 127.655 509.426 127.837C509.002 128.018 508.672 128.265 508.437 128.575C508.202 128.878 508.085 129.257 508.085 129.712C508.085 130.371 508.324 130.875 508.801 131.223C509.286 131.564 509.899 131.734 510.642 131.734ZM541.781 141.291V131.95H541.633C541.406 132.435 541.084 132.916 540.667 133.393C540.258 133.863 539.724 134.253 539.065 134.564C538.414 134.875 537.618 135.03 536.679 135.03C535.353 135.03 534.152 134.689 533.077 134.007C532.008 133.318 531.16 132.306 530.531 130.973C529.91 129.632 529.599 127.988 529.599 126.041C529.599 124.041 529.921 122.378 530.565 121.053C531.209 119.719 532.065 118.723 533.133 118.064C534.209 117.397 535.387 117.064 536.667 117.064C537.645 117.064 538.459 117.231 539.111 117.564C539.77 117.89 540.3 118.299 540.702 118.791C541.111 119.276 541.421 119.753 541.633 120.223H541.838V117.291H546.611V141.291H541.781ZM538.213 131.178C538.993 131.178 539.652 130.965 540.19 130.541C540.736 130.109 541.152 129.507 541.44 128.734C541.736 127.962 541.883 127.056 541.883 126.018C541.883 124.981 541.739 124.079 541.452 123.314C541.164 122.549 540.747 121.958 540.202 121.541C539.656 121.125 538.993 120.916 538.213 120.916C537.417 120.916 536.747 121.132 536.202 121.564C535.656 121.996 535.243 122.594 534.963 123.359C534.683 124.125 534.542 125.011 534.542 126.018C534.542 127.034 534.683 127.931 534.963 128.712C535.251 129.484 535.664 130.09 536.202 130.53C536.747 130.962 537.417 131.178 538.213 131.178ZM561.69 127.314V117.291H566.531V134.746H561.883V131.575H561.702C561.308 132.598 560.652 133.42 559.736 134.041C558.827 134.662 557.717 134.973 556.406 134.973C555.239 134.973 554.213 134.708 553.327 134.178C552.44 133.647 551.747 132.893 551.247 131.916C550.755 130.939 550.505 129.768 550.497 128.405V117.291H555.338V127.541C555.345 128.571 555.622 129.386 556.167 129.984C556.713 130.583 557.444 130.882 558.361 130.882C558.944 130.882 559.489 130.75 559.997 130.484C560.505 130.212 560.914 129.81 561.224 129.28C561.542 128.75 561.698 128.094 561.69 127.314ZM578.358 135.087C576.562 135.087 575.017 134.723 573.721 133.996C572.434 133.261 571.441 132.223 570.744 130.882C570.047 129.534 569.699 127.939 569.699 126.098C569.699 124.303 570.047 122.727 570.744 121.371C571.441 120.015 572.422 118.958 573.687 118.2C574.96 117.443 576.452 117.064 578.165 117.064C579.316 117.064 580.388 117.25 581.381 117.621C582.381 117.984 583.252 118.534 583.994 119.268C584.744 120.003 585.327 120.928 585.744 122.041C586.161 123.147 586.369 124.443 586.369 125.928V127.257H571.631V124.257H581.812C581.812 123.56 581.661 122.943 581.358 122.405C581.055 121.867 580.634 121.446 580.096 121.143C579.566 120.833 578.949 120.678 578.244 120.678C577.509 120.678 576.858 120.848 576.29 121.189C575.729 121.522 575.29 121.973 574.971 122.541C574.653 123.102 574.49 123.727 574.483 124.416V127.268C574.483 128.132 574.642 128.878 574.96 129.507C575.286 130.136 575.744 130.621 576.335 130.962C576.926 131.303 577.627 131.473 578.437 131.473C578.975 131.473 579.468 131.397 579.915 131.246C580.362 131.094 580.744 130.867 581.062 130.564C581.381 130.261 581.623 129.89 581.79 129.45L586.267 129.746C586.04 130.821 585.574 131.761 584.869 132.564C584.172 133.359 583.271 133.981 582.165 134.428C581.066 134.867 579.797 135.087 578.358 135.087ZM604.051 122.268L599.619 122.541C599.543 122.162 599.381 121.821 599.131 121.518C598.881 121.208 598.551 120.962 598.142 120.78C597.74 120.59 597.259 120.496 596.699 120.496C595.949 120.496 595.316 120.655 594.801 120.973C594.286 121.284 594.028 121.7 594.028 122.223C594.028 122.64 594.195 122.992 594.528 123.28C594.862 123.568 595.434 123.799 596.244 123.973L599.403 124.609C601.1 124.958 602.365 125.518 603.199 126.291C604.032 127.064 604.449 128.079 604.449 129.337C604.449 130.481 604.112 131.484 603.437 132.348C602.771 133.212 601.854 133.886 600.687 134.371C599.528 134.848 598.191 135.087 596.676 135.087C594.365 135.087 592.524 134.606 591.153 133.643C589.79 132.674 588.99 131.356 588.756 129.689L593.517 129.439C593.661 130.143 594.009 130.681 594.562 131.053C595.115 131.416 595.824 131.598 596.687 131.598C597.536 131.598 598.218 131.435 598.733 131.109C599.256 130.776 599.521 130.348 599.528 129.825C599.521 129.386 599.335 129.026 598.971 128.746C598.608 128.458 598.047 128.238 597.29 128.087L594.267 127.484C592.562 127.143 591.293 126.553 590.46 125.712C589.634 124.871 589.221 123.799 589.221 122.496C589.221 121.375 589.524 120.409 590.131 119.598C590.744 118.787 591.604 118.162 592.71 117.723C593.824 117.284 595.127 117.064 596.619 117.064C598.824 117.064 600.559 117.53 601.824 118.462C603.096 119.393 603.839 120.662 604.051 122.268ZM616.781 117.291V120.928H606.27V117.291H616.781ZM608.656 113.109H613.497V129.382C613.497 129.829 613.565 130.178 613.702 130.428C613.838 130.67 614.027 130.84 614.27 130.939C614.52 131.037 614.808 131.087 615.133 131.087C615.361 131.087 615.588 131.068 615.815 131.03C616.042 130.984 616.217 130.95 616.338 130.928L617.099 134.53C616.857 134.606 616.516 134.693 616.077 134.791C615.637 134.897 615.103 134.962 614.474 134.984C613.308 135.03 612.285 134.875 611.406 134.518C610.535 134.162 609.857 133.609 609.372 132.859C608.887 132.109 608.649 131.162 608.656 130.018V113.109ZM619.935 134.746V117.291H624.775V134.746H619.935ZM622.366 115.041C621.647 115.041 621.029 114.803 620.514 114.325C620.006 113.84 619.753 113.261 619.753 112.587C619.753 111.92 620.006 111.348 620.514 110.871C621.029 110.386 621.647 110.143 622.366 110.143C623.086 110.143 623.7 110.386 624.207 110.871C624.722 111.348 624.98 111.92 624.98 112.587C624.98 113.261 624.722 113.84 624.207 114.325C623.7 114.803 623.086 115.041 622.366 115.041ZM636.54 135.087C634.774 135.087 633.248 134.712 631.96 133.962C630.68 133.204 629.691 132.151 628.994 130.803C628.297 129.446 627.949 127.875 627.949 126.087C627.949 124.284 628.297 122.708 628.994 121.359C629.691 120.003 630.68 118.95 631.96 118.2C633.248 117.443 634.774 117.064 636.54 117.064C638.305 117.064 639.827 117.443 641.108 118.2C642.396 118.95 643.388 120.003 644.085 121.359C644.782 122.708 645.131 124.284 645.131 126.087C645.131 127.875 644.782 129.446 644.085 130.803C643.388 132.151 642.396 133.204 641.108 133.962C639.827 134.712 638.305 135.087 636.54 135.087ZM636.562 131.337C637.365 131.337 638.036 131.109 638.574 130.655C639.112 130.193 639.517 129.564 639.79 128.768C640.07 127.973 640.21 127.068 640.21 126.053C640.21 125.037 640.07 124.132 639.79 123.337C639.517 122.541 639.112 121.912 638.574 121.45C638.036 120.988 637.365 120.757 636.562 120.757C635.752 120.757 635.07 120.988 634.517 121.45C633.971 121.912 633.559 122.541 633.278 123.337C633.006 124.132 632.869 125.037 632.869 126.053C632.869 127.068 633.006 127.973 633.278 128.768C633.559 129.564 633.971 130.193 634.517 130.655C635.07 131.109 635.752 131.337 636.562 131.337ZM653.119 124.655V134.746H648.278V117.291H652.892V120.371H653.096C653.483 119.356 654.131 118.553 655.04 117.962C655.949 117.363 657.051 117.064 658.346 117.064C659.559 117.064 660.615 117.329 661.517 117.859C662.418 118.39 663.119 119.147 663.619 120.132C664.119 121.109 664.369 122.276 664.369 123.632V134.746H659.528V124.496C659.536 123.428 659.263 122.594 658.71 121.996C658.157 121.39 657.396 121.087 656.426 121.087C655.774 121.087 655.199 121.227 654.699 121.507C654.206 121.787 653.82 122.196 653.54 122.734C653.267 123.265 653.127 123.905 653.119 124.655Z" fill="#5955B3"/>
<path d="M346.806 332.226H345.033C344.965 331.847 344.838 331.514 344.653 331.226C344.467 330.938 344.24 330.694 343.971 330.493C343.702 330.292 343.401 330.141 343.067 330.039C342.738 329.936 342.387 329.885 342.016 329.885C341.346 329.885 340.745 330.054 340.215 330.391C339.689 330.728 339.272 331.222 338.965 331.874C338.662 332.525 338.511 333.321 338.511 334.26C338.511 335.207 338.662 336.006 338.965 336.658C339.272 337.309 339.69 337.802 340.221 338.135C340.751 338.469 341.348 338.635 342.011 338.635C342.378 338.635 342.726 338.586 343.056 338.487C343.389 338.385 343.69 338.236 343.959 338.039C344.228 337.842 344.456 337.601 344.641 337.317C344.831 337.029 344.961 336.7 345.033 336.328L346.806 336.334C346.711 336.906 346.528 337.433 346.255 337.914C345.986 338.391 345.639 338.804 345.215 339.152C344.795 339.497 344.314 339.764 343.772 339.953C343.23 340.143 342.639 340.237 341.999 340.237C340.992 340.237 340.094 339.999 339.306 339.522C338.518 339.04 337.897 338.353 337.442 337.459C336.992 336.565 336.766 335.499 336.766 334.26C336.766 333.018 336.993 331.951 337.448 331.061C337.903 330.167 338.524 329.482 339.312 329.005C340.1 328.523 340.995 328.283 341.999 328.283C342.617 328.283 343.192 328.372 343.726 328.55C344.264 328.724 344.747 328.982 345.175 329.323C345.603 329.66 345.957 330.073 346.238 330.561C346.518 331.046 346.707 331.601 346.806 332.226ZM350.469 328.442V340.078H348.77V328.442H350.469ZM352.755 340.078V331.351H354.454V340.078H352.755ZM353.613 330.005C353.317 330.005 353.064 329.906 352.851 329.709C352.643 329.508 352.539 329.27 352.539 328.993C352.539 328.713 352.643 328.474 352.851 328.277C353.064 328.076 353.317 327.976 353.613 327.976C353.908 327.976 354.16 328.076 354.368 328.277C354.581 328.474 354.687 328.713 354.687 328.993C354.687 329.27 354.581 329.508 354.368 329.709C354.16 329.906 353.908 330.005 353.613 330.005ZM360.415 340.255C359.571 340.255 358.843 340.063 358.234 339.681C357.627 339.294 357.162 338.762 356.836 338.084C356.51 337.406 356.347 336.63 356.347 335.755C356.347 334.868 356.514 334.086 356.847 333.408C357.181 332.726 357.65 332.194 358.256 331.811C358.862 331.429 359.576 331.237 360.398 331.237C361.061 331.237 361.652 331.361 362.171 331.607C362.69 331.849 363.109 332.19 363.427 332.63C363.749 333.069 363.94 333.582 364.001 334.169H362.347C362.256 333.76 362.048 333.408 361.722 333.112C361.4 332.817 360.968 332.669 360.427 332.669C359.953 332.669 359.538 332.794 359.182 333.044C358.83 333.29 358.556 333.643 358.359 334.101C358.162 334.556 358.063 335.094 358.063 335.715C358.063 336.351 358.16 336.9 358.353 337.362C358.546 337.825 358.819 338.183 359.171 338.436C359.527 338.69 359.946 338.817 360.427 338.817C360.749 338.817 361.04 338.758 361.302 338.641C361.567 338.52 361.788 338.347 361.966 338.124C362.148 337.9 362.275 337.631 362.347 337.317H364.001C363.94 337.881 363.756 338.385 363.449 338.828C363.143 339.272 362.732 339.62 362.216 339.874C361.705 340.128 361.105 340.255 360.415 340.255ZM367.38 337.118L367.368 335.044H367.664L371.141 331.351H373.175L369.209 335.556H368.942L367.38 337.118ZM365.817 340.078V328.442H367.516V340.078H365.817ZM371.329 340.078L368.204 335.931L369.374 334.743L373.414 340.078H371.329ZM382.634 340.255C381.816 340.255 381.102 340.067 380.492 339.692C379.882 339.317 379.409 338.792 379.072 338.118C378.734 337.444 378.566 336.656 378.566 335.755C378.566 334.849 378.734 334.058 379.072 333.38C379.409 332.701 379.882 332.175 380.492 331.8C381.102 331.425 381.816 331.237 382.634 331.237C383.452 331.237 384.166 331.425 384.776 331.8C385.386 332.175 385.859 332.701 386.197 333.38C386.534 334.058 386.702 334.849 386.702 335.755C386.702 336.656 386.534 337.444 386.197 338.118C385.859 338.792 385.386 339.317 384.776 339.692C384.166 340.067 383.452 340.255 382.634 340.255ZM382.64 338.828C383.17 338.828 383.609 338.688 383.958 338.408C384.306 338.128 384.564 337.755 384.731 337.289C384.901 336.823 384.986 336.309 384.986 335.749C384.986 335.192 384.901 334.681 384.731 334.215C384.564 333.745 384.306 333.368 383.958 333.084C383.609 332.8 383.17 332.658 382.64 332.658C382.106 332.658 381.663 332.8 381.31 333.084C380.962 333.368 380.702 333.745 380.532 334.215C380.365 334.681 380.282 335.192 380.282 335.749C380.282 336.309 380.365 336.823 380.532 337.289C380.702 337.755 380.962 338.128 381.31 338.408C381.663 338.688 382.106 338.828 382.64 338.828ZM390.297 334.897V340.078H388.599V331.351H390.229V332.772H390.337C390.538 332.309 390.852 331.938 391.28 331.658C391.712 331.378 392.256 331.237 392.911 331.237C393.506 331.237 394.027 331.362 394.474 331.612C394.921 331.859 395.267 332.226 395.513 332.715C395.76 333.203 395.883 333.808 395.883 334.527V340.078H394.184V334.732C394.184 334.099 394.019 333.605 393.69 333.249C393.36 332.889 392.907 332.709 392.332 332.709C391.938 332.709 391.587 332.794 391.28 332.965C390.977 333.135 390.737 333.385 390.559 333.715C390.385 334.04 390.297 334.434 390.297 334.897ZM406.469 331.351V332.715H401.702V331.351H406.469ZM402.981 329.26H404.68V337.516C404.68 337.845 404.729 338.094 404.827 338.26C404.926 338.423 405.053 338.535 405.208 338.595C405.367 338.652 405.539 338.681 405.725 338.681C405.861 338.681 405.981 338.671 406.083 338.652C406.185 338.633 406.265 338.618 406.322 338.607L406.628 340.01C406.53 340.048 406.39 340.086 406.208 340.124C406.026 340.165 405.799 340.188 405.526 340.192C405.079 340.2 404.663 340.12 404.276 339.953C403.89 339.787 403.577 339.529 403.339 339.181C403.1 338.832 402.981 338.395 402.981 337.868V329.26ZM410.235 334.897V340.078H408.536V328.442H410.212V332.772H410.32C410.525 332.302 410.837 331.929 411.258 331.652C411.678 331.376 412.227 331.237 412.905 331.237C413.504 331.237 414.027 331.361 414.474 331.607C414.924 331.853 415.273 332.22 415.519 332.709C415.769 333.194 415.894 333.8 415.894 334.527V340.078H414.195V334.732C414.195 334.092 414.03 333.595 413.701 333.243C413.371 332.887 412.913 332.709 412.326 332.709C411.924 332.709 411.565 332.794 411.246 332.965C410.932 333.135 410.684 333.385 410.502 333.715C410.324 334.04 410.235 334.434 410.235 334.897ZM421.922 340.255C421.063 340.255 420.322 340.071 419.701 339.703C419.083 339.332 418.606 338.811 418.269 338.141C417.936 337.467 417.769 336.677 417.769 335.772C417.769 334.878 417.936 334.09 418.269 333.408C418.606 332.726 419.076 332.194 419.678 331.811C420.284 331.429 420.993 331.237 421.803 331.237C422.296 331.237 422.773 331.319 423.235 331.482C423.697 331.645 424.112 331.9 424.479 332.249C424.847 332.597 425.136 333.05 425.349 333.607C425.561 334.16 425.667 334.832 425.667 335.624V336.226H418.729V334.953H424.002C424.002 334.506 423.911 334.111 423.729 333.766C423.547 333.417 423.292 333.143 422.962 332.942C422.636 332.741 422.254 332.641 421.815 332.641C421.337 332.641 420.921 332.758 420.565 332.993C420.212 333.224 419.94 333.527 419.746 333.902C419.557 334.273 419.462 334.677 419.462 335.112V336.107C419.462 336.69 419.565 337.186 419.769 337.595C419.977 338.005 420.267 338.317 420.638 338.533C421.01 338.745 421.443 338.851 421.94 338.851C422.261 338.851 422.555 338.806 422.82 338.715C423.085 338.62 423.315 338.48 423.508 338.294C423.701 338.109 423.849 337.88 423.951 337.607L425.559 337.897C425.43 338.37 425.199 338.785 424.866 339.141C424.536 339.493 424.121 339.768 423.621 339.965C423.125 340.158 422.559 340.255 421.922 340.255ZM433.485 328.442V340.078H431.786V328.442H433.485ZM435.77 340.078V331.351H437.469V340.078H435.77ZM436.628 330.005C436.333 330.005 436.079 329.906 435.867 329.709C435.659 329.508 435.555 329.27 435.555 328.993C435.555 328.713 435.659 328.474 435.867 328.277C436.079 328.076 436.333 327.976 436.628 327.976C436.924 327.976 437.176 328.076 437.384 328.277C437.596 328.474 437.702 328.713 437.702 328.993C437.702 329.27 437.596 329.508 437.384 329.709C437.176 329.906 436.924 330.005 436.628 330.005ZM441.454 334.897V340.078H439.755V331.351H441.386V332.772H441.493C441.694 332.309 442.009 331.938 442.437 331.658C442.868 331.378 443.412 331.237 444.067 331.237C444.662 331.237 445.183 331.362 445.63 331.612C446.077 331.859 446.423 332.226 446.67 332.715C446.916 333.203 447.039 333.808 447.039 334.527V340.078H445.34V334.732C445.34 334.099 445.175 333.605 444.846 333.249C444.516 332.889 444.064 332.709 443.488 332.709C443.094 332.709 442.743 332.794 442.437 332.965C442.134 333.135 441.893 333.385 441.715 333.715C441.541 334.04 441.454 334.434 441.454 334.897ZM450.88 337.118L450.868 335.044H451.164L454.641 331.351H456.675L452.709 335.556H452.442L450.88 337.118ZM449.317 340.078V328.442H451.016V340.078H449.317ZM454.829 340.078L451.704 335.931L452.874 334.743L456.914 340.078H454.829ZM466.134 340.255C465.316 340.255 464.602 340.067 463.992 339.692C463.382 339.317 462.909 338.792 462.572 338.118C462.234 337.444 462.066 336.656 462.066 335.755C462.066 334.849 462.234 334.058 462.572 333.38C462.909 332.701 463.382 332.175 463.992 331.8C464.602 331.425 465.316 331.237 466.134 331.237C466.952 331.237 467.666 331.425 468.276 331.8C468.886 332.175 469.359 332.701 469.697 333.38C470.034 334.058 470.202 334.849 470.202 335.755C470.202 336.656 470.034 337.444 469.697 338.118C469.359 338.792 468.886 339.317 468.276 339.692C467.666 340.067 466.952 340.255 466.134 340.255ZM466.14 338.828C466.67 338.828 467.109 338.688 467.458 338.408C467.806 338.128 468.064 337.755 468.231 337.289C468.401 336.823 468.486 336.309 468.486 335.749C468.486 335.192 468.401 334.681 468.231 334.215C468.064 333.745 467.806 333.368 467.458 333.084C467.109 332.8 466.67 332.658 466.14 332.658C465.606 332.658 465.163 332.8 464.81 333.084C464.462 333.368 464.202 333.745 464.032 334.215C463.865 334.681 463.782 335.192 463.782 335.749C463.782 336.309 463.865 336.823 464.032 337.289C464.202 337.755 464.462 338.128 464.81 338.408C465.163 338.688 465.606 338.828 466.14 338.828ZM472.099 340.078V331.351H473.741V332.737H473.832C473.991 332.268 474.271 331.898 474.672 331.63C475.078 331.357 475.536 331.22 476.047 331.22C476.154 331.22 476.279 331.224 476.422 331.232C476.57 331.239 476.686 331.249 476.769 331.26V332.885C476.701 332.866 476.58 332.845 476.405 332.823C476.231 332.796 476.057 332.783 475.883 332.783C475.481 332.783 475.123 332.868 474.809 333.039C474.498 333.205 474.252 333.438 474.07 333.737C473.888 334.033 473.797 334.37 473.797 334.749V340.078H472.099ZM484.366 340.078L481.797 331.351H483.553L485.263 337.76H485.349L487.064 331.351H488.82L490.525 337.732H490.61L492.309 331.351H494.064L491.502 340.078H489.769L487.996 333.777H487.866L486.093 340.078H484.366ZM495.677 340.078V331.351H497.319V332.737H497.41C497.569 332.268 497.849 331.898 498.251 331.63C498.656 331.357 499.114 331.22 499.626 331.22C499.732 331.22 499.857 331.224 500.001 331.232C500.148 331.239 500.264 331.249 500.347 331.26V332.885C500.279 332.866 500.158 332.845 499.984 332.823C499.809 332.796 499.635 332.783 499.461 332.783C499.059 332.783 498.701 332.868 498.387 333.039C498.076 333.205 497.83 333.438 497.648 333.737C497.466 334.033 497.376 334.37 497.376 334.749V340.078H495.677ZM501.817 340.078V331.351H503.516V340.078H501.817ZM502.675 330.005C502.38 330.005 502.126 329.906 501.914 329.709C501.706 329.508 501.601 329.27 501.601 328.993C501.601 328.713 501.706 328.474 501.914 328.277C502.126 328.076 502.38 327.976 502.675 327.976C502.971 327.976 503.223 328.076 503.431 328.277C503.643 328.474 503.749 328.713 503.749 328.993C503.749 329.27 503.643 329.508 503.431 329.709C503.223 329.906 502.971 330.005 502.675 330.005ZM509.876 331.351V332.715H505.109V331.351H509.876ZM506.387 329.26H508.086V337.516C508.086 337.845 508.135 338.094 508.234 338.26C508.332 338.423 508.459 338.535 508.614 338.595C508.773 338.652 508.946 338.681 509.131 338.681C509.268 338.681 509.387 338.671 509.489 338.652C509.591 338.633 509.671 338.618 509.728 338.607L510.035 340.01C509.936 340.048 509.796 340.086 509.614 340.124C509.432 340.165 509.205 340.188 508.932 340.192C508.485 340.2 508.069 340.12 507.682 339.953C507.296 339.787 506.984 339.529 506.745 339.181C506.506 338.832 506.387 338.395 506.387 337.868V329.26ZM515.422 340.255C514.563 340.255 513.822 340.071 513.201 339.703C512.583 339.332 512.106 338.811 511.769 338.141C511.436 337.467 511.269 336.677 511.269 335.772C511.269 334.878 511.436 334.09 511.769 333.408C512.106 332.726 512.576 332.194 513.178 331.811C513.784 331.429 514.493 331.237 515.303 331.237C515.796 331.237 516.273 331.319 516.735 331.482C517.197 331.645 517.612 331.9 517.979 332.249C518.347 332.597 518.636 333.05 518.849 333.607C519.061 334.16 519.167 334.832 519.167 335.624V336.226H512.229V334.953H517.502C517.502 334.506 517.411 334.111 517.229 333.766C517.047 333.417 516.792 333.143 516.462 332.942C516.136 332.741 515.754 332.641 515.314 332.641C514.837 332.641 514.421 332.758 514.064 332.993C513.712 333.224 513.439 333.527 513.246 333.902C513.057 334.273 512.962 334.677 512.962 335.112V336.107C512.962 336.69 513.064 337.186 513.269 337.595C513.477 338.005 513.767 338.317 514.138 338.533C514.51 338.745 514.943 338.851 515.439 338.851C515.761 338.851 516.055 338.806 516.32 338.715C516.585 338.62 516.814 338.48 517.008 338.294C517.201 338.109 517.349 337.88 517.451 337.607L519.059 337.897C518.93 338.37 518.699 338.785 518.366 339.141C518.036 339.493 517.621 339.768 517.121 339.965C516.625 340.158 516.059 340.255 515.422 340.255ZM529.36 331.351V332.715H524.593V331.351H529.36ZM525.871 329.26H527.57V337.516C527.57 337.845 527.619 338.094 527.718 338.26C527.816 338.423 527.943 338.535 528.099 338.595C528.258 338.652 528.43 338.681 528.616 338.681C528.752 338.681 528.871 338.671 528.974 338.652C529.076 338.633 529.155 338.618 529.212 338.607L529.519 340.01C529.421 340.048 529.28 340.086 529.099 340.124C528.917 340.165 528.689 340.188 528.417 340.192C527.97 340.2 527.553 340.12 527.167 339.953C526.78 339.787 526.468 339.529 526.229 339.181C525.991 338.832 525.871 338.395 525.871 337.868V329.26ZM534.822 340.255C534.003 340.255 533.289 340.067 532.68 339.692C532.07 339.317 531.596 338.792 531.259 338.118C530.922 337.444 530.753 336.656 530.753 335.755C530.753 334.849 530.922 334.058 531.259 333.38C531.596 332.701 532.07 332.175 532.68 331.8C533.289 331.425 534.003 331.237 534.822 331.237C535.64 331.237 536.354 331.425 536.964 331.8C537.573 332.175 538.047 332.701 538.384 333.38C538.721 334.058 538.89 334.849 538.89 335.755C538.89 336.656 538.721 337.444 538.384 338.118C538.047 338.792 537.573 339.317 536.964 339.692C536.354 340.067 535.64 340.255 534.822 340.255ZM534.827 338.828C535.358 338.828 535.797 338.688 536.145 338.408C536.494 338.128 536.752 337.755 536.918 337.289C537.089 336.823 537.174 336.309 537.174 335.749C537.174 335.192 537.089 334.681 536.918 334.215C536.752 333.745 536.494 333.368 536.145 333.084C535.797 332.8 535.358 332.658 534.827 332.658C534.293 332.658 533.85 332.8 533.498 333.084C533.149 333.368 532.89 333.745 532.719 334.215C532.553 334.681 532.469 335.192 532.469 335.749C532.469 336.309 532.553 336.823 532.719 337.289C532.89 337.755 533.149 338.128 533.498 338.408C533.85 338.688 534.293 338.828 534.827 338.828ZM412.665 350.351V351.715H407.898V350.351H412.665ZM409.176 348.26H410.875V356.516C410.875 356.845 410.924 357.094 411.023 357.26C411.121 357.423 411.248 357.535 411.403 357.595C411.562 357.652 411.735 357.681 411.92 357.681C412.057 357.681 412.176 357.671 412.278 357.652C412.381 357.633 412.46 357.618 412.517 357.607L412.824 359.01C412.725 359.048 412.585 359.086 412.403 359.124C412.221 359.165 411.994 359.188 411.721 359.192C411.274 359.2 410.858 359.12 410.471 358.953C410.085 358.787 409.773 358.529 409.534 358.181C409.295 357.832 409.176 357.395 409.176 356.868V348.26ZM416.43 353.897V359.078H414.731V347.442H416.408V351.772H416.515C416.72 351.302 417.033 350.929 417.453 350.652C417.873 350.376 418.423 350.237 419.101 350.237C419.699 350.237 420.222 350.361 420.669 350.607C421.12 350.853 421.468 351.22 421.714 351.709C421.964 352.194 422.089 352.8 422.089 353.527V359.078H420.39V353.732C420.39 353.092 420.226 352.595 419.896 352.243C419.567 351.887 419.108 351.709 418.521 351.709C418.12 351.709 417.76 351.794 417.442 351.965C417.127 352.135 416.879 352.385 416.697 352.715C416.519 353.04 416.43 353.434 416.43 353.897ZM428.118 359.255C427.258 359.255 426.517 359.071 425.896 358.703C425.279 358.332 424.801 357.811 424.464 357.141C424.131 356.467 423.964 355.677 423.964 354.772C423.964 353.878 424.131 353.09 424.464 352.408C424.801 351.726 425.271 351.194 425.873 350.811C426.48 350.429 427.188 350.237 427.998 350.237C428.491 350.237 428.968 350.319 429.43 350.482C429.892 350.645 430.307 350.9 430.675 351.249C431.042 351.597 431.332 352.05 431.544 352.607C431.756 353.16 431.862 353.832 431.862 354.624V355.226H424.925V353.953H430.197C430.197 353.506 430.106 353.111 429.925 352.766C429.743 352.417 429.487 352.143 429.158 351.942C428.832 351.741 428.449 351.641 428.01 351.641C427.533 351.641 427.116 351.758 426.76 351.993C426.408 352.224 426.135 352.527 425.942 352.902C425.752 353.273 425.658 353.677 425.658 354.112V355.107C425.658 355.69 425.76 356.186 425.964 356.595C426.173 357.005 426.462 357.317 426.834 357.533C427.205 357.745 427.639 357.851 428.135 357.851C428.457 357.851 428.75 357.806 429.015 357.715C429.281 357.62 429.51 357.48 429.703 357.294C429.896 357.109 430.044 356.88 430.146 356.607L431.754 356.897C431.625 357.37 431.394 357.785 431.061 358.141C430.731 358.493 430.317 358.768 429.817 358.965C429.32 359.158 428.754 359.255 428.118 359.255ZM437.981 359.078V350.351H439.612V351.772H439.72C439.902 351.29 440.199 350.915 440.612 350.647C441.025 350.374 441.519 350.237 442.095 350.237C442.678 350.237 443.167 350.374 443.561 350.647C443.959 350.919 444.252 351.294 444.442 351.772H444.533C444.741 351.306 445.072 350.934 445.527 350.658C445.981 350.378 446.523 350.237 447.152 350.237C447.944 350.237 448.589 350.486 449.089 350.982C449.593 351.478 449.845 352.226 449.845 353.226V359.078H448.146V353.385C448.146 352.794 447.985 352.366 447.663 352.101C447.341 351.836 446.957 351.703 446.51 351.703C445.957 351.703 445.527 351.874 445.22 352.215C444.913 352.552 444.76 352.986 444.76 353.516V359.078H443.067V353.277C443.067 352.804 442.919 352.423 442.623 352.135C442.328 351.847 441.944 351.703 441.47 351.703C441.148 351.703 440.851 351.789 440.578 351.959C440.309 352.126 440.091 352.359 439.925 352.658C439.762 352.957 439.68 353.304 439.68 353.698V359.078H437.981ZM454.662 359.272C454.109 359.272 453.609 359.169 453.162 358.965C452.715 358.756 452.361 358.455 452.099 358.061C451.842 357.667 451.713 357.184 451.713 356.612C451.713 356.12 451.808 355.715 451.997 355.397C452.186 355.078 452.442 354.826 452.764 354.641C453.086 354.455 453.446 354.315 453.844 354.22C454.241 354.126 454.647 354.054 455.06 354.005C455.582 353.944 456.006 353.895 456.332 353.857C456.658 353.815 456.895 353.749 457.042 353.658C457.19 353.567 457.264 353.419 457.264 353.215V353.175C457.264 352.679 457.124 352.294 456.844 352.022C456.567 351.749 456.154 351.612 455.605 351.612C455.033 351.612 454.582 351.739 454.253 351.993C453.927 352.243 453.702 352.522 453.577 352.828L451.98 352.465C452.169 351.934 452.446 351.506 452.81 351.181C453.177 350.851 453.599 350.612 454.077 350.465C454.554 350.313 455.056 350.237 455.582 350.237C455.931 350.237 456.3 350.279 456.69 350.362C457.084 350.442 457.452 350.59 457.792 350.806C458.137 351.022 458.419 351.33 458.639 351.732C458.859 352.13 458.969 352.647 458.969 353.283V359.078H457.31V357.885H457.241C457.131 358.105 456.967 358.321 456.747 358.533C456.527 358.745 456.245 358.921 455.9 359.061C455.556 359.201 455.143 359.272 454.662 359.272ZM455.031 357.908C455.501 357.908 455.902 357.815 456.236 357.63C456.573 357.444 456.828 357.201 457.003 356.902C457.181 356.599 457.27 356.275 457.27 355.931V354.806C457.209 354.866 457.092 354.923 456.917 354.976C456.747 355.025 456.552 355.069 456.332 355.107C456.113 355.141 455.899 355.173 455.69 355.203C455.482 355.23 455.308 355.253 455.167 355.272C454.838 355.313 454.537 355.383 454.264 355.482C453.995 355.58 453.779 355.722 453.616 355.908C453.457 356.09 453.378 356.332 453.378 356.635C453.378 357.056 453.533 357.374 453.844 357.59C454.154 357.802 454.55 357.908 455.031 357.908ZM461.231 359.078V350.351H462.93V359.078H461.231ZM462.089 349.005C461.794 349.005 461.54 348.906 461.328 348.709C461.12 348.508 461.015 348.27 461.015 347.993C461.015 347.713 461.12 347.474 461.328 347.277C461.54 347.076 461.794 346.976 462.089 346.976C462.385 346.976 462.637 347.076 462.845 347.277C463.057 347.474 463.163 347.713 463.163 347.993C463.163 348.27 463.057 348.508 462.845 348.709C462.637 348.906 462.385 349.005 462.089 349.005ZM466.915 347.442V359.078H465.216V347.442H466.915Z" fill="#2D3342"/>
<path d="M291.911 144.795C292.11 144.768 296.934 144.175 296.761 139.826C296.745 139.427 296.696 139.063 296.618 138.733M291.911 144.795C294.554 144.642 295.902 143.648 296.511 142.449M291.911 144.795C291.591 144.839 291.261 144.833 290.936 144.781M296.618 138.733C296.52 138.32 296.378 137.96 296.199 137.649M296.618 138.733C296.972 139.702 297.151 141.188 296.511 142.449M296.199 137.649C294.736 135.098 290.839 135.833 289.346 137.606C288.76 138.302 287.53 140.069 288.11 142.292C288.474 143.685 289.676 144.58 290.936 144.781M296.199 137.649C296.758 138.419 297.563 140.221 296.855 141.845M296.511 142.449C296.652 142.252 296.765 142.05 296.855 141.845M290.936 144.781C292.601 145.073 296.116 144.894 296.855 141.845M293.261 148.186L288.455 148.156C286.719 148.145 285.125 149.086 284.339 150.587L284.161 150.927C283.61 151.978 283.47 153.223 284.035 154.267M317.592 144.957C317.393 144.927 312.577 144.273 312.805 139.927C312.826 139.528 312.88 139.165 312.961 138.836M317.592 144.957C314.951 144.771 313.615 143.759 313.022 142.553M317.592 144.957C317.911 145.005 318.241 145.003 318.567 144.955M312.961 138.836C313.064 138.424 313.211 138.066 313.393 137.757M312.961 138.836C312.595 139.8 312.398 141.284 313.022 142.553M313.393 137.757C314.889 135.225 318.776 136.009 320.247 137.8C320.824 138.504 322.031 140.287 321.423 142.502C321.042 143.89 319.829 144.77 318.567 144.955M313.393 137.757C312.825 138.521 311.997 140.312 312.685 141.945M313.022 142.553C312.883 142.354 312.772 142.151 312.685 141.945M318.567 144.955C316.898 145.226 313.386 145.003 312.685 141.945M316.199 148.331L321.005 148.361C322.741 148.372 324.323 149.333 325.09 150.844L325.264 151.186C325.801 152.244 325.926 153.49 325.348 154.527" stroke="#5955B3" stroke-width="2" stroke-linecap="round"/>
<path d="M303.699 159.217C303.978 159.181 310.733 158.396 310.488 152.628C310.465 152.098 310.396 151.616 310.287 151.178M303.699 159.217C307.4 159.016 309.288 157.697 310.139 156.107M303.699 159.217C303.251 159.275 302.79 159.268 302.334 159.198M310.287 151.178C310.151 150.63 309.951 150.152 309.701 149.74M310.287 151.178C310.783 152.463 311.035 154.435 310.139 156.107M309.701 149.74C307.65 146.355 302.195 147.328 300.105 149.679C299.285 150.602 297.563 152.946 298.376 155.895C298.886 157.743 300.57 158.93 302.334 159.198M309.701 149.74C310.483 150.762 311.612 153.152 310.62 155.306M310.139 156.107C310.337 155.846 310.495 155.578 310.62 155.306M302.334 159.198C304.666 159.586 309.588 159.35 310.62 155.306M315.907 167.041L316.404 167.966C317.003 169.085 317.271 170.38 316.709 171.513M315.907 167.041C314.833 165.036 312.618 163.76 310.186 163.745L298.862 163.674C296.43 163.658 294.199 164.906 293.099 166.897L292.85 167.348C292.08 168.742 291.883 170.393 292.675 171.778C295.093 176.006 299.307 177.835 303.581 177.97M315.907 167.041C317.005 170.023 316.076 176.384 303.581 177.97M316.709 171.513C314.741 175.483 309.111 178.144 303.581 177.97M316.709 171.513C316.151 174.149 312.745 179.13 303.581 177.97" stroke="#5955B3" stroke-width="2" stroke-linecap="round"/>
<path d="M111.156 162.479C109.962 162.302 81.0513 158.445 82.2554 131.553C82.3661 129.082 82.6743 126.834 83.1533 124.797M111.156 162.479C95.3099 161.432 87.2578 155.225 83.6541 147.785M111.156 162.479C113.073 162.764 115.05 162.741 117.006 162.431M83.1533 124.797C83.753 122.246 84.6204 120.024 85.7031 118.106M83.1533 124.797C80.9944 130.776 79.8644 139.962 83.6541 147.785M85.7031 118.106C94.5791 102.384 117.922 107.081 126.811 118.106C130.298 122.436 137.608 133.417 134.046 147.143C131.813 155.747 124.568 161.234 117.006 162.431M85.7031 118.106C82.3256 122.851 77.4253 133.962 81.6148 144.038M83.6541 147.785C82.8157 146.563 82.143 145.309 81.6148 144.038M117.006 162.431C107.007 164.171 85.9298 162.927 81.6148 144.038" stroke="#5A56B4" stroke-width="3" stroke-linecap="round"/>
<path d="M401.76 269V264.568L412.115 254.98C412.996 254.128 413.735 253.361 414.331 252.679C414.937 251.997 415.397 251.33 415.709 250.676C416.022 250.013 416.178 249.298 416.178 248.531C416.178 247.679 415.984 246.945 415.596 246.33C415.207 245.705 414.677 245.226 414.005 244.895C413.332 244.554 412.57 244.384 411.718 244.384C410.828 244.384 410.051 244.563 409.388 244.923C408.725 245.283 408.214 245.799 407.854 246.472C407.494 247.144 407.314 247.944 407.314 248.872H401.476C401.476 246.969 401.907 245.316 402.769 243.915C403.631 242.513 404.838 241.429 406.391 240.662C407.944 239.895 409.734 239.511 411.76 239.511C413.844 239.511 415.657 239.881 417.201 240.619C418.754 241.348 419.961 242.362 420.823 243.659C421.685 244.956 422.115 246.443 422.115 248.119C422.115 249.218 421.898 250.302 421.462 251.372C421.036 252.442 420.274 253.631 419.175 254.938C418.077 256.235 416.528 257.793 414.53 259.611L410.283 263.773V263.972H422.499V269H401.76Z" fill="black"/>
<path d="M414.289 279.479C413.051 279.302 383.089 275.445 384.337 248.553C384.452 246.082 384.772 243.834 385.268 241.797M414.289 279.479C397.867 278.432 389.522 272.225 385.787 264.785M414.289 279.479C416.276 279.764 418.325 279.741 420.352 279.431M385.268 241.797C385.889 239.246 386.788 237.024 387.91 235.106M385.268 241.797C383.031 247.776 381.86 256.962 385.787 264.785M387.91 235.106C397.109 219.384 421.301 224.081 430.513 235.106C434.127 239.436 441.703 250.417 438.011 264.143C435.697 272.747 428.189 278.234 420.352 279.431M387.91 235.106C384.41 239.851 379.332 250.962 383.674 261.038M385.787 264.785C384.918 263.563 384.221 262.309 383.674 261.038M420.352 279.431C409.989 281.171 388.145 279.927 383.674 261.038" stroke="#5A56B4" stroke-width="3" stroke-linecap="round"/>
<path d="M683.289 217.479C682.051 217.302 652.089 213.445 653.337 186.553C653.452 184.082 653.772 181.834 654.268 179.797M683.289 217.479C666.867 216.432 658.522 210.225 654.787 202.785M683.289 217.479C685.276 217.764 687.325 217.741 689.352 217.431M654.268 179.797C654.889 177.246 655.788 175.024 656.91 173.106M654.268 179.797C652.031 185.776 650.86 194.962 654.787 202.785M656.91 173.106C666.109 157.384 690.301 162.081 699.513 173.106C703.127 177.436 710.703 188.417 707.011 202.143C704.697 210.747 697.189 216.234 689.352 217.431M656.91 173.106C653.41 177.851 648.332 188.962 652.674 199.038M654.787 202.785C653.918 201.563 653.221 200.309 652.674 199.038M689.352 217.431C678.989 219.171 657.145 217.927 652.674 199.038" stroke="#5A56B4" stroke-width="3" stroke-linecap="round"/>
<path d="M547 324C493.59 296.382 312 302.133 312 341C312 379.5 588.595 400.657 553 333" stroke="#5A56B4" stroke-width="2" stroke-linecap="round"/>
<path d="M98.4791 199.875V188.239H105.695V189.75H100.235V193.296H105.178V194.801H100.235V199.875H98.4791ZM107.718 199.875V191.148H109.417V199.875H107.718ZM108.576 189.801C108.28 189.801 108.026 189.703 107.814 189.506C107.606 189.305 107.502 189.066 107.502 188.79C107.502 188.51 107.606 188.271 107.814 188.074C108.026 187.873 108.28 187.773 108.576 187.773C108.871 187.773 109.123 187.873 109.331 188.074C109.543 188.271 109.65 188.51 109.65 188.79C109.65 189.066 109.543 189.305 109.331 189.506C109.123 189.703 108.871 189.801 108.576 189.801ZM113.401 194.693V199.875H111.702V191.148H113.333V192.568H113.441C113.641 192.106 113.956 191.735 114.384 191.455C114.816 191.174 115.359 191.034 116.015 191.034C116.609 191.034 117.13 191.159 117.577 191.409C118.024 191.655 118.371 192.023 118.617 192.511C118.863 193 118.986 193.604 118.986 194.324V199.875H117.287V194.529C117.287 193.896 117.123 193.402 116.793 193.046C116.463 192.686 116.011 192.506 115.435 192.506C115.041 192.506 114.691 192.591 114.384 192.761C114.081 192.932 113.84 193.182 113.662 193.511C113.488 193.837 113.401 194.231 113.401 194.693ZM124.532 200.046C123.827 200.046 123.198 199.866 122.645 199.506C122.096 199.142 121.664 198.625 121.35 197.955C121.039 197.28 120.884 196.472 120.884 195.529C120.884 194.585 121.041 193.779 121.356 193.108C121.674 192.438 122.109 191.924 122.662 191.568C123.215 191.212 123.842 191.034 124.543 191.034C125.085 191.034 125.52 191.125 125.85 191.307C126.183 191.485 126.441 191.693 126.623 191.932C126.808 192.171 126.952 192.381 127.054 192.563H127.157V188.239H128.856V199.875H127.196V198.517H127.054C126.952 198.703 126.804 198.915 126.611 199.154C126.422 199.392 126.16 199.601 125.827 199.779C125.494 199.957 125.062 200.046 124.532 200.046ZM124.907 198.597C125.395 198.597 125.808 198.468 126.145 198.21C126.486 197.949 126.744 197.587 126.918 197.125C127.096 196.663 127.185 196.125 127.185 195.511C127.185 194.905 127.098 194.375 126.924 193.921C126.749 193.466 126.494 193.112 126.157 192.858C125.82 192.604 125.403 192.477 124.907 192.477C124.395 192.477 123.969 192.61 123.628 192.875C123.287 193.14 123.03 193.502 122.856 193.96C122.685 194.419 122.6 194.936 122.6 195.511C122.6 196.095 122.687 196.619 122.861 197.085C123.035 197.551 123.293 197.921 123.634 198.193C123.979 198.462 124.403 198.597 124.907 198.597ZM138.054 200.068C137.501 200.068 137.001 199.966 136.554 199.761C136.107 199.553 135.753 199.252 135.492 198.858C135.234 198.464 135.106 197.981 135.106 197.409C135.106 196.917 135.2 196.511 135.39 196.193C135.579 195.875 135.835 195.623 136.157 195.438C136.479 195.252 136.838 195.112 137.236 195.017C137.634 194.922 138.039 194.851 138.452 194.801C138.975 194.741 139.399 194.691 139.725 194.654C140.051 194.612 140.287 194.546 140.435 194.455C140.583 194.364 140.657 194.216 140.657 194.011V193.972C140.657 193.476 140.516 193.091 140.236 192.818C139.96 192.546 139.547 192.409 138.998 192.409C138.426 192.409 137.975 192.536 137.645 192.79C137.32 193.04 137.094 193.318 136.969 193.625L135.373 193.261C135.562 192.731 135.838 192.303 136.202 191.977C136.57 191.648 136.992 191.409 137.469 191.261C137.946 191.11 138.448 191.034 138.975 191.034C139.323 191.034 139.693 191.076 140.083 191.159C140.477 191.239 140.844 191.386 141.185 191.602C141.53 191.818 141.812 192.127 142.032 192.529C142.251 192.926 142.361 193.443 142.361 194.08V199.875H140.702V198.682H140.634C140.524 198.902 140.359 199.118 140.14 199.33C139.92 199.542 139.638 199.718 139.293 199.858C138.948 199.998 138.535 200.068 138.054 200.068ZM138.424 198.705C138.893 198.705 139.295 198.612 139.628 198.426C139.965 198.241 140.221 197.998 140.395 197.699C140.573 197.396 140.662 197.072 140.662 196.727V195.602C140.602 195.663 140.484 195.72 140.31 195.773C140.14 195.822 139.945 195.866 139.725 195.904C139.505 195.938 139.291 195.97 139.083 196C138.874 196.027 138.7 196.049 138.56 196.068C138.231 196.11 137.929 196.18 137.657 196.279C137.388 196.377 137.172 196.519 137.009 196.705C136.85 196.886 136.77 197.129 136.77 197.432C136.77 197.852 136.926 198.171 137.236 198.386C137.547 198.599 137.943 198.705 138.424 198.705ZM152.932 191.148V192.511H148.165V191.148H152.932ZM149.444 189.057H151.142V197.313C151.142 197.642 151.192 197.89 151.29 198.057C151.389 198.22 151.516 198.332 151.671 198.392C151.83 198.449 152.002 198.477 152.188 198.477C152.324 198.477 152.444 198.468 152.546 198.449C152.648 198.43 152.728 198.415 152.784 198.404L153.091 199.807C152.993 199.845 152.853 199.883 152.671 199.921C152.489 199.962 152.262 199.985 151.989 199.989C151.542 199.996 151.125 199.917 150.739 199.75C150.353 199.583 150.04 199.326 149.802 198.977C149.563 198.629 149.444 198.191 149.444 197.665V189.057ZM160.34 196.256V191.148H162.044V199.875H160.374V198.364H160.283C160.082 198.83 159.76 199.218 159.317 199.529C158.878 199.835 158.33 199.989 157.675 199.989C157.115 199.989 156.618 199.866 156.186 199.619C155.758 199.369 155.421 199 155.175 198.511C154.933 198.023 154.811 197.419 154.811 196.699V191.148H156.51V196.494C156.51 197.089 156.675 197.563 157.005 197.915C157.334 198.267 157.762 198.443 158.289 198.443C158.607 198.443 158.923 198.364 159.238 198.205C159.556 198.046 159.819 197.805 160.027 197.483C160.24 197.161 160.344 196.752 160.34 196.256ZM168.401 191.148V192.511H163.634V191.148H168.401ZM164.912 189.057H166.611V197.313C166.611 197.642 166.66 197.89 166.759 198.057C166.857 198.22 166.984 198.332 167.14 198.392C167.299 198.449 167.471 198.477 167.657 198.477C167.793 198.477 167.912 198.468 168.015 198.449C168.117 198.43 168.196 198.415 168.253 198.404L168.56 199.807C168.462 199.845 168.321 199.883 168.14 199.921C167.958 199.962 167.731 199.985 167.458 199.989C167.011 199.996 166.594 199.917 166.208 199.75C165.821 199.583 165.509 199.326 165.27 198.977C165.032 198.629 164.912 198.191 164.912 197.665V189.057ZM173.863 200.051C173.044 200.051 172.33 199.864 171.721 199.489C171.111 199.114 170.637 198.589 170.3 197.915C169.963 197.241 169.794 196.453 169.794 195.551C169.794 194.646 169.963 193.854 170.3 193.176C170.637 192.498 171.111 191.972 171.721 191.597C172.33 191.222 173.044 191.034 173.863 191.034C174.681 191.034 175.395 191.222 176.005 191.597C176.615 191.972 177.088 192.498 177.425 193.176C177.762 193.854 177.931 194.646 177.931 195.551C177.931 196.453 177.762 197.241 177.425 197.915C177.088 198.589 176.615 199.114 176.005 199.489C175.395 199.864 174.681 200.051 173.863 200.051ZM173.868 198.625C174.399 198.625 174.838 198.485 175.186 198.205C175.535 197.924 175.793 197.551 175.959 197.085C176.13 196.619 176.215 196.106 176.215 195.546C176.215 194.989 176.13 194.477 175.959 194.011C175.793 193.542 175.535 193.165 175.186 192.881C174.838 192.597 174.399 192.455 173.868 192.455C173.334 192.455 172.891 192.597 172.539 192.881C172.19 193.165 171.931 193.542 171.76 194.011C171.594 194.477 171.51 194.989 171.51 195.546C171.51 196.106 171.594 196.619 171.76 197.085C171.931 197.551 172.19 197.924 172.539 198.205C172.891 198.485 173.334 198.625 173.868 198.625ZM179.827 199.875V191.148H181.469V192.534H181.56C181.719 192.065 181.999 191.695 182.401 191.426C182.806 191.154 183.265 191.017 183.776 191.017C183.882 191.017 184.007 191.021 184.151 191.029C184.299 191.036 184.414 191.046 184.498 191.057V192.682C184.429 192.663 184.308 192.642 184.134 192.619C183.96 192.593 183.785 192.58 183.611 192.58C183.21 192.58 182.852 192.665 182.537 192.835C182.227 193.002 181.981 193.235 181.799 193.534C181.617 193.83 181.526 194.167 181.526 194.546V199.875H179.827ZM193.878 200.051C193.06 200.051 192.346 199.864 191.736 199.489C191.126 199.114 190.653 198.589 190.316 197.915C189.979 197.241 189.81 196.453 189.81 195.551C189.81 194.646 189.979 193.854 190.316 193.176C190.653 192.498 191.126 191.972 191.736 191.597C192.346 191.222 193.06 191.034 193.878 191.034C194.696 191.034 195.41 191.222 196.02 191.597C196.63 191.972 197.104 192.498 197.441 193.176C197.778 193.854 197.946 194.646 197.946 195.551C197.946 196.453 197.778 197.241 197.441 197.915C197.104 198.589 196.63 199.114 196.02 199.489C195.41 199.864 194.696 200.051 193.878 200.051ZM193.884 198.625C194.414 198.625 194.854 198.485 195.202 198.205C195.551 197.924 195.808 197.551 195.975 197.085C196.145 196.619 196.231 196.106 196.231 195.546C196.231 194.989 196.145 194.477 195.975 194.011C195.808 193.542 195.551 193.165 195.202 192.881C194.854 192.597 194.414 192.455 193.884 192.455C193.35 192.455 192.907 192.597 192.554 192.881C192.206 193.165 191.946 193.542 191.776 194.011C191.609 194.477 191.526 194.989 191.526 195.546C191.526 196.106 191.609 196.619 191.776 197.085C191.946 197.551 192.206 197.924 192.554 198.205C192.907 198.485 193.35 198.625 193.884 198.625ZM199.843 199.875V191.148H201.485V192.534H201.576C201.735 192.065 202.015 191.695 202.417 191.426C202.822 191.154 203.28 191.017 203.792 191.017C203.898 191.017 204.023 191.021 204.167 191.029C204.314 191.036 204.43 191.046 204.513 191.057V192.682C204.445 192.663 204.324 192.642 204.15 192.619C203.975 192.593 203.801 192.58 203.627 192.58C203.225 192.58 202.867 192.665 202.553 192.835C202.242 193.002 201.996 193.235 201.814 193.534C201.633 193.83 201.542 194.167 201.542 194.546V199.875H199.843ZM210.218 199.875V191.148H211.848V192.568H211.956C212.138 192.087 212.436 191.712 212.848 191.443C213.261 191.171 213.756 191.034 214.331 191.034C214.915 191.034 215.403 191.171 215.797 191.443C216.195 191.716 216.489 192.091 216.678 192.568H216.769C216.977 192.102 217.309 191.731 217.763 191.455C218.218 191.174 218.759 191.034 219.388 191.034C220.18 191.034 220.826 191.282 221.326 191.779C221.829 192.275 222.081 193.023 222.081 194.023V199.875H220.383V194.182C220.383 193.591 220.222 193.163 219.9 192.898C219.578 192.633 219.193 192.5 218.746 192.5C218.193 192.5 217.763 192.671 217.456 193.011C217.15 193.349 216.996 193.782 216.996 194.313V199.875H215.303V194.074C215.303 193.601 215.155 193.22 214.86 192.932C214.564 192.644 214.18 192.5 213.706 192.5C213.384 192.5 213.087 192.585 212.814 192.756C212.545 192.922 212.328 193.155 212.161 193.455C211.998 193.754 211.917 194.101 211.917 194.494V199.875H210.218ZM228.12 200.051C227.26 200.051 226.519 199.868 225.898 199.5C225.281 199.129 224.803 198.608 224.466 197.938C224.133 197.263 223.966 196.474 223.966 195.568C223.966 194.674 224.133 193.886 224.466 193.205C224.803 192.523 225.273 191.991 225.875 191.608C226.481 191.226 227.19 191.034 228 191.034C228.493 191.034 228.97 191.116 229.432 191.279C229.894 191.441 230.309 191.697 230.677 192.046C231.044 192.394 231.334 192.847 231.546 193.404C231.758 193.957 231.864 194.629 231.864 195.421V196.023H224.927V194.75H230.199C230.199 194.303 230.108 193.907 229.927 193.563C229.745 193.214 229.489 192.94 229.159 192.739C228.834 192.538 228.451 192.438 228.012 192.438C227.534 192.438 227.118 192.555 226.762 192.79C226.409 193.021 226.137 193.324 225.944 193.699C225.754 194.07 225.659 194.474 225.659 194.909V195.904C225.659 196.487 225.762 196.983 225.966 197.392C226.175 197.801 226.464 198.114 226.836 198.33C227.207 198.542 227.641 198.648 228.137 198.648C228.459 198.648 228.752 198.602 229.017 198.511C229.283 198.417 229.512 198.277 229.705 198.091C229.898 197.905 230.046 197.676 230.148 197.404L231.756 197.693C231.627 198.167 231.396 198.582 231.063 198.938C230.733 199.29 230.319 199.565 229.819 199.761C229.322 199.955 228.756 200.051 228.12 200.051ZM235.448 194.693V199.875H233.749V191.148H235.38V192.568H235.488C235.688 192.106 236.003 191.735 236.431 191.455C236.863 191.174 237.406 191.034 238.061 191.034C238.656 191.034 239.177 191.159 239.624 191.409C240.071 191.655 240.418 192.023 240.664 192.511C240.91 193 241.033 193.604 241.033 194.324V199.875H239.334V194.529C239.334 193.896 239.169 193.402 238.84 193.046C238.51 192.686 238.058 192.506 237.482 192.506C237.088 192.506 236.738 192.591 236.431 192.761C236.128 192.932 235.887 193.182 235.709 193.511C235.535 193.837 235.448 194.231 235.448 194.693ZM247.385 191.148V192.511H242.618V191.148H247.385ZM243.897 189.057H245.596V197.313C245.596 197.642 245.645 197.89 245.743 198.057C245.842 198.22 245.969 198.332 246.124 198.392C246.283 198.449 246.455 198.477 246.641 198.477C246.777 198.477 246.897 198.468 246.999 198.449C247.101 198.43 247.181 198.415 247.238 198.404L247.544 199.807C247.446 199.845 247.306 199.883 247.124 199.921C246.942 199.962 246.715 199.985 246.442 199.989C245.995 199.996 245.579 199.917 245.192 199.75C244.806 199.583 244.493 199.326 244.255 198.977C244.016 198.629 243.897 198.191 243.897 197.665V189.057ZM252.847 200.051C252.029 200.051 251.315 199.864 250.705 199.489C250.095 199.114 249.622 198.589 249.284 197.915C248.947 197.241 248.779 196.453 248.779 195.551C248.779 194.646 248.947 193.854 249.284 193.176C249.622 192.498 250.095 191.972 250.705 191.597C251.315 191.222 252.029 191.034 252.847 191.034C253.665 191.034 254.379 191.222 254.989 191.597C255.599 191.972 256.072 192.498 256.409 193.176C256.747 193.854 256.915 194.646 256.915 195.551C256.915 196.453 256.747 197.241 256.409 197.915C256.072 198.589 255.599 199.114 254.989 199.489C254.379 199.864 253.665 200.051 252.847 200.051ZM252.853 198.625C253.383 198.625 253.822 198.485 254.171 198.205C254.519 197.924 254.777 197.551 254.944 197.085C255.114 196.619 255.199 196.106 255.199 195.546C255.199 194.989 255.114 194.477 254.944 194.011C254.777 193.542 254.519 193.165 254.171 192.881C253.822 192.597 253.383 192.455 252.853 192.455C252.319 192.455 251.875 192.597 251.523 192.881C251.175 193.165 250.915 193.542 250.745 194.011C250.578 194.477 250.495 194.989 250.495 195.546C250.495 196.106 250.578 196.619 250.745 197.085C250.915 197.551 251.175 197.924 251.523 198.205C251.875 198.485 252.319 198.625 252.853 198.625ZM258.811 199.875V191.148H260.454V192.534H260.544C260.704 192.065 260.984 191.695 261.385 191.426C261.791 191.154 262.249 191.017 262.76 191.017C262.866 191.017 262.991 191.021 263.135 191.029C263.283 191.036 263.399 191.046 263.482 191.057V192.682C263.414 192.663 263.293 192.642 263.118 192.619C262.944 192.593 262.77 192.58 262.596 192.58C262.194 192.58 261.836 192.665 261.522 192.835C261.211 193.002 260.965 193.235 260.783 193.534C260.601 193.83 260.51 194.167 260.51 194.546V199.875H258.811ZM272.863 200.051C272.044 200.051 271.33 199.864 270.721 199.489C270.111 199.114 269.637 198.589 269.3 197.915C268.963 197.241 268.794 196.453 268.794 195.551C268.794 194.646 268.963 193.854 269.3 193.176C269.637 192.498 270.111 191.972 270.721 191.597C271.33 191.222 272.044 191.034 272.863 191.034C273.681 191.034 274.395 191.222 275.005 191.597C275.615 191.972 276.088 192.498 276.425 193.176C276.762 193.854 276.931 194.646 276.931 195.551C276.931 196.453 276.762 197.241 276.425 197.915C276.088 198.589 275.615 199.114 275.005 199.489C274.395 199.864 273.681 200.051 272.863 200.051ZM272.868 198.625C273.399 198.625 273.838 198.485 274.186 198.205C274.535 197.924 274.793 197.551 274.959 197.085C275.13 196.619 275.215 196.106 275.215 195.546C275.215 194.989 275.13 194.477 274.959 194.011C274.793 193.542 274.535 193.165 274.186 192.881C273.838 192.597 273.399 192.455 272.868 192.455C272.334 192.455 271.891 192.597 271.539 192.881C271.19 193.165 270.931 193.542 270.76 194.011C270.594 194.477 270.51 194.989 270.51 195.546C270.51 196.106 270.594 196.619 270.76 197.085C270.931 197.551 271.19 197.924 271.539 198.205C271.891 198.485 272.334 198.625 272.868 198.625ZM280.526 194.693V199.875H278.827V191.148H280.458V192.568H280.566C280.766 192.106 281.081 191.735 281.509 191.455C281.941 191.174 282.484 191.034 283.14 191.034C283.734 191.034 284.255 191.159 284.702 191.409C285.149 191.655 285.496 192.023 285.742 192.511C285.988 193 286.111 193.604 286.111 194.324V199.875H284.412V194.529C284.412 193.896 284.248 193.402 283.918 193.046C283.588 192.686 283.136 192.506 282.56 192.506C282.166 192.506 281.816 192.591 281.509 192.761C281.206 192.932 280.965 193.182 280.787 193.511C280.613 193.837 280.526 194.231 280.526 194.693ZM296.698 191.148V192.511H291.931V191.148H296.698ZM293.209 189.057H294.908V197.313C294.908 197.642 294.957 197.89 295.056 198.057C295.154 198.22 295.281 198.332 295.436 198.392C295.596 198.449 295.768 198.477 295.954 198.477C296.09 198.477 296.209 198.468 296.311 198.449C296.414 198.43 296.493 198.415 296.55 198.404L296.857 199.807C296.758 199.845 296.618 199.883 296.436 199.921C296.255 199.962 296.027 199.985 295.755 199.989C295.308 199.996 294.891 199.917 294.505 199.75C294.118 199.583 293.806 199.326 293.567 198.977C293.329 198.629 293.209 198.191 293.209 197.665V189.057ZM300.463 194.693V199.875H298.765V188.239H300.441V192.568H300.549C300.753 192.099 301.066 191.726 301.486 191.449C301.907 191.172 302.456 191.034 303.134 191.034C303.732 191.034 304.255 191.157 304.702 191.404C305.153 191.65 305.501 192.017 305.748 192.506C305.998 192.991 306.123 193.597 306.123 194.324V199.875H304.424V194.529C304.424 193.888 304.259 193.392 303.929 193.04C303.6 192.684 303.141 192.506 302.554 192.506C302.153 192.506 301.793 192.591 301.475 192.761C301.16 192.932 300.912 193.182 300.731 193.511C300.552 193.837 300.463 194.231 300.463 194.693ZM312.151 200.051C311.291 200.051 310.551 199.868 309.929 199.5C309.312 199.129 308.835 198.608 308.498 197.938C308.164 197.263 307.998 196.474 307.998 195.568C307.998 194.674 308.164 193.886 308.498 193.205C308.835 192.523 309.304 191.991 309.907 191.608C310.513 191.226 311.221 191.034 312.032 191.034C312.524 191.034 313.001 191.116 313.463 191.279C313.926 191.441 314.34 191.697 314.708 192.046C315.075 192.394 315.365 192.847 315.577 193.404C315.789 193.957 315.895 194.629 315.895 195.421V196.023H308.958V194.75H314.231C314.231 194.303 314.14 193.907 313.958 193.563C313.776 193.214 313.52 192.94 313.191 192.739C312.865 192.538 312.482 192.438 312.043 192.438C311.566 192.438 311.149 192.555 310.793 192.79C310.441 193.021 310.168 193.324 309.975 193.699C309.785 194.07 309.691 194.474 309.691 194.909V195.904C309.691 196.487 309.793 196.983 309.998 197.392C310.206 197.801 310.496 198.114 310.867 198.33C311.238 198.542 311.672 198.648 312.168 198.648C312.49 198.648 312.784 198.602 313.049 198.511C313.314 198.417 313.543 198.277 313.736 198.091C313.929 197.905 314.077 197.676 314.179 197.404L315.787 197.693C315.659 198.167 315.427 198.582 315.094 198.938C314.765 199.29 314.35 199.565 313.85 199.761C313.354 199.955 312.787 200.051 312.151 200.051ZM198.51 207.239V218.875H196.811V207.239H198.51ZM200.796 218.875V210.148H202.495V218.875H200.796ZM201.654 208.801C201.358 208.801 201.105 208.703 200.892 208.506C200.684 208.305 200.58 208.066 200.58 207.79C200.58 207.51 200.684 207.271 200.892 207.074C201.105 206.873 201.358 206.773 201.654 206.773C201.949 206.773 202.201 206.873 202.409 207.074C202.622 207.271 202.728 207.51 202.728 207.79C202.728 208.066 202.622 208.305 202.409 208.506C202.201 208.703 201.949 208.801 201.654 208.801ZM211.32 212.279L209.78 212.551C209.716 212.354 209.614 212.167 209.473 211.989C209.337 211.811 209.151 211.665 208.917 211.551C208.682 211.438 208.388 211.381 208.036 211.381C207.555 211.381 207.153 211.489 206.831 211.705C206.509 211.917 206.348 212.191 206.348 212.529C206.348 212.82 206.456 213.055 206.672 213.233C206.888 213.411 207.237 213.557 207.718 213.671L209.104 213.989C209.907 214.174 210.506 214.46 210.9 214.847C211.293 215.233 211.49 215.735 211.49 216.352C211.49 216.875 211.339 217.341 211.036 217.75C210.737 218.155 210.318 218.474 209.78 218.705C209.246 218.936 208.627 219.051 207.922 219.051C206.945 219.051 206.148 218.843 205.53 218.426C204.913 218.006 204.534 217.409 204.394 216.636L206.036 216.386C206.138 216.815 206.348 217.138 206.667 217.358C206.985 217.574 207.4 217.682 207.911 217.682C208.468 217.682 208.913 217.566 209.246 217.335C209.579 217.101 209.746 216.815 209.746 216.477C209.746 216.205 209.644 215.976 209.439 215.79C209.239 215.604 208.93 215.464 208.513 215.369L207.036 215.046C206.222 214.86 205.619 214.565 205.229 214.159C204.843 213.754 204.65 213.241 204.65 212.619C204.65 212.104 204.793 211.654 205.081 211.267C205.369 210.881 205.767 210.58 206.275 210.364C206.782 210.144 207.364 210.034 208.019 210.034C208.962 210.034 209.704 210.239 210.246 210.648C210.788 211.053 211.146 211.597 211.32 212.279ZM217.432 210.148V211.511H212.665V210.148H217.432ZM213.944 208.057H215.642V216.313C215.642 216.642 215.692 216.89 215.79 217.057C215.889 217.22 216.016 217.332 216.171 217.392C216.33 217.449 216.502 217.477 216.688 217.477C216.824 217.477 216.944 217.468 217.046 217.449C217.148 217.43 217.228 217.415 217.284 217.404L217.591 218.807C217.493 218.845 217.353 218.883 217.171 218.921C216.989 218.962 216.762 218.985 216.489 218.989C216.042 218.996 215.625 218.917 215.239 218.75C214.853 218.583 214.54 218.326 214.302 217.977C214.063 217.629 213.944 217.191 213.944 216.665V208.057Z" fill="#2D3342"/>
<path d="M267.496 165.003C129.496 165.003 25.599 180.877 38.9145 213.378C52.2299 245.878 484 244 335.994 169.004" stroke="#5A56B4" stroke-width="2" stroke-linecap="round"/>
<path d="M422.598 164.204C444.419 171.142 506.169 183.548 578.598 177.667" stroke="#5955B3" stroke-width="2" stroke-linecap="round"/>
<path d="M633.137 37.9505C641.56 35.9181 651.756 39.8138 655.953 43.9302C658.954 46.8734 667.446 56.7873 655.193 67.3838C654.862 67.67 654.615 68.0578 654.516 68.4839L653.073 74.6652C652.753 76.0337 651.159 76.6547 649.998 75.8629L644.423 72.0604C644.148 71.8729 643.836 71.7586 643.506 71.7205C634.481 70.6787 617.056 65.4751 621.348 49.9863C622.362 46.3293 624.03 43.6126 626.111 41.6578" stroke="#5955B3" stroke-width="2" stroke-linecap="round"/>
<path d="M635.22 52.4221C634.934 53.2493 634.03 53.6912 633.196 53.4039C632.363 53.1166 631.923 52.2111 632.208 51.384C632.493 50.5569 633.398 50.1149 634.231 50.4022C635.065 50.6895 635.505 51.595 635.22 52.4221Z" stroke="#5955B3" stroke-width="2"/>
<path d="M642.048 54.776C641.763 55.6031 640.858 56.0451 640.025 55.7578C639.191 55.4705 638.751 54.565 639.036 53.7379C639.321 52.9107 640.226 52.4688 641.059 52.7561C641.893 53.0434 642.333 53.9489 642.048 54.776Z" stroke="#5955B3" stroke-width="2"/>
<path d="M648.876 57.13C648.591 57.9571 647.686 58.3991 646.853 58.1118C646.019 57.8245 645.579 56.919 645.864 56.0919C646.149 55.2647 647.054 54.8228 647.887 55.1101C648.721 55.3974 649.161 56.3029 648.876 57.13Z" stroke="#5955B3" stroke-width="2"/>
<path d="M617.355 57.3089L612.125 57.5697C610.592 57.6461 609.547 56.0379 610.241 54.6684L611.778 51.6351C611.96 51.276 612.027 50.871 611.984 50.4708C611.265 43.8069 612.457 31.9001 625.613 29.6584C638.516 27.4599 645.644 35.1953 649.933 39.8017" stroke="#5955B3" stroke-width="2" stroke-linecap="round"/>
<path d="M731.598 126.204C736.714 115.308 735.49 90.4546 689.658 78.2039" stroke="#5955B3" stroke-width="2" stroke-linecap="round"/>
<path d="M405.598 97.2039C418.694 87.9454 461.83 68.5836 529.598 65.2039" stroke="#5955B3" stroke-width="2" stroke-linecap="round"/>
<path d="M466.598 185.204C479.421 188.671 513.095 190.752 529.598 190.077" stroke="#5955B3" stroke-width="2" stroke-linecap="round"/>
<path d="M738.729 101.547C739.095 98.1621 737.382 89.9981 727.598 84.4227" stroke="#5955B3" stroke-width="2" stroke-linecap="round"/>
<path d="M401.519 78.2738C414.974 71.7419 427.223 63.8842 469.813 62.2221" stroke="#5955B3" stroke-width="2" stroke-linecap="round"/>
<path d="M478.664 286.59L475.382 286.329" stroke="#0C0993" stroke-linecap="round"/>
<path d="M479.839 283.514L474.595 281.381" stroke="#0C0993" stroke-linecap="round"/>
<path d="M482.047 281.147L478.649 278.237" stroke="#0C0993" stroke-linecap="round"/>
<path d="M485.393 298.865L497.445 301.571C498.322 301.768 499.223 301.356 499.647 300.564L501.73 296.671C502.163 295.862 503.091 295.452 503.98 295.675L507.907 296.66C508.821 296.889 509.772 296.449 510.188 295.602L515.453 284.89C516.18 283.411 518.284 283.397 519.031 284.866L526.9 300.336C527.415 301.35 526.983 302.59 525.948 303.062L493.349 317.958C492.365 318.407 491.203 317.993 490.724 317.024L483.161 301.702C482.417 300.195 483.752 298.497 485.393 298.865Z" fill="#5955B3" stroke="#0C0993" stroke-linecap="round"/>
<path d="M493.258 314.32L497.464 305.246" stroke="#0C0993" stroke-linecap="round"/>
<path d="M513.091 297.903L522.753 300.551" stroke="#0C0993" stroke-linecap="round"/>
<path d="M484.06 291.738L481.424 298.053L488.586 299.38L484.06 291.738Z" fill="#5955B3"/>
<path d="M510.292 279.641L514.323 287.207L517.079 281.391L510.292 279.641Z" fill="#5955B3"/>
<path d="M499.305 276.08L488.662 281.133L492.149 274.377L499.305 276.08Z" fill="#5955B3"/>
<path d="M488.553 299.469L481.774 287.495C481.21 286.501 481.594 285.238 482.615 284.724L504.938 273.485C505.901 273 507.075 273.366 507.592 274.312L514.401 286.769" stroke="#0C0993" stroke-linecap="round"/>
<path d="M492.947 300.255L488.74 292.238C488.208 291.224 488.634 289.971 489.675 289.492L505.426 282.243C506.401 281.794 507.557 282.195 508.044 283.152L512.182 291.282" stroke="#0C0993" stroke-linecap="round"/>
<path d="M495.971 293.938L504.664 289.808" stroke="#0C0993" stroke-linecap="round"/>
<path d="M495.953 298.227L507.747 292.528" stroke="#0C0993" stroke-linecap="round"/>
<path d="M562.594 275.079C564.281 274.48 568.451 273.567 571.638 274.7M591.325 291.975C593.161 294.695 596.877 301.17 597.045 305.31" stroke="black" stroke-opacity="0.3" stroke-linecap="round"/>
<path d="M559.688 296.204L558.691 296.131C558.661 296.541 558.885 296.927 559.255 297.105C559.624 297.283 560.066 297.217 560.367 296.939L559.688 296.204ZM576.06 281.076L576.739 281.811C576.764 281.787 576.789 281.762 576.812 281.736L576.06 281.076ZM582.872 282.138L583.744 281.648L583.744 281.648L582.872 282.138ZM578.123 291.078L577.467 290.324C577.459 290.331 577.452 290.337 577.445 290.344L578.123 291.078ZM569.937 298.643L569.258 297.909C569.05 298.101 568.934 298.373 568.937 298.656C568.941 298.939 569.065 299.208 569.278 299.395L569.937 298.643ZM576.812 324.338L576.258 323.506L576.812 324.338ZM553.377 285.75L554.26 286.219L553.377 285.75ZM560.367 296.939L576.739 281.811L575.382 280.342L559.01 295.47L560.367 296.939ZM576.812 281.736C576.863 281.677 577.103 281.49 577.566 281.309C578 281.139 578.535 281.013 579.091 280.996C580.172 280.965 581.276 281.338 582 282.627L583.744 281.648C582.577 279.57 580.682 278.949 579.033 278.997C578.223 279.021 577.461 279.202 576.837 279.447C576.242 279.679 575.664 280.012 575.309 280.416L576.812 281.736ZM582 282.627C582.605 283.704 582.271 285.003 581.184 286.523C580.123 288.005 578.575 289.359 577.467 290.324L578.78 291.833C579.859 290.893 581.591 289.391 582.811 287.686C584.004 286.019 584.951 283.799 583.744 281.648L582 282.627ZM577.445 290.344L569.258 297.909L570.616 299.377L578.802 291.813L577.445 290.344ZM569.278 299.395L578.901 307.839L580.22 306.336L570.597 297.891L569.278 299.395ZM578.901 307.839C582.708 311.179 582.741 319.195 576.258 323.506L577.366 325.171C584.777 320.243 585.163 310.673 580.22 306.336L578.901 307.839ZM576.258 323.506C573.785 325.15 571.048 325.802 568.629 325.775C566.181 325.747 564.176 325.028 563.099 324.083L561.78 325.586C563.327 326.944 565.853 327.744 568.607 327.775C571.39 327.806 574.528 327.058 577.366 325.171L576.258 323.506ZM563.099 324.083L550.85 313.335L549.531 314.839L561.78 325.586L563.099 324.083ZM550.85 313.335C548.765 311.505 544.833 303.969 554.26 286.219L552.494 285.281C542.925 303.297 546.368 312.063 549.531 314.839L550.85 313.335ZM554.26 286.219C554.638 285.507 555.111 285.191 555.492 285.114C555.842 285.044 556.323 285.133 556.862 285.699C558.008 286.901 559.136 290.037 558.691 296.131L560.686 296.277C561.14 290.052 560.068 286.163 558.31 284.319C557.398 283.362 556.252 282.922 555.098 283.153C553.976 283.379 553.07 284.195 552.494 285.281L554.26 286.219Z" fill="#5955B3"/>
<g filter="url(#filter0_d_1020_6640)">
<path d="M356.807 255.776C357.164 261.439 358.942 274.875 363.227 285.168C363.404 285.594 362.67 286.301 362.172 286.187C354.596 284.462 337.632 284.032 327.008 285.217" stroke="#5955B3" stroke-width="4" stroke-linecap="round"/>
<path d="M360.316 284.409C347.231 275.136 322.414 260.534 311.361 245.15" stroke="#5955B3" stroke-width="4" stroke-linecap="round"/>
</g>
<g filter="url(#filter1_d_1020_6640)">
<path d="M596.172 208.039C601.714 209.255 615.121 211.246 626.196 209.962C626.654 209.909 627.131 210.809 626.885 211.256C623.14 218.065 618.056 234.254 616.268 244.794" stroke="#5955B3" stroke-width="4" stroke-linecap="round"/>
<path d="M624.665 212.551C612.146 222.576 591.275 242.412 573.442 248.801" stroke="#5955B3" stroke-width="4" stroke-linecap="round"/>
</g>
<g filter="url(#filter2_d_1020_6640)">
<path d="M228.346 121.864C226.367 126.009 222.315 136.205 221.233 145.144C221.188 145.514 220.403 145.731 220.103 145.458C215.541 141.309 203.979 134.448 196.166 131.18" stroke="#5955B3" stroke-width="4" stroke-linecap="round"/>
<path d="M219.518 143.483C214.114 131.863 202.691 111.938 201.094 96.7791" stroke="#5955B3" stroke-width="4" stroke-linecap="round"/>
</g>
<path d="M682.427 203.398C680.306 203.398 678.417 203.033 676.76 202.304C675.112 201.565 673.81 200.552 672.853 199.264C671.906 197.967 671.419 196.471 671.39 194.776H677.583C677.621 195.486 677.853 196.111 678.279 196.651C678.715 197.181 679.293 197.593 680.012 197.886C680.732 198.18 681.542 198.327 682.441 198.327C683.379 198.327 684.208 198.161 684.927 197.83C685.647 197.498 686.21 197.039 686.618 196.452C687.025 195.865 687.228 195.187 687.228 194.42C687.228 193.644 687.011 192.957 686.575 192.361C686.149 191.755 685.533 191.281 684.728 190.94C683.933 190.599 682.986 190.429 681.887 190.429H679.174V185.912H681.887C682.815 185.912 683.635 185.751 684.345 185.429C685.065 185.107 685.623 184.662 686.021 184.094C686.419 183.516 686.618 182.844 686.618 182.077C686.618 181.348 686.442 180.708 686.092 180.159C685.751 179.6 685.268 179.165 684.643 178.852C684.028 178.54 683.308 178.384 682.484 178.384C681.651 178.384 680.888 178.535 680.197 178.838C679.506 179.132 678.952 179.553 678.535 180.102C678.118 180.652 677.896 181.295 677.868 182.034H671.973C672.001 180.358 672.479 178.881 673.407 177.602C674.335 176.324 675.585 175.325 677.157 174.605C678.739 173.876 680.524 173.511 682.512 173.511C684.52 173.511 686.277 173.876 687.782 174.605C689.288 175.334 690.458 176.319 691.291 177.56C692.134 178.791 692.55 180.173 692.541 181.707C692.55 183.336 692.044 184.695 691.021 185.784C690.008 186.873 688.687 187.564 687.058 187.858V188.085C689.198 188.36 690.827 189.103 691.944 190.315C693.071 191.518 693.63 193.024 693.62 194.832C693.63 196.49 693.152 197.962 692.186 199.25C691.229 200.538 689.908 201.551 688.223 202.29C686.537 203.028 684.605 203.398 682.427 203.398Z" fill="black"/>
<defs>
<filter id="filter0_d_1020_6640" x="305.6" y="240" width="63.4665" height="58.6875" filterUnits="userSpaceOnUse" color-interpolation-filters="sRGB">
<feFlood flood-opacity="0" result="BackgroundImageFix"/>
<feColorMatrix in="SourceAlpha" type="matrix" values="0 0 0 0 0 0 0 0 0 0 0 0 0 0 0 0 0 0 127 0" result="hardAlpha"/>
<feOffset dy="4"/>
<feGaussianBlur stdDeviation="1.7"/>
<feComposite in2="hardAlpha" operator="out"/>
<feColorMatrix type="matrix" values="0 0 0 0 0 0 0 0 0 0 0 0 0 0 0 0 0 0 0.11 0"/>
<feBlend mode="normal" in2="BackgroundImageFix" result="effect1_dropShadow_1020_6640"/>
<feBlend mode="normal" in="SourceGraphic" in2="effect1_dropShadow_1020_6640" result="shape"/>
</filter>
<filter id="filter1_d_1020_6640" x="567.6" y="198" width="65.3913" height="70.3548" filterUnits="userSpaceOnUse" color-interpolation-filters="sRGB">
<feFlood flood-opacity="0" result="BackgroundImageFix"/>
<feColorMatrix in="SourceAlpha" type="matrix" values="0 0 0 0 0 0 0 0 0 0 0 0 0 0 0 0 0 0 127 0" result="hardAlpha"/>
<feOffset dy="4"/>
<feGaussianBlur stdDeviation="1.7"/>
<feComposite in2="hardAlpha" operator="out"/>
<feColorMatrix type="matrix" values="0 0 0 0 0 0 0 0 0 0 0 0 0 0 0 0 0 0 0.11 0"/>
<feBlend mode="normal" in2="BackgroundImageFix" result="effect1_dropShadow_1020_6640"/>
<feBlend mode="normal" in="SourceGraphic" in2="effect1_dropShadow_1020_6640" result="shape"/>
</filter>
<filter id="filter2_d_1020_6640" x="181.357" y="94.548" width="59.2856" height="59.5442" filterUnits="userSpaceOnUse" color-interpolation-filters="sRGB">
<feFlood flood-opacity="0" result="BackgroundImageFix"/>
<feColorMatrix in="SourceAlpha" type="matrix" values="0 0 0 0 0 0 0 0 0 0 0 0 0 0 0 0 0 0 127 0" result="hardAlpha"/>
<feOffset dy="4"/>
<feGaussianBlur stdDeviation="1"/>
<feComposite in2="hardAlpha" operator="out"/>
<feColorMatrix type="matrix" values="0 0 0 0 0 0 0 0 0 0 0 0 0 0 0 0 0 0 0.14 0"/>
<feBlend mode="normal" in2="BackgroundImageFix" result="effect1_dropShadow_1020_6640"/>
<feBlend mode="normal" in="SourceGraphic" in2="effect1_dropShadow_1020_6640" result="shape"/>
</filter>
<linearGradient id="paint0_linear_1020_6640" x1="193.131" y1="32.9193" x2="253.957" y2="69.2712" gradientUnits="userSpaceOnUse">
<stop stop-color="#5955B3"/>
<stop offset="1" stop-color="#6563CE"/>
</linearGradient>
</defs>
</svg>
