<svg width="753" height="407" viewBox="0 0 753 407" fill="none" xmlns="http://www.w3.org/2000/svg">
<rect width="753" height="407" fill="white"/>
<path opacity="0.2" fill-rule="evenodd" clip-rule="evenodd" d="M752.692 386.791C752.65 397.756 743.784 406.64 732.827 406.712H436C448.567 371.704 501.062 301.687 610.504 301.687C719.946 301.687 750.897 247.229 752.692 220V386.791Z" fill="#79A4E2"/>
<path opacity="0.2" fill-rule="evenodd" clip-rule="evenodd" d="M211.324 0C208.649 18.1119 192.257 69.0439 124.729 92.1467C59.2113 114.562 16.0501 106.853 3.85558e-05 99.6083L3.21315e-05 20C3.12402e-05 8.95433 8.95435 1.9166e-05 20 1.81199e-05L211.324 0Z" fill="#79A4E2"/>
<path d="M341.955 54.6H377.595V59.04H341.955V54.6ZM364.395 52.32H369.355V65.72C369.355 68.16 368.715 69.32 366.835 69.92C364.915 70.56 362.195 70.56 358.475 70.56C358.275 69.28 357.515 67.48 356.875 66.28C359.355 66.4 362.555 66.36 363.315 66.36C364.115 66.36 364.395 66.16 364.395 65.56V52.32ZM347.275 60.84L350.515 57.88C353.075 59.6 356.195 62.2 357.635 64.12L354.155 67.44C352.875 65.48 349.835 62.68 347.275 60.84ZM344.555 36.52H349.595V45.6C349.595 47.28 350.395 47.6 354.715 47.6C356.715 47.6 365.795 47.6 368.395 47.6C371.515 47.6 372.155 47.24 372.555 45.12C373.715 45.76 375.675 46.28 377.075 46.48C376.395 50.56 374.555 51.44 368.875 51.44C366.955 51.44 356.635 51.44 354.795 51.44C346.995 51.44 344.555 50.32 344.555 45.72V36.52ZM346.115 40.8H368.075V38.2H344.555V34.08H372.795V44.96H346.115V40.8ZM394.995 34.88H417.915V39.24H394.995V34.88ZM404.035 36.88H408.515V70.48H404.035V36.88ZM396.035 42.84H414.315V47.12H400.395V64.76H396.035V42.84ZM412.475 42.84H416.915V60.16C416.915 62.08 416.635 63.2 415.435 63.92C414.275 64.64 412.755 64.68 410.675 64.68C410.555 63.48 409.955 61.68 409.435 60.56C410.515 60.6 411.635 60.6 411.995 60.6C412.355 60.6 412.475 60.48 412.475 60.04V42.84ZM389.235 33.16H393.635V49.04C393.635 57.08 392.875 64.96 386.635 70.52C385.835 69.56 384.115 68 383.035 67.32C388.595 62.56 389.235 55.96 389.235 49.04V33.16ZM382.595 37.68H386.875V57.24H382.595V37.68Z" fill="url(#paint0_linear_1038_6404)"/>
<path d="M23.476 158.344H37.604V159.48H23.476V158.344ZM32.852 157.112H34.084V162.856C34.084 163.56 33.892 163.896 33.316 164.056C32.74 164.232 31.78 164.232 30.228 164.232C30.18 163.912 29.972 163.464 29.812 163.144C30.996 163.192 32.148 163.176 32.452 163.16C32.756 163.16 32.852 163.08 32.852 162.84V157.112ZM25.876 160.088L26.708 159.384C27.716 160.2 28.852 161.368 29.38 162.184L28.484 162.984C28.004 162.152 26.868 160.936 25.876 160.088ZM24.66 150.696H25.908V154.872C25.908 155.544 26.228 155.704 28.004 155.704C28.836 155.704 33.268 155.704 34.388 155.704C35.7 155.704 35.924 155.48 36.068 154.296C36.372 154.472 36.868 154.616 37.22 154.68C37.012 156.312 36.5 156.712 34.484 156.712C33.828 156.712 28.692 156.712 28.084 156.712C25.444 156.712 24.66 156.376 24.66 154.888V150.696ZM25.076 152.936H34.532V151.256H24.66V150.2H35.7V154.008H25.076V152.936ZM44.628 150.408H53.668V151.512H44.628V150.408ZM48.452 150.856H49.588V164.248H48.452V150.856ZM45.188 153.48H52.372V154.568H46.308V161.976H45.188V153.48ZM51.924 153.48H53.044V160.616C53.044 161.176 52.948 161.48 52.564 161.672C52.18 161.864 51.62 161.864 50.74 161.864C50.692 161.56 50.532 161.112 50.388 160.808C50.996 160.824 51.524 160.824 51.7 160.824C51.876 160.824 51.924 160.76 51.924 160.584V153.48ZM42.564 149.592H43.684V155.992C43.684 159.16 43.38 162.088 40.98 164.264C40.788 164.024 40.372 163.64 40.084 163.464C42.308 161.496 42.564 158.856 42.564 155.992V149.592ZM40.004 151.4H41.092V159.176H40.004V151.4ZM55.428 156.616H69.588V157.704H55.428V156.616ZM62.548 159.48H68.532V160.536H62.548V159.48ZM62.02 157.096H63.236V163.16H62.02V157.096ZM58.884 159.704C59.86 162.328 61.972 162.824 65.108 162.84C65.716 162.84 69.06 162.84 69.892 162.824C69.716 163.096 69.524 163.624 69.46 163.976H65.06C61.316 163.976 59.14 163.304 57.892 160.072L58.884 159.704ZM58.196 158.216L59.396 158.392C58.884 161.048 57.732 163.032 55.972 164.312C55.796 164.088 55.332 163.656 55.06 163.464C56.756 162.36 57.78 160.568 58.196 158.216ZM58.276 153.304V154.616H66.612V153.304H58.276ZM58.276 151.144V152.44H66.612V151.144H58.276ZM57.108 150.232H67.828V155.528H57.108V150.232ZM71.524 152.936H85.492V154.152H71.524V152.936ZM74.724 160.072H82.18V161.288H74.724V160.072ZM77.844 149.576H79.108V164.28H77.844V149.576ZM77.476 153.336L78.548 153.704C77.124 157.096 74.612 160.152 71.844 161.768C71.652 161.464 71.252 161.016 70.98 160.776C73.652 159.384 76.196 156.408 77.476 153.336ZM79.508 153.384C80.772 156.424 83.284 159.336 86.052 160.664C85.748 160.92 85.332 161.4 85.14 161.736C82.308 160.168 79.844 157.112 78.436 153.752L79.508 153.384ZM89.892 150.888H91.06V164.248H89.892V150.888ZM87.188 154.072H93.428V155.208H87.188V154.072ZM89.956 154.504L90.708 154.824C90.068 157.08 88.788 159.88 87.556 161.368C87.444 161.032 87.156 160.536 86.948 160.264C88.1 158.984 89.38 156.488 89.956 154.504ZM92.452 149.784L93.188 150.76C91.716 151.336 89.508 151.768 87.684 152.024C87.62 151.752 87.46 151.352 87.332 151.08C89.14 150.792 91.236 150.328 92.452 149.784ZM90.996 155.416C91.412 155.848 92.948 157.784 93.3 158.264L92.548 159.208C92.164 158.44 90.916 156.536 90.436 155.912L90.996 155.416ZM98.692 149.56H99.876V164.264H98.692V149.56ZM93.236 159.976L101.748 158.6L101.94 159.72L93.412 161.112L93.236 159.976ZM94.532 151.384L95.3 150.68C96.26 151.288 97.396 152.2 97.94 152.872L97.108 153.656C96.596 152.984 95.476 152.024 94.532 151.384ZM93.892 155.544L94.644 154.84C95.684 155.464 96.948 156.424 97.54 157.112L96.74 157.912C96.148 157.208 94.932 156.2 93.892 155.544ZM105.828 152.68H116.916V153.848H105.828V152.68ZM105.124 157.368H116.34V158.52H105.124V157.368ZM103.38 162.6H117.668V163.768H103.38V162.6ZM109.908 149.576H111.14V163.192H109.908V149.576ZM106.308 149.832L107.54 150.104C106.836 152.584 105.716 154.952 104.436 156.488C104.196 156.28 103.652 155.928 103.348 155.768C104.66 154.344 105.7 152.12 106.308 149.832ZM121.012 164.712L120.644 163.88C121.956 163.336 122.676 162.52 122.676 161.32L122.372 159.96L123.236 161.176C123.012 161.464 122.692 161.544 122.388 161.544C121.732 161.544 121.188 161.16 121.188 160.392C121.188 159.64 121.764 159.24 122.404 159.24C123.3 159.24 123.78 159.976 123.78 161.096C123.78 162.824 122.692 164.136 121.012 164.712ZM139.956 157.192H149.844V158.312H139.956V157.192ZM146.468 155.912H147.652V162.824C147.652 163.528 147.508 163.88 146.996 164.072C146.484 164.264 145.636 164.28 144.372 164.28C144.324 163.944 144.148 163.448 143.972 163.096C144.964 163.128 145.86 163.128 146.148 163.112C146.404 163.096 146.468 163.048 146.468 162.808V155.912ZM148.084 149.56L148.916 150.488C146.628 151.176 143.124 151.72 140.148 152.024C140.1 151.752 139.956 151.32 139.812 151.064C142.74 150.728 146.148 150.168 148.084 149.56ZM140.388 152.856L141.396 152.52C141.908 153.432 142.42 154.648 142.58 155.432L141.508 155.816C141.348 155.048 140.884 153.784 140.388 152.856ZM143.524 152.232L144.596 151.976C144.98 152.92 145.316 154.104 145.38 154.856L144.244 155.16C144.196 154.392 143.892 153.176 143.524 152.232ZM141.236 159.496L142.228 158.968C143.06 159.784 143.972 160.968 144.372 161.768L143.332 162.376C142.98 161.56 142.068 160.344 141.236 159.496ZM138.132 149.576H139.284V164.28H138.132V149.576ZM134.9 160.04C135.796 159.576 137.14 158.776 138.452 157.976L138.836 158.984C137.7 159.784 136.516 160.6 135.508 161.272L134.9 160.04ZM135.076 152.072L136.052 151.608C136.82 152.616 137.604 153.976 137.908 154.856L136.868 155.416C136.58 154.504 135.812 153.112 135.076 152.072ZM148.468 151.784L149.556 152.328C148.692 153.672 147.524 155.208 146.612 156.248L145.684 155.72C146.58 154.68 147.796 153.032 148.468 151.784ZM151.54 150.84H159.028V151.816H151.54V150.84ZM151.284 155.176H159.124V156.136H151.284V155.176ZM151.892 152.984H158.708V153.928H151.892V152.984ZM159.844 150.232H164.468V151.272H160.996V158.168H159.844V150.232ZM164.228 150.232H164.468L164.66 150.184L165.492 150.696C164.9 151.528 164.18 152.504 163.524 153.304C164.884 154.152 165.348 154.92 165.364 155.64C165.38 156.328 165.092 156.776 164.58 157.064C164.308 157.208 163.924 157.288 163.62 157.336C163.06 157.384 162.372 157.384 161.748 157.336C161.732 157.032 161.572 156.6 161.364 156.312C162.052 156.392 162.644 156.392 163.108 156.36C163.332 156.344 163.588 156.296 163.764 156.232C164.052 156.12 164.18 155.896 164.18 155.544C164.164 154.968 163.652 154.264 162.228 153.464C162.98 152.472 163.764 151.272 164.228 150.456V150.232ZM154.868 149.56H156.084V154.312C156.084 155.592 155.332 157.752 152.436 158.888C152.244 158.648 151.876 158.248 151.604 158.024C154.212 157.144 154.868 155.336 154.868 154.296V149.56ZM157.828 157.56H159.076V164.264H157.828V157.56ZM152.9 158.824H163.636V159.912H154.1V163.416H152.9V158.824ZM163.124 158.824H164.34V162.104C164.34 162.712 164.196 163.032 163.684 163.208C163.172 163.384 162.324 163.384 160.98 163.384C160.9 163.064 160.724 162.648 160.564 162.344C161.572 162.376 162.516 162.376 162.788 162.36C163.06 162.344 163.124 162.28 163.124 162.088V158.824ZM173.956 153.192H180.724V154.328H173.956V153.192ZM180.212 153.192H181.364C181.364 153.192 181.348 153.64 181.348 153.8C181.188 160.568 181.044 162.856 180.516 163.544C180.196 163.976 179.86 164.104 179.348 164.152C178.852 164.2 177.988 164.184 177.14 164.152C177.108 163.8 176.98 163.304 176.772 163C177.7 163.064 178.532 163.064 178.868 163.064C179.14 163.08 179.316 163.032 179.46 162.824C179.892 162.328 180.068 159.992 180.212 153.448V153.192ZM176.612 149.576H177.78C177.764 155.704 177.748 161.4 173.3 164.312C173.124 164.024 172.724 163.624 172.42 163.432C176.692 160.776 176.596 155.4 176.612 149.576ZM168.196 150.344H173.412V160.76H172.292V151.448H169.268V161.784H168.196V150.344ZM167.044 161.496C168.82 161.144 171.636 160.552 174.292 159.96L174.404 161.048C171.86 161.656 169.172 162.28 167.252 162.712L167.044 161.496ZM168.756 153.784H172.82V154.872H168.756V153.784ZM168.756 157.208H172.82V158.28H168.756V157.208ZM189.988 149.576L191.092 149.848C190.468 151.56 189.428 153.192 188.308 154.28C188.132 154.072 187.684 153.688 187.412 153.512C188.5 152.568 189.444 151.112 189.988 149.576ZM189.924 153.608L191.044 153.896C190.548 155.16 189.716 156.408 188.916 157.24C188.692 157.064 188.212 156.76 187.94 156.616C188.772 155.848 189.492 154.728 189.924 153.608ZM189.828 151.144H196.772V152.2H189.412L189.828 151.144ZM192.18 151.864H193.332V157.432C193.332 158.04 193.22 158.36 192.772 158.536C192.356 158.712 191.7 158.728 190.692 158.728C190.628 158.408 190.468 157.96 190.292 157.656C191.044 157.688 191.716 157.688 191.924 157.672C192.132 157.656 192.18 157.608 192.18 157.432V151.864ZM194.212 153.96L195.204 153.528C195.988 154.568 196.772 155.976 197.108 156.904L196.068 157.4C195.748 156.456 194.964 155 194.212 153.96ZM196.436 151.144H196.628L196.82 151.112L197.652 151.32C197.252 152.328 196.756 153.496 196.372 154.2L195.332 153.992C195.7 153.32 196.132 152.216 196.436 151.32V151.144ZM187.284 159.512H188.468V162.408C188.468 162.84 188.628 162.92 189.476 162.92C189.876 162.92 191.876 162.92 192.404 162.92C193.108 162.92 193.22 162.712 193.3 161.128C193.556 161.336 194.036 161.512 194.372 161.592C194.228 163.528 193.86 164.008 192.484 164.008C192.116 164.008 189.732 164.008 189.38 164.008C187.716 164.008 187.284 163.672 187.284 162.408V159.512ZM188.66 159.032L189.46 158.312C190.484 158.808 191.716 159.624 192.292 160.264L191.428 161.048C190.884 160.408 189.7 159.544 188.66 159.032ZM193.924 160.008L194.916 159.448C196.1 160.456 197.348 161.896 197.844 162.984L196.772 163.592C196.308 162.536 195.124 161.032 193.924 160.008ZM185.332 159.704L186.404 160.056C186.004 161.496 185.38 162.92 184.116 163.768L183.124 163.08C184.308 162.328 184.996 161.048 185.332 159.704ZM186.868 149.56L187.94 149.928C186.9 151.912 185.284 153.88 183.732 155.144C183.588 154.904 183.188 154.424 182.948 154.216C184.452 153.08 185.956 151.32 186.868 149.56ZM185.396 152.568L186.532 151.432L186.548 151.448V158.712H185.396V152.568ZM212.228 149.672L213.06 150.568C210.772 151.128 207.22 151.48 204.244 151.624C204.212 151.352 204.068 150.936 203.94 150.68C206.868 150.504 210.324 150.152 212.228 149.672ZM207.94 151H209.14V157.24H207.94V151ZM203.428 153.4H213.668V154.44H203.428V153.4ZM202.516 157.016V161.688H201.332V158.12H199.236V157.016H202.516ZM202.516 161.048C203.284 162.216 204.692 162.776 206.58 162.856C208.34 162.904 212.004 162.872 213.924 162.744C213.764 163.016 213.588 163.576 213.524 163.944C211.748 164.008 208.372 164.04 206.58 163.992C204.484 163.896 203.028 163.336 201.988 162.072C201.252 162.76 200.468 163.448 199.652 164.152L199.028 162.952C199.748 162.44 200.66 161.736 201.444 161.048H202.516ZM199.924 150.504L200.724 149.768C201.684 150.264 202.836 151.064 203.38 151.688L202.548 152.504C202.02 151.88 200.9 151.048 199.924 150.504ZM199.3 153.768L200.1 152.984C201.092 153.448 202.308 154.216 202.9 154.84L202.068 155.688C201.508 155.08 200.324 154.264 199.3 153.768ZM205.684 157.64V160.392H211.588V157.64H205.684ZM204.548 156.584H212.788V161.448H204.548V156.584ZM217.028 151.624H229.572V152.76H217.028V151.624ZM216.42 151.624H217.636V155.992C217.636 158.424 217.428 162.008 216.116 164.408C215.908 164.184 215.348 163.848 215.076 163.736C216.308 161.464 216.42 158.264 216.42 155.992V151.624ZM221.972 149.752L223.14 149.448C223.54 150.152 223.988 151.048 224.18 151.624L222.964 152.008C222.772 151.4 222.34 150.456 221.972 149.752ZM218.708 155.16L219.748 154.744C220.452 156.488 221.22 158.712 221.572 160.2L220.452 160.68C220.132 159.176 219.364 156.904 218.708 155.16ZM222.18 154.28L223.268 153.96C223.828 155.704 224.42 157.944 224.66 159.432L223.508 159.768C223.3 158.28 222.708 156.008 222.18 154.28ZM227.604 153.864L228.852 154.328C227.988 157.336 226.596 160.664 224.868 163.32C224.692 163.112 224.324 162.776 224.068 162.6C225.684 160.088 226.964 156.712 227.604 153.864ZM217.828 162.392H229.78V163.544H217.828V162.392ZM234.148 154.968H242.068V156.024H234.148V154.968ZM231.46 158.616H245.604V159.736H231.46V158.616ZM237.892 157.448H239.124V162.856C239.124 163.576 238.932 163.928 238.324 164.104C237.748 164.28 236.82 164.296 235.364 164.296C235.284 163.96 235.044 163.464 234.852 163.144C236.084 163.176 237.172 163.176 237.492 163.16C237.812 163.144 237.892 163.064 237.892 162.824V157.448ZM241.7 154.968H242.004L242.26 154.904L243.028 155.496C241.94 156.6 240.26 157.704 238.74 158.36C238.596 158.152 238.276 157.832 238.068 157.656C239.412 157.08 240.948 156.024 241.7 155.208V154.968ZM231.78 152.232H245.332V155.8H244.148V153.32H232.916V155.8H231.78V152.232ZM243.22 149.672L244.468 150.088C243.796 151.08 242.932 152.152 242.26 152.856L241.316 152.456C241.956 151.704 242.772 150.52 243.22 149.672ZM232.868 150.232L233.876 149.752C234.5 150.424 235.156 151.336 235.428 151.976L234.356 152.488C234.1 151.88 233.46 150.92 232.868 150.232ZM236.98 149.88L238.02 149.496C238.564 150.248 239.14 151.288 239.332 151.96L238.228 152.392C238.036 151.72 237.508 150.664 236.98 149.88ZM249.828 152.68H260.916V153.848H249.828V152.68ZM249.124 157.368H260.34V158.52H249.124V157.368ZM247.38 162.6H261.668V163.768H247.38V162.6ZM253.908 149.576H255.14V163.192H253.908V149.576ZM250.308 149.832L251.54 150.104C250.836 152.584 249.716 154.952 248.436 156.488C248.196 156.28 247.652 155.928 247.348 155.768C248.66 154.344 249.7 152.12 250.308 149.832ZM129.828 171.68H140.916V172.848H129.828V171.68ZM129.124 176.368H140.34V177.52H129.124V176.368ZM127.38 181.6H141.668V182.768H127.38V181.6ZM133.908 168.576H135.14V182.192H133.908V168.576ZM130.308 168.832L131.54 169.104C130.836 171.584 129.716 173.952 128.436 175.488C128.196 175.28 127.652 174.928 127.348 174.768C128.66 173.344 129.7 171.12 130.308 168.832ZM148.772 177.056H156.756V183.2H155.604V178.16H149.876V183.28H148.772V177.056ZM156.164 168.624L157.108 169.568C154.916 170.32 151.572 170.816 148.708 171.088C148.66 170.8 148.5 170.336 148.356 170.064C151.14 169.76 154.388 169.264 156.164 168.624ZM152.228 170.016H153.38V177.696H152.228V170.016ZM147.604 173.264H157.796V174.416H147.604V173.264ZM149.524 181.488H156.132V182.592H149.524V181.488ZM143.94 169.616L144.612 168.768C145.588 169.248 146.948 169.968 147.636 170.432L146.932 171.408C146.26 170.928 144.932 170.144 143.94 169.616ZM143.156 174.032L143.828 173.152C144.772 173.616 146.116 174.32 146.788 174.784L146.116 175.76C145.46 175.312 144.132 174.544 143.156 174.032ZM143.54 182.256C144.404 181.04 145.668 178.928 146.596 177.104L147.46 177.888C146.612 179.584 145.492 181.584 144.548 183.072L143.54 182.256Z" fill="#2D3342"/>
<path d="M509.404 149.592H510.54V160.712H509.404V149.592ZM503.836 156.184L513.452 152.456L513.916 153.496L504.284 157.24L503.836 156.184ZM505.852 151.16H507.036V161.864C507.036 162.776 507.26 162.984 508.396 162.984C508.94 162.984 511.804 162.984 512.508 162.984C513.484 162.984 513.66 162.536 513.788 160.648C514.076 160.856 514.556 161.064 514.908 161.144C514.7 163.352 514.316 164.072 512.54 164.072C512.076 164.072 508.78 164.072 508.348 164.072C506.412 164.072 505.852 163.624 505.852 161.848V151.16ZM513.052 152.728H512.908L513.196 152.488L513.404 152.296L514.236 152.648L514.188 152.84C514.172 155.752 514.14 158.056 513.98 158.744C513.852 159.48 513.516 159.784 513.02 159.912C512.588 160.024 511.884 160.04 511.404 160.024C511.372 159.688 511.244 159.192 511.1 158.92C511.548 158.936 512.124 158.936 512.332 158.936C512.604 158.936 512.78 158.872 512.892 158.456C513.02 157.944 513.052 155.848 513.052 152.728ZM503.756 149.624L504.86 149.976C503.82 152.664 502.172 155.384 500.46 157.176C500.332 156.904 499.996 156.28 499.788 156.008C501.372 154.456 502.86 152.056 503.756 149.624ZM502.06 153.752L503.212 152.584L503.228 152.6V164.264H502.06V153.752ZM517.052 162.536C519.836 162.472 524.3 162.312 528.46 162.12L528.412 163.224C524.38 163.432 520.044 163.624 517.212 163.72L517.052 162.536ZM516.908 157.592H530.172V158.728H516.908V157.592ZM519.644 154.536H527.292V155.656H519.644V154.536ZM521.292 158.312L522.636 158.696C521.9 160.232 520.972 162.104 520.188 163.304L519.116 162.952C519.868 161.704 520.812 159.72 521.292 158.312ZM525.1 160.008L526.124 159.464C527.596 160.728 529.164 162.456 529.916 163.672L528.828 164.328C528.108 163.128 526.524 161.288 525.1 160.008ZM523.436 150.744C522.124 152.696 519.5 154.888 516.78 156.248C516.636 155.96 516.332 155.528 516.076 155.272C518.828 153.96 521.5 151.64 522.748 149.592H523.98C525.676 151.96 528.476 154.056 531.02 155.096C530.732 155.384 530.444 155.816 530.236 156.168C527.74 154.968 524.924 152.824 523.436 150.744ZM532.54 150.84H540.028V151.816H532.54V150.84ZM532.284 155.176H540.124V156.136H532.284V155.176ZM532.892 152.984H539.708V153.928H532.892V152.984ZM540.844 150.232H545.468V151.272H541.996V158.168H540.844V150.232ZM545.228 150.232H545.468L545.66 150.184L546.492 150.696C545.9 151.528 545.18 152.504 544.524 153.304C545.884 154.152 546.348 154.92 546.364 155.64C546.38 156.328 546.092 156.776 545.58 157.064C545.308 157.208 544.924 157.288 544.62 157.336C544.06 157.384 543.372 157.384 542.748 157.336C542.732 157.032 542.572 156.6 542.364 156.312C543.052 156.392 543.644 156.392 544.108 156.36C544.332 156.344 544.588 156.296 544.764 156.232C545.052 156.12 545.18 155.896 545.18 155.544C545.164 154.968 544.652 154.264 543.228 153.464C543.98 152.472 544.764 151.272 545.228 150.456V150.232ZM535.868 149.56H537.084V154.312C537.084 155.592 536.332 157.752 533.436 158.888C533.244 158.648 532.876 158.248 532.604 158.024C535.212 157.144 535.868 155.336 535.868 154.296V149.56ZM538.828 157.56H540.076V164.264H538.828V157.56ZM533.9 158.824H544.636V159.912H535.1V163.416H533.9V158.824ZM544.124 158.824H545.34V162.104C545.34 162.712 545.196 163.032 544.684 163.208C544.172 163.384 543.324 163.384 541.98 163.384C541.9 163.064 541.724 162.648 541.564 162.344C542.572 162.376 543.516 162.376 543.788 162.36C544.06 162.344 544.124 162.28 544.124 162.088V158.824ZM554.956 153.192H561.724V154.328H554.956V153.192ZM561.212 153.192H562.364C562.364 153.192 562.348 153.64 562.348 153.8C562.188 160.568 562.044 162.856 561.516 163.544C561.196 163.976 560.86 164.104 560.348 164.152C559.852 164.2 558.988 164.184 558.14 164.152C558.108 163.8 557.98 163.304 557.772 163C558.7 163.064 559.532 163.064 559.868 163.064C560.14 163.08 560.316 163.032 560.46 162.824C560.892 162.328 561.068 159.992 561.212 153.448V153.192ZM557.612 149.576H558.78C558.764 155.704 558.748 161.4 554.3 164.312C554.124 164.024 553.724 163.624 553.42 163.432C557.692 160.776 557.596 155.4 557.612 149.576ZM549.196 150.344H554.412V160.76H553.292V151.448H550.268V161.784H549.196V150.344ZM548.044 161.496C549.82 161.144 552.636 160.552 555.292 159.96L555.404 161.048C552.86 161.656 550.172 162.28 548.252 162.712L548.044 161.496ZM549.756 153.784H553.82V154.872H549.756V153.784ZM549.756 157.208H553.82V158.28H549.756V157.208ZM570.94 149.64L572.124 149.896C571.5 152.456 570.492 154.92 569.26 156.552C569.052 156.344 568.572 155.96 568.3 155.784C569.484 154.296 570.412 151.992 570.94 149.64ZM570.668 156.424L571.836 156.664C571.34 158.76 570.476 160.792 569.5 162.136C569.26 161.944 568.748 161.624 568.46 161.48C569.452 160.248 570.22 158.344 570.668 156.424ZM570.796 152.648H577.996V153.768H570.332L570.796 152.648ZM573.276 153.112H574.476V162.824C574.476 163.512 574.332 163.864 573.884 164.056C573.452 164.264 572.764 164.296 571.772 164.296C571.692 163.96 571.516 163.432 571.34 163.08C572.092 163.112 572.78 163.096 573.004 163.096C573.212 163.096 573.276 163.032 573.276 162.824V153.112ZM575.628 156.664L576.7 156.312C577.628 157.992 578.428 160.2 578.7 161.688L577.564 162.072C577.308 160.6 576.508 158.344 575.628 156.664ZM577.644 152.648H577.804L578.012 152.616L578.844 152.792C578.62 153.976 578.348 155.352 578.14 156.216L577.1 156.024C577.276 155.224 577.484 153.88 577.644 152.824V152.648ZM567.724 149.624L568.86 149.976C567.804 152.696 566.156 155.4 564.428 157.192C564.3 156.92 563.964 156.28 563.74 156.008C565.324 154.456 566.828 152.056 567.724 149.624ZM566.06 153.752L567.18 152.616L567.212 152.632V164.264H566.06V153.752ZM583.148 154.968H591.068V156.024H583.148V154.968ZM580.46 158.616H594.604V159.736H580.46V158.616ZM586.892 157.448H588.124V162.856C588.124 163.576 587.932 163.928 587.324 164.104C586.748 164.28 585.82 164.296 584.364 164.296C584.284 163.96 584.044 163.464 583.852 163.144C585.084 163.176 586.172 163.176 586.492 163.16C586.812 163.144 586.892 163.064 586.892 162.824V157.448ZM590.7 154.968H591.004L591.26 154.904L592.028 155.496C590.94 156.6 589.26 157.704 587.74 158.36C587.596 158.152 587.276 157.832 587.068 157.656C588.412 157.08 589.948 156.024 590.7 155.208V154.968ZM580.78 152.232H594.332V155.8H593.148V153.32H581.916V155.8H580.78V152.232ZM592.22 149.672L593.468 150.088C592.796 151.08 591.932 152.152 591.26 152.856L590.316 152.456C590.956 151.704 591.772 150.52 592.22 149.672ZM581.868 150.232L582.876 149.752C583.5 150.424 584.156 151.336 584.428 151.976L583.356 152.488C583.1 151.88 582.46 150.92 581.868 150.232ZM585.98 149.88L587.02 149.496C587.564 150.248 588.14 151.288 588.332 151.96L587.228 152.392C587.036 151.72 586.508 150.664 585.98 149.88ZM597.388 150.728H608.94V151.88H597.388V150.728ZM599.18 153.992L599.996 153.208C601.42 154.168 603.324 155.544 604.268 156.424L603.42 157.352C602.524 156.44 600.62 155 599.18 153.992ZM608.508 150.728H609.708C609.708 150.728 609.708 151.24 609.708 151.416C609.596 159.832 609.468 162.536 608.86 163.352C608.508 163.896 608.108 164.072 607.532 164.12C606.908 164.184 605.868 164.152 604.94 164.104C604.924 163.768 604.764 163.272 604.54 162.952C605.66 163.032 606.668 163.032 607.084 163.032C607.388 163.032 607.564 162.984 607.74 162.776C608.268 162.184 608.396 159.064 608.508 151V150.728ZM597.148 160.856C599.452 160.152 603.244 158.888 606.748 157.688L606.956 158.808C603.66 159.976 600.028 161.224 597.564 162.072L597.148 160.856ZM620.428 161.096H625.388V162.248H620.428V161.096ZM619.98 151.064H625.948V163.464H624.732V152.2H621.148V163.576H619.98V151.064ZM615.436 150.92H616.636V164.264H615.436V150.92ZM612.3 154.296H619.436V155.416H612.3V154.296ZM615.372 154.696L616.22 155C615.468 157.48 613.996 160.44 612.556 161.976C612.428 161.64 612.124 161.16 611.916 160.872C613.26 159.496 614.732 156.904 615.372 154.696ZM618.508 149.72L619.324 150.648C617.612 151.288 614.988 151.752 612.796 152.008C612.732 151.736 612.588 151.336 612.444 151.064C614.572 150.776 617.116 150.296 618.508 149.72ZM616.54 155.736C617.052 156.248 618.908 158.424 619.324 158.952L618.588 159.928C618.076 159.08 616.524 157.032 615.932 156.328L616.54 155.736ZM628.364 159.736H642.62V160.856H628.364V159.736ZM628.812 151.448H642.236V152.552H628.812V151.448ZM632.076 154.168H638.94V155.192H632.076V154.168ZM632.076 156.936H638.94V157.976H632.076V156.936ZM631.308 149.592H632.492V160.232H631.308V149.592ZM638.46 149.592H639.676V160.232H638.46V149.592ZM636.668 161.976L637.484 161.208C639.388 161.88 641.42 162.76 642.668 163.432L641.58 164.216C640.444 163.544 638.54 162.664 636.668 161.976ZM633.276 161.112L634.332 161.88C632.908 162.76 630.732 163.688 629.004 164.248C628.828 164.008 628.46 163.592 628.204 163.336C629.932 162.84 632.14 161.896 633.276 161.112ZM653.404 149.592H654.54V160.712H653.404V149.592ZM647.836 156.184L657.452 152.456L657.916 153.496L648.284 157.24L647.836 156.184ZM649.852 151.16H651.036V161.864C651.036 162.776 651.26 162.984 652.396 162.984C652.94 162.984 655.804 162.984 656.508 162.984C657.484 162.984 657.66 162.536 657.788 160.648C658.076 160.856 658.556 161.064 658.908 161.144C658.7 163.352 658.316 164.072 656.54 164.072C656.076 164.072 652.78 164.072 652.348 164.072C650.412 164.072 649.852 163.624 649.852 161.848V151.16ZM657.052 152.728H656.908L657.196 152.488L657.404 152.296L658.236 152.648L658.188 152.84C658.172 155.752 658.14 158.056 657.98 158.744C657.852 159.48 657.516 159.784 657.02 159.912C656.588 160.024 655.884 160.04 655.404 160.024C655.372 159.688 655.244 159.192 655.1 158.92C655.548 158.936 656.124 158.936 656.332 158.936C656.604 158.936 656.78 158.872 656.892 158.456C657.02 157.944 657.052 155.848 657.052 152.728ZM647.756 149.624L648.86 149.976C647.82 152.664 646.172 155.384 644.46 157.176C644.332 156.904 643.996 156.28 643.788 156.008C645.372 154.456 646.86 152.056 647.756 149.624ZM646.06 153.752L647.212 152.584L647.228 152.6V164.264H646.06V153.752ZM661.884 162.104H673.18V163.288H661.884V162.104ZM666.796 149.656H668.028V162.776H666.796V149.656ZM661.292 157.64H662.508V164.296H661.292V157.64ZM672.54 157.64H673.772V164.248H672.54V157.64ZM661.916 151.096H663.1V155.448H671.884V151.096H673.132V156.616H661.916V151.096ZM676.38 150.648H681.676V151.784H676.38V150.648ZM676.62 155.272H681.34V156.408H676.62V155.272ZM676.188 161.4C677.596 161.048 679.724 160.44 681.756 159.832L681.916 160.936C679.996 161.512 677.964 162.104 676.444 162.568L676.188 161.4ZM678.524 151.16H679.676V160.984L678.524 161.224V151.16ZM682.396 150.344H689.596V158.856H688.412V151.4H683.548V158.856H682.396V150.344ZM686.044 158.6H687.164V162.392C687.164 162.84 687.292 162.952 687.74 162.952H689.068C689.612 162.952 689.708 162.52 689.788 160.232C690.076 160.472 690.46 160.632 690.764 160.696C690.62 163.224 690.444 163.864 689.052 163.864H687.58C686.476 163.864 686.044 163.576 686.044 162.504V158.6ZM685.356 152.776H686.476V155.88C686.476 158.632 685.772 162.152 681.564 164.328C681.42 164.088 681.052 163.656 680.812 163.464C684.844 161.384 685.356 158.36 685.356 155.864V152.776ZM693.596 152.136H698.46V162.6H693.596V161.512H697.34V153.208H693.596V152.136ZM692.876 152.136H693.996V163.88H692.876V152.136ZM693.516 156.584H697.932V157.656H693.516V156.584ZM695.324 149.528L696.62 149.768C696.3 150.76 695.9 151.864 695.58 152.584L694.62 152.344C694.892 151.576 695.196 150.36 695.324 149.528ZM700.732 152.088H705.644V153.208H700.732V152.088ZM705.228 152.088H706.348C706.348 152.088 706.348 152.536 706.348 152.712C706.092 160.056 705.868 162.536 705.228 163.32C704.876 163.784 704.508 163.928 703.948 163.976C703.404 164.04 702.46 164.008 701.564 163.96C701.532 163.608 701.388 163.112 701.164 162.792C702.204 162.872 703.164 162.888 703.532 162.888C703.852 162.888 704.044 162.84 704.22 162.632C704.748 162.056 705.004 159.4 705.228 152.344V152.088ZM701.068 149.496L702.22 149.768C701.628 152.152 700.684 154.504 699.58 156.024C699.372 155.832 698.876 155.496 698.588 155.336C699.676 153.928 700.556 151.72 701.068 149.496ZM700.332 156.248L701.26 155.704C702.172 156.84 703.276 158.392 703.788 159.336L702.764 159.976C702.284 159 701.212 157.416 700.332 156.248ZM708.972 153.176H710.156V164.296H708.972V153.176ZM709.148 150.344L710.028 149.784C710.828 150.568 711.916 151.704 712.444 152.376L711.532 153.032C711.004 152.344 709.964 151.192 709.148 150.344ZM713.18 150.472H721.628V151.592H713.18V150.472ZM720.812 150.472H722.012V162.616C722.012 163.384 721.82 163.752 721.324 163.96C720.812 164.152 719.948 164.184 718.636 164.168C718.588 163.832 718.396 163.288 718.236 162.952C719.196 163 720.172 162.984 720.428 162.984C720.716 162.968 720.812 162.872 720.812 162.6V150.472ZM713.244 154.424H718.268V160.312H713.244V159.224H717.1V155.512H713.244V154.424ZM712.636 154.424H713.74V161.352H712.636V154.424ZM526.3 172.16V173.376H529.58V172.16H526.3ZM526.3 170.112V171.312H529.58V170.112H526.3ZM525.228 169.248H530.7V174.272H525.228V169.248ZM524.268 175.456H531.516V176.384H524.268V175.456ZM531.484 169.296H538.78V170.288H531.484V169.296ZM527.516 175.76H528.556V181.856L527.516 181.232V175.76ZM527.996 178.112H531.212V179.024H527.996V178.112ZM534.54 169.632L535.756 169.872C535.436 170.704 535.1 171.6 534.812 172.208L533.852 171.968C534.092 171.312 534.396 170.32 534.54 169.632ZM526.172 178.832C527.292 181.584 529.772 181.936 533.324 181.936C534.044 181.936 537.98 181.936 538.908 181.904C538.732 182.16 538.524 182.624 538.476 182.944H533.308C529.292 182.944 526.732 182.416 525.436 179.104L526.172 178.832ZM532.124 171.824H537.996V178.512H536.94V172.736H533.148V178.56H532.124V171.824ZM525.468 177.184L526.492 177.248C526.38 179.824 525.98 181.856 524.892 183.248C524.716 183.104 524.268 182.8 524.028 182.656C525.1 181.408 525.388 179.488 525.468 177.184ZM534.604 173.52H535.628C535.516 178.032 535.052 180.368 531.404 181.568C531.292 181.344 531.036 180.96 530.812 180.784C534.172 179.712 534.508 177.68 534.604 173.52ZM535.164 179.04L535.868 178.4C536.86 179.072 538.124 180.08 538.748 180.752L538.028 181.488C537.404 180.816 536.172 179.76 535.164 179.04ZM542.012 183.712L541.644 182.88C542.956 182.336 543.676 181.52 543.676 180.32L543.372 178.96L544.236 180.176C544.012 180.464 543.692 180.544 543.388 180.544C542.732 180.544 542.188 180.16 542.188 179.392C542.188 178.64 542.764 178.24 543.404 178.24C544.3 178.24 544.78 178.976 544.78 180.096C544.78 181.824 543.692 183.136 542.012 183.712ZM556.924 171.872H570.172V173.024H556.924V171.872ZM556.332 176.496H570.684V177.648H556.332V176.496ZM565.756 172.464H566.988V183.28H565.756V172.464ZM560.06 172.464H561.244V176.112C561.244 178.768 560.796 181.536 557.148 183.408C556.988 183.12 556.588 182.704 556.332 182.48C559.676 180.8 560.06 178.384 560.06 176.096V172.464ZM558.972 168.992L560.028 168.576C560.732 169.424 561.452 170.592 561.756 171.36L560.636 171.856C560.364 171.088 559.66 169.872 558.972 168.992ZM566.828 168.528L568.172 168.944C567.548 169.936 566.828 171.088 566.236 171.808L565.196 171.424C565.772 170.64 566.46 169.408 566.828 168.528ZM574.492 174.624H583.644V175.792H574.492V174.624ZM583.244 174.624H584.492C584.492 174.624 584.476 175.04 584.46 175.2C584.236 180.16 584.012 182.016 583.436 182.624C583.116 183.024 582.764 183.136 582.204 183.184C581.676 183.232 580.668 183.216 579.66 183.168C579.644 182.8 579.484 182.304 579.26 181.952C580.316 182.048 581.308 182.064 581.692 182.064C582.012 182.064 582.204 182.032 582.364 181.856C582.796 181.424 583.036 179.6 583.244 174.848V174.624ZM576.684 168.896L577.948 169.264C576.796 171.968 574.908 174.352 572.892 175.888C572.668 175.632 572.156 175.168 571.852 174.944C573.9 173.568 575.676 171.36 576.684 168.896ZM582.268 168.864C583.308 171.008 585.372 173.44 587.116 174.672C586.796 174.928 586.348 175.408 586.108 175.744C584.332 174.304 582.316 171.712 581.116 169.328L582.268 168.864ZM577.868 174.944H579.148C578.78 178.448 577.948 181.76 573.484 183.36C573.34 183.056 572.988 182.576 572.716 182.32C576.908 180.928 577.548 177.968 577.868 174.944ZM588.364 179.152H602.652V180.208H588.364V179.152ZM594.828 168.56H596.076V170.592H594.828V168.56ZM589.868 176.24H599.964V177.216H589.868V176.24ZM594.844 178.208H596.092V182.064C596.092 182.736 595.9 183.024 595.34 183.184C594.78 183.328 593.852 183.328 592.412 183.328C592.348 183.024 592.156 182.624 591.996 182.336C593.084 182.368 594.188 182.352 594.46 182.352C594.748 182.336 594.844 182.272 594.844 182.032V178.208ZM599.692 176.24H600.012L600.284 176.192L601.084 176.848C599.644 177.744 597.564 178.544 595.676 179.008C595.532 178.8 595.244 178.48 595.068 178.32C596.732 177.904 598.684 177.152 599.692 176.48V176.24ZM591.724 172.928V174.368H599.292V172.928H591.724ZM590.54 172.032H600.54V175.264H590.54V172.032ZM588.508 169.968H602.444V171.008H588.508V169.968ZM613.404 168.592H614.54V179.712H613.404V168.592ZM607.836 175.184L617.452 171.456L617.916 172.496L608.284 176.24L607.836 175.184ZM609.852 170.16H611.036V180.864C611.036 181.776 611.26 181.984 612.396 181.984C612.94 181.984 615.804 181.984 616.508 181.984C617.484 181.984 617.66 181.536 617.788 179.648C618.076 179.856 618.556 180.064 618.908 180.144C618.7 182.352 618.316 183.072 616.54 183.072C616.076 183.072 612.78 183.072 612.348 183.072C610.412 183.072 609.852 182.624 609.852 180.848V170.16ZM617.052 171.728H616.908L617.196 171.488L617.404 171.296L618.236 171.648L618.188 171.84C618.172 174.752 618.14 177.056 617.98 177.744C617.852 178.48 617.516 178.784 617.02 178.912C616.588 179.024 615.884 179.04 615.404 179.024C615.372 178.688 615.244 178.192 615.1 177.92C615.548 177.936 616.124 177.936 616.332 177.936C616.604 177.936 616.78 177.872 616.892 177.456C617.02 176.944 617.052 174.848 617.052 171.728ZM607.756 168.624L608.86 168.976C607.82 171.664 606.172 174.384 604.46 176.176C604.332 175.904 603.996 175.28 603.788 175.008C605.372 173.456 606.86 171.056 607.756 168.624ZM606.06 172.752L607.212 171.584L607.228 171.6V183.264H606.06V172.752ZM621.596 171.136H626.46V181.6H621.596V180.512H625.34V172.208H621.596V171.136ZM620.876 171.136H621.996V182.88H620.876V171.136ZM621.516 175.584H625.932V176.656H621.516V175.584ZM623.324 168.528L624.62 168.768C624.3 169.76 623.9 170.864 623.58 171.584L622.62 171.344C622.892 170.576 623.196 169.36 623.324 168.528ZM628.732 171.088H633.644V172.208H628.732V171.088ZM633.228 171.088H634.348C634.348 171.088 634.348 171.536 634.348 171.712C634.092 179.056 633.868 181.536 633.228 182.32C632.876 182.784 632.508 182.928 631.948 182.976C631.404 183.04 630.46 183.008 629.564 182.96C629.532 182.608 629.388 182.112 629.164 181.792C630.204 181.872 631.164 181.888 631.532 181.888C631.852 181.888 632.044 181.84 632.22 181.632C632.748 181.056 633.004 178.4 633.228 171.344V171.088ZM629.068 168.496L630.22 168.768C629.628 171.152 628.684 173.504 627.58 175.024C627.372 174.832 626.876 174.496 626.588 174.336C627.676 172.928 628.556 170.72 629.068 168.496ZM628.332 175.248L629.26 174.704C630.172 175.84 631.276 177.392 631.788 178.336L630.764 178.976C630.284 178 629.212 176.416 628.332 175.248ZM639.148 173.968H647.068V175.024H639.148V173.968ZM636.46 177.616H650.604V178.736H636.46V177.616ZM642.892 176.448H644.124V181.856C644.124 182.576 643.932 182.928 643.324 183.104C642.748 183.28 641.82 183.296 640.364 183.296C640.284 182.96 640.044 182.464 639.852 182.144C641.084 182.176 642.172 182.176 642.492 182.16C642.812 182.144 642.892 182.064 642.892 181.824V176.448ZM646.7 173.968H647.004L647.26 173.904L648.028 174.496C646.94 175.6 645.26 176.704 643.74 177.36C643.596 177.152 643.276 176.832 643.068 176.656C644.412 176.08 645.948 175.024 646.7 174.208V173.968ZM636.78 171.232H650.332V174.8H649.148V172.32H637.916V174.8H636.78V171.232ZM648.22 168.672L649.468 169.088C648.796 170.08 647.932 171.152 647.26 171.856L646.316 171.456C646.956 170.704 647.772 169.52 648.22 168.672ZM637.868 169.232L638.876 168.752C639.5 169.424 640.156 170.336 640.428 170.976L639.356 171.488C639.1 170.88 638.46 169.92 637.868 169.232ZM641.98 168.88L643.02 168.496C643.564 169.248 644.14 170.288 644.332 170.96L643.228 171.392C643.036 170.72 642.508 169.664 641.98 168.88ZM654.828 171.68H665.916V172.848H654.828V171.68ZM654.124 176.368H665.34V177.52H654.124V176.368ZM652.38 181.6H666.668V182.768H652.38V181.6ZM658.908 168.576H660.14V182.192H658.908V168.576ZM655.308 168.832L656.54 169.104C655.836 171.584 654.716 173.952 653.436 175.488C653.196 175.28 652.652 174.928 652.348 174.768C653.66 173.344 654.7 171.12 655.308 168.832ZM668.524 179.088C668.46 178.848 668.268 178.256 668.124 177.936C668.492 177.872 668.876 177.472 669.404 176.896C669.964 176.32 671.74 174.096 672.924 171.92L673.98 172.576C672.62 174.768 670.972 176.912 669.372 178.432V178.48C669.372 178.48 668.524 178.848 668.524 179.088ZM668.524 179.088L668.46 178.08L669.068 177.664L673.564 176.848C673.516 177.184 673.516 177.664 673.532 177.904C669.436 178.736 668.876 178.896 668.524 179.088ZM668.412 175.248C668.348 174.992 668.156 174.4 668.012 174.08C668.316 174.016 668.62 173.648 668.956 173.104C669.34 172.576 670.556 170.496 671.228 168.56L672.38 169.088C671.5 171.088 670.316 173.136 669.148 174.576V174.624C669.148 174.624 668.412 174.992 668.412 175.248ZM668.412 175.248L668.396 174.336L668.988 173.952L672.188 173.616C672.124 173.936 672.092 174.384 672.076 174.624C669.164 175.008 668.7 175.104 668.412 175.248ZM668.124 181.088C669.484 180.816 671.5 180.32 673.5 179.84L673.628 180.912C671.772 181.408 669.82 181.904 668.364 182.288L668.124 181.088ZM674.268 169.424H680.796V170.528H674.268V169.424ZM680.444 169.424H680.684L680.924 169.36L681.772 169.808C680.284 172.864 677.036 174.992 673.932 176.144C673.772 175.84 673.452 175.376 673.212 175.136C676.076 174.176 679.196 172.128 680.444 169.632V169.424ZM673.436 181.728H682.876V182.848H673.436V181.728ZM677.564 177.424H678.764V182.144H677.564V177.424ZM674.396 176.688H682.108V177.808H674.396V176.688ZM677.596 173.712L678.252 172.864C679.82 173.472 681.9 174.464 682.956 175.136L682.268 176.128C681.244 175.424 679.18 174.384 677.596 173.712ZM689.052 176.048H690.108C690.108 176.048 690.108 176.384 690.092 176.544C689.836 180.608 689.596 182.128 689.1 182.64C688.828 182.96 688.524 183.072 688.06 183.104C687.644 183.136 686.892 183.12 686.124 183.088C686.108 182.768 685.996 182.352 685.804 182.064C686.604 182.144 687.34 182.16 687.628 182.16C687.9 182.16 688.06 182.144 688.204 181.968C688.572 181.6 688.828 180.128 689.052 176.24V176.048ZM683.996 179.648C685.1 179.408 686.668 178.992 688.252 178.576L688.364 179.504C686.908 179.904 685.436 180.32 684.236 180.64L683.996 179.648ZM684.524 169.296H688.748V170.32H684.524V169.296ZM688.396 169.296H689.436C689.292 171.552 689.02 174.592 688.812 176.304L687.756 176.368C688.012 174.56 688.3 171.488 688.396 169.296ZM685.196 171.52L686.22 171.584C686.108 173.328 685.916 175.664 685.724 177.04H684.7C684.892 175.616 685.1 173.248 685.196 171.52ZM685.068 176.048H689.228V177.04H685.068V176.048ZM694.556 169.072C695.516 170.688 697.452 172.64 699.084 173.68C698.86 173.952 698.588 174.464 698.476 174.8C696.748 173.536 694.764 171.408 693.676 169.632L694.556 169.072ZM694.156 168.448L695.212 168.8C694.076 171.28 692.204 173.44 690.204 174.832C690.076 174.608 689.708 174.112 689.484 173.872C691.42 172.656 693.18 170.688 694.156 168.448ZM692.028 173.52H696.796V174.576H692.028V173.52ZM690.972 176.208L691.9 175.984C692.38 177.184 692.828 178.768 692.972 179.808L691.996 180.064C691.868 179.024 691.42 177.44 690.972 176.208ZM693.788 175.808L694.732 175.68C695.052 176.896 695.34 178.448 695.42 179.488L694.428 179.648C694.364 178.608 694.076 177.024 693.788 175.808ZM697.404 175.904L698.508 176.16C697.772 178.048 696.764 180.432 695.916 181.888L695.036 181.616C695.852 180.128 696.876 177.648 697.404 175.904ZM690.46 181.44H698.62V182.496H690.46V181.44Z" fill="#2D3342"/>
<path d="M228.398 346.56C225.641 344.115 237.892 344.296 243.939 344.183C244.81 345.405 245.451 345.428 247.023 345.711C247.748 347.578 231.156 349.005 228.398 346.56Z" fill="#A0A0A0"/>
<path d="M322.674 161.743C322.114 163.773 321.696 170.367 323.898 175.777" stroke="black" stroke-width="2" stroke-linecap="round"/>
<path d="M344.048 126.993C349.182 131.034 357.149 139.758 349.405 143.307C348.951 143.515 348.701 144.018 348.83 144.498C350.354 150.14 350.113 161.791 338.293 169.681C338.117 169.798 337.981 169.973 337.917 170.173L335.593 177.448" stroke="black" stroke-width="2" stroke-linecap="round"/>
<path d="M338.967 156.731C338.785 157.533 339.259 159.19 342.609 159.404" stroke="black" stroke-width="2" stroke-linecap="round"/>
<path d="M320.89 177.103C326.116 175.231 336.067 172.939 336.067 179.417V180.541C336.067 181.3 336.934 181.73 337.534 181.265" stroke="#A0A0A0" stroke-width="2" stroke-linecap="round"/>
<path d="M337.534 181.265C345.923 174.765 362.992 161.743 369.006 151.886" stroke="black" stroke-width="2" stroke-linecap="round"/>
<path d="M347.956 135.681C347.956 137.438 347.424 138.983 346.621 140.062C345.818 141.141 344.8 141.695 343.779 141.695C342.758 141.695 341.74 141.141 340.937 140.062C340.134 138.983 339.602 137.438 339.602 135.681C339.602 133.923 340.134 132.378 340.937 131.299C341.74 130.22 342.758 129.666 343.779 129.666C344.8 129.666 345.818 130.22 346.621 131.299C347.424 132.378 347.956 133.923 347.956 135.681Z" stroke="#6663CF" stroke-width="2" stroke-linecap="round"/>
<path d="M328.575 141.027L338.934 137.351" stroke="#6663CF" stroke-width="2" stroke-linecap="round"/>
<path d="M336.595 134.01C336.859 132.896 337.829 130.334 339.602 128.998" stroke="black" stroke-width="2" stroke-linecap="round"/>
<path d="M344.28 136.683C345.018 136.683 345.617 136.234 345.617 135.68C345.617 135.127 345.018 134.678 344.28 134.678C343.542 134.678 342.944 135.127 342.944 135.68C342.944 136.234 343.542 136.683 344.28 136.683Z" fill="black"/>
<path d="M349.369 203.442C356.082 199.566 372.08 184.699 382.372 156.23" stroke="black" stroke-width="2" stroke-linecap="round"/>
<path d="M339.735 246.28C339.12 239.711 338.627 225.216 341.581 219.785C344.535 214.354 347.373 206.584 349.369 203.441" stroke="#A0A0A0" stroke-width="2" stroke-linecap="round"/>
<path d="M320.891 176.78L282.465 221.888" stroke="#A0A0A0" stroke-width="2" stroke-linecap="round"/>
<path d="M282.465 222.027C285.314 221.642 292.719 221.829 299.556 225.656C308.102 230.441 317.149 238.856 339.602 246.28" stroke="#A0A0A0" stroke-width="2" stroke-linecap="round"/>
<path d="M339.602 246.28L331.917 251.626" stroke="#A0A0A0" stroke-width="2" stroke-linecap="round"/>
<path d="M282.469 221.888C281.948 223.502 281.432 227.265 285.806 231.912" stroke="#A0A0A0" stroke-width="2" stroke-linecap="round"/>
<path d="M310.532 189.143C304.314 194.322 288.546 205.25 275.222 207.522C272.113 208.803 266.761 212.401 270.225 216.545C273.689 220.689 275.999 225.735 276.721 227.739C277.276 229.578 278.658 232.14 281.989 226.259" stroke="#A0A0A0" stroke-width="2" stroke-linecap="round"/>
<path d="M271.438 218.213C268.857 219.735 262.837 222.644 259.409 222.102C255.982 221.561 253.697 223.004 252.983 223.794C252.599 224.414 252.357 225.688 254.466 225.823C256.575 225.958 259.08 225.879 260.068 225.823" stroke="#A0A0A0" stroke-width="2" stroke-linecap="round"/>
<path d="M262.75 223.559C261.594 224.854 257.663 227.799 251.188 229.212C249.922 229.448 248.215 230.802 250.528 232.392C252.51 233.629 257.993 232.498 260.768 230.802" stroke="#A0A0A0" stroke-width="2" stroke-linecap="round"/>
<path d="M260.738 230.576C258.615 231.645 254.792 234.491 256.491 237.326C257.036 237.888 259.333 237.933 264.169 233.613L267.762 230.576" stroke="#A0A0A0" stroke-width="2" stroke-linecap="round"/>
<path d="M267.942 230.64L264.273 233.705C263.217 236.486 261.605 243.241 265.941 239.495C269.11 236.259 268.443 233.501 269.777 232.683C271.111 231.866 274.114 228.71 275.448 227.234" stroke="#A0A0A0" stroke-width="2" stroke-linecap="round"/>
<path d="M268.1 225.229C267.655 226.605 267.3 229.801 269.433 231.578" stroke="#A0A0A0" stroke-width="2" stroke-linecap="round"/>
<path d="M308.527 337.834C310.629 337.277 314.866 334.459 314.998 327.643C315.131 320.827 317.93 309.098 319.313 304.086L332.919 243.941" stroke="#A0A0A0" stroke-width="2" stroke-linecap="round"/>
<path d="M337.931 147.041C338.301 147.041 338.6 146.817 338.6 146.54C338.6 146.263 338.301 146.039 337.931 146.039C337.562 146.039 337.263 146.263 337.263 146.54C337.263 146.817 337.562 147.041 337.931 147.041Z" fill="black"/>
<path d="M340.104 149.046C340.38 149.046 340.605 148.896 340.605 148.712C340.605 148.527 340.38 148.378 340.104 148.378C339.827 148.378 339.602 148.527 339.602 148.712C339.602 148.896 339.827 149.046 340.104 149.046Z" fill="black"/>
<path d="M335.258 150.383C335.443 150.383 335.592 150.083 335.592 149.714C335.592 149.345 335.443 149.046 335.258 149.046C335.074 149.046 334.924 149.345 334.924 149.714C334.924 150.083 335.074 150.383 335.258 150.383Z" fill="black"/>
<path d="M285.888 142.253C294.008 127.16 306.133 125.262 311.181 126.199C321.664 110.146 336.142 104.85 344.961 109.65C352.017 113.489 346.237 123.165 342.465 127.524L338.804 122.228C336.275 127.126 329.042 125.317 325.492 124.214C328.542 130.613 333.412 147.152 323.162 162.113C312.912 177.074 300.032 177.339 293.542 173.036C287.552 168.788 277.767 157.347 285.888 142.253Z" fill="black"/>
<path d="M281.796 339.839C282.903 341.573 286.593 344.845 292.488 344.064" stroke="#A0A0A0" stroke-width="2" stroke-linecap="round"/>
<path d="M291.082 222.891C288.992 228.871 279.196 241.164 270.447 256.614C264.614 266.304 250.703 287.945 241.723 296.982C240.512 298.698 239.379 302.597 244.529 304.457C248.491 306.118 250.274 309.972 250.802 314.092C251.463 319.242 259.882 323.063 265.495 319.242C269.968 316.197 282.832 294.26 292.55 281.865C295.025 278.708 297.295 276.171 299.171 274.721" stroke="#A0A0A0" stroke-width="2" stroke-linecap="round"/>
<path d="M292.79 282.033L281.796 339.839C287.384 338.348 302.735 335.532 312.202 335.532" stroke="#A0A0A0" stroke-width="2" stroke-linecap="round"/>
<path d="M238.069 335.062C228.961 317.407 237.404 305.659 241.97 302.75C249.048 304.976 249.239 312.398 250.387 315.923L247.738 323.177C245.965 326.297 246.999 332.4 247.738 335.062C250.8 347.392 246.179 348.578 243.911 345.276L238.069 335.062Z" fill="black"/>
<path d="M286.628 351.25C283.56 348.821 289.627 347.879 295.784 347.524C297.929 349.442 312.176 350.097 312.871 350.54C306.317 352.671 289.316 353.379 286.628 351.25Z" fill="#A0A0A0"/>
<path d="M317.443 350.21C294.183 353.399 289.355 344.199 289.849 338.821C293.849 337.15 304.849 336.543 310.035 336.164C308.553 339.656 310.405 339.201 311.702 340.15C313.369 341.289 317.998 342.681 320.591 342.807C332.258 343.377 323.122 349.388 317.443 350.21Z" fill="black"/>
<path d="M372.235 122.474C373.301 121.861 375.499 121.639 375.766 125.648" stroke="black" stroke-width="2" stroke-linecap="round"/>
<path d="M370.085 133.167C370.197 131.608 370.085 128.054 368.749 126.317C367.078 124.145 366.744 119.968 370.085 120.302C371.146 120.408 371.821 121.29 372.235 122.474C372.865 124.275 372.893 126.776 372.759 128.322" stroke="black" stroke-width="2" stroke-linecap="round"/>
<path d="M367.985 137.51C367.85 136.007 367.279 132.532 366.076 130.66C364.572 128.322 364.405 122.307 367.58 122.975" stroke="black" stroke-width="2" stroke-linecap="round"/>
<path d="M370.085 148.871C369.25 148.871 367.479 148.069 367.078 144.861C366.677 141.654 365.24 139.627 364.572 139.014C364.182 138.067 363.77 136.107 365.24 135.84C366.106 135.682 367.13 136.521 367.985 137.51L369.417 139.515" stroke="black" stroke-width="2" stroke-linecap="round"/>
<path d="M377.771 134.002C378.161 133.278 378.539 131.429 376.935 129.825C374.931 127.82 375.432 125.983 376.601 125.481C377.771 124.98 379.441 125.314 381.112 130.326C382.783 134.67 385.255 145.697 382.449 155.053" stroke="black" stroke-width="2" stroke-linecap="round"/>
<path d="M385.403 107.86L388.024 103.094" stroke="black" stroke-width="2" stroke-linecap="round"/>
<path d="M362.734 110.111L367.412 113.118" stroke="black" stroke-width="2" stroke-linecap="round"/>
<path d="M371.222 98L375.798 108.522" stroke="black" stroke-width="2" stroke-linecap="round"/>
<path d="M387.421 122.314C387.421 118.806 388.237 112.95 392.48 118.253C395.091 122.065 396.07 129.656 394.112 133.501" stroke="black" stroke-width="2" stroke-linecap="round"/>
<path d="M378.771 125.545C378.227 123.612 377.955 120.01 381.219 121.071L384.809 128.363" stroke="black" stroke-width="2" stroke-linecap="round"/>
<path d="M384.809 128.363L381.219 121.071C380.947 118.916 382.361 115.436 385.789 118.253L387.421 122.314L389.053 126.374" stroke="black" stroke-width="2" stroke-linecap="round"/>
<path d="M389.131 138.68C388.24 140.629 387.293 145.062 390.635 147.2" stroke="black" stroke-width="2" stroke-linecap="round"/>
<path d="M393.308 135.84C394.087 133.612 396.449 129.19 399.656 129.324C402.864 129.458 400.325 133.668 399.656 135.171L394.979 144.36C393.976 146.866 392.473 151.377 395.981 156.556C399.489 161.234 411.588 173.263 424.619 175.268" stroke="black" stroke-width="2" stroke-linecap="round"/>
<path d="M422.211 245.103C423.213 248.667 426.889 256.931 433.572 261.476M411.853 239.255L425.051 243.098L411.853 239.255ZM424.383 249.781C425.831 245.047 427.691 233.308 423.547 224.219C418.368 212.858 415.194 198.323 417.7 188.633C419.705 180.881 427 179.723 430.397 180.113C435.743 180.726 444.966 187.13 444.431 204.505C443.763 226.224 438.751 244.769 431.567 259.137L424.383 249.781Z" stroke="#A0A0A0" stroke-width="2" stroke-linecap="round"/>
<path d="M419.037 257.633C419.037 249.112 418.981 243.098 418.034 240.759C430.865 245.571 446.436 244.323 452.618 243.098C452.785 243.488 454.155 247.208 458.298 258.97C463.477 273.672 459.801 322.79 458.298 328.303C456.794 333.817 452.785 333.984 446.937 333.315C442.259 332.781 436.078 319.95 433.572 313.601C421.877 291.715 419.037 267.631 419.037 257.633Z" fill="black"/>
<path d="M464.402 213.204C466.059 217.27 469.808 227.606 471.546 236.427C466.756 239.824 453.286 246.272 437.247 244.267L411.853 239.255C410.85 230.846 410.732 209.428 417.415 190.316C417.415 188.59 419.17 183.755 423.046 181.616" stroke="#A0A0A0" stroke-width="2" stroke-linecap="round"/>
<path d="M462.976 227.727C462.904 226.655 464.884 218.85 464.402 213.204C464.134 210.056 463.79 206.127 463.359 201.342C462.157 187.977 457.4 177.73 455.173 174.277C452.945 170.824 447.675 168.752 443.498 170.256" stroke="#A0A0A0" stroke-width="2" stroke-linecap="round"/>
<path d="M459.769 317.262C461.209 285.926 454.822 256.319 451.281 244.769C460.211 243.563 467.245 239.703 469.825 238.42C472.418 248.196 476.212 273.294 477.772 284.788C481.661 297.376 480.833 315.476 479.933 322.953C480.509 327.506 476.812 329.314 474.892 329.649C464.666 332.996 460.549 322.786 459.769 317.262Z" fill="black"/>
<path d="M378.438 124.98C381.279 129.547 385.489 140.618 382.281 156.389C382.559 159.786 387.517 171.02 391.303 176.103C397.15 183.956 409.346 192.81 416.864 195.316" stroke="black" stroke-width="2" stroke-linecap="round"/>
<path d="M430.275 172.666C428.064 171.306 411.438 172.617 408.206 151.703C402.671 151.768 399.662 147.235 403.885 145.295C408.386 142.973 408.049 138.712 407.233 136.201C405.936 132.908 405.858 129.45 406.137 128.727" stroke="black" stroke-width="2" stroke-linecap="round"/>
<path d="M412.797 144.186C412.006 144.195 411.354 143.241 411.34 142.055C411.326 140.869 411.956 139.901 412.746 139.891C413.537 139.882 414.189 140.836 414.203 142.022C414.217 143.208 413.587 144.177 412.797 144.186Z" fill="black"/>
<path d="M416.171 137.248C415.248 136.261 412.86 134.817 410.697 136.938" stroke="black" stroke-width="2" stroke-linecap="round"/>
<path d="M422.443 156.466C420.746 159.077 418.883 159.819 415.264 158.134" stroke="black" stroke-width="2" stroke-linecap="round"/>
<path d="M436.335 138.163C436.728 139.026 437.057 140.987 435.229 141.919" stroke="black" stroke-width="2" stroke-linecap="round"/>
<path d="M455.813 129.297C457.966 141.077 451.229 149.945 446.345 156.762C441.129 153.944 432.58 147.242 435.859 146.519C439.305 145.759 442.94 136.358 439.593 133.483C435.666 130.109 432.127 135.214 431.453 139.084L428.29 133.615C429.184 129.79 429.535 123.079 423.784 126.841C418.032 130.603 409.595 129.618 406.096 128.655C399.196 123.716 388.476 112.196 400.795 105.627C411.041 100.163 424.374 107.071 432.513 113.278C438.024 111.823 452.878 113.235 455.813 129.297Z" fill="black"/>
<path d="M445.962 155.973C443.471 158.971 442.234 161.461 442.388 166.619" stroke="black" stroke-width="2" stroke-linecap="round"/>
<path d="M461.429 353.278C440.712 354.113 430.855 349.957 430.855 347.096C430.855 345.927 430.187 344.757 434.865 343.086C432.86 345.815 433.595 351.006 452.574 349.936C455.637 350.103 462.532 349.301 465.606 344.757H467.109C482.146 340.915 491 344.069 491 346.929C491 349.79 478.637 352.584 461.429 353.278Z" fill="#A0A0A0"/>
<path d="M465.311 344.684C476.501 345.753 477.912 336.776 477.219 332.154" stroke="#A0A0A0" stroke-width="2" stroke-linecap="round"/>
<path d="M450.488 336.498C450.488 337.222 450.321 338.803 449.653 339.338C448.818 340.006 433.781 338.335 434.116 345.853C433.949 346.912 435.619 348.527 439.629 349.028C445.268 349.733 461.434 351.791 465.311 344.684C465.537 344.27 465.721 343.825 465.859 343.347L467.362 336.999" stroke="#A0A0A0" stroke-width="2" stroke-linecap="round"/>
<defs>
<linearGradient id="paint0_linear_1038_6404" x1="356.828" y1="28" x2="430.313" y2="54.2839" gradientUnits="userSpaceOnUse">
<stop stop-color="#5955B3"/>
<stop offset="1" stop-color="#6563CE"/>
</linearGradient>
</defs>
</svg>
