<svg width="325" height="290" viewBox="0 0 325 290" fill="none" xmlns="http://www.w3.org/2000/svg">
<rect width="325" height="290" rx="5" fill="white"/>
<g filter="url(#filter0_d_1314_8300)">
<path d="M94.925 115.402C93.3022 118.802 89.9793 127.164 89.0914 134.495C89.0546 134.799 88.4107 134.976 88.1647 134.752C84.4236 131.35 74.9413 125.723 68.5335 123.042" stroke="#5955B3" stroke-width="4" stroke-linecap="round"/>
<path d="M87.6855 133.133C83.2534 123.603 73.8849 107.262 72.5751 94.8296" stroke="#5955B3" stroke-width="4" stroke-linecap="round"/>
</g>
<path opacity="0.2" fill-rule="evenodd" clip-rule="evenodd" d="M324.664 269.81C324.612 280.783 315.724 289.668 304.749 289.713H171.145C177.237 275.753 202.684 247.832 255.737 247.832C308.79 247.832 323.794 226.116 324.664 215.258V269.81Z" fill="#89AFFF"/>
<path opacity="0.2" fill-rule="evenodd" clip-rule="evenodd" d="M149.339 0C147.453 10.5057 135.894 40.0486 88.2786 53.4492C42.0808 66.4509 11.6469 61.9796 0.329595 57.7773L0.329592 20C0.329591 8.95432 9.28386 1.09491e-05 20.3296 1.00855e-05L149.339 0Z" fill="#89AFFF"/>
<path d="M92.229 37L86.6211 29.5597H85.3597V37H81.6694V19.5455H85.3597V26.517H86.1012L91.8967 19.5455H96.4904L89.6808 27.642L96.8058 37H92.229ZM102.326 37.2472C101.491 37.2472 100.747 37.1023 100.093 36.8125C99.44 36.517 98.9229 36.0824 98.5423 35.5085C98.1673 34.929 97.9798 34.2074 97.9798 33.3438C97.9798 32.6165 98.1133 32.0057 98.3803 31.5114C98.6474 31.017 99.011 30.6193 99.4712 30.3182C99.9315 30.017 100.454 29.7898 101.039 29.6364C101.63 29.483 102.25 29.375 102.897 29.3125C103.659 29.233 104.272 29.1591 104.738 29.0909C105.204 29.017 105.542 28.9091 105.752 28.767C105.963 28.625 106.068 28.4148 106.068 28.1364V28.0852C106.068 27.5455 105.897 27.1278 105.556 26.8324C105.221 26.5369 104.744 26.3892 104.125 26.3892C103.471 26.3892 102.951 26.5341 102.565 26.8239C102.179 27.108 101.923 27.4659 101.798 27.8977L98.44 27.625C98.6104 26.8295 98.9457 26.142 99.4457 25.5625C99.9457 24.9773 100.591 24.5284 101.38 24.2159C102.176 23.8977 103.096 23.7386 104.142 23.7386C104.869 23.7386 105.565 23.8239 106.23 23.9943C106.9 24.1648 107.494 24.429 108.011 24.7869C108.534 25.1449 108.946 25.6051 109.247 26.1676C109.548 26.7244 109.699 27.392 109.699 28.1705V37H106.255V35.1847H106.153C105.943 35.5938 105.662 35.9545 105.309 36.267C104.957 36.5739 104.534 36.8153 104.039 36.9915C103.545 37.1619 102.974 37.2472 102.326 37.2472ZM103.366 34.7415C103.9 34.7415 104.372 34.6364 104.781 34.4261C105.19 34.2102 105.511 33.9205 105.744 33.5568C105.977 33.1932 106.093 32.7812 106.093 32.321V30.9318C105.98 31.0057 105.824 31.0739 105.625 31.1364C105.431 31.1932 105.213 31.2472 104.968 31.2983C104.724 31.3437 104.48 31.3864 104.235 31.4261C103.991 31.4602 103.77 31.4915 103.571 31.5199C103.145 31.5824 102.772 31.6818 102.454 31.8182C102.136 31.9545 101.889 32.1392 101.713 32.3722C101.537 32.5994 101.449 32.8835 101.449 33.2244C101.449 33.7188 101.627 34.0966 101.985 34.358C102.349 34.6136 102.809 34.7415 103.366 34.7415ZM112.515 37V23.9091H116.146V28.9886H117.169L120.731 23.9091H124.993L120.365 30.4034L125.044 37H120.731L117.501 32.3551H116.146V37H112.515ZM138.047 37.2557C136.706 37.2557 135.553 36.9716 134.587 36.4034C133.627 35.8295 132.888 35.0341 132.371 34.017C131.86 33 131.604 31.8295 131.604 30.5057C131.604 29.1648 131.863 27.9886 132.38 26.9773C132.902 25.9602 133.644 25.1676 134.604 24.5994C135.564 24.0256 136.706 23.7386 138.03 23.7386C139.172 23.7386 140.172 23.946 141.03 24.3608C141.888 24.7756 142.567 25.358 143.067 26.108C143.567 26.858 143.843 27.7386 143.894 28.75H140.468C140.371 28.0966 140.115 27.571 139.701 27.1733C139.292 26.7699 138.755 26.5682 138.09 26.5682C137.527 26.5682 137.036 26.7216 136.615 27.0284C136.201 27.3295 135.877 27.7699 135.644 28.3494C135.411 28.929 135.294 29.6307 135.294 30.4545C135.294 31.2898 135.408 32 135.635 32.5852C135.868 33.1705 136.195 33.6165 136.615 33.9233C137.036 34.2301 137.527 34.3835 138.09 34.3835C138.505 34.3835 138.877 34.2983 139.206 34.1278C139.542 33.9574 139.817 33.7102 140.033 33.3864C140.255 33.0568 140.4 32.6619 140.468 32.2017H143.894C143.837 33.2017 143.564 34.0824 143.076 34.8438C142.593 35.5994 141.925 36.1903 141.073 36.6165C140.221 37.0426 139.212 37.2557 138.047 37.2557ZM146.218 37V23.9091H151.801C153.414 23.9091 154.69 24.2159 155.627 24.8295C156.565 25.4432 157.034 26.3153 157.034 27.446C157.034 28.1562 156.77 28.7472 156.241 29.2188C155.713 29.6903 154.98 30.0085 154.042 30.1733C154.826 30.2301 155.494 30.4091 156.045 30.7102C156.602 31.0057 157.025 31.3892 157.315 31.8608C157.61 32.3324 157.758 32.8551 157.758 33.429C157.758 34.1733 157.559 34.8125 157.162 35.3466C156.77 35.8807 156.193 36.2898 155.431 36.5739C154.676 36.858 153.752 37 152.662 37H146.218ZM149.602 34.2812H152.662C153.167 34.2812 153.562 34.1619 153.846 33.9233C154.136 33.679 154.281 33.3466 154.281 32.9261C154.281 32.4602 154.136 32.0937 153.846 31.8267C153.562 31.5597 153.167 31.4261 152.662 31.4261H149.602V34.2812ZM149.602 29.2955H151.877C152.241 29.2955 152.551 29.2443 152.806 29.142C153.068 29.0341 153.267 28.8807 153.403 28.6818C153.545 28.483 153.616 28.2472 153.616 27.9744C153.616 27.571 153.454 27.2557 153.13 27.0284C152.806 26.8011 152.363 26.6875 151.801 26.6875H149.602V29.2955ZM167.717 37V26.7557H165.262C164.598 26.7557 164.092 26.9091 163.745 27.2159C163.399 27.5227 163.228 27.8864 163.234 28.3068C163.228 28.733 163.393 29.0937 163.728 29.3892C164.069 29.679 164.569 29.8239 165.228 29.8239H168.927V32.2784H165.228C164.109 32.2784 163.14 32.108 162.322 31.767C161.504 31.4261 160.873 30.9517 160.43 30.3438C159.987 29.7301 159.768 29.017 159.774 28.2045C159.768 27.3523 159.987 26.6051 160.43 25.9631C160.873 25.3153 161.507 24.8125 162.331 24.4545C163.16 24.0909 164.137 23.9091 165.262 23.9091H171.1V37H167.717ZM159.399 37L163.038 30.1818H166.507L162.876 37H159.399ZM173.248 33.2926H176.768C176.785 33.7244 176.978 34.0653 177.348 34.3153C177.717 34.5653 178.194 34.6903 178.779 34.6903C179.37 34.6903 179.868 34.554 180.271 34.2812C180.674 34.0028 180.876 33.6051 180.876 33.0881C180.876 32.7699 180.797 32.4943 180.637 32.2614C180.478 32.0227 180.257 31.8352 179.973 31.6989C179.689 31.5625 179.359 31.4943 178.984 31.4943H177.1V29.1165H178.984C179.547 29.1165 179.978 28.9858 180.279 28.7244C180.586 28.4631 180.74 28.1364 180.74 27.7443C180.74 27.3011 180.581 26.946 180.262 26.679C179.95 26.4062 179.527 26.2699 178.993 26.2699C178.453 26.2699 178.004 26.392 177.646 26.6364C177.294 26.875 177.112 27.1875 177.1 27.5739H173.598C173.609 26.7898 173.845 26.1108 174.305 25.5369C174.771 24.9631 175.396 24.5199 176.18 24.2074C176.97 23.8949 177.853 23.7386 178.831 23.7386C179.899 23.7386 180.819 23.8892 181.592 24.1903C182.37 24.4858 182.967 24.9091 183.382 25.4602C183.802 26.0114 184.012 26.6676 184.012 27.429C184.012 28.1222 183.785 28.7017 183.331 29.1676C182.876 29.6335 182.24 29.9659 181.422 30.1648V30.3011C181.961 30.3352 182.45 30.4801 182.887 30.7358C183.325 30.9915 183.674 31.3437 183.936 31.7926C184.197 32.2358 184.328 32.7614 184.328 33.3693C184.328 34.1818 184.089 34.8778 183.612 35.4574C183.14 36.0369 182.487 36.483 181.652 36.7955C180.822 37.1023 179.87 37.2557 178.797 37.2557C177.751 37.2557 176.814 37.1051 175.984 36.804C175.16 36.4972 174.504 36.0483 174.015 35.4574C173.532 34.8665 173.277 34.1449 173.248 33.2926ZM190.287 37.2472C189.452 37.2472 188.708 37.1023 188.054 36.8125C187.401 36.517 186.884 36.0824 186.503 35.5085C186.128 34.929 185.941 34.2074 185.941 33.3438C185.941 32.6165 186.074 32.0057 186.341 31.5114C186.608 31.017 186.972 30.6193 187.432 30.3182C187.892 30.017 188.415 29.7898 189 29.6364C189.591 29.483 190.211 29.375 190.858 29.3125C191.62 29.233 192.233 29.1591 192.699 29.0909C193.165 29.017 193.503 28.9091 193.713 28.767C193.924 28.625 194.029 28.4148 194.029 28.1364V28.0852C194.029 27.5455 193.858 27.1278 193.517 26.8324C193.182 26.5369 192.705 26.3892 192.086 26.3892C191.432 26.3892 190.912 26.5341 190.526 26.8239C190.14 27.108 189.884 27.4659 189.759 27.8977L186.401 27.625C186.571 26.8295 186.907 26.142 187.407 25.5625C187.907 24.9773 188.551 24.5284 189.341 24.2159C190.137 23.8977 191.057 23.7386 192.103 23.7386C192.83 23.7386 193.526 23.8239 194.191 23.9943C194.861 24.1648 195.455 24.429 195.972 24.7869C196.495 25.1449 196.907 25.6051 197.208 26.1676C197.509 26.7244 197.659 27.392 197.659 28.1705V37H194.216V35.1847H194.114C193.904 35.5938 193.623 35.9545 193.27 36.267C192.918 36.5739 192.495 36.8153 192 36.9915C191.506 37.1619 190.935 37.2472 190.287 37.2472ZM191.327 34.7415C191.861 34.7415 192.333 34.6364 192.742 34.4261C193.151 34.2102 193.472 33.9205 193.705 33.5568C193.938 33.1932 194.054 32.7812 194.054 32.321V30.9318C193.941 31.0057 193.784 31.0739 193.586 31.1364C193.392 31.1932 193.174 31.2472 192.929 31.2983C192.685 31.3437 192.441 31.3864 192.196 31.4261C191.952 31.4602 191.73 31.4915 191.532 31.5199C191.105 31.5824 190.733 31.6818 190.415 31.8182C190.097 31.9545 189.85 32.1392 189.674 32.3722C189.498 32.5994 189.409 32.8835 189.409 33.2244C189.409 33.7188 189.588 34.0966 189.946 34.358C190.31 34.6136 190.77 34.7415 191.327 34.7415ZM199.162 26.7642V23.9091H211.025V26.7642H206.806V37H203.346V26.7642H199.162ZM215.502 27.9318H219.414C221.147 27.9318 222.499 28.3466 223.471 29.1761C224.442 30 224.928 31.1023 224.928 32.483C224.928 33.3807 224.709 34.1705 224.272 34.8523C223.834 35.5284 223.203 36.0568 222.38 36.4375C221.556 36.8125 220.567 37 219.414 37H213.226V23.9091H216.695V34.1449H219.414C220.022 34.1449 220.522 33.9915 220.914 33.6847C221.306 33.3778 221.505 32.9858 221.51 32.5085C221.505 32.0028 221.306 31.5909 220.914 31.2727C220.522 30.9489 220.022 30.7869 219.414 30.7869H215.502V27.9318ZM233.25 37.2557C231.909 37.2557 230.756 36.9716 229.79 36.4034C228.83 35.8295 228.091 35.0341 227.574 34.017C227.063 33 226.807 31.8295 226.807 30.5057C226.807 29.1648 227.066 27.9886 227.583 26.9773C228.105 25.9602 228.847 25.1676 229.807 24.5994C230.767 24.0256 231.909 23.7386 233.233 23.7386C234.375 23.7386 235.375 23.946 236.233 24.3608C237.091 24.7756 237.77 25.358 238.27 26.108C238.77 26.858 239.046 27.7386 239.097 28.75H235.671C235.574 28.0966 235.319 27.571 234.904 27.1733C234.495 26.7699 233.958 26.5682 233.293 26.5682C232.73 26.5682 232.239 26.7216 231.819 27.0284C231.404 27.3295 231.08 27.7699 230.847 28.3494C230.614 28.929 230.498 29.6307 230.498 30.4545C230.498 31.2898 230.611 32 230.838 32.5852C231.071 33.1705 231.398 33.6165 231.819 33.9233C232.239 34.2301 232.73 34.3835 233.293 34.3835C233.708 34.3835 234.08 34.2983 234.409 34.1278C234.745 33.9574 235.02 33.7102 235.236 33.3864C235.458 33.0568 235.603 32.6619 235.671 32.2017H239.097C239.04 33.2017 238.767 34.0824 238.279 34.8438C237.796 35.5994 237.128 36.1903 236.276 36.6165C235.424 37.0426 234.415 37.2557 233.25 37.2557ZM249.092 37V26.7557H246.637C245.973 26.7557 245.467 26.9091 245.12 27.2159C244.774 27.5227 244.603 27.8864 244.609 28.3068C244.603 28.733 244.768 29.0937 245.103 29.3892C245.444 29.679 245.944 29.8239 246.603 29.8239H250.302V32.2784H246.603C245.484 32.2784 244.515 32.108 243.697 31.767C242.879 31.4261 242.248 30.9517 241.805 30.3438C241.362 29.7301 241.143 29.017 241.149 28.2045C241.143 27.3523 241.362 26.6051 241.805 25.9631C242.248 25.3153 242.882 24.8125 243.706 24.4545C244.535 24.0909 245.512 23.9091 246.637 23.9091H252.475V37H249.092ZM240.774 37L244.413 30.1818H247.882L244.251 37H240.774Z" fill="url(#paint0_linear_1314_8300)"/>
<path d="M74.0597 80V68.3636H75.8153V73.4205H81.6165V68.3636H83.3778V80H81.6165V74.9261H75.8153V80H74.0597ZM88.3381 80.1932C87.785 80.1932 87.285 80.0909 86.8381 79.8864C86.3911 79.678 86.0369 79.3769 85.7756 78.983C85.518 78.589 85.3892 78.1061 85.3892 77.5341C85.3892 77.0417 85.4839 76.6364 85.6733 76.3182C85.8627 76 86.1184 75.7481 86.4403 75.5625C86.7623 75.3769 87.1222 75.2367 87.5199 75.142C87.9176 75.0473 88.3229 74.9754 88.7358 74.9261C89.2585 74.8655 89.6828 74.8163 90.0085 74.7784C90.3343 74.7367 90.571 74.6705 90.7188 74.5795C90.8665 74.4886 90.9403 74.3409 90.9403 74.1364V74.0966C90.9403 73.6004 90.8002 73.2159 90.5199 72.9432C90.2434 72.6705 89.8305 72.5341 89.2812 72.5341C88.7093 72.5341 88.2585 72.661 87.929 72.9148C87.6032 73.1648 87.3778 73.4432 87.2528 73.75L85.6562 73.3864C85.8456 72.8561 86.1222 72.428 86.4858 72.1023C86.8532 71.7727 87.2756 71.5341 87.7528 71.3864C88.2301 71.2348 88.732 71.1591 89.2585 71.1591C89.607 71.1591 89.9763 71.2008 90.3665 71.2841C90.7604 71.3636 91.1278 71.5114 91.4688 71.7273C91.8134 71.9432 92.0956 72.2519 92.3153 72.6534C92.535 73.0511 92.6449 73.5682 92.6449 74.2045V80H90.9858V78.8068H90.9176C90.8078 79.0265 90.643 79.2424 90.4233 79.4545C90.2036 79.6667 89.9214 79.8428 89.5767 79.983C89.232 80.1231 88.8191 80.1932 88.3381 80.1932ZM88.7074 78.8295C89.1771 78.8295 89.5786 78.7367 89.9119 78.5511C90.2491 78.3655 90.5047 78.1231 90.679 77.8239C90.857 77.5208 90.946 77.197 90.946 76.8523V75.7273C90.8854 75.7879 90.768 75.8447 90.5938 75.8977C90.4233 75.947 90.2282 75.9905 90.0085 76.0284C89.7888 76.0625 89.5748 76.0947 89.3665 76.125C89.1581 76.1515 88.9839 76.1742 88.8438 76.1932C88.5142 76.2348 88.2131 76.3049 87.9403 76.4034C87.6714 76.5019 87.4555 76.6439 87.2926 76.8295C87.1335 77.0114 87.054 77.2538 87.054 77.5568C87.054 77.9773 87.2093 78.2955 87.5199 78.5114C87.8305 78.7235 88.2263 78.8295 88.7074 78.8295ZM96.5724 77.6193L100.419 71.2727H102.249V80H100.584V73.6477L96.7543 80H94.9077V71.2727H96.5724V77.6193ZM99.6918 68.3182H101.089C101.089 68.9583 100.862 69.4792 100.408 69.8807C99.9569 70.2784 99.3471 70.4773 98.5781 70.4773C97.813 70.4773 97.205 70.2784 96.7543 69.8807C96.3035 69.4792 96.0781 68.9583 96.0781 68.3182H97.4702C97.4702 68.6023 97.5535 68.8542 97.7202 69.0739C97.8868 69.2898 98.1728 69.3977 98.5781 69.3977C98.9759 69.3977 99.2599 69.2898 99.4304 69.0739C99.6046 68.858 99.6918 68.6061 99.6918 68.3182ZM103.68 82.517V78.5284H104.391C104.572 78.3617 104.726 78.1629 104.851 77.9318C104.98 77.7008 105.088 77.4261 105.175 77.108C105.266 76.7898 105.341 76.4186 105.402 75.9943C105.463 75.5663 105.516 75.0777 105.561 74.5284L105.834 71.2727H111.766V78.5284H113.107V82.517H111.447V80H105.362V82.517H103.68ZM106.209 78.5284H110.107V72.7273H107.357L107.175 74.5284C107.088 75.4451 106.978 76.2405 106.845 76.9148C106.713 77.5852 106.5 78.1231 106.209 78.5284ZM116.432 77.6193L120.278 71.2727H122.108V80H120.443V73.6477L116.614 80H114.767V71.2727H116.432V77.6193ZM128.626 80V71.2727H132.246C133.231 71.2727 134.011 71.483 134.587 71.9034C135.162 72.3201 135.45 72.8864 135.45 73.6023C135.45 74.1136 135.287 74.5189 134.962 74.8182C134.636 75.1174 134.204 75.3182 133.666 75.4205C134.056 75.4659 134.414 75.5833 134.74 75.7727C135.066 75.9583 135.327 76.2083 135.524 76.5227C135.725 76.8371 135.825 77.2121 135.825 77.6477C135.825 78.1098 135.706 78.5189 135.467 78.875C135.229 79.2273 134.882 79.5038 134.428 79.7045C133.977 79.9015 133.433 80 132.797 80H128.626ZM130.223 78.5795H132.797C133.217 78.5795 133.547 78.4792 133.786 78.2784C134.024 78.0777 134.143 77.8049 134.143 77.4602C134.143 77.0549 134.024 76.7367 133.786 76.5057C133.547 76.2708 133.217 76.1534 132.797 76.1534H130.223V78.5795ZM130.223 74.9091H132.263C132.581 74.9091 132.854 74.8636 133.081 74.7727C133.312 74.6818 133.488 74.553 133.609 74.3864C133.734 74.2159 133.797 74.0152 133.797 73.7841C133.797 73.447 133.659 73.1837 133.382 72.9943C133.106 72.8049 132.727 72.7102 132.246 72.7102H130.223V74.9091ZM145.599 80.1761C144.755 80.1761 144.027 79.9848 143.418 79.6023C142.812 79.2159 142.346 78.6837 142.02 78.0057C141.694 77.3277 141.531 76.5511 141.531 75.6761C141.531 74.7898 141.698 74.0076 142.031 73.3295C142.365 72.6477 142.834 72.1155 143.44 71.733C144.046 71.3504 144.76 71.1591 145.582 71.1591C146.245 71.1591 146.836 71.2822 147.355 71.5284C147.874 71.7708 148.293 72.1117 148.611 72.5511C148.933 72.9905 149.124 73.5038 149.185 74.0909H147.531C147.44 73.6818 147.232 73.3295 146.906 73.0341C146.584 72.7386 146.152 72.5909 145.611 72.5909C145.137 72.5909 144.723 72.7159 144.366 72.9659C144.014 73.2121 143.74 73.5644 143.543 74.0227C143.346 74.4773 143.247 75.0152 143.247 75.6364C143.247 76.2727 143.344 76.822 143.537 77.2841C143.73 77.7462 144.003 78.1042 144.355 78.358C144.711 78.6117 145.13 78.7386 145.611 78.7386C145.933 78.7386 146.224 78.6799 146.486 78.5625C146.751 78.4413 146.973 78.2689 147.151 78.0455C147.332 77.822 147.459 77.553 147.531 77.2386H149.185C149.124 77.803 148.94 78.3068 148.634 78.75C148.327 79.1932 147.916 79.5417 147.401 79.7955C146.889 80.0492 146.289 80.1761 145.599 80.1761ZM151.001 80V71.2727H158.121V80H156.456V72.7386H152.655V80H151.001ZM162.057 77.6193L165.903 71.2727H167.733V80H166.068V73.6477L162.239 80H160.392V71.2727H162.057V77.6193ZM173.693 80.1761C172.848 80.1761 172.121 79.9848 171.511 79.6023C170.905 79.2159 170.439 78.6837 170.114 78.0057C169.788 77.3277 169.625 76.5511 169.625 75.6761C169.625 74.7898 169.792 74.0076 170.125 73.3295C170.458 72.6477 170.928 72.1155 171.534 71.733C172.14 71.3504 172.854 71.1591 173.676 71.1591C174.339 71.1591 174.93 71.2822 175.449 71.5284C175.968 71.7708 176.386 72.1117 176.705 72.5511C177.027 72.9905 177.218 73.5038 177.278 74.0909H175.625C175.534 73.6818 175.326 73.3295 175 73.0341C174.678 72.7386 174.246 72.5909 173.705 72.5909C173.231 72.5909 172.816 72.7159 172.46 72.9659C172.108 73.2121 171.833 73.5644 171.636 74.0227C171.439 74.4773 171.341 75.0152 171.341 75.6364C171.341 76.2727 171.438 76.822 171.631 77.2841C171.824 77.7462 172.097 78.1042 172.449 78.358C172.805 78.6117 173.223 78.7386 173.705 78.7386C174.027 78.7386 174.318 78.6799 174.58 78.5625C174.845 78.4413 175.066 78.2689 175.244 78.0455C175.426 77.822 175.553 77.553 175.625 77.2386H177.278C177.218 77.803 177.034 78.3068 176.727 78.75C176.42 79.1932 176.009 79.5417 175.494 79.7955C174.983 80.0492 174.383 80.1761 173.693 80.1761ZM179.095 80V71.2727H180.794V74.9318H181.612L184.493 71.2727H186.595L183.214 75.517L186.635 80H184.527L181.896 76.5114H180.794V80H179.095ZM191.357 80.1761C190.497 80.1761 189.756 79.9924 189.135 79.625C188.518 79.2538 188.04 78.733 187.703 78.0625C187.37 77.3883 187.203 76.5985 187.203 75.6932C187.203 74.7992 187.37 74.0114 187.703 73.3295C188.04 72.6477 188.51 72.1155 189.112 71.733C189.718 71.3504 190.427 71.1591 191.237 71.1591C191.73 71.1591 192.207 71.2405 192.669 71.4034C193.131 71.5663 193.546 71.822 193.913 72.1705C194.281 72.5189 194.571 72.9716 194.783 73.5284C194.995 74.0814 195.101 74.7538 195.101 75.5455V76.1477H188.163V74.875H193.436C193.436 74.428 193.345 74.0322 193.163 73.6875C192.982 73.339 192.726 73.0644 192.396 72.8636C192.071 72.6629 191.688 72.5625 191.249 72.5625C190.771 72.5625 190.355 72.6799 189.999 72.9148C189.646 73.1458 189.374 73.4489 189.18 73.8239C188.991 74.1951 188.896 74.5985 188.896 75.0341V76.0284C188.896 76.6117 188.999 77.108 189.203 77.517C189.411 77.9261 189.701 78.2386 190.072 78.4545C190.444 78.6667 190.877 78.7727 191.374 78.7727C191.696 78.7727 191.989 78.7273 192.254 78.6364C192.519 78.5417 192.749 78.4015 192.942 78.2159C193.135 78.0303 193.283 77.8011 193.385 77.5284L194.993 77.8182C194.864 78.2917 194.633 78.7064 194.3 79.0625C193.97 79.4148 193.555 79.6894 193.055 79.8864C192.559 80.0795 191.993 80.1761 191.357 80.1761ZM200.732 72.7386V71.2727H208.095V72.7386H205.249V80H203.589V72.7386H200.732ZM211.17 74.2727H213.705C214.773 74.2727 215.595 74.5379 216.17 75.0682C216.746 75.5985 217.034 76.2822 217.034 77.1193C217.034 77.6648 216.905 78.1553 216.648 78.5909C216.39 79.0265 216.013 79.3712 215.517 79.625C215.021 79.875 214.417 80 213.705 80H209.892V71.2727H211.557V78.5341H213.705C214.193 78.5341 214.595 78.4072 214.909 78.1534C215.223 77.8958 215.381 77.5682 215.381 77.1705C215.381 76.75 215.223 76.4072 214.909 76.142C214.595 75.8731 214.193 75.7386 213.705 75.7386H211.17V74.2727ZM223.331 74.9659V76.4432H218.678V74.9659H223.331ZM220.058 71.2727V80H218.359V71.2727H220.058ZM225.99 80.1761C225.179 80.1761 224.471 79.9867 223.865 79.608C223.259 79.2292 222.789 78.7027 222.456 78.0284C222.123 77.3504 221.956 76.5644 221.956 75.6705C221.956 74.7689 222.123 73.9811 222.456 73.3068C222.789 72.6288 223.259 72.1023 223.865 71.7273C224.471 71.3485 225.179 71.1591 225.99 71.1591C226.804 71.1591 227.513 71.3485 228.115 71.7273C228.721 72.1023 229.191 72.6288 229.524 73.3068C229.861 73.9811 230.03 74.7689 230.03 75.6705C230.03 76.5644 229.861 77.3504 229.524 78.0284C229.191 78.7027 228.721 79.2292 228.115 79.608C227.513 79.9867 226.804 80.1761 225.99 80.1761ZM225.99 78.7216C226.539 78.7216 226.988 78.5833 227.337 78.3068C227.689 78.0265 227.948 77.6553 228.115 77.1932C228.282 76.7311 228.365 76.2235 228.365 75.6705C228.365 75.1136 228.282 74.6042 228.115 74.142C227.948 73.6761 227.689 73.303 227.337 73.0227C226.988 72.7424 226.539 72.6023 225.99 72.6023C225.445 72.6023 224.996 72.7424 224.643 73.0227C224.291 73.303 224.032 73.6761 223.865 74.142C223.698 74.6042 223.615 75.1136 223.615 75.6705C223.615 76.2235 223.698 76.7311 223.865 77.1932C224.032 77.6553 224.291 78.0265 224.643 78.3068C224.996 78.5833 225.445 78.7216 225.99 78.7216ZM230.982 72.7386V71.2727H238.345V72.7386H235.499V80H233.839V72.7386H230.982ZM243.412 80.1761C242.594 80.1761 241.88 79.9886 241.27 79.6136C240.66 79.2386 240.187 78.714 239.849 78.0398C239.512 77.3655 239.344 76.5777 239.344 75.6761C239.344 74.7708 239.512 73.9792 239.849 73.3011C240.187 72.6231 240.66 72.0966 241.27 71.7216C241.88 71.3466 242.594 71.1591 243.412 71.1591C244.23 71.1591 244.944 71.3466 245.554 71.7216C246.164 72.0966 246.637 72.6231 246.974 73.3011C247.312 73.9792 247.48 74.7708 247.48 75.6761C247.48 76.5777 247.312 77.3655 246.974 78.0398C246.637 78.714 246.164 79.2386 245.554 79.6136C244.944 79.9886 244.23 80.1761 243.412 80.1761ZM243.418 78.75C243.948 78.75 244.387 78.6098 244.736 78.3295C245.084 78.0492 245.342 77.6761 245.509 77.2102C245.679 76.7443 245.764 76.2311 245.764 75.6705C245.764 75.1136 245.679 74.6023 245.509 74.1364C245.342 73.6667 245.084 73.2898 244.736 73.0057C244.387 72.7216 243.948 72.5795 243.418 72.5795C242.884 72.5795 242.44 72.7216 242.088 73.0057C241.74 73.2898 241.48 73.6667 241.31 74.1364C241.143 74.6023 241.06 75.1136 241.06 75.6705C241.06 76.2311 241.143 76.7443 241.31 77.2102C241.48 77.6761 241.74 78.0492 242.088 78.3295C242.44 78.6098 242.884 78.75 243.418 78.75ZM249.376 83.2727V71.2727H251.036V72.6875H251.178C251.276 72.5057 251.418 72.2955 251.604 72.0568C251.789 71.8182 252.047 71.6098 252.376 71.4318C252.706 71.25 253.142 71.1591 253.683 71.1591C254.388 71.1591 255.017 71.3371 255.57 71.6932C256.123 72.0492 256.556 72.5625 256.871 73.233C257.189 73.9034 257.348 74.7102 257.348 75.6534C257.348 76.5966 257.191 77.4053 256.876 78.0795C256.562 78.75 256.13 79.267 255.581 79.6307C255.032 79.9905 254.405 80.1705 253.7 80.1705C253.17 80.1705 252.736 80.0814 252.399 79.9034C252.066 79.7254 251.804 79.517 251.615 79.2784C251.426 79.0398 251.28 78.8277 251.178 78.642H251.075V83.2727H249.376ZM251.041 75.6364C251.041 76.25 251.13 76.7879 251.308 77.25C251.486 77.7121 251.744 78.0739 252.081 78.3352C252.418 78.5928 252.831 78.7216 253.32 78.7216C253.827 78.7216 254.251 78.5871 254.592 78.3182C254.933 78.0455 255.191 77.6761 255.365 77.2102C255.543 76.7443 255.632 76.2197 255.632 75.6364C255.632 75.0606 255.545 74.5436 255.371 74.0852C255.2 73.6269 254.943 73.2652 254.598 73C254.257 72.7348 253.831 72.6023 253.32 72.6023C252.827 72.6023 252.411 72.7292 252.07 72.983C251.732 73.2367 251.477 73.5909 251.303 74.0455C251.128 74.5 251.041 75.0303 251.041 75.6364ZM261.791 80.1932C261.238 80.1932 260.738 80.0909 260.291 79.8864C259.844 79.678 259.49 79.3769 259.229 78.983C258.971 78.589 258.842 78.1061 258.842 77.5341C258.842 77.0417 258.937 76.6364 259.126 76.3182C259.316 76 259.571 75.7481 259.893 75.5625C260.215 75.3769 260.575 75.2367 260.973 75.142C261.371 75.0473 261.776 74.9754 262.189 74.9261C262.712 74.8655 263.136 74.8163 263.462 74.7784C263.787 74.7367 264.024 74.6705 264.172 74.5795C264.32 74.4886 264.393 74.3409 264.393 74.1364V74.0966C264.393 73.6004 264.253 73.2159 263.973 72.9432C263.696 72.6705 263.284 72.5341 262.734 72.5341C262.162 72.5341 261.712 72.661 261.382 72.9148C261.056 73.1648 260.831 73.4432 260.706 73.75L259.109 73.3864C259.299 72.8561 259.575 72.428 259.939 72.1023C260.306 71.7727 260.729 71.5341 261.206 71.3864C261.683 71.2348 262.185 71.1591 262.712 71.1591C263.06 71.1591 263.429 71.2008 263.82 71.2841C264.214 71.3636 264.581 71.5114 264.922 71.7273C265.267 71.9432 265.549 72.2519 265.768 72.6534C265.988 73.0511 266.098 73.5682 266.098 74.2045V80H264.439V78.8068H264.371C264.261 79.0265 264.096 79.2424 263.876 79.4545C263.657 79.6667 263.375 79.8428 263.03 79.983C262.685 80.1231 262.272 80.1932 261.791 80.1932ZM262.161 78.8295C262.63 78.8295 263.032 78.7367 263.365 78.5511C263.702 78.3655 263.958 78.1231 264.132 77.8239C264.31 77.5208 264.399 77.197 264.399 76.8523V75.7273C264.339 75.7879 264.221 75.8447 264.047 75.8977C263.876 75.947 263.681 75.9905 263.462 76.0284C263.242 76.0625 263.028 76.0947 262.82 76.125C262.611 76.1515 262.437 76.1742 262.297 76.1932C261.967 76.2348 261.666 76.3049 261.393 76.4034C261.125 76.5019 260.909 76.6439 260.746 76.8295C260.587 77.0114 260.507 77.2538 260.507 77.5568C260.507 77.9773 260.662 78.2955 260.973 78.5114C261.284 78.7235 261.679 78.8295 262.161 78.8295ZM274.26 77.6193L278.107 71.2727H279.936V80H278.271V73.6477L274.442 80H272.595V71.2727H274.26V77.6193ZM281.533 80L281.527 78.5284H281.839C282.082 78.5284 282.285 78.4773 282.447 78.375C282.614 78.2689 282.75 78.0909 282.857 77.8409C282.963 77.5909 283.044 77.2462 283.101 76.8068C283.158 76.3636 283.199 75.8068 283.226 75.1364L283.379 71.2727H289.47V80H287.805V72.7386H284.953L284.817 75.7045C284.783 76.4242 284.709 77.053 284.595 77.5909C284.485 78.1288 284.324 78.5777 284.112 78.9375C283.9 79.2936 283.627 79.5606 283.294 79.7386C282.961 79.9129 282.555 80 282.078 80H281.533ZM293.401 77.6193L297.247 71.2727H299.077V80H297.412V73.6477L293.582 80H291.736V71.2727H293.401V77.6193ZM148.158 93.9034V95.375H143.431V93.9034H148.158ZM143.908 90.2727V99H142.244V90.2727H143.908ZM149.346 90.2727V99H147.687V90.2727H149.346ZM154.158 99.1932C153.605 99.1932 153.105 99.0909 152.658 98.8864C152.211 98.678 151.857 98.3769 151.596 97.983C151.338 97.589 151.21 97.1061 151.21 96.5341C151.21 96.0417 151.304 95.6364 151.494 95.3182C151.683 95 151.939 94.7481 152.261 94.5625C152.583 94.3769 152.942 94.2367 153.34 94.142C153.738 94.0473 154.143 93.9754 154.556 93.9261C155.079 93.8655 155.503 93.8163 155.829 93.7784C156.155 93.7367 156.391 93.6705 156.539 93.5795C156.687 93.4886 156.761 93.3409 156.761 93.1364V93.0966C156.761 92.6004 156.621 92.2159 156.34 91.9432C156.064 91.6705 155.651 91.5341 155.102 91.5341C154.53 91.5341 154.079 91.661 153.749 91.9148C153.424 92.1648 153.198 92.4432 153.073 92.75L151.477 92.3864C151.666 91.8561 151.942 91.428 152.306 91.1023C152.674 90.7727 153.096 90.5341 153.573 90.3864C154.05 90.2348 154.552 90.1591 155.079 90.1591C155.427 90.1591 155.797 90.2008 156.187 90.2841C156.581 90.3636 156.948 90.5114 157.289 90.7273C157.634 90.9432 157.916 91.2519 158.136 91.6534C158.355 92.0511 158.465 92.5682 158.465 93.2045V99H156.806V97.8068H156.738C156.628 98.0265 156.463 98.2424 156.244 98.4545C156.024 98.6667 155.742 98.8428 155.397 98.983C155.052 99.1231 154.639 99.1932 154.158 99.1932ZM154.528 97.8295C154.997 97.8295 155.399 97.7367 155.732 97.5511C156.069 97.3655 156.325 97.1231 156.499 96.8239C156.677 96.5208 156.766 96.197 156.766 95.8523V94.7273C156.706 94.7879 156.588 94.8447 156.414 94.8977C156.244 94.947 156.049 94.9905 155.829 95.0284C155.609 95.0625 155.395 95.0947 155.187 95.125C154.978 95.1515 154.804 95.1742 154.664 95.1932C154.335 95.2348 154.033 95.3049 153.761 95.4034C153.492 95.5019 153.276 95.6439 153.113 95.8295C152.954 96.0114 152.874 96.2538 152.874 96.5568C152.874 96.9773 153.03 97.2955 153.34 97.5114C153.651 97.7235 154.047 97.8295 154.528 97.8295ZM164.404 99.1761C163.559 99.1761 162.832 98.9848 162.222 98.6023C161.616 98.2159 161.15 97.6837 160.825 97.0057C160.499 96.3277 160.336 95.5511 160.336 94.6761C160.336 93.7898 160.503 93.0076 160.836 92.3295C161.169 91.6477 161.639 91.1155 162.245 90.733C162.851 90.3504 163.565 90.1591 164.387 90.1591C165.05 90.1591 165.641 90.2822 166.16 90.5284C166.679 90.7708 167.097 91.1117 167.415 91.5511C167.737 91.9905 167.929 92.5038 167.989 93.0909H166.336C166.245 92.6818 166.037 92.3295 165.711 92.0341C165.389 91.7386 164.957 91.5909 164.415 91.5909C163.942 91.5909 163.527 91.7159 163.171 91.9659C162.819 92.2121 162.544 92.5644 162.347 93.0227C162.15 93.4773 162.052 94.0152 162.052 94.6364C162.052 95.2727 162.148 95.822 162.342 96.2841C162.535 96.7462 162.808 97.1042 163.16 97.358C163.516 97.6117 163.934 97.7386 164.415 97.7386C164.737 97.7386 165.029 97.6799 165.29 97.5625C165.556 97.4413 165.777 97.2689 165.955 97.0455C166.137 96.822 166.264 96.553 166.336 96.2386H167.989C167.929 96.803 167.745 97.3068 167.438 97.75C167.131 98.1932 166.72 98.5417 166.205 98.7955C165.694 99.0492 165.094 99.1761 164.404 99.1761ZM169.146 91.7386V90.2727H176.509V91.7386H173.663V99H172.004V91.7386H169.146ZM180.44 99.1932C179.887 99.1932 179.387 99.0909 178.94 98.8864C178.493 98.678 178.138 98.3769 177.877 97.983C177.62 97.589 177.491 97.1061 177.491 96.5341C177.491 96.0417 177.585 95.6364 177.775 95.3182C177.964 95 178.22 94.7481 178.542 94.5625C178.864 94.3769 179.224 94.2367 179.621 94.142C180.019 94.0473 180.424 93.9754 180.837 93.9261C181.36 93.8655 181.784 93.8163 182.11 93.7784C182.436 93.7367 182.673 93.6705 182.82 93.5795C182.968 93.4886 183.042 93.3409 183.042 93.1364V93.0966C183.042 92.6004 182.902 92.2159 182.621 91.9432C182.345 91.6705 181.932 91.5341 181.383 91.5341C180.811 91.5341 180.36 91.661 180.031 91.9148C179.705 92.1648 179.479 92.4432 179.354 92.75L177.758 92.3864C177.947 91.8561 178.224 91.428 178.587 91.1023C178.955 90.7727 179.377 90.5341 179.854 90.3864C180.332 90.2348 180.834 90.1591 181.36 90.1591C181.709 90.1591 182.078 90.2008 182.468 90.2841C182.862 90.3636 183.229 90.5114 183.57 90.7273C183.915 90.9432 184.197 91.2519 184.417 91.6534C184.637 92.0511 184.746 92.5682 184.746 93.2045V99H183.087V97.8068H183.019C182.909 98.0265 182.745 98.2424 182.525 98.4545C182.305 98.6667 182.023 98.8428 181.678 98.983C181.334 99.1231 180.921 99.1932 180.44 99.1932ZM180.809 97.8295C181.279 97.8295 181.68 97.7367 182.013 97.5511C182.351 97.3655 182.606 97.1231 182.781 96.8239C182.959 96.5208 183.048 96.197 183.048 95.8523V94.7273C182.987 94.7879 182.87 94.8447 182.695 94.8977C182.525 94.947 182.33 94.9905 182.11 95.0284C181.89 95.0625 181.676 95.0947 181.468 95.125C181.26 95.1515 181.085 95.1742 180.945 95.1932C180.616 95.2348 180.315 95.3049 180.042 95.4034C179.773 95.5019 179.557 95.6439 179.394 95.8295C179.235 96.0114 179.156 96.2538 179.156 96.5568C179.156 96.9773 179.311 97.2955 179.621 97.5114C179.932 97.7235 180.328 97.8295 180.809 97.8295ZM187.009 99V90.2727H190.629C191.613 90.2727 192.394 90.483 192.969 90.9034C193.545 91.3201 193.833 91.8864 193.833 92.6023C193.833 93.1136 193.67 93.5189 193.344 93.8182C193.019 94.1174 192.587 94.3182 192.049 94.4205C192.439 94.4659 192.797 94.5833 193.123 94.7727C193.449 94.9583 193.71 95.2083 193.907 95.5227C194.108 95.8371 194.208 96.2121 194.208 96.6477C194.208 97.1098 194.089 97.5189 193.85 97.875C193.612 98.2273 193.265 98.5038 192.81 98.7045C192.36 98.9015 191.816 99 191.18 99H187.009ZM188.606 97.5795H191.18C191.6 97.5795 191.93 97.4792 192.168 97.2784C192.407 97.0777 192.526 96.8049 192.526 96.4602C192.526 96.0549 192.407 95.7367 192.168 95.5057C191.93 95.2708 191.6 95.1534 191.18 95.1534H188.606V97.5795ZM188.606 93.9091H190.646C190.964 93.9091 191.237 93.8636 191.464 93.7727C191.695 93.6818 191.871 93.553 191.992 93.3864C192.117 93.2159 192.18 93.0152 192.18 92.7841C192.18 92.447 192.041 92.1837 191.765 91.9943C191.488 91.8049 191.11 91.7102 190.629 91.7102H188.606V93.9091ZM201.987 93.9034V95.375H197.259V93.9034H201.987ZM197.737 90.2727V99H196.072V90.2727H197.737ZM203.174 90.2727V99H201.515V90.2727H203.174ZM207.112 96.6193L210.958 90.2727H212.788V99H211.123V92.6477L207.293 99H205.447V90.2727H207.112V96.6193ZM215.072 99V90.2727H216.771V93.9318H217.589L220.469 90.2727H222.572L219.191 94.517L222.612 99H220.504L217.873 95.5114H216.771V99H215.072ZM226.471 99.1932C225.918 99.1932 225.418 99.0909 224.971 98.8864C224.524 98.678 224.17 98.3769 223.908 97.983C223.651 97.589 223.522 97.1061 223.522 96.5341C223.522 96.0417 223.617 95.6364 223.806 95.3182C223.996 95 224.251 94.7481 224.573 94.5625C224.895 94.3769 225.255 94.2367 225.653 94.142C226.05 94.0473 226.456 93.9754 226.869 93.9261C227.391 93.8655 227.816 93.8163 228.141 93.7784C228.467 93.7367 228.704 93.6705 228.852 93.5795C228.999 93.4886 229.073 93.3409 229.073 93.1364V93.0966C229.073 92.6004 228.933 92.2159 228.653 91.9432C228.376 91.6705 227.963 91.5341 227.414 91.5341C226.842 91.5341 226.391 91.661 226.062 91.9148C225.736 92.1648 225.511 92.4432 225.386 92.75L223.789 92.3864C223.978 91.8561 224.255 91.428 224.619 91.1023C224.986 90.7727 225.408 90.5341 225.886 90.3864C226.363 90.2348 226.865 90.1591 227.391 90.1591C227.74 90.1591 228.109 90.2008 228.499 90.2841C228.893 90.3636 229.261 90.5114 229.602 90.7273C229.946 90.9432 230.228 91.2519 230.448 91.6534C230.668 92.0511 230.778 92.5682 230.778 93.2045V99H229.119V97.8068H229.05C228.941 98.0265 228.776 98.2424 228.556 98.4545C228.336 98.6667 228.054 98.8428 227.71 98.983C227.365 99.1231 226.952 99.1932 226.471 99.1932ZM226.84 97.8295C227.31 97.8295 227.711 97.7367 228.045 97.5511C228.382 97.3655 228.638 97.1231 228.812 96.8239C228.99 96.5208 229.079 96.197 229.079 95.8523V94.7273C229.018 94.7879 228.901 94.8447 228.727 94.8977C228.556 94.947 228.361 94.9905 228.141 95.0284C227.922 95.0625 227.708 95.0947 227.499 95.125C227.291 95.1515 227.117 95.1742 226.977 95.1932C226.647 95.2348 226.346 95.3049 226.073 95.4034C225.804 95.5019 225.588 95.6439 225.425 95.8295C225.266 96.0114 225.187 96.2538 225.187 96.5568C225.187 96.9773 225.342 97.2955 225.653 97.5114C225.963 97.7235 226.359 97.8295 226.84 97.8295Z" fill="#2D3342"/>
<path d="M57.375 157.364V169H55.625V158.864H50.1477V169H48.3977V157.364H57.375ZM63.6847 169.176C62.8248 169.176 62.0843 168.992 61.4631 168.625C60.8456 168.254 60.3684 167.733 60.0312 167.062C59.6979 166.388 59.5312 165.598 59.5312 164.693C59.5312 163.799 59.6979 163.011 60.0312 162.33C60.3684 161.648 60.8381 161.116 61.4403 160.733C62.0464 160.35 62.7547 160.159 63.5653 160.159C64.0578 160.159 64.535 160.241 64.9972 160.403C65.4593 160.566 65.8741 160.822 66.2415 161.17C66.6089 161.519 66.8987 161.972 67.1108 162.528C67.3229 163.081 67.429 163.754 67.429 164.545V165.148H60.4915V163.875H65.7642C65.7642 163.428 65.6733 163.032 65.4915 162.688C65.3097 162.339 65.054 162.064 64.7244 161.864C64.3987 161.663 64.0161 161.562 63.5767 161.562C63.0994 161.562 62.6828 161.68 62.3267 161.915C61.9744 162.146 61.7017 162.449 61.5085 162.824C61.3191 163.195 61.2244 163.598 61.2244 164.034V165.028C61.2244 165.612 61.3267 166.108 61.5312 166.517C61.7396 166.926 62.0294 167.239 62.4006 167.455C62.7718 167.667 63.2055 167.773 63.7017 167.773C64.0237 167.773 64.3172 167.727 64.5824 167.636C64.8475 167.542 65.0767 167.402 65.2699 167.216C65.4631 167.03 65.6108 166.801 65.7131 166.528L67.321 166.818C67.1922 167.292 66.9612 167.706 66.6278 168.062C66.2983 168.415 65.8835 168.689 65.3835 168.886C64.8873 169.08 64.321 169.176 63.6847 169.176ZM69.3139 172.273V160.273H70.973V161.688H71.1151C71.2135 161.506 71.3556 161.295 71.5412 161.057C71.7268 160.818 71.9844 160.61 72.3139 160.432C72.6435 160.25 73.0791 160.159 73.6207 160.159C74.3253 160.159 74.9541 160.337 75.5071 160.693C76.0601 161.049 76.4938 161.562 76.8082 162.233C77.1264 162.903 77.2855 163.71 77.2855 164.653C77.2855 165.597 77.1283 166.405 76.8139 167.08C76.4995 167.75 76.0677 168.267 75.5185 168.631C74.9692 168.991 74.3423 169.17 73.6378 169.17C73.1075 169.17 72.6738 169.081 72.3366 168.903C72.0033 168.725 71.742 168.517 71.5526 168.278C71.3632 168.04 71.2173 167.828 71.1151 167.642H71.0128V172.273H69.3139ZM70.9787 164.636C70.9787 165.25 71.0677 165.788 71.2457 166.25C71.4238 166.712 71.6813 167.074 72.0185 167.335C72.3556 167.593 72.7685 167.722 73.2571 167.722C73.7647 167.722 74.1889 167.587 74.5298 167.318C74.8707 167.045 75.1283 166.676 75.3026 166.21C75.4806 165.744 75.5696 165.22 75.5696 164.636C75.5696 164.061 75.4825 163.544 75.3082 163.085C75.1378 162.627 74.8802 162.265 74.5355 162C74.1946 161.735 73.7685 161.602 73.2571 161.602C72.7647 161.602 72.348 161.729 72.0071 161.983C71.67 162.237 71.4143 162.591 71.2401 163.045C71.0658 163.5 70.9787 164.03 70.9787 164.636ZM82.9503 169.176C82.0904 169.176 81.3499 168.992 80.7287 168.625C80.1113 168.254 79.634 167.733 79.2969 167.062C78.9635 166.388 78.7969 165.598 78.7969 164.693C78.7969 163.799 78.9635 163.011 79.2969 162.33C79.634 161.648 80.1037 161.116 80.706 160.733C81.312 160.35 82.0204 160.159 82.831 160.159C83.3234 160.159 83.8007 160.241 84.2628 160.403C84.7249 160.566 85.1397 160.822 85.5071 161.17C85.8745 161.519 86.1643 161.972 86.3764 162.528C86.5885 163.081 86.6946 163.754 86.6946 164.545V165.148H79.7571V163.875H85.0298C85.0298 163.428 84.9389 163.032 84.7571 162.688C84.5753 162.339 84.3196 162.064 83.9901 161.864C83.6643 161.663 83.2817 161.562 82.8423 161.562C82.3651 161.562 81.9484 161.68 81.5923 161.915C81.2401 162.146 80.9673 162.449 80.7741 162.824C80.5848 163.195 80.4901 163.598 80.4901 164.034V165.028C80.4901 165.612 80.5923 166.108 80.7969 166.517C81.0052 166.926 81.295 167.239 81.6662 167.455C82.0374 167.667 82.4711 167.773 82.9673 167.773C83.2893 167.773 83.5829 167.727 83.848 167.636C84.1132 167.542 84.3423 167.402 84.5355 167.216C84.7287 167.03 84.8764 166.801 84.9787 166.528L86.5866 166.818C86.4579 167.292 86.2268 167.706 85.8935 168.062C85.5639 168.415 85.1491 168.689 84.6491 168.886C84.1529 169.08 83.5866 169.176 82.9503 169.176ZM90.2443 166.619L94.0909 160.273H95.9205V169H94.2557V162.648L90.4261 169H88.5795V160.273H90.2443V166.619ZM93.3636 157.318H94.7614C94.7614 157.958 94.5341 158.479 94.0795 158.881C93.6288 159.278 93.0189 159.477 92.25 159.477C91.4848 159.477 90.8769 159.278 90.4261 158.881C89.9754 158.479 89.75 157.958 89.75 157.318H91.142C91.142 157.602 91.2254 157.854 91.392 158.074C91.5587 158.29 91.8447 158.398 92.25 158.398C92.6477 158.398 92.9318 158.29 93.1023 158.074C93.2765 157.858 93.3636 157.606 93.3636 157.318ZM97.3523 171.517V167.528H98.0625C98.2443 167.362 98.3977 167.163 98.5227 166.932C98.6515 166.701 98.7595 166.426 98.8466 166.108C98.9375 165.79 99.0133 165.419 99.0739 164.994C99.1345 164.566 99.1875 164.078 99.233 163.528L99.5057 160.273H105.438V167.528H106.778V171.517H105.119V169H99.0341V171.517H97.3523ZM99.8807 167.528H103.778V161.727H101.028L100.847 163.528C100.759 164.445 100.65 165.241 100.517 165.915C100.384 166.585 100.172 167.123 99.8807 167.528ZM110.104 166.619L113.95 160.273H115.78V169H114.115V162.648L110.286 169H108.439V160.273H110.104V166.619ZM122.298 169V160.273H129.418V169H127.753V161.739H123.952V169H122.298ZM135.365 169.176C134.547 169.176 133.833 168.989 133.223 168.614C132.613 168.239 132.14 167.714 131.803 167.04C131.465 166.366 131.297 165.578 131.297 164.676C131.297 163.771 131.465 162.979 131.803 162.301C132.14 161.623 132.613 161.097 133.223 160.722C133.833 160.347 134.547 160.159 135.365 160.159C136.183 160.159 136.897 160.347 137.507 160.722C138.117 161.097 138.59 161.623 138.928 162.301C139.265 162.979 139.433 163.771 139.433 164.676C139.433 165.578 139.265 166.366 138.928 167.04C138.59 167.714 138.117 168.239 137.507 168.614C136.897 168.989 136.183 169.176 135.365 169.176ZM135.371 167.75C135.901 167.75 136.34 167.61 136.689 167.33C137.037 167.049 137.295 166.676 137.462 166.21C137.632 165.744 137.717 165.231 137.717 164.67C137.717 164.114 137.632 163.602 137.462 163.136C137.295 162.667 137.037 162.29 136.689 162.006C136.34 161.722 135.901 161.58 135.371 161.58C134.837 161.58 134.393 161.722 134.041 162.006C133.693 162.29 133.433 162.667 133.263 163.136C133.096 163.602 133.013 164.114 133.013 164.67C133.013 165.231 133.096 165.744 133.263 166.21C133.433 166.676 133.693 167.049 134.041 167.33C134.393 167.61 134.837 167.75 135.371 167.75ZM149.24 169.176C148.395 169.176 147.668 168.985 147.058 168.602C146.452 168.216 145.986 167.684 145.661 167.006C145.335 166.328 145.172 165.551 145.172 164.676C145.172 163.79 145.339 163.008 145.672 162.33C146.005 161.648 146.475 161.116 147.081 160.733C147.687 160.35 148.401 160.159 149.223 160.159C149.886 160.159 150.477 160.282 150.996 160.528C151.515 160.771 151.933 161.112 152.251 161.551C152.573 161.991 152.765 162.504 152.825 163.091H151.172C151.081 162.682 150.873 162.33 150.547 162.034C150.225 161.739 149.793 161.591 149.251 161.591C148.778 161.591 148.363 161.716 148.007 161.966C147.655 162.212 147.38 162.564 147.183 163.023C146.986 163.477 146.888 164.015 146.888 164.636C146.888 165.273 146.984 165.822 147.178 166.284C147.371 166.746 147.643 167.104 147.996 167.358C148.352 167.612 148.77 167.739 149.251 167.739C149.573 167.739 149.865 167.68 150.126 167.562C150.392 167.441 150.613 167.269 150.791 167.045C150.973 166.822 151.1 166.553 151.172 166.239H152.825C152.765 166.803 152.581 167.307 152.274 167.75C151.967 168.193 151.556 168.542 151.041 168.795C150.53 169.049 149.929 169.176 149.24 169.176ZM158.318 169.176C157.473 169.176 156.746 168.985 156.136 168.602C155.53 168.216 155.064 167.684 154.739 167.006C154.413 166.328 154.25 165.551 154.25 164.676C154.25 163.79 154.417 163.008 154.75 162.33C155.083 161.648 155.553 161.116 156.159 160.733C156.765 160.35 157.479 160.159 158.301 160.159C158.964 160.159 159.555 160.282 160.074 160.528C160.593 160.771 161.011 161.112 161.33 161.551C161.652 161.991 161.843 162.504 161.903 163.091H160.25C160.159 162.682 159.951 162.33 159.625 162.034C159.303 161.739 158.871 161.591 158.33 161.591C157.856 161.591 157.441 161.716 157.085 161.966C156.733 162.212 156.458 162.564 156.261 163.023C156.064 163.477 155.966 164.015 155.966 164.636C155.966 165.273 156.063 165.822 156.256 166.284C156.449 166.746 156.722 167.104 157.074 167.358C157.43 167.612 157.848 167.739 158.33 167.739C158.652 167.739 158.943 167.68 159.205 167.562C159.47 167.441 159.691 167.269 159.869 167.045C160.051 166.822 160.178 166.553 160.25 166.239H161.903C161.843 166.803 161.659 167.307 161.352 167.75C161.045 168.193 160.634 168.542 160.119 168.795C159.608 169.049 159.008 169.176 158.318 169.176ZM164.999 163.273H167.533C168.601 163.273 169.423 163.538 169.999 164.068C170.574 164.598 170.862 165.282 170.862 166.119C170.862 166.665 170.733 167.155 170.476 167.591C170.218 168.027 169.841 168.371 169.345 168.625C168.849 168.875 168.245 169 167.533 169H163.72V160.273H165.385V167.534H167.533C168.021 167.534 168.423 167.407 168.737 167.153C169.052 166.896 169.209 166.568 169.209 166.17C169.209 165.75 169.052 165.407 168.737 165.142C168.423 164.873 168.021 164.739 167.533 164.739H164.999V163.273ZM172.101 169V160.273H173.8V169H172.101ZM175.392 169L175.386 167.528H175.699C175.941 167.528 176.144 167.477 176.307 167.375C176.473 167.269 176.61 167.091 176.716 166.841C176.822 166.591 176.903 166.246 176.96 165.807C177.017 165.364 177.059 164.807 177.085 164.136L177.239 160.273H183.33V169H181.665V161.739H178.812L178.676 164.705C178.642 165.424 178.568 166.053 178.455 166.591C178.345 167.129 178.184 167.578 177.972 167.938C177.759 168.294 177.487 168.561 177.153 168.739C176.82 168.913 176.415 169 175.938 169H175.392ZM185.595 169V160.273H187.294V163.932H188.112L190.993 160.273H193.095L189.714 164.517L193.135 169H191.027L188.396 165.511H187.294V169H185.595ZM197.857 169.176C196.997 169.176 196.256 168.992 195.635 168.625C195.018 168.254 194.54 167.733 194.203 167.062C193.87 166.388 193.703 165.598 193.703 164.693C193.703 163.799 193.87 163.011 194.203 162.33C194.54 161.648 195.01 161.116 195.612 160.733C196.218 160.35 196.927 160.159 197.737 160.159C198.23 160.159 198.707 160.241 199.169 160.403C199.631 160.566 200.046 160.822 200.413 161.17C200.781 161.519 201.071 161.972 201.283 162.528C201.495 163.081 201.601 163.754 201.601 164.545V165.148H194.663V163.875H199.936C199.936 163.428 199.845 163.032 199.663 162.688C199.482 162.339 199.226 162.064 198.896 161.864C198.571 161.663 198.188 161.562 197.749 161.562C197.271 161.562 196.855 161.68 196.499 161.915C196.146 162.146 195.874 162.449 195.68 162.824C195.491 163.195 195.396 163.598 195.396 164.034V165.028C195.396 165.612 195.499 166.108 195.703 166.517C195.911 166.926 196.201 167.239 196.572 167.455C196.944 167.667 197.377 167.773 197.874 167.773C198.196 167.773 198.489 167.727 198.754 167.636C199.019 167.542 199.249 167.402 199.442 167.216C199.635 167.03 199.783 166.801 199.885 166.528L201.493 166.818C201.364 167.292 201.133 167.706 200.8 168.062C200.47 168.415 200.055 168.689 199.555 168.886C199.059 169.08 198.493 169.176 197.857 169.176ZM209.385 166.619L213.232 160.273H215.061V169H213.396V162.648L209.567 169H207.72V160.273H209.385V166.619ZM216.658 169L216.652 167.528H216.964C217.207 167.528 217.41 167.477 217.572 167.375C217.739 167.269 217.875 167.091 217.982 166.841C218.088 166.591 218.169 166.246 218.226 165.807C218.283 165.364 218.324 164.807 218.351 164.136L218.504 160.273H224.595V169H222.93V161.739H220.078L219.942 164.705C219.908 165.424 219.834 166.053 219.72 166.591C219.61 167.129 219.449 167.578 219.237 167.938C219.025 168.294 218.752 168.561 218.419 168.739C218.086 168.913 217.68 169 217.203 169H216.658ZM228.526 166.619L232.372 160.273H234.202V169H232.537V162.648L228.707 169H226.861V160.273H228.526V166.619ZM246.635 163.903V165.375H241.908V163.903H246.635ZM242.385 160.273V169H240.72V160.273H242.385ZM247.822 160.273V169H246.163V160.273H247.822ZM252.635 169.193C252.082 169.193 251.582 169.091 251.135 168.886C250.688 168.678 250.334 168.377 250.072 167.983C249.815 167.589 249.686 167.106 249.686 166.534C249.686 166.042 249.781 165.636 249.97 165.318C250.16 165 250.415 164.748 250.737 164.562C251.059 164.377 251.419 164.237 251.817 164.142C252.214 164.047 252.62 163.975 253.033 163.926C253.555 163.866 253.98 163.816 254.305 163.778C254.631 163.737 254.868 163.67 255.016 163.58C255.163 163.489 255.237 163.341 255.237 163.136V163.097C255.237 162.6 255.097 162.216 254.817 161.943C254.54 161.67 254.127 161.534 253.578 161.534C253.006 161.534 252.555 161.661 252.226 161.915C251.9 162.165 251.675 162.443 251.55 162.75L249.953 162.386C250.143 161.856 250.419 161.428 250.783 161.102C251.15 160.773 251.572 160.534 252.05 160.386C252.527 160.235 253.029 160.159 253.555 160.159C253.904 160.159 254.273 160.201 254.663 160.284C255.057 160.364 255.425 160.511 255.766 160.727C256.11 160.943 256.393 161.252 256.612 161.653C256.832 162.051 256.942 162.568 256.942 163.205V169H255.283V167.807H255.214C255.105 168.027 254.94 168.242 254.72 168.455C254.5 168.667 254.218 168.843 253.874 168.983C253.529 169.123 253.116 169.193 252.635 169.193ZM253.004 167.83C253.474 167.83 253.875 167.737 254.209 167.551C254.546 167.366 254.802 167.123 254.976 166.824C255.154 166.521 255.243 166.197 255.243 165.852V164.727C255.182 164.788 255.065 164.845 254.891 164.898C254.72 164.947 254.525 164.991 254.305 165.028C254.086 165.062 253.872 165.095 253.663 165.125C253.455 165.152 253.281 165.174 253.141 165.193C252.811 165.235 252.51 165.305 252.237 165.403C251.968 165.502 251.752 165.644 251.589 165.83C251.43 166.011 251.351 166.254 251.351 166.557C251.351 166.977 251.506 167.295 251.817 167.511C252.127 167.723 252.523 167.83 253.004 167.83ZM259.205 169V160.273H266.324V169H264.659V161.739H260.858V169H259.205ZM270.26 166.619L274.107 160.273H275.936V169H274.271V162.648L270.442 169H268.595V160.273H270.26V166.619ZM278.22 160.273H279.885V167.528H282.902V160.273H284.567V167.528H287.584V160.273H289.249V169H278.22V160.273ZM293.182 166.619L297.028 160.273H298.858V169H297.193V162.648L293.364 169H291.517V160.273H293.182V166.619ZM146.479 182.903V184.375H141.751V182.903H146.479ZM142.229 179.273V188H140.564V179.273H142.229ZM147.666 179.273V188H146.007V179.273H147.666ZM152.479 188.193C151.926 188.193 151.426 188.091 150.979 187.886C150.532 187.678 150.178 187.377 149.916 186.983C149.659 186.589 149.53 186.106 149.53 185.534C149.53 185.042 149.625 184.636 149.814 184.318C150.003 184 150.259 183.748 150.581 183.562C150.903 183.377 151.263 183.237 151.661 183.142C152.058 183.047 152.464 182.975 152.876 182.926C153.399 182.866 153.823 182.816 154.149 182.778C154.475 182.737 154.712 182.67 154.859 182.58C155.007 182.489 155.081 182.341 155.081 182.136V182.097C155.081 181.6 154.941 181.216 154.661 180.943C154.384 180.67 153.971 180.534 153.422 180.534C152.85 180.534 152.399 180.661 152.07 180.915C151.744 181.165 151.518 181.443 151.393 181.75L149.797 181.386C149.986 180.856 150.263 180.428 150.626 180.102C150.994 179.773 151.416 179.534 151.893 179.386C152.371 179.235 152.873 179.159 153.399 179.159C153.748 179.159 154.117 179.201 154.507 179.284C154.901 179.364 155.268 179.511 155.609 179.727C155.954 179.943 156.236 180.252 156.456 180.653C156.676 181.051 156.786 181.568 156.786 182.205V188H155.126V186.807H155.058C154.948 187.027 154.784 187.242 154.564 187.455C154.344 187.667 154.062 187.843 153.717 187.983C153.373 188.123 152.96 188.193 152.479 188.193ZM152.848 186.83C153.318 186.83 153.719 186.737 154.053 186.551C154.39 186.366 154.645 186.123 154.82 185.824C154.998 185.521 155.087 185.197 155.087 184.852V183.727C155.026 183.788 154.909 183.845 154.734 183.898C154.564 183.947 154.369 183.991 154.149 184.028C153.929 184.062 153.715 184.095 153.507 184.125C153.299 184.152 153.125 184.174 152.984 184.193C152.655 184.235 152.354 184.305 152.081 184.403C151.812 184.502 151.596 184.644 151.433 184.83C151.274 185.011 151.195 185.254 151.195 185.557C151.195 185.977 151.35 186.295 151.661 186.511C151.971 186.723 152.367 186.83 152.848 186.83ZM163.283 188V179.273H170.402V188H168.737V180.739H164.936V188H163.283ZM176.349 188.176C175.531 188.176 174.817 187.989 174.207 187.614C173.598 187.239 173.124 186.714 172.787 186.04C172.45 185.366 172.281 184.578 172.281 183.676C172.281 182.771 172.45 181.979 172.787 181.301C173.124 180.623 173.598 180.097 174.207 179.722C174.817 179.347 175.531 179.159 176.349 179.159C177.168 179.159 177.882 179.347 178.491 179.722C179.101 180.097 179.575 180.623 179.912 181.301C180.249 181.979 180.418 182.771 180.418 183.676C180.418 184.578 180.249 185.366 179.912 186.04C179.575 186.714 179.101 187.239 178.491 187.614C177.882 187.989 177.168 188.176 176.349 188.176ZM176.355 186.75C176.885 186.75 177.325 186.61 177.673 186.33C178.022 186.049 178.279 185.676 178.446 185.21C178.616 184.744 178.702 184.231 178.702 183.67C178.702 183.114 178.616 182.602 178.446 182.136C178.279 181.667 178.022 181.29 177.673 181.006C177.325 180.722 176.885 180.58 176.355 180.58C175.821 180.58 175.378 180.722 175.026 181.006C174.677 181.29 174.418 181.667 174.247 182.136C174.08 182.602 173.997 183.114 173.997 183.67C173.997 184.231 174.08 184.744 174.247 185.21C174.418 185.676 174.677 186.049 175.026 186.33C175.378 186.61 175.821 186.75 176.355 186.75ZM189.32 179.273V188H187.661V179.273H189.32ZM188.598 183.324V184.79C188.337 184.896 188.06 184.991 187.768 185.074C187.477 185.153 187.17 185.216 186.848 185.261C186.526 185.307 186.191 185.33 185.842 185.33C184.763 185.33 183.905 185.066 183.268 184.54C182.632 184.009 182.314 183.199 182.314 182.108V179.256H183.967V182.108C183.967 182.521 184.043 182.856 184.195 183.114C184.346 183.371 184.562 183.561 184.842 183.682C185.123 183.803 185.456 183.864 185.842 183.864C186.354 183.864 186.825 183.816 187.257 183.722C187.693 183.623 188.14 183.491 188.598 183.324ZM190.497 180.739V179.273H197.861V180.739H195.014V188H193.355V180.739H190.497ZM200.732 191.273C200.478 191.273 200.247 191.252 200.038 191.21C199.83 191.172 199.675 191.131 199.572 191.085L199.982 189.693C200.292 189.777 200.569 189.813 200.811 189.801C201.054 189.79 201.268 189.699 201.453 189.528C201.643 189.358 201.809 189.08 201.953 188.693L202.163 188.114L198.97 179.273H200.788L202.999 186.045H203.089L205.3 179.273H207.124L203.527 189.165C203.36 189.619 203.148 190.004 202.891 190.318C202.633 190.636 202.326 190.875 201.97 191.034C201.614 191.193 201.201 191.273 200.732 191.273Z" fill="#2D3342"/>
<path d="M108.596 242.149C107.801 242.149 107.092 242.012 106.471 241.739C105.853 241.462 105.365 241.082 105.006 240.599C104.651 240.113 104.468 239.551 104.457 238.916H106.78C106.794 239.182 106.881 239.417 107.041 239.619C107.204 239.818 107.421 239.972 107.691 240.082C107.961 240.192 108.264 240.248 108.602 240.248C108.953 240.248 109.264 240.185 109.534 240.061C109.804 239.937 110.015 239.765 110.168 239.544C110.32 239.324 110.397 239.07 110.397 238.783C110.397 238.491 110.315 238.234 110.152 238.01C109.992 237.783 109.761 237.605 109.459 237.478C109.161 237.35 108.806 237.286 108.394 237.286H107.376V235.592H108.394C108.742 235.592 109.049 235.532 109.315 235.411C109.585 235.29 109.795 235.123 109.944 234.91C110.093 234.694 110.168 234.441 110.168 234.154C110.168 233.88 110.102 233.641 109.971 233.435C109.843 233.225 109.662 233.062 109.427 232.945C109.196 232.827 108.926 232.769 108.618 232.769C108.305 232.769 108.019 232.826 107.76 232.939C107.501 233.049 107.293 233.207 107.137 233.413C106.98 233.619 106.897 233.861 106.886 234.138H104.676C104.686 233.509 104.866 232.955 105.214 232.476C105.562 231.996 106.031 231.622 106.62 231.352C107.213 231.078 107.882 230.942 108.628 230.942C109.381 230.942 110.04 231.078 110.604 231.352C111.169 231.625 111.608 231.995 111.92 232.46C112.236 232.922 112.392 233.44 112.389 234.015C112.392 234.626 112.202 235.136 111.819 235.544C111.439 235.952 110.944 236.212 110.333 236.322V236.407C111.135 236.51 111.746 236.789 112.165 237.243C112.588 237.694 112.797 238.259 112.794 238.937C112.797 239.559 112.618 240.111 112.256 240.594C111.897 241.077 111.402 241.457 110.77 241.734C110.137 242.011 109.413 242.149 108.596 242.149ZM116.806 242.154C116.284 242.154 115.819 242.064 115.41 241.883C115.002 241.698 114.679 241.426 114.441 241.068C114.207 240.706 114.089 240.255 114.089 239.715C114.089 239.26 114.173 238.879 114.34 238.57C114.507 238.261 114.734 238.012 115.022 237.824C115.309 237.636 115.636 237.494 116.002 237.398C116.371 237.302 116.758 237.234 117.163 237.195C117.639 237.146 118.022 237.099 118.313 237.057C118.605 237.011 118.816 236.943 118.947 236.854C119.079 236.766 119.144 236.634 119.144 236.46V236.428C119.144 236.091 119.038 235.83 118.825 235.645C118.615 235.461 118.317 235.368 117.93 235.368C117.522 235.368 117.197 235.459 116.955 235.64C116.714 235.817 116.554 236.041 116.476 236.311L114.377 236.141C114.484 235.643 114.693 235.214 115.006 234.852C115.318 234.486 115.721 234.205 116.215 234.01C116.712 233.811 117.287 233.712 117.941 233.712C118.395 233.712 118.83 233.765 119.246 233.871C119.665 233.978 120.036 234.143 120.359 234.367C120.686 234.591 120.943 234.878 121.131 235.23C121.32 235.578 121.414 235.995 121.414 236.482V242H119.262V240.865H119.198C119.066 241.121 118.891 241.347 118.67 241.542C118.45 241.734 118.186 241.885 117.877 241.995C117.568 242.101 117.211 242.154 116.806 242.154ZM117.456 240.588C117.79 240.588 118.084 240.523 118.34 240.391C118.596 240.256 118.796 240.075 118.942 239.848C119.088 239.621 119.16 239.363 119.16 239.076V238.207C119.089 238.254 118.992 238.296 118.867 238.335C118.747 238.371 118.61 238.404 118.457 238.436C118.305 238.465 118.152 238.491 117.999 238.516C117.847 238.538 117.708 238.557 117.584 238.575C117.317 238.614 117.085 238.676 116.886 238.761C116.687 238.847 116.533 238.962 116.422 239.108C116.312 239.25 116.257 239.427 116.257 239.64C116.257 239.949 116.369 240.185 116.593 240.349C116.82 240.509 117.108 240.588 117.456 240.588ZM122.535 244.397V240.2H123.163C123.345 240.086 123.49 239.905 123.6 239.656C123.714 239.408 123.806 239.115 123.877 238.777C123.952 238.44 124.009 238.076 124.048 237.685C124.09 237.291 124.128 236.893 124.16 236.492L124.373 233.818H130.647V240.2H131.915V244.397H129.753V242H124.751V244.397H122.535ZM125.422 240.2H128.506V235.565H126.301L126.216 236.492C126.155 237.366 126.068 238.108 125.955 238.719C125.841 239.326 125.663 239.82 125.422 240.2ZM135.571 242.154C135.049 242.154 134.583 242.064 134.175 241.883C133.767 241.698 133.444 241.426 133.206 241.068C132.971 240.706 132.854 240.255 132.854 239.715C132.854 239.26 132.938 238.879 133.104 238.57C133.271 238.261 133.499 238.012 133.786 237.824C134.074 237.636 134.401 237.494 134.766 237.398C135.136 237.302 135.523 237.234 135.928 237.195C136.403 237.146 136.787 237.099 137.078 237.057C137.369 237.011 137.581 236.943 137.712 236.854C137.843 236.766 137.909 236.634 137.909 236.46V236.428C137.909 236.091 137.803 235.83 137.589 235.645C137.38 235.461 137.082 235.368 136.695 235.368C136.286 235.368 135.961 235.459 135.72 235.64C135.478 235.817 135.319 236.041 135.24 236.311L133.142 236.141C133.248 235.643 133.458 235.214 133.77 234.852C134.083 234.486 134.486 234.205 134.979 234.01C135.477 233.811 136.052 233.712 136.705 233.712C137.16 233.712 137.595 233.765 138.01 233.871C138.429 233.978 138.8 234.143 139.124 234.367C139.45 234.591 139.708 234.878 139.896 235.23C140.084 235.578 140.178 235.995 140.178 236.482V242H138.026V240.865H137.962C137.831 241.121 137.655 241.347 137.435 241.542C137.215 241.734 136.95 241.885 136.641 241.995C136.332 242.101 135.975 242.154 135.571 242.154ZM136.221 240.588C136.554 240.588 136.849 240.523 137.105 240.391C137.36 240.256 137.561 240.075 137.707 239.848C137.852 239.621 137.925 239.363 137.925 239.076V238.207C137.854 238.254 137.756 238.296 137.632 238.335C137.511 238.371 137.375 238.404 137.222 238.436C137.069 238.465 136.917 238.491 136.764 238.516C136.611 238.538 136.473 238.557 136.348 238.575C136.082 238.614 135.849 238.676 135.651 238.761C135.452 238.847 135.297 238.962 135.187 239.108C135.077 239.25 135.022 239.427 135.022 239.64C135.022 239.949 135.134 240.185 135.358 240.349C135.585 240.509 135.873 240.588 136.221 240.588ZM141.939 242V233.818H145.428C146.436 233.818 147.233 234.01 147.819 234.393C148.405 234.777 148.698 235.322 148.698 236.029C148.698 236.473 148.533 236.842 148.203 237.137C147.873 237.431 147.415 237.63 146.829 237.733C147.319 237.769 147.736 237.881 148.08 238.069C148.428 238.254 148.693 238.493 148.874 238.788C149.059 239.083 149.151 239.409 149.151 239.768C149.151 240.233 149.027 240.633 148.778 240.967C148.533 241.3 148.173 241.556 147.697 241.734C147.225 241.911 146.648 242 145.966 242H141.939ZM144.053 240.301H145.966C146.282 240.301 146.529 240.226 146.706 240.077C146.887 239.924 146.978 239.717 146.978 239.454C146.978 239.163 146.887 238.934 146.706 238.767C146.529 238.6 146.282 238.516 145.966 238.516H144.053V240.301ZM144.053 237.185H145.476C145.703 237.185 145.896 237.153 146.056 237.089C146.22 237.021 146.344 236.925 146.429 236.801C146.518 236.677 146.562 236.529 146.562 236.359C146.562 236.107 146.461 235.91 146.259 235.768C146.056 235.626 145.779 235.555 145.428 235.555H144.053V237.185ZM152.914 242.154C152.392 242.154 151.927 242.064 151.519 241.883C151.11 241.698 150.787 241.426 150.549 241.068C150.315 240.706 150.198 240.255 150.198 239.715C150.198 239.26 150.281 238.879 150.448 238.57C150.615 238.261 150.842 238.012 151.13 237.824C151.418 237.636 151.744 237.494 152.11 237.398C152.479 237.302 152.866 237.234 153.271 237.195C153.747 237.146 154.131 237.099 154.422 237.057C154.713 237.011 154.924 236.943 155.056 236.854C155.187 236.766 155.253 236.634 155.253 236.46V236.428C155.253 236.091 155.146 235.83 154.933 235.645C154.724 235.461 154.425 235.368 154.038 235.368C153.63 235.368 153.305 235.459 153.064 235.64C152.822 235.817 152.662 236.041 152.584 236.311L150.485 236.141C150.592 235.643 150.801 235.214 151.114 234.852C151.426 234.486 151.83 234.205 152.323 234.01C152.82 233.811 153.396 233.712 154.049 233.712C154.504 233.712 154.939 233.765 155.354 233.871C155.773 233.978 156.144 234.143 156.467 234.367C156.794 234.591 157.051 234.878 157.24 235.23C157.428 235.578 157.522 235.995 157.522 236.482V242H155.37V240.865H155.306C155.175 241.121 154.999 241.347 154.779 241.542C154.559 241.734 154.294 241.885 153.985 241.995C153.676 242.101 153.319 242.154 152.914 242.154ZM153.564 240.588C153.898 240.588 154.193 240.523 154.449 240.391C154.704 240.256 154.905 240.075 155.05 239.848C155.196 239.621 155.269 239.363 155.269 239.076V238.207C155.198 238.254 155.1 238.296 154.976 238.335C154.855 238.371 154.718 238.404 154.566 238.436C154.413 238.465 154.26 238.491 154.108 238.516C153.955 238.538 153.816 238.557 153.692 238.575C153.426 238.614 153.193 238.676 152.994 238.761C152.795 238.847 152.641 238.962 152.531 239.108C152.421 239.25 152.366 239.427 152.366 239.64C152.366 239.949 152.478 240.185 152.701 240.349C152.929 240.509 153.216 240.588 153.564 240.588ZM161.45 239.006L164.396 233.818H166.633V242H164.471V236.796L161.536 242H159.282V233.818H161.45V239.006ZM164.007 230.963H165.589C165.586 231.609 165.346 232.13 164.87 232.524C164.398 232.918 163.759 233.115 162.953 233.115C162.143 233.115 161.502 232.918 161.03 232.524C160.557 232.13 160.321 231.609 160.321 230.963H161.893C161.889 231.208 161.967 231.428 162.127 231.624C162.29 231.819 162.566 231.917 162.953 231.917C163.329 231.917 163.599 231.821 163.762 231.629C163.926 231.437 164.007 231.215 164.007 230.963ZM171.924 242V233.818H175.413C176.422 233.818 177.219 234.01 177.805 234.393C178.391 234.777 178.684 235.322 178.684 236.029C178.684 236.473 178.519 236.842 178.188 237.137C177.858 237.431 177.4 237.63 176.814 237.733C177.304 237.769 177.721 237.881 178.066 238.069C178.414 238.254 178.678 238.493 178.859 238.788C179.044 239.083 179.136 239.409 179.136 239.768C179.136 240.233 179.012 240.633 178.764 240.967C178.519 241.3 178.158 241.556 177.682 241.734C177.21 241.911 176.633 242 175.951 242H171.924ZM174.039 240.301H175.951C176.267 240.301 176.514 240.226 176.691 240.077C176.873 239.924 176.963 239.717 176.963 239.454C176.963 239.163 176.873 238.934 176.691 238.767C176.514 238.6 176.267 238.516 175.951 238.516H174.039V240.301ZM174.039 237.185H175.461C175.688 237.185 175.882 237.153 176.042 237.089C176.205 237.021 176.329 236.925 176.415 236.801C176.503 236.677 176.548 236.529 176.548 236.359C176.548 236.107 176.446 235.91 176.244 235.768C176.042 235.626 175.765 235.555 175.413 235.555H174.039V237.185ZM184.263 242.16C183.436 242.16 182.72 241.984 182.117 241.632C181.517 241.277 181.053 240.784 180.726 240.152C180.4 239.516 180.236 238.779 180.236 237.941C180.236 237.096 180.4 236.357 180.726 235.725C181.053 235.089 181.517 234.596 182.117 234.244C182.72 233.889 183.436 233.712 184.263 233.712C185.091 233.712 185.805 233.889 186.405 234.244C187.008 234.596 187.474 235.089 187.8 235.725C188.127 236.357 188.29 237.096 188.29 237.941C188.29 238.779 188.127 239.516 187.8 240.152C187.474 240.784 187.008 241.277 186.405 241.632C185.805 241.984 185.091 242.16 184.263 242.16ZM184.274 240.402C184.65 240.402 184.965 240.295 185.217 240.082C185.469 239.866 185.659 239.571 185.787 239.198C185.918 238.825 185.984 238.401 185.984 237.925C185.984 237.449 185.918 237.025 185.787 236.652C185.659 236.279 185.469 235.984 185.217 235.768C184.965 235.551 184.65 235.443 184.274 235.443C183.894 235.443 183.574 235.551 183.315 235.768C183.06 235.984 182.866 236.279 182.735 236.652C182.607 237.025 182.543 237.449 182.543 237.925C182.543 238.401 182.607 238.825 182.735 239.198C182.866 239.571 183.06 239.866 183.315 240.082C183.574 240.295 183.894 240.402 184.274 240.402ZM189.766 242V233.818H196.92V242H194.752V235.603H191.907V242H189.766ZM198.731 245.068V233.818H200.968V235.192H201.069C201.169 234.972 201.312 234.749 201.501 234.521C201.692 234.29 201.941 234.099 202.246 233.946C202.555 233.79 202.939 233.712 203.397 233.712C203.994 233.712 204.544 233.868 205.048 234.18C205.552 234.489 205.956 234.956 206.257 235.581C206.559 236.203 206.71 236.982 206.71 237.92C206.71 238.832 206.563 239.603 206.268 240.232C205.977 240.857 205.579 241.331 205.075 241.654C204.574 241.973 204.013 242.133 203.392 242.133C202.951 242.133 202.577 242.06 202.268 241.915C201.962 241.769 201.712 241.586 201.517 241.366C201.321 241.142 201.172 240.917 201.069 240.69H201V245.068H198.731ZM200.952 237.909C200.952 238.396 201.019 238.82 201.154 239.182C201.289 239.544 201.485 239.827 201.74 240.029C201.996 240.228 202.307 240.327 202.672 240.327C203.042 240.327 203.354 240.226 203.61 240.024C203.866 239.818 204.059 239.534 204.191 239.172C204.326 238.806 204.393 238.385 204.393 237.909C204.393 237.437 204.327 237.021 204.196 236.663C204.065 236.304 203.871 236.023 203.615 235.821C203.36 235.619 203.045 235.517 202.672 235.517C202.303 235.517 201.991 235.615 201.735 235.81C201.483 236.006 201.289 236.283 201.154 236.641C201.019 237 200.952 237.423 200.952 237.909ZM211.92 242.16C211.092 242.16 210.377 241.984 209.773 241.632C209.173 241.277 208.709 240.784 208.383 240.152C208.056 239.516 207.893 238.779 207.893 237.941C207.893 237.096 208.056 236.357 208.383 235.725C208.709 235.089 209.173 234.596 209.773 234.244C210.377 233.889 211.092 233.712 211.92 233.712C212.747 233.712 213.461 233.889 214.061 234.244C214.665 234.596 215.13 235.089 215.457 235.725C215.783 236.357 215.947 237.096 215.947 237.941C215.947 238.779 215.783 239.516 215.457 240.152C215.13 240.784 214.665 241.277 214.061 241.632C213.461 241.984 212.747 242.16 211.92 242.16ZM211.93 240.402C212.307 240.402 212.621 240.295 212.873 240.082C213.125 239.866 213.315 239.571 213.443 239.198C213.574 238.825 213.64 238.401 213.64 237.925C213.64 237.449 213.574 237.025 213.443 236.652C213.315 236.279 213.125 235.984 212.873 235.768C212.621 235.551 212.307 235.443 211.93 235.443C211.55 235.443 211.231 235.551 210.972 235.768C210.716 235.984 210.522 236.279 210.391 236.652C210.263 237.025 210.199 237.449 210.199 237.925C210.199 238.401 210.263 238.825 210.391 239.198C210.522 239.571 210.716 239.866 210.972 240.082C211.231 240.295 211.55 240.402 211.93 240.402ZM221.119 242.16C220.281 242.16 219.56 241.982 218.956 241.627C218.356 241.268 217.894 240.771 217.571 240.136C217.252 239.5 217.092 238.768 217.092 237.941C217.092 237.103 217.253 236.368 217.577 235.736C217.903 235.1 218.367 234.605 218.967 234.25C219.567 233.891 220.281 233.712 221.108 233.712C221.822 233.712 222.447 233.841 222.983 234.1C223.519 234.36 223.944 234.724 224.256 235.192C224.569 235.661 224.741 236.212 224.773 236.844H222.632C222.571 236.435 222.411 236.107 222.152 235.858C221.897 235.606 221.561 235.48 221.146 235.48C220.794 235.48 220.487 235.576 220.224 235.768C219.965 235.956 219.762 236.231 219.617 236.593C219.471 236.956 219.398 237.394 219.398 237.909C219.398 238.431 219.469 238.875 219.611 239.241C219.757 239.607 219.961 239.885 220.224 240.077C220.487 240.269 220.794 240.365 221.146 240.365C221.405 240.365 221.637 240.311 221.843 240.205C222.053 240.098 222.225 239.944 222.36 239.741C222.498 239.536 222.589 239.289 222.632 239.001H224.773C224.737 239.626 224.567 240.176 224.262 240.652C223.96 241.125 223.543 241.494 223.01 241.76C222.477 242.027 221.847 242.16 221.119 242.16Z" fill="#2D3342"/>
<g filter="url(#filter1_d_1314_8300)">
<path d="M222.065 192.501C222.369 197.63 222.254 209.903 219.539 219.627C219.426 220.03 220.164 220.584 220.599 220.427C227.218 218.041 242.418 215.782 252.098 215.674" stroke="#5955B3" stroke-width="4" stroke-linecap="round"/>
<path d="M222.07 218.624C232.808 208.845 253.502 192.982 261.739 177.935" stroke="#5955B3" stroke-width="4" stroke-linecap="round"/>
</g>
<path d="M50.5916 69.3636V81H48.1314V71.6989H48.0632L45.3984 73.3693V71.1875L48.2791 69.3636H50.5916Z" fill="black"/>
<path d="M50.2948 89.7443C49.7086 89.6572 35.5161 87.764 36.1072 74.5622C36.1615 73.3493 36.3128 72.2459 36.548 71.2456M50.2948 89.7443C42.5158 89.2303 38.5629 86.1831 36.7938 82.531M50.2948 89.7443C51.236 89.884 52.2066 89.8729 53.1668 89.7209M36.548 71.2456C36.8424 69.9933 37.2682 68.9028 37.7997 67.9613M36.548 71.2456C35.4882 74.1811 34.9335 78.6905 36.7938 82.531M37.7997 67.9613C42.157 60.2432 53.6162 62.549 57.9797 67.9613C59.692 70.0869 63.2804 75.4774 61.5317 82.2156C60.4355 86.4394 56.879 89.1331 53.1668 89.7209M37.7997 67.9613C36.1417 70.2905 33.7361 75.745 35.7927 80.6916M36.7938 82.531C36.3822 81.9308 36.052 81.3152 35.7927 80.6916M53.1668 89.7209C48.2581 90.5748 37.911 89.9644 35.7927 80.6916" stroke="#5A56B4" stroke-width="3" stroke-linecap="round"/>
<path d="M26.4041 170V168.227L30.5462 164.392C30.8984 164.051 31.1939 163.744 31.4325 163.472C31.675 163.199 31.8587 162.932 31.9837 162.67C32.1087 162.405 32.1712 162.119 32.1712 161.812C32.1712 161.472 32.0935 161.178 31.9382 160.932C31.7829 160.682 31.5708 160.491 31.3018 160.358C31.0329 160.222 30.728 160.153 30.3871 160.153C30.031 160.153 29.7204 160.225 29.4553 160.369C29.1901 160.513 28.9856 160.72 28.8416 160.989C28.6977 161.258 28.6257 161.578 28.6257 161.949H26.2905C26.2905 161.187 26.4628 160.527 26.8075 159.966C27.1522 159.405 27.6352 158.972 28.2564 158.665C28.8776 158.358 29.5935 158.205 30.4041 158.205C31.2375 158.205 31.9628 158.352 32.5803 158.648C33.2015 158.939 33.6844 159.345 34.0291 159.864C34.3738 160.383 34.5462 160.977 34.5462 161.648C34.5462 162.087 34.459 162.521 34.2848 162.949C34.1143 163.377 33.8094 163.852 33.37 164.375C32.9306 164.894 32.3113 165.517 31.5121 166.244L29.8132 167.909V167.989H34.6996V170H26.4041Z" fill="black"/>
<path d="M32.2948 176.744C31.7086 176.657 17.5161 174.764 18.1072 161.562C18.1615 160.349 18.3128 159.246 18.548 158.246M32.2948 176.744C24.5158 176.23 20.5629 173.183 18.7938 169.531M32.2948 176.744C33.236 176.884 34.2066 176.873 35.1668 176.721M18.548 158.246C18.8424 156.993 19.2682 155.903 19.7997 154.961M18.548 158.246C17.4882 161.181 16.9335 165.69 18.7938 169.531M19.7997 154.961C24.157 147.243 35.6162 149.549 39.9797 154.961C41.692 157.087 45.2804 162.477 43.5317 169.216C42.4355 173.439 38.879 176.133 35.1668 176.721M19.7997 154.961C18.1417 157.29 15.7361 162.745 17.7927 167.692M18.7938 169.531C18.3822 168.931 18.052 168.315 17.7927 167.692M35.1668 176.721C30.258 177.575 19.911 176.964 17.7927 167.692" stroke="#5A56B4" stroke-width="3" stroke-linecap="round"/>
<path d="M85.4709 242.159C84.6224 242.159 83.8667 242.013 83.2038 241.722C82.5447 241.426 82.0239 241.021 81.6413 240.506C81.2625 239.987 81.0675 239.388 81.0561 238.71H83.5334C83.5485 238.994 83.6413 239.244 83.8118 239.46C83.986 239.672 84.2171 239.837 84.505 239.955C84.7929 240.072 85.1167 240.131 85.4766 240.131C85.8516 240.131 86.183 240.064 86.4709 239.932C86.7588 239.799 86.9841 239.616 87.147 239.381C87.3099 239.146 87.3913 238.875 87.3913 238.568C87.3913 238.258 87.3042 237.983 87.13 237.744C86.9595 237.502 86.7133 237.312 86.3913 237.176C86.0732 237.04 85.6944 236.972 85.255 236.972H84.1697V235.165H85.255C85.6262 235.165 85.9538 235.1 86.2379 234.972C86.5258 234.843 86.7493 234.665 86.9084 234.438C87.0675 234.206 87.147 233.938 87.147 233.631C87.147 233.339 87.0769 233.083 86.9368 232.864C86.8004 232.64 86.6072 232.466 86.3572 232.341C86.111 232.216 85.8232 232.153 85.4936 232.153C85.1603 232.153 84.8554 232.214 84.5788 232.335C84.3023 232.453 84.0807 232.621 83.9141 232.841C83.7474 233.061 83.6584 233.318 83.647 233.614H81.2891C81.3004 232.943 81.4917 232.352 81.8629 231.841C82.2341 231.33 82.7341 230.93 83.3629 230.642C83.9955 230.35 84.7095 230.205 85.505 230.205C86.308 230.205 87.0107 230.35 87.6129 230.642C88.2152 230.934 88.683 231.328 89.0163 231.824C89.3535 232.316 89.5201 232.869 89.5163 233.483C89.5201 234.134 89.3175 234.678 88.9084 235.114C88.5031 235.549 87.9747 235.826 87.3232 235.943V236.034C88.1792 236.144 88.8307 236.441 89.2777 236.926C89.7285 237.407 89.9519 238.009 89.9482 238.733C89.9519 239.396 89.7607 239.985 89.3743 240.5C88.9917 241.015 88.4633 241.42 87.7891 241.716C87.1148 242.011 86.3421 242.159 85.4709 242.159Z" fill="black"/>
<path d="M87.2948 248.744C86.7086 248.657 72.5161 246.764 73.1072 233.562C73.1615 232.349 73.3128 231.246 73.548 230.246M87.2948 248.744C79.5158 248.23 75.5629 245.183 73.7938 241.531M87.2948 248.744C88.236 248.884 89.2066 248.873 90.1668 248.721M73.548 230.246C73.8424 228.993 74.2682 227.903 74.7997 226.961M73.548 230.246C72.4882 233.181 71.9335 237.69 73.7938 241.531M74.7997 226.961C79.157 219.243 90.6162 221.549 94.9797 226.961C96.692 229.087 100.28 234.477 98.5317 241.216C97.4355 245.439 93.879 248.133 90.1668 248.721M74.7997 226.961C73.1417 229.29 70.7361 234.745 72.7927 239.692M73.7938 241.531C73.3822 240.931 73.052 240.315 72.7927 239.692M90.1668 248.721C85.258 249.575 74.911 248.964 72.7927 239.692" stroke="#5A56B4" stroke-width="3" stroke-linecap="round"/>
<defs>
<filter id="filter0_d_1314_8300" x="56.0283" y="92.8291" width="49.3418" height="50.084" filterUnits="userSpaceOnUse" color-interpolation-filters="sRGB">
<feFlood flood-opacity="0" result="BackgroundImageFix"/>
<feColorMatrix in="SourceAlpha" type="matrix" values="0 0 0 0 0 0 0 0 0 0 0 0 0 0 0 0 0 0 127 0" result="hardAlpha"/>
<feOffset dy="4"/>
<feGaussianBlur stdDeviation="1"/>
<feComposite in2="hardAlpha" operator="out"/>
<feColorMatrix type="matrix" values="0 0 0 0 0 0 0 0 0 0 0 0 0 0 0 0 0 0 0.14 0"/>
<feBlend mode="normal" in2="BackgroundImageFix" result="effect1_dropShadow_1314_8300"/>
<feBlend mode="normal" in="SourceGraphic" in2="effect1_dropShadow_1314_8300" result="shape"/>
</filter>
<filter id="filter1_d_1314_8300" x="211.6" y="175.935" width="58.1145" height="53.9195" filterUnits="userSpaceOnUse" color-interpolation-filters="sRGB">
<feFlood flood-opacity="0" result="BackgroundImageFix"/>
<feColorMatrix in="SourceAlpha" type="matrix" values="0 0 0 0 0 0 0 0 0 0 0 0 0 0 0 0 0 0 127 0" result="hardAlpha"/>
<feOffset dy="4"/>
<feGaussianBlur stdDeviation="1.7"/>
<feComposite in2="hardAlpha" operator="out"/>
<feColorMatrix type="matrix" values="0 0 0 0 0 0 0 0 0 0 0 0 0 0 0 0 0 0 0.11 0"/>
<feBlend mode="normal" in2="BackgroundImageFix" result="effect1_dropShadow_1314_8300"/>
<feBlend mode="normal" in="SourceGraphic" in2="effect1_dropShadow_1314_8300" result="shape"/>
</filter>
<linearGradient id="paint0_linear_1314_8300" x1="144.515" y1="13" x2="170.555" y2="50.9792" gradientUnits="userSpaceOnUse">
<stop stop-color="#5955B3"/>
<stop offset="1" stop-color="#6563CE"/>
</linearGradient>
</defs>
</svg>
