<svg width="325" height="290" viewBox="0 0 325 290" fill="none" xmlns="http://www.w3.org/2000/svg">
<rect width="325" height="290" rx="5" fill="white"/>
<path opacity="0.2" fill-rule="evenodd" clip-rule="evenodd" d="M324.665 270.066C324.629 281.048 315.744 289.945 304.767 290H171.145C177.237 276.125 202.685 248.375 255.738 248.375C308.791 248.375 323.795 226.792 324.665 216V270.066Z" fill="#89AFFF"/>
<path opacity="0.2" fill-rule="evenodd" clip-rule="evenodd" d="M149.339 0C147.452 10.542 135.894 40.1867 88.2784 53.6336C42.0804 66.6801 11.6464 62.1933 0.329229 57.9765L0.329287 20C0.329286 8.95432 9.28355 1.09491e-05 20.3293 1.00856e-05L149.339 0Z" fill="#89AFFF"/>
<path d="M127.857 35.7273L127.413 52.0227H123.254L122.8 35.7273H127.857ZM125.334 59.2955C124.584 59.2955 123.94 59.0303 123.402 58.5C122.864 57.9621 122.599 57.3182 122.607 56.5682C122.599 55.8258 122.864 55.1894 123.402 54.6591C123.94 54.1288 124.584 53.8636 125.334 53.8636C126.054 53.8636 126.686 54.1288 127.232 54.6591C127.777 55.1894 128.054 55.8258 128.061 56.5682C128.054 57.0682 127.921 57.5265 127.663 57.9432C127.413 58.3523 127.084 58.6818 126.675 58.9318C126.266 59.1742 125.819 59.2955 125.334 59.2955ZM130.889 27.76V25.52L138.441 23.28V25.584L130.889 27.76ZM130.889 31.12V28.88L138.441 26.64V28.944L130.889 31.12ZM140.66 59.16C138.676 59.16 137.14 58.9573 136.052 58.552C134.985 58.1467 134.228 57.5173 133.78 56.664C133.353 55.7893 133.118 54.6907 133.076 53.368L132.404 35.576H136.884L137.556 51.224C137.598 52.2053 137.705 52.9413 137.876 53.432C138.046 53.9227 138.366 54.2533 138.836 54.424C139.305 54.5947 140.02 54.68 140.98 54.68C141.769 54.68 142.345 54.8933 142.708 55.32C143.07 55.7253 143.252 56.2373 143.252 56.856C143.252 57.5173 143.028 58.072 142.58 58.52C142.132 58.9467 141.492 59.16 140.66 59.16ZM140.703 59.16L141.023 54.68C141.834 54.68 142.474 54.6053 142.943 54.456C143.434 54.3067 143.818 54.008 144.095 53.56C144.394 53.0907 144.639 52.408 144.831 51.512C145.044 50.616 145.258 49.4213 145.471 47.928L149.663 48.632C149.578 49.1227 149.482 49.7093 149.375 50.392C149.268 51.0747 149.215 51.704 149.215 52.28C149.215 52.792 149.322 53.2293 149.535 53.592C149.77 53.9547 150.175 54.232 150.751 54.424C151.348 54.5947 152.202 54.68 153.311 54.68C154.122 54.68 154.698 54.8933 155.039 55.32C155.38 55.7253 155.551 56.2373 155.551 56.856C155.551 57.5173 155.327 58.072 154.879 58.52C154.452 58.9467 153.823 59.16 152.991 59.16C151.284 59.16 149.951 58.9787 148.991 58.616C148.052 58.2533 147.38 57.6027 146.975 56.664C146.186 57.7733 145.247 58.4667 144.159 58.744C143.092 59.0213 141.94 59.16 140.703 59.16ZM146.399 66.52C145.78 66.52 145.247 66.3067 144.799 65.88C144.372 65.4533 144.159 64.9307 144.159 64.312C144.159 63.6933 144.372 63.1493 144.799 62.68C145.247 62.232 145.78 62.008 146.399 62.008C146.996 62.008 147.519 62.232 147.967 62.68C148.415 63.1493 148.639 63.6933 148.639 64.312C148.639 64.9307 148.415 65.4533 147.967 65.88C147.519 66.3067 146.996 66.52 146.399 66.52ZM152.984 59.16L153.304 54.68C155.608 54.68 157.848 54.424 160.024 53.912C162.2 53.4 164.131 52.5787 165.816 51.448C164.835 50.872 163.747 50.424 162.552 50.104C161.379 49.784 160.088 49.624 158.68 49.624C158.147 49.624 157.592 49.656 157.016 49.72C156.462 49.7627 155.896 49.848 155.32 49.976L154.68 45.592C155.299 45.4427 155.95 45.3253 156.632 45.24C157.315 45.1547 157.934 45.112 158.488 45.112C159.939 45.112 161.24 45.304 162.392 45.688C163.544 46.072 164.59 46.52 165.528 47.032C166.488 47.544 167.374 47.992 168.184 48.376C169.016 48.76 169.827 48.952 170.616 48.952H171.8L172.312 53.208C171.374 53.272 170.51 53.4533 169.72 53.752C168.931 54.0507 168.142 54.4347 167.352 54.904C166.584 55.352 165.752 55.8213 164.856 56.312C163.982 56.8027 162.99 57.2613 161.88 57.688C160.771 58.1147 159.491 58.4667 158.04 58.744C156.59 59.0213 154.904 59.16 152.984 59.16ZM172.34 66.392L170.708 62.424C172.223 61.8907 173.567 61.2613 174.74 60.536C175.913 59.832 176.831 59.0213 177.492 58.104C178.175 57.1653 178.516 56.12 178.516 54.968C178.516 54.072 178.313 53.0907 177.908 52.024C177.503 50.9573 177.012 49.8693 176.436 48.76L180.628 46.744C180.991 47.4053 181.321 48.12 181.62 48.888C181.919 49.6347 182.164 50.3067 182.356 50.904C182.548 51.5013 182.676 51.9067 182.74 52.12C183.039 53.144 183.444 53.8267 183.956 54.168C184.489 54.5093 185.343 54.68 186.516 54.68C187.305 54.68 187.881 54.8933 188.244 55.32C188.607 55.7253 188.788 56.2373 188.788 56.856C188.788 57.5173 188.564 58.072 188.116 58.52C187.668 58.9467 187.028 59.16 186.196 59.16C184.575 59.16 183.337 58.7227 182.484 57.848C182.121 59.1707 181.428 60.3867 180.404 61.496C179.401 62.6267 178.196 63.608 176.788 64.44C175.38 65.272 173.897 65.9227 172.34 66.392ZM186.234 59.16L186.554 54.68C187.024 54.68 187.44 54.5627 187.802 54.328C188.165 54.072 188.538 53.656 188.922 53.08C189.306 52.504 189.754 51.704 190.266 50.68C191.226 48.76 192.24 47.448 193.306 46.744C194.394 46.0187 195.504 45.656 196.634 45.656C197.893 45.656 199.024 46.008 200.026 46.712C201.029 47.416 201.818 48.3333 202.394 49.464C202.97 50.5733 203.258 51.7573 203.258 53.016C203.258 54.1467 203.013 55.1707 202.522 56.088C202.053 56.984 201.392 57.6987 200.538 58.232C199.706 58.744 198.746 59 197.658 59C196.848 59 195.92 58.8827 194.874 58.648C193.829 58.4133 192.73 57.9227 191.578 57.176C190.917 57.9227 190.181 58.4453 189.37 58.744C188.56 59.0213 187.514 59.16 186.234 59.16ZM196.506 50.136C195.888 50.136 195.397 50.4453 195.034 51.064C194.672 51.6827 194.245 52.504 193.754 53.528C194.416 53.8693 195.024 54.1253 195.578 54.296C196.154 54.4453 196.645 54.52 197.05 54.52C197.69 54.52 198.16 54.424 198.458 54.232C198.757 54.04 198.906 53.6987 198.906 53.208C198.906 52.76 198.8 52.3013 198.586 51.832C198.373 51.3627 198.085 50.968 197.722 50.648C197.36 50.3067 196.954 50.136 196.506 50.136Z" fill="url(#paint0_linear_1395_7130)"/>
<path d="M39.4827 124.08C39.3094 124.08 39.1161 124.047 38.9027 123.98C38.6894 123.9 38.5027 123.767 38.3427 123.58C38.1827 123.38 38.1027 123.107 38.1027 122.76C38.1027 122.44 38.1694 122.093 38.3027 121.72C38.4361 121.347 38.6027 120.973 38.8027 120.6C39.0027 120.213 39.2027 119.86 39.4027 119.54L40.6027 120.16C40.4027 120.533 40.2161 120.92 40.0427 121.32C39.8827 121.72 39.7961 121.973 39.7827 122.08C40.0894 122.16 40.3094 122.287 40.4427 122.46C40.5894 122.633 40.6627 122.807 40.6627 122.98C40.6627 123.273 40.5694 123.533 40.3827 123.76C40.1961 123.973 39.8961 124.08 39.4827 124.08ZM50.6652 124.42C48.2919 124.42 46.4986 124.113 45.2852 123.5C44.0719 122.873 43.4652 121.827 43.4652 120.36C43.4652 119.867 43.5252 119.347 43.6452 118.8C43.7652 118.24 43.8919 117.713 44.0252 117.22L45.5252 117.6C45.4452 117.893 45.3519 118.267 45.2452 118.72C45.1519 119.173 45.1052 119.567 45.1052 119.9C45.1052 120.593 45.2786 121.153 45.6252 121.58C45.9852 121.993 46.6052 122.3 47.4852 122.5C48.3652 122.687 49.5986 122.78 51.1852 122.78C54.2919 122.78 56.5586 122.613 57.9852 122.28C59.4252 121.933 60.1452 121.3 60.1452 120.38C60.1452 119.887 60.0519 119.307 59.8652 118.64C59.6786 117.96 59.4386 117.24 59.1452 116.48L60.6852 115.94C60.9386 116.593 61.1719 117.293 61.3852 118.04C61.6119 118.787 61.7252 119.46 61.7252 120.06C61.7252 120.847 61.5452 121.52 61.1852 122.08C60.8252 122.627 60.2252 123.073 59.3852 123.42C58.5452 123.767 57.4119 124.02 55.9852 124.18C54.5719 124.34 52.7986 124.42 50.6652 124.42ZM52.5852 128.22C52.3052 128.22 52.0652 128.12 51.8652 127.92C51.6786 127.733 51.5852 127.507 51.5852 127.24C51.5852 126.973 51.6786 126.74 51.8652 126.54C52.0652 126.34 52.3052 126.24 52.5852 126.24C52.8519 126.24 53.0786 126.34 53.2652 126.54C53.4652 126.74 53.5652 126.973 53.5652 127.24C53.5652 127.507 53.4652 127.733 53.2652 127.92C53.0786 128.12 52.8519 128.22 52.5852 128.22ZM65.5685 124.1C65.2085 124.1 64.8418 124.067 64.4685 124C64.1085 123.947 63.8552 123.907 63.7085 123.88L63.9285 122.3C65.1285 122.46 66.2218 122.447 67.2085 122.26C68.2085 122.06 69.0018 121.573 69.5885 120.8C69.0685 119.947 68.2885 118.913 67.2485 117.7C66.2085 116.473 64.9685 115.213 63.5285 113.92L64.6085 112.78C66.0218 114.113 67.1885 115.32 68.1085 116.4C69.0285 117.48 69.7685 118.42 70.3285 119.22C70.4885 118.647 70.5818 117.993 70.6085 117.26L70.3285 109.72H71.9685L72.3685 120.02C72.3952 120.673 72.4552 121.18 72.5485 121.54C72.6552 121.887 72.8818 122.127 73.2285 122.26C73.5885 122.393 74.1485 122.46 74.9085 122.46C75.1885 122.46 75.3885 122.54 75.5085 122.7C75.6418 122.847 75.7085 123.027 75.7085 123.24C75.7085 123.453 75.6152 123.653 75.4285 123.84C75.2418 124.013 75.0018 124.1 74.7085 124.1C73.7752 124.1 73.0352 124.013 72.4885 123.84C71.9418 123.653 71.5418 123.373 71.2885 123C71.0352 122.613 70.8685 122.12 70.7885 121.52C70.3752 122.253 69.8685 122.807 69.2685 123.18C68.6685 123.553 68.0418 123.8 67.3885 123.92C66.7485 124.04 66.1418 124.1 65.5685 124.1ZM74.7012 124.1L74.9012 122.46H75.9012C76.1145 122.127 76.3412 121.8 76.5812 121.48L76.2012 109.72H77.8212L78.1812 119.6C78.9945 118.773 79.8812 118.073 80.8412 117.5C81.8145 116.913 82.8012 116.62 83.8012 116.62C84.5345 116.62 85.1612 116.773 85.6812 117.08C86.2145 117.373 86.6212 117.773 86.9012 118.28C87.1945 118.787 87.3412 119.36 87.3412 120C87.3412 120.627 87.1145 121.26 86.6612 121.9C86.2078 122.527 85.4278 123.02 84.3212 123.38C83.4678 123.66 82.4412 123.853 81.2412 123.96C80.0412 124.053 78.5612 124.1 76.8012 124.1H74.7012ZM83.6812 118.26C83.1078 118.26 82.5278 118.4 81.9412 118.68C81.3678 118.96 80.8145 119.32 80.2812 119.76C79.7478 120.187 79.2612 120.647 78.8212 121.14C78.3812 121.62 78.0145 122.06 77.7212 122.46H79.0812C81.4012 122.46 83.1012 122.26 84.1812 121.86C85.2612 121.46 85.8012 120.833 85.8012 119.98C85.8012 119.753 85.7278 119.507 85.5812 119.24C85.4345 118.973 85.2012 118.747 84.8812 118.56C84.5745 118.36 84.1745 118.26 83.6812 118.26ZM88.9012 124.1C88.5545 124.1 88.1145 124.067 87.5812 124C87.0612 123.92 86.5278 123.787 85.9812 123.6C85.4478 123.413 84.9945 123.153 84.6212 122.82L86.2612 122C86.7278 122.187 87.2078 122.313 87.7012 122.38C88.2078 122.433 88.6745 122.46 89.1012 122.46C89.3812 122.46 89.5812 122.54 89.7012 122.7C89.8345 122.847 89.9012 123.027 89.9012 123.24C89.9012 123.453 89.8078 123.653 89.6212 123.84C89.4345 124.013 89.1945 124.1 88.9012 124.1ZM88.9004 124.1L89.0804 122.46C89.8404 122.46 90.3737 122.387 90.6804 122.24C90.9871 122.093 91.1604 121.84 91.2004 121.48C91.2537 121.107 91.2671 120.58 91.2404 119.9L90.8604 109.72H92.4804L92.8804 119.72C92.9204 120.667 92.8537 121.467 92.6804 122.12C92.5204 122.773 92.1471 123.267 91.5604 123.6C90.9871 123.933 90.1004 124.1 88.9004 124.1ZM95.9357 124L95.5357 109.72H97.1557L97.5557 124H95.9357ZM108.194 124C107.208 124 106.388 123.747 105.734 123.24C105.081 122.72 104.754 121.92 104.754 120.84C104.754 120.307 104.941 119.647 105.314 118.86C105.701 118.06 106.368 117.22 107.314 116.34L106.734 115.82L107.774 114.58C108.468 115.127 109.108 115.713 109.694 116.34C110.281 116.967 110.754 117.633 111.114 118.34C111.474 119.047 111.654 119.793 111.654 120.58C111.654 120.887 111.601 121.233 111.494 121.62C111.388 122.007 111.208 122.387 110.954 122.76C110.701 123.12 110.348 123.42 109.894 123.66C109.441 123.887 108.874 124 108.194 124ZM108.194 122.36C108.861 122.36 109.368 122.193 109.714 121.86C110.061 121.513 110.234 121.06 110.234 120.5C110.234 120.193 110.188 119.873 110.094 119.54C110.001 119.207 109.814 118.847 109.534 118.46C109.254 118.06 108.834 117.62 108.274 117.14C107.661 117.74 107.181 118.36 106.834 119C106.501 119.64 106.334 120.2 106.334 120.68C106.334 121.24 106.508 121.66 106.854 121.94C107.214 122.22 107.661 122.36 108.194 122.36ZM109.714 112.8C109.434 112.8 109.194 112.707 108.994 112.52C108.808 112.32 108.714 112.087 108.714 111.82C108.714 111.553 108.808 111.32 108.994 111.12C109.194 110.92 109.434 110.82 109.714 110.82C109.981 110.82 110.208 110.92 110.394 111.12C110.594 111.32 110.694 111.553 110.694 111.82C110.694 112.087 110.594 112.32 110.394 112.52C110.208 112.707 109.981 112.8 109.714 112.8ZM106.974 112.8C106.694 112.8 106.454 112.707 106.254 112.52C106.068 112.32 105.974 112.087 105.974 111.82C105.974 111.553 106.068 111.32 106.254 111.12C106.454 110.92 106.694 110.82 106.974 110.82C107.241 110.82 107.468 110.92 107.654 111.12C107.854 111.32 107.954 111.553 107.954 111.82C107.954 112.087 107.854 112.32 107.654 112.52C107.468 112.707 107.241 112.8 106.974 112.8ZM116.56 122.46C117.546 122.46 118.246 122.313 118.66 122.02C119.073 121.713 119.28 121.293 119.28 120.76C119.28 120.413 119.16 119.967 118.92 119.42C118.68 118.873 118.36 118.267 117.96 117.6C117.573 116.92 117.14 116.227 116.66 115.52L118.04 114.62C118.813 115.807 119.44 116.893 119.92 117.88C120.413 118.853 120.78 119.733 121.02 120.52C121.206 121.107 121.413 121.54 121.64 121.82C121.88 122.1 122.126 122.28 122.38 122.36C122.633 122.427 122.866 122.46 123.08 122.46C123.36 122.46 123.566 122.54 123.7 122.7C123.833 122.847 123.9 123.027 123.9 123.24C123.9 123.453 123.806 123.653 123.62 123.84C123.433 124.013 123.193 124.1 122.9 124.1C122.38 124.1 121.88 123.987 121.4 123.76C120.92 123.533 120.533 123.147 120.24 122.6C119.973 123.04 119.546 123.407 118.96 123.7C118.386 123.98 117.586 124.12 116.56 124.12C115.826 124.12 115.146 124.033 114.52 123.86C113.893 123.673 113.373 123.42 112.96 123.1L113.76 121.72C114.026 121.907 114.4 122.08 114.88 122.24C115.36 122.387 115.92 122.46 116.56 122.46ZM122.904 124.1L123.104 122.46C123.944 122.46 124.591 122.453 125.044 122.44C125.511 122.427 125.851 122.413 126.064 122.4C126.278 122.373 126.424 122.36 126.504 122.36C126.264 122.227 125.984 122.02 125.664 121.74C125.344 121.447 125.064 121.08 124.824 120.64C124.584 120.187 124.464 119.653 124.464 119.04C124.464 118.293 124.638 117.633 124.984 117.06C125.344 116.473 125.831 116.02 126.444 115.7C127.071 115.38 127.784 115.22 128.584 115.22C129.224 115.22 129.884 115.327 130.564 115.54L130.224 117.08C129.664 116.933 129.118 116.86 128.584 116.86C127.851 116.86 127.251 117.06 126.784 117.46C126.331 117.847 126.104 118.373 126.104 119.04C126.104 119.48 126.218 119.873 126.444 120.22C126.671 120.553 126.951 120.84 127.284 121.08C127.631 121.307 127.984 121.48 128.344 121.6C128.718 121.72 129.051 121.773 129.344 121.76C129.558 121.693 129.751 121.633 129.924 121.58C130.111 121.513 130.338 121.427 130.604 121.32C130.884 121.213 131.284 121.04 131.804 120.8L132.364 122.26C131.471 122.62 130.558 122.94 129.624 123.22C128.704 123.5 127.698 123.72 126.604 123.88C125.524 124.027 124.291 124.1 122.904 124.1ZM138.783 124.1C137.703 124.1 136.883 123.98 136.323 123.74C135.763 123.5 135.376 123.127 135.163 122.62C134.95 122.113 134.83 121.46 134.803 120.66L134.403 109.72H136.043L136.443 120.02C136.47 120.673 136.53 121.18 136.623 121.54C136.73 121.887 136.956 122.127 137.303 122.26C137.663 122.393 138.223 122.46 138.983 122.46C139.263 122.46 139.463 122.54 139.583 122.7C139.716 122.847 139.783 123.027 139.783 123.24C139.783 123.453 139.69 123.653 139.503 123.84C139.316 124.013 139.076 124.1 138.783 124.1ZM138.783 124.1L138.983 122.46C139.41 122.46 139.757 122.433 140.023 122.38C140.29 122.313 140.51 122.16 140.683 121.92C140.87 121.667 141.043 121.273 141.203 120.74C141.363 120.207 141.55 119.46 141.763 118.5L143.263 118.92C143.183 119.267 143.09 119.673 142.983 120.14C142.877 120.607 142.823 121.027 142.823 121.4C142.823 121.733 142.95 121.993 143.203 122.18C143.457 122.367 143.917 122.46 144.583 122.46C144.983 122.46 145.31 122.427 145.563 122.36C145.817 122.293 146.023 122.133 146.183 121.88C146.357 121.627 146.51 121.227 146.643 120.68C146.777 120.12 146.917 119.347 147.063 118.36L148.583 118.64C148.543 118.88 148.49 119.173 148.423 119.52C148.37 119.867 148.323 120.213 148.283 120.56C148.243 120.893 148.223 121.173 148.223 121.4C148.223 121.587 148.263 121.767 148.343 121.94C148.437 122.1 148.61 122.227 148.863 122.32C149.13 122.413 149.523 122.46 150.043 122.46C150.71 122.46 151.19 122.327 151.483 122.06C151.79 121.78 151.943 121.347 151.943 120.76C151.943 120.307 151.93 119.807 151.903 119.26C151.877 118.713 151.81 118.027 151.703 117.2L153.163 117.1C153.243 118.18 153.33 119.067 153.423 119.76C153.53 120.453 153.677 121 153.863 121.4C154.063 121.787 154.33 122.06 154.663 122.22C154.997 122.38 155.437 122.46 155.983 122.46C156.263 122.46 156.463 122.54 156.583 122.7C156.717 122.847 156.783 123.027 156.783 123.24C156.783 123.453 156.69 123.653 156.503 123.84C156.317 124.013 156.077 124.1 155.783 124.1C155.037 124.1 154.417 123.933 153.923 123.6C153.443 123.267 153.09 122.847 152.863 122.34C152.597 123.047 152.19 123.52 151.643 123.76C151.11 123.987 150.517 124.1 149.863 124.1C149.183 124.1 148.643 124.007 148.243 123.82C147.857 123.62 147.57 123.32 147.383 122.92C147.063 123.4 146.677 123.72 146.223 123.88C145.783 124.027 145.157 124.1 144.343 124.1C144.063 124.1 143.763 124.067 143.443 124C143.137 123.933 142.85 123.807 142.583 123.62C142.317 123.42 142.11 123.127 141.963 122.74C141.617 123.327 141.183 123.7 140.663 123.86C140.157 124.02 139.53 124.1 138.783 124.1ZM155.775 124.1L155.975 122.46C156.349 122.46 156.642 122.38 156.855 122.22C157.082 122.06 157.295 121.8 157.495 121.44C157.709 121.067 157.975 120.56 158.295 119.92C158.722 119.067 159.149 118.413 159.575 117.96C160.015 117.507 160.429 117.193 160.815 117.02C161.215 116.847 161.575 116.76 161.895 116.76C162.335 116.76 162.729 116.86 163.075 117.06C163.422 117.247 163.742 117.573 164.035 118.04C164.342 118.493 164.662 119.12 164.995 119.92C165.302 120.667 165.575 121.22 165.815 121.58C166.069 121.94 166.329 122.18 166.595 122.3C166.875 122.407 167.189 122.46 167.535 122.46C167.815 122.46 168.015 122.54 168.135 122.7C168.269 122.847 168.335 123.027 168.335 123.24C168.335 123.453 168.242 123.653 168.055 123.84C167.869 124.013 167.629 124.1 167.335 124.1C166.815 124.1 166.335 124.02 165.895 123.86C165.469 123.687 165.129 123.427 164.875 123.08C164.622 123.533 164.302 123.86 163.915 124.06C163.542 124.273 163.135 124.38 162.695 124.38C162.029 124.38 161.349 124.173 160.655 123.76C159.962 123.333 159.375 122.773 158.895 122.08C158.549 122.693 158.215 123.147 157.895 123.44C157.589 123.72 157.262 123.9 156.915 123.98C156.582 124.06 156.202 124.1 155.775 124.1ZM159.655 120.56C160.109 121.32 160.615 121.88 161.175 122.24C161.735 122.587 162.235 122.76 162.675 122.76C163.142 122.76 163.482 122.593 163.695 122.26C163.922 121.927 163.915 121.46 163.675 120.86C163.515 120.46 163.349 120.067 163.175 119.68C163.002 119.293 162.802 118.98 162.575 118.74C162.349 118.487 162.082 118.36 161.775 118.36C161.482 118.373 161.162 118.533 160.815 118.84C160.469 119.147 160.082 119.72 159.655 120.56ZM167.338 124.1L167.518 122.46C168.278 122.46 168.811 122.387 169.118 122.24C169.425 122.093 169.598 121.84 169.638 121.48C169.691 121.107 169.705 120.58 169.678 119.9L169.298 109.72H170.918L171.318 119.72C171.358 120.667 171.291 121.467 171.118 122.12C170.958 122.773 170.585 123.267 169.998 123.6C169.425 123.933 168.538 124.1 167.338 124.1ZM178.426 124.02C178.426 123.54 178.493 123.007 178.626 122.42C178.76 121.833 178.973 121.187 179.266 120.48L180.706 121.04C180.493 121.6 180.333 122.113 180.226 122.58C180.12 123.047 180.066 123.48 180.066 123.88C180.066 124.56 180.246 125.133 180.606 125.6C180.966 126.067 181.433 126.413 182.006 126.64C182.593 126.88 183.22 127 183.886 127C185.18 127 186.193 126.767 186.926 126.3C187.673 125.847 188.186 125.24 188.466 124.48C188.76 123.733 188.893 122.913 188.866 122.02L188.426 109.72H190.086L190.406 119.86C190.42 120.54 190.526 121.073 190.726 121.46C190.926 121.833 191.193 122.093 191.526 122.24C191.86 122.387 192.226 122.46 192.626 122.46C192.906 122.46 193.106 122.54 193.226 122.7C193.36 122.847 193.426 123.027 193.426 123.24C193.426 123.453 193.333 123.653 193.146 123.84C192.96 124.013 192.72 124.1 192.426 124.1C191.933 124.1 191.526 124.027 191.206 123.88C190.9 123.72 190.653 123.527 190.466 123.3C190.373 123.967 190.186 124.613 189.906 125.24C189.64 125.88 189.246 126.453 188.726 126.96C188.206 127.48 187.54 127.887 186.726 128.18C185.926 128.487 184.946 128.64 183.786 128.64C182.853 128.64 181.98 128.453 181.166 128.08C180.353 127.72 179.693 127.193 179.186 126.5C178.68 125.82 178.426 124.993 178.426 124.02ZM192.436 124.1L192.636 122.46C193.302 122.46 193.822 122.413 194.196 122.32C194.569 122.213 194.849 122.02 195.036 121.74C195.236 121.447 195.396 121.027 195.516 120.48C195.636 119.933 195.782 119.22 195.956 118.34L197.516 118.64C197.436 119 197.342 119.413 197.236 119.88C197.142 120.347 197.096 120.74 197.096 121.06C197.096 121.26 197.109 121.447 197.136 121.62C197.162 121.793 197.262 121.94 197.436 122.06C197.609 122.18 197.902 122.28 198.316 122.36C198.729 122.427 199.322 122.46 200.096 122.46C200.376 122.46 200.576 122.54 200.696 122.7C200.829 122.847 200.896 123.027 200.896 123.24C200.896 123.453 200.802 123.653 200.616 123.84C200.429 124.013 200.189 124.1 199.896 124.1C199.029 124.1 198.349 124.053 197.856 123.96C197.376 123.853 197.016 123.707 196.776 123.52C196.549 123.32 196.382 123.073 196.276 122.78C195.889 123.327 195.409 123.687 194.836 123.86C194.276 124.02 193.476 124.1 192.436 124.1ZM197.476 127.88C197.196 127.88 196.956 127.78 196.756 127.58C196.569 127.393 196.476 127.167 196.476 126.9C196.476 126.633 196.569 126.4 196.756 126.2C196.956 126 197.196 125.9 197.476 125.9C197.742 125.9 197.969 126 198.156 126.2C198.356 126.4 198.456 126.633 198.456 126.9C198.456 127.167 198.356 127.393 198.156 127.58C197.969 127.78 197.742 127.88 197.476 127.88ZM194.736 127.88C194.456 127.88 194.216 127.78 194.016 127.58C193.829 127.393 193.736 127.167 193.736 126.9C193.736 126.633 193.829 126.4 194.016 126.2C194.216 126 194.456 125.9 194.736 125.9C195.002 125.9 195.229 126 195.416 126.2C195.616 126.4 195.716 126.633 195.716 126.9C195.716 127.167 195.616 127.393 195.416 127.58C195.229 127.78 195.002 127.88 194.736 127.88ZM199.896 124.1L200.076 122.46C200.836 122.46 201.37 122.387 201.676 122.24C201.983 122.093 202.156 121.84 202.196 121.48C202.25 121.107 202.263 120.58 202.236 119.9L201.856 109.72H203.476L203.876 119.72C203.916 120.667 203.85 121.467 203.676 122.12C203.516 122.773 203.143 123.267 202.556 123.6C201.983 123.933 201.096 124.1 199.896 124.1ZM205.792 123.1L206.592 121.72C206.858 121.907 207.232 122.08 207.712 122.24C208.192 122.387 208.752 122.46 209.392 122.46C210.378 122.46 211.078 122.313 211.492 122.02C211.905 121.713 212.112 121.293 212.112 120.76C212.112 120.493 212.052 120.167 211.932 119.78C211.825 119.38 211.585 118.847 211.212 118.18C210.838 117.5 210.265 116.613 209.492 115.52L210.872 114.62C211.925 116.087 212.665 117.333 213.092 118.36C213.518 119.387 213.732 120.22 213.732 120.86C213.732 121.407 213.598 121.927 213.332 122.42C213.065 122.913 212.618 123.32 211.992 123.64C211.365 123.96 210.498 124.12 209.392 124.12C208.658 124.12 207.978 124.033 207.352 123.86C206.725 123.673 206.205 123.42 205.792 123.1ZM220.516 124.02C220.516 123.54 220.583 123.007 220.716 122.42C220.849 121.833 221.063 121.187 221.356 120.48L222.796 121.04C222.583 121.6 222.423 122.113 222.316 122.58C222.209 123.047 222.156 123.48 222.156 123.88C222.156 124.627 222.369 125.227 222.796 125.68C223.236 126.147 223.809 126.487 224.516 126.7C225.236 126.913 226.023 127.02 226.876 127.02C227.903 127.02 228.836 126.9 229.676 126.66C230.529 126.433 231.209 126.12 231.716 125.72C232.223 125.32 232.476 124.88 232.476 124.4C232.476 124.053 232.209 123.753 231.676 123.5C231.143 123.247 230.396 122.987 229.436 122.72L229.816 121.06C231.189 121.607 232.263 121.98 233.036 122.18C233.823 122.367 234.423 122.46 234.836 122.46C235.116 122.46 235.316 122.54 235.436 122.7C235.569 122.847 235.636 123.027 235.636 123.24C235.636 123.453 235.543 123.653 235.356 123.84C235.169 124.013 234.929 124.1 234.636 124.1H233.896C233.909 124.22 233.923 124.313 233.936 124.38C233.963 124.46 233.976 124.56 233.976 124.68C233.976 125.333 233.676 125.96 233.076 126.56C232.476 127.173 231.609 127.673 230.476 128.06C229.356 128.447 228.009 128.64 226.436 128.64C225.369 128.64 224.389 128.473 223.496 128.14C222.603 127.807 221.883 127.293 221.336 126.6C220.789 125.92 220.516 125.06 220.516 124.02ZM227.876 132.42C227.596 132.42 227.356 132.32 227.156 132.12C226.969 131.933 226.876 131.707 226.876 131.44C226.876 131.173 226.969 130.94 227.156 130.74C227.356 130.54 227.596 130.44 227.876 130.44C228.143 130.44 228.369 130.54 228.556 130.74C228.756 130.94 228.856 131.173 228.856 131.44C228.856 131.707 228.756 131.933 228.556 132.12C228.369 132.32 228.143 132.42 227.876 132.42ZM225.136 132.42C224.856 132.42 224.616 132.32 224.416 132.12C224.229 131.933 224.136 131.707 224.136 131.44C224.136 131.173 224.229 130.94 224.416 130.74C224.616 130.54 224.856 130.44 225.136 130.44C225.403 130.44 225.629 130.54 225.816 130.74C226.016 130.94 226.116 131.173 226.116 131.44C226.116 131.707 226.016 131.933 225.816 132.12C225.629 132.32 225.403 132.42 225.136 132.42ZM234.643 124.1L234.823 122.46C235.583 122.46 236.116 122.387 236.423 122.24C236.729 122.093 236.903 121.84 236.943 121.48C236.996 121.107 237.009 120.58 236.983 119.9L236.643 109.72H238.303L238.623 119.86C238.636 120.54 238.743 121.073 238.943 121.46C239.143 121.833 239.409 122.093 239.743 122.24C240.076 122.387 240.443 122.46 240.843 122.46C241.123 122.46 241.323 122.54 241.443 122.7C241.576 122.847 241.643 123.027 241.643 123.24C241.643 123.453 241.549 123.653 241.363 123.84C241.176 124.013 240.936 124.1 240.643 124.1C239.963 124.1 239.423 123.973 239.023 123.72C238.623 123.453 238.336 123.133 238.163 122.76C237.896 123.2 237.483 123.533 236.923 123.76C236.376 123.987 235.616 124.1 234.643 124.1ZM240.639 124.1L240.839 122.46C241.612 122.46 242.219 122.433 242.659 122.38C243.112 122.313 243.432 122.16 243.619 121.92C243.805 121.68 243.899 121.287 243.899 120.74C243.899 120.247 243.779 119.613 243.539 118.84C243.312 118.067 243.052 117.3 242.759 116.54L244.379 115.94C244.552 116.38 244.712 116.873 244.859 117.42C245.019 117.953 245.152 118.487 245.259 119.02C245.365 119.553 245.419 120.02 245.419 120.42C245.419 121.767 245.045 122.72 244.299 123.28C243.552 123.827 242.332 124.1 240.639 124.1ZM244.339 127.88C244.059 127.88 243.819 127.78 243.619 127.58C243.432 127.393 243.339 127.167 243.339 126.9C243.339 126.633 243.432 126.4 243.619 126.2C243.819 126 244.059 125.9 244.339 125.9C244.605 125.9 244.832 126 245.019 126.2C245.219 126.4 245.319 126.633 245.319 126.9C245.319 127.167 245.219 127.393 245.019 127.58C244.832 127.78 244.605 127.88 244.339 127.88ZM241.599 127.88C241.319 127.88 241.079 127.78 240.879 127.58C240.692 127.393 240.599 127.167 240.599 126.9C240.599 126.633 240.692 126.4 240.879 126.2C241.079 126 241.319 125.9 241.599 125.9C241.865 125.9 242.092 126 242.279 126.2C242.479 126.4 242.579 126.633 242.579 126.9C242.579 127.167 242.479 127.393 242.279 127.58C242.092 127.78 241.865 127.88 241.599 127.88ZM257.728 124.1C256.648 124.1 255.828 123.98 255.268 123.74C254.708 123.5 254.322 123.127 254.108 122.62C253.895 122.113 253.775 121.46 253.748 120.66L253.348 109.72H254.988L255.388 120.02C255.415 120.673 255.475 121.18 255.568 121.54C255.675 121.887 255.902 122.127 256.248 122.26C256.608 122.393 257.168 122.46 257.928 122.46C258.208 122.46 258.408 122.54 258.528 122.7C258.662 122.847 258.728 123.027 258.728 123.24C258.728 123.453 258.635 123.653 258.448 123.84C258.262 124.013 258.022 124.1 257.728 124.1ZM257.729 124.1L257.929 122.46C258.302 122.46 258.595 122.38 258.809 122.22C259.035 122.06 259.249 121.8 259.449 121.44C259.662 121.067 259.929 120.56 260.249 119.92C260.675 119.067 261.102 118.413 261.529 117.96C261.969 117.507 262.382 117.193 262.769 117.02C263.169 116.847 263.529 116.76 263.849 116.76C264.289 116.76 264.682 116.86 265.029 117.06C265.375 117.247 265.695 117.573 265.989 118.04C266.295 118.493 266.615 119.12 266.949 119.92C267.255 120.667 267.529 121.22 267.769 121.58C268.022 121.94 268.282 122.18 268.549 122.3C268.829 122.407 269.142 122.46 269.489 122.46C269.769 122.46 269.969 122.54 270.089 122.7C270.222 122.847 270.289 123.027 270.289 123.24C270.289 123.453 270.195 123.653 270.009 123.84C269.822 124.013 269.582 124.1 269.289 124.1C268.769 124.1 268.289 124.02 267.849 123.86C267.422 123.687 267.082 123.427 266.829 123.08C266.575 123.533 266.255 123.86 265.869 124.06C265.495 124.273 265.089 124.38 264.649 124.38C263.982 124.38 263.302 124.173 262.609 123.76C261.915 123.333 261.329 122.773 260.849 122.08C260.502 122.693 260.169 123.147 259.849 123.44C259.542 123.72 259.215 123.9 258.869 123.98C258.535 124.06 258.155 124.1 257.729 124.1ZM261.609 120.56C262.062 121.32 262.569 121.88 263.129 122.24C263.689 122.587 264.189 122.76 264.629 122.76C265.095 122.76 265.435 122.593 265.649 122.26C265.875 121.927 265.869 121.46 265.629 120.86C265.469 120.46 265.302 120.067 265.129 119.68C264.955 119.293 264.755 118.98 264.529 118.74C264.302 118.487 264.035 118.36 263.729 118.36C263.435 118.373 263.115 118.533 262.769 118.84C262.422 119.147 262.035 119.72 261.609 120.56ZM269.291 124.1L269.491 122.46C270.158 122.46 270.678 122.413 271.051 122.32C271.424 122.213 271.704 122.02 271.891 121.74C272.091 121.447 272.251 121.027 272.371 120.48C272.491 119.933 272.638 119.22 272.811 118.34L274.371 118.64C274.291 119 274.198 119.413 274.091 119.88C273.998 120.347 273.951 120.74 273.951 121.06C273.951 121.26 273.964 121.447 273.991 121.62C274.018 121.793 274.118 121.94 274.291 122.06C274.464 122.18 274.758 122.28 275.171 122.36C275.584 122.427 276.178 122.46 276.951 122.46C277.231 122.46 277.431 122.54 277.551 122.7C277.684 122.847 277.751 123.027 277.751 123.24C277.751 123.453 277.658 123.653 277.471 123.84C277.284 124.013 277.044 124.1 276.751 124.1C275.884 124.1 275.204 124.053 274.711 123.96C274.231 123.853 273.871 123.707 273.631 123.52C273.404 123.32 273.238 123.073 273.131 122.78C272.744 123.327 272.264 123.687 271.691 123.86C271.131 124.02 270.331 124.1 269.291 124.1ZM274.331 127.88C274.051 127.88 273.811 127.78 273.611 127.58C273.424 127.393 273.331 127.167 273.331 126.9C273.331 126.633 273.424 126.4 273.611 126.2C273.811 126 274.051 125.9 274.331 125.9C274.598 125.9 274.824 126 275.011 126.2C275.211 126.4 275.311 126.633 275.311 126.9C275.311 127.167 275.211 127.393 275.011 127.58C274.824 127.78 274.598 127.88 274.331 127.88ZM271.591 127.88C271.311 127.88 271.071 127.78 270.871 127.58C270.684 127.393 270.591 127.167 270.591 126.9C270.591 126.633 270.684 126.4 270.871 126.2C271.071 126 271.311 125.9 271.591 125.9C271.858 125.9 272.084 126 272.271 126.2C272.471 126.4 272.571 126.633 272.571 126.9C272.571 127.167 272.471 127.393 272.271 127.58C272.084 127.78 271.858 127.88 271.591 127.88ZM276.752 124.1L276.952 122.46C277.392 122.46 277.892 122.46 278.452 122.46C279.025 122.447 279.579 122.42 280.112 122.38C280.645 122.327 281.065 122.247 281.372 122.14C281.799 121.993 282.139 121.807 282.392 121.58C282.659 121.34 282.859 121.033 282.992 120.66C282.752 120.74 282.492 120.8 282.212 120.84C281.945 120.867 281.679 120.88 281.412 120.88C280.385 120.88 279.599 120.64 279.052 120.16C278.505 119.68 278.232 119.073 278.232 118.34C278.232 117.833 278.312 117.327 278.472 116.82C278.632 116.3 278.859 115.827 279.152 115.4C279.445 114.973 279.799 114.633 280.212 114.38C280.625 114.113 281.085 113.98 281.592 113.98C282.312 113.98 282.905 114.22 283.372 114.7C283.852 115.167 284.205 115.773 284.432 116.52C284.672 117.267 284.792 118.06 284.792 118.9C284.792 119.9 284.619 120.76 284.272 121.48C283.939 122.187 283.379 122.773 282.592 123.24C282.179 123.48 281.659 123.667 281.032 123.8C280.419 123.92 279.745 124 279.012 124.04C278.279 124.08 277.525 124.1 276.752 124.1ZM279.812 117.94C279.812 118.353 279.945 118.687 280.212 118.94C280.479 119.18 280.939 119.3 281.592 119.3C282.165 119.3 282.712 119.22 283.232 119.06C283.232 118.98 283.232 118.887 283.232 118.78C283.232 118.233 283.159 117.72 283.012 117.24C282.865 116.747 282.659 116.353 282.392 116.06C282.125 115.767 281.805 115.62 281.432 115.62C281.112 115.62 280.832 115.74 280.592 115.98C280.352 116.207 280.159 116.5 280.012 116.86C279.879 117.22 279.812 117.58 279.812 117.94ZM281.212 111.92C280.932 111.92 280.692 111.827 280.492 111.64C280.305 111.44 280.212 111.207 280.212 110.94C280.212 110.673 280.305 110.44 280.492 110.24C280.692 110.04 280.932 109.94 281.212 109.94C281.479 109.94 281.705 110.04 281.892 110.24C282.092 110.44 282.192 110.673 282.192 110.94C282.192 111.207 282.092 111.44 281.892 111.64C281.705 111.827 281.479 111.92 281.212 111.92ZM28.0453 147.02C28.0453 146.54 28.112 146.007 28.2453 145.42C28.3786 144.833 28.592 144.187 28.8853 143.48L30.3253 144.04C30.112 144.6 29.952 145.113 29.8453 145.58C29.7386 146.047 29.6853 146.48 29.6853 146.88C29.6853 147.627 29.8986 148.227 30.3253 148.68C30.7653 149.147 31.3386 149.487 32.0453 149.7C32.7653 149.913 33.552 150.02 34.4053 150.02C35.432 150.02 36.3653 149.9 37.2053 149.66C38.0586 149.433 38.7386 149.12 39.2453 148.72C39.752 148.32 40.0053 147.88 40.0053 147.4C40.0053 147.053 39.7386 146.753 39.2053 146.5C38.672 146.247 37.9253 145.987 36.9653 145.72L37.3453 144.06C38.7186 144.607 39.792 144.98 40.5653 145.18C41.352 145.367 41.952 145.46 42.3653 145.46C42.6453 145.46 42.8453 145.54 42.9653 145.7C43.0986 145.847 43.1653 146.027 43.1653 146.24C43.1653 146.453 43.072 146.653 42.8853 146.84C42.6986 147.013 42.4586 147.1 42.1653 147.1H41.4253C41.4386 147.22 41.452 147.313 41.4653 147.38C41.492 147.46 41.5053 147.56 41.5053 147.68C41.5053 148.333 41.2053 148.96 40.6053 149.56C40.0053 150.173 39.1386 150.673 38.0053 151.06C36.8853 151.447 35.5386 151.64 33.9653 151.64C32.8986 151.64 31.9186 151.473 31.0253 151.14C30.132 150.807 29.412 150.293 28.8653 149.6C28.3186 148.92 28.0453 148.06 28.0453 147.02ZM35.4053 155.42C35.1253 155.42 34.8853 155.32 34.6853 155.12C34.4986 154.933 34.4053 154.707 34.4053 154.44C34.4053 154.173 34.4986 153.94 34.6853 153.74C34.8853 153.54 35.1253 153.44 35.4053 153.44C35.672 153.44 35.8986 153.54 36.0853 153.74C36.2853 153.94 36.3853 154.173 36.3853 154.44C36.3853 154.707 36.2853 154.933 36.0853 155.12C35.8986 155.32 35.672 155.42 35.4053 155.42ZM32.6653 155.42C32.3853 155.42 32.1453 155.32 31.9453 155.12C31.7586 154.933 31.6653 154.707 31.6653 154.44C31.6653 154.173 31.7586 153.94 31.9453 153.74C32.1453 153.54 32.3853 153.44 32.6653 153.44C32.932 153.44 33.1586 153.54 33.3453 153.74C33.5453 153.94 33.6453 154.173 33.6453 154.44C33.6453 154.707 33.5453 154.933 33.3453 155.12C33.1586 155.32 32.932 155.42 32.6653 155.42ZM42.1719 147.1L42.3719 145.46C42.8119 145.46 43.3119 145.46 43.8719 145.46C44.4452 145.447 44.9985 145.42 45.5319 145.38C46.0652 145.327 46.4852 145.247 46.7919 145.14C47.2185 144.993 47.5585 144.807 47.8119 144.58C48.0785 144.34 48.2785 144.033 48.4119 143.66C48.1719 143.74 47.9119 143.8 47.6319 143.84C47.3652 143.867 47.0985 143.88 46.8319 143.88C45.8052 143.88 45.0185 143.64 44.4719 143.16C43.9252 142.68 43.6519 142.073 43.6519 141.34C43.6519 140.833 43.7319 140.327 43.8919 139.82C44.0519 139.3 44.2785 138.827 44.5719 138.4C44.8652 137.973 45.2185 137.633 45.6319 137.38C46.0452 137.113 46.5052 136.98 47.0119 136.98C47.7319 136.98 48.3252 137.22 48.7919 137.7C49.2719 138.167 49.6252 138.773 49.8519 139.52C50.0919 140.267 50.2119 141.06 50.2119 141.9C50.2119 142.9 50.0385 143.76 49.6919 144.48C49.3585 145.187 48.7985 145.773 48.0119 146.24C47.5985 146.48 47.0785 146.667 46.4519 146.8C45.8385 146.92 45.1652 147 44.4319 147.04C43.6985 147.08 42.9452 147.1 42.1719 147.1ZM45.2319 140.94C45.2319 141.353 45.3652 141.687 45.6319 141.94C45.8985 142.18 46.3585 142.3 47.0119 142.3C47.5852 142.3 48.1319 142.22 48.6519 142.06C48.6519 141.98 48.6519 141.887 48.6519 141.78C48.6519 141.233 48.5785 140.72 48.4319 140.24C48.2852 139.747 48.0785 139.353 47.8119 139.06C47.5452 138.767 47.2252 138.62 46.8519 138.62C46.5319 138.62 46.2519 138.74 46.0119 138.98C45.7719 139.207 45.5785 139.5 45.4319 139.86C45.2985 140.22 45.2319 140.58 45.2319 140.94ZM46.6319 134.92C46.3519 134.92 46.1119 134.827 45.9119 134.64C45.7252 134.44 45.6319 134.207 45.6319 133.94C45.6319 133.673 45.7252 133.44 45.9119 133.24C46.1119 133.04 46.3519 132.94 46.6319 132.94C46.8985 132.94 47.1252 133.04 47.3119 133.24C47.5119 133.44 47.6119 133.673 47.6119 133.94C47.6119 134.207 47.5119 134.44 47.3119 134.64C47.1252 134.827 46.8985 134.92 46.6319 134.92ZM57.2102 148.16L56.7502 146.64C57.0968 146.56 57.4902 146.46 57.9302 146.34C58.3835 146.22 58.8635 146.087 59.3702 145.94C58.8902 145.727 58.4635 145.38 58.0902 144.9C57.7302 144.407 57.5502 143.82 57.5502 143.14C57.5502 142.46 57.7035 141.88 58.0102 141.4C58.3302 140.92 58.7435 140.553 59.2502 140.3C59.7702 140.033 60.3368 139.9 60.9502 139.9C61.1768 139.9 61.4235 139.927 61.6902 139.98C61.9568 140.02 62.2102 140.073 62.4502 140.14L62.1902 141.64C61.9902 141.587 61.7768 141.547 61.5502 141.52C61.3235 141.48 61.1235 141.46 60.9502 141.46C60.3368 141.46 59.8768 141.627 59.5702 141.96C59.2768 142.293 59.1302 142.687 59.1302 143.14C59.1302 143.513 59.2302 143.86 59.4302 144.18C59.6302 144.487 59.8835 144.747 60.1902 144.96C60.4968 145.173 60.8102 145.307 61.1302 145.36C61.5035 145.24 61.8768 145.113 62.2502 144.98C62.6235 144.833 62.9835 144.687 63.3302 144.54L63.9302 146C63.5435 146.16 63.0568 146.347 62.4702 146.56C61.8968 146.76 61.2835 146.96 60.6302 147.16C59.9902 147.373 59.3702 147.567 58.7702 147.74C58.1702 147.927 57.6502 148.067 57.2102 148.16ZM68.9328 145.46C69.9195 145.46 70.6195 145.313 71.0328 145.02C71.4461 144.713 71.6528 144.293 71.6528 143.76C71.6528 143.413 71.5328 142.967 71.2928 142.42C71.0528 141.873 70.7328 141.267 70.3328 140.6C69.9461 139.92 69.5128 139.227 69.0328 138.52L70.4128 137.62C71.1861 138.807 71.8128 139.893 72.2928 140.88C72.7861 141.853 73.1528 142.733 73.3928 143.52C73.5795 144.107 73.7861 144.54 74.0128 144.82C74.2528 145.1 74.4995 145.28 74.7528 145.36C75.0061 145.427 75.2395 145.46 75.4528 145.46C75.7328 145.46 75.9395 145.54 76.0728 145.7C76.2061 145.847 76.2728 146.027 76.2728 146.24C76.2728 146.453 76.1795 146.653 75.9928 146.84C75.8061 147.013 75.5661 147.1 75.2728 147.1C74.7528 147.1 74.2528 146.987 73.7728 146.76C73.2928 146.533 72.9061 146.147 72.6128 145.6C72.3461 146.04 71.9195 146.407 71.3328 146.7C70.7595 146.98 69.9595 147.12 68.9328 147.12C68.1995 147.12 67.5195 147.033 66.8928 146.86C66.2661 146.673 65.7461 146.42 65.3328 146.1L66.1328 144.72C66.3995 144.907 66.7728 145.08 67.2528 145.24C67.7328 145.387 68.2928 145.46 68.9328 145.46ZM75.2773 147.1L75.4773 145.46C76.0373 145.46 76.4773 145.413 76.7973 145.32C77.1173 145.213 77.3573 145.02 77.5173 144.74C77.6907 144.447 77.8373 144.027 77.9573 143.48C78.0773 142.933 78.224 142.22 78.3973 141.34L79.9573 141.64C79.8773 142 79.784 142.413 79.6773 142.88C79.584 143.347 79.5373 143.74 79.5373 144.06C79.5373 144.327 79.5973 144.567 79.7173 144.78C79.8373 144.993 80.0907 145.16 80.4773 145.28C80.8773 145.4 81.4973 145.46 82.3373 145.46C82.6173 145.46 82.8173 145.54 82.9373 145.7C83.0707 145.847 83.1373 146.027 83.1373 146.24C83.1373 146.453 83.044 146.653 82.8573 146.84C82.6707 147.013 82.4307 147.1 82.1373 147.1C81.084 147.1 80.304 146.987 79.7973 146.76C79.2907 146.533 78.944 146.193 78.7573 145.74C78.3573 146.3 77.8973 146.667 77.3773 146.84C76.8573 147.013 76.1573 147.1 75.2773 147.1ZM78.6773 150.82C78.3973 150.82 78.1573 150.72 77.9573 150.52C77.7707 150.333 77.6773 150.107 77.6773 149.84C77.6773 149.573 77.7707 149.34 77.9573 149.14C78.1573 148.94 78.3973 148.84 78.6773 148.84C78.944 148.84 79.1707 148.94 79.3573 149.14C79.5573 149.34 79.6573 149.573 79.6573 149.84C79.6573 150.107 79.5573 150.333 79.3573 150.52C79.1707 150.72 78.944 150.82 78.6773 150.82ZM82.1328 147.1L82.3128 145.46C83.0728 145.46 83.6061 145.387 83.9128 145.24C84.2195 145.093 84.3928 144.84 84.4328 144.48C84.4861 144.107 84.4995 143.58 84.4728 142.9L84.0928 132.72H85.7128L86.1128 142.72C86.1528 143.667 86.0861 144.467 85.9128 145.12C85.7528 145.773 85.3795 146.267 84.7928 146.6C84.2195 146.933 83.3328 147.1 82.1328 147.1ZM89.1681 147L88.7681 132.72H90.3881L90.7881 147H89.1681ZM112.107 147.1L112.287 145.46C113.047 145.46 113.58 145.387 113.887 145.24C114.193 145.093 114.367 144.84 114.407 144.48C114.46 144.107 114.473 143.58 114.447 142.9L114.107 132.72H115.767L116.087 142.86C116.1 143.54 116.207 144.073 116.407 144.46C116.607 144.833 116.873 145.093 117.207 145.24C117.54 145.387 117.907 145.46 118.307 145.46C118.587 145.46 118.787 145.54 118.907 145.7C119.04 145.847 119.107 146.027 119.107 146.24C119.107 146.453 119.013 146.653 118.827 146.84C118.64 147.013 118.4 147.1 118.107 147.1C117.427 147.1 116.887 146.973 116.487 146.72C116.087 146.453 115.8 146.133 115.627 145.76C115.36 146.2 114.947 146.533 114.387 146.76C113.84 146.987 113.08 147.1 112.107 147.1ZM97.9867 147.02C97.9867 146.54 98.0534 146.007 98.1867 145.42C98.3201 144.833 98.5334 144.187 98.8267 143.48L100.267 144.04C100.053 144.6 99.8934 145.113 99.7867 145.58C99.6801 146.047 99.6267 146.48 99.6267 146.88C99.6267 147.627 99.8401 148.227 100.267 148.68C100.707 149.147 101.28 149.487 101.987 149.7C102.707 149.913 103.493 150.02 104.347 150.02C105.373 150.02 106.307 149.9 107.147 149.66C108 149.433 108.68 149.12 109.187 148.72C109.693 148.32 109.947 147.88 109.947 147.4C109.947 147.053 109.68 146.753 109.147 146.5C108.613 146.247 107.867 145.987 106.907 145.72L107.287 144.06C108.66 144.607 109.733 144.98 110.507 145.18C111.293 145.367 111.893 145.46 112.307 145.46C112.587 145.46 112.787 145.54 112.907 145.7C113.04 145.847 113.107 146.027 113.107 146.24C113.107 146.453 113.013 146.653 112.827 146.84C112.64 147.013 112.4 147.1 112.107 147.1H111.367C111.38 147.22 111.393 147.313 111.407 147.38C111.433 147.46 111.447 147.56 111.447 147.68C111.447 148.333 111.147 148.96 110.547 149.56C109.947 150.173 109.08 150.673 107.947 151.06C106.827 151.447 105.48 151.64 103.907 151.64C102.84 151.64 101.86 151.473 100.967 151.14C100.073 150.807 99.3534 150.293 98.8067 149.6C98.2601 148.92 97.9867 148.06 97.9867 147.02ZM118.109 147.1L118.309 145.46C119.149 145.46 119.796 145.453 120.249 145.44C120.716 145.427 121.056 145.413 121.269 145.4C121.483 145.373 121.629 145.36 121.709 145.36C121.469 145.227 121.189 145.02 120.869 144.74C120.549 144.447 120.269 144.08 120.029 143.64C119.789 143.187 119.669 142.653 119.669 142.04C119.669 141.293 119.843 140.633 120.189 140.06C120.549 139.473 121.036 139.02 121.649 138.7C122.276 138.38 122.989 138.22 123.789 138.22C124.429 138.22 125.089 138.327 125.769 138.54L125.429 140.08C124.869 139.933 124.323 139.86 123.789 139.86C123.056 139.86 122.456 140.06 121.989 140.46C121.536 140.847 121.309 141.373 121.309 142.04C121.309 142.48 121.423 142.873 121.649 143.22C121.876 143.553 122.156 143.84 122.489 144.08C122.836 144.307 123.189 144.48 123.549 144.6C123.923 144.72 124.256 144.773 124.549 144.76C124.763 144.693 124.956 144.633 125.129 144.58C125.316 144.513 125.543 144.427 125.809 144.32C126.089 144.213 126.489 144.04 127.009 143.8L127.569 145.26C126.676 145.62 125.763 145.94 124.829 146.22C123.909 146.5 122.903 146.72 121.809 146.88C120.729 147.027 119.496 147.1 118.109 147.1ZM141.261 147.42C138.888 147.42 137.094 147.113 135.881 146.5C134.668 145.873 134.061 144.827 134.061 143.36C134.061 142.867 134.121 142.347 134.241 141.8C134.361 141.24 134.488 140.713 134.621 140.22L136.121 140.6C136.041 140.893 135.948 141.267 135.841 141.72C135.748 142.173 135.701 142.567 135.701 142.9C135.701 143.593 135.874 144.153 136.221 144.58C136.581 144.993 137.201 145.3 138.081 145.5C138.961 145.687 140.194 145.78 141.781 145.78C143.088 145.78 144.168 145.733 145.021 145.64C145.874 145.533 146.534 145.373 147.001 145.16C147.481 144.933 147.808 144.647 147.981 144.3C148.168 143.94 148.254 143.507 148.241 143L147.861 132.72H149.481L149.881 142.82C149.894 143.5 150.001 144.033 150.201 144.42C150.401 144.807 150.668 145.08 151.001 145.24C151.334 145.387 151.701 145.46 152.101 145.46C152.381 145.46 152.581 145.54 152.701 145.7C152.834 145.847 152.901 146.027 152.901 146.24C152.901 146.453 152.808 146.653 152.621 146.84C152.434 147.013 152.194 147.1 151.901 147.1C151.101 147.1 150.488 146.947 150.061 146.64C149.648 146.333 149.361 145.973 149.201 145.56C148.601 146.24 147.668 146.72 146.401 147C145.134 147.28 143.421 147.42 141.261 147.42ZM140.741 142.92L140.361 141.66C141.201 141.433 141.801 141.253 142.161 141.12C142.521 140.973 142.701 140.82 142.701 140.66C142.701 140.513 142.621 140.38 142.461 140.26C142.314 140.127 142.141 139.993 141.941 139.86C141.754 139.713 141.581 139.547 141.421 139.36C141.274 139.173 141.201 138.947 141.201 138.68C141.201 138.333 141.368 137.953 141.701 137.54C142.034 137.127 142.694 136.68 143.681 136.2L144.301 137.34C143.688 137.633 143.234 137.887 142.941 138.1C142.661 138.3 142.521 138.48 142.521 138.64C142.521 138.76 142.594 138.887 142.741 139.02C142.901 139.153 143.074 139.3 143.261 139.46C143.461 139.62 143.634 139.807 143.781 140.02C143.941 140.22 144.021 140.46 144.021 140.74C144.021 140.993 143.941 141.24 143.781 141.48C143.621 141.72 143.308 141.96 142.841 142.2C142.374 142.427 141.674 142.667 140.741 142.92ZM151.898 147.1L152.098 145.46C152.872 145.46 153.478 145.433 153.918 145.38C154.372 145.313 154.692 145.16 154.878 144.92C155.065 144.68 155.158 144.287 155.158 143.74C155.158 143.247 155.038 142.613 154.798 141.84C154.572 141.067 154.312 140.3 154.018 139.54L155.638 138.94C155.812 139.38 155.972 139.873 156.118 140.42C156.278 140.953 156.412 141.487 156.518 142.02C156.625 142.553 156.678 143.02 156.678 143.42C156.678 144.767 156.305 145.72 155.558 146.28C154.812 146.827 153.592 147.1 151.898 147.1ZM156.258 136.86C155.978 136.86 155.738 136.767 155.538 136.58C155.352 136.38 155.258 136.147 155.258 135.88C155.258 135.613 155.352 135.38 155.538 135.18C155.738 134.98 155.978 134.88 156.258 134.88C156.525 134.88 156.752 134.98 156.938 135.18C157.138 135.38 157.238 135.613 157.238 135.88C157.238 136.147 157.138 136.38 156.938 136.58C156.752 136.767 156.525 136.86 156.258 136.86ZM153.518 136.86C153.238 136.86 152.998 136.767 152.798 136.58C152.612 136.38 152.518 136.147 152.518 135.88C152.518 135.613 152.612 135.38 152.798 135.18C152.998 134.98 153.238 134.88 153.518 134.88C153.785 134.88 154.012 134.98 154.198 135.18C154.398 135.38 154.498 135.613 154.498 135.88C154.498 136.147 154.398 136.38 154.198 136.58C154.012 136.767 153.785 136.86 153.518 136.86ZM162.175 145.46C163.162 145.46 163.862 145.313 164.275 145.02C164.688 144.713 164.895 144.293 164.895 143.76C164.895 143.413 164.775 142.967 164.535 142.42C164.295 141.873 163.975 141.267 163.575 140.6C163.188 139.92 162.755 139.227 162.275 138.52L163.655 137.62C164.428 138.807 165.055 139.893 165.535 140.88C166.028 141.853 166.395 142.733 166.635 143.52C166.822 144.107 167.028 144.54 167.255 144.82C167.495 145.1 167.742 145.28 167.995 145.36C168.248 145.427 168.482 145.46 168.695 145.46C168.975 145.46 169.182 145.54 169.315 145.7C169.448 145.847 169.515 146.027 169.515 146.24C169.515 146.453 169.422 146.653 169.235 146.84C169.048 147.013 168.808 147.1 168.515 147.1C167.995 147.1 167.495 146.987 167.015 146.76C166.535 146.533 166.148 146.147 165.855 145.6C165.588 146.04 165.162 146.407 164.575 146.7C164.002 146.98 163.202 147.12 162.175 147.12C161.442 147.12 160.762 147.033 160.135 146.86C159.508 146.673 158.988 146.42 158.575 146.1L159.375 144.72C159.642 144.907 160.015 145.08 160.495 145.24C160.975 145.387 161.535 145.46 162.175 145.46ZM168.52 147.1L168.72 145.46C169.56 145.46 170.206 145.453 170.66 145.44C171.126 145.427 171.466 145.413 171.68 145.4C171.893 145.373 172.04 145.36 172.12 145.36C171.88 145.227 171.6 145.02 171.28 144.74C170.96 144.447 170.68 144.08 170.44 143.64C170.2 143.187 170.08 142.653 170.08 142.04C170.08 141.293 170.253 140.633 170.6 140.06C170.96 139.473 171.446 139.02 172.06 138.7C172.686 138.38 173.4 138.22 174.2 138.22C174.84 138.22 175.5 138.327 176.18 138.54L175.84 140.08C175.28 139.933 174.733 139.86 174.2 139.86C173.466 139.86 172.866 140.06 172.4 140.46C171.946 140.847 171.72 141.373 171.72 142.04C171.72 142.48 171.833 142.873 172.06 143.22C172.286 143.553 172.566 143.84 172.9 144.08C173.246 144.307 173.6 144.48 173.96 144.6C174.333 144.72 174.666 144.773 174.96 144.76C175.173 144.693 175.366 144.633 175.54 144.58C175.726 144.513 175.953 144.427 176.22 144.32C176.5 144.213 176.9 144.04 177.42 143.8L177.98 145.26C177.086 145.62 176.173 145.94 175.24 146.22C174.32 146.5 173.313 146.72 172.22 146.88C171.14 147.027 169.906 147.1 168.52 147.1ZM184.398 147.1C183.318 147.1 182.498 146.98 181.938 146.74C181.378 146.5 180.991 146.127 180.778 145.62C180.565 145.113 180.445 144.46 180.418 143.66L180.018 132.72H181.658L182.058 143.02C182.085 143.673 182.145 144.18 182.238 144.54C182.345 144.887 182.571 145.127 182.918 145.26C183.278 145.393 183.838 145.46 184.598 145.46C184.878 145.46 185.078 145.54 185.198 145.7C185.331 145.847 185.398 146.027 185.398 146.24C185.398 146.453 185.305 146.653 185.118 146.84C184.931 147.013 184.691 147.1 184.398 147.1ZM184.398 147.1L184.598 145.46C185.025 145.46 185.372 145.433 185.638 145.38C185.905 145.313 186.125 145.16 186.298 144.92C186.485 144.667 186.658 144.273 186.818 143.74C186.978 143.207 187.165 142.46 187.378 141.5L188.878 141.92C188.798 142.267 188.705 142.673 188.598 143.14C188.492 143.607 188.438 144.027 188.438 144.4C188.438 144.733 188.565 144.993 188.818 145.18C189.072 145.367 189.532 145.46 190.198 145.46C190.598 145.46 190.925 145.427 191.178 145.36C191.432 145.293 191.638 145.133 191.798 144.88C191.972 144.627 192.125 144.227 192.258 143.68C192.392 143.12 192.532 142.347 192.678 141.36L194.198 141.64C194.158 141.88 194.105 142.173 194.038 142.52C193.985 142.867 193.938 143.213 193.898 143.56C193.858 143.893 193.838 144.173 193.838 144.4C193.838 144.587 193.878 144.767 193.958 144.94C194.052 145.1 194.225 145.227 194.478 145.32C194.745 145.413 195.138 145.46 195.658 145.46C196.325 145.46 196.805 145.327 197.098 145.06C197.405 144.78 197.558 144.347 197.558 143.76C197.558 143.307 197.545 142.807 197.518 142.26C197.492 141.713 197.425 141.027 197.318 140.2L198.778 140.1C198.858 141.18 198.945 142.067 199.038 142.76C199.145 143.453 199.292 144 199.478 144.4C199.678 144.787 199.945 145.06 200.278 145.22C200.612 145.38 201.052 145.46 201.598 145.46C201.878 145.46 202.078 145.54 202.198 145.7C202.332 145.847 202.398 146.027 202.398 146.24C202.398 146.453 202.305 146.653 202.118 146.84C201.932 147.013 201.692 147.1 201.398 147.1C200.652 147.1 200.032 146.933 199.538 146.6C199.058 146.267 198.705 145.847 198.478 145.34C198.212 146.047 197.805 146.52 197.258 146.76C196.725 146.987 196.132 147.1 195.478 147.1C194.798 147.1 194.258 147.007 193.858 146.82C193.472 146.62 193.185 146.32 192.998 145.92C192.678 146.4 192.292 146.72 191.838 146.88C191.398 147.027 190.772 147.1 189.958 147.1C189.678 147.1 189.378 147.067 189.058 147C188.752 146.933 188.465 146.807 188.198 146.62C187.932 146.42 187.725 146.127 187.578 145.74C187.232 146.327 186.798 146.7 186.278 146.86C185.772 147.02 185.145 147.1 184.398 147.1ZM201.391 147.1L201.591 145.46C201.964 145.46 202.257 145.38 202.471 145.22C202.697 145.06 202.911 144.8 203.111 144.44C203.324 144.067 203.591 143.56 203.911 142.92C204.337 142.067 204.764 141.413 205.191 140.96C205.631 140.507 206.044 140.193 206.431 140.02C206.831 139.847 207.191 139.76 207.511 139.76C207.951 139.76 208.344 139.86 208.691 140.06C209.037 140.247 209.357 140.573 209.651 141.04C209.957 141.493 210.277 142.12 210.611 142.92C210.917 143.667 211.191 144.22 211.431 144.58C211.684 144.94 211.944 145.18 212.211 145.3C212.491 145.407 212.804 145.46 213.151 145.46C213.431 145.46 213.631 145.54 213.751 145.7C213.884 145.847 213.951 146.027 213.951 146.24C213.951 146.453 213.857 146.653 213.671 146.84C213.484 147.013 213.244 147.1 212.951 147.1C212.431 147.1 211.951 147.02 211.511 146.86C211.084 146.687 210.744 146.427 210.491 146.08C210.237 146.533 209.917 146.86 209.531 147.06C209.157 147.273 208.751 147.38 208.311 147.38C207.644 147.38 206.964 147.173 206.271 146.76C205.577 146.333 204.991 145.773 204.511 145.08C204.164 145.693 203.831 146.147 203.511 146.44C203.204 146.72 202.877 146.9 202.531 146.98C202.197 147.06 201.817 147.1 201.391 147.1ZM205.271 143.56C205.724 144.32 206.231 144.88 206.791 145.24C207.351 145.587 207.851 145.76 208.291 145.76C208.757 145.76 209.097 145.593 209.311 145.26C209.537 144.927 209.531 144.46 209.291 143.86C209.131 143.46 208.964 143.067 208.791 142.68C208.617 142.293 208.417 141.98 208.191 141.74C207.964 141.487 207.697 141.36 207.391 141.36C207.097 141.373 206.777 141.533 206.431 141.84C206.084 142.147 205.697 142.72 205.271 143.56ZM212.953 147.1L213.133 145.46C213.893 145.46 214.426 145.387 214.733 145.24C215.04 145.093 215.213 144.84 215.253 144.48C215.306 144.107 215.32 143.58 215.293 142.9L214.913 132.72H216.533L216.933 142.72C216.973 143.667 216.906 144.467 216.733 145.12C216.573 145.773 216.2 146.267 215.613 146.6C215.04 146.933 214.153 147.1 212.953 147.1ZM229.261 147.1C228.181 147.1 227.361 146.98 226.801 146.74C226.241 146.5 225.855 146.127 225.641 145.62C225.428 145.113 225.308 144.46 225.281 143.66L224.881 132.72H226.521L226.921 143.02C226.948 143.673 227.008 144.18 227.101 144.54C227.208 144.887 227.435 145.127 227.781 145.26C228.141 145.393 228.701 145.46 229.461 145.46C229.741 145.46 229.941 145.54 230.061 145.7C230.195 145.847 230.261 146.027 230.261 146.24C230.261 146.453 230.168 146.653 229.981 146.84C229.795 147.013 229.555 147.1 229.261 147.1ZM229.262 147.1L229.462 145.46C230.022 145.46 230.462 145.413 230.782 145.32C231.102 145.213 231.342 145.02 231.502 144.74C231.675 144.447 231.822 144.027 231.942 143.48C232.062 142.933 232.208 142.22 232.382 141.34L233.942 141.64C233.862 142 233.768 142.413 233.662 142.88C233.568 143.347 233.522 143.74 233.522 144.06C233.522 144.327 233.582 144.567 233.702 144.78C233.822 144.993 234.075 145.16 234.462 145.28C234.862 145.4 235.482 145.46 236.322 145.46C236.602 145.46 236.802 145.54 236.922 145.7C237.055 145.847 237.122 146.027 237.122 146.24C237.122 146.453 237.028 146.653 236.842 146.84C236.655 147.013 236.415 147.1 236.122 147.1C235.068 147.1 234.288 146.987 233.782 146.76C233.275 146.533 232.928 146.193 232.742 145.74C232.342 146.3 231.882 146.667 231.362 146.84C230.842 147.013 230.142 147.1 229.262 147.1ZM233.002 139.28C232.722 139.28 232.482 139.187 232.282 139C232.095 138.8 232.002 138.567 232.002 138.3C232.002 138.033 232.095 137.8 232.282 137.6C232.482 137.4 232.722 137.3 233.002 137.3C233.268 137.3 233.495 137.4 233.682 137.6C233.882 137.8 233.982 138.033 233.982 138.3C233.982 138.567 233.882 138.8 233.682 139C233.495 139.187 233.268 139.28 233.002 139.28ZM243.817 147.16C242.657 147.16 241.524 146.853 240.417 146.24C239.777 146.52 239.084 146.733 238.337 146.88C237.604 147.027 236.864 147.1 236.117 147.1L236.317 145.46C236.837 145.46 237.317 145.433 237.757 145.38C238.197 145.327 238.597 145.247 238.957 145.14C238.584 144.753 238.277 144.32 238.037 143.84C237.811 143.347 237.697 142.813 237.697 142.24C237.697 141.48 237.897 140.793 238.297 140.18C238.711 139.567 239.264 139.167 239.957 138.98C239.651 138.74 239.324 138.5 238.977 138.26L239.917 137.02C241.197 137.953 242.251 138.78 243.077 139.5C243.917 140.207 244.577 140.827 245.057 141.36C245.551 141.88 245.911 142.34 246.137 142.74C246.377 143.127 246.531 143.473 246.597 143.78C246.664 144.087 246.697 144.367 246.697 144.62C246.697 145.06 246.597 145.473 246.397 145.86C246.211 146.247 245.904 146.56 245.477 146.8C245.064 147.04 244.511 147.16 243.817 147.16ZM239.197 142.04C239.197 142.547 239.324 143.007 239.577 143.42C239.831 143.833 240.151 144.193 240.537 144.5C241.137 144.127 241.551 143.707 241.777 143.24C242.017 142.773 242.137 142.36 242.137 142C242.137 141.573 242.011 141.187 241.757 140.84C241.517 140.48 241.177 140.3 240.737 140.3C240.284 140.3 239.911 140.48 239.617 140.84C239.337 141.2 239.197 141.6 239.197 142.04ZM243.617 142.24C243.617 142.853 243.471 143.42 243.177 143.94C242.897 144.447 242.517 144.893 242.037 145.28C242.624 145.48 243.191 145.58 243.737 145.58C244.191 145.58 244.524 145.507 244.737 145.36C244.951 145.2 245.057 144.94 245.057 144.58C245.057 144.5 245.037 144.367 244.997 144.18C244.971 143.993 244.857 143.733 244.657 143.4C244.457 143.053 244.111 142.62 243.617 142.1C243.617 142.14 243.617 142.187 243.617 142.24ZM253.495 147.02C253.495 146.54 253.561 146.007 253.695 145.42C253.828 144.833 254.041 144.187 254.335 143.48L255.775 144.04C255.561 144.6 255.401 145.113 255.295 145.58C255.188 146.047 255.135 146.48 255.135 146.88C255.135 147.627 255.315 148.227 255.675 148.68C256.048 149.133 256.541 149.467 257.155 149.68C257.781 149.893 258.468 150 259.215 150C260.428 150 261.375 149.833 262.055 149.5C262.748 149.167 263.235 148.727 263.515 148.18C263.808 147.647 263.955 147.08 263.955 146.48C263.955 145.6 263.855 144.793 263.655 144.06C263.468 143.313 263.261 142.547 263.035 141.76L264.655 141.32C264.868 142.08 265.015 142.633 265.095 142.98C265.175 143.313 265.248 143.587 265.315 143.8C265.461 144.293 265.655 144.66 265.895 144.9C266.135 145.127 266.408 145.28 266.715 145.36C267.021 145.427 267.348 145.46 267.695 145.46C267.975 145.46 268.175 145.54 268.295 145.7C268.428 145.847 268.495 146.027 268.495 146.24C268.495 146.453 268.401 146.653 268.215 146.84C268.028 147.013 267.788 147.1 267.495 147.1C267.081 147.1 266.715 147.047 266.395 146.94C266.088 146.82 265.828 146.673 265.615 146.5C265.548 147.153 265.395 147.787 265.155 148.4C264.915 149.013 264.548 149.56 264.055 150.04C263.575 150.533 262.935 150.92 262.135 151.2C261.335 151.493 260.341 151.64 259.155 151.64C258.155 151.64 257.221 151.473 256.355 151.14C255.501 150.807 254.808 150.3 254.275 149.62C253.755 148.94 253.495 148.073 253.495 147.02ZM259.535 139.04C259.255 139.04 259.015 138.947 258.815 138.76C258.628 138.56 258.535 138.327 258.535 138.06C258.535 137.793 258.628 137.56 258.815 137.36C259.015 137.16 259.255 137.06 259.535 137.06C259.801 137.06 260.028 137.16 260.215 137.36C260.415 137.56 260.515 137.793 260.515 138.06C260.515 138.327 260.415 138.56 260.215 138.76C260.028 138.947 259.801 139.04 259.535 139.04ZM267.504 147.1L267.684 145.46C269.057 145.46 270.391 145.26 271.684 144.86C272.977 144.447 274.157 143.867 275.224 143.12C274.704 142.667 274.064 142.3 273.304 142.02C272.557 141.74 271.731 141.6 270.824 141.6C270.491 141.6 270.197 141.62 269.944 141.66C269.691 141.687 269.384 141.74 269.024 141.82L268.704 140.3C269.451 140.073 270.157 139.96 270.824 139.96C271.517 139.96 272.144 140.047 272.704 140.22C273.264 140.38 273.771 140.58 274.224 140.82C274.691 141.06 275.124 141.3 275.524 141.54C275.937 141.78 276.337 141.987 276.724 142.16C277.111 142.32 277.511 142.4 277.924 142.4H278.344L278.484 143.84C278.071 143.84 277.671 143.887 277.284 143.98C277.537 144.58 277.897 144.98 278.364 145.18C278.831 145.367 279.524 145.46 280.444 145.46C280.724 145.46 280.924 145.54 281.044 145.7C281.177 145.847 281.244 146.027 281.244 146.24C281.244 146.453 281.151 146.653 280.964 146.84C280.777 147.013 280.537 147.1 280.244 147.1C279.524 147.1 278.877 147.04 278.304 146.92C277.744 146.787 277.264 146.533 276.864 146.16C276.464 145.773 276.171 145.2 275.984 144.44C275.477 144.68 274.957 144.953 274.424 145.26C273.904 145.553 273.324 145.84 272.684 146.12C272.044 146.4 271.304 146.633 270.464 146.82C269.624 147.007 268.637 147.1 267.504 147.1ZM280.238 147.1L280.438 145.46C281.078 145.46 281.592 145.42 281.978 145.34C282.378 145.26 282.665 145.1 282.838 144.86C283.012 144.607 283.098 144.233 283.098 143.74C283.098 143.247 282.978 142.613 282.738 141.84C282.512 141.067 282.252 140.3 281.958 139.54L283.578 138.94C283.752 139.38 283.912 139.873 284.058 140.42C284.218 140.953 284.352 141.487 284.458 142.02C284.565 142.553 284.618 143.02 284.618 143.42C284.618 144.767 284.258 145.72 283.538 146.28C282.832 146.827 281.732 147.1 280.238 147.1ZM282.798 136.86C282.518 136.86 282.278 136.767 282.078 136.58C281.892 136.38 281.798 136.147 281.798 135.88C281.798 135.613 281.892 135.38 282.078 135.18C282.278 134.98 282.518 134.88 282.798 134.88C283.065 134.88 283.292 134.98 283.478 135.18C283.678 135.38 283.778 135.613 283.778 135.88C283.778 136.147 283.678 136.38 283.478 136.58C283.292 136.767 283.065 136.86 282.798 136.86ZM286.769 151.6L286.409 149.96C287.263 149.853 288.036 149.693 288.729 149.48C289.423 149.267 290.016 148.96 290.509 148.56C291.003 148.16 291.369 147.627 291.609 146.96C291.369 147.027 291.116 147.073 290.849 147.1C290.583 147.14 290.323 147.16 290.069 147.16C289.043 147.16 288.256 146.953 287.709 146.54C287.163 146.127 286.889 145.487 286.889 144.62C286.889 144.113 286.969 143.607 287.129 143.1C287.289 142.58 287.516 142.107 287.809 141.68C288.103 141.253 288.456 140.913 288.869 140.66C289.283 140.393 289.743 140.26 290.249 140.26C290.969 140.26 291.563 140.5 292.029 140.98C292.509 141.447 292.863 142.053 293.089 142.8C293.329 143.547 293.449 144.34 293.449 145.18C293.449 147.047 292.883 148.52 291.749 149.6C290.629 150.68 288.969 151.347 286.769 151.6ZM288.469 144.22C288.469 144.633 288.603 144.967 288.869 145.22C289.136 145.46 289.596 145.58 290.249 145.58C290.823 145.58 291.369 145.5 291.889 145.34C291.889 145.26 291.889 145.167 291.889 145.06C291.889 144.513 291.816 144 291.669 143.52C291.523 143.027 291.316 142.633 291.049 142.34C290.783 142.047 290.463 141.9 290.089 141.9C289.769 141.9 289.489 142.02 289.249 142.26C289.009 142.487 288.816 142.78 288.669 143.14C288.536 143.5 288.469 143.86 288.469 144.22ZM105.437 155.455L105.252 165.817H103.285L103.1 155.455H105.437ZM104.272 170.135C103.879 170.135 103.543 169.998 103.264 169.723C102.984 169.444 102.847 169.107 102.852 168.714C102.847 168.326 102.984 167.995 103.264 167.72C103.543 167.441 103.879 167.301 104.272 167.301C104.656 167.301 104.987 167.441 105.267 167.72C105.546 167.995 105.688 168.326 105.693 168.714C105.688 168.975 105.619 169.214 105.487 169.432C105.359 169.645 105.189 169.815 104.975 169.943C104.762 170.071 104.528 170.135 104.272 170.135ZM116.931 170.1C116.064 170.1 115.318 169.953 114.691 169.66C114.078 169.367 113.644 168.827 113.391 168.04C112.671 168.213 111.978 168.287 111.311 168.26C110.658 168.22 110.064 168.093 109.531 167.88C108.998 167.653 108.578 167.347 108.271 166.96C107.964 166.56 107.811 166.087 107.811 165.54C107.811 164.82 108.038 164.167 108.491 163.58C108.944 162.98 109.558 162.473 110.331 162.06C111.104 161.647 111.958 161.36 112.891 161.2L112.831 159.68H114.451L114.771 166.28C114.798 166.907 114.904 167.38 115.091 167.7C115.291 168.007 115.558 168.213 115.891 168.32C116.238 168.413 116.651 168.46 117.131 168.46C117.411 168.46 117.611 168.54 117.731 168.7C117.864 168.847 117.931 169.027 117.931 169.24C117.931 169.453 117.838 169.653 117.651 169.84C117.464 170.013 117.224 170.1 116.931 170.1ZM109.391 165.28C109.391 165.587 109.511 165.84 109.751 166.04C110.004 166.24 110.324 166.387 110.711 166.48C111.098 166.573 111.504 166.62 111.931 166.62C112.371 166.62 112.778 166.587 113.151 166.52L112.971 162.86C112.211 162.94 111.564 163.113 111.031 163.38C110.498 163.633 110.091 163.933 109.811 164.28C109.531 164.613 109.391 164.947 109.391 165.28ZM113.491 157.38C113.211 157.38 112.971 157.287 112.771 157.1C112.584 156.9 112.491 156.667 112.491 156.4C112.491 156.133 112.584 155.9 112.771 155.7C112.971 155.5 113.211 155.4 113.491 155.4C113.758 155.4 113.984 155.5 114.171 155.7C114.371 155.9 114.471 156.133 114.471 156.4C114.471 156.667 114.371 156.9 114.171 157.1C113.984 157.287 113.758 157.38 113.491 157.38ZM110.751 157.38C110.471 157.38 110.231 157.287 110.031 157.1C109.844 156.9 109.751 156.667 109.751 156.4C109.751 156.133 109.844 155.9 110.031 155.7C110.231 155.5 110.471 155.4 110.751 155.4C111.018 155.4 111.244 155.5 111.431 155.7C111.631 155.9 111.731 156.133 111.731 156.4C111.731 156.667 111.631 156.9 111.431 157.1C111.244 157.287 111.018 157.38 110.751 157.38ZM116.938 170.1L117.138 168.46C117.804 168.46 118.324 168.413 118.698 168.32C119.071 168.213 119.351 168.02 119.538 167.74C119.738 167.447 119.898 167.027 120.018 166.48C120.138 165.933 120.284 165.22 120.458 164.34L122.018 164.64C121.938 165 121.844 165.413 121.738 165.88C121.644 166.347 121.598 166.74 121.598 167.06C121.598 167.26 121.611 167.447 121.638 167.62C121.664 167.793 121.764 167.94 121.938 168.06C122.111 168.18 122.404 168.28 122.817 168.36C123.231 168.427 123.824 168.46 124.598 168.46C124.878 168.46 125.078 168.54 125.198 168.7C125.331 168.847 125.398 169.027 125.398 169.24C125.398 169.453 125.304 169.653 125.118 169.84C124.931 170.013 124.691 170.1 124.398 170.1C123.531 170.1 122.851 170.053 122.358 169.96C121.878 169.853 121.518 169.707 121.278 169.52C121.051 169.32 120.884 169.073 120.778 168.78C120.391 169.327 119.911 169.687 119.338 169.86C118.778 170.02 117.978 170.1 116.938 170.1ZM121.978 173.88C121.698 173.88 121.458 173.78 121.258 173.58C121.071 173.393 120.978 173.167 120.978 172.9C120.978 172.633 121.071 172.4 121.258 172.2C121.458 172 121.698 171.9 121.978 171.9C122.244 171.9 122.471 172 122.658 172.2C122.858 172.4 122.958 172.633 122.958 172.9C122.958 173.167 122.858 173.393 122.658 173.58C122.471 173.78 122.244 173.88 121.978 173.88ZM119.238 173.88C118.958 173.88 118.718 173.78 118.518 173.58C118.331 173.393 118.238 173.167 118.238 172.9C118.238 172.633 118.331 172.4 118.518 172.2C118.718 172 118.958 171.9 119.238 171.9C119.504 171.9 119.731 172 119.918 172.2C120.118 172.4 120.218 172.633 120.218 172.9C120.218 173.167 120.118 173.393 119.918 173.58C119.731 173.78 119.504 173.88 119.238 173.88ZM124.398 170.1L124.598 168.46C125.238 168.46 125.752 168.42 126.138 168.34C126.538 168.26 126.825 168.1 126.998 167.86C127.172 167.607 127.258 167.233 127.258 166.74C127.258 166.247 127.138 165.613 126.898 164.84C126.672 164.067 126.412 163.3 126.118 162.54L127.738 161.94C127.912 162.38 128.072 162.873 128.218 163.42C128.378 163.953 128.512 164.487 128.618 165.02C128.725 165.553 128.778 166.02 128.778 166.42C128.778 167.767 128.418 168.72 127.698 169.28C126.992 169.827 125.892 170.1 124.398 170.1ZM126.538 173.82C126.258 173.82 126.018 173.72 125.818 173.52C125.632 173.333 125.538 173.107 125.538 172.84C125.538 172.573 125.632 172.34 125.818 172.14C126.018 171.94 126.258 171.84 126.538 171.84C126.805 171.84 127.032 171.94 127.218 172.14C127.418 172.34 127.518 172.573 127.518 172.84C127.518 173.107 127.418 173.333 127.218 173.52C127.032 173.72 126.805 173.82 126.538 173.82ZM132.61 170.1C132.25 170.1 131.883 170.067 131.51 170C131.15 169.947 130.896 169.907 130.75 169.88L130.97 168.3C132.17 168.46 133.263 168.447 134.25 168.26C135.25 168.06 136.043 167.573 136.63 166.8C136.11 165.947 135.33 164.913 134.29 163.7C133.25 162.473 132.01 161.213 130.57 159.92L131.65 158.78C133.063 160.113 134.23 161.32 135.15 162.4C136.07 163.48 136.81 164.42 137.37 165.22C137.53 164.647 137.623 163.993 137.65 163.26L137.37 155.72H139.01L139.41 166.02C139.436 166.673 139.496 167.18 139.59 167.54C139.696 167.887 139.923 168.127 140.27 168.26C140.63 168.393 141.19 168.46 141.95 168.46C142.23 168.46 142.43 168.54 142.55 168.7C142.683 168.847 142.75 169.027 142.75 169.24C142.75 169.453 142.656 169.653 142.47 169.84C142.283 170.013 142.043 170.1 141.75 170.1C140.816 170.1 140.076 170.013 139.53 169.84C138.983 169.653 138.583 169.373 138.33 169C138.076 168.613 137.91 168.12 137.83 167.52C137.416 168.253 136.91 168.807 136.31 169.18C135.71 169.553 135.083 169.8 134.43 169.92C133.79 170.04 133.183 170.1 132.61 170.1ZM141.742 170.1L141.942 168.46H142.942C143.156 168.127 143.382 167.8 143.622 167.48L143.242 155.72H144.862L145.222 165.6C146.036 164.773 146.922 164.073 147.882 163.5C148.856 162.913 149.842 162.62 150.842 162.62C151.576 162.62 152.202 162.773 152.722 163.08C153.256 163.373 153.662 163.773 153.942 164.28C154.236 164.787 154.382 165.36 154.382 166C154.382 166.627 154.156 167.26 153.702 167.9C153.249 168.527 152.469 169.02 151.362 169.38C150.509 169.66 149.482 169.853 148.282 169.96C147.082 170.053 145.602 170.1 143.842 170.1H141.742ZM150.722 164.26C150.149 164.26 149.569 164.4 148.982 164.68C148.409 164.96 147.856 165.32 147.322 165.76C146.789 166.187 146.302 166.647 145.862 167.14C145.422 167.62 145.056 168.06 144.762 168.46H146.122C148.442 168.46 150.142 168.26 151.222 167.86C152.302 167.46 152.842 166.833 152.842 165.98C152.842 165.753 152.769 165.507 152.622 165.24C152.476 164.973 152.242 164.747 151.922 164.56C151.616 164.36 151.216 164.26 150.722 164.26ZM155.942 170.1C155.596 170.1 155.156 170.067 154.622 170C154.102 169.92 153.569 169.787 153.022 169.6C152.489 169.413 152.036 169.153 151.662 168.82L153.302 168C153.769 168.187 154.249 168.313 154.742 168.38C155.249 168.433 155.716 168.46 156.142 168.46C156.422 168.46 156.622 168.54 156.742 168.7C156.876 168.847 156.942 169.027 156.942 169.24C156.942 169.453 156.849 169.653 156.662 169.84C156.476 170.013 156.236 170.1 155.942 170.1ZM155.941 170.1L156.121 168.46C156.881 168.46 157.415 168.387 157.721 168.24C158.028 168.093 158.201 167.84 158.241 167.48C158.295 167.107 158.308 166.58 158.281 165.9L157.901 155.72H159.521L159.921 165.72C159.961 166.667 159.895 167.467 159.721 168.12C159.561 168.773 159.188 169.267 158.601 169.6C158.028 169.933 157.141 170.1 155.941 170.1ZM162.977 170L162.577 155.72H164.197L164.597 170H162.977ZM178.995 170.42C176.622 170.42 174.829 170.113 173.615 169.5C172.402 168.873 171.795 167.827 171.795 166.36C171.795 165.867 171.855 165.347 171.975 164.8C172.095 164.24 172.222 163.713 172.355 163.22L173.855 163.6C173.775 163.893 173.682 164.267 173.575 164.72C173.482 165.173 173.435 165.567 173.435 165.9C173.435 166.593 173.609 167.153 173.955 167.58C174.315 167.993 174.935 168.3 175.815 168.5C176.695 168.687 177.929 168.78 179.515 168.78C180.822 168.78 181.902 168.733 182.755 168.64C183.609 168.533 184.269 168.373 184.735 168.16C185.215 167.933 185.542 167.647 185.715 167.3C185.902 166.94 185.989 166.507 185.975 166L185.595 155.72H187.215L187.615 165.82C187.629 166.5 187.735 167.033 187.935 167.42C188.135 167.807 188.402 168.08 188.735 168.24C189.069 168.387 189.435 168.46 189.835 168.46C190.115 168.46 190.315 168.54 190.435 168.7C190.569 168.847 190.635 169.027 190.635 169.24C190.635 169.453 190.542 169.653 190.355 169.84C190.169 170.013 189.929 170.1 189.635 170.1C188.835 170.1 188.222 169.947 187.795 169.64C187.382 169.333 187.095 168.973 186.935 168.56C186.335 169.24 185.402 169.72 184.135 170C182.869 170.28 181.155 170.42 178.995 170.42ZM178.475 165.92L178.095 164.66C178.935 164.433 179.535 164.253 179.895 164.12C180.255 163.973 180.435 163.82 180.435 163.66C180.435 163.513 180.355 163.38 180.195 163.26C180.049 163.127 179.875 162.993 179.675 162.86C179.489 162.713 179.315 162.547 179.155 162.36C179.009 162.173 178.935 161.947 178.935 161.68C178.935 161.333 179.102 160.953 179.435 160.54C179.769 160.127 180.429 159.68 181.415 159.2L182.035 160.34C181.422 160.633 180.969 160.887 180.675 161.1C180.395 161.3 180.255 161.48 180.255 161.64C180.255 161.76 180.329 161.887 180.475 162.02C180.635 162.153 180.809 162.3 180.995 162.46C181.195 162.62 181.369 162.807 181.515 163.02C181.675 163.22 181.755 163.46 181.755 163.74C181.755 163.993 181.675 164.24 181.515 164.48C181.355 164.72 181.042 164.96 180.575 165.2C180.109 165.427 179.409 165.667 178.475 165.92ZM189.633 170.1L189.833 168.46C190.606 168.46 191.213 168.433 191.653 168.38C192.106 168.313 192.426 168.16 192.613 167.92C192.799 167.68 192.893 167.287 192.893 166.74C192.893 166.247 192.773 165.613 192.533 164.84C192.306 164.067 192.046 163.3 191.753 162.54L193.373 161.94C193.546 162.38 193.706 162.873 193.853 163.42C194.013 163.953 194.146 164.487 194.253 165.02C194.359 165.553 194.413 166.02 194.413 166.42C194.413 167.767 194.039 168.72 193.293 169.28C192.546 169.827 191.326 170.1 189.633 170.1ZM193.993 159.86C193.713 159.86 193.473 159.767 193.273 159.58C193.086 159.38 192.993 159.147 192.993 158.88C192.993 158.613 193.086 158.38 193.273 158.18C193.473 157.98 193.713 157.88 193.993 157.88C194.259 157.88 194.486 157.98 194.673 158.18C194.873 158.38 194.973 158.613 194.973 158.88C194.973 159.147 194.873 159.38 194.673 159.58C194.486 159.767 194.259 159.86 193.993 159.86ZM191.253 159.86C190.973 159.86 190.733 159.767 190.533 159.58C190.346 159.38 190.253 159.147 190.253 158.88C190.253 158.613 190.346 158.38 190.533 158.18C190.733 157.98 190.973 157.88 191.253 157.88C191.519 157.88 191.746 157.98 191.933 158.18C192.133 158.38 192.233 158.613 192.233 158.88C192.233 159.147 192.133 159.38 191.933 159.58C191.746 159.767 191.519 159.86 191.253 159.86ZM201.429 170.1C200.349 170.1 199.529 169.98 198.969 169.74C198.409 169.5 198.023 169.127 197.809 168.62C197.596 168.113 197.476 167.46 197.449 166.66L197.049 155.72H198.689L199.089 166.02C199.116 166.673 199.176 167.18 199.269 167.54C199.376 167.887 199.603 168.127 199.949 168.26C200.309 168.393 200.869 168.46 201.629 168.46C201.909 168.46 202.109 168.54 202.229 168.7C202.363 168.847 202.429 169.027 202.429 169.24C202.429 169.453 202.336 169.653 202.149 169.84C201.963 170.013 201.723 170.1 201.429 170.1ZM201.43 170.1L201.63 168.46C202.296 168.46 202.816 168.413 203.19 168.32C203.563 168.213 203.843 168.02 204.03 167.74C204.23 167.447 204.39 167.027 204.51 166.48C204.63 165.933 204.776 165.22 204.95 164.34L206.51 164.64C206.43 165 206.336 165.413 206.23 165.88C206.136 166.347 206.09 166.74 206.09 167.06C206.09 167.26 206.103 167.447 206.13 167.62C206.156 167.793 206.256 167.94 206.43 168.06C206.603 168.18 206.896 168.28 207.31 168.36C207.723 168.427 208.316 168.46 209.09 168.46C209.37 168.46 209.57 168.54 209.69 168.7C209.823 168.847 209.89 169.027 209.89 169.24C209.89 169.453 209.796 169.653 209.61 169.84C209.423 170.013 209.183 170.1 208.89 170.1C208.023 170.1 207.343 170.053 206.85 169.96C206.37 169.853 206.01 169.707 205.77 169.52C205.543 169.32 205.376 169.073 205.27 168.78C204.883 169.327 204.403 169.687 203.83 169.86C203.27 170.02 202.47 170.1 201.43 170.1ZM206.47 173.88C206.19 173.88 205.95 173.78 205.75 173.58C205.563 173.393 205.47 173.167 205.47 172.9C205.47 172.633 205.563 172.4 205.75 172.2C205.95 172 206.19 171.9 206.47 171.9C206.736 171.9 206.963 172 207.15 172.2C207.35 172.4 207.45 172.633 207.45 172.9C207.45 173.167 207.35 173.393 207.15 173.58C206.963 173.78 206.736 173.88 206.47 173.88ZM203.73 173.88C203.45 173.88 203.21 173.78 203.01 173.58C202.823 173.393 202.73 173.167 202.73 172.9C202.73 172.633 202.823 172.4 203.01 172.2C203.21 172 203.45 171.9 203.73 171.9C203.996 171.9 204.223 172 204.41 172.2C204.61 172.4 204.71 172.633 204.71 172.9C204.71 173.167 204.61 173.393 204.41 173.58C204.223 173.78 203.996 173.88 203.73 173.88ZM208.891 170.1L209.071 168.46C210.444 168.46 211.777 168.26 213.071 167.86C214.364 167.447 215.544 166.867 216.611 166.12C216.091 165.667 215.451 165.3 214.691 165.02C213.944 164.74 213.117 164.6 212.211 164.6C211.877 164.6 211.584 164.62 211.331 164.66C211.077 164.687 210.771 164.74 210.411 164.82L210.091 163.3C210.837 163.073 211.544 162.96 212.211 162.96C212.904 162.96 213.531 163.047 214.091 163.22C214.651 163.38 215.157 163.58 215.611 163.82C216.077 164.06 216.511 164.3 216.911 164.54C217.324 164.78 217.724 164.987 218.111 165.16C218.497 165.32 218.897 165.4 219.311 165.4H219.731L219.871 166.84C219.191 166.84 218.571 166.953 218.011 167.18C217.451 167.393 216.884 167.667 216.311 168C215.751 168.32 215.131 168.64 214.451 168.96C213.784 169.28 213.004 169.553 212.111 169.78C211.217 169.993 210.144 170.1 208.891 170.1Z" fill="#2D3342"/>
<defs>
<linearGradient id="paint0_linear_1395_7130" x1="139.645" y1="28" x2="190.682" y2="68.2445" gradientUnits="userSpaceOnUse">
<stop stop-color="#5955B3"/>
<stop offset="1" stop-color="#6563CE"/>
</linearGradient>
</defs>
</svg>
