<svg width="753" height="409" viewBox="0 0 753 409" fill="none" xmlns="http://www.w3.org/2000/svg">
<rect width="753" height="407" fill="white"/>
<path opacity="0.2" fill-rule="evenodd" clip-rule="evenodd" d="M752.692 389.079C752.65 400.044 743.784 408.928 732.827 409H436C448.567 373.992 501.062 303.974 610.504 303.974C719.946 303.974 750.897 249.517 752.692 222.288V389.079Z" fill="#79A4E2"/>
<path opacity="0.2" fill-rule="evenodd" clip-rule="evenodd" d="M211.324 0C208.649 18.1119 192.257 69.0439 124.729 92.1467C59.2112 114.562 16.0501 106.853 8.03818e-06 99.6083L1.61396e-06 20C7.22594e-07 8.95433 8.95432 1.9166e-05 20 1.81199e-05L211.324 0Z" fill="#6EA3E6"/>
<path d="M154.056 198.545H157.738V209.523H157.883L165.425 198.545H168.656V216H164.965V205.014H164.837L157.252 216H154.056V198.545ZM180.747 208.006V210.861H173.912V208.006H180.747ZM175.105 202.909V216H171.636V202.909H175.105ZM183.023 202.909V216H179.58V202.909H183.023ZM192.104 220.449V198.545H195.726V220.449H192.104ZM192.104 216.256C191.098 216.256 190.18 216.094 189.351 215.77C188.521 215.44 187.805 214.977 187.203 214.381C186.601 213.778 186.135 213.065 185.805 212.241C185.476 211.412 185.311 210.5 185.311 209.506C185.311 208.5 185.476 207.585 185.805 206.761C186.135 205.932 186.601 205.219 187.203 204.622C187.805 204.02 188.521 203.557 189.351 203.233C190.18 202.903 191.098 202.739 192.104 202.739H192.777V216.256H192.104ZM192.104 213.426H192.504V205.568H192.104C191.615 205.568 191.18 205.67 190.8 205.875C190.419 206.08 190.098 206.361 189.837 206.719C189.575 207.071 189.376 207.486 189.24 207.963C189.109 208.44 189.044 208.955 189.044 209.506C189.044 210.233 189.163 210.895 189.402 211.491C189.641 212.082 189.99 212.554 190.45 212.906C190.911 213.253 191.462 213.426 192.104 213.426ZM195.726 216.256H195.053V202.739H195.726C196.732 202.739 197.649 202.903 198.479 203.233C199.308 203.557 200.024 204.02 200.626 204.622C201.229 205.219 201.695 205.932 202.024 206.761C202.354 207.585 202.518 208.5 202.518 209.506C202.518 210.5 202.354 211.412 202.024 212.241C201.695 213.065 201.229 213.778 200.626 214.381C200.024 214.977 199.308 215.44 198.479 215.77C197.649 216.094 196.732 216.256 195.726 216.256ZM195.726 213.426C196.214 213.426 196.649 213.327 197.03 213.128C197.411 212.923 197.732 212.642 197.993 212.284C198.254 211.926 198.453 211.511 198.589 211.04C198.726 210.562 198.794 210.051 198.794 209.506C198.794 208.773 198.672 208.111 198.428 207.52C198.189 206.923 197.842 206.449 197.388 206.097C196.933 205.744 196.379 205.568 195.726 205.568H195.325V213.426H195.726ZM210.809 216.256C209.485 216.256 208.34 215.974 207.374 215.412C206.414 214.844 205.673 214.054 205.15 213.043C204.627 212.026 204.366 210.847 204.366 209.506C204.366 208.153 204.627 206.972 205.15 205.96C205.673 204.943 206.414 204.153 207.374 203.591C208.34 203.023 209.485 202.739 210.809 202.739C212.133 202.739 213.275 203.023 214.235 203.591C215.201 204.153 215.945 204.943 216.468 205.96C216.991 206.972 217.252 208.153 217.252 209.506C217.252 210.847 216.991 212.026 216.468 213.043C215.945 214.054 215.201 214.844 214.235 215.412C213.275 215.974 212.133 216.256 210.809 216.256ZM210.826 213.443C211.428 213.443 211.931 213.273 212.335 212.932C212.738 212.585 213.042 212.114 213.246 211.517C213.457 210.92 213.562 210.241 213.562 209.48C213.562 208.719 213.457 208.04 213.246 207.443C213.042 206.847 212.738 206.375 212.335 206.028C211.931 205.682 211.428 205.509 210.826 205.509C210.218 205.509 209.707 205.682 209.292 206.028C208.883 206.375 208.573 206.847 208.363 207.443C208.158 208.04 208.056 208.719 208.056 209.48C208.056 210.241 208.158 210.92 208.363 211.517C208.573 212.114 208.883 212.585 209.292 212.932C209.707 213.273 210.218 213.443 210.826 213.443ZM219.613 220.909V202.909H223.192V205.108H223.354C223.513 204.756 223.744 204.398 224.045 204.034C224.352 203.665 224.749 203.358 225.238 203.114C225.732 202.864 226.346 202.739 227.079 202.739C228.033 202.739 228.914 202.989 229.721 203.489C230.528 203.983 231.173 204.73 231.656 205.73C232.138 206.724 232.38 207.972 232.38 209.472C232.38 210.932 232.144 212.165 231.673 213.17C231.207 214.17 230.57 214.929 229.763 215.446C228.962 215.957 228.065 216.213 227.07 216.213C226.366 216.213 225.766 216.097 225.272 215.864C224.783 215.631 224.383 215.338 224.07 214.986C223.758 214.628 223.519 214.267 223.354 213.903H223.244V220.909H219.613ZM223.167 209.455C223.167 210.233 223.275 210.912 223.491 211.491C223.707 212.071 224.019 212.523 224.428 212.847C224.837 213.165 225.335 213.324 225.92 213.324C226.511 213.324 227.011 213.162 227.42 212.838C227.829 212.509 228.138 212.054 228.349 211.474C228.565 210.889 228.673 210.216 228.673 209.455C228.673 208.699 228.567 208.034 228.357 207.46C228.147 206.886 227.837 206.437 227.428 206.114C227.019 205.79 226.516 205.628 225.92 205.628C225.329 205.628 224.829 205.784 224.42 206.097C224.016 206.409 223.707 206.852 223.491 207.426C223.275 208 223.167 208.676 223.167 209.455ZM242.539 211.986L246.085 202.909H248.846L243.741 216H241.329L236.343 202.909H239.096L242.539 211.986ZM238.269 202.909V216H234.8V202.909H238.269ZM246.988 216V202.909H250.414V216H246.988ZM256.955 216.247C256.12 216.247 255.376 216.102 254.722 215.812C254.069 215.517 253.552 215.082 253.171 214.509C252.796 213.929 252.609 213.207 252.609 212.344C252.609 211.616 252.742 211.006 253.009 210.511C253.276 210.017 253.64 209.619 254.1 209.318C254.56 209.017 255.083 208.79 255.668 208.636C256.259 208.483 256.879 208.375 257.526 208.312C258.288 208.233 258.901 208.159 259.367 208.091C259.833 208.017 260.171 207.909 260.381 207.767C260.592 207.625 260.697 207.415 260.697 207.136V207.085C260.697 206.545 260.526 206.128 260.185 205.832C259.85 205.537 259.373 205.389 258.754 205.389C258.1 205.389 257.58 205.534 257.194 205.824C256.808 206.108 256.552 206.466 256.427 206.898L253.069 206.625C253.239 205.83 253.575 205.142 254.075 204.562C254.575 203.977 255.219 203.528 256.009 203.216C256.805 202.898 257.725 202.739 258.771 202.739C259.498 202.739 260.194 202.824 260.859 202.994C261.529 203.165 262.123 203.429 262.64 203.787C263.163 204.145 263.575 204.605 263.876 205.168C264.177 205.724 264.327 206.392 264.327 207.17V216H260.884V214.185H260.782C260.572 214.594 260.29 214.955 259.938 215.267C259.586 215.574 259.163 215.815 258.668 215.991C258.174 216.162 257.603 216.247 256.955 216.247ZM257.995 213.741C258.529 213.741 259.001 213.636 259.41 213.426C259.819 213.21 260.14 212.92 260.373 212.557C260.606 212.193 260.722 211.781 260.722 211.321V209.932C260.609 210.006 260.452 210.074 260.254 210.136C260.06 210.193 259.842 210.247 259.597 210.298C259.353 210.344 259.109 210.386 258.864 210.426C258.62 210.46 258.398 210.491 258.2 210.52C257.773 210.582 257.401 210.682 257.083 210.818C256.765 210.955 256.518 211.139 256.342 211.372C256.165 211.599 256.077 211.884 256.077 212.224C256.077 212.719 256.256 213.097 256.614 213.358C256.978 213.614 257.438 213.741 257.995 213.741ZM278.59 202.909V213.494H280.678V220.21H277.15V216H267.144V202.909H270.613V213.145H275.164V202.909H278.59ZM286.386 211.21L291.099 202.909H294.679V216H291.219V207.673L286.523 216H282.918V202.909H286.386V211.21ZM305.26 216V205.756H302.805C302.141 205.756 301.635 205.909 301.288 206.216C300.942 206.523 300.771 206.886 300.777 207.307C300.771 207.733 300.936 208.094 301.271 208.389C301.612 208.679 302.112 208.824 302.771 208.824H306.47V211.278H302.771C301.652 211.278 300.683 211.108 299.865 210.767C299.047 210.426 298.416 209.952 297.973 209.344C297.53 208.73 297.311 208.017 297.317 207.205C297.311 206.352 297.53 205.605 297.973 204.963C298.416 204.315 299.05 203.812 299.874 203.455C300.703 203.091 301.68 202.909 302.805 202.909H308.643V216H305.26ZM296.942 216L300.581 209.182H304.05L300.419 216H296.942ZM317.019 216V202.909H328.465V216H324.996V205.764H320.445V216H317.019ZM337.278 216.256C335.954 216.256 334.809 215.974 333.843 215.412C332.883 214.844 332.141 214.054 331.619 213.043C331.096 212.026 330.835 210.847 330.835 209.506C330.835 208.153 331.096 206.972 331.619 205.96C332.141 204.943 332.883 204.153 333.843 203.591C334.809 203.023 335.954 202.739 337.278 202.739C338.602 202.739 339.744 203.023 340.704 203.591C341.67 204.153 342.414 204.943 342.937 205.96C343.46 206.972 343.721 208.153 343.721 209.506C343.721 210.847 343.46 212.026 342.937 213.043C342.414 214.054 341.67 214.844 340.704 215.412C339.744 215.974 338.602 216.256 337.278 216.256ZM337.295 213.443C337.897 213.443 338.4 213.273 338.803 212.932C339.207 212.585 339.511 212.114 339.715 211.517C339.925 210.92 340.031 210.241 340.031 209.48C340.031 208.719 339.925 208.04 339.715 207.443C339.511 206.847 339.207 206.375 338.803 206.028C338.4 205.682 337.897 205.509 337.295 205.509C336.687 205.509 336.175 205.682 335.761 206.028C335.352 206.375 335.042 206.847 334.832 207.443C334.627 208.04 334.525 208.719 334.525 209.48C334.525 210.241 334.627 210.92 334.832 211.517C335.042 212.114 335.352 212.585 335.761 212.932C336.175 213.273 336.687 213.443 337.295 213.443ZM351.636 216V202.909H355.267V207.989H356.29L359.852 202.909H364.114L359.486 209.403L364.165 216H359.852L356.622 211.355H355.267V216H351.636ZM368.151 220.909C367.691 220.909 367.259 220.872 366.856 220.798C366.458 220.73 366.129 220.642 365.867 220.534L366.685 217.824C367.112 217.955 367.495 218.026 367.836 218.037C368.183 218.048 368.481 217.969 368.731 217.798C368.987 217.628 369.194 217.338 369.353 216.929L369.566 216.375L364.87 202.909H368.688L371.398 212.523H371.535L374.271 202.909H378.114L373.026 217.415C372.782 218.119 372.45 218.733 372.029 219.256C371.614 219.784 371.089 220.19 370.452 220.474C369.816 220.764 369.049 220.909 368.151 220.909ZM379.972 220.909V202.909H383.552V205.108H383.714C383.873 204.756 384.103 204.398 384.404 204.034C384.711 203.665 385.109 203.358 385.597 203.114C386.092 202.864 386.705 202.739 387.438 202.739C388.393 202.739 389.273 202.989 390.08 203.489C390.887 203.983 391.532 204.73 392.015 205.73C392.498 206.724 392.739 207.972 392.739 209.472C392.739 210.932 392.504 212.165 392.032 213.17C391.566 214.17 390.93 214.929 390.123 215.446C389.322 215.957 388.424 216.213 387.43 216.213C386.725 216.213 386.126 216.097 385.631 215.864C385.143 215.631 384.742 215.338 384.43 214.986C384.117 214.628 383.879 214.267 383.714 213.903H383.603V220.909H379.972ZM383.526 209.455C383.526 210.233 383.634 210.912 383.85 211.491C384.066 212.071 384.379 212.523 384.788 212.847C385.197 213.165 385.694 213.324 386.279 213.324C386.87 213.324 387.37 213.162 387.779 212.838C388.188 212.509 388.498 212.054 388.708 211.474C388.924 210.889 389.032 210.216 389.032 209.455C389.032 208.699 388.927 208.034 388.717 207.46C388.506 206.886 388.197 206.437 387.788 206.114C387.379 205.79 386.876 205.628 386.279 205.628C385.688 205.628 385.188 205.784 384.779 206.097C384.376 206.409 384.066 206.852 383.85 207.426C383.634 208 383.526 208.676 383.526 209.455ZM401.075 216.256C399.734 216.256 398.58 215.972 397.614 215.403C396.654 214.83 395.915 214.034 395.398 213.017C394.887 212 394.631 210.83 394.631 209.506C394.631 208.165 394.89 206.989 395.407 205.977C395.93 204.96 396.671 204.168 397.631 203.599C398.592 203.026 399.734 202.739 401.058 202.739C402.2 202.739 403.2 202.946 404.058 203.361C404.915 203.776 405.594 204.358 406.094 205.108C406.594 205.858 406.87 206.739 406.921 207.75H403.495C403.398 207.097 403.143 206.571 402.728 206.173C402.319 205.77 401.782 205.568 401.117 205.568C400.555 205.568 400.063 205.722 399.643 206.028C399.228 206.33 398.904 206.77 398.671 207.349C398.438 207.929 398.322 208.631 398.322 209.455C398.322 210.29 398.435 211 398.663 211.585C398.896 212.17 399.222 212.616 399.643 212.923C400.063 213.23 400.555 213.384 401.117 213.384C401.532 213.384 401.904 213.298 402.234 213.128C402.569 212.957 402.844 212.71 403.06 212.386C403.282 212.057 403.427 211.662 403.495 211.202H406.921C406.864 212.202 406.592 213.082 406.103 213.844C405.62 214.599 404.952 215.19 404.1 215.616C403.248 216.043 402.239 216.256 401.075 216.256ZM412.979 216.247C412.143 216.247 411.399 216.102 410.746 215.812C410.092 215.517 409.575 215.082 409.195 214.509C408.82 213.929 408.632 213.207 408.632 212.344C408.632 211.616 408.766 211.006 409.033 210.511C409.3 210.017 409.663 209.619 410.124 209.318C410.584 209.017 411.107 208.79 411.692 208.636C412.283 208.483 412.902 208.375 413.55 208.312C414.311 208.233 414.925 208.159 415.391 208.091C415.857 208.017 416.195 207.909 416.405 207.767C416.615 207.625 416.72 207.415 416.72 207.136V207.085C416.72 206.545 416.55 206.128 416.209 205.832C415.874 205.537 415.396 205.389 414.777 205.389C414.124 205.389 413.604 205.534 413.217 205.824C412.831 206.108 412.575 206.466 412.45 206.898L409.092 206.625C409.263 205.83 409.598 205.142 410.098 204.562C410.598 203.977 411.243 203.528 412.033 203.216C412.828 202.898 413.749 202.739 414.794 202.739C415.521 202.739 416.217 202.824 416.882 202.994C417.553 203.165 418.146 203.429 418.663 203.787C419.186 204.145 419.598 204.605 419.899 205.168C420.2 205.724 420.351 206.392 420.351 207.17V216H416.908V214.185H416.805C416.595 214.594 416.314 214.955 415.962 215.267C415.609 215.574 415.186 215.815 414.692 215.991C414.197 216.162 413.626 216.247 412.979 216.247ZM414.018 213.741C414.553 213.741 415.024 213.636 415.433 213.426C415.842 213.21 416.163 212.92 416.396 212.557C416.629 212.193 416.746 211.781 416.746 211.321V209.932C416.632 210.006 416.476 210.074 416.277 210.136C416.084 210.193 415.865 210.247 415.621 210.298C415.376 210.344 415.132 210.386 414.888 210.426C414.643 210.46 414.422 210.491 414.223 210.52C413.797 210.582 413.425 210.682 413.107 210.818C412.788 210.955 412.541 211.139 412.365 211.372C412.189 211.599 412.101 211.884 412.101 212.224C412.101 212.719 412.28 213.097 412.638 213.358C413.001 213.614 413.462 213.741 414.018 213.741ZM430.906 211.986L434.452 202.909H437.213L432.108 216H429.696L424.71 202.909H427.463L430.906 211.986ZM426.636 202.909V216H423.168V202.909H426.636ZM435.355 216V202.909H438.781V216H435.355ZM463.252 207.273C463.252 209.176 462.891 210.795 462.17 212.131C461.454 213.466 460.477 214.486 459.238 215.19C458.005 215.889 456.619 216.239 455.079 216.239C453.528 216.239 452.136 215.886 450.903 215.182C449.67 214.477 448.695 213.457 447.979 212.122C447.263 210.787 446.906 209.17 446.906 207.273C446.906 205.369 447.263 203.75 447.979 202.415C448.695 201.08 449.67 200.062 450.903 199.364C452.136 198.659 453.528 198.307 455.079 198.307C456.619 198.307 458.005 198.659 459.238 199.364C460.477 200.062 461.454 201.08 462.17 202.415C462.891 203.75 463.252 205.369 463.252 207.273ZM459.511 207.273C459.511 206.04 459.326 205 458.957 204.153C458.593 203.307 458.079 202.665 457.414 202.227C456.749 201.79 455.971 201.571 455.079 201.571C454.187 201.571 453.408 201.79 452.744 202.227C452.079 202.665 451.562 203.307 451.192 204.153C450.829 205 450.647 206.04 450.647 207.273C450.647 208.506 450.829 209.545 451.192 210.392C451.562 211.239 452.079 211.881 452.744 212.318C453.408 212.756 454.187 212.974 455.079 212.974C455.971 212.974 456.749 212.756 457.414 212.318C458.079 211.881 458.593 211.239 458.957 210.392C459.326 209.545 459.511 208.506 459.511 207.273ZM465.918 220.909V202.909H469.497V205.108H469.659C469.818 204.756 470.048 204.398 470.349 204.034C470.656 203.665 471.054 203.358 471.543 203.114C472.037 202.864 472.651 202.739 473.384 202.739C474.338 202.739 475.219 202.989 476.026 203.489C476.832 203.983 477.477 204.73 477.96 205.73C478.443 206.724 478.685 207.972 478.685 209.472C478.685 210.932 478.449 212.165 477.977 213.17C477.511 214.17 476.875 214.929 476.068 215.446C475.267 215.957 474.369 216.213 473.375 216.213C472.67 216.213 472.071 216.097 471.577 215.864C471.088 215.631 470.688 215.338 470.375 214.986C470.062 214.628 469.824 214.267 469.659 213.903H469.548V220.909H465.918ZM469.472 209.455C469.472 210.233 469.58 210.912 469.795 211.491C470.011 212.071 470.324 212.523 470.733 212.847C471.142 213.165 471.639 213.324 472.224 213.324C472.815 213.324 473.315 213.162 473.724 212.838C474.134 212.509 474.443 212.054 474.653 211.474C474.869 210.889 474.977 210.216 474.977 209.455C474.977 208.699 474.872 208.034 474.662 207.46C474.452 206.886 474.142 206.437 473.733 206.114C473.324 205.79 472.821 205.628 472.224 205.628C471.634 205.628 471.134 205.784 470.724 206.097C470.321 206.409 470.011 206.852 469.795 207.426C469.58 208 469.472 208.676 469.472 209.455ZM487.071 216.256C485.724 216.256 484.565 215.983 483.594 215.438C482.628 214.886 481.884 214.108 481.361 213.102C480.838 212.091 480.577 210.895 480.577 209.514C480.577 208.168 480.838 206.986 481.361 205.969C481.884 204.952 482.619 204.159 483.568 203.591C484.523 203.023 485.642 202.739 486.926 202.739C487.79 202.739 488.594 202.878 489.338 203.156C490.088 203.429 490.741 203.841 491.298 204.392C491.861 204.943 492.298 205.636 492.611 206.472C492.923 207.301 493.08 208.273 493.08 209.386V210.384H482.026V208.134H489.662C489.662 207.611 489.548 207.148 489.321 206.744C489.094 206.341 488.778 206.026 488.375 205.798C487.977 205.565 487.514 205.449 486.986 205.449C486.435 205.449 485.946 205.577 485.52 205.832C485.099 206.082 484.77 206.42 484.531 206.847C484.293 207.267 484.17 207.736 484.165 208.253V210.392C484.165 211.04 484.284 211.599 484.523 212.071C484.767 212.543 485.111 212.906 485.554 213.162C485.997 213.418 486.523 213.545 487.131 213.545C487.534 213.545 487.903 213.489 488.239 213.375C488.574 213.261 488.861 213.091 489.099 212.864C489.338 212.636 489.52 212.358 489.645 212.028L493.003 212.25C492.832 213.057 492.483 213.761 491.955 214.364C491.432 214.96 490.756 215.426 489.926 215.761C489.102 216.091 488.151 216.256 487.071 216.256ZM499.08 208.432V216H495.449V202.909H498.909V205.219H499.062C499.352 204.457 499.838 203.855 500.52 203.412C501.202 202.963 502.028 202.739 503 202.739C503.909 202.739 504.702 202.938 505.378 203.335C506.054 203.733 506.58 204.301 506.955 205.04C507.33 205.773 507.517 206.648 507.517 207.665V216H503.886V208.312C503.892 207.511 503.688 206.886 503.273 206.438C502.858 205.983 502.287 205.756 501.56 205.756C501.071 205.756 500.639 205.861 500.264 206.071C499.895 206.281 499.605 206.588 499.395 206.991C499.19 207.389 499.085 207.869 499.08 208.432ZM516.344 216.256C514.998 216.256 513.839 215.983 512.867 215.438C511.901 214.886 511.157 214.108 510.634 213.102C510.112 212.091 509.85 210.895 509.85 209.514C509.85 208.168 510.112 206.986 510.634 205.969C511.157 204.952 511.893 204.159 512.842 203.591C513.796 203.023 514.915 202.739 516.2 202.739C517.063 202.739 517.867 202.878 518.612 203.156C519.362 203.429 520.015 203.841 520.572 204.392C521.134 204.943 521.572 205.636 521.884 206.472C522.197 207.301 522.353 208.273 522.353 209.386V210.384H511.299V208.134H518.935C518.935 207.611 518.822 207.148 518.594 206.744C518.367 206.341 518.052 206.026 517.648 205.798C517.251 205.565 516.788 205.449 516.259 205.449C515.708 205.449 515.219 205.577 514.793 205.832C514.373 206.082 514.043 206.42 513.805 206.847C513.566 207.267 513.444 207.736 513.438 208.253V210.392C513.438 211.04 513.558 211.599 513.796 212.071C514.04 212.543 514.384 212.906 514.827 213.162C515.271 213.418 515.796 213.545 516.404 213.545C516.808 213.545 517.177 213.489 517.512 213.375C517.847 213.261 518.134 213.091 518.373 212.864C518.612 212.636 518.793 212.358 518.918 212.028L522.276 212.25C522.106 213.057 521.756 213.761 521.228 214.364C520.705 214.96 520.029 215.426 519.2 215.761C518.376 216.091 517.424 216.256 516.344 216.256ZM529.546 216.213C528.552 216.213 527.651 215.957 526.844 215.446C526.043 214.929 525.407 214.17 524.935 213.17C524.469 212.165 524.237 210.932 524.237 209.472C524.237 207.972 524.478 206.724 524.961 205.73C525.444 204.73 526.086 203.983 526.887 203.489C527.694 202.989 528.577 202.739 529.538 202.739C530.271 202.739 530.881 202.864 531.37 203.114C531.864 203.358 532.262 203.665 532.563 204.034C532.87 204.398 533.103 204.756 533.262 205.108H533.373V198.545H536.995V216H533.415V213.903H533.262C533.092 214.267 532.85 214.628 532.538 214.986C532.231 215.338 531.83 215.631 531.336 215.864C530.847 216.097 530.251 216.213 529.546 216.213ZM530.697 213.324C531.282 213.324 531.776 213.165 532.18 212.847C532.589 212.523 532.901 212.071 533.117 211.491C533.339 210.912 533.45 210.233 533.45 209.455C533.45 208.676 533.342 208 533.126 207.426C532.91 206.852 532.597 206.409 532.188 206.097C531.779 205.784 531.282 205.628 530.697 205.628C530.1 205.628 529.597 205.79 529.188 206.114C528.779 206.437 528.469 206.886 528.259 207.46C528.049 208.034 527.944 208.699 527.944 209.455C527.944 210.216 528.049 210.889 528.259 211.474C528.475 212.054 528.785 212.509 529.188 212.838C529.597 213.162 530.1 213.324 530.697 213.324ZM548.375 210.426V202.909H552.006V216H548.52V213.622H548.384C548.088 214.389 547.597 215.006 546.909 215.472C546.227 215.937 545.395 216.17 544.412 216.17C543.537 216.17 542.767 215.972 542.102 215.574C541.438 215.176 540.918 214.611 540.543 213.878C540.173 213.145 539.986 212.267 539.98 211.244V202.909H543.611V210.597C543.616 211.369 543.824 211.98 544.233 212.429C544.642 212.878 545.19 213.102 545.878 213.102C546.315 213.102 546.724 213.003 547.105 212.804C547.486 212.599 547.793 212.298 548.026 211.901C548.264 211.503 548.381 211.011 548.375 210.426Z" fill="url(#paint0_linear_19_65)"/>
<defs>
<linearGradient id="paint0_linear_19_65" x1="308.03" y1="192" x2="334.327" y2="251.928" gradientUnits="userSpaceOnUse">
<stop stop-color="#5955B3"/>
<stop offset="1" stop-color="#6563CE"/>
</linearGradient>
</defs>
</svg>
