<svg width="325" height="290" viewBox="0 0 325 290" fill="none" xmlns="http://www.w3.org/2000/svg">
<rect width="325" height="290" rx="5" fill="white"/>
<g filter="url(#filter0_d_1314_8435)">
<path d="M94.925 115.402C93.3022 118.802 89.9793 127.164 89.0914 134.495C89.0546 134.799 88.4107 134.976 88.1647 134.752C84.4236 131.35 74.9413 125.723 68.5335 123.042" stroke="#5955B3" stroke-width="4" stroke-linecap="round"/>
<path d="M87.6855 133.133C83.2534 123.603 73.8849 107.262 72.5751 94.8296" stroke="#5955B3" stroke-width="4" stroke-linecap="round"/>
</g>
<path opacity="0.2" fill-rule="evenodd" clip-rule="evenodd" d="M324.664 269.81C324.612 280.783 315.724 289.668 304.749 289.713H171.145C177.237 275.753 202.684 247.832 255.737 247.832C308.79 247.832 323.794 226.116 324.664 215.258V269.81Z" fill="#89AFFF"/>
<path opacity="0.2" fill-rule="evenodd" clip-rule="evenodd" d="M149.339 0C147.453 10.5057 135.894 40.0486 88.2786 53.4492C42.0808 66.4509 11.6469 61.9796 0.329595 57.7773L0.329592 20C0.329591 8.95432 9.28386 1.09491e-05 20.3296 1.00855e-05L149.339 0Z" fill="#89AFFF"/>
<path d="M133.16 34H139.88V36.712H133.16V34ZM131.576 19.096H141.416V38.128H138.56V21.808H134.312V38.512H131.576V19.096ZM119.912 21.376H128.528V24.136H119.912V21.376ZM123.536 16.6L126.32 16.912C125.288 22.048 123.8 28.528 122.576 32.824L120.152 31.672C121.28 27.832 122.696 21.448 123.536 16.6ZM121.16 30.856L122.648 28.744C125.576 30.424 129.272 32.968 130.928 34.936L129.272 37.408C127.688 35.392 124.088 32.656 121.16 30.856ZM127.688 21.376H128.168L128.672 21.328L130.448 21.64C129.8 31.336 127.136 36.424 121.76 39.16C121.376 38.44 120.632 37.36 120.056 36.784C124.712 34.816 127.16 29.824 127.688 21.928V21.376ZM151.424 18.688H166.28V21.448H151.424V18.688ZM161.936 19.696H164.84V35.776C164.84 37.432 164.48 38.2 163.448 38.68C162.416 39.112 160.784 39.208 158.552 39.184C158.432 38.368 157.976 37.072 157.568 36.256C159.152 36.328 160.808 36.328 161.312 36.304C161.792 36.304 161.936 36.184 161.936 35.728V19.696ZM151.712 24.04H154.4V34.36H151.712V24.04ZM152.888 24.04H159.728V32.776H152.888V30.304H157.064V26.536H152.888V24.04ZM148.952 16.576L151.64 17.44C150.152 21.496 147.68 25.792 145.088 28.48C144.848 27.808 144.056 26.2 143.576 25.504C145.712 23.368 147.752 19.96 148.952 16.576ZM146.792 23.32L149.648 20.464V20.488V39.112H146.792V23.32ZM177.992 21.592H189.416V24.184H177.992V21.592ZM177.536 27.544H190.136V30.16H177.536V27.544ZM181.976 23.8H184.88V27.328C184.88 30.808 184.136 35.824 178.592 39.424C178.136 38.824 177.176 37.888 176.432 37.384C181.616 34.36 181.976 30.016 181.976 27.304V23.8ZM184.64 29.944C185.6 33.016 187.544 35.56 190.496 36.736C189.872 37.288 189.032 38.392 188.624 39.136C185.36 37.552 183.368 34.456 182.216 30.496L184.64 29.944ZM185.888 17.032L188.816 17.776C187.928 19.504 186.92 21.28 186.08 22.48L183.728 21.76C184.496 20.464 185.408 18.496 185.888 17.032ZM178.376 18.112L180.68 17.008C181.64 18.064 182.648 19.504 183.08 20.536L180.656 21.808C180.272 20.776 179.312 19.216 178.376 18.112ZM167.984 17.536H177.32V20.104H167.984V17.536ZM170.576 22.648H174.896V25H170.576V22.648ZM170.576 27.52H174.896V29.872H170.576V27.52ZM168.992 18.904H171.536V33.976H168.992V18.904ZM174.008 18.88H176.456V39.16H174.008V18.88ZM167.672 33.352C170.312 33.016 174.368 32.392 178.136 31.792L178.304 34.264C174.8 34.888 171.032 35.536 168.248 36.04L167.672 33.352ZM192.536 32.944C192.392 32.392 191.936 31.048 191.624 30.328C192.248 30.184 192.776 29.68 193.544 28.816C194.36 28 196.784 24.856 198.344 21.712L200.792 23.296C199.016 26.272 196.64 29.32 194.408 31.504V31.576C194.408 31.576 192.536 32.44 192.536 32.944ZM192.536 32.944L192.32 30.568L193.544 29.68L200 28.36C199.928 29.128 199.928 30.28 200 30.88C194.192 32.224 193.184 32.56 192.536 32.944ZM192.368 27.088C192.224 26.536 191.744 25.12 191.408 24.376C191.936 24.232 192.368 23.728 192.896 22.984C193.448 22.24 195.104 19.312 195.992 16.6L198.752 17.92C197.528 20.632 195.68 23.56 193.928 25.6V25.696C193.928 25.696 192.368 26.584 192.368 27.088ZM192.368 27.088L192.296 25.024L193.472 24.232L197.432 23.92C197.288 24.664 197.144 25.72 197.144 26.296C193.616 26.68 192.824 26.872 192.368 27.088ZM191.72 35.392C193.784 34.816 196.904 33.76 199.928 32.728L200.432 35.176C197.672 36.256 194.72 37.36 192.392 38.248L191.72 35.392ZM201.656 29.848H212.456V38.92H209.696V32.368H204.32V38.992H201.656V29.848ZM203.264 35.2H211.64V37.72H203.264V35.2ZM205.52 18.832H211.616V21.424H204.248L205.52 18.832ZM210.68 18.832H211.256L211.736 18.736L213.392 19.768C211.16 25.336 206.12 28.912 200.6 30.568C200.432 29.8 199.904 28.432 199.544 27.832C204.632 26.56 209.024 23.68 210.68 19.312V18.832ZM204.296 16.288L206.888 17.056C205.616 20.224 203.552 23.344 201.32 25.312C200.984 24.736 200.168 23.488 199.64 22.912C201.584 21.352 203.336 18.88 204.296 16.288ZM204.512 21.232C206.264 24.424 209.84 26.752 214.304 27.688C213.872 28.384 213.464 29.632 213.32 30.4C208.424 29.032 204.512 26.224 202.376 22.528L204.512 21.232Z" fill="url(#paint0_linear_1314_8435)"/>
<path d="M87.992 69.04H102.008V70.208H87.992V69.04ZM92.952 74.112H101.384V75.232H92.952V74.112ZM92.328 79.776H102.008V80.912H92.328V79.776ZM96.568 71.024H97.768V80.384H96.568V71.024ZM93.256 66.56L94.488 66.864C93.368 70.528 91.416 74.256 88.232 76.544C88.104 76.224 87.8 75.712 87.608 75.44C90.488 73.408 92.36 69.856 93.256 66.56ZM90.088 73.152H91.288V81.232H90.088V73.152ZM112.536 68.4H113.704V77.152H112.536V68.4ZM116.424 66.864H117.624V79.712C117.624 80.528 117.4 80.88 116.92 81.072C116.392 81.28 115.528 81.312 114.072 81.296C113.992 80.976 113.816 80.448 113.64 80.112C114.728 80.144 115.72 80.128 116.008 80.128C116.312 80.112 116.424 80.016 116.424 79.728V66.864ZM106.28 70.88H110.632V72H106.28V70.88ZM103.944 67.392H111.912V68.512H103.944V67.392ZM105.144 74.256L105.704 73.376C106.904 74.048 108.456 75.04 109.224 75.68L108.616 76.688C107.864 76.016 106.328 74.976 105.144 74.256ZM110.184 70.88H110.424L110.648 70.832L111.4 71.104C110.52 76.336 108.2 79.632 105.24 81.328C105.064 81.056 104.616 80.624 104.344 80.432C107.256 78.88 109.448 75.856 110.184 71.152V70.88ZM106.84 67.92L108.056 68.144C107.368 70.912 106.184 74.016 104.184 75.92C103.976 75.696 103.592 75.328 103.352 75.12C105.208 73.36 106.344 70.4 106.84 67.92ZM120.584 67.904H133.432V68.944H120.584V67.904ZM121.32 70.256H132.808V71.264H121.32V70.256ZM119.992 72.704H133.976V73.76H119.992V72.704ZM126.344 66.56H127.56V73.52H126.344V66.56ZM126.296 73.056L127.336 73.552C125.672 75.376 122.712 77.056 120.232 77.872C120.04 77.568 119.704 77.12 119.448 76.88C121.912 76.176 124.808 74.64 126.296 73.056ZM128.04 73.216C129 76.64 131.08 79.168 134.472 80.176C134.2 80.416 133.864 80.912 133.688 81.232C130.152 80.016 128.056 77.312 126.952 73.44L128.04 73.216ZM132.6 74.288L133.56 75.04C132.424 75.952 130.904 76.928 129.752 77.568L129.016 76.912C130.136 76.24 131.688 75.136 132.6 74.288ZM121.224 80.176C123.064 79.776 125.944 79.056 128.68 78.384L128.792 79.456C126.264 80.112 123.528 80.8 121.608 81.28L121.224 80.176ZM123.48 76.032L124.344 75.168L124.68 75.264V80.096H123.48V76.032ZM136.536 69.424H149.432V76.96H148.184V70.608H137.736V77.04H136.536V69.424ZM137.176 74.864H148.904V76.032H137.176V74.864ZM142.328 66.56H143.576V81.264H142.328V66.56ZM155.72 76.528V77.856H162.2V76.528H155.72ZM155.72 74.368V75.68H162.2V74.368H155.72ZM154.536 73.504H163.432V78.72H154.536V73.504ZM151.912 68.608H166.104V69.664H151.912V68.608ZM158.344 66.56H159.544V73.008H158.344V66.56ZM157.656 68.912L158.664 69.312C157.224 71.376 154.696 73.248 152.344 74.176C152.168 73.888 151.816 73.456 151.56 73.216C153.864 72.432 156.376 70.704 157.656 68.912ZM160.2 68.928C161.496 70.672 164.056 72.32 166.424 73.072C166.152 73.296 165.8 73.744 165.624 74.064C163.24 73.168 160.68 71.328 159.224 69.312L160.2 68.928ZM152.168 79.696H165.88V80.768H152.168V79.696ZM167.528 75.04C168.968 74.688 171.128 74.08 173.16 73.488L173.304 74.592C171.432 75.152 169.416 75.76 167.88 76.192L167.528 75.04ZM167.72 69.792H173.144V70.928H167.72V69.792ZM170.024 66.576H171.192V79.76C171.192 80.432 171.016 80.768 170.616 80.944C170.184 81.136 169.528 81.168 168.424 81.168C168.376 80.864 168.2 80.368 168.056 80.048C168.808 80.08 169.496 80.064 169.704 80.064C169.928 80.064 170.024 79.984 170.024 79.76V66.576ZM173.336 71.088L181.928 70.192L182.056 71.312L173.464 72.24L173.336 71.088ZM177.8 67.552L178.712 66.944C179.512 67.616 180.472 68.592 180.92 69.248L179.96 69.936C179.544 69.264 178.584 68.256 177.8 67.552ZM175.496 66.624H176.712C176.984 73.808 178.28 79.568 180.664 79.808C181.096 79.84 181.352 78.96 181.512 77.2C181.752 77.44 182.28 77.744 182.536 77.856C182.168 80.464 181.528 81.264 180.712 81.216C177.144 80.944 175.88 74.784 175.496 66.624ZM180.248 72.56L181.24 73.168C179.8 76.304 176.92 79.328 173.8 80.736C173.576 80.416 173.192 80.032 172.856 79.792C176.04 78.528 178.92 75.584 180.248 72.56ZM183.976 75.344H198.104V76.48H183.976V75.344ZM193.352 74.112H194.584V79.856C194.584 80.56 194.392 80.896 193.816 81.056C193.24 81.232 192.28 81.232 190.728 81.232C190.68 80.912 190.472 80.464 190.312 80.144C191.496 80.192 192.648 80.176 192.952 80.16C193.256 80.16 193.352 80.08 193.352 79.84V74.112ZM186.376 77.088L187.208 76.384C188.216 77.2 189.352 78.368 189.88 79.184L188.984 79.984C188.504 79.152 187.368 77.936 186.376 77.088ZM185.16 67.696H186.408V71.872C186.408 72.544 186.728 72.704 188.504 72.704C189.336 72.704 193.768 72.704 194.888 72.704C196.2 72.704 196.424 72.48 196.568 71.296C196.872 71.472 197.368 71.616 197.72 71.68C197.512 73.312 197 73.712 194.984 73.712C194.328 73.712 189.192 73.712 188.584 73.712C185.944 73.712 185.16 73.376 185.16 71.888V67.696ZM185.576 69.936H195.032V68.256H185.16V67.2H196.2V71.008H185.576V69.936ZM205.128 67.408H214.168V68.512H205.128V67.408ZM208.952 67.856H210.088V81.248H208.952V67.856ZM205.688 70.48H212.872V71.568H206.808V78.976H205.688V70.48ZM212.424 70.48H213.544V77.616C213.544 78.176 213.448 78.48 213.064 78.672C212.68 78.864 212.12 78.864 211.24 78.864C211.192 78.56 211.032 78.112 210.888 77.808C211.496 77.824 212.024 77.824 212.2 77.824C212.376 77.824 212.424 77.76 212.424 77.584V70.48ZM203.064 66.592H204.184V72.992C204.184 76.16 203.88 79.088 201.48 81.264C201.288 81.024 200.872 80.64 200.584 80.464C202.808 78.496 203.064 75.856 203.064 72.992V66.592ZM200.504 68.4H201.592V76.176H200.504V68.4ZM223.816 66.608H225.096C225.064 73.92 226.632 80.048 228.584 80.048C229.048 80.048 229.224 79.2 229.32 77.072C229.592 77.344 230.04 77.632 230.376 77.744C230.168 80.512 229.704 81.296 228.488 81.296C225.304 81.296 223.896 74.192 223.816 66.608ZM226.056 67.36L226.76 66.624C227.752 67.04 228.936 67.744 229.528 68.272L228.792 69.12C228.216 68.576 227.048 67.824 226.056 67.36ZM228.152 71.456L229.336 71.744C227.944 76.064 225.528 79.28 222.168 81.296C221.992 81.056 221.512 80.576 221.256 80.352C224.584 78.56 226.888 75.488 228.152 71.456ZM216.072 69.12H229.976V70.304H216.072V69.12ZM215.992 78.96C217.736 78.624 220.456 78.08 223.064 77.52L223.16 78.672C220.712 79.216 218.088 79.792 216.216 80.192L215.992 78.96ZM218.104 72.768V75.568H221.368V72.768H218.104ZM217 71.728H222.552V76.592H217V71.728ZM231.976 75.344H246.104V76.48H231.976V75.344ZM241.352 74.112H242.584V79.856C242.584 80.56 242.392 80.896 241.816 81.056C241.24 81.232 240.28 81.232 238.728 81.232C238.68 80.912 238.472 80.464 238.312 80.144C239.496 80.192 240.648 80.176 240.952 80.16C241.256 80.16 241.352 80.08 241.352 79.84V74.112ZM234.376 77.088L235.208 76.384C236.216 77.2 237.352 78.368 237.88 79.184L236.984 79.984C236.504 79.152 235.368 77.936 234.376 77.088ZM233.16 67.696H234.408V71.872C234.408 72.544 234.728 72.704 236.504 72.704C237.336 72.704 241.768 72.704 242.888 72.704C244.2 72.704 244.424 72.48 244.568 71.296C244.872 71.472 245.368 71.616 245.72 71.68C245.512 73.312 245 73.712 242.984 73.712C242.328 73.712 237.192 73.712 236.584 73.712C233.944 73.712 233.16 73.376 233.16 71.888V67.696ZM233.576 69.936H243.032V68.256H233.16V67.2H244.2V71.008H233.576V69.936ZM253.128 67.408H262.168V68.512H253.128V67.408ZM256.952 67.856H258.088V81.248H256.952V67.856ZM253.688 70.48H260.872V71.568H254.808V78.976H253.688V70.48ZM260.424 70.48H261.544V77.616C261.544 78.176 261.448 78.48 261.064 78.672C260.68 78.864 260.12 78.864 259.24 78.864C259.192 78.56 259.032 78.112 258.888 77.808C259.496 77.824 260.024 77.824 260.2 77.824C260.376 77.824 260.424 77.76 260.424 77.584V70.48ZM251.064 66.592H252.184V72.992C252.184 76.16 251.88 79.088 249.48 81.264C249.288 81.024 248.872 80.64 248.584 80.464C250.808 78.496 251.064 75.856 251.064 72.992V66.592ZM248.504 68.4H249.592V76.176H248.504V68.4Z" fill="#2D3342"/>
<path d="M100.764 155.56H101.98V161.016H100.764V155.56ZM97.276 161.576V164.44H105.644V161.576H97.276ZM96.14 160.44H106.86V165.56H96.14V160.44ZM101.324 157.272H108.06V158.408H101.324V157.272ZM98.924 166.952L100.076 166.856C100.3 167.896 100.476 169.208 100.492 169.992L99.26 170.152C99.26 169.336 99.132 167.992 98.924 166.952ZM102.236 166.968L103.324 166.744C103.82 167.704 104.348 169 104.54 169.816L103.356 170.104C103.196 169.304 102.716 167.976 102.236 166.968ZM105.5 166.84L106.572 166.44C107.388 167.432 108.316 168.792 108.7 169.688L107.564 170.152C107.196 169.272 106.316 167.864 105.5 166.84ZM96.332 166.536L97.468 166.824C96.94 168.072 96.124 169.432 95.26 170.28L94.156 169.736C95.004 169.016 95.836 167.72 96.332 166.536ZM111.724 158.056H123.372V159.24H111.724V158.056ZM110.54 161.752H124.492V162.952H110.54V161.752ZM116.908 155.576H118.172V169H116.908V155.576ZM121.9 164.184H123.116V170.296H121.9V164.184ZM111.852 164.184H113.116V168.2H122.7V169.384H111.852V164.184ZM127.692 155.592L128.732 155.864C128.252 157.624 127.468 159.448 126.54 160.648C126.444 160.408 126.124 159.832 125.932 159.592C126.716 158.584 127.34 157.112 127.692 155.592ZM127.708 157.4H130.876V158.456H127.484L127.708 157.4ZM127.916 170.104L127.724 169.064L128.044 168.6L130.572 166.92C130.652 167.208 130.812 167.624 130.924 167.832C128.508 169.512 128.14 169.816 127.916 170.104ZM126.812 160.392H130.588V161.432H126.812V160.392ZM126.252 163.688H130.94V164.744H126.252V163.688ZM127.916 170.104C127.788 169.864 127.468 169.448 127.276 169.256C127.564 169.048 128.06 168.504 128.06 167.72V160.968H129.164V168.6C129.164 168.6 127.916 169.64 127.916 170.104ZM133.66 157.48H140.764V158.52H133.66V157.48ZM136.908 159.272H137.98V168.168H136.908V159.272ZM134.204 162.44C134.14 162.216 133.98 161.688 133.852 161.416C134.092 161.336 134.332 160.936 134.604 160.344C134.86 159.784 135.74 157.544 136.14 155.528L137.292 155.768C136.7 157.944 135.788 160.248 134.908 161.816V161.832C134.908 161.832 134.204 162.216 134.204 162.44ZM134.204 162.44V161.512L134.844 161.208H140.348V162.216H135.452C134.828 162.216 134.348 162.312 134.204 162.44ZM133.804 164.344H140.684V165.416H133.804V164.344ZM133.292 161.256V168.104H132.188V162.36H130.652V161.256H133.292ZM131.116 156.52L132.076 156.184C132.588 157.08 133.148 158.216 133.388 158.984L132.364 159.384C132.124 158.6 131.596 157.4 131.116 156.52ZM132.86 167.352C133.324 167.352 133.676 167.752 134.348 168.168C135.148 168.664 136.092 168.808 137.34 168.808C138.348 168.808 139.98 168.744 141.052 168.616C140.924 168.936 140.764 169.528 140.748 169.864C139.916 169.912 138.284 169.96 137.308 169.96C135.98 169.96 135.004 169.736 134.14 169.208C133.596 168.824 133.164 168.424 132.844 168.424C132.396 168.424 131.708 169.272 131.1 170.136L130.316 169.032C131.196 168.088 132.124 167.352 132.86 167.352ZM151.276 155.56H152.492V157.752H151.276V155.56ZM147.484 157.272H156.38V158.312H147.484V157.272ZM146.844 161.016H156.828V162.072H146.844V161.016ZM148.988 158.456L150.028 158.248C150.38 159.112 150.684 160.232 150.748 160.92L149.66 161.192C149.612 160.488 149.324 159.336 148.988 158.456ZM153.74 158.216L154.924 158.392C154.588 159.336 154.204 160.424 153.868 161.144L152.844 160.968C153.164 160.216 153.548 159.016 153.74 158.216ZM146.924 163.656H156.764V164.696H146.924V163.656ZM150.588 161.784L151.788 162.024C150.972 163.864 149.836 166.2 149.02 167.672L147.98 167.32C148.78 165.896 149.884 163.528 150.588 161.784ZM148.796 167.112L149.5 166.296C151.916 166.984 154.924 168.264 156.476 169.384L155.708 170.296C154.236 169.208 151.244 167.848 148.796 167.112ZM153.74 164.328L154.908 164.504C154.14 168.072 151.948 169.624 147.004 170.28C146.924 169.944 146.716 169.528 146.524 169.272C151.132 168.808 153.052 167.448 153.74 164.328ZM141.932 164.072C143.228 163.752 145.18 163.176 147.068 162.632L147.212 163.704C145.468 164.248 143.628 164.824 142.204 165.256L141.932 164.072ZM142.204 158.792H147.084V159.912H142.204V158.792ZM144.38 155.576H145.532V168.824C145.532 169.512 145.388 169.848 144.972 170.04C144.556 170.248 143.9 170.28 142.86 170.28C142.812 169.976 142.652 169.448 142.492 169.112C143.212 169.144 143.884 169.144 144.076 169.128C144.284 169.128 144.38 169.064 144.38 168.824V155.576ZM166.316 155.608H167.596C167.564 162.92 169.132 169.048 171.084 169.048C171.548 169.048 171.724 168.2 171.82 166.072C172.092 166.344 172.54 166.632 172.876 166.744C172.668 169.512 172.204 170.296 170.988 170.296C167.804 170.296 166.396 163.192 166.316 155.608ZM168.556 156.36L169.26 155.624C170.252 156.04 171.436 156.744 172.028 157.272L171.292 158.12C170.716 157.576 169.548 156.824 168.556 156.36ZM170.652 160.456L171.836 160.744C170.444 165.064 168.028 168.28 164.668 170.296C164.492 170.056 164.012 169.576 163.756 169.352C167.084 167.56 169.388 164.488 170.652 160.456ZM158.572 158.12H172.476V159.304H158.572V158.12ZM158.492 167.96C160.236 167.624 162.956 167.08 165.564 166.52L165.66 167.672C163.212 168.216 160.588 168.792 158.716 169.192L158.492 167.96ZM160.604 161.768V164.568H163.868V161.768H160.604ZM159.5 160.728H165.052V165.592H159.5V160.728ZM174.748 156.44H188.284V159.944H187.036V157.56H175.932V159.944H174.748V156.44ZM178.46 159.576H185.932V160.632H178.46V159.576ZM177.916 162.568H184.844V163.64H177.916V162.568ZM174.364 165.528H188.668V166.648H174.364V165.528ZM184.54 162.568H185.74C185.74 162.568 185.708 162.936 185.692 163.112C185.308 167.432 184.924 169.128 184.284 169.768C183.9 170.136 183.532 170.248 182.924 170.28C182.396 170.312 181.356 170.296 180.316 170.232C180.284 169.896 180.124 169.416 179.916 169.096C181.02 169.208 182.124 169.208 182.524 169.208C182.892 169.208 183.084 169.192 183.276 169.032C183.82 168.568 184.188 166.856 184.524 162.76L184.54 162.568ZM178.284 157.672L179.484 157.8C179.1 159.864 178.508 162.568 178.076 164.168L176.86 164.056C177.324 162.424 177.932 159.688 178.284 157.672ZM195.964 156.328H203.372V157.304H195.964V156.328ZM195.772 160.76H203.66V161.752H195.772V160.76ZM195.772 162.984H203.628V163.976H195.772V162.984ZM196.236 168.536H203.18V169.528H196.236V168.536ZM194.46 158.536H204.876V159.544H194.46V158.536ZM195.612 165.208H203.804V170.232H202.604V166.184H196.764V170.28H195.612V165.208ZM193.916 155.608L195.052 155.96C193.964 158.664 192.252 161.352 190.476 163.128C190.364 162.856 190.028 162.232 189.804 161.944C191.42 160.424 192.988 158.04 193.916 155.608ZM192.252 159.736L193.388 158.6L193.404 158.616V170.248H192.252V159.736ZM206.572 166.088C206.508 165.848 206.316 165.272 206.188 164.952C206.524 164.888 206.892 164.488 207.404 163.896C207.932 163.32 209.644 161.064 210.748 158.872L211.788 159.512C210.508 161.688 208.956 163.88 207.404 165.448V165.464C207.404 165.464 206.572 165.848 206.572 166.088ZM206.572 166.088L206.508 165.112L207.1 164.696L211.532 163.896C211.5 164.216 211.484 164.68 211.516 164.92C207.468 165.736 206.908 165.896 206.572 166.088ZM206.46 162.248C206.396 161.992 206.204 161.384 206.06 161.064C206.348 161 206.62 160.616 206.956 160.072C207.308 159.56 208.444 157.496 209.068 155.576L210.236 156.104C209.42 158.072 208.316 160.136 207.212 161.56V161.608C207.212 161.608 206.46 161.992 206.46 162.248ZM206.46 162.248L206.444 161.336L207.004 160.952L209.964 160.648C209.916 160.952 209.868 161.416 209.868 161.656C207.18 162.008 206.732 162.12 206.46 162.248ZM206.172 168.152C207.532 167.88 209.596 167.416 211.612 166.952L211.724 168.008C209.836 168.488 207.868 168.968 206.396 169.336L206.172 168.152ZM213.468 160.808H218.524V161.912H213.468V160.808ZM213.18 168.392H218.668V169.48H213.18V168.392ZM212.684 163.72H219.212V170.296H218.012V164.808H213.836V170.328H212.684V163.72ZM216.396 156.04C217.292 158.072 219.036 160.152 220.796 161.144C220.508 161.368 220.124 161.832 219.932 162.136C218.156 160.952 216.412 158.664 215.452 156.36L216.396 156.04ZM215.58 155.592L216.732 155.912C215.852 158.488 214.284 160.792 212.124 162.328C211.948 162.072 211.516 161.656 211.26 161.464C213.292 160.072 214.86 157.88 215.58 155.592ZM222.844 158.024H229.964V169.048H228.86V159.08H223.9V169.272H222.844V158.024ZM223.34 162.456H229.244V163.496H223.34V162.456ZM223.372 167.16H229.196V168.2H223.372V167.16ZM225.82 155.592H226.988V158.6H226.94V167.896H225.868V158.6H225.82V155.592ZM231.516 156.424H235.708V157.56H232.572V170.264H231.516V156.424ZM235.436 156.424H235.66L235.852 156.376L236.668 156.904C236.092 158.376 235.34 160.2 234.652 161.688C236.124 163.208 236.476 164.472 236.476 165.576C236.476 166.52 236.268 167.288 235.724 167.656C235.468 167.832 235.1 167.928 234.716 167.976C234.316 168.024 233.788 168.024 233.308 167.992C233.276 167.688 233.164 167.192 232.972 166.856C233.452 166.904 233.916 166.904 234.252 166.904C234.492 166.872 234.732 166.84 234.924 166.728C235.26 166.536 235.356 166.024 235.356 165.464C235.356 164.472 234.924 163.288 233.468 161.848C234.22 160.184 235.004 158.04 235.436 156.792V156.424ZM247.164 155.768H248.364V170.28H247.164V155.768ZM244.396 156.376L245.548 156.6C245.116 158.84 244.38 161.032 243.468 162.456C243.228 162.28 242.732 161.992 242.428 161.864C243.356 160.52 244.028 158.456 244.396 156.376ZM244.556 158.84H252.028V160.024H244.252L244.556 158.84ZM242.556 163.544H252.732V164.728H242.556V163.544ZM241.772 155.624L242.908 155.976C241.9 158.68 240.348 161.384 238.684 163.192C238.572 162.92 238.22 162.296 237.996 162.008C239.5 160.456 240.924 158.056 241.772 155.624ZM240.156 159.752L241.292 158.616L241.308 158.632V170.264H240.156V159.752Z" fill="#2D3342"/>
<path d="M128.11 232.88H129.895V243.335H128.11V232.88ZM128.215 230.225L129.52 229.37C130.255 230.12 131.32 231.215 131.83 231.875L130.45 232.865C129.97 232.175 128.95 231.05 128.215 230.225ZM132.19 230.015H140.35V231.68H132.19V230.015ZM139.09 230.015H140.89V241.19C140.89 242.18 140.68 242.66 140.095 242.96C139.495 243.245 138.61 243.275 137.335 243.275C137.275 242.765 137.005 241.97 136.78 241.49C137.545 241.55 138.475 241.535 138.73 241.535C139 241.535 139.09 241.43 139.09 241.175V230.015ZM132.505 233.885H137.26V239.615H132.505V238.01H135.52V235.49H132.505V233.885ZM131.605 233.885H133.225V240.455H131.605V233.885ZM142.57 235.175H156.46V237.14H142.57V235.175ZM164.44 231.17C163.225 233.03 160.885 235.16 158.35 236.6C158.095 236.165 157.57 235.49 157.165 235.115C159.835 233.72 162.28 231.245 163.375 229.295H165.325C166.945 231.77 169.405 233.84 171.88 234.92C171.4 235.385 170.995 236 170.65 236.57C168.235 235.235 165.7 233.03 164.44 231.17ZM163.48 234.38H165.4V243.35H163.48V234.38ZM173.11 232.88H174.895V243.335H173.11V232.88ZM173.215 230.225L174.52 229.37C175.255 230.12 176.32 231.215 176.83 231.875L175.45 232.865C174.97 232.175 173.95 231.05 173.215 230.225ZM177.19 230.015H185.35V231.68H177.19V230.015ZM184.09 230.015H185.89V241.19C185.89 242.18 185.68 242.66 185.095 242.96C184.495 243.245 183.61 243.275 182.335 243.275C182.275 242.765 182.005 241.97 181.78 241.49C182.545 241.55 183.475 241.535 183.73 241.535C184 241.535 184.09 241.43 184.09 241.175V230.015ZM177.505 233.885H182.26V239.615H177.505V238.01H180.52V235.49H177.505V233.885ZM176.605 233.885H178.225V240.455H176.605V233.885ZM189.94 232.895V233.615H192.145V232.895H189.94ZM189.94 231.05V231.755H192.145V231.05H189.94ZM188.35 229.85H193.81V234.83H188.35V229.85ZM187.645 235.685H194.455V237.005H187.645V235.685ZM194.41 229.88H201.46V231.29H194.41V229.88ZM190.465 236.105H191.98V242.135L190.465 241.28V236.105ZM191.23 238.22H194.14V239.51H191.23V238.22ZM197.245 230.225L199.045 230.6C198.64 231.47 198.235 232.355 197.92 232.94L196.51 232.565C196.78 231.905 197.095 230.915 197.245 230.225ZM189.55 238.85C190.375 241.37 192.235 241.625 195.28 241.64C196.285 241.64 200.395 241.64 201.625 241.58C201.385 241.925 201.115 242.615 201.04 243.065H195.265C191.575 243.065 189.535 242.555 188.485 239.165L189.55 238.85ZM194.89 232.37H200.89V238.565H199.375V233.645H196.345V238.67H194.89V232.37ZM188.395 237.53L189.865 237.62C189.775 240.02 189.475 242.015 188.53 243.35C188.275 243.125 187.63 242.69 187.285 242.51C188.17 241.37 188.365 239.57 188.395 237.53ZM197.185 234.26H198.67C198.58 238.31 198.19 240.455 194.62 241.55C194.485 241.205 194.11 240.65 193.81 240.38C196.93 239.48 197.11 237.815 197.185 234.26ZM197.95 239.48L198.94 238.505C199.765 239.075 200.935 239.945 201.52 240.5L200.485 241.61C199.93 241.025 198.805 240.11 197.95 239.48Z" fill="#2D3342"/>
<g filter="url(#filter1_d_1314_8435)">
<path d="M222.065 192.501C222.369 197.63 222.254 209.903 219.539 219.627C219.426 220.03 220.164 220.584 220.599 220.427C227.218 218.041 242.418 215.782 252.098 215.674" stroke="#5955B3" stroke-width="4" stroke-linecap="round"/>
<path d="M222.07 218.624C232.808 208.845 253.502 192.982 261.739 177.935" stroke="#5955B3" stroke-width="4" stroke-linecap="round"/>
</g>
<path d="M50.5916 69.3636V81H48.1314V71.6989H48.0632L45.3984 73.3693V71.1875L48.2791 69.3636H50.5916Z" fill="black"/>
<path d="M50.2948 89.7443C49.7086 89.6572 35.5161 87.764 36.1072 74.5622C36.1615 73.3493 36.3128 72.2459 36.548 71.2456M50.2948 89.7443C42.5158 89.2303 38.5629 86.1831 36.7938 82.531M50.2948 89.7443C51.236 89.884 52.2066 89.8729 53.1668 89.7209M36.548 71.2456C36.8424 69.9933 37.2682 68.9028 37.7997 67.9613M36.548 71.2456C35.4882 74.1811 34.9335 78.6905 36.7938 82.531M37.7997 67.9613C42.157 60.2432 53.6162 62.549 57.9797 67.9613C59.692 70.0869 63.2804 75.4774 61.5317 82.2156C60.4355 86.4394 56.879 89.1331 53.1668 89.7209M37.7997 67.9613C36.1417 70.2905 33.7361 75.745 35.7927 80.6916M36.7938 82.531C36.3822 81.9308 36.052 81.3152 35.7927 80.6916M53.1668 89.7209C48.2581 90.5748 37.911 89.9644 35.7927 80.6916" stroke="#5A56B4" stroke-width="3" stroke-linecap="round"/>
<path d="M26.4041 170V168.227L30.5462 164.392C30.8984 164.051 31.1939 163.744 31.4325 163.472C31.675 163.199 31.8587 162.932 31.9837 162.67C32.1087 162.405 32.1712 162.119 32.1712 161.812C32.1712 161.472 32.0935 161.178 31.9382 160.932C31.7829 160.682 31.5708 160.491 31.3018 160.358C31.0329 160.222 30.728 160.153 30.3871 160.153C30.031 160.153 29.7204 160.225 29.4553 160.369C29.1901 160.513 28.9856 160.72 28.8416 160.989C28.6977 161.258 28.6257 161.578 28.6257 161.949H26.2905C26.2905 161.187 26.4628 160.527 26.8075 159.966C27.1522 159.405 27.6352 158.972 28.2564 158.665C28.8776 158.358 29.5935 158.205 30.4041 158.205C31.2375 158.205 31.9628 158.352 32.5803 158.648C33.2015 158.939 33.6844 159.345 34.0291 159.864C34.3738 160.383 34.5462 160.977 34.5462 161.648C34.5462 162.087 34.459 162.521 34.2848 162.949C34.1143 163.377 33.8094 163.852 33.37 164.375C32.9306 164.894 32.3113 165.517 31.5121 166.244L29.8132 167.909V167.989H34.6996V170H26.4041Z" fill="black"/>
<path d="M32.2948 176.744C31.7086 176.657 17.5161 174.764 18.1072 161.562C18.1615 160.349 18.3128 159.246 18.548 158.246M32.2948 176.744C24.5158 176.23 20.5629 173.183 18.7938 169.531M32.2948 176.744C33.236 176.884 34.2066 176.873 35.1668 176.721M18.548 158.246C18.8424 156.993 19.2682 155.903 19.7997 154.961M18.548 158.246C17.4882 161.181 16.9335 165.69 18.7938 169.531M19.7997 154.961C24.157 147.243 35.6162 149.549 39.9797 154.961C41.692 157.087 45.2804 162.477 43.5317 169.216C42.4355 173.439 38.879 176.133 35.1668 176.721M19.7997 154.961C18.1417 157.29 15.7361 162.745 17.7927 167.692M18.7938 169.531C18.3822 168.931 18.052 168.315 17.7927 167.692M35.1668 176.721C30.258 177.575 19.911 176.964 17.7927 167.692" stroke="#5A56B4" stroke-width="3" stroke-linecap="round"/>
<path d="M85.4709 242.159C84.6224 242.159 83.8667 242.013 83.2038 241.722C82.5447 241.426 82.0239 241.021 81.6413 240.506C81.2625 239.987 81.0675 239.388 81.0561 238.71H83.5334C83.5485 238.994 83.6413 239.244 83.8118 239.46C83.986 239.672 84.2171 239.837 84.505 239.955C84.7929 240.072 85.1167 240.131 85.4766 240.131C85.8516 240.131 86.183 240.064 86.4709 239.932C86.7588 239.799 86.9841 239.616 87.147 239.381C87.3099 239.146 87.3913 238.875 87.3913 238.568C87.3913 238.258 87.3042 237.983 87.13 237.744C86.9595 237.502 86.7133 237.312 86.3913 237.176C86.0732 237.04 85.6944 236.972 85.255 236.972H84.1697V235.165H85.255C85.6262 235.165 85.9538 235.1 86.2379 234.972C86.5258 234.843 86.7493 234.665 86.9084 234.438C87.0675 234.206 87.147 233.938 87.147 233.631C87.147 233.339 87.0769 233.083 86.9368 232.864C86.8004 232.64 86.6072 232.466 86.3572 232.341C86.111 232.216 85.8232 232.153 85.4936 232.153C85.1603 232.153 84.8554 232.214 84.5788 232.335C84.3023 232.453 84.0807 232.621 83.9141 232.841C83.7474 233.061 83.6584 233.318 83.647 233.614H81.2891C81.3004 232.943 81.4917 232.352 81.8629 231.841C82.2341 231.33 82.7341 230.93 83.3629 230.642C83.9955 230.35 84.7095 230.205 85.505 230.205C86.308 230.205 87.0107 230.35 87.6129 230.642C88.2152 230.934 88.683 231.328 89.0163 231.824C89.3535 232.316 89.5201 232.869 89.5163 233.483C89.5201 234.134 89.3175 234.678 88.9084 235.114C88.5031 235.549 87.9747 235.826 87.3232 235.943V236.034C88.1792 236.144 88.8307 236.441 89.2777 236.926C89.7285 237.407 89.9519 238.009 89.9482 238.733C89.9519 239.396 89.7607 239.985 89.3743 240.5C88.9917 241.015 88.4633 241.42 87.7891 241.716C87.1148 242.011 86.3421 242.159 85.4709 242.159Z" fill="black"/>
<path d="M87.2948 248.744C86.7086 248.657 72.5161 246.764 73.1072 233.562C73.1615 232.349 73.3128 231.246 73.548 230.246M87.2948 248.744C79.5158 248.23 75.5629 245.183 73.7938 241.531M87.2948 248.744C88.236 248.884 89.2066 248.873 90.1668 248.721M73.548 230.246C73.8424 228.993 74.2682 227.903 74.7997 226.961M73.548 230.246C72.4882 233.181 71.9335 237.69 73.7938 241.531M74.7997 226.961C79.157 219.243 90.6162 221.549 94.9797 226.961C96.692 229.087 100.28 234.477 98.5317 241.216C97.4355 245.439 93.879 248.133 90.1668 248.721M74.7997 226.961C73.1417 229.29 70.7361 234.745 72.7927 239.692M73.7938 241.531C73.3822 240.931 73.052 240.315 72.7927 239.692M90.1668 248.721C85.258 249.575 74.911 248.964 72.7927 239.692" stroke="#5A56B4" stroke-width="3" stroke-linecap="round"/>
<defs>
<filter id="filter0_d_1314_8435" x="56.0283" y="92.8291" width="49.3418" height="50.084" filterUnits="userSpaceOnUse" color-interpolation-filters="sRGB">
<feFlood flood-opacity="0" result="BackgroundImageFix"/>
<feColorMatrix in="SourceAlpha" type="matrix" values="0 0 0 0 0 0 0 0 0 0 0 0 0 0 0 0 0 0 127 0" result="hardAlpha"/>
<feOffset dy="4"/>
<feGaussianBlur stdDeviation="1"/>
<feComposite in2="hardAlpha" operator="out"/>
<feColorMatrix type="matrix" values="0 0 0 0 0 0 0 0 0 0 0 0 0 0 0 0 0 0 0.14 0"/>
<feBlend mode="normal" in2="BackgroundImageFix" result="effect1_dropShadow_1314_8435"/>
<feBlend mode="normal" in="SourceGraphic" in2="effect1_dropShadow_1314_8435" result="shape"/>
</filter>
<filter id="filter1_d_1314_8435" x="211.6" y="175.935" width="58.1145" height="53.9195" filterUnits="userSpaceOnUse" color-interpolation-filters="sRGB">
<feFlood flood-opacity="0" result="BackgroundImageFix"/>
<feColorMatrix in="SourceAlpha" type="matrix" values="0 0 0 0 0 0 0 0 0 0 0 0 0 0 0 0 0 0 127 0" result="hardAlpha"/>
<feOffset dy="4"/>
<feGaussianBlur stdDeviation="1.7"/>
<feComposite in2="hardAlpha" operator="out"/>
<feColorMatrix type="matrix" values="0 0 0 0 0 0 0 0 0 0 0 0 0 0 0 0 0 0 0.11 0"/>
<feBlend mode="normal" in2="BackgroundImageFix" result="effect1_dropShadow_1314_8435"/>
<feBlend mode="normal" in="SourceGraphic" in2="effect1_dropShadow_1314_8435" result="shape"/>
</filter>
<linearGradient id="paint0_linear_1314_8435" x1="144.515" y1="13" x2="170.555" y2="50.9792" gradientUnits="userSpaceOnUse">
<stop stop-color="#5955B3"/>
<stop offset="1" stop-color="#6563CE"/>
</linearGradient>
</defs>
</svg>
