<svg width="325" height="293" viewBox="0 0 325 293" fill="none" xmlns="http://www.w3.org/2000/svg">
<rect y="3" width="325" height="290" rx="5" fill="white"/>
<path opacity="0.2" fill-rule="evenodd" clip-rule="evenodd" d="M324.664 272.81C324.612 283.783 315.724 292.668 304.749 292.713H171.145C177.237 278.753 202.684 250.832 255.737 250.832C308.79 250.832 323.794 229.116 324.664 218.258V272.81Z" fill="#89AFFF"/>
<path opacity="0.2" fill-rule="evenodd" clip-rule="evenodd" d="M149.339 3C147.453 13.5057 135.894 43.0486 88.2786 56.4492C42.0808 69.4509 11.6469 64.9796 0.329595 60.7773L0.329592 23C0.329591 11.9543 9.28386 3.00001 20.3296 3.00001L149.339 3Z" fill="#89AFFF"/>
<path d="M135.344 31.56H156.728V34.224H135.344V31.56ZM148.808 30.192H151.784V38.232C151.784 39.696 151.4 40.392 150.272 40.752C149.12 41.136 147.488 41.136 145.256 41.136C145.136 40.368 144.68 39.288 144.296 38.568C145.784 38.64 147.704 38.616 148.16 38.616C148.64 38.616 148.808 38.496 148.808 38.136V30.192ZM138.536 35.304L140.48 33.528C142.016 34.56 143.888 36.12 144.752 37.272L142.664 39.264C141.896 38.088 140.072 36.408 138.536 35.304ZM136.904 20.712H139.928V26.16C139.928 27.168 140.408 27.36 143 27.36C144.2 27.36 149.648 27.36 151.208 27.36C153.08 27.36 153.464 27.144 153.704 25.872C154.4 26.256 155.576 26.568 156.416 26.688C156.008 29.136 154.904 29.664 151.496 29.664C150.344 29.664 144.152 29.664 143.048 29.664C138.368 29.664 136.904 28.992 136.904 26.232V20.712ZM137.84 23.28H151.016V21.72H136.904V19.248H153.848V25.776H137.84V23.28ZM167.168 19.728H180.92V22.344H167.168V19.728ZM172.592 20.928H175.28V41.088H172.592V20.928ZM167.792 24.504H178.76V27.072H170.408V37.656H167.792V24.504ZM177.656 24.504H180.32V34.896C180.32 36.048 180.152 36.72 179.432 37.152C178.736 37.584 177.824 37.608 176.576 37.608C176.504 36.888 176.144 35.808 175.832 35.136C176.48 35.16 177.152 35.16 177.368 35.16C177.584 35.16 177.656 35.088 177.656 34.824V24.504ZM163.712 18.696H166.352V28.224C166.352 33.048 165.896 37.776 162.152 41.112C161.672 40.536 160.64 39.6 159.992 39.192C163.328 36.336 163.712 32.376 163.712 28.224V18.696ZM159.728 21.408H162.296V33.144H159.728V21.408Z" fill="url(#paint0_linear_1314_8422)"/>
<path d="M33.3549 70.88H41.7069V71.968H33.3549V70.88ZM32.2029 78.128H43.9949V79.2H32.2029V78.128ZM32.8109 68.432H43.9469V69.52H32.8109V68.432ZM41.2269 70.88H42.4109C42.4109 70.88 42.3949 71.312 42.3949 71.472C42.2029 77.92 41.9789 80.016 41.4669 80.688C41.1629 81.088 40.8109 81.216 40.3309 81.264C39.8509 81.296 39.0509 81.296 38.2509 81.248C38.2349 80.976 38.1229 80.56 37.9629 80.288C38.7789 80.352 39.5149 80.368 39.8189 80.352C40.1229 80.352 40.2669 80.32 40.4109 80.128C40.8269 79.616 41.0509 77.376 41.2269 71.136V70.88ZM32.7629 70.88H33.9789C33.6269 73.744 33.0829 77.6 32.6829 79.808L31.4669 79.728C31.9149 77.504 32.4909 73.648 32.7629 70.88ZM33.5309 66.48L34.7789 66.832C33.8189 69.024 32.3629 71.184 30.9709 72.592C30.7149 72.4 30.1709 72.032 29.8509 71.856C31.3229 70.56 32.6989 68.512 33.5309 66.48ZM35.4509 72.688L36.1389 72C37.1789 72.464 38.4269 73.184 39.0669 73.776L38.3469 74.528C37.7389 73.936 36.5069 73.152 35.4509 72.688ZM35.0509 76.192L35.7229 75.52C36.8109 76.032 38.1389 76.88 38.7949 77.504L38.0909 78.272C37.4509 77.632 36.1389 76.752 35.0509 76.192ZM29.8829 74.464H32.8749V74.496H41.7069V74.464H44.5549V75.552H41.7069V75.52H32.8749V75.552H29.8829V74.464ZM53.1469 67.856C51.8189 69.872 49.1149 72.416 46.2669 74.08C46.0909 73.808 45.7549 73.376 45.4829 73.12C48.3949 71.472 51.1789 68.768 52.4429 66.608H53.6909C55.4349 69.088 58.3629 71.568 60.9869 72.912C60.6829 73.216 60.3949 73.632 60.1709 73.984C57.5629 72.48 54.6189 69.952 53.1469 67.856ZM52.5069 71.856H53.7709V81.296H52.5069V71.856ZM62.0429 69.328H76.3629V70.48H62.0429V69.328ZM67.2749 73.12H73.6749V74.272H67.2749V73.12ZM73.2429 73.12H74.4749C74.4749 73.12 74.4589 73.52 74.4269 73.696C74.1069 78.304 73.7869 80.08 73.1629 80.72C72.7949 81.104 72.3949 81.216 71.7869 81.264C71.2269 81.296 70.1709 81.264 69.0829 81.216C69.0669 80.864 68.8909 80.368 68.6669 80.032C69.8189 80.144 70.9549 80.144 71.3709 80.144C71.7229 80.144 71.9469 80.128 72.1229 79.968C72.6349 79.504 72.9549 77.712 73.2269 73.328L73.2429 73.12ZM67.0029 69.968H68.3309C68.0909 74.208 67.6269 79.008 62.7469 81.344C62.5709 81.04 62.1869 80.608 61.8829 80.368C66.5549 78.256 66.8269 73.792 67.0029 69.968ZM68.5229 66.528H69.7549V69.824H68.5229V66.528ZM78.7789 69.328H90.9549V70.512H79.9629V81.28H78.7789V69.328ZM90.5069 69.328H91.7069V79.696C91.7069 80.48 91.5309 80.88 90.9709 81.072C90.3949 81.264 89.3869 81.296 87.9309 81.296C87.8669 80.944 87.6909 80.384 87.4989 80.048C88.6669 80.096 89.7709 80.096 90.1069 80.08C90.4269 80.064 90.5069 79.984 90.5069 79.68V69.328ZM84.2189 66.528L85.7069 66.784C85.2109 67.92 84.6029 69.216 84.1229 70.064L82.9709 69.792C83.4189 68.896 83.9469 67.504 84.2189 66.528ZM82.0749 72.624H83.1789V79.072H82.0749V72.624ZM82.5869 72.624H88.3469V77.92H82.5869V76.848H87.2269V73.712H82.5869V72.624ZM94.6189 68.432H100.219V69.488H94.6189V68.432ZM96.3149 79.248H100.795V80.272H96.3149V79.248ZM96.2989 76.592H100.811V77.552H96.2989V76.592ZM93.8989 71.408H102.171V72.48H93.8989V71.408ZM97.0989 66.704H98.2189V72.096H97.0989V66.704ZM101.339 67.12L102.427 67.44C100.667 71.44 97.8189 74.512 94.2989 76.448C94.1549 76.192 93.7709 75.712 93.5469 75.472C97.0189 73.744 99.7549 70.832 101.339 67.12ZM96.6829 74.032H100.763V75.04H96.6829V81.216H95.5789V74.736L96.2509 74.032H96.6829ZM100.283 74.032H101.451V80.992H100.283V74.032ZM102.843 67.488H107.627V68.608H104.043V81.28H102.843V67.488ZM107.323 67.488H107.563L107.755 67.424L108.619 67.984C107.947 69.488 107.083 71.344 106.299 72.816C107.979 74.304 108.411 75.568 108.411 76.72C108.427 77.712 108.187 78.448 107.595 78.832C107.307 79.024 106.939 79.136 106.523 79.184C106.091 79.232 105.515 79.232 105.019 79.2C105.003 78.88 104.859 78.352 104.667 78.032C105.179 78.08 105.659 78.096 106.011 78.064C106.299 78.048 106.571 77.984 106.763 77.872C107.147 77.664 107.259 77.2 107.259 76.608C107.259 75.6 106.747 74.384 105.051 72.992C105.915 71.328 106.811 69.152 107.323 67.856V67.488ZM110.219 68.64H124.235V69.776H110.219V68.64ZM114.123 74.352H121.643V75.392H114.123V74.352ZM113.275 71.632H121.451V72.704H114.459V81.28H113.275V71.632ZM121.179 71.632H122.347V79.792C122.347 80.496 122.203 80.864 121.659 81.056C121.147 81.248 120.251 81.248 118.875 81.248C118.827 80.912 118.651 80.416 118.475 80.08C119.547 80.128 120.523 80.112 120.811 80.112C121.083 80.096 121.179 80.016 121.179 79.776V71.632ZM115.451 66.56L116.667 66.848C115.579 70.368 113.659 73.92 110.603 76.064C110.443 75.792 110.075 75.376 109.835 75.136C112.699 73.168 114.587 69.776 115.451 66.56ZM114.123 77.056H121.643V78.096H114.123V77.056ZM125.915 73.104H140.555V74.416H125.915V73.104ZM149.147 67.856C147.819 69.872 145.115 72.416 142.267 74.08C142.091 73.808 141.755 73.376 141.483 73.12C144.395 71.472 147.179 68.768 148.443 66.608H149.691C151.435 69.088 154.363 71.568 156.987 72.912C156.683 73.216 156.395 73.632 156.171 73.984C153.563 72.48 150.619 69.952 149.147 67.856ZM148.507 71.856H149.771V81.296H148.507V71.856ZM158.187 75.344H172.315V76.48H158.187V75.344ZM167.563 74.112H168.795V79.856C168.795 80.56 168.603 80.896 168.027 81.056C167.451 81.232 166.491 81.232 164.939 81.232C164.891 80.912 164.683 80.464 164.523 80.144C165.707 80.192 166.859 80.176 167.163 80.16C167.467 80.16 167.563 80.08 167.563 79.84V74.112ZM160.587 77.088L161.419 76.384C162.427 77.2 163.563 78.368 164.091 79.184L163.195 79.984C162.715 79.152 161.579 77.936 160.587 77.088ZM159.371 67.696H160.619V71.872C160.619 72.544 160.939 72.704 162.715 72.704C163.547 72.704 167.979 72.704 169.099 72.704C170.411 72.704 170.635 72.48 170.779 71.296C171.083 71.472 171.579 71.616 171.931 71.68C171.723 73.312 171.211 73.712 169.195 73.712C168.539 73.712 163.403 73.712 162.795 73.712C160.155 73.712 159.371 73.376 159.371 71.888V67.696ZM159.787 69.936H169.243V68.256H159.371V67.2H170.411V71.008H159.787V69.936ZM179.339 67.408H188.379V68.512H179.339V67.408ZM183.163 67.856H184.299V81.248H183.163V67.856ZM179.899 70.48H187.083V71.568H181.019V78.976H179.899V70.48ZM186.635 70.48H187.755V77.616C187.755 78.176 187.659 78.48 187.275 78.672C186.891 78.864 186.331 78.864 185.451 78.864C185.403 78.56 185.243 78.112 185.099 77.808C185.707 77.824 186.235 77.824 186.411 77.824C186.587 77.824 186.635 77.76 186.635 77.584V70.48ZM177.275 66.592H178.395V72.992C178.395 76.16 178.091 79.088 175.691 81.264C175.499 81.024 175.083 80.64 174.795 80.464C177.019 78.496 177.275 75.856 177.275 72.992V66.592ZM174.715 68.4H175.803V76.176H174.715V68.4ZM191.472 80.108C191.162 80.108 190.895 79.9981 190.671 79.7784C190.448 79.5549 190.336 79.286 190.336 78.9716C190.336 78.661 190.448 78.3958 190.671 78.1761C190.895 77.9527 191.162 77.8409 191.472 77.8409C191.783 77.8409 192.05 77.9527 192.273 78.1761C192.497 78.3958 192.609 78.661 192.609 78.9716C192.609 79.1799 192.556 79.3712 192.45 79.5455C192.347 79.7159 192.211 79.8523 192.04 79.9545C191.87 80.0568 191.681 80.108 191.472 80.108ZM207.693 66.592H208.829V77.712H207.693V66.592ZM202.125 73.184L211.741 69.456L212.205 70.496L202.573 74.24L202.125 73.184ZM204.141 68.16H205.325V78.864C205.325 79.776 205.549 79.984 206.685 79.984C207.229 79.984 210.093 79.984 210.797 79.984C211.773 79.984 211.949 79.536 212.077 77.648C212.365 77.856 212.845 78.064 213.197 78.144C212.989 80.352 212.605 81.072 210.829 81.072C210.365 81.072 207.069 81.072 206.637 81.072C204.701 81.072 204.141 80.624 204.141 78.848V68.16ZM211.341 69.728H211.197L211.485 69.488L211.693 69.296L212.525 69.648L212.477 69.84C212.461 72.752 212.429 75.056 212.269 75.744C212.141 76.48 211.805 76.784 211.309 76.912C210.877 77.024 210.173 77.04 209.693 77.024C209.661 76.688 209.533 76.192 209.389 75.92C209.837 75.936 210.413 75.936 210.621 75.936C210.893 75.936 211.069 75.872 211.181 75.456C211.309 74.944 211.341 72.848 211.341 69.728ZM202.045 66.624L203.149 66.976C202.109 69.664 200.461 72.384 198.749 74.176C198.621 73.904 198.285 73.28 198.077 73.008C199.661 71.456 201.149 69.056 202.045 66.624ZM200.349 70.752L201.501 69.584L201.517 69.6V81.264H200.349V70.752ZM215.341 79.536C218.125 79.472 222.589 79.312 226.749 79.12L226.701 80.224C222.669 80.432 218.333 80.624 215.501 80.72L215.341 79.536ZM215.197 74.592H228.461V75.728H215.197V74.592ZM217.933 71.536H225.581V72.656H217.933V71.536ZM219.581 75.312L220.925 75.696C220.189 77.232 219.261 79.104 218.477 80.304L217.405 79.952C218.157 78.704 219.101 76.72 219.581 75.312ZM223.389 77.008L224.413 76.464C225.885 77.728 227.453 79.456 228.205 80.672L227.117 81.328C226.397 80.128 224.813 78.288 223.389 77.008ZM221.725 67.744C220.413 69.696 217.789 71.888 215.069 73.248C214.925 72.96 214.621 72.528 214.365 72.272C217.117 70.96 219.789 68.64 221.037 66.592H222.269C223.965 68.96 226.765 71.056 229.309 72.096C229.021 72.384 228.733 72.816 228.525 73.168C226.029 71.968 223.213 69.824 221.725 67.744ZM230.781 69.04H244.797V70.208H230.781V69.04ZM235.741 74.112H244.173V75.232H235.741V74.112ZM235.117 79.776H244.797V80.912H235.117V79.776ZM239.357 71.024H240.557V80.384H239.357V71.024ZM236.045 66.56L237.277 66.864C236.157 70.528 234.205 74.256 231.021 76.544C230.893 76.224 230.589 75.712 230.397 75.44C233.277 73.408 235.149 69.856 236.045 66.56ZM232.877 73.152H234.077V81.232H232.877V73.152ZM253.229 66.64L254.413 66.896C253.789 69.456 252.781 71.92 251.549 73.552C251.341 73.344 250.861 72.96 250.589 72.784C251.773 71.296 252.701 68.992 253.229 66.64ZM252.957 73.424L254.125 73.664C253.629 75.76 252.765 77.792 251.789 79.136C251.549 78.944 251.037 78.624 250.749 78.48C251.741 77.248 252.509 75.344 252.957 73.424ZM253.085 69.648H260.285V70.768H252.621L253.085 69.648ZM255.565 70.112H256.765V79.824C256.765 80.512 256.621 80.864 256.173 81.056C255.741 81.264 255.053 81.296 254.061 81.296C253.981 80.96 253.805 80.432 253.629 80.08C254.381 80.112 255.069 80.096 255.293 80.096C255.501 80.096 255.565 80.032 255.565 79.824V70.112ZM257.917 73.664L258.989 73.312C259.917 74.992 260.717 77.2 260.989 78.688L259.853 79.072C259.597 77.6 258.797 75.344 257.917 73.664ZM259.933 69.648H260.093L260.301 69.616L261.133 69.792C260.909 70.976 260.637 72.352 260.429 73.216L259.389 73.024C259.565 72.224 259.773 70.88 259.933 69.824V69.648ZM250.013 66.624L251.149 66.976C250.093 69.696 248.445 72.4 246.717 74.192C246.589 73.92 246.253 73.28 246.029 73.008C247.613 71.456 249.117 69.056 250.013 66.624ZM248.349 70.752L249.469 69.616L249.501 69.632V81.264H248.349V70.752ZM263.613 75.44H276.029V76.432H263.613V75.44ZM262.685 67.6H270.077V68.48H262.685V67.6ZM269.821 77.664H274.973V78.608H269.821V77.664ZM262.541 79.92H277.069V80.928H262.541V79.92ZM269.165 75.808H270.365V80.416H269.165V75.808ZM265.853 66.56H266.925V75.008H265.853V66.56ZM265.165 77.152H266.317V80.464H265.165V77.152ZM264.141 70.112V71.424H268.669V70.112H264.141ZM263.165 69.296H269.693V72.24H263.165V69.296ZM266.909 72.192C267.469 72.432 269.309 73.36 269.805 73.632L269.213 74.432C268.605 74 267.005 73.088 266.317 72.72L266.909 72.192ZM272.061 66.576L273.149 66.816C272.589 68.656 271.613 70.368 270.445 71.472C270.285 71.264 269.869 70.848 269.629 70.656C270.749 69.68 271.597 68.192 272.061 66.576ZM271.757 68.352H277.005V69.344H271.277L271.757 68.352ZM274.957 68.8L276.093 68.928C275.277 72.16 273.245 73.968 270.269 75.072C270.141 74.832 269.789 74.368 269.549 74.176C272.413 73.296 274.301 71.648 274.957 68.8ZM271.885 68.944C272.573 70.96 274.269 73.232 277.277 74.176C277.053 74.384 276.749 74.832 276.589 75.12C273.565 74 271.837 71.568 271.101 69.472L271.885 68.944ZM265.757 71.824L266.525 72.16C265.741 73.232 264.269 74.416 263.133 75.024C262.973 74.768 262.653 74.432 262.413 74.256C263.565 73.76 265.005 72.752 265.757 71.824ZM285.725 67.856C284.397 69.872 281.693 72.416 278.845 74.08C278.669 73.808 278.333 73.376 278.061 73.12C280.973 71.472 283.757 68.768 285.021 66.608H286.269C288.013 69.088 290.941 71.568 293.565 72.912C293.261 73.216 292.973 73.632 292.749 73.984C290.141 72.48 287.197 69.952 285.725 67.856ZM285.085 71.856H286.349V81.296H285.085V71.856ZM93.148 90.968H101.068V92.024H93.148V90.968ZM90.46 94.616H104.604V95.736H90.46V94.616ZM96.892 93.448H98.124V98.856C98.124 99.576 97.932 99.928 97.324 100.104C96.748 100.28 95.82 100.296 94.364 100.296C94.284 99.96 94.044 99.464 93.852 99.144C95.084 99.176 96.172 99.176 96.492 99.16C96.812 99.144 96.892 99.064 96.892 98.824V93.448ZM100.7 90.968H101.004L101.26 90.904L102.028 91.496C100.94 92.6 99.26 93.704 97.74 94.36C97.596 94.152 97.276 93.832 97.068 93.656C98.412 93.08 99.948 92.024 100.7 91.208V90.968ZM90.78 88.232H104.332V91.8H103.148V89.32H91.916V91.8H90.78V88.232ZM102.22 85.672L103.468 86.088C102.796 87.08 101.932 88.152 101.26 88.856L100.316 88.456C100.956 87.704 101.772 86.52 102.22 85.672ZM91.868 86.232L92.876 85.752C93.5 86.424 94.156 87.336 94.428 87.976L93.356 88.488C93.1 87.88 92.46 86.92 91.868 86.232ZM95.98 85.88L97.02 85.496C97.564 86.248 98.14 87.288 98.332 87.96L97.228 88.392C97.036 87.72 96.508 86.664 95.98 85.88ZM107.388 86.728H118.94V87.88H107.388V86.728ZM109.18 89.992L109.996 89.208C111.42 90.168 113.324 91.544 114.268 92.424L113.42 93.352C112.524 92.44 110.62 91 109.18 89.992ZM118.508 86.728H119.708C119.708 86.728 119.708 87.24 119.708 87.416C119.596 95.832 119.468 98.536 118.86 99.352C118.508 99.896 118.108 100.072 117.532 100.12C116.908 100.184 115.868 100.152 114.94 100.104C114.924 99.768 114.764 99.272 114.54 98.952C115.66 99.032 116.668 99.032 117.084 99.032C117.388 99.032 117.564 98.984 117.74 98.776C118.268 98.184 118.396 95.064 118.508 87V86.728ZM107.148 96.856C109.452 96.152 113.244 94.888 116.748 93.688L116.956 94.808C113.66 95.976 110.028 97.224 107.564 98.072L107.148 96.856ZM122.748 86.616L123.676 86.008C124.572 86.808 125.628 87.928 126.124 88.664L125.132 89.384C124.668 88.616 123.644 87.448 122.748 86.616ZM125.676 91.56V97.384H124.508V92.696H122.284V91.56H125.676ZM125.068 96.76C125.612 96.76 125.98 97.24 126.876 97.784C127.916 98.44 129.276 98.552 131.068 98.552C132.956 98.552 135.372 98.424 136.924 98.248C136.764 98.584 136.572 99.192 136.556 99.56C135.42 99.624 132.572 99.704 131.052 99.704C129.052 99.704 127.708 99.544 126.604 98.84C125.916 98.408 125.404 97.88 125.052 97.88C124.508 97.88 123.74 98.824 122.924 99.912L122.076 98.792C123.18 97.592 124.268 96.76 125.068 96.76ZM126.812 88.456H136.444V89.592H126.812V88.456ZM133.004 85.624H134.236V95.944C134.236 96.76 134.012 97.112 133.436 97.304C132.892 97.496 131.916 97.528 130.396 97.528C130.348 97.176 130.14 96.648 129.964 96.296C131.148 96.328 132.252 96.328 132.572 96.328C132.892 96.296 133.004 96.216 133.004 95.928V85.624ZM127.58 91.368L128.54 90.856C129.356 91.832 130.364 93.16 130.828 93.992L129.82 94.616C129.388 93.768 128.396 92.376 127.58 91.368ZM147.804 93.112H148.988V99.512H147.804V93.112ZM144.284 92.68H152.556V93.736H144.284V92.68ZM143.596 98.792H152.908V99.864H143.596V98.792ZM144.668 95.656H152.188V96.696H144.668V95.656ZM146.012 87.272V90.232H150.828V87.272H146.012ZM144.892 86.232H151.996V91.272H144.892V86.232ZM140.892 86.888H142.06V100.248H140.892V86.888ZM138.268 90.072H144.076V91.208H138.268V90.072ZM140.956 90.504L141.708 90.824C141.068 93.08 139.788 95.88 138.556 97.368C138.444 97.032 138.156 96.536 137.948 96.264C139.1 94.984 140.38 92.488 140.956 90.504ZM143.26 85.8L144.108 86.728C142.636 87.32 140.396 87.768 138.54 88.024C138.476 87.752 138.316 87.368 138.172 87.096C139.98 86.792 142.092 86.344 143.26 85.8ZM142.012 92.136C142.412 92.488 143.916 94.008 144.236 94.408L143.532 95.352C143.148 94.696 141.948 93.176 141.452 92.616L142.012 92.136ZM155.036 88.424H167.932V95.96H166.684V89.608H156.236V96.04H155.036V88.424ZM155.676 93.864H167.404V95.032H155.676V93.864ZM160.828 85.56H162.076V100.264H160.828V85.56ZM170.54 86.84H178.028V87.816H170.54V86.84ZM170.284 91.176H178.124V92.136H170.284V91.176ZM170.892 88.984H177.708V89.928H170.892V88.984ZM178.844 86.232H183.468V87.272H179.996V94.168H178.844V86.232ZM183.228 86.232H183.468L183.66 86.184L184.492 86.696C183.9 87.528 183.18 88.504 182.524 89.304C183.884 90.152 184.348 90.92 184.364 91.64C184.38 92.328 184.092 92.776 183.58 93.064C183.308 93.208 182.924 93.288 182.62 93.336C182.06 93.384 181.372 93.384 180.748 93.336C180.732 93.032 180.572 92.6 180.364 92.312C181.052 92.392 181.644 92.392 182.108 92.36C182.332 92.344 182.588 92.296 182.764 92.232C183.052 92.12 183.18 91.896 183.18 91.544C183.164 90.968 182.652 90.264 181.228 89.464C181.98 88.472 182.764 87.272 183.228 86.456V86.232ZM173.868 85.56H175.084V90.312C175.084 91.592 174.332 93.752 171.436 94.888C171.244 94.648 170.876 94.248 170.604 94.024C173.212 93.144 173.868 91.336 173.868 90.296V85.56ZM176.828 93.56H178.076V100.264H176.828V93.56ZM171.9 94.824H182.636V95.912H173.1V99.416H171.9V94.824ZM182.124 94.824H183.34V98.104C183.34 98.712 183.196 99.032 182.684 99.208C182.172 99.384 181.324 99.384 179.98 99.384C179.9 99.064 179.724 98.648 179.564 98.344C180.572 98.376 181.516 98.376 181.788 98.36C182.06 98.344 182.124 98.28 182.124 98.088V94.824ZM192.956 89.192H199.724V90.328H192.956V89.192ZM199.212 89.192H200.364C200.364 89.192 200.348 89.64 200.348 89.8C200.188 96.568 200.044 98.856 199.516 99.544C199.196 99.976 198.86 100.104 198.348 100.152C197.852 100.2 196.988 100.184 196.14 100.152C196.108 99.8 195.98 99.304 195.772 99C196.7 99.064 197.532 99.064 197.868 99.064C198.14 99.08 198.316 99.032 198.46 98.824C198.892 98.328 199.068 95.992 199.212 89.448V89.192ZM195.612 85.576H196.78C196.764 91.704 196.748 97.4 192.3 100.312C192.124 100.024 191.724 99.624 191.42 99.432C195.692 96.776 195.596 91.4 195.612 85.576ZM187.196 86.344H192.412V96.76H191.292V87.448H188.268V97.784H187.196V86.344ZM186.044 97.496C187.82 97.144 190.636 96.552 193.292 95.96L193.404 97.048C190.86 97.656 188.172 98.28 186.252 98.712L186.044 97.496ZM187.756 89.784H191.82V90.872H187.756V89.784ZM187.756 93.208H191.82V94.28H187.756V93.208ZM208.94 85.64L210.124 85.896C209.5 88.456 208.492 90.92 207.26 92.552C207.052 92.344 206.572 91.96 206.3 91.784C207.484 90.296 208.412 87.992 208.94 85.64ZM208.668 92.424L209.836 92.664C209.34 94.76 208.476 96.792 207.5 98.136C207.26 97.944 206.748 97.624 206.46 97.48C207.452 96.248 208.22 94.344 208.668 92.424ZM208.796 88.648H215.996V89.768H208.332L208.796 88.648ZM211.276 89.112H212.476V98.824C212.476 99.512 212.332 99.864 211.884 100.056C211.452 100.264 210.764 100.296 209.772 100.296C209.692 99.96 209.516 99.432 209.34 99.08C210.092 99.112 210.78 99.096 211.004 99.096C211.212 99.096 211.276 99.032 211.276 98.824V89.112ZM213.628 92.664L214.7 92.312C215.628 93.992 216.428 96.2 216.7 97.688L215.564 98.072C215.308 96.6 214.508 94.344 213.628 92.664ZM215.644 88.648H215.804L216.012 88.616L216.844 88.792C216.62 89.976 216.348 91.352 216.14 92.216L215.1 92.024C215.276 91.224 215.484 89.88 215.644 88.824V88.648ZM205.724 85.624L206.86 85.976C205.804 88.696 204.156 91.4 202.428 93.192C202.3 92.92 201.964 92.28 201.74 92.008C203.324 90.456 204.828 88.056 205.724 85.624ZM204.06 89.752L205.18 88.616L205.212 88.632V100.264H204.06V89.752ZM220.604 95.112C221.948 95.112 223.036 96.2 223.036 97.544C223.036 98.888 221.948 99.976 220.604 99.976C219.26 99.976 218.156 98.888 218.156 97.544C218.156 96.2 219.26 95.112 220.604 95.112ZM220.604 99.16C221.5 99.16 222.22 98.44 222.22 97.544C222.22 96.648 221.5 95.928 220.604 95.928C219.708 95.928 218.972 96.648 218.972 97.544C218.972 98.44 219.708 99.16 220.604 99.16Z" fill="#2D3342"/>
<path d="M25.9645 159.108C25.6539 159.108 25.3868 158.998 25.1634 158.778C24.9399 158.555 24.8281 158.286 24.8281 157.972C24.8281 157.661 24.9399 157.396 25.1634 157.176C25.3868 156.953 25.6539 156.841 25.9645 156.841C26.2751 156.841 26.5421 156.953 26.7656 157.176C26.9891 157.396 27.1009 157.661 27.1009 157.972C27.1009 158.18 27.0478 158.371 26.9418 158.545C26.8395 158.716 26.7031 158.852 26.5327 158.955C26.3622 159.057 26.1728 159.108 25.9645 159.108ZM30.4957 159.108C30.1851 159.108 29.9181 158.998 29.6946 158.778C29.4711 158.555 29.3594 158.286 29.3594 157.972C29.3594 157.661 29.4711 157.396 29.6946 157.176C29.9181 156.953 30.1851 156.841 30.4957 156.841C30.8063 156.841 31.0734 156.953 31.2969 157.176C31.5204 157.396 31.6321 157.661 31.6321 157.972C31.6321 158.18 31.5791 158.371 31.473 158.545C31.3707 158.716 31.2344 158.852 31.0639 158.955C30.8935 159.057 30.7041 159.108 30.4957 159.108ZM35.027 159.108C34.7164 159.108 34.4493 158.998 34.2259 158.778C34.0024 158.555 33.8906 158.286 33.8906 157.972C33.8906 157.661 34.0024 157.396 34.2259 157.176C34.4493 156.953 34.7164 156.841 35.027 156.841C35.3376 156.841 35.6046 156.953 35.8281 157.176C36.0516 157.396 36.1634 157.661 36.1634 157.972C36.1634 158.18 36.1103 158.371 36.0043 158.545C35.902 158.716 35.7656 158.852 35.5952 158.955C35.4247 159.057 35.2353 159.108 35.027 159.108ZM42.7529 153.192H52.6409V154.312H42.7529V153.192ZM49.2649 151.912H50.4489V158.824C50.4489 159.528 50.3049 159.88 49.7929 160.072C49.2809 160.264 48.4329 160.28 47.1689 160.28C47.1209 159.944 46.9449 159.448 46.7689 159.096C47.7609 159.128 48.6569 159.128 48.9449 159.112C49.2009 159.096 49.2649 159.048 49.2649 158.808V151.912ZM50.8809 145.56L51.7129 146.488C49.4249 147.176 45.9209 147.72 42.9449 148.024C42.8969 147.752 42.7529 147.32 42.6089 147.064C45.5369 146.728 48.9449 146.168 50.8809 145.56ZM43.1849 148.856L44.1929 148.52C44.7049 149.432 45.2169 150.648 45.3769 151.432L44.3049 151.816C44.1449 151.048 43.6809 149.784 43.1849 148.856ZM46.3209 148.232L47.3929 147.976C47.7769 148.92 48.1129 150.104 48.1769 150.856L47.0409 151.16C46.9929 150.392 46.6889 149.176 46.3209 148.232ZM44.0329 155.496L45.0249 154.968C45.8569 155.784 46.7689 156.968 47.1689 157.768L46.1289 158.376C45.7769 157.56 44.8649 156.344 44.0329 155.496ZM40.9289 145.576H42.0809V160.28H40.9289V145.576ZM37.6969 156.04C38.5929 155.576 39.9369 154.776 41.2489 153.976L41.6329 154.984C40.4969 155.784 39.3129 156.6 38.3049 157.272L37.6969 156.04ZM37.8729 148.072L38.8489 147.608C39.6169 148.616 40.4009 149.976 40.7049 150.856L39.6649 151.416C39.3769 150.504 38.6089 149.112 37.8729 148.072ZM51.2649 147.784L52.3529 148.328C51.4889 149.672 50.3209 151.208 49.4089 152.248L48.4809 151.72C49.3769 150.68 50.5929 149.032 51.2649 147.784ZM55.6969 158.328H68.4969V159.464H55.6969V158.328ZM54.2889 147.048H68.3529V148.152H54.2889V147.048ZM55.1209 149.928H56.3049V160.312H55.1209V149.928ZM59.2329 152.536V153.864H65.3609V152.536H59.2329ZM59.2329 154.728V156.056H65.3609V154.728H59.2329ZM59.2329 150.376V151.672H65.3609V150.376H59.2329ZM58.0809 149.464H66.5609V156.968H58.0809V149.464ZM60.9129 145.512L62.2889 145.608C62.1289 147.112 61.8729 148.888 61.6489 150.008L60.4649 149.912C60.6569 148.728 60.8649 146.824 60.9129 145.512ZM79.0729 145.56H80.2889V147.752H79.0729V145.56ZM75.2809 147.272H84.1769V148.312H75.2809V147.272ZM74.6409 151.016H84.6249V152.072H74.6409V151.016ZM76.7849 148.456L77.8249 148.248C78.1769 149.112 78.4809 150.232 78.5449 150.92L77.4569 151.192C77.4089 150.488 77.1209 149.336 76.7849 148.456ZM81.5369 148.216L82.7209 148.392C82.3849 149.336 82.0009 150.424 81.6649 151.144L80.6409 150.968C80.9609 150.216 81.3449 149.016 81.5369 148.216ZM74.7209 153.656H84.5609V154.696H74.7209V153.656ZM78.3849 151.784L79.5849 152.024C78.7689 153.864 77.6329 156.2 76.8169 157.672L75.7769 157.32C76.5769 155.896 77.6809 153.528 78.3849 151.784ZM76.5929 157.112L77.2969 156.296C79.7129 156.984 82.7209 158.264 84.2729 159.384L83.5049 160.296C82.0329 159.208 79.0409 157.848 76.5929 157.112ZM81.5369 154.328L82.7049 154.504C81.9369 158.072 79.7449 159.624 74.8009 160.28C74.7209 159.944 74.5129 159.528 74.3209 159.272C78.9289 158.808 80.8489 157.448 81.5369 154.328ZM69.7289 154.072C71.0249 153.752 72.9769 153.176 74.8649 152.632L75.0089 153.704C73.2649 154.248 71.4249 154.824 70.0009 155.256L69.7289 154.072ZM70.0009 148.792H74.8809V149.912H70.0009V148.792ZM72.1769 145.576H73.3289V158.824C73.3289 159.512 73.1849 159.848 72.7689 160.04C72.3529 160.248 71.6969 160.28 70.6569 160.28C70.6089 159.976 70.4489 159.448 70.2889 159.112C71.0089 159.144 71.6809 159.144 71.8729 159.128C72.0809 159.128 72.1769 159.064 72.1769 158.824V145.576ZM86.2889 148.04H100.305V149.208H86.2889V148.04ZM91.2489 153.112H99.6809V154.232H91.2489V153.112ZM90.6249 158.776H100.305V159.912H90.6249V158.776ZM94.8649 150.024H96.0649V159.384H94.8649V150.024ZM91.5529 145.56L92.7849 145.864C91.6649 149.528 89.7129 153.256 86.5289 155.544C86.4009 155.224 86.0969 154.712 85.9049 154.44C88.7849 152.408 90.6569 148.856 91.5529 145.56ZM88.3849 152.152H89.5849V160.232H88.3849V152.152ZM103.249 152.12H108.081V153.096H103.249V152.12ZM102.593 147.24H107.825V148.296H102.593V147.24ZM101.953 149.864H109.713V150.92H101.953V149.864ZM104.705 145.56H105.841V150.424H104.705V145.56ZM108.961 145.928L110.081 146.264C108.465 150.232 105.825 153.24 102.481 155.144C102.305 154.904 101.873 154.44 101.617 154.232C104.961 152.52 107.521 149.624 108.961 145.928ZM105.345 154.264H106.481V159C106.481 159.624 106.353 159.928 105.921 160.104C105.473 160.264 104.785 160.28 103.761 160.28C103.697 159.976 103.537 159.528 103.377 159.224C104.177 159.24 104.849 159.24 105.073 159.24C105.297 159.224 105.345 159.176 105.345 159V154.264ZM107.841 152.12H108.081L108.305 152.056L109.009 152.568C108.257 153.496 107.153 154.488 106.209 155.112C106.065 154.904 105.777 154.632 105.585 154.472C106.401 153.928 107.361 153 107.841 152.312V152.12ZM101.873 156.04C103.825 155.864 106.865 155.56 109.777 155.24V156.296C106.993 156.6 104.049 156.92 102.017 157.144L101.873 156.04ZM110.961 148.552H116.657V149.672H110.961V148.552ZM111.393 145.56L112.593 145.752C112.049 148.76 111.089 151.608 109.761 153.432C109.553 153.224 109.041 152.808 108.769 152.616C110.065 150.952 110.913 148.312 111.393 145.56ZM114.465 149.16L115.681 149.288C114.913 154.824 113.217 158.248 109.185 160.328C109.057 160.056 108.705 159.512 108.465 159.256C112.273 157.464 113.809 154.248 114.465 149.16ZM111.569 149.496C112.273 153.912 113.793 157.704 116.785 159.272C116.497 159.512 116.113 159.976 115.937 160.296C112.801 158.456 111.281 154.536 110.481 149.672L111.569 149.496ZM120.545 152.344H129.329V153.368H121.745V160.296H120.545V152.344ZM128.929 152.344H130.129V159C130.129 159.656 129.969 159.96 129.457 160.12C128.961 160.28 128.129 160.28 126.833 160.28C126.769 159.992 126.593 159.576 126.449 159.288C127.377 159.32 128.321 159.32 128.577 159.304C128.849 159.288 128.929 159.224 128.929 159V152.344ZM121.265 154.584H129.425V155.48H121.265V154.584ZM118.257 147.128H132.337V148.2H118.257V147.128ZM122.705 147.784L124.017 148.168C123.313 149.144 122.417 150.248 121.729 150.968L120.769 150.6C121.425 149.848 122.241 148.632 122.705 147.784ZM127.169 148.792L128.113 148.184C129.537 149.096 131.313 150.44 132.193 151.4L131.185 152.12C130.353 151.16 128.625 149.752 127.169 148.792ZM118.897 150.248C121.745 150.232 126.305 150.136 130.577 150.04L130.513 151.032C126.337 151.176 121.857 151.304 118.945 151.368L118.897 150.248ZM121.265 156.728H129.377V157.608H121.265V156.728ZM124.641 145.56H125.873V147.656H124.641V145.56ZM140.641 145.56H141.873V147.96H140.641V145.56ZM140.641 154.888H141.873V159.32H140.641V154.888ZM138.865 148.168H140.097C139.793 151.112 138.881 152.824 135.009 153.688C134.897 153.4 134.609 152.92 134.353 152.68C137.873 151.992 138.609 150.616 138.865 148.168ZM142.417 148.12H143.601V151.512C143.601 151.896 143.713 151.96 144.305 151.96C144.577 151.96 146.001 151.96 146.369 151.96C146.833 151.96 146.913 151.8 146.977 150.68C147.217 150.856 147.697 151.032 148.033 151.112C147.889 152.632 147.553 153.016 146.481 153.016C146.177 153.016 144.465 153.016 144.177 153.016C142.769 153.016 142.417 152.696 142.417 151.512V148.12ZM134.545 147.224H148.081V150.104H146.865V148.328H135.729V150.456H134.545V147.224ZM135.921 154.376H146.945V155.464H135.921V154.376ZM134.241 158.712H148.337V159.8H134.241V158.712ZM150.753 149.176H151.969V160.296H150.753V149.176ZM150.977 146.344L151.905 145.784C152.657 146.44 153.521 147.4 153.921 148.056L152.913 148.712C152.561 148.056 151.713 147.064 150.977 146.344ZM154.913 146.472H163.345V147.592H154.913V146.472ZM162.657 146.472H163.889V158.824C163.889 159.496 163.761 159.816 163.345 160.008C162.913 160.2 162.225 160.216 161.233 160.216C161.185 159.912 161.025 159.416 160.865 159.096C161.537 159.128 162.193 159.112 162.385 159.112C162.609 159.112 162.657 159.032 162.657 158.824V146.472ZM155.345 154.28V156.44H159.201V154.28H155.345ZM155.345 151.144V153.288H159.201V151.144H155.345ZM154.257 150.152H160.337V157.448H154.257V150.152Z" fill="#2D3342"/>
<path d="M22.12 197.101C21.8288 197.101 21.5785 196.998 21.369 196.792C21.1594 196.583 21.0547 196.331 21.0547 196.036C21.0547 195.745 21.1594 195.496 21.369 195.29C21.5785 195.081 21.8288 194.976 22.12 194.976C22.4112 194.976 22.6616 195.081 22.8711 195.29C23.0806 195.496 23.1854 195.745 23.1854 196.036C23.1854 196.231 23.1357 196.411 23.0362 196.574C22.9403 196.734 22.8125 196.862 22.6527 196.957C22.4929 197.053 22.3153 197.101 22.12 197.101ZM26.3681 197.101C26.0769 197.101 25.8265 196.998 25.617 196.792C25.4075 196.583 25.3027 196.331 25.3027 196.036C25.3027 195.745 25.4075 195.496 25.617 195.29C25.8265 195.081 26.0769 194.976 26.3681 194.976C26.6593 194.976 26.9096 195.081 27.1191 195.29C27.3287 195.496 27.4334 195.745 27.4334 196.036C27.4334 196.231 27.3837 196.411 27.2843 196.574C27.1884 196.734 27.0605 196.862 26.9007 196.957C26.7409 197.053 26.5634 197.101 26.3681 197.101ZM30.6161 197.101C30.3249 197.101 30.0746 196.998 29.8651 196.792C29.6555 196.583 29.5508 196.331 29.5508 196.036C29.5508 195.745 29.6555 195.496 29.8651 195.29C30.0746 195.081 30.3249 194.976 30.6161 194.976C30.9073 194.976 31.1577 195.081 31.3672 195.29C31.5767 195.496 31.6815 195.745 31.6815 196.036C31.6815 196.231 31.6317 196.411 31.5323 196.574C31.4364 196.734 31.3086 196.862 31.1488 196.957C30.989 197.053 30.8114 197.101 30.6161 197.101ZM40.1541 185.195H46.1841V191.555H40.1541V190.58H45.1041V186.185H40.1541V185.195ZM40.2291 187.88H45.6291V188.87H40.2291V187.88ZM39.6291 185.195H40.6941V197.135H39.6291V185.195ZM38.3991 196.835C39.7041 196.625 41.6541 196.22 43.5891 195.845L43.6641 196.85C41.9391 197.24 40.1091 197.63 38.7291 197.93L38.3991 196.835ZM46.2291 192.065L46.9941 192.905C46.0491 193.64 44.8641 194.495 43.9641 195.035L43.4091 194.36C44.2641 193.805 45.5241 192.785 46.2291 192.065ZM42.8841 190.97C43.5291 193.88 44.9541 196.295 47.2791 197.3C47.0241 197.525 46.6791 197.93 46.5141 198.245C44.0691 197.03 42.6441 194.42 41.9241 191.165L42.8841 190.97ZM33.5091 187.625H38.8041V188.69H33.5091V187.625ZM35.7741 184.4H36.8391V198.185H35.7741V184.4ZM35.7141 188.285L36.4341 188.54C35.9391 190.94 34.8591 193.88 33.7341 195.395C33.6141 195.095 33.3441 194.645 33.1491 194.39C34.2141 193.04 35.2641 190.445 35.7141 188.285ZM36.7641 189.905C37.1541 190.325 38.5941 192.155 38.8941 192.605L38.2041 193.49C37.8291 192.74 36.6591 191.03 36.2091 190.43L36.7641 189.905ZM54.1941 185.06H61.5891V188.945H54.2241V187.97H60.5091V186.05H54.1941V185.06ZM53.6691 185.06H54.7641V189.605C54.7641 192.125 54.5391 195.785 52.8891 198.2C52.6941 198.005 52.2291 197.675 51.9591 197.57C53.5191 195.26 53.6691 191.99 53.6691 189.605V185.06ZM54.2691 190.595H62.0991V191.585H54.2691V190.595ZM55.4691 196.67H61.0191V197.6H55.4691V196.67ZM57.6741 188.825H58.7541V193.865H57.6741V188.825ZM54.9891 193.445H61.6341V198.155H60.5991V194.405H55.9941V198.215H54.9891V193.445ZM48.1791 192.38C49.3491 192.05 51.1341 191.51 52.8591 190.955L53.0091 191.99C51.4191 192.515 49.7541 193.055 48.4641 193.475L48.1791 192.38ZM48.3591 187.43H52.9941V188.48H48.3591V187.43ZM50.2491 184.415H51.2841V196.805C51.2841 197.42 51.1491 197.72 50.7741 197.9C50.4291 198.08 49.8441 198.11 48.8991 198.11C48.8541 197.84 48.7191 197.375 48.5691 197.06C49.2291 197.075 49.7991 197.075 49.9791 197.075C50.1591 197.075 50.2491 197.015 50.2491 196.79V184.415ZM65.3841 185.42H75.2091V197.975H74.0241V186.56H66.5391V198.035H65.3841V185.42ZM66.1491 190.625H74.5191V191.735H66.1491V190.625ZM66.1341 195.935H74.5491V197.06H66.1341V195.935ZM86.8941 185.15H91.0641V186.185H86.8941V185.15ZM86.8941 188.6H91.0641V189.605H86.8941V188.6ZM86.8791 192.095H91.0941V193.115H86.8791V192.095ZM90.5541 185.15H91.6491V196.775C91.6491 197.42 91.4991 197.765 91.0641 197.945C90.6441 198.125 89.9391 198.155 88.8291 198.155C88.7991 197.84 88.6341 197.345 88.4841 197.06C89.2791 197.075 90.0291 197.075 90.2541 197.06C90.4791 197.06 90.5541 196.985 90.5541 196.76V185.15ZM86.4291 185.15H87.4941V190.595C87.4941 192.905 87.3141 196.145 85.9641 198.275C85.7691 198.065 85.3191 197.735 85.0641 197.63C86.3241 195.62 86.4291 192.77 86.4291 190.595V185.15ZM78.5091 186.41H85.6941V187.4H78.5091V186.41ZM80.2791 188.735H84.0741V189.65H80.2791V188.735ZM80.2791 191.12H84.0891V192.02H80.2791V191.12ZM78.3141 193.535H85.6941V194.54H78.3141V193.535ZM79.7841 184.58H80.8191V193.94H79.7841V184.58ZM83.5491 184.58H84.5841V193.94H83.5491V184.58ZM80.3991 194.87L81.4791 195.17C80.9241 196.31 80.0541 197.465 79.2441 198.215C79.0341 198.035 78.5991 197.705 78.3291 197.555C79.1691 196.88 79.9491 195.875 80.3991 194.87ZM82.5591 195.335L83.4291 194.87C84.0141 195.545 84.7191 196.475 85.0191 197.09L84.1041 197.63C83.8191 197.03 83.1441 196.04 82.5591 195.335ZM96.8391 197.84C95.8641 196.655 94.5741 195.38 93.5091 194.51L94.4841 193.655C95.5641 194.525 96.9141 195.875 97.8591 196.97L96.8391 197.84ZM117.269 184.4H118.334V194.855H117.269V184.4ZM112.544 190.595L120.629 187.19L121.049 188.15L112.979 191.585L112.544 190.595ZM114.164 185.81H115.244V195.845C115.244 196.67 115.424 196.85 116.429 196.85C116.924 196.85 119.444 196.85 120.044 196.85C120.929 196.85 121.079 196.445 121.184 194.72C121.454 194.9 121.889 195.08 122.204 195.14C122.024 197.21 121.664 197.87 120.089 197.87C119.684 197.87 116.774 197.87 116.399 197.87C114.674 197.87 114.164 197.465 114.164 195.83V185.81ZM120.434 187.34H120.299L120.569 187.115L120.764 186.95L121.559 187.25L121.514 187.46C121.514 190.28 121.469 192.53 121.364 193.115C121.274 193.715 120.989 194 120.554 194.105C120.149 194.21 119.549 194.21 119.144 194.21C119.099 193.91 119.009 193.49 118.874 193.235C119.219 193.25 119.714 193.25 119.879 193.25C120.104 193.25 120.254 193.19 120.329 192.845C120.419 192.455 120.434 190.325 120.434 187.34ZM108.359 188.015H113.129V189.08H108.359V188.015ZM110.294 184.58H111.359V194.315H110.294V184.58ZM108.224 194.705C109.439 194.255 111.284 193.475 113.069 192.71L113.309 193.715C111.704 194.48 110.009 195.245 108.674 195.815L108.224 194.705ZM129.554 184.4H130.694V189.515H129.554V184.4ZM126.284 190.04V192.725H134.129V190.04H126.284ZM125.219 188.975H135.269V193.775H125.219V188.975ZM130.079 186.005H136.394V187.07H130.079V186.005ZM127.829 195.08L128.909 194.99C129.119 195.965 129.284 197.195 129.299 197.93L128.144 198.08C128.144 197.315 128.024 196.055 127.829 195.08ZM130.934 195.095L131.954 194.885C132.419 195.785 132.914 197 133.094 197.765L131.984 198.035C131.834 197.285 131.384 196.04 130.934 195.095ZM133.994 194.975L134.999 194.6C135.764 195.53 136.634 196.805 136.994 197.645L135.929 198.08C135.584 197.255 134.759 195.935 133.994 194.975ZM125.399 194.69L126.464 194.96C125.969 196.13 125.204 197.405 124.394 198.2L123.359 197.69C124.154 197.015 124.934 195.8 125.399 194.69ZM146.114 195.215H150.764V196.295H146.114V195.215ZM145.694 185.81H151.289V197.435H150.149V186.875H146.789V197.54H145.694V185.81ZM141.434 185.675H142.559V198.185H141.434V185.675ZM138.494 188.84H145.184V189.89H138.494V188.84ZM141.374 189.215L142.169 189.5C141.464 191.825 140.084 194.6 138.734 196.04C138.614 195.725 138.329 195.275 138.134 195.005C139.394 193.715 140.774 191.285 141.374 189.215ZM144.314 184.55L145.079 185.42C143.474 186.02 141.014 186.455 138.959 186.695C138.899 186.44 138.764 186.065 138.629 185.81C140.624 185.54 143.009 185.09 144.314 184.55ZM142.469 190.19C142.949 190.67 144.689 192.71 145.079 193.205L144.389 194.12C143.909 193.325 142.454 191.405 141.899 190.745L142.469 190.19ZM159.149 192.995H165.119V193.865H159.149V192.995ZM157.754 185.585H166.664V186.44H157.754V185.585ZM158.114 187.4H166.289V188.225H158.114V187.4ZM157.289 189.275H167.099V190.13H157.289V189.275ZM159.149 195.005H165.164V195.845H159.149V195.005ZM158.384 191.015H165.119V191.885H159.434V198.185H158.384V191.015ZM164.849 191.015H165.929V196.94C165.929 197.51 165.809 197.81 165.389 197.975C164.969 198.14 164.294 198.155 163.229 198.14C163.184 197.87 163.034 197.45 162.899 197.165C163.649 197.195 164.369 197.195 164.579 197.18C164.789 197.18 164.849 197.12 164.849 196.925V191.015ZM161.594 184.4H162.704V189.545H161.594V184.4ZM155.009 184.4H156.044V198.185H155.009V184.4ZM153.824 187.295L154.664 187.415C154.619 188.585 154.364 190.325 154.019 191.45L153.149 191.165C153.494 190.13 153.734 188.48 153.824 187.295ZM156.179 186.905L156.929 186.605C157.259 187.295 157.619 188.18 157.754 188.735L156.974 189.11C156.824 188.54 156.479 187.61 156.179 186.905ZM177.869 191.075H178.964V196.445C178.964 196.88 179.039 196.97 179.444 196.97C179.624 196.97 180.494 196.97 180.734 196.97C181.139 196.97 181.214 196.64 181.259 194.63C181.499 194.825 181.964 195.005 182.264 195.095C182.144 197.375 181.874 197.975 180.839 197.975C180.599 197.975 179.519 197.975 179.294 197.975C178.154 197.975 177.869 197.63 177.869 196.445V191.075ZM168.809 185.99L169.574 185.27C170.534 185.99 171.644 187.04 172.169 187.775L171.329 188.615C170.849 187.865 169.754 186.755 168.809 185.99ZM168.344 195.665C169.184 194.51 170.414 192.5 171.329 190.775L172.094 191.555C171.254 193.16 170.144 195.08 169.229 196.475L168.344 195.665ZM174.329 186.185V190.25H180.059V186.185H174.329ZM173.234 185.12H181.184V191.33H173.234V185.12ZM174.974 191.015H176.114C175.919 194.615 175.379 196.955 172.079 198.2C171.944 197.945 171.629 197.525 171.389 197.33C174.419 196.235 174.824 194.21 174.974 191.015ZM183.464 185.225H189.089V186.26H183.464V185.225ZM185.114 189.695H188.579V196.13H185.114V195.11H187.544V190.7H185.114V189.695ZM185.414 185.675L186.494 185.825C186.029 188.99 185.234 191.93 183.854 193.88C183.734 193.655 183.374 193.145 183.149 192.905C184.394 191.195 185.039 188.51 185.414 185.675ZM184.619 189.695H185.624V197.39H184.619V189.695ZM190.244 193.505H196.094V194.495H190.244V193.505ZM190.319 190.85H196.079V191.75H190.319V190.85ZM190.319 188.24H196.079V189.215H190.319V188.24ZM192.614 188.69H193.619V193.925H192.614V188.69ZM195.554 188.24H196.634V196.91C196.634 197.54 196.514 197.87 196.079 198.035C195.674 198.23 194.954 198.245 193.919 198.245C193.874 197.93 193.724 197.465 193.574 197.165C194.339 197.195 195.074 197.195 195.284 197.195C195.494 197.18 195.554 197.12 195.554 196.91V188.24ZM189.719 188.24H190.754V192.215C190.754 194.09 190.484 196.595 188.894 198.245C188.744 198.035 188.309 197.66 188.084 197.525C189.539 196.025 189.719 193.895 189.719 192.2V188.24ZM191.369 184.4L192.404 184.655C191.714 186.605 190.604 188.51 189.419 189.74C189.239 189.56 188.819 189.17 188.579 189.005C189.734 187.895 190.769 186.155 191.369 184.4ZM191.369 185.66H194.384V186.605H190.904L191.369 185.66ZM194.039 185.66H194.294L194.459 185.6L195.194 186.095C194.759 187.04 194.039 188.135 193.484 188.84C193.289 188.69 192.944 188.48 192.704 188.345C193.199 187.685 193.784 186.605 194.039 185.87V185.66ZM200.909 188.99H209.654V190.07H200.909V188.99ZM205.229 192.575H210.284V193.64H205.229V192.575ZM204.629 189.545H205.799V197.135L204.629 196.985V189.545ZM201.074 191.36L202.244 191.48C201.824 194.51 200.879 196.805 199.184 198.275C199.004 198.08 198.524 197.69 198.254 197.525C199.934 196.22 200.744 194.075 201.074 191.36ZM201.779 193.295C202.844 196.355 205.184 196.88 208.229 196.88C208.784 196.88 211.379 196.88 212.114 196.865C211.934 197.135 211.739 197.675 211.694 198.005H208.169C204.599 198.005 202.154 197.3 200.864 193.64L201.779 193.295ZM204.614 184.415H205.799V186.845H204.614V184.415ZM198.974 186.125H211.514V189.395H210.359V187.205H200.084V189.395H198.974V186.125ZM213.524 186.995H226.949V188.075H213.524V186.995ZM218.429 190.55H224.429V191.63H218.429V190.55ZM224.024 190.55H225.179C225.179 190.55 225.164 190.925 225.134 191.09C224.834 195.41 224.534 197.075 223.949 197.675C223.604 198.035 223.229 198.14 222.659 198.185C222.134 198.215 221.144 198.185 220.124 198.14C220.109 197.81 219.944 197.345 219.734 197.03C220.814 197.135 221.879 197.135 222.269 197.135C222.599 197.135 222.809 197.12 222.974 196.97C223.454 196.535 223.754 194.855 224.009 190.745L224.024 190.55ZM218.174 187.595H219.419C219.194 191.57 218.759 196.07 214.184 198.26C214.019 197.975 213.659 197.57 213.374 197.345C217.754 195.365 218.009 191.18 218.174 187.595ZM219.599 184.37H220.754V187.46H219.599V184.37ZM229.214 186.995H240.629V188.105H230.324V198.2H229.214V186.995ZM240.209 186.995H241.334V196.715C241.334 197.45 241.169 197.825 240.644 198.005C240.104 198.185 239.159 198.215 237.794 198.215C237.734 197.885 237.569 197.36 237.389 197.045C238.484 197.09 239.519 197.09 239.834 197.075C240.134 197.06 240.209 196.985 240.209 196.7V186.995ZM234.314 184.37L235.709 184.61C235.244 185.675 234.674 186.89 234.224 187.685L233.144 187.43C233.564 186.59 234.059 185.285 234.314 184.37ZM232.304 190.085H233.339V196.13H232.304V190.085ZM232.784 190.085H238.184V195.05H232.784V194.045H237.134V191.105H232.784V190.085Z" fill="#2D3342"/>
<path d="M22.2614 249.108C21.9508 249.108 21.6837 248.998 21.4602 248.778C21.2367 248.555 21.125 248.286 21.125 247.972C21.125 247.661 21.2367 247.396 21.4602 247.176C21.6837 246.953 21.9508 246.841 22.2614 246.841C22.572 246.841 22.839 246.953 23.0625 247.176C23.286 247.396 23.3977 247.661 23.3977 247.972C23.3977 248.18 23.3447 248.371 23.2386 248.545C23.1364 248.716 23 248.852 22.8295 248.955C22.6591 249.057 22.4697 249.108 22.2614 249.108ZM26.7926 249.108C26.482 249.108 26.215 248.998 25.9915 248.778C25.768 248.555 25.6562 248.286 25.6562 247.972C25.6562 247.661 25.768 247.396 25.9915 247.176C26.215 246.953 26.482 246.841 26.7926 246.841C27.1032 246.841 27.3703 246.953 27.5938 247.176C27.8172 247.396 27.929 247.661 27.929 247.972C27.929 248.18 27.8759 248.371 27.7699 248.545C27.6676 248.716 27.5312 248.852 27.3608 248.955C27.1903 249.057 27.0009 249.108 26.7926 249.108ZM31.3239 249.108C31.0133 249.108 30.7462 248.998 30.5227 248.778C30.2992 248.555 30.1875 248.286 30.1875 247.972C30.1875 247.661 30.2992 247.396 30.5227 247.176C30.7462 246.953 31.0133 246.841 31.3239 246.841C31.6345 246.841 31.9015 246.953 32.125 247.176C32.3485 247.396 32.4602 247.661 32.4602 247.972C32.4602 248.18 32.4072 248.371 32.3011 248.545C32.1989 248.716 32.0625 248.852 31.892 248.955C31.7216 249.057 31.5322 249.108 31.3239 249.108ZM34.5858 238.04H48.6018V239.208H34.5858V238.04ZM39.5458 243.112H47.9778V244.232H39.5458V243.112ZM38.9218 248.776H48.6018V249.912H38.9218V248.776ZM43.1618 240.024H44.3618V249.384H43.1618V240.024ZM39.8498 235.56L41.0818 235.864C39.9618 239.528 38.0098 243.256 34.8258 245.544C34.6978 245.224 34.3938 244.712 34.2018 244.44C37.0818 242.408 38.9538 238.856 39.8498 235.56ZM36.6818 242.152H37.8818V250.232H36.6818V242.152ZM51.9778 248.104H63.2738V249.288H51.9778V248.104ZM56.8898 235.656H58.1218V248.776H56.8898V235.656ZM51.3858 243.64H52.6018V250.296H51.3858V243.64ZM62.6338 243.64H63.8658V250.248H62.6338V243.64ZM52.0098 237.096H53.1938V241.448H61.9778V237.096H63.2258V242.616H52.0098V237.096ZM66.4738 236.648H71.7698V237.784H66.4738V236.648ZM66.7138 241.272H71.4338V242.408H66.7138V241.272ZM66.2818 247.4C67.6898 247.048 69.8177 246.44 71.8498 245.832L72.0098 246.936C70.0898 247.512 68.0578 248.104 66.5378 248.568L66.2818 247.4ZM68.6178 237.16H69.7698V246.984L68.6178 247.224V237.16ZM72.4898 236.344H79.6898V244.856H78.5058V237.4H73.6418V244.856H72.4898V236.344ZM76.1378 244.6H77.2578V248.392C77.2578 248.84 77.3858 248.952 77.8338 248.952H79.1618C79.7058 248.952 79.8018 248.52 79.8818 246.232C80.1698 246.472 80.5538 246.632 80.8578 246.696C80.7138 249.224 80.5378 249.864 79.1458 249.864H77.6738C76.5698 249.864 76.1378 249.576 76.1378 248.504V244.6ZM75.4498 238.776H76.5698V241.88C76.5698 244.632 75.8658 248.152 71.6578 250.328C71.5138 250.088 71.1458 249.656 70.9058 249.464C74.9378 247.384 75.4498 244.36 75.4498 241.864V238.776ZM83.0658 239.176H84.2498V250.296H83.0658V239.176ZM83.2418 236.344L84.1218 235.784C84.9218 236.568 86.0098 237.704 86.5378 238.376L85.6258 239.032C85.0978 238.344 84.0578 237.192 83.2418 236.344ZM87.2738 236.472H95.7218V237.592H87.2738V236.472ZM94.9058 236.472H96.1058V248.616C96.1058 249.384 95.9138 249.752 95.4178 249.96C94.9058 250.152 94.0418 250.184 92.7298 250.168C92.6818 249.832 92.4898 249.288 92.3298 248.952C93.2898 249 94.2658 248.984 94.5218 248.984C94.8098 248.968 94.9058 248.872 94.9058 248.6V236.472ZM87.3378 240.424H92.3618V246.312H87.3378V245.224H91.1938V241.512H87.3378V240.424ZM86.7298 240.424H87.8338V247.352H86.7298V240.424ZM100.394 239.16V240.376H103.674V239.16H100.394ZM100.394 237.112V238.312H103.674V237.112H100.394ZM99.3218 236.248H104.794V241.272H99.3218V236.248ZM98.3618 242.456H105.61V243.384H98.3618V242.456ZM105.578 236.296H112.874V237.288H105.578V236.296ZM101.61 242.76H102.65V248.856L101.61 248.232V242.76ZM102.09 245.112H105.306V246.024H102.09V245.112ZM108.634 236.632L109.85 236.872C109.53 237.704 109.194 238.6 108.906 239.208L107.946 238.968C108.186 238.312 108.49 237.32 108.634 236.632ZM100.266 245.832C101.386 248.584 103.866 248.936 107.418 248.936C108.138 248.936 112.074 248.936 113.002 248.904C112.826 249.16 112.618 249.624 112.57 249.944H107.402C103.386 249.944 100.826 249.416 99.5298 246.104L100.266 245.832ZM106.218 238.824H112.09V245.512H111.034V239.736H107.242V245.56H106.218V238.824ZM99.5618 244.184L100.586 244.248C100.474 246.824 100.074 248.856 98.9858 250.248C98.8098 250.104 98.3618 249.8 98.1217 249.656C99.1938 248.408 99.4818 246.488 99.5618 244.184ZM108.698 240.52H109.722C109.61 245.032 109.146 247.368 105.498 248.568C105.386 248.344 105.13 247.96 104.906 247.784C108.266 246.712 108.602 244.68 108.698 240.52ZM109.258 246.04L109.962 245.4C110.954 246.072 112.218 247.08 112.842 247.752L112.122 248.488C111.498 247.816 110.266 246.76 109.258 246.04ZM115.466 236.904H119.898V247.32H115.466V246.232H118.778V237.992H115.466V236.904ZM115.53 241.496H119.194V242.568H115.53V241.496ZM114.89 236.904H116.026V248.6H114.89V236.904ZM120.618 238.776H128.97V239.96H120.618V238.776ZM125.818 235.656H127.034V248.472C127.034 249.352 126.794 249.72 126.218 249.912C125.642 250.104 124.634 250.136 123.018 250.12C122.954 249.784 122.762 249.24 122.586 248.904C123.834 248.936 125.002 248.936 125.354 248.92C125.69 248.904 125.818 248.808 125.818 248.472V235.656ZM121.162 241.768L122.154 241.256C123.018 242.472 124.122 244.104 124.666 245.064L123.61 245.688C123.098 244.712 122.026 243 121.162 241.768ZM132.106 250.712L131.738 249.88C133.05 249.336 133.77 248.52 133.77 247.32L133.466 245.96L134.33 247.176C134.106 247.464 133.786 247.544 133.482 247.544C132.826 247.544 132.282 247.16 132.282 246.392C132.282 245.64 132.858 245.24 133.498 245.24C134.394 245.24 134.874 245.976 134.874 247.096C134.874 248.824 133.786 250.136 132.106 250.712ZM151.05 243.192H160.938V244.312H151.05V243.192ZM157.562 241.912H158.746V248.824C158.746 249.528 158.602 249.88 158.09 250.072C157.578 250.264 156.73 250.28 155.466 250.28C155.418 249.944 155.242 249.448 155.066 249.096C156.058 249.128 156.954 249.128 157.242 249.112C157.498 249.096 157.562 249.048 157.562 248.808V241.912ZM159.178 235.56L160.01 236.488C157.722 237.176 154.218 237.72 151.242 238.024C151.194 237.752 151.05 237.32 150.906 237.064C153.834 236.728 157.242 236.168 159.178 235.56ZM151.482 238.856L152.49 238.52C153.002 239.432 153.514 240.648 153.674 241.432L152.602 241.816C152.442 241.048 151.978 239.784 151.482 238.856ZM154.618 238.232L155.69 237.976C156.074 238.92 156.41 240.104 156.474 240.856L155.338 241.16C155.29 240.392 154.986 239.176 154.618 238.232ZM152.33 245.496L153.322 244.968C154.154 245.784 155.066 246.968 155.466 247.768L154.426 248.376C154.074 247.56 153.162 246.344 152.33 245.496ZM149.226 235.576H150.378V250.28H149.226V235.576ZM145.994 246.04C146.89 245.576 148.234 244.776 149.546 243.976L149.93 244.984C148.794 245.784 147.61 246.6 146.602 247.272L145.994 246.04ZM146.17 238.072L147.146 237.608C147.914 238.616 148.698 239.976 149.002 240.856L147.962 241.416C147.674 240.504 146.906 239.112 146.17 238.072ZM159.562 237.784L160.65 238.328C159.786 239.672 158.618 241.208 157.706 242.248L156.778 241.72C157.674 240.68 158.89 239.032 159.562 237.784ZM162.634 236.84H170.122V237.816H162.634V236.84ZM162.378 241.176H170.218V242.136H162.378V241.176ZM162.986 238.984H169.802V239.928H162.986V238.984ZM170.938 236.232H175.562V237.272H172.09V244.168H170.938V236.232ZM175.322 236.232H175.562L175.754 236.184L176.586 236.696C175.994 237.528 175.274 238.504 174.618 239.304C175.978 240.152 176.442 240.92 176.458 241.64C176.474 242.328 176.186 242.776 175.674 243.064C175.402 243.208 175.018 243.288 174.714 243.336C174.154 243.384 173.466 243.384 172.842 243.336C172.826 243.032 172.666 242.6 172.458 242.312C173.146 242.392 173.738 242.392 174.202 242.36C174.426 242.344 174.682 242.296 174.858 242.232C175.146 242.12 175.274 241.896 175.274 241.544C175.258 240.968 174.746 240.264 173.322 239.464C174.074 238.472 174.858 237.272 175.322 236.456V236.232ZM165.962 235.56H167.178V240.312C167.178 241.592 166.426 243.752 163.53 244.888C163.338 244.648 162.97 244.248 162.698 244.024C165.306 243.144 165.962 241.336 165.962 240.296V235.56ZM168.922 243.56H170.17V250.264H168.922V243.56ZM163.994 244.824H174.73V245.912H165.194V249.416H163.994V244.824ZM174.218 244.824H175.434V248.104C175.434 248.712 175.29 249.032 174.778 249.208C174.266 249.384 173.418 249.384 172.074 249.384C171.994 249.064 171.818 248.648 171.658 248.344C172.666 248.376 173.61 248.376 173.882 248.36C174.154 248.344 174.218 248.28 174.218 248.088V244.824ZM185.05 239.192H191.818V240.328H185.05V239.192ZM191.306 239.192H192.458C192.458 239.192 192.442 239.64 192.442 239.8C192.282 246.568 192.138 248.856 191.61 249.544C191.29 249.976 190.954 250.104 190.442 250.152C189.946 250.2 189.082 250.184 188.234 250.152C188.202 249.8 188.074 249.304 187.866 249C188.794 249.064 189.626 249.064 189.962 249.064C190.234 249.08 190.41 249.032 190.554 248.824C190.986 248.328 191.162 245.992 191.306 239.448V239.192ZM187.706 235.576H188.874C188.858 241.704 188.842 247.4 184.394 250.312C184.218 250.024 183.818 249.624 183.514 249.432C187.786 246.776 187.69 241.4 187.706 235.576ZM179.29 236.344H184.506V246.76H183.386V237.448H180.362V247.784H179.29V236.344ZM178.138 247.496C179.914 247.144 182.73 246.552 185.386 245.96L185.498 247.048C182.954 247.656 180.266 248.28 178.346 248.712L178.138 247.496ZM179.85 239.784H183.914V240.872H179.85V239.784ZM179.85 243.208H183.914V244.28H179.85V243.208ZM195.802 239.624H200.426V240.568H195.802V239.624ZM195.802 242.344H200.426V243.256H195.802V242.344ZM195.802 245.128H200.426V246.072H195.802V245.128ZM202.618 243.144H208.714V244.184H202.618V243.144ZM196.634 237H199.29V237.944H196.634V237ZM201.594 236.376H207.85V237.4H201.594V236.376ZM201.402 246.136H208.986V247.208H201.402V246.136ZM204.778 241.496H205.93V250.216H204.778V241.496ZM197.786 240.088H198.65V245.528H197.786V240.088ZM207.466 236.376H208.554C208.554 236.376 208.554 236.68 208.538 236.824C208.426 239.496 208.266 240.536 207.93 240.904C207.706 241.176 207.466 241.272 207.05 241.304C206.73 241.336 206.058 241.336 205.386 241.304C205.37 240.984 205.258 240.568 205.114 240.296C205.754 240.36 206.33 240.36 206.554 240.36C206.778 240.376 206.922 240.344 207.018 240.216C207.226 239.976 207.354 239.048 207.466 236.536V236.376ZM202.682 241.64L203.722 241.848C203.402 243.336 202.842 244.792 202.17 245.752C201.962 245.608 201.482 245.368 201.226 245.24C201.914 244.344 202.41 243 202.682 241.64ZM196.602 235.56L197.706 235.8C197.114 237.96 196.138 240.024 195.002 241.384C194.81 241.192 194.346 240.824 194.09 240.664C195.226 239.432 196.122 237.528 196.602 235.56ZM195.338 239.624H196.33V243.88C196.33 245.832 196.138 248.536 195.002 250.312C194.826 250.152 194.378 249.88 194.138 249.768C195.226 248.072 195.338 245.688 195.338 243.88V239.624ZM200.106 239.624H201.114V248.968C201.114 249.56 200.986 249.896 200.57 250.072C200.17 250.248 199.514 250.264 198.41 250.264C198.362 249.992 198.186 249.528 198.042 249.24C198.858 249.272 199.578 249.272 199.802 249.256C200.01 249.24 200.106 249.176 200.106 248.968V239.624ZM203.866 236.712H204.97C204.698 238.92 204.01 240.744 201.77 241.752C201.626 241.496 201.338 241.112 201.098 240.936C203.066 240.104 203.642 238.52 203.866 236.712ZM199.002 237H199.242L199.402 236.936L200.106 237.4C199.77 238.392 199.162 239.576 198.682 240.328C198.49 240.168 198.138 239.96 197.914 239.864C198.314 239.144 198.762 237.992 199.002 237.192V237ZM210.394 236.776L211.338 236.2C212.25 237.16 213.386 238.504 213.882 239.368L212.874 240.056C212.394 239.176 211.322 237.784 210.394 236.776ZM210.186 248.824C210.986 247.544 212.138 245.4 212.97 243.528L213.866 244.264C213.114 245.992 212.106 248.024 211.226 249.56L210.186 248.824ZM215.322 238.088H223.37V243.48H222.218V239.24H215.322V238.088ZM214.49 242.936H224.97V244.104H214.49V242.936ZM220.186 243.304C220.89 246.152 222.458 248.328 225.066 249.224C224.794 249.464 224.442 249.944 224.266 250.264C221.514 249.144 219.914 246.792 219.114 243.528L220.186 243.304ZM218.522 235.592H219.77V240.92C219.77 244.072 219.306 247.896 214.442 250.328C214.266 250.056 213.866 249.592 213.578 249.368C218.346 247.208 218.522 243.72 218.522 240.92V235.592ZM231.626 238.088H240.442V239.208H231.626V238.088ZM231.962 241.608H239.018V242.712H231.962V241.608ZM235.402 235.56H236.586V242.232H235.402V235.56ZM233.514 242.424C234.714 245.784 237.29 248.28 241.034 249.272C240.762 249.512 240.426 249.992 240.25 250.296C236.41 249.16 233.818 246.504 232.426 242.744L233.514 242.424ZM238.922 241.608H239.146L239.37 241.56L240.122 241.896C238.762 246.488 235.274 249.096 231.354 250.28C231.242 249.96 230.938 249.448 230.714 249.192C234.378 248.248 237.754 245.768 238.922 241.816V241.608ZM226.17 244.04C227.514 243.704 229.498 243.16 231.402 242.616L231.546 243.704C229.802 244.232 227.946 244.776 226.522 245.192L226.17 244.04ZM226.378 238.792H231.402V239.928H226.378V238.792ZM228.442 235.576H229.626V248.84C229.626 249.512 229.466 249.848 229.034 250.024C228.618 250.216 227.946 250.248 226.842 250.248C226.81 249.944 226.634 249.464 226.474 249.144C227.226 249.16 227.93 249.16 228.138 249.144C228.346 249.144 228.442 249.064 228.442 248.84V235.576ZM250.522 240.376C251.962 242.952 254.682 245.832 256.97 247.272C256.666 247.512 256.234 247.976 256.01 248.312C253.738 246.68 251.082 243.608 249.514 240.776L250.522 240.376ZM248.842 240.392L249.914 240.792C248.394 243.96 245.738 246.904 243.066 248.44C242.842 248.12 242.442 247.656 242.154 247.416C244.794 246.056 247.466 243.224 248.842 240.392ZM242.65 239.624H256.426V240.808H242.65V239.624ZM248.954 235.592H250.266V250.296H248.954V235.592ZM251.29 236.584L252.17 235.848C253.146 236.52 254.426 237.496 255.066 238.136L254.17 238.984C253.546 238.328 252.282 237.304 251.29 236.584ZM259.066 239.176H260.25V250.296H259.066V239.176ZM259.242 236.344L260.122 235.784C260.922 236.568 262.01 237.704 262.538 238.376L261.626 239.032C261.098 238.344 260.058 237.192 259.242 236.344ZM263.274 236.472H271.722V237.592H263.274V236.472ZM270.906 236.472H272.106V248.616C272.106 249.384 271.914 249.752 271.418 249.96C270.906 250.152 270.042 250.184 268.73 250.168C268.682 249.832 268.49 249.288 268.33 248.952C269.29 249 270.266 248.984 270.522 248.984C270.81 248.968 270.906 248.872 270.906 248.6V236.472ZM263.338 240.424H268.362V246.312H263.338V245.224H267.194V241.512H263.338V240.424ZM262.73 240.424H263.834V247.352H262.73V240.424ZM276.394 239.16V240.376H279.674V239.16H276.394ZM276.394 237.112V238.312H279.674V237.112H276.394ZM275.322 236.248H280.794V241.272H275.322V236.248ZM274.362 242.456H281.61V243.384H274.362V242.456ZM281.578 236.296H288.874V237.288H281.578V236.296ZM277.61 242.76H278.65V248.856L277.61 248.232V242.76ZM278.09 245.112H281.306V246.024H278.09V245.112ZM284.634 236.632L285.85 236.872C285.53 237.704 285.194 238.6 284.906 239.208L283.946 238.968C284.186 238.312 284.49 237.32 284.634 236.632ZM276.266 245.832C277.386 248.584 279.866 248.936 283.418 248.936C284.138 248.936 288.074 248.936 289.002 248.904C288.826 249.16 288.618 249.624 288.57 249.944H283.402C279.386 249.944 276.826 249.416 275.53 246.104L276.266 245.832ZM282.218 238.824H288.09V245.512H287.034V239.736H283.242V245.56H282.218V238.824ZM275.562 244.184L276.586 244.248C276.474 246.824 276.074 248.856 274.986 250.248C274.81 250.104 274.362 249.8 274.122 249.656C275.194 248.408 275.482 246.488 275.562 244.184ZM284.698 240.52H285.722C285.61 245.032 285.146 247.368 281.498 248.568C281.386 248.344 281.13 247.96 280.906 247.784C284.266 246.712 284.602 244.68 284.698 240.52ZM285.258 246.04L285.962 245.4C286.954 246.072 288.218 247.08 288.842 247.752L288.122 248.488C287.498 247.816 286.266 246.76 285.258 246.04Z" fill="black"/>
<defs>
<linearGradient id="paint0_linear_1314_8422" x1="135.515" y1="-6.53658e-07" x2="168.388" y2="39.9534" gradientUnits="userSpaceOnUse">
<stop stop-color="#5955B3"/>
<stop offset="1" stop-color="#6563CE"/>
</linearGradient>
</defs>
</svg>
