<svg width="325" height="290" viewBox="0 0 325 290" fill="none" xmlns="http://www.w3.org/2000/svg">
<rect width="325" height="290" rx="5" fill="white"/>
<path opacity="0.2" fill-rule="evenodd" clip-rule="evenodd" d="M324.664 269.81C324.612 280.783 315.724 289.668 304.749 289.713H171.145C177.237 275.753 202.684 247.832 255.737 247.832C308.79 247.832 323.794 226.116 324.664 215.258V269.81Z" fill="#89AFFF"/>
<path opacity="0.2" fill-rule="evenodd" clip-rule="evenodd" d="M149.339 0C147.453 10.5057 135.894 40.0486 88.2786 53.4492C42.0808 66.4509 11.6469 61.9796 0.329595 57.7773L0.329592 20C0.329591 8.95432 9.28386 1.09491e-05 20.3296 1.00855e-05L149.339 0Z" fill="#89AFFF"/>
<path d="M97.816 37.936H114.232V40.768H97.816V37.936ZM104.344 19.864H107.344V39.664H104.344V19.864ZM96.4 31.936H99.328V42.16H96.4V31.936ZM112.696 31.936H115.696V42.136H112.696V31.936ZM97.36 21.88H100.24V27.856H111.688V21.88H114.736V30.64H97.36V21.88ZM128.608 27.832H131.656V38.824C131.656 40.456 131.248 41.248 130.048 41.68C128.872 42.112 127.144 42.16 124.84 42.16C124.672 41.32 124.12 40.024 123.664 39.232C125.368 39.304 127.336 39.304 127.888 39.304C128.416 39.304 128.608 39.16 128.608 38.752V27.832ZM120.4 21.304H137.176V24.136H120.4V21.304ZM136.096 21.304H136.864L137.56 21.112L139.816 22.792C137.656 25.432 134.488 28.48 131.536 30.328C131.08 29.704 130.144 28.744 129.568 28.288C132.064 26.704 134.896 23.824 136.096 22V21.304ZM152.416 19.624H155.344V27.952H152.416V19.624ZM148.408 29.368V32.44H159.448V29.368H148.408ZM145.672 26.68H162.376V35.104H145.672V26.68ZM153.76 21.736H163.96V24.424H153.76V21.736ZM149.656 36.928L152.392 36.664C152.752 38.296 153.016 40.384 153.064 41.656L150.136 42.016C150.136 40.72 149.944 38.584 149.656 36.928ZM154.6 36.952L157.216 36.376C157.96 37.888 158.752 39.88 159.064 41.176L156.232 41.872C155.992 40.624 155.272 38.536 154.6 36.952ZM159.472 36.808L162.064 35.872C163.216 37.408 164.608 39.52 165.208 40.912L162.424 41.992C161.92 40.624 160.624 38.416 159.472 36.808ZM145.696 36.064L148.456 36.76C147.784 38.704 146.608 40.768 145.36 42.088L142.696 40.768C143.848 39.736 145.024 37.816 145.696 36.064ZM167.776 25.408H170.632V42.136H167.776V25.408ZM167.944 21.16L170.032 19.792C171.208 20.992 172.912 22.744 173.728 23.8L171.52 25.384C170.752 24.28 169.12 22.48 167.944 21.16ZM174.304 20.824H187.36V23.488H174.304V20.824ZM185.344 20.824H188.224V38.704C188.224 40.288 187.888 41.056 186.952 41.536C185.992 41.992 184.576 42.04 182.536 42.04C182.44 41.224 182.008 39.952 181.648 39.184C182.872 39.28 184.36 39.256 184.768 39.256C185.2 39.256 185.344 39.088 185.344 38.68V20.824ZM174.808 27.016H182.416V36.184H174.808V33.616H179.632V29.584H174.808V27.016ZM173.368 27.016H175.96V37.528H173.368V27.016ZM194.704 25.432V26.584H198.232V25.432H194.704ZM194.704 22.48V23.608H198.232V22.48H194.704ZM192.16 20.56H200.896V28.528H192.16V20.56ZM191.032 29.896H201.928V32.008H191.032V29.896ZM201.856 20.608H213.136V22.864H201.856V20.608ZM195.544 30.568H197.968V40.216L195.544 38.848V30.568ZM196.768 33.952H201.424V36.016H196.768V33.952ZM206.392 21.16L209.272 21.76C208.624 23.152 207.976 24.568 207.472 25.504L205.216 24.904C205.648 23.848 206.152 22.264 206.392 21.16ZM194.08 34.96C195.4 38.992 198.376 39.4 203.248 39.424C204.856 39.424 211.432 39.424 213.4 39.328C213.016 39.88 212.584 40.984 212.464 41.704H203.224C197.32 41.704 194.056 40.888 192.376 35.464L194.08 34.96ZM202.624 24.592H212.224V34.504H209.8V26.632H204.952V34.672H202.624V24.592ZM192.232 32.848L194.584 32.992C194.44 36.832 193.96 40.024 192.448 42.16C192.04 41.8 191.008 41.104 190.456 40.816C191.872 38.992 192.184 36.112 192.232 32.848ZM206.296 27.616H208.672C208.528 34.096 207.904 37.528 202.192 39.28C201.976 38.728 201.376 37.84 200.896 37.408C205.888 35.968 206.176 33.304 206.296 27.616ZM207.52 35.968L209.104 34.408C210.424 35.32 212.296 36.712 213.232 37.6L211.576 39.376C210.688 38.44 208.888 36.976 207.52 35.968ZM218.632 34.072C220.792 34.072 222.52 35.8 222.52 37.936C222.52 40.096 220.792 41.824 218.632 41.824C216.496 41.824 214.744 40.096 214.744 37.936C214.744 35.8 216.496 34.072 218.632 34.072ZM218.632 40.096C219.832 40.096 220.792 39.136 220.792 37.936C220.792 36.76 219.832 35.8 218.632 35.8C217.456 35.8 216.472 36.76 216.472 37.936C216.472 39.136 217.456 40.096 218.632 40.096Z" fill="url(#paint0_linear_1314_8400)"/>
<path d="M47.652 101.528H52.66V102.664H47.652V101.528ZM46.996 91.288H53.268V103.64H52.084V92.44H48.148V103.88H46.996V91.288ZM39.188 92.84H45.14V93.992H39.188V92.84ZM41.908 89.56L43.076 89.704C42.372 92.904 41.284 97.24 40.484 99.896L39.46 99.4C40.228 96.936 41.284 92.616 41.908 89.56ZM40.02 98.792L40.676 97.912C42.756 98.984 45.22 100.664 46.356 101.976L45.652 103C44.532 101.672 42.084 99.912 40.02 98.792ZM44.804 92.84H44.996L45.22 92.808L45.956 92.952C45.46 99.4 43.476 102.632 40.148 104.296C39.988 104.008 39.668 103.56 39.412 103.304C42.452 101.976 44.356 98.776 44.804 93.096V92.84ZM55.476 98.056H69.524V99.176H55.476V98.056ZM61.86 90.728H63.124V104.28H61.86V90.728ZM61.428 98.536L62.436 98.968C60.948 101.016 58.292 102.84 55.892 103.752C55.716 103.464 55.332 103.016 55.076 102.776C57.444 101.992 60.084 100.296 61.428 98.536ZM63.492 98.488C64.884 100.2 67.604 101.896 69.94 102.68C69.668 102.92 69.3 103.384 69.108 103.688C66.788 102.76 64.068 100.888 62.532 98.92L63.492 98.488ZM58.26 93.992V95.672H66.772V93.992H58.26ZM58.26 91.368V93.016H66.772V91.368H58.26ZM57.028 90.344H68.052V96.696H57.028V90.344ZM77.988 89.576L79.092 89.848C78.468 91.56 77.428 93.192 76.308 94.28C76.132 94.072 75.684 93.688 75.412 93.512C76.5 92.568 77.444 91.112 77.988 89.576ZM77.924 93.608L79.044 93.896C78.548 95.16 77.716 96.408 76.916 97.24C76.692 97.064 76.212 96.76 75.94 96.616C76.772 95.848 77.492 94.728 77.924 93.608ZM77.828 91.144H84.772V92.2H77.412L77.828 91.144ZM80.18 91.864H81.332V97.432C81.332 98.04 81.22 98.36 80.772 98.536C80.356 98.712 79.7 98.728 78.692 98.728C78.628 98.408 78.468 97.96 78.292 97.656C79.044 97.688 79.716 97.688 79.924 97.672C80.132 97.656 80.18 97.608 80.18 97.432V91.864ZM82.212 93.96L83.204 93.528C83.988 94.568 84.772 95.976 85.108 96.904L84.068 97.4C83.748 96.456 82.964 95 82.212 93.96ZM84.436 91.144H84.628L84.82 91.112L85.652 91.32C85.252 92.328 84.756 93.496 84.372 94.2L83.332 93.992C83.7 93.32 84.132 92.216 84.436 91.32V91.144ZM75.284 99.512H76.468V102.408C76.468 102.84 76.628 102.92 77.476 102.92C77.876 102.92 79.876 102.92 80.404 102.92C81.108 102.92 81.22 102.712 81.3 101.128C81.556 101.336 82.036 101.512 82.372 101.592C82.228 103.528 81.86 104.008 80.484 104.008C80.116 104.008 77.732 104.008 77.38 104.008C75.716 104.008 75.284 103.672 75.284 102.408V99.512ZM76.66 99.032L77.46 98.312C78.484 98.808 79.716 99.624 80.292 100.264L79.428 101.048C78.884 100.408 77.7 99.544 76.66 99.032ZM81.924 100.008L82.916 99.448C84.1 100.456 85.348 101.896 85.844 102.984L84.772 103.592C84.308 102.536 83.124 101.032 81.924 100.008ZM73.332 99.704L74.404 100.056C74.004 101.496 73.38 102.92 72.116 103.768L71.124 103.08C72.308 102.328 72.996 101.048 73.332 99.704ZM74.868 89.56L75.94 89.928C74.9 91.912 73.284 93.88 71.732 95.144C71.588 94.904 71.188 94.424 70.948 94.216C72.452 93.08 73.956 91.32 74.868 89.56ZM73.396 92.568L74.532 91.432L74.548 91.448V98.712H73.396V92.568ZM87.508 91.64H101.524V92.776H87.508V91.64ZM91.412 97.352H98.932V98.392H91.412V97.352ZM90.564 94.632H98.74V95.704H91.748V104.28H90.564V94.632ZM98.468 94.632H99.636V102.792C99.636 103.496 99.492 103.864 98.948 104.056C98.436 104.248 97.54 104.248 96.164 104.248C96.116 103.912 95.94 103.416 95.764 103.08C96.836 103.128 97.812 103.112 98.1 103.112C98.372 103.096 98.468 103.016 98.468 102.776V94.632ZM92.74 89.56L93.956 89.848C92.868 93.368 90.948 96.92 87.892 99.064C87.732 98.792 87.364 98.376 87.124 98.136C89.988 96.168 91.876 92.776 92.74 89.56ZM91.412 100.056H98.932V101.096H91.412V100.056ZM116.308 89.96L117.204 90.968C114.868 91.768 111.284 92.36 108.244 92.728C108.196 92.44 108.02 91.992 107.892 91.704C110.868 91.32 114.34 90.68 116.308 89.96ZM107.348 96.424H117.86V97.576H107.348V96.424ZM107.972 102.52H117.604V103.672H107.972V102.52ZM112.116 91.736H113.316V102.84H112.116V91.736ZM105.46 93.816L106.644 92.632L106.66 92.664V104.28H105.46V93.816ZM107.204 89.576L108.372 89.944C107.236 92.728 105.444 95.496 103.572 97.32C103.444 97.032 103.076 96.408 102.836 96.104C104.564 94.536 106.212 92.088 107.204 89.576ZM123.924 91.128H133.892V92.28H123.924V91.128ZM131.524 91.544H132.724V102.632C132.724 103.496 132.5 103.848 131.924 104.056C131.332 104.248 130.276 104.28 128.708 104.264C128.644 103.928 128.452 103.384 128.276 103.032C129.556 103.08 130.724 103.064 131.092 103.048C131.428 103.032 131.524 102.952 131.524 102.632V91.544ZM124.404 94.536H125.524V101.192H124.404V94.536ZM124.916 94.536H129.428V100.072H124.916V99H128.292V95.608H124.916V94.536ZM122.756 89.576L123.892 89.928C122.932 92.6 121.396 95.304 119.764 97.08C119.652 96.808 119.3 96.168 119.092 95.896C120.564 94.36 121.924 91.976 122.756 89.576ZM121.252 93.752L122.436 92.584L122.452 92.6V104.264H121.252V93.752ZM138.82 102.824H147.284V103.752H138.82V102.824ZM141.876 92.808H143.044V94.584H141.876V92.808ZM135.796 94.056H149.316V97.064H148.132V95.016H136.948V97.064H135.796V94.056ZM138.756 96.008H146.964V99.224H138.756V98.296H145.78V96.92H138.756V96.008ZM138.804 100.328H147.988V104.264H146.804V101.272H138.804V100.328ZM138.116 96.008H139.268V104.296H138.116V96.008ZM137.108 90.792H142.276V91.784H137.108V90.792ZM143.348 90.792H149.812V91.784H143.348V90.792ZM137.412 89.496L138.548 89.784C137.956 91.192 137.012 92.584 136.084 93.496C135.86 93.32 135.38 92.984 135.092 92.84C136.052 92.008 136.916 90.744 137.412 89.496ZM143.716 89.496L144.852 89.768C144.276 91.16 143.268 92.456 142.26 93.288C142.02 93.112 141.524 92.824 141.22 92.68C142.276 91.912 143.204 90.728 143.716 89.496ZM138.004 91.544L139.044 91.272C139.412 91.832 139.828 92.616 139.988 93.112L138.9 93.432C138.756 92.936 138.372 92.136 138.004 91.544ZM144.788 91.56L145.844 91.24C146.34 91.8 146.916 92.584 147.156 93.112L146.068 93.464C145.844 92.952 145.3 92.136 144.788 91.56ZM158.1 94.376V96.44H164.052V94.376H158.1ZM158.1 91.352V93.384H164.052V91.352H158.1ZM157.012 90.312H165.204V97.48H157.012V90.312ZM156.804 99.352H165.428V100.456H156.804V99.352ZM155.572 102.664H165.956V103.752H155.572V102.664ZM151.22 90.648H156.212V91.784H151.22V90.648ZM151.396 95.272H155.988V96.408H151.396V95.272ZM151.06 101.4C152.356 101.048 154.276 100.424 156.132 99.8L156.34 100.952C154.596 101.544 152.772 102.152 151.348 102.632L151.06 101.4ZM153.22 91.096H154.372V101.016L153.22 101.24V91.096ZM160.548 90.808H161.604V96.968H161.684V103.16H160.468V96.968H160.548V90.808ZM168.612 90.328H169.828V95.016C169.828 97.72 169.62 101.64 168.052 104.248C167.828 104.072 167.284 103.768 166.98 103.656C168.484 101.128 168.612 97.56 168.612 95.016V90.328ZM169.46 90.328H180.66V94.344H169.46V93.304H179.46V91.384H169.46V90.328ZM171.364 95.72H180.468V96.776H171.364V95.72ZM170.324 98.456H181.572V99.528H170.324V98.456ZM177.46 100.424L178.5 99.976C179.396 101.208 180.532 102.92 181.06 103.896L179.956 104.44C179.444 103.432 178.356 101.688 177.46 100.424ZM171.108 104.04C171.028 103.784 170.82 103.224 170.676 102.92C170.948 102.856 171.252 102.568 171.604 102.184C171.972 101.784 173.14 100.28 173.876 98.824L175.236 99.176C174.26 100.76 173.028 102.344 171.892 103.4V103.432C171.892 103.432 171.108 103.8 171.108 104.04ZM171.108 104.04L171.06 103.16L171.828 102.76L179.524 102.296C179.588 102.616 179.7 103.032 179.78 103.272C172.388 103.784 171.604 103.848 171.108 104.04ZM183.332 95.368H197.684V96.52H183.332V95.368ZM184.324 90.632H196.756V91.784H184.324V90.632ZM190.676 97.176H191.924V102.28C191.924 102.824 192.084 102.936 192.932 102.936C193.3 102.936 195.252 102.936 195.764 102.936C196.564 102.936 196.676 102.584 196.772 100.376C197.06 100.6 197.604 100.808 197.94 100.872C197.764 103.448 197.396 104.12 195.844 104.12C195.476 104.12 193.156 104.12 192.804 104.12C191.14 104.12 190.676 103.72 190.676 102.28V97.176ZM189.668 91.096H190.884C190.772 97.272 190.612 102.136 183.908 104.328C183.764 104.008 183.412 103.56 183.14 103.304C189.588 101.336 189.588 96.872 189.668 91.096ZM203.412 96.296H213.7V97.432H203.412V96.296ZM204.228 92.184H212.948V93.336H204.228V92.184ZM207.892 89.576H209.124V97.112H207.892V89.576ZM203.428 102.328C205.604 102.232 209.092 102.04 212.404 101.848V102.936C209.22 103.176 205.876 103.4 203.604 103.544L203.428 102.328ZM209.876 99.592L210.9 99.064C212.116 100.488 213.444 102.392 213.972 103.688L212.852 104.312C212.356 103.048 211.076 101.048 209.876 99.592ZM206.82 97.048L208.116 97.416C207.412 99.272 206.452 101.56 205.652 103.016L204.596 102.648C205.38 101.16 206.324 98.76 206.82 97.048ZM199.956 90.568L200.628 89.672C201.716 90.072 203.092 90.76 203.78 91.32L203.092 92.328C202.42 91.752 201.076 91 199.956 90.568ZM199.108 94.984L199.732 94.056C200.82 94.408 202.228 95.032 202.948 95.544L202.292 96.552C201.604 96.04 200.228 95.368 199.108 94.984ZM199.668 103.304C200.484 102.072 201.684 99.96 202.564 98.152L203.46 98.904C202.66 100.6 201.604 102.6 200.708 104.088L199.668 103.304ZM215.54 90.84H223.028V91.816H215.54V90.84ZM215.284 95.176H223.124V96.136H215.284V95.176ZM215.892 92.984H222.708V93.928H215.892V92.984ZM223.844 90.232H228.468V91.272H224.996V98.168H223.844V90.232ZM228.228 90.232H228.468L228.66 90.184L229.492 90.696C228.9 91.528 228.18 92.504 227.524 93.304C228.884 94.152 229.348 94.92 229.364 95.64C229.38 96.328 229.092 96.776 228.58 97.064C228.308 97.208 227.924 97.288 227.62 97.336C227.06 97.384 226.372 97.384 225.748 97.336C225.732 97.032 225.572 96.6 225.364 96.312C226.052 96.392 226.644 96.392 227.108 96.36C227.332 96.344 227.588 96.296 227.764 96.232C228.052 96.12 228.18 95.896 228.18 95.544C228.164 94.968 227.652 94.264 226.228 93.464C226.98 92.472 227.764 91.272 228.228 90.456V90.232ZM218.868 89.56H220.084V94.312C220.084 95.592 219.332 97.752 216.436 98.888C216.244 98.648 215.876 98.248 215.604 98.024C218.212 97.144 218.868 95.336 218.868 94.296V89.56ZM221.828 97.56H223.076V104.264H221.828V97.56ZM216.9 98.824H227.636V99.912H218.1V103.416H216.9V98.824ZM227.124 98.824H228.34V102.104C228.34 102.712 228.196 103.032 227.684 103.208C227.172 103.384 226.324 103.384 224.98 103.384C224.9 103.064 224.724 102.648 224.564 102.344C225.572 102.376 226.516 102.376 226.788 102.36C227.06 102.344 227.124 102.28 227.124 102.088V98.824ZM237.956 93.192H244.724V94.328H237.956V93.192ZM244.212 93.192H245.364C245.364 93.192 245.348 93.64 245.348 93.8C245.188 100.568 245.044 102.856 244.516 103.544C244.196 103.976 243.86 104.104 243.348 104.152C242.852 104.2 241.988 104.184 241.14 104.152C241.108 103.8 240.98 103.304 240.772 103C241.7 103.064 242.532 103.064 242.868 103.064C243.14 103.08 243.316 103.032 243.46 102.824C243.892 102.328 244.068 99.992 244.212 93.448V93.192ZM240.612 89.576H241.78C241.764 95.704 241.748 101.4 237.3 104.312C237.124 104.024 236.724 103.624 236.42 103.432C240.692 100.776 240.596 95.4 240.612 89.576ZM232.196 90.344H237.412V100.76H236.292V91.448H233.268V101.784H232.196V90.344ZM231.044 101.496C232.82 101.144 235.636 100.552 238.292 99.96L238.404 101.048C235.86 101.656 233.172 102.28 231.252 102.712L231.044 101.496ZM232.756 93.784H236.82V94.872H232.756V93.784ZM232.756 97.208H236.82V98.28H232.756V97.208ZM253.988 89.576L255.092 89.848C254.468 91.56 253.428 93.192 252.308 94.28C252.132 94.072 251.684 93.688 251.412 93.512C252.5 92.568 253.444 91.112 253.988 89.576ZM253.924 93.608L255.044 93.896C254.548 95.16 253.716 96.408 252.916 97.24C252.692 97.064 252.212 96.76 251.94 96.616C252.772 95.848 253.492 94.728 253.924 93.608ZM253.828 91.144H260.772V92.2H253.412L253.828 91.144ZM256.18 91.864H257.332V97.432C257.332 98.04 257.22 98.36 256.772 98.536C256.356 98.712 255.7 98.728 254.692 98.728C254.628 98.408 254.468 97.96 254.292 97.656C255.044 97.688 255.716 97.688 255.924 97.672C256.132 97.656 256.18 97.608 256.18 97.432V91.864ZM258.212 93.96L259.204 93.528C259.988 94.568 260.772 95.976 261.108 96.904L260.068 97.4C259.748 96.456 258.964 95 258.212 93.96ZM260.436 91.144H260.628L260.82 91.112L261.652 91.32C261.252 92.328 260.756 93.496 260.372 94.2L259.332 93.992C259.7 93.32 260.132 92.216 260.436 91.32V91.144ZM251.284 99.512H252.468V102.408C252.468 102.84 252.628 102.92 253.476 102.92C253.876 102.92 255.876 102.92 256.404 102.92C257.108 102.92 257.22 102.712 257.3 101.128C257.556 101.336 258.036 101.512 258.372 101.592C258.228 103.528 257.86 104.008 256.484 104.008C256.116 104.008 253.732 104.008 253.38 104.008C251.716 104.008 251.284 103.672 251.284 102.408V99.512ZM252.66 99.032L253.46 98.312C254.484 98.808 255.716 99.624 256.292 100.264L255.428 101.048C254.884 100.408 253.7 99.544 252.66 99.032ZM257.924 100.008L258.916 99.448C260.1 100.456 261.348 101.896 261.844 102.984L260.772 103.592C260.308 102.536 259.124 101.032 257.924 100.008ZM249.332 99.704L250.404 100.056C250.004 101.496 249.38 102.92 248.116 103.768L247.124 103.08C248.308 102.328 248.996 101.048 249.332 99.704ZM250.868 89.56L251.94 89.928C250.9 91.912 249.284 93.88 247.732 95.144C247.588 94.904 247.188 94.424 246.948 94.216C248.452 93.08 249.956 91.32 250.868 89.56ZM249.396 92.568L250.532 91.432L250.548 91.448V98.712H249.396V92.568ZM264.708 93.624H269.332V94.568H264.708V93.624ZM264.708 96.344H269.332V97.256H264.708V96.344ZM264.708 99.128H269.332V100.072H264.708V99.128ZM271.524 97.144H277.62V98.184H271.524V97.144ZM265.54 91H268.196V91.944H265.54V91ZM270.5 90.376H276.756V91.4H270.5V90.376ZM270.308 100.136H277.892V101.208H270.308V100.136ZM273.684 95.496H274.836V104.216H273.684V95.496ZM266.692 94.088H267.556V99.528H266.692V94.088ZM276.372 90.376H277.46C277.46 90.376 277.46 90.68 277.444 90.824C277.332 93.496 277.172 94.536 276.836 94.904C276.612 95.176 276.372 95.272 275.956 95.304C275.636 95.336 274.964 95.336 274.292 95.304C274.276 94.984 274.164 94.568 274.02 94.296C274.66 94.36 275.236 94.36 275.46 94.36C275.684 94.376 275.828 94.344 275.924 94.216C276.132 93.976 276.26 93.048 276.372 90.536V90.376ZM271.588 95.64L272.628 95.848C272.308 97.336 271.748 98.792 271.076 99.752C270.868 99.608 270.388 99.368 270.132 99.24C270.82 98.344 271.316 97 271.588 95.64ZM265.508 89.56L266.612 89.8C266.02 91.96 265.044 94.024 263.908 95.384C263.716 95.192 263.252 94.824 262.996 94.664C264.132 93.432 265.028 91.528 265.508 89.56ZM264.244 93.624H265.236V97.88C265.236 99.832 265.044 102.536 263.908 104.312C263.732 104.152 263.284 103.88 263.044 103.768C264.132 102.072 264.244 99.688 264.244 97.88V93.624ZM269.012 93.624H270.02V102.968C270.02 103.56 269.892 103.896 269.476 104.072C269.076 104.248 268.42 104.264 267.316 104.264C267.268 103.992 267.092 103.528 266.948 103.24C267.764 103.272 268.484 103.272 268.708 103.256C268.916 103.24 269.012 103.176 269.012 102.968V93.624ZM272.772 90.712H273.876C273.604 92.92 272.916 94.744 270.676 95.752C270.532 95.496 270.244 95.112 270.004 94.936C271.972 94.104 272.548 92.52 272.772 90.712ZM267.908 91H268.148L268.308 90.936L269.012 91.4C268.676 92.392 268.068 93.576 267.588 94.328C267.396 94.168 267.044 93.96 266.82 93.864C267.22 93.144 267.668 91.992 267.908 91.192V91ZM279.3 90.776L280.244 90.2C281.156 91.16 282.292 92.504 282.788 93.368L281.78 94.056C281.3 93.176 280.228 91.784 279.3 90.776ZM279.092 102.824C279.892 101.544 281.044 99.4 281.876 97.528L282.772 98.264C282.02 99.992 281.012 102.024 280.132 103.56L279.092 102.824ZM284.228 92.088H292.276V97.48H291.124V93.24H284.228V92.088ZM283.396 96.936H293.876V98.104H283.396V96.936ZM289.092 97.304C289.796 100.152 291.364 102.328 293.972 103.224C293.7 103.464 293.348 103.944 293.172 104.264C290.42 103.144 288.82 100.792 288.02 97.528L289.092 97.304ZM287.428 89.592H288.676V94.92C288.676 98.072 288.212 101.896 283.348 104.328C283.172 104.056 282.772 103.592 282.484 103.368C287.252 101.208 287.428 97.72 287.428 94.92V89.592ZM108.065 111.136H112.929V121.6H108.065V120.512H111.809V112.208H108.065V111.136ZM107.345 111.136H108.465V122.88H107.345V111.136ZM107.985 115.584H112.401V116.656H107.985V115.584ZM109.793 108.528L111.089 108.768C110.769 109.76 110.369 110.864 110.049 111.584L109.089 111.344C109.361 110.576 109.665 109.36 109.793 108.528ZM115.201 111.088H120.113V112.208H115.201V111.088ZM119.697 111.088H120.817C120.817 111.088 120.817 111.536 120.817 111.712C120.561 119.056 120.337 121.536 119.697 122.32C119.345 122.784 118.977 122.928 118.417 122.976C117.873 123.04 116.929 123.008 116.033 122.96C116.001 122.608 115.857 122.112 115.633 121.792C116.673 121.872 117.633 121.888 118.001 121.888C118.321 121.888 118.513 121.84 118.689 121.632C119.217 121.056 119.473 118.4 119.697 111.344V111.088ZM115.537 108.496L116.689 108.768C116.097 111.152 115.153 113.504 114.049 115.024C113.841 114.832 113.345 114.496 113.057 114.336C114.145 112.928 115.025 110.72 115.537 108.496ZM114.801 115.248L115.729 114.704C116.641 115.84 117.745 117.392 118.257 118.336L117.233 118.976C116.753 118 115.681 116.416 114.801 115.248ZM123.441 112.176H124.625V123.296H123.441V112.176ZM123.617 109.344L124.497 108.784C125.297 109.568 126.385 110.704 126.913 111.376L126.001 112.032C125.473 111.344 124.433 110.192 123.617 109.344ZM127.649 109.472H136.097V110.592H127.649V109.472ZM135.281 109.472H136.481V121.616C136.481 122.384 136.289 122.752 135.793 122.96C135.281 123.152 134.417 123.184 133.105 123.168C133.057 122.832 132.865 122.288 132.705 121.952C133.665 122 134.641 121.984 134.897 121.984C135.185 121.968 135.281 121.872 135.281 121.6V109.472ZM127.713 113.424H132.737V119.312H127.713V118.224H131.569V114.512H127.713V113.424ZM127.105 113.424H128.209V120.352H127.105V113.424ZM140.769 112.16V113.376H144.049V112.16H140.769ZM140.769 110.112V111.312H144.049V110.112H140.769ZM139.697 109.248H145.169V114.272H139.697V109.248ZM138.737 115.456H145.985V116.384H138.737V115.456ZM145.953 109.296H153.249V110.288H145.953V109.296ZM141.985 115.76H143.025V121.856L141.985 121.232V115.76ZM142.465 118.112H145.681V119.024H142.465V118.112ZM149.009 109.632L150.225 109.872C149.905 110.704 149.569 111.6 149.281 112.208L148.321 111.968C148.561 111.312 148.865 110.32 149.009 109.632ZM140.641 118.832C141.761 121.584 144.241 121.936 147.793 121.936C148.513 121.936 152.449 121.936 153.377 121.904C153.201 122.16 152.993 122.624 152.945 122.944H147.777C143.761 122.944 141.201 122.416 139.905 119.104L140.641 118.832ZM146.593 111.824H152.465V118.512H151.409V112.736H147.617V118.56H146.593V111.824ZM139.937 117.184L140.961 117.248C140.849 119.824 140.449 121.856 139.361 123.248C139.185 123.104 138.737 122.8 138.497 122.656C139.569 121.408 139.857 119.488 139.937 117.184ZM149.073 113.52H150.097C149.985 118.032 149.521 120.368 145.873 121.568C145.761 121.344 145.505 120.96 145.281 120.784C148.641 119.712 148.977 117.68 149.073 113.52ZM149.633 119.04L150.337 118.4C151.329 119.072 152.593 120.08 153.217 120.752L152.497 121.488C151.873 120.816 150.641 119.76 149.633 119.04ZM162.785 108.608H164.065C164.033 115.92 165.601 122.048 167.553 122.048C168.017 122.048 168.193 121.2 168.289 119.072C168.561 119.344 169.009 119.632 169.345 119.744C169.137 122.512 168.673 123.296 167.457 123.296C164.273 123.296 162.865 116.192 162.785 108.608ZM165.025 109.36L165.729 108.624C166.721 109.04 167.905 109.744 168.497 110.272L167.761 111.12C167.185 110.576 166.017 109.824 165.025 109.36ZM167.121 113.456L168.305 113.744C166.913 118.064 164.497 121.28 161.137 123.296C160.961 123.056 160.481 122.576 160.225 122.352C163.553 120.56 165.857 117.488 167.121 113.456ZM155.041 111.12H168.945V112.304H155.041V111.12ZM154.961 120.96C156.705 120.624 159.425 120.08 162.033 119.52L162.129 120.672C159.681 121.216 157.057 121.792 155.185 122.192L154.961 120.96ZM157.073 114.768V117.568H160.337V114.768H157.073ZM155.969 113.728H161.521V118.592H155.969V113.728ZM171.441 112.176H172.625V123.296H171.441V112.176ZM171.617 109.344L172.497 108.784C173.297 109.568 174.385 110.704 174.913 111.376L174.001 112.032C173.473 111.344 172.433 110.192 171.617 109.344ZM175.649 109.472H184.097V110.592H175.649V109.472ZM183.281 109.472H184.481V121.616C184.481 122.384 184.289 122.752 183.793 122.96C183.281 123.152 182.417 123.184 181.105 123.168C181.057 122.832 180.865 122.288 180.705 121.952C181.665 122 182.641 121.984 182.897 121.984C183.185 121.968 183.281 121.872 183.281 121.6V109.472ZM175.713 113.424H180.737V119.312H175.713V118.224H179.569V114.512H175.713V113.424ZM175.105 113.424H176.209V120.352H175.105V113.424ZM188.769 112.16V113.376H192.049V112.16H188.769ZM188.769 110.112V111.312H192.049V110.112H188.769ZM187.697 109.248H193.169V114.272H187.697V109.248ZM186.737 115.456H193.985V116.384H186.737V115.456ZM193.953 109.296H201.249V110.288H193.953V109.296ZM189.985 115.76H191.025V121.856L189.985 121.232V115.76ZM190.465 118.112H193.681V119.024H190.465V118.112ZM197.009 109.632L198.225 109.872C197.905 110.704 197.569 111.6 197.281 112.208L196.321 111.968C196.561 111.312 196.865 110.32 197.009 109.632ZM188.641 118.832C189.761 121.584 192.241 121.936 195.793 121.936C196.513 121.936 200.449 121.936 201.377 121.904C201.201 122.16 200.993 122.624 200.945 122.944H195.777C191.761 122.944 189.201 122.416 187.905 119.104L188.641 118.832ZM194.593 111.824H200.465V118.512H199.409V112.736H195.617V118.56H194.593V111.824ZM187.937 117.184L188.961 117.248C188.849 119.824 188.449 121.856 187.361 123.248C187.185 123.104 186.737 122.8 186.497 122.656C187.569 121.408 187.857 119.488 187.937 117.184ZM197.073 113.52H198.097C197.985 118.032 197.521 120.368 193.873 121.568C193.761 121.344 193.505 120.96 193.281 120.784C196.641 119.712 196.977 117.68 197.073 113.52ZM197.633 119.04L198.337 118.4C199.329 119.072 200.593 120.08 201.217 120.752L200.497 121.488C199.873 120.816 198.641 119.76 197.633 119.04ZM205.073 118.112C206.417 118.112 207.505 119.2 207.505 120.544C207.505 121.888 206.417 122.976 205.073 122.976C203.729 122.976 202.625 121.888 202.625 120.544C202.625 119.2 203.729 118.112 205.073 118.112ZM205.073 122.16C205.969 122.16 206.689 121.44 206.689 120.544C206.689 119.648 205.969 118.928 205.073 118.928C204.177 118.928 203.441 119.648 203.441 120.544C203.441 121.44 204.177 122.16 205.073 122.16ZM220.23 122.108C219.92 122.108 219.652 121.998 219.429 121.778C219.205 121.555 219.094 121.286 219.094 120.972C219.094 120.661 219.205 120.396 219.429 120.176C219.652 119.953 219.92 119.841 220.23 119.841C220.541 119.841 220.808 119.953 221.031 120.176C221.255 120.396 221.366 120.661 221.366 120.972C221.366 121.18 221.313 121.371 221.207 121.545C221.105 121.716 220.969 121.852 220.798 121.955C220.628 122.057 220.438 122.108 220.23 122.108ZM224.761 122.108C224.451 122.108 224.184 121.998 223.96 121.778C223.737 121.555 223.625 121.286 223.625 120.972C223.625 120.661 223.737 120.396 223.96 120.176C224.184 119.953 224.451 119.841 224.761 119.841C225.072 119.841 225.339 119.953 225.562 120.176C225.786 120.396 225.898 120.661 225.898 120.972C225.898 121.18 225.845 121.371 225.739 121.545C225.636 121.716 225.5 121.852 225.33 121.955C225.159 122.057 224.97 122.108 224.761 122.108Z" fill="#2D3342"/>
<path d="M119.652 192.108C119.341 192.108 119.074 191.998 118.851 191.778C118.627 191.555 118.516 191.286 118.516 190.972C118.516 190.661 118.627 190.396 118.851 190.176C119.074 189.953 119.341 189.841 119.652 189.841C119.963 189.841 120.23 189.953 120.453 190.176C120.677 190.396 120.788 190.661 120.788 190.972C120.788 191.18 120.735 191.371 120.629 191.545C120.527 191.716 120.391 191.852 120.22 191.955C120.05 192.057 119.86 192.108 119.652 192.108ZM124.183 192.108C123.873 192.108 123.606 191.998 123.382 191.778C123.159 191.555 123.047 191.286 123.047 190.972C123.047 190.661 123.159 190.396 123.382 190.176C123.606 189.953 123.873 189.841 124.183 189.841C124.494 189.841 124.761 189.953 124.984 190.176C125.208 190.396 125.32 190.661 125.32 190.972C125.32 191.18 125.267 191.371 125.161 191.545C125.058 191.716 124.922 191.852 124.751 191.955C124.581 192.057 124.392 192.108 124.183 192.108ZM134.453 181.968H141.525V183.104H134.453V181.968ZM138.245 182.384C138.773 185.168 139.925 187.36 141.989 188.384C141.717 188.624 141.349 189.072 141.173 189.408C138.997 188.144 137.813 185.744 137.221 182.576L138.245 182.384ZM129.381 182.24L129.925 181.536C130.997 182.016 132.309 182.784 132.981 183.312L132.421 184.112C131.765 183.552 130.437 182.752 129.381 182.24ZM138.773 179.312L139.637 178.816C140.325 179.472 141.109 180.4 141.461 181.024L140.549 181.6C140.197 180.976 139.445 180 138.773 179.312ZM127.957 184.032L128.629 183.376C129.685 183.984 130.997 184.864 131.653 185.504L130.949 186.224C130.309 185.584 129.029 184.656 127.957 184.032ZM130.533 178.448L131.685 178.752C130.837 180.944 129.413 183.376 127.605 184.912C127.397 184.672 127.029 184.32 126.773 184.128C128.501 182.72 129.877 180.416 130.533 178.448ZM133.525 180H133.765L133.989 179.952L134.741 180.272C133.733 185.072 131.253 188.032 128.181 189.552C128.037 189.264 127.605 188.8 127.349 188.608C130.341 187.248 132.693 184.528 133.525 180.24V180ZM131.973 190.192L133.077 190.08C133.285 191.024 133.461 192.24 133.477 192.976L132.293 193.152C132.293 192.4 132.165 191.152 131.973 190.192ZM135.237 190.192L136.357 190C136.789 190.912 137.221 192.16 137.381 192.912L136.197 193.168C136.053 192.4 135.653 191.152 135.237 190.192ZM138.517 190.096L139.637 189.712C140.453 190.672 141.381 192.016 141.813 192.88L140.613 193.312C140.229 192.464 139.317 191.088 138.517 190.096ZM129.141 189.776L130.277 190.064C129.893 191.248 129.205 192.528 128.357 193.296L127.269 192.832C128.053 192.144 128.773 190.944 129.141 189.776ZM130.501 180H133.957V180.992H129.893L130.501 180ZM137.061 178.752H138.213V181.872C138.213 184.432 137.669 187.28 133.925 189.296C133.733 189.024 133.365 188.672 133.077 188.448C136.629 186.576 137.061 184.016 137.061 181.872V178.752ZM145.461 183.008H157.845V184.16H145.461V183.008ZM148.021 191.344H155.653V192.48H148.021V191.344ZM144.837 179.792L146.373 180.096C146.357 180.224 146.261 180.288 146.037 180.32V184.304C146.037 186.896 145.797 190.656 143.893 193.312C143.717 193.04 143.269 192.64 142.949 192.496C144.661 190.064 144.837 186.752 144.837 184.288V179.792ZM155.509 178.704L156.517 179.648C153.605 180.4 149.205 180.896 145.445 181.152C145.413 180.848 145.237 180.384 145.125 180.128C148.805 179.856 153.109 179.328 155.509 178.704ZM147.429 186.448H156.453V193.28H155.237V187.568H148.581V193.296H147.429V186.448ZM159.157 185.104H173.797V186.416H159.157V185.104ZM182.389 179.856C181.061 181.872 178.357 184.416 175.509 186.08C175.333 185.808 174.997 185.376 174.725 185.12C177.637 183.472 180.421 180.768 181.685 178.608H182.933C184.677 181.088 187.605 183.568 190.229 184.912C189.925 185.216 189.637 185.632 189.413 185.984C186.805 184.48 183.861 181.952 182.389 179.856ZM181.749 183.856H183.013V193.296H181.749V183.856ZM68.976 206.344H83.104V207.48H68.976V206.344ZM78.352 205.112H79.584V210.856C79.584 211.56 79.392 211.896 78.816 212.056C78.24 212.232 77.28 212.232 75.728 212.232C75.68 211.912 75.472 211.464 75.312 211.144C76.496 211.192 77.648 211.176 77.952 211.16C78.256 211.16 78.352 211.08 78.352 210.84V205.112ZM71.376 208.088L72.208 207.384C73.216 208.2 74.352 209.368 74.88 210.184L73.984 210.984C73.504 210.152 72.368 208.936 71.376 208.088ZM70.16 198.696H71.408V202.872C71.408 203.544 71.728 203.704 73.504 203.704C74.336 203.704 78.768 203.704 79.888 203.704C81.2 203.704 81.424 203.48 81.568 202.296C81.872 202.472 82.368 202.616 82.72 202.68C82.512 204.312 82 204.712 79.984 204.712C79.328 204.712 74.192 204.712 73.584 204.712C70.944 204.712 70.16 204.376 70.16 202.888V198.696ZM70.576 200.936H80.032V199.256H70.16V198.2H81.2V202.008H70.576V200.936ZM90.128 198.408H99.168V199.512H90.128V198.408ZM93.952 198.856H95.088V212.248H93.952V198.856ZM90.688 201.48H97.872V202.568H91.808V209.976H90.688V201.48ZM97.424 201.48H98.544V208.616C98.544 209.176 98.448 209.48 98.064 209.672C97.68 209.864 97.12 209.864 96.24 209.864C96.192 209.56 96.032 209.112 95.888 208.808C96.496 208.824 97.024 208.824 97.2 208.824C97.376 208.824 97.424 208.76 97.424 208.584V201.48ZM88.064 197.592H89.184V203.992C89.184 207.16 88.88 210.088 86.48 212.264C86.288 212.024 85.872 211.64 85.584 211.464C87.808 209.496 88.064 206.856 88.064 203.992V197.592ZM85.504 199.4H86.592V207.176H85.504V199.4ZM108.816 197.608H110.096C110.064 204.92 111.632 211.048 113.584 211.048C114.048 211.048 114.224 210.2 114.32 208.072C114.592 208.344 115.04 208.632 115.376 208.744C115.168 211.512 114.704 212.296 113.488 212.296C110.304 212.296 108.896 205.192 108.816 197.608ZM111.056 198.36L111.76 197.624C112.752 198.04 113.936 198.744 114.528 199.272L113.792 200.12C113.216 199.576 112.048 198.824 111.056 198.36ZM113.152 202.456L114.336 202.744C112.944 207.064 110.528 210.28 107.168 212.296C106.992 212.056 106.512 211.576 106.256 211.352C109.584 209.56 111.888 206.488 113.152 202.456ZM101.072 200.12H114.976V201.304H101.072V200.12ZM100.992 209.96C102.736 209.624 105.456 209.08 108.064 208.52L108.16 209.672C105.712 210.216 103.088 210.792 101.216 211.192L100.992 209.96ZM103.104 203.768V206.568H106.368V203.768H103.104ZM102 202.728H107.552V207.592H102V202.728ZM116.976 206.344H131.104V207.48H116.976V206.344ZM126.352 205.112H127.584V210.856C127.584 211.56 127.392 211.896 126.816 212.056C126.24 212.232 125.28 212.232 123.728 212.232C123.68 211.912 123.472 211.464 123.312 211.144C124.496 211.192 125.648 211.176 125.952 211.16C126.256 211.16 126.352 211.08 126.352 210.84V205.112ZM119.376 208.088L120.208 207.384C121.216 208.2 122.352 209.368 122.88 210.184L121.984 210.984C121.504 210.152 120.368 208.936 119.376 208.088ZM118.16 198.696H119.408V202.872C119.408 203.544 119.728 203.704 121.504 203.704C122.336 203.704 126.768 203.704 127.888 203.704C129.2 203.704 129.424 203.48 129.568 202.296C129.872 202.472 130.368 202.616 130.72 202.68C130.512 204.312 130 204.712 127.984 204.712C127.328 204.712 122.192 204.712 121.584 204.712C118.944 204.712 118.16 204.376 118.16 202.888V198.696ZM118.576 200.936H128.032V199.256H118.16V198.2H129.2V202.008H118.576V200.936ZM138.128 198.408H147.168V199.512H138.128V198.408ZM141.952 198.856H143.088V212.248H141.952V198.856ZM138.688 201.48H145.872V202.568H139.808V209.976H138.688V201.48ZM145.424 201.48H146.544V208.616C146.544 209.176 146.448 209.48 146.064 209.672C145.68 209.864 145.12 209.864 144.24 209.864C144.192 209.56 144.032 209.112 143.888 208.808C144.496 208.824 145.024 208.824 145.2 208.824C145.376 208.824 145.424 208.76 145.424 208.584V201.48ZM136.064 197.592H137.184V203.992C137.184 207.16 136.88 210.088 134.48 212.264C134.288 212.024 133.872 211.64 133.584 211.464C135.808 209.496 136.064 206.856 136.064 203.992V197.592ZM133.504 199.4H134.592V207.176H133.504V199.4ZM148.704 204.104H163.344V205.416H148.704V204.104ZM167.376 202.456H176.704V203.608H167.376V202.456ZM171.984 206.28H177.376V207.416H171.984V206.28ZM171.344 203.048H172.592V211.144L171.344 210.984V203.048ZM167.552 204.984L168.8 205.112C168.352 208.344 167.344 210.792 165.536 212.36C165.344 212.152 164.832 211.736 164.544 211.56C166.336 210.168 167.2 207.88 167.552 204.984ZM168.304 207.048C169.44 210.312 171.936 210.872 175.184 210.872C175.776 210.872 178.544 210.872 179.328 210.856C179.136 211.144 178.928 211.72 178.88 212.072H175.12C171.312 212.072 168.704 211.32 167.328 207.416L168.304 207.048ZM171.328 197.576H172.592V200.168H171.328V197.576ZM165.312 199.4H178.688V202.888H177.456V200.552H166.496V202.888H165.312V199.4ZM183.312 197.56L184.56 197.848C183.984 199.176 183.232 200.728 182.592 201.736L181.568 201.432C182.176 200.408 182.928 198.728 183.312 197.56ZM180.624 200.952C182.304 200.904 184.848 200.792 187.36 200.68L187.344 201.752C184.96 201.896 182.48 202.024 180.736 202.12L180.624 200.952ZM181.6 203.272H186.672V204.296H182.72V212.264H181.6V203.272ZM186.128 203.272H187.312V210.904C187.312 211.512 187.184 211.848 186.752 212.04C186.304 212.232 185.6 212.248 184.592 212.248C184.528 211.928 184.352 211.448 184.192 211.144C184.944 211.176 185.632 211.16 185.856 211.144C186.064 211.144 186.128 211.096 186.128 210.888V203.272ZM182.128 205.656H186.752V206.6H182.128V205.656ZM182.128 208.056H186.752V209.016H182.128V208.056ZM188.816 197.592H190V202.888C190 203.4 190.128 203.512 190.864 203.512C191.2 203.512 192.944 203.512 193.408 203.512C194.032 203.512 194.144 203.24 194.208 201.656C194.464 201.864 194.944 202.04 195.296 202.12C195.152 204.072 194.8 204.6 193.504 204.6C193.168 204.6 191.072 204.6 190.752 204.6C189.216 204.6 188.816 204.232 188.816 202.904V197.592ZM193.712 198.776L194.512 199.656C193.152 200.296 191.232 200.92 189.584 201.384C189.52 201.128 189.36 200.776 189.216 200.536C190.8 200.04 192.624 199.336 193.712 198.776ZM188.816 205.032H190V210.44C190 210.984 190.144 211.08 190.912 211.08C191.248 211.08 193.056 211.08 193.536 211.08C194.224 211.08 194.32 210.776 194.4 208.968C194.672 209.16 195.152 209.352 195.488 209.416C195.328 211.576 194.976 212.152 193.632 212.152C193.28 212.152 191.12 212.152 190.784 212.152C189.232 212.152 188.816 211.784 188.816 210.456V205.032ZM193.904 205.912L194.704 206.808C193.36 207.576 191.312 208.232 189.584 208.696C189.52 208.456 189.344 208.072 189.216 207.832C190.88 207.352 192.816 206.616 193.904 205.912ZM185.312 199.08L186.304 198.68C187.152 199.8 188.048 201.272 188.416 202.264L187.36 202.728C187.024 201.752 186.16 200.216 185.312 199.08ZM197.04 198.84H204.528V199.816H197.04V198.84ZM196.784 203.176H204.624V204.136H196.784V203.176ZM197.392 200.984H204.208V201.928H197.392V200.984ZM205.344 198.232H209.968V199.272H206.496V206.168H205.344V198.232ZM209.728 198.232H209.968L210.16 198.184L210.992 198.696C210.4 199.528 209.68 200.504 209.024 201.304C210.384 202.152 210.848 202.92 210.864 203.64C210.88 204.328 210.592 204.776 210.08 205.064C209.808 205.208 209.424 205.288 209.12 205.336C208.56 205.384 207.872 205.384 207.248 205.336C207.232 205.032 207.072 204.6 206.864 204.312C207.552 204.392 208.144 204.392 208.608 204.36C208.832 204.344 209.088 204.296 209.264 204.232C209.552 204.12 209.68 203.896 209.68 203.544C209.664 202.968 209.152 202.264 207.728 201.464C208.48 200.472 209.264 199.272 209.728 198.456V198.232ZM200.368 197.56H201.584V202.312C201.584 203.592 200.832 205.752 197.936 206.888C197.744 206.648 197.376 206.248 197.104 206.024C199.712 205.144 200.368 203.336 200.368 202.296V197.56ZM203.328 205.56H204.576V212.264H203.328V205.56ZM198.4 206.824H209.136V207.912H199.6V211.416H198.4V206.824ZM208.624 206.824H209.84V210.104C209.84 210.712 209.696 211.032 209.184 211.208C208.672 211.384 207.824 211.384 206.48 211.384C206.4 211.064 206.224 210.648 206.064 210.344C207.072 210.376 208.016 210.376 208.288 210.36C208.56 210.344 208.624 210.28 208.624 210.088V206.824ZM219.456 201.192H226.224V202.328H219.456V201.192ZM225.712 201.192H226.864C226.864 201.192 226.848 201.64 226.848 201.8C226.688 208.568 226.544 210.856 226.016 211.544C225.696 211.976 225.36 212.104 224.848 212.152C224.352 212.2 223.488 212.184 222.64 212.152C222.608 211.8 222.48 211.304 222.272 211C223.2 211.064 224.032 211.064 224.368 211.064C224.64 211.08 224.816 211.032 224.96 210.824C225.392 210.328 225.568 207.992 225.712 201.448V201.192ZM222.112 197.576H223.28C223.264 203.704 223.248 209.4 218.8 212.312C218.624 212.024 218.224 211.624 217.92 211.432C222.192 208.776 222.096 203.4 222.112 197.576ZM213.696 198.344H218.912V208.76H217.792V199.448H214.768V209.784H213.696V198.344ZM212.544 209.496C214.32 209.144 217.136 208.552 219.792 207.96L219.904 209.048C217.36 209.656 214.672 210.28 212.752 210.712L212.544 209.496ZM214.256 201.784H218.32V202.872H214.256V201.784ZM214.256 205.208H218.32V206.28H214.256V205.208ZM235.44 197.64L236.624 197.896C236 200.456 234.992 202.92 233.76 204.552C233.552 204.344 233.072 203.96 232.8 203.784C233.984 202.296 234.912 199.992 235.44 197.64ZM235.168 204.424L236.336 204.664C235.84 206.76 234.976 208.792 234 210.136C233.76 209.944 233.248 209.624 232.96 209.48C233.952 208.248 234.72 206.344 235.168 204.424ZM235.296 200.648H242.496V201.768H234.832L235.296 200.648ZM237.776 201.112H238.976V210.824C238.976 211.512 238.832 211.864 238.384 212.056C237.952 212.264 237.264 212.296 236.272 212.296C236.192 211.96 236.016 211.432 235.84 211.08C236.592 211.112 237.28 211.096 237.504 211.096C237.712 211.096 237.776 211.032 237.776 210.824V201.112ZM240.128 204.664L241.2 204.312C242.128 205.992 242.928 208.2 243.2 209.688L242.064 210.072C241.808 208.6 241.008 206.344 240.128 204.664ZM242.144 200.648H242.304L242.512 200.616L243.344 200.792C243.12 201.976 242.848 203.352 242.64 204.216L241.6 204.024C241.776 203.224 241.984 201.88 242.144 200.824V200.648ZM232.224 197.624L233.36 197.976C232.304 200.696 230.656 203.4 228.928 205.192C228.8 204.92 228.464 204.28 228.24 204.008C229.824 202.456 231.328 200.056 232.224 197.624ZM230.56 201.752L231.68 200.616L231.712 200.632V212.264H230.56V201.752Z" fill="#2D3342"/>
<defs>
<linearGradient id="paint0_linear_1314_8400" x1="143.515" y1="16" x2="176.388" y2="55.9534" gradientUnits="userSpaceOnUse">
<stop stop-color="#5955B3"/>
<stop offset="1" stop-color="#6563CE"/>
</linearGradient>
</defs>
</svg>
