<svg width="325" height="290" viewBox="0 0 325 290" fill="none" xmlns="http://www.w3.org/2000/svg">
<rect width="325" height="290" rx="5" fill="white"/>
<path opacity="0.2" fill-rule="evenodd" clip-rule="evenodd" d="M324.664 269.81C324.612 280.783 315.724 289.668 304.749 289.713H171.145C177.237 275.753 202.684 247.832 255.737 247.832C308.79 247.832 323.794 226.116 324.664 215.258V269.81Z" fill="#89AFFF"/>
<path opacity="0.2" fill-rule="evenodd" clip-rule="evenodd" d="M149.339 0C147.453 10.5057 135.894 40.0486 88.2786 53.4492C42.0808 66.4509 11.6469 61.9796 0.329595 57.7773L0.329592 20C0.329591 8.95432 9.28386 1.09491e-05 20.3296 1.00855e-05L149.339 0Z" fill="#89AFFF"/>
<path d="M142.344 32.56H163.728V35.224H142.344V32.56ZM155.808 31.192H158.784V39.232C158.784 40.696 158.4 41.392 157.272 41.752C156.12 42.136 154.488 42.136 152.256 42.136C152.136 41.368 151.68 40.288 151.296 39.568C152.784 39.64 154.704 39.616 155.16 39.616C155.64 39.616 155.808 39.496 155.808 39.136V31.192ZM145.536 36.304L147.48 34.528C149.016 35.56 150.888 37.12 151.752 38.272L149.664 40.264C148.896 39.088 147.072 37.408 145.536 36.304ZM143.904 21.712H146.928V27.16C146.928 28.168 147.408 28.36 150 28.36C151.2 28.36 156.648 28.36 158.208 28.36C160.08 28.36 160.464 28.144 160.704 26.872C161.4 27.256 162.576 27.568 163.416 27.688C163.008 30.136 161.904 30.664 158.496 30.664C157.344 30.664 151.152 30.664 150.048 30.664C145.368 30.664 143.904 29.992 143.904 27.232V21.712ZM144.84 24.28H158.016V22.72H143.904V20.248H160.848V26.776H144.84V24.28ZM174.168 20.728H187.92V23.344H174.168V20.728ZM179.592 21.928H182.28V42.088H179.592V21.928ZM174.792 25.504H185.76V28.072H177.408V38.656H174.792V25.504ZM184.656 25.504H187.32V35.896C187.32 37.048 187.152 37.72 186.432 38.152C185.736 38.584 184.824 38.608 183.576 38.608C183.504 37.888 183.144 36.808 182.832 36.136C183.48 36.16 184.152 36.16 184.368 36.16C184.584 36.16 184.656 36.088 184.656 35.824V25.504ZM170.712 19.696H173.352V29.224C173.352 34.048 172.896 38.776 169.152 42.112C168.672 41.536 167.64 40.6 166.992 40.192C170.328 37.336 170.712 33.376 170.712 29.224V19.696ZM166.728 22.408H169.296V34.144H166.728V22.408Z" fill="url(#paint0_linear_1314_8411)"/>
<path d="M36.476 98.344H50.604V99.48H36.476V98.344ZM45.852 97.112H47.084V102.856C47.084 103.56 46.892 103.896 46.316 104.056C45.74 104.232 44.78 104.232 43.228 104.232C43.18 103.912 42.972 103.464 42.812 103.144C43.996 103.192 45.148 103.176 45.452 103.16C45.756 103.16 45.852 103.08 45.852 102.84V97.112ZM38.876 100.088L39.708 99.384C40.716 100.2 41.852 101.368 42.38 102.184L41.484 102.984C41.004 102.152 39.868 100.936 38.876 100.088ZM37.66 90.696H38.908V94.872C38.908 95.544 39.228 95.704 41.004 95.704C41.836 95.704 46.268 95.704 47.388 95.704C48.7 95.704 48.924 95.48 49.068 94.296C49.372 94.472 49.868 94.616 50.22 94.68C50.012 96.312 49.5 96.712 47.484 96.712C46.828 96.712 41.692 96.712 41.084 96.712C38.444 96.712 37.66 96.376 37.66 94.888V90.696ZM38.076 92.936H47.532V91.256H37.66V90.2H48.7V94.008H38.076V92.936ZM57.628 90.408H66.668V91.512H57.628V90.408ZM61.452 90.856H62.588V104.248H61.452V90.856ZM58.188 93.48H65.372V94.568H59.308V101.976H58.188V93.48ZM64.924 93.48H66.044V100.616C66.044 101.176 65.948 101.48 65.564 101.672C65.18 101.864 64.62 101.864 63.74 101.864C63.692 101.56 63.532 101.112 63.388 100.808C63.996 100.824 64.524 100.824 64.7 100.824C64.876 100.824 64.924 100.76 64.924 100.584V93.48ZM55.564 89.592H56.684V95.992C56.684 99.16 56.38 102.088 53.98 104.264C53.788 104.024 53.372 103.64 53.084 103.464C55.308 101.496 55.564 98.856 55.564 95.992V89.592ZM53.004 91.4H54.092V99.176H53.004V91.4ZM68.428 96.616H82.588V97.704H68.428V96.616ZM75.548 99.48H81.532V100.536H75.548V99.48ZM75.02 97.096H76.236V103.16H75.02V97.096ZM71.884 99.704C72.86 102.328 74.972 102.824 78.108 102.84C78.716 102.84 82.06 102.84 82.892 102.824C82.716 103.096 82.524 103.624 82.46 103.976H78.06C74.316 103.976 72.14 103.304 70.892 100.072L71.884 99.704ZM71.196 98.216L72.396 98.392C71.884 101.048 70.732 103.032 68.972 104.312C68.796 104.088 68.332 103.656 68.06 103.464C69.756 102.36 70.78 100.568 71.196 98.216ZM71.276 93.304V94.616H79.612V93.304H71.276ZM71.276 91.144V92.44H79.612V91.144H71.276ZM70.108 90.232H80.828V95.528H70.108V90.232ZM84.524 92.936H98.492V94.152H84.524V92.936ZM87.724 100.072H95.18V101.288H87.724V100.072ZM90.844 89.576H92.108V104.28H90.844V89.576ZM90.476 93.336L91.548 93.704C90.124 97.096 87.612 100.152 84.844 101.768C84.652 101.464 84.252 101.016 83.98 100.776C86.652 99.384 89.196 96.408 90.476 93.336ZM92.508 93.384C93.772 96.424 96.284 99.336 99.052 100.664C98.748 100.92 98.332 101.4 98.14 101.736C95.308 100.168 92.844 97.112 91.436 93.752L92.508 93.384ZM102.892 90.888H104.06V104.248H102.892V90.888ZM100.188 94.072H106.428V95.208H100.188V94.072ZM102.956 94.504L103.708 94.824C103.068 97.08 101.788 99.88 100.556 101.368C100.444 101.032 100.156 100.536 99.948 100.264C101.1 98.984 102.38 96.488 102.956 94.504ZM105.452 89.784L106.188 90.76C104.716 91.336 102.508 91.768 100.684 92.024C100.62 91.752 100.46 91.352 100.332 91.08C102.14 90.792 104.236 90.328 105.452 89.784ZM103.996 95.416C104.412 95.848 105.948 97.784 106.3 98.264L105.548 99.208C105.164 98.44 103.916 96.536 103.436 95.912L103.996 95.416ZM111.692 89.56H112.876V104.264H111.692V89.56ZM106.236 99.976L114.748 98.6L114.94 99.72L106.412 101.112L106.236 99.976ZM107.532 91.384L108.3 90.68C109.26 91.288 110.396 92.2 110.94 92.872L110.108 93.656C109.596 92.984 108.476 92.024 107.532 91.384ZM106.892 95.544L107.644 94.84C108.684 95.464 109.948 96.424 110.54 97.112L109.74 97.912C109.148 97.208 107.932 96.2 106.892 95.544ZM118.828 92.68H129.916V93.848H118.828V92.68ZM118.124 97.368H129.34V98.52H118.124V97.368ZM116.38 102.6H130.668V103.768H116.38V102.6ZM122.908 89.576H124.14V103.192H122.908V89.576ZM119.308 89.832L120.54 90.104C119.836 92.584 118.716 94.952 117.436 96.488C117.196 96.28 116.652 95.928 116.348 95.768C117.66 94.344 118.7 92.12 119.308 89.832ZM134.012 104.712L133.644 103.88C134.956 103.336 135.676 102.52 135.676 101.32L135.372 99.96L136.236 101.176C136.012 101.464 135.692 101.544 135.388 101.544C134.732 101.544 134.188 101.16 134.188 100.392C134.188 99.64 134.764 99.24 135.404 99.24C136.3 99.24 136.78 99.976 136.78 101.096C136.78 102.824 135.692 104.136 134.012 104.712ZM152.956 97.192H162.844V98.312H152.956V97.192ZM159.468 95.912H160.652V102.824C160.652 103.528 160.508 103.88 159.996 104.072C159.484 104.264 158.636 104.28 157.372 104.28C157.324 103.944 157.148 103.448 156.972 103.096C157.964 103.128 158.86 103.128 159.148 103.112C159.404 103.096 159.468 103.048 159.468 102.808V95.912ZM161.084 89.56L161.916 90.488C159.628 91.176 156.124 91.72 153.148 92.024C153.1 91.752 152.956 91.32 152.812 91.064C155.74 90.728 159.148 90.168 161.084 89.56ZM153.388 92.856L154.396 92.52C154.908 93.432 155.42 94.648 155.58 95.432L154.508 95.816C154.348 95.048 153.884 93.784 153.388 92.856ZM156.524 92.232L157.596 91.976C157.98 92.92 158.316 94.104 158.38 94.856L157.244 95.16C157.196 94.392 156.892 93.176 156.524 92.232ZM154.236 99.496L155.228 98.968C156.06 99.784 156.972 100.968 157.372 101.768L156.332 102.376C155.98 101.56 155.068 100.344 154.236 99.496ZM151.132 89.576H152.284V104.28H151.132V89.576ZM147.9 100.04C148.796 99.576 150.14 98.776 151.452 97.976L151.836 98.984C150.7 99.784 149.516 100.6 148.508 101.272L147.9 100.04ZM148.076 92.072L149.052 91.608C149.82 92.616 150.604 93.976 150.908 94.856L149.868 95.416C149.58 94.504 148.812 93.112 148.076 92.072ZM161.468 91.784L162.556 92.328C161.692 93.672 160.524 95.208 159.612 96.248L158.684 95.72C159.58 94.68 160.796 93.032 161.468 91.784ZM164.54 90.84H172.028V91.816H164.54V90.84ZM164.284 95.176H172.124V96.136H164.284V95.176ZM164.892 92.984H171.708V93.928H164.892V92.984ZM172.844 90.232H177.468V91.272H173.996V98.168H172.844V90.232ZM177.228 90.232H177.468L177.66 90.184L178.492 90.696C177.9 91.528 177.18 92.504 176.524 93.304C177.884 94.152 178.348 94.92 178.364 95.64C178.38 96.328 178.092 96.776 177.58 97.064C177.308 97.208 176.924 97.288 176.62 97.336C176.06 97.384 175.372 97.384 174.748 97.336C174.732 97.032 174.572 96.6 174.364 96.312C175.052 96.392 175.644 96.392 176.108 96.36C176.332 96.344 176.588 96.296 176.764 96.232C177.052 96.12 177.18 95.896 177.18 95.544C177.164 94.968 176.652 94.264 175.228 93.464C175.98 92.472 176.764 91.272 177.228 90.456V90.232ZM167.868 89.56H169.084V94.312C169.084 95.592 168.332 97.752 165.436 98.888C165.244 98.648 164.876 98.248 164.604 98.024C167.212 97.144 167.868 95.336 167.868 94.296V89.56ZM170.828 97.56H172.076V104.264H170.828V97.56ZM165.9 98.824H176.636V99.912H167.1V103.416H165.9V98.824ZM176.124 98.824H177.34V102.104C177.34 102.712 177.196 103.032 176.684 103.208C176.172 103.384 175.324 103.384 173.98 103.384C173.9 103.064 173.724 102.648 173.564 102.344C174.572 102.376 175.516 102.376 175.788 102.36C176.06 102.344 176.124 102.28 176.124 102.088V98.824ZM186.956 93.192H193.724V94.328H186.956V93.192ZM193.212 93.192H194.364C194.364 93.192 194.348 93.64 194.348 93.8C194.188 100.568 194.044 102.856 193.516 103.544C193.196 103.976 192.86 104.104 192.348 104.152C191.852 104.2 190.988 104.184 190.14 104.152C190.108 103.8 189.98 103.304 189.772 103C190.7 103.064 191.532 103.064 191.868 103.064C192.14 103.08 192.316 103.032 192.46 102.824C192.892 102.328 193.068 99.992 193.212 93.448V93.192ZM189.612 89.576H190.78C190.764 95.704 190.748 101.4 186.3 104.312C186.124 104.024 185.724 103.624 185.42 103.432C189.692 100.776 189.596 95.4 189.612 89.576ZM181.196 90.344H186.412V100.76H185.292V91.448H182.268V101.784H181.196V90.344ZM180.044 101.496C181.82 101.144 184.636 100.552 187.292 99.96L187.404 101.048C184.86 101.656 182.172 102.28 180.252 102.712L180.044 101.496ZM181.756 93.784H185.82V94.872H181.756V93.784ZM181.756 97.208H185.82V98.28H181.756V97.208ZM202.988 89.576L204.092 89.848C203.468 91.56 202.428 93.192 201.308 94.28C201.132 94.072 200.684 93.688 200.412 93.512C201.5 92.568 202.444 91.112 202.988 89.576ZM202.924 93.608L204.044 93.896C203.548 95.16 202.716 96.408 201.916 97.24C201.692 97.064 201.212 96.76 200.94 96.616C201.772 95.848 202.492 94.728 202.924 93.608ZM202.828 91.144H209.772V92.2H202.412L202.828 91.144ZM205.18 91.864H206.332V97.432C206.332 98.04 206.22 98.36 205.772 98.536C205.356 98.712 204.7 98.728 203.692 98.728C203.628 98.408 203.468 97.96 203.292 97.656C204.044 97.688 204.716 97.688 204.924 97.672C205.132 97.656 205.18 97.608 205.18 97.432V91.864ZM207.212 93.96L208.204 93.528C208.988 94.568 209.772 95.976 210.108 96.904L209.068 97.4C208.748 96.456 207.964 95 207.212 93.96ZM209.436 91.144H209.628L209.82 91.112L210.652 91.32C210.252 92.328 209.756 93.496 209.372 94.2L208.332 93.992C208.7 93.32 209.132 92.216 209.436 91.32V91.144ZM200.284 99.512H201.468V102.408C201.468 102.84 201.628 102.92 202.476 102.92C202.876 102.92 204.876 102.92 205.404 102.92C206.108 102.92 206.22 102.712 206.3 101.128C206.556 101.336 207.036 101.512 207.372 101.592C207.228 103.528 206.86 104.008 205.484 104.008C205.116 104.008 202.732 104.008 202.38 104.008C200.716 104.008 200.284 103.672 200.284 102.408V99.512ZM201.66 99.032L202.46 98.312C203.484 98.808 204.716 99.624 205.292 100.264L204.428 101.048C203.884 100.408 202.7 99.544 201.66 99.032ZM206.924 100.008L207.916 99.448C209.1 100.456 210.348 101.896 210.844 102.984L209.772 103.592C209.308 102.536 208.124 101.032 206.924 100.008ZM198.332 99.704L199.404 100.056C199.004 101.496 198.38 102.92 197.116 103.768L196.124 103.08C197.308 102.328 197.996 101.048 198.332 99.704ZM199.868 89.56L200.94 89.928C199.9 91.912 198.284 93.88 196.732 95.144C196.588 94.904 196.188 94.424 195.948 94.216C197.452 93.08 198.956 91.32 199.868 89.56ZM198.396 92.568L199.532 91.432L199.548 91.448V98.712H198.396V92.568ZM225.228 89.672L226.06 90.568C223.772 91.128 220.22 91.48 217.244 91.624C217.212 91.352 217.068 90.936 216.94 90.68C219.868 90.504 223.324 90.152 225.228 89.672ZM220.94 91H222.14V97.24H220.94V91ZM216.428 93.4H226.668V94.44H216.428V93.4ZM215.516 97.016V101.688H214.332V98.12H212.236V97.016H215.516ZM215.516 101.048C216.284 102.216 217.692 102.776 219.58 102.856C221.34 102.904 225.004 102.872 226.924 102.744C226.764 103.016 226.588 103.576 226.524 103.944C224.748 104.008 221.372 104.04 219.58 103.992C217.484 103.896 216.028 103.336 214.988 102.072C214.252 102.76 213.468 103.448 212.652 104.152L212.028 102.952C212.748 102.44 213.66 101.736 214.444 101.048H215.516ZM212.924 90.504L213.724 89.768C214.684 90.264 215.836 91.064 216.38 91.688L215.548 92.504C215.02 91.88 213.9 91.048 212.924 90.504ZM212.3 93.768L213.1 92.984C214.092 93.448 215.308 94.216 215.9 94.84L215.068 95.688C214.508 95.08 213.324 94.264 212.3 93.768ZM218.684 97.64V100.392H224.588V97.64H218.684ZM217.548 96.584H225.788V101.448H217.548V96.584ZM230.028 91.624H242.572V92.76H230.028V91.624ZM229.42 91.624H230.636V95.992C230.636 98.424 230.428 102.008 229.116 104.408C228.908 104.184 228.348 103.848 228.076 103.736C229.308 101.464 229.42 98.264 229.42 95.992V91.624ZM234.972 89.752L236.14 89.448C236.54 90.152 236.988 91.048 237.18 91.624L235.964 92.008C235.772 91.4 235.34 90.456 234.972 89.752ZM231.708 95.16L232.748 94.744C233.452 96.488 234.22 98.712 234.572 100.2L233.452 100.68C233.132 99.176 232.364 96.904 231.708 95.16ZM235.18 94.28L236.268 93.96C236.828 95.704 237.42 97.944 237.66 99.432L236.508 99.768C236.3 98.28 235.708 96.008 235.18 94.28ZM240.604 93.864L241.852 94.328C240.988 97.336 239.596 100.664 237.868 103.32C237.692 103.112 237.324 102.776 237.068 102.6C238.684 100.088 239.964 96.712 240.604 93.864ZM230.828 102.392H242.78V103.544H230.828V102.392ZM247.148 94.968H255.068V96.024H247.148V94.968ZM244.46 98.616H258.604V99.736H244.46V98.616ZM250.892 97.448H252.124V102.856C252.124 103.576 251.932 103.928 251.324 104.104C250.748 104.28 249.82 104.296 248.364 104.296C248.284 103.96 248.044 103.464 247.852 103.144C249.084 103.176 250.172 103.176 250.492 103.16C250.812 103.144 250.892 103.064 250.892 102.824V97.448ZM254.7 94.968H255.004L255.26 94.904L256.028 95.496C254.94 96.6 253.26 97.704 251.74 98.36C251.596 98.152 251.276 97.832 251.068 97.656C252.412 97.08 253.948 96.024 254.7 95.208V94.968ZM244.78 92.232H258.332V95.8H257.148V93.32H245.916V95.8H244.78V92.232ZM256.22 89.672L257.468 90.088C256.796 91.08 255.932 92.152 255.26 92.856L254.316 92.456C254.956 91.704 255.772 90.52 256.22 89.672ZM245.868 90.232L246.876 89.752C247.5 90.424 248.156 91.336 248.428 91.976L247.356 92.488C247.1 91.88 246.46 90.92 245.868 90.232ZM249.98 89.88L251.02 89.496C251.564 90.248 252.14 91.288 252.332 91.96L251.228 92.392C251.036 91.72 250.508 90.664 249.98 89.88ZM262.828 92.68H273.916V93.848H262.828V92.68ZM262.124 97.368H273.34V98.52H262.124V97.368ZM260.38 102.6H274.668V103.768H260.38V102.6ZM266.908 89.576H268.14V103.192H266.908V89.576ZM263.308 89.832L264.54 90.104C263.836 92.584 262.716 94.952 261.436 96.488C261.196 96.28 260.652 95.928 260.348 95.768C261.66 94.344 262.7 92.12 263.308 89.832ZM278.828 92.68H289.916V93.848H278.828V92.68ZM278.124 97.368H289.34V98.52H278.124V97.368ZM276.38 102.6H290.668V103.768H276.38V102.6ZM282.908 89.576H284.14V103.192H282.908V89.576ZM279.308 89.832L280.54 90.104C279.836 92.584 278.716 94.952 277.436 96.488C277.196 96.28 276.652 95.928 276.348 95.768C277.66 94.344 278.7 92.12 279.308 89.832ZM161.772 117.056H169.756V123.2H168.604V118.16H162.876V123.28H161.772V117.056ZM169.164 108.624L170.108 109.568C167.916 110.32 164.572 110.816 161.708 111.088C161.66 110.8 161.5 110.336 161.356 110.064C164.14 109.76 167.388 109.264 169.164 108.624ZM165.228 110.016H166.38V117.696H165.228V110.016ZM160.604 113.264H170.796V114.416H160.604V113.264ZM162.524 121.488H169.132V122.592H162.524V121.488ZM156.94 109.616L157.612 108.768C158.588 109.248 159.948 109.968 160.636 110.432L159.932 111.408C159.26 110.928 157.932 110.144 156.94 109.616ZM156.156 114.032L156.828 113.152C157.772 113.616 159.116 114.32 159.788 114.784L159.116 115.76C158.46 115.312 157.132 114.544 156.156 114.032ZM156.54 122.256C157.404 121.04 158.668 118.928 159.596 117.104L160.46 117.888C159.612 119.584 158.492 121.584 157.548 123.072L156.54 122.256Z" fill="#2D3342"/>
<path d="M53.904 178.592H55.04V189.712H53.904V178.592ZM48.336 185.184L57.952 181.456L58.416 182.496L48.784 186.24L48.336 185.184ZM50.352 180.16H51.536V190.864C51.536 191.776 51.76 191.984 52.896 191.984C53.44 191.984 56.304 191.984 57.008 191.984C57.984 191.984 58.16 191.536 58.288 189.648C58.576 189.856 59.056 190.064 59.408 190.144C59.2 192.352 58.816 193.072 57.04 193.072C56.576 193.072 53.28 193.072 52.848 193.072C50.912 193.072 50.352 192.624 50.352 190.848V180.16ZM57.552 181.728H57.408L57.696 181.488L57.904 181.296L58.736 181.648L58.688 181.84C58.672 184.752 58.64 187.056 58.48 187.744C58.352 188.48 58.016 188.784 57.52 188.912C57.088 189.024 56.384 189.04 55.904 189.024C55.872 188.688 55.744 188.192 55.6 187.92C56.048 187.936 56.624 187.936 56.832 187.936C57.104 187.936 57.28 187.872 57.392 187.456C57.52 186.944 57.552 184.848 57.552 181.728ZM48.256 178.624L49.36 178.976C48.32 181.664 46.672 184.384 44.96 186.176C44.832 185.904 44.496 185.28 44.288 185.008C45.872 183.456 47.36 181.056 48.256 178.624ZM46.56 182.752L47.712 181.584L47.728 181.6V193.264H46.56V182.752ZM61.552 191.536C64.336 191.472 68.8 191.312 72.96 191.12L72.912 192.224C68.88 192.432 64.544 192.624 61.712 192.72L61.552 191.536ZM61.408 186.592H74.672V187.728H61.408V186.592ZM64.144 183.536H71.792V184.656H64.144V183.536ZM65.792 187.312L67.136 187.696C66.4 189.232 65.472 191.104 64.688 192.304L63.616 191.952C64.368 190.704 65.312 188.72 65.792 187.312ZM69.6 189.008L70.624 188.464C72.096 189.728 73.664 191.456 74.416 192.672L73.328 193.328C72.608 192.128 71.024 190.288 69.6 189.008ZM67.936 179.744C66.624 181.696 64 183.888 61.28 185.248C61.136 184.96 60.832 184.528 60.576 184.272C63.328 182.96 66 180.64 67.248 178.592H68.48C70.176 180.96 72.976 183.056 75.52 184.096C75.232 184.384 74.944 184.816 74.736 185.168C72.24 183.968 69.424 181.824 67.936 179.744ZM77.04 179.84H84.528V180.816H77.04V179.84ZM76.784 184.176H84.624V185.136H76.784V184.176ZM77.392 181.984H84.208V182.928H77.392V181.984ZM85.344 179.232H89.968V180.272H86.496V187.168H85.344V179.232ZM89.728 179.232H89.968L90.16 179.184L90.992 179.696C90.4 180.528 89.68 181.504 89.024 182.304C90.384 183.152 90.848 183.92 90.864 184.64C90.88 185.328 90.592 185.776 90.08 186.064C89.808 186.208 89.424 186.288 89.12 186.336C88.56 186.384 87.872 186.384 87.248 186.336C87.232 186.032 87.072 185.6 86.864 185.312C87.552 185.392 88.144 185.392 88.608 185.36C88.832 185.344 89.088 185.296 89.264 185.232C89.552 185.12 89.68 184.896 89.68 184.544C89.664 183.968 89.152 183.264 87.728 182.464C88.48 181.472 89.264 180.272 89.728 179.456V179.232ZM80.368 178.56H81.584V183.312C81.584 184.592 80.832 186.752 77.936 187.888C77.744 187.648 77.376 187.248 77.104 187.024C79.712 186.144 80.368 184.336 80.368 183.296V178.56ZM83.328 186.56H84.576V193.264H83.328V186.56ZM78.4 187.824H89.136V188.912H79.6V192.416H78.4V187.824ZM88.624 187.824H89.84V191.104C89.84 191.712 89.696 192.032 89.184 192.208C88.672 192.384 87.824 192.384 86.48 192.384C86.4 192.064 86.224 191.648 86.064 191.344C87.072 191.376 88.016 191.376 88.288 191.36C88.56 191.344 88.624 191.28 88.624 191.088V187.824ZM99.456 182.192H106.224V183.328H99.456V182.192ZM105.712 182.192H106.864C106.864 182.192 106.848 182.64 106.848 182.8C106.688 189.568 106.544 191.856 106.016 192.544C105.696 192.976 105.36 193.104 104.848 193.152C104.352 193.2 103.488 193.184 102.64 193.152C102.608 192.8 102.48 192.304 102.272 192C103.2 192.064 104.032 192.064 104.368 192.064C104.64 192.08 104.816 192.032 104.96 191.824C105.392 191.328 105.568 188.992 105.712 182.448V182.192ZM102.112 178.576H103.28C103.264 184.704 103.248 190.4 98.8 193.312C98.624 193.024 98.224 192.624 97.92 192.432C102.192 189.776 102.096 184.4 102.112 178.576ZM93.696 179.344H98.912V189.76H97.792V180.448H94.768V190.784H93.696V179.344ZM92.544 190.496C94.32 190.144 97.136 189.552 99.792 188.96L99.904 190.048C97.36 190.656 94.672 191.28 92.752 191.712L92.544 190.496ZM94.256 182.784H98.32V183.872H94.256V182.784ZM94.256 186.208H98.32V187.28H94.256V186.208ZM115.44 178.64L116.624 178.896C116 181.456 114.992 183.92 113.76 185.552C113.552 185.344 113.072 184.96 112.8 184.784C113.984 183.296 114.912 180.992 115.44 178.64ZM115.168 185.424L116.336 185.664C115.84 187.76 114.976 189.792 114 191.136C113.76 190.944 113.248 190.624 112.96 190.48C113.952 189.248 114.72 187.344 115.168 185.424ZM115.296 181.648H122.496V182.768H114.832L115.296 181.648ZM117.776 182.112H118.976V191.824C118.976 192.512 118.832 192.864 118.384 193.056C117.952 193.264 117.264 193.296 116.272 193.296C116.192 192.96 116.016 192.432 115.84 192.08C116.592 192.112 117.28 192.096 117.504 192.096C117.712 192.096 117.776 192.032 117.776 191.824V182.112ZM120.128 185.664L121.2 185.312C122.128 186.992 122.928 189.2 123.2 190.688L122.064 191.072C121.808 189.6 121.008 187.344 120.128 185.664ZM122.144 181.648H122.304L122.512 181.616L123.344 181.792C123.12 182.976 122.848 184.352 122.64 185.216L121.6 185.024C121.776 184.224 121.984 182.88 122.144 181.824V181.648ZM112.224 178.624L113.36 178.976C112.304 181.696 110.656 184.4 108.928 186.192C108.8 185.92 108.464 185.28 108.24 185.008C109.824 183.456 111.328 181.056 112.224 178.624ZM110.56 182.752L111.68 181.616L111.712 181.632V193.264H110.56V182.752ZM127.648 183.968H135.568V185.024H127.648V183.968ZM124.96 187.616H139.104V188.736H124.96V187.616ZM131.392 186.448H132.624V191.856C132.624 192.576 132.432 192.928 131.824 193.104C131.248 193.28 130.32 193.296 128.864 193.296C128.784 192.96 128.544 192.464 128.352 192.144C129.584 192.176 130.672 192.176 130.992 192.16C131.312 192.144 131.392 192.064 131.392 191.824V186.448ZM135.2 183.968H135.504L135.76 183.904L136.528 184.496C135.44 185.6 133.76 186.704 132.24 187.36C132.096 187.152 131.776 186.832 131.568 186.656C132.912 186.08 134.448 185.024 135.2 184.208V183.968ZM125.28 181.232H138.832V184.8H137.648V182.32H126.416V184.8H125.28V181.232ZM136.72 178.672L137.968 179.088C137.296 180.08 136.432 181.152 135.76 181.856L134.816 181.456C135.456 180.704 136.272 179.52 136.72 178.672ZM126.368 179.232L127.376 178.752C128 179.424 128.656 180.336 128.928 180.976L127.856 181.488C127.6 180.88 126.96 179.92 126.368 179.232ZM130.48 178.88L131.52 178.496C132.064 179.248 132.64 180.288 132.832 180.96L131.728 181.392C131.536 180.72 131.008 179.664 130.48 178.88ZM141.888 179.728H153.44V180.88H141.888V179.728ZM143.68 182.992L144.496 182.208C145.92 183.168 147.824 184.544 148.768 185.424L147.92 186.352C147.024 185.44 145.12 184 143.68 182.992ZM153.008 179.728H154.208C154.208 179.728 154.208 180.24 154.208 180.416C154.096 188.832 153.968 191.536 153.36 192.352C153.008 192.896 152.608 193.072 152.032 193.12C151.408 193.184 150.368 193.152 149.44 193.104C149.424 192.768 149.264 192.272 149.04 191.952C150.16 192.032 151.168 192.032 151.584 192.032C151.888 192.032 152.064 191.984 152.24 191.776C152.768 191.184 152.896 188.064 153.008 180V179.728ZM141.648 189.856C143.952 189.152 147.744 187.888 151.248 186.688L151.456 187.808C148.16 188.976 144.528 190.224 142.064 191.072L141.648 189.856ZM164.928 190.096H169.888V191.248H164.928V190.096ZM164.48 180.064H170.448V192.464H169.232V181.2H165.648V192.576H164.48V180.064ZM159.936 179.92H161.136V193.264H159.936V179.92ZM156.8 183.296H163.936V184.416H156.8V183.296ZM159.872 183.696L160.72 184C159.968 186.48 158.496 189.44 157.056 190.976C156.928 190.64 156.624 190.16 156.416 189.872C157.76 188.496 159.232 185.904 159.872 183.696ZM163.008 178.72L163.824 179.648C162.112 180.288 159.488 180.752 157.296 181.008C157.232 180.736 157.088 180.336 156.944 180.064C159.072 179.776 161.616 179.296 163.008 178.72ZM161.04 184.736C161.552 185.248 163.408 187.424 163.824 187.952L163.088 188.928C162.576 188.08 161.024 186.032 160.432 185.328L161.04 184.736ZM172.864 188.736H187.12V189.856H172.864V188.736ZM173.312 180.448H186.736V181.552H173.312V180.448ZM176.576 183.168H183.44V184.192H176.576V183.168ZM176.576 185.936H183.44V186.976H176.576V185.936ZM175.808 178.592H176.992V189.232H175.808V178.592ZM182.96 178.592H184.176V189.232H182.96V178.592ZM181.168 190.976L181.984 190.208C183.888 190.88 185.92 191.76 187.168 192.432L186.08 193.216C184.944 192.544 183.04 191.664 181.168 190.976ZM177.776 190.112L178.832 190.88C177.408 191.76 175.232 192.688 173.504 193.248C173.328 193.008 172.96 192.592 172.704 192.336C174.432 191.84 176.64 190.896 177.776 190.112ZM197.904 178.592H199.04V189.712H197.904V178.592ZM192.336 185.184L201.952 181.456L202.416 182.496L192.784 186.24L192.336 185.184ZM194.352 180.16H195.536V190.864C195.536 191.776 195.76 191.984 196.896 191.984C197.44 191.984 200.304 191.984 201.008 191.984C201.984 191.984 202.16 191.536 202.288 189.648C202.576 189.856 203.056 190.064 203.408 190.144C203.2 192.352 202.816 193.072 201.04 193.072C200.576 193.072 197.28 193.072 196.848 193.072C194.912 193.072 194.352 192.624 194.352 190.848V180.16ZM201.552 181.728H201.408L201.696 181.488L201.904 181.296L202.736 181.648L202.688 181.84C202.672 184.752 202.64 187.056 202.48 187.744C202.352 188.48 202.016 188.784 201.52 188.912C201.088 189.024 200.384 189.04 199.904 189.024C199.872 188.688 199.744 188.192 199.6 187.92C200.048 187.936 200.624 187.936 200.832 187.936C201.104 187.936 201.28 187.872 201.392 187.456C201.52 186.944 201.552 184.848 201.552 181.728ZM192.256 178.624L193.36 178.976C192.32 181.664 190.672 184.384 188.96 186.176C188.832 185.904 188.496 185.28 188.288 185.008C189.872 183.456 191.36 181.056 192.256 178.624ZM190.56 182.752L191.712 181.584L191.728 181.6V193.264H190.56V182.752ZM206.384 191.104H217.68V192.288H206.384V191.104ZM211.296 178.656H212.528V191.776H211.296V178.656ZM205.792 186.64H207.008V193.296H205.792V186.64ZM217.04 186.64H218.272V193.248H217.04V186.64ZM206.416 180.096H207.6V184.448H216.384V180.096H217.632V185.616H206.416V180.096ZM220.88 179.648H226.176V180.784H220.88V179.648ZM221.12 184.272H225.84V185.408H221.12V184.272ZM220.688 190.4C222.096 190.048 224.224 189.44 226.256 188.832L226.416 189.936C224.496 190.512 222.464 191.104 220.944 191.568L220.688 190.4ZM223.024 180.16H224.176V189.984L223.024 190.224V180.16ZM226.896 179.344H234.096V187.856H232.912V180.4H228.048V187.856H226.896V179.344ZM230.544 187.6H231.664V191.392C231.664 191.84 231.792 191.952 232.24 191.952H233.568C234.112 191.952 234.208 191.52 234.288 189.232C234.576 189.472 234.96 189.632 235.264 189.696C235.12 192.224 234.944 192.864 233.552 192.864H232.08C230.976 192.864 230.544 192.576 230.544 191.504V187.6ZM229.856 181.776H230.976V184.88C230.976 187.632 230.272 191.152 226.064 193.328C225.92 193.088 225.552 192.656 225.312 192.464C229.344 190.384 229.856 187.36 229.856 184.864V181.776ZM238.096 181.136H242.96V191.6H238.096V190.512H241.84V182.208H238.096V181.136ZM237.376 181.136H238.496V192.88H237.376V181.136ZM238.016 185.584H242.432V186.656H238.016V185.584ZM239.824 178.528L241.12 178.768C240.8 179.76 240.4 180.864 240.08 181.584L239.12 181.344C239.392 180.576 239.696 179.36 239.824 178.528ZM245.232 181.088H250.144V182.208H245.232V181.088ZM249.728 181.088H250.848C250.848 181.088 250.848 181.536 250.848 181.712C250.592 189.056 250.368 191.536 249.728 192.32C249.376 192.784 249.008 192.928 248.448 192.976C247.904 193.04 246.96 193.008 246.064 192.96C246.032 192.608 245.888 192.112 245.664 191.792C246.704 191.872 247.664 191.888 248.032 191.888C248.352 191.888 248.544 191.84 248.72 191.632C249.248 191.056 249.504 188.4 249.728 181.344V181.088ZM245.568 178.496L246.72 178.768C246.128 181.152 245.184 183.504 244.08 185.024C243.872 184.832 243.376 184.496 243.088 184.336C244.176 182.928 245.056 180.72 245.568 178.496ZM244.832 185.248L245.76 184.704C246.672 185.84 247.776 187.392 248.288 188.336L247.264 188.976C246.784 188 245.712 186.416 244.832 185.248ZM253.472 182.176H254.656V193.296H253.472V182.176ZM253.648 179.344L254.528 178.784C255.328 179.568 256.416 180.704 256.944 181.376L256.032 182.032C255.504 181.344 254.464 180.192 253.648 179.344ZM257.68 179.472H266.128V180.592H257.68V179.472ZM265.312 179.472H266.512V191.616C266.512 192.384 266.32 192.752 265.824 192.96C265.312 193.152 264.448 193.184 263.136 193.168C263.088 192.832 262.896 192.288 262.736 191.952C263.696 192 264.672 191.984 264.928 191.984C265.216 191.968 265.312 191.872 265.312 191.6V179.472ZM257.744 183.424H262.768V189.312H257.744V188.224H261.6V184.512H257.744V183.424ZM257.136 183.424H258.24V190.352H257.136V183.424ZM70.8 201.16V202.376H74.08V201.16H70.8ZM70.8 199.112V200.312H74.08V199.112H70.8ZM69.728 198.248H75.2V203.272H69.728V198.248ZM68.768 204.456H76.016V205.384H68.768V204.456ZM75.984 198.296H83.28V199.288H75.984V198.296ZM72.016 204.76H73.056V210.856L72.016 210.232V204.76ZM72.496 207.112H75.712V208.024H72.496V207.112ZM79.04 198.632L80.256 198.872C79.936 199.704 79.6 200.6 79.312 201.208L78.352 200.968C78.592 200.312 78.896 199.32 79.04 198.632ZM70.672 207.832C71.792 210.584 74.272 210.936 77.824 210.936C78.544 210.936 82.48 210.936 83.408 210.904C83.232 211.16 83.024 211.624 82.976 211.944H77.808C73.792 211.944 71.232 211.416 69.936 208.104L70.672 207.832ZM76.624 200.824H82.496V207.512H81.44V201.736H77.648V207.56H76.624V200.824ZM69.968 206.184L70.992 206.248C70.88 208.824 70.48 210.856 69.392 212.248C69.216 212.104 68.768 211.8 68.528 211.656C69.6 210.408 69.888 208.488 69.968 206.184ZM79.104 202.52H80.128C80.016 207.032 79.552 209.368 75.904 210.568C75.792 210.344 75.536 209.96 75.312 209.784C78.672 208.712 79.008 206.68 79.104 202.52ZM79.664 208.04L80.368 207.4C81.36 208.072 82.624 209.08 83.248 209.752L82.528 210.488C81.904 209.816 80.672 208.76 79.664 208.04ZM86.512 212.712L86.144 211.88C87.456 211.336 88.176 210.52 88.176 209.32L87.872 207.96L88.736 209.176C88.512 209.464 88.192 209.544 87.888 209.544C87.232 209.544 86.688 209.16 86.688 208.392C86.688 207.64 87.264 207.24 87.904 207.24C88.8 207.24 89.28 207.976 89.28 209.096C89.28 210.824 88.192 212.136 86.512 212.712ZM101.424 200.872H114.672V202.024H101.424V200.872ZM100.832 205.496H115.184V206.648H100.832V205.496ZM110.256 201.464H111.488V212.28H110.256V201.464ZM104.56 201.464H105.744V205.112C105.744 207.768 105.296 210.536 101.648 212.408C101.488 212.12 101.088 211.704 100.832 211.48C104.176 209.8 104.56 207.384 104.56 205.096V201.464ZM103.472 197.992L104.528 197.576C105.232 198.424 105.952 199.592 106.256 200.36L105.136 200.856C104.864 200.088 104.16 198.872 103.472 197.992ZM111.328 197.528L112.672 197.944C112.048 198.936 111.328 200.088 110.736 200.808L109.696 200.424C110.272 199.64 110.96 198.408 111.328 197.528ZM118.992 203.624H128.144V204.792H118.992V203.624ZM127.744 203.624H128.992C128.992 203.624 128.976 204.04 128.96 204.2C128.736 209.16 128.512 211.016 127.936 211.624C127.616 212.024 127.264 212.136 126.704 212.184C126.176 212.232 125.168 212.216 124.16 212.168C124.144 211.8 123.984 211.304 123.76 210.952C124.816 211.048 125.808 211.064 126.192 211.064C126.512 211.064 126.704 211.032 126.864 210.856C127.296 210.424 127.536 208.6 127.744 203.848V203.624ZM121.184 197.896L122.448 198.264C121.296 200.968 119.408 203.352 117.392 204.888C117.168 204.632 116.656 204.168 116.352 203.944C118.4 202.568 120.176 200.36 121.184 197.896ZM126.768 197.864C127.808 200.008 129.872 202.44 131.616 203.672C131.296 203.928 130.848 204.408 130.608 204.744C128.832 203.304 126.816 200.712 125.616 198.328L126.768 197.864ZM122.368 203.944H123.648C123.28 207.448 122.448 210.76 117.984 212.36C117.84 212.056 117.488 211.576 117.216 211.32C121.408 209.928 122.048 206.968 122.368 203.944ZM132.864 208.152H147.152V209.208H132.864V208.152ZM139.328 197.56H140.576V199.592H139.328V197.56ZM134.368 205.24H144.464V206.216H134.368V205.24ZM139.344 207.208H140.592V211.064C140.592 211.736 140.4 212.024 139.84 212.184C139.28 212.328 138.352 212.328 136.912 212.328C136.848 212.024 136.656 211.624 136.496 211.336C137.584 211.368 138.688 211.352 138.96 211.352C139.248 211.336 139.344 211.272 139.344 211.032V207.208ZM144.192 205.24H144.512L144.784 205.192L145.584 205.848C144.144 206.744 142.064 207.544 140.176 208.008C140.032 207.8 139.744 207.48 139.568 207.32C141.232 206.904 143.184 206.152 144.192 205.48V205.24ZM136.224 201.928V203.368H143.792V201.928H136.224ZM135.04 201.032H145.04V204.264H135.04V201.032ZM133.008 198.968H146.944V200.008H133.008V198.968ZM157.904 197.592H159.04V208.712H157.904V197.592ZM152.336 204.184L161.952 200.456L162.416 201.496L152.784 205.24L152.336 204.184ZM154.352 199.16H155.536V209.864C155.536 210.776 155.76 210.984 156.896 210.984C157.44 210.984 160.304 210.984 161.008 210.984C161.984 210.984 162.16 210.536 162.288 208.648C162.576 208.856 163.056 209.064 163.408 209.144C163.2 211.352 162.816 212.072 161.04 212.072C160.576 212.072 157.28 212.072 156.848 212.072C154.912 212.072 154.352 211.624 154.352 209.848V199.16ZM161.552 200.728H161.408L161.696 200.488L161.904 200.296L162.736 200.648L162.688 200.84C162.672 203.752 162.64 206.056 162.48 206.744C162.352 207.48 162.016 207.784 161.52 207.912C161.088 208.024 160.384 208.04 159.904 208.024C159.872 207.688 159.744 207.192 159.6 206.92C160.048 206.936 160.624 206.936 160.832 206.936C161.104 206.936 161.28 206.872 161.392 206.456C161.52 205.944 161.552 203.848 161.552 200.728ZM152.256 197.624L153.36 197.976C152.32 200.664 150.672 203.384 148.96 205.176C148.832 204.904 148.496 204.28 148.288 204.008C149.872 202.456 151.36 200.056 152.256 197.624ZM150.56 201.752L151.712 200.584L151.728 200.6V212.264H150.56V201.752ZM166.096 200.136H170.96V210.6H166.096V209.512H169.84V201.208H166.096V200.136ZM165.376 200.136H166.496V211.88H165.376V200.136ZM166.016 204.584H170.432V205.656H166.016V204.584ZM167.824 197.528L169.12 197.768C168.8 198.76 168.4 199.864 168.08 200.584L167.12 200.344C167.392 199.576 167.696 198.36 167.824 197.528ZM173.232 200.088H178.144V201.208H173.232V200.088ZM177.728 200.088H178.848C178.848 200.088 178.848 200.536 178.848 200.712C178.592 208.056 178.368 210.536 177.728 211.32C177.376 211.784 177.008 211.928 176.448 211.976C175.904 212.04 174.96 212.008 174.064 211.96C174.032 211.608 173.888 211.112 173.664 210.792C174.704 210.872 175.664 210.888 176.032 210.888C176.352 210.888 176.544 210.84 176.72 210.632C177.248 210.056 177.504 207.4 177.728 200.344V200.088ZM173.568 197.496L174.72 197.768C174.128 200.152 173.184 202.504 172.08 204.024C171.872 203.832 171.376 203.496 171.088 203.336C172.176 201.928 173.056 199.72 173.568 197.496ZM172.832 204.248L173.76 203.704C174.672 204.84 175.776 206.392 176.288 207.336L175.264 207.976C174.784 207 173.712 205.416 172.832 204.248ZM183.648 202.968H191.568V204.024H183.648V202.968ZM180.96 206.616H195.104V207.736H180.96V206.616ZM187.392 205.448H188.624V210.856C188.624 211.576 188.432 211.928 187.824 212.104C187.248 212.28 186.32 212.296 184.864 212.296C184.784 211.96 184.544 211.464 184.352 211.144C185.584 211.176 186.672 211.176 186.992 211.16C187.312 211.144 187.392 211.064 187.392 210.824V205.448ZM191.2 202.968H191.504L191.76 202.904L192.528 203.496C191.44 204.6 189.76 205.704 188.24 206.36C188.096 206.152 187.776 205.832 187.568 205.656C188.912 205.08 190.448 204.024 191.2 203.208V202.968ZM181.28 200.232H194.832V203.8H193.648V201.32H182.416V203.8H181.28V200.232ZM192.72 197.672L193.968 198.088C193.296 199.08 192.432 200.152 191.76 200.856L190.816 200.456C191.456 199.704 192.272 198.52 192.72 197.672ZM182.368 198.232L183.376 197.752C184 198.424 184.656 199.336 184.928 199.976L183.856 200.488C183.6 199.88 182.96 198.92 182.368 198.232ZM186.48 197.88L187.52 197.496C188.064 198.248 188.64 199.288 188.832 199.96L187.728 200.392C187.536 199.72 187.008 198.664 186.48 197.88ZM199.328 200.68H210.416V201.848H199.328V200.68ZM198.624 205.368H209.84V206.52H198.624V205.368ZM196.88 210.6H211.168V211.768H196.88V210.6ZM203.408 197.576H204.64V211.192H203.408V197.576ZM199.808 197.832L201.04 198.104C200.336 200.584 199.216 202.952 197.936 204.488C197.696 204.28 197.152 203.928 196.848 203.768C198.16 202.344 199.2 200.12 199.808 197.832ZM213.024 208.088C212.96 207.848 212.768 207.256 212.624 206.936C212.992 206.872 213.376 206.472 213.904 205.896C214.464 205.32 216.24 203.096 217.424 200.92L218.48 201.576C217.12 203.768 215.472 205.912 213.872 207.432V207.48C213.872 207.48 213.024 207.848 213.024 208.088ZM213.024 208.088L212.96 207.08L213.568 206.664L218.064 205.848C218.016 206.184 218.016 206.664 218.032 206.904C213.936 207.736 213.376 207.896 213.024 208.088ZM212.912 204.248C212.848 203.992 212.656 203.4 212.512 203.08C212.816 203.016 213.12 202.648 213.456 202.104C213.84 201.576 215.056 199.496 215.728 197.56L216.88 198.088C216 200.088 214.816 202.136 213.648 203.576V203.624C213.648 203.624 212.912 203.992 212.912 204.248ZM212.912 204.248L212.896 203.336L213.488 202.952L216.688 202.616C216.624 202.936 216.592 203.384 216.576 203.624C213.664 204.008 213.2 204.104 212.912 204.248ZM212.624 210.088C213.984 209.816 216 209.32 218 208.84L218.128 209.912C216.272 210.408 214.32 210.904 212.864 211.288L212.624 210.088ZM218.768 198.424H225.296V199.528H218.768V198.424ZM224.944 198.424H225.184L225.424 198.36L226.272 198.808C224.784 201.864 221.536 203.992 218.432 205.144C218.272 204.84 217.952 204.376 217.712 204.136C220.576 203.176 223.696 201.128 224.944 198.632V198.424ZM217.936 210.728H227.376V211.848H217.936V210.728ZM222.064 206.424H223.264V211.144H222.064V206.424ZM218.896 205.688H226.608V206.808H218.896V205.688ZM222.096 202.712L222.752 201.864C224.32 202.472 226.4 203.464 227.456 204.136L226.768 205.128C225.744 204.424 223.68 203.384 222.096 202.712ZM233.552 205.048H234.608C234.608 205.048 234.608 205.384 234.592 205.544C234.336 209.608 234.096 211.128 233.6 211.64C233.328 211.96 233.024 212.072 232.56 212.104C232.144 212.136 231.392 212.12 230.624 212.088C230.608 211.768 230.496 211.352 230.304 211.064C231.104 211.144 231.84 211.16 232.128 211.16C232.4 211.16 232.56 211.144 232.704 210.968C233.072 210.6 233.328 209.128 233.552 205.24V205.048ZM228.496 208.648C229.6 208.408 231.168 207.992 232.752 207.576L232.864 208.504C231.408 208.904 229.936 209.32 228.736 209.64L228.496 208.648ZM229.024 198.296H233.248V199.32H229.024V198.296ZM232.896 198.296H233.936C233.792 200.552 233.52 203.592 233.312 205.304L232.256 205.368C232.512 203.56 232.8 200.488 232.896 198.296ZM229.696 200.52L230.72 200.584C230.608 202.328 230.416 204.664 230.224 206.04H229.2C229.392 204.616 229.6 202.248 229.696 200.52ZM229.568 205.048H233.728V206.04H229.568V205.048ZM239.056 198.072C240.016 199.688 241.952 201.64 243.584 202.68C243.36 202.952 243.088 203.464 242.976 203.8C241.248 202.536 239.264 200.408 238.176 198.632L239.056 198.072ZM238.656 197.448L239.712 197.8C238.576 200.28 236.704 202.44 234.704 203.832C234.576 203.608 234.208 203.112 233.984 202.872C235.92 201.656 237.68 199.688 238.656 197.448ZM236.528 202.52H241.296V203.576H236.528V202.52ZM235.472 205.208L236.4 204.984C236.88 206.184 237.328 207.768 237.472 208.808L236.496 209.064C236.368 208.024 235.92 206.44 235.472 205.208ZM238.288 204.808L239.232 204.68C239.552 205.896 239.84 207.448 239.92 208.488L238.928 208.648C238.864 207.608 238.576 206.024 238.288 204.808ZM241.904 204.904L243.008 205.16C242.272 207.048 241.264 209.432 240.416 210.888L239.536 210.616C240.352 209.128 241.376 206.648 241.904 204.904ZM234.96 210.44H243.12V211.496H234.96V210.44Z" fill="#2D3342"/>
<defs>
<linearGradient id="paint0_linear_1314_8411" x1="142.515" y1="16" x2="167.131" y2="53.3976" gradientUnits="userSpaceOnUse">
<stop stop-color="#5955B3"/>
<stop offset="1" stop-color="#6563CE"/>
</linearGradient>
</defs>
</svg>
