<svg width="188" height="39" viewBox="0 0 188 39" fill="none" xmlns="http://www.w3.org/2000/svg">
<rect x="1" y="1" width="186" height="37" rx="4" stroke="#6663CF" stroke-width="2"/>
<path d="M52.8728 23.336C50.9741 23.336 49.5395 23.0907 48.5688 22.6C47.5981 22.0987 47.1128 21.2613 47.1128 20.088C47.1128 19.6933 47.1608 19.2773 47.2568 18.84C47.3528 18.392 47.4541 17.9707 47.5608 17.576L48.7608 17.88C48.6968 18.1147 48.6221 18.4133 48.5368 18.776C48.4621 19.1387 48.4248 19.4533 48.4248 19.72C48.4248 20.2747 48.5635 20.7227 48.8408 21.064C49.1288 21.3947 49.6248 21.64 50.3288 21.8C51.0328 21.9493 52.0195 22.024 53.2888 22.024C55.7741 22.024 57.5875 21.8907 58.7288 21.624C59.8808 21.3467 60.4568 20.84 60.4568 20.104C60.4568 19.7093 60.3821 19.2453 60.2328 18.712C60.0835 18.168 59.8915 17.592 59.6568 16.984L60.8888 16.552C61.0915 17.0747 61.2781 17.6347 61.4488 18.232C61.6301 18.8293 61.7208 19.368 61.7208 19.848C61.7208 20.4773 61.5768 21.016 61.2888 21.464C61.0008 21.9013 60.5208 22.2587 59.8488 22.536C59.1768 22.8133 58.2701 23.016 57.1288 23.144C55.9981 23.272 54.5795 23.336 52.8728 23.336ZM55.5448 16.584C55.3208 16.584 55.1288 16.5093 54.9688 16.36C54.8195 16.2 54.7448 16.0133 54.7448 15.8C54.7448 15.5867 54.8195 15.4 54.9688 15.24C55.1288 15.08 55.3208 15 55.5448 15C55.7581 15 55.9395 15.08 56.0888 15.24C56.2488 15.4 56.3288 15.5867 56.3288 15.8C56.3288 16.0133 56.2488 16.2 56.0888 16.36C55.9395 16.5093 55.7581 16.584 55.5448 16.584ZM53.3528 16.584C53.1288 16.584 52.9368 16.5093 52.7768 16.36C52.6275 16.2 52.5528 16.0133 52.5528 15.8C52.5528 15.5867 52.6275 15.4 52.7768 15.24C52.9368 15.08 53.1288 15 53.3528 15C53.5661 15 53.7475 15.08 53.8968 15.24C54.0568 15.4 54.1368 15.5867 54.1368 15.8C54.1368 16.0133 54.0568 16.2 53.8968 16.36C53.7475 16.5093 53.5661 16.584 53.3528 16.584ZM63.9954 23L63.6754 11.576H64.9714L65.2914 23H63.9954ZM65.9937 26.712L65.5297 25.496C66.5644 25.1547 67.3697 24.7493 67.9457 24.28C68.5324 23.8107 68.943 23.32 69.1777 22.808C69.423 22.2853 69.5457 21.7787 69.5457 21.288C69.5457 20.7653 69.4284 20.2373 69.1937 19.704C68.9697 19.16 68.719 18.648 68.4417 18.168L69.6097 17.576C69.9084 18.1413 70.159 18.6853 70.3617 19.208C70.575 19.7307 70.7404 20.1893 70.8577 20.584C71.007 21.0427 71.199 21.3573 71.4337 21.528C71.679 21.688 72.0097 21.768 72.4257 21.768C72.6497 21.768 72.8097 21.832 72.9057 21.96C73.0124 22.0773 73.0657 22.2213 73.0657 22.392C73.0657 22.5627 72.991 22.7227 72.8417 22.872C72.6924 23.0107 72.5004 23.08 72.2657 23.08C71.8604 23.08 71.519 23.016 71.2417 22.888C70.975 22.76 70.7564 22.5893 70.5857 22.376C70.479 22.9733 70.255 23.5173 69.9137 24.008C69.5724 24.4987 69.1724 24.9253 68.7137 25.288C68.255 25.6613 67.7857 25.9653 67.3057 26.2C66.8257 26.4347 66.3884 26.6053 65.9937 26.712ZM72.2734 23.08L72.4334 21.768C72.9668 21.768 73.3828 21.7307 73.6814 21.656C73.9801 21.5707 74.2041 21.416 74.3534 21.192C74.5134 20.9573 74.6414 20.6213 74.7374 20.184C74.8334 19.7467 74.9508 19.176 75.0894 18.472L76.3374 18.712C76.2734 19 76.1988 19.3307 76.1134 19.704C76.0388 20.0773 76.0014 20.392 76.0014 20.648C76.0014 20.808 76.0121 20.9573 76.0334 21.096C76.0548 21.2347 76.1348 21.352 76.2734 21.448C76.4121 21.544 76.6468 21.624 76.9774 21.688C77.3081 21.7413 77.7828 21.768 78.4014 21.768C78.6254 21.768 78.7854 21.832 78.8814 21.96C78.9881 22.0773 79.0414 22.2213 79.0414 22.392C79.0414 22.5627 78.9668 22.7227 78.8174 22.872C78.6681 23.0107 78.4761 23.08 78.2414 23.08C77.5481 23.08 77.0041 23.0427 76.6094 22.968C76.2254 22.8827 75.9374 22.7653 75.7454 22.616C75.5641 22.456 75.4308 22.2587 75.3454 22.024C75.0361 22.4613 74.6521 22.7493 74.1934 22.888C73.7454 23.016 73.1054 23.08 72.2734 23.08ZM76.3054 26.104C76.0814 26.104 75.8894 26.024 75.7294 25.864C75.5801 25.7147 75.5054 25.5333 75.5054 25.32C75.5054 25.1067 75.5801 24.92 75.7294 24.76C75.8894 24.6 76.0814 24.52 76.3054 24.52C76.5188 24.52 76.7001 24.6 76.8494 24.76C77.0094 24.92 77.0894 25.1067 77.0894 25.32C77.0894 25.5333 77.0094 25.7147 76.8494 25.864C76.7001 26.024 76.5188 26.104 76.3054 26.104ZM74.1134 26.104C73.8894 26.104 73.6974 26.024 73.5374 25.864C73.3881 25.7147 73.3134 25.5333 73.3134 25.32C73.3134 25.1067 73.3881 24.92 73.5374 24.76C73.6974 24.6 73.8894 24.52 74.1134 24.52C74.3268 24.52 74.5081 24.6 74.6574 24.76C74.8174 24.92 74.8974 25.1067 74.8974 25.32C74.8974 25.5333 74.8174 25.7147 74.6574 25.864C74.5081 26.024 74.3268 26.104 74.1134 26.104ZM78.2422 23.08L78.4022 21.768C78.9355 21.768 79.3515 21.7307 79.6502 21.656C79.9489 21.5707 80.1729 21.416 80.3222 21.192C80.4822 20.9573 80.6102 20.6213 80.7062 20.184C80.8022 19.7467 80.9195 19.176 81.0582 18.472L82.3062 18.712C82.2422 19 82.1675 19.3307 82.0822 19.704C82.0075 20.0773 81.9702 20.392 81.9702 20.648C81.9702 20.808 81.9809 20.9573 82.0022 21.096C82.0235 21.2347 82.1035 21.352 82.2422 21.448C82.3809 21.544 82.6155 21.624 82.9462 21.688C83.2769 21.7413 83.7515 21.768 84.3702 21.768C84.5942 21.768 84.7542 21.832 84.8502 21.96C84.9569 22.0773 85.0102 22.2213 85.0102 22.392C85.0102 22.5627 84.9355 22.7227 84.7862 22.872C84.6369 23.0107 84.4449 23.08 84.2102 23.08C83.5169 23.08 82.9729 23.0427 82.5782 22.968C82.1942 22.8827 81.9062 22.7653 81.7142 22.616C81.5329 22.456 81.3995 22.2587 81.3142 22.024C81.0049 22.4613 80.6209 22.7493 80.1622 22.888C79.7142 23.016 79.0742 23.08 78.2422 23.08ZM82.2742 26.104C82.0502 26.104 81.8582 26.024 81.6982 25.864C81.5489 25.7147 81.4742 25.5333 81.4742 25.32C81.4742 25.1067 81.5489 24.92 81.6982 24.76C81.8582 24.6 82.0502 24.52 82.2742 24.52C82.4875 24.52 82.6689 24.6 82.8182 24.76C82.9782 24.92 83.0582 25.1067 83.0582 25.32C83.0582 25.5333 82.9782 25.7147 82.8182 25.864C82.6689 26.024 82.4875 26.104 82.2742 26.104ZM80.0822 26.104C79.8582 26.104 79.6662 26.024 79.5062 25.864C79.3569 25.7147 79.2822 25.5333 79.2822 25.32C79.2822 25.1067 79.3569 24.92 79.5062 24.76C79.6662 24.6 79.8582 24.52 80.0822 24.52C80.2955 24.52 80.4769 24.6 80.6262 24.76C80.7862 24.92 80.8662 25.1067 80.8662 25.32C80.8662 25.5333 80.7862 25.7147 80.6262 25.864C80.4769 26.024 80.2955 26.104 80.0822 26.104ZM84.2109 23.08L84.3709 21.768C84.9363 21.768 85.4749 21.72 85.9869 21.624C86.4989 21.528 86.9736 21.3947 87.4109 21.224C87.1549 20.9253 86.8669 20.6213 86.5469 20.312C86.2269 20.0027 85.8749 19.7093 85.4909 19.432C85.4269 19.3787 85.3629 19.2827 85.2989 19.144C85.2349 19.0053 85.1816 18.8613 85.1389 18.712C85.0963 18.5627 85.0749 18.4507 85.0749 18.376C85.0749 18.216 85.1763 18.024 85.3789 17.8C85.5816 17.576 85.8536 17.3627 86.1949 17.16C86.5363 16.9467 86.9256 16.7707 87.3629 16.632C87.8003 16.4933 88.2536 16.424 88.7229 16.424C89.3309 16.424 89.8216 16.5147 90.1949 16.696C90.5789 16.8773 90.8563 17.112 91.0269 17.4C91.2083 17.6773 91.2989 17.976 91.2989 18.296C91.2989 18.8187 91.1496 19.3413 90.8509 19.864C90.5523 20.376 90.1416 20.8453 89.6189 21.272C90.0776 21.4427 90.5736 21.5707 91.1069 21.656C91.6403 21.7307 92.1736 21.768 92.7069 21.768C92.9309 21.768 93.0909 21.832 93.1869 21.96C93.2936 22.0773 93.3469 22.2213 93.3469 22.392C93.3469 22.5627 93.2723 22.7227 93.1229 22.872C92.9736 23.0107 92.7816 23.08 92.5469 23.08C91.8429 23.08 91.1176 23 90.3709 22.84C89.6349 22.6693 88.9789 22.4133 88.4029 22.072C87.8163 22.3813 87.1656 22.6267 86.4509 22.808C85.7469 22.9893 85.0003 23.08 84.2109 23.08ZM86.2269 18.456C86.6323 18.7973 87.0109 19.1333 87.3629 19.464C87.7256 19.784 88.1256 20.1787 88.5629 20.648C89.0216 20.3493 89.3789 20.0293 89.6349 19.688C89.9016 19.336 90.0349 18.9893 90.0349 18.648C90.0349 18.4347 89.9176 18.2267 89.6829 18.024C89.4589 17.8213 89.0589 17.72 88.4829 17.72C88.1203 17.72 87.7149 17.7893 87.2669 17.928C86.8296 18.0667 86.4829 18.2427 86.2269 18.456ZM88.6109 14.776C88.3869 14.776 88.1949 14.7013 88.0349 14.552C87.8856 14.392 87.8109 14.2053 87.8109 13.992C87.8109 13.7787 87.8856 13.592 88.0349 13.432C88.1949 13.272 88.3869 13.192 88.6109 13.192C88.8243 13.192 89.0056 13.272 89.1549 13.432C89.3149 13.592 89.3949 13.7787 89.3949 13.992C89.3949 14.2053 89.3149 14.392 89.1549 14.552C89.0056 14.7013 88.8243 14.776 88.6109 14.776ZM92.5547 23.08L92.7147 21.768C93.248 21.768 93.664 21.7307 93.9627 21.656C94.2614 21.5707 94.4854 21.416 94.6347 21.192C94.7947 20.9573 94.9227 20.6213 95.0187 20.184C95.1147 19.7467 95.232 19.176 95.3707 18.472L96.6187 18.712C96.5547 19 96.48 19.3307 96.3947 19.704C96.32 20.0773 96.2827 20.392 96.2827 20.648C96.2827 20.808 96.2934 20.9573 96.3147 21.096C96.336 21.2347 96.416 21.352 96.5547 21.448C96.6934 21.544 96.928 21.624 97.2587 21.688C97.5894 21.7413 98.064 21.768 98.6827 21.768C98.9067 21.768 99.0667 21.832 99.1627 21.96C99.2694 22.0773 99.3227 22.2213 99.3227 22.392C99.3227 22.5627 99.248 22.7227 99.0987 22.872C98.9494 23.0107 98.7574 23.08 98.5227 23.08C97.8294 23.08 97.2854 23.0427 96.8907 22.968C96.5067 22.8827 96.2187 22.7653 96.0267 22.616C95.8454 22.456 95.712 22.2587 95.6267 22.024C95.3174 22.4613 94.9334 22.7493 94.4747 22.888C94.0267 23.016 93.3867 23.08 92.5547 23.08ZM96.8267 16.824C96.6027 16.824 96.4107 16.7493 96.2507 16.6C96.1014 16.44 96.0267 16.2533 96.0267 16.04C96.0267 15.8267 96.1014 15.64 96.2507 15.48C96.4107 15.32 96.6027 15.24 96.8267 15.24C97.04 15.24 97.2214 15.32 97.3707 15.48C97.5307 15.64 97.6107 15.8267 97.6107 16.04C97.6107 16.2533 97.5307 16.44 97.3707 16.6C97.2214 16.7493 97.04 16.824 96.8267 16.824ZM94.6347 16.824C94.4107 16.824 94.2187 16.7493 94.0587 16.6C93.9094 16.44 93.8347 16.2533 93.8347 16.04C93.8347 15.8267 93.9094 15.64 94.0587 15.48C94.2187 15.32 94.4107 15.24 94.6347 15.24C94.848 15.24 95.0294 15.32 95.1787 15.48C95.3387 15.64 95.4187 15.8267 95.4187 16.04C95.4187 16.2533 95.3387 16.44 95.1787 16.6C95.0294 16.7493 94.848 16.824 94.6347 16.824ZM98.5234 23.08L98.6674 21.768C99.2754 21.768 99.7021 21.7093 99.9474 21.592C100.193 21.4747 100.331 21.272 100.363 20.984C100.406 20.6853 100.417 20.264 100.395 19.72L100.091 11.576H101.387L101.707 19.576C101.739 20.3333 101.686 20.9733 101.547 21.496C101.419 22.0187 101.121 22.4133 100.651 22.68C100.193 22.9467 99.4834 23.08 98.5234 23.08ZM104.152 23L103.832 11.576H105.128L105.448 23H104.152ZM116.631 23.208C115.297 23.208 114.156 23.1707 113.207 23.096C112.257 23.032 111.537 22.968 111.047 22.904L111.191 21.656C111.479 21.6987 111.804 21.736 112.167 21.768C112.529 21.7893 112.929 21.8107 113.367 21.832C113.601 21.4693 113.852 21.112 114.119 20.76L113.815 11.576H115.111L115.399 19.288C116.039 18.648 116.732 18.1093 117.479 17.672C118.236 17.2347 119.004 17.016 119.783 17.016C120.359 17.016 120.86 17.1387 121.287 17.384C121.713 17.6187 122.039 17.9387 122.263 18.344C122.497 18.7493 122.615 19.208 122.615 19.72C122.615 20.3493 122.428 20.9307 122.055 21.464C121.692 21.9867 121.073 22.408 120.199 22.728C119.324 23.048 118.135 23.208 116.631 23.208ZM119.687 18.328C119.196 18.328 118.705 18.4507 118.215 18.696C117.735 18.9413 117.276 19.2507 116.839 19.624C116.401 19.9973 116.001 20.3867 115.639 20.792C115.287 21.1973 114.999 21.56 114.775 21.88C115.105 21.88 115.447 21.8853 115.799 21.896C116.161 21.896 116.535 21.896 116.919 21.896C118.327 21.896 119.42 21.7253 120.199 21.384C120.988 21.032 121.383 20.52 121.383 19.848C121.383 19.624 121.324 19.3947 121.207 19.16C121.089 18.9253 120.908 18.728 120.663 18.568C120.417 18.408 120.092 18.328 119.687 18.328ZM124.023 23.08C123.745 23.08 123.393 23.0533 122.967 23C122.551 22.936 122.124 22.8293 121.687 22.68C121.26 22.5307 120.897 22.3227 120.599 22.056L121.911 21.4C122.284 21.5493 122.668 21.6507 123.063 21.704C123.468 21.7467 123.841 21.768 124.183 21.768C124.407 21.768 124.567 21.832 124.663 21.96C124.769 22.0773 124.823 22.2213 124.823 22.392C124.823 22.5627 124.748 22.7227 124.599 22.872C124.449 23.0107 124.257 23.08 124.023 23.08ZM118.999 15.368C118.775 15.368 118.583 15.2933 118.423 15.144C118.273 14.984 118.199 14.7973 118.199 14.584C118.199 14.3707 118.273 14.184 118.423 14.024C118.583 13.864 118.775 13.784 118.999 13.784C119.212 13.784 119.393 13.864 119.543 14.024C119.703 14.184 119.783 14.3707 119.783 14.584C119.783 14.7973 119.703 14.984 119.543 15.144C119.393 15.2933 119.212 15.368 118.999 15.368ZM124.023 23.08L124.183 21.768C124.546 21.768 124.919 21.7627 125.303 21.752C125.698 21.7413 126.077 21.7147 126.439 21.672C126.183 21.4373 125.933 21.1333 125.687 20.76C125.442 20.3867 125.319 19.9333 125.319 19.4C125.319 18.8347 125.453 18.3227 125.719 17.864C125.986 17.3947 126.327 17.0267 126.743 16.76C127.17 16.4933 127.629 16.36 128.119 16.36C128.642 16.36 129.101 16.504 129.495 16.792C129.89 17.08 130.194 17.448 130.407 17.896C130.631 18.3333 130.743 18.792 130.743 19.272C130.743 19.7733 130.642 20.2213 130.439 20.616C130.237 21.0107 129.965 21.3573 129.623 21.656C130.05 21.688 130.487 21.7147 130.935 21.736C131.383 21.7573 131.773 21.768 132.103 21.768C132.327 21.768 132.487 21.832 132.583 21.96C132.69 22.0773 132.743 22.2213 132.743 22.392C132.743 22.5627 132.669 22.7227 132.519 22.872C132.37 23.0107 132.178 23.08 131.943 23.08C131.293 23.08 130.615 23.032 129.911 22.936C129.207 22.8293 128.589 22.7013 128.055 22.552C127.885 22.616 127.709 22.6747 127.527 22.728C127.037 22.8667 126.477 22.9573 125.847 23C125.218 23.0533 124.61 23.08 124.023 23.08ZM126.631 19.432C126.631 19.848 126.759 20.216 127.015 20.536C127.271 20.8453 127.559 21.096 127.879 21.288C128.317 21.096 128.685 20.84 128.983 20.52C129.282 20.2 129.431 19.816 129.431 19.368C129.431 19.1227 129.373 18.872 129.255 18.616C129.138 18.3493 128.978 18.1253 128.775 17.944C128.573 17.7627 128.338 17.672 128.071 17.672C127.815 17.672 127.575 17.7627 127.351 17.944C127.138 18.1147 126.962 18.3333 126.823 18.6C126.695 18.8667 126.631 19.144 126.631 19.432ZM127.975 14.712C127.751 14.712 127.559 14.6373 127.399 14.488C127.25 14.328 127.175 14.1413 127.175 13.928C127.175 13.7147 127.25 13.528 127.399 13.368C127.559 13.208 127.751 13.128 127.975 13.128C128.189 13.128 128.37 13.208 128.519 13.368C128.679 13.528 128.759 13.7147 128.759 13.928C128.759 14.1413 128.679 14.328 128.519 14.488C128.37 14.6373 128.189 14.712 127.975 14.712ZM131.945 23.08L132.089 21.768C133.188 21.768 134.255 21.608 135.289 21.288C136.324 20.9573 137.268 20.4933 138.121 19.896C137.705 19.5333 137.193 19.24 136.585 19.016C135.988 18.792 135.327 18.68 134.601 18.68C134.335 18.68 134.1 18.696 133.897 18.728C133.695 18.7493 133.449 18.792 133.161 18.856L132.905 17.64C133.503 17.4587 134.068 17.368 134.601 17.368C135.156 17.368 135.657 17.4373 136.105 17.576C136.553 17.704 136.959 17.864 137.321 18.056C137.695 18.248 138.041 18.44 138.361 18.632C138.692 18.824 139.012 18.9893 139.321 19.128C139.631 19.256 139.951 19.32 140.281 19.32H140.617L140.729 20.472C140.185 20.472 139.689 20.5627 139.241 20.744C138.793 20.9147 138.34 21.1333 137.881 21.4C137.433 21.656 136.937 21.912 136.393 22.168C135.86 22.424 135.236 22.6427 134.521 22.824C133.807 22.9947 132.948 23.08 131.945 23.08Z" fill="#4B5563"/>
</svg>
