<svg width="220" height="24" viewBox="0 0 220 24" fill="none" xmlns="http://www.w3.org/2000/svg">
<g clip-path="url(#clip0_1359_7636)">
<path d="M29.826 9.048H42.076V10.462H29.826V9.048ZM30.904 6.57H38.772V7.942H30.904V6.57ZM34.152 5.114H35.818V9.748H34.152V5.114ZM39.584 11.05L40.606 12.156C38.744 12.66 36.084 12.94 33.83 13.08C33.788 12.744 33.606 12.24 33.466 11.946C35.622 11.792 38.114 11.456 39.584 11.05ZM40.158 5.674L41.516 6.416C38.744 9.958 34.502 12.716 30.246 14.396C30.022 14.06 29.518 13.402 29.21 13.108C33.522 11.61 37.652 8.95 40.158 5.674ZM33.046 11.148L34.712 11.33C34.39 12.814 33.942 14.62 33.606 15.768L31.926 15.544C32.304 14.396 32.766 12.562 33.046 11.148ZM38.94 13.78H40.634C40.634 13.78 40.606 14.228 40.55 14.466C40.228 16.384 39.878 17.336 39.402 17.77C39.024 18.12 38.646 18.218 38.044 18.246C37.582 18.288 36.784 18.288 35.93 18.26C35.902 17.784 35.692 17.14 35.412 16.706C36.21 16.776 37.106 16.804 37.47 16.804C37.736 16.804 37.918 16.776 38.072 16.664C38.394 16.426 38.702 15.6 38.926 13.976L38.94 13.78ZM33.298 13.78H39.332V15.138H32.906L33.298 13.78ZM44.344 6.318L45.436 5.296C46.192 5.912 47.2 6.794 47.662 7.396L46.514 8.558C46.08 7.928 45.1 6.976 44.344 6.318ZM45.366 18.022L45.058 16.58L45.45 16.062L48.166 14.34C48.264 14.788 48.446 15.446 48.6 15.782C46.094 17.434 45.618 17.728 45.366 18.022ZM43.672 9.426H46.206V11.036H43.672V9.426ZM47.9 7.802H56.524V9.398H47.9V7.802ZM48.32 11.008H52.058V12.562H48.32V11.008ZM49.468 12.016H50.994V16.048L49.468 16.188V12.016ZM48.082 15.908C49.188 15.656 50.826 15.222 52.408 14.788L52.632 16.244C51.218 16.678 49.72 17.112 48.516 17.462L48.082 15.908ZM54.004 5.954L55.138 5.268C55.656 5.842 56.244 6.612 56.496 7.144L55.292 7.914C55.068 7.382 54.508 6.556 54.004 5.954ZM52.212 5.212H53.92C53.878 10.84 54.368 15.88 55.026 15.908C55.208 15.908 55.32 15.208 55.362 13.948C55.656 14.298 56.412 14.76 56.678 14.914C56.328 17.644 55.544 18.176 54.956 18.176C52.786 18.148 52.31 13.136 52.212 5.212ZM45.366 18.022C45.24 17.616 44.848 16.888 44.582 16.552C44.89 16.37 45.324 15.908 45.324 15.292V9.426H46.92V16.482C46.92 16.482 45.366 17.448 45.366 18.022ZM62.04 7.578C63.146 12.254 65.582 15.488 70.706 16.622C70.314 16.986 69.782 17.756 69.53 18.26C64.168 16.846 61.858 13.318 60.528 7.914L62.04 7.578ZM58.176 5.814H65.694V7.452H58.176V5.814ZM68.074 9.146H68.396L68.69 9.076L69.852 9.538C68.76 14.41 65.848 16.958 61.872 18.26C61.662 17.812 61.242 17.126 60.892 16.762C64.476 15.81 67.206 13.388 68.074 9.454V9.146ZM65.316 5.814H65.526L65.82 5.744L67.122 5.954C66.814 7.62 66.338 9.664 65.904 11.33L64.14 11.078C64.602 9.398 65.092 7.2 65.316 5.996V5.814ZM65.596 9.146H68.424V10.728H65.274L65.596 9.146ZM60.416 6.262H62.138V8.404C62.138 11.134 61.774 15.208 58.554 18.036C58.302 17.602 57.714 16.902 57.336 16.594C60.122 14.214 60.416 10.686 60.416 8.404V6.262ZM75.69 5.072L77.314 5.548C76.6 7.186 75.424 8.81 74.248 9.818C73.982 9.51 73.366 8.88 73.002 8.614C74.108 7.788 75.13 6.458 75.69 5.072ZM76.208 6.388H81.934V7.802H75.48L76.208 6.388ZM76.418 11.008V11.582H79.652V11.008H76.418ZM76.418 9.44V10H79.652V9.44H76.418ZM74.906 8.376H81.234V12.646H74.906V8.376ZM76.67 12.142L78.182 12.59C77.3 14.06 75.802 15.32 74.346 16.09C74.094 15.782 73.534 15.222 73.17 14.956C74.626 14.34 75.97 13.318 76.67 12.142ZM76.502 14.144C77.622 15.572 79.918 16.524 82.62 16.846C82.27 17.182 81.822 17.854 81.612 18.274C78.812 17.77 76.572 16.51 75.256 14.578L76.502 14.144ZM76.698 13.22H80.45V14.396H75.9L76.698 13.22ZM79.876 13.22H80.198L80.478 13.164L81.514 13.64C80.24 16.44 77.426 17.714 74.122 18.302C73.982 17.91 73.646 17.322 73.38 17C76.334 16.608 78.924 15.488 79.876 13.43V13.22ZM86.344 6.318L87.436 5.296C88.192 5.912 89.2 6.794 89.662 7.396L88.514 8.558C88.08 7.928 87.1 6.976 86.344 6.318ZM87.366 18.022L87.058 16.58L87.45 16.062L90.166 14.34C90.264 14.788 90.446 15.446 90.6 15.782C88.094 17.434 87.618 17.728 87.366 18.022ZM85.672 9.426H88.206V11.036H85.672V9.426ZM89.9 7.802H98.524V9.398H89.9V7.802ZM90.32 11.008H94.058V12.562H90.32V11.008ZM91.468 12.016H92.994V16.048L91.468 16.188V12.016ZM90.082 15.908C91.188 15.656 92.826 15.222 94.408 14.788L94.632 16.244C93.218 16.678 91.72 17.112 90.516 17.462L90.082 15.908ZM96.004 5.954L97.138 5.268C97.656 5.842 98.244 6.612 98.496 7.144L97.292 7.914C97.068 7.382 96.508 6.556 96.004 5.954ZM94.212 5.212H95.92C95.878 10.84 96.368 15.88 97.026 15.908C97.208 15.908 97.32 15.208 97.362 13.948C97.656 14.298 98.412 14.76 98.678 14.914C98.328 17.644 97.544 18.176 96.956 18.176C94.786 18.148 94.31 13.136 94.212 5.212ZM87.366 18.022C87.24 17.616 86.848 16.888 86.582 16.552C86.89 16.37 87.324 15.908 87.324 15.292V9.426H88.92V16.482C88.92 16.482 87.366 17.448 87.366 18.022Z" fill="#5955B3"/>
<g filter="url(#filter0_d_1359_7636)">
<path d="M9.60272 16.9412L4.65144 10.5529L9.60272 4.23528" stroke="#6663CF" stroke-width="2" stroke-miterlimit="10" stroke-linecap="round" stroke-linejoin="round"/>
<path d="M9.60272 16.9412L4.65144 10.5529L9.60272 4.23528" stroke="#6663CF" stroke-width="2" stroke-miterlimit="10" stroke-linecap="round" stroke-linejoin="round"/>
<path d="M23 10.5529L14.3949 10.5529L5.96203 10.5529" stroke="#6663CF" stroke-width="2" stroke-miterlimit="10" stroke-linecap="round" stroke-linejoin="round"/>
<path d="M23 10.5529L14.3949 10.5529L5.96203 10.5529" stroke="#6663CF" stroke-width="2" stroke-miterlimit="10" stroke-linecap="round" stroke-linejoin="round"/>
</g>
</g>
<defs>
<filter id="filter0_d_1359_7636" x="-0.348572" y="3.23523" width="28.3486" height="22.706" filterUnits="userSpaceOnUse" color-interpolation-filters="sRGB">
<feFlood flood-opacity="0" result="BackgroundImageFix"/>
<feColorMatrix in="SourceAlpha" type="matrix" values="0 0 0 0 0 0 0 0 0 0 0 0 0 0 0 0 0 0 127 0" result="hardAlpha"/>
<feOffset dy="4"/>
<feGaussianBlur stdDeviation="2"/>
<feComposite in2="hardAlpha" operator="out"/>
<feColorMatrix type="matrix" values="0 0 0 0 0 0 0 0 0 0 0 0 0 0 0 0 0 0 0.25 0"/>
<feBlend mode="normal" in2="BackgroundImageFix" result="effect1_dropShadow_1359_7636"/>
<feBlend mode="normal" in="SourceGraphic" in2="effect1_dropShadow_1359_7636" result="shape"/>
</filter>
<clipPath id="clip0_1359_7636">
<rect width="220" height="24" fill="white"/>
</clipPath>
</defs>
</svg>
