<svg width="140" height="24" viewBox="0 0 140 24" fill="none" xmlns="http://www.w3.org/2000/svg">
<g clip-path="url(#clip0_1359_7618)">
<path d="M29.848 5.2H36.952V6.944H29.848V5.2ZM38.264 9.84H44.552V11.68H38.264V9.84ZM41.208 11.136H43.112V19.456H41.208V11.136ZM37.496 5.84L39.8 6.384C39.784 6.544 39.672 6.624 39.384 6.672V10.304C39.384 12.896 39.016 16.848 36.472 19.424C36.216 19.008 35.496 18.352 35.048 18.128C37.288 15.856 37.496 12.672 37.496 10.288V5.84ZM30.36 8.144H32.184V12.24C32.184 14.4 31.96 17.504 30.712 19.472C30.408 19.136 29.608 18.528 29.208 18.32C30.264 16.592 30.36 14.08 30.36 12.224V8.144ZM42.76 4.576L44.44 6.016C42.728 6.864 40.472 7.52 38.52 7.952C38.408 7.52 38.104 6.816 37.864 6.416C39.656 5.968 41.608 5.264 42.76 4.576ZM31.416 8.144H36.616V13.616H31.416V11.904H34.76V9.872H31.416V8.144ZM45.864 6.352H60.136V8.144H45.864V6.352ZM50.184 12.112H57.144V13.712H50.184V12.112ZM48.76 9.408H56.856V11.088H50.664V19.424H48.76V9.408ZM56.472 9.408H58.344V17.36C58.344 18.304 58.168 18.832 57.512 19.136C56.872 19.424 55.96 19.44 54.664 19.44C54.584 18.912 54.328 18.096 54.072 17.6C54.904 17.648 55.848 17.632 56.12 17.632C56.376 17.632 56.472 17.552 56.472 17.328V9.408ZM50.824 4.4L52.808 4.848C51.688 8.464 49.768 12.144 46.648 14.32C46.376 13.888 45.768 13.2 45.384 12.832C48.232 10.96 50.024 7.52 50.824 4.4ZM50.184 14.752H57.144V16.352H50.184V14.752ZM64.152 7.984H73.864V9.808H64.152V7.984ZM63.688 11.84H74.344V13.648H63.688V11.84ZM69.832 12.432C70.6 14.96 72.2 16.896 74.872 17.728C74.424 18.128 73.848 18.912 73.576 19.44C70.696 18.32 69.112 16.016 68.184 12.784L69.832 12.432ZM71.544 4.416L73.576 5.088C72.936 6.16 72.216 7.264 71.64 7.984L70.056 7.376C70.584 6.56 71.208 5.328 71.544 4.416ZM64.632 5.36L66.216 4.576C66.904 5.392 67.608 6.512 67.912 7.28L66.232 8.192C65.976 7.408 65.288 6.224 64.632 5.36ZM67.896 8.32H69.896V11.904C69.896 14.464 69.032 17.52 64.36 19.504C64.088 19.072 63.48 18.384 63.016 18C67.48 16.4 67.896 13.856 67.896 11.888V8.32ZM77.8 10.624H92.2V12.528H77.8V10.624ZM84.136 6.128H86.184V16.976C86.184 18.16 85.912 18.704 85.144 19.008C84.392 19.328 83.208 19.376 81.608 19.376C81.496 18.8 81.128 17.888 80.824 17.344C82.008 17.392 83.272 17.392 83.656 17.376C84.008 17.376 84.136 17.28 84.136 16.96V6.128ZM78.888 5.44H91.096V7.344H78.888V5.44ZM94.232 5.712L95.528 4.592C96.328 5.344 97.416 6.416 97.928 7.12L96.552 8.384C96.088 7.664 95.032 6.528 94.232 5.712ZM95.624 19.12L95.192 17.424L95.512 16.832L98.456 14.24C98.632 14.752 98.952 15.472 99.176 15.824C96.392 18.288 95.896 18.736 95.624 19.12ZM93.544 9.328H96.6V11.056H93.544V9.328ZM98.472 12.528H108.392V14.256H98.472V12.528ZM104.776 13.424C105.64 14.896 107.288 16.48 108.776 17.296C108.344 17.648 107.768 18.304 107.464 18.784C105.976 17.712 104.424 15.76 103.496 13.92L104.776 13.424ZM100.936 9.056V10.096H105.848V9.056H100.936ZM100.936 6.576V7.6H105.848V6.576H100.936ZM99.208 5.056H107.656V11.616H99.208V5.056ZM102.2 13.424L103.512 13.888C102.568 15.92 100.936 17.872 99.208 18.912C98.92 18.464 98.36 17.792 97.96 17.456C99.656 16.64 101.336 15.04 102.2 13.424ZM102.632 5.776H104.376V10.848H104.456V19.424H102.568V10.848H102.632V5.776ZM95.624 19.12C95.4 18.768 94.808 18.144 94.488 17.904C94.872 17.536 95.448 16.768 95.448 15.808V9.328H97.288V16.704C97.288 16.704 95.624 18.4 95.624 19.12ZM119.016 12.112H120.92V18.576H119.016V12.112ZM115.816 11.424H124.152V13.072H115.816V11.424ZM115.208 17.424H124.504V19.088H115.208V17.424ZM116.2 14.4H123.752V16.016H116.2V14.4ZM118.104 6.624V8.832H121.848V6.624H118.104ZM116.328 5.008H123.72V10.448H116.328V5.008ZM111.944 5.904H113.816V19.424H111.944V5.904ZM109.64 8.912H115.512V10.704H109.64V8.912ZM112.056 9.632L113.176 10.128C112.568 12.416 111.432 15.264 110.2 16.848C110.024 16.288 109.608 15.488 109.304 15.008C110.424 13.728 111.544 11.408 112.056 9.632ZM114.44 4.576L115.72 6.064C114.088 6.688 111.864 7.12 109.992 7.36C109.912 6.944 109.672 6.304 109.448 5.904C111.224 5.6 113.208 5.136 114.44 4.576ZM113.768 11.136C114.168 11.472 115.56 12.912 115.864 13.28L114.776 14.784C114.392 14.016 113.432 12.56 112.936 11.888L113.768 11.136Z" fill="#5955B3"/>
<g filter="url(#filter0_d_1359_7618)">
<path d="M8.40009 16.9412L2.96 10.5529L8.40009 4.23528" stroke="#6663CF" stroke-width="2" stroke-miterlimit="10" stroke-linecap="round" stroke-linejoin="round"/>
<path d="M8.40009 16.9412L2.96 10.5529L8.40009 4.23528" stroke="#6663CF" stroke-width="2" stroke-miterlimit="10" stroke-linecap="round" stroke-linejoin="round"/>
<path d="M23.12 10.5529H13.6653L4.4 10.5529" stroke="#6663CF" stroke-width="2" stroke-miterlimit="10" stroke-linecap="round" stroke-linejoin="round"/>
<path d="M23.12 10.5529H13.6653L4.4 10.5529" stroke="#6663CF" stroke-width="2" stroke-miterlimit="10" stroke-linecap="round" stroke-linejoin="round"/>
</g>
</g>
<defs>
<filter id="filter0_d_1359_7618" x="-2.04001" y="3.23526" width="30.16" height="22.7059" filterUnits="userSpaceOnUse" color-interpolation-filters="sRGB">
<feFlood flood-opacity="0" result="BackgroundImageFix"/>
<feColorMatrix in="SourceAlpha" type="matrix" values="0 0 0 0 0 0 0 0 0 0 0 0 0 0 0 0 0 0 127 0" result="hardAlpha"/>
<feOffset dy="4"/>
<feGaussianBlur stdDeviation="2"/>
<feComposite in2="hardAlpha" operator="out"/>
<feColorMatrix type="matrix" values="0 0 0 0 0 0 0 0 0 0 0 0 0 0 0 0 0 0 0.25 0"/>
<feBlend mode="normal" in2="BackgroundImageFix" result="effect1_dropShadow_1359_7618"/>
<feBlend mode="normal" in="SourceGraphic" in2="effect1_dropShadow_1359_7618" result="shape"/>
</filter>
<clipPath id="clip0_1359_7618">
<rect width="140" height="24" fill="white"/>
</clipPath>
</defs>
</svg>
