<svg width="325" height="290" viewBox="0 0 325 290" fill="none" xmlns="http://www.w3.org/2000/svg">
<rect width="325" height="290" rx="5" fill="white"/>
<path d="M32.3394 133V131.409L37.2613 126.31C37.7869 125.756 38.2201 125.27 38.561 124.854C38.9067 124.432 39.1647 124.032 39.3352 123.653C39.5056 123.275 39.5909 122.872 39.5909 122.446C39.5909 121.963 39.4772 121.546 39.2499 121.196C39.0227 120.841 38.7125 120.569 38.3196 120.379C37.9266 120.185 37.4838 120.088 36.9914 120.088C36.4706 120.088 36.016 120.195 35.6278 120.408C35.2395 120.621 34.9412 120.921 34.7329 121.31C34.5246 121.698 34.4204 122.152 34.4204 122.673H32.3252C32.3252 121.788 32.5288 121.014 32.936 120.351C33.3432 119.688 33.9019 119.174 34.6122 118.81C35.3224 118.44 36.1297 118.256 37.034 118.256C37.9479 118.256 38.7528 118.438 39.4488 118.803C40.1496 119.162 40.6964 119.655 41.0894 120.28C41.4824 120.9 41.6789 121.601 41.6789 122.382C41.6789 122.922 41.5771 123.45 41.3735 123.966C41.1747 124.482 40.8267 125.057 40.3295 125.692C39.8323 126.321 39.141 127.086 38.2556 127.986L35.365 131.011V131.118H41.9133V133H32.3394ZM46.5173 133.135C46.1291 133.135 45.7953 132.998 45.5159 132.723C45.2366 132.444 45.0969 132.107 45.0969 131.714C45.0969 131.326 45.2366 130.995 45.5159 130.72C45.7953 130.441 46.1291 130.301 46.5173 130.301C46.9056 130.301 47.2394 130.441 47.5188 130.72C47.7981 130.995 47.9378 131.326 47.9378 131.714C47.9378 131.975 47.8715 132.214 47.7389 132.432C47.6111 132.645 47.4406 132.815 47.2276 132.943C47.0145 133.071 46.7778 133.135 46.5173 133.135ZM68.073 119.84H79.773V121.28H68.073V119.84ZM70.893 116.64H72.373V123.64C72.373 126.24 71.973 129.52 69.333 131.52C69.133 131.24 68.553 130.66 68.233 130.46C70.633 128.62 70.893 125.94 70.893 123.62V116.64ZM67.933 124.88H80.153V126.3H67.933V124.88ZM66.513 123.44V131.18H65.053V124.86H62.273V123.44H66.513ZM65.753 130.44C66.433 130.44 66.893 131.04 67.993 131.74C69.293 132.54 70.973 132.68 73.253 132.68C75.613 132.68 78.613 132.52 80.553 132.3C80.393 132.72 80.153 133.44 80.113 133.86C78.693 133.96 75.113 134.08 73.213 134.08C70.733 134.08 69.053 133.84 67.653 132.98C66.813 132.44 66.193 131.78 65.733 131.78C65.053 131.78 64.073 132.96 63.053 134.32L62.053 132.96C63.413 131.5 64.753 130.44 65.753 130.44ZM62.893 117.46L63.973 116.62C65.093 117.6 66.453 118.98 67.113 119.88L65.953 120.82C65.353 119.9 64.013 118.46 62.893 117.46ZM75.693 116.62H77.173V131.42H75.693V116.62ZM85.833 117.42H91.493V118.94H85.833V117.42ZM90.733 117.42H92.273C92.273 121 92.713 128.6 100.613 133.28C100.273 133.54 99.673 134.18 99.393 134.54C91.393 129.7 90.733 121.18 90.733 117.42ZM90.173 121.34L91.873 121.66C90.433 127.76 87.793 131.98 83.373 134.58C83.093 134.26 82.413 133.64 82.013 133.36C86.453 131.04 88.953 127 90.173 121.34ZM104.12 133.135C103.731 133.135 103.398 132.998 103.118 132.723C102.839 132.444 102.699 132.107 102.699 131.714C102.699 131.326 102.839 130.995 103.118 130.72C103.398 130.441 103.731 130.301 104.12 130.301C104.508 130.301 104.842 130.441 105.121 130.72C105.4 130.995 105.54 131.326 105.54 131.714C105.54 131.975 105.474 132.214 105.341 132.432C105.213 132.645 105.043 132.815 104.83 132.943C104.617 133.071 104.38 133.135 104.12 133.135ZM104.12 125.195C103.731 125.195 103.398 125.055 103.118 124.776C102.839 124.496 102.699 124.162 102.699 123.774C102.699 123.386 102.839 123.054 103.118 122.78C103.398 122.5 103.731 122.361 104.12 122.361C104.508 122.361 104.842 122.5 105.121 122.78C105.4 123.054 105.54 123.386 105.54 123.774C105.54 124.035 105.474 124.274 105.341 124.491C105.213 124.705 105.043 124.875 104.83 125.003C104.617 125.131 104.38 125.195 104.12 125.195Z" fill="#2D3342"/>
<path opacity="0.2" fill-rule="evenodd" clip-rule="evenodd" d="M324.665 269.81C324.613 280.783 315.724 289.668 304.75 289.713H171.145C177.237 275.753 202.684 247.832 255.738 247.832C308.791 247.832 323.794 226.116 324.665 215.258V269.81Z" fill="#89AFFF"/>
<path opacity="0.2" fill-rule="evenodd" clip-rule="evenodd" d="M149.338 0C147.452 10.5057 135.894 40.0486 88.2781 53.4492C42.0803 66.4509 11.6464 61.9796 0.329107 57.7773L0.329104 20C0.329102 8.95432 9.28337 1.09491e-05 20.3291 1.00855e-05L149.338 0Z" fill="#89AFFF"/>
<path d="M135.164 23.744L136.868 25.856C133.244 26.696 128.084 27.152 123.788 27.344C123.716 26.72 123.404 25.76 123.116 25.184C127.34 24.968 132.236 24.464 135.164 23.744ZM123.884 28.112L126.044 27.392C126.596 28.328 127.22 29.6 127.46 30.416L125.156 31.232C124.964 30.416 124.412 29.072 123.884 28.112ZM128.492 27.584L130.724 27.08C131.132 28.064 131.564 29.384 131.732 30.2L129.356 30.824C129.236 29.984 128.828 28.616 128.492 27.584ZM134.276 26.768L136.94 27.536C136.076 29.144 135.14 30.92 134.348 32.048L132.236 31.328C132.956 30.104 133.844 28.16 134.276 26.768ZM122.876 31.064H137.468V35H134.828V33.416H125.42V34.976H122.876V31.064ZM124.124 35.48H134.348V37.808H124.124V35.48ZM133.46 35.48H133.988L134.444 35.36L136.124 36.032C134.228 42.056 129.38 44.864 123.188 46.112C122.972 45.392 122.396 44.192 121.916 43.592C127.604 42.752 132.02 40.352 133.46 35.816V35.48ZM127.148 37.496C128.852 40.832 132.5 42.92 137.612 43.688C137.012 44.264 136.268 45.392 135.908 46.16C130.412 45.08 126.836 42.512 124.7 38.192L127.148 37.496ZM114.98 35.744C116.9 35.312 119.756 34.544 122.468 33.8L122.852 36.392C120.38 37.136 117.74 37.904 115.628 38.504L114.98 35.744ZM115.292 28.184H122.636V30.824H115.292V28.184ZM117.86 23.648H120.524V43.112C120.524 44.456 120.284 45.2 119.54 45.632C118.82 46.088 117.788 46.184 116.204 46.184C116.156 45.464 115.82 44.288 115.484 43.496C116.348 43.544 117.188 43.544 117.476 43.52C117.764 43.52 117.86 43.448 117.86 43.112V23.648ZM148.892 25.64H159.356V28.4H148.892V25.64ZM158.372 25.64H158.852L159.356 25.52L161.228 26.096C159.932 36.68 155.756 42.872 149.156 46.16C148.772 45.392 147.956 44.264 147.332 43.712C153.284 41.168 157.268 35.096 158.372 26.24V25.64ZM152.18 28.64C153.668 36.44 156.14 40.568 162.068 43.76C161.3 44.312 160.436 45.368 160.028 46.232C153.74 42.344 151.196 37.76 149.54 29.192L152.18 28.64ZM139.484 28.472H148.844V31.136H139.484V28.472ZM143.108 23.624H145.964V46.16H143.108V23.624ZM143.084 30.296L145.148 30.896C144.236 34.856 142.58 39.632 140.468 42.248C140.18 41.384 139.46 40.304 138.98 39.584C140.804 37.28 142.412 33.488 143.084 30.296ZM145.82 32.768C146.516 33.32 148.988 35.72 149.54 36.248L148.076 38.912C147.26 37.616 145.436 35.336 144.572 34.28L145.82 32.768ZM165.404 33.488H183.788V46.04H180.956V35.528H168.116V46.16H165.404V33.488ZM172.196 31.04L175.388 31.544C174.644 32.816 173.804 33.968 173.156 34.76L170.66 34.184C171.236 33.272 171.86 31.976 172.196 31.04ZM167.036 43.304H182.132V45.344H167.036V43.304ZM177.404 36.656H177.788L178.172 36.584L179.588 37.256C178.028 40.616 174.644 42.68 171.116 43.736C170.852 43.256 170.3 42.536 169.892 42.128C173.036 41.336 176.228 39.488 177.404 36.992V36.656ZM173.708 35.696L175.724 36.056C174.404 38 172.484 39.68 169.676 41.048C169.388 40.592 168.788 39.968 168.356 39.68C170.924 38.624 172.748 37.112 173.708 35.696ZM173.684 36.656H178.148V38.048H172.556L173.684 36.656ZM169.052 38.048L170.396 36.8C173.444 38.048 177.524 40.064 179.636 41.504L178.196 42.968C176.204 41.528 172.172 39.392 169.052 38.048ZM173.012 23.624H175.988V26.528H173.012V23.624ZM170.252 27.224H173.228C172.628 30.368 171.116 32.168 165.092 33.08C164.876 32.408 164.228 31.328 163.7 30.776C168.788 30.224 169.796 29.192 170.252 27.224ZM175.364 27.08H178.22V29.456C178.22 30.032 178.34 30.104 178.988 30.104C179.3 30.104 180.548 30.104 180.908 30.104C181.46 30.104 181.58 29.864 181.652 28.688C182.204 29.048 183.284 29.384 184.004 29.528C183.764 31.64 183.068 32.216 181.244 32.216C180.716 32.216 179.06 32.216 178.556 32.216C175.964 32.216 175.364 31.592 175.364 29.456V27.08ZM164.012 25.304H185.3V29.264H182.396V27.512H166.772V29.648H164.012V25.304ZM189.02 25.976H208.004V45.656H204.836V28.904H192.044V45.68H189.02V25.976ZM190.46 40.76H206.804V43.736H190.46V40.76Z" fill="url(#paint0_linear_1398_7522)"/>
<path d="M36.3068 73.4545V88H34.1051V75.6562H34.0198L30.5397 77.929V75.8267L34.169 73.4545H36.3068ZM43.5173 88.1349C43.1291 88.1349 42.7953 87.9976 42.5159 87.723C42.2366 87.4437 42.0969 87.1075 42.0969 86.7145C42.0969 86.3262 42.2366 85.9948 42.5159 85.7202C42.7953 85.4408 43.1291 85.3011 43.5173 85.3011C43.9056 85.3011 44.2394 85.4408 44.5188 85.7202C44.7981 85.9948 44.9378 86.3262 44.9378 86.7145C44.9378 86.9749 44.8715 87.214 44.7389 87.4318C44.6111 87.6449 44.4406 87.8153 44.2276 87.9432C44.0145 88.071 43.7778 88.1349 43.5173 88.1349ZM62.08 71.2H63.6V78.02H62.08V71.2ZM57.72 78.72V82.3H68.18V78.72H57.72ZM56.3 77.3H69.7V83.7H56.3V77.3ZM62.78 73.34H71.2V74.76H62.78V73.34ZM59.78 85.44L61.22 85.32C61.5 86.62 61.72 88.26 61.74 89.24L60.2 89.44C60.2 88.42 60.04 86.74 59.78 85.44ZM63.92 85.46L65.28 85.18C65.9 86.38 66.56 88 66.8 89.02L65.32 89.38C65.12 88.38 64.52 86.72 63.92 85.46ZM68 85.3L69.34 84.8C70.36 86.04 71.52 87.74 72 88.86L70.58 89.44C70.12 88.34 69.02 86.58 68 85.3ZM56.54 84.92L57.96 85.28C57.3 86.84 56.28 88.54 55.2 89.6L53.82 88.92C54.88 88.02 55.92 86.4 56.54 84.92ZM75.78 74.32H90.34V75.8H75.78V74.32ZM74.3 78.94H91.74V80.44H74.3V78.94ZM82.26 71.22H83.84V88H82.26V71.22ZM88.5 81.98H90.02V89.62H88.5V81.98ZM75.94 81.98H77.52V87H89.5V88.48H75.94V81.98ZM99.28 76.78H106.7V78.08H99.28V76.78ZM94.3 87.88H111.72V89.14H94.3V87.88ZM95.5 71.98H101.42V73.24H95.5V71.98ZM100.94 71.98H101.2L101.48 71.9L102.44 72.4C100.94 76.24 97.6 79.1 94.42 80.58C94.22 80.26 93.82 79.74 93.52 79.48C96.46 78.24 99.7 75.44 100.94 72.26V71.98ZM104.32 71.26C105.86 74.66 108.92 77.76 112.38 79.1C112.02 79.4 111.6 79.94 111.36 80.34C107.82 78.74 104.76 75.48 103.06 71.68L104.32 71.26ZM94.96 74.8L95.76 73.98C96.82 74.58 98.06 75.5 98.64 76.22L97.8 77.14C97.2 76.44 96 75.44 94.96 74.8ZM108.34 71.38L109.48 72.18C108.44 73.16 107.06 74.24 106.02 74.94L105.1 74.22C106.12 73.48 107.54 72.26 108.34 71.38ZM110.58 73.74L111.7 74.54C110.64 75.54 109.2 76.62 108.1 77.3L107.18 76.58C108.26 75.86 109.74 74.64 110.58 73.74ZM98.92 80.96V83.6H107.02V80.96H98.92ZM97.44 79.72H108.56V84.84H97.44V79.72ZM98.6 85.16L99.98 84.78C100.54 85.64 101.06 86.82 101.26 87.6L99.84 88.04C99.64 87.26 99.14 86.04 98.6 85.16ZM106.04 84.72L107.5 85.12C106.96 86.18 106.36 87.28 105.86 88.06L104.58 87.68C105.08 86.9 105.72 85.6 106.04 84.72ZM114.32 78.78H131.8V80.12H114.32V78.78ZM122.2 79.46H123.74V87.98C123.74 88.84 123.52 89.22 122.88 89.42C122.26 89.64 121.26 89.66 119.7 89.64C119.6 89.26 119.38 88.72 119.18 88.32C120.34 88.38 121.46 88.38 121.8 88.36C122.12 88.34 122.2 88.24 122.2 87.96V79.46ZM123.56 80.32C125 83.76 128.06 86.44 132.06 87.52C131.72 87.82 131.28 88.4 131.06 88.82C126.98 87.52 123.98 84.6 122.34 80.68L123.56 80.32ZM129.18 80.6L130.46 81.54C129.12 82.7 127.36 83.96 126.02 84.78L124.98 83.94C126.32 83.1 128.12 81.68 129.18 80.6ZM115.68 81.66L116.68 80.74C117.94 81.44 119.58 82.48 120.38 83.26L119.32 84.3C118.56 83.52 116.98 82.4 115.68 81.66ZM114.36 86.92C116.4 86.16 119.68 84.84 122.72 83.58L123.02 84.86C120.28 86.06 117.34 87.34 115.16 88.26L114.36 86.92ZM116.28 75.56H128.26V76.94H116.28V75.56ZM127.82 72.32H127.98L128.26 72.26L129.44 72.34C129.38 74.48 129.2 77.38 129 79.56L127.46 79.48C127.64 77.26 127.78 74.12 127.82 72.52V72.32ZM115.68 72.32H128.24V73.72H115.68V72.32ZM145.36 71.22H146.86V74.66H145.36V71.22ZM140.66 73.98H151.96V77.86H150.5V75.32H142.08V77.88H140.66V73.98ZM144.68 76.04L146.16 76.26C145.24 79.22 143.84 83.12 142.88 85.52L141.5 85.06C142.48 82.78 143.84 78.86 144.68 76.04ZM140.46 79.24H152.18V80.6H140.46V79.24ZM148.7 80.06L150.3 80.14C149.38 86.06 146.4 88.42 140.54 89.64C140.44 89.28 140.04 88.66 139.78 88.34C145.32 87.42 148.04 85.3 148.7 80.06ZM142.4 84.62L143.26 83.52C146.5 84.56 150.32 86.54 152.18 88.36L151.2 89.6C149.42 87.8 145.66 85.72 142.4 84.62ZM133.56 81.84C135.28 81.4 137.84 80.64 140.32 79.92L140.5 81.28C138.22 82 135.82 82.76 133.96 83.3L133.56 81.84ZM133.82 75.24H140.3V76.64H133.82V75.24ZM136.6 71.22H138.06V87.88C138.06 88.7 137.86 89.12 137.34 89.34C136.82 89.58 136.02 89.62 134.68 89.6C134.64 89.24 134.42 88.64 134.24 88.24C135.14 88.26 135.98 88.26 136.22 88.26C136.5 88.26 136.6 88.16 136.6 87.88V71.22ZM161.56 72.22H170.42V73.58H161.56V72.22ZM161.68 79.22H169.9V80.66H161.68V79.22ZM160.24 87.58H172.18V89.04H160.24V87.58ZM169.82 72.22H171.32C171.02 77.38 170.46 84.48 169.98 88.44H168.46C169 84.4 169.6 77.28 169.82 72.22ZM165.1 72.92H166.62C166.12 77.9 165.3 84.74 164.7 88.56H163.18C163.88 84.66 164.7 77.78 165.1 72.92ZM156.18 71.2L157.54 71.58C156.84 73.94 155.66 76.32 154.28 77.9C154.16 77.56 153.74 76.84 153.5 76.5C154.66 75.18 155.62 73.24 156.18 71.2ZM156 73.5H161.06V74.94H155.7L156 73.5ZM156.66 89.5L156.42 88.12L156.92 87.52L160.64 85.36C160.7 85.74 160.86 86.32 161 86.62C157.52 88.78 156.96 89.14 156.66 89.5ZM155 77.06H160.58V78.4H155V77.06ZM153.96 81.14H161.14V82.5H153.96V81.14ZM156.66 89.5C156.5 89.22 156.12 88.7 155.88 88.46C156.24 88.18 156.94 87.5 156.94 86.52V77.42H158.3V87.62C158.3 87.62 156.66 88.94 156.66 89.5Z" fill="#2D3342"/>
<path d="M267.363 181.853C147.038 162.097 55.956 162.547 33.0555 202.554C8.53827 245.385 426.341 222.708 267.363 181.853Z" stroke="#5A56B4" stroke-width="2" stroke-linecap="round"/>
<path d="M67 196.32L69.88 197.02C68.56 200.16 66.78 203.68 65.3 205.98L63.08 205.28C64.52 202.86 66.14 199.18 67 196.32ZM60.76 204.54C64.54 204.42 70.4 204.14 75.64 203.88L75.58 206.22C70.44 206.58 64.88 206.88 61.08 207.08L60.76 204.54ZM70.88 200.74L73.22 199.66C74.98 201.82 76.86 204.66 77.82 206.58L75.34 207.9C74.5 205.98 72.56 202.94 70.88 200.74ZM64.88 189.48L67.62 190.24C66.34 193.4 64.24 196.5 62.2 198.42C61.68 197.92 60.52 197.04 59.86 196.64C61.94 195 63.84 192.26 64.88 189.48ZM72.94 189.5C74.12 191.86 76.4 194.66 78.24 196.34C77.58 196.84 76.66 197.8 76.2 198.44C74.32 196.42 72.02 193.26 70.54 190.48L72.94 189.5ZM80.58 190.22H95.46V192.5H80.58V190.22ZM80.76 193.94H92.6V196.02H80.76V193.94ZM94.62 190.22H97.08V204.76C97.08 206.14 96.84 206.88 95.98 207.3C95.14 207.7 93.88 207.76 92.06 207.76C91.98 207.04 91.62 205.84 91.28 205.16C92.42 205.22 93.72 205.22 94.12 205.2C94.48 205.2 94.62 205.1 94.62 204.72V190.22ZM81.8 197.5H84.14V205.76H81.8V197.5ZM83.88 197.5H91.56V204.3H83.88V202.24H89.2V199.58H83.88V197.5ZM107.52 196.44H118.18V198.76H107.52V196.44ZM114.28 197.8C114.98 201 116.4 204 118.54 205.52C118.02 205.94 117.28 206.8 116.94 207.4C114.52 205.48 113.04 202.14 112.2 198.28L114.28 197.8ZM108.74 207.86C108.6 207.32 108.18 206.36 107.84 205.92C108.26 205.7 108.84 205.24 108.84 204.36V189.38H111.14V205.92C111.14 205.92 108.74 207.04 108.74 207.86ZM102.5 189.02H104.58V207.8H102.5V189.02ZM99.88 192.7H106.2V194.82H101.72V203.68H99.88V192.7ZM105.36 192.7H107.1V201.46C107.1 202.24 107.04 202.86 106.58 203.22C106.14 203.56 105.62 203.62 104.88 203.62C104.86 203.04 104.66 202.14 104.4 201.6C104.78 201.62 105.08 201.62 105.2 201.6C105.32 201.6 105.36 201.56 105.36 201.4V192.7ZM115.42 189.8L117.66 190.5C116.56 192.66 114.76 194.86 113.06 196.22C112.72 195.78 111.86 194.86 111.38 194.44C112.96 193.34 114.52 191.58 115.42 189.8ZM108.74 207.86L108.42 205.74L109.26 204.98L113.58 203.44C113.56 204.12 113.66 205.14 113.76 205.68C109.88 207.22 109.16 207.54 108.74 207.86ZM121.88 192.02H124.4V196.58C124.4 199.9 123.98 204.86 121.62 207.96C121.18 207.52 120.1 206.76 119.5 206.5C121.68 203.64 121.88 199.5 121.88 196.58V192.02ZM127.38 189.5L129.76 188.9C130.2 189.78 130.68 190.92 130.92 191.68L128.44 192.4C128.24 191.62 127.76 190.4 127.38 189.5ZM123.46 192.02H136.32V200.7H133.86V194.26H123.46V192.02ZM123.5 197.42H135.1V199.64H123.5V197.42ZM141.86 192.26H148V205.74H141.86V203.62H145.82V194.36H141.86V192.26ZM140.46 192.26H142.64V207.22H140.46V192.26ZM141.76 197.6H146.88V199.68H141.76V197.6ZM143.3 189L145.92 189.38C145.46 190.74 144.96 192.16 144.56 193.1L142.64 192.68C142.92 191.64 143.2 190.1 143.3 189ZM150.64 192.12H156.48V194.3H150.64V192.12ZM155.66 192.12H157.88C157.88 192.12 157.88 192.9 157.86 193.2C157.6 202.2 157.36 205.38 156.54 206.44C155.98 207.22 155.42 207.44 154.6 207.56C153.84 207.68 152.62 207.66 151.46 207.6C151.42 206.94 151.1 205.92 150.66 205.28C151.96 205.38 153.16 205.4 153.66 205.4C154.06 205.4 154.28 205.32 154.54 205.04C155.18 204.36 155.44 200.92 155.66 192.58V192.12ZM150.7 189.02L153 189.56C152.22 192.52 150.92 195.56 149.56 197.48C149.12 197.08 148.14 196.4 147.58 196.08C148.92 194.4 150.06 191.68 150.7 189.02ZM149.72 197.88L151.6 196.82C152.58 198.2 153.9 200.12 154.52 201.3L152.48 202.54C151.94 201.32 150.68 199.36 149.72 197.88ZM165.32 194.36H172.72V196.36H165.32V194.36ZM160.4 205.44H177.68V207.4H160.4V205.44ZM161.56 189.76H167.16V191.7H161.56V189.76ZM166.4 189.76H166.8L167.22 189.66L168.78 190.44C167.3 194.36 164.14 197.22 160.78 198.84C160.46 198.34 159.82 197.52 159.34 197.1C162.32 195.84 165.3 193.12 166.4 190.16V189.76ZM170.96 189.08C172.34 192.34 175.14 195.24 178.62 196.56C178.06 197.04 177.36 197.94 177 198.56C173.32 196.88 170.58 193.68 168.92 189.72L170.96 189.08ZM160.6 193.36L161.88 192.04C162.78 192.54 163.88 193.32 164.4 193.92L163.06 195.38C162.54 194.78 161.46 193.92 160.6 193.36ZM174.04 189.2L175.84 190.48C174.74 191.42 173.44 192.4 172.44 193.04L171 191.92C171.96 191.24 173.28 190.08 174.04 189.2ZM176.3 191.54L178.06 192.78C176.92 193.78 175.54 194.82 174.48 195.48L173.04 194.36C174.08 193.64 175.48 192.46 176.3 191.54ZM165.5 199.42V201.18H172.34V199.42H165.5ZM163.16 197.5H174.82V203.08H163.16V197.5ZM164.32 203.34L166.52 202.78C167.04 203.5 167.48 204.52 167.66 205.2L165.36 205.86C165.22 205.18 164.78 204.12 164.32 203.34ZM171.46 202.76L173.78 203.26C173.28 204.24 172.82 205.14 172.42 205.78L170.32 205.3C170.72 204.6 171.22 203.52 171.46 202.76ZM183.58 190.14H189.24V192.58H183.58V190.14ZM188.06 190.14H190.54C190.54 193.94 191.08 201.3 198.5 205.64C197.94 206.08 196.98 207.14 196.56 207.74C188.94 203.16 188.06 194.22 188.06 190.14ZM187.2 194.52L189.96 195.02C188.56 200.96 185.9 205.26 181.72 207.78C181.28 207.26 180.16 206.26 179.54 205.82C183.72 203.7 186.12 199.82 187.2 194.52ZM206.2 192.54C207.78 199.22 211.26 203.84 218.58 205.46C218.02 205.98 217.26 207.08 216.9 207.8C209.24 205.78 205.94 200.74 204.04 193.02L206.2 192.54ZM200.68 190.02H211.42V192.36H200.68V190.02ZM214.82 194.78H215.28L215.7 194.68L217.36 195.34C215.8 202.3 211.64 205.94 205.96 207.8C205.66 207.16 205.06 206.18 204.56 205.66C209.68 204.3 213.58 200.84 214.82 195.22V194.78ZM210.88 190.02H211.18L211.6 189.92L213.46 190.22C213.02 192.6 212.34 195.52 211.72 197.9L209.2 197.54C209.86 195.14 210.56 192 210.88 190.28V190.02ZM211.28 194.78H215.32V197.04H210.82L211.28 194.78ZM203.88 190.66H206.34V193.72C206.34 197.62 205.82 203.44 201.22 207.48C200.86 206.86 200.02 205.86 199.48 205.42C203.46 202.02 203.88 196.98 203.88 193.72V190.66ZM222.32 194.8L224.28 195.52C223.76 197 222.98 198.48 221.62 199.4L219.78 198.14C221 197.38 221.86 196.1 222.32 194.8ZM224.86 194.64H227V198.06C227 198.64 227.2 198.72 228.22 198.72C228.7 198.72 230.74 198.72 231.36 198.72C232.14 198.72 232.28 198.52 232.38 197.28C232.82 197.58 233.7 197.88 234.28 198C234.02 200.06 233.42 200.58 231.56 200.58C231.02 200.58 228.54 200.58 228 200.58C225.48 200.58 224.86 200 224.86 198.08V194.64ZM225.66 193.78L226.8 192.4C227.98 192.82 229.54 193.58 230.32 194.18L229.12 195.72C228.4 195.08 226.88 194.26 225.66 193.78ZM233.36 196.08L235.06 194.94C236.26 195.96 237.74 197.48 238.4 198.54L236.58 199.82C235.98 198.78 234.56 197.2 233.36 196.08ZM232 193.36L234.06 194.26C231.16 198.18 226.1 200.62 220.88 202C220.62 201.5 219.98 200.52 219.56 200.04C224.76 198.94 229.56 196.78 232 193.36ZM227.72 200.8H230.18V206.08H227.72V200.8ZM221.98 201.76H224.36V207.8H221.98V201.76ZM233.74 201.76H236.16V207.78H233.74V201.76ZM223.18 204.84H235V207.06H223.18V204.84ZM227.7 189.04H230.18V191.88H227.7V189.04ZM220.38 190.5H237.64V194.72H235.18V192.64H222.72V194.72H220.38V190.5ZM255.68 197.7H257.98C257.98 197.7 257.94 198.34 257.92 198.64C257.5 203.92 257.08 206.08 256.36 206.84C255.9 207.4 255.42 207.6 254.78 207.66C254.22 207.74 253.32 207.74 252.36 207.72C252.32 207.06 252.08 206.16 251.72 205.56C252.56 205.66 253.32 205.66 253.7 205.66C254.02 205.66 254.22 205.62 254.44 205.4C254.92 204.9 255.36 202.92 255.68 198.06V197.7ZM247.76 190.04H255.1V192.2H247.76V190.04ZM248.72 192.98L250.96 193.1C250.8 195.28 250.5 198.04 250.26 199.72H248C248.3 197.96 248.58 195.14 248.72 192.98ZM248.64 197.7H256.34V199.72H248.64V197.7ZM247.36 201.66H254.52V203.78H247.36V201.66ZM254.2 190.04H254.46L254.82 189.96L256.52 190.12C256.34 192.8 255.96 196.34 255.58 199.16L253.32 198.98C253.7 196.14 254.08 192.3 254.2 190.28V190.04ZM239.86 189.9H247.06V192.08H239.86V189.9ZM242.08 196.14H246.62V205.36H242.08V203.26H244.56V198.24H242.08V196.14ZM242.18 191.02L244.36 191.52C243.6 195.32 242.34 199.22 240.26 201.7C240.16 201.06 239.74 199.54 239.4 198.84C240.82 196.96 241.68 194.06 242.18 191.02ZM241.06 196.14H243.1V206.86H241.06V196.14Z" fill="#2D3342"/>
<path d="M39.5954 136.782C39.0743 136.708 26.4587 135.095 26.9842 123.849C27.0325 122.816 27.167 121.876 27.376 121.024M39.5954 136.782C32.6807 136.344 29.167 133.749 27.5945 130.638M39.5954 136.782C40.432 136.901 41.2947 136.892 42.1483 136.762M27.376 121.024C27.6377 119.957 28.0162 119.028 28.4886 118.226M27.376 121.024C26.4339 123.525 25.9408 127.366 27.5945 130.638M28.4886 118.226C32.3618 111.652 42.5477 113.616 46.4264 118.226C47.9484 120.037 51.1382 124.629 49.5837 130.369C48.6093 133.967 45.448 136.262 42.1483 136.762M28.4886 118.226C27.0148 120.21 24.8765 124.857 26.7046 129.071M27.5945 130.638C27.2287 130.126 26.9351 129.602 26.7046 129.071M42.1483 136.762C37.7849 137.49 28.5876 136.97 26.7046 129.071" stroke="#6663CF" stroke-linecap="round"/>
<path d="M38.5954 91.7916C38.0743 91.7207 25.4587 90.1781 25.9842 79.4211C26.0325 78.4327 26.167 77.5337 26.376 76.7187M38.5954 91.7916C31.6807 91.3728 28.167 88.8899 26.5945 85.9142M38.5954 91.7916C39.432 91.9055 40.2947 91.8964 41.1483 91.7725M26.376 76.7187C26.6377 75.6983 27.0162 74.8097 27.4886 74.0426M26.376 76.7187C25.4339 79.1105 24.9408 82.7848 26.5945 85.9142M27.4886 74.0426C31.3618 67.7537 41.5477 69.6325 45.4264 74.0426C46.9484 75.7745 50.1382 80.1668 48.5837 85.6571C47.6093 89.0988 44.448 91.2936 41.1483 91.7725M27.4886 74.0426C26.0148 75.9404 23.8765 80.3848 25.7046 84.4153M26.5945 85.9142C26.2287 85.4251 25.9351 84.9235 25.7046 84.4153M41.1483 91.7725C36.7849 92.4683 27.5876 91.971 25.7046 84.4153" stroke="#6663CF" stroke-linecap="round"/>
<defs>
<linearGradient id="paint0_linear_1398_7522" x1="140.385" y1="20" x2="173.358" y2="59.4168" gradientUnits="userSpaceOnUse">
<stop stop-color="#5955B3"/>
<stop offset="1" stop-color="#6563CE"/>
</linearGradient>
</defs>
</svg>
