<svg width="327" height="290" viewBox="0 0 327 290" fill="none" xmlns="http://www.w3.org/2000/svg">
<rect width="325" height="290" rx="5" transform="matrix(-1 0 0 1 326.671 0)" fill="white"/>
<path d="M122.975 222.726C123.363 223.118 123.995 223.12 124.386 222.729L130.761 216.368C131.153 215.977 131.155 215.343 130.767 214.95C130.379 214.558 129.747 214.556 129.356 214.946L123.689 220.601L118.068 214.917C117.68 214.524 117.049 214.523 116.657 214.913C116.266 215.303 116.264 215.938 116.652 216.33L122.975 222.726ZM124.681 222.021L124.691 219.644L122.696 219.639L122.686 222.016L124.681 222.021ZM124.71 214.889L124.729 210.135L122.734 210.129L122.715 214.884L124.71 214.889ZM124.748 205.38L124.758 203.003L122.763 202.997L122.753 205.375L124.748 205.38ZM122.975 222.726C123.363 223.118 123.995 223.12 124.386 222.729L130.761 216.368C131.153 215.977 131.155 215.343 130.767 214.95C130.379 214.558 129.747 214.556 129.356 214.946L123.689 220.601L118.068 214.917C117.68 214.524 117.049 214.523 116.657 214.913C116.266 215.303 116.264 215.938 116.652 216.33L122.975 222.726ZM124.681 222.021L124.691 219.644L122.696 219.639L122.686 222.016L124.681 222.021ZM124.71 214.889L124.729 210.135L122.734 210.129L122.715 214.884L124.71 214.889ZM124.748 205.38L124.758 203.003L122.763 202.997L122.753 205.375L124.748 205.38Z" fill="#6663CF"/>
<path opacity="0.2" fill-rule="evenodd" clip-rule="evenodd" d="M324.336 269.81C324.284 280.783 315.395 289.668 304.421 289.713H170.816C176.908 275.753 202.355 247.832 255.408 247.832C308.462 247.832 323.465 226.116 324.336 215.258V269.81Z" fill="#89AFFF"/>
<path opacity="0.2" fill-rule="evenodd" clip-rule="evenodd" d="M149.009 0C147.123 10.5057 135.565 40.0486 87.949 53.4492C41.7512 66.4509 11.3173 61.9796 5.64843e-06 57.7773L1.95524e-06 20C8.75392e-07 8.95432 8.95427 1.09491e-05 20 1.00855e-05L149.009 0Z" fill="#89AFFF"/>
<path d="M37.7496 35V20.4545H47.5507V22.9901H40.8248V26.456H47.0464V28.9915H40.8248V32.4645H47.5791V35H37.7496ZM52.9644 20.4545V35H49.9388V20.4545H52.9644ZM60.3596 35.2131C59.2375 35.2131 58.2716 34.9858 57.4619 34.5312C56.657 34.072 56.0367 33.4233 55.6011 32.5852C55.1655 31.7424 54.9477 30.7457 54.9477 29.5952C54.9477 28.473 55.1655 27.4882 55.6011 26.6406C56.0367 25.7931 56.6499 25.1326 57.4406 24.6591C58.2361 24.1856 59.1688 23.9489 60.2389 23.9489C60.9586 23.9489 61.6286 24.0649 62.2488 24.2969C62.8738 24.5241 63.4184 24.8674 63.8824 25.3267C64.3511 25.786 64.7157 26.3636 64.9761 27.0597C65.2365 27.7509 65.3667 28.5606 65.3667 29.4886V30.3196H56.1551V28.4446H62.5187C62.5187 28.009 62.424 27.6231 62.2346 27.2869C62.0452 26.9508 61.7825 26.688 61.4463 26.4986C61.1148 26.3045 60.729 26.2074 60.2886 26.2074C59.8293 26.2074 59.4221 26.3139 59.067 26.527C58.7166 26.7353 58.442 27.017 58.2432 27.3722C58.0443 27.7225 57.9425 28.1132 57.9378 28.544V30.3267C57.9378 30.8665 58.0372 31.3329 58.2361 31.7259C58.4397 32.1188 58.7261 32.4219 59.0954 32.6349C59.4648 32.848 59.9027 32.9545 60.4094 32.9545C60.7455 32.9545 61.0533 32.9072 61.3327 32.8125C61.612 32.7178 61.8511 32.5758 62.05 32.3864C62.2488 32.197 62.4004 31.965 62.5045 31.6903L65.3028 31.875C65.1608 32.5473 64.8696 33.1345 64.4292 33.6364C63.9936 34.1335 63.4302 34.5218 62.7389 34.8011C62.0523 35.0758 61.2593 35.2131 60.3596 35.2131ZM70.452 35.206C69.7559 35.206 69.1357 35.0852 68.5912 34.8438C68.0467 34.5975 67.6158 34.2353 67.2986 33.7571C66.9861 33.2741 66.8298 32.6728 66.8298 31.9531C66.8298 31.3471 66.9411 30.8381 67.1636 30.4261C67.3862 30.0142 67.6892 29.6828 68.0727 29.4318C68.4562 29.1809 68.8918 28.9915 69.3795 28.8636C69.872 28.7358 70.3881 28.6458 70.9278 28.5938C71.5623 28.5275 72.0737 28.4659 72.4619 28.4091C72.8502 28.3475 73.1319 28.2576 73.3071 28.1392C73.4823 28.0208 73.5699 27.8456 73.5699 27.6136V27.571C73.5699 27.1212 73.4278 26.7732 73.1437 26.527C72.8644 26.2808 72.4666 26.1577 71.9506 26.1577C71.406 26.1577 70.9728 26.2784 70.6508 26.5199C70.3289 26.7566 70.1158 27.0549 70.0116 27.4148L67.2133 27.1875C67.3554 26.5246 67.6347 25.9517 68.0514 25.4688C68.4681 24.9811 69.0055 24.607 69.6636 24.3466C70.3265 24.0814 71.0935 23.9489 71.9648 23.9489C72.5708 23.9489 73.1508 24.0199 73.7048 24.1619C74.2635 24.304 74.7583 24.5241 75.1892 24.8224C75.6248 25.1207 75.9681 25.5043 76.219 25.973C76.47 26.437 76.5954 26.9934 76.5954 27.642V35H73.7261V33.4872H73.6409C73.4657 33.8281 73.2313 34.1288 72.9378 34.3892C72.6442 34.6449 72.2915 34.8461 71.8795 34.9929C71.4676 35.1349 70.9917 35.206 70.452 35.206ZM71.3184 33.1179C71.7635 33.1179 72.1565 33.0303 72.4974 32.8551C72.8383 32.6752 73.1059 32.4337 73.3 32.1307C73.4941 31.8277 73.5912 31.4844 73.5912 31.1009V29.9432C73.4965 30.0047 73.3663 30.0616 73.2006 30.1136C73.0396 30.161 72.8573 30.206 72.6537 30.2486C72.4501 30.2865 72.2465 30.322 72.0429 30.3551C71.8393 30.3835 71.6546 30.4096 71.4889 30.4332C71.1338 30.4853 70.8237 30.5682 70.5585 30.6818C70.2934 30.7955 70.0874 30.9493 69.9406 31.1435C69.7938 31.3329 69.7204 31.5696 69.7204 31.8537C69.7204 32.2656 69.8696 32.5805 70.1679 32.7983C70.4709 33.0114 70.8544 33.1179 71.3184 33.1179ZM78.9427 35V24.0909H81.876V25.9943H81.9896C82.1885 25.3172 82.5223 24.8059 82.991 24.4602C83.4598 24.1098 83.9996 23.9347 84.6104 23.9347C84.7619 23.9347 84.9252 23.9441 85.1004 23.9631C85.2756 23.982 85.4295 24.008 85.5621 24.0412V26.7259C85.42 26.6832 85.2235 26.6454 84.9726 26.6122C84.7216 26.5791 84.492 26.5625 84.2836 26.5625C83.8386 26.5625 83.4408 26.6596 83.0905 26.8537C82.7448 27.0431 82.4702 27.3082 82.2666 27.6491C82.0677 27.9901 81.9683 28.383 81.9683 28.8281V35H78.9427ZM90.1519 28.6932V35H87.1263V24.0909H90.0099V26.0156H90.1377C90.3792 25.3812 90.784 24.8793 91.3522 24.5099C91.9204 24.1359 92.6093 23.9489 93.4189 23.9489C94.1765 23.9489 94.837 24.1146 95.4005 24.446C95.9639 24.7775 96.4019 25.2509 96.7144 25.8665C97.0269 26.4773 97.1832 27.2064 97.1832 28.054V35H94.1576V28.5938C94.1623 27.9261 93.9919 27.4053 93.6462 27.0312C93.3006 26.6525 92.8247 26.4631 92.2187 26.4631C91.8115 26.4631 91.4516 26.5507 91.1391 26.7259C90.8314 26.901 90.5899 27.1567 90.4147 27.4929C90.2442 27.8243 90.1566 28.2244 90.1519 28.6932ZM101.336 35.1847C100.867 35.1847 100.465 35.0189 100.129 34.6875C99.7974 34.3513 99.6317 33.9489 99.6317 33.4801C99.6317 33.0161 99.7974 32.6184 100.129 32.2869C100.465 31.9555 100.867 31.7898 101.336 31.7898C101.791 31.7898 102.188 31.9555 102.529 32.2869C102.87 32.6184 103.041 33.0161 103.041 33.4801C103.041 33.7926 102.96 34.0791 102.799 34.3395C102.643 34.5952 102.437 34.8011 102.181 34.9574C101.926 35.1089 101.644 35.1847 101.336 35.1847ZM112.521 30.3551V24.0909H115.546V35H112.641V33.0185H112.528C112.281 33.6577 111.872 34.1714 111.299 34.5597C110.731 34.9479 110.037 35.142 109.218 35.142C108.489 35.142 107.847 34.9763 107.293 34.6449C106.739 34.3134 106.306 33.8423 105.994 33.2315C105.686 32.6207 105.53 31.8892 105.525 31.0369V24.0909H108.55V30.4972C108.555 31.1411 108.728 31.6501 109.069 32.0241C109.41 32.3982 109.867 32.5852 110.44 32.5852C110.804 32.5852 111.145 32.5024 111.462 32.3366C111.78 32.1662 112.035 31.9152 112.229 31.5838C112.428 31.2524 112.525 30.8428 112.521 30.3551ZM117.966 35V24.0909H120.899V25.9943H121.013C121.212 25.3172 121.546 24.8059 122.014 24.4602C122.483 24.1098 123.023 23.9347 123.634 23.9347C123.785 23.9347 123.949 23.9441 124.124 23.9631C124.299 23.982 124.453 24.008 124.585 24.0412V26.7259C124.443 26.6832 124.247 26.6454 123.996 26.6122C123.745 26.5791 123.515 26.5625 123.307 26.5625C122.862 26.5625 122.464 26.6596 122.114 26.8537C121.768 27.0431 121.494 27.3082 121.29 27.6491C121.091 27.9901 120.992 28.383 120.992 28.8281V35H117.966ZM132.563 24.0909V26.3636H125.83V24.0909H132.563ZM127.371 35V23.3026C127.371 22.5118 127.525 21.8561 127.833 21.3352C128.146 20.8144 128.572 20.4238 129.111 20.1634C129.651 19.9029 130.264 19.7727 130.951 19.7727C131.415 19.7727 131.839 19.8082 132.222 19.8793C132.61 19.9503 132.899 20.0142 133.089 20.071L132.549 22.3438C132.431 22.3059 132.284 22.2704 132.109 22.2372C131.938 22.2041 131.763 22.1875 131.583 22.1875C131.138 22.1875 130.828 22.2917 130.653 22.5C130.477 22.7036 130.39 22.9901 130.39 23.3594V35H127.371ZM141.407 30.3551V24.0909H144.433V35H141.528V33.0185H141.414C141.168 33.6577 140.759 34.1714 140.186 34.5597C139.617 34.9479 138.924 35.142 138.105 35.142C137.376 35.142 136.734 34.9763 136.18 34.6449C135.626 34.3134 135.193 33.8423 134.88 33.2315C134.572 32.6207 134.416 31.8892 134.411 31.0369V24.0909H137.437V30.4972C137.442 31.1411 137.615 31.6501 137.956 32.0241C138.296 32.3982 138.753 32.5852 139.326 32.5852C139.691 32.5852 140.032 32.5024 140.349 32.3366C140.666 32.1662 140.922 31.9152 141.116 31.5838C141.315 31.2524 141.412 30.8428 141.407 30.3551ZM148.621 35.1847C148.153 35.1847 147.75 35.0189 147.414 34.6875C147.083 34.3513 146.917 33.9489 146.917 33.4801C146.917 33.0161 147.083 32.6184 147.414 32.2869C147.75 31.9555 148.153 31.7898 148.621 31.7898C149.076 31.7898 149.474 31.9555 149.815 32.2869C150.155 32.6184 150.326 33.0161 150.326 33.4801C150.326 33.7926 150.245 34.0791 150.084 34.3395C149.928 34.5952 149.722 34.8011 149.467 34.9574C149.211 35.1089 148.929 35.1847 148.621 35.1847ZM152.81 35V24.0909H155.743V25.9943H155.857C156.056 25.3172 156.389 24.8059 156.858 24.4602C157.327 24.1098 157.867 23.9347 158.478 23.9347C158.629 23.9347 158.792 23.9441 158.968 23.9631C159.143 23.982 159.297 24.008 159.429 24.0412V26.7259C159.287 26.6832 159.091 26.6454 158.84 26.6122C158.589 26.5791 158.359 26.5625 158.151 26.5625C157.706 26.5625 157.308 26.6596 156.958 26.8537C156.612 27.0431 156.337 27.3082 156.134 27.6491C155.935 27.9901 155.835 28.383 155.835 28.8281V35H152.81ZM167.989 30.3551V24.0909H171.015V35H168.11V33.0185H167.996C167.75 33.6577 167.341 34.1714 166.768 34.5597C166.199 34.9479 165.506 35.142 164.687 35.142C163.958 35.142 163.316 34.9763 162.762 34.6449C162.208 34.3134 161.775 33.8423 161.462 33.2315C161.155 32.6207 160.998 31.8892 160.994 31.0369V24.0909H164.019V30.4972C164.024 31.1411 164.197 31.6501 164.538 32.0241C164.878 32.3982 165.335 32.5852 165.908 32.5852C166.273 32.5852 166.614 32.5024 166.931 32.3366C167.248 32.1662 167.504 31.9152 167.698 31.5838C167.897 31.2524 167.994 30.8428 167.989 30.3551ZM186.276 24.02H194.596V26.44H186.276V24.02ZM177.716 33.4H195.996V35.82H177.716V33.4ZM184.916 18.26H187.496V34.74H184.916V18.26ZM199.716 21.26H205.856V34.74H199.716V32.62H203.676V23.36H199.716V21.26ZM198.316 21.26H200.496V36.22H198.316V21.26ZM199.616 26.6H204.736V28.68H199.616V26.6ZM201.156 18L203.776 18.38C203.316 19.74 202.816 21.16 202.416 22.1L200.496 21.68C200.776 20.64 201.056 19.1 201.156 18ZM208.496 21.12H214.336V23.3H208.496V21.12ZM213.516 21.12H215.736C215.736 21.12 215.736 21.9 215.716 22.2C215.456 31.2 215.216 34.38 214.396 35.44C213.836 36.22 213.276 36.44 212.456 36.56C211.696 36.68 210.476 36.66 209.316 36.6C209.276 35.94 208.956 34.92 208.516 34.28C209.816 34.38 211.016 34.4 211.516 34.4C211.916 34.4 212.136 34.32 212.396 34.04C213.036 33.36 213.296 29.92 213.516 21.58V21.12ZM208.556 18.02L210.856 18.56C210.076 21.52 208.776 24.56 207.416 26.48C206.976 26.08 205.996 25.4 205.436 25.08C206.776 23.4 207.916 20.68 208.556 18.02ZM207.576 26.88L209.456 25.82C210.436 27.2 211.756 29.12 212.376 30.3L210.336 31.54C209.796 30.32 208.536 28.36 207.576 26.88ZM217.956 20.8H235.796V23.1H217.956V20.8ZM224.476 27.28H234.956V29.5H224.476V27.28ZM223.696 34.08H235.716V36.3H223.696V34.08ZM228.556 23.96H230.976V35.26H228.556V23.96ZM224.256 18L226.756 18.6C225.276 23.42 222.756 28.28 218.476 31.2C218.236 30.52 217.676 29.46 217.316 28.88C220.936 26.52 223.216 22.04 224.256 18ZM220.256 26.38H222.676V36.76H220.256V26.38ZM238.456 31.62C238.336 31.18 237.996 30.12 237.716 29.52C238.256 29.42 238.696 28.98 239.336 28.24C240.036 27.52 242.076 24.78 243.436 22.06L245.356 23.3C243.856 25.9 241.876 28.54 239.956 30.46V30.52C239.956 30.52 238.456 31.2 238.456 31.62ZM238.456 31.62L238.316 29.76L239.316 29.04L244.756 28.14C244.676 28.76 244.656 29.66 244.696 30.14C239.796 31.1 238.976 31.34 238.456 31.62ZM238.316 26.74C238.216 26.28 237.816 25.16 237.556 24.54C237.976 24.42 238.316 24 238.756 23.36C239.196 22.76 240.576 20.34 241.316 18.06L243.536 19.12C242.536 21.4 241.036 23.84 239.596 25.54V25.6C239.596 25.6 238.316 26.32 238.316 26.74ZM238.316 26.74L238.256 25.06L239.256 24.4L242.876 24.14C242.736 24.74 242.656 25.58 242.636 26.06C239.396 26.4 238.716 26.54 238.316 26.74ZM237.796 33.6C239.496 33.16 242.116 32.34 244.616 31.56L244.976 33.52C242.676 34.34 240.236 35.2 238.296 35.88L237.796 33.6ZM245.476 22.62L255.016 21.18L255.416 23.28L245.876 24.8L245.476 22.62ZM245.056 26.94L255.556 25.04L255.936 27.14L245.436 29.1L245.056 26.94ZM248.276 17.94H250.656C250.516 25.98 252.076 34.46 253.996 34.46C254.376 34.46 254.556 33.96 254.636 32.34C255.116 32.9 255.796 33.42 256.336 33.68C255.936 36.14 255.316 36.8 253.716 36.8C249.616 36.8 248.316 26.98 248.276 17.94ZM250.976 19.46L252.376 18.2C253.196 18.68 254.336 19.44 254.916 19.94L253.476 21.36C252.916 20.82 251.796 20 250.976 19.46ZM254.096 27.98L256.096 28.9C253.816 32.5 250.056 35 245.796 36.52C245.496 35.92 244.896 35.08 244.336 34.54C248.376 33.36 252.116 31.14 254.096 27.98ZM258.396 19.64L260.016 18.24C261.016 19.18 262.376 20.52 263.016 21.4L261.296 22.98C260.716 22.08 259.396 20.66 258.396 19.64ZM260.136 36.4L259.596 34.28L259.996 33.54L263.676 30.3C263.896 30.94 264.296 31.84 264.576 32.28C261.096 35.36 260.476 35.92 260.136 36.4ZM257.536 24.16H261.356V26.32H257.536V24.16ZM263.696 28.16H276.096V30.32H263.696V28.16ZM271.576 29.28C272.656 31.12 274.716 33.1 276.576 34.12C276.036 34.56 275.316 35.38 274.936 35.98C273.076 34.64 271.136 32.2 269.976 29.9L271.576 29.28ZM266.776 23.82V25.12H272.916V23.82H266.776ZM266.776 20.72V22H272.916V20.72H266.776ZM264.616 18.82H275.176V27.02H264.616V18.82ZM268.356 29.28L269.996 29.86C268.816 32.4 266.776 34.84 264.616 36.14C264.256 35.58 263.556 34.74 263.056 34.32C265.176 33.3 267.276 31.3 268.356 29.28ZM268.896 19.72H271.076V26.06H271.176V36.78H268.816V26.06H268.896V19.72ZM260.136 36.4C259.856 35.96 259.116 35.18 258.716 34.88C259.196 34.42 259.916 33.46 259.916 32.26V24.16H262.216V33.38C262.216 33.38 260.136 35.5 260.136 36.4ZM289.376 27.64H291.756V35.72H289.376V27.64ZM285.376 26.78H295.796V28.84H285.376V26.78ZM284.616 34.28H296.236V36.36H284.616V34.28ZM285.856 30.5H295.296V32.52H285.856V30.5ZM288.236 20.78V23.54H292.916V20.78H288.236ZM286.016 18.76H295.256V25.56H286.016V18.76ZM280.536 19.88H282.876V36.78H280.536V19.88ZM277.656 23.64H284.996V25.88H277.656V23.64ZM280.676 24.54L282.076 25.16C281.316 28.02 279.896 31.58 278.356 33.56C278.136 32.86 277.616 31.86 277.236 31.26C278.636 29.66 280.036 26.76 280.676 24.54ZM283.656 18.22L285.256 20.08C283.216 20.86 280.436 21.4 278.096 21.7C277.996 21.18 277.696 20.38 277.416 19.88C279.636 19.5 282.116 18.92 283.656 18.22ZM282.816 26.42C283.316 26.84 285.056 28.64 285.436 29.1L284.076 30.98C283.596 30.02 282.396 28.2 281.776 27.36L282.816 26.42Z" fill="url(#paint0_linear_1398_7557)"/>
<path d="M93.5626 67.77V72.726H92.5686V68.75H90.5246V67.77H93.5626ZM93.5626 72.306C94.2486 73.342 95.4526 73.818 97.1046 73.874C98.6446 73.944 101.879 73.902 103.559 73.79C103.433 74.028 103.279 74.518 103.223 74.826C101.669 74.896 98.6726 74.924 97.1046 74.854C95.2706 74.784 93.9966 74.294 93.1286 73.188C92.4146 73.79 91.6586 74.406 90.8606 75.008L90.3426 73.972C91.0426 73.538 91.9106 72.908 92.6526 72.306H93.5626ZM90.7626 63.22L91.4906 62.562C92.3866 63.192 93.4366 64.144 93.8986 64.83L93.1006 65.558C92.6666 64.872 91.6446 63.878 90.7626 63.22ZM96.3626 64.592L97.0346 64.004C98.3506 64.466 100.115 65.236 101.053 65.796L100.339 66.454C99.4566 65.908 97.7206 65.11 96.3626 64.592ZM95.0326 65.768H102.271V66.58H96.0266V73.02H95.0326V65.768ZM101.767 65.768H102.775V71.97C102.775 72.488 102.677 72.726 102.299 72.88C101.935 73.048 101.347 73.048 100.409 73.048C100.367 72.782 100.241 72.418 100.115 72.18C100.773 72.208 101.361 72.194 101.543 72.194C101.725 72.194 101.767 72.138 101.767 71.956V65.768ZM95.0326 62.828H102.019V63.668H95.0326V62.828ZM95.5786 67.812H102.173V68.596H95.5786V67.812ZM95.5786 69.87H102.173V70.682H95.5786V69.87ZM98.3786 66.104H99.3306V72.964H98.3786V66.104ZM101.669 62.828H101.907L102.131 62.772L102.775 63.276C101.837 64.158 100.423 65.026 99.1486 65.558C99.0086 65.376 98.7426 65.096 98.5886 64.942C99.7366 64.494 101.039 63.682 101.669 63.024V62.828ZM105.043 63.164L105.855 62.632C106.639 63.332 107.563 64.312 107.997 64.956L107.129 65.586C106.723 64.914 105.827 63.892 105.043 63.164ZM107.605 67.49V72.586H106.583V68.484H104.637V67.49H107.605ZM107.073 72.04C107.549 72.04 107.871 72.46 108.655 72.936C109.565 73.51 110.755 73.608 112.323 73.608C113.975 73.608 116.089 73.496 117.447 73.342C117.307 73.636 117.139 74.168 117.125 74.49C116.131 74.546 113.639 74.616 112.309 74.616C110.559 74.616 109.383 74.476 108.417 73.86C107.815 73.482 107.367 73.02 107.059 73.02C106.583 73.02 105.911 73.846 105.197 74.798L104.455 73.818C105.421 72.768 106.373 72.04 107.073 72.04ZM108.599 64.774H117.027V65.768H108.599V64.774ZM114.017 62.296H115.095V71.326C115.095 72.04 114.899 72.348 114.395 72.516C113.919 72.684 113.065 72.712 111.735 72.712C111.693 72.404 111.511 71.942 111.357 71.634C112.393 71.662 113.359 71.662 113.639 71.662C113.919 71.634 114.017 71.564 114.017 71.312V62.296ZM109.271 67.322L110.111 66.874C110.825 67.728 111.707 68.89 112.113 69.618L111.231 70.164C110.853 69.422 109.985 68.204 109.271 67.322ZM123.047 64.452L123.985 63.99C124.923 65.012 125.819 66.398 126.225 67.35L125.217 67.896C124.853 66.93 123.943 65.488 123.047 64.452ZM118.441 72.516C119.869 71.956 122.109 71.004 124.209 70.08L124.447 71.102C122.501 71.998 120.373 72.936 118.819 73.608L118.441 72.516ZM126.841 70.668L127.653 69.982C128.983 71.298 130.719 73.118 131.545 74.266L130.649 75.092C129.865 73.93 128.185 72.04 126.841 70.668ZM128.787 62.968L129.921 63.08C129.207 69.548 127.569 73.118 122.669 75.162C122.515 74.938 122.095 74.476 121.829 74.252C126.673 72.488 128.157 69.058 128.787 62.968ZM120.149 63.01L121.227 62.968L121.465 72.222L120.387 72.264L120.149 63.01ZM132.721 63.276H145.181V64.34H132.721V63.276ZM138.111 64.116H139.217V75.106H138.111V64.116ZM138.727 67.434L139.413 66.622C141.093 67.434 143.305 68.708 144.425 69.548L143.683 70.5C142.605 69.632 140.421 68.302 138.727 67.434ZM146.679 64.662H159.209V65.67H146.679V64.662ZM151.257 67.98H156.857V68.988H151.257V67.98ZM156.479 67.98H157.557C157.557 67.98 157.543 68.33 157.515 68.484C157.235 72.516 156.955 74.07 156.409 74.63C156.087 74.966 155.737 75.064 155.205 75.106C154.715 75.134 153.791 75.106 152.839 75.064C152.825 74.756 152.671 74.322 152.475 74.028C153.483 74.126 154.477 74.126 154.841 74.126C155.149 74.126 155.345 74.112 155.499 73.972C155.947 73.566 156.227 71.998 156.465 68.162L156.479 67.98ZM151.019 65.222H152.181C151.971 68.932 151.565 73.132 147.295 75.176C147.141 74.91 146.805 74.532 146.539 74.322C150.627 72.474 150.865 68.568 151.019 65.222ZM152.349 62.212H153.427V65.096H152.349V62.212ZM169.877 62.94L170.577 62.338C171.305 62.828 172.187 63.556 172.621 64.046L171.879 64.704C171.459 64.2 170.605 63.444 169.877 62.94ZM160.721 64.858H173.195V65.88H160.721V64.858ZM161.197 67.98H167.385V69.002H161.197V67.98ZM163.717 68.526H164.767V73.524H163.717V68.526ZM160.777 73.664C162.443 73.342 165.187 72.782 167.777 72.222L167.861 73.16C165.467 73.72 162.905 74.308 161.099 74.714L160.777 73.664ZM167.847 62.31H168.967C168.925 68.806 170.185 74.056 171.907 74.056C172.299 74.056 172.467 73.286 172.551 71.41C172.789 71.648 173.195 71.886 173.489 71.984C173.307 74.434 172.901 75.148 171.823 75.148C169.037 75.148 167.903 69.086 167.847 62.31ZM178.347 66.146H183.541V67.056H178.347V66.146ZM174.861 73.916H187.055V74.798H174.861V73.916ZM175.701 62.786H179.845V63.668H175.701V62.786ZM179.509 62.786H179.691L179.887 62.73L180.559 63.08C179.509 65.768 177.171 67.77 174.945 68.806C174.805 68.582 174.525 68.218 174.315 68.036C176.373 67.168 178.641 65.208 179.509 62.982V62.786ZM181.875 62.282C182.953 64.662 185.095 66.832 187.517 67.77C187.265 67.98 186.971 68.358 186.803 68.638C184.325 67.518 182.183 65.236 180.993 62.576L181.875 62.282ZM175.323 64.76L175.883 64.186C176.625 64.606 177.493 65.25 177.899 65.754L177.311 66.398C176.891 65.908 176.051 65.208 175.323 64.76ZM184.689 62.366L185.487 62.926C184.759 63.612 183.793 64.368 183.065 64.858L182.421 64.354C183.135 63.836 184.129 62.982 184.689 62.366ZM186.257 64.018L187.041 64.578C186.299 65.278 185.291 66.034 184.521 66.51L183.877 66.006C184.633 65.502 185.669 64.648 186.257 64.018ZM178.095 69.072V70.92H183.765V69.072H178.095ZM177.059 68.204H184.843V71.788H177.059V68.204ZM177.871 72.012L178.837 71.746C179.229 72.348 179.593 73.174 179.733 73.72L178.739 74.028C178.599 73.482 178.249 72.628 177.871 72.012ZM183.079 71.704L184.101 71.984C183.723 72.726 183.303 73.496 182.953 74.042L182.057 73.776C182.407 73.23 182.855 72.32 183.079 71.704ZM188.875 67.546H201.111V68.484H188.875V67.546ZM194.391 68.022H195.469V73.986C195.469 74.588 195.315 74.854 194.867 74.994C194.433 75.148 193.733 75.162 192.641 75.148C192.571 74.882 192.417 74.504 192.277 74.224C193.089 74.266 193.873 74.266 194.111 74.252C194.335 74.238 194.391 74.168 194.391 73.972V68.022ZM195.343 68.624C196.351 71.032 198.493 72.908 201.293 73.664C201.055 73.874 200.747 74.28 200.593 74.574C197.737 73.664 195.637 71.62 194.489 68.876L195.343 68.624ZM199.277 68.82L200.173 69.478C199.235 70.29 198.003 71.172 197.065 71.746L196.337 71.158C197.275 70.57 198.535 69.576 199.277 68.82ZM189.827 69.562L190.527 68.918C191.409 69.408 192.557 70.136 193.117 70.682L192.375 71.41C191.843 70.864 190.737 70.08 189.827 69.562ZM188.903 73.244C190.331 72.712 192.627 71.788 194.755 70.906L194.965 71.802C193.047 72.642 190.989 73.538 189.463 74.182L188.903 73.244ZM190.247 65.292H198.633V66.258H190.247V65.292ZM198.325 63.024H198.437L198.633 62.982L199.459 63.038C199.417 64.536 199.291 66.566 199.151 68.092L198.073 68.036C198.199 66.482 198.297 64.284 198.325 63.164V63.024ZM189.827 63.024H198.619V64.004H189.827V63.024ZM213.487 64.186H214.537V73.776C214.537 74.434 214.383 74.756 213.935 74.938C213.473 75.106 212.703 75.12 211.555 75.12C211.499 74.84 211.331 74.35 211.177 74.056C212.031 74.098 212.913 74.084 213.165 74.07C213.403 74.056 213.487 74 213.487 73.748V64.186ZM203.351 64.186H213.963V65.18H204.387V75.12H203.351V64.186ZM208.377 62.24H209.413V68.05H208.377V62.24ZM218.317 64.41H219.409V67.462C219.409 69.758 219.115 73.034 217.323 75.204C217.141 75.008 216.679 74.686 216.413 74.574C218.135 72.502 218.317 69.576 218.317 67.462V64.41ZM222.111 62.436L223.133 62.17C223.455 62.828 223.819 63.668 223.987 64.214L222.923 64.536C222.769 63.976 222.405 63.094 222.111 62.436ZM219.003 64.41H227.781V70.122H226.717V65.404H219.003V64.41ZM219.003 68.218H227.291V69.198H219.003V68.218ZM236.951 66.398C236.377 66.398 235.887 65.978 235.887 65.348C235.887 64.704 236.377 64.284 236.951 64.284C237.511 64.284 238.001 64.704 238.001 65.348C238.001 65.978 237.511 66.398 236.951 66.398ZM236.951 73.244C236.377 73.244 235.887 72.838 235.887 72.194C235.887 71.55 236.377 71.144 236.951 71.144C237.511 71.144 238.001 71.55 238.001 72.194C238.001 72.838 237.511 73.244 236.951 73.244Z" fill="#2D3342"/>
<path d="M43.3305 108.364V120H40.8703V110.699H40.8021L38.1373 112.369V110.188L41.018 108.364H43.3305ZM49.0095 120.148C48.6345 120.148 48.3125 120.015 48.0436 119.75C47.7784 119.481 47.6459 119.159 47.6459 118.784C47.6459 118.413 47.7784 118.095 48.0436 117.83C48.3125 117.564 48.6345 117.432 49.0095 117.432C49.3731 117.432 49.6913 117.564 49.964 117.83C50.2368 118.095 50.3731 118.413 50.3731 118.784C50.3731 119.034 50.3087 119.263 50.1799 119.472C50.0549 119.676 49.8902 119.841 49.6856 119.966C49.4811 120.087 49.2557 120.148 49.0095 120.148ZM64.55 108.928H70.55V110.64H64.55V108.928ZM64.662 112.336L66.006 111.456C67.766 113.792 69.718 116.88 70.438 118.976L68.918 120.048C68.246 117.952 66.39 114.752 64.662 112.336ZM68.086 109.728L69.83 109.92C69.174 114.88 67.862 118.784 65.11 121.232C64.87 120.864 64.214 120.16 63.83 119.824C66.438 117.776 67.574 114.176 68.086 109.728ZM65.958 107.12L67.526 106.464C67.942 107.056 68.438 107.904 68.678 108.448L67.014 109.184C66.838 108.656 66.358 107.76 65.958 107.12ZM71.062 107.952H72.694V117.984H71.062V107.952ZM73.638 106.4H75.35V119.52C75.35 120.4 75.174 120.864 74.662 121.152C74.166 121.424 73.398 121.488 72.31 121.488C72.246 121.024 72.006 120.288 71.798 119.808C72.47 119.824 73.126 119.824 73.35 119.808C73.574 119.808 73.638 119.744 73.638 119.52V106.4ZM61.35 107.888L62.598 106.896C63.286 107.52 64.182 108.384 64.566 108.976L63.238 110.08C62.886 109.472 62.038 108.544 61.35 107.888ZM60.79 112.064L61.974 110.976C62.742 111.536 63.766 112.384 64.246 112.96L62.998 114.176C62.55 113.584 61.574 112.688 60.79 112.064ZM61.142 119.904C61.734 118.736 62.55 116.864 63.158 115.152L64.598 116.128C64.054 117.68 63.382 119.424 62.742 120.864L61.142 119.904ZM85.734 107.808H91.494V109.488H85.734V107.808ZM85.462 106.384L87.286 106.752C86.806 108.816 85.974 110.88 85.062 112.192C84.694 111.904 83.878 111.44 83.414 111.232C84.358 110.064 85.078 108.192 85.462 106.384ZM86.934 110.256L88.598 109.664C89.222 110.352 89.846 111.296 90.134 111.952L88.39 112.656C88.15 111.984 87.51 110.992 86.934 110.256ZM77.958 107.344H79.814V112H77.958V107.344ZM81.35 106.608H83.206V112.528H81.35V106.608ZM84.646 117.104H86.582V119.168C86.582 119.6 86.678 119.648 87.334 119.648C87.622 119.648 88.854 119.648 89.238 119.648C89.782 119.648 89.878 119.456 89.958 118.224C90.326 118.496 91.094 118.752 91.606 118.864C91.398 120.736 90.902 121.216 89.43 121.216C89.014 121.216 87.478 121.216 87.062 121.216C85.126 121.216 84.646 120.736 84.646 119.184V117.104ZM83.27 115.136H85.286V116.464C85.286 118.112 84.342 120.144 78.502 121.44C78.262 121.024 77.702 120.304 77.254 119.92C82.806 118.928 83.27 117.456 83.27 116.416V115.136ZM79.11 112.896H89.83V117.856H87.798V114.576H81.03V118.048H79.11V112.896ZM95.846 108.528V110.208H97.782V108.528H95.846ZM94.102 107.04H99.622V111.696H94.102V107.04ZM102.854 108.528V110.208H104.79V108.528H102.854ZM101.11 107.04H106.63V111.696H101.11V107.04ZM93.094 112.592H107.67V114.272H93.094V112.592ZM95.27 119.376H98.806V120.96H95.27V119.376ZM101.83 119.376H105.366V120.96H101.83V119.376ZM102.758 113.024C103.766 114.496 105.894 115.712 108.214 116.272C107.814 116.624 107.286 117.344 107.014 117.792C104.486 117.072 102.326 115.6 100.982 113.68L102.758 113.024ZM94.374 116.048H99.702V121.456H97.958V117.632H96.038V121.472H94.374V116.048ZM100.95 116.048H106.31V121.456H104.55V117.632H102.63V121.472H100.95V116.048ZM99.27 111.024L101.126 111.648C99.734 114.608 97.078 116.576 93.702 117.76C93.478 117.344 92.918 116.608 92.55 116.272C95.686 115.264 98.15 113.456 99.27 111.024Z" fill="#5955B3"/>
<path d="M43.6457 127.231C43.1867 127.157 32.075 125.544 32.5378 114.299C32.5803 113.265 32.6988 112.325 32.8829 111.473M43.6457 127.231C37.5553 126.794 34.4604 124.198 33.0754 121.087M43.6457 127.231C44.3825 127.35 45.1425 127.341 45.8943 127.211M32.8829 111.473C33.1134 110.407 33.4467 109.478 33.8629 108.676M32.8829 111.473C32.0531 113.974 31.6188 117.815 33.0754 121.087M33.8629 108.676C37.2743 102.101 46.2461 104.065 49.6625 108.676C51.003 110.486 53.8126 115.078 52.4434 120.818C51.5851 124.416 48.8006 126.711 45.8943 127.211M33.8629 108.676C32.5648 110.66 30.6813 115.306 32.2915 119.52M33.0754 121.087C32.7531 120.575 32.4946 120.051 32.2915 119.52M45.8943 127.211C42.0511 127.939 33.95 127.419 32.2915 119.52" stroke="#6663CF" stroke-linecap="round"/>
<path d="M36.0237 153V151.227L40.1657 147.392C40.518 147.051 40.8135 146.744 41.0521 146.472C41.2945 146.199 41.4782 145.932 41.6032 145.67C41.7282 145.405 41.7907 145.119 41.7907 144.812C41.7907 144.472 41.7131 144.178 41.5578 143.932C41.4025 143.682 41.1904 143.491 40.9214 143.358C40.6525 143.222 40.3476 143.153 40.0067 143.153C39.6506 143.153 39.34 143.225 39.0748 143.369C38.8097 143.513 38.6051 143.72 38.4612 143.989C38.3173 144.258 38.2453 144.578 38.2453 144.949H35.9101C35.9101 144.187 36.0824 143.527 36.4271 142.966C36.7718 142.405 37.2548 141.972 37.876 141.665C38.4972 141.358 39.2131 141.205 40.0237 141.205C40.857 141.205 41.5824 141.352 42.1998 141.648C42.821 141.939 43.304 142.345 43.6487 142.864C43.9934 143.383 44.1657 143.977 44.1657 144.648C44.1657 145.087 44.0786 145.521 43.9044 145.949C43.7339 146.377 43.429 146.852 42.9896 147.375C42.5502 147.894 41.9309 148.517 41.1317 149.244L39.4328 150.909V150.989H44.3192V153H36.0237ZM48.0095 153.148C47.6345 153.148 47.3125 153.015 47.0436 152.75C46.7784 152.481 46.6459 152.159 46.6459 151.784C46.6459 151.413 46.7784 151.095 47.0436 150.83C47.3125 150.564 47.6345 150.432 48.0095 150.432C48.3731 150.432 48.6913 150.564 48.964 150.83C49.2368 151.095 49.3731 151.413 49.3731 151.784C49.3731 152.034 49.3087 152.263 49.1799 152.472C49.0549 152.676 48.8902 152.841 48.6856 152.966C48.4811 153.087 48.2557 153.148 48.0095 153.148ZM67.5729 141.364H70.0331V148.92C70.0331 149.769 69.8305 150.511 69.4252 151.148C69.0236 151.784 68.4611 152.28 67.7377 152.636C67.0142 152.989 66.1714 153.165 65.2093 153.165C64.2433 153.165 63.3986 152.989 62.6752 152.636C61.9517 152.28 61.3892 151.784 60.9877 151.148C60.5861 150.511 60.3854 149.769 60.3854 148.92V141.364H62.8456V148.71C62.8456 149.153 62.9422 149.547 63.1354 149.892C63.3324 150.237 63.6089 150.508 63.9649 150.705C64.321 150.902 64.7358 151 65.2093 151C65.6865 151 66.1013 150.902 66.4536 150.705C66.8096 150.508 67.0843 150.237 67.2774 149.892C67.4744 149.547 67.5729 149.153 67.5729 148.71V141.364ZM72.0573 153V141.364H76.6482C77.527 141.364 78.277 141.521 78.8982 141.835C79.5232 142.146 79.9986 142.587 80.3243 143.159C80.6539 143.727 80.8186 144.396 80.8186 145.165C80.8186 145.937 80.652 146.602 80.3186 147.159C79.9853 147.712 79.5023 148.136 78.8698 148.432C78.241 148.727 77.4796 148.875 76.5857 148.875H73.5118V146.898H76.1879C76.6576 146.898 77.0478 146.833 77.3584 146.705C77.669 146.576 77.9001 146.383 78.0516 146.125C78.2069 145.867 78.2845 145.547 78.2845 145.165C78.2845 144.778 78.2069 144.453 78.0516 144.188C77.9001 143.922 77.6671 143.722 77.3527 143.585C77.0421 143.445 76.6501 143.375 76.1766 143.375H74.5175V153H72.0573ZM78.3414 147.705L81.2334 153H78.5175L75.6879 147.705H78.3414ZM82.5573 153V141.364H90.2618V143.392H85.0175V146.165H89.7504V148.193H85.0175V153H82.5573ZM99.1041 141.364H101.564V148.92C101.564 149.769 101.362 150.511 100.956 151.148C100.555 151.784 99.9924 152.28 99.2689 152.636C98.5454 152.989 97.7026 153.165 96.7405 153.165C95.7746 153.165 94.9299 152.989 94.2064 152.636C93.4829 152.28 92.9204 151.784 92.5189 151.148C92.1174 150.511 91.9166 149.769 91.9166 148.92V141.364H94.3769V148.71C94.3769 149.153 94.4735 149.547 94.6666 149.892C94.8636 150.237 95.1401 150.508 95.4962 150.705C95.8522 150.902 96.267 151 96.7405 151C97.2178 151 97.6325 150.902 97.9848 150.705C98.3409 150.508 98.6155 150.237 98.8087 149.892C99.0057 149.547 99.1041 149.153 99.1041 148.71V141.364ZM106.305 144.888H113.681V146.536H106.305V144.888ZM103.441 148.472H117.761V150.248H103.441V148.472ZM109.601 147.448H111.569V152.392C111.569 153.384 111.329 153.88 110.561 154.168C109.809 154.424 108.785 154.456 107.425 154.456C107.297 153.912 106.945 153.096 106.641 152.6C107.665 152.632 108.865 152.632 109.185 152.632C109.505 152.632 109.601 152.552 109.601 152.328V147.448ZM113.057 144.888H113.537L113.937 144.792L115.153 145.72C114.049 146.904 112.465 148.152 110.897 148.904C110.673 148.584 110.161 148.056 109.873 147.8C111.105 147.16 112.465 146.024 113.057 145.24V144.888ZM103.633 141.96H117.585V145.88H115.681V143.656H105.441V145.88H103.633V141.96ZM114.721 139.528L116.801 140.136C116.065 141.192 115.233 142.28 114.577 142.984L113.009 142.408C113.617 141.624 114.337 140.424 114.721 139.528ZM104.705 140.312L106.337 139.576C106.913 140.2 107.553 141.064 107.809 141.688L106.065 142.488C105.841 141.896 105.249 140.984 104.705 140.312ZM108.737 139.96L110.433 139.32C110.945 140.024 111.489 141 111.697 141.64L109.873 142.344C109.713 141.704 109.217 140.696 108.737 139.96ZM121.889 142.312H133.025V144.184H121.889V142.312ZM121.233 147.032H132.417V148.872H121.233V147.032ZM119.377 152.104H133.841V153.976H119.377V152.104ZM125.601 139.416H127.601V153.032H125.601V139.416ZM121.905 139.608L123.889 140.056C123.185 142.536 122.017 145 120.769 146.536C120.385 146.2 119.537 145.64 119.041 145.368C120.305 144.024 121.329 141.816 121.905 139.608ZM136.865 142.008H141.777V152.792H136.865V151.096H140.033V143.688H136.865V142.008ZM135.745 142.008H137.489V153.976H135.745V142.008ZM136.785 146.28H140.881V147.944H136.785V146.28ZM138.017 139.4L140.113 139.704C139.745 140.792 139.345 141.928 139.025 142.68L137.489 142.344C137.713 141.512 137.937 140.28 138.017 139.4ZM143.889 141.896H148.561V143.64H143.889V141.896ZM147.905 141.896H149.681C149.681 141.896 149.681 142.52 149.665 142.76C149.457 149.96 149.265 152.504 148.609 153.352C148.161 153.976 147.713 154.152 147.057 154.248C146.449 154.344 145.473 154.328 144.545 154.28C144.513 153.752 144.257 152.936 143.905 152.424C144.945 152.504 145.905 152.52 146.305 152.52C146.625 152.52 146.801 152.456 147.009 152.232C147.521 151.688 147.729 148.936 147.905 142.264V141.896ZM143.937 139.416L145.777 139.848C145.153 142.216 144.113 144.648 143.025 146.184C142.673 145.864 141.889 145.32 141.441 145.064C142.513 143.72 143.425 141.544 143.937 139.416ZM143.153 146.504L144.657 145.656C145.441 146.76 146.497 148.296 146.993 149.24L145.361 150.232C144.929 149.256 143.921 147.688 143.153 146.504ZM151.589 153V141.364H154.049V150.972H159.037V153H151.589ZM160.667 153V141.364H163.127V146.494H163.28L167.468 141.364H170.417L166.098 146.574L170.468 153H167.525L164.337 148.216L163.127 149.693V153H160.667Z" fill="#5955B3"/>
<path d="M42.7651 158.73C42.3016 158.662 31.0789 157.195 31.5463 146.962C31.5893 146.022 31.7089 145.167 31.8949 144.391M42.7651 158.73C36.6139 158.331 33.4882 155.969 32.0893 153.139M42.7651 158.73C43.5094 158.838 44.2769 158.829 45.0362 158.711M31.8949 144.391C32.1277 143.421 32.4644 142.575 32.8847 141.846M31.8949 144.391C31.0568 146.667 30.6182 150.162 32.0893 153.139M32.8847 141.846C36.3302 135.863 45.3915 137.65 48.842 141.846C50.1959 143.493 53.0335 147.671 51.6507 152.894C50.7838 156.168 47.9716 158.256 45.0362 158.711M32.8847 141.846C31.5736 143.651 29.6714 147.879 31.2976 151.713M32.0893 153.139C31.7638 152.673 31.5027 152.196 31.2976 151.713M45.0362 158.711C41.1546 159.373 32.9727 158.9 31.2976 151.713" stroke="#6663CF" stroke-linecap="round"/>
<path d="M72.9754 179.726C73.3635 180.118 73.9952 180.12 74.3864 179.729L80.7613 173.368C81.1525 172.977 81.1551 172.343 80.767 171.95C80.379 171.558 79.7472 171.556 79.356 171.946L73.6894 177.601L68.0684 171.917C67.6804 171.524 67.0487 171.523 66.6575 171.913C66.2663 172.303 66.2637 172.938 66.6518 173.33L72.9754 179.726ZM74.6814 179.021L74.691 176.644L72.6956 176.639L72.686 179.016L74.6814 179.021ZM74.7101 171.889L74.7292 167.135L72.7338 167.129L72.7147 171.884L74.7101 171.889ZM74.7483 162.38L74.7579 160.003L72.7625 159.997L72.7529 162.375L74.7483 162.38ZM72.9754 179.726C73.3635 180.118 73.9952 180.12 74.3864 179.729L80.7613 173.368C81.1525 172.977 81.1551 172.343 80.767 171.95C80.379 171.558 79.7472 171.556 79.356 171.946L73.6894 177.601L68.0684 171.917C67.6804 171.524 67.0487 171.523 66.6575 171.913C66.2663 172.303 66.2637 172.938 66.6518 173.33L72.9754 179.726ZM74.6814 179.021L74.691 176.644L72.6956 176.639L72.686 179.016L74.6814 179.021ZM74.7101 171.889L74.7292 167.135L72.7338 167.129L72.7147 171.884L74.7101 171.889ZM74.7483 162.38L74.7579 160.003L72.7625 159.997L72.7529 162.375L74.7483 162.38Z" fill="#6663CF"/>
<path d="M61.08 198V186.364H65.0118C65.9247 186.364 66.6709 186.528 67.2504 186.858C67.8338 187.184 68.2656 187.625 68.5459 188.182C68.8262 188.739 68.9664 189.36 68.9664 190.045C68.9664 190.731 68.8262 191.354 68.5459 191.915C68.2694 192.475 67.8414 192.922 67.2618 193.256C66.6823 193.585 65.9398 193.75 65.0345 193.75H62.2164V192.5H64.9891C65.6141 192.5 66.116 192.392 66.4948 192.176C66.8736 191.96 67.1482 191.669 67.3186 191.301C67.4929 190.93 67.58 190.511 67.58 190.045C67.58 189.58 67.4929 189.163 67.3186 188.795C67.1482 188.428 66.8717 188.14 66.4891 187.932C66.1065 187.72 65.5989 187.614 64.9664 187.614H62.4891V198H61.08ZM73.6226 198.205C73.0696 198.205 72.5677 198.1 72.1169 197.892C71.6662 197.68 71.3082 197.375 71.0431 196.977C70.7779 196.576 70.6453 196.091 70.6453 195.523C70.6453 195.023 70.7438 194.617 70.9408 194.307C71.1378 193.992 71.401 193.746 71.7306 193.568C72.0601 193.39 72.4237 193.258 72.8215 193.17C73.223 193.08 73.6264 193.008 74.0317 192.955C74.562 192.886 74.9919 192.835 75.3215 192.801C75.6548 192.763 75.8972 192.701 76.0487 192.614C76.204 192.527 76.2817 192.375 76.2817 192.159V192.114C76.2817 191.553 76.1283 191.117 75.8215 190.807C75.5184 190.496 75.0582 190.341 74.4408 190.341C73.8006 190.341 73.2987 190.481 72.9351 190.761C72.5715 191.042 72.3158 191.341 72.1681 191.659L70.8953 191.205C71.1226 190.674 71.4256 190.261 71.8044 189.966C72.187 189.667 72.6037 189.458 73.0544 189.341C73.509 189.22 73.9559 189.159 74.3953 189.159C74.6756 189.159 74.9976 189.193 75.3612 189.261C75.7287 189.326 76.0828 189.46 76.4237 189.665C76.7684 189.869 77.0544 190.178 77.2817 190.591C77.509 191.004 77.6226 191.557 77.6226 192.25V198H76.2817V196.818H76.2135C76.1226 197.008 75.9711 197.21 75.759 197.426C75.5468 197.642 75.2646 197.826 74.9124 197.977C74.5601 198.129 74.1302 198.205 73.6226 198.205ZM73.8271 197C74.3575 197 74.8044 196.896 75.1681 196.688C75.5355 196.479 75.812 196.21 75.9976 195.881C76.187 195.551 76.2817 195.205 76.2817 194.841V193.614C76.2249 193.682 76.0999 193.744 75.9067 193.801C75.7173 193.854 75.4976 193.902 75.2476 193.943C75.0014 193.981 74.7609 194.015 74.526 194.045C74.295 194.072 74.1075 194.095 73.9635 194.114C73.615 194.159 73.2893 194.233 72.9862 194.335C72.687 194.434 72.4446 194.583 72.259 194.784C72.0771 194.981 71.9862 195.25 71.9862 195.591C71.9862 196.057 72.1586 196.409 72.5033 196.648C72.8518 196.883 73.2931 197 73.8271 197ZM79.5246 195.773H80.9564C80.9867 196.167 81.1647 196.466 81.4905 196.67C81.82 196.875 82.2481 196.977 82.7746 196.977C83.3125 196.977 83.7727 196.867 84.1553 196.648C84.5378 196.424 84.7291 196.064 84.7291 195.568C84.7291 195.277 84.6572 195.023 84.5132 194.807C84.3693 194.587 84.1666 194.417 83.9053 194.295C83.6439 194.174 83.3352 194.114 82.9791 194.114H81.4791V192.909H82.9791C83.5132 192.909 83.9072 192.788 84.161 192.545C84.4185 192.303 84.5473 192 84.5473 191.636C84.5473 191.246 84.4091 190.934 84.1325 190.699C83.856 190.46 83.464 190.341 82.9564 190.341C82.445 190.341 82.0189 190.456 81.678 190.688C81.3371 190.915 81.1572 191.208 81.1382 191.568H79.7291C79.7443 191.098 79.8882 190.684 80.161 190.324C80.4337 189.96 80.8049 189.676 81.2746 189.472C81.7443 189.263 82.2822 189.159 82.8882 189.159C83.5019 189.159 84.0341 189.267 84.4848 189.483C84.9394 189.695 85.2897 189.985 85.536 190.352C85.786 190.716 85.911 191.129 85.911 191.591C85.911 192.083 85.7727 192.481 85.4962 192.784C85.2197 193.087 84.8731 193.303 84.4564 193.432V193.523C84.786 193.545 85.0719 193.652 85.3144 193.841C85.5606 194.027 85.7519 194.271 85.8882 194.574C86.0246 194.873 86.0928 195.205 86.0928 195.568C86.0928 196.098 85.9507 196.561 85.6666 196.955C85.3825 197.345 84.9924 197.648 84.4962 197.864C84 198.076 83.4337 198.182 82.7973 198.182C82.1799 198.182 81.6269 198.081 81.1382 197.881C80.6496 197.676 80.2613 197.394 79.9735 197.034C79.6894 196.67 79.5397 196.25 79.5246 195.773ZM87.0445 200.5V196.75H87.7718C87.9498 196.564 88.1032 196.364 88.232 196.148C88.3608 195.932 88.4725 195.676 88.5672 195.381C88.6657 195.081 88.749 194.718 88.8172 194.29C88.8854 193.858 88.946 193.337 88.999 192.727L89.2945 189.273H94.8399V196.75H96.1808V200.5H94.8399V198H88.3854V200.5H87.0445ZM89.2945 196.75H93.499V190.523H90.5445L90.3172 192.727C90.2225 193.64 90.1051 194.437 89.9649 195.119C89.8248 195.801 89.6013 196.345 89.2945 196.75ZM101.62 198.182C100.779 198.182 100.053 197.996 99.4436 197.625C98.8376 197.25 98.3698 196.727 98.0402 196.057C97.7145 195.383 97.5516 194.598 97.5516 193.705C97.5516 192.811 97.7145 192.023 98.0402 191.341C98.3698 190.655 98.8281 190.121 99.4152 189.739C100.006 189.352 100.696 189.159 101.483 189.159C101.938 189.159 102.387 189.235 102.83 189.386C103.273 189.538 103.677 189.784 104.04 190.125C104.404 190.462 104.694 190.909 104.91 191.466C105.125 192.023 105.233 192.708 105.233 193.523V194.091H98.5061V192.932H103.87C103.87 192.439 103.771 192 103.574 191.614C103.381 191.227 103.105 190.922 102.745 190.699C102.389 190.475 101.968 190.364 101.483 190.364C100.949 190.364 100.487 190.496 100.097 190.761C99.7107 191.023 99.4133 191.364 99.205 191.784C98.9967 192.205 98.8925 192.655 98.8925 193.136V193.909C98.8925 194.568 99.0061 195.127 99.2334 195.585C99.4645 196.04 99.7845 196.386 100.194 196.625C100.603 196.86 101.078 196.977 101.62 196.977C101.972 196.977 102.29 196.928 102.574 196.83C102.862 196.727 103.11 196.576 103.319 196.375C103.527 196.17 103.688 195.917 103.802 195.614L105.097 195.977C104.961 196.417 104.732 196.803 104.41 197.136C104.088 197.466 103.69 197.723 103.216 197.909C102.743 198.091 102.211 198.182 101.62 198.182ZM106.5 198V196.75H106.819C107.08 196.75 107.298 196.699 107.472 196.597C107.646 196.491 107.786 196.307 107.892 196.045C108.002 195.78 108.086 195.413 108.142 194.943C108.203 194.47 108.247 193.867 108.273 193.136L108.432 189.273H114.25V198H112.91V190.523H109.705L109.569 193.636C109.538 194.352 109.474 194.983 109.375 195.528C109.281 196.07 109.135 196.525 108.938 196.892C108.745 197.259 108.487 197.536 108.165 197.722C107.843 197.907 107.44 198 106.955 198H106.5ZM120.756 190V188.977C120.756 188.667 120.811 188.337 120.921 187.989C121.035 187.636 121.197 187.297 121.41 186.972C121.625 186.642 121.885 186.356 122.188 186.114L122.915 186.705C122.677 187.045 122.468 187.402 122.29 187.773C122.116 188.14 122.029 188.534 122.029 188.955V190H120.756ZM123.665 190V188.977C123.665 188.667 123.72 188.337 123.83 187.989C123.944 187.636 124.107 187.297 124.319 186.972C124.535 186.642 124.794 186.356 125.097 186.114L125.824 186.705C125.586 187.045 125.377 187.402 125.199 187.773C125.025 188.14 124.938 188.534 124.938 188.955V190H123.665ZM128.1 198.159V196.841H128.827C129.107 196.841 129.342 196.786 129.532 196.676C129.725 196.566 129.884 196.424 130.009 196.25C130.138 196.076 130.244 195.894 130.327 195.705L130.509 195.273L126.486 186.364H128.009L131.214 193.591L134.145 186.364H135.645L131.623 196.114C131.464 196.477 131.282 196.814 131.077 197.125C130.876 197.436 130.602 197.686 130.253 197.875C129.909 198.064 129.441 198.159 128.85 198.159H128.1ZM142.875 189.273V198H141.535V189.273H142.875ZM142.353 193.432V194.682C142.05 194.795 141.749 194.896 141.449 194.983C141.15 195.066 140.836 195.133 140.506 195.182C140.177 195.227 139.815 195.25 139.421 195.25C138.432 195.25 137.639 194.983 137.04 194.449C136.446 193.915 136.148 193.114 136.148 192.045V189.25H137.489V192.045C137.489 192.492 137.574 192.86 137.745 193.148C137.915 193.436 138.146 193.65 138.438 193.79C138.73 193.93 139.057 194 139.421 194C139.989 194 140.502 193.949 140.961 193.847C141.423 193.741 141.887 193.602 142.353 193.432ZM148.995 198.182C148.154 198.182 147.428 197.996 146.819 197.625C146.213 197.25 145.745 196.727 145.415 196.057C145.089 195.383 144.927 194.598 144.927 193.705C144.927 192.811 145.089 192.023 145.415 191.341C145.745 190.655 146.203 190.121 146.79 189.739C147.381 189.352 148.071 189.159 148.858 189.159C149.313 189.159 149.762 189.235 150.205 189.386C150.648 189.538 151.052 189.784 151.415 190.125C151.779 190.462 152.069 190.909 152.285 191.466C152.5 192.023 152.608 192.708 152.608 193.523V194.091H145.881V192.932H151.245C151.245 192.439 151.146 192 150.949 191.614C150.756 191.227 150.48 190.922 150.12 190.699C149.764 190.475 149.343 190.364 148.858 190.364C148.324 190.364 147.862 190.496 147.472 190.761C147.086 191.023 146.788 191.364 146.58 191.784C146.372 192.205 146.267 192.655 146.267 193.136V193.909C146.267 194.568 146.381 195.127 146.608 195.585C146.839 196.04 147.16 196.386 147.569 196.625C147.978 196.86 148.453 196.977 148.995 196.977C149.347 196.977 149.665 196.928 149.949 196.83C150.237 196.727 150.485 196.576 150.694 196.375C150.902 196.17 151.063 195.917 151.177 195.614L152.472 195.977C152.336 196.417 152.107 196.803 151.785 197.136C151.463 197.466 151.065 197.723 150.591 197.909C150.118 198.091 149.586 198.182 148.995 198.182ZM147.154 187.818C146.915 187.818 146.703 187.727 146.517 187.545C146.336 187.36 146.245 187.148 146.245 186.909C146.245 186.648 146.336 186.432 146.517 186.261C146.703 186.087 146.915 186 147.154 186C147.415 186 147.631 186.087 147.802 186.261C147.976 186.432 148.063 186.648 148.063 186.909C148.063 187.148 147.976 187.36 147.802 187.545C147.631 187.727 147.415 187.818 147.154 187.818ZM150.427 187.818C150.188 187.818 149.976 187.727 149.79 187.545C149.608 187.36 149.517 187.148 149.517 186.909C149.517 186.648 149.608 186.432 149.79 186.261C149.976 186.087 150.188 186 150.427 186C150.688 186 150.904 186.087 151.074 186.261C151.249 186.432 151.336 186.648 151.336 186.909C151.336 187.148 151.249 187.36 151.074 187.545C150.904 187.727 150.688 187.818 150.427 187.818ZM161.125 186L161.807 186.818C161.542 187.076 161.235 187.256 160.887 187.358C160.538 187.46 160.144 187.523 159.705 187.545C159.266 187.568 158.777 187.591 158.239 187.614C157.633 187.636 157.131 187.784 156.733 188.057C156.336 188.33 156.029 188.723 155.813 189.239C155.597 189.754 155.459 190.386 155.398 191.136H155.512C155.807 190.591 156.216 190.189 156.739 189.932C157.262 189.674 157.822 189.545 158.421 189.545C159.103 189.545 159.716 189.705 160.262 190.023C160.807 190.341 161.239 190.812 161.557 191.438C161.875 192.062 162.035 192.833 162.035 193.75C162.035 194.663 161.872 195.451 161.546 196.114C161.224 196.777 160.771 197.288 160.188 197.648C159.608 198.004 158.928 198.182 158.148 198.182C157.368 198.182 156.684 197.998 156.097 197.631C155.51 197.259 155.053 196.71 154.728 195.983C154.402 195.252 154.239 194.348 154.239 193.273V192.341C154.239 190.398 154.569 188.924 155.228 187.92C155.891 186.917 156.887 186.398 158.216 186.364C158.686 186.348 159.105 186.345 159.472 186.352C159.839 186.36 160.16 186.343 160.432 186.301C160.705 186.259 160.936 186.159 161.125 186ZM158.148 196.977C158.675 196.977 159.127 196.845 159.506 196.58C159.889 196.314 160.182 195.941 160.387 195.46C160.591 194.975 160.694 194.405 160.694 193.75C160.694 193.114 160.589 192.572 160.381 192.125C160.177 191.678 159.883 191.337 159.5 191.102C159.118 190.867 158.66 190.75 158.125 190.75C157.735 190.75 157.385 190.816 157.074 190.949C156.764 191.081 156.499 191.277 156.279 191.534C156.059 191.792 155.889 192.106 155.767 192.477C155.65 192.848 155.588 193.273 155.58 193.75C155.58 194.727 155.809 195.509 156.267 196.097C156.726 196.684 157.353 196.977 158.148 196.977ZM166.654 198.205C166.101 198.205 165.599 198.1 165.148 197.892C164.697 197.68 164.339 197.375 164.074 196.977C163.809 196.576 163.677 196.091 163.677 195.523C163.677 195.023 163.775 194.617 163.972 194.307C164.169 193.992 164.432 193.746 164.762 193.568C165.091 193.39 165.455 193.258 165.853 193.17C166.254 193.08 166.658 193.008 167.063 192.955C167.593 192.886 168.023 192.835 168.353 192.801C168.686 192.763 168.928 192.701 169.08 192.614C169.235 192.527 169.313 192.375 169.313 192.159V192.114C169.313 191.553 169.16 191.117 168.853 190.807C168.55 190.496 168.089 190.341 167.472 190.341C166.832 190.341 166.33 190.481 165.966 190.761C165.603 191.042 165.347 191.341 165.199 191.659L163.927 191.205C164.154 190.674 164.457 190.261 164.836 189.966C165.218 189.667 165.635 189.458 166.086 189.341C166.54 189.22 166.987 189.159 167.427 189.159C167.707 189.159 168.029 189.193 168.392 189.261C168.76 189.326 169.114 189.46 169.455 189.665C169.8 189.869 170.086 190.178 170.313 190.591C170.54 191.004 170.654 191.557 170.654 192.25V198H169.313V196.818H169.245C169.154 197.008 169.002 197.21 168.79 197.426C168.578 197.642 168.296 197.826 167.944 197.977C167.591 198.129 167.161 198.205 166.654 198.205ZM166.858 197C167.389 197 167.836 196.896 168.199 196.688C168.567 196.479 168.843 196.21 169.029 195.881C169.218 195.551 169.313 195.205 169.313 194.841V193.614C169.256 193.682 169.131 193.744 168.938 193.801C168.749 193.854 168.529 193.902 168.279 193.943C168.033 193.981 167.792 194.015 167.557 194.045C167.326 194.072 167.139 194.095 166.995 194.114C166.646 194.159 166.321 194.233 166.017 194.335C165.718 194.434 165.476 194.583 165.29 194.784C165.108 194.981 165.017 195.25 165.017 195.591C165.017 196.057 165.19 196.409 165.535 196.648C165.883 196.883 166.324 197 166.858 197ZM174.283 186.364V187.386C174.283 187.697 174.226 188.028 174.113 188.381C174.003 188.729 173.84 189.068 173.624 189.398C173.412 189.723 173.154 190.008 172.851 190.25L172.124 189.659C172.363 189.318 172.569 188.964 172.743 188.597C172.921 188.225 173.01 187.83 173.01 187.409V186.364H174.283ZM177.192 186.364V187.386C177.192 187.697 177.135 188.028 177.022 188.381C176.912 188.729 176.749 189.068 176.533 189.398C176.321 189.723 176.063 190.008 175.76 190.25L175.033 189.659C175.272 189.318 175.478 188.964 175.652 188.597C175.83 188.225 175.919 187.83 175.919 187.409V186.364H177.192Z" fill="black"/>
<path d="M79.1273 234.112H92.2313V235.136H79.1273V234.112ZM79.6393 245.84H91.7513V246.848H79.6393V245.84ZM82.2793 236.192H89.0153V237.104H82.2793V236.192ZM82.2793 238.208H89.0153V239.12H82.2793V238.208ZM78.3753 240.272H92.9193V241.28H78.3753V240.272ZM81.7353 243.136H89.5913V244.128H81.7353V243.136ZM81.5593 232.576H82.7593V240.832H81.5593V232.576ZM88.5993 232.576H89.7993V240.832H88.5993V232.576ZM84.9993 241.792H86.2313V246.4H84.9993V241.792ZM82.4073 240.544L83.4153 240.928C82.4393 242.576 80.6793 244.096 78.9993 244.88C78.8233 244.608 78.4873 244.192 78.2153 243.968C79.8313 243.328 81.5433 241.952 82.4073 240.544ZM88.9513 240.544C89.7993 241.904 91.4633 243.168 93.1273 243.76C92.8553 243.984 92.5033 244.4 92.3273 244.688C90.6313 243.968 88.9353 242.48 88.0073 240.912L88.9513 240.544ZM94.5193 238.96H108.791V240.144H94.5193V238.96ZM101.159 234.112H102.423V245.536C102.423 246.416 102.183 246.784 101.575 246.992C100.983 247.184 99.9273 247.216 98.2953 247.216C98.2153 246.864 97.9753 246.304 97.7993 245.952C99.1113 245.984 100.327 245.984 100.695 245.968C101.031 245.952 101.159 245.856 101.159 245.536V234.112ZM95.6393 233.712H107.671V234.896H95.6393V233.712ZM110.934 234.364H113.064L116.769 243.409H116.905L120.61 234.364H122.741V246H121.07V237.58H120.962L117.53 245.983H116.144L112.712 237.574H112.604V246H110.934V234.364ZM128.833 246.176C128.015 246.176 127.301 245.989 126.691 245.614C126.081 245.239 125.607 244.714 125.27 244.04C124.933 243.366 124.765 242.578 124.765 241.676C124.765 240.771 124.933 239.979 125.27 239.301C125.607 238.623 126.081 238.097 126.691 237.722C127.301 237.347 128.015 237.159 128.833 237.159C129.651 237.159 130.365 237.347 130.975 237.722C131.585 238.097 132.058 238.623 132.395 239.301C132.732 239.979 132.901 240.771 132.901 241.676C132.901 242.578 132.732 243.366 132.395 244.04C132.058 244.714 131.585 245.239 130.975 245.614C130.365 245.989 129.651 246.176 128.833 246.176ZM128.839 244.75C129.369 244.75 129.808 244.61 130.157 244.33C130.505 244.049 130.763 243.676 130.929 243.21C131.1 242.744 131.185 242.231 131.185 241.67C131.185 241.114 131.1 240.602 130.929 240.136C130.763 239.667 130.505 239.29 130.157 239.006C129.808 238.722 129.369 238.58 128.839 238.58C128.304 238.58 127.861 238.722 127.509 239.006C127.16 239.29 126.901 239.667 126.731 240.136C126.564 240.602 126.481 241.114 126.481 241.67C126.481 242.231 126.564 242.744 126.731 243.21C126.901 243.676 127.16 244.049 127.509 244.33C127.861 244.61 128.304 244.75 128.839 244.75ZM138.473 246.176C137.655 246.176 136.941 245.989 136.331 245.614C135.722 245.239 135.248 244.714 134.911 244.04C134.574 243.366 134.405 242.578 134.405 241.676C134.405 240.771 134.574 239.979 134.911 239.301C135.248 238.623 135.722 238.097 136.331 237.722C136.941 237.347 137.655 237.159 138.473 237.159C139.292 237.159 140.006 237.347 140.616 237.722C141.225 238.097 141.699 238.623 142.036 239.301C142.373 239.979 142.542 240.771 142.542 241.676C142.542 242.578 142.373 243.366 142.036 244.04C141.699 244.714 141.225 245.239 140.616 245.614C140.006 245.989 139.292 246.176 138.473 246.176ZM138.479 244.75C139.009 244.75 139.449 244.61 139.797 244.33C140.146 244.049 140.403 243.676 140.57 243.21C140.741 242.744 140.826 242.231 140.826 241.67C140.826 241.114 140.741 240.602 140.57 240.136C140.403 239.667 140.146 239.29 139.797 239.006C139.449 238.722 139.009 238.58 138.479 238.58C137.945 238.58 137.502 238.722 137.15 239.006C136.801 239.29 136.542 239.667 136.371 240.136C136.205 240.602 136.121 241.114 136.121 241.67C136.121 242.231 136.205 242.744 136.371 243.21C136.542 243.676 136.801 244.049 137.15 244.33C137.502 244.61 137.945 244.75 138.479 244.75ZM147.705 246.17C147 246.17 146.372 245.991 145.819 245.631C145.269 245.267 144.838 244.75 144.523 244.08C144.213 243.405 144.057 242.597 144.057 241.653C144.057 240.71 144.214 239.903 144.529 239.233C144.847 238.562 145.283 238.049 145.836 237.693C146.389 237.337 147.016 237.159 147.716 237.159C148.258 237.159 148.694 237.25 149.023 237.432C149.357 237.61 149.614 237.818 149.796 238.057C149.982 238.295 150.125 238.506 150.228 238.688H150.33V234.364H152.029V246H150.37V244.642H150.228C150.125 244.828 149.978 245.04 149.785 245.278C149.595 245.517 149.334 245.725 149 245.903C148.667 246.081 148.235 246.17 147.705 246.17ZM148.08 244.722C148.569 244.722 148.982 244.593 149.319 244.335C149.66 244.074 149.917 243.712 150.091 243.25C150.269 242.788 150.358 242.25 150.358 241.636C150.358 241.03 150.271 240.5 150.097 240.045C149.923 239.591 149.667 239.237 149.33 238.983C148.993 238.729 148.576 238.602 148.08 238.602C147.569 238.602 147.142 238.735 146.802 239C146.461 239.265 146.203 239.627 146.029 240.085C145.858 240.544 145.773 241.061 145.773 241.636C145.773 242.22 145.86 242.744 146.035 243.21C146.209 243.676 146.466 244.045 146.807 244.318C147.152 244.587 147.576 244.722 148.08 244.722ZM156.152 234.364V246H154.454V234.364H156.152ZM162.199 246.176C161.339 246.176 160.599 245.992 159.978 245.625C159.36 245.254 158.883 244.733 158.546 244.062C158.213 243.388 158.046 242.598 158.046 241.693C158.046 240.799 158.213 240.011 158.546 239.33C158.883 238.648 159.353 238.116 159.955 237.733C160.561 237.35 161.269 237.159 162.08 237.159C162.572 237.159 163.05 237.241 163.512 237.403C163.974 237.566 164.389 237.822 164.756 238.17C165.124 238.519 165.413 238.972 165.625 239.528C165.838 240.081 165.944 240.754 165.944 241.545V242.148H159.006V240.875H164.279C164.279 240.428 164.188 240.032 164.006 239.688C163.824 239.339 163.569 239.064 163.239 238.864C162.913 238.663 162.531 238.562 162.091 238.562C161.614 238.562 161.197 238.68 160.841 238.915C160.489 239.146 160.216 239.449 160.023 239.824C159.834 240.195 159.739 240.598 159.739 241.034V242.028C159.739 242.612 159.841 243.108 160.046 243.517C160.254 243.926 160.544 244.239 160.915 244.455C161.286 244.667 161.72 244.773 162.216 244.773C162.538 244.773 162.832 244.727 163.097 244.636C163.362 244.542 163.591 244.402 163.785 244.216C163.978 244.03 164.125 243.801 164.228 243.528L165.836 243.818C165.707 244.292 165.476 244.706 165.142 245.062C164.813 245.415 164.398 245.689 163.898 245.886C163.402 246.08 162.836 246.176 162.199 246.176ZM168.783 235.136H173.647V245.6H168.783V244.512H172.527V236.208H168.783V235.136ZM168.063 235.136H169.183V246.88H168.063V235.136ZM168.703 239.584H173.119V240.656H168.703V239.584ZM170.511 232.528L171.807 232.768C171.487 233.76 171.087 234.864 170.767 235.584L169.807 235.344C170.079 234.576 170.383 233.36 170.511 232.528ZM175.919 235.088H180.831V236.208H175.919V235.088ZM180.415 235.088H181.535C181.535 235.088 181.535 235.536 181.535 235.712C181.279 243.056 181.055 245.536 180.415 246.32C180.063 246.784 179.695 246.928 179.135 246.976C178.591 247.04 177.647 247.008 176.751 246.96C176.719 246.608 176.575 246.112 176.351 245.792C177.391 245.872 178.351 245.888 178.719 245.888C179.039 245.888 179.231 245.84 179.407 245.632C179.935 245.056 180.191 242.4 180.415 235.344V235.088ZM176.255 232.496L177.407 232.768C176.815 235.152 175.871 237.504 174.767 239.024C174.559 238.832 174.063 238.496 173.775 238.336C174.863 236.928 175.743 234.72 176.255 232.496ZM175.519 239.248L176.447 238.704C177.359 239.84 178.463 241.392 178.975 242.336L177.951 242.976C177.471 242 176.399 240.416 175.519 239.248ZM185.311 238.352H195.903V239.472H185.311V238.352ZM189.903 232.592H191.167V244.672C191.167 245.616 191.359 245.792 192.303 245.792C192.783 245.792 195.135 245.792 195.711 245.792C196.591 245.792 196.751 245.264 196.879 243.2C197.183 243.424 197.695 243.632 198.079 243.728C197.871 246.16 197.471 247.008 195.775 247.008C195.343 247.008 192.639 247.008 192.223 247.008C190.431 247.008 189.903 246.528 189.903 244.656V232.592ZM185.407 234.896H196.511V242.96H185.407V241.792H195.295V236.064H185.407V234.896ZM184.687 234.896H185.935V243.936H184.687V234.896ZM199.439 239.712H213.967V240.912H199.439V239.712ZM206.095 237.136H207.343V245.744C207.343 246.544 207.119 246.912 206.511 247.104C205.919 247.296 204.879 247.328 203.343 247.328C203.247 246.976 203.023 246.432 202.815 246.08C204.111 246.128 205.295 246.128 205.647 246.112C205.983 246.096 206.095 246.016 206.095 245.728V237.136ZM201.087 233.68H211.535V234.864H201.087V233.68ZM211.119 233.68H211.439L211.711 233.616L212.623 234.288C211.167 235.76 208.895 237.344 207.023 238.304C206.847 238.032 206.479 237.648 206.239 237.44C207.983 236.608 210.111 235.088 211.119 233.952V233.68ZM218.335 237.968H226.255V239.024H218.335V237.968ZM215.647 241.616H229.791V242.736H215.647V241.616ZM222.079 240.448H223.311V245.856C223.311 246.576 223.119 246.928 222.511 247.104C221.935 247.28 221.007 247.296 219.551 247.296C219.471 246.96 219.231 246.464 219.039 246.144C220.271 246.176 221.359 246.176 221.679 246.16C221.999 246.144 222.079 246.064 222.079 245.824V240.448ZM225.887 237.968H226.191L226.447 237.904L227.215 238.496C226.127 239.6 224.447 240.704 222.927 241.36C222.783 241.152 222.463 240.832 222.255 240.656C223.599 240.08 225.135 239.024 225.887 238.208V237.968ZM215.967 235.232H229.519V238.8H228.335V236.32H217.103V238.8H215.967V235.232ZM227.407 232.672L228.655 233.088C227.983 234.08 227.119 235.152 226.447 235.856L225.503 235.456C226.143 234.704 226.959 233.52 227.407 232.672ZM217.055 233.232L218.063 232.752C218.687 233.424 219.343 234.336 219.615 234.976L218.543 235.488C218.287 234.88 217.647 233.92 217.055 233.232ZM221.167 232.88L222.207 232.496C222.751 233.248 223.327 234.288 223.519 234.96L222.415 235.392C222.223 234.72 221.695 233.664 221.167 232.88ZM232.575 233.728H244.127V234.88H232.575V233.728ZM234.367 236.992L235.183 236.208C236.607 237.168 238.511 238.544 239.455 239.424L238.607 240.352C237.711 239.44 235.807 238 234.367 236.992ZM243.695 233.728H244.895C244.895 233.728 244.895 234.24 244.895 234.416C244.783 242.832 244.655 245.536 244.047 246.352C243.695 246.896 243.295 247.072 242.719 247.12C242.095 247.184 241.055 247.152 240.127 247.104C240.111 246.768 239.951 246.272 239.727 245.952C240.847 246.032 241.855 246.032 242.271 246.032C242.575 246.032 242.751 245.984 242.927 245.776C243.455 245.184 243.583 242.064 243.695 234V233.728ZM232.335 243.856C234.639 243.152 238.431 241.888 241.935 240.688L242.143 241.808C238.847 242.976 235.215 244.224 232.751 245.072L232.335 243.856ZM259.871 234.784H261.071V245.744C261.071 246.496 260.895 246.864 260.383 247.072C259.855 247.264 258.975 247.28 257.663 247.28C257.599 246.96 257.407 246.4 257.231 246.064C258.207 246.112 259.215 246.096 259.503 246.08C259.775 246.064 259.871 246 259.871 245.712V234.784ZM248.287 234.784H260.415V235.92H249.471V247.28H248.287V234.784ZM254.031 232.56H255.215V239.2H254.031V232.56ZM265.391 235.04H266.639V238.528C266.639 241.152 266.303 244.896 264.255 247.376C264.047 247.152 263.519 246.784 263.215 246.656C265.183 244.288 265.391 240.944 265.391 238.528V235.04ZM269.727 232.784L270.895 232.48C271.263 233.232 271.679 234.192 271.871 234.816L270.655 235.184C270.479 234.544 270.063 233.536 269.727 232.784ZM266.175 235.04H276.207V241.568H274.991V236.176H266.175V235.04ZM266.175 239.392H275.647V240.512H266.175V239.392ZM281.791 242.112C283.135 242.112 284.223 243.2 284.223 244.544C284.223 245.888 283.135 246.976 281.791 246.976C280.447 246.976 279.343 245.888 279.343 244.544C279.343 243.2 280.447 242.112 281.791 242.112ZM281.791 246.16C282.687 246.16 283.407 245.44 283.407 244.544C283.407 243.648 282.687 242.928 281.791 242.928C280.895 242.928 280.159 243.648 280.159 244.544C280.159 245.44 280.895 246.16 281.791 246.16Z" fill="#2D3342"/>
<defs>
<linearGradient id="paint0_linear_1398_7557" x1="144.186" y1="15" x2="183.237" y2="55.6819" gradientUnits="userSpaceOnUse">
<stop stop-color="#5955B3"/>
<stop offset="1" stop-color="#6563CE"/>
</linearGradient>
</defs>
</svg>
