<svg width="325" height="290" viewBox="0 0 325 290" fill="none" xmlns="http://www.w3.org/2000/svg">
<rect width="325" height="290" rx="5" fill="white"/>
<path d="M18.0947 172.73C17.6312 172.662 6.40849 171.195 6.87593 160.962C6.91888 160.022 7.03852 159.167 7.22446 158.391M18.0947 172.73C11.9435 172.331 8.81777 169.969 7.41888 167.139M18.0947 172.73C18.8389 172.838 19.6065 172.829 20.3657 172.711M7.22446 158.391C7.45725 157.421 7.79398 156.575 8.21425 155.846M7.22446 158.391C6.38643 160.667 5.94778 164.162 7.41888 167.139M8.21425 155.846C11.6598 149.863 20.7211 151.65 24.1716 155.846C25.5255 157.493 28.3631 161.671 26.9803 166.894C26.1134 170.168 23.3011 172.256 20.3657 172.711M8.21425 155.846C6.90318 157.651 5.00095 161.879 6.62724 165.713M7.41888 167.139C7.09341 166.673 6.83228 166.196 6.62724 165.713M20.3657 172.711C16.4842 173.373 8.30227 172.9 6.62724 165.713" stroke="#6663CF" stroke-linecap="round"/>
<path opacity="0.2" fill-rule="evenodd" clip-rule="evenodd" d="M324.664 269.81C324.612 280.783 315.724 289.668 304.749 289.713H171.145C177.237 275.753 202.684 247.832 255.737 247.832C308.79 247.832 323.794 226.116 324.664 215.258V269.81Z" fill="#89AFFF"/>
<path opacity="0.2" fill-rule="evenodd" clip-rule="evenodd" d="M20.3296 1.00598e-05L149.01 0C147.124 10.5057 135.565 40.0486 87.9495 53.4493C42.1924 66.3269 11.8999 62.0633 0.329626 57.8976L0.329622 20C0.329621 8.95432 9.28389 1.09233e-05 20.3296 1.00598e-05Z" fill="#89AFFF"/>
<path d="M95.176 43.312H116.776V45.952H95.176V43.312ZM95.92 31.024H116.176V33.664H95.92V31.024ZM101.104 35.152H110.824V37.552H101.104V35.152ZM101.104 39.184H110.824V41.584H101.104V39.184ZM99.28 28.672H102.136V44.728H99.28V28.672ZM109.72 28.672H112.648V44.728H109.72V28.672ZM107.2 47.896L109.264 46.12C112 47.056 115.096 48.352 116.92 49.264L114.136 51.088C112.6 50.152 109.84 48.856 107.2 47.896ZM102.352 45.88L104.752 47.776C102.568 49.024 99.304 50.368 96.76 51.136C96.328 50.536 95.488 49.576 94.888 48.976C97.408 48.304 100.672 46.96 102.352 45.88ZM132.568 28.72H135.256V45.448H132.568V28.72ZM124.456 38.128L138.712 32.584L139.792 35.08L125.56 40.672L124.456 38.128ZM127.384 31.312H130.24V46.552C130.24 47.992 130.48 48.208 132.064 48.208C132.784 48.208 136.072 48.208 136.912 48.208C138.304 48.208 138.568 47.632 138.784 44.896C139.432 45.352 140.584 45.832 141.4 46.024C141.016 49.624 140.152 50.8 137.128 50.8C136.312 50.8 132.568 50.8 131.824 50.8C128.344 50.8 127.384 49.888 127.384 46.552V31.312ZM137.728 33.064H137.56L138.064 32.704L138.568 32.32L140.536 33.088L140.416 33.52C140.392 37.72 140.368 40.624 140.224 41.656C140.104 42.88 139.672 43.504 138.856 43.864C138.136 44.176 137.008 44.224 136.144 44.2C136.096 43.384 135.832 42.184 135.52 41.56C136.024 41.584 136.72 41.584 136.984 41.584C137.32 41.584 137.488 41.512 137.608 41.032C137.704 40.504 137.728 38.104 137.728 33.064ZM123.784 28.72L126.448 29.56C124.912 33.616 122.416 37.936 119.824 40.672C119.56 40 118.792 38.44 118.312 37.744C120.496 35.56 122.56 32.152 123.784 28.72ZM121.36 35.344L124.192 32.536V32.56V51.136H121.36V35.344ZM143.296 31.528H164.704V34.216H143.296V31.528ZM149.776 40.168H160.216V42.568H149.776V40.168ZM147.64 36.112H159.784V38.632H150.496V51.136H147.64V36.112ZM159.208 36.112H162.016V48.04C162.016 49.456 161.752 50.248 160.768 50.704C159.808 51.136 158.44 51.16 156.496 51.16C156.376 50.368 155.992 49.144 155.608 48.4C156.856 48.472 158.272 48.448 158.68 48.448C159.064 48.448 159.208 48.328 159.208 47.992V36.112ZM150.736 28.6L153.712 29.272C152.032 34.696 149.152 40.216 144.472 43.48C144.064 42.832 143.152 41.8 142.576 41.248C146.848 38.44 149.536 33.28 150.736 28.6ZM149.776 44.128H160.216V46.528H149.776V44.128ZM171.04 30.232H185.776V32.968H171.04V30.232ZM171.04 35.752H185.824V38.44H171.04V35.752ZM170.992 41.416H185.92V44.128H170.992V41.416ZM169.384 30.232H172.24V38.872C172.24 42.688 171.76 48.088 168.808 51.304C168.352 50.752 167.176 49.792 166.552 49.432C169.168 46.528 169.384 42.232 169.384 38.848V30.232ZM184.768 30.232H187.624V47.776C187.624 49.312 187.288 50.08 186.328 50.536C185.32 50.992 183.88 51.04 181.696 51.016C181.576 50.248 181.144 49 180.76 48.256C182.128 48.352 183.712 48.328 184.144 48.328C184.6 48.304 184.768 48.16 184.768 47.752V30.232ZM176.776 31.312H179.704V50.872H176.776V31.312ZM191.704 31.168L193.144 29.224C194.752 29.824 196.96 30.856 198.064 31.672L196.552 33.832C195.52 32.992 193.36 31.84 191.704 31.168ZM191.032 36.64C192.832 36.136 195.496 35.272 198.088 34.408L198.592 36.88C196.312 37.72 193.864 38.56 191.872 39.256L191.032 36.64ZM201.112 28.816L203.824 29.2C203.008 31.576 201.76 33.832 199.552 35.656C199.12 35.032 198.184 34.168 197.56 33.832C199.456 32.44 200.56 30.52 201.112 28.816ZM202.12 30.688H210.256V32.8H200.632L202.12 30.688ZM209.656 30.688H210.088L210.544 30.568L212.68 31.072C212.176 32.512 211.528 34.12 210.976 35.176L208.456 34.528C208.864 33.64 209.368 32.2 209.656 31.024V30.688ZM193.912 40.024H210.4V46.384H207.4V42.64H196.744V46.648H193.912V40.024ZM200.656 43.264H203.464C202.624 47.464 200.512 50.008 192.064 51.208C191.872 50.536 191.272 49.384 190.792 48.808C198.424 47.968 199.936 46.24 200.656 43.264ZM202.144 47.848L203.8 45.808C206.536 46.528 210.592 47.848 212.728 48.784L210.928 51.088C208.984 50.128 205 48.688 202.144 47.848ZM204.232 31.72H207.064C206.368 35.32 204.832 38.296 199.456 40.024C199.192 39.376 198.496 38.416 197.944 37.936C202.648 36.616 203.68 34.288 204.232 31.72ZM206.392 33.112C207.544 35.272 209.92 36.88 213.016 37.504C212.44 38.032 211.696 39.064 211.336 39.784C208 38.776 205.624 36.592 204.304 33.616L206.392 33.112ZM218.536 28.744H221.2V51.112H218.536V28.744ZM214.912 36.616H224.752V39.304H214.912V36.616ZM218.032 38.056L219.616 38.824C218.848 42.04 217.36 46.216 215.776 48.52C215.512 47.632 214.888 46.36 214.456 45.544C215.896 43.768 217.36 40.432 218.032 38.056ZM221.152 39.448C221.848 40.072 224.176 42.856 224.704 43.528L222.928 45.784C222.304 44.416 220.696 41.752 219.832 40.576L221.152 39.448ZM214.864 30.592L216.88 30.064C217.504 31.816 217.984 34.096 218.104 35.608L215.944 36.184C215.896 34.672 215.44 32.344 214.864 30.592ZM222.784 29.944L225.208 30.472C224.584 32.416 223.864 34.696 223.264 36.112L221.464 35.608C221.944 34.072 222.52 31.648 222.784 29.944ZM231.856 28.6H234.568V51.136H231.856V28.6ZM224.68 43.624L237.016 41.416L237.448 44.08L225.136 46.312L224.68 43.624ZM226.048 31.888L227.464 29.92C228.808 30.736 230.512 31.936 231.304 32.824L229.792 35.008C229.072 34.072 227.392 32.752 226.048 31.888ZM224.968 37.936L226.312 35.872C227.704 36.616 229.504 37.768 230.368 38.656L228.928 40.936C228.112 40.048 226.36 38.752 224.968 37.936Z" fill="url(#paint0_linear_1398_7637)"/>
<path d="M49.3068 74.4545V89H47.1051V76.6562H47.0198L43.5397 78.929V76.8267L47.169 74.4545H49.3068ZM56.5173 89.1349C56.1291 89.1349 55.7953 88.9976 55.5159 88.723C55.2366 88.4437 55.0969 88.1075 55.0969 87.7145C55.0969 87.3262 55.2366 86.9948 55.5159 86.7202C55.7953 86.4408 56.1291 86.3011 56.5173 86.3011C56.9056 86.3011 57.2394 86.4408 57.5188 86.7202C57.7981 86.9948 57.9378 87.3262 57.9378 87.7145C57.9378 87.9749 57.8715 88.214 57.7389 88.4318C57.6111 88.6449 57.4406 88.8153 57.2276 88.9432C57.0145 89.071 56.7778 89.1349 56.5173 89.1349ZM79.2 86.84L80.38 86.14C81.8 87.1 83.62 88.54 84.54 89.52L83.3 90.32C82.44 89.36 80.66 87.88 79.2 86.84ZM69.58 81.24H82.68V82.5H69.58V81.24ZM67.48 74.22H75.02V75.5H67.48V74.22ZM67.3 84.1H84.74V85.4H67.3V84.1ZM75.3 84.44H76.82V89.02C76.82 89.84 76.64 90.22 75.98 90.42C75.32 90.62 74.28 90.64 72.72 90.64C72.62 90.24 72.4 89.7 72.2 89.3C73.46 89.36 74.56 89.36 74.9 89.34C75.24 89.32 75.3 89.24 75.3 88.98V84.44ZM70.94 86.16L72.36 86.62C71.34 88.06 69.72 89.46 68.26 90.36C68 90.1 67.42 89.64 67.08 89.4C68.54 88.62 70.06 87.4 70.94 86.16ZM70.82 72.2H72.22V80.54H70.82V72.2ZM75.96 74.22H84.46V75.5H75.96V74.22ZM79.52 72.2H80.92V80.54H79.52V72.2ZM72.08 75.58C72.72 75.96 74.8 77.44 75.34 77.86L74.52 78.88C73.86 78.24 72.06 76.8 71.3 76.26L72.08 75.58ZM81.02 74.96C81.94 76.56 83.68 78.36 85.16 79.22C84.86 79.46 84.4 79.94 84.2 80.26C82.74 79.22 81 77.18 80.04 75.36L81.02 74.96ZM70.74 74.78L71.78 75.18C70.88 77.18 69.22 79.3 67.68 80.4C67.44 80.06 67.04 79.58 66.74 79.34C68.24 78.44 69.9 76.56 70.74 74.78ZM79.32 74.9L80.36 75.3C79.4 77.24 77.64 79.24 76 80.26C75.78 79.94 75.38 79.48 75.08 79.24C76.66 78.38 78.42 76.58 79.32 74.9ZM96.76 78.92H104.08V80.42H96.76V78.92ZM86.96 88.12H104.98V89.6H86.96V88.12ZM95.96 72.26H97.54V88.88H95.96V72.26ZM89.74 76.62H91.28V88.82H89.74V76.62ZM110.26 79.38H121.88V80.78H110.26V79.38ZM110.26 83.72H121.88V85.12H110.26V83.72ZM110.26 88.1H121.88V89.5H110.26V88.1ZM109.24 74.94H123.04V90.52H121.48V76.38H110.76V90.62H109.24V74.94ZM115.1 72.18L116.84 72.4C116.4 73.6 115.88 74.9 115.44 75.76L114.1 75.5C114.46 74.56 114.9 73.16 115.1 72.18ZM134.7 73.42H144.52V74.86H134.7V73.42ZM140.54 79.38H142.06V88.68C142.06 89.62 141.84 90.08 141.16 90.32C140.48 90.54 139.34 90.56 137.38 90.56C137.32 90.14 137.12 89.52 136.9 89.08C138.32 89.12 139.66 89.12 140.02 89.1C140.42 89.08 140.54 89 140.54 88.66V79.38ZM133.82 78.94H145.1V80.36H133.82V78.94ZM129.82 80.48L131.14 79.18L131.32 79.26V90.66H129.82V80.48ZM132.14 76.48L133.56 77.02C132 79.56 129.64 82.14 127.54 83.82C127.32 83.52 126.8 82.86 126.48 82.58C128.56 81.1 130.76 78.78 132.14 76.48ZM131.32 72.2L132.76 72.78C131.42 74.54 129.36 76.48 127.58 77.76C127.36 77.44 126.96 76.86 126.7 76.56C128.36 75.44 130.3 73.64 131.32 72.2ZM155.5 79.74H163.42V81.12H155.5V79.74ZM157.74 80.48C159.08 84.32 161.8 87.8 165.26 89.28C164.9 89.58 164.44 90.16 164.2 90.56C160.64 88.8 157.92 85.12 156.44 80.84L157.74 80.48ZM163.02 79.74H163.3L163.58 79.68L164.54 80C163.58 84.56 161.04 88.54 157.08 90.64C156.84 90.3 156.4 89.84 156.06 89.54C159.8 87.66 162.22 83.94 163.02 80.06V79.74ZM162.4 72.88H163.92C163.92 72.88 163.9 73.3 163.88 73.52C163.78 76.34 163.6 77.5 163.16 77.94C162.8 78.32 162.34 78.42 161.68 78.48C161.06 78.5 159.78 78.5 158.44 78.42C158.42 78.04 158.26 77.52 158.04 77.16C159.34 77.28 160.66 77.28 161.06 77.28C161.48 77.28 161.7 77.26 161.88 77.12C162.16 76.84 162.28 75.78 162.4 73.1V72.88ZM146.64 82.8C148.4 82.36 151.02 81.62 153.54 80.9L153.7 82.34C151.4 83.06 148.92 83.8 147.04 84.32L146.64 82.8ZM146.92 76.24H153.56V77.72H146.92V76.24ZM149.78 72.22H151.3V88.74C151.3 89.68 151.06 90.1 150.48 90.32C149.88 90.58 148.94 90.6 147.36 90.6C147.3 90.22 147.08 89.58 146.86 89.18C147.98 89.22 149.02 89.2 149.32 89.18C149.66 89.18 149.78 89.08 149.78 88.74V72.22ZM154.46 72.88H162.86V74.3H155.94V90.56H154.46V72.88ZM173.28 88.42H182.94V89.8H173.28V88.42ZM172.6 74.22H179.94V75.56H172.6V74.22ZM173.5 72.14L175.18 72.48C173.68 75.08 171.28 77.8 167.8 79.86C167.58 79.48 167.08 78.96 166.74 78.7C170.04 76.9 172.34 74.32 173.5 72.14ZM179.44 74.22H179.72L180 74.14L181 74.68C178.6 80.72 172.96 84.74 167.52 86.5C167.34 86.1 166.96 85.48 166.64 85.16C171.82 83.66 177.36 79.74 179.44 74.48V74.22ZM170.1 77.78L171.22 76.82C172.8 77.9 174.72 79.5 175.64 80.64L174.42 81.72C173.58 80.58 171.68 78.9 170.1 77.78ZM182.2 82.1H183.74V90.64H182.2V82.1ZM173.96 82.1H182.96V83.48H173.96V90.6H172.46V83.28L173.66 82.1H173.96ZM187.06 75.36H204.94V76.76H187.06V75.36ZM189.12 81.8H194.72V82.98H189.12V81.8ZM189.12 85H194.72V86.18H189.12V85ZM198.06 78.72H199.48V86.94H198.06V78.72ZM194.18 78.54H195.64V88.88C195.64 89.64 195.46 90.04 194.9 90.28C194.36 90.52 193.48 90.52 192.12 90.52C192.04 90.14 191.82 89.58 191.62 89.2C192.62 89.24 193.54 89.24 193.82 89.22C194.1 89.2 194.18 89.12 194.18 88.86V78.54ZM202.12 78.12H203.6V88.74C203.6 89.62 203.4 90.04 202.78 90.28C202.16 90.5 201.16 90.54 199.6 90.54C199.52 90.14 199.28 89.5 199.06 89.1C200.28 89.14 201.36 89.14 201.7 89.12C202.02 89.1 202.12 89.02 202.12 88.74V78.12ZM190.16 72.7L191.54 72.18C192.32 73.04 193.16 74.22 193.54 75L192.06 75.54C191.74 74.78 190.92 73.56 190.16 72.7ZM200.44 72.12L202.04 72.64C201.28 73.88 200.38 75.26 199.64 76.2L198.32 75.7C199.04 74.74 199.94 73.2 200.44 72.12ZM188.32 78.54H194.66V79.84H189.74V90.5H188.32V78.54ZM213.1 81.1H218.58V82.34H213.1V81.1ZM213.1 84.58H218.64V85.82H213.1V84.58ZM208.98 88.16H223.1V89.56H208.98V88.16ZM208.06 77.48H223.92V90.62H222.4V78.88H209.52V90.62H208.06V77.48ZM212.4 78.36H213.76V88.8H212.4V78.36ZM218 78.36H219.38V88.74H218V78.36ZM215 74.2L216.74 74.6C216.32 75.94 215.9 77.48 215.5 78.48L214.14 78.1C214.46 77.02 214.86 75.36 215 74.2ZM207.16 73.54H224.88V74.98H207.16V73.54ZM235.2 72.94H241.12V74.34H235.2V72.94ZM232.8 81.04H242.66V82.46H232.8V81.04ZM240.24 72.94H241.74V77.84C241.74 78.24 241.76 78.5 241.88 78.58C241.98 78.64 242.12 78.66 242.34 78.66C242.5 78.66 242.88 78.66 243.1 78.66C243.3 78.66 243.54 78.62 243.66 78.58C243.78 78.52 243.88 78.36 243.92 78.1C243.98 77.8 244 77.12 244.02 76.24C244.32 76.52 244.86 76.76 245.26 76.9C245.24 77.76 245.18 78.7 245.04 79.04C244.9 79.38 244.66 79.62 244.34 79.76C244.08 79.88 243.58 79.94 243.22 79.94C242.92 79.94 242.24 79.94 242 79.94C241.56 79.94 241.04 79.84 240.72 79.56C240.38 79.3 240.24 78.96 240.24 77.78V72.94ZM242.06 81.04H242.36L242.66 80.98L243.66 81.42C241.8 86.74 237.14 89.46 232.06 90.64C231.9 90.24 231.56 89.6 231.26 89.28C236.04 88.34 240.48 85.78 242.06 81.28V81.04ZM235.64 82.34C237.26 85.86 240.76 88.38 245.42 89.3C245.08 89.62 244.64 90.22 244.42 90.64C239.64 89.54 236.16 86.8 234.3 82.8L235.64 82.34ZM234.58 72.94H236.04V75.26C236.04 77.14 235.46 79.38 232.88 80.84C232.68 80.52 232.14 79.96 231.84 79.74C234.2 78.46 234.58 76.74 234.58 75.24V72.94ZM227.84 73.46L228.66 72.38C229.96 72.92 231.56 73.84 232.32 74.56L231.46 75.78C230.68 75.04 229.12 74.06 227.84 73.46ZM226.76 78.88L227.56 77.76C228.86 78.26 230.48 79.14 231.3 79.82L230.44 81.06C229.66 80.36 228.06 79.44 226.76 78.88ZM227.4 89.34C228.42 87.8 229.88 85.18 231 82.9L232.12 83.86C231.12 85.96 229.8 88.48 228.68 90.32L227.4 89.34ZM247.26 74.8H264.78V76.22H247.26V74.8ZM252.14 81.94H261.54V83.24H252.14V81.94ZM251.08 78.54H261.3V79.88H252.56V90.6H251.08V78.54ZM260.96 78.54H262.42V88.74C262.42 89.62 262.24 90.08 261.56 90.32C260.92 90.56 259.8 90.56 258.08 90.56C258.02 90.14 257.8 89.52 257.58 89.1C258.92 89.16 260.14 89.14 260.5 89.14C260.84 89.12 260.96 89.02 260.96 88.72V78.54ZM253.8 72.2L255.32 72.56C253.96 76.96 251.56 81.4 247.74 84.08C247.54 83.74 247.08 83.22 246.78 82.92C250.36 80.46 252.72 76.22 253.8 72.2ZM252.14 85.32H261.54V86.62H252.14V85.32ZM118.74 95.24L120.04 95.58C119.44 97.78 118.46 100.06 117.3 101.56C117.18 101.26 116.78 100.54 116.54 100.24C117.52 98.98 118.3 97.14 118.74 95.24ZM118.76 97.5H122.72V98.82H118.48L118.76 97.5ZM119.02 113.38L118.78 112.08L119.18 111.5L122.34 109.4C122.44 109.76 122.64 110.28 122.78 110.54C119.76 112.64 119.3 113.02 119.02 113.38ZM117.64 101.24H122.36V102.54H117.64V101.24ZM116.94 105.36H122.8V106.68H116.94V105.36ZM119.02 113.38C118.86 113.08 118.46 112.56 118.22 112.32C118.58 112.06 119.2 111.38 119.2 110.4V101.96H120.58V111.5C120.58 111.5 119.02 112.8 119.02 113.38ZM126.2 97.6H135.08V98.9H126.2V97.6ZM130.26 99.84H131.6V110.96H130.26V99.84ZM126.88 103.8C126.8 103.52 126.6 102.86 126.44 102.52C126.74 102.42 127.04 101.92 127.38 101.18C127.7 100.48 128.8 97.68 129.3 95.16L130.74 95.46C130 98.18 128.86 101.06 127.76 103.02V103.04C127.76 103.04 126.88 103.52 126.88 103.8ZM126.88 103.8V102.64L127.68 102.26H134.56V103.52H128.44C127.66 103.52 127.06 103.64 126.88 103.8ZM126.38 106.18H134.98V107.52H126.38V106.18ZM125.74 102.32V110.88H124.36V103.7H122.44V102.32H125.74ZM123.02 96.4L124.22 95.98C124.86 97.1 125.56 98.52 125.86 99.48L124.58 99.98C124.28 99 123.62 97.5 123.02 96.4ZM125.2 109.94C125.78 109.94 126.22 110.44 127.06 110.96C128.06 111.58 129.24 111.76 130.8 111.76C132.06 111.76 134.1 111.68 135.44 111.52C135.28 111.92 135.08 112.66 135.06 113.08C134.02 113.14 131.98 113.2 130.76 113.2C129.1 113.2 127.88 112.92 126.8 112.26C126.12 111.78 125.58 111.28 125.18 111.28C124.62 111.28 123.76 112.34 123 113.42L122.02 112.04C123.12 110.86 124.28 109.94 125.2 109.94ZM148.22 95.2H149.74V97.94H148.22V95.2ZM143.48 97.34H154.6V98.64H143.48V97.34ZM142.68 102.02H155.16V103.34H142.68V102.02ZM145.36 98.82L146.66 98.56C147.1 99.64 147.48 101.04 147.56 101.9L146.2 102.24C146.14 101.36 145.78 99.92 145.36 98.82ZM151.3 98.52L152.78 98.74C152.36 99.92 151.88 101.28 151.46 102.18L150.18 101.96C150.58 101.02 151.06 99.52 151.3 98.52ZM142.78 105.32H155.08V106.62H142.78V105.32ZM147.36 102.98L148.86 103.28C147.84 105.58 146.42 108.5 145.4 110.34L144.1 109.9C145.1 108.12 146.48 105.16 147.36 102.98ZM145.12 109.64L146 108.62C149.02 109.48 152.78 111.08 154.72 112.48L153.76 113.62C151.92 112.26 148.18 110.56 145.12 109.64ZM151.3 106.16L152.76 106.38C151.8 110.84 149.06 112.78 142.88 113.6C142.78 113.18 142.52 112.66 142.28 112.34C148.04 111.76 150.44 110.06 151.3 106.16ZM136.54 105.84C138.16 105.44 140.6 104.72 142.96 104.04L143.14 105.38C140.96 106.06 138.66 106.78 136.88 107.32L136.54 105.84ZM136.88 99.24H142.98V100.64H136.88V99.24ZM139.6 95.22H141.04V111.78C141.04 112.64 140.86 113.06 140.34 113.3C139.82 113.56 139 113.6 137.7 113.6C137.64 113.22 137.44 112.56 137.24 112.14C138.14 112.18 138.98 112.18 139.22 112.16C139.48 112.16 139.6 112.08 139.6 111.78V95.22ZM158.62 98.42H164.7V111.5H158.62V110.14H163.3V99.76H158.62V98.42ZM157.72 98.42H159.12V113.1H157.72V98.42ZM158.52 103.98H164.04V105.32H158.52V103.98ZM160.78 95.16L162.4 95.46C162 96.7 161.5 98.08 161.1 98.98L159.9 98.68C160.24 97.72 160.62 96.2 160.78 95.16ZM167.54 98.36H173.68V99.76H167.54V98.36ZM173.16 98.36H174.56C174.56 98.36 174.56 98.92 174.56 99.14C174.24 108.32 173.96 111.42 173.16 112.4C172.72 112.98 172.26 113.16 171.56 113.22C170.88 113.3 169.7 113.26 168.58 113.2C168.54 112.76 168.36 112.14 168.08 111.74C169.38 111.84 170.58 111.86 171.04 111.86C171.44 111.86 171.68 111.8 171.9 111.54C172.56 110.82 172.88 107.5 173.16 98.68V98.36ZM167.96 95.12L169.4 95.46C168.66 98.44 167.48 101.38 166.1 103.28C165.84 103.04 165.22 102.62 164.86 102.42C166.22 100.66 167.32 97.9 167.96 95.12ZM167.04 103.56L168.2 102.88C169.34 104.3 170.72 106.24 171.36 107.42L170.08 108.22C169.48 107 168.14 105.02 167.04 103.56ZM177.94 96.48L178.94 95.6C179.94 96.48 181.2 97.72 181.8 98.52L180.72 99.54C180.16 98.72 178.92 97.42 177.94 96.48ZM179.5 112.8L179.22 111.42L179.58 110.8L183 107.96C183.14 108.36 183.4 108.92 183.56 109.18C180.26 111.98 179.76 112.42 179.5 112.8ZM176.86 101.46H180.58V102.84H176.86V101.46ZM182.76 105.58H195.1V106.96H182.76V105.58ZM190.12 106.24C191.3 108.24 193.54 110.42 195.44 111.46C195.1 111.74 194.64 112.26 194.4 112.64C192.5 111.38 190.32 108.92 189.08 106.68L190.12 106.24ZM185.22 100.56V102.64H192.42V100.56H185.22ZM185.22 97.3V99.36H192.42V97.3H185.22ZM183.84 96.06H193.84V103.88H183.84V96.06ZM187.76 106.24L188.82 106.64C187.56 109.14 185.26 111.6 183.06 112.82C182.84 112.46 182.4 111.96 182.08 111.68C184.26 110.66 186.58 108.44 187.76 106.24ZM188.26 96.68H189.64V103.26H189.7V113.6H188.22V103.26H188.26V96.68ZM179.5 112.8C179.32 112.52 178.86 112 178.58 111.8C178.96 111.46 179.66 110.68 179.66 109.64V101.46H181.1V110.64C181.1 110.64 179.5 112.2 179.5 112.8ZM208.88 104.64H210.36V112.64H208.88V104.64ZM204.48 104.1H214.82V105.42H204.48V104.1ZM203.62 111.74H215.26V113.08H203.62V111.74ZM204.96 107.82H214.36V109.12H204.96V107.82ZM206.64 97.34V101.04H212.66V97.34H206.64ZM205.24 96.04H214.12V102.34H205.24V96.04ZM200.24 96.86H201.7V113.56H200.24V96.86ZM196.96 100.84H204.22V102.26H196.96V100.84ZM200.32 101.38L201.26 101.78C200.46 104.6 198.86 108.1 197.32 109.96C197.18 109.54 196.82 108.92 196.56 108.58C198 106.98 199.6 103.86 200.32 101.38ZM203.2 95.5L204.26 96.66C202.42 97.4 199.62 97.96 197.3 98.28C197.22 97.94 197.02 97.46 196.84 97.12C199.1 96.74 201.74 96.18 203.2 95.5ZM201.64 103.42C202.14 103.86 204.02 105.76 204.42 106.26L203.54 107.44C203.06 106.62 201.56 104.72 200.94 104.02L201.64 103.42Z" fill="#2D3342"/>
<path d="M51.344 92.8106C50.9092 92.7461 40.383 91.3437 40.8214 81.5646C40.8617 80.6661 40.9739 79.8488 41.1483 79.1079M51.344 92.8106C45.5745 92.4298 42.6427 90.1726 41.3307 87.4674M51.344 92.8106C52.042 92.9141 52.7619 92.9058 53.474 92.7932M41.1483 79.1079C41.3666 78.1803 41.6825 77.3724 42.0767 76.6751M41.1483 79.1079C40.3623 81.2823 39.9509 84.6226 41.3307 87.4674M42.0767 76.6751C45.3084 70.9579 53.8073 72.6659 57.0437 76.6751C58.3136 78.2496 60.9751 82.2425 59.6781 87.2337C58.865 90.3625 56.2273 92.3578 53.474 92.7932M42.0767 76.6751C40.847 78.4004 39.0628 82.4407 40.5881 86.1049M41.3307 87.4674C41.0254 87.0228 40.7805 86.5668 40.5881 86.1049M53.474 92.7932C49.8334 93.4258 42.1592 92.9736 40.5881 86.1049" stroke="#6663CF" stroke-linecap="round"/>
<path d="M10.3394 168V166.409L15.2613 161.31C15.7869 160.756 16.2201 160.27 16.561 159.854C16.9067 159.432 17.1647 159.032 17.3352 158.653C17.5056 158.275 17.5909 157.872 17.5909 157.446C17.5909 156.963 17.4772 156.546 17.2499 156.196C17.0227 155.841 16.7125 155.569 16.3196 155.379C15.9266 155.185 15.4838 155.088 14.9914 155.088C14.4706 155.088 14.016 155.195 13.6278 155.408C13.2395 155.621 12.9412 155.921 12.7329 156.31C12.5246 156.698 12.4204 157.152 12.4204 157.673H10.3252C10.3252 156.788 10.5288 156.014 10.936 155.351C11.3432 154.688 11.9019 154.174 12.6122 153.81C13.3224 153.44 14.1297 153.256 15.034 153.256C15.9479 153.256 16.7528 153.438 17.4488 153.803C18.1496 154.162 18.6964 154.655 19.0894 155.28C19.4824 155.9 19.6789 156.601 19.6789 157.382C19.6789 157.922 19.5771 158.45 19.3735 158.966C19.1747 159.482 18.8267 160.057 18.3295 160.692C17.8323 161.321 17.141 162.086 16.2556 162.986L13.365 166.011V166.118H19.9133V168H10.3394ZM24.5173 168.135C24.1291 168.135 23.7953 167.998 23.5159 167.723C23.2366 167.444 23.0969 167.107 23.0969 166.714C23.0969 166.326 23.2366 165.995 23.5159 165.72C23.7953 165.441 24.1291 165.301 24.5173 165.301C24.9056 165.301 25.2394 165.441 25.5188 165.72C25.7981 165.995 25.9378 166.326 25.9378 166.714C25.9378 166.975 25.8715 167.214 25.7389 167.432C25.6111 167.645 25.4406 167.815 25.2276 167.943C25.0145 168.071 24.7778 168.135 24.5173 168.135ZM43.3 151.3L44.78 151.62C44 154.82 42.74 157.9 41.2 159.94C40.94 159.68 40.34 159.2 40 158.98C41.48 157.12 42.64 154.24 43.3 151.3ZM42.96 159.78L44.42 160.08C43.8 162.7 42.72 165.24 41.5 166.92C41.2 166.68 40.56 166.28 40.2 166.1C41.44 164.56 42.4 162.18 42.96 159.78ZM43.12 155.06H52.12V156.46H42.54L43.12 155.06ZM46.22 155.64H47.72V167.78C47.72 168.64 47.54 169.08 46.98 169.32C46.44 169.58 45.58 169.62 44.34 169.62C44.24 169.2 44.02 168.54 43.8 168.1C44.74 168.14 45.6 168.12 45.88 168.12C46.14 168.12 46.22 168.04 46.22 167.78V155.64ZM49.16 160.08L50.5 159.64C51.66 161.74 52.66 164.5 53 166.36L51.58 166.84C51.26 165 50.26 162.18 49.16 160.08ZM51.68 155.06H51.88L52.14 155.02L53.18 155.24C52.9 156.72 52.56 158.44 52.3 159.52L51 159.28C51.22 158.28 51.48 156.6 51.68 155.28V155.06ZM39.28 151.28L40.7 151.72C39.38 155.12 37.32 158.5 35.16 160.74C35 160.4 34.58 159.6 34.3 159.26C36.28 157.32 38.16 154.32 39.28 151.28ZM37.2 156.44L38.6 155.02L38.64 155.04V169.58H37.2V156.44ZM57.32 152.58H71.08V163.24H69.54V154.02H58.82V163.34H57.32V152.58ZM58.02 161.18H70.16V162.62H58.02V161.18ZM65.78 164.84L67 164.04C68.94 165.4 71.44 167.38 72.64 168.74L71.34 169.66C70.2 168.34 67.76 166.28 65.78 164.84ZM60.76 164L62.34 164.64C60.86 166.48 58.5 168.42 56.34 169.64C56.04 169.32 55.5 168.82 55.14 168.56C57.26 167.44 59.6 165.6 60.76 164ZM76.68 152.02H91.3V153.22H76.68V152.02ZM75.28 160.88H92.76V162.1H75.28V160.88ZM77.86 156.58H82.18V157.6H77.86V156.58ZM77.44 158.68H82.18V159.7H77.44V158.68ZM85.7 158.68H90.6V159.7H85.7V158.68ZM85.7 156.58H90.12V157.6H85.7V156.58ZM83.2 152.48H84.66V160.22H83.2V152.48ZM81.22 164.32H82.62V169.46H81.22V164.32ZM85.66 164.32H87.04V169.46H85.66V164.32ZM75.52 154.38H92.5V158.22H91.08V155.48H76.88V158.22H75.52V154.38ZM76.84 163.54H90.56V164.78H78.26V169.58H76.84V163.54ZM90.18 163.54H91.62V168.12C91.62 168.8 91.52 169.16 91 169.38C90.5 169.62 89.76 169.6 88.66 169.6C88.6 169.24 88.38 168.72 88.2 168.36C89 168.38 89.68 168.38 89.9 168.36C90.12 168.34 90.18 168.28 90.18 168.1V163.54ZM83.22 161.34L84.86 161.4C84.5 162.48 84.08 163.58 83.74 164.32L82.42 164.18C82.72 163.36 83.08 162.16 83.22 161.34ZM94.9 162.14H113.1V163.4H94.9V162.14ZM95.38 152.08H112.6V153.4H95.38V152.08ZM101.84 160.04L103.3 160.44C102 162.52 100.16 165.14 98.88 166.78L97.46 166.3C98.74 164.68 100.6 162 101.84 160.04ZM107.84 162.58L109.28 163C107.52 167.4 103.26 169.04 95.76 169.6C95.66 169.16 95.42 168.62 95.18 168.28C102.32 167.9 106.24 166.48 107.84 162.58ZM98.54 166.1L99.3 165C104.24 165.88 109.38 167.22 112.48 168.44L111.58 169.66C108.52 168.4 103.62 167.04 98.54 166.1ZM100.84 152.58H102.26V159.56H100.84V152.58ZM105.5 152.58H106.92V159.56H105.5V152.58ZM97.78 156.34V159.06H110.26V156.34H97.78ZM96.38 155.12H111.76V160.3H96.38V155.12ZM120.4 158.22H133V159.54H120.4V158.22ZM122.72 153.98H132.16V155.28H122.72V153.98ZM126.06 151.28H127.56V158.8H126.06V151.28ZM122.92 151.82L124.34 152.12C123.78 154.1 122.82 156.06 121.78 157.32C121.5 157.1 120.88 156.7 120.52 156.54C121.6 155.36 122.42 153.6 122.92 151.82ZM127.56 158.9H129.04V164.18C129.04 164.68 129.12 164.74 129.62 164.74C129.82 164.74 130.94 164.74 131.22 164.74C131.7 164.74 131.8 164.48 131.84 162.38C132.14 162.64 132.76 162.86 133.18 162.98C133.02 165.52 132.64 166.16 131.38 166.16C131.06 166.16 129.7 166.16 129.42 166.16C127.92 166.16 127.56 165.7 127.56 164.2V158.9ZM124.06 158.94H125.56C125.24 162.42 124.36 164.94 120.78 166.34C120.6 165.96 120.18 165.42 119.86 165.14C123.1 164 123.8 161.86 124.06 158.94ZM115.2 152.7L116.34 151.88C117.54 152.82 118.9 154.18 119.54 155.14L118.32 156.06C117.72 155.08 116.38 153.68 115.2 152.7ZM119.02 158.88V166.6H117.56V160.28H115.1V158.88H119.02ZM118.88 165.98C119.5 165.98 119.96 166.5 120.96 167.1C122.22 167.84 123.9 167.96 126.02 167.96C128.3 167.96 131.34 167.82 133.32 167.6C133.14 168 132.9 168.74 132.88 169.16C131.32 169.26 127.94 169.38 126 169.38C123.66 169.38 122 169.16 120.7 168.4C119.9 167.92 119.3 167.34 118.86 167.34C118.1 167.34 117.02 168.36 115.9 169.6L114.9 168.32C116.28 167.02 117.76 165.98 118.88 165.98ZM134.7 161.72C136.32 161.26 138.74 160.52 141.1 159.78L141.3 161.16C139.14 161.86 136.84 162.62 135.1 163.16L134.7 161.72ZM134.9 155.22H141.36V156.62H134.9V155.22ZM137.54 151.22H139V167.78C139 168.6 138.82 169.02 138.32 169.26C137.82 169.5 137.04 169.54 135.74 169.54C135.68 169.14 135.5 168.52 135.32 168.1C136.16 168.14 136.96 168.14 137.18 168.12C137.44 168.12 137.54 168.04 137.54 167.78V151.22ZM141.9 152.28H151.06V153.64H141.9V152.28ZM150.74 152.28H151L151.26 152.22L152.18 152.72C150.26 156.64 145.96 159.2 141.84 160.42C141.7 160.04 141.32 159.5 141.04 159.2C144.96 158.2 149.14 155.8 150.74 152.52V152.28ZM144.2 152.9C145.86 156.02 149.3 158.26 153.48 159.16C153.16 159.48 152.76 160.04 152.54 160.42C148.34 159.32 144.86 156.84 143.02 153.32L144.2 152.9ZM142.34 161.54H151.7V162.88H142.34V161.54ZM141.3 164.96H153.14V166.32H141.3V164.96ZM146.38 159.78H147.9V169.64H146.38V159.78ZM163.3 151.3L164.78 151.62C164 154.82 162.74 157.9 161.2 159.94C160.94 159.68 160.34 159.2 160 158.98C161.48 157.12 162.64 154.24 163.3 151.3ZM162.96 159.78L164.42 160.08C163.8 162.7 162.72 165.24 161.5 166.92C161.2 166.68 160.56 166.28 160.2 166.1C161.44 164.56 162.4 162.18 162.96 159.78ZM163.12 155.06H172.12V156.46H162.54L163.12 155.06ZM166.22 155.64H167.72V167.78C167.72 168.64 167.54 169.08 166.98 169.32C166.44 169.58 165.58 169.62 164.34 169.62C164.24 169.2 164.02 168.54 163.8 168.1C164.74 168.14 165.6 168.12 165.88 168.12C166.14 168.12 166.22 168.04 166.22 167.78V155.64ZM169.16 160.08L170.5 159.64C171.66 161.74 172.66 164.5 173 166.36L171.58 166.84C171.26 165 170.26 162.18 169.16 160.08ZM171.68 155.06H171.88L172.14 155.02L173.18 155.24C172.9 156.72 172.56 158.44 172.3 159.52L171 159.28C171.22 158.28 171.48 156.6 171.68 155.28V155.06ZM159.28 151.28L160.7 151.72C159.38 155.12 157.32 158.5 155.16 160.74C155 160.4 154.58 159.6 154.3 159.26C156.28 157.32 158.16 154.32 159.28 151.28ZM157.2 156.44L158.6 155.02L158.64 155.04V169.58H157.2V156.44ZM175.24 154.3H192.76V155.76H175.24V154.3ZM181.44 160.64H191.98V162.04H181.44V160.64ZM180.66 167.72H192.76V169.14H180.66V167.72ZM185.96 156.78H187.46V168.48H185.96V156.78ZM181.82 151.2L183.36 151.58C181.96 156.16 179.52 160.82 175.54 163.68C175.38 163.28 175 162.64 174.76 162.3C178.36 159.76 180.7 155.32 181.82 151.2ZM177.86 159.44H179.36V169.54H177.86V159.44ZM196.14 152.84H211.92V154.16H196.14V152.84ZM195.1 156.58H212.9V157.84H195.1V156.58ZM207.56 154.34L209.06 154.72C208.58 155.76 208.04 156.86 207.58 157.6L206.26 157.26C206.72 156.46 207.28 155.2 207.56 154.34ZM199.02 154.76L200.4 154.36C200.86 155.14 201.3 156.18 201.48 156.86L200 157.32C199.88 156.62 199.44 155.54 199.02 154.76ZM202.8 151.48L204.22 151.12C204.6 151.76 204.94 152.66 205.06 153.24L203.54 153.66C203.44 153.08 203.12 152.16 202.8 151.48ZM199.24 160.32V162.82H208.74V160.32H199.24ZM197.78 159.06H210.28V164.06H197.78V159.06ZM205.26 163.48H206.78V167.38C206.78 167.9 206.92 168 207.78 168C208.18 168 210.1 168 210.64 168C211.4 168 211.54 167.7 211.62 165.48C211.92 165.74 212.56 165.98 212.96 166.08C212.8 168.72 212.36 169.36 210.78 169.36C210.38 169.36 208.02 169.36 207.62 169.36C205.74 169.36 205.26 168.94 205.26 167.4V163.48ZM201.18 163.5H202.7C202.22 166.92 200.82 168.7 195.6 169.62C195.46 169.24 195.1 168.64 194.8 168.34C199.64 167.64 200.78 166.26 201.18 163.5ZM220.4 158.22H233V159.54H220.4V158.22ZM222.72 153.98H232.16V155.28H222.72V153.98ZM226.06 151.28H227.56V158.8H226.06V151.28ZM222.92 151.82L224.34 152.12C223.78 154.1 222.82 156.06 221.78 157.32C221.5 157.1 220.88 156.7 220.52 156.54C221.6 155.36 222.42 153.6 222.92 151.82ZM227.56 158.9H229.04V164.18C229.04 164.68 229.12 164.74 229.62 164.74C229.82 164.74 230.94 164.74 231.22 164.74C231.7 164.74 231.8 164.48 231.84 162.38C232.14 162.64 232.76 162.86 233.18 162.98C233.02 165.52 232.64 166.16 231.38 166.16C231.06 166.16 229.7 166.16 229.42 166.16C227.92 166.16 227.56 165.7 227.56 164.2V158.9ZM224.06 158.94H225.56C225.24 162.42 224.36 164.94 220.78 166.34C220.6 165.96 220.18 165.42 219.86 165.14C223.1 164 223.8 161.86 224.06 158.94ZM215.2 152.7L216.34 151.88C217.54 152.82 218.9 154.18 219.54 155.14L218.32 156.06C217.72 155.08 216.38 153.68 215.2 152.7ZM219.02 158.88V166.6H217.56V160.28H215.1V158.88H219.02ZM218.88 165.98C219.5 165.98 219.96 166.5 220.96 167.1C222.22 167.84 223.9 167.96 226.02 167.96C228.3 167.96 231.34 167.82 233.32 167.6C233.14 168 232.9 168.74 232.88 169.16C231.32 169.26 227.94 169.38 226 169.38C223.66 169.38 222 169.16 220.7 168.4C219.9 167.92 219.3 167.34 218.86 167.34C218.1 167.34 217.02 168.36 215.9 169.6L214.9 168.32C216.28 167.02 217.76 165.98 218.88 165.98ZM241.84 161.82H251.82V169.5H250.38V163.2H243.22V169.6H241.84V161.82ZM251.08 151.28L252.26 152.46C249.52 153.4 245.34 154.02 241.76 154.36C241.7 154 241.5 153.42 241.32 153.08C244.8 152.7 248.86 152.08 251.08 151.28ZM246.16 153.02H247.6V162.62H246.16V153.02ZM240.38 157.08H253.12V158.52H240.38V157.08ZM242.78 167.36H251.04V168.74H242.78V167.36ZM235.8 152.52L236.64 151.46C237.86 152.06 239.56 152.96 240.42 153.54L239.54 154.76C238.7 154.16 237.04 153.18 235.8 152.52ZM234.82 158.04L235.66 156.94C236.84 157.52 238.52 158.4 239.36 158.98L238.52 160.2C237.7 159.64 236.04 158.68 234.82 158.04ZM235.3 168.32C236.38 166.8 237.96 164.16 239.12 161.88L240.2 162.86C239.14 164.98 237.74 167.48 236.56 169.34L235.3 168.32ZM264.14 155.82H272.16V157.26H264.14V155.82ZM271.42 155.82H272.9C272.9 155.82 272.88 156.38 272.88 156.58C272.62 164.84 272.38 167.66 271.68 168.54C271.28 169.08 270.88 169.24 270.22 169.32C269.6 169.38 268.52 169.36 267.46 169.3C267.42 168.86 267.26 168.24 266.98 167.82C268.12 167.92 269.16 167.92 269.6 167.92C269.94 167.94 270.16 167.88 270.38 167.64C270.92 167 271.2 164.12 271.42 156.16V155.82ZM267.04 151.56H268.52C268.48 158.52 268.38 165.74 264.32 169.58C264.06 169.24 263.54 168.74 263.16 168.5C267 164.98 267.02 158.1 267.04 151.56ZM255.78 152.84H263.52V154.2H255.78V152.84ZM255.06 157.62H263.88V158.98H255.06V157.62ZM260.96 161.06L262.18 160.72C262.96 162.5 263.86 164.9 264.22 166.28L262.9 166.74C262.56 165.32 261.7 162.88 260.96 161.06ZM255.78 167.14L255.66 165.88L256.42 165.34L262.98 163.96C263.02 164.36 263.12 164.94 263.18 165.26C257.02 166.64 256.26 166.86 255.78 167.14ZM255.78 167.14C255.7 166.82 255.46 166.12 255.3 165.74C255.62 165.64 255.88 165.12 256.22 164.34C256.52 163.62 257.54 160.74 258.02 158.14L259.48 158.6C258.86 161.28 257.84 164.22 256.82 166.28V166.3C256.82 166.3 255.78 166.82 255.78 167.14ZM275.92 154.78H292.04V164.2H290.48V156.26H277.42V164.3H275.92V154.78ZM276.72 161.58H291.38V163.04H276.72V161.58ZM283.16 151.2H284.72V169.58H283.16V151.2ZM300.4 158.22H313V159.54H300.4V158.22ZM302.72 153.98H312.16V155.28H302.72V153.98ZM306.06 151.28H307.56V158.8H306.06V151.28ZM302.92 151.82L304.34 152.12C303.78 154.1 302.82 156.06 301.78 157.32C301.5 157.1 300.88 156.7 300.52 156.54C301.6 155.36 302.42 153.6 302.92 151.82ZM307.56 158.9H309.04V164.18C309.04 164.68 309.12 164.74 309.62 164.74C309.82 164.74 310.94 164.74 311.22 164.74C311.7 164.74 311.8 164.48 311.84 162.38C312.14 162.64 312.76 162.86 313.18 162.98C313.02 165.52 312.64 166.16 311.38 166.16C311.06 166.16 309.7 166.16 309.42 166.16C307.92 166.16 307.56 165.7 307.56 164.2V158.9ZM304.06 158.94H305.56C305.24 162.42 304.36 164.94 300.78 166.34C300.6 165.96 300.18 165.42 299.86 165.14C303.1 164 303.8 161.86 304.06 158.94ZM295.2 152.7L296.34 151.88C297.54 152.82 298.9 154.18 299.54 155.14L298.32 156.06C297.72 155.08 296.38 153.68 295.2 152.7ZM299.02 158.88V166.6H297.56V160.28H295.1V158.88H299.02ZM298.88 165.98C299.5 165.98 299.96 166.5 300.96 167.1C302.22 167.84 303.9 167.96 306.02 167.96C308.3 167.96 311.34 167.82 313.32 167.6C313.14 168 312.9 168.74 312.88 169.16C311.32 169.26 307.94 169.38 306 169.38C303.66 169.38 302 169.16 300.7 168.4C299.9 167.92 299.3 167.34 298.86 167.34C298.1 167.34 297.02 168.36 295.9 169.6L294.9 168.32C296.28 167.02 297.76 165.98 298.88 165.98ZM64.7 184.72C66.32 184.26 68.74 183.52 71.1 182.78L71.3 184.16C69.14 184.86 66.84 185.62 65.1 186.16L64.7 184.72ZM64.9 178.22H71.36V179.62H64.9V178.22ZM67.54 174.22H69V190.78C69 191.6 68.82 192.02 68.32 192.26C67.82 192.5 67.04 192.54 65.74 192.54C65.68 192.14 65.5 191.52 65.32 191.1C66.16 191.14 66.96 191.14 67.18 191.12C67.44 191.12 67.54 191.04 67.54 190.78V174.22ZM71.9 175.28H81.06V176.64H71.9V175.28ZM80.74 175.28H81L81.26 175.22L82.18 175.72C80.26 179.64 75.96 182.2 71.84 183.42C71.7 183.04 71.32 182.5 71.04 182.2C74.96 181.2 79.14 178.8 80.74 175.52V175.28ZM74.2 175.9C75.86 179.02 79.3 181.26 83.48 182.16C83.16 182.48 82.76 183.04 82.54 183.42C78.34 182.32 74.86 179.84 73.02 176.32L74.2 175.9ZM72.34 184.54H81.7V185.88H72.34V184.54ZM71.3 187.96H83.14V189.32H71.3V187.96ZM76.38 182.78H77.9V192.64H76.38V182.78ZM86.62 177.42H92.7V190.5H86.62V189.14H91.3V178.76H86.62V177.42ZM85.72 177.42H87.12V192.1H85.72V177.42ZM86.52 182.98H92.04V184.32H86.52V182.98ZM88.78 174.16L90.4 174.46C90 175.7 89.5 177.08 89.1 177.98L87.9 177.68C88.24 176.72 88.62 175.2 88.78 174.16ZM95.54 177.36H101.68V178.76H95.54V177.36ZM101.16 177.36H102.56C102.56 177.36 102.56 177.92 102.56 178.14C102.24 187.32 101.96 190.42 101.16 191.4C100.72 191.98 100.26 192.16 99.56 192.22C98.88 192.3 97.7 192.26 96.58 192.2C96.54 191.76 96.36 191.14 96.08 190.74C97.38 190.84 98.58 190.86 99.04 190.86C99.44 190.86 99.68 190.8 99.9 190.54C100.56 189.82 100.88 186.5 101.16 177.68V177.36ZM95.96 174.12L97.4 174.46C96.66 177.44 95.48 180.38 94.1 182.28C93.84 182.04 93.22 181.62 92.86 181.42C94.22 179.66 95.32 176.9 95.96 174.12ZM95.04 182.56L96.2 181.88C97.34 183.3 98.72 185.24 99.36 186.42L98.08 187.22C97.48 186 96.14 184.02 95.04 182.56ZM111.2 175.86H122.88V177.14H111.2V175.86ZM110.78 186.9H122.86V188.16H110.78V186.9ZM114.14 174.22H115.56V178.66H114.14V174.22ZM118.62 174.22H120.08V178.66H118.62V174.22ZM113.42 182.66V184.1H120.4V182.66H113.42ZM113.42 180.16V181.58H120.4V180.16H113.42ZM112.02 179.04H121.84V185.24H112.02V179.04ZM116.12 185.04H117.6C117.18 188.98 116.02 191.4 111.02 192.62C110.9 192.28 110.52 191.72 110.24 191.42C114.84 190.42 115.78 188.36 116.12 185.04ZM117.94 187.32C118.76 189.38 120.68 190.82 123.32 191.36C123 191.66 122.58 192.22 122.38 192.6C119.56 191.84 117.6 190.14 116.66 187.6L117.94 187.32ZM105 178.08H111V179.46H105V178.08ZM107.48 174.2H108.92V192.58H107.48V174.2ZM107.58 178.98L108.52 179.28C107.94 182.5 106.74 186.48 105.42 188.52C105.26 188.1 104.88 187.44 104.62 187.08C105.88 185.28 107.08 181.78 107.58 178.98ZM108.86 180.18C109.3 180.8 110.94 183.54 111.3 184.2L110.36 185.3C109.92 184.22 108.62 181.64 108.1 180.78L108.86 180.18ZM138.18 175.2L139.18 174.34C140.22 175.04 141.48 176.08 142.1 176.78L141.04 177.72C140.44 177 139.22 175.92 138.18 175.2ZM125.1 177.94H142.92V179.4H125.1V177.94ZM125.78 182.4H134.62V183.86H125.78V182.4ZM129.38 183.18H130.88V190.32H129.38V183.18ZM125.18 190.52C127.56 190.06 131.48 189.26 135.18 188.46L135.3 189.8C131.88 190.6 128.22 191.44 125.64 192.02L125.18 190.52ZM135.28 174.3H136.88C136.82 183.58 138.62 191.08 141.08 191.08C141.64 191.08 141.88 189.98 142 187.3C142.34 187.64 142.92 187.98 143.34 188.12C143.08 191.62 142.5 192.64 140.96 192.64C136.98 192.64 135.36 183.98 135.28 174.3ZM145.22 175.32H153.84V176.7H145.22V175.32ZM155.26 181.02H163.3V182.46H155.26V181.02ZM159.6 181.96H161.08V192.62H159.6V181.96ZM154.68 176.18L156.56 176.68C156.54 176.82 156.44 176.9 156.16 176.94V181.52C156.16 184.76 155.74 189.34 152.74 192.56C152.52 192.24 151.98 191.74 151.62 191.56C154.4 188.6 154.68 184.58 154.68 181.52V176.18ZM145.96 178.78H147.38V184.18C147.38 186.74 147.14 190.28 145.6 192.64C145.36 192.36 144.74 191.9 144.42 191.72C145.82 189.56 145.96 186.48 145.96 184.18V178.78ZM161.58 174.44L162.9 175.58C160.92 176.54 158.02 177.36 155.52 177.94C155.44 177.6 155.2 177.06 155 176.72C157.38 176.16 160.08 175.3 161.58 174.44ZM146.78 178.78H153.34V185.02H146.78V183.66H151.88V180.16H146.78V178.78ZM165.98 175.88H182.04V177.18H165.98V175.88ZM166.9 178.82H181.26V180.08H166.9V178.82ZM165.24 181.88H182.72V183.2H165.24V181.88ZM173.18 174.2H174.7V182.9H173.18V174.2ZM173.12 182.32L174.42 182.94C172.34 185.22 168.64 187.32 165.54 188.34C165.3 187.96 164.88 187.4 164.56 187.1C167.64 186.22 171.26 184.3 173.12 182.32ZM175.3 182.52C176.5 186.8 179.1 189.96 183.34 191.22C183 191.52 182.58 192.14 182.36 192.54C177.94 191.02 175.32 187.64 173.94 182.8L175.3 182.52ZM181 183.86L182.2 184.8C180.78 185.94 178.88 187.16 177.44 187.96L176.52 187.14C177.92 186.3 179.86 184.92 181 183.86ZM166.78 191.22C169.08 190.72 172.68 189.82 176.1 188.98L176.24 190.32C173.08 191.14 169.66 192 167.26 192.6L166.78 191.22ZM169.6 186.04L170.68 184.96L171.1 185.08V191.12H169.6V186.04ZM186.42 175.44H192.16V187.38H186.42V185.98H190.76V176.82H186.42V175.44ZM186.44 180.62H191.36V181.98H186.44V180.62ZM194.88 175.06H201.62V176.46H194.88V175.06ZM194.88 179.92H201.62V181.3H194.88V179.92ZM194.76 184.84H201.58V186.2H194.76V184.84ZM185.6 175.44H187V189.24H185.6V175.44ZM201.06 175.06H202.56V190.64C202.56 191.58 202.32 192.04 201.68 192.3C201.04 192.54 199.94 192.56 198.22 192.56C198.14 192.16 197.9 191.5 197.68 191.1C198.96 191.14 200.22 191.12 200.58 191.12C200.94 191.1 201.06 190.98 201.06 190.62V175.06ZM194 175.06H195.48V182.2C195.48 185.56 194.98 189.98 191.38 192.74C191.16 192.44 190.6 191.92 190.28 191.72C193.66 189.12 194 185.32 194 182.2V175.06ZM206.62 177.42H212.7V190.5H206.62V189.14H211.3V178.76H206.62V177.42ZM205.72 177.42H207.12V192.1H205.72V177.42ZM206.52 182.98H212.04V184.32H206.52V182.98ZM208.78 174.16L210.4 174.46C210 175.7 209.5 177.08 209.1 177.98L207.9 177.68C208.24 176.72 208.62 175.2 208.78 174.16ZM215.54 177.36H221.68V178.76H215.54V177.36ZM221.16 177.36H222.56C222.56 177.36 222.56 177.92 222.56 178.14C222.24 187.32 221.96 190.42 221.16 191.4C220.72 191.98 220.26 192.16 219.56 192.22C218.88 192.3 217.7 192.26 216.58 192.2C216.54 191.76 216.36 191.14 216.08 190.74C217.38 190.84 218.58 190.86 219.04 190.86C219.44 190.86 219.68 190.8 219.9 190.54C220.56 189.82 220.88 186.5 221.16 177.68V177.36ZM215.96 174.12L217.4 174.46C216.66 177.44 215.48 180.38 214.1 182.28C213.84 182.04 213.22 181.62 212.86 181.42C214.22 179.66 215.32 176.9 215.96 174.12ZM215.04 182.56L216.2 181.88C217.34 183.3 218.72 185.24 219.36 186.42L218.08 187.22C217.48 186 216.14 184.02 215.04 182.56ZM225.94 175.48L226.94 174.6C227.94 175.48 229.2 176.72 229.8 177.52L228.72 178.54C228.16 177.72 226.92 176.42 225.94 175.48ZM227.5 191.8L227.22 190.42L227.58 189.8L231 186.96C231.14 187.36 231.4 187.92 231.56 188.18C228.26 190.98 227.76 191.42 227.5 191.8ZM224.86 180.46H228.58V181.84H224.86V180.46ZM230.76 184.58H243.1V185.96H230.76V184.58ZM238.12 185.24C239.3 187.24 241.54 189.42 243.44 190.46C243.1 190.74 242.64 191.26 242.4 191.64C240.5 190.38 238.32 187.92 237.08 185.68L238.12 185.24ZM233.22 179.56V181.64H240.42V179.56H233.22ZM233.22 176.3V178.36H240.42V176.3H233.22ZM231.84 175.06H241.84V182.88H231.84V175.06ZM235.76 185.24L236.82 185.64C235.56 188.14 233.26 190.6 231.06 191.82C230.84 191.46 230.4 190.96 230.08 190.68C232.26 189.66 234.58 187.44 235.76 185.24ZM236.26 175.68H237.64V182.26H237.7V192.6H236.22V182.26H236.26V175.68ZM227.5 191.8C227.32 191.52 226.86 191 226.58 190.8C226.96 190.46 227.66 189.68 227.66 188.64V180.46H229.1V189.64C229.1 189.64 227.5 191.2 227.5 191.8ZM256.88 183.64H258.36V191.64H256.88V183.64ZM252.48 183.1H262.82V184.42H252.48V183.1ZM251.62 190.74H263.26V192.08H251.62V190.74ZM252.96 186.82H262.36V188.12H252.96V186.82ZM254.64 176.34V180.04H260.66V176.34H254.64ZM253.24 175.04H262.12V181.34H253.24V175.04ZM248.24 175.86H249.7V192.56H248.24V175.86ZM244.96 179.84H252.22V181.26H244.96V179.84ZM248.32 180.38L249.26 180.78C248.46 183.6 246.86 187.1 245.32 188.96C245.18 188.54 244.82 187.92 244.56 187.58C246 185.98 247.6 182.86 248.32 180.38ZM251.2 174.5L252.26 175.66C250.42 176.4 247.62 176.96 245.3 177.28C245.22 176.94 245.02 176.46 244.84 176.12C247.1 175.74 249.74 175.18 251.2 174.5ZM249.64 182.42C250.14 182.86 252.02 184.76 252.42 185.26L251.54 186.44C251.06 185.62 249.56 183.72 248.94 183.02L249.64 182.42ZM267.88 186.14C269.56 186.14 270.92 187.5 270.92 189.18C270.92 190.86 269.56 192.22 267.88 192.22C266.2 192.22 264.82 190.86 264.82 189.18C264.82 187.5 266.2 186.14 267.88 186.14ZM267.88 191.2C269 191.2 269.9 190.3 269.9 189.18C269.9 188.06 269 187.16 267.88 187.16C266.76 187.16 265.84 188.06 265.84 189.18C265.84 190.3 266.76 191.2 267.88 191.2Z" fill="#2D3342"/>
<defs>
<linearGradient id="paint0_linear_1398_7637" x1="143.515" y1="25" x2="181.389" y2="65.6166" gradientUnits="userSpaceOnUse">
<stop stop-color="#5955B3"/>
<stop offset="1" stop-color="#6563CE"/>
</linearGradient>
</defs>
</svg>
