<svg width="325" height="290" viewBox="0 0 325 290" fill="none" xmlns="http://www.w3.org/2000/svg">
<rect width="325" height="290" rx="5" fill="white"/>
<path d="M22.6416 204.73C22.178 204.662 10.9554 203.195 11.4228 192.962C11.4658 192.022 11.5854 191.167 11.7713 190.391M22.6416 204.73C16.4904 204.331 13.3646 201.969 11.9658 199.139M22.6416 204.73C23.3858 204.838 25.1691 204.829 25.9284 204.711M11.7713 190.391C12.0041 189.421 12.3408 188.575 12.7611 187.846M11.7713 190.391C10.9333 192.667 10.4947 196.162 11.9658 199.139M12.7611 187.846C16.2067 181.863 25.268 183.65 28.7184 187.846C30.0724 189.493 32.91 193.671 31.5271 198.894C30.6603 202.168 28.8638 204.256 25.9284 204.711M12.7611 187.846C11.4501 189.651 10.5636 193.879 12.1899 197.713M11.9658 199.139C11.6403 198.673 12.395 198.196 12.1899 197.713M25.9284 204.711C22.0468 205.373 13.8649 204.9 12.1899 197.713" stroke="#6663CF" stroke-linecap="round"/>
<path opacity="0.2" fill-rule="evenodd" clip-rule="evenodd" d="M324.664 269.81C324.612 280.783 315.724 289.668 304.749 289.713H171.145C177.237 275.753 202.684 247.832 255.737 247.832C308.79 247.832 323.794 226.116 324.664 215.258V269.81Z" fill="#89AFFF"/>
<path opacity="0.2" fill-rule="evenodd" clip-rule="evenodd" d="M20.3296 1.00598e-05L149.01 0C147.124 10.5057 135.565 40.0486 87.9495 53.4493C42.1924 66.3269 11.8999 62.0633 0.329626 57.8976L0.329622 20C0.329621 8.95432 9.28389 1.09233e-05 20.3296 1.00598e-05Z" fill="#89AFFF"/>
<path d="M95.176 43.312H116.776V45.952H95.176V43.312ZM95.92 31.024H116.176V33.664H95.92V31.024ZM101.104 35.152H110.824V37.552H101.104V35.152ZM101.104 39.184H110.824V41.584H101.104V39.184ZM99.28 28.672H102.136V44.728H99.28V28.672ZM109.72 28.672H112.648V44.728H109.72V28.672ZM107.2 47.896L109.264 46.12C112 47.056 115.096 48.352 116.92 49.264L114.136 51.088C112.6 50.152 109.84 48.856 107.2 47.896ZM102.352 45.88L104.752 47.776C102.568 49.024 99.304 50.368 96.76 51.136C96.328 50.536 95.488 49.576 94.888 48.976C97.408 48.304 100.672 46.96 102.352 45.88ZM132.568 28.72H135.256V45.448H132.568V28.72ZM124.456 38.128L138.712 32.584L139.792 35.08L125.56 40.672L124.456 38.128ZM127.384 31.312H130.24V46.552C130.24 47.992 130.48 48.208 132.064 48.208C132.784 48.208 136.072 48.208 136.912 48.208C138.304 48.208 138.568 47.632 138.784 44.896C139.432 45.352 140.584 45.832 141.4 46.024C141.016 49.624 140.152 50.8 137.128 50.8C136.312 50.8 132.568 50.8 131.824 50.8C128.344 50.8 127.384 49.888 127.384 46.552V31.312ZM137.728 33.064H137.56L138.064 32.704L138.568 32.32L140.536 33.088L140.416 33.52C140.392 37.72 140.368 40.624 140.224 41.656C140.104 42.88 139.672 43.504 138.856 43.864C138.136 44.176 137.008 44.224 136.144 44.2C136.096 43.384 135.832 42.184 135.52 41.56C136.024 41.584 136.72 41.584 136.984 41.584C137.32 41.584 137.488 41.512 137.608 41.032C137.704 40.504 137.728 38.104 137.728 33.064ZM123.784 28.72L126.448 29.56C124.912 33.616 122.416 37.936 119.824 40.672C119.56 40 118.792 38.44 118.312 37.744C120.496 35.56 122.56 32.152 123.784 28.72ZM121.36 35.344L124.192 32.536V32.56V51.136H121.36V35.344ZM143.296 31.528H164.704V34.216H143.296V31.528ZM149.776 40.168H160.216V42.568H149.776V40.168ZM147.64 36.112H159.784V38.632H150.496V51.136H147.64V36.112ZM159.208 36.112H162.016V48.04C162.016 49.456 161.752 50.248 160.768 50.704C159.808 51.136 158.44 51.16 156.496 51.16C156.376 50.368 155.992 49.144 155.608 48.4C156.856 48.472 158.272 48.448 158.68 48.448C159.064 48.448 159.208 48.328 159.208 47.992V36.112ZM150.736 28.6L153.712 29.272C152.032 34.696 149.152 40.216 144.472 43.48C144.064 42.832 143.152 41.8 142.576 41.248C146.848 38.44 149.536 33.28 150.736 28.6ZM149.776 44.128H160.216V46.528H149.776V44.128ZM171.04 30.232H185.776V32.968H171.04V30.232ZM171.04 35.752H185.824V38.44H171.04V35.752ZM170.992 41.416H185.92V44.128H170.992V41.416ZM169.384 30.232H172.24V38.872C172.24 42.688 171.76 48.088 168.808 51.304C168.352 50.752 167.176 49.792 166.552 49.432C169.168 46.528 169.384 42.232 169.384 38.848V30.232ZM184.768 30.232H187.624V47.776C187.624 49.312 187.288 50.08 186.328 50.536C185.32 50.992 183.88 51.04 181.696 51.016C181.576 50.248 181.144 49 180.76 48.256C182.128 48.352 183.712 48.328 184.144 48.328C184.6 48.304 184.768 48.16 184.768 47.752V30.232ZM176.776 31.312H179.704V50.872H176.776V31.312ZM191.704 31.168L193.144 29.224C194.752 29.824 196.96 30.856 198.064 31.672L196.552 33.832C195.52 32.992 193.36 31.84 191.704 31.168ZM191.032 36.64C192.832 36.136 195.496 35.272 198.088 34.408L198.592 36.88C196.312 37.72 193.864 38.56 191.872 39.256L191.032 36.64ZM201.112 28.816L203.824 29.2C203.008 31.576 201.76 33.832 199.552 35.656C199.12 35.032 198.184 34.168 197.56 33.832C199.456 32.44 200.56 30.52 201.112 28.816ZM202.12 30.688H210.256V32.8H200.632L202.12 30.688ZM209.656 30.688H210.088L210.544 30.568L212.68 31.072C212.176 32.512 211.528 34.12 210.976 35.176L208.456 34.528C208.864 33.64 209.368 32.2 209.656 31.024V30.688ZM193.912 40.024H210.4V46.384H207.4V42.64H196.744V46.648H193.912V40.024ZM200.656 43.264H203.464C202.624 47.464 200.512 50.008 192.064 51.208C191.872 50.536 191.272 49.384 190.792 48.808C198.424 47.968 199.936 46.24 200.656 43.264ZM202.144 47.848L203.8 45.808C206.536 46.528 210.592 47.848 212.728 48.784L210.928 51.088C208.984 50.128 205 48.688 202.144 47.848ZM204.232 31.72H207.064C206.368 35.32 204.832 38.296 199.456 40.024C199.192 39.376 198.496 38.416 197.944 37.936C202.648 36.616 203.68 34.288 204.232 31.72ZM206.392 33.112C207.544 35.272 209.92 36.88 213.016 37.504C212.44 38.032 211.696 39.064 211.336 39.784C208 38.776 205.624 36.592 204.304 33.616L206.392 33.112ZM218.536 28.744H221.2V51.112H218.536V28.744ZM214.912 36.616H224.752V39.304H214.912V36.616ZM218.032 38.056L219.616 38.824C218.848 42.04 217.36 46.216 215.776 48.52C215.512 47.632 214.888 46.36 214.456 45.544C215.896 43.768 217.36 40.432 218.032 38.056ZM221.152 39.448C221.848 40.072 224.176 42.856 224.704 43.528L222.928 45.784C222.304 44.416 220.696 41.752 219.832 40.576L221.152 39.448ZM214.864 30.592L216.88 30.064C217.504 31.816 217.984 34.096 218.104 35.608L215.944 36.184C215.896 34.672 215.44 32.344 214.864 30.592ZM222.784 29.944L225.208 30.472C224.584 32.416 223.864 34.696 223.264 36.112L221.464 35.608C221.944 34.072 222.52 31.648 222.784 29.944ZM231.856 28.6H234.568V51.136H231.856V28.6ZM224.68 43.624L237.016 41.416L237.448 44.08L225.136 46.312L224.68 43.624ZM226.048 31.888L227.464 29.92C228.808 30.736 230.512 31.936 231.304 32.824L229.792 35.008C229.072 34.072 227.392 32.752 226.048 31.888ZM224.968 37.936L226.312 35.872C227.704 36.616 229.504 37.768 230.368 38.656L228.928 40.936C228.112 40.048 226.36 38.752 224.968 37.936Z" fill="url(#paint0_linear_1398_7652)"/>
<path d="M21.884 81.1591C21.1037 81.1591 20.4068 81.0246 19.7931 80.7557C19.1833 80.4867 18.7003 80.1136 18.3443 79.6364C17.992 79.1553 17.8026 78.5985 17.7761 77.9659H19.5602C19.5829 78.3106 19.6984 78.6098 19.9068 78.8636C20.1189 79.1136 20.3954 79.3068 20.7363 79.4432C21.0772 79.5795 21.456 79.6477 21.8727 79.6477C22.331 79.6477 22.7363 79.5682 23.0886 79.4091C23.4447 79.25 23.7231 79.0284 23.9238 78.7443C24.1246 78.4564 24.225 78.125 24.225 77.75C24.225 77.3598 24.1246 77.017 23.9238 76.7216C23.7269 76.4223 23.4371 76.1875 23.0545 76.017C22.6757 75.8466 22.2174 75.7614 21.6795 75.7614H20.6965V74.3295H21.6795C22.1113 74.3295 22.4901 74.2519 22.8159 74.0966C23.1454 73.9413 23.403 73.7254 23.5886 73.4489C23.7742 73.1686 23.867 72.8409 23.867 72.4659C23.867 72.1061 23.7856 71.7936 23.6227 71.5284C23.4636 71.2595 23.2363 71.0492 22.9409 70.8977C22.6492 70.7462 22.3045 70.6705 21.9068 70.6705C21.528 70.6705 21.1738 70.7405 20.8443 70.8807C20.5185 71.017 20.2534 71.214 20.0488 71.4716C19.8443 71.7254 19.7344 72.0303 19.7193 72.3864H18.0204C18.0394 71.7576 18.225 71.2045 18.5772 70.7273C18.9333 70.25 19.403 69.8769 19.9863 69.608C20.5697 69.339 21.2174 69.2045 21.9295 69.2045C22.6757 69.2045 23.3197 69.3504 23.8613 69.642C24.4068 69.9299 24.8272 70.3144 25.1227 70.7955C25.4219 71.2765 25.5697 71.803 25.5659 72.375C25.5697 73.0265 25.3878 73.5795 25.0204 74.0341C24.6568 74.4886 24.1719 74.7936 23.5659 74.9489V75.0398C24.3386 75.1572 24.9371 75.464 25.3613 75.9602C25.7894 76.4564 26.0015 77.072 25.9977 77.8068C26.0015 78.447 25.8234 79.0208 25.4636 79.5284C25.1075 80.036 24.6208 80.4356 24.0034 80.7273C23.3859 81.0152 22.6795 81.1591 21.884 81.1591ZM29.4139 81.108C29.1033 81.108 28.8362 80.9981 28.6127 80.7784C28.3893 80.5549 28.2775 80.286 28.2775 79.9716C28.2775 79.661 28.3893 79.3958 28.6127 79.1761C28.8362 78.9527 29.1033 78.8409 29.4139 78.8409C29.7245 78.8409 29.9915 78.9527 30.215 79.1761C30.4385 79.3958 30.5502 79.661 30.5502 79.9716C30.5502 80.1799 30.4972 80.3712 30.3912 80.5455C30.2889 80.7159 30.1525 80.8523 29.9821 80.9545C29.8116 81.0568 29.6222 81.108 29.4139 81.108ZM38.04 69.096H51.944V70.136H38.04V69.096ZM44.296 67.56H45.528V69.592H44.296V67.56ZM38.744 75.352H50.632V76.376H39.912V82.296H38.744V75.352ZM50.136 75.352H51.336V80.856C51.336 81.512 51.192 81.864 50.68 82.072C50.168 82.248 49.304 82.264 47.976 82.264C47.928 81.928 47.752 81.448 47.576 81.128C48.632 81.16 49.528 81.16 49.8 81.128C50.072 81.128 50.136 81.048 50.136 80.824V75.352ZM41.944 77.416H43.016V81.608H41.944V77.416ZM42.52 77.416H48.056V80.792H42.52V79.928H46.968V78.28H42.52V77.416ZM41.848 71.912V73.464H48.104V71.912H41.848ZM40.696 71.032H49.32V74.344H40.696V71.032ZM60.36 71.224H61.592V75.416H60.36V71.224ZM55.336 72.328H66.76V73.352H55.336V72.328ZM53.752 74.776H68.28V75.832H53.752V74.776ZM54.264 77.24H67.864V78.296H54.264V77.24ZM63.624 75.624H64.856V80.872C64.856 81.576 64.696 81.896 64.136 82.088C63.608 82.264 62.712 82.28 61.384 82.28C61.32 81.928 61.112 81.464 60.936 81.144C62.024 81.176 62.968 81.176 63.272 81.144C63.56 81.144 63.624 81.08 63.624 80.856V75.624ZM55.608 68.92H60.808V69.928H55.608V68.92ZM61.784 68.92H68.12V69.928H61.784V68.92ZM55.96 67.496L57.112 67.8C56.488 69.368 55.512 70.92 54.52 71.912C54.296 71.736 53.8 71.4 53.512 71.24C54.536 70.312 55.432 68.904 55.96 67.496ZM62.248 67.496L63.4 67.768C62.856 69.288 61.896 70.728 60.904 71.656C60.68 71.464 60.184 71.128 59.912 70.968C60.92 70.136 61.784 68.84 62.248 67.496ZM56.568 69.688L57.576 69.336C57.928 69.976 58.312 70.824 58.456 71.368L57.384 71.752C57.272 71.208 56.92 70.344 56.568 69.688ZM63.224 69.688L64.2 69.304C64.728 69.928 65.336 70.808 65.576 71.4L64.552 71.832C64.328 71.256 63.752 70.36 63.224 69.688ZM56.568 79L57.448 78.312C58.472 78.952 59.656 79.944 60.2 80.696L59.272 81.464C58.76 80.712 57.608 79.688 56.568 79ZM70.024 78.088C69.96 77.848 69.768 77.256 69.624 76.936C69.992 76.872 70.376 76.472 70.904 75.896C71.464 75.32 73.24 73.096 74.424 70.92L75.48 71.576C74.12 73.768 72.472 75.912 70.872 77.432V77.48C70.872 77.48 70.024 77.848 70.024 78.088ZM70.024 78.088L69.96 77.08L70.568 76.664L75.064 75.848C75.016 76.184 75.016 76.664 75.032 76.904C70.936 77.736 70.376 77.896 70.024 78.088ZM69.912 74.248C69.848 73.992 69.656 73.4 69.512 73.08C69.816 73.016 70.12 72.648 70.456 72.104C70.84 71.576 72.056 69.496 72.728 67.56L73.88 68.088C73 70.088 71.816 72.136 70.648 73.576V73.624C70.648 73.624 69.912 73.992 69.912 74.248ZM69.912 74.248L69.896 73.336L70.488 72.952L73.688 72.616C73.624 72.936 73.592 73.384 73.576 73.624C70.664 74.008 70.2 74.104 69.912 74.248ZM69.624 80.088C70.984 79.816 73 79.32 75 78.84L75.128 79.912C73.272 80.408 71.32 80.904 69.864 81.288L69.624 80.088ZM75.768 68.424H82.296V69.528H75.768V68.424ZM81.944 68.424H82.184L82.424 68.36L83.272 68.808C81.784 71.864 78.536 73.992 75.432 75.144C75.272 74.84 74.952 74.376 74.712 74.136C77.576 73.176 80.696 71.128 81.944 68.632V68.424ZM74.936 80.728H84.376V81.848H74.936V80.728ZM79.064 76.424H80.264V81.144H79.064V76.424ZM75.896 75.688H83.608V76.808H75.896V75.688ZM79.096 72.712L79.752 71.864C81.32 72.472 83.4 73.464 84.456 74.136L83.768 75.128C82.744 74.424 80.68 73.384 79.096 72.712ZM89.976 69.416H100.2V70.488H89.976V69.416ZM93.64 67.832L94.728 67.528C95.144 68.184 95.544 69.096 95.688 69.672L94.552 70.04C94.408 69.464 94.008 68.52 93.64 67.832ZM97.112 69.864L98.328 70.072C97.224 73.672 94.296 75.192 90.168 75.992C90.072 75.72 89.8 75.192 89.608 74.936C93.512 74.344 96.248 73.016 97.112 69.864ZM96.776 75.736H97.944V82.104H96.776V75.736ZM92.056 75.752H93.224V77.432C93.224 78.984 92.744 80.888 90.008 82.104C89.8 81.88 89.4 81.528 89.128 81.352C91.672 80.248 92.056 78.632 92.056 77.416V75.752ZM92.664 70.008C93.832 72.792 96.52 74.28 100.584 74.728C100.328 74.984 100.024 75.48 99.864 75.816C95.672 75.192 92.984 73.528 91.624 70.28L92.664 70.008ZM86.408 68.648L87.192 67.864C88.024 68.36 89.128 69.096 89.672 69.592L88.872 70.488C88.344 69.96 87.272 69.176 86.408 68.648ZM85.624 72.856L86.408 72.088C87.256 72.568 88.376 73.336 88.936 73.864L88.136 74.744C87.608 74.2 86.504 73.416 85.624 72.856ZM85.992 81.24C86.68 80.008 87.688 77.944 88.408 76.152L89.352 76.888C88.696 78.552 87.816 80.52 87.048 81.992L85.992 81.24ZM104.648 72.968H112.568V74.024H104.648V72.968ZM101.96 76.616H116.104V77.736H101.96V76.616ZM108.392 75.448H109.624V80.856C109.624 81.576 109.432 81.928 108.824 82.104C108.248 82.28 107.32 82.296 105.864 82.296C105.784 81.96 105.544 81.464 105.352 81.144C106.584 81.176 107.672 81.176 107.992 81.16C108.312 81.144 108.392 81.064 108.392 80.824V75.448ZM112.2 72.968H112.504L112.76 72.904L113.528 73.496C112.44 74.6 110.76 75.704 109.24 76.36C109.096 76.152 108.776 75.832 108.568 75.656C109.912 75.08 111.448 74.024 112.2 73.208V72.968ZM102.28 70.232H115.832V73.8H114.648V71.32H103.416V73.8H102.28V70.232ZM113.72 67.672L114.968 68.088C114.296 69.08 113.432 70.152 112.76 70.856L111.816 70.456C112.456 69.704 113.272 68.52 113.72 67.672ZM103.368 68.232L104.376 67.752C105 68.424 105.656 69.336 105.928 69.976L104.856 70.488C104.6 69.88 103.96 68.92 103.368 68.232ZM107.48 67.88L108.52 67.496C109.064 68.248 109.64 69.288 109.832 69.96L108.728 70.392C108.536 69.72 108.008 68.664 107.48 67.88ZM126.792 67.608H127.96V69.992H126.792V67.608ZM122.952 69.416H132.12V72.328H131V70.472H124.024V72.344H122.952V69.416ZM124.216 72.248H130.824V73.304H124.216V72.248ZM123.128 75.128H132.168V76.216H123.128V75.128ZM125.272 75.608H126.44C126.248 79.032 125.672 81.16 122.52 82.296C122.408 82.024 122.088 81.592 121.848 81.368C124.696 80.408 125.144 78.6 125.272 75.608ZM128.232 75.512H129.368V80.52C129.368 80.92 129.432 80.984 129.768 80.984C129.912 80.984 130.664 80.984 130.856 80.984C131.208 80.984 131.272 80.728 131.304 78.984C131.528 79.192 132.008 79.384 132.328 79.448C132.216 81.528 131.928 82.072 130.984 82.072C130.744 82.072 129.816 82.072 129.592 82.072C128.504 82.072 128.232 81.72 128.232 80.536V75.512ZM118.28 68.264H122.056V69.352H119.368V82.296H118.28V68.264ZM121.688 68.264H121.896L122.088 68.216L122.856 68.68C122.392 69.992 121.8 71.64 121.256 72.92C122.44 74.248 122.696 75.368 122.696 76.36C122.696 77.224 122.52 77.896 122.072 78.216C121.848 78.36 121.56 78.456 121.24 78.504C120.92 78.536 120.52 78.536 120.152 78.52C120.136 78.232 120.04 77.768 119.864 77.464C120.232 77.496 120.536 77.512 120.792 77.48C120.984 77.48 121.16 77.432 121.288 77.336C121.544 77.16 121.624 76.728 121.624 76.248C121.624 75.384 121.336 74.296 120.184 73.048C120.76 71.592 121.352 69.688 121.688 68.584V68.264ZM134.552 68.584L135.352 67.88C136.152 68.584 137.16 69.576 137.64 70.216L136.776 71.032C136.328 70.376 135.336 69.336 134.552 68.584ZM135.8 81.64L135.576 80.536L135.864 80.04L138.6 77.768C138.712 78.088 138.92 78.536 139.048 78.744C136.408 80.984 136.008 81.336 135.8 81.64ZM133.688 72.568H136.664V73.672H133.688V72.568ZM138.408 75.864H148.28V76.968H138.408V75.864ZM144.296 76.392C145.24 77.992 147.032 79.736 148.552 80.568C148.28 80.792 147.912 81.208 147.72 81.512C146.2 80.504 144.456 78.536 143.464 76.744L144.296 76.392ZM140.376 71.848V73.512H146.136V71.848H140.376ZM140.376 69.24V70.888H146.136V69.24H140.376ZM139.272 68.248H147.272V74.504H139.272V68.248ZM142.408 76.392L143.256 76.712C142.248 78.712 140.408 80.68 138.648 81.656C138.472 81.368 138.12 80.968 137.864 80.744C139.608 79.928 141.464 78.152 142.408 76.392ZM142.808 68.744H143.912V74.008H143.96V82.28H142.776V74.008H142.808V68.744ZM135.8 81.64C135.656 81.416 135.288 81 135.064 80.84C135.368 80.568 135.928 79.944 135.928 79.112V72.568H137.08V79.912C137.08 79.912 135.8 81.16 135.8 81.64ZM159.304 75.112H160.488V81.512H159.304V75.112ZM155.784 74.68H164.056V75.736H155.784V74.68ZM155.096 80.792H164.408V81.864H155.096V80.792ZM156.168 77.656H163.688V78.696H156.168V77.656ZM157.512 69.272V72.232H162.328V69.272H157.512ZM156.392 68.232H163.496V73.272H156.392V68.232ZM152.392 68.888H153.56V82.248H152.392V68.888ZM149.768 72.072H155.576V73.208H149.768V72.072ZM152.456 72.504L153.208 72.824C152.568 75.08 151.288 77.88 150.056 79.368C149.944 79.032 149.656 78.536 149.448 78.264C150.6 76.984 151.88 74.488 152.456 72.504ZM154.76 67.8L155.608 68.728C154.136 69.32 151.896 69.768 150.04 70.024C149.976 69.752 149.816 69.368 149.672 69.096C151.48 68.792 153.592 68.344 154.76 67.8ZM153.512 74.136C153.912 74.488 155.416 76.008 155.736 76.408L155.032 77.352C154.648 76.696 153.448 75.176 152.952 74.616L153.512 74.136ZM167.096 70.136H171.96V80.6H167.096V79.512H170.84V71.208H167.096V70.136ZM166.376 70.136H167.496V81.88H166.376V70.136ZM167.016 74.584H171.432V75.656H167.016V74.584ZM168.824 67.528L170.12 67.768C169.8 68.76 169.4 69.864 169.08 70.584L168.12 70.344C168.392 69.576 168.696 68.36 168.824 67.528ZM174.232 70.088H179.144V71.208H174.232V70.088ZM178.728 70.088H179.848C179.848 70.088 179.848 70.536 179.848 70.712C179.592 78.056 179.368 80.536 178.728 81.32C178.376 81.784 178.008 81.928 177.448 81.976C176.904 82.04 175.96 82.008 175.064 81.96C175.032 81.608 174.888 81.112 174.664 80.792C175.704 80.872 176.664 80.888 177.032 80.888C177.352 80.888 177.544 80.84 177.72 80.632C178.248 80.056 178.504 77.4 178.728 70.344V70.088ZM174.568 67.496L175.72 67.768C175.128 70.152 174.184 72.504 173.08 74.024C172.872 73.832 172.376 73.496 172.088 73.336C173.176 71.928 174.056 69.72 174.568 67.496ZM173.832 74.248L174.76 73.704C175.672 74.84 176.776 76.392 177.288 77.336L176.264 77.976C175.784 77 174.712 75.416 173.832 74.248ZM188.44 68.424L189.224 67.528C190.536 68.2 192.168 69.256 192.952 70.04L192.104 71.048C191.368 70.248 189.768 69.128 188.44 68.424ZM186.984 75.608H195.448V76.76H186.984V75.608ZM185.848 80.648H196.376V81.8H185.848V80.648ZM186.392 71.016H196.04V72.168H186.392V71.016ZM190.504 71.432H191.736V81.176H190.504V71.432ZM182.536 68.568L183.192 67.688C184.248 68.088 185.592 68.808 186.248 69.368L185.544 70.376C184.904 69.784 183.608 69.032 182.536 68.568ZM181.608 72.936L182.232 72.024C183.304 72.376 184.68 73 185.368 73.512L184.728 74.536C184.056 74.008 182.696 73.336 181.608 72.936ZM182.2 81.256C183.064 80.04 184.328 77.928 185.256 76.104L186.12 76.888C185.272 78.584 184.152 80.584 183.208 82.072L182.2 81.256ZM200.072 68.616H203.496V69.736H200.072V68.616ZM197.656 73.928H212.328V75.08H197.656V73.928ZM199.448 68.616H200.6V73.56C200.6 76.168 200.328 79.912 198.52 82.376C198.344 82.136 197.88 81.688 197.64 81.544C199.288 79.224 199.448 75.976 199.448 73.56V68.616ZM202.872 68.616H204.024V80.776C204.024 81.416 203.88 81.768 203.432 81.96C203.016 82.152 202.296 82.168 201.176 82.168C201.128 81.864 200.952 81.368 200.792 81.08C201.592 81.096 202.328 81.096 202.552 81.08C202.776 81.08 202.872 81 202.872 80.776V68.616ZM206.36 68.616H209.896V69.736H206.36V68.616ZM205.704 68.616H206.856V73.576C206.856 76.152 206.632 79.864 204.984 82.328C204.808 82.088 204.312 81.656 204.072 81.496C205.56 79.208 205.704 75.976 205.704 73.576V68.616ZM209.416 68.616H210.6V80.824C210.6 81.512 210.44 81.864 210.008 82.056C209.56 82.264 208.824 82.28 207.672 82.28C207.608 81.976 207.432 81.448 207.272 81.144C208.104 81.176 208.872 81.176 209.096 81.16C209.336 81.144 209.416 81.064 209.416 80.824V68.616ZM215.384 75.368H226.552V76.536H215.384V75.368ZM215.384 80.104H226.504V81.288H215.384V80.104ZM214.824 70.68H227.192V82.216H225.96V71.88H216.008V82.28H214.824V70.68ZM220.328 67.576H221.56V80.728H220.328V67.576ZM233.272 69.336V71.144H240.744V69.336H233.272ZM232.024 68.28H242.056V72.2H232.024V68.28ZM236.28 75.768H237.56V77.272C237.56 78.952 236.824 81.016 230.824 82.344C230.68 82.088 230.328 81.608 230.04 81.352C235.816 80.232 236.28 78.52 236.28 77.24V75.768ZM237.464 79.976L238.056 79.096C239.96 79.704 242.584 80.664 243.976 81.336L243.368 82.344C242.04 81.672 239.416 80.632 237.464 79.976ZM231.464 73.64H242.68V79.416H241.4V74.76H232.696V79.528H231.464V73.64ZM246.664 69.368H259.4V70.616H246.664V69.368ZM245.816 79.864H260.2V81.064H245.816V79.864ZM252.28 69.992H253.624V80.36H252.28V69.992ZM261.992 70.04H276.008V71.208H261.992V70.04ZM266.952 75.112H275.384V76.232H266.952V75.112ZM266.328 80.776H276.008V81.912H266.328V80.776ZM270.568 72.024H271.768V81.384H270.568V72.024ZM267.256 67.56L268.488 67.864C267.368 71.528 265.416 75.256 262.232 77.544C262.104 77.224 261.8 76.712 261.608 76.44C264.488 74.408 266.36 70.856 267.256 67.56ZM264.088 74.152H265.288V82.232H264.088V74.152ZM277.544 77.96C278.776 77.672 280.616 77.16 282.44 76.664L282.584 77.736C280.952 78.248 279.256 78.776 277.944 79.16L277.544 77.96ZM281.912 67.64H283.08V82.28H281.912V67.64ZM278.632 69.416H279.784V78.104H278.632V69.416ZM285.656 70.536H292.408V71.672H285.656V70.536ZM286.088 67.56L287.32 67.8C286.616 70.744 285.48 73.512 284.008 75.32C283.816 75.08 283.32 74.648 283.032 74.456C284.456 72.824 285.496 70.232 286.088 67.56ZM290.328 71.08L291.528 71.272C290.408 76.76 288.216 80.232 283.928 82.328C283.816 82.056 283.448 81.512 283.224 81.256C287.336 79.416 289.352 76.168 290.328 71.08ZM286.088 71.464C287.016 76.024 289.016 79.768 292.6 81.304C292.328 81.544 291.944 82.008 291.768 82.328C288.04 80.536 286.056 76.664 285 71.672L286.088 71.464ZM37.8234 87.616H46.0314V88.704H37.8234V87.616ZM38.3034 95.232H45.5674V96.32H38.3034V95.232ZM41.3594 93.328H42.5434V99.6L41.3594 99.776V93.328ZM37.6474 99.6C39.7274 99.376 42.9754 98.944 46.0634 98.528L46.0954 99.648C43.1194 100.064 39.9674 100.512 37.8394 100.8L37.6474 99.6ZM37.7914 91.968C39.6154 91.904 42.4314 91.776 45.1834 91.632L45.1514 92.688C42.5274 92.848 39.7914 92.992 37.8874 93.104L37.7914 91.968ZM42.8954 90.016L43.7914 89.52C44.7674 90.64 45.8874 92.144 46.3514 93.104L45.3914 93.68C44.9274 92.704 43.8554 91.152 42.8954 90.016ZM40.5914 88.192L41.8874 88.448C41.3274 89.856 40.6394 91.616 40.0474 92.72L38.9914 92.464C39.5514 91.328 40.2394 89.456 40.5914 88.192ZM46.7354 88.496H47.8874V97.36H46.7354V88.496ZM50.5114 87.024H51.6954V99.664C51.6954 100.496 51.5034 100.864 50.9754 101.056C50.4474 101.264 49.4714 101.296 48.1754 101.296C48.1114 100.96 47.9354 100.4 47.7594 100.032C48.8314 100.08 49.8234 100.064 50.1434 100.064C50.4314 100.048 50.5114 99.968 50.5114 99.68V87.024ZM53.6954 90.48H57.9834V91.616H53.6954V90.48ZM55.3914 86.752H56.5114V97.472H55.3914V86.752ZM53.5834 97.936C54.7034 97.472 56.3834 96.688 58.0154 95.888L58.3354 96.96C56.8634 97.712 55.3114 98.512 54.0474 99.136L53.5834 97.936ZM58.2394 88.944H68.1914V90.032H58.2394V88.944ZM57.7114 98.368C59.1354 98.048 61.3114 97.472 63.3914 96.912L63.5194 97.936C61.5834 98.496 59.5674 99.072 58.0314 99.504L57.7114 98.368ZM63.5994 86.576H64.7674C64.7034 94.144 65.6314 100.128 67.0074 100.128C67.3114 100.128 67.4714 99.488 67.5194 97.824C67.7594 98.096 68.1274 98.336 68.3834 98.464C68.2074 100.592 67.8714 101.28 66.8634 101.28C64.3354 101.28 63.6634 94.4 63.5994 86.576ZM65.3914 87.2L66.0954 86.608C66.7834 87.072 67.6474 87.776 68.0474 88.256L67.3274 88.944C66.9114 88.448 66.0954 87.712 65.3914 87.2ZM66.7994 91.552L67.9034 91.76C66.7834 95.936 64.8474 99.12 61.9674 101.152C61.7914 100.944 61.3434 100.544 61.0874 100.352C63.9674 98.528 65.8234 95.456 66.7994 91.552ZM59.6634 92.528V95.216H61.7434V92.528H59.6634ZM58.7194 91.552H62.7194V96.208H58.7194V91.552ZM76.2394 93.056L77.1354 92.416C78.7674 93.824 80.8474 95.824 81.8714 97.072L80.8794 97.84C79.9194 96.576 77.8714 94.528 76.2394 93.056ZM76.4154 86.56H77.6474V89.696C77.6474 92.256 77.1834 95.632 73.0554 98.048C72.8954 97.792 72.4794 97.36 72.2074 97.152C76.2074 94.992 76.4154 91.904 76.4154 89.696V86.56ZM70.5914 89.296H82.8314V90.48H71.7914V101.312H70.5914V89.296ZM82.2874 89.296H83.4714V99.696C83.4714 100.48 83.2794 100.864 82.7354 101.072C82.1754 101.264 81.1834 101.28 79.7434 101.28C79.6954 100.944 79.5034 100.384 79.3434 100.048C80.4794 100.096 81.5674 100.096 81.8874 100.08C82.1914 100.064 82.2874 99.968 82.2874 99.696V89.296ZM87.1194 89.136H91.9834V99.6H87.1194V98.512H90.8634V90.208H87.1194V89.136ZM86.3994 89.136H87.5194V100.88H86.3994V89.136ZM87.0394 93.584H91.4554V94.656H87.0394V93.584ZM88.8474 86.528L90.1434 86.768C89.8234 87.76 89.4234 88.864 89.1034 89.584L88.1434 89.344C88.4154 88.576 88.7194 87.36 88.8474 86.528ZM94.2554 89.088H99.1674V90.208H94.2554V89.088ZM98.7514 89.088H99.8714C99.8714 89.088 99.8714 89.536 99.8714 89.712C99.6154 97.056 99.3914 99.536 98.7514 100.32C98.3994 100.784 98.0314 100.928 97.4714 100.976C96.9274 101.04 95.9834 101.008 95.0874 100.96C95.0554 100.608 94.9114 100.112 94.6874 99.792C95.7274 99.872 96.6874 99.888 97.0554 99.888C97.3754 99.888 97.5674 99.84 97.7434 99.632C98.2714 99.056 98.5274 96.4 98.7514 89.344V89.088ZM94.5914 86.496L95.7434 86.768C95.1514 89.152 94.2074 91.504 93.1034 93.024C92.8954 92.832 92.3994 92.496 92.1114 92.336C93.1994 90.928 94.0794 88.72 94.5914 86.496ZM93.8554 93.248L94.7834 92.704C95.6954 93.84 96.7994 95.392 97.3114 96.336L96.2874 96.976C95.8074 96 94.7354 94.416 93.8554 93.248ZM103.647 92.352H114.239V93.472H103.647V92.352ZM108.239 86.592H109.503V98.672C109.503 99.616 109.695 99.792 110.639 99.792C111.119 99.792 113.471 99.792 114.047 99.792C114.927 99.792 115.087 99.264 115.215 97.2C115.519 97.424 116.031 97.632 116.415 97.728C116.207 100.16 115.807 101.008 114.111 101.008C113.679 101.008 110.975 101.008 110.559 101.008C108.767 101.008 108.239 100.528 108.239 98.656V86.592ZM103.743 88.896H114.847V96.96H103.743V95.792H113.631V90.064H103.743V88.896ZM103.023 88.896H104.271V97.936H103.023V88.896ZM117.775 93.712H132.303V94.912H117.775V93.712ZM124.431 91.136H125.679V99.744C125.679 100.544 125.455 100.912 124.847 101.104C124.255 101.296 123.215 101.328 121.679 101.328C121.583 100.976 121.359 100.432 121.151 100.08C122.447 100.128 123.631 100.128 123.983 100.112C124.319 100.096 124.431 100.016 124.431 99.728V91.136ZM119.423 87.68H129.871V88.864H119.423V87.68ZM129.455 87.68H129.775L130.047 87.616L130.959 88.288C129.503 89.76 127.231 91.344 125.359 92.304C125.183 92.032 124.815 91.648 124.575 91.44C126.319 90.608 128.447 89.088 129.455 87.952V87.68ZM134.367 89.024H141.487V100.048H140.383V90.08H135.423V100.272H134.367V89.024ZM134.863 93.456H140.767V94.496H134.863V93.456ZM134.895 98.16H140.719V99.2H134.895V98.16ZM137.343 86.592H138.511V89.6H138.463V98.896H137.391V89.6H137.343V86.592ZM143.039 87.424H147.231V88.56H144.095V101.264H143.039V87.424ZM146.959 87.424H147.183L147.375 87.376L148.191 87.904C147.615 89.376 146.863 91.2 146.175 92.688C147.647 94.208 147.999 95.472 147.999 96.576C147.999 97.52 147.791 98.288 147.247 98.656C146.991 98.832 146.623 98.928 146.239 98.976C145.839 99.024 145.311 99.024 144.831 98.992C144.799 98.688 144.687 98.192 144.495 97.856C144.975 97.904 145.439 97.904 145.775 97.904C146.015 97.872 146.255 97.84 146.447 97.728C146.783 97.536 146.879 97.024 146.879 96.464C146.879 95.472 146.447 94.288 144.991 92.848C145.743 91.184 146.527 89.04 146.959 87.792V87.424ZM158.687 86.768H159.887V101.28H158.687V86.768ZM155.919 87.376L157.071 87.6C156.639 89.84 155.903 92.032 154.991 93.456C154.751 93.28 154.255 92.992 153.951 92.864C154.879 91.52 155.551 89.456 155.919 87.376ZM156.079 89.84H163.551V91.024H155.775L156.079 89.84ZM154.079 94.544H164.255V95.728H154.079V94.544ZM153.295 86.624L154.431 86.976C153.423 89.68 151.871 92.384 150.207 94.192C150.095 93.92 149.743 93.296 149.519 93.008C151.023 91.456 152.447 89.056 153.295 86.624ZM151.679 90.752L152.815 89.616L152.831 89.632V101.264H151.679V90.752ZM168.031 91.008H180.415V92.16H168.031V91.008ZM170.591 99.344H178.223V100.48H170.591V99.344ZM167.407 87.792L168.943 88.096C168.927 88.224 168.831 88.288 168.607 88.32V92.304C168.607 94.896 168.367 98.656 166.463 101.312C166.287 101.04 165.839 100.64 165.519 100.496C167.231 98.064 167.407 94.752 167.407 92.288V87.792ZM178.079 86.704L179.087 87.648C176.175 88.4 171.775 88.896 168.015 89.152C167.983 88.848 167.807 88.384 167.695 88.128C171.375 87.856 175.679 87.328 178.079 86.704ZM169.999 94.448H179.023V101.28H177.807V95.568H171.151V101.296H169.999V94.448ZM186.447 89.472H195.807V90.624H186.447V89.472ZM188.703 86.912H189.887V92.512C189.887 94.592 189.567 97.216 187.455 98.816C187.295 98.592 186.831 98.128 186.575 97.968C188.495 96.496 188.703 94.352 188.703 92.496V86.912ZM186.335 93.504H196.111V94.64H186.335V93.504ZM185.199 92.352V98.544H184.031V93.488H181.807V92.352H185.199ZM184.591 97.952C185.135 97.952 185.503 98.432 186.383 98.992C187.423 99.632 188.767 99.744 190.591 99.744C192.479 99.744 194.879 99.616 196.431 99.44C196.303 99.776 196.111 100.352 196.079 100.688C194.943 100.768 192.079 100.864 190.559 100.864C188.575 100.864 187.231 100.672 186.111 99.984C185.439 99.552 184.943 99.024 184.575 99.024C184.031 99.024 183.247 99.968 182.431 101.056L181.631 99.968C182.719 98.8 183.791 97.952 184.591 97.952ZM182.303 87.568L183.167 86.896C184.063 87.68 185.151 88.784 185.679 89.504L184.751 90.256C184.271 89.52 183.199 88.368 182.303 87.568ZM192.543 86.896H193.727V98.736H192.543V86.896ZM203.983 87.536H211.839V88.688H203.983V87.536ZM208.655 92.304H209.871V99.744C209.871 100.496 209.695 100.864 209.151 101.056C208.607 101.232 207.695 101.248 206.127 101.248C206.079 100.912 205.919 100.416 205.743 100.064C206.879 100.096 207.951 100.096 208.239 100.08C208.559 100.064 208.655 100 208.655 99.728V92.304ZM203.279 91.952H212.303V93.088H203.279V91.952ZM200.079 93.184L201.135 92.144L201.279 92.208V101.328H200.079V93.184ZM201.935 89.984L203.071 90.416C201.823 92.448 199.935 94.512 198.255 95.856C198.079 95.616 197.663 95.088 197.407 94.864C199.071 93.68 200.831 91.824 201.935 89.984ZM201.279 86.56L202.431 87.024C201.359 88.432 199.711 89.984 198.287 91.008C198.111 90.752 197.791 90.288 197.583 90.048C198.911 89.152 200.463 87.712 201.279 86.56ZM214.165 100V91.2727H215.808V92.6591H215.898C216.058 92.1894 216.338 91.8201 216.739 91.5511C217.145 91.2784 217.603 91.142 218.114 91.142C218.22 91.142 218.345 91.1458 218.489 91.1534C218.637 91.161 218.753 91.1705 218.836 91.1818V92.8068C218.768 92.7879 218.647 92.767 218.472 92.7443C218.298 92.7178 218.124 92.7045 217.95 92.7045C217.548 92.7045 217.19 92.7898 216.876 92.9602C216.565 93.1269 216.319 93.3598 216.137 93.6591C215.955 93.9545 215.864 94.2917 215.864 94.6705V100H214.165ZM225.835 96.3807V91.2727H227.539V100H225.869V98.4886H225.778C225.577 98.9545 225.255 99.3428 224.812 99.6534C224.372 99.9602 223.825 100.114 223.17 100.114C222.609 100.114 222.113 99.9905 221.681 99.7443C221.253 99.4943 220.916 99.125 220.67 98.6364C220.427 98.1477 220.306 97.5436 220.306 96.8239V91.2727H222.005V96.6193C222.005 97.214 222.17 97.6875 222.499 98.0398C222.829 98.392 223.257 98.5682 223.783 98.5682C224.102 98.5682 224.418 98.4886 224.732 98.3295C225.05 98.1705 225.314 97.9299 225.522 97.608C225.734 97.286 225.838 96.8769 225.835 96.3807ZM230.941 100.108C230.63 100.108 230.363 99.9981 230.14 99.7784C229.916 99.5549 229.805 99.286 229.805 98.9716C229.805 98.661 229.916 98.3958 230.14 98.1761C230.363 97.9527 230.63 97.8409 230.941 97.8409C231.252 97.8409 231.519 97.9527 231.742 98.1761C231.966 98.3958 232.077 98.661 232.077 98.9716C232.077 99.1799 232.024 99.3712 231.918 99.5455C231.816 99.7159 231.68 99.8523 231.509 99.9545C231.339 100.057 231.149 100.108 230.941 100.108ZM234.353 100V91.2727H235.984V92.6932H236.092C236.273 92.2121 236.571 91.8371 236.984 91.5682C237.397 91.2955 237.891 91.1591 238.467 91.1591C239.05 91.1591 239.539 91.2955 239.933 91.5682C240.33 91.8409 240.624 92.2159 240.813 92.6932H240.904C241.112 92.2273 241.444 91.8561 241.898 91.5795C242.353 91.2992 242.895 91.1591 243.523 91.1591C244.315 91.1591 244.961 91.4072 245.461 91.9034C245.965 92.3996 246.217 93.1477 246.217 94.1477V100H244.518V94.3068C244.518 93.7159 244.357 93.2879 244.035 93.0227C243.713 92.7576 243.328 92.625 242.881 92.625C242.328 92.625 241.898 92.7955 241.592 93.1364C241.285 93.4735 241.131 93.9072 241.131 94.4375V100H239.438V94.1989C239.438 93.7254 239.29 93.3447 238.995 93.0568C238.7 92.7689 238.315 92.625 237.842 92.625C237.52 92.625 237.222 92.7102 236.95 92.8807C236.681 93.0473 236.463 93.2803 236.296 93.5795C236.133 93.8788 236.052 94.2254 236.052 94.6193V100H234.353ZM252.255 100.176C251.395 100.176 250.655 99.9924 250.033 99.625C249.416 99.2538 248.939 98.733 248.602 98.0625C248.268 97.3883 248.102 96.5985 248.102 95.6932C248.102 94.7992 248.268 94.0114 248.602 93.3295C248.939 92.6477 249.408 92.1155 250.011 91.733C250.617 91.3504 251.325 91.1591 252.136 91.1591C252.628 91.1591 253.105 91.2405 253.567 91.4034C254.03 91.5663 254.444 91.822 254.812 92.1705C255.179 92.5189 255.469 92.9716 255.681 93.5284C255.893 94.0814 255.999 94.7538 255.999 95.5455V96.1477H249.062V94.875H254.335C254.335 94.428 254.244 94.0322 254.062 93.6875C253.88 93.339 253.624 93.0644 253.295 92.8636C252.969 92.6629 252.586 92.5625 252.147 92.5625C251.67 92.5625 251.253 92.6799 250.897 92.9148C250.545 93.1458 250.272 93.4489 250.079 93.8239C249.889 94.1951 249.795 94.5985 249.795 95.0341V96.0284C249.795 96.6117 249.897 97.108 250.102 97.517C250.31 97.9261 250.6 98.2386 250.971 98.4545C251.342 98.6667 251.776 98.7727 252.272 98.7727C252.594 98.7727 252.888 98.7273 253.153 98.6364C253.418 98.5417 253.647 98.4015 253.84 98.2159C254.033 98.0303 254.181 97.8011 254.283 97.5284L255.891 97.8182C255.763 98.2917 255.531 98.7064 255.198 99.0625C254.869 99.4148 254.454 99.6894 253.954 99.8864C253.458 100.08 252.891 100.176 252.255 100.176ZM262.401 89.872H275.649V91.024H262.401V89.872ZM261.809 94.496H276.161V95.648H261.809V94.496ZM271.233 90.464H272.465V101.28H271.233V90.464ZM265.537 90.464H266.721V94.112C266.721 96.768 266.273 99.536 262.625 101.408C262.465 101.12 262.065 100.704 261.809 100.48C265.153 98.8 265.537 96.384 265.537 94.096V90.464ZM264.449 86.992L265.505 86.576C266.209 87.424 266.929 88.592 267.233 89.36L266.113 89.856C265.841 89.088 265.137 87.872 264.449 86.992ZM272.305 86.528L273.649 86.944C273.025 87.936 272.305 89.088 271.713 89.808L270.673 89.424C271.249 88.64 271.937 87.408 272.305 86.528ZM277.969 89.04H291.985V90.208H277.969V89.04ZM282.929 94.112H291.361V95.232H282.929V94.112ZM282.305 99.776H291.985V100.912H282.305V99.776ZM286.545 91.024H287.745V100.384H286.545V91.024ZM283.233 86.56L284.465 86.864C283.345 90.528 281.393 94.256 278.209 96.544C278.081 96.224 277.777 95.712 277.585 95.44C280.465 93.408 282.337 89.856 283.233 86.56ZM280.065 93.152H281.265V101.232H280.065V93.152ZM35.3281 106.648H47.9361V107.832H35.3281V106.648ZM34.4961 113.448H48.8481V114.648H34.4961V113.448ZM36.4481 108.936L37.5201 108.6C38.1761 109.768 38.8321 111.288 39.0561 112.232L37.9041 112.616C37.6801 111.672 37.0561 110.12 36.4481 108.936ZM45.7281 108.536L47.0081 108.888C46.4001 110.184 45.6481 111.72 45.0241 112.68L44.0001 112.344C44.5921 111.336 45.3441 109.688 45.7281 108.536ZM41.0081 107.112H42.2401V120.28H41.0081V107.112ZM53.1041 118.408H62.1121V119.576H53.1041V118.408ZM52.5601 113.464H62.7521V120.248H61.4881V114.616H53.7761V120.28H52.5601V113.464ZM55.7761 105.512L57.0881 105.976C56.1281 107.832 54.7841 110.04 53.7121 111.448L52.6721 111C53.7281 109.576 55.0401 107.224 55.7761 105.512ZM59.6161 108.104L60.5601 107.4C62.1921 108.696 64.0801 110.584 64.9121 111.912L63.8881 112.712C63.0881 111.384 61.2641 109.448 59.6161 108.104ZM50.6721 110.472C53.7121 110.392 58.6401 110.184 63.2001 109.976L63.1361 111.128C58.6401 111.368 53.8081 111.576 50.7521 111.704L50.6721 110.472ZM73.1841 110.744H79.7601V111.944H73.1841V110.744ZM66.4801 118.328H80.8481V119.528H66.4801V118.328ZM72.4961 105.8H73.7601V118.968H72.4961V105.8ZM89.1041 106.424L89.8881 105.528C91.2001 106.2 92.8321 107.256 93.6161 108.04L92.7681 109.048C92.0321 108.248 90.4321 107.128 89.1041 106.424ZM87.6481 113.608H96.1121V114.76H87.6481V113.608ZM86.5121 118.648H97.0401V119.8H86.5121V118.648ZM87.0561 109.016H96.7041V110.168H87.0561V109.016ZM91.1681 109.432H92.4001V119.176H91.1681V109.432ZM83.2001 106.568L83.8561 105.688C84.9121 106.088 86.2561 106.808 86.9121 107.368L86.2081 108.376C85.5681 107.784 84.2721 107.032 83.2001 106.568ZM82.2721 110.936L82.8961 110.024C83.9681 110.376 85.3441 111 86.0321 111.512L85.3921 112.536C84.7201 112.008 83.3601 111.336 82.2721 110.936ZM82.8641 119.256C83.7281 118.04 84.9921 115.928 85.9201 114.104L86.7841 114.888C85.9361 116.584 84.8161 118.584 83.8721 120.072L82.8641 119.256ZM100.736 106.616H104.16V107.736H100.736V106.616ZM98.3201 111.928H112.992V113.08H98.3201V111.928ZM100.112 106.616H101.264V111.56C101.264 114.168 100.992 117.912 99.1841 120.376C99.0081 120.136 98.5441 119.688 98.3041 119.544C99.9521 117.224 100.112 113.976 100.112 111.56V106.616ZM103.536 106.616H104.688V118.776C104.688 119.416 104.544 119.768 104.096 119.96C103.68 120.152 102.96 120.168 101.84 120.168C101.792 119.864 101.616 119.368 101.456 119.08C102.256 119.096 102.992 119.096 103.216 119.08C103.44 119.08 103.536 119 103.536 118.776V106.616ZM107.024 106.616H110.56V107.736H107.024V106.616ZM106.368 106.616H107.52V111.576C107.52 114.152 107.296 117.864 105.648 120.328C105.472 120.088 104.976 119.656 104.736 119.496C106.224 117.208 106.368 113.976 106.368 111.576V106.616ZM110.08 106.616H111.264V118.824C111.264 119.512 111.104 119.864 110.672 120.056C110.224 120.264 109.488 120.28 108.336 120.28C108.272 119.976 108.096 119.448 107.936 119.144C108.768 119.176 109.536 119.176 109.76 119.16C110 119.144 110.08 119.064 110.08 118.824V106.616ZM118.482 119.176C117.664 119.176 116.95 118.989 116.34 118.614C115.73 118.239 115.257 117.714 114.92 117.04C114.583 116.366 114.414 115.578 114.414 114.676C114.414 113.771 114.583 112.979 114.92 112.301C115.257 111.623 115.73 111.097 116.34 110.722C116.95 110.347 117.664 110.159 118.482 110.159C119.3 110.159 120.014 110.347 120.624 110.722C121.234 111.097 121.708 111.623 122.045 112.301C122.382 112.979 122.55 113.771 122.55 114.676C122.55 115.578 122.382 116.366 122.045 117.04C121.708 117.714 121.234 118.239 120.624 118.614C120.014 118.989 119.3 119.176 118.482 119.176ZM118.488 117.75C119.018 117.75 119.458 117.61 119.806 117.33C120.155 117.049 120.412 116.676 120.579 116.21C120.749 115.744 120.835 115.231 120.835 114.67C120.835 114.114 120.749 113.602 120.579 113.136C120.412 112.667 120.155 112.29 119.806 112.006C119.458 111.722 119.018 111.58 118.488 111.58C117.954 111.58 117.511 111.722 117.158 112.006C116.81 112.29 116.55 112.667 116.38 113.136C116.213 113.602 116.13 114.114 116.13 114.67C116.13 115.231 116.213 115.744 116.38 116.21C116.55 116.676 116.81 117.049 117.158 117.33C117.511 117.61 117.954 117.75 118.488 117.75ZM126.146 113.818V119H124.447V110.273H126.077V111.693H126.185C126.386 111.231 126.701 110.86 127.129 110.58C127.56 110.299 128.104 110.159 128.759 110.159C129.354 110.159 129.875 110.284 130.322 110.534C130.769 110.78 131.115 111.148 131.362 111.636C131.608 112.125 131.731 112.729 131.731 113.449V119H130.032V113.653C130.032 113.021 129.867 112.527 129.538 112.17C129.208 111.811 128.755 111.631 128.18 111.631C127.786 111.631 127.435 111.716 127.129 111.886C126.826 112.057 126.585 112.307 126.407 112.636C126.233 112.962 126.146 113.356 126.146 113.818ZM135.708 107.364V119H134.009V107.364H135.708ZM137.994 119V110.273H139.692V119H137.994ZM138.852 108.926C138.556 108.926 138.302 108.828 138.09 108.631C137.882 108.43 137.778 108.191 137.778 107.915C137.778 107.634 137.882 107.396 138.09 107.199C138.302 106.998 138.556 106.898 138.852 106.898C139.147 106.898 139.399 106.998 139.607 107.199C139.819 107.396 139.925 107.634 139.925 107.915C139.925 108.191 139.819 108.43 139.607 108.631C139.399 108.828 139.147 108.926 138.852 108.926ZM143.677 113.818V119H141.978V110.273H143.609V111.693H143.717C143.917 111.231 144.232 110.86 144.66 110.58C145.092 110.299 145.635 110.159 146.29 110.159C146.885 110.159 147.406 110.284 147.853 110.534C148.3 110.78 148.647 111.148 148.893 111.636C149.139 112.125 149.262 112.729 149.262 113.449V119H147.563V113.653C147.563 113.021 147.398 112.527 147.069 112.17C146.739 111.811 146.287 111.631 145.711 111.631C145.317 111.631 144.967 111.716 144.66 111.886C144.357 112.057 144.116 112.307 143.938 112.636C143.764 112.962 143.677 113.356 143.677 113.818ZM155.302 119.176C154.442 119.176 153.701 118.992 153.08 118.625C152.463 118.254 151.986 117.733 151.648 117.062C151.315 116.388 151.148 115.598 151.148 114.693C151.148 113.799 151.315 113.011 151.648 112.33C151.986 111.648 152.455 111.116 153.058 110.733C153.664 110.35 154.372 110.159 155.183 110.159C155.675 110.159 156.152 110.241 156.614 110.403C157.076 110.566 157.491 110.822 157.859 111.17C158.226 111.519 158.516 111.972 158.728 112.528C158.94 113.081 159.046 113.754 159.046 114.545V115.148H152.109V113.875H157.381C157.381 113.428 157.29 113.032 157.109 112.688C156.927 112.339 156.671 112.064 156.342 111.864C156.016 111.663 155.633 111.562 155.194 111.562C154.717 111.562 154.3 111.68 153.944 111.915C153.592 112.146 153.319 112.449 153.126 112.824C152.936 113.195 152.842 113.598 152.842 114.034V115.028C152.842 115.612 152.944 116.108 153.148 116.517C153.357 116.926 153.647 117.239 154.018 117.455C154.389 117.667 154.823 117.773 155.319 117.773C155.641 117.773 155.934 117.727 156.2 117.636C156.465 117.542 156.694 117.402 156.887 117.216C157.08 117.03 157.228 116.801 157.33 116.528L158.938 116.818C158.809 117.292 158.578 117.706 158.245 118.062C157.915 118.415 157.501 118.689 157.001 118.886C156.504 119.08 155.938 119.176 155.302 119.176ZM162.05 119.108C161.74 119.108 161.473 118.998 161.249 118.778C161.026 118.555 160.914 118.286 160.914 117.972C160.914 117.661 161.026 117.396 161.249 117.176C161.473 116.953 161.74 116.841 162.05 116.841C162.361 116.841 162.628 116.953 162.852 117.176C163.075 117.396 163.187 117.661 163.187 117.972C163.187 118.18 163.134 118.371 163.028 118.545C162.925 118.716 162.789 118.852 162.619 118.955C162.448 119.057 162.259 119.108 162.05 119.108ZM167.161 113.818V119H165.462V107.364H167.138V111.693H167.246C167.451 111.223 167.763 110.85 168.184 110.574C168.604 110.297 169.154 110.159 169.832 110.159C170.43 110.159 170.953 110.282 171.4 110.528C171.851 110.775 172.199 111.142 172.445 111.631C172.695 112.116 172.82 112.722 172.82 113.449V119H171.121V113.653C171.121 113.013 170.957 112.517 170.627 112.165C170.298 111.809 169.839 111.631 169.252 111.631C168.851 111.631 168.491 111.716 168.173 111.886C167.858 112.057 167.61 112.307 167.428 112.636C167.25 112.962 167.161 113.356 167.161 113.818ZM181.627 112.403L180.087 112.676C180.023 112.479 179.921 112.292 179.781 112.114C179.644 111.936 179.459 111.79 179.224 111.676C178.989 111.562 178.695 111.506 178.343 111.506C177.862 111.506 177.46 111.614 177.138 111.83C176.817 112.042 176.656 112.316 176.656 112.653C176.656 112.945 176.763 113.18 176.979 113.358C177.195 113.536 177.544 113.682 178.025 113.795L179.411 114.114C180.214 114.299 180.813 114.585 181.207 114.972C181.601 115.358 181.798 115.86 181.798 116.477C181.798 117 181.646 117.466 181.343 117.875C181.044 118.28 180.625 118.598 180.087 118.83C179.553 119.061 178.934 119.176 178.229 119.176C177.252 119.176 176.455 118.968 175.837 118.551C175.22 118.131 174.841 117.534 174.701 116.761L176.343 116.511C176.445 116.939 176.656 117.263 176.974 117.483C177.292 117.699 177.707 117.807 178.218 117.807C178.775 117.807 179.22 117.691 179.553 117.46C179.887 117.225 180.053 116.939 180.053 116.602C180.053 116.33 179.951 116.1 179.746 115.915C179.546 115.729 179.237 115.589 178.82 115.494L177.343 115.17C176.529 114.985 175.926 114.689 175.536 114.284C175.15 113.879 174.957 113.366 174.957 112.744C174.957 112.229 175.101 111.778 175.388 111.392C175.676 111.006 176.074 110.705 176.582 110.489C177.089 110.269 177.671 110.159 178.326 110.159C179.269 110.159 180.012 110.364 180.553 110.773C181.095 111.178 181.453 111.722 181.627 112.403ZM187.427 119.176C186.567 119.176 185.826 118.992 185.205 118.625C184.588 118.254 184.111 117.733 183.773 117.062C183.44 116.388 183.273 115.598 183.273 114.693C183.273 113.799 183.44 113.011 183.773 112.33C184.111 111.648 184.58 111.116 185.183 110.733C185.789 110.35 186.497 110.159 187.308 110.159C187.8 110.159 188.277 110.241 188.739 110.403C189.201 110.566 189.616 110.822 189.984 111.17C190.351 111.519 190.641 111.972 190.853 112.528C191.065 113.081 191.171 113.754 191.171 114.545V115.148H184.234V113.875H189.506C189.506 113.428 189.415 113.032 189.234 112.688C189.052 112.339 188.796 112.064 188.467 111.864C188.141 111.663 187.758 111.562 187.319 111.562C186.842 111.562 186.425 111.68 186.069 111.915C185.717 112.146 185.444 112.449 185.251 112.824C185.061 113.195 184.967 113.598 184.967 114.034V115.028C184.967 115.612 185.069 116.108 185.273 116.517C185.482 116.926 185.772 117.239 186.143 117.455C186.514 117.667 186.948 117.773 187.444 117.773C187.766 117.773 188.059 117.727 188.325 117.636C188.59 117.542 188.819 117.402 189.012 117.216C189.205 117.03 189.353 116.801 189.455 116.528L191.063 116.818C190.934 117.292 190.703 117.706 190.37 118.062C190.04 118.415 189.626 118.689 189.126 118.886C188.629 119.08 188.063 119.176 187.427 119.176ZM194.175 119.108C193.865 119.108 193.598 118.998 193.374 118.778C193.151 118.555 193.039 118.286 193.039 117.972C193.039 117.661 193.151 117.396 193.374 117.176C193.598 116.953 193.865 116.841 194.175 116.841C194.486 116.841 194.753 116.953 194.977 117.176C195.2 117.396 195.312 117.661 195.312 117.972C195.312 118.18 195.259 118.371 195.153 118.545C195.05 118.716 194.914 118.852 194.744 118.955C194.573 119.057 194.384 119.108 194.175 119.108ZM197.587 119V110.273H199.229V111.659H199.32C199.479 111.189 199.76 110.82 200.161 110.551C200.567 110.278 201.025 110.142 201.536 110.142C201.642 110.142 201.767 110.146 201.911 110.153C202.059 110.161 202.174 110.17 202.258 110.182V111.807C202.19 111.788 202.068 111.767 201.894 111.744C201.72 111.718 201.546 111.705 201.371 111.705C200.97 111.705 200.612 111.79 200.298 111.96C199.987 112.127 199.741 112.36 199.559 112.659C199.377 112.955 199.286 113.292 199.286 113.67V119H197.587ZM209.256 115.381V110.273H210.961V119H209.29V117.489H209.2C208.999 117.955 208.677 118.343 208.234 118.653C207.794 118.96 207.247 119.114 206.592 119.114C206.031 119.114 205.535 118.991 205.103 118.744C204.675 118.494 204.338 118.125 204.092 117.636C203.849 117.148 203.728 116.544 203.728 115.824V110.273H205.427V115.619C205.427 116.214 205.592 116.687 205.921 117.04C206.251 117.392 206.679 117.568 207.205 117.568C207.523 117.568 207.84 117.489 208.154 117.33C208.472 117.17 208.736 116.93 208.944 116.608C209.156 116.286 209.26 115.877 209.256 115.381ZM219.456 106.696H229.808V107.848H219.456V106.696ZM219.456 110.424H229.792V111.56H219.456V110.424ZM219.376 114.248H229.824V115.384H219.376V114.248ZM218.784 106.696H219.968V112.504C219.968 114.936 219.68 118.248 217.776 120.376C217.584 120.136 217.104 119.736 216.848 119.576C218.608 117.592 218.784 114.744 218.784 112.488V106.696ZM229.328 106.696H230.512V118.648C230.512 119.432 230.32 119.8 229.792 120.008C229.248 120.2 228.32 120.216 226.8 120.2C226.752 119.88 226.56 119.352 226.384 119.032C227.52 119.08 228.608 119.064 228.912 119.064C229.216 119.048 229.328 118.952 229.328 118.648V106.696ZM223.808 107.128H225.024V120.136H223.808V107.128ZM235.856 117.24C236.368 117.24 236.752 117.64 237.616 118.104C238.624 118.664 240.032 118.744 241.76 118.744C243.584 118.744 246.096 118.632 247.728 118.44C247.568 118.792 247.376 119.416 247.344 119.8C246.08 119.88 243.344 119.96 241.728 119.96C239.84 119.96 238.464 119.8 237.36 119.224C236.704 118.856 236.192 118.408 235.84 118.408C235.296 118.408 234.528 119.24 233.744 120.152L232.896 118.984C233.936 117.992 235.04 117.24 235.856 117.24ZM233.296 106.888L234.24 106.264C235.088 106.968 236.112 108.008 236.576 108.728L235.568 109.432C235.136 108.712 234.144 107.656 233.296 106.888ZM236.352 111.592V117.848H235.184V112.712H233.12V111.592H236.352ZM237.056 108.072H247.456V109.208H237.056V108.072ZM244.416 108.296L245.616 108.536C244.352 113.176 241.824 115.944 237.696 117.576C237.568 117.32 237.2 116.776 236.96 116.52C240.96 115.144 243.344 112.568 244.416 108.296ZM240.704 105.832L241.84 105.48C242.304 106.184 242.832 107.16 243.056 107.768L241.856 108.2C241.664 107.576 241.152 106.568 240.704 105.832ZM237.536 110.824L238.384 110.088C241.216 112.04 244.976 114.856 246.864 116.648L245.92 117.528C244.16 115.736 240.448 112.824 237.536 110.824ZM256.544 109.32H263.664V110.472H256.544V109.32ZM249.568 107.64H255.984V108.728H249.568V107.64ZM249.44 114.296H256.128V115.384H249.44V114.296ZM249.056 110.952H256.304V112.056H249.056V110.952ZM260.896 105.72H262.08V118.728C262.08 119.48 261.872 119.816 261.408 120.024C260.912 120.216 260.128 120.248 258.784 120.248C258.72 119.928 258.512 119.4 258.336 119.08C259.344 119.112 260.224 119.096 260.496 119.096C260.8 119.08 260.896 119 260.896 118.728V105.72ZM257.168 112.312L258.192 111.944C258.768 113.096 259.488 114.664 259.84 115.56L258.72 116.024C258.416 115.096 257.744 113.496 257.168 112.312ZM252.208 105.56H253.36V111.528H252.208V105.56ZM252.208 112.424H253.36V118.568H252.208V112.424ZM248.912 118.424C250.8 118.168 253.76 117.688 256.56 117.256L256.608 118.36C253.92 118.824 251.088 119.288 249.088 119.624L248.912 118.424ZM266.96 111.352H277.552V112.472H266.96V111.352ZM271.552 105.592H272.816V117.672C272.816 118.616 273.008 118.792 273.952 118.792C274.432 118.792 276.784 118.792 277.36 118.792C278.24 118.792 278.4 118.264 278.528 116.2C278.832 116.424 279.344 116.632 279.728 116.728C279.52 119.16 279.12 120.008 277.424 120.008C276.992 120.008 274.288 120.008 273.872 120.008C272.08 120.008 271.552 119.528 271.552 117.656V105.592ZM267.056 107.896H278.16V115.96H267.056V114.792H276.944V109.064H267.056V107.896ZM266.336 107.896H267.584V116.936H266.336V107.896ZM281.088 112.712H295.616V113.912H281.088V112.712ZM287.744 110.136H288.992V118.744C288.992 119.544 288.768 119.912 288.16 120.104C287.568 120.296 286.528 120.328 284.992 120.328C284.896 119.976 284.672 119.432 284.464 119.08C285.76 119.128 286.944 119.128 287.296 119.112C287.632 119.096 287.744 119.016 287.744 118.728V110.136ZM282.736 106.68H293.184V107.864H282.736V106.68ZM292.768 106.68H293.088L293.36 106.616L294.272 107.288C292.816 108.76 290.544 110.344 288.672 111.304C288.496 111.032 288.128 110.648 287.888 110.44C289.632 109.608 291.76 108.088 292.768 106.952V106.68ZM92.2268 127.024H99.3468V138.048H98.2428V128.08H93.2828V138.272H92.2268V127.024ZM92.7228 131.456H98.6268V132.496H92.7228V131.456ZM92.7548 136.16H98.5788V137.2H92.7548V136.16ZM95.2028 124.592H96.3708V127.6H96.3228V136.896H95.2508V127.6H95.2028V124.592ZM100.899 125.424H105.091V126.56H101.955V139.264H100.899V125.424ZM104.819 125.424H105.043L105.235 125.376L106.051 125.904C105.475 127.376 104.723 129.2 104.035 130.688C105.507 132.208 105.859 133.472 105.859 134.576C105.859 135.52 105.651 136.288 105.107 136.656C104.851 136.832 104.483 136.928 104.099 136.976C103.699 137.024 103.171 137.024 102.691 136.992C102.659 136.688 102.547 136.192 102.355 135.856C102.835 135.904 103.299 135.904 103.635 135.904C103.875 135.872 104.115 135.84 104.307 135.728C104.643 135.536 104.739 135.024 104.739 134.464C104.739 133.472 104.307 132.288 102.851 130.848C103.603 129.184 104.387 127.04 104.819 125.792V125.424ZM116.547 124.768H117.747V139.28H116.547V124.768ZM113.779 125.376L114.931 125.6C114.499 127.84 113.763 130.032 112.851 131.456C112.611 131.28 112.115 130.992 111.811 130.864C112.739 129.52 113.411 127.456 113.779 125.376ZM113.939 127.84H121.411V129.024H113.635L113.939 127.84ZM111.939 132.544H122.115V133.728H111.939V132.544ZM111.155 124.624L112.291 124.976C111.283 127.68 109.731 130.384 108.067 132.192C107.955 131.92 107.603 131.296 107.379 131.008C108.883 129.456 110.307 127.056 111.155 124.624ZM109.539 128.752L110.675 127.616L110.691 127.632V139.264H109.539V128.752ZM125.987 134.112C127.331 134.112 128.419 135.2 128.419 136.544C128.419 137.888 127.331 138.976 125.987 138.976C124.643 138.976 123.539 137.888 123.539 136.544C123.539 135.2 124.643 134.112 125.987 134.112ZM125.987 138.16C126.883 138.16 127.603 137.44 127.603 136.544C127.603 135.648 126.883 134.928 125.987 134.928C125.091 134.928 124.355 135.648 124.355 136.544C124.355 137.44 125.091 138.16 125.987 138.16ZM144.669 125.584L145.469 124.88C146.269 125.584 147.277 126.576 147.757 127.216L146.893 128.032C146.445 127.376 145.453 126.336 144.669 125.584ZM145.917 138.64L145.693 137.536L145.981 137.04L148.717 134.768C148.829 135.088 149.037 135.536 149.165 135.744C146.525 137.984 146.125 138.336 145.917 138.64ZM143.805 129.568H146.781V130.672H143.805V129.568ZM148.525 132.864H158.397V133.968H148.525V132.864ZM154.413 133.392C155.357 134.992 157.149 136.736 158.669 137.568C158.397 137.792 158.029 138.208 157.837 138.512C156.317 137.504 154.573 135.536 153.581 133.744L154.413 133.392ZM150.493 128.848V130.512H156.253V128.848H150.493ZM150.493 126.24V127.888H156.253V126.24H150.493ZM149.389 125.248H157.389V131.504H149.389V125.248ZM152.525 133.392L153.373 133.712C152.365 135.712 150.525 137.68 148.765 138.656C148.589 138.368 148.237 137.968 147.981 137.744C149.725 136.928 151.581 135.152 152.525 133.392ZM152.925 125.744H154.029V131.008H154.077V139.28H152.893V131.008H152.925V125.744ZM145.917 138.64C145.773 138.416 145.405 138 145.181 137.84C145.485 137.568 146.045 136.944 146.045 136.112V129.568H147.197V136.912C147.197 136.912 145.917 138.16 145.917 138.64ZM169.421 132.112H170.605V138.512H169.421V132.112ZM165.901 131.68H174.173V132.736H165.901V131.68ZM165.213 137.792H174.525V138.864H165.213V137.792ZM166.285 134.656H173.805V135.696H166.285V134.656ZM167.629 126.272V129.232H172.445V126.272H167.629ZM166.509 125.232H173.613V130.272H166.509V125.232ZM162.509 125.888H163.677V139.248H162.509V125.888ZM159.885 129.072H165.693V130.208H159.885V129.072ZM162.573 129.504L163.325 129.824C162.685 132.08 161.405 134.88 160.173 136.368C160.061 136.032 159.773 135.536 159.565 135.264C160.717 133.984 161.997 131.488 162.573 129.504ZM164.877 124.8L165.725 125.728C164.253 126.32 162.013 126.768 160.157 127.024C160.093 126.752 159.933 126.368 159.789 126.096C161.597 125.792 163.709 125.344 164.877 124.8ZM163.629 131.136C164.029 131.488 165.533 133.008 165.853 133.408L165.149 134.352C164.765 133.696 163.565 132.176 163.069 131.616L163.629 131.136ZM176.221 125.696H189.997V126.912H176.221V125.696ZM184.061 130.352L184.957 129.584C186.829 130.8 189.277 132.608 190.461 133.84L189.485 134.752C188.365 133.52 185.965 131.648 184.061 130.352ZM183.757 126.112L185.069 126.592C183.245 129.904 180.253 133.072 176.637 134.976C176.445 134.672 176.061 134.192 175.821 133.936C179.293 132.192 182.269 129.12 183.757 126.112ZM182.445 129.312L183.741 128.032V139.264H182.445V129.312ZM192.541 125.616H205.789V126.752H192.541V125.616ZM191.949 131.328H206.301V132.48H191.949V131.328ZM201.485 126.208H202.717V139.296H201.485V126.208ZM195.789 126.208H197.005V130.64C197.005 133.744 196.605 137.024 192.925 139.344C192.717 139.072 192.285 138.656 191.981 138.464C195.421 136.336 195.789 133.408 195.789 130.64V126.208ZM207.805 127.152H214.925V128.288H207.805V127.152ZM210.397 130.416H213.469V131.52H210.397V130.416ZM210.733 124.592H211.917V127.696H210.733V124.592ZM213.053 130.416H214.205C214.205 130.416 214.205 130.8 214.189 130.96C214.077 136.304 213.981 138.128 213.549 138.688C213.293 139.04 213.037 139.152 212.605 139.216C212.221 139.248 211.533 139.248 210.861 139.216C210.829 138.88 210.717 138.416 210.541 138.112C211.213 138.16 211.805 138.16 212.061 138.16C212.285 138.176 212.429 138.128 212.557 137.952C212.829 137.568 212.957 135.792 213.053 130.656V130.416ZM216.429 127.552H222.509V128.672H216.429V127.552ZM216.797 124.56L218.029 124.736C217.485 127.76 216.557 130.624 215.245 132.48C215.037 132.272 214.509 131.872 214.221 131.696C215.501 130 216.333 127.312 216.797 124.56ZM220.205 128.16L221.389 128.288C220.509 133.856 218.685 137.264 214.525 139.328C214.413 139.056 214.061 138.528 213.821 138.272C217.773 136.496 219.469 133.28 220.205 128.16ZM216.893 128.576C217.677 133.008 219.373 136.704 222.621 138.224C222.333 138.464 221.949 138.928 221.773 139.248C218.397 137.488 216.733 133.632 215.853 128.768L216.893 128.576ZM209.709 127.712H210.845V131.616C210.845 134.272 210.525 137.008 208.397 139.264C208.189 139.024 207.805 138.704 207.501 138.496C209.469 136.416 209.709 133.872 209.709 131.616V127.712ZM230.589 134.144L230.269 127.936L230.221 126.032H231.997L231.949 127.936L231.629 134.144H230.589ZM231.117 138.08C230.541 138.08 230.077 137.68 230.077 137.04C230.077 136.4 230.541 135.968 231.117 135.968C231.677 135.968 232.141 136.4 232.141 137.04C232.141 137.68 231.677 138.08 231.117 138.08Z" fill="#2D3342"/>
<path d="M26.0947 86.7296C25.6312 86.6622 14.4085 85.1947 14.8759 74.9619C14.9189 74.0218 15.0385 73.1665 15.2245 72.3912M26.0947 86.7296C19.9435 86.3312 16.8178 83.9693 15.4189 81.1386M26.0947 86.7296C26.8389 86.8379 27.6065 86.8293 28.3657 86.7115M15.2245 72.3912C15.4573 71.4206 15.794 70.5753 16.2143 69.8456M15.2245 72.3912C14.3864 74.6665 13.9478 78.1618 15.4189 81.1386M16.2143 69.8456C19.6598 63.8632 28.7211 65.6504 32.1716 69.8456C33.5255 71.4931 36.3631 75.6713 34.9803 80.8941C34.1134 84.168 31.3011 86.2559 28.3657 86.7115M16.2143 69.8456C14.9032 71.6509 13.0009 75.8787 14.6272 79.7128M15.4189 81.1386C15.0934 80.6734 14.8323 80.1962 14.6272 79.7128M28.3657 86.7115C24.4842 87.3733 16.3023 86.9002 14.6272 79.7128" stroke="#6663CF" stroke-linecap="round"/>
<path d="M13.8152 196.727V195.307L18.8436 187.364H19.9629V189.455H19.2527L15.6561 195.148V195.239H22.5481V196.727H13.8152ZM19.3322 199V196.295L19.3436 195.648V187.364H21.0083V199H19.3322ZM25.7498 199.108C25.4392 199.108 25.1722 198.998 24.9487 198.778C24.7252 198.555 24.6135 198.286 24.6135 197.972C24.6135 197.661 24.7252 197.396 24.9487 197.176C25.1722 196.953 25.4392 196.841 25.7498 196.841C26.0604 196.841 26.3275 196.953 26.551 197.176C26.7744 197.396 26.8862 197.661 26.8862 197.972C26.8862 198.18 26.8332 198.371 26.7271 198.545C26.6248 198.716 26.4885 198.852 26.318 198.955C26.1475 199.057 25.9582 199.108 25.7498 199.108ZM36.9839 190.968H44.9039V192.024H36.9839V190.968ZM34.2959 194.616H48.4399V195.736H34.2959V194.616ZM40.7279 193.448H41.9599V198.856C41.9599 199.576 41.7679 199.928 41.1599 200.104C40.5839 200.28 39.6559 200.296 38.1999 200.296C38.1199 199.96 37.8799 199.464 37.6879 199.144C38.9199 199.176 40.0079 199.176 40.3279 199.16C40.6479 199.144 40.7279 199.064 40.7279 198.824V193.448ZM44.5359 190.968H44.8399L45.0959 190.904L45.8639 191.496C44.7759 192.6 43.0959 193.704 41.5759 194.36C41.4319 194.152 41.1119 193.832 40.9039 193.656C42.2479 193.08 43.7839 192.024 44.5359 191.208V190.968ZM34.6159 188.232H48.1679V191.8H46.9839V189.32H35.7519V191.8H34.6159V188.232ZM46.0559 185.672L47.3039 186.088C46.6319 187.08 45.7679 188.152 45.0959 188.856L44.1519 188.456C44.7919 187.704 45.6079 186.52 46.0559 185.672ZM35.7039 186.232L36.7119 185.752C37.3359 186.424 37.9919 187.336 38.2639 187.976L37.1919 188.488C36.9359 187.88 36.2959 186.92 35.7039 186.232ZM39.8159 185.88L40.8559 185.496C41.3999 186.248 41.9759 187.288 42.1679 187.96L41.0639 188.392C40.8719 187.72 40.3439 186.664 39.8159 185.88ZM52.6639 188.68H63.7519V189.848H52.6639V188.68ZM51.9599 193.368H63.1759V194.52H51.9599V193.368ZM50.2159 198.6H64.5039V199.768H50.2159V198.6ZM56.7439 185.576H57.9759V199.192H56.7439V185.576ZM53.1439 185.832L54.3759 186.104C53.6719 188.584 52.5519 190.952 51.2719 192.488C51.0319 192.28 50.4879 191.928 50.1839 191.768C51.4959 190.344 52.5359 188.12 53.1439 185.832ZM68.7439 191.304H78.0399V192.424H68.7439V191.304ZM68.7439 194.776H78.0399V195.896H68.7439V194.776ZM68.7439 198.28H78.0399V199.4H68.7439V198.28ZM67.9279 187.752H78.9679V200.216H77.7199V188.904H69.1439V200.296H67.9279V187.752ZM72.6159 185.544L74.0079 185.72C73.6559 186.68 73.2399 187.72 72.8879 188.408L71.8159 188.2C72.1039 187.448 72.4559 186.328 72.6159 185.544ZM88.2959 186.536H96.1519V187.688H88.2959V186.536ZM92.9679 191.304H94.1839V198.744C94.1839 199.496 94.0079 199.864 93.4639 200.056C92.9199 200.232 92.0079 200.248 90.4399 200.248C90.3919 199.912 90.2319 199.416 90.0559 199.064C91.1919 199.096 92.2639 199.096 92.5519 199.08C92.8719 199.064 92.9679 199 92.9679 198.728V191.304ZM87.5919 190.952H96.6159V192.088H87.5919V190.952ZM84.3919 192.184L85.4479 191.144L85.5919 191.208V200.328H84.3919V192.184ZM86.2479 188.984L87.3839 189.416C86.1359 191.448 84.2479 193.512 82.5679 194.856C82.3919 194.616 81.9759 194.088 81.7199 193.864C83.3839 192.68 85.1439 190.824 86.2479 188.984ZM85.5919 185.56L86.7439 186.024C85.6719 187.432 84.0239 188.984 82.5999 190.008C82.4239 189.752 82.1039 189.288 81.8959 189.048C83.2239 188.152 84.7759 186.712 85.5919 185.56ZM104.936 191.592H111.272V192.696H104.936V191.592ZM106.728 192.184C107.8 195.256 109.976 198.04 112.744 199.224C112.456 199.464 112.088 199.928 111.896 200.248C109.048 198.84 106.872 195.896 105.688 192.472L106.728 192.184ZM110.952 191.592H111.176L111.4 191.544L112.168 191.8C111.4 195.448 109.368 198.632 106.2 200.312C106.008 200.04 105.656 199.672 105.384 199.432C108.376 197.928 110.312 194.952 110.952 191.848V191.592ZM110.456 186.104H111.672C111.672 186.104 111.656 186.44 111.64 186.616C111.56 188.872 111.416 189.8 111.064 190.152C110.776 190.456 110.408 190.536 109.88 190.584C109.384 190.6 108.36 190.6 107.288 190.536C107.272 190.232 107.144 189.816 106.968 189.528C108.008 189.624 109.064 189.624 109.384 189.624C109.72 189.624 109.896 189.608 110.04 189.496C110.264 189.272 110.36 188.424 110.456 186.28V186.104ZM97.8479 194.04C99.2559 193.688 101.352 193.096 103.368 192.52L103.496 193.672C101.656 194.248 99.6719 194.84 98.1679 195.256L97.8479 194.04ZM98.0719 188.792H103.384V189.976H98.0719V188.792ZM100.36 185.576H101.576V198.792C101.576 199.544 101.384 199.88 100.92 200.056C100.44 200.264 99.6879 200.28 98.4239 200.28C98.3759 199.976 98.1999 199.464 98.0239 199.144C98.9199 199.176 99.7519 199.16 99.9919 199.144C100.264 199.144 100.36 199.064 100.36 198.792V185.576ZM104.104 186.104H110.824V187.24H105.288V200.248H104.104V186.104ZM119.16 198.536H126.888V199.64H119.16V198.536ZM118.616 187.176H124.488V188.248H118.616V187.176ZM119.336 185.512L120.68 185.784C119.48 187.864 117.56 190.04 114.776 191.688C114.6 191.384 114.2 190.968 113.928 190.76C116.568 189.32 118.408 187.256 119.336 185.512ZM124.088 187.176H124.312L124.536 187.112L125.336 187.544C123.416 192.376 118.904 195.592 114.552 197C114.408 196.68 114.104 196.184 113.848 195.928C117.992 194.728 122.424 191.592 124.088 187.384V187.176ZM116.616 190.024L117.512 189.256C118.776 190.12 120.312 191.4 121.048 192.312L120.072 193.176C119.4 192.264 117.88 190.92 116.616 190.024ZM126.296 193.48H127.528V200.312H126.296V193.48ZM119.704 193.48H126.904V194.584H119.704V200.28H118.504V194.424L119.464 193.48H119.704ZM135.192 185.56L136.488 185.928C135.768 187 134.872 188.232 134.152 189.032L133.176 188.664C133.864 187.832 134.728 186.504 135.192 185.56ZM139.032 186.808L139.96 186.232C141.416 187.144 143.192 188.536 144.056 189.528L143.048 190.184C142.232 189.208 140.504 187.768 139.032 186.808ZM130.776 188.344C133.608 188.296 138.152 188.2 142.376 188.072L142.328 189.08C138.232 189.24 133.832 189.384 130.92 189.448L130.776 188.344ZM130.168 190.76H144.52V191.8H130.168V190.76ZM137.8 192.568L138.744 193.032C137.544 193.944 135.64 194.712 134.024 195.16C133.864 194.936 133.576 194.616 133.32 194.424C134.856 194.04 136.776 193.32 137.8 192.568ZM139.464 194.424L140.424 194.888C138.872 196.168 136.28 197.112 133.912 197.656C133.768 197.4 133.496 197.016 133.24 196.792C135.496 196.344 138.088 195.48 139.464 194.424ZM141.544 196.232L142.584 196.728C140.632 198.76 136.968 199.848 132.904 200.376C132.776 200.072 132.552 199.656 132.328 199.384C136.216 198.952 139.784 197.976 141.544 196.232ZM135.848 188.888L137.032 189.192C135.752 192.328 133.384 194.536 130.504 195.896C130.344 195.672 129.896 195.192 129.624 194.968C132.488 193.784 134.744 191.72 135.848 188.888ZM139.88 190.984C140.904 192.6 142.952 194.136 144.872 194.872C144.6 195.096 144.248 195.544 144.072 195.816C142.104 194.936 140.024 193.224 138.872 191.384L139.88 190.984ZM155.016 197.704H159.368V198.872H155.016V197.704ZM146.184 188.6H152.328V189.768H146.184V188.6ZM154.472 187.56H159.944V199.928H158.728V188.712H155.64V200.04H154.472V187.56ZM152.008 188.6H153.176C153.176 188.6 153.176 189.048 153.176 189.208C153.048 196.328 152.936 198.664 152.424 199.368C152.136 199.784 151.848 199.928 151.368 199.976C150.92 200.04 150.184 200.04 149.464 199.992C149.448 199.64 149.32 199.112 149.112 198.776C149.864 198.84 150.552 198.84 150.856 198.84C151.096 198.856 151.24 198.808 151.384 198.6C151.752 198.104 151.896 195.736 152.008 188.888V188.6ZM148.456 185.784H149.624C149.608 191.688 149.528 197.24 146.712 200.296C146.504 200.024 146.088 199.656 145.784 199.48C148.456 196.664 148.44 191.384 148.456 185.784ZM170.097 187.364H171.859V195.017C171.859 195.831 171.667 196.553 171.285 197.182C170.902 197.807 170.364 198.299 169.671 198.659C168.978 199.015 168.165 199.193 167.234 199.193C166.306 199.193 165.495 199.015 164.802 198.659C164.109 198.299 163.571 197.807 163.188 197.182C162.806 196.553 162.614 195.831 162.614 195.017V187.364H164.37V194.875C164.37 195.402 164.486 195.869 164.717 196.278C164.951 196.688 165.283 197.009 165.711 197.244C166.139 197.475 166.647 197.591 167.234 197.591C167.825 197.591 168.334 197.475 168.762 197.244C169.194 197.009 169.523 196.688 169.751 196.278C169.982 195.869 170.097 195.402 170.097 194.875V187.364ZM174.275 199V190.273H175.917V191.659H176.008C176.167 191.189 176.447 190.82 176.849 190.551C177.254 190.278 177.712 190.142 178.224 190.142C178.33 190.142 178.455 190.146 178.599 190.153C178.746 190.161 178.862 190.17 178.945 190.182V191.807C178.877 191.788 178.756 191.767 178.582 191.744C178.407 191.718 178.233 191.705 178.059 191.705C177.657 191.705 177.299 191.79 176.985 191.96C176.674 192.127 176.428 192.36 176.246 192.659C176.065 192.955 175.974 193.292 175.974 193.67V199H174.275ZM180.552 199V187.364H187.768V188.875H182.308V192.42H187.251V193.926H182.308V199H180.552ZM197.41 187.364H199.171V195.017C199.171 195.831 198.98 196.553 198.597 197.182C198.215 197.807 197.677 198.299 196.984 198.659C196.29 199.015 195.478 199.193 194.546 199.193C193.618 199.193 192.808 199.015 192.114 198.659C191.421 198.299 190.883 197.807 190.501 197.182C190.118 196.553 189.927 195.831 189.927 195.017V187.364H191.683V194.875C191.683 195.402 191.798 195.869 192.029 196.278C192.264 196.688 192.595 197.009 193.023 197.244C193.451 197.475 193.959 197.591 194.546 197.591C195.137 197.591 195.647 197.475 196.075 197.244C196.506 197.009 196.836 196.688 197.063 196.278C197.294 195.869 197.41 195.402 197.41 194.875V187.364ZM202.957 200.712L202.589 199.88C203.901 199.336 204.621 198.52 204.621 197.32L204.317 195.96L205.181 197.176C204.957 197.464 204.637 197.544 204.333 197.544C203.677 197.544 203.133 197.16 203.133 196.392C203.133 195.64 203.709 195.24 204.349 195.24C205.245 195.24 205.725 195.976 205.725 197.096C205.725 198.824 204.637 200.136 202.957 200.712ZM217.724 187.364H219.854L223.559 196.409H223.695L227.4 187.364H229.531V199H227.86V190.58H227.752L224.32 198.983H222.934L219.502 190.574H219.394V199H217.724V187.364ZM233.839 187.364V199H232.083V187.364H233.839ZM242.742 190.42C242.682 189.883 242.432 189.466 241.992 189.17C241.553 188.871 241 188.722 240.333 188.722C239.856 188.722 239.443 188.797 239.094 188.949C238.746 189.097 238.475 189.301 238.282 189.562C238.093 189.82 237.998 190.114 237.998 190.443C237.998 190.72 238.062 190.958 238.191 191.159C238.324 191.36 238.496 191.528 238.708 191.665C238.924 191.797 239.155 191.909 239.401 192C239.647 192.087 239.884 192.159 240.112 192.216L241.248 192.511C241.619 192.602 242 192.725 242.39 192.881C242.78 193.036 243.142 193.241 243.475 193.494C243.808 193.748 244.077 194.062 244.282 194.438C244.49 194.812 244.594 195.261 244.594 195.784C244.594 196.443 244.424 197.028 244.083 197.54C243.746 198.051 243.255 198.455 242.612 198.75C241.971 199.045 241.197 199.193 240.288 199.193C239.416 199.193 238.663 199.055 238.026 198.778C237.39 198.502 236.892 198.11 236.532 197.602C236.172 197.091 235.973 196.485 235.935 195.784H237.697C237.731 196.205 237.867 196.555 238.106 196.835C238.348 197.112 238.657 197.318 239.032 197.455C239.411 197.587 239.826 197.653 240.276 197.653C240.772 197.653 241.214 197.576 241.6 197.42C241.99 197.261 242.297 197.042 242.521 196.761C242.744 196.477 242.856 196.146 242.856 195.767C242.856 195.422 242.757 195.14 242.56 194.92C242.367 194.701 242.104 194.519 241.771 194.375C241.441 194.231 241.068 194.104 240.651 193.994L239.276 193.619C238.344 193.366 237.606 192.992 237.06 192.5C236.519 192.008 236.248 191.356 236.248 190.545C236.248 189.875 236.43 189.29 236.793 188.79C237.157 188.29 237.649 187.902 238.271 187.625C238.892 187.345 239.593 187.205 240.373 187.205C241.161 187.205 241.856 187.343 242.458 187.619C243.064 187.896 243.541 188.277 243.89 188.761C244.238 189.242 244.42 189.795 244.435 190.42H242.742ZM245.795 187.364H247.789L250.829 192.653H250.954L253.994 187.364H255.988L251.766 194.432V199H250.016V194.432L245.795 187.364ZM263.992 190.42C263.932 189.883 263.682 189.466 263.242 189.17C262.803 188.871 262.25 188.722 261.583 188.722C261.106 188.722 260.693 188.797 260.344 188.949C259.996 189.097 259.725 189.301 259.532 189.562C259.343 189.82 259.248 190.114 259.248 190.443C259.248 190.72 259.312 190.958 259.441 191.159C259.574 191.36 259.746 191.528 259.958 191.665C260.174 191.797 260.405 191.909 260.651 192C260.897 192.087 261.134 192.159 261.362 192.216L262.498 192.511C262.869 192.602 263.25 192.725 263.64 192.881C264.03 193.036 264.392 193.241 264.725 193.494C265.058 193.748 265.327 194.062 265.532 194.438C265.74 194.812 265.844 195.261 265.844 195.784C265.844 196.443 265.674 197.028 265.333 197.54C264.996 198.051 264.505 198.455 263.862 198.75C263.221 199.045 262.447 199.193 261.538 199.193C260.666 199.193 259.913 199.055 259.276 198.778C258.64 198.502 258.142 198.11 257.782 197.602C257.422 197.091 257.223 196.485 257.185 195.784H258.947C258.981 196.205 259.117 196.555 259.356 196.835C259.598 197.112 259.907 197.318 260.282 197.455C260.661 197.587 261.076 197.653 261.526 197.653C262.022 197.653 262.464 197.576 262.85 197.42C263.24 197.261 263.547 197.042 263.771 196.761C263.994 196.477 264.106 196.146 264.106 195.767C264.106 195.422 264.007 195.14 263.81 194.92C263.617 194.701 263.354 194.519 263.021 194.375C262.691 194.231 262.318 194.104 261.901 193.994L260.526 193.619C259.594 193.366 258.856 192.992 258.31 192.5C257.769 192.008 257.498 191.356 257.498 190.545C257.498 189.875 257.68 189.29 258.043 188.79C258.407 188.29 258.899 187.902 259.521 187.625C260.142 187.345 260.843 187.205 261.623 187.205C262.411 187.205 263.106 187.343 263.708 187.619C264.314 187.896 264.791 188.277 265.14 188.761C265.488 189.242 265.67 189.795 265.685 190.42H263.992ZM275.592 197.096H280.552V198.248H275.592V197.096ZM275.144 187.064H281.112V199.464H279.896V188.2H276.312V199.576H275.144V187.064ZM270.6 186.92H271.8V200.264H270.6V186.92ZM267.464 190.296H274.6V191.416H267.464V190.296ZM270.536 190.696L271.384 191C270.632 193.48 269.16 196.44 267.72 197.976C267.592 197.64 267.288 197.16 267.08 196.872C268.424 195.496 269.896 192.904 270.536 190.696ZM273.672 185.72L274.488 186.648C272.776 187.288 270.152 187.752 267.96 188.008C267.896 187.736 267.752 187.336 267.608 187.064C269.736 186.776 272.28 186.296 273.672 185.72ZM271.704 191.736C272.216 192.248 274.072 194.424 274.488 194.952L273.752 195.928C273.24 195.08 271.688 193.032 271.096 192.328L271.704 191.736ZM283.576 195.832H297.768V196.904H283.576V195.832ZM286.504 192.328V193.64H294.888V192.328H286.504ZM286.504 190.152V191.448H294.888V190.152H286.504ZM285.368 189.24H296.072V194.568H285.368V189.24ZM290.12 194.328H291.304C290.824 197.752 289.512 199.528 283.8 200.296C283.72 200.008 283.448 199.496 283.24 199.24C288.632 198.632 289.704 197.192 290.12 194.328ZM291.496 196.2C292.536 198.024 294.872 198.936 298.056 199.208C297.8 199.48 297.496 199.96 297.352 200.296C293.976 199.88 291.624 198.712 290.424 196.424L291.496 196.2ZM287.208 185.576H288.376V188.984H287.208V185.576ZM292.888 185.576H294.072V188.984H292.888V185.576ZM283.672 186.632H297.688V187.72H283.672V186.632ZM308.152 190.92H314.024V192.024H308.152V190.92ZM311.336 191.4H312.472V200.28H311.336V191.4ZM307.784 187.08L309.208 187.512C309.192 187.624 309.112 187.688 308.888 187.72V192.6C308.888 194.872 308.648 198.024 306.872 200.248C306.712 200.008 306.312 199.624 306.04 199.464C307.624 197.464 307.784 194.728 307.784 192.568V187.08ZM312.808 185.784L313.816 186.664C312.36 187.384 310.248 187.992 308.424 188.424C308.344 188.168 308.152 187.752 308.008 187.512C309.736 187.08 311.704 186.424 312.808 185.784ZM299.512 187.704H307.112V188.76H299.512V187.704ZM301.352 190.232H305.416V191.208H301.352V190.232ZM301.352 192.696H305.464V193.672H301.352V192.696ZM299.272 195.304H307.224V196.376H299.272V195.304ZM300.808 185.736H301.912V195.768H300.808V185.736ZM304.952 185.736H306.072V195.768H304.952V185.736ZM301.528 196.712L302.68 197.048C302.12 198.216 301.192 199.416 300.328 200.184C300.12 199.976 299.64 199.624 299.352 199.464C300.232 198.76 301.048 197.752 301.528 196.712ZM304.04 197.192L304.968 196.696C305.608 197.368 306.376 198.312 306.696 198.92L305.736 199.512C305.416 198.888 304.68 197.912 304.04 197.192ZM105.392 205.888H106.56V219.248H105.392V205.888ZM102.688 209.072H108.928V210.208H102.688V209.072ZM105.456 209.504L106.208 209.824C105.568 212.08 104.288 214.88 103.056 216.368C102.944 216.032 102.656 215.536 102.448 215.264C103.6 213.984 104.88 211.488 105.456 209.504ZM107.952 204.784L108.688 205.76C107.216 206.336 105.008 206.768 103.184 207.024C103.12 206.752 102.96 206.352 102.832 206.08C104.64 205.792 106.736 205.328 107.952 204.784ZM106.496 210.416C106.912 210.848 108.448 212.784 108.8 213.264L108.048 214.208C107.664 213.44 106.416 211.536 105.936 210.912L106.496 210.416ZM114.192 204.56H115.376V219.264H114.192V204.56ZM108.736 214.976L117.248 213.6L117.44 214.72L108.912 216.112L108.736 214.976ZM110.032 206.384L110.8 205.68C111.76 206.288 112.896 207.2 113.44 207.872L112.608 208.656C112.096 207.984 110.976 207.024 110.032 206.384ZM109.392 210.544L110.144 209.84C111.184 210.464 112.448 211.424 113.04 212.112L112.24 212.912C111.648 212.208 110.432 211.2 109.392 210.544ZM121.872 207.776H130.08V208.848H121.872V207.776ZM122.32 211.12H129.696V212.176H122.32V211.12ZM121.632 214.88H130.432V215.904H121.632V214.88ZM125.344 208.112H126.464V215.424H125.344V208.112ZM127.472 212.88L128.24 212.448C128.848 212.976 129.552 213.712 129.872 214.208L129.056 214.704C128.736 214.208 128.048 213.424 127.472 212.88ZM119.36 205.296H132.624V219.296H131.344V206.4H120.576V219.296H119.36V205.296ZM120.016 217.376H131.936V218.48H120.016V217.376ZM135.376 207.712H148.736V208.896H135.376V207.712ZM134.832 217.392H149.184V218.592H134.832V217.392ZM141.328 204.576H142.576V208.368H141.328V204.576ZM145.136 209.632L146.512 209.888C145.84 212.512 144.88 215.808 144.048 217.84L142.896 217.568C143.712 215.52 144.656 212.08 145.136 209.632ZM137.52 210.016L138.656 209.728C139.504 211.84 140.112 214.512 140.224 216.304L139.008 216.592C138.912 214.832 138.304 212.112 137.52 210.016ZM150.992 209.168H165.056V210.384H150.992V209.168ZM158.784 209.648C159.824 213.52 162 216.752 165.328 218.128C165.024 218.4 164.624 218.912 164.416 219.248C160.96 217.616 158.784 214.24 157.584 209.936L158.784 209.648ZM157.376 204.576H158.672C158.608 208.768 158.576 216.064 151.584 219.264C151.392 218.944 151.008 218.512 150.672 218.272C157.472 215.312 157.344 208.416 157.376 204.576ZM169.648 209.968H177.568V211.024H169.648V209.968ZM166.96 213.616H181.104V214.736H166.96V213.616ZM173.392 212.448H174.624V217.856C174.624 218.576 174.432 218.928 173.824 219.104C173.248 219.28 172.32 219.296 170.864 219.296C170.784 218.96 170.544 218.464 170.352 218.144C171.584 218.176 172.672 218.176 172.992 218.16C173.312 218.144 173.392 218.064 173.392 217.824V212.448ZM177.2 209.968H177.504L177.76 209.904L178.528 210.496C177.44 211.6 175.76 212.704 174.24 213.36C174.096 213.152 173.776 212.832 173.568 212.656C174.912 212.08 176.448 211.024 177.2 210.208V209.968ZM167.28 207.232H180.832V210.8H179.648V208.32H168.416V210.8H167.28V207.232ZM178.72 204.672L179.968 205.088C179.296 206.08 178.432 207.152 177.76 207.856L176.816 207.456C177.456 206.704 178.272 205.52 178.72 204.672ZM168.368 205.232L169.376 204.752C170 205.424 170.656 206.336 170.928 206.976L169.856 207.488C169.6 206.88 168.96 205.92 168.368 205.232ZM172.48 204.88L173.52 204.496C174.064 205.248 174.64 206.288 174.832 206.96L173.728 207.392C173.536 206.72 173.008 205.664 172.48 204.88ZM184.096 207.136H188.96V217.6H184.096V216.512H187.84V208.208H184.096V207.136ZM183.376 207.136H184.496V218.88H183.376V207.136ZM184.016 211.584H188.432V212.656H184.016V211.584ZM185.824 204.528L187.12 204.768C186.8 205.76 186.4 206.864 186.08 207.584L185.12 207.344C185.392 206.576 185.696 205.36 185.824 204.528ZM191.232 207.088H196.144V208.208H191.232V207.088ZM195.728 207.088H196.848C196.848 207.088 196.848 207.536 196.848 207.712C196.592 215.056 196.368 217.536 195.728 218.32C195.376 218.784 195.008 218.928 194.448 218.976C193.904 219.04 192.96 219.008 192.064 218.96C192.032 218.608 191.888 218.112 191.664 217.792C192.704 217.872 193.664 217.888 194.032 217.888C194.352 217.888 194.544 217.84 194.72 217.632C195.248 217.056 195.504 214.4 195.728 207.344V207.088ZM191.568 204.496L192.72 204.768C192.128 207.152 191.184 209.504 190.08 211.024C189.872 210.832 189.376 210.496 189.088 210.336C190.176 208.928 191.056 206.72 191.568 204.496ZM190.832 211.248L191.76 210.704C192.672 211.84 193.776 213.392 194.288 214.336L193.264 214.976C192.784 214 191.712 212.416 190.832 211.248ZM199.552 205.584L200.352 204.88C201.152 205.584 202.16 206.576 202.64 207.216L201.776 208.032C201.328 207.376 200.336 206.336 199.552 205.584ZM200.8 218.64L200.576 217.536L200.864 217.04L203.6 214.768C203.712 215.088 203.92 215.536 204.048 215.744C201.408 217.984 201.008 218.336 200.8 218.64ZM198.688 209.568H201.664V210.672H198.688V209.568ZM203.408 212.864H213.28V213.968H203.408V212.864ZM209.296 213.392C210.24 214.992 212.032 216.736 213.552 217.568C213.28 217.792 212.912 218.208 212.72 218.512C211.2 217.504 209.456 215.536 208.464 213.744L209.296 213.392ZM205.376 208.848V210.512H211.136V208.848H205.376ZM205.376 206.24V207.888H211.136V206.24H205.376ZM204.272 205.248H212.272V211.504H204.272V205.248ZM207.408 213.392L208.256 213.712C207.248 215.712 205.408 217.68 203.648 218.656C203.472 218.368 203.12 217.968 202.864 217.744C204.608 216.928 206.464 215.152 207.408 213.392ZM207.808 205.744H208.912V211.008H208.96V219.28H207.776V211.008H207.808V205.744ZM200.8 218.64C200.656 218.416 200.288 218 200.064 217.84C200.368 217.568 200.928 216.944 200.928 216.112V209.568H202.08V216.912C202.08 216.912 200.8 218.16 200.8 218.64ZM224.304 212.112H225.488V218.512H224.304V212.112ZM220.784 211.68H229.056V212.736H220.784V211.68ZM220.096 217.792H229.408V218.864H220.096V217.792ZM221.168 214.656H228.688V215.696H221.168V214.656ZM222.512 206.272V209.232H227.328V206.272H222.512ZM221.392 205.232H228.496V210.272H221.392V205.232ZM217.392 205.888H218.56V219.248H217.392V205.888ZM214.768 209.072H220.576V210.208H214.768V209.072ZM217.456 209.504L218.208 209.824C217.568 212.08 216.288 214.88 215.056 216.368C214.944 216.032 214.656 215.536 214.448 215.264C215.6 213.984 216.88 211.488 217.456 209.504ZM219.76 204.8L220.608 205.728C219.136 206.32 216.896 206.768 215.04 207.024C214.976 206.752 214.816 206.368 214.672 206.096C216.48 205.792 218.592 205.344 219.76 204.8ZM218.512 211.136C218.912 211.488 220.416 213.008 220.736 213.408L220.032 214.352C219.648 213.696 218.448 212.176 217.952 211.616L218.512 211.136ZM233.104 214.112C234.448 214.112 235.536 215.2 235.536 216.544C235.536 217.888 234.448 218.976 233.104 218.976C231.76 218.976 230.656 217.888 230.656 216.544C230.656 215.2 231.76 214.112 233.104 214.112ZM233.104 218.16C234 218.16 234.72 217.44 234.72 216.544C234.72 215.648 234 214.928 233.104 214.928C232.208 214.928 231.472 215.648 231.472 216.544C231.472 217.44 232.208 218.16 233.104 218.16Z" fill="#2D3342"/>
<defs>
<linearGradient id="paint0_linear_1398_7652" x1="143.515" y1="25" x2="181.389" y2="65.6166" gradientUnits="userSpaceOnUse">
<stop stop-color="#5955B3"/>
<stop offset="1" stop-color="#6563CE"/>
</linearGradient>
</defs>
</svg>
