<svg width="753" height="409" viewBox="0 0 753 409" fill="none" xmlns="http://www.w3.org/2000/svg">
<rect width="753" height="407" fill="white"/>
<path opacity="0.2" fill-rule="evenodd" clip-rule="evenodd" d="M752.692 389.079C752.65 400.044 743.785 408.928 732.827 409H436C448.567 373.991 501.062 303.974 610.504 303.974C719.946 303.974 750.897 249.517 752.692 222.288V389.079Z" fill="#79A4E2"/>
<path opacity="0.2" fill-rule="evenodd" clip-rule="evenodd" d="M211.324 0C208.649 18.1119 192.257 69.0439 124.729 92.1467C59.2117 114.562 16.0506 106.853 0.000526837 99.6083L0.000520413 20C0.000519521 8.95433 8.95483 1.9166e-05 20.0005 1.81199e-05L211.324 0Z" fill="#6EA3E6"/>
<path d="M88.3068 90.4545V105H86.1051V92.6562H86.0198L82.5397 94.929V92.8267L86.169 90.4545H88.3068ZM95.5173 105.135C95.1291 105.135 94.7953 104.998 94.5159 104.723C94.2366 104.444 94.0969 104.107 94.0969 103.714C94.0969 103.326 94.2366 102.995 94.5159 102.72C94.7953 102.441 95.1291 102.301 95.5173 102.301C95.9056 102.301 96.2394 102.441 96.5188 102.72C96.7981 102.995 96.9378 103.326 96.9378 103.714C96.9378 103.975 96.8715 104.214 96.7389 104.432C96.6111 104.645 96.4406 104.815 96.2276 104.943C96.0145 105.071 95.7778 105.135 95.5173 105.135ZM106.94 89.48L107.94 88.6C108.94 89.48 110.2 90.72 110.8 91.52L109.72 92.54C109.16 91.72 107.92 90.42 106.94 89.48ZM108.5 105.8L108.22 104.42L108.58 103.8L112 100.96C112.14 101.36 112.4 101.92 112.56 102.18C109.26 104.98 108.76 105.42 108.5 105.8ZM105.86 94.46H109.58V95.84H105.86V94.46ZM111.76 98.58H124.1V99.96H111.76V98.58ZM119.12 99.24C120.3 101.24 122.54 103.42 124.44 104.46C124.1 104.74 123.64 105.26 123.4 105.64C121.5 104.38 119.32 101.92 118.08 99.68L119.12 99.24ZM114.22 93.56V95.64H121.42V93.56H114.22ZM114.22 90.3V92.36H121.42V90.3H114.22ZM112.84 89.06H122.84V96.88H112.84V89.06ZM116.76 99.24L117.82 99.64C116.56 102.14 114.26 104.6 112.06 105.82C111.84 105.46 111.4 104.96 111.08 104.68C113.26 103.66 115.58 101.44 116.76 99.24ZM117.26 89.68H118.64V96.26H118.7V106.6H117.22V96.26H117.26V89.68ZM108.5 105.8C108.32 105.52 107.86 105 107.58 104.8C107.96 104.46 108.66 103.68 108.66 102.64V94.46H110.1V103.64C110.1 103.64 108.5 105.2 108.5 105.8ZM137.88 97.64H139.36V105.64H137.88V97.64ZM133.48 97.1H143.82V98.42H133.48V97.1ZM132.62 104.74H144.26V106.08H132.62V104.74ZM133.96 100.82H143.36V102.12H133.96V100.82ZM135.64 90.34V94.04H141.66V90.34H135.64ZM134.24 89.04H143.12V95.34H134.24V89.04ZM129.24 89.86H130.7V106.56H129.24V89.86ZM125.96 93.84H133.22V95.26H125.96V93.84ZM129.32 94.38L130.26 94.78C129.46 97.6 127.86 101.1 126.32 102.96C126.18 102.54 125.82 101.92 125.56 101.58C127 99.98 128.6 96.86 129.32 94.38ZM132.2 88.5L133.26 89.66C131.42 90.4 128.62 90.96 126.3 91.28C126.22 90.94 126.02 90.46 125.84 90.12C128.1 89.74 130.74 89.18 132.2 88.5ZM130.64 96.42C131.14 96.86 133.02 98.76 133.42 99.26L132.54 100.44C132.06 99.62 130.56 97.72 129.94 97.02L130.64 96.42ZM146.26 90.8H163.78V92.22H146.26V90.8ZM151.14 97.94H160.54V99.24H151.14V97.94ZM150.08 94.54H160.3V95.88H151.56V106.6H150.08V94.54ZM159.96 94.54H161.42V104.74C161.42 105.62 161.24 106.08 160.56 106.32C159.92 106.56 158.8 106.56 157.08 106.56C157.02 106.14 156.8 105.52 156.58 105.1C157.92 105.16 159.14 105.14 159.5 105.14C159.84 105.12 159.96 105.02 159.96 104.72V94.54ZM152.8 88.2L154.32 88.56C152.96 92.96 150.56 97.4 146.74 100.08C146.54 99.74 146.08 99.22 145.78 98.92C149.36 96.46 151.72 92.22 152.8 88.2ZM151.14 101.32H160.54V102.62H151.14V101.32ZM179.46 89.36L180.5 88.6C181.66 89.42 182.96 90.62 183.56 91.48L182.46 92.36C181.88 91.5 180.6 90.24 179.46 89.36ZM166.02 93.3H183.96V94.64H166.02V93.3ZM166.88 90.06H175.7V91.34H166.88V90.06ZM168.32 99.32H175.32V100.32H168.32V99.32ZM168.32 101.7H175.32V102.7H168.32V101.7ZM168.32 104.12H175.62V105.36H168.32V104.12ZM170.62 88.22H172.06V94.02H170.62V88.22ZM171.32 97.48H172.56V104.54H171.32V97.48ZM172.32 94.94L173.68 95.28C173.24 96.16 172.74 97.1 172.32 97.74L171.28 97.42C171.64 96.72 172.12 95.66 172.32 94.94ZM168.78 94.8L170.08 95.14C169.28 97.08 168.02 99.04 166.74 100.3C166.5 100.08 165.96 99.62 165.66 99.42C166.92 98.28 168.08 96.54 168.78 94.8ZM168.86 96.84H175.64V98.02H168.86V106.4H167.54V98.02L168.64 96.84H168.86ZM176.58 88.24H178.1C178.02 97.76 179.64 105.14 182.14 105.14C182.68 105.14 182.92 104.18 183.04 101.72C183.36 102.04 183.9 102.34 184.28 102.48C184.04 105.66 183.5 106.6 182.02 106.6C178.06 106.6 176.66 98.12 176.58 88.24ZM181.64 95.54L183.02 95.98C181.6 100.48 179.06 104.32 175.48 106.64C175.22 106.28 174.76 105.78 174.38 105.48C177.86 103.44 180.32 99.76 181.64 95.54ZM195.76 94.92H203.08V96.42H195.76V94.92ZM185.96 104.12H203.98V105.6H185.96V104.12ZM194.96 88.26H196.54V104.88H194.96V88.26ZM188.74 92.62H190.28V104.82H188.74V92.62ZM208.52 89.56H221.62V106.3H220.04V91.08H210.06V106.38H208.52V89.56ZM209.54 96.5H220.7V97.98H209.54V96.5ZM209.52 103.58H220.74V105.08H209.52V103.58ZM237.2 89.2H242.76V90.58H237.2V89.2ZM237.2 93.8H242.76V95.14H237.2V93.8ZM237.18 98.46H242.8V99.82H237.18V98.46ZM242.08 89.2H243.54V104.7C243.54 105.56 243.34 106.02 242.76 106.26C242.2 106.5 241.26 106.54 239.78 106.54C239.74 106.12 239.52 105.46 239.32 105.08C240.38 105.1 241.38 105.1 241.68 105.08C241.98 105.08 242.08 104.98 242.08 104.68V89.2ZM236.58 89.2H238V96.46C238 99.54 237.76 103.86 235.96 106.7C235.7 106.42 235.1 105.98 234.76 105.84C236.44 103.16 236.58 99.36 236.58 96.46V89.2ZM226.02 90.88H235.6V92.2H226.02V90.88ZM228.38 93.98H233.44V95.2H228.38V93.98ZM228.38 97.16H233.46V98.36H228.38V97.16ZM225.76 100.38H235.6V101.72H225.76V100.38ZM227.72 88.44H229.1V100.92H227.72V88.44ZM232.74 88.44H234.12V100.92H232.74V88.44ZM228.54 102.16L229.98 102.56C229.24 104.08 228.08 105.62 227 106.62C226.72 106.38 226.14 105.94 225.78 105.74C226.9 104.84 227.94 103.5 228.54 102.16ZM231.42 102.78L232.58 102.16C233.36 103.06 234.3 104.3 234.7 105.12L233.48 105.84C233.1 105.04 232.2 103.72 231.42 102.78ZM248.14 107.14L247.68 106.1C249.32 105.42 250.22 104.4 250.22 102.9L249.84 101.2L250.92 102.72C250.64 103.08 250.24 103.18 249.86 103.18C249.04 103.18 248.36 102.7 248.36 101.74C248.36 100.8 249.08 100.3 249.88 100.3C251 100.3 251.6 101.22 251.6 102.62C251.6 104.78 250.24 106.42 248.14 107.14ZM276.44 103.16H282.7V104.58H276.44V103.16ZM275.62 90.36H283.46V105.8H281.98V91.8H277.06V106.1H275.62V90.36ZM265.86 92.3H273.3V93.74H265.86V92.3ZM269.26 88.2L270.72 88.38C269.84 92.38 268.48 97.8 267.48 101.12L266.2 100.5C267.16 97.42 268.48 92.02 269.26 88.2ZM266.9 99.74L267.72 98.64C270.32 99.98 273.4 102.08 274.82 103.72L273.94 105C272.54 103.34 269.48 101.14 266.9 99.74ZM272.88 92.3H273.12L273.4 92.26L274.32 92.44C273.7 100.5 271.22 104.54 267.06 106.62C266.86 106.26 266.46 105.7 266.14 105.38C269.94 103.72 272.32 99.72 272.88 92.62V92.3ZM286.22 98.82H303.78V100.22H286.22V98.82ZM294.2 89.66H295.78V106.6H294.2V89.66ZM293.66 99.42L294.92 99.96C293.06 102.52 289.74 104.8 286.74 105.94C286.52 105.58 286.04 105.02 285.72 104.72C288.68 103.74 291.98 101.62 293.66 99.42ZM296.24 99.36C297.98 101.5 301.38 103.62 304.3 104.6C303.96 104.9 303.5 105.48 303.26 105.86C300.36 104.7 296.96 102.36 295.04 99.9L296.24 99.36ZM289.7 93.74V95.84H300.34V93.74H289.7ZM289.7 90.46V92.52H300.34V90.46H289.7ZM288.16 89.18H301.94V97.12H288.16V89.18ZM314.3 88.3L315.78 88.62C315 91.82 313.74 94.9 312.2 96.94C311.94 96.68 311.34 96.2 311 95.98C312.48 94.12 313.64 91.24 314.3 88.3ZM313.96 96.78L315.42 97.08C314.8 99.7 313.72 102.24 312.5 103.92C312.2 103.68 311.56 103.28 311.2 103.1C312.44 101.56 313.4 99.18 313.96 96.78ZM314.12 92.06H323.12V93.46H313.54L314.12 92.06ZM317.22 92.64H318.72V104.78C318.72 105.64 318.54 106.08 317.98 106.32C317.44 106.58 316.58 106.62 315.34 106.62C315.24 106.2 315.02 105.54 314.8 105.1C315.74 105.14 316.6 105.12 316.88 105.12C317.14 105.12 317.22 105.04 317.22 104.78V92.64ZM320.16 97.08L321.5 96.64C322.66 98.74 323.66 101.5 324 103.36L322.58 103.84C322.26 102 321.26 99.18 320.16 97.08ZM322.68 92.06H322.88L323.14 92.02L324.18 92.24C323.9 93.72 323.56 95.44 323.3 96.52L322 96.28C322.22 95.28 322.48 93.6 322.68 92.28V92.06ZM310.28 88.28L311.7 88.72C310.38 92.12 308.32 95.5 306.16 97.74C306 97.4 305.58 96.6 305.3 96.26C307.28 94.32 309.16 91.32 310.28 88.28ZM308.2 93.44L309.6 92.02L309.64 92.04V106.58H308.2V93.44ZM328.54 88.26L329.86 88.64C329.12 90.82 327.86 92.98 326.5 94.42C326.38 94.1 325.98 93.38 325.74 93.06C326.92 91.88 327.96 90.1 328.54 88.26ZM328.08 90.6H333V92.04H327.8L328.08 90.6ZM328.8 106.36L328.6 105.02L329.12 104.42L332.72 102.54C332.76 102.94 332.9 103.52 333 103.82C329.64 105.7 329.1 106.02 328.8 106.36ZM327.1 94.06H332.7V95.42H327.1V94.06ZM326.24 98.14H333.14V99.5H326.24V98.14ZM328.8 106.36C328.68 106 328.32 105.4 328.08 105.1C328.42 104.88 329.04 104.34 329.04 103.46V94.44H330.42V104.76C330.42 104.76 328.8 105.8 328.8 106.36ZM333.86 90.84H343.7V92.18H333.86V90.84ZM333.4 94.82H344.16V96.18H333.4V94.82ZM335.34 101.12H342.02V102.36H335.34V101.12ZM335.34 104.48H341.96V105.72H335.34V104.48ZM334.56 97.8H342.8V106.48H341.4V99.06H335.94V106.56H334.56V97.8ZM335.84 88.2H337.2V95.7H335.84V88.2ZM339.96 88.2H341.34V95.7H339.96V88.2ZM346.56 89.52L347.72 88.76C348.84 89.76 350.16 91.16 350.78 92.08L349.54 92.98C348.96 92.02 347.68 90.56 346.56 89.52ZM350.22 95.7V102.98H348.76V97.12H345.98V95.7H350.22ZM349.46 102.2C350.14 102.2 350.6 102.8 351.72 103.48C353.02 104.3 354.72 104.44 356.96 104.44C359.32 104.44 362.34 104.28 364.28 104.06C364.08 104.48 363.84 105.24 363.82 105.7C362.4 105.78 358.84 105.88 356.94 105.88C354.44 105.88 352.76 105.68 351.38 104.8C350.52 104.26 349.88 103.6 349.44 103.6C348.76 103.6 347.8 104.78 346.78 106.14L345.72 104.74C347.1 103.24 348.46 102.2 349.46 102.2ZM351.64 91.82H363.68V93.24H351.64V91.82ZM359.38 88.28H360.92V101.18C360.92 102.2 360.64 102.64 359.92 102.88C359.24 103.12 358.02 103.16 356.12 103.16C356.06 102.72 355.8 102.06 355.58 101.62C357.06 101.66 358.44 101.66 358.84 101.66C359.24 101.62 359.38 101.52 359.38 101.16V88.28ZM352.6 95.46L353.8 94.82C354.82 96.04 356.08 97.7 356.66 98.74L355.4 99.52C354.86 98.46 353.62 96.72 352.6 95.46ZM374.24 95.02H375.8V104.68C375.8 105.68 375.54 106.14 374.76 106.36C373.98 106.6 372.64 106.62 370.62 106.62C370.52 106.18 370.24 105.54 370 105.1C371.66 105.16 373.2 105.16 373.66 105.14C374.1 105.12 374.24 105 374.24 104.64V95.02ZM366.96 89.78H381.4V91.24H366.96V89.78ZM380.86 89.78H381.26L381.62 89.68L382.78 90.52C381 92.64 378.18 95 375.7 96.4C375.48 96.08 375 95.58 374.68 95.36C376.96 94.1 379.6 91.8 380.86 90.14V89.78ZM388.14 107.14L387.68 106.1C389.32 105.42 390.22 104.4 390.22 102.9L389.84 101.2L390.92 102.72C390.64 103.08 390.24 103.18 389.86 103.18C389.04 103.18 388.36 102.7 388.36 101.74C388.36 100.8 389.08 100.3 389.88 100.3C391 100.3 391.6 101.22 391.6 102.62C391.6 104.78 390.24 106.42 388.14 107.14ZM414.3 88.3L415.78 88.62C415 91.82 413.74 94.9 412.2 96.94C411.94 96.68 411.34 96.2 411 95.98C412.48 94.12 413.64 91.24 414.3 88.3ZM413.96 96.78L415.42 97.08C414.8 99.7 413.72 102.24 412.5 103.92C412.2 103.68 411.56 103.28 411.2 103.1C412.44 101.56 413.4 99.18 413.96 96.78ZM414.12 92.06H423.12V93.46H413.54L414.12 92.06ZM417.22 92.64H418.72V104.78C418.72 105.64 418.54 106.08 417.98 106.32C417.44 106.58 416.58 106.62 415.34 106.62C415.24 106.2 415.02 105.54 414.8 105.1C415.74 105.14 416.6 105.12 416.88 105.12C417.14 105.12 417.22 105.04 417.22 104.78V92.64ZM420.16 97.08L421.5 96.64C422.66 98.74 423.66 101.5 424 103.36L422.58 103.84C422.26 102 421.26 99.18 420.16 97.08ZM422.68 92.06H422.88L423.14 92.02L424.18 92.24C423.9 93.72 423.56 95.44 423.3 96.52L422 96.28C422.22 95.28 422.48 93.6 422.68 92.28V92.06ZM410.28 88.28L411.7 88.72C410.38 92.12 408.32 95.5 406.16 97.74C406 97.4 405.58 96.6 405.3 96.26C407.28 94.32 409.16 91.32 410.28 88.28ZM408.2 93.44L409.6 92.02L409.64 92.04V106.58H408.2V93.44ZM439.92 90.08H441.48V104.46C441.48 105.54 441.22 106.06 440.44 106.3C439.64 106.56 438.24 106.58 436.26 106.58C436.16 106.14 435.86 105.4 435.62 104.96C437.24 105.04 438.86 105.02 439.34 105C439.78 104.98 439.92 104.84 439.92 104.42V90.08ZM428.16 94.08H429.62V103.14H428.16V94.08ZM428.78 94.08H436.36V101.54H428.78V100.1H434.86V95.5H428.78V94.08ZM426.1 89.62H443.94V91.14H426.1V89.62ZM449.14 88.2L450.7 88.56C449.98 90.22 449.04 92.16 448.24 93.42L446.96 93.04C447.72 91.76 448.66 89.66 449.14 88.2ZM445.78 92.44C447.88 92.38 451.06 92.24 454.2 92.1L454.18 93.44C451.2 93.62 448.1 93.78 445.92 93.9L445.78 92.44ZM447 95.34H453.34V96.62H448.4V106.58H447V95.34ZM452.66 95.34H454.14V104.88C454.14 105.64 453.98 106.06 453.44 106.3C452.88 106.54 452 106.56 450.74 106.56C450.66 106.16 450.44 105.56 450.24 105.18C451.18 105.22 452.04 105.2 452.32 105.18C452.58 105.18 452.66 105.12 452.66 104.86V95.34ZM447.66 98.32H453.44V99.5H447.66V98.32ZM447.66 101.32H453.44V102.52H447.66V101.32ZM456.02 88.24H457.5V94.86C457.5 95.5 457.66 95.64 458.58 95.64C459 95.64 461.18 95.64 461.76 95.64C462.54 95.64 462.68 95.3 462.76 93.32C463.08 93.58 463.68 93.8 464.12 93.9C463.94 96.34 463.5 97 461.88 97C461.46 97 458.84 97 458.44 97C456.52 97 456.02 96.54 456.02 94.88V88.24ZM462.14 89.72L463.14 90.82C461.44 91.62 459.04 92.4 456.98 92.98C456.9 92.66 456.7 92.22 456.52 91.92C458.5 91.3 460.78 90.42 462.14 89.72ZM456.02 97.54H457.5V104.3C457.5 104.98 457.68 105.1 458.64 105.1C459.06 105.1 461.32 105.1 461.92 105.1C462.78 105.1 462.9 104.72 463 102.46C463.34 102.7 463.94 102.94 464.36 103.02C464.16 105.72 463.72 106.44 462.04 106.44C461.6 106.44 458.9 106.44 458.48 106.44C456.54 106.44 456.02 105.98 456.02 104.32V97.54ZM462.38 98.64L463.38 99.76C461.7 100.72 459.14 101.54 456.98 102.12C456.9 101.82 456.68 101.34 456.52 101.04C458.6 100.44 461.02 99.52 462.38 98.64ZM451.64 90.1L452.88 89.6C453.94 91 455.06 92.84 455.52 94.08L454.2 94.66C453.78 93.44 452.7 91.52 451.64 90.1ZM466.04 95.46H483.98V96.9H466.04V95.46ZM467.28 89.54H482.82V90.98H467.28V89.54ZM475.22 97.72H476.78V104.1C476.78 104.78 476.98 104.92 478.04 104.92C478.5 104.92 480.94 104.92 481.58 104.92C482.58 104.92 482.72 104.48 482.84 101.72C483.2 102 483.88 102.26 484.3 102.34C484.08 105.56 483.62 106.4 481.68 106.4C481.22 106.4 478.32 106.4 477.88 106.4C475.8 106.4 475.22 105.9 475.22 104.1V97.72ZM473.96 90.12H475.48C475.34 97.84 475.14 103.92 466.76 106.66C466.58 106.26 466.14 105.7 465.8 105.38C473.86 102.92 473.86 97.34 473.96 90.12ZM491.14 96.62H504V98.04H491.14V96.62ZM492.16 91.48H503.06V92.92H492.16V91.48ZM496.74 88.22H498.28V97.64H496.74V88.22ZM491.16 104.16C493.88 104.04 498.24 103.8 502.38 103.56V104.92C498.4 105.22 494.22 105.5 491.38 105.68L491.16 104.16ZM499.22 100.74L500.5 100.08C502.02 101.86 503.68 104.24 504.34 105.86L502.94 106.64C502.32 105.06 500.72 102.56 499.22 100.74ZM495.4 97.56L497.02 98.02C496.14 100.34 494.94 103.2 493.94 105.02L492.62 104.56C493.6 102.7 494.78 99.7 495.4 97.56ZM486.82 89.46L487.66 88.34C489.02 88.84 490.74 89.7 491.6 90.4L490.74 91.66C489.9 90.94 488.22 90 486.82 89.46ZM485.76 94.98L486.54 93.82C487.9 94.26 489.66 95.04 490.56 95.68L489.74 96.94C488.88 96.3 487.16 95.46 485.76 94.98ZM486.46 105.38C487.48 103.84 488.98 101.2 490.08 98.94L491.2 99.88C490.2 102 488.88 104.5 487.76 106.36L486.46 105.38ZM512.46 96.76H523.82V98.14H512.46V96.76ZM519.16 93.94L520.2 93.2C521.22 93.86 522.44 94.9 522.98 95.64L521.92 96.48C521.38 95.72 520.2 94.66 519.16 93.94ZM518.54 97.48C519.36 101.14 521.12 104.06 524.06 105.36C523.72 105.64 523.28 106.2 523.08 106.58C520.02 105.02 518.24 101.84 517.32 97.7L518.54 97.48ZM506.24 89.8H523.82V91.16H506.24V89.8ZM510.96 88.2H512.46V92.8H510.96V88.2ZM517.64 88.2H519.12V92.7H517.64V88.2ZM517.14 93.1H518.56V96.06C518.56 99.34 517.96 103.58 513.02 106.66C512.76 106.34 512.26 105.94 511.9 105.68C516.62 102.78 517.14 98.88 517.14 96.06V93.1ZM506.86 93.68L507.86 92.9C511.44 95.24 511.92 98 511.92 100.88C511.92 103.16 511.7 104.9 510.88 105.84C510.64 106.14 510.26 106.34 509.82 106.4C509.16 106.52 508.42 106.52 507.6 106.48C507.58 106.08 507.42 105.54 507.14 105.16C508.06 105.22 508.8 105.22 509.24 105.16C509.52 105.14 509.7 105.04 509.86 104.84C510.36 104.24 510.52 102.82 510.52 100.8C510.52 98.16 509.94 95.76 506.86 93.68ZM510.34 98.26L511.38 98.88C510.34 100.4 508.34 102.1 506.68 103.02C506.48 102.66 506.1 102.18 505.76 101.9C507.42 101.18 509.38 99.66 510.34 98.26ZM511.48 93.22L512.72 93.88C511.3 95.52 508.96 97.04 506.72 98.08C506.5 97.78 506.1 97.34 505.8 97.1C508.02 96.16 510.26 94.62 511.48 93.22ZM534.62 92.66V94.3H541.24V92.66H534.62ZM534.62 89.96V91.58H541.24V89.96H534.62ZM533.18 88.82H542.74V95.44H533.18V88.82ZM531.94 96.82H543.7V98.08H531.94V96.82ZM531.48 99.8H544.06V101.12H531.48V99.8ZM539.56 97.92H541.06V104.96C541.06 105.76 540.88 106.16 540.28 106.38C539.68 106.62 538.72 106.62 537.22 106.62C537.16 106.22 536.92 105.66 536.72 105.26C537.86 105.3 538.86 105.3 539.16 105.28C539.48 105.26 539.56 105.18 539.56 104.92V97.92ZM533.22 102.14L534.28 101.42C535.2 102.26 536.3 103.44 536.82 104.22L535.68 105.06C535.2 104.26 534.12 103.02 533.22 102.14ZM530.38 92.66L531.7 93.2C530.34 95.58 528.2 98 526.22 99.56C526.1 99.26 525.68 98.46 525.42 98.12C527.24 96.8 529.18 94.74 530.38 92.66ZM530 88.26L531.44 88.82C530.24 90.54 528.32 92.42 526.54 93.6C526.38 93.26 526 92.68 525.74 92.38C527.34 91.34 529.14 89.68 530 88.26ZM528.58 96.2L529.98 94.78L530.04 94.82V106.6H528.58V96.2ZM555 99.1H562.64V100.52H555V99.1ZM550.52 99.96C551.96 104.1 555.18 104.9 559.36 104.9C560 104.9 563.4 104.9 564.26 104.88C564.04 105.24 563.8 105.92 563.72 106.34H559.28C554.42 106.34 551.08 105.32 549.28 100.46L550.52 99.96ZM554.32 95.58H555.86V105.52L554.32 105.02V95.58ZM549.84 90.62V94.56H560.5V90.62H549.84ZM548.36 89.2H562.06V96H548.36V89.2ZM549.52 97.5L551.1 97.68C550.62 100.96 549.5 104.64 546.94 106.62C546.68 106.32 546.18 105.82 545.86 105.6C548.24 103.78 549.22 100.38 549.52 97.5ZM568.3 90.74H573.94V92.16H568.3V90.74ZM573.34 90.74H574.76C574.76 90.74 574.76 91.32 574.74 91.52C574.46 101.48 574.22 104.72 573.48 105.7C573.08 106.28 572.66 106.46 572.04 106.52C571.44 106.6 570.48 106.58 569.54 106.52C569.5 106.14 569.34 105.52 569.1 105.12C570.14 105.2 571.06 105.2 571.46 105.2C571.8 105.22 572 105.16 572.2 104.86C572.8 104.14 573.1 100.68 573.34 91.08V90.74ZM567.82 94.56H571.68V101.26H567.82V100.06H570.48V95.76H567.82V94.56ZM567.12 94.56H568.34V102.48H567.12V94.56ZM568.66 88.22L570.12 88.54C569.4 91.24 568.18 93.84 566.72 95.54C566.48 95.28 565.88 94.8 565.54 94.58C566.92 93.02 568.02 90.66 568.66 88.22ZM578.76 88.24L580.12 88.46C579.18 90.36 577.7 92.38 575.44 93.94C575.24 93.64 574.8 93.24 574.5 93.06C576.62 91.7 578.06 89.8 578.76 88.24ZM578.38 90.06H582.34V91.24H577.32L578.38 90.06ZM581.98 90.06H582.24L582.5 90L583.4 90.42C582.04 94.4 578.92 96.94 575.58 98.26C575.42 97.94 575.04 97.42 574.76 97.16C577.84 96.08 580.86 93.62 581.98 90.32V90.06ZM576.38 92.78L577.36 92.02C578.34 92.64 579.52 93.54 580.12 94.18L579.08 95C578.52 94.36 577.36 93.42 576.38 92.78ZM579.6 95.66L581.04 95.9C579.92 98 578.12 100.2 575.46 101.86C575.24 101.56 574.8 101.12 574.48 100.94C577.02 99.46 578.74 97.4 579.6 95.66ZM579.24 97.42H583.3V98.64H578.14L579.24 97.42ZM582.84 97.42H583.12L583.4 97.36L584.36 97.78C582.88 102.66 579.3 105.34 575.16 106.66C575 106.32 574.62 105.78 574.34 105.5C578.18 104.42 581.62 101.84 582.84 97.68V97.42ZM576.92 100.36L577.9 99.58C579 100.28 580.3 101.34 580.96 102.08L579.88 102.94C579.28 102.22 577.98 101.1 576.92 100.36ZM587.62 91.42H593.7V104.5H587.62V103.14H592.3V92.76H587.62V91.42ZM586.72 91.42H588.12V106.1H586.72V91.42ZM587.52 96.98H593.04V98.32H587.52V96.98ZM589.78 88.16L591.4 88.46C591 89.7 590.5 91.08 590.1 91.98L588.9 91.68C589.24 90.72 589.62 89.2 589.78 88.16ZM596.54 91.36H602.68V92.76H596.54V91.36ZM602.16 91.36H603.56C603.56 91.36 603.56 91.92 603.56 92.14C603.24 101.32 602.96 104.42 602.16 105.4C601.72 105.98 601.26 106.16 600.56 106.22C599.88 106.3 598.7 106.26 597.58 106.2C597.54 105.76 597.36 105.14 597.08 104.74C598.38 104.84 599.58 104.86 600.04 104.86C600.44 104.86 600.68 104.8 600.9 104.54C601.56 103.82 601.88 100.5 602.16 91.68V91.36ZM596.96 88.12L598.4 88.46C597.66 91.44 596.48 94.38 595.1 96.28C594.84 96.04 594.22 95.62 593.86 95.42C595.22 93.66 596.32 90.9 596.96 88.12ZM596.04 96.56L597.2 95.88C598.34 97.3 599.72 99.24 600.36 100.42L599.08 101.22C598.48 100 597.14 98.02 596.04 96.56ZM608.74 95.78H620.18V97.24H608.74V95.78ZM619.68 95.78H621.24C621.24 95.78 621.22 96.3 621.2 96.5C620.92 102.7 620.64 105.02 619.92 105.78C619.52 106.28 619.08 106.42 618.38 106.48C617.72 106.54 616.46 106.52 615.2 106.46C615.18 106 614.98 105.38 614.7 104.94C616.02 105.06 617.26 105.08 617.74 105.08C618.14 105.08 618.38 105.04 618.58 104.82C619.12 104.28 619.42 102 619.68 96.06V95.78ZM611.48 88.62L613.06 89.08C611.62 92.46 609.26 95.44 606.74 97.36C606.46 97.04 605.82 96.46 605.44 96.18C608 94.46 610.22 91.7 611.48 88.62ZM618.46 88.58C619.76 91.26 622.34 94.3 624.52 95.84C624.12 96.16 623.56 96.76 623.26 97.18C621.04 95.38 618.52 92.14 617.02 89.16L618.46 88.58ZM612.96 96.18H614.56C614.1 100.56 613.06 104.7 607.48 106.7C607.3 106.32 606.86 105.72 606.52 105.4C611.76 103.66 612.56 99.96 612.96 96.18ZM625.78 98.88H635.6V100.14H625.78V98.88ZM625.9 91.9H635.54V93.12H625.9V91.9ZM629.5 97.16L630.9 97.46C630 99.42 628.74 101.86 627.82 103.44L626.5 102.98C627.4 101.46 628.66 99 629.5 97.16ZM632.5 99.62L633.9 99.8C633.22 103.7 631.12 105.62 626.5 106.6C626.4 106.2 626.1 105.66 625.82 105.36C630 104.66 631.88 103.02 632.5 99.62ZM633.76 88.6L635.04 89.16C634.46 90.08 633.8 91.08 633.24 91.76L632.24 91.26C632.74 90.54 633.4 89.38 633.76 88.6ZM630.04 88.2H631.42V97.4H630.04V88.2ZM626.64 89.16L627.78 88.68C628.34 89.48 628.88 90.54 629.08 91.26L627.9 91.8C627.72 91.08 627.2 89.98 626.64 89.16ZM630.06 92.44L631.08 93.04C630.1 94.72 628.22 96.5 626.5 97.44C626.32 97.1 625.96 96.6 625.68 96.3C627.34 95.58 629.18 93.98 630.06 92.44ZM631.26 93.14C631.98 93.52 634.42 95.06 635 95.48L634.18 96.58C633.46 95.9 631.38 94.34 630.54 93.78L631.26 93.14ZM637.06 91.9H644.18V93.3H637.06V91.9ZM637.56 88.2L639.08 88.42C638.42 92.34 637.24 95.92 635.48 98.26C635.24 97.98 634.62 97.48 634.26 97.24C635.96 95.12 637 91.74 637.56 88.2ZM641.5 92.7L643.02 92.86C642.06 99.76 639.94 104.06 634.9 106.66C634.74 106.3 634.3 105.64 634 105.32C638.76 103.08 640.68 99.04 641.5 92.7ZM637.86 93.14C638.74 98.64 640.66 103.36 644.38 105.32C644.02 105.62 643.54 106.2 643.32 106.6C639.4 104.3 637.5 99.42 636.5 93.36L637.86 93.14ZM627.7 102.7L628.5 101.68C630.9 102.6 633.38 103.92 634.82 105.02L633.78 106.1C632.4 104.98 630.02 103.64 627.7 102.7ZM646.12 97.08H663.9V98.52H646.12V97.08ZM647.08 90.62H663.06V92.06H647.08V90.62ZM654.18 88.22H655.76V106.6H654.18V88.22ZM660.12 92.42L661.68 92.92C660.96 94.3 660.08 95.9 659.36 96.9L658.08 96.44C658.78 95.38 659.66 93.64 660.12 92.42ZM648.7 93.02L650.02 92.52C650.84 93.68 651.64 95.26 651.92 96.28L650.5 96.86C650.24 95.84 649.48 94.22 648.7 93.02ZM653.78 97.64L655 98.14C653.1 101.26 649.78 104.22 646.74 105.72C646.5 105.36 646.02 104.8 645.68 104.5C648.72 103.18 652.06 100.4 653.78 97.64ZM656.2 97.64C657.94 100.4 661.3 103.22 664.34 104.54C664 104.84 663.52 105.42 663.28 105.8C660.22 104.28 656.9 101.24 654.98 98.16L656.2 97.64ZM108.4 118.7H113.38V120.1H108.4V118.7ZM112.78 118.7H114.24C114.24 118.7 114.24 119.14 114.24 119.34C114.14 123.86 114.02 125.54 113.6 126.1C113.28 126.46 112.96 126.6 112.4 126.66C111.88 126.72 110.98 126.7 110 126.66C109.96 126.22 109.8 125.64 109.58 125.26C110.48 125.34 111.36 125.34 111.7 125.34C111.98 125.34 112.18 125.32 112.32 125.14C112.62 124.78 112.72 123.28 112.78 118.96V118.7ZM118.42 112.22L119.32 111.28C120.56 111.92 122.14 112.88 122.92 113.58L121.98 114.6C121.22 113.9 119.68 112.88 118.42 112.22ZM121.28 117.64L122.78 118C121.08 123.22 118.1 127.08 114 129.5C113.78 129.2 113.22 128.58 112.9 128.28C116.96 126.12 119.78 122.46 121.28 117.64ZM108.52 114.6H124V116.08H108.52V114.6ZM107.56 114.6H109.12V120.24C109.12 123.08 108.8 127.12 106.98 129.74C106.72 129.44 106.08 128.92 105.72 128.74C107.38 126.28 107.56 122.84 107.56 120.22V114.6ZM115.86 111.24H117.42C117.38 120.44 119.34 127.94 121.94 127.94C122.5 127.94 122.76 126.9 122.88 124.24C123.22 124.58 123.78 124.92 124.18 125.06C123.9 128.48 123.34 129.46 121.82 129.46C117.74 129.46 115.94 120.82 115.86 111.24ZM126.02 113.58H133.36V115H126.02V113.58ZM133.52 115.78H143.02V117.22H133.52V115.78ZM128.98 114.14H130.44V124.16H128.98V114.14ZM142.32 115.78H143.8C143.8 115.78 143.8 116.32 143.78 116.54C143.46 124.8 143.18 127.7 142.42 128.6C141.98 129.16 141.56 129.32 140.88 129.4C140.22 129.46 139.06 129.44 137.92 129.36C137.88 128.94 137.72 128.3 137.46 127.88C138.68 128 139.82 128 140.26 128C140.66 128 140.88 127.94 141.1 127.7C141.72 127.02 142.04 124.06 142.32 116.1V115.78ZM125.74 124.38C127.72 123.92 130.76 123.1 133.66 122.32L133.86 123.74C131.14 124.52 128.24 125.34 126.12 125.92L125.74 124.38ZM136.92 111.54H138.44C138.4 119.26 138.34 126.18 132.22 129.62C132 129.26 131.5 128.72 131.14 128.44C137 125.32 136.88 118.84 136.92 111.54ZM149.54 117.02H160.42V118.38H149.54V117.02ZM146.12 120.7H163.86V122.12H146.12V120.7ZM151.38 121.68H152.98C152.56 125.58 151.44 128.28 146.56 129.64C146.4 129.26 146 128.66 145.68 128.36C150.18 127.24 151.04 124.94 151.38 121.68ZM156.44 121.56H157.94V127.18C157.94 127.78 158.08 127.88 158.92 127.88C159.32 127.88 161.22 127.88 161.74 127.88C162.5 127.88 162.64 127.52 162.7 125.22C163.02 125.46 163.66 125.7 164.06 125.82C163.9 128.56 163.46 129.26 161.86 129.26C161.46 129.26 159.16 129.26 158.76 129.26C156.92 129.26 156.44 128.8 156.44 127.2V121.56ZM154.16 111.22H155.74V114.4H154.16V111.22ZM146.58 113.36H163.4V117.6H161.82V114.78H148.1V117.6H146.58V113.36ZM168.4 118.7H173.38V120.1H168.4V118.7ZM172.78 118.7H174.24C174.24 118.7 174.24 119.14 174.24 119.34C174.14 123.86 174.02 125.54 173.6 126.1C173.28 126.46 172.96 126.6 172.4 126.66C171.88 126.72 170.98 126.7 170 126.66C169.96 126.22 169.8 125.64 169.58 125.26C170.48 125.34 171.36 125.34 171.7 125.34C171.98 125.34 172.18 125.32 172.32 125.14C172.62 124.78 172.72 123.28 172.78 118.96V118.7ZM178.42 112.22L179.32 111.28C180.56 111.92 182.14 112.88 182.92 113.58L181.98 114.6C181.22 113.9 179.68 112.88 178.42 112.22ZM181.28 117.64L182.78 118C181.08 123.22 178.1 127.08 174 129.5C173.78 129.2 173.22 128.58 172.9 128.28C176.96 126.12 179.78 122.46 181.28 117.64ZM168.52 114.6H184V116.08H168.52V114.6ZM167.56 114.6H169.12V120.24C169.12 123.08 168.8 127.12 166.98 129.74C166.72 129.44 166.08 128.92 165.72 128.74C167.38 126.28 167.56 122.84 167.56 120.22V114.6ZM175.86 111.24H177.42C177.38 120.44 179.34 127.94 181.94 127.94C182.5 127.94 182.76 126.9 182.88 124.24C183.22 124.58 183.78 124.92 184.18 125.06C183.9 128.48 183.34 129.46 181.82 129.46C177.74 129.46 175.94 120.82 175.86 111.24ZM186.94 112.48L187.94 111.6C188.94 112.48 190.2 113.72 190.8 114.52L189.72 115.54C189.16 114.72 187.92 113.42 186.94 112.48ZM188.5 128.8L188.22 127.42L188.58 126.8L192 123.96C192.14 124.36 192.4 124.92 192.56 125.18C189.26 127.98 188.76 128.42 188.5 128.8ZM185.86 117.46H189.58V118.84H185.86V117.46ZM191.76 121.58H204.1V122.96H191.76V121.58ZM199.12 122.24C200.3 124.24 202.54 126.42 204.44 127.46C204.1 127.74 203.64 128.26 203.4 128.64C201.5 127.38 199.32 124.92 198.08 122.68L199.12 122.24ZM194.22 116.56V118.64H201.42V116.56H194.22ZM194.22 113.3V115.36H201.42V113.3H194.22ZM192.84 112.06H202.84V119.88H192.84V112.06ZM196.76 122.24L197.82 122.64C196.56 125.14 194.26 127.6 192.06 128.82C191.84 128.46 191.4 127.96 191.08 127.68C193.26 126.66 195.58 124.44 196.76 122.24ZM197.26 112.68H198.64V119.26H198.7V129.6H197.22V119.26H197.26V112.68ZM188.5 128.8C188.32 128.52 187.86 128 187.58 127.8C187.96 127.46 188.66 126.68 188.66 125.64V117.46H190.1V126.64C190.1 126.64 188.5 128.2 188.5 128.8ZM217.88 120.64H219.36V128.64H217.88V120.64ZM213.48 120.1H223.82V121.42H213.48V120.1ZM212.62 127.74H224.26V129.08H212.62V127.74ZM213.96 123.82H223.36V125.12H213.96V123.82ZM215.64 113.34V117.04H221.66V113.34H215.64ZM214.24 112.04H223.12V118.34H214.24V112.04ZM209.24 112.86H210.7V129.56H209.24V112.86ZM205.96 116.84H213.22V118.26H205.96V116.84ZM209.32 117.38L210.26 117.78C209.46 120.6 207.86 124.1 206.32 125.96C206.18 125.54 205.82 124.92 205.56 124.58C207 122.98 208.6 119.86 209.32 117.38ZM212.2 111.5L213.26 112.66C211.42 113.4 208.62 113.96 206.3 114.28C206.22 113.94 206.02 113.46 205.84 113.12C208.1 112.74 210.74 112.18 212.2 111.5ZM210.64 119.42C211.14 119.86 213.02 121.76 213.42 122.26L212.54 123.44C212.06 122.62 210.56 120.72 209.94 120.02L210.64 119.42ZM228.88 123.14C230.56 123.14 231.92 124.5 231.92 126.18C231.92 127.86 230.56 129.22 228.88 129.22C227.2 129.22 225.82 127.86 225.82 126.18C225.82 124.5 227.2 123.14 228.88 123.14ZM228.88 128.2C230 128.2 230.9 127.3 230.9 126.18C230.9 125.06 230 124.16 228.88 124.16C227.76 124.16 226.84 125.06 226.84 126.18C226.84 127.3 227.76 128.2 228.88 128.2Z" fill="#2D3342"/>
<path d="M79.3394 190V188.409L84.2613 183.31C84.7869 182.756 85.2201 182.27 85.561 181.854C85.9067 181.432 86.1647 181.032 86.3352 180.653C86.5056 180.275 86.5909 179.872 86.5909 179.446C86.5909 178.963 86.4772 178.546 86.2499 178.196C86.0227 177.841 85.7125 177.569 85.3196 177.379C84.9266 177.185 84.4838 177.088 83.9914 177.088C83.4706 177.088 83.016 177.195 82.6278 177.408C82.2395 177.621 81.9412 177.921 81.7329 178.31C81.5246 178.698 81.4204 179.152 81.4204 179.673H79.3252C79.3252 178.788 79.5288 178.014 79.936 177.351C80.3432 176.688 80.9019 176.174 81.6122 175.81C82.3224 175.44 83.1297 175.256 84.034 175.256C84.9479 175.256 85.7528 175.438 86.4488 175.803C87.1496 176.162 87.6964 176.655 88.0894 177.28C88.4824 177.9 88.6789 178.601 88.6789 179.382C88.6789 179.922 88.5771 180.45 88.3735 180.966C88.1747 181.482 87.8267 182.057 87.3295 182.692C86.8323 183.321 86.141 184.086 85.2556 184.986L82.365 188.011V188.118H88.9133V190H79.3394ZM93.5173 190.135C93.1291 190.135 92.7953 189.998 92.5159 189.723C92.2366 189.444 92.0969 189.107 92.0969 188.714C92.0969 188.326 92.2366 187.995 92.5159 187.72C92.7953 187.441 93.1291 187.301 93.5173 187.301C93.9056 187.301 94.2394 187.441 94.5188 187.72C94.7981 187.995 94.9378 188.326 94.9378 188.714C94.9378 188.975 94.8715 189.214 94.7389 189.432C94.6111 189.645 94.4406 189.815 94.2276 189.943C94.0145 190.071 93.7778 190.135 93.5173 190.135ZM103.9 184.14H122.1V185.4H103.9V184.14ZM104.38 174.08H121.6V175.4H104.38V174.08ZM110.84 182.04L112.3 182.44C111 184.52 109.16 187.14 107.88 188.78L106.46 188.3C107.74 186.68 109.6 184 110.84 182.04ZM116.84 184.58L118.28 185C116.52 189.4 112.26 191.04 104.76 191.6C104.66 191.16 104.42 190.62 104.18 190.28C111.32 189.9 115.24 188.48 116.84 184.58ZM107.54 188.1L108.3 187C113.24 187.88 118.38 189.22 121.48 190.44L120.58 191.66C117.52 190.4 112.62 189.04 107.54 188.1ZM109.84 174.58H111.26V181.56H109.84V174.58ZM114.5 174.58H115.92V181.56H114.5V174.58ZM106.78 178.34V181.06H119.26V178.34H106.78ZM105.38 177.12H120.76V182.3H105.38V177.12ZM130.46 181.76H141.82V183.14H130.46V181.76ZM137.16 178.94L138.2 178.2C139.22 178.86 140.44 179.9 140.98 180.64L139.92 181.48C139.38 180.72 138.2 179.66 137.16 178.94ZM136.54 182.48C137.36 186.14 139.12 189.06 142.06 190.36C141.72 190.64 141.28 191.2 141.08 191.58C138.02 190.02 136.24 186.84 135.32 182.7L136.54 182.48ZM124.24 174.8H141.82V176.16H124.24V174.8ZM128.96 173.2H130.46V177.8H128.96V173.2ZM135.64 173.2H137.12V177.7H135.64V173.2ZM135.14 178.1H136.56V181.06C136.56 184.34 135.96 188.58 131.02 191.66C130.76 191.34 130.26 190.94 129.9 190.68C134.62 187.78 135.14 183.88 135.14 181.06V178.1ZM124.86 178.68L125.86 177.9C129.44 180.24 129.92 183 129.92 185.88C129.92 188.16 129.7 189.9 128.88 190.84C128.64 191.14 128.26 191.34 127.82 191.4C127.16 191.52 126.42 191.52 125.6 191.48C125.58 191.08 125.42 190.54 125.14 190.16C126.06 190.22 126.8 190.22 127.24 190.16C127.52 190.14 127.7 190.04 127.86 189.84C128.36 189.24 128.52 187.82 128.52 185.8C128.52 183.16 127.94 180.76 124.86 178.68ZM128.34 183.26L129.38 183.88C128.34 185.4 126.34 187.1 124.68 188.02C124.48 187.66 124.1 187.18 123.76 186.9C125.42 186.18 127.38 184.66 128.34 183.26ZM129.48 178.22L130.72 178.88C129.3 180.52 126.96 182.04 124.72 183.08C124.5 182.78 124.1 182.34 123.8 182.1C126.02 181.16 128.26 179.62 129.48 178.22ZM152.62 177.66V179.3H159.24V177.66H152.62ZM152.62 174.96V176.58H159.24V174.96H152.62ZM151.18 173.82H160.74V180.44H151.18V173.82ZM149.94 181.82H161.7V183.08H149.94V181.82ZM149.48 184.8H162.06V186.12H149.48V184.8ZM157.56 182.92H159.06V189.96C159.06 190.76 158.88 191.16 158.28 191.38C157.68 191.62 156.72 191.62 155.22 191.62C155.16 191.22 154.92 190.66 154.72 190.26C155.86 190.3 156.86 190.3 157.16 190.28C157.48 190.26 157.56 190.18 157.56 189.92V182.92ZM151.22 187.14L152.28 186.42C153.2 187.26 154.3 188.44 154.82 189.22L153.68 190.06C153.2 189.26 152.12 188.02 151.22 187.14ZM148.38 177.66L149.7 178.2C148.34 180.58 146.2 183 144.22 184.56C144.1 184.26 143.68 183.46 143.42 183.12C145.24 181.8 147.18 179.74 148.38 177.66ZM148 173.26L149.44 173.82C148.24 175.54 146.32 177.42 144.54 178.6C144.38 178.26 144 177.68 143.74 177.38C145.34 176.34 147.14 174.68 148 173.26ZM146.58 181.2L147.98 179.78L148.04 179.82V191.6H146.58V181.2ZM164.94 174.48L165.94 173.6C166.94 174.48 168.2 175.72 168.8 176.52L167.72 177.54C167.16 176.72 165.92 175.42 164.94 174.48ZM166.5 190.8L166.22 189.42L166.58 188.8L170 185.96C170.14 186.36 170.4 186.92 170.56 187.18C167.26 189.98 166.76 190.42 166.5 190.8ZM163.86 179.46H167.58V180.84H163.86V179.46ZM169.76 183.58H182.1V184.96H169.76V183.58ZM177.12 184.24C178.3 186.24 180.54 188.42 182.44 189.46C182.1 189.74 181.64 190.26 181.4 190.64C179.5 189.38 177.32 186.92 176.08 184.68L177.12 184.24ZM172.22 178.56V180.64H179.42V178.56H172.22ZM172.22 175.3V177.36H179.42V175.3H172.22ZM170.84 174.06H180.84V181.88H170.84V174.06ZM174.76 184.24L175.82 184.64C174.56 187.14 172.26 189.6 170.06 190.82C169.84 190.46 169.4 189.96 169.08 189.68C171.26 188.66 173.58 186.44 174.76 184.24ZM175.26 174.68H176.64V181.26H176.7V191.6H175.22V181.26H175.26V174.68ZM166.5 190.8C166.32 190.52 165.86 190 165.58 189.8C165.96 189.46 166.66 188.68 166.66 187.64V179.46H168.1V188.64C168.1 188.64 166.5 190.2 166.5 190.8ZM195.88 182.64H197.36V190.64H195.88V182.64ZM191.48 182.1H201.82V183.42H191.48V182.1ZM190.62 189.74H202.26V191.08H190.62V189.74ZM191.96 185.82H201.36V187.12H191.96V185.82ZM193.64 175.34V179.04H199.66V175.34H193.64ZM192.24 174.04H201.12V180.34H192.24V174.04ZM187.24 174.86H188.7V191.56H187.24V174.86ZM183.96 178.84H191.22V180.26H183.96V178.84ZM187.32 179.38L188.26 179.78C187.46 182.6 185.86 186.1 184.32 187.96C184.18 187.54 183.82 186.92 183.56 186.58C185 184.98 186.6 181.86 187.32 179.38ZM190.2 173.5L191.26 174.66C189.42 175.4 186.62 175.96 184.3 176.28C184.22 175.94 184.02 175.46 183.84 175.12C186.1 174.74 188.74 174.18 190.2 173.5ZM188.64 181.42C189.14 181.86 191.02 183.76 191.42 184.26L190.54 185.44C190.06 184.62 188.56 182.72 187.94 182.02L188.64 181.42ZM205.62 176.42H211.7V189.5H205.62V188.14H210.3V177.76H205.62V176.42ZM204.72 176.42H206.12V191.1H204.72V176.42ZM205.52 181.98H211.04V183.32H205.52V181.98ZM207.78 173.16L209.4 173.46C209 174.7 208.5 176.08 208.1 176.98L206.9 176.68C207.24 175.72 207.62 174.2 207.78 173.16ZM214.54 176.36H220.68V177.76H214.54V176.36ZM220.16 176.36H221.56C221.56 176.36 221.56 176.92 221.56 177.14C221.24 186.32 220.96 189.42 220.16 190.4C219.72 190.98 219.26 191.16 218.56 191.22C217.88 191.3 216.7 191.26 215.58 191.2C215.54 190.76 215.36 190.14 215.08 189.74C216.38 189.84 217.58 189.86 218.04 189.86C218.44 189.86 218.68 189.8 218.9 189.54C219.56 188.82 219.88 185.5 220.16 176.68V176.36ZM214.96 173.12L216.4 173.46C215.66 176.44 214.48 179.38 213.1 181.28C212.84 181.04 212.22 180.62 211.86 180.42C213.22 178.66 214.32 175.9 214.96 173.12ZM214.04 181.56L215.2 180.88C216.34 182.3 217.72 184.24 218.36 185.42L217.08 186.22C216.48 185 215.14 183.02 214.04 181.56ZM228 177.32V178.74H238.04V177.32H228ZM228 174.92V176.3H238.04V174.92H228ZM226.54 173.84H239.52V179.8H226.54V173.84ZM224.16 180.92H241.78V182.16H224.16V180.92ZM233.04 183.42H240.16V184.64H233.04V183.42ZM226.76 183.54H231.7V184.66H226.76V183.54ZM226.76 186.06H231.7V187.18H226.76V186.06ZM235.14 184.54C236.3 187.4 238.86 189.58 242.26 190.42C241.94 190.7 241.54 191.24 241.34 191.6C237.82 190.56 235.24 188.18 233.92 184.9L235.14 184.54ZM239.7 183.42H239.98L240.24 183.36L241.16 183.74C239.84 187.8 236.62 190.3 233.14 191.5C232.98 191.14 232.6 190.6 232.32 190.32C235.52 189.36 238.6 187.02 239.7 183.66V183.42ZM223.98 189.12C225.94 188.96 228.84 188.64 231.66 188.32V189.56C228.96 189.88 226.18 190.22 224.12 190.46L223.98 189.12ZM230.9 181.32H232.34V191.6H230.9V181.32ZM225.88 181.34H227.28V189.48H225.88V181.34ZM244.26 186.34C244.18 186.04 243.94 185.32 243.78 184.96C244.22 184.86 244.68 184.38 245.32 183.66C245.98 182.96 248.12 180.18 249.52 177.5L250.78 178.26C249.16 180.96 247.18 183.64 245.24 185.54V185.58C245.24 185.58 244.26 186.02 244.26 186.34ZM244.26 186.34L244.2 185.12L244.96 184.62L250.52 183.86C250.5 184.24 250.52 184.82 250.56 185.14C245.38 185.94 244.7 186.1 244.26 186.34ZM244.12 181.52C244.04 181.2 243.8 180.48 243.62 180.1C243.98 180 244.34 179.54 244.76 178.84C245.24 178.18 246.68 175.6 247.52 173.18L248.98 173.78C247.92 176.28 246.48 178.88 245.1 180.68V180.72C245.1 180.72 244.12 181.2 244.12 181.52ZM244.12 181.52L244.08 180.44L244.82 180L248.98 179.62C248.92 180 248.86 180.54 248.86 180.82C245.06 181.24 244.48 181.36 244.12 181.52ZM243.7 188.96C245.5 188.66 248.22 188.14 250.86 187.62L250.98 188.96C248.48 189.5 245.88 190 243.96 190.42L243.7 188.96ZM254.3 184.72L255.18 183.76C256.62 184.3 258.42 185.24 259.38 185.94L258.46 187C257.52 186.28 255.74 185.3 254.3 184.72ZM252.08 188.44L252.96 187.36C255.66 188.06 258.98 189.4 260.82 190.4L259.94 191.6C258.12 190.52 254.82 189.16 252.08 188.44ZM254.66 173.2L256.2 173.46C255.22 175.64 253.72 178 251.46 179.9C251.22 179.56 250.72 179.08 250.36 178.88C252.48 177.24 253.9 175 254.66 173.2ZM254.46 175.3H259.9V176.62H253.8L254.46 175.3ZM259.46 175.3H259.78L260.04 175.24L260.98 175.78C259.18 180.04 255.36 183.04 251.54 184.62C251.38 184.26 250.9 183.66 250.6 183.4C254.34 182.02 257.98 179.22 259.46 175.58V175.3ZM254.2 176.44C255.84 179.44 259.1 182.2 262.54 183.4C262.18 183.68 261.76 184.26 261.52 184.64C258.04 183.24 254.78 180.3 252.98 176.9L254.2 176.44ZM266.4 180.7H271.38V182.1H266.4V180.7ZM270.78 180.7H272.24C272.24 180.7 272.24 181.14 272.24 181.34C272.14 185.86 272.02 187.54 271.6 188.1C271.28 188.46 270.96 188.6 270.4 188.66C269.88 188.72 268.98 188.7 268 188.66C267.96 188.22 267.8 187.64 267.58 187.26C268.48 187.34 269.36 187.34 269.7 187.34C269.98 187.34 270.18 187.32 270.32 187.14C270.62 186.78 270.72 185.28 270.78 180.96V180.7ZM276.42 174.22L277.32 173.28C278.56 173.92 280.14 174.88 280.92 175.58L279.98 176.6C279.22 175.9 277.68 174.88 276.42 174.22ZM279.28 179.64L280.78 180C279.08 185.22 276.1 189.08 272 191.5C271.78 191.2 271.22 190.58 270.9 190.28C274.96 188.12 277.78 184.46 279.28 179.64ZM266.52 176.6H282V178.08H266.52V176.6ZM265.56 176.6H267.12V182.24C267.12 185.08 266.8 189.12 264.98 191.74C264.72 191.44 264.08 190.92 263.72 190.74C265.38 188.28 265.56 184.84 265.56 182.22V176.6ZM273.86 173.24H275.42C275.38 182.44 277.34 189.94 279.94 189.94C280.5 189.94 280.76 188.9 280.88 186.24C281.22 186.58 281.78 186.92 282.18 187.06C281.9 190.48 281.34 191.46 279.82 191.46C275.74 191.46 273.94 182.82 273.86 173.24ZM284.32 186.36C284.26 186.08 284.06 185.42 283.88 185.08C284.3 185 284.76 184.5 285.4 183.76C286.08 183.04 288.18 180.22 289.58 177.5L290.76 178.22C289.14 180.94 287.2 183.68 285.3 185.62V185.64C285.3 185.64 284.32 186.08 284.32 186.36ZM284.32 186.36L284.24 185.22L284.96 184.72L290.6 183.68C290.56 184.06 290.56 184.6 290.58 184.9C285.42 185.94 284.74 186.12 284.32 186.36ZM284.18 181.56C284.12 181.26 283.88 180.56 283.72 180.18C284.06 180.1 284.42 179.64 284.86 178.94C285.32 178.28 286.84 175.66 287.68 173.24L289.02 173.86C287.94 176.36 286.5 178.94 285.06 180.76V180.8C285.06 180.8 284.18 181.26 284.18 181.56ZM284.18 181.56L284.16 180.5L284.84 180.04L288.5 179.66C288.46 180.02 288.4 180.56 288.42 180.84C285.06 181.28 284.5 181.4 284.18 181.56ZM283.84 188.94C285.54 188.6 288.12 188.02 290.64 187.42L290.78 188.68C288.42 189.28 285.96 189.88 284.1 190.34L283.84 188.94ZM291.1 174.96H301.7V176.14H291.1V174.96ZM291.74 177.34H301.2V178.46H291.74V177.34ZM290.56 179.78H302.14V180.92H290.56V179.78ZM295.58 173.32H296.98V180.4H295.58V173.32ZM295.54 184.54H296.92V186.12C296.92 187.92 296.24 190.18 290.52 191.66C290.36 191.32 289.94 190.82 289.64 190.52C295.06 189.32 295.54 187.42 295.54 186.08V184.54ZM296.78 189.24L297.48 188.28C299.06 188.86 301.18 189.78 302.26 190.46L301.54 191.54C300.48 190.86 298.38 189.84 296.78 189.24ZM291.68 182.18H301.1V188.02H299.66V183.38H293.06V188.02H291.68V182.18ZM306.14 192.14L305.68 191.1C307.32 190.42 308.22 189.4 308.22 187.9L307.84 186.2L308.92 187.72C308.64 188.08 308.24 188.18 307.86 188.18C307.04 188.18 306.36 187.7 306.36 186.74C306.36 185.8 307.08 185.3 307.88 185.3C309 185.3 309.6 186.22 309.6 187.62C309.6 189.78 308.24 191.42 306.14 192.14ZM332.36 173.22L333.74 173.56C332.96 175.7 331.66 177.74 330.26 179.1C330.04 178.84 329.48 178.36 329.14 178.14C330.5 176.96 331.68 175.14 332.36 173.22ZM332.28 178.26L333.68 178.62C333.06 180.2 332.02 181.76 331.02 182.8C330.74 182.58 330.14 182.2 329.8 182.02C330.84 181.06 331.74 179.66 332.28 178.26ZM332.16 175.18H340.84V176.5H331.64L332.16 175.18ZM335.1 176.08H336.54V183.04C336.54 183.8 336.4 184.2 335.84 184.42C335.32 184.64 334.5 184.66 333.24 184.66C333.16 184.26 332.96 183.7 332.74 183.32C333.68 183.36 334.52 183.36 334.78 183.34C335.04 183.32 335.1 183.26 335.1 183.04V176.08ZM337.64 178.7L338.88 178.16C339.86 179.46 340.84 181.22 341.26 182.38L339.96 183C339.56 181.82 338.58 180 337.64 178.7ZM340.42 175.18H340.66L340.9 175.14L341.94 175.4C341.44 176.66 340.82 178.12 340.34 179L339.04 178.74C339.5 177.9 340.04 176.52 340.42 175.4V175.18ZM328.98 185.64H330.46V189.26C330.46 189.8 330.66 189.9 331.72 189.9C332.22 189.9 334.72 189.9 335.38 189.9C336.26 189.9 336.4 189.64 336.5 187.66C336.82 187.92 337.42 188.14 337.84 188.24C337.66 190.66 337.2 191.26 335.48 191.26C335.02 191.26 332.04 191.26 331.6 191.26C329.52 191.26 328.98 190.84 328.98 189.26V185.64ZM330.7 185.04L331.7 184.14C332.98 184.76 334.52 185.78 335.24 186.58L334.16 187.56C333.48 186.76 332 185.68 330.7 185.04ZM337.28 186.26L338.52 185.56C340 186.82 341.56 188.62 342.18 189.98L340.84 190.74C340.26 189.42 338.78 187.54 337.28 186.26ZM326.54 185.88L327.88 186.32C327.38 188.12 326.6 189.9 325.02 190.96L323.78 190.1C325.26 189.16 326.12 187.56 326.54 185.88ZM328.46 173.2L329.8 173.66C328.5 176.14 326.48 178.6 324.54 180.18C324.36 179.88 323.86 179.28 323.56 179.02C325.44 177.6 327.32 175.4 328.46 173.2ZM326.62 176.96L328.04 175.54L328.06 175.56V184.64H326.62V176.96ZM345.68 174.02H360.3V175.22H345.68V174.02ZM344.28 182.88H361.76V184.1H344.28V182.88ZM346.86 178.58H351.18V179.6H346.86V178.58ZM346.44 180.68H351.18V181.7H346.44V180.68ZM354.7 180.68H359.6V181.7H354.7V180.68ZM354.7 178.58H359.12V179.6H354.7V178.58ZM352.2 174.48H353.66V182.22H352.2V174.48ZM350.22 186.32H351.62V191.46H350.22V186.32ZM354.66 186.32H356.04V191.46H354.66V186.32ZM344.52 176.38H361.5V180.22H360.08V177.48H345.88V180.22H344.52V176.38ZM345.84 185.54H359.56V186.78H347.26V191.58H345.84V185.54ZM359.18 185.54H360.62V190.12C360.62 190.8 360.52 191.16 360 191.38C359.5 191.62 358.76 191.6 357.66 191.6C357.6 191.24 357.38 190.72 357.2 190.36C358 190.38 358.68 190.38 358.9 190.36C359.12 190.34 359.18 190.28 359.18 190.1V185.54ZM352.22 183.34L353.86 183.4C353.5 184.48 353.08 185.58 352.74 186.32L351.42 186.18C351.72 185.36 352.08 184.16 352.22 183.34ZM363.9 184.14H382.1V185.4H363.9V184.14ZM364.38 174.08H381.6V175.4H364.38V174.08ZM370.84 182.04L372.3 182.44C371 184.52 369.16 187.14 367.88 188.78L366.46 188.3C367.74 186.68 369.6 184 370.84 182.04ZM376.84 184.58L378.28 185C376.52 189.4 372.26 191.04 364.76 191.6C364.66 191.16 364.42 190.62 364.18 190.28C371.32 189.9 375.24 188.48 376.84 184.58ZM367.54 188.1L368.3 187C373.24 187.88 378.38 189.22 381.48 190.44L380.58 191.66C377.52 190.4 372.62 189.04 367.54 188.1ZM369.84 174.58H371.26V181.56H369.84V174.58ZM374.5 174.58H375.92V181.56H374.5V174.58ZM366.78 178.34V181.06H379.26V178.34H366.78ZM365.38 177.12H380.76V182.3H365.38V177.12ZM384.62 178.02H400.06V179.52H384.62V178.02ZM399.44 178.02H401C401 178.02 401 178.58 400.98 178.8C400.68 186.82 400.4 189.66 399.6 190.58C399.16 191.14 398.68 191.32 397.96 191.38C397.26 191.44 395.98 191.42 394.76 191.34C394.72 190.9 394.52 190.24 394.24 189.78C395.58 189.92 396.84 189.92 397.34 189.92C397.76 189.92 397.98 189.86 398.22 189.62C398.86 188.98 399.18 186.02 399.44 178.34V178.02ZM391.2 173.24H392.72V175.62C392.72 180.1 392.24 186.7 385.26 191.34C385.02 190.98 384.46 190.48 384.08 190.22C390.78 185.88 391.2 179.76 391.2 175.62V173.24ZM386.22 174.32L387.52 173.76C388.32 174.64 389.26 175.9 389.68 176.72L388.32 177.36C387.94 176.56 387.02 175.26 386.22 174.32ZM392.96 182.6L394.2 181.98C395.26 183.16 396.48 184.78 397 185.84L395.68 186.54C395.18 185.48 393.98 183.8 392.96 182.6ZM404.94 174.48L405.94 173.6C406.94 174.48 408.2 175.72 408.8 176.52L407.72 177.54C407.16 176.72 405.92 175.42 404.94 174.48ZM406.5 190.8L406.22 189.42L406.58 188.8L410 185.96C410.14 186.36 410.4 186.92 410.56 187.18C407.26 189.98 406.76 190.42 406.5 190.8ZM403.86 179.46H407.58V180.84H403.86V179.46ZM409.76 183.58H422.1V184.96H409.76V183.58ZM417.12 184.24C418.3 186.24 420.54 188.42 422.44 189.46C422.1 189.74 421.64 190.26 421.4 190.64C419.5 189.38 417.32 186.92 416.08 184.68L417.12 184.24ZM412.22 178.56V180.64H419.42V178.56H412.22ZM412.22 175.3V177.36H419.42V175.3H412.22ZM410.84 174.06H420.84V181.88H410.84V174.06ZM414.76 184.24L415.82 184.64C414.56 187.14 412.26 189.6 410.06 190.82C409.84 190.46 409.4 189.96 409.08 189.68C411.26 188.66 413.58 186.44 414.76 184.24ZM415.26 174.68H416.64V181.26H416.7V191.6H415.22V181.26H415.26V174.68ZM406.5 190.8C406.32 190.52 405.86 190 405.58 189.8C405.96 189.46 406.66 188.68 406.66 187.64V179.46H408.1V188.64C408.1 188.64 406.5 190.2 406.5 190.8ZM435.88 182.64H437.36V190.64H435.88V182.64ZM431.48 182.1H441.82V183.42H431.48V182.1ZM430.62 189.74H442.26V191.08H430.62V189.74ZM431.96 185.82H441.36V187.12H431.96V185.82ZM433.64 175.34V179.04H439.66V175.34H433.64ZM432.24 174.04H441.12V180.34H432.24V174.04ZM427.24 174.86H428.7V191.56H427.24V174.86ZM423.96 178.84H431.22V180.26H423.96V178.84ZM427.32 179.38L428.26 179.78C427.46 182.6 425.86 186.1 424.32 187.96C424.18 187.54 423.82 186.92 423.56 186.58C425 184.98 426.6 181.86 427.32 179.38ZM430.2 173.5L431.26 174.66C429.42 175.4 426.62 175.96 424.3 176.28C424.22 175.94 424.02 175.46 423.84 175.12C426.1 174.74 428.74 174.18 430.2 173.5ZM428.64 181.42C429.14 181.86 431.02 183.76 431.42 184.26L430.54 185.44C430.06 184.62 428.56 182.72 427.94 182.02L428.64 181.42ZM444.92 176.78H461.04V186.2H459.48V178.26H446.42V186.3H444.92V176.78ZM445.72 183.58H460.38V185.04H445.72V183.58ZM452.16 173.2H453.72V191.58H452.16V173.2ZM465.62 176.42H471.7V189.5H465.62V188.14H470.3V177.76H465.62V176.42ZM464.72 176.42H466.12V191.1H464.72V176.42ZM465.52 181.98H471.04V183.32H465.52V181.98ZM467.78 173.16L469.4 173.46C469 174.7 468.5 176.08 468.1 176.98L466.9 176.68C467.24 175.72 467.62 174.2 467.78 173.16ZM474.54 176.36H480.68V177.76H474.54V176.36ZM480.16 176.36H481.56C481.56 176.36 481.56 176.92 481.56 177.14C481.24 186.32 480.96 189.42 480.16 190.4C479.72 190.98 479.26 191.16 478.56 191.22C477.88 191.3 476.7 191.26 475.58 191.2C475.54 190.76 475.36 190.14 475.08 189.74C476.38 189.84 477.58 189.86 478.04 189.86C478.44 189.86 478.68 189.8 478.9 189.54C479.56 188.82 479.88 185.5 480.16 176.68V176.36ZM474.96 173.12L476.4 173.46C475.66 176.44 474.48 179.38 473.1 181.28C472.84 181.04 472.22 180.62 471.86 180.42C473.22 178.66 474.32 175.9 474.96 173.12ZM474.04 181.56L475.2 180.88C476.34 182.3 477.72 184.24 478.36 185.42L477.08 186.22C476.48 185 475.14 183.02 474.04 181.56ZM500.26 173.7L501.38 174.96C498.46 175.96 493.98 176.7 490.18 177.16C490.12 176.8 489.9 176.24 489.74 175.88C493.46 175.4 497.8 174.6 500.26 173.7ZM489.06 181.78H502.2V183.22H489.06V181.78ZM489.84 189.4H501.88V190.84H489.84V189.4ZM495.02 175.92H496.52V189.8H495.02V175.92ZM486.7 178.52L488.18 177.04L488.2 177.08V191.6H486.7V178.52ZM488.88 173.22L490.34 173.68C488.92 177.16 486.68 180.62 484.34 182.9C484.18 182.54 483.72 181.76 483.42 181.38C485.58 179.42 487.64 176.36 488.88 173.22ZM505.52 184.38H519.4V185.7H505.52V184.38ZM518.9 184.38H520.4C520.4 184.38 520.36 184.82 520.32 185.04C519.86 188.68 519.42 190.22 518.72 190.84C518.3 191.24 517.84 191.34 517.1 191.38C516.5 191.4 515.3 191.4 514.1 191.32C514.08 190.92 513.88 190.36 513.62 189.98C514.88 190.1 516.18 190.12 516.68 190.12C517.1 190.12 517.34 190.1 517.56 189.94C518.08 189.5 518.52 187.98 518.88 184.58L518.9 184.38ZM511.9 182.38L513.46 182.52C512.66 187.94 510.02 190.34 504.96 191.58C504.8 191.24 504.4 190.6 504.12 190.3C508.96 189.38 511.34 187.22 511.9 182.38ZM509.42 175.26H519.12V176.56H509.42V175.26ZM518.76 175.26H519.06L519.32 175.2L520.24 175.82C517.34 180.14 510.68 182.14 504.5 182.86C504.4 182.48 504.14 181.88 503.9 181.54C509.84 180.98 516.34 179.1 518.76 175.46V175.26ZM509.4 176.78C511.58 179.6 516.42 180.94 522.2 181.28C521.9 181.62 521.54 182.2 521.36 182.62C515.52 182.14 510.68 180.6 508.16 177.3L509.4 176.78ZM510.64 173.18L512.2 173.48C510.86 175.66 508.78 177.86 505.74 179.56C505.54 179.2 505.1 178.66 504.8 178.44C507.62 176.98 509.6 174.94 510.64 173.18ZM530.46 181.76H541.82V183.14H530.46V181.76ZM537.16 178.94L538.2 178.2C539.22 178.86 540.44 179.9 540.98 180.64L539.92 181.48C539.38 180.72 538.2 179.66 537.16 178.94ZM536.54 182.48C537.36 186.14 539.12 189.06 542.06 190.36C541.72 190.64 541.28 191.2 541.08 191.58C538.02 190.02 536.24 186.84 535.32 182.7L536.54 182.48ZM524.24 174.8H541.82V176.16H524.24V174.8ZM528.96 173.2H530.46V177.8H528.96V173.2ZM535.64 173.2H537.12V177.7H535.64V173.2ZM535.14 178.1H536.56V181.06C536.56 184.34 535.96 188.58 531.02 191.66C530.76 191.34 530.26 190.94 529.9 190.68C534.62 187.78 535.14 183.88 535.14 181.06V178.1ZM524.86 178.68L525.86 177.9C529.44 180.24 529.92 183 529.92 185.88C529.92 188.16 529.7 189.9 528.88 190.84C528.64 191.14 528.26 191.34 527.82 191.4C527.16 191.52 526.42 191.52 525.6 191.48C525.58 191.08 525.42 190.54 525.14 190.16C526.06 190.22 526.8 190.22 527.24 190.16C527.52 190.14 527.7 190.04 527.86 189.84C528.36 189.24 528.52 187.82 528.52 185.8C528.52 183.16 527.94 180.76 524.86 178.68ZM528.34 183.26L529.38 183.88C528.34 185.4 526.34 187.1 524.68 188.02C524.48 187.66 524.1 187.18 523.76 186.9C525.42 186.18 527.38 184.66 528.34 183.26ZM529.48 178.22L530.72 178.88C529.3 180.52 526.96 182.04 524.72 183.08C524.5 182.78 524.1 182.34 523.8 182.1C526.02 181.16 528.26 179.62 529.48 178.22ZM552.62 177.66V179.3H559.24V177.66H552.62ZM552.62 174.96V176.58H559.24V174.96H552.62ZM551.18 173.82H560.74V180.44H551.18V173.82ZM549.94 181.82H561.7V183.08H549.94V181.82ZM549.48 184.8H562.06V186.12H549.48V184.8ZM557.56 182.92H559.06V189.96C559.06 190.76 558.88 191.16 558.28 191.38C557.68 191.62 556.72 191.62 555.22 191.62C555.16 191.22 554.92 190.66 554.72 190.26C555.86 190.3 556.86 190.3 557.16 190.28C557.48 190.26 557.56 190.18 557.56 189.92V182.92ZM551.22 187.14L552.28 186.42C553.2 187.26 554.3 188.44 554.82 189.22L553.68 190.06C553.2 189.26 552.12 188.02 551.22 187.14ZM548.38 177.66L549.7 178.2C548.34 180.58 546.2 183 544.22 184.56C544.1 184.26 543.68 183.46 543.42 183.12C545.24 181.8 547.18 179.74 548.38 177.66ZM548 173.26L549.44 173.82C548.24 175.54 546.32 177.42 544.54 178.6C544.38 178.26 544 177.68 543.74 177.38C545.34 176.34 547.14 174.68 548 173.26ZM546.58 181.2L547.98 179.78L548.04 179.82V191.6H546.58V181.2ZM569.74 175.98C571.42 183.28 575 188.42 582.42 190.18C582.08 190.5 581.62 191.16 581.38 191.58C573.78 189.56 570.28 184.22 568.42 176.28L569.74 175.98ZM564.78 174.28H575.98V175.74H564.78V174.28ZM579.68 179.12H579.96L580.24 179.06L581.26 179.46C579.56 186.52 574.82 190.04 569.2 191.62C569.02 191.24 568.66 190.62 568.34 190.3C573.62 189.02 578.2 185.6 579.68 179.4V179.12ZM575.64 174.28H575.82L576.1 174.2L577.24 174.42C576.8 176.48 576.1 179.38 575.48 181.58L573.92 181.36C574.58 179.14 575.3 176.06 575.64 174.46V174.28ZM575.36 179.12H580.02V180.54H575.04L575.36 179.12ZM568.32 174.74H569.84V177.42C569.84 181.42 569.44 186.88 564.78 191.24C564.56 190.86 564.04 190.26 563.7 189.98C568 186 568.32 181 568.32 177.44V174.74ZM594.06 175.36H599.7V176.68H594.06V175.36ZM592.24 184.28H600.66V191.56H599.22V185.58H593.64V191.62H592.24V184.28ZM592.84 189.42H599.98V190.74H592.84V189.42ZM594.64 173.18L596.08 173.58C595 176.24 593.24 178.74 591.42 180.32C591.18 180.06 590.58 179.54 590.24 179.32C592.08 177.88 593.7 175.6 594.64 173.18ZM599.28 175.36H599.56L599.82 175.3L600.76 175.74C599.04 180.7 594.92 183.88 590.66 185.42C590.48 185.04 590.1 184.48 589.8 184.2C593.82 182.94 597.82 179.86 599.28 175.62V175.36ZM593.94 176.4C595.18 179.24 598.12 182.38 602.52 183.72C602.22 184 601.8 184.6 601.6 184.96C597.14 183.4 594.2 180.08 592.84 177.1L593.94 176.4ZM584.02 177.5H591.06V178.92H584.02V177.5ZM587.04 173.2H588.46V191.58H587.04V173.2ZM586.98 178.38L587.92 178.7C587.26 181.92 585.84 185.82 584.34 187.84C584.18 187.44 583.82 186.86 583.54 186.52C584.96 184.72 586.38 181.26 586.98 178.38ZM588.36 179.72C588.84 180.2 590.6 182.34 591 182.88L590.1 184.04C589.62 183.16 588.18 181.1 587.62 180.38L588.36 179.72ZM606.74 180.78H618.18V182.24H606.74V180.78ZM617.68 180.78H619.24C619.24 180.78 619.22 181.3 619.2 181.5C618.92 187.7 618.64 190.02 617.92 190.78C617.52 191.28 617.08 191.42 616.38 191.48C615.72 191.54 614.46 191.52 613.2 191.46C613.18 191 612.98 190.38 612.7 189.94C614.02 190.06 615.26 190.08 615.74 190.08C616.14 190.08 616.38 190.04 616.58 189.82C617.12 189.28 617.42 187 617.68 181.06V180.78ZM609.48 173.62L611.06 174.08C609.62 177.46 607.26 180.44 604.74 182.36C604.46 182.04 603.82 181.46 603.44 181.18C606 179.46 608.22 176.7 609.48 173.62ZM616.46 173.58C617.76 176.26 620.34 179.3 622.52 180.84C622.12 181.16 621.56 181.76 621.26 182.18C619.04 180.38 616.52 177.14 615.02 174.16L616.46 173.58ZM610.96 181.18H612.56C612.1 185.56 611.06 189.7 605.48 191.7C605.3 191.32 604.86 190.72 604.52 190.4C609.76 188.66 610.56 184.96 610.96 181.18ZM623.78 183.88H633.6V185.14H623.78V183.88ZM623.9 176.9H633.54V178.12H623.9V176.9ZM627.5 182.16L628.9 182.46C628 184.42 626.74 186.86 625.82 188.44L624.5 187.98C625.4 186.46 626.66 184 627.5 182.16ZM630.5 184.62L631.9 184.8C631.22 188.7 629.12 190.62 624.5 191.6C624.4 191.2 624.1 190.66 623.82 190.36C628 189.66 629.88 188.02 630.5 184.62ZM631.76 173.6L633.04 174.16C632.46 175.08 631.8 176.08 631.24 176.76L630.24 176.26C630.74 175.54 631.4 174.38 631.76 173.6ZM628.04 173.2H629.42V182.4H628.04V173.2ZM624.64 174.16L625.78 173.68C626.34 174.48 626.88 175.54 627.08 176.26L625.9 176.8C625.72 176.08 625.2 174.98 624.64 174.16ZM628.06 177.44L629.08 178.04C628.1 179.72 626.22 181.5 624.5 182.44C624.32 182.1 623.96 181.6 623.68 181.3C625.34 180.58 627.18 178.98 628.06 177.44ZM629.26 178.14C629.98 178.52 632.42 180.06 633 180.48L632.18 181.58C631.46 180.9 629.38 179.34 628.54 178.78L629.26 178.14ZM635.06 176.9H642.18V178.3H635.06V176.9ZM635.56 173.2L637.08 173.42C636.42 177.34 635.24 180.92 633.48 183.26C633.24 182.98 632.62 182.48 632.26 182.24C633.96 180.12 635 176.74 635.56 173.2ZM639.5 177.7L641.02 177.86C640.06 184.76 637.94 189.06 632.9 191.66C632.74 191.3 632.3 190.64 632 190.32C636.76 188.08 638.68 184.04 639.5 177.7ZM635.86 178.14C636.74 183.64 638.66 188.36 642.38 190.32C642.02 190.62 641.54 191.2 641.32 191.6C637.4 189.3 635.5 184.42 634.5 178.36L635.86 178.14ZM625.7 187.7L626.5 186.68C628.9 187.6 631.38 188.92 632.82 190.02L631.78 191.1C630.4 189.98 628.02 188.64 625.7 187.7ZM108.703 212.077V202.474H110.614V212.077H108.703ZM104.861 208.227V206.317H114.463V208.227H104.861ZM123.6 199.36L124.94 198.7C126.28 200.16 127.56 202.14 128.14 203.5L126.7 204.28C126.18 202.9 124.88 200.84 123.6 199.36ZM117.02 210.88C119.06 210.08 122.26 208.72 125.26 207.4L125.6 208.86C122.82 210.14 119.78 211.48 117.56 212.44L117.02 210.88ZM129.02 208.24L130.18 207.26C132.08 209.14 134.56 211.74 135.74 213.38L134.46 214.56C133.34 212.9 130.94 210.2 129.02 208.24ZM131.8 197.24L133.42 197.4C132.4 206.64 130.06 211.74 123.06 214.66C122.84 214.34 122.24 213.68 121.86 213.36C128.78 210.84 130.9 205.94 131.8 197.24ZM119.46 197.3L121 197.24L121.34 210.46L119.8 210.52L119.46 197.3ZM148.64 196.24L150.08 196.54C149.24 199.74 147.86 202.7 146.14 204.64C145.88 204.42 145.26 203.96 144.9 203.74C146.6 201.98 147.9 199.2 148.64 196.24ZM148.56 199.02H155.2V200.4H148L148.56 199.02ZM137.24 212.72H155.44V214.08H137.24V212.72ZM139.5 207H153.3V213.22H151.84V208.28H149.1V213.22H147.7V208.28H145V213.22H143.6V208.28H140.92V213.22H139.5V207ZM148.98 202.58L150.12 201.78C151.54 202.72 153.3 204.1 154.18 205.02L153 205.94C152.16 205 150.42 203.58 148.98 202.58ZM142.66 196.28H144.16V205.78H142.66V196.28ZM138.74 196.94H140.2V205.16H138.74V196.94ZM157.6 202.14H174.82V203.44H157.6V202.14ZM159.14 198.58H170.5V199.84H159.14V198.58ZM164.24 196.2H165.72V202.78H164.24V196.2ZM171.74 204.72L172.72 205.74C170.2 206.42 166.3 206.88 163.04 207.12C163 206.82 162.82 206.34 162.68 206.08C165.84 205.8 169.64 205.3 171.74 204.72ZM172.8 197.14L174.02 197.82C169.98 202.72 163.9 206.44 157.74 208.8C157.54 208.5 157.08 207.9 156.78 207.62C163.02 205.46 169.04 201.74 172.8 197.14ZM162.46 204.76L163.94 204.94C163.52 206.88 162.92 209.34 162.46 210.84L160.96 210.64C161.46 209.12 162.08 206.62 162.46 204.76ZM171.18 208.6H172.7C172.7 208.6 172.66 209.04 172.62 209.28C172.14 212.24 171.7 213.56 171.04 214.14C170.62 214.52 170.2 214.62 169.5 214.64C168.88 214.68 167.7 214.66 166.46 214.58C166.42 214.18 166.24 213.6 165.98 213.2C167.24 213.32 168.54 213.34 169.02 213.34C169.44 213.34 169.68 213.32 169.88 213.16C170.38 212.76 170.8 211.54 171.16 208.8L171.18 208.6ZM162.24 208.6H171.58V209.86H161.92L162.24 208.6ZM187.38 198.36H193.02V199.68H187.38V198.36ZM185.56 207.28H193.98V214.56H192.54V208.58H186.96V214.62H185.56V207.28ZM186.16 212.42H193.3V213.74H186.16V212.42ZM187.96 196.18L189.4 196.58C188.32 199.24 186.56 201.74 184.74 203.32C184.5 203.06 183.9 202.54 183.56 202.32C185.4 200.88 187.02 198.6 187.96 196.18ZM192.6 198.36H192.88L193.14 198.3L194.08 198.74C192.36 203.7 188.24 206.88 183.98 208.42C183.8 208.04 183.42 207.48 183.12 207.2C187.14 205.94 191.14 202.86 192.6 198.62V198.36ZM187.26 199.4C188.5 202.24 191.44 205.38 195.84 206.72C195.54 207 195.12 207.6 194.92 207.96C190.46 206.4 187.52 203.08 186.16 200.1L187.26 199.4ZM177.34 200.5H184.38V201.92H177.34V200.5ZM180.36 196.2H181.78V214.58H180.36V196.2ZM180.3 201.38L181.24 201.7C180.58 204.92 179.16 208.82 177.66 210.84C177.5 210.44 177.14 209.86 176.86 209.52C178.28 207.72 179.7 204.26 180.3 201.38ZM181.68 202.72C182.16 203.2 183.92 205.34 184.32 205.88L183.42 207.04C182.94 206.16 181.5 204.1 180.94 203.38L181.68 202.72ZM210.5 197.2L211.5 196.34C212.54 197.04 213.8 198.08 214.42 198.78L213.36 199.72C212.76 199 211.54 197.92 210.5 197.2ZM197.42 199.94H215.24V201.4H197.42V199.94ZM198.1 204.4H206.94V205.86H198.1V204.4ZM201.7 205.18H203.2V212.32H201.7V205.18ZM197.5 212.52C199.88 212.06 203.8 211.26 207.5 210.46L207.62 211.8C204.2 212.6 200.54 213.44 197.96 214.02L197.5 212.52ZM207.6 196.3H209.2C209.14 205.58 210.94 213.08 213.4 213.08C213.96 213.08 214.2 211.98 214.32 209.3C214.66 209.64 215.24 209.98 215.66 210.12C215.4 213.62 214.82 214.64 213.28 214.64C209.3 214.64 207.68 205.98 207.6 196.3ZM223.64 196.2L225.26 196.66C224.36 198 223.24 199.54 222.34 200.54L221.12 200.08C221.98 199.04 223.06 197.38 223.64 196.2ZM228.44 197.76L229.6 197.04C231.42 198.18 233.64 199.92 234.72 201.16L233.46 201.98C232.44 200.76 230.28 198.96 228.44 197.76ZM218.12 199.68C221.66 199.62 227.34 199.5 232.62 199.34L232.56 200.6C227.44 200.8 221.94 200.98 218.3 201.06L218.12 199.68ZM217.36 202.7H235.3V204H217.36V202.7ZM226.9 204.96L228.08 205.54C226.58 206.68 224.2 207.64 222.18 208.2C221.98 207.92 221.62 207.52 221.3 207.28C223.22 206.8 225.62 205.9 226.9 204.96ZM228.98 207.28L230.18 207.86C228.24 209.46 225 210.64 222.04 211.32C221.86 211 221.52 210.52 221.2 210.24C224.02 209.68 227.26 208.6 228.98 207.28ZM231.58 209.54L232.88 210.16C230.44 212.7 225.86 214.06 220.78 214.72C220.62 214.34 220.34 213.82 220.06 213.48C224.92 212.94 229.38 211.72 231.58 209.54ZM224.46 200.36L225.94 200.74C224.34 204.66 221.38 207.42 217.78 209.12C217.58 208.84 217.02 208.24 216.68 207.96C220.26 206.48 223.08 203.9 224.46 200.36ZM229.5 202.98C230.78 205 233.34 206.92 235.74 207.84C235.4 208.12 234.96 208.68 234.74 209.02C232.28 207.92 229.68 205.78 228.24 203.48L229.5 202.98ZM248.42 211.38H253.86V212.84H248.42V211.38ZM237.38 200H245.06V201.46H237.38V200ZM247.74 198.7H254.58V214.16H253.06V200.14H249.2V214.3H247.74V198.7ZM244.66 200H246.12C246.12 200 246.12 200.56 246.12 200.76C245.96 209.66 245.82 212.58 245.18 213.46C244.82 213.98 244.46 214.16 243.86 214.22C243.3 214.3 242.38 214.3 241.48 214.24C241.46 213.8 241.3 213.14 241.04 212.72C241.98 212.8 242.84 212.8 243.22 212.8C243.52 212.82 243.7 212.76 243.88 212.5C244.34 211.88 244.52 208.92 244.66 200.36V200ZM240.22 196.48H241.68C241.66 203.86 241.56 210.8 238.04 214.62C237.78 214.28 237.26 213.82 236.88 213.6C240.22 210.08 240.2 203.48 240.22 196.48ZM257.6 202.14H274.82V203.44H257.6V202.14ZM259.14 198.58H270.5V199.84H259.14V198.58ZM264.24 196.2H265.72V202.78H264.24V196.2ZM271.74 204.72L272.72 205.74C270.2 206.42 266.3 206.88 263.04 207.12C263 206.82 262.82 206.34 262.68 206.08C265.84 205.8 269.64 205.3 271.74 204.72ZM272.8 197.14L274.02 197.82C269.98 202.72 263.9 206.44 257.74 208.8C257.54 208.5 257.08 207.9 256.78 207.62C263.02 205.46 269.04 201.74 272.8 197.14ZM262.46 204.76L263.94 204.94C263.52 206.88 262.92 209.34 262.46 210.84L260.96 210.64C261.46 209.12 262.08 206.62 262.46 204.76ZM271.18 208.6H272.7C272.7 208.6 272.66 209.04 272.62 209.28C272.14 212.24 271.7 213.56 271.04 214.14C270.62 214.52 270.2 214.62 269.5 214.64C268.88 214.68 267.7 214.66 266.46 214.58C266.42 214.18 266.24 213.6 265.98 213.2C267.24 213.32 268.54 213.34 269.02 213.34C269.44 213.34 269.68 213.32 269.88 213.16C270.38 212.76 270.8 211.54 271.16 208.8L271.18 208.6ZM262.24 208.6H271.58V209.86H261.92L262.24 208.6ZM278.7 197.5L279.72 196.6C280.74 197.44 282.04 198.66 282.66 199.44L281.6 200.5C281.02 199.66 279.74 198.4 278.7 197.5ZM279.88 214.1L279.66 212.76L280.1 212.14L283.74 209.8C283.84 210.18 284 210.76 284.14 211.06C280.74 213.38 280.2 213.72 279.88 214.1ZM277.32 202.48H280.86V203.94H277.32V202.48ZM283.24 200.38H295.5V201.82H283.24V200.38ZM283.88 204.72H289.24V206.12H283.88V204.72ZM285.96 205.52H287.34V211.6L285.96 211.76V205.52ZM283.5 211.8C285.06 211.4 287.4 210.76 289.7 210.12L289.9 211.44C287.8 212.08 285.6 212.72 283.92 213.2L283.5 211.8ZM291.86 197.1L292.88 196.46C293.72 197.3 294.68 198.46 295.1 199.24L294 199.98C293.6 199.2 292.68 197.98 291.86 197.1ZM289.72 196.3H291.24C291.3 205.08 292.14 212.5 293.72 212.58C294.08 212.6 294.32 211.46 294.44 209.52C294.72 209.82 295.38 210.2 295.64 210.34C295.24 213.7 294.46 214.56 293.68 214.54C290.66 214.48 289.94 206.76 289.72 196.3ZM279.88 214.1C279.76 213.72 279.38 213.08 279.12 212.78C279.48 212.56 280.08 211.98 280.08 211.14V202.48H281.52V212.44C281.52 212.44 279.88 213.54 279.88 214.1ZM300.2 208.14C301.88 208.14 303.24 209.5 303.24 211.18C303.24 212.86 301.88 214.22 300.2 214.22C298.52 214.22 297.14 212.86 297.14 211.18C297.14 209.5 298.52 208.14 300.2 208.14ZM300.2 213.2C301.32 213.2 302.22 212.3 302.22 211.18C302.22 210.06 301.32 209.16 300.2 209.16C299.08 209.16 298.16 210.06 298.16 211.18C298.16 212.3 299.08 213.2 300.2 213.2Z" fill="#2D3342"/>
<path d="M218.428 281.8H235.948V283.22H218.428V281.8ZM223.308 288.94H232.708V290.24H223.308V288.94ZM222.248 285.54H232.468V286.88H223.728V297.6H222.248V285.54ZM232.128 285.54H233.588V295.74C233.588 296.62 233.408 297.08 232.728 297.32C232.088 297.56 230.968 297.56 229.248 297.56C229.188 297.14 228.968 296.52 228.748 296.1C230.088 296.16 231.308 296.14 231.668 296.14C232.008 296.12 232.128 296.02 232.128 295.72V285.54ZM224.968 279.2L226.488 279.56C225.128 283.96 222.728 288.4 218.908 291.08C218.708 290.74 218.248 290.22 217.948 289.92C221.528 287.46 223.888 283.22 224.968 279.2ZM223.308 292.32H232.708V293.62H223.308V292.32ZM241.268 283.72H253.028V285.16H241.268V283.72ZM240.528 288.6H253.848V290.02H240.528V288.6ZM247.888 289.08C248.808 292.6 250.868 295.22 254.308 296.28C253.948 296.6 253.508 297.2 253.288 297.6C249.708 296.3 247.628 293.42 246.588 289.36L247.888 289.08ZM250.848 279.24L252.408 279.78C251.688 281.06 250.808 282.54 250.108 283.48L248.888 282.98C249.548 281.98 250.388 280.36 250.848 279.24ZM242.088 280.06L243.308 279.44C244.148 280.46 245.028 281.88 245.388 282.82L244.088 283.54C243.748 282.58 242.888 281.12 242.088 280.06ZM246.268 284.06H247.828V288.22C247.828 291.3 247.088 295.12 240.948 297.68C240.728 297.32 240.268 296.8 239.908 296.5C245.868 294.24 246.268 290.8 246.268 288.22V284.06ZM273.168 282.2L274.688 282.8C273.728 284.48 272.468 286.46 271.448 287.74L270.228 287.16C271.228 285.86 272.468 283.72 273.168 282.2ZM260.028 283.56L261.308 283.04C262.168 284.16 263.008 285.66 263.308 286.7L261.928 287.28C261.668 286.26 260.868 284.72 260.028 283.56ZM265.408 282.8L266.788 282.38C267.408 283.52 267.988 285.04 268.108 286.04L266.648 286.52C266.508 285.54 266.008 283.98 265.408 282.8ZM266.328 286.7H267.888V297.58H266.328V286.7ZM258.348 288.54H275.988V290H258.348V288.54ZM273.728 279.44L274.928 280.78C270.788 281.54 264.588 282.02 259.368 282.18C259.328 281.78 259.128 281.14 258.988 280.78C264.128 280.58 270.248 280.12 273.728 279.44ZM265.888 289.04L267.188 289.6C265.288 292.6 261.968 295.4 258.968 296.84C258.708 296.44 258.208 295.86 257.848 295.54C260.848 294.28 264.168 291.66 265.888 289.04ZM268.308 289.02C270.068 291.62 273.468 294.24 276.488 295.5C276.128 295.82 275.628 296.4 275.368 296.82C272.328 295.38 268.968 292.52 267.028 289.6L268.308 289.02ZM281.468 283.36H282.688V288.6C282.688 291.44 282.268 295.2 278.768 297.56C278.588 297.28 278.188 296.86 277.908 296.64C281.248 294.58 281.468 291.08 281.468 288.58V283.36ZM282.368 293.7L283.388 292.98C284.368 294.04 285.588 295.52 286.168 296.42L285.088 297.26C284.528 296.32 283.348 294.8 282.368 293.7ZM278.768 280.4H285.368V292.46H284.148V281.76H279.968V292.5H278.768V280.4ZM288.568 279.2L290.028 279.52C289.268 282.3 288.048 285.08 286.688 286.86C286.428 286.62 285.808 286.16 285.468 285.94C286.828 284.3 287.928 281.76 288.568 279.2ZM288.368 282.38H295.028V283.76H287.668L288.368 282.38ZM294.368 282.38H295.808C295.808 282.38 295.808 282.94 295.788 283.16C295.528 292.64 295.288 295.78 294.568 296.74C294.148 297.3 293.748 297.48 293.088 297.56C292.508 297.62 291.528 297.6 290.548 297.56C290.508 297.12 290.348 296.48 290.088 296.06C291.148 296.16 292.108 296.16 292.508 296.16C292.868 296.16 293.068 296.1 293.268 295.82C293.868 295.14 294.128 291.82 294.368 282.72V282.38ZM286.868 293.3L286.788 292.16L287.468 291.68L292.328 290.78C292.368 291.12 292.488 291.64 292.588 291.92C287.888 292.88 287.248 293.06 286.868 293.3ZM286.868 293.3C286.788 293 286.588 292.36 286.408 292C286.708 291.92 286.968 291.46 287.248 290.78C287.548 290.14 288.488 287.6 288.888 285.32L290.288 285.7C289.688 288.12 288.708 290.72 287.768 292.52V292.54C287.768 292.54 286.868 293 286.868 293.3ZM290.568 288.36L291.648 288.02C292.348 289.58 293.088 291.66 293.368 292.88L292.208 293.32C291.948 292.06 291.268 289.94 290.568 288.36ZM299.788 282.42H305.868V295.5H299.788V294.14H304.468V283.76H299.788V282.42ZM298.888 282.42H300.288V297.1H298.888V282.42ZM299.688 287.98H305.208V289.32H299.688V287.98ZM301.948 279.16L303.568 279.46C303.168 280.7 302.668 282.08 302.268 282.98L301.068 282.68C301.408 281.72 301.788 280.2 301.948 279.16ZM308.708 282.36H314.848V283.76H308.708V282.36ZM314.328 282.36H315.728C315.728 282.36 315.728 282.92 315.728 283.14C315.408 292.32 315.128 295.42 314.328 296.4C313.888 296.98 313.428 297.16 312.728 297.22C312.048 297.3 310.868 297.26 309.748 297.2C309.708 296.76 309.528 296.14 309.248 295.74C310.548 295.84 311.748 295.86 312.208 295.86C312.608 295.86 312.848 295.8 313.068 295.54C313.728 294.82 314.048 291.5 314.328 282.68V282.36ZM309.128 279.12L310.568 279.46C309.828 282.44 308.648 285.38 307.268 287.28C307.008 287.04 306.388 286.62 306.028 286.42C307.388 284.66 308.488 281.9 309.128 279.12ZM308.208 287.56L309.368 286.88C310.508 288.3 311.888 290.24 312.528 291.42L311.248 292.22C310.648 291 309.308 289.02 308.208 287.56ZM318.448 280.28H335.868V281.64H318.448V280.28ZM326.508 280.86H328.068V288.62C328.068 292.48 327.008 295.92 318.988 297.62C318.828 297.3 318.408 296.66 318.088 296.3C325.888 294.86 326.508 291.92 326.508 288.6V280.86ZM321.708 287.78V289.82H333.108V287.78H321.708ZM321.708 284.58V286.58H333.108V284.58H321.708ZM320.288 283.32H334.628V291.08H320.288V283.32ZM322.208 291.24C324.748 295.2 329.308 295.88 336.528 296.06C336.268 296.42 335.968 297.06 335.888 297.54C328.528 297.24 323.608 296.3 320.928 291.76L322.208 291.24ZM342.188 283.62L343.188 282.74C344.688 283.44 346.528 284.56 347.428 285.4L346.368 286.38C345.508 285.54 343.688 284.36 342.188 283.62ZM351.428 280.9H351.728L351.988 280.82L352.968 281.42C350.368 286.08 344.448 288.88 339.168 290.04C339.028 289.66 338.728 289.04 338.448 288.72C343.488 287.78 349.248 285.08 351.428 281.14V280.9ZM344.748 280.9H351.808V282.16H344.748V280.9ZM346.228 279.18L347.908 279.54C346.068 281.66 343.348 283.64 339.628 285.12C339.408 284.76 338.948 284.26 338.608 284C342.208 282.74 344.848 280.86 346.228 279.18ZM344.748 290.96L345.848 290.1C347.428 290.92 349.348 292.18 350.308 293.14L349.128 294.1C348.228 293.16 346.328 291.82 344.748 290.96ZM354.348 287.9H354.648L354.928 287.82L355.908 288.36C353.388 294.2 347.148 296.7 340.608 297.66C340.508 297.24 340.208 296.62 339.968 296.28C346.148 295.54 352.188 293.16 354.348 288.12V287.9ZM347.848 287.9H354.748V289.18H347.848V287.9ZM349.468 286.02L351.128 286.4C349.108 288.76 345.948 290.94 341.568 292.48C341.388 292.14 340.948 291.6 340.628 291.32C344.868 290 347.908 287.92 349.468 286.02ZM365.248 280.16H374.508V281.38H365.248V280.16ZM365.008 285.7H374.868V286.94H365.008V285.7ZM365.008 288.48H374.828V289.72H365.008V288.48ZM365.588 295.42H374.268V296.66H365.588V295.42ZM363.368 282.92H376.388V284.18H363.368V282.92ZM364.808 291.26H375.048V297.54H373.548V292.48H366.248V297.6H364.808V291.26ZM362.688 279.26L364.108 279.7C362.748 283.08 360.608 286.44 358.388 288.66C358.248 288.32 357.828 287.54 357.548 287.18C359.568 285.28 361.528 282.3 362.688 279.26ZM360.608 284.42L362.028 283L362.048 283.02V297.56H360.608V284.42ZM383.148 292.22H384.628V295.52C384.628 296.04 384.808 296.14 385.888 296.14C386.368 296.14 388.888 296.14 389.548 296.14C390.408 296.14 390.548 295.9 390.628 294.2C390.968 294.44 391.588 294.66 391.988 294.74C391.788 296.96 391.348 297.5 389.688 297.5C389.228 297.5 386.208 297.5 385.768 297.5C383.668 297.5 383.148 297.08 383.148 295.54V292.22ZM385.208 291.52L386.308 290.74C387.488 291.52 388.808 292.68 389.408 293.58L388.228 294.42C387.668 293.54 386.368 292.32 385.208 291.52ZM391.668 292.6L392.868 291.86C394.308 293.08 395.888 294.82 396.528 296.1L395.248 296.94C394.628 295.68 393.128 293.88 391.668 292.6ZM380.408 292.06L381.728 292.54C381.228 294.1 380.448 295.86 379.128 296.94L377.908 296.08C379.128 295.12 379.968 293.52 380.408 292.06ZM382.588 284.82V286.48H391.948V284.82H382.588ZM382.588 287.64V289.3H391.948V287.64H382.588ZM382.588 282.04V283.68H391.948V282.04H382.588ZM381.148 280.84H393.448V290.52H381.148V280.84ZM386.468 279L388.208 279.3C387.808 280.16 387.328 280.96 386.988 281.54L385.648 281.22C385.948 280.58 386.288 279.64 386.468 279ZM400.308 298.14L399.848 297.1C401.488 296.42 402.388 295.4 402.388 293.9L402.008 292.2L403.088 293.72C402.808 294.08 402.408 294.18 402.028 294.18C401.208 294.18 400.528 293.7 400.528 292.74C400.528 291.8 401.248 291.3 402.048 291.3C403.168 291.3 403.768 292.22 403.768 293.62C403.768 295.78 402.408 297.42 400.308 298.14ZM419.288 280.58L420.268 279.66C421.328 280.54 422.668 281.8 423.308 282.6L422.288 283.68C421.668 282.84 420.348 281.52 419.288 280.58ZM420.828 297.24L420.548 295.84L420.948 295.2L424.508 292.54C424.608 292.94 424.848 293.52 425.028 293.8C421.648 296.42 421.128 296.84 420.828 297.24ZM417.988 285.48H421.868V286.94H417.988V285.48ZM420.828 297.24C420.688 296.88 420.308 296.26 420.028 295.96C420.408 295.74 421.008 295.14 421.008 294.26V285.48H422.448V295.52C422.448 295.52 420.828 296.68 420.828 297.24ZM426.708 290.7H433.708V291.78H426.708V290.7ZM424.808 280.78H435.748V281.92H424.808V280.78ZM425.288 283.2H435.128V284.3H425.288V283.2ZM424.208 285.7H436.348V286.84H424.208V285.7ZM426.688 293.4H433.748V294.5H426.688V293.4ZM425.628 288.02H433.768V289.18H427.048V297.58H425.628V288.02ZM433.308 288.02H434.748V295.92C434.748 296.68 434.588 297.08 434.028 297.3C433.468 297.52 432.568 297.54 431.148 297.52C431.088 297.16 430.888 296.6 430.708 296.22C431.728 296.26 432.688 296.26 432.948 296.24C433.228 296.24 433.308 296.16 433.308 295.9V288.02ZM429.428 279.2H430.928V286.06H429.428V279.2ZM449.528 279.22H451.028V282.66H449.528V279.22ZM444.828 281.98H456.128V285.86H454.668V283.32H446.248V285.88H444.828V281.98ZM448.848 284.04L450.328 284.26C449.408 287.22 448.008 291.12 447.048 293.52L445.668 293.06C446.648 290.78 448.008 286.86 448.848 284.04ZM444.628 287.24H456.348V288.6H444.628V287.24ZM452.868 288.06L454.468 288.14C453.548 294.06 450.568 296.42 444.708 297.64C444.608 297.28 444.208 296.66 443.948 296.34C449.488 295.42 452.208 293.3 452.868 288.06ZM446.568 292.62L447.428 291.52C450.668 292.56 454.488 294.54 456.348 296.36L455.368 297.6C453.588 295.8 449.828 293.72 446.568 292.62ZM437.728 289.84C439.448 289.4 442.008 288.64 444.488 287.92L444.668 289.28C442.388 290 439.988 290.76 438.128 291.3L437.728 289.84ZM437.988 283.24H444.468V284.64H437.988V283.24ZM440.768 279.22H442.228V295.88C442.228 296.7 442.028 297.12 441.508 297.34C440.988 297.58 440.188 297.62 438.848 297.6C438.808 297.24 438.588 296.64 438.408 296.24C439.308 296.26 440.148 296.26 440.388 296.26C440.668 296.26 440.768 296.16 440.768 295.88V279.22ZM459.008 280.08H460.428V292.54H459.008V280.08ZM459.768 280.08H464.848V291.54H459.768V290.16H463.448V281.42H459.768V280.08ZM459.748 284.92H464.168V286.26H459.748V284.92ZM465.708 280.04H474.668V281.38H465.708V280.04ZM474.188 280.04H475.628C475.628 280.04 475.628 280.42 475.608 280.62C475.408 283.52 475.228 284.72 474.788 285.18C474.488 285.5 474.128 285.6 473.608 285.64C473.148 285.68 472.268 285.68 471.348 285.64C471.308 285.26 471.168 284.74 470.968 284.38C471.828 284.46 472.648 284.48 472.968 284.48C473.268 284.48 473.448 284.44 473.588 284.3C473.888 284 474.048 282.98 474.188 280.24V280.04ZM469.188 280.46H470.688C470.328 283.38 469.348 285.3 465.908 286.34C465.768 286 465.388 285.48 465.068 285.22C468.128 284.38 468.928 282.82 469.188 280.46ZM467.728 287.88V290.92H473.568V287.88H467.728ZM466.308 286.62H475.048V292.18H466.308V286.62ZM463.968 293.52L465.348 293.36C465.608 294.66 465.828 296.32 465.848 297.32L464.368 297.54C464.368 296.52 464.208 294.82 463.968 293.52ZM468.248 293.46L469.648 293.2C470.188 294.44 470.728 296.12 470.928 297.16L469.448 297.48C469.268 296.46 468.768 294.74 468.248 293.46ZM472.328 293.34L473.668 292.8C474.628 294.1 475.788 295.88 476.288 297L474.848 297.64C474.388 296.52 473.268 294.68 472.328 293.34ZM460.648 292.94L462.068 293.34C461.368 294.84 460.368 296.56 459.448 297.7L458.008 297.08C458.928 296.06 459.968 294.4 460.648 292.94ZM479.908 279.24L481.208 279.58C480.608 281.78 479.628 284.06 478.468 285.56C478.348 285.26 477.948 284.54 477.708 284.24C478.688 282.98 479.468 281.14 479.908 279.24ZM479.928 281.5H483.888V282.82H479.648L479.928 281.5ZM480.188 297.38L479.948 296.08L480.348 295.5L483.508 293.4C483.608 293.76 483.808 294.28 483.948 294.54C480.928 296.64 480.468 297.02 480.188 297.38ZM478.808 285.24H483.528V286.54H478.808V285.24ZM478.108 289.36H483.968V290.68H478.108V289.36ZM480.188 297.38C480.028 297.08 479.628 296.56 479.388 296.32C479.748 296.06 480.368 295.38 480.368 294.4V285.96H481.748V295.5C481.748 295.5 480.188 296.8 480.188 297.38ZM487.368 281.6H496.248V282.9H487.368V281.6ZM491.428 283.84H492.768V294.96H491.428V283.84ZM488.048 287.8C487.968 287.52 487.768 286.86 487.608 286.52C487.908 286.42 488.208 285.92 488.548 285.18C488.868 284.48 489.968 281.68 490.468 279.16L491.908 279.46C491.168 282.18 490.028 285.06 488.928 287.02V287.04C488.928 287.04 488.048 287.52 488.048 287.8ZM488.048 287.8V286.64L488.848 286.26H495.728V287.52H489.608C488.828 287.52 488.228 287.64 488.048 287.8ZM487.548 290.18H496.148V291.52H487.548V290.18ZM486.908 286.32V294.88H485.528V287.7H483.608V286.32H486.908ZM484.188 280.4L485.388 279.98C486.028 281.1 486.728 282.52 487.028 283.48L485.748 283.98C485.448 283 484.788 281.5 484.188 280.4ZM486.368 293.94C486.948 293.94 487.388 294.44 488.228 294.96C489.228 295.58 490.408 295.76 491.968 295.76C493.228 295.76 495.268 295.68 496.608 295.52C496.448 295.92 496.248 296.66 496.228 297.08C495.188 297.14 493.148 297.2 491.928 297.2C490.268 297.2 489.048 296.92 487.968 296.26C487.288 295.78 486.748 295.28 486.348 295.28C485.788 295.28 484.928 296.34 484.168 297.42L483.188 296.04C484.288 294.86 485.448 293.94 486.368 293.94ZM509.388 279.2H510.908V281.94H509.388V279.2ZM504.648 281.34H515.768V282.64H504.648V281.34ZM503.848 286.02H516.328V287.34H503.848V286.02ZM506.528 282.82L507.828 282.56C508.268 283.64 508.648 285.04 508.728 285.9L507.368 286.24C507.308 285.36 506.948 283.92 506.528 282.82ZM512.468 282.52L513.948 282.74C513.528 283.92 513.048 285.28 512.628 286.18L511.348 285.96C511.748 285.02 512.228 283.52 512.468 282.52ZM503.948 289.32H516.248V290.62H503.948V289.32ZM508.528 286.98L510.028 287.28C509.008 289.58 507.588 292.5 506.568 294.34L505.268 293.9C506.268 292.12 507.648 289.16 508.528 286.98ZM506.288 293.64L507.168 292.62C510.188 293.48 513.948 295.08 515.888 296.48L514.928 297.62C513.088 296.26 509.348 294.56 506.288 293.64ZM512.468 290.16L513.928 290.38C512.968 294.84 510.228 296.78 504.048 297.6C503.948 297.18 503.688 296.66 503.448 296.34C509.208 295.76 511.608 294.06 512.468 290.16ZM497.708 289.84C499.328 289.44 501.768 288.72 504.128 288.04L504.308 289.38C502.128 290.06 499.828 290.78 498.048 291.32L497.708 289.84ZM498.048 283.24H504.148V284.64H498.048V283.24ZM500.768 279.22H502.208V295.78C502.208 296.64 502.028 297.06 501.508 297.3C500.988 297.56 500.168 297.6 498.868 297.6C498.808 297.22 498.608 296.56 498.408 296.14C499.308 296.18 500.148 296.18 500.388 296.16C500.648 296.16 500.768 296.08 500.768 295.78V279.22ZM519.995 296.135C519.606 296.135 519.273 295.998 518.993 295.723C518.714 295.444 518.574 295.107 518.574 294.714C518.574 294.326 518.714 293.995 518.993 293.72C519.273 293.441 519.606 293.301 519.995 293.301C520.383 293.301 520.717 293.441 520.996 293.72C521.275 293.995 521.415 294.326 521.415 294.714C521.415 294.975 521.349 295.214 521.216 295.432C521.088 295.645 520.918 295.815 520.705 295.943C520.492 296.071 520.255 296.135 519.995 296.135ZM519.995 288.195C519.606 288.195 519.273 288.055 518.993 287.776C518.714 287.496 518.574 287.162 518.574 286.774C518.574 286.386 518.714 286.054 518.993 285.78C519.273 285.5 519.606 285.361 519.995 285.361C520.383 285.361 520.717 285.5 520.996 285.78C521.275 286.054 521.415 286.386 521.415 286.774C521.415 287.035 521.349 287.274 521.216 287.491C521.088 287.705 520.918 287.875 520.705 288.003C520.492 288.131 520.255 288.195 519.995 288.195Z" fill="#2D3342"/>
<path d="M331.948 318.693V325H328.922V310.455H331.863V316.016H331.99C332.237 315.372 332.634 314.867 333.184 314.503C333.733 314.134 334.422 313.949 335.25 313.949C336.008 313.949 336.668 314.115 337.232 314.446C337.8 314.773 338.24 315.244 338.553 315.859C338.87 316.47 339.026 317.202 339.022 318.054V325H335.996V318.594C336.001 317.921 335.83 317.398 335.485 317.024C335.144 316.65 334.666 316.463 334.05 316.463C333.638 316.463 333.274 316.551 332.956 316.726C332.644 316.901 332.398 317.157 332.218 317.493C332.042 317.824 331.953 318.224 331.948 318.693ZM347.205 314.091V316.364H340.636V314.091H347.205ZM342.127 311.477H345.153V321.648C345.153 321.927 345.195 322.145 345.281 322.301C345.366 322.453 345.484 322.559 345.636 322.621C345.792 322.682 345.972 322.713 346.175 322.713C346.317 322.713 346.46 322.701 346.602 322.678C346.744 322.649 346.853 322.628 346.928 322.614L347.404 324.865C347.253 324.912 347.04 324.967 346.765 325.028C346.49 325.095 346.156 325.135 345.763 325.149C345.034 325.178 344.395 325.08 343.846 324.858C343.301 324.635 342.878 324.29 342.575 323.821C342.272 323.352 342.122 322.76 342.127 322.045V311.477ZM354.979 314.091V316.364H348.409V314.091H354.979ZM349.901 311.477H352.926V321.648C352.926 321.927 352.969 322.145 353.054 322.301C353.139 322.453 353.258 322.559 353.409 322.621C353.565 322.682 353.745 322.713 353.949 322.713C354.091 322.713 354.233 322.701 354.375 322.678C354.517 322.649 354.626 322.628 354.702 322.614L355.178 324.865C355.026 324.912 354.813 324.967 354.538 325.028C354.264 325.095 353.93 325.135 353.537 325.149C352.808 325.178 352.169 325.08 351.619 324.858C351.075 324.635 350.651 324.29 350.348 323.821C350.045 323.352 349.896 322.76 349.901 322.045V311.477ZM356.95 329.091V314.091H359.933V315.923H360.067C360.2 315.63 360.392 315.331 360.643 315.028C360.898 314.721 361.23 314.465 361.637 314.261C362.049 314.053 362.56 313.949 363.171 313.949C363.967 313.949 364.701 314.157 365.373 314.574C366.045 314.986 366.583 315.608 366.985 316.442C367.388 317.27 367.589 318.31 367.589 319.56C367.589 320.777 367.392 321.804 366.999 322.642C366.611 323.475 366.081 324.107 365.408 324.538C364.741 324.964 363.993 325.178 363.164 325.178C362.577 325.178 362.077 325.08 361.665 324.886C361.258 324.692 360.924 324.448 360.664 324.155C360.404 323.857 360.205 323.556 360.067 323.253H359.975V329.091H356.95ZM359.911 319.545C359.911 320.194 360.001 320.76 360.181 321.243C360.361 321.726 360.621 322.102 360.962 322.372C361.303 322.637 361.718 322.77 362.205 322.77C362.698 322.77 363.114 322.635 363.455 322.365C363.796 322.09 364.054 321.712 364.229 321.229C364.409 320.741 364.499 320.18 364.499 319.545C364.499 318.916 364.412 318.362 364.237 317.884C364.061 317.405 363.803 317.031 363.462 316.761C363.121 316.491 362.702 316.357 362.205 316.357C361.713 316.357 361.296 316.487 360.955 316.747C360.619 317.008 360.361 317.377 360.181 317.855C360.001 318.333 359.911 318.897 359.911 319.545ZM378.683 317.202L375.913 317.372C375.865 317.135 375.763 316.922 375.607 316.733C375.451 316.539 375.245 316.385 374.989 316.271C374.738 316.153 374.438 316.094 374.087 316.094C373.619 316.094 373.223 316.193 372.901 316.392C372.579 316.586 372.418 316.847 372.418 317.173C372.418 317.434 372.522 317.654 372.731 317.834C372.939 318.014 373.297 318.158 373.803 318.267L375.778 318.665C376.838 318.883 377.629 319.233 378.15 319.716C378.671 320.199 378.931 320.833 378.931 321.619C378.931 322.334 378.72 322.962 378.299 323.501C377.882 324.041 377.309 324.463 376.58 324.766C375.856 325.064 375.02 325.213 374.073 325.213C372.629 325.213 371.478 324.912 370.621 324.311C369.769 323.705 369.27 322.881 369.123 321.839L372.099 321.683C372.189 322.124 372.406 322.46 372.752 322.692C373.098 322.919 373.54 323.033 374.08 323.033C374.611 323.033 375.037 322.931 375.359 322.727C375.685 322.519 375.851 322.251 375.856 321.925C375.851 321.65 375.735 321.425 375.508 321.25C375.281 321.07 374.93 320.933 374.457 320.838L372.567 320.462C371.502 320.249 370.709 319.879 370.188 319.354C369.672 318.828 369.414 318.158 369.414 317.344C369.414 316.643 369.603 316.039 369.982 315.533C370.366 315.026 370.903 314.635 371.594 314.361C372.29 314.086 373.105 313.949 374.038 313.949C375.415 313.949 376.5 314.24 377.29 314.822C378.086 315.405 378.55 316.198 378.683 317.202ZM387.172 309.773L382.484 327.188H379.877L384.565 309.773H387.172ZM394.964 309.773L390.277 327.188H387.67L392.358 309.773H394.964ZM397.39 325.185C396.921 325.185 396.519 325.019 396.183 324.688C395.851 324.351 395.685 323.949 395.685 323.48C395.685 323.016 395.851 322.618 396.183 322.287C396.519 321.955 396.921 321.79 397.39 321.79C397.844 321.79 398.242 321.955 398.583 322.287C398.924 322.618 399.094 323.016 399.094 323.48C399.094 323.793 399.014 324.079 398.853 324.339C398.697 324.595 398.491 324.801 398.235 324.957C397.979 325.109 397.698 325.185 397.39 325.185ZM403.347 325.185C402.878 325.185 402.476 325.019 402.14 324.688C401.808 324.351 401.642 323.949 401.642 323.48C401.642 323.016 401.808 322.618 402.14 322.287C402.476 321.955 402.878 321.79 403.347 321.79C403.801 321.79 404.199 321.955 404.54 322.287C404.881 322.618 405.051 323.016 405.051 323.48C405.051 323.793 404.971 324.079 404.81 324.339C404.654 324.595 404.448 324.801 404.192 324.957C403.936 325.109 403.655 325.185 403.347 325.185ZM409.304 325.185C408.835 325.185 408.433 325.019 408.097 324.688C407.765 324.351 407.599 323.949 407.599 323.48C407.599 323.016 407.765 322.618 408.097 322.287C408.433 321.955 408.835 321.79 409.304 321.79C409.759 321.79 410.156 321.955 410.497 322.287C410.838 322.618 411.009 323.016 411.009 323.48C411.009 323.793 410.928 324.079 410.767 324.339C410.611 324.595 410.405 324.801 410.149 324.957C409.893 325.109 409.612 325.185 409.304 325.185Z" fill="#6663CF"/>
<path d="M298.784 42.72L301.52 43.56C299.96 47.664 297.464 51.984 294.848 54.72C294.584 54.024 293.792 52.44 293.312 51.744C295.496 49.56 297.56 46.152 298.784 42.72ZM296.36 49.344L299.096 46.608L299.12 46.632V65.136H296.36V49.344ZM301.976 54.48H314.936V65.064H311.96V57.216H304.832V65.16H301.976V54.48ZM306.872 42.6H309.872V55.944H306.872V42.6ZM300.872 47.52H316.256V50.304H300.872V47.52ZM303.368 61.416H313.616V64.152H303.368V61.416ZM319.76 44.712L321.584 42.864C322.928 43.896 324.776 45.384 325.64 46.416L323.696 48.504C322.904 47.472 321.104 45.84 319.76 44.712ZM321.512 65.064L320.84 62.256L321.488 61.32L326.792 57.6C326.96 58.416 327.392 59.664 327.704 60.24C322.832 63.768 321.968 64.464 321.512 65.064ZM317.912 50.016H323.264V52.872H317.912V50.016ZM325.784 50.184H340.208V53.184H325.784V50.184ZM331.568 42.72H334.664V65.16H331.568V42.72ZM321.512 65.064C321.272 64.296 320.576 62.976 320.072 62.376C320.648 62.016 321.392 61.2 321.392 60.12V50.016H324.344V62.28C324.344 62.28 321.512 64.008 321.512 65.064ZM345.632 66.312L344.864 64.392C346.88 63.744 347.984 62.568 347.984 61.2L347.816 58.824L349.136 60.984C348.752 61.344 348.248 61.512 347.72 61.512C346.52 61.512 345.416 60.744 345.416 59.352C345.416 58.008 346.496 57.192 347.792 57.192C349.472 57.192 350.384 58.488 350.384 60.504C350.384 63.216 348.608 65.424 345.632 66.312ZM382.232 44.376L384.272 42.936C385.544 43.92 387.032 45.36 387.68 46.416L385.52 48.048C384.92 46.992 383.48 45.456 382.232 44.376ZM366.08 48.36H387.944V50.88H366.08V48.36ZM367.136 44.4H377.6V46.752H367.136V44.4ZM369.224 56.088H377.24V57.792H369.224V56.088ZM369.224 58.824H377.24V60.528H369.224V58.824ZM369.224 61.632H377.648V63.888H369.224V61.632ZM371.072 42.6H373.808V49.752H371.072V42.6ZM372.272 54.192H374.576V62.352H372.272V54.192ZM373.448 50.952L376.04 51.48C375.392 52.632 374.72 53.784 374.192 54.576L372.248 54.048C372.68 53.16 373.208 51.864 373.448 50.952ZM369.128 50.712L371.576 51.384C370.616 53.736 369.056 56.136 367.52 57.648C367.064 57.216 366.08 56.376 365.528 55.968C367.016 54.696 368.36 52.704 369.128 50.712ZM370.232 52.968H377.648V55.104H370.232V64.896H367.784V55.152L369.8 52.968H370.232ZM378.488 42.648H381.392C381.152 52.896 382.808 62.352 385.184 62.352C385.712 62.352 386 61.2 386.096 58.416C386.72 59.04 387.68 59.664 388.424 59.928C388.016 64.104 387.104 65.16 384.944 65.16C379.832 65.16 378.512 54.072 378.488 42.648ZM384.536 51.528L387.176 52.32C385.424 57.984 382.52 62.304 378.32 65.208C377.888 64.488 377.024 63.528 376.304 62.928C380.216 60.624 383.024 56.616 384.536 51.528ZM401.84 50.16H410.696V53.04H401.84V50.16ZM389.96 61.08H411.992V63.936H389.96V61.08ZM400.424 42.624H403.496V62.592H400.424V42.624ZM393.032 47.592H396.032V62.472H393.032V47.592ZM416.672 44.064H433.424V64.848H430.328V46.968H419.648V64.872H416.672V44.064ZM418.712 52.128H431.624V54.984H418.712V52.128ZM418.688 60.408H431.624V63.312H418.688V60.408ZM451.736 43.704H457.952V46.296H451.736V43.704ZM451.736 49.128H457.952V51.648H451.736V49.128ZM451.736 54.6H457.976V57.168H451.736V54.6ZM456.704 43.704H459.488V61.992C459.488 63.384 459.224 64.176 458.36 64.608C457.52 65.064 456.296 65.136 454.496 65.136C454.424 64.368 454.04 63.12 453.68 62.4C454.712 62.448 455.888 62.448 456.224 62.424C456.584 62.424 456.704 62.304 456.704 61.944V43.704ZM450.56 43.704H453.248V52.512C453.248 56.304 452.936 61.8 450.896 65.208C450.416 64.704 449.24 63.864 448.616 63.576C450.416 60.504 450.56 55.944 450.56 52.512V43.704ZM437.984 45.456H449.744V47.952H437.984V45.456ZM441.128 49.368H446.84V51.576H441.128V49.368ZM441.128 53.112H446.864V55.296H441.128V53.112ZM437.696 56.904H449.576V59.424H437.696V56.904ZM439.88 42.888H442.472V57.816H439.88V42.888ZM445.472 42.888H448.112V57.816H445.472V42.888ZM440.696 59.592L443.408 60.384C442.52 62.16 441.104 64.032 439.832 65.208C439.28 64.728 438.176 63.912 437.504 63.528C438.8 62.544 440.024 61.056 440.696 59.592ZM444.248 60.672L446.432 59.472C447.392 60.528 448.616 61.992 449.168 62.976L446.84 64.344C446.36 63.384 445.208 61.8 444.248 60.672Z" fill="url(#paint0_linear_953_6612)"/>
<path d="M89.5607 113.706C88.8876 113.606 72.5925 111.433 73.2713 96.2752C73.3336 94.8825 73.5073 93.6156 73.7773 92.4672M89.5607 113.706C80.6292 113.116 76.0907 109.618 74.0596 105.425M89.5607 113.706C90.6413 113.867 91.7557 113.854 92.8582 113.679M73.7773 92.4672C74.1153 91.0294 74.6042 89.7773 75.2145 88.6963M73.7773 92.4672C72.5605 95.8375 71.9236 101.015 74.0596 105.425M75.2145 88.6963C80.2173 79.8348 93.3741 82.4821 98.3841 88.6963C100.35 91.1368 104.47 97.3259 102.462 105.062C101.204 109.912 97.1203 113.005 92.8582 113.679M75.2145 88.6963C73.3108 91.3706 70.5488 97.6331 72.9101 103.313M74.0596 105.425C73.587 104.735 73.2079 104.029 72.9101 103.313M92.8582 113.679C87.2222 114.66 75.3423 113.959 72.9101 103.313" stroke="#6663CF" stroke-linecap="round"/>
<path d="M89.5607 198.706C88.8876 198.606 72.5925 196.433 73.2713 181.275C73.3336 179.882 73.5073 178.616 73.7773 177.467M89.5607 198.706C80.6292 198.116 76.0907 194.618 74.0596 190.425M89.5607 198.706C90.6413 198.867 91.7557 198.854 92.8582 198.679M73.7773 177.467C74.1153 176.029 74.6042 174.777 75.2145 173.696M73.7773 177.467C72.5605 180.838 71.9236 186.015 74.0596 190.425M75.2145 173.696C80.2173 164.835 93.3741 167.482 98.3841 173.696C100.35 176.137 104.47 182.326 102.462 190.062C101.204 194.912 97.1203 198.005 92.8582 198.679M75.2145 173.696C73.3108 176.371 70.5488 182.633 72.9101 188.313M74.0596 190.425C73.587 189.735 73.2079 189.029 72.9101 188.313M92.8582 198.679C87.2222 199.66 75.3423 198.959 72.9101 188.313" stroke="#6663CF" stroke-linecap="round"/>
<defs>
<linearGradient id="paint0_linear_953_6612" x1="325.817" y1="39" x2="347.236" y2="98.2586" gradientUnits="userSpaceOnUse">
<stop stop-color="#5955B3"/>
<stop offset="1" stop-color="#6563CE"/>
</linearGradient>
</defs>
</svg>
