<svg width="325" height="290" viewBox="0 0 325 290" fill="none" xmlns="http://www.w3.org/2000/svg">
<rect width="325" height="290" rx="5" fill="white"/>
<path d="M23.5954 186.773C23.0743 186.695 10.4587 185.012 10.9842 173.278C11.0325 172.199 11.167 171.219 11.376 170.329M23.5954 186.773C16.6807 186.316 13.167 183.607 11.5945 180.361M23.5954 186.773C24.432 186.897 25.2947 186.887 26.1483 186.752M11.376 170.329C11.6377 169.216 12.0162 168.247 12.4886 167.41M11.376 170.329C10.4339 172.939 9.94085 176.947 11.5945 180.361M12.4886 167.41C16.3618 160.55 26.5477 162.599 30.4264 167.41C31.9484 169.299 35.1382 174.091 33.5837 180.08C32.6093 183.835 29.448 186.229 26.1483 186.752M12.4886 167.41C11.0148 169.48 8.8765 174.329 10.7046 178.726M11.5945 180.361C11.2287 179.827 10.9351 179.28 10.7046 178.726M26.1483 186.752C21.7849 187.511 12.5876 186.968 10.7046 178.726" stroke="#6663CF" stroke-linecap="round"/>
<path opacity="0.2" fill-rule="evenodd" clip-rule="evenodd" d="M324.664 269.81C324.612 280.783 315.724 289.668 304.749 289.713H171.145C177.237 275.753 202.684 247.832 255.737 247.832C308.79 247.832 323.794 226.116 324.664 215.258V269.81Z" fill="#89AFFF"/>
<path opacity="0.2" fill-rule="evenodd" clip-rule="evenodd" d="M20.3296 1.00598e-05L149.01 0C147.124 10.5057 135.565 40.0486 87.9495 53.4493C42.1924 66.3269 11.8999 62.0633 0.329626 57.8976L0.329622 20C0.329621 8.95432 9.28389 1.09233e-05 20.3296 1.00598e-05Z" fill="#89AFFF"/>
<path d="M87.784 28.72L90.52 29.56C88.96 33.664 86.464 37.984 83.848 40.72C83.584 40.024 82.792 38.44 82.312 37.744C84.496 35.56 86.56 32.152 87.784 28.72ZM85.36 35.344L88.096 32.608L88.12 32.632V51.136H85.36V35.344ZM90.976 40.48H103.936V51.064H100.96V43.216H93.832V51.16H90.976V40.48ZM95.872 28.6H98.872V41.944H95.872V28.6ZM89.872 33.52H105.256V36.304H89.872V33.52ZM92.368 47.416H102.616V50.152H92.368V47.416ZM108.76 30.712L110.584 28.864C111.928 29.896 113.776 31.384 114.64 32.416L112.696 34.504C111.904 33.472 110.104 31.84 108.76 30.712ZM110.512 51.064L109.84 48.256L110.488 47.32L115.792 43.6C115.96 44.416 116.392 45.664 116.704 46.24C111.832 49.768 110.968 50.464 110.512 51.064ZM106.912 36.016H112.264V38.872H106.912V36.016ZM114.784 36.184H129.208V39.184H114.784V36.184ZM120.568 28.72H123.664V51.16H120.568V28.72ZM110.512 51.064C110.272 50.296 109.576 48.976 109.072 48.376C109.648 48.016 110.392 47.2 110.392 46.12V36.016H113.344V48.28C113.344 48.28 110.512 50.008 110.512 51.064ZM134.632 52.312L133.864 50.392C135.88 49.744 136.984 48.568 136.984 47.2L136.816 44.824L138.136 46.984C137.752 47.344 137.248 47.512 136.72 47.512C135.52 47.512 134.416 46.744 134.416 45.352C134.416 44.008 135.496 43.192 136.792 43.192C138.472 43.192 139.384 44.488 139.384 46.504C139.384 49.216 137.608 51.424 134.632 52.312ZM171.232 30.376L173.272 28.936C174.544 29.92 176.032 31.36 176.68 32.416L174.52 34.048C173.92 32.992 172.48 31.456 171.232 30.376ZM155.08 34.36H176.944V36.88H155.08V34.36ZM156.136 30.4H166.6V32.752H156.136V30.4ZM158.224 42.088H166.24V43.792H158.224V42.088ZM158.224 44.824H166.24V46.528H158.224V44.824ZM158.224 47.632H166.648V49.888H158.224V47.632ZM160.072 28.6H162.808V35.752H160.072V28.6ZM161.272 40.192H163.576V48.352H161.272V40.192ZM162.448 36.952L165.04 37.48C164.392 38.632 163.72 39.784 163.192 40.576L161.248 40.048C161.68 39.16 162.208 37.864 162.448 36.952ZM158.128 36.712L160.576 37.384C159.616 39.736 158.056 42.136 156.52 43.648C156.064 43.216 155.08 42.376 154.528 41.968C156.016 40.696 157.36 38.704 158.128 36.712ZM159.232 38.968H166.648V41.104H159.232V50.896H156.784V41.152L158.8 38.968H159.232ZM167.488 28.648H170.392C170.152 38.896 171.808 48.352 174.184 48.352C174.712 48.352 175 47.2 175.096 44.416C175.72 45.04 176.68 45.664 177.424 45.928C177.016 50.104 176.104 51.16 173.944 51.16C168.832 51.16 167.512 40.072 167.488 28.648ZM173.536 37.528L176.176 38.32C174.424 43.984 171.52 48.304 167.32 51.208C166.888 50.488 166.024 49.528 165.304 48.928C169.216 46.624 172.024 42.616 173.536 37.528ZM190.84 36.16H199.696V39.04H190.84V36.16ZM178.96 47.08H200.992V49.936H178.96V47.08ZM189.424 28.624H192.496V48.592H189.424V28.624ZM182.032 33.592H185.032V48.472H182.032V33.592ZM205.672 30.064H222.424V50.848H219.328V32.968H208.648V50.872H205.672V30.064ZM207.712 38.128H220.624V40.984H207.712V38.128ZM207.688 46.408H220.624V49.312H207.688V46.408ZM240.736 29.704H246.952V32.296H240.736V29.704ZM240.736 35.128H246.952V37.648H240.736V35.128ZM240.736 40.6H246.976V43.168H240.736V40.6ZM245.704 29.704H248.488V47.992C248.488 49.384 248.224 50.176 247.36 50.608C246.52 51.064 245.296 51.136 243.496 51.136C243.424 50.368 243.04 49.12 242.68 48.4C243.712 48.448 244.888 48.448 245.224 48.424C245.584 48.424 245.704 48.304 245.704 47.944V29.704ZM239.56 29.704H242.248V38.512C242.248 42.304 241.936 47.8 239.896 51.208C239.416 50.704 238.24 49.864 237.616 49.576C239.416 46.504 239.56 41.944 239.56 38.512V29.704ZM226.984 31.456H238.744V33.952H226.984V31.456ZM230.128 35.368H235.84V37.576H230.128V35.368ZM230.128 39.112H235.864V41.296H230.128V39.112ZM226.696 42.904H238.576V45.424H226.696V42.904ZM228.88 28.888H231.472V43.816H228.88V28.888ZM234.472 28.888H237.112V43.816H234.472V28.888ZM229.696 45.592L232.408 46.384C231.52 48.16 230.104 50.032 228.832 51.208C228.28 50.728 227.176 49.912 226.504 49.528C227.8 48.544 229.024 47.056 229.696 45.592ZM233.248 46.672L235.432 45.472C236.392 46.528 237.616 47.992 238.168 48.976L235.84 50.344C235.36 49.384 234.208 47.8 233.248 46.672Z" fill="url(#paint0_linear_1398_7622)"/>
<path d="M44.6454 74.3636V86H42.884V76.125H42.8159L40.0318 77.9432V76.2614L42.9352 74.3636H44.6454ZM50.4139 86.108C50.1033 86.108 49.8362 85.9981 49.6127 85.7784C49.3893 85.5549 49.2775 85.286 49.2775 84.9716C49.2775 84.661 49.3893 84.3958 49.6127 84.1761C49.8362 83.9527 50.1033 83.8409 50.4139 83.8409C50.7245 83.8409 50.9915 83.9527 51.215 84.1761C51.4385 84.3958 51.5502 84.661 51.5502 84.9716C51.5502 85.1799 51.4972 85.3712 51.3912 85.5455C51.2889 85.7159 51.1525 85.8523 50.9821 85.9545C50.8116 86.0568 50.6222 86.108 50.4139 86.108ZM59.552 73.584L60.352 72.88C61.152 73.584 62.16 74.576 62.64 75.216L61.776 76.032C61.328 75.376 60.336 74.336 59.552 73.584ZM60.8 86.64L60.576 85.536L60.864 85.04L63.6 82.768C63.712 83.088 63.92 83.536 64.048 83.744C61.408 85.984 61.008 86.336 60.8 86.64ZM58.688 77.568H61.664V78.672H58.688V77.568ZM63.408 80.864H73.28V81.968H63.408V80.864ZM69.296 81.392C70.24 82.992 72.032 84.736 73.552 85.568C73.28 85.792 72.912 86.208 72.72 86.512C71.2 85.504 69.456 83.536 68.464 81.744L69.296 81.392ZM65.376 76.848V78.512H71.136V76.848H65.376ZM65.376 74.24V75.888H71.136V74.24H65.376ZM64.272 73.248H72.272V79.504H64.272V73.248ZM67.408 81.392L68.256 81.712C67.248 83.712 65.408 85.68 63.648 86.656C63.472 86.368 63.12 85.968 62.864 85.744C64.608 84.928 66.464 83.152 67.408 81.392ZM67.808 73.744H68.912V79.008H68.96V87.28H67.776V79.008H67.808V73.744ZM60.8 86.64C60.656 86.416 60.288 86 60.064 85.84C60.368 85.568 60.928 84.944 60.928 84.112V77.568H62.08V84.912C62.08 84.912 60.8 86.16 60.8 86.64ZM84.304 80.112H85.488V86.512H84.304V80.112ZM80.784 79.68H89.056V80.736H80.784V79.68ZM80.096 85.792H89.408V86.864H80.096V85.792ZM81.168 82.656H88.688V83.696H81.168V82.656ZM82.512 74.272V77.232H87.328V74.272H82.512ZM81.392 73.232H88.496V78.272H81.392V73.232ZM77.392 73.888H78.56V87.248H77.392V73.888ZM74.768 77.072H80.576V78.208H74.768V77.072ZM77.456 77.504L78.208 77.824C77.568 80.08 76.288 82.88 75.056 84.368C74.944 84.032 74.656 83.536 74.448 83.264C75.6 81.984 76.88 79.488 77.456 77.504ZM79.76 72.8L80.608 73.728C79.136 74.32 76.896 74.768 75.04 75.024C74.976 74.752 74.816 74.368 74.672 74.096C76.48 73.792 78.592 73.344 79.76 72.8ZM78.512 79.136C78.912 79.488 80.416 81.008 80.736 81.408L80.032 82.352C79.648 81.696 78.448 80.176 77.952 79.616L78.512 79.136ZM91.008 74.64H105.024V75.776H91.008V74.64ZM94.912 80.352H102.432V81.392H94.912V80.352ZM94.064 77.632H102.24V78.704H95.248V87.28H94.064V77.632ZM101.968 77.632H103.136V85.792C103.136 86.496 102.992 86.864 102.448 87.056C101.936 87.248 101.04 87.248 99.664 87.248C99.616 86.912 99.44 86.416 99.264 86.08C100.336 86.128 101.312 86.112 101.6 86.112C101.872 86.096 101.968 86.016 101.968 85.776V77.632ZM96.24 72.56L97.456 72.848C96.368 76.368 94.448 79.92 91.392 82.064C91.232 81.792 90.864 81.376 90.624 81.136C93.488 79.168 95.376 75.776 96.24 72.56ZM94.912 83.056H102.432V84.096H94.912V83.056ZM117.568 73.488L118.4 72.88C119.328 73.536 120.368 74.496 120.848 75.184L119.968 75.888C119.504 75.2 118.48 74.192 117.568 73.488ZM106.816 76.64H121.168V77.712H106.816V76.64ZM107.504 74.048H114.56V75.072H107.504V74.048ZM108.656 81.456H114.256V82.256H108.656V81.456ZM108.656 83.36H114.256V84.16H108.656V83.36ZM108.656 85.296H114.496V86.288H108.656V85.296ZM110.496 72.576H111.648V77.216H110.496V72.576ZM111.056 79.984H112.048V85.632H111.056V79.984ZM111.856 77.952L112.944 78.224C112.592 78.928 112.192 79.68 111.856 80.192L111.024 79.936C111.312 79.376 111.696 78.528 111.856 77.952ZM109.024 77.84L110.064 78.112C109.424 79.664 108.416 81.232 107.392 82.24C107.2 82.064 106.768 81.696 106.528 81.536C107.536 80.624 108.464 79.232 109.024 77.84ZM109.088 79.472H114.512V80.416H109.088V87.12H108.032V80.416L108.912 79.472H109.088ZM115.264 72.592H116.48C116.416 80.208 117.712 86.112 119.712 86.112C120.144 86.112 120.336 85.344 120.432 83.376C120.688 83.632 121.12 83.872 121.424 83.984C121.232 86.528 120.8 87.28 119.616 87.28C116.448 87.28 115.328 80.496 115.264 72.592ZM119.312 78.432L120.416 78.784C119.28 82.384 117.248 85.456 114.384 87.312C114.176 87.024 113.808 86.624 113.504 86.384C116.288 84.752 118.256 81.808 119.312 78.432ZM130.608 77.936H136.464V79.136H130.608V77.936ZM122.768 85.296H137.184V86.48H122.768V85.296ZM129.968 72.608H131.232V85.904H129.968V72.608ZM124.992 76.096H126.224V85.856H124.992V76.096ZM140.816 73.648H151.296V87.04H150.032V74.864H142.048V87.104H140.816V73.648ZM141.632 79.2H150.56V80.384H141.632V79.2ZM141.616 84.864H150.592V86.064H141.616V84.864ZM163.76 73.36H168.208V74.464H163.76V73.36ZM163.76 77.04H168.208V78.112H163.76V77.04ZM163.744 80.768H168.24V81.856H163.744V80.768ZM167.664 73.36H168.832V85.76C168.832 86.448 168.672 86.816 168.208 87.008C167.76 87.2 167.008 87.232 165.824 87.232C165.792 86.896 165.616 86.368 165.456 86.064C166.304 86.08 167.104 86.08 167.344 86.064C167.584 86.064 167.664 85.984 167.664 85.744V73.36ZM163.264 73.36H164.4V79.168C164.4 81.632 164.208 85.088 162.768 87.36C162.56 87.136 162.08 86.784 161.808 86.672C163.152 84.528 163.264 81.488 163.264 79.168V73.36ZM154.816 74.704H162.48V75.76H154.816V74.704ZM156.704 77.184H160.752V78.16H156.704V77.184ZM156.704 79.728H160.768V80.688H156.704V79.728ZM154.608 82.304H162.48V83.376H154.608V82.304ZM156.176 72.752H157.28V82.736H156.176V72.752ZM160.192 72.752H161.296V82.736H160.192V72.752ZM156.832 83.728L157.984 84.048C157.392 85.264 156.464 86.496 155.6 87.296C155.376 87.104 154.912 86.752 154.624 86.592C155.52 85.872 156.352 84.8 156.832 83.728ZM159.136 84.224L160.064 83.728C160.688 84.448 161.44 85.44 161.76 86.096L160.784 86.672C160.48 86.032 159.76 84.976 159.136 84.224ZM172.512 87.712L172.144 86.88C173.456 86.336 174.176 85.52 174.176 84.32L173.872 82.96L174.736 84.176C174.512 84.464 174.192 84.544 173.888 84.544C173.232 84.544 172.688 84.16 172.688 83.392C172.688 82.64 173.264 82.24 173.904 82.24C174.8 82.24 175.28 82.976 175.28 84.096C175.28 85.824 174.192 87.136 172.512 87.712ZM195.152 84.528H200.16V85.664H195.152V84.528ZM194.496 74.288H200.768V86.64H199.584V75.44H195.648V86.88H194.496V74.288ZM186.688 75.84H192.64V76.992H186.688V75.84ZM189.408 72.56L190.576 72.704C189.872 75.904 188.784 80.24 187.984 82.896L186.96 82.4C187.728 79.936 188.784 75.616 189.408 72.56ZM187.52 81.792L188.176 80.912C190.256 81.984 192.72 83.664 193.856 84.976L193.152 86C192.032 84.672 189.584 82.912 187.52 81.792ZM192.304 75.84H192.496L192.72 75.808L193.456 75.952C192.96 82.4 190.976 85.632 187.648 87.296C187.488 87.008 187.168 86.56 186.912 86.304C189.952 84.976 191.856 81.776 192.304 76.096V75.84ZM202.976 81.056H217.024V82.176H202.976V81.056ZM209.36 73.728H210.624V87.28H209.36V73.728ZM208.928 81.536L209.936 81.968C208.448 84.016 205.792 85.84 203.392 86.752C203.216 86.464 202.832 86.016 202.576 85.776C204.944 84.992 207.584 83.296 208.928 81.536ZM210.992 81.488C212.384 83.2 215.104 84.896 217.44 85.68C217.168 85.92 216.8 86.384 216.608 86.688C214.288 85.76 211.568 83.888 210.032 81.92L210.992 81.488ZM205.76 76.992V78.672H214.272V76.992H205.76ZM205.76 74.368V76.016H214.272V74.368H205.76ZM204.528 73.344H215.552V79.696H204.528V73.344ZM225.44 72.64L226.624 72.896C226 75.456 224.992 77.92 223.76 79.552C223.552 79.344 223.072 78.96 222.8 78.784C223.984 77.296 224.912 74.992 225.44 72.64ZM225.168 79.424L226.336 79.664C225.84 81.76 224.976 83.792 224 85.136C223.76 84.944 223.248 84.624 222.96 84.48C223.952 83.248 224.72 81.344 225.168 79.424ZM225.296 75.648H232.496V76.768H224.832L225.296 75.648ZM227.776 76.112H228.976V85.824C228.976 86.512 228.832 86.864 228.384 87.056C227.952 87.264 227.264 87.296 226.272 87.296C226.192 86.96 226.016 86.432 225.84 86.08C226.592 86.112 227.28 86.096 227.504 86.096C227.712 86.096 227.776 86.032 227.776 85.824V76.112ZM230.128 79.664L231.2 79.312C232.128 80.992 232.928 83.2 233.2 84.688L232.064 85.072C231.808 83.6 231.008 81.344 230.128 79.664ZM232.144 75.648H232.304L232.512 75.616L233.344 75.792C233.12 76.976 232.848 78.352 232.64 79.216L231.6 79.024C231.776 78.224 231.984 76.88 232.144 75.824V75.648ZM222.224 72.624L223.36 72.976C222.304 75.696 220.656 78.4 218.928 80.192C218.8 79.92 218.464 79.28 218.24 79.008C219.824 77.456 221.328 75.056 222.224 72.624ZM220.56 76.752L221.68 75.616L221.712 75.632V87.264H220.56V76.752ZM236.832 72.608L237.888 72.912C237.296 74.656 236.288 76.384 235.2 77.536C235.104 77.28 234.784 76.704 234.592 76.448C235.536 75.504 236.368 74.08 236.832 72.608ZM236.464 74.48H240.4V75.632H236.24L236.464 74.48ZM237.04 87.088L236.88 86.016L237.296 85.536L240.176 84.032C240.208 84.352 240.32 84.816 240.4 85.056C237.712 86.56 237.28 86.816 237.04 87.088ZM235.68 77.248H240.16V78.336H235.68V77.248ZM234.992 80.512H240.512V81.6H234.992V80.512ZM237.04 87.088C236.944 86.8 236.656 86.32 236.464 86.08C236.736 85.904 237.232 85.472 237.232 84.768V77.552H238.336V85.808C238.336 85.808 237.04 86.64 237.04 87.088ZM241.088 74.672H248.96V75.744H241.088V74.672ZM240.72 77.856H249.328V78.944H240.72V77.856ZM242.272 82.896H247.616V83.888H242.272V82.896ZM242.272 85.584H247.568V86.576H242.272V85.584ZM241.648 80.24H248.24V87.184H247.12V81.248H242.752V87.248H241.648V80.24ZM242.672 72.56H243.76V78.56H242.672V72.56ZM245.968 72.56H247.072V78.56H245.968V72.56ZM251.248 73.616L252.176 73.008C253.072 73.808 254.128 74.928 254.624 75.664L253.632 76.384C253.168 75.616 252.144 74.448 251.248 73.616ZM254.176 78.56V84.384H253.008V79.696H250.784V78.56H254.176ZM253.568 83.76C254.112 83.76 254.48 84.24 255.376 84.784C256.416 85.44 257.776 85.552 259.568 85.552C261.456 85.552 263.872 85.424 265.424 85.248C265.264 85.584 265.072 86.192 265.056 86.56C263.92 86.624 261.072 86.704 259.552 86.704C257.552 86.704 256.208 86.544 255.104 85.84C254.416 85.408 253.904 84.88 253.552 84.88C253.008 84.88 252.24 85.824 251.424 86.912L250.576 85.792C251.68 84.592 252.768 83.76 253.568 83.76ZM255.312 75.456H264.944V76.592H255.312V75.456ZM261.504 72.624H262.736V82.944C262.736 83.76 262.512 84.112 261.936 84.304C261.392 84.496 260.416 84.528 258.896 84.528C258.848 84.176 258.64 83.648 258.464 83.296C259.648 83.328 260.752 83.328 261.072 83.328C261.392 83.296 261.504 83.216 261.504 82.928V72.624ZM256.08 78.368L257.04 77.856C257.856 78.832 258.864 80.16 259.328 80.992L258.32 81.616C257.888 80.768 256.896 79.376 256.08 78.368ZM57.392 97.016H58.64V104.744C58.64 105.544 58.432 105.912 57.808 106.088C57.184 106.28 56.112 106.296 54.496 106.296C54.416 105.944 54.192 105.432 54 105.08C55.328 105.128 56.56 105.128 56.928 105.112C57.28 105.096 57.392 105 57.392 104.712V97.016ZM51.568 92.824H63.12V93.992H51.568V92.824ZM62.688 92.824H63.008L63.296 92.744L64.224 93.416C62.8 95.112 60.544 97 58.56 98.12C58.384 97.864 58 97.464 57.744 97.288C59.568 96.28 61.68 94.44 62.688 93.112V92.824ZM68.512 106.712L68.144 105.88C69.456 105.336 70.176 104.52 70.176 103.32L69.872 101.96L70.736 103.176C70.512 103.464 70.192 103.544 69.888 103.544C69.232 103.544 68.688 103.16 68.688 102.392C68.688 101.64 69.264 101.24 69.904 101.24C70.8 101.24 71.28 101.976 71.28 103.096C71.28 104.824 70.192 106.136 68.512 106.712ZM89.44 91.64L90.624 91.896C90 94.456 88.992 96.92 87.76 98.552C87.552 98.344 87.072 97.96 86.8 97.784C87.984 96.296 88.912 93.992 89.44 91.64ZM89.168 98.424L90.336 98.664C89.84 100.76 88.976 102.792 88 104.136C87.76 103.944 87.248 103.624 86.96 103.48C87.952 102.248 88.72 100.344 89.168 98.424ZM89.296 94.648H96.496V95.768H88.832L89.296 94.648ZM91.776 95.112H92.976V104.824C92.976 105.512 92.832 105.864 92.384 106.056C91.952 106.264 91.264 106.296 90.272 106.296C90.192 105.96 90.016 105.432 89.84 105.08C90.592 105.112 91.28 105.096 91.504 105.096C91.712 105.096 91.776 105.032 91.776 104.824V95.112ZM94.128 98.664L95.2 98.312C96.128 99.992 96.928 102.2 97.2 103.688L96.064 104.072C95.808 102.6 95.008 100.344 94.128 98.664ZM96.144 94.648H96.304L96.512 94.616L97.344 94.792C97.12 95.976 96.848 97.352 96.64 98.216L95.6 98.024C95.776 97.224 95.984 95.88 96.144 94.824V94.648ZM86.224 91.624L87.36 91.976C86.304 94.696 84.656 97.4 82.928 99.192C82.8 98.92 82.464 98.28 82.24 98.008C83.824 96.456 85.328 94.056 86.224 91.624ZM84.56 95.752L85.68 94.616L85.712 94.632V106.264H84.56V95.752ZM109.936 93.064H111.184V104.568C111.184 105.432 110.976 105.848 110.352 106.04C109.712 106.248 108.592 106.264 107.008 106.264C106.928 105.912 106.688 105.32 106.496 104.968C107.792 105.032 109.088 105.016 109.472 105C109.824 104.984 109.936 104.872 109.936 104.536V93.064ZM100.528 96.264H101.696V103.512H100.528V96.264ZM101.024 96.264H107.088V102.232H101.024V101.08H105.888V97.4H101.024V96.264ZM98.88 92.696H113.152V93.912H98.88V92.696ZM117.312 91.56L118.56 91.848C117.984 93.176 117.232 94.728 116.592 95.736L115.568 95.432C116.176 94.408 116.928 92.728 117.312 91.56ZM114.624 94.952C116.304 94.904 118.848 94.792 121.36 94.68L121.344 95.752C118.96 95.896 116.48 96.024 114.736 96.12L114.624 94.952ZM115.6 97.272H120.672V98.296H116.72V106.264H115.6V97.272ZM120.128 97.272H121.312V104.904C121.312 105.512 121.184 105.848 120.752 106.04C120.304 106.232 119.6 106.248 118.592 106.248C118.528 105.928 118.352 105.448 118.192 105.144C118.944 105.176 119.632 105.16 119.856 105.144C120.064 105.144 120.128 105.096 120.128 104.888V97.272ZM116.128 99.656H120.752V100.6H116.128V99.656ZM116.128 102.056H120.752V103.016H116.128V102.056ZM122.816 91.592H124V96.888C124 97.4 124.128 97.512 124.864 97.512C125.2 97.512 126.944 97.512 127.408 97.512C128.032 97.512 128.144 97.24 128.208 95.656C128.464 95.864 128.944 96.04 129.296 96.12C129.152 98.072 128.8 98.6 127.504 98.6C127.168 98.6 125.072 98.6 124.752 98.6C123.216 98.6 122.816 98.232 122.816 96.904V91.592ZM127.712 92.776L128.512 93.656C127.152 94.296 125.232 94.92 123.584 95.384C123.52 95.128 123.36 94.776 123.216 94.536C124.8 94.04 126.624 93.336 127.712 92.776ZM122.816 99.032H124V104.44C124 104.984 124.144 105.08 124.912 105.08C125.248 105.08 127.056 105.08 127.536 105.08C128.224 105.08 128.32 104.776 128.4 102.968C128.672 103.16 129.152 103.352 129.488 103.416C129.328 105.576 128.976 106.152 127.632 106.152C127.28 106.152 125.12 106.152 124.784 106.152C123.232 106.152 122.816 105.784 122.816 104.456V99.032ZM127.904 99.912L128.704 100.808C127.36 101.576 125.312 102.232 123.584 102.696C123.52 102.456 123.344 102.072 123.216 101.832C124.88 101.352 126.816 100.616 127.904 99.912ZM119.312 93.08L120.304 92.68C121.152 93.8 122.048 95.272 122.416 96.264L121.36 96.728C121.024 95.752 120.16 94.216 119.312 93.08ZM130.832 97.368H145.184V98.52H130.832V97.368ZM131.824 92.632H144.256V93.784H131.824V92.632ZM138.176 99.176H139.424V104.28C139.424 104.824 139.584 104.936 140.432 104.936C140.8 104.936 142.752 104.936 143.264 104.936C144.064 104.936 144.176 104.584 144.272 102.376C144.56 102.6 145.104 102.808 145.44 102.872C145.264 105.448 144.896 106.12 143.344 106.12C142.976 106.12 140.656 106.12 140.304 106.12C138.64 106.12 138.176 105.72 138.176 104.28V99.176ZM137.168 93.096H138.384C138.272 99.272 138.112 104.136 131.408 106.328C131.264 106.008 130.912 105.56 130.64 105.304C137.088 103.336 137.088 98.872 137.168 93.096ZM150.912 98.296H161.2V99.432H150.912V98.296ZM151.728 94.184H160.448V95.336H151.728V94.184ZM155.392 91.576H156.624V99.112H155.392V91.576ZM150.928 104.328C153.104 104.232 156.592 104.04 159.904 103.848V104.936C156.72 105.176 153.376 105.4 151.104 105.544L150.928 104.328ZM157.376 101.592L158.4 101.064C159.616 102.488 160.944 104.392 161.472 105.688L160.352 106.312C159.856 105.048 158.576 103.048 157.376 101.592ZM154.32 99.048L155.616 99.416C154.912 101.272 153.952 103.56 153.152 105.016L152.096 104.648C152.88 103.16 153.824 100.76 154.32 99.048ZM147.456 92.568L148.128 91.672C149.216 92.072 150.592 92.76 151.28 93.32L150.592 94.328C149.92 93.752 148.576 93 147.456 92.568ZM146.608 96.984L147.232 96.056C148.32 96.408 149.728 97.032 150.448 97.544L149.792 98.552C149.104 98.04 147.728 97.368 146.608 96.984ZM147.168 105.304C147.984 104.072 149.184 101.96 150.064 100.152L150.96 100.904C150.16 102.6 149.104 104.6 148.208 106.088L147.168 105.304ZM167.968 98.408H177.056V99.512H167.968V98.408ZM173.328 96.152L174.16 95.56C174.976 96.088 175.952 96.92 176.384 97.512L175.536 98.184C175.104 97.576 174.16 96.728 173.328 96.152ZM172.832 98.984C173.488 101.912 174.896 104.248 177.248 105.288C176.976 105.512 176.624 105.96 176.464 106.264C174.016 105.016 172.592 102.472 171.856 99.16L172.832 98.984ZM162.992 92.84H177.056V93.928H162.992V92.84ZM166.768 91.56H167.968V95.24H166.768V91.56ZM172.112 91.56H173.296V95.16H172.112V91.56ZM171.712 95.48H172.848V97.848C172.848 100.472 172.368 103.864 168.416 106.328C168.208 106.072 167.808 105.752 167.52 105.544C171.296 103.224 171.712 100.104 171.712 97.848V95.48ZM163.488 95.944L164.288 95.32C167.152 97.192 167.536 99.4 167.536 101.704C167.536 103.528 167.36 104.92 166.704 105.672C166.512 105.912 166.208 106.072 165.856 106.12C165.328 106.216 164.736 106.216 164.08 106.184C164.064 105.864 163.936 105.432 163.712 105.128C164.448 105.176 165.04 105.176 165.392 105.128C165.616 105.112 165.76 105.032 165.888 104.872C166.288 104.392 166.416 103.256 166.416 101.64C166.416 99.528 165.952 97.608 163.488 95.944ZM166.272 99.608L167.104 100.104C166.272 101.32 164.672 102.68 163.344 103.416C163.184 103.128 162.88 102.744 162.608 102.52C163.936 101.944 165.504 100.728 166.272 99.608ZM167.184 95.576L168.176 96.104C167.04 97.416 165.168 98.632 163.376 99.464C163.2 99.224 162.88 98.872 162.64 98.68C164.416 97.928 166.208 96.696 167.184 95.576ZM185.696 95.128V96.44H190.992V95.128H185.696ZM185.696 92.968V94.264H190.992V92.968H185.696ZM184.544 92.056H192.192V97.352H184.544V92.056ZM183.552 98.456H192.96V99.464H183.552V98.456ZM183.184 100.84H193.248V101.896H183.184V100.84ZM189.648 99.336H190.848V104.968C190.848 105.608 190.704 105.928 190.224 106.104C189.744 106.296 188.976 106.296 187.776 106.296C187.728 105.976 187.536 105.528 187.376 105.208C188.288 105.24 189.088 105.24 189.328 105.224C189.584 105.208 189.648 105.144 189.648 104.936V99.336ZM184.576 102.712L185.424 102.136C186.16 102.808 187.04 103.752 187.456 104.376L186.544 105.048C186.16 104.408 185.296 103.416 184.576 102.712ZM182.304 95.128L183.36 95.56C182.272 97.464 180.56 99.4 178.976 100.648C178.88 100.408 178.544 99.768 178.336 99.496C179.792 98.44 181.344 96.792 182.304 95.128ZM182 91.608L183.152 92.056C182.192 93.432 180.656 94.936 179.232 95.88C179.104 95.608 178.8 95.144 178.592 94.904C179.872 94.072 181.312 92.744 182 91.608ZM180.864 97.96L181.984 96.824L182.032 96.856V106.28H180.864V97.96ZM202 100.28H208.112V101.416H202V100.28ZM198.416 100.968C199.568 104.28 202.144 104.92 205.488 104.92C206 104.92 208.72 104.92 209.408 104.904C209.232 105.192 209.04 105.736 208.976 106.072H205.424C201.536 106.072 198.864 105.256 197.424 101.368L198.416 100.968ZM201.456 97.464H202.688V105.416L201.456 105.016V97.464ZM197.872 93.496V96.648H206.4V93.496H197.872ZM196.688 92.36H207.648V97.8H196.688V92.36ZM197.616 99L198.88 99.144C198.496 101.768 197.6 104.712 195.552 106.296C195.344 106.056 194.944 105.656 194.688 105.48C196.592 104.024 197.376 101.304 197.616 99ZM212.64 93.592H217.152V94.728H212.64V93.592ZM216.672 93.592H217.808C217.808 93.592 217.808 94.056 217.792 94.216C217.568 102.184 217.376 104.776 216.784 105.56C216.464 106.024 216.128 106.168 215.632 106.216C215.152 106.28 214.384 106.264 213.632 106.216C213.6 105.912 213.472 105.416 213.28 105.096C214.112 105.16 214.848 105.16 215.168 105.16C215.44 105.176 215.6 105.128 215.76 104.888C216.24 104.312 216.48 101.544 216.672 93.864V93.592ZM212.256 96.648H215.344V102.008H212.256V101.048H214.384V97.608H212.256V96.648ZM211.696 96.648H212.672V102.984H211.696V96.648ZM212.928 91.576L214.096 91.832C213.52 93.992 212.544 96.072 211.376 97.432C211.184 97.224 210.704 96.84 210.432 96.664C211.536 95.416 212.416 93.528 212.928 91.576ZM221.008 91.592L222.096 91.768C221.344 93.288 220.16 94.904 218.352 96.152C218.192 95.912 217.84 95.592 217.6 95.448C219.296 94.36 220.448 92.84 221.008 91.592ZM220.704 93.048H223.872V93.992H219.856L220.704 93.048ZM223.584 93.048H223.792L224 93L224.72 93.336C223.632 96.52 221.136 98.552 218.464 99.608C218.336 99.352 218.032 98.936 217.808 98.728C220.272 97.864 222.688 95.896 223.584 93.256V93.048ZM219.104 95.224L219.888 94.616C220.672 95.112 221.616 95.832 222.096 96.344L221.264 97C220.816 96.488 219.888 95.736 219.104 95.224ZM221.68 97.528L222.832 97.72C221.936 99.4 220.496 101.16 218.368 102.488C218.192 102.248 217.84 101.896 217.584 101.752C219.616 100.568 220.992 98.92 221.68 97.528ZM221.392 98.936H224.64V99.912H220.512L221.392 98.936ZM224.272 98.936H224.496L224.72 98.888L225.488 99.224C224.304 103.128 221.44 105.272 218.128 106.328C218 106.056 217.696 105.624 217.472 105.4C220.544 104.536 223.296 102.472 224.272 99.144V98.936ZM219.536 101.288L220.32 100.664C221.2 101.224 222.24 102.072 222.768 102.664L221.904 103.352C221.424 102.776 220.384 101.88 219.536 101.288ZM228.096 94.136H232.96V104.6H228.096V103.512H231.84V95.208H228.096V94.136ZM227.376 94.136H228.496V105.88H227.376V94.136ZM228.016 98.584H232.432V99.656H228.016V98.584ZM229.824 91.528L231.12 91.768C230.8 92.76 230.4 93.864 230.08 94.584L229.12 94.344C229.392 93.576 229.696 92.36 229.824 91.528ZM235.232 94.088H240.144V95.208H235.232V94.088ZM239.728 94.088H240.848C240.848 94.088 240.848 94.536 240.848 94.712C240.592 102.056 240.368 104.536 239.728 105.32C239.376 105.784 239.008 105.928 238.448 105.976C237.904 106.04 236.96 106.008 236.064 105.96C236.032 105.608 235.888 105.112 235.664 104.792C236.704 104.872 237.664 104.888 238.032 104.888C238.352 104.888 238.544 104.84 238.72 104.632C239.248 104.056 239.504 101.4 239.728 94.344V94.088ZM235.568 91.496L236.72 91.768C236.128 94.152 235.184 96.504 234.08 98.024C233.872 97.832 233.376 97.496 233.088 97.336C234.176 95.928 235.056 93.72 235.568 91.496ZM234.832 98.248L235.76 97.704C236.672 98.84 237.776 100.392 238.288 101.336L237.264 101.976C236.784 101 235.712 99.416 234.832 98.248ZM244.992 97.624H254.144V98.792H244.992V97.624ZM253.744 97.624H254.992C254.992 97.624 254.976 98.04 254.96 98.2C254.736 103.16 254.512 105.016 253.936 105.624C253.616 106.024 253.264 106.136 252.704 106.184C252.176 106.232 251.168 106.216 250.16 106.168C250.144 105.8 249.984 105.304 249.76 104.952C250.816 105.048 251.808 105.064 252.192 105.064C252.512 105.064 252.704 105.032 252.864 104.856C253.296 104.424 253.536 102.6 253.744 97.848V97.624ZM247.184 91.896L248.448 92.264C247.296 94.968 245.408 97.352 243.392 98.888C243.168 98.632 242.656 98.168 242.352 97.944C244.4 96.568 246.176 94.36 247.184 91.896ZM252.768 91.864C253.808 94.008 255.872 96.44 257.616 97.672C257.296 97.928 256.848 98.408 256.608 98.744C254.832 97.304 252.816 94.712 251.616 92.328L252.768 91.864ZM248.368 97.944H249.648C249.28 101.448 248.448 104.76 243.984 106.36C243.84 106.056 243.488 105.576 243.216 105.32C247.408 103.928 248.048 100.968 248.368 97.944ZM258.624 100.104H266.48V101.112H258.624V100.104ZM258.72 94.52H266.432V95.496H258.72V94.52ZM261.6 98.728L262.72 98.968C262 100.536 260.992 102.488 260.256 103.752L259.2 103.384C259.92 102.168 260.928 100.2 261.6 98.728ZM264 100.696L265.12 100.84C264.576 103.96 262.896 105.496 259.2 106.28C259.12 105.96 258.88 105.528 258.656 105.288C262 104.728 263.504 103.416 264 100.696ZM265.008 91.88L266.032 92.328C265.568 93.064 265.04 93.864 264.592 94.408L263.792 94.008C264.192 93.432 264.72 92.504 265.008 91.88ZM262.032 91.56H263.136V98.92H262.032V91.56ZM259.312 92.328L260.224 91.944C260.672 92.584 261.104 93.432 261.264 94.008L260.32 94.44C260.176 93.864 259.76 92.984 259.312 92.328ZM262.048 94.952L262.864 95.432C262.08 96.776 260.576 98.2 259.2 98.952C259.056 98.68 258.768 98.28 258.544 98.04C259.872 97.464 261.344 96.184 262.048 94.952ZM263.008 95.512C263.584 95.816 265.536 97.048 266 97.384L265.344 98.264C264.768 97.72 263.104 96.472 262.432 96.024L263.008 95.512ZM267.648 94.52H273.344V95.64H267.648V94.52ZM268.048 91.56L269.264 91.736C268.736 94.872 267.792 97.736 266.384 99.608C266.192 99.384 265.696 98.984 265.408 98.792C266.768 97.096 267.6 94.392 268.048 91.56ZM271.2 95.16L272.416 95.288C271.648 100.808 269.952 104.248 265.92 106.328C265.792 106.04 265.44 105.512 265.2 105.256C269.008 103.464 270.544 100.232 271.2 95.16ZM268.288 95.512C268.992 99.912 270.528 103.688 273.504 105.256C273.216 105.496 272.832 105.96 272.656 106.28C269.52 104.44 268 100.536 267.2 95.688L268.288 95.512ZM260.16 103.16L260.8 102.344C262.72 103.08 264.704 104.136 265.856 105.016L265.024 105.88C263.92 104.984 262.016 103.912 260.16 103.16ZM98.896 117.664H113.12V118.816H98.896V117.664ZM99.664 112.496H112.448V113.648H99.664V112.496ZM105.344 110.576H106.608V125.28H105.344V110.576ZM110.096 113.936L111.344 114.336C110.768 115.44 110.064 116.72 109.488 117.52L108.464 117.152C109.024 116.304 109.728 114.912 110.096 113.936ZM100.96 114.416L102.016 114.016C102.672 114.944 103.312 116.208 103.536 117.024L102.4 117.488C102.192 116.672 101.584 115.376 100.96 114.416ZM105.024 118.112L106 118.512C104.48 121.008 101.824 123.376 99.392 124.576C99.2 124.288 98.816 123.84 98.544 123.6C100.976 122.544 103.648 120.32 105.024 118.112ZM106.96 118.112C108.352 120.32 111.04 122.576 113.472 123.632C113.2 123.872 112.816 124.336 112.624 124.64C110.176 123.424 107.52 120.992 105.984 118.528L106.96 118.112ZM116.72 116.56H120.704V117.68H116.72V116.56ZM120.224 116.56H121.392C121.392 116.56 121.392 116.912 121.392 117.072C121.312 120.688 121.216 122.032 120.88 122.48C120.624 122.768 120.368 122.88 119.92 122.928C119.504 122.976 118.784 122.96 118 122.928C117.968 122.576 117.84 122.112 117.664 121.808C118.384 121.872 119.088 121.872 119.36 121.872C119.584 121.872 119.744 121.856 119.856 121.712C120.096 121.424 120.176 120.224 120.224 116.768V116.56ZM124.736 111.376L125.456 110.624C126.448 111.136 127.712 111.904 128.336 112.464L127.584 113.28C126.976 112.72 125.744 111.904 124.736 111.376ZM127.024 115.712L128.224 116C126.864 120.176 124.48 123.264 121.2 125.2C121.024 124.96 120.576 124.464 120.32 124.224C123.568 122.496 125.824 119.568 127.024 115.712ZM116.816 113.28H129.2V114.464H116.816V113.28ZM116.048 113.28H117.296V117.792C117.296 120.064 117.04 123.296 115.584 125.392C115.376 125.152 114.864 124.736 114.576 124.592C115.904 122.624 116.048 119.872 116.048 117.776V113.28ZM122.688 110.592H123.936C123.904 117.952 125.472 123.952 127.552 123.952C128 123.952 128.208 123.12 128.304 120.992C128.576 121.264 129.024 121.536 129.344 121.648C129.12 124.384 128.672 125.168 127.456 125.168C124.192 125.168 122.752 118.256 122.688 110.592ZM130.816 112.464H136.688V113.6H130.816V112.464ZM136.816 114.224H144.416V115.376H136.816V114.224ZM133.184 112.912H134.352V120.928H133.184V112.912ZM143.856 114.224H145.04C145.04 114.224 145.04 114.656 145.024 114.832C144.768 121.44 144.544 123.76 143.936 124.48C143.584 124.928 143.248 125.056 142.704 125.12C142.176 125.168 141.248 125.152 140.336 125.088C140.304 124.752 140.176 124.24 139.968 123.904C140.944 124 141.856 124 142.208 124C142.528 124 142.704 123.952 142.88 123.76C143.376 123.216 143.632 120.848 143.856 114.48V114.224ZM130.592 121.104C132.176 120.736 134.608 120.08 136.928 119.456L137.088 120.592C134.912 121.216 132.592 121.872 130.896 122.336L130.592 121.104ZM139.536 110.832H140.752C140.72 117.008 140.672 122.544 135.776 125.296C135.6 125.008 135.2 124.576 134.912 124.352C139.6 121.856 139.504 116.672 139.536 110.832ZM149.632 115.216H158.336V116.304H149.632V115.216ZM146.896 118.16H161.088V119.296H146.896V118.16ZM151.104 118.944H152.384C152.048 122.064 151.152 124.224 147.248 125.312C147.12 125.008 146.8 124.528 146.544 124.288C150.144 123.392 150.832 121.552 151.104 118.944ZM155.152 118.848H156.352V123.344C156.352 123.824 156.464 123.904 157.136 123.904C157.456 123.904 158.976 123.904 159.392 123.904C160 123.904 160.112 123.616 160.16 121.776C160.416 121.968 160.928 122.16 161.248 122.256C161.12 124.448 160.768 125.008 159.488 125.008C159.168 125.008 157.328 125.008 157.008 125.008C155.536 125.008 155.152 124.64 155.152 123.36V118.848ZM153.328 110.576H154.592V113.12H153.328V110.576ZM147.264 112.288H160.72V115.68H159.456V113.424H148.48V115.68H147.264V112.288ZM164.72 116.56H168.704V117.68H164.72V116.56ZM168.224 116.56H169.392C169.392 116.56 169.392 116.912 169.392 117.072C169.312 120.688 169.216 122.032 168.88 122.48C168.624 122.768 168.368 122.88 167.92 122.928C167.504 122.976 166.784 122.96 166 122.928C165.968 122.576 165.84 122.112 165.664 121.808C166.384 121.872 167.088 121.872 167.36 121.872C167.584 121.872 167.744 121.856 167.856 121.712C168.096 121.424 168.176 120.224 168.224 116.768V116.56ZM172.736 111.376L173.456 110.624C174.448 111.136 175.712 111.904 176.336 112.464L175.584 113.28C174.976 112.72 173.744 111.904 172.736 111.376ZM175.024 115.712L176.224 116C174.864 120.176 172.48 123.264 169.2 125.2C169.024 124.96 168.576 124.464 168.32 124.224C171.568 122.496 173.824 119.568 175.024 115.712ZM164.816 113.28H177.2V114.464H164.816V113.28ZM164.048 113.28H165.296V117.792C165.296 120.064 165.04 123.296 163.584 125.392C163.376 125.152 162.864 124.736 162.576 124.592C163.904 122.624 164.048 119.872 164.048 117.776V113.28ZM170.688 110.592H171.936C171.904 117.952 173.472 123.952 175.552 123.952C176 123.952 176.208 123.12 176.304 120.992C176.576 121.264 177.024 121.536 177.344 121.648C177.12 124.384 176.672 125.168 175.456 125.168C172.192 125.168 170.752 118.256 170.688 110.592ZM179.552 111.584L180.352 110.88C181.152 111.584 182.16 112.576 182.64 113.216L181.776 114.032C181.328 113.376 180.336 112.336 179.552 111.584ZM180.8 124.64L180.576 123.536L180.864 123.04L183.6 120.768C183.712 121.088 183.92 121.536 184.048 121.744C181.408 123.984 181.008 124.336 180.8 124.64ZM178.688 115.568H181.664V116.672H178.688V115.568ZM183.408 118.864H193.28V119.968H183.408V118.864ZM189.296 119.392C190.24 120.992 192.032 122.736 193.552 123.568C193.28 123.792 192.912 124.208 192.72 124.512C191.2 123.504 189.456 121.536 188.464 119.744L189.296 119.392ZM185.376 114.848V116.512H191.136V114.848H185.376ZM185.376 112.24V113.888H191.136V112.24H185.376ZM184.272 111.248H192.272V117.504H184.272V111.248ZM187.408 119.392L188.256 119.712C187.248 121.712 185.408 123.68 183.648 124.656C183.472 124.368 183.12 123.968 182.864 123.744C184.608 122.928 186.464 121.152 187.408 119.392ZM187.808 111.744H188.912V117.008H188.96V125.28H187.776V117.008H187.808V111.744ZM180.8 124.64C180.656 124.416 180.288 124 180.064 123.84C180.368 123.568 180.928 122.944 180.928 122.112V115.568H182.08V122.912C182.08 122.912 180.8 124.16 180.8 124.64ZM204.304 118.112H205.488V124.512H204.304V118.112ZM200.784 117.68H209.056V118.736H200.784V117.68ZM200.096 123.792H209.408V124.864H200.096V123.792ZM201.168 120.656H208.688V121.696H201.168V120.656ZM202.512 112.272V115.232H207.328V112.272H202.512ZM201.392 111.232H208.496V116.272H201.392V111.232ZM197.392 111.888H198.56V125.248H197.392V111.888ZM194.768 115.072H200.576V116.208H194.768V115.072ZM197.456 115.504L198.208 115.824C197.568 118.08 196.288 120.88 195.056 122.368C194.944 122.032 194.656 121.536 194.448 121.264C195.6 119.984 196.88 117.488 197.456 115.504ZM199.76 110.8L200.608 111.728C199.136 112.32 196.896 112.768 195.04 113.024C194.976 112.752 194.816 112.368 194.672 112.096C196.48 111.792 198.592 111.344 199.76 110.8ZM198.512 117.136C198.912 117.488 200.416 119.008 200.736 119.408L200.032 120.352C199.648 119.696 198.448 118.176 197.952 117.616L198.512 117.136ZM213.104 120.112C214.448 120.112 215.536 121.2 215.536 122.544C215.536 123.888 214.448 124.976 213.104 124.976C211.76 124.976 210.656 123.888 210.656 122.544C210.656 121.2 211.76 120.112 213.104 120.112ZM213.104 124.16C214 124.16 214.72 123.44 214.72 122.544C214.72 121.648 214 120.928 213.104 120.928C212.208 120.928 211.472 121.648 211.472 122.544C211.472 123.44 212.208 124.16 213.104 124.16Z" fill="#2D3342"/>
<path d="M45.344 90.8106C44.9092 90.7461 34.383 89.3437 34.8214 79.5646C34.8617 78.6661 34.9739 77.8488 35.1483 77.1079M45.344 90.8106C39.5745 90.4298 36.6427 88.1726 35.3307 85.4674M45.344 90.8106C46.042 90.9141 46.7619 90.9058 47.474 90.7932M35.1483 77.1079C35.3666 76.1803 35.6825 75.3724 36.0767 74.6751M35.1483 77.1079C34.3623 79.2823 33.9509 82.6226 35.3307 85.4674M36.0767 74.6751C39.3084 68.9579 47.8073 70.6659 51.0437 74.6751C52.3136 76.2496 54.9751 80.2425 53.6781 85.2337C52.865 88.3625 50.2273 90.3578 47.474 90.7932M36.0767 74.6751C34.847 76.4004 33.0628 80.4407 34.5881 84.1049M35.3307 85.4674C35.0254 85.0228 34.7805 84.5668 34.5881 84.1049M47.474 90.7932C43.8334 91.4258 36.1592 90.9736 34.5881 84.1049" stroke="#6663CF" stroke-linecap="round"/>
<path d="M16.8394 182V180.409L21.7613 175.31C22.2869 174.756 22.7201 174.27 23.061 173.854C23.4067 173.432 23.6647 173.032 23.8352 172.653C24.0056 172.275 24.0909 171.872 24.0909 171.446C24.0909 170.963 23.9772 170.546 23.7499 170.196C23.5227 169.841 23.2125 169.569 22.8196 169.379C22.4266 169.185 21.9838 169.088 21.4914 169.088C20.9706 169.088 20.516 169.195 20.1278 169.408C19.7395 169.621 19.4412 169.921 19.2329 170.31C19.0246 170.698 18.9204 171.152 18.9204 171.673H16.8252C16.8252 170.788 17.0288 170.014 17.436 169.351C17.8432 168.688 18.4019 168.174 19.1122 167.81C19.8224 167.44 20.6297 167.256 21.534 167.256C22.4479 167.256 23.2528 167.438 23.9488 167.803C24.6496 168.162 25.1964 168.655 25.5894 169.28C25.9824 169.9 26.1789 170.601 26.1789 171.382C26.1789 171.922 26.0771 172.45 25.8735 172.966C25.6747 173.482 25.3267 174.057 24.8295 174.692C24.3323 175.321 23.641 176.086 22.7556 176.986L19.865 180.011V180.118H26.4133V182H16.8394ZM31.0173 182.135C30.6291 182.135 30.2953 181.998 30.0159 181.723C29.7366 181.444 29.5969 181.107 29.5969 180.714C29.5969 180.326 29.7366 179.995 30.0159 179.72C30.2953 179.441 30.6291 179.301 31.0173 179.301C31.4056 179.301 31.7394 179.441 32.0188 179.72C32.2981 179.995 32.4378 180.326 32.4378 180.714C32.4378 180.975 32.3715 181.214 32.2389 181.432C32.1111 181.645 31.9406 181.815 31.7276 181.943C31.5145 182.071 31.2778 182.135 31.0173 182.135ZM41.4 176.14H59.6V177.4H41.4V176.14ZM41.88 166.08H59.1V167.4H41.88V166.08ZM48.34 174.04L49.8 174.44C48.5 176.52 46.66 179.14 45.38 180.78L43.96 180.3C45.24 178.68 47.1 176 48.34 174.04ZM54.34 176.58L55.78 177C54.02 181.4 49.76 183.04 42.26 183.6C42.16 183.16 41.92 182.62 41.68 182.28C48.82 181.9 52.74 180.48 54.34 176.58ZM45.04 180.1L45.8 179C50.74 179.88 55.88 181.22 58.98 182.44L58.08 183.66C55.02 182.4 50.12 181.04 45.04 180.1ZM47.34 166.58H48.76V173.56H47.34V166.58ZM52 166.58H53.42V173.56H52V166.58ZM44.28 170.34V173.06H56.76V170.34H44.28ZM42.88 169.12H58.26V174.3H42.88V169.12ZM67.96 173.76H79.32V175.14H67.96V173.76ZM74.66 170.94L75.7 170.2C76.72 170.86 77.94 171.9 78.48 172.64L77.42 173.48C76.88 172.72 75.7 171.66 74.66 170.94ZM74.04 174.48C74.86 178.14 76.62 181.06 79.56 182.36C79.22 182.64 78.78 183.2 78.58 183.58C75.52 182.02 73.74 178.84 72.82 174.7L74.04 174.48ZM61.74 166.8H79.32V168.16H61.74V166.8ZM66.46 165.2H67.96V169.8H66.46V165.2ZM73.14 165.2H74.62V169.7H73.14V165.2ZM72.64 170.1H74.06V173.06C74.06 176.34 73.46 180.58 68.52 183.66C68.26 183.34 67.76 182.94 67.4 182.68C72.12 179.78 72.64 175.88 72.64 173.06V170.1ZM62.36 170.68L63.36 169.9C66.94 172.24 67.42 175 67.42 177.88C67.42 180.16 67.2 181.9 66.38 182.84C66.14 183.14 65.76 183.34 65.32 183.4C64.66 183.52 63.92 183.52 63.1 183.48C63.08 183.08 62.92 182.54 62.64 182.16C63.56 182.22 64.3 182.22 64.74 182.16C65.02 182.14 65.2 182.04 65.36 181.84C65.86 181.24 66.02 179.82 66.02 177.8C66.02 175.16 65.44 172.76 62.36 170.68ZM65.84 175.26L66.88 175.88C65.84 177.4 63.84 179.1 62.18 180.02C61.98 179.66 61.6 179.18 61.26 178.9C62.92 178.18 64.88 176.66 65.84 175.26ZM66.98 170.22L68.22 170.88C66.8 172.52 64.46 174.04 62.22 175.08C62 174.78 61.6 174.34 61.3 174.1C63.52 173.16 65.76 171.62 66.98 170.22ZM90.12 169.66V171.3H96.74V169.66H90.12ZM90.12 166.96V168.58H96.74V166.96H90.12ZM88.68 165.82H98.24V172.44H88.68V165.82ZM87.44 173.82H99.2V175.08H87.44V173.82ZM86.98 176.8H99.56V178.12H86.98V176.8ZM95.06 174.92H96.56V181.96C96.56 182.76 96.38 183.16 95.78 183.38C95.18 183.62 94.22 183.62 92.72 183.62C92.66 183.22 92.42 182.66 92.22 182.26C93.36 182.3 94.36 182.3 94.66 182.28C94.98 182.26 95.06 182.18 95.06 181.92V174.92ZM88.72 179.14L89.78 178.42C90.7 179.26 91.8 180.44 92.32 181.22L91.18 182.06C90.7 181.26 89.62 180.02 88.72 179.14ZM85.88 169.66L87.2 170.2C85.84 172.58 83.7 175 81.72 176.56C81.6 176.26 81.18 175.46 80.92 175.12C82.74 173.8 84.68 171.74 85.88 169.66ZM85.5 165.26L86.94 165.82C85.74 167.54 83.82 169.42 82.04 170.6C81.88 170.26 81.5 169.68 81.24 169.38C82.84 168.34 84.64 166.68 85.5 165.26ZM84.08 173.2L85.48 171.78L85.54 171.82V183.6H84.08V173.2ZM102.44 166.48L103.44 165.6C104.44 166.48 105.7 167.72 106.3 168.52L105.22 169.54C104.66 168.72 103.42 167.42 102.44 166.48ZM104 182.8L103.72 181.42L104.08 180.8L107.5 177.96C107.64 178.36 107.9 178.92 108.06 179.18C104.76 181.98 104.26 182.42 104 182.8ZM101.36 171.46H105.08V172.84H101.36V171.46ZM107.26 175.58H119.6V176.96H107.26V175.58ZM114.62 176.24C115.8 178.24 118.04 180.42 119.94 181.46C119.6 181.74 119.14 182.26 118.9 182.64C117 181.38 114.82 178.92 113.58 176.68L114.62 176.24ZM109.72 170.56V172.64H116.92V170.56H109.72ZM109.72 167.3V169.36H116.92V167.3H109.72ZM108.34 166.06H118.34V173.88H108.34V166.06ZM112.26 176.24L113.32 176.64C112.06 179.14 109.76 181.6 107.56 182.82C107.34 182.46 106.9 181.96 106.58 181.68C108.76 180.66 111.08 178.44 112.26 176.24ZM112.76 166.68H114.14V173.26H114.2V183.6H112.72V173.26H112.76V166.68ZM104 182.8C103.82 182.52 103.36 182 103.08 181.8C103.46 181.46 104.16 180.68 104.16 179.64V171.46H105.6V180.64C105.6 180.64 104 182.2 104 182.8ZM133.38 174.64H134.86V182.64H133.38V174.64ZM128.98 174.1H139.32V175.42H128.98V174.1ZM128.12 181.74H139.76V183.08H128.12V181.74ZM129.46 177.82H138.86V179.12H129.46V177.82ZM131.14 167.34V171.04H137.16V167.34H131.14ZM129.74 166.04H138.62V172.34H129.74V166.04ZM124.74 166.86H126.2V183.56H124.74V166.86ZM121.46 170.84H128.72V172.26H121.46V170.84ZM124.82 171.38L125.76 171.78C124.96 174.6 123.36 178.1 121.82 179.96C121.68 179.54 121.32 178.92 121.06 178.58C122.5 176.98 124.1 173.86 124.82 171.38ZM127.7 165.5L128.76 166.66C126.92 167.4 124.12 167.96 121.8 168.28C121.72 167.94 121.52 167.46 121.34 167.12C123.6 166.74 126.24 166.18 127.7 165.5ZM126.14 173.42C126.64 173.86 128.52 175.76 128.92 176.26L128.04 177.44C127.56 176.62 126.06 174.72 125.44 174.02L126.14 173.42ZM143.12 168.42H149.2V181.5H143.12V180.14H147.8V169.76H143.12V168.42ZM142.22 168.42H143.62V183.1H142.22V168.42ZM143.02 173.98H148.54V175.32H143.02V173.98ZM145.28 165.16L146.9 165.46C146.5 166.7 146 168.08 145.6 168.98L144.4 168.68C144.74 167.72 145.12 166.2 145.28 165.16ZM152.04 168.36H158.18V169.76H152.04V168.36ZM157.66 168.36H159.06C159.06 168.36 159.06 168.92 159.06 169.14C158.74 178.32 158.46 181.42 157.66 182.4C157.22 182.98 156.76 183.16 156.06 183.22C155.38 183.3 154.2 183.26 153.08 183.2C153.04 182.76 152.86 182.14 152.58 181.74C153.88 181.84 155.08 181.86 155.54 181.86C155.94 181.86 156.18 181.8 156.4 181.54C157.06 180.82 157.38 177.5 157.66 168.68V168.36ZM152.46 165.12L153.9 165.46C153.16 168.44 151.98 171.38 150.6 173.28C150.34 173.04 149.72 172.62 149.36 172.42C150.72 170.66 151.82 167.9 152.46 165.12ZM151.54 173.56L152.7 172.88C153.84 174.3 155.22 176.24 155.86 177.42L154.58 178.22C153.98 177 152.64 175.02 151.54 173.56ZM165.5 169.32V170.74H175.54V169.32H165.5ZM165.5 166.92V168.3H175.54V166.92H165.5ZM164.04 165.84H177.02V171.8H164.04V165.84ZM161.66 172.92H179.28V174.16H161.66V172.92ZM170.54 175.42H177.66V176.64H170.54V175.42ZM164.26 175.54H169.2V176.66H164.26V175.54ZM164.26 178.06H169.2V179.18H164.26V178.06ZM172.64 176.54C173.8 179.4 176.36 181.58 179.76 182.42C179.44 182.7 179.04 183.24 178.84 183.6C175.32 182.56 172.74 180.18 171.42 176.9L172.64 176.54ZM177.2 175.42H177.48L177.74 175.36L178.66 175.74C177.34 179.8 174.12 182.3 170.64 183.5C170.48 183.14 170.1 182.6 169.82 182.32C173.02 181.36 176.1 179.02 177.2 175.66V175.42ZM161.48 181.12C163.44 180.96 166.34 180.64 169.16 180.32V181.56C166.46 181.88 163.68 182.22 161.62 182.46L161.48 181.12ZM168.4 173.32H169.84V183.6H168.4V173.32ZM163.38 173.34H164.78V181.48H163.38V173.34ZM181.76 178.34C181.68 178.04 181.44 177.32 181.28 176.96C181.72 176.86 182.18 176.38 182.82 175.66C183.48 174.96 185.62 172.18 187.02 169.5L188.28 170.26C186.66 172.96 184.68 175.64 182.74 177.54V177.58C182.74 177.58 181.76 178.02 181.76 178.34ZM181.76 178.34L181.7 177.12L182.46 176.62L188.02 175.86C188 176.24 188.02 176.82 188.06 177.14C182.88 177.94 182.2 178.1 181.76 178.34ZM181.62 173.52C181.54 173.2 181.3 172.48 181.12 172.1C181.48 172 181.84 171.54 182.26 170.84C182.74 170.18 184.18 167.6 185.02 165.18L186.48 165.78C185.42 168.28 183.98 170.88 182.6 172.68V172.72C182.6 172.72 181.62 173.2 181.62 173.52ZM181.62 173.52L181.58 172.44L182.32 172L186.48 171.62C186.42 172 186.36 172.54 186.36 172.82C182.56 173.24 181.98 173.36 181.62 173.52ZM181.2 180.96C183 180.66 185.72 180.14 188.36 179.62L188.48 180.96C185.98 181.5 183.38 182 181.46 182.42L181.2 180.96ZM191.8 176.72L192.68 175.76C194.12 176.3 195.92 177.24 196.88 177.94L195.96 179C195.02 178.28 193.24 177.3 191.8 176.72ZM189.58 180.44L190.46 179.36C193.16 180.06 196.48 181.4 198.32 182.4L197.44 183.6C195.62 182.52 192.32 181.16 189.58 180.44ZM192.16 165.2L193.7 165.46C192.72 167.64 191.22 170 188.96 171.9C188.72 171.56 188.22 171.08 187.86 170.88C189.98 169.24 191.4 167 192.16 165.2ZM191.96 167.3H197.4V168.62H191.3L191.96 167.3ZM196.96 167.3H197.28L197.54 167.24L198.48 167.78C196.68 172.04 192.86 175.04 189.04 176.62C188.88 176.26 188.4 175.66 188.1 175.4C191.84 174.02 195.48 171.22 196.96 167.58V167.3ZM191.7 168.44C193.34 171.44 196.6 174.2 200.04 175.4C199.68 175.68 199.26 176.26 199.02 176.64C195.54 175.24 192.28 172.3 190.48 168.9L191.7 168.44ZM203.9 172.7H208.88V174.1H203.9V172.7ZM208.28 172.7H209.74C209.74 172.7 209.74 173.14 209.74 173.34C209.64 177.86 209.52 179.54 209.1 180.1C208.78 180.46 208.46 180.6 207.9 180.66C207.38 180.72 206.48 180.7 205.5 180.66C205.46 180.22 205.3 179.64 205.08 179.26C205.98 179.34 206.86 179.34 207.2 179.34C207.48 179.34 207.68 179.32 207.82 179.14C208.12 178.78 208.22 177.28 208.28 172.96V172.7ZM213.92 166.22L214.82 165.28C216.06 165.92 217.64 166.88 218.42 167.58L217.48 168.6C216.72 167.9 215.18 166.88 213.92 166.22ZM216.78 171.64L218.28 172C216.58 177.22 213.6 181.08 209.5 183.5C209.28 183.2 208.72 182.58 208.4 182.28C212.46 180.12 215.28 176.46 216.78 171.64ZM204.02 168.6H219.5V170.08H204.02V168.6ZM203.06 168.6H204.62V174.24C204.62 177.08 204.3 181.12 202.48 183.74C202.22 183.44 201.58 182.92 201.22 182.74C202.88 180.28 203.06 176.84 203.06 174.22V168.6ZM211.36 165.24H212.92C212.88 174.44 214.84 181.94 217.44 181.94C218 181.94 218.26 180.9 218.38 178.24C218.72 178.58 219.28 178.92 219.68 179.06C219.4 182.48 218.84 183.46 217.32 183.46C213.24 183.46 211.44 174.82 211.36 165.24ZM221.82 178.36C221.76 178.08 221.56 177.42 221.38 177.08C221.8 177 222.26 176.5 222.9 175.76C223.58 175.04 225.68 172.22 227.08 169.5L228.26 170.22C226.64 172.94 224.7 175.68 222.8 177.62V177.64C222.8 177.64 221.82 178.08 221.82 178.36ZM221.82 178.36L221.74 177.22L222.46 176.72L228.1 175.68C228.06 176.06 228.06 176.6 228.08 176.9C222.92 177.94 222.24 178.12 221.82 178.36ZM221.68 173.56C221.62 173.26 221.38 172.56 221.22 172.18C221.56 172.1 221.92 171.64 222.36 170.94C222.82 170.28 224.34 167.66 225.18 165.24L226.52 165.86C225.44 168.36 224 170.94 222.56 172.76V172.8C222.56 172.8 221.68 173.26 221.68 173.56ZM221.68 173.56L221.66 172.5L222.34 172.04L226 171.66C225.96 172.02 225.9 172.56 225.92 172.84C222.56 173.28 222 173.4 221.68 173.56ZM221.34 180.94C223.04 180.6 225.62 180.02 228.14 179.42L228.28 180.68C225.92 181.28 223.46 181.88 221.6 182.34L221.34 180.94ZM228.6 166.96H239.2V168.14H228.6V166.96ZM229.24 169.34H238.7V170.46H229.24V169.34ZM228.06 171.78H239.64V172.92H228.06V171.78ZM233.08 165.32H234.48V172.4H233.08V165.32ZM233.04 176.54H234.42V178.12C234.42 179.92 233.74 182.18 228.02 183.66C227.86 183.32 227.44 182.82 227.14 182.52C232.56 181.32 233.04 179.42 233.04 178.08V176.54ZM234.28 181.24L234.98 180.28C236.56 180.86 238.68 181.78 239.76 182.46L239.04 183.54C237.98 182.86 235.88 181.84 234.28 181.24ZM229.18 174.18H238.6V180.02H237.16V175.38H230.56V180.02H229.18V174.18ZM243.64 184.14L243.18 183.1C244.82 182.42 245.72 181.4 245.72 179.9L245.34 178.2L246.42 179.72C246.14 180.08 245.74 180.18 245.36 180.18C244.54 180.18 243.86 179.7 243.86 178.74C243.86 177.8 244.58 177.3 245.38 177.3C246.5 177.3 247.1 178.22 247.1 179.62C247.1 181.78 245.74 183.42 243.64 184.14ZM269.86 165.22L271.24 165.56C270.46 167.7 269.16 169.74 267.76 171.1C267.54 170.84 266.98 170.36 266.64 170.14C268 168.96 269.18 167.14 269.86 165.22ZM269.78 170.26L271.18 170.62C270.56 172.2 269.52 173.76 268.52 174.8C268.24 174.58 267.64 174.2 267.3 174.02C268.34 173.06 269.24 171.66 269.78 170.26ZM269.66 167.18H278.34V168.5H269.14L269.66 167.18ZM272.6 168.08H274.04V175.04C274.04 175.8 273.9 176.2 273.34 176.42C272.82 176.64 272 176.66 270.74 176.66C270.66 176.26 270.46 175.7 270.24 175.32C271.18 175.36 272.02 175.36 272.28 175.34C272.54 175.32 272.6 175.26 272.6 175.04V168.08ZM275.14 170.7L276.38 170.16C277.36 171.46 278.34 173.22 278.76 174.38L277.46 175C277.06 173.82 276.08 172 275.14 170.7ZM277.92 167.18H278.16L278.4 167.14L279.44 167.4C278.94 168.66 278.32 170.12 277.84 171L276.54 170.74C277 169.9 277.54 168.52 277.92 167.4V167.18ZM266.48 177.64H267.96V181.26C267.96 181.8 268.16 181.9 269.22 181.9C269.72 181.9 272.22 181.9 272.88 181.9C273.76 181.9 273.9 181.64 274 179.66C274.32 179.92 274.92 180.14 275.34 180.24C275.16 182.66 274.7 183.26 272.98 183.26C272.52 183.26 269.54 183.26 269.1 183.26C267.02 183.26 266.48 182.84 266.48 181.26V177.64ZM268.2 177.04L269.2 176.14C270.48 176.76 272.02 177.78 272.74 178.58L271.66 179.56C270.98 178.76 269.5 177.68 268.2 177.04ZM274.78 178.26L276.02 177.56C277.5 178.82 279.06 180.62 279.68 181.98L278.34 182.74C277.76 181.42 276.28 179.54 274.78 178.26ZM264.04 177.88L265.38 178.32C264.88 180.12 264.1 181.9 262.52 182.96L261.28 182.1C262.76 181.16 263.62 179.56 264.04 177.88ZM265.96 165.2L267.3 165.66C266 168.14 263.98 170.6 262.04 172.18C261.86 171.88 261.36 171.28 261.06 171.02C262.94 169.6 264.82 167.4 265.96 165.2ZM264.12 168.96L265.54 167.54L265.56 167.56V176.64H264.12V168.96ZM283.18 166.02H297.8V167.22H283.18V166.02ZM281.78 174.88H299.26V176.1H281.78V174.88ZM284.36 170.58H288.68V171.6H284.36V170.58ZM283.94 172.68H288.68V173.7H283.94V172.68ZM292.2 172.68H297.1V173.7H292.2V172.68ZM292.2 170.58H296.62V171.6H292.2V170.58ZM289.7 166.48H291.16V174.22H289.7V166.48ZM287.72 178.32H289.12V183.46H287.72V178.32ZM292.16 178.32H293.54V183.46H292.16V178.32ZM282.02 168.38H299V172.22H297.58V169.48H283.38V172.22H282.02V168.38ZM283.34 177.54H297.06V178.78H284.76V183.58H283.34V177.54ZM296.68 177.54H298.12V182.12C298.12 182.8 298.02 183.16 297.5 183.38C297 183.62 296.26 183.6 295.16 183.6C295.1 183.24 294.88 182.72 294.7 182.36C295.5 182.38 296.18 182.38 296.4 182.36C296.62 182.34 296.68 182.28 296.68 182.1V177.54ZM289.72 175.34L291.36 175.4C291 176.48 290.58 177.58 290.24 178.32L288.92 178.18C289.22 177.36 289.58 176.16 289.72 175.34ZM41.4 199.14H59.6V200.4H41.4V199.14ZM41.88 189.08H59.1V190.4H41.88V189.08ZM48.34 197.04L49.8 197.44C48.5 199.52 46.66 202.14 45.38 203.78L43.96 203.3C45.24 201.68 47.1 199 48.34 197.04ZM54.34 199.58L55.78 200C54.02 204.4 49.76 206.04 42.26 206.6C42.16 206.16 41.92 205.62 41.68 205.28C48.82 204.9 52.74 203.48 54.34 199.58ZM45.04 203.1L45.8 202C50.74 202.88 55.88 204.22 58.98 205.44L58.08 206.66C55.02 205.4 50.12 204.04 45.04 203.1ZM47.34 189.58H48.76V196.56H47.34V189.58ZM52 189.58H53.42V196.56H52V189.58ZM44.28 193.34V196.06H56.76V193.34H44.28ZM42.88 192.12H58.26V197.3H42.88V192.12ZM62.12 193.02H77.56V194.52H62.12V193.02ZM76.94 193.02H78.5C78.5 193.02 78.5 193.58 78.48 193.8C78.18 201.82 77.9 204.66 77.1 205.58C76.66 206.14 76.18 206.32 75.46 206.38C74.76 206.44 73.48 206.42 72.26 206.34C72.22 205.9 72.02 205.24 71.74 204.78C73.08 204.92 74.34 204.92 74.84 204.92C75.26 204.92 75.48 204.86 75.72 204.62C76.36 203.98 76.68 201.02 76.94 193.34V193.02ZM68.7 188.24H70.22V190.62C70.22 195.1 69.74 201.7 62.76 206.34C62.52 205.98 61.96 205.48 61.58 205.22C68.28 200.88 68.7 194.76 68.7 190.62V188.24ZM63.72 189.32L65.02 188.76C65.82 189.64 66.76 190.9 67.18 191.72L65.82 192.36C65.44 191.56 64.52 190.26 63.72 189.32ZM70.46 197.6L71.7 196.98C72.76 198.16 73.98 199.78 74.5 200.84L73.18 201.54C72.68 200.48 71.48 198.8 70.46 197.6ZM82.44 189.48L83.44 188.6C84.44 189.48 85.7 190.72 86.3 191.52L85.22 192.54C84.66 191.72 83.42 190.42 82.44 189.48ZM84 205.8L83.72 204.42L84.08 203.8L87.5 200.96C87.64 201.36 87.9 201.92 88.06 202.18C84.76 204.98 84.26 205.42 84 205.8ZM81.36 194.46H85.08V195.84H81.36V194.46ZM87.26 198.58H99.6V199.96H87.26V198.58ZM94.62 199.24C95.8 201.24 98.04 203.42 99.94 204.46C99.6 204.74 99.14 205.26 98.9 205.64C97 204.38 94.82 201.92 93.58 199.68L94.62 199.24ZM89.72 193.56V195.64H96.92V193.56H89.72ZM89.72 190.3V192.36H96.92V190.3H89.72ZM88.34 189.06H98.34V196.88H88.34V189.06ZM92.26 199.24L93.32 199.64C92.06 202.14 89.76 204.6 87.56 205.82C87.34 205.46 86.9 204.96 86.58 204.68C88.76 203.66 91.08 201.44 92.26 199.24ZM92.76 189.68H94.14V196.26H94.2V206.6H92.72V196.26H92.76V189.68ZM84 205.8C83.82 205.52 83.36 205 83.08 204.8C83.46 204.46 84.16 203.68 84.16 202.64V194.46H85.6V203.64C85.6 203.64 84 205.2 84 205.8ZM113.38 197.64H114.86V205.64H113.38V197.64ZM108.98 197.1H119.32V198.42H108.98V197.1ZM108.12 204.74H119.76V206.08H108.12V204.74ZM109.46 200.82H118.86V202.12H109.46V200.82ZM111.14 190.34V194.04H117.16V190.34H111.14ZM109.74 189.04H118.62V195.34H109.74V189.04ZM104.74 189.86H106.2V206.56H104.74V189.86ZM101.46 193.84H108.72V195.26H101.46V193.84ZM104.82 194.38L105.76 194.78C104.96 197.6 103.36 201.1 101.82 202.96C101.68 202.54 101.32 201.92 101.06 201.58C102.5 199.98 104.1 196.86 104.82 194.38ZM107.7 188.5L108.76 189.66C106.92 190.4 104.12 190.96 101.8 191.28C101.72 190.94 101.52 190.46 101.34 190.12C103.6 189.74 106.24 189.18 107.7 188.5ZM106.14 196.42C106.64 196.86 108.52 198.76 108.92 199.26L108.04 200.44C107.56 199.62 106.06 197.72 105.44 197.02L106.14 196.42ZM122.42 191.78H138.54V201.2H136.98V193.26H123.92V201.3H122.42V191.78ZM123.22 198.58H137.88V200.04H123.22V198.58ZM129.66 188.2H131.22V206.58H129.66V188.2ZM143.12 191.42H149.2V204.5H143.12V203.14H147.8V192.76H143.12V191.42ZM142.22 191.42H143.62V206.1H142.22V191.42ZM143.02 196.98H148.54V198.32H143.02V196.98ZM145.28 188.16L146.9 188.46C146.5 189.7 146 191.08 145.6 191.98L144.4 191.68C144.74 190.72 145.12 189.2 145.28 188.16ZM152.04 191.36H158.18V192.76H152.04V191.36ZM157.66 191.36H159.06C159.06 191.36 159.06 191.92 159.06 192.14C158.74 201.32 158.46 204.42 157.66 205.4C157.22 205.98 156.76 206.16 156.06 206.22C155.38 206.3 154.2 206.26 153.08 206.2C153.04 205.76 152.86 205.14 152.58 204.74C153.88 204.84 155.08 204.86 155.54 204.86C155.94 204.86 156.18 204.8 156.4 204.54C157.06 203.82 157.38 200.5 157.66 191.68V191.36ZM152.46 188.12L153.9 188.46C153.16 191.44 151.98 194.38 150.6 196.28C150.34 196.04 149.72 195.62 149.36 195.42C150.72 193.66 151.82 190.9 152.46 188.12ZM151.54 196.56L152.7 195.88C153.84 197.3 155.22 199.24 155.86 200.42L154.58 201.22C153.98 200 152.64 198.02 151.54 196.56ZM177.76 188.7L178.88 189.96C175.96 190.96 171.48 191.7 167.68 192.16C167.62 191.8 167.4 191.24 167.24 190.88C170.96 190.4 175.3 189.6 177.76 188.7ZM166.56 196.78H179.7V198.22H166.56V196.78ZM167.34 204.4H179.38V205.84H167.34V204.4ZM172.52 190.92H174.02V204.8H172.52V190.92ZM164.2 193.52L165.68 192.04L165.7 192.08V206.6H164.2V193.52ZM166.38 188.22L167.84 188.68C166.42 192.16 164.18 195.62 161.84 197.9C161.68 197.54 161.22 196.76 160.92 196.38C163.08 194.42 165.14 191.36 166.38 188.22ZM183.02 199.38H196.9V200.7H183.02V199.38ZM196.4 199.38H197.9C197.9 199.38 197.86 199.82 197.82 200.04C197.36 203.68 196.92 205.22 196.22 205.84C195.8 206.24 195.34 206.34 194.6 206.38C194 206.4 192.8 206.4 191.6 206.32C191.58 205.92 191.38 205.36 191.12 204.98C192.38 205.1 193.68 205.12 194.18 205.12C194.6 205.12 194.84 205.1 195.06 204.94C195.58 204.5 196.02 202.98 196.38 199.58L196.4 199.38ZM189.4 197.38L190.96 197.52C190.16 202.94 187.52 205.34 182.46 206.58C182.3 206.24 181.9 205.6 181.62 205.3C186.46 204.38 188.84 202.22 189.4 197.38ZM186.92 190.26H196.62V191.56H186.92V190.26ZM196.26 190.26H196.56L196.82 190.2L197.74 190.82C194.84 195.14 188.18 197.14 182 197.86C181.9 197.48 181.64 196.88 181.4 196.54C187.34 195.98 193.84 194.1 196.26 190.46V190.26ZM186.9 191.78C189.08 194.6 193.92 195.94 199.7 196.28C199.4 196.62 199.04 197.2 198.86 197.62C193.02 197.14 188.18 195.6 185.66 192.3L186.9 191.78ZM188.14 188.18L189.7 188.48C188.36 190.66 186.28 192.86 183.24 194.56C183.04 194.2 182.6 193.66 182.3 193.44C185.12 191.98 187.1 189.94 188.14 188.18ZM207.96 196.76H219.32V198.14H207.96V196.76ZM214.66 193.94L215.7 193.2C216.72 193.86 217.94 194.9 218.48 195.64L217.42 196.48C216.88 195.72 215.7 194.66 214.66 193.94ZM214.04 197.48C214.86 201.14 216.62 204.06 219.56 205.36C219.22 205.64 218.78 206.2 218.58 206.58C215.52 205.02 213.74 201.84 212.82 197.7L214.04 197.48ZM201.74 189.8H219.32V191.16H201.74V189.8ZM206.46 188.2H207.96V192.8H206.46V188.2ZM213.14 188.2H214.62V192.7H213.14V188.2ZM212.64 193.1H214.06V196.06C214.06 199.34 213.46 203.58 208.52 206.66C208.26 206.34 207.76 205.94 207.4 205.68C212.12 202.78 212.64 198.88 212.64 196.06V193.1ZM202.36 193.68L203.36 192.9C206.94 195.24 207.42 198 207.42 200.88C207.42 203.16 207.2 204.9 206.38 205.84C206.14 206.14 205.76 206.34 205.32 206.4C204.66 206.52 203.92 206.52 203.1 206.48C203.08 206.08 202.92 205.54 202.64 205.16C203.56 205.22 204.3 205.22 204.74 205.16C205.02 205.14 205.2 205.04 205.36 204.84C205.86 204.24 206.02 202.82 206.02 200.8C206.02 198.16 205.44 195.76 202.36 193.68ZM205.84 198.26L206.88 198.88C205.84 200.4 203.84 202.1 202.18 203.02C201.98 202.66 201.6 202.18 201.26 201.9C202.92 201.18 204.88 199.66 205.84 198.26ZM206.98 193.22L208.22 193.88C206.8 195.52 204.46 197.04 202.22 198.08C202 197.78 201.6 197.34 201.3 197.1C203.52 196.16 205.76 194.62 206.98 193.22ZM230.12 192.66V194.3H236.74V192.66H230.12ZM230.12 189.96V191.58H236.74V189.96H230.12ZM228.68 188.82H238.24V195.44H228.68V188.82ZM227.44 196.82H239.2V198.08H227.44V196.82ZM226.98 199.8H239.56V201.12H226.98V199.8ZM235.06 197.92H236.56V204.96C236.56 205.76 236.38 206.16 235.78 206.38C235.18 206.62 234.22 206.62 232.72 206.62C232.66 206.22 232.42 205.66 232.22 205.26C233.36 205.3 234.36 205.3 234.66 205.28C234.98 205.26 235.06 205.18 235.06 204.92V197.92ZM228.72 202.14L229.78 201.42C230.7 202.26 231.8 203.44 232.32 204.22L231.18 205.06C230.7 204.26 229.62 203.02 228.72 202.14ZM225.88 192.66L227.2 193.2C225.84 195.58 223.7 198 221.72 199.56C221.6 199.26 221.18 198.46 220.92 198.12C222.74 196.8 224.68 194.74 225.88 192.66ZM225.5 188.26L226.94 188.82C225.74 190.54 223.82 192.42 222.04 193.6C221.88 193.26 221.5 192.68 221.24 192.38C222.84 191.34 224.64 189.68 225.5 188.26ZM224.08 196.2L225.48 194.78L225.54 194.82V206.6H224.08V196.2ZM247.24 190.98C248.92 198.28 252.5 203.42 259.92 205.18C259.58 205.5 259.12 206.16 258.88 206.58C251.28 204.56 247.78 199.22 245.92 191.28L247.24 190.98ZM242.28 189.28H253.48V190.74H242.28V189.28ZM257.18 194.12H257.46L257.74 194.06L258.76 194.46C257.06 201.52 252.32 205.04 246.7 206.62C246.52 206.24 246.16 205.62 245.84 205.3C251.12 204.02 255.7 200.6 257.18 194.4V194.12ZM253.14 189.28H253.32L253.6 189.2L254.74 189.42C254.3 191.48 253.6 194.38 252.98 196.58L251.42 196.36C252.08 194.14 252.8 191.06 253.14 189.46V189.28ZM252.86 194.12H257.52V195.54H252.54L252.86 194.12ZM245.82 189.74H247.34V192.42C247.34 196.42 246.94 201.88 242.28 206.24C242.06 205.86 241.54 205.26 241.2 204.98C245.5 201 245.82 196 245.82 192.44V189.74ZM271.56 190.36H277.2V191.68H271.56V190.36ZM269.74 199.28H278.16V206.56H276.72V200.58H271.14V206.62H269.74V199.28ZM270.34 204.42H277.48V205.74H270.34V204.42ZM272.14 188.18L273.58 188.58C272.5 191.24 270.74 193.74 268.92 195.32C268.68 195.06 268.08 194.54 267.74 194.32C269.58 192.88 271.2 190.6 272.14 188.18ZM276.78 190.36H277.06L277.32 190.3L278.26 190.74C276.54 195.7 272.42 198.88 268.16 200.42C267.98 200.04 267.6 199.48 267.3 199.2C271.32 197.94 275.32 194.86 276.78 190.62V190.36ZM271.44 191.4C272.68 194.24 275.62 197.38 280.02 198.72C279.72 199 279.3 199.6 279.1 199.96C274.64 198.4 271.7 195.08 270.34 192.1L271.44 191.4ZM261.52 192.5H268.56V193.92H261.52V192.5ZM264.54 188.2H265.96V206.58H264.54V188.2ZM264.48 193.38L265.42 193.7C264.76 196.92 263.34 200.82 261.84 202.84C261.68 202.44 261.32 201.86 261.04 201.52C262.46 199.72 263.88 196.26 264.48 193.38ZM265.86 194.72C266.34 195.2 268.1 197.34 268.5 197.88L267.6 199.04C267.12 198.16 265.68 196.1 265.12 195.38L265.86 194.72ZM284.24 195.78H295.68V197.24H284.24V195.78ZM295.18 195.78H296.74C296.74 195.78 296.72 196.3 296.7 196.5C296.42 202.7 296.14 205.02 295.42 205.78C295.02 206.28 294.58 206.42 293.88 206.48C293.22 206.54 291.96 206.52 290.7 206.46C290.68 206 290.48 205.38 290.2 204.94C291.52 205.06 292.76 205.08 293.24 205.08C293.64 205.08 293.88 205.04 294.08 204.82C294.62 204.28 294.92 202 295.18 196.06V195.78ZM286.98 188.62L288.56 189.08C287.12 192.46 284.76 195.44 282.24 197.36C281.96 197.04 281.32 196.46 280.94 196.18C283.5 194.46 285.72 191.7 286.98 188.62ZM293.96 188.58C295.26 191.26 297.84 194.3 300.02 195.84C299.62 196.16 299.06 196.76 298.76 197.18C296.54 195.38 294.02 192.14 292.52 189.16L293.96 188.58ZM288.46 196.18H290.06C289.6 200.56 288.56 204.7 282.98 206.7C282.8 206.32 282.36 205.72 282.02 205.4C287.26 203.66 288.06 199.96 288.46 196.18ZM54.6198 221.88H64.4398V223.14H54.6198V221.88ZM54.7398 214.9H64.3798V216.12H54.7398V214.9ZM58.3398 220.16L59.7398 220.46C58.8398 222.42 57.5798 224.86 56.6598 226.44L55.3398 225.98C56.2398 224.46 57.4998 222 58.3398 220.16ZM61.3398 222.62L62.7398 222.8C62.0598 226.7 59.9598 228.62 55.3398 229.6C55.2398 229.2 54.9398 228.66 54.6598 228.36C58.8398 227.66 60.7198 226.02 61.3398 222.62ZM62.5998 211.6L63.8798 212.16C63.2998 213.08 62.6398 214.08 62.0798 214.76L61.0798 214.26C61.5798 213.54 62.2398 212.38 62.5998 211.6ZM58.8798 211.2H60.2598V220.4H58.8798V211.2ZM55.4798 212.16L56.6198 211.68C57.1798 212.48 57.7198 213.54 57.9198 214.26L56.7398 214.8C56.5598 214.08 56.0398 212.98 55.4798 212.16ZM58.8998 215.44L59.9198 216.04C58.9398 217.72 57.0598 219.5 55.3398 220.44C55.1598 220.1 54.7998 219.6 54.5198 219.3C56.1798 218.58 58.0198 216.98 58.8998 215.44ZM60.0998 216.14C60.8198 216.52 63.2598 218.06 63.8398 218.48L63.0198 219.58C62.2998 218.9 60.2198 217.34 59.3798 216.78L60.0998 216.14ZM65.8998 214.9H73.0198V216.3H65.8998V214.9ZM66.3998 211.2L67.9198 211.42C67.2598 215.34 66.0798 218.92 64.3198 221.26C64.0798 220.98 63.4598 220.48 63.0998 220.24C64.7998 218.12 65.8398 214.74 66.3998 211.2ZM70.3398 215.7L71.8598 215.86C70.8998 222.76 68.7798 227.06 63.7398 229.66C63.5798 229.3 63.1398 228.64 62.8398 228.32C67.5998 226.08 69.5198 222.04 70.3398 215.7ZM66.6998 216.14C67.5798 221.64 69.4998 226.36 73.2198 228.32C72.8598 228.62 72.3798 229.2 72.1598 229.6C68.2398 227.3 66.3398 222.42 65.3398 216.36L66.6998 216.14ZM56.5398 225.7L57.3398 224.68C59.7398 225.6 62.2198 226.92 63.6598 228.02L62.6198 229.1C61.2398 227.98 58.8598 226.64 56.5398 225.7ZM79.543 227.077V217.474H81.4535V227.077H79.543ZM75.7006 223.227V221.317H85.3029V223.227H75.7006ZM94.4402 214.36L95.7802 213.7C97.1202 215.16 98.4002 217.14 98.9802 218.5L97.5402 219.28C97.0202 217.9 95.7202 215.84 94.4402 214.36ZM87.8602 225.88C89.9002 225.08 93.1002 223.72 96.1002 222.4L96.4402 223.86C93.6602 225.14 90.6202 226.48 88.4002 227.44L87.8602 225.88ZM99.8602 223.24L101.02 222.26C102.92 224.14 105.4 226.74 106.58 228.38L105.3 229.56C104.18 227.9 101.78 225.2 99.8602 223.24ZM102.64 212.24L104.26 212.4C103.24 221.64 100.9 226.74 93.9002 229.66C93.6802 229.34 93.0802 228.68 92.7002 228.36C99.6202 225.84 101.74 220.94 102.64 212.24ZM90.3002 212.3L91.8402 212.24L92.1802 225.46L90.6402 225.52L90.3002 212.3ZM119.48 211.24L120.92 211.54C120.08 214.74 118.7 217.7 116.98 219.64C116.72 219.42 116.1 218.96 115.74 218.74C117.44 216.98 118.74 214.2 119.48 211.24ZM119.4 214.02H126.04V215.4H118.84L119.4 214.02ZM108.08 227.72H126.28V229.08H108.08V227.72ZM110.34 222H124.14V228.22H122.68V223.28H119.94V228.22H118.54V223.28H115.84V228.22H114.44V223.28H111.76V228.22H110.34V222ZM119.82 217.58L120.96 216.78C122.38 217.72 124.14 219.1 125.02 220.02L123.84 220.94C123 220 121.26 218.58 119.82 217.58ZM113.5 211.28H115V220.78H113.5V211.28ZM109.58 211.94H111.04V220.16H109.58V211.94ZM128.44 217.14H145.66V218.44H128.44V217.14ZM129.98 213.58H141.34V214.84H129.98V213.58ZM135.08 211.2H136.56V217.78H135.08V211.2ZM142.58 219.72L143.56 220.74C141.04 221.42 137.14 221.88 133.88 222.12C133.84 221.82 133.66 221.34 133.52 221.08C136.68 220.8 140.48 220.3 142.58 219.72ZM143.64 212.14L144.86 212.82C140.82 217.72 134.74 221.44 128.58 223.8C128.38 223.5 127.92 222.9 127.62 222.62C133.86 220.46 139.88 216.74 143.64 212.14ZM133.3 219.76L134.78 219.94C134.36 221.88 133.76 224.34 133.3 225.84L131.8 225.64C132.3 224.12 132.92 221.62 133.3 219.76ZM142.02 223.6H143.54C143.54 223.6 143.5 224.04 143.46 224.28C142.98 227.24 142.54 228.56 141.88 229.14C141.46 229.52 141.04 229.62 140.34 229.64C139.72 229.68 138.54 229.66 137.3 229.58C137.26 229.18 137.08 228.6 136.82 228.2C138.08 228.32 139.38 228.34 139.86 228.34C140.28 228.34 140.52 228.32 140.72 228.16C141.22 227.76 141.64 226.54 142 223.8L142.02 223.6ZM133.08 223.6H142.42V224.86H132.76L133.08 223.6ZM158.22 213.36H163.86V214.68H158.22V213.36ZM156.4 222.28H164.82V229.56H163.38V223.58H157.8V229.62H156.4V222.28ZM157 227.42H164.14V228.74H157V227.42ZM158.8 211.18L160.24 211.58C159.16 214.24 157.4 216.74 155.58 218.32C155.34 218.06 154.74 217.54 154.4 217.32C156.24 215.88 157.86 213.6 158.8 211.18ZM163.44 213.36H163.72L163.98 213.3L164.92 213.74C163.2 218.7 159.08 221.88 154.82 223.42C154.64 223.04 154.26 222.48 153.96 222.2C157.98 220.94 161.98 217.86 163.44 213.62V213.36ZM158.1 214.4C159.34 217.24 162.28 220.38 166.68 221.72C166.38 222 165.96 222.6 165.76 222.96C161.3 221.4 158.36 218.08 157 215.1L158.1 214.4ZM148.18 215.5H155.22V216.92H148.18V215.5ZM151.2 211.2H152.62V229.58H151.2V211.2ZM151.14 216.38L152.08 216.7C151.42 219.92 150 223.82 148.5 225.84C148.34 225.44 147.98 224.86 147.7 224.52C149.12 222.72 150.54 219.26 151.14 216.38ZM152.52 217.72C153 218.2 154.76 220.34 155.16 220.88L154.26 222.04C153.78 221.16 152.34 219.1 151.78 218.38L152.52 217.72ZM181.34 212.2L182.34 211.34C183.38 212.04 184.64 213.08 185.26 213.78L184.2 214.72C183.6 214 182.38 212.92 181.34 212.2ZM168.26 214.94H186.08V216.4H168.26V214.94ZM168.94 219.4H177.78V220.86H168.94V219.4ZM172.54 220.18H174.04V227.32H172.54V220.18ZM168.34 227.52C170.72 227.06 174.64 226.26 178.34 225.46L178.46 226.8C175.04 227.6 171.38 228.44 168.8 229.02L168.34 227.52ZM178.44 211.3H180.04C179.98 220.58 181.78 228.08 184.24 228.08C184.8 228.08 185.04 226.98 185.16 224.3C185.5 224.64 186.08 224.98 186.5 225.12C186.24 228.62 185.66 229.64 184.12 229.64C180.14 229.64 178.52 220.98 178.44 211.3ZM194.48 211.2L196.1 211.66C195.2 213 194.08 214.54 193.18 215.54L191.96 215.08C192.82 214.04 193.9 212.38 194.48 211.2ZM199.28 212.76L200.44 212.04C202.26 213.18 204.48 214.92 205.56 216.16L204.3 216.98C203.28 215.76 201.12 213.96 199.28 212.76ZM188.96 214.68C192.5 214.62 198.18 214.5 203.46 214.34L203.4 215.6C198.28 215.8 192.78 215.98 189.14 216.06L188.96 214.68ZM188.2 217.7H206.14V219H188.2V217.7ZM197.74 219.96L198.92 220.54C197.42 221.68 195.04 222.64 193.02 223.2C192.82 222.92 192.46 222.52 192.14 222.28C194.06 221.8 196.46 220.9 197.74 219.96ZM199.82 222.28L201.02 222.86C199.08 224.46 195.84 225.64 192.88 226.32C192.7 226 192.36 225.52 192.04 225.24C194.86 224.68 198.1 223.6 199.82 222.28ZM202.42 224.54L203.72 225.16C201.28 227.7 196.7 229.06 191.62 229.72C191.46 229.34 191.18 228.82 190.9 228.48C195.76 227.94 200.22 226.72 202.42 224.54ZM195.3 215.36L196.78 215.74C195.18 219.66 192.22 222.42 188.62 224.12C188.42 223.84 187.86 223.24 187.52 222.96C191.1 221.48 193.92 218.9 195.3 215.36ZM200.34 217.98C201.62 220 204.18 221.92 206.58 222.84C206.24 223.12 205.8 223.68 205.58 224.02C203.12 222.92 200.52 220.78 199.08 218.48L200.34 217.98ZM219.26 226.38H224.7V227.84H219.26V226.38ZM208.22 215H215.9V216.46H208.22V215ZM218.58 213.7H225.42V229.16H223.9V215.14H220.04V229.3H218.58V213.7ZM215.5 215H216.96C216.96 215 216.96 215.56 216.96 215.76C216.8 224.66 216.66 227.58 216.02 228.46C215.66 228.98 215.3 229.16 214.7 229.22C214.14 229.3 213.22 229.3 212.32 229.24C212.3 228.8 212.14 228.14 211.88 227.72C212.82 227.8 213.68 227.8 214.06 227.8C214.36 227.82 214.54 227.76 214.72 227.5C215.18 226.88 215.36 223.92 215.5 215.36V215ZM211.06 211.48H212.52C212.5 218.86 212.4 225.8 208.88 229.62C208.62 229.28 208.1 228.82 207.72 228.6C211.06 225.08 211.04 218.48 211.06 211.48ZM228.44 217.14H245.66V218.44H228.44V217.14ZM229.98 213.58H241.34V214.84H229.98V213.58ZM235.08 211.2H236.56V217.78H235.08V211.2ZM242.58 219.72L243.56 220.74C241.04 221.42 237.14 221.88 233.88 222.12C233.84 221.82 233.66 221.34 233.52 221.08C236.68 220.8 240.48 220.3 242.58 219.72ZM243.64 212.14L244.86 212.82C240.82 217.72 234.74 221.44 228.58 223.8C228.38 223.5 227.92 222.9 227.62 222.62C233.86 220.46 239.88 216.74 243.64 212.14ZM233.3 219.76L234.78 219.94C234.36 221.88 233.76 224.34 233.3 225.84L231.8 225.64C232.3 224.12 232.92 221.62 233.3 219.76ZM242.02 223.6H243.54C243.54 223.6 243.5 224.04 243.46 224.28C242.98 227.24 242.54 228.56 241.88 229.14C241.46 229.52 241.04 229.62 240.34 229.64C239.72 229.68 238.54 229.66 237.3 229.58C237.26 229.18 237.08 228.6 236.82 228.2C238.08 228.32 239.38 228.34 239.86 228.34C240.28 228.34 240.52 228.32 240.72 228.16C241.22 227.76 241.64 226.54 242 223.8L242.02 223.6ZM233.08 223.6H242.42V224.86H232.76L233.08 223.6ZM249.54 212.5L250.56 211.6C251.58 212.44 252.88 213.66 253.5 214.44L252.44 215.5C251.86 214.66 250.58 213.4 249.54 212.5ZM250.72 229.1L250.5 227.76L250.94 227.14L254.58 224.8C254.68 225.18 254.84 225.76 254.98 226.06C251.58 228.38 251.04 228.72 250.72 229.1ZM248.16 217.48H251.7V218.94H248.16V217.48ZM254.08 215.38H266.34V216.82H254.08V215.38ZM254.72 219.72H260.08V221.12H254.72V219.72ZM256.8 220.52H258.18V226.6L256.8 226.76V220.52ZM254.34 226.8C255.9 226.4 258.24 225.76 260.54 225.12L260.74 226.44C258.64 227.08 256.44 227.72 254.76 228.2L254.34 226.8ZM262.7 212.1L263.72 211.46C264.56 212.3 265.52 213.46 265.94 214.24L264.84 214.98C264.44 214.2 263.52 212.98 262.7 212.1ZM260.56 211.3H262.08C262.14 220.08 262.98 227.5 264.56 227.58C264.92 227.6 265.16 226.46 265.28 224.52C265.56 224.82 266.22 225.2 266.48 225.34C266.08 228.7 265.3 229.56 264.52 229.54C261.5 229.48 260.78 221.76 260.56 211.3ZM250.72 229.1C250.6 228.72 250.22 228.08 249.96 227.78C250.32 227.56 250.92 226.98 250.92 226.14V217.48H252.36V227.44C252.36 227.44 250.72 228.54 250.72 229.1ZM271.04 223.14C272.72 223.14 274.08 224.5 274.08 226.18C274.08 227.86 272.72 229.22 271.04 229.22C269.36 229.22 267.98 227.86 267.98 226.18C267.98 224.5 269.36 223.14 271.04 223.14ZM271.04 228.2C272.16 228.2 273.06 227.3 273.06 226.18C273.06 225.06 272.16 224.16 271.04 224.16C269.92 224.16 269 225.06 269 226.18C269 227.3 269.92 228.2 271.04 228.2Z" fill="#2D3342"/>
<defs>
<linearGradient id="paint0_linear_1398_7622" x1="143.515" y1="25" x2="181.389" y2="65.6166" gradientUnits="userSpaceOnUse">
<stop stop-color="#5955B3"/>
<stop offset="1" stop-color="#6563CE"/>
</linearGradient>
</defs>
</svg>
