<svg width="325" height="290" viewBox="0 0 325 290" fill="none" xmlns="http://www.w3.org/2000/svg">
<rect width="325" height="290" rx="5" fill="white"/>
<path opacity="0.2" fill-rule="evenodd" clip-rule="evenodd" d="M324.665 269.81C324.613 280.783 315.724 289.668 304.75 289.713H171.145C177.237 275.753 202.684 247.832 255.738 247.832C308.791 247.832 323.794 226.116 324.665 215.258V269.81Z" fill="#89AFFF"/>
<path opacity="0.2" fill-rule="evenodd" clip-rule="evenodd" d="M149.338 0C147.452 10.5057 135.894 40.0486 88.2781 53.4492C42.0803 66.4509 11.6464 61.9796 0.329107 57.7773L0.329104 20C0.329102 8.95432 9.28337 1.09491e-05 20.3291 1.00855e-05L149.338 0Z" fill="#89AFFF"/>
<path d="M38.9474 40.2727C38.9474 42.1761 38.5866 43.7955 37.8651 45.1307C37.1491 46.4659 36.1719 47.4858 34.9332 48.1903C33.7003 48.8892 32.3139 49.2386 30.7741 49.2386C29.223 49.2386 27.831 48.8864 26.598 48.1818C25.3651 47.4773 24.3906 46.4574 23.6747 45.1222C22.9588 43.7869 22.6009 42.1705 22.6009 40.2727C22.6009 38.3693 22.9588 36.75 23.6747 35.4148C24.3906 34.0795 25.3651 33.0625 26.598 32.3636C27.831 31.6591 29.223 31.3068 30.7741 31.3068C32.3139 31.3068 33.7003 31.6591 34.9332 32.3636C36.1719 33.0625 37.1491 34.0795 37.8651 35.4148C38.5866 36.75 38.9474 38.3693 38.9474 40.2727ZM35.206 40.2727C35.206 39.0398 35.0213 38 34.652 37.1534C34.2884 36.3068 33.7741 35.6648 33.1094 35.2273C32.4446 34.7898 31.6662 34.571 30.7741 34.571C29.8821 34.571 29.1037 34.7898 28.4389 35.2273C27.7741 35.6648 27.2571 36.3068 26.8878 37.1534C26.5241 38 26.3423 39.0398 26.3423 40.2727C26.3423 41.5057 26.5241 42.5455 26.8878 43.392C27.2571 44.2386 27.7741 44.8807 28.4389 45.3182C29.1037 45.7557 29.8821 45.9744 30.7741 45.9744C31.6662 45.9744 32.4446 45.7557 33.1094 45.3182C33.7741 44.8807 34.2884 44.2386 34.652 43.392C35.0213 42.5455 35.206 41.5057 35.206 40.2727ZM41.6129 53.9091V35.9091H45.1925V38.108H45.3544C45.5135 37.7557 45.7436 37.3977 46.0447 37.0341C46.3516 36.6648 46.7493 36.358 47.2379 36.1136C47.7322 35.8636 48.3459 35.7386 49.0788 35.7386C50.0334 35.7386 50.9141 35.9886 51.7209 36.4886C52.5277 36.983 53.1726 37.7301 53.6555 38.7301C54.1385 39.7244 54.38 40.9716 54.38 42.4716C54.38 43.9318 54.1442 45.1648 53.6726 46.1705C53.2067 47.1705 52.5703 47.929 51.7635 48.446C50.9624 48.9574 50.0646 49.2131 49.0703 49.2131C48.3658 49.2131 47.7663 49.0966 47.272 48.8636C46.7834 48.6307 46.3828 48.3381 46.0703 47.9858C45.7578 47.6278 45.5192 47.267 45.3544 46.9034H45.2436V53.9091H41.6129ZM45.1669 42.4545C45.1669 43.233 45.2749 43.9119 45.4908 44.4915C45.7067 45.071 46.0192 45.5227 46.4283 45.8466C46.8374 46.1648 47.3345 46.3239 47.9197 46.3239C48.5107 46.3239 49.0107 46.1619 49.4197 45.8381C49.8288 45.5085 50.1385 45.054 50.3487 44.4744C50.5646 43.8892 50.6726 43.2159 50.6726 42.4545C50.6726 41.6989 50.5675 41.0341 50.3572 40.4602C50.147 39.8864 49.8374 39.4375 49.4283 39.1136C49.0192 38.7898 48.5163 38.6278 47.9197 38.6278C47.3288 38.6278 46.8288 38.7841 46.4197 39.0966C46.0163 39.4091 45.7067 39.8523 45.4908 40.4261C45.2749 41 45.1669 41.6761 45.1669 42.4545ZM62.7663 49.2557C61.4197 49.2557 60.2607 48.983 59.2891 48.4375C58.3232 47.8864 57.5788 47.108 57.0561 46.1023C56.5334 45.0909 56.272 43.8949 56.272 42.5142C56.272 41.1676 56.5334 39.9858 57.0561 38.9688C57.5788 37.9517 58.3146 37.1591 59.2635 36.5909C60.218 36.0227 61.3374 35.7386 62.6214 35.7386C63.4851 35.7386 64.2891 35.8778 65.0334 36.1562C65.7834 36.429 66.4368 36.8409 66.9936 37.392C67.5561 37.9432 67.9936 38.6364 68.3061 39.4716C68.6186 40.3011 68.7749 41.2727 68.7749 42.3864V43.3835H57.7209V41.1335H65.3572C65.3572 40.6108 65.2436 40.1477 65.0163 39.7443C64.7891 39.3409 64.4737 39.0256 64.0703 38.7983C63.6726 38.5653 63.2095 38.4489 62.6811 38.4489C62.13 38.4489 61.6413 38.5767 61.2152 38.8324C60.7947 39.0824 60.4652 39.4205 60.2266 39.8466C59.9879 40.267 59.8658 40.7358 59.8601 41.2528V43.392C59.8601 44.0398 59.9794 44.5994 60.218 45.071C60.4624 45.5426 60.8061 45.9062 61.2493 46.1619C61.6925 46.4176 62.218 46.5455 62.826 46.5455C63.2294 46.5455 63.5987 46.4886 63.9339 46.375C64.2692 46.2614 64.5561 46.0909 64.7947 45.8636C65.0334 45.6364 65.2152 45.358 65.3402 45.0284L68.6982 45.25C68.5277 46.0568 68.1783 46.7614 67.6499 47.3636C67.1271 47.9602 66.451 48.4261 65.6214 48.7614C64.7976 49.0909 63.8459 49.2557 62.7663 49.2557ZM74.7749 41.4318V49H71.1442V35.9091H74.6044V38.2188H74.7578C75.0476 37.4574 75.5334 36.8551 76.2152 36.4119C76.897 35.9631 77.7237 35.7386 78.6953 35.7386C79.6044 35.7386 80.397 35.9375 81.0732 36.3352C81.7493 36.733 82.2749 37.3011 82.6499 38.0398C83.0249 38.7727 83.2124 39.6477 83.2124 40.6648V49H79.5817V41.3125C79.5874 40.5114 79.3828 39.8864 78.968 39.4375C78.5533 38.983 77.9822 38.7557 77.255 38.7557C76.7663 38.7557 76.3345 38.8608 75.9595 39.071C75.5902 39.2812 75.3004 39.5881 75.0902 39.9915C74.8857 40.3892 74.7805 40.8693 74.7749 41.4318ZM92.0398 49.2557C90.6932 49.2557 89.5341 48.983 88.5625 48.4375C87.5966 47.8864 86.8523 47.108 86.3295 46.1023C85.8068 45.0909 85.5455 43.8949 85.5455 42.5142C85.5455 41.1676 85.8068 39.9858 86.3295 38.9688C86.8523 37.9517 87.5881 37.1591 88.5369 36.5909C89.4915 36.0227 90.6108 35.7386 91.8949 35.7386C92.7585 35.7386 93.5625 35.8778 94.3068 36.1562C95.0568 36.429 95.7102 36.8409 96.267 37.392C96.8295 37.9432 97.267 38.6364 97.5795 39.4716C97.892 40.3011 98.0483 41.2727 98.0483 42.3864V43.3835H86.9943V41.1335H94.6307C94.6307 40.6108 94.517 40.1477 94.2898 39.7443C94.0625 39.3409 93.7472 39.0256 93.3438 38.7983C92.946 38.5653 92.483 38.4489 91.9545 38.4489C91.4034 38.4489 90.9148 38.5767 90.4886 38.8324C90.0682 39.0824 89.7386 39.4205 89.5 39.8466C89.2614 40.267 89.1392 40.7358 89.1335 41.2528V43.392C89.1335 44.0398 89.2528 44.5994 89.4915 45.071C89.7358 45.5426 90.0795 45.9062 90.5227 46.1619C90.9659 46.4176 91.4915 46.5455 92.0994 46.5455C92.5028 46.5455 92.8722 46.4886 93.2074 46.375C93.5426 46.2614 93.8295 46.0909 94.0682 45.8636C94.3068 45.6364 94.4886 45.358 94.6136 45.0284L97.9716 45.25C97.8011 46.0568 97.4517 46.7614 96.9233 47.3636C96.4006 47.9602 95.7244 48.4261 94.8949 48.7614C94.071 49.0909 93.1193 49.2557 92.0398 49.2557ZM105.241 49.2131C104.247 49.2131 103.347 48.9574 102.54 48.446C101.739 47.929 101.102 47.1705 100.631 46.1705C100.165 45.1648 99.9318 43.9318 99.9318 42.4716C99.9318 40.9716 100.173 39.7244 100.656 38.7301C101.139 37.7301 101.781 36.983 102.582 36.4886C103.389 35.9886 104.273 35.7386 105.233 35.7386C105.966 35.7386 106.577 35.8636 107.065 36.1136C107.56 36.358 107.957 36.6648 108.259 37.0341C108.565 37.3977 108.798 37.7557 108.957 38.108H109.068V31.5455H112.69V49H109.111V46.9034H108.957C108.787 47.267 108.545 47.6278 108.233 47.9858C107.926 48.3381 107.526 48.6307 107.031 48.8636C106.543 49.0966 105.946 49.2131 105.241 49.2131ZM106.392 46.3239C106.977 46.3239 107.472 46.1648 107.875 45.8466C108.284 45.5227 108.597 45.071 108.812 44.4915C109.034 43.9119 109.145 43.233 109.145 42.4545C109.145 41.6761 109.037 41 108.821 40.4261C108.605 39.8523 108.293 39.4091 107.884 39.0966C107.474 38.7841 106.977 38.6278 106.392 38.6278C105.795 38.6278 105.293 38.7898 104.884 39.1136C104.474 39.4375 104.165 39.8864 103.955 40.4602C103.744 41.0341 103.639 41.6989 103.639 42.4545C103.639 43.2159 103.744 43.8892 103.955 44.4744C104.17 45.054 104.48 45.5085 104.884 45.8381C105.293 46.1619 105.795 46.3239 106.392 46.3239ZM124.07 43.4261V35.9091H127.701V49H124.215V46.6222H124.079C123.783 47.3892 123.292 48.0057 122.604 48.4716C121.923 48.9375 121.09 49.1705 120.107 49.1705C119.232 49.1705 118.462 48.9716 117.798 48.5739C117.133 48.1761 116.613 47.6108 116.238 46.8778C115.869 46.1449 115.681 45.267 115.675 44.2443V35.9091H119.306V43.5966C119.312 44.3693 119.519 44.9801 119.928 45.429C120.337 45.8778 120.886 46.1023 121.573 46.1023C122.011 46.1023 122.42 46.0028 122.8 45.804C123.181 45.5994 123.488 45.2983 123.721 44.9006C123.96 44.5028 124.076 44.0114 124.07 43.4261ZM132.727 49.2216C132.165 49.2216 131.682 49.0227 131.278 48.625C130.881 48.2216 130.682 47.7386 130.682 47.1761C130.682 46.6193 130.881 46.142 131.278 45.7443C131.682 45.3466 132.165 45.1477 132.727 45.1477C133.273 45.1477 133.75 45.3466 134.159 45.7443C134.568 46.142 134.773 46.6193 134.773 47.1761C134.773 47.5511 134.676 47.8949 134.483 48.2074C134.295 48.5142 134.048 48.7614 133.741 48.9489C133.435 49.1307 133.097 49.2216 132.727 49.2216ZM137.754 49V35.9091H141.273V38.1932H141.41C141.648 37.3807 142.049 36.767 142.612 36.3523C143.174 35.9318 143.822 35.7216 144.555 35.7216C144.737 35.7216 144.933 35.733 145.143 35.7557C145.353 35.7784 145.538 35.8097 145.697 35.8494V39.071C145.526 39.0199 145.29 38.9744 144.989 38.9347C144.688 38.8949 144.413 38.875 144.163 38.875C143.629 38.875 143.151 38.9915 142.731 39.2244C142.316 39.4517 141.987 39.7699 141.742 40.179C141.504 40.5881 141.384 41.0597 141.384 41.5938V49H137.754ZM155.969 43.4261V35.9091H159.599V49H156.114V46.6222H155.977C155.682 47.3892 155.19 48.0057 154.503 48.4716C153.821 48.9375 152.989 49.1705 152.006 49.1705C151.131 49.1705 150.361 48.9716 149.696 48.5739C149.031 48.1761 148.511 47.6108 148.136 46.8778C147.767 46.1449 147.58 45.267 147.574 44.2443V35.9091H151.205V43.5966C151.21 44.3693 151.418 44.9801 151.827 45.429C152.236 45.8778 152.784 46.1023 153.472 46.1023C153.909 46.1023 154.318 46.0028 154.699 45.804C155.08 45.5994 155.386 45.2983 155.619 44.9006C155.858 44.5028 155.974 44.0114 155.969 43.4261ZM177.913 35.824H187.897V38.728H177.913V35.824ZM167.641 47.08H189.577V49.984H167.641V47.08ZM176.281 28.912H179.377V48.688H176.281V28.912ZM194.041 32.512H201.409V48.688H194.041V46.144H198.793V35.032H194.041V32.512ZM192.361 32.512H194.977V50.464H192.361V32.512ZM193.921 38.92H200.065V41.416H193.921V38.92ZM195.769 28.6L198.913 29.056C198.361 30.688 197.761 32.392 197.281 33.52L194.977 33.016C195.313 31.768 195.649 29.92 195.769 28.6ZM204.577 32.344H211.585V34.96H204.577V32.344ZM210.601 32.344H213.265C213.265 32.344 213.265 33.28 213.241 33.64C212.929 44.44 212.641 48.256 211.657 49.528C210.985 50.464 210.313 50.728 209.329 50.872C208.417 51.016 206.953 50.992 205.561 50.92C205.513 50.128 205.129 48.904 204.601 48.136C206.161 48.256 207.601 48.28 208.201 48.28C208.681 48.28 208.945 48.184 209.257 47.848C210.025 47.032 210.337 42.904 210.601 32.896V32.344ZM204.649 28.624L207.409 29.272C206.473 32.824 204.913 36.472 203.281 38.776C202.753 38.296 201.577 37.48 200.905 37.096C202.513 35.08 203.881 31.816 204.649 28.624ZM203.473 39.256L205.729 37.984C206.905 39.64 208.489 41.944 209.233 43.36L206.785 44.848C206.137 43.384 204.625 41.032 203.473 39.256ZM215.929 31.96H237.337V34.72H215.929V31.96ZM223.753 39.736H236.329V42.4H223.753V39.736ZM222.817 47.896H237.241V50.56H222.817V47.896ZM228.649 35.752H231.553V49.312H228.649V35.752ZM223.489 28.6L226.489 29.32C224.713 35.104 221.689 40.936 216.553 44.44C216.265 43.624 215.593 42.352 215.161 41.656C219.505 38.824 222.241 33.448 223.489 28.6ZM218.689 38.656H221.593V51.112H218.689V38.656ZM240.529 44.944C240.385 44.416 239.977 43.144 239.641 42.424C240.289 42.304 240.817 41.776 241.585 40.888C242.425 40.024 244.873 36.736 246.505 33.472L248.809 34.96C247.009 38.08 244.633 41.248 242.329 43.552V43.624C242.329 43.624 240.529 44.44 240.529 44.944ZM240.529 44.944L240.361 42.712L241.561 41.848L248.089 40.768C247.993 41.512 247.969 42.592 248.017 43.168C242.137 44.32 241.153 44.608 240.529 44.944ZM240.361 39.088C240.241 38.536 239.761 37.192 239.449 36.448C239.953 36.304 240.361 35.8 240.889 35.032C241.417 34.312 243.073 31.408 243.961 28.672L246.625 29.944C245.425 32.68 243.625 35.608 241.897 37.648V37.72C241.897 37.72 240.361 38.584 240.361 39.088ZM240.361 39.088L240.289 37.072L241.489 36.28L245.833 35.968C245.665 36.688 245.569 37.696 245.545 38.272C241.657 38.68 240.841 38.848 240.361 39.088ZM239.737 47.32C241.777 46.792 244.921 45.808 247.921 44.872L248.353 47.224C245.593 48.208 242.665 49.24 240.337 50.056L239.737 47.32ZM248.953 34.144L260.401 32.416L260.881 34.936L249.433 36.76L248.953 34.144ZM248.449 39.328L261.049 37.048L261.505 39.568L248.905 41.92L248.449 39.328ZM252.313 28.528H255.169C255.001 38.176 256.873 48.352 259.177 48.352C259.633 48.352 259.849 47.752 259.945 45.808C260.521 46.48 261.337 47.104 261.985 47.416C261.505 50.368 260.761 51.16 258.841 51.16C253.921 51.16 252.361 39.376 252.313 28.528ZM255.553 30.352L257.233 28.84C258.217 29.416 259.585 30.328 260.281 30.928L258.553 32.632C257.881 31.984 256.537 31 255.553 30.352ZM259.297 40.576L261.697 41.68C258.961 46 254.449 49 249.337 50.824C248.977 50.104 248.257 49.096 247.585 48.448C252.433 47.032 256.921 44.368 259.297 40.576ZM264.457 30.568L266.401 28.888C267.601 30.016 269.233 31.624 270.001 32.68L267.937 34.576C267.241 33.496 265.657 31.792 264.457 30.568ZM266.545 50.68L265.897 48.136L266.377 47.248L270.793 43.36C271.057 44.128 271.537 45.208 271.873 45.736C267.697 49.432 266.953 50.104 266.545 50.68ZM263.425 35.992H268.009V38.584H263.425V35.992ZM270.817 40.792H285.697V43.384H270.817V40.792ZM280.273 42.136C281.569 44.344 284.041 46.72 286.273 47.944C285.625 48.472 284.761 49.456 284.305 50.176C282.073 48.568 279.745 45.64 278.353 42.88L280.273 42.136ZM274.513 35.584V37.144H281.881V35.584H274.513ZM274.513 31.864V33.4H281.881V31.864H274.513ZM271.921 29.584H284.593V39.424H271.921V29.584ZM276.409 42.136L278.377 42.832C276.961 45.88 274.513 48.808 271.921 50.368C271.489 49.696 270.649 48.688 270.049 48.184C272.593 46.96 275.113 44.56 276.409 42.136ZM277.057 30.664H279.673V38.272H279.793V51.136H276.961V38.272H277.057V30.664ZM266.545 50.68C266.209 50.152 265.321 49.216 264.841 48.856C265.417 48.304 266.281 47.152 266.281 45.712V35.992H269.041V47.056C269.041 47.056 266.545 49.6 266.545 50.68ZM301.633 40.168H304.489V49.864H301.633V40.168ZM296.833 39.136H309.337V41.608H296.833V39.136ZM295.921 48.136H309.865V50.632H295.921V48.136ZM297.409 43.6H308.737V46.024H297.409V43.6ZM300.265 31.936V35.248H305.881V31.936H300.265ZM297.601 29.512H308.689V37.672H297.601V29.512ZM291.025 30.856H293.833V51.136H291.025V30.856ZM287.569 35.368H296.377V38.056H287.569V35.368ZM291.193 36.448L292.873 37.192C291.961 40.624 290.257 44.896 288.409 47.272C288.145 46.432 287.521 45.232 287.065 44.512C288.745 42.592 290.425 39.112 291.193 36.448ZM294.769 28.864L296.689 31.096C294.241 32.032 290.905 32.68 288.097 33.04C287.977 32.416 287.617 31.456 287.281 30.856C289.945 30.4 292.921 29.704 294.769 28.864ZM293.761 38.704C294.361 39.208 296.449 41.368 296.905 41.92L295.273 44.176C294.697 43.024 293.257 40.84 292.513 39.832L293.761 38.704Z" fill="url(#paint0_linear_1398_7488)"/>
<path d="M126.492 83.046H137.468V84.04H126.492V83.046ZM125.96 83.046H127.024V86.868C127.024 88.996 126.842 92.132 125.694 94.232C125.512 94.036 125.022 93.742 124.784 93.644C125.862 91.656 125.96 88.856 125.96 86.868V83.046ZM130.818 81.408L131.84 81.142C132.19 81.758 132.582 82.542 132.75 83.046L131.686 83.382C131.518 82.85 131.14 82.024 130.818 81.408ZM127.962 86.14L128.872 85.776C129.488 87.302 130.16 89.248 130.468 90.55L129.488 90.97C129.208 89.654 128.536 87.666 127.962 86.14ZM131 85.37L131.952 85.09C132.442 86.616 132.96 88.576 133.17 89.878L132.162 90.172C131.98 88.87 131.462 86.882 131 85.37ZM135.746 85.006L136.838 85.412C136.082 88.044 134.864 90.956 133.352 93.28C133.198 93.098 132.876 92.804 132.652 92.65C134.066 90.452 135.186 87.498 135.746 85.006ZM127.192 92.468H137.65V93.476H127.192V92.468ZM139.89 82.01L140.646 81.408C141.36 82.122 142.228 83.102 142.648 83.718L141.836 84.404C141.444 83.76 140.59 82.738 139.89 82.01ZM141.038 93.966L140.856 92.972L141.164 92.538L143.474 90.928C143.544 91.222 143.698 91.628 143.796 91.824C141.584 93.434 141.234 93.7 141.038 93.966ZM138.924 85.608H141.738V86.616H138.924V85.608ZM141.038 93.966C140.926 93.756 140.632 93.364 140.45 93.196C140.702 92.986 141.15 92.51 141.15 91.824V85.608H142.158V92.58C142.158 92.58 141.038 93.56 141.038 93.966ZM143.32 83.088H151.468V84.054H143.32V83.088ZM147.59 91.278L148.36 90.676C149.41 91.46 150.81 92.594 151.51 93.294L150.712 93.98C150.04 93.266 148.668 92.09 147.59 91.278ZM149.186 85.216L150.222 85.566C148.92 87.806 146.624 89.878 143.964 91.096C143.824 90.858 143.544 90.466 143.348 90.256C145.896 89.178 148.15 87.218 149.186 85.216ZM150.334 87.68L151.412 88.086C149.732 90.732 146.848 92.93 143.404 94.176C143.278 93.924 142.97 93.518 142.774 93.294C146.092 92.174 148.962 90.06 150.334 87.68ZM143.95 87.82C143.894 87.554 143.712 87.022 143.614 86.798C143.894 86.714 144.342 86.602 144.58 86.364C144.972 85.986 146.204 84.278 146.638 83.62H147.842C147.212 84.558 145.966 86.294 145.28 87.12C145.28 87.12 143.95 87.498 143.95 87.82ZM143.95 87.82L143.936 87.022L144.538 86.686L148.682 86.462C148.57 86.742 148.43 87.148 148.36 87.372C144.748 87.624 144.258 87.694 143.95 87.82ZM146.526 81.45L147.548 81.17C147.912 81.772 148.276 82.584 148.402 83.116L147.324 83.424C147.212 82.906 146.862 82.066 146.526 81.45ZM158.034 81.408H159.042V88.072H158.034V81.408ZM156.088 83.97H160.876V84.936H156.088V83.97ZM156.466 87.61H157.39V93.49H156.466V87.61ZM157.012 87.61H160.596V92.58H157.012V91.656H159.658V88.52H157.012V87.61ZM162.024 81.254L162.976 81.408C162.57 83.928 161.898 86.378 160.834 87.974C160.722 87.778 160.372 87.358 160.19 87.162C161.128 85.72 161.702 83.508 162.024 81.254ZM161.968 83.97H165.72V84.88H161.702L161.968 83.97ZM164.18 84.334L165.118 84.404C164.642 89.164 163.494 92.23 160.498 94.148C160.372 93.966 160.022 93.588 159.826 93.42C162.752 91.726 163.788 88.772 164.18 84.334ZM162.052 84.6C162.36 87.68 163.088 91.53 165.86 93.294C165.678 93.49 165.356 93.868 165.216 94.12C162.374 92.118 161.618 88.156 161.31 85.062L162.052 84.6ZM155.528 81.324L156.508 81.59C155.71 83.998 154.464 86.448 153.078 88.072C152.98 87.834 152.7 87.274 152.518 87.008C153.75 85.608 154.856 83.466 155.528 81.324ZM154.408 84.754L155.346 83.802L155.374 83.83V94.12H154.408V84.754ZM170.34 81.296L171.334 81.604C170.382 84.012 168.926 86.42 167.386 88.002C167.274 87.764 166.966 87.218 166.784 86.98C168.198 85.594 169.528 83.466 170.34 81.296ZM168.912 84.908L169.92 83.886L169.934 83.9V94.106H168.912V84.908ZM170.844 86.084H179.65V87.12H170.844V86.084ZM174.778 81.394H175.856V94.12H174.778V81.394ZM188.12 84.74L189.282 85.216C187.854 87.778 185.782 90.956 184.158 92.958L183.262 92.51C184.872 90.466 186.93 87.204 188.12 84.74ZM181.82 92.328C184.368 92.216 188.428 91.964 192.18 91.712L192.166 92.72C188.498 93 184.578 93.28 181.988 93.434L181.82 92.328ZM188.806 89.178L189.758 88.632C191.228 90.074 192.768 92.034 193.454 93.378L192.446 94.036C191.774 92.678 190.234 90.606 188.806 89.178ZM186.3 81.338L187.406 81.744C186.048 83.942 183.934 86.364 181.778 87.946C181.582 87.708 181.204 87.344 180.952 87.148C183.052 85.692 185.194 83.326 186.3 81.338ZM201.28 85.398C200.706 85.398 200.216 84.978 200.216 84.348C200.216 83.704 200.706 83.284 201.28 83.284C201.84 83.284 202.33 83.704 202.33 84.348C202.33 84.978 201.84 85.398 201.28 85.398ZM201.28 92.244C200.706 92.244 200.216 91.838 200.216 91.194C200.216 90.55 200.706 90.144 201.28 90.144C201.84 90.144 202.33 90.55 202.33 91.194C202.33 91.838 201.84 92.244 201.28 92.244Z" fill="#2D3342"/>
<path d="M49.6454 120.364V132H47.884V122.125H47.8159L45.0318 123.943V122.261L47.9352 120.364H49.6454ZM55.4139 132.108C55.1033 132.108 54.8362 131.998 54.6127 131.778C54.3893 131.555 54.2775 131.286 54.2775 130.972C54.2775 130.661 54.3893 130.396 54.6127 130.176C54.8362 129.953 55.1033 129.841 55.4139 129.841C55.7245 129.841 55.9915 129.953 56.215 130.176C56.4385 130.396 56.5502 130.661 56.5502 130.972C56.5502 131.18 56.4972 131.371 56.3912 131.545C56.2889 131.716 56.1525 131.852 55.9821 131.955C55.8116 132.057 55.6222 132.108 55.4139 132.108ZM63.992 121.04H78.008V122.208H63.992V121.04ZM68.952 126.112H77.384V127.232H68.952V126.112ZM68.328 131.776H78.008V132.912H68.328V131.776ZM72.568 123.024H73.768V132.384H72.568V123.024ZM69.256 118.56L70.488 118.864C69.368 122.528 67.416 126.256 64.232 128.544C64.104 128.224 63.8 127.712 63.608 127.44C66.488 125.408 68.36 121.856 69.256 118.56ZM66.088 125.152H67.288V133.232H66.088V125.152ZM89.9048 128.381V123.273H91.6094V132H89.9389V130.489H89.848C89.6473 130.955 89.3253 131.343 88.8821 131.653C88.4427 131.96 87.8954 132.114 87.2401 132.114C86.6795 132.114 86.1832 131.991 85.7514 131.744C85.3234 131.494 84.9863 131.125 84.7401 130.636C84.4976 130.148 84.3764 129.544 84.3764 128.824V123.273H86.0753V128.619C86.0753 129.214 86.2401 129.687 86.5696 130.04C86.8991 130.392 87.3272 130.568 87.8537 130.568C88.1719 130.568 88.4882 130.489 88.8026 130.33C89.1207 130.17 89.384 129.93 89.5923 129.608C89.8045 129.286 89.9086 128.877 89.9048 128.381ZM93.892 132V123.273H95.5341V124.659H95.625C95.7841 124.189 96.0644 123.82 96.4659 123.551C96.8712 123.278 97.3295 123.142 97.8409 123.142C97.947 123.142 98.072 123.146 98.2159 123.153C98.3636 123.161 98.4792 123.17 98.5625 123.182V124.807C98.4943 124.788 98.3731 124.767 98.1989 124.744C98.0246 124.718 97.8504 124.705 97.6761 124.705C97.2746 124.705 96.9167 124.79 96.6023 124.96C96.2917 125.127 96.0455 125.36 95.8636 125.659C95.6818 125.955 95.5909 126.292 95.5909 126.67V132H93.892ZM104.702 123.273V124.636H99.7699V123.273H104.702ZM101.122 132V122.261C101.122 121.716 101.241 121.263 101.48 120.903C101.719 120.54 102.035 120.269 102.429 120.091C102.823 119.909 103.251 119.818 103.713 119.818C104.054 119.818 104.346 119.847 104.588 119.903C104.83 119.956 105.01 120.006 105.128 120.051L104.73 121.426C104.651 121.403 104.548 121.377 104.423 121.347C104.298 121.312 104.147 121.295 103.969 121.295C103.556 121.295 103.26 121.398 103.082 121.602C102.908 121.807 102.821 122.102 102.821 122.489V132H101.122ZM111.983 128.381V123.273H113.688V132H112.017V130.489H111.926C111.725 130.955 111.403 131.343 110.96 131.653C110.521 131.96 109.973 132.114 109.318 132.114C108.758 132.114 108.261 131.991 107.83 131.744C107.402 131.494 107.064 131.125 106.818 130.636C106.576 130.148 106.455 129.544 106.455 128.824V123.273H108.153V128.619C108.153 129.214 108.318 129.687 108.648 130.04C108.977 130.392 109.405 130.568 109.932 130.568C110.25 130.568 110.566 130.489 110.881 130.33C111.199 130.17 111.462 129.93 111.67 129.608C111.883 129.286 111.987 128.877 111.983 128.381ZM117.089 132.108C116.779 132.108 116.512 131.998 116.288 131.778C116.065 131.555 115.953 131.286 115.953 130.972C115.953 130.661 116.065 130.396 116.288 130.176C116.512 129.953 116.779 129.841 117.089 129.841C117.4 129.841 117.667 129.953 117.891 130.176C118.114 130.396 118.226 130.661 118.226 130.972C118.226 131.18 118.173 131.371 118.067 131.545C117.964 131.716 117.828 131.852 117.658 131.955C117.487 132.057 117.298 132.108 117.089 132.108ZM120.501 132V123.273H122.132V124.693H122.24C122.422 124.212 122.719 123.837 123.132 123.568C123.545 123.295 124.039 123.159 124.615 123.159C125.198 123.159 125.687 123.295 126.081 123.568C126.479 123.841 126.772 124.216 126.962 124.693H127.053C127.261 124.227 127.592 123.856 128.047 123.58C128.501 123.299 129.043 123.159 129.672 123.159C130.464 123.159 131.109 123.407 131.609 123.903C132.113 124.4 132.365 125.148 132.365 126.148V132H130.666V126.307C130.666 125.716 130.505 125.288 130.183 125.023C129.861 124.758 129.477 124.625 129.03 124.625C128.477 124.625 128.047 124.795 127.74 125.136C127.433 125.473 127.28 125.907 127.28 126.438V132H125.587V126.199C125.587 125.725 125.439 125.345 125.143 125.057C124.848 124.769 124.464 124.625 123.99 124.625C123.668 124.625 123.371 124.71 123.098 124.881C122.829 125.047 122.611 125.28 122.445 125.58C122.282 125.879 122.2 126.225 122.2 126.619V132H120.501ZM138.403 132.176C137.544 132.176 136.803 131.992 136.182 131.625C135.564 131.254 135.087 130.733 134.75 130.062C134.417 129.388 134.25 128.598 134.25 127.693C134.25 126.799 134.417 126.011 134.75 125.33C135.087 124.648 135.557 124.116 136.159 123.733C136.765 123.35 137.473 123.159 138.284 123.159C138.777 123.159 139.254 123.241 139.716 123.403C140.178 123.566 140.593 123.822 140.96 124.17C141.328 124.519 141.617 124.972 141.83 125.528C142.042 126.081 142.148 126.754 142.148 127.545V128.148H135.21V126.875H140.483C140.483 126.428 140.392 126.032 140.21 125.688C140.028 125.339 139.773 125.064 139.443 124.864C139.117 124.663 138.735 124.562 138.295 124.562C137.818 124.562 137.402 124.68 137.045 124.915C136.693 125.146 136.42 125.449 136.227 125.824C136.038 126.195 135.943 126.598 135.943 127.034V128.028C135.943 128.612 136.045 129.108 136.25 129.517C136.458 129.926 136.748 130.239 137.119 130.455C137.491 130.667 137.924 130.773 138.42 130.773C138.742 130.773 139.036 130.727 139.301 130.636C139.566 130.542 139.795 130.402 139.989 130.216C140.182 130.03 140.33 129.801 140.432 129.528L142.04 129.818C141.911 130.292 141.68 130.706 141.347 131.062C141.017 131.415 140.602 131.689 140.102 131.886C139.606 132.08 139.04 132.176 138.403 132.176ZM147.797 122.48H152.085V123.616H147.797V122.48ZM149.493 118.752H150.613V129.472H149.493V118.752ZM147.685 129.936C148.805 129.472 150.485 128.688 152.117 127.888L152.437 128.96C150.965 129.712 149.413 130.512 148.149 131.136L147.685 129.936ZM152.341 120.944H162.293V122.032H152.341V120.944ZM151.813 130.368C153.237 130.048 155.413 129.472 157.493 128.912L157.621 129.936C155.685 130.496 153.669 131.072 152.133 131.504L151.813 130.368ZM157.701 118.576H158.869C158.805 126.144 159.733 132.128 161.109 132.128C161.413 132.128 161.573 131.488 161.621 129.824C161.861 130.096 162.229 130.336 162.485 130.464C162.309 132.592 161.973 133.28 160.965 133.28C158.437 133.28 157.765 126.4 157.701 118.576ZM159.493 119.2L160.197 118.608C160.885 119.072 161.749 119.776 162.149 120.256L161.429 120.944C161.013 120.448 160.197 119.712 159.493 119.2ZM160.901 123.552L162.005 123.76C160.885 127.936 158.949 131.12 156.069 133.152C155.893 132.944 155.445 132.544 155.189 132.352C158.069 130.528 159.925 127.456 160.901 123.552ZM153.765 124.528V127.216H155.845V124.528H153.765ZM152.821 123.552H156.821V128.208H152.821V123.552ZM164.661 121.424H177.557V128.96H176.309V122.608H165.861V129.04H164.661V121.424ZM165.301 126.864H177.029V128.032H165.301V126.864ZM170.453 118.56H171.701V133.264H170.453V118.56ZM192.533 118.816H193.717V131.696C193.717 132.496 193.509 132.832 192.997 133.024C192.469 133.216 191.573 133.232 190.085 133.232C190.021 132.928 189.829 132.4 189.653 132.08C190.773 132.128 191.797 132.112 192.101 132.096C192.405 132.08 192.533 131.984 192.533 131.696V118.816ZM189.397 120.432H190.549V129.328H189.397V120.432ZM181.909 124.416H186.517V125.488H181.909V124.416ZM181.397 124.416H182.565V131.28C182.565 131.888 182.709 132 183.525 132C183.909 132 185.829 132 186.325 132C187.061 132 187.189 131.664 187.269 129.744C187.525 129.952 188.005 130.144 188.325 130.208C188.181 132.432 187.829 133.056 186.405 133.056C186.037 133.056 183.765 133.056 183.429 133.056C181.877 133.056 181.397 132.704 181.397 131.296V124.416ZM186.085 124.416H187.237C187.237 124.416 187.221 124.752 187.205 124.896C187.061 127.68 186.901 128.752 186.533 129.152C186.277 129.44 186.021 129.536 185.621 129.568C185.285 129.6 184.661 129.6 184.037 129.568C184.005 129.248 183.893 128.816 183.717 128.528C184.325 128.592 184.885 128.608 185.109 128.608C185.317 128.608 185.445 128.576 185.573 128.448C185.797 128.176 185.957 127.216 186.085 124.608V124.416ZM183.877 120.048L184.677 119.376C186.069 120.784 187.813 122.688 188.629 123.888L187.765 124.704C186.965 123.488 185.253 121.488 183.877 120.048ZM184.133 118.592L185.237 118.928C184.213 121.28 182.517 123.552 180.437 125.168C180.245 124.928 179.813 124.512 179.557 124.336C181.573 122.88 183.285 120.656 184.133 118.592ZM200.133 121.952H210.485V122.928H200.133V121.952ZM201.077 126.272H209.429V127.184H201.077V126.272ZM200.357 128.464H210.133V129.456H200.357V128.464ZM204.565 118.688H205.733V131.152H204.565V118.688ZM201.285 119.856H209.285V125.072H201.173V124.112H208.101V120.816H201.285V119.856ZM195.781 119.584H199.237V120.656H195.781V119.584ZM198.805 119.584H198.981L199.173 119.52L199.989 119.776C199.253 121.456 198.053 123.936 197.077 125.84L195.989 125.536C196.981 123.664 198.213 121.072 198.805 119.728V119.584ZM197.237 124.144H199.861V125.216H197.093L197.237 124.144ZM199.365 124.144H199.605L199.829 124.112L200.517 124.288C200.037 128.944 198.645 131.808 196.565 133.312C196.373 133.072 195.925 132.64 195.653 132.48C197.685 131.12 198.965 128.512 199.365 124.384V124.144ZM197.285 126.496C198.581 130.912 201.557 131.712 205.621 131.712C206.293 131.712 209.749 131.712 210.597 131.696C210.405 131.968 210.181 132.512 210.101 132.864H205.589C200.965 132.864 197.877 131.888 196.325 126.864L197.285 126.496ZM217.797 124.368L219.205 124.72C218.197 127.136 216.805 130.128 215.621 132.064L214.517 131.712C215.653 129.744 217.045 126.624 217.797 124.368ZM212.549 131.344C215.477 131.248 220.133 131.056 224.421 130.848L224.389 132C220.197 132.24 215.717 132.48 212.709 132.608L212.549 131.344ZM220.869 127.872L222.021 127.344C223.477 129.024 225.125 131.248 225.925 132.704L224.709 133.36C223.957 131.904 222.293 129.568 220.869 127.872ZM216.181 119.04L217.509 119.408C216.437 121.984 214.757 124.432 213.061 126.016C212.805 125.776 212.245 125.344 211.909 125.152C213.669 123.712 215.253 121.408 216.181 119.04ZM221.909 119.024C222.965 121.12 224.981 123.648 226.453 124.976C226.133 125.232 225.685 125.696 225.445 126C223.957 124.48 221.957 121.76 220.725 119.52L221.909 119.024ZM228.533 119.6H240.597V120.752H228.533V119.6ZM228.629 122.432H238.277V123.504H228.629V122.432ZM240.117 119.6H241.317V131.488C241.317 132.32 241.157 132.736 240.597 132.96C240.037 133.168 239.029 133.184 237.605 133.184C237.541 132.816 237.365 132.224 237.173 131.872C238.293 131.904 239.381 131.904 239.717 131.888C240.021 131.872 240.117 131.792 240.117 131.488V119.6ZM229.653 125.232H230.821V131.536H229.653V125.232ZM230.613 125.232H237.173V130.352H230.613V129.296H235.989V126.304H230.613V125.232ZM245.749 124.352H256.341V125.472H245.749V124.352ZM250.341 118.592H251.605V130.672C251.605 131.616 251.797 131.792 252.741 131.792C253.221 131.792 255.573 131.792 256.149 131.792C257.029 131.792 257.189 131.264 257.317 129.2C257.621 129.424 258.133 129.632 258.517 129.728C258.309 132.16 257.909 133.008 256.213 133.008C255.781 133.008 253.077 133.008 252.661 133.008C250.869 133.008 250.341 132.528 250.341 130.656V118.592ZM245.845 120.896H256.949V128.96H245.845V127.792H255.733V122.064H245.845V120.896ZM245.125 120.896H246.373V129.936H245.125V120.896ZM259.877 125.712H274.405V126.912H259.877V125.712ZM266.533 123.136H267.781V131.744C267.781 132.544 267.557 132.912 266.949 133.104C266.357 133.296 265.317 133.328 263.781 133.328C263.685 132.976 263.461 132.432 263.253 132.08C264.549 132.128 265.733 132.128 266.085 132.112C266.421 132.096 266.533 132.016 266.533 131.728V123.136ZM261.525 119.68H271.973V120.864H261.525V119.68ZM271.557 119.68H271.877L272.149 119.616L273.061 120.288C271.605 121.76 269.333 123.344 267.461 124.304C267.285 124.032 266.917 123.648 266.677 123.44C268.421 122.608 270.549 121.088 271.557 119.952V119.68ZM276.469 121.024H283.589V132.048H282.485V122.08H277.525V132.272H276.469V121.024ZM276.965 125.456H282.869V126.496H276.965V125.456ZM276.997 130.16H282.821V131.2H276.997V130.16ZM279.445 118.592H280.613V121.6H280.565V130.896H279.493V121.6H279.445V118.592ZM285.141 119.424H289.333V120.56H286.197V133.264H285.141V119.424ZM289.061 119.424H289.285L289.477 119.376L290.293 119.904C289.717 121.376 288.965 123.2 288.277 124.688C289.749 126.208 290.101 127.472 290.101 128.576C290.101 129.52 289.893 130.288 289.349 130.656C289.093 130.832 288.725 130.928 288.341 130.976C287.941 131.024 287.413 131.024 286.933 130.992C286.901 130.688 286.789 130.192 286.597 129.856C287.077 129.904 287.541 129.904 287.877 129.904C288.117 129.872 288.357 129.84 288.549 129.728C288.885 129.536 288.981 129.024 288.981 128.464C288.981 127.472 288.549 126.288 287.093 124.848C287.845 123.184 288.629 121.04 289.061 119.792V119.424ZM72.664 137.768H73.864V152.28H72.664V137.768ZM69.896 138.376L71.048 138.6C70.616 140.84 69.88 143.032 68.968 144.456C68.728 144.28 68.232 143.992 67.928 143.864C68.856 142.52 69.528 140.456 69.896 138.376ZM70.056 140.84H77.528V142.024H69.752L70.056 140.84ZM68.056 145.544H78.232V146.728H68.056V145.544ZM67.272 137.624L68.408 137.976C67.4 140.68 65.848 143.384 64.184 145.192C64.072 144.92 63.72 144.296 63.496 144.008C65 142.456 66.424 140.056 67.272 137.624ZM65.656 141.752L66.792 140.616L66.808 140.632V152.264H65.656V141.752ZM82.104 147.112C83.448 147.112 84.536 148.2 84.536 149.544C84.536 150.888 83.448 151.976 82.104 151.976C80.76 151.976 79.656 150.888 79.656 149.544C79.656 148.2 80.76 147.112 82.104 147.112ZM82.104 151.16C83 151.16 83.72 150.44 83.72 149.544C83.72 148.648 83 147.928 82.104 147.928C81.208 147.928 80.472 148.648 80.472 149.544C80.472 150.44 81.208 151.16 82.104 151.16ZM96.04 138.84H103.528V139.816H96.04V138.84ZM95.784 143.176H103.624V144.136H95.784V143.176ZM96.392 140.984H103.208V141.928H96.392V140.984ZM104.344 138.232H108.968V139.272H105.496V146.168H104.344V138.232ZM108.728 138.232H108.968L109.16 138.184L109.992 138.696C109.4 139.528 108.68 140.504 108.024 141.304C109.384 142.152 109.848 142.92 109.864 143.64C109.88 144.328 109.592 144.776 109.08 145.064C108.808 145.208 108.424 145.288 108.12 145.336C107.56 145.384 106.872 145.384 106.248 145.336C106.232 145.032 106.072 144.6 105.864 144.312C106.552 144.392 107.144 144.392 107.608 144.36C107.832 144.344 108.088 144.296 108.264 144.232C108.552 144.12 108.68 143.896 108.68 143.544C108.664 142.968 108.152 142.264 106.728 141.464C107.48 140.472 108.264 139.272 108.728 138.456V138.232ZM99.368 137.56H100.584V142.312C100.584 143.592 99.832 145.752 96.936 146.888C96.744 146.648 96.376 146.248 96.104 146.024C98.712 145.144 99.368 143.336 99.368 142.296V137.56ZM102.328 145.56H103.576V152.264H102.328V145.56ZM97.4 146.824H108.136V147.912H98.6V151.416H97.4V146.824ZM107.624 146.824H108.84V150.104C108.84 150.712 108.696 151.032 108.184 151.208C107.672 151.384 106.824 151.384 105.48 151.384C105.4 151.064 105.224 150.648 105.064 150.344C106.072 150.376 107.016 150.376 107.288 150.36C107.56 150.344 107.624 150.28 107.624 150.088V146.824ZM118.456 141.192H125.224V142.328H118.456V141.192ZM124.712 141.192H125.864C125.864 141.192 125.848 141.64 125.848 141.8C125.688 148.568 125.544 150.856 125.016 151.544C124.696 151.976 124.36 152.104 123.848 152.152C123.352 152.2 122.488 152.184 121.64 152.152C121.608 151.8 121.48 151.304 121.272 151C122.2 151.064 123.032 151.064 123.368 151.064C123.64 151.08 123.816 151.032 123.96 150.824C124.392 150.328 124.568 147.992 124.712 141.448V141.192ZM121.112 137.576H122.28C122.264 143.704 122.248 149.4 117.8 152.312C117.624 152.024 117.224 151.624 116.92 151.432C121.192 148.776 121.096 143.4 121.112 137.576ZM112.696 138.344H117.912V148.76H116.792V139.448H113.768V149.784H112.696V138.344ZM111.544 149.496C113.32 149.144 116.136 148.552 118.792 147.96L118.904 149.048C116.36 149.656 113.672 150.28 111.752 150.712L111.544 149.496ZM113.256 141.784H117.32V142.872H113.256V141.784ZM113.256 145.208H117.32V146.28H113.256V145.208ZM135 142.312C134.344 142.312 133.784 141.832 133.784 141.112C133.784 140.376 134.344 139.896 135 139.896C135.64 139.896 136.2 140.376 136.2 141.112C136.2 141.832 135.64 142.312 135 142.312ZM135 150.136C134.344 150.136 133.784 149.672 133.784 148.936C133.784 148.2 134.344 147.736 135 147.736C135.64 147.736 136.2 148.2 136.2 148.936C136.2 149.672 135.64 150.136 135 150.136Z" fill="#2D3342"/>
<path d="M41.7514 167.901V172H39.7848V162.545H41.696V166.16H41.7791C41.9392 165.742 42.1977 165.414 42.5547 165.177C42.9117 164.937 43.3595 164.817 43.8981 164.817C44.3905 164.817 44.8198 164.924 45.1861 165.14C45.5554 165.352 45.8416 165.658 46.0447 166.059C46.2509 166.456 46.3525 166.931 46.3494 167.485V172H44.3828V167.836C44.3859 167.399 44.2751 167.059 44.0504 166.816C43.8288 166.573 43.518 166.451 43.1179 166.451C42.8501 166.451 42.6132 166.508 42.407 166.622C42.2038 166.736 42.0438 166.902 41.9268 167.12C41.813 167.336 41.7545 167.596 41.7514 167.901ZM51.6688 164.909V166.386H47.3985V164.909H51.6688ZM48.368 163.21H50.3346V169.821C50.3346 170.003 50.3623 170.144 50.4177 170.246C50.4731 170.344 50.55 170.413 50.6485 170.453C50.7501 170.493 50.867 170.513 50.9994 170.513C51.0917 170.513 51.184 170.506 51.2764 170.49C51.3687 170.472 51.4395 170.458 51.4887 170.449L51.798 171.912C51.6995 171.943 51.5611 171.978 51.3825 172.018C51.204 172.062 50.9871 172.088 50.7316 172.097C50.2577 172.115 49.8422 172.052 49.4852 171.908C49.1312 171.763 48.8558 171.538 48.6588 171.234C48.4619 170.929 48.3649 170.544 48.368 170.08V163.21ZM56.7215 164.909V166.386H52.4513V164.909H56.7215ZM53.4207 163.21H55.3873V169.821C55.3873 170.003 55.415 170.144 55.4704 170.246C55.5258 170.344 55.6028 170.413 55.7013 170.453C55.8028 170.493 55.9198 170.513 56.0521 170.513C56.1444 170.513 56.2368 170.506 56.3291 170.49C56.4214 170.472 56.4922 170.458 56.5415 170.449L56.8508 171.912C56.7523 171.943 56.6138 171.978 56.4353 172.018C56.2568 172.062 56.0398 172.088 55.7844 172.097C55.3104 172.115 54.8949 172.052 54.5379 171.908C54.184 171.763 53.9085 171.538 53.7116 171.234C53.5146 170.929 53.4176 170.544 53.4207 170.08V163.21ZM58.0026 174.659V164.909H59.9415V166.1H60.0292C60.1154 165.909 60.24 165.715 60.4031 165.518C60.5693 165.318 60.7848 165.152 61.0494 165.02C61.3172 164.884 61.6496 164.817 62.0466 164.817C62.5637 164.817 63.0407 164.952 63.4777 165.223C63.9147 165.491 64.2641 165.895 64.5257 166.437C64.7873 166.976 64.9181 167.651 64.9181 168.464C64.9181 169.255 64.7903 169.923 64.5349 170.467C64.2825 171.009 63.9378 171.42 63.5008 171.7C63.0669 171.977 62.5806 172.115 62.042 172.115C61.6604 172.115 61.3357 172.052 61.0679 171.926C60.8032 171.8 60.5863 171.641 60.417 171.451C60.2477 171.257 60.1185 171.061 60.0292 170.864H59.9692V174.659H58.0026ZM59.9276 168.455C59.9276 168.876 59.9861 169.244 60.1031 169.558C60.22 169.872 60.3893 170.116 60.6109 170.292C60.8325 170.464 61.1018 170.55 61.4188 170.55C61.7388 170.55 62.0097 170.463 62.2313 170.287C62.4529 170.109 62.6206 169.863 62.7345 169.549C62.8514 169.232 62.9099 168.867 62.9099 168.455C62.9099 168.045 62.853 167.685 62.7391 167.374C62.6252 167.063 62.4575 166.82 62.2359 166.645C62.0143 166.469 61.7419 166.382 61.4188 166.382C61.0987 166.382 60.8279 166.466 60.6063 166.636C60.3878 166.805 60.22 167.045 60.1031 167.356C59.9861 167.667 59.9276 168.033 59.9276 168.455ZM72.129 166.931L70.3286 167.042C70.2978 166.888 70.2316 166.75 70.1301 166.626C70.0285 166.5 69.8946 166.4 69.7284 166.326C69.5653 166.249 69.3699 166.211 69.1421 166.211C68.8374 166.211 68.5805 166.276 68.3712 166.405C68.1619 166.531 68.0573 166.7 68.0573 166.913C68.0573 167.082 68.125 167.225 68.2604 167.342C68.3958 167.459 68.6282 167.553 68.9575 167.624L70.2409 167.882C70.9302 168.024 71.4442 168.251 71.7828 168.565C72.1213 168.879 72.2906 169.292 72.2906 169.803C72.2906 170.267 72.1536 170.675 71.8797 171.026C71.6089 171.377 71.2365 171.651 70.7625 171.848C70.2916 172.042 69.7484 172.138 69.1329 172.138C68.1942 172.138 67.4463 171.943 66.8893 171.552C66.3353 171.158 66.0106 170.623 65.9152 169.946L67.8495 169.844C67.908 170.13 68.0496 170.349 68.2742 170.5C68.4989 170.647 68.7867 170.721 69.1375 170.721C69.4822 170.721 69.7592 170.655 69.9685 170.523C70.1808 170.387 70.2886 170.213 70.2916 170.001C70.2886 169.823 70.2132 169.676 70.0654 169.562C69.9177 169.446 69.69 169.356 69.3822 169.295L68.1542 169.05C67.4617 168.912 66.9462 168.672 66.6077 168.33C66.2722 167.988 66.1045 167.553 66.1045 167.023C66.1045 166.568 66.2276 166.176 66.4738 165.846C66.7231 165.517 67.0724 165.263 67.5218 165.085C67.9742 164.906 68.5035 164.817 69.1098 164.817C70.0054 164.817 70.7102 165.006 71.2242 165.385C71.7412 165.763 72.0428 166.279 72.129 166.931ZM74.6784 172.12C74.3738 172.12 74.1122 172.012 73.8936 171.797C73.6782 171.578 73.5705 171.317 73.5705 171.012C73.5705 170.71 73.6782 170.452 73.8936 170.237C74.1122 170.021 74.3738 169.913 74.6784 169.913C74.9739 169.913 75.2324 170.021 75.454 170.237C75.6756 170.452 75.7864 170.71 75.7864 171.012C75.7864 171.215 75.7341 171.401 75.6294 171.571C75.5279 171.737 75.394 171.871 75.2278 171.972C75.0616 172.071 74.8785 172.12 74.6784 172.12ZM74.6784 167.153C74.3738 167.153 74.1122 167.045 73.8936 166.83C73.6782 166.614 73.5705 166.353 73.5705 166.045C73.5705 165.743 73.6782 165.486 73.8936 165.274C74.1122 165.058 74.3738 164.951 74.6784 164.951C74.9739 164.951 75.2324 165.058 75.454 165.274C75.6756 165.486 75.7864 165.743 75.7864 166.045C75.7864 166.251 75.7341 166.439 75.6294 166.608C75.5279 166.774 75.394 166.906 75.2278 167.005C75.0616 167.103 74.8785 167.153 74.6784 167.153ZM81.5189 162.102L78.472 173.422H76.7778L79.8247 162.102H81.5189ZM86.5843 162.102L83.5375 173.422H81.8432L84.8901 162.102H86.5843ZM88.9307 172L87.001 164.909H88.9907L90.0894 169.673H90.154L91.2989 164.909H93.2517L94.415 169.646H94.4751L95.5553 164.909H97.5404L95.6153 172H93.5333L92.3145 167.54H92.2268L91.0081 172H88.9307ZM99.9883 172L98.0586 164.909H100.048L101.147 169.673H101.212L102.357 164.909H104.309L105.473 169.646H105.533L106.613 164.909H108.598L106.673 172H104.591L103.372 167.54H103.284L102.066 172H99.9883ZM111.046 172L109.116 164.909H111.106L112.205 169.673H112.269L113.414 164.909H115.367L116.53 169.646H116.59L117.671 164.909H119.656L117.731 172H115.649L114.43 167.54H114.342L113.123 172H111.046ZM120.889 172.12C120.585 172.12 120.323 172.012 120.105 171.797C119.889 171.578 119.781 171.317 119.781 171.012C119.781 170.71 119.889 170.452 120.105 170.237C120.323 170.021 120.585 169.913 120.889 169.913C121.185 169.913 121.443 170.021 121.665 170.237C121.887 170.452 121.997 170.71 121.997 171.012C121.997 171.215 121.945 171.401 121.84 171.571C121.739 171.737 121.605 171.871 121.439 171.972C121.273 172.071 121.089 172.12 120.889 172.12ZM124.826 174.659C124.577 174.659 124.343 174.639 124.124 174.599C123.909 174.562 123.73 174.514 123.589 174.456L124.032 172.988C124.263 173.059 124.471 173.097 124.655 173.103C124.843 173.109 125.005 173.066 125.14 172.974C125.278 172.882 125.391 172.725 125.477 172.503L125.592 172.203L123.049 164.909H125.117L126.585 170.116H126.659L128.141 164.909H130.223L127.467 172.766C127.334 173.148 127.154 173.48 126.927 173.763C126.702 174.05 126.417 174.27 126.073 174.424C125.728 174.581 125.312 174.659 124.826 174.659ZM134.204 172.138C133.487 172.138 132.867 171.986 132.344 171.681C131.824 171.374 131.422 170.946 131.139 170.398C130.856 169.847 130.714 169.209 130.714 168.482C130.714 167.75 130.856 167.11 131.139 166.562C131.422 166.011 131.824 165.583 132.344 165.278C132.867 164.971 133.487 164.817 134.204 164.817C134.922 164.817 135.54 164.971 136.06 165.278C136.583 165.583 136.987 166.011 137.27 166.562C137.553 167.11 137.695 167.75 137.695 168.482C137.695 169.209 137.553 169.847 137.27 170.398C136.987 170.946 136.583 171.374 136.06 171.681C135.54 171.986 134.922 172.138 134.204 172.138ZM134.214 170.615C134.54 170.615 134.812 170.523 135.031 170.338C135.249 170.15 135.414 169.895 135.525 169.572C135.639 169.249 135.696 168.881 135.696 168.468C135.696 168.056 135.639 167.688 135.525 167.365C135.414 167.042 135.249 166.786 135.031 166.599C134.812 166.411 134.54 166.317 134.214 166.317C133.884 166.317 133.607 166.411 133.383 166.599C133.161 166.786 132.993 167.042 132.88 167.365C132.769 167.688 132.713 168.056 132.713 168.468C132.713 168.881 132.769 169.249 132.88 169.572C132.993 169.895 133.161 170.15 133.383 170.338C133.607 170.523 133.884 170.615 134.214 170.615ZM143.521 168.981V164.909H145.487V172H143.599V170.712H143.525C143.365 171.127 143.099 171.461 142.726 171.714C142.357 171.966 141.906 172.092 141.374 172.092C140.9 172.092 140.483 171.985 140.123 171.769C139.763 171.554 139.481 171.248 139.278 170.85C139.078 170.453 138.976 169.978 138.973 169.424V164.909H140.94V169.073C140.943 169.492 141.055 169.823 141.277 170.066C141.498 170.309 141.795 170.43 142.168 170.43C142.405 170.43 142.626 170.377 142.833 170.269C143.039 170.158 143.205 169.995 143.331 169.779C143.46 169.564 143.524 169.298 143.521 168.981ZM150.832 164.909V166.386H146.562V164.909H150.832ZM147.531 163.21H149.498V169.821C149.498 170.003 149.525 170.144 149.581 170.246C149.636 170.344 149.713 170.413 149.812 170.453C149.913 170.493 150.03 170.513 150.162 170.513C150.255 170.513 150.347 170.506 150.439 170.49C150.532 170.472 150.603 170.458 150.652 170.449L150.961 171.912C150.863 171.943 150.724 171.978 150.546 172.018C150.367 172.062 150.15 172.088 149.895 172.097C149.421 172.115 149.005 172.052 148.648 171.908C148.294 171.763 148.019 171.538 147.822 171.234C147.625 170.929 147.528 170.544 147.531 170.08V163.21ZM156.66 168.981V164.909H158.627V172H156.739V170.712H156.665C156.505 171.127 156.239 171.461 155.866 171.714C155.497 171.966 155.046 172.092 154.513 172.092C154.04 172.092 153.623 171.985 153.262 171.769C152.902 171.554 152.621 171.248 152.418 170.85C152.218 170.453 152.116 169.978 152.113 169.424V164.909H154.08V169.073C154.083 169.492 154.195 169.823 154.417 170.066C154.638 170.309 154.935 170.43 155.308 170.43C155.545 170.43 155.766 170.377 155.972 170.269C156.179 170.158 156.345 169.995 156.471 169.779C156.6 169.564 156.663 169.298 156.66 168.981ZM160.237 172V162.545H162.203V166.1H162.263C162.35 165.909 162.474 165.715 162.637 165.518C162.804 165.318 163.019 165.152 163.284 165.02C163.551 164.884 163.884 164.817 164.281 164.817C164.798 164.817 165.275 164.952 165.712 165.223C166.149 165.491 166.498 165.895 166.76 166.437C167.021 166.976 167.152 167.651 167.152 168.464C167.152 169.255 167.025 169.923 166.769 170.467C166.517 171.009 166.172 171.42 165.735 171.7C165.301 171.977 164.815 172.115 164.276 172.115C163.895 172.115 163.57 172.052 163.302 171.926C163.037 171.8 162.82 171.641 162.651 171.451C162.482 171.257 162.353 171.061 162.263 170.864H162.176V172H160.237ZM162.162 168.455C162.162 168.876 162.22 169.244 162.337 169.558C162.454 169.872 162.623 170.116 162.845 170.292C163.067 170.464 163.336 170.55 163.653 170.55C163.973 170.55 164.244 170.463 164.465 170.287C164.687 170.109 164.855 169.863 164.969 169.549C165.086 169.232 165.144 168.867 165.144 168.455C165.144 168.045 165.087 167.685 164.973 167.374C164.859 167.063 164.692 166.82 164.47 166.645C164.248 166.469 163.976 166.382 163.653 166.382C163.333 166.382 163.062 166.466 162.84 166.636C162.622 166.805 162.454 167.045 162.337 167.356C162.22 167.667 162.162 168.033 162.162 168.455ZM171.696 172.138C170.967 172.138 170.339 171.991 169.812 171.695C169.289 171.397 168.886 170.975 168.603 170.43C168.32 169.883 168.178 169.235 168.178 168.487C168.178 167.757 168.32 167.117 168.603 166.566C168.886 166.016 169.285 165.586 169.799 165.278C170.316 164.971 170.922 164.817 171.618 164.817C172.085 164.817 172.521 164.892 172.924 165.043C173.33 165.191 173.684 165.414 173.986 165.712C174.29 166.011 174.527 166.386 174.697 166.839C174.866 167.288 174.951 167.814 174.951 168.418V168.958H168.963V167.739H173.099C173.099 167.456 173.038 167.205 172.915 166.987C172.792 166.768 172.621 166.597 172.402 166.474C172.187 166.348 171.936 166.285 171.65 166.285C171.351 166.285 171.087 166.354 170.856 166.493C170.628 166.628 170.45 166.811 170.32 167.042C170.191 167.27 170.125 167.524 170.122 167.804V168.962C170.122 169.313 170.186 169.616 170.316 169.872C170.448 170.127 170.634 170.324 170.874 170.463C171.114 170.601 171.399 170.67 171.728 170.67C171.947 170.67 172.147 170.64 172.328 170.578C172.51 170.517 172.665 170.424 172.795 170.301C172.924 170.178 173.022 170.027 173.09 169.849L174.909 169.969C174.817 170.406 174.627 170.787 174.341 171.114C174.058 171.437 173.692 171.689 173.243 171.871C172.796 172.049 172.281 172.138 171.696 172.138ZM177.384 172.12C177.079 172.12 176.817 172.012 176.599 171.797C176.383 171.578 176.276 171.317 176.276 171.012C176.276 170.71 176.383 170.452 176.599 170.237C176.817 170.021 177.079 169.913 177.384 169.913C177.679 169.913 177.938 170.021 178.159 170.237C178.381 170.452 178.491 170.71 178.491 171.012C178.491 171.215 178.439 171.401 178.335 171.571C178.233 171.737 178.099 171.871 177.933 171.972C177.767 172.071 177.584 172.12 177.384 172.12ZM183.31 172.138C182.584 172.138 181.959 171.985 181.436 171.677C180.916 171.366 180.515 170.935 180.235 170.384C179.958 169.833 179.82 169.199 179.82 168.482C179.82 167.756 179.96 167.119 180.24 166.571C180.523 166.02 180.925 165.591 181.445 165.283C181.965 164.972 182.584 164.817 183.301 164.817C183.919 164.817 184.461 164.929 184.926 165.154C185.39 165.378 185.758 165.694 186.029 166.1C186.3 166.506 186.449 166.983 186.477 167.531H184.621C184.569 167.177 184.43 166.893 184.206 166.677C183.984 166.459 183.693 166.349 183.333 166.349C183.028 166.349 182.762 166.433 182.534 166.599C182.31 166.762 182.134 167 182.008 167.314C181.882 167.628 181.819 168.008 181.819 168.455C181.819 168.907 181.88 169.292 182.003 169.609C182.13 169.926 182.307 170.167 182.534 170.333C182.762 170.5 183.028 170.583 183.333 170.583C183.558 170.583 183.759 170.537 183.938 170.444C184.119 170.352 184.269 170.218 184.386 170.043C184.506 169.864 184.584 169.65 184.621 169.401H186.477C186.446 169.943 186.298 170.42 186.034 170.832C185.772 171.241 185.41 171.561 184.949 171.792C184.487 172.023 183.941 172.138 183.31 172.138ZM190.94 172.138C190.223 172.138 189.603 171.986 189.079 171.681C188.559 171.374 188.158 170.946 187.874 170.398C187.591 169.847 187.45 169.209 187.45 168.482C187.45 167.75 187.591 167.11 187.874 166.562C188.158 166.011 188.559 165.583 189.079 165.278C189.603 164.971 190.223 164.817 190.94 164.817C191.657 164.817 192.276 164.971 192.796 165.278C193.319 165.583 193.722 166.011 194.005 166.562C194.288 167.11 194.43 167.75 194.43 168.482C194.43 169.209 194.288 169.847 194.005 170.398C193.722 170.946 193.319 171.374 192.796 171.681C192.276 171.986 191.657 172.138 190.94 172.138ZM190.949 170.615C191.275 170.615 191.548 170.523 191.766 170.338C191.985 170.15 192.149 169.895 192.26 169.572C192.374 169.249 192.431 168.881 192.431 168.468C192.431 168.056 192.374 167.688 192.26 167.365C192.149 167.042 191.985 166.786 191.766 166.599C191.548 166.411 191.275 166.317 190.949 166.317C190.62 166.317 190.343 166.411 190.118 166.599C189.896 166.786 189.729 167.042 189.615 167.365C189.504 167.688 189.449 168.056 189.449 168.468C189.449 168.881 189.504 169.249 189.615 169.572C189.729 169.895 189.896 170.15 190.118 170.338C190.343 170.523 190.62 170.615 190.949 170.615ZM195.709 172V164.909H197.583V166.16H197.666C197.814 165.745 198.06 165.417 198.405 165.177C198.749 164.937 199.162 164.817 199.642 164.817C200.128 164.817 200.542 164.938 200.884 165.181C201.225 165.422 201.453 165.748 201.567 166.16H201.641C201.785 165.754 202.047 165.429 202.426 165.186C202.807 164.94 203.258 164.817 203.778 164.817C204.44 164.817 204.977 165.028 205.389 165.449C205.805 165.868 206.013 166.462 206.013 167.231V172H204.051V167.619C204.051 167.225 203.946 166.93 203.737 166.733C203.527 166.536 203.266 166.437 202.952 166.437C202.595 166.437 202.316 166.551 202.116 166.779C201.916 167.003 201.816 167.3 201.816 167.67V172H199.91V167.577C199.91 167.23 199.81 166.953 199.61 166.746C199.413 166.54 199.153 166.437 198.829 166.437C198.611 166.437 198.414 166.493 198.238 166.603C198.066 166.711 197.929 166.863 197.828 167.06C197.726 167.254 197.675 167.482 197.675 167.744V172H195.709ZM211.684 162.102L208.637 173.422H206.943L209.99 162.102H211.684ZM214.03 172L212.101 164.909H214.09L215.189 169.673H215.254L216.399 164.909H218.351L219.515 169.646H219.575L220.655 164.909H222.64L220.715 172H218.633L217.414 167.54H217.326L216.108 172H214.03ZM225.711 172.134C225.259 172.134 224.856 172.055 224.502 171.898C224.148 171.738 223.868 171.503 223.661 171.192C223.458 170.878 223.357 170.487 223.357 170.02C223.357 169.626 223.429 169.295 223.574 169.027C223.718 168.759 223.915 168.544 224.165 168.381C224.414 168.218 224.697 168.094 225.014 168.011C225.334 167.928 225.67 167.87 226.02 167.836C226.433 167.793 226.765 167.753 227.018 167.716C227.27 167.676 227.453 167.617 227.567 167.54C227.681 167.464 227.738 167.35 227.738 167.199V167.171C227.738 166.879 227.645 166.653 227.461 166.493C227.279 166.333 227.021 166.252 226.685 166.252C226.331 166.252 226.05 166.331 225.84 166.488C225.631 166.642 225.493 166.836 225.425 167.07L223.606 166.922C223.698 166.491 223.88 166.119 224.151 165.805C224.422 165.488 224.771 165.245 225.199 165.075C225.63 164.903 226.128 164.817 226.694 164.817C227.088 164.817 227.465 164.863 227.825 164.955C228.189 165.048 228.51 165.191 228.79 165.385C229.073 165.578 229.297 165.828 229.46 166.132C229.623 166.434 229.704 166.796 229.704 167.217V172H227.839V171.017H227.784C227.67 171.238 227.518 171.434 227.327 171.603C227.136 171.769 226.907 171.9 226.639 171.995C226.371 172.088 226.062 172.134 225.711 172.134ZM226.274 170.777C226.564 170.777 226.819 170.72 227.041 170.606C227.262 170.489 227.436 170.332 227.562 170.135C227.689 169.938 227.752 169.715 227.752 169.466V168.713C227.69 168.753 227.605 168.79 227.498 168.824C227.393 168.855 227.275 168.884 227.142 168.912C227.01 168.936 226.878 168.959 226.745 168.981C226.613 168.999 226.493 169.016 226.385 169.032C226.154 169.065 225.953 169.119 225.78 169.193C225.608 169.267 225.474 169.367 225.379 169.493C225.283 169.616 225.236 169.77 225.236 169.955C225.236 170.223 225.333 170.427 225.526 170.569C225.723 170.707 225.973 170.777 226.274 170.777ZM235.002 164.909V166.386H230.732V164.909H235.002ZM231.701 163.21H233.668V169.821C233.668 170.003 233.695 170.144 233.751 170.246C233.806 170.344 233.883 170.413 233.982 170.453C234.083 170.493 234.2 170.513 234.332 170.513C234.425 170.513 234.517 170.506 234.609 170.49C234.702 170.472 234.772 170.458 234.822 170.449L235.131 171.912C235.033 171.943 234.894 171.978 234.716 172.018C234.537 172.062 234.32 172.088 234.065 172.097C233.591 172.115 233.175 172.052 232.818 171.908C232.464 171.763 232.189 171.538 231.992 171.234C231.795 170.929 231.698 170.544 231.701 170.08V163.21ZM239.411 172.138C238.684 172.138 238.059 171.985 237.536 171.677C237.016 171.366 236.616 170.935 236.336 170.384C236.059 169.833 235.92 169.199 235.92 168.482C235.92 167.756 236.06 167.119 236.341 166.571C236.624 166.02 237.025 165.591 237.545 165.283C238.066 164.972 238.684 164.817 239.401 164.817C240.02 164.817 240.562 164.929 241.026 165.154C241.491 165.378 241.859 165.694 242.13 166.1C242.4 166.506 242.55 166.983 242.577 167.531H240.722C240.669 167.177 240.531 166.893 240.306 166.677C240.085 166.459 239.794 166.349 239.434 166.349C239.129 166.349 238.863 166.433 238.635 166.599C238.41 166.762 238.235 167 238.109 167.314C237.982 167.628 237.919 168.008 237.919 168.455C237.919 168.907 237.981 169.292 238.104 169.609C238.23 169.926 238.407 170.167 238.635 170.333C238.863 170.5 239.129 170.583 239.434 170.583C239.658 170.583 239.86 170.537 240.038 170.444C240.22 170.352 240.369 170.218 240.486 170.043C240.606 169.864 240.685 169.65 240.722 169.401H242.577C242.547 169.943 242.399 170.42 242.134 170.832C241.873 171.241 241.511 171.561 241.049 171.792C240.588 172.023 240.041 172.138 239.411 172.138ZM245.803 167.901V172H243.837V162.545H245.748V166.16H245.831C245.991 165.742 246.249 165.414 246.606 165.177C246.963 164.937 247.411 164.817 247.95 164.817C248.442 164.817 248.872 164.924 249.238 165.14C249.607 165.352 249.893 165.658 250.097 166.059C250.303 166.456 250.404 166.931 250.401 167.485V172H248.435V167.836C248.438 167.399 248.327 167.059 248.102 166.816C247.881 166.573 247.57 166.451 247.17 166.451C246.902 166.451 246.665 166.508 246.459 166.622C246.256 166.736 246.096 166.902 245.979 167.12C245.865 167.336 245.806 167.596 245.803 167.901ZM253.638 169.165V169.009C253.642 168.47 253.689 168.041 253.782 167.721C253.877 167.4 254.016 167.142 254.197 166.945C254.379 166.748 254.597 166.569 254.853 166.409C255.043 166.286 255.214 166.159 255.365 166.026C255.516 165.894 255.636 165.748 255.725 165.588C255.814 165.425 255.859 165.243 255.859 165.043C255.859 164.831 255.808 164.644 255.707 164.484C255.605 164.324 255.468 164.201 255.296 164.115C255.127 164.029 254.939 163.986 254.733 163.986C254.533 163.986 254.343 164.03 254.165 164.12C253.986 164.206 253.84 164.335 253.726 164.507C253.612 164.677 253.551 164.888 253.542 165.14H251.658C251.673 164.524 251.821 164.017 252.101 163.616C252.381 163.213 252.752 162.913 253.214 162.716C253.675 162.516 254.185 162.416 254.742 162.416C255.354 162.416 255.896 162.518 256.367 162.721C256.838 162.921 257.207 163.212 257.475 163.593C257.743 163.975 257.876 164.435 257.876 164.974C257.876 165.334 257.816 165.654 257.696 165.934C257.579 166.211 257.415 166.457 257.202 166.673C256.99 166.885 256.739 167.077 256.45 167.25C256.207 167.394 256.007 167.545 255.85 167.702C255.696 167.859 255.58 168.041 255.504 168.247C255.43 168.453 255.391 168.707 255.388 169.009V169.165H253.638ZM254.553 172.12C254.245 172.12 253.982 172.012 253.763 171.797C253.548 171.578 253.442 171.317 253.445 171.012C253.442 170.71 253.548 170.452 253.763 170.237C253.982 170.021 254.245 169.913 254.553 169.913C254.845 169.913 255.102 170.021 255.324 170.237C255.545 170.452 255.657 170.71 255.661 171.012C255.657 171.215 255.604 171.401 255.499 171.571C255.397 171.737 255.263 171.871 255.097 171.972C254.931 172.071 254.75 172.12 254.553 172.12ZM46.3956 179.909L43.9165 187H41.7006L39.2216 179.909H41.299L42.7717 184.983H42.8455L44.3136 179.909H46.3956ZM47.3247 182.504V180.865H53.7V182.504H47.3247ZM47.3247 185.569V183.93H53.7V185.569H47.3247ZM59.3229 183.713H61.0218L61.8758 184.812L62.716 185.79L64.2994 187.776H62.4344L61.3449 186.437L60.7863 185.643L59.3229 183.713ZM64.4426 182.273C64.4426 183.304 64.2471 184.181 63.8563 184.904C63.4685 185.627 62.9391 186.18 62.2682 186.561C61.6003 186.94 60.8494 187.129 60.0154 187.129C59.1752 187.129 58.4211 186.938 57.7533 186.557C57.0854 186.175 56.5576 185.623 56.1698 184.9C55.782 184.176 55.5882 183.301 55.5882 182.273C55.5882 181.242 55.782 180.365 56.1698 179.641C56.5576 178.918 57.0854 178.367 57.7533 177.989C58.4211 177.607 59.1752 177.416 60.0154 177.416C60.8494 177.416 61.6003 177.607 62.2682 177.989C62.9391 178.367 63.4685 178.918 63.8563 179.641C64.2471 180.365 64.4426 181.242 64.4426 182.273ZM62.4159 182.273C62.4159 181.605 62.3159 181.042 62.1159 180.583C61.9189 180.125 61.6404 179.777 61.2803 179.54C60.9202 179.303 60.4986 179.184 60.0154 179.184C59.5322 179.184 59.1105 179.303 58.7504 179.54C58.3904 179.777 58.1103 180.125 57.9102 180.583C57.7133 181.042 57.6148 181.605 57.6148 182.273C57.6148 182.941 57.7133 183.504 57.9102 183.962C58.1103 184.421 58.3904 184.769 58.7504 185.006C59.1105 185.243 59.5322 185.361 60.0154 185.361C60.4986 185.361 60.9202 185.243 61.2803 185.006C61.6404 184.769 61.9189 184.421 62.1159 183.962C62.3159 183.504 62.4159 182.941 62.4159 182.273ZM65.9233 187V177.545H69.6534C70.3705 177.545 70.9814 177.682 71.4862 177.956C71.9909 178.227 72.3756 178.604 72.6403 179.087C72.908 179.567 73.0419 180.121 73.0419 180.749C73.0419 181.377 72.9065 181.931 72.6357 182.411C72.3648 182.891 71.9724 183.265 71.4585 183.533C70.9476 183.801 70.329 183.935 69.6026 183.935H67.2251V182.333H69.2795C69.6642 182.333 69.9812 182.267 70.2305 182.134C70.4828 181.999 70.6706 181.813 70.7937 181.576C70.9199 181.336 70.983 181.06 70.983 180.749C70.983 180.435 70.9199 180.161 70.7937 179.928C70.6706 179.691 70.4828 179.507 70.2305 179.378C69.9781 179.246 69.658 179.18 69.2702 179.18H67.9222V187H65.9233ZM74.3403 187V177.545H76.3392V181.714H76.4639L79.8662 177.545H82.2622L78.7536 181.779L82.3037 187H79.9124L77.3225 183.113L76.3392 184.313V187H74.3403ZM85.9403 189.807C85.3033 189.807 84.757 189.719 84.3015 189.544C83.8491 189.371 83.489 189.136 83.2212 188.837C82.9535 188.539 82.7796 188.203 82.6996 187.831L84.5185 187.586C84.5739 187.728 84.6616 187.86 84.7816 187.983C84.9016 188.106 85.0601 188.205 85.2571 188.279C85.4571 188.356 85.7003 188.394 85.9865 188.394C86.4143 188.394 86.7667 188.29 87.0437 188.08C87.3237 187.874 87.4638 187.528 87.4638 187.042V185.744H87.3807C87.2945 185.941 87.1652 186.127 86.9929 186.303C86.8205 186.478 86.599 186.621 86.3281 186.732C86.0573 186.843 85.7341 186.898 85.3587 186.898C84.8262 186.898 84.3415 186.775 83.9045 186.529C83.4705 186.28 83.1243 185.9 82.8658 185.389C82.6103 184.875 82.4826 184.225 82.4826 183.441C82.4826 182.637 82.6134 181.967 82.875 181.428C83.1366 180.889 83.4844 180.486 83.9183 180.218C84.3554 179.951 84.8339 179.817 85.354 179.817C85.7511 179.817 86.0835 179.884 86.3512 180.02C86.619 180.152 86.8344 180.318 86.9975 180.518C87.1637 180.715 87.2914 180.909 87.3807 181.1H87.4545V179.909H89.4073V187.069C89.4073 187.672 89.2596 188.177 88.9641 188.583C88.6687 188.99 88.2594 189.294 87.7362 189.498C87.216 189.704 86.6174 189.807 85.9403 189.807ZM85.9819 185.421C86.2989 185.421 86.5666 185.343 86.7852 185.186C87.0067 185.026 87.176 184.798 87.293 184.502C87.413 184.204 87.473 183.847 87.473 183.431C87.473 183.016 87.4145 182.656 87.2976 182.351C87.1806 182.043 87.0114 181.805 86.7898 181.636C86.5682 181.466 86.2989 181.382 85.9819 181.382C85.6587 181.382 85.3864 181.469 85.1648 181.645C84.9432 181.817 84.7754 182.057 84.6616 182.365C84.5477 182.673 84.4908 183.028 84.4908 183.431C84.4908 183.841 84.5477 184.195 84.6616 184.493C84.7785 184.789 84.9463 185.018 85.1648 185.181C85.3864 185.341 85.6587 185.421 85.9819 185.421ZM102.706 182.273C102.706 183.304 102.511 184.181 102.12 184.904C101.732 185.627 101.203 186.18 100.532 186.561C99.864 186.94 99.1131 187.129 98.279 187.129C97.4388 187.129 96.6848 186.938 96.017 186.557C95.3491 186.175 94.8213 185.623 94.4335 184.9C94.0457 184.176 93.8518 183.301 93.8518 182.273C93.8518 181.242 94.0457 180.365 94.4335 179.641C94.8213 178.918 95.3491 178.367 96.017 177.989C96.6848 177.607 97.4388 177.416 98.279 177.416C99.1131 177.416 99.864 177.607 100.532 177.989C101.203 178.367 101.732 178.918 102.12 179.641C102.511 180.365 102.706 181.242 102.706 182.273ZM100.68 182.273C100.68 181.605 100.58 181.042 100.38 180.583C100.183 180.125 99.904 179.777 99.5439 179.54C99.1839 179.303 98.7622 179.184 98.279 179.184C97.7958 179.184 97.3742 179.303 97.0141 179.54C96.654 179.777 96.374 180.125 96.1739 180.583C95.9769 181.042 95.8785 181.605 95.8785 182.273C95.8785 182.941 95.9769 183.504 96.1739 183.962C96.374 184.421 96.654 184.769 97.0141 185.006C97.3742 185.243 97.7958 185.361 98.279 185.361C98.7622 185.361 99.1839 185.243 99.5439 185.006C99.904 184.769 100.183 184.421 100.38 183.962C100.58 183.504 100.68 182.941 100.68 182.273ZM104.187 187V177.545H107.917C108.634 177.545 109.245 177.682 109.75 177.956C110.255 178.227 110.639 178.604 110.904 179.087C111.172 179.567 111.306 180.121 111.306 180.749C111.306 181.377 111.17 181.931 110.899 182.411C110.628 182.891 110.236 183.265 109.722 183.533C109.211 183.801 108.593 183.935 107.866 183.935H105.489V182.333H107.543C107.928 182.333 108.245 182.267 108.494 182.134C108.747 181.999 108.934 181.813 109.057 181.576C109.184 181.336 109.247 181.06 109.247 180.749C109.247 180.435 109.184 180.161 109.057 179.928C108.934 179.691 108.747 179.507 108.494 179.378C108.242 179.246 107.922 179.18 107.534 179.18H106.186V187H104.187ZM118.444 177.545H120.443V183.685C120.443 184.375 120.278 184.978 119.949 185.495C119.623 186.012 119.166 186.415 118.578 186.705C117.99 186.991 117.305 187.134 116.523 187.134C115.739 187.134 115.052 186.991 114.464 186.705C113.877 186.415 113.42 186.012 113.093 185.495C112.767 184.978 112.604 184.375 112.604 183.685V177.545H114.603V183.515C114.603 183.875 114.681 184.195 114.838 184.475C114.998 184.755 115.223 184.975 115.512 185.135C115.802 185.295 116.139 185.375 116.523 185.375C116.911 185.375 117.248 185.295 117.534 185.135C117.824 184.975 118.047 184.755 118.204 184.475C118.364 184.195 118.444 183.875 118.444 183.515V177.545ZM127.95 181.931L126.15 182.042C126.119 181.888 126.053 181.75 125.951 181.626C125.85 181.5 125.716 181.4 125.55 181.326C125.387 181.249 125.191 181.211 124.963 181.211C124.659 181.211 124.402 181.276 124.192 181.405C123.983 181.531 123.879 181.7 123.879 181.913C123.879 182.082 123.946 182.225 124.082 182.342C124.217 182.459 124.449 182.553 124.779 182.624L126.062 182.882C126.752 183.024 127.266 183.251 127.604 183.565C127.943 183.879 128.112 184.292 128.112 184.803C128.112 185.267 127.975 185.675 127.701 186.026C127.43 186.377 127.058 186.651 126.584 186.848C126.113 187.042 125.57 187.138 124.954 187.138C124.016 187.138 123.268 186.943 122.711 186.552C122.157 186.158 121.832 185.623 121.737 184.946L123.671 184.844C123.729 185.13 123.871 185.349 124.096 185.5C124.32 185.647 124.608 185.721 124.959 185.721C125.304 185.721 125.58 185.655 125.79 185.523C126.002 185.387 126.11 185.213 126.113 185.001C126.11 184.823 126.034 184.676 125.887 184.562C125.739 184.446 125.511 184.356 125.203 184.295L123.975 184.05C123.283 183.912 122.768 183.672 122.429 183.33C122.094 182.988 121.926 182.553 121.926 182.023C121.926 181.568 122.049 181.176 122.295 180.846C122.544 180.517 122.894 180.263 123.343 180.085C123.795 179.906 124.325 179.817 124.931 179.817C125.827 179.817 126.531 180.006 127.045 180.385C127.563 180.763 127.864 181.279 127.95 181.931Z" fill="#6663CF"/>
<path d="M39 174.585H258.477V175.472H39V174.585ZM39 189.585H128.569V190.472H39V189.585Z" fill="#6663CF"/>
<a href="https://www.youtube.com/watch?v=QPKgEAOYyUs">
<rect fill="black" fill-opacity="0" y="42.7244" width="219.477" height="15.733"/>
</a>
<a href="https://www.youtube.com/watch?v=QPKgEAOYyUs">
<rect fill="black" fill-opacity="0" y="57.7244" width="89.5689" height="15.733"/>
</a>
<path d="M50.8115 136.73C50.3971 136.662 40.3649 135.195 40.7828 124.962C40.8212 124.022 40.9281 123.167 41.0944 122.391M50.8115 136.73C45.3128 136.331 42.5186 133.969 41.2682 131.139M50.8115 136.73C51.4767 136.838 52.1628 136.829 52.8416 136.711M41.0944 122.391C41.3025 121.421 41.6035 120.575 41.9792 119.846M41.0944 122.391C40.3452 124.667 39.9531 128.162 41.2682 131.139M41.9792 119.846C45.0592 113.863 53.1592 115.65 56.2437 119.846C57.454 121.493 59.9906 125.671 58.7544 130.894C57.9795 134.168 55.4656 136.256 52.8416 136.711M41.9792 119.846C40.8072 121.651 39.1067 125.879 40.5605 129.713M41.2682 131.139C40.9772 130.673 40.7438 130.196 40.5605 129.713M52.8416 136.711C49.3718 137.373 42.0578 136.9 40.5605 129.713" stroke="#6663CF" stroke-linecap="round"/>
<path d="M16.095 232V230.727L20.0325 226.648C20.4529 226.205 20.7995 225.816 21.0723 225.483C21.3488 225.146 21.5552 224.826 21.6916 224.523C21.8279 224.22 21.8961 223.898 21.8961 223.557C21.8961 223.17 21.8052 222.837 21.6234 222.557C21.4416 222.273 21.1935 222.055 20.8791 221.903C20.5647 221.748 20.2105 221.67 19.8166 221.67C19.3999 221.67 19.0363 221.756 18.7257 221.926C18.4151 222.097 18.1764 222.337 18.0098 222.648C17.8431 222.958 17.7598 223.322 17.7598 223.739H16.0836C16.0836 223.03 16.2465 222.411 16.5723 221.881C16.898 221.35 17.345 220.939 17.9132 220.648C18.4814 220.352 19.1272 220.205 19.8507 220.205C20.5817 220.205 21.2257 220.35 21.7825 220.642C22.3431 220.93 22.7806 221.324 23.095 221.824C23.4094 222.32 23.5666 222.881 23.5666 223.506C23.5666 223.938 23.4851 224.36 23.3223 224.773C23.1632 225.186 22.8848 225.646 22.487 226.153C22.0893 226.657 21.5363 227.269 20.8279 227.989L18.5154 230.409V230.494H23.7541V232H16.095ZM27.4373 232.108C27.1267 232.108 26.8597 231.998 26.6362 231.778C26.4127 231.555 26.301 231.286 26.301 230.972C26.301 230.661 26.4127 230.396 26.6362 230.176C26.8597 229.953 27.1267 229.841 27.4373 229.841C27.7479 229.841 28.015 229.953 28.2385 230.176C28.4619 230.396 28.5737 230.661 28.5737 230.972C28.5737 231.18 28.5207 231.371 28.4146 231.545C28.3123 231.716 28.176 231.852 28.0055 231.955C27.835 232.057 27.6457 232.108 27.4373 232.108ZM36.0154 221.04H50.0314V222.208H36.0154V221.04ZM40.9754 226.112H49.4074V227.232H40.9754V226.112ZM40.3514 231.776H50.0314V232.912H40.3514V231.776ZM44.5914 223.024H45.7914V232.384H44.5914V223.024ZM41.2794 218.56L42.5114 218.864C41.3914 222.528 39.4394 226.256 36.2554 228.544C36.1274 228.224 35.8234 227.712 35.6314 227.44C38.5114 225.408 40.3834 221.856 41.2794 218.56ZM38.1114 225.152H39.3114V233.232H38.1114V225.152ZM66.6442 226.182C66.6442 227.424 66.4169 228.492 65.9624 229.386C65.5078 230.277 64.8847 230.962 64.093 231.443C63.3052 231.92 62.4093 232.159 61.4055 232.159C60.398 232.159 59.4983 231.92 58.7067 231.443C57.9188 230.962 57.2976 230.275 56.843 229.381C56.3885 228.487 56.1612 227.42 56.1612 226.182C56.1612 224.939 56.3885 223.873 56.843 222.983C57.2976 222.089 57.9188 221.403 58.7067 220.926C59.4983 220.445 60.398 220.205 61.4055 220.205C62.4093 220.205 63.3052 220.445 64.093 220.926C64.8847 221.403 65.5078 222.089 65.9624 222.983C66.4169 223.873 66.6442 224.939 66.6442 226.182ZM64.9055 226.182C64.9055 225.235 64.7521 224.437 64.4453 223.79C64.1423 223.138 63.7256 222.646 63.1953 222.312C62.6688 221.975 62.0722 221.807 61.4055 221.807C60.7351 221.807 60.1366 221.975 59.6101 222.312C59.0836 222.646 58.6669 223.138 58.3601 223.79C58.0571 224.437 57.9055 225.235 57.9055 226.182C57.9055 227.129 58.0571 227.928 58.3601 228.58C58.6669 229.227 59.0836 229.72 59.6101 230.057C60.1366 230.39 60.7351 230.557 61.4055 230.557C62.0722 230.557 62.6688 230.39 63.1953 230.057C63.7256 229.72 64.1423 229.227 64.4453 228.58C64.7521 227.928 64.9055 227.129 64.9055 226.182ZM68.6967 235.273V223.273H70.3558V224.688H70.4979C70.5964 224.506 70.7384 224.295 70.924 224.057C71.1096 223.818 71.3672 223.61 71.6967 223.432C72.0263 223.25 72.4619 223.159 73.0036 223.159C73.7081 223.159 74.3369 223.337 74.8899 223.693C75.4429 224.049 75.8767 224.562 76.1911 225.233C76.5092 225.903 76.6683 226.71 76.6683 227.653C76.6683 228.597 76.5111 229.405 76.1967 230.08C75.8823 230.75 75.4505 231.267 74.9013 231.631C74.352 231.991 73.7251 232.17 73.0206 232.17C72.4903 232.17 72.0566 232.081 71.7195 231.903C71.3861 231.725 71.1248 231.517 70.9354 231.278C70.746 231.04 70.6001 230.828 70.4979 230.642H70.3956V235.273H68.6967ZM70.3615 227.636C70.3615 228.25 70.4505 228.788 70.6286 229.25C70.8066 229.712 71.0642 230.074 71.4013 230.335C71.7384 230.593 72.1513 230.722 72.6399 230.722C73.1475 230.722 73.5717 230.587 73.9126 230.318C74.2536 230.045 74.5111 229.676 74.6854 229.21C74.8634 228.744 74.9524 228.22 74.9524 227.636C74.9524 227.061 74.8653 226.544 74.6911 226.085C74.5206 225.627 74.263 225.265 73.9183 225C73.5774 224.735 73.1513 224.602 72.6399 224.602C72.1475 224.602 71.7308 224.729 71.3899 224.983C71.0528 225.237 70.7971 225.591 70.6229 226.045C70.4486 226.5 70.3615 227.03 70.3615 227.636ZM82.3331 232.176C81.4732 232.176 80.7327 231.992 80.1115 231.625C79.4941 231.254 79.0168 230.733 78.6797 230.062C78.3464 229.388 78.1797 228.598 78.1797 227.693C78.1797 226.799 78.3464 226.011 78.6797 225.33C79.0168 224.648 79.4865 224.116 80.0888 223.733C80.6948 223.35 81.4032 223.159 82.2138 223.159C82.7062 223.159 83.1835 223.241 83.6456 223.403C84.1077 223.566 84.5225 223.822 84.8899 224.17C85.2573 224.519 85.5471 224.972 85.7592 225.528C85.9714 226.081 86.0774 226.754 86.0774 227.545V228.148H79.1399V226.875H84.4126C84.4126 226.428 84.3217 226.032 84.1399 225.688C83.9581 225.339 83.7024 225.064 83.3729 224.864C83.0471 224.663 82.6645 224.562 82.2251 224.562C81.7479 224.562 81.3312 224.68 80.9751 224.915C80.6229 225.146 80.3501 225.449 80.157 225.824C79.9676 226.195 79.8729 226.598 79.8729 227.034V228.028C79.8729 228.612 79.9751 229.108 80.1797 229.517C80.388 229.926 80.6778 230.239 81.049 230.455C81.4202 230.667 81.8539 230.773 82.3501 230.773C82.6721 230.773 82.9657 230.727 83.2308 230.636C83.496 230.542 83.7251 230.402 83.9183 230.216C84.1115 230.03 84.2592 229.801 84.3615 229.528L85.9695 229.818C85.8407 230.292 85.6096 230.706 85.2763 231.062C84.9467 231.415 84.532 231.689 84.032 231.886C83.5357 232.08 82.9695 232.176 82.3331 232.176ZM89.6612 226.818V232H87.9624V223.273H89.593V224.693H89.701C89.9018 224.231 90.2161 223.86 90.6442 223.58C91.076 223.299 91.6196 223.159 92.2749 223.159C92.8696 223.159 93.3904 223.284 93.8374 223.534C94.2843 223.78 94.6309 224.148 94.8771 224.636C95.1233 225.125 95.2464 225.729 95.2464 226.449V232H93.5476V226.653C93.5476 226.021 93.3828 225.527 93.0533 225.17C92.7237 224.811 92.2711 224.631 91.6953 224.631C91.3014 224.631 90.951 224.716 90.6442 224.886C90.3411 225.057 90.1006 225.307 89.9226 225.636C89.7483 225.962 89.6612 226.356 89.6612 226.818ZM101.286 232.176C100.426 232.176 99.6858 231.992 99.0646 231.625C98.4472 231.254 97.9699 230.733 97.6328 230.062C97.2995 229.388 97.1328 228.598 97.1328 227.693C97.1328 226.799 97.2995 226.011 97.6328 225.33C97.9699 224.648 98.4396 224.116 99.0419 223.733C99.648 223.35 100.356 223.159 101.167 223.159C101.659 223.159 102.137 223.241 102.599 223.403C103.061 223.566 103.476 223.822 103.843 224.17C104.21 224.519 104.5 224.972 104.712 225.528C104.924 226.081 105.031 226.754 105.031 227.545V228.148H98.093V226.875H103.366C103.366 226.428 103.275 226.032 103.093 225.688C102.911 225.339 102.656 225.064 102.326 224.864C102 224.663 101.618 224.562 101.178 224.562C100.701 224.562 100.284 224.68 99.9283 224.915C99.576 225.146 99.3033 225.449 99.1101 225.824C98.9207 226.195 98.826 226.598 98.826 227.034V228.028C98.826 228.612 98.9283 229.108 99.1328 229.517C99.3411 229.926 99.6309 230.239 100.002 230.455C100.373 230.667 100.807 230.773 101.303 230.773C101.625 230.773 101.919 230.727 102.184 230.636C102.449 230.542 102.678 230.402 102.871 230.216C103.065 230.03 103.212 229.801 103.315 229.528L104.923 229.818C104.794 230.292 104.563 230.706 104.229 231.062C103.9 231.415 103.485 231.689 102.985 231.886C102.489 232.08 101.923 232.176 101.286 232.176ZM110.183 232.17C109.478 232.17 108.849 231.991 108.296 231.631C107.747 231.267 107.315 230.75 107.001 230.08C106.69 229.405 106.535 228.597 106.535 227.653C106.535 226.71 106.692 225.903 107.006 225.233C107.325 224.562 107.76 224.049 108.313 223.693C108.866 223.337 109.493 223.159 110.194 223.159C110.736 223.159 111.171 223.25 111.501 223.432C111.834 223.61 112.092 223.818 112.273 224.057C112.459 224.295 112.603 224.506 112.705 224.688H112.808V220.364H114.506V232H112.847V230.642H112.705C112.603 230.828 112.455 231.04 112.262 231.278C112.073 231.517 111.811 231.725 111.478 231.903C111.145 232.081 110.713 232.17 110.183 232.17ZM110.558 230.722C111.046 230.722 111.459 230.593 111.796 230.335C112.137 230.074 112.395 229.712 112.569 229.25C112.747 228.788 112.836 228.25 112.836 227.636C112.836 227.03 112.749 226.5 112.575 226.045C112.4 225.591 112.145 225.237 111.808 224.983C111.47 224.729 111.054 224.602 110.558 224.602C110.046 224.602 109.62 224.735 109.279 225C108.938 225.265 108.681 225.627 108.506 226.085C108.336 226.544 108.251 227.061 108.251 227.636C108.251 228.22 108.338 228.744 108.512 229.21C108.686 229.676 108.944 230.045 109.285 230.318C109.629 230.587 110.054 230.722 110.558 230.722ZM122.46 228.381V223.273H124.164V232H122.494V230.489H122.403C122.202 230.955 121.88 231.343 121.437 231.653C120.997 231.96 120.45 232.114 119.795 232.114C119.234 232.114 118.738 231.991 118.306 231.744C117.878 231.494 117.541 231.125 117.295 230.636C117.052 230.148 116.931 229.544 116.931 228.824V223.273H118.63V228.619C118.63 229.214 118.795 229.687 119.124 230.04C119.454 230.392 119.882 230.568 120.408 230.568C120.727 230.568 121.043 230.489 121.357 230.33C121.675 230.17 121.939 229.93 122.147 229.608C122.359 229.286 122.463 228.877 122.46 228.381ZM135.299 220.512L136.403 220.56C136.163 225.472 135.603 229.248 133.603 231.776C133.427 231.6 132.931 231.232 132.659 231.072C134.643 228.8 135.139 225.088 135.299 220.512ZM139.539 220.512L140.659 220.56C140.467 225.552 139.939 229.312 137.843 231.824C137.683 231.632 137.187 231.248 136.915 231.088C138.963 228.848 139.411 225.168 139.539 220.512ZM132.707 223.824L133.379 223.12C135.011 224.608 136.787 226.672 137.619 228.032L136.899 228.88C136.067 227.472 134.291 225.344 132.707 223.824ZM137.075 223.648L137.763 222.944C139.475 224.512 141.363 226.672 142.243 228.112L141.523 228.976C140.643 227.504 138.739 225.248 137.075 223.648ZM130.947 219.52H143.667V220.672H132.099V233.248H130.947V219.52ZM143.027 219.52H144.211V231.744C144.211 232.464 144.019 232.832 143.539 233.04C143.059 233.216 142.259 233.248 140.899 233.248C140.835 232.928 140.659 232.4 140.483 232.08C141.459 232.128 142.387 232.112 142.659 232.096C142.931 232.096 143.027 232 143.027 231.744V219.52ZM146.451 221.744H152.627V222.88H146.451V221.744ZM148.995 218.768H150.131V222.32H148.995V218.768ZM156.307 221.888H160.899V223.024H156.307V221.888ZM153.555 231.376H159.603V232.512H153.555V231.376ZM155.699 218.56H156.915V226.72H155.699V218.56ZM152.995 226.224H160.211V233.2H158.995V227.344H154.163V233.264H152.995V226.224ZM146.147 230.272C147.795 229.952 150.323 229.408 152.739 228.848L152.867 229.952C150.595 230.496 148.163 231.072 146.403 231.472L146.147 230.272ZM147.059 223.712L148.035 223.536C148.451 225.312 148.723 227.584 148.755 229.136L147.699 229.312C147.715 227.808 147.427 225.488 147.059 223.712ZM150.787 223.36L151.971 223.584C151.683 225.584 151.251 228.16 150.867 229.728L149.875 229.504C150.243 227.92 150.627 225.232 150.787 223.36ZM169.059 223.744H175.635V224.944H169.059V223.744ZM162.355 231.328H176.723V232.528H162.355V231.328ZM168.371 218.8H169.635V231.968H168.371V218.8ZM182.659 220.336H192.931V221.456H182.659V220.336ZM184.243 224.032V226.432H191.235V224.032H184.243ZM183.139 223.008H192.403V227.456H183.139V223.008ZM184.131 227.776C185.635 230.288 188.915 231.776 193.075 232.24C192.819 232.496 192.515 232.976 192.355 233.312C188.115 232.704 184.835 231.04 183.139 228.112L184.131 227.776ZM187.107 218.624H188.291V225.712C188.291 228.8 187.763 231.872 182.803 233.344C182.659 233.072 182.323 232.592 182.083 232.336C186.835 231.136 187.107 228.4 187.107 225.696V218.624ZM181.971 218.528L183.107 218.88C182.019 221.584 180.307 224.272 178.531 226.048C178.419 225.776 178.083 225.152 177.859 224.864C179.475 223.344 181.043 220.96 181.971 218.528ZM180.291 222.72L181.427 221.584L181.443 221.6V233.36H180.291V222.72ZM196.659 219.696H207.011V220.848H196.659V219.696ZM196.659 223.424H206.995V224.56H196.659V223.424ZM196.579 227.248H207.027V228.384H196.579V227.248ZM195.987 219.696H197.171V225.504C197.171 227.936 196.883 231.248 194.979 233.376C194.787 233.136 194.307 232.736 194.051 232.576C195.811 230.592 195.987 227.744 195.987 225.488V219.696ZM206.531 219.696H207.715V231.648C207.715 232.432 207.523 232.8 206.995 233.008C206.451 233.2 205.523 233.216 204.003 233.2C203.955 232.88 203.763 232.352 203.587 232.032C204.723 232.08 205.811 232.064 206.115 232.064C206.419 232.048 206.531 231.952 206.531 231.648V219.696ZM201.011 220.128H202.227V233.136H201.011V220.128ZM216.211 224.368L217.619 224.72C216.611 227.136 215.219 230.128 214.035 232.064L212.931 231.712C214.067 229.744 215.459 226.624 216.211 224.368ZM210.963 231.344C213.891 231.248 218.547 231.056 222.835 230.848L222.803 232C218.611 232.24 214.131 232.48 211.123 232.608L210.963 231.344ZM219.283 227.872L220.435 227.344C221.891 229.024 223.539 231.248 224.339 232.704L223.123 233.36C222.371 231.904 220.707 229.568 219.283 227.872ZM214.595 219.04L215.923 219.408C214.851 221.984 213.171 224.432 211.475 226.016C211.219 225.776 210.659 225.344 210.323 225.152C212.083 223.712 213.667 221.408 214.595 219.04ZM220.323 219.024C221.379 221.12 223.395 223.648 224.867 224.976C224.547 225.232 224.099 225.696 223.859 226C222.371 224.48 220.371 221.76 219.139 219.52L220.323 219.024ZM226.947 219.6H239.011V220.752H226.947V219.6ZM227.043 222.432H236.691V223.504H227.043V222.432ZM238.531 219.6H239.731V231.488C239.731 232.32 239.571 232.736 239.011 232.96C238.451 233.168 237.443 233.184 236.019 233.184C235.955 232.816 235.779 232.224 235.587 231.872C236.707 231.904 237.795 231.904 238.131 231.888C238.435 231.872 238.531 231.792 238.531 231.488V219.6ZM228.067 225.232H229.235V231.536H228.067V225.232ZM229.027 225.232H235.587V230.352H229.027V229.296H234.403V226.304H229.027V225.232ZM244.163 224.352H254.755V225.472H244.163V224.352ZM248.755 218.592H250.019V230.672C250.019 231.616 250.211 231.792 251.155 231.792C251.635 231.792 253.987 231.792 254.563 231.792C255.443 231.792 255.603 231.264 255.731 229.2C256.035 229.424 256.547 229.632 256.931 229.728C256.723 232.16 256.323 233.008 254.627 233.008C254.195 233.008 251.491 233.008 251.075 233.008C249.283 233.008 248.755 232.528 248.755 230.656V218.592ZM244.259 220.896H255.363V228.96H244.259V227.792H254.147V222.064H244.259V220.896ZM243.539 220.896H244.787V229.936H243.539V220.896ZM258.291 225.712H272.819V226.912H258.291V225.712ZM264.947 223.136H266.195V231.744C266.195 232.544 265.971 232.912 265.363 233.104C264.771 233.296 263.731 233.328 262.195 233.328C262.099 232.976 261.875 232.432 261.667 232.08C262.963 232.128 264.147 232.128 264.499 232.112C264.835 232.096 264.947 232.016 264.947 231.728V223.136ZM259.939 219.68H270.387V220.864H259.939V219.68ZM269.971 219.68H270.291L270.563 219.616L271.475 220.288C270.019 221.76 267.747 223.344 265.875 224.304C265.699 224.032 265.331 223.648 265.091 223.44C266.835 222.608 268.963 221.088 269.971 219.952V219.68ZM274.883 221.024H282.003V232.048H280.899V222.08H275.939V232.272H274.883V221.024ZM275.379 225.456H281.283V226.496H275.379V225.456ZM275.411 230.16H281.235V231.2H275.411V230.16ZM277.859 218.592H279.027V221.6H278.979V230.896H277.907V221.6H277.859V218.592ZM283.555 219.424H287.747V220.56H284.611V233.264H283.555V219.424ZM287.475 219.424H287.699L287.891 219.376L288.707 219.904C288.131 221.376 287.379 223.2 286.691 224.688C288.163 226.208 288.515 227.472 288.515 228.576C288.515 229.52 288.307 230.288 287.763 230.656C287.507 230.832 287.139 230.928 286.755 230.976C286.355 231.024 285.827 231.024 285.347 230.992C285.315 230.688 285.203 230.192 285.011 229.856C285.491 229.904 285.955 229.904 286.291 229.904C286.531 229.872 286.771 229.84 286.963 229.728C287.299 229.536 287.395 229.024 287.395 228.464C287.395 227.472 286.963 226.288 285.507 224.848C286.259 223.184 287.043 221.04 287.475 219.792V219.424ZM299.203 218.768H300.403V233.28H299.203V218.768ZM296.435 219.376L297.587 219.6C297.155 221.84 296.419 224.032 295.507 225.456C295.267 225.28 294.771 224.992 294.467 224.864C295.395 223.52 296.067 221.456 296.435 219.376ZM296.595 221.84H304.067V223.024H296.291L296.595 221.84ZM294.595 226.544H304.771V227.728H294.595V226.544ZM293.811 218.624L294.947 218.976C293.939 221.68 292.387 224.384 290.723 226.192C290.611 225.92 290.259 225.296 290.035 225.008C291.539 223.456 292.963 221.056 293.811 218.624ZM292.195 222.752L293.331 221.616L293.347 221.632V233.264H292.195V222.752ZM42.4634 238.424L43.2474 237.528C44.5594 238.2 46.1914 239.256 46.9754 240.04L46.1274 241.048C45.3914 240.248 43.7914 239.128 42.4634 238.424ZM41.0074 245.608H49.4714V246.76H41.0074V245.608ZM39.8714 250.648H50.3994V251.8H39.8714V250.648ZM40.4154 241.016H50.0634V242.168H40.4154V241.016ZM44.5274 241.432H45.7594V251.176H44.5274V241.432ZM36.5594 238.568L37.2154 237.688C38.2714 238.088 39.6154 238.808 40.2714 239.368L39.5674 240.376C38.9274 239.784 37.6314 239.032 36.5594 238.568ZM35.6314 242.936L36.2554 242.024C37.3274 242.376 38.7034 243 39.3914 243.512L38.7514 244.536C38.0794 244.008 36.7194 243.336 35.6314 242.936ZM36.2234 251.256C37.0874 250.04 38.3514 247.928 39.2794 246.104L40.1434 246.888C39.2954 248.584 38.1754 250.584 37.2314 252.072L36.2234 251.256ZM54.0954 238.616H57.5194V239.736H54.0954V238.616ZM51.6794 243.928H66.3514V245.08H51.6794V243.928ZM53.4714 238.616H54.6234V243.56C54.6234 246.168 54.3514 249.912 52.5434 252.376C52.3674 252.136 51.9034 251.688 51.6634 251.544C53.3114 249.224 53.4714 245.976 53.4714 243.56V238.616ZM56.8954 238.616H58.0474V250.776C58.0474 251.416 57.9034 251.768 57.4554 251.96C57.0394 252.152 56.3194 252.168 55.1994 252.168C55.1514 251.864 54.9754 251.368 54.8154 251.08C55.6154 251.096 56.3514 251.096 56.5754 251.08C56.7994 251.08 56.8954 251 56.8954 250.776V238.616ZM60.3834 238.616H63.9194V239.736H60.3834V238.616ZM59.7274 238.616H60.8794V243.576C60.8794 246.152 60.6554 249.864 59.0074 252.328C58.8314 252.088 58.3354 251.656 58.0954 251.496C59.5834 249.208 59.7274 245.976 59.7274 243.576V238.616ZM63.4394 238.616H64.6234V250.824C64.6234 251.512 64.4634 251.864 64.0314 252.056C63.5834 252.264 62.8474 252.28 61.6954 252.28C61.6314 251.976 61.4554 251.448 61.2954 251.144C62.1274 251.176 62.8954 251.176 63.1194 251.16C63.3594 251.144 63.4394 251.064 63.4394 250.824V238.616ZM75.0234 242.312C74.3674 242.312 73.8074 241.832 73.8074 241.112C73.8074 240.376 74.3674 239.896 75.0234 239.896C75.6634 239.896 76.2234 240.376 76.2234 241.112C76.2234 241.832 75.6634 242.312 75.0234 242.312ZM75.0234 250.136C74.3674 250.136 73.8074 249.672 73.8074 248.936C73.8074 248.2 74.3674 247.736 75.0234 247.736C75.6634 247.736 76.2234 248.2 76.2234 248.936C76.2234 249.672 75.6634 250.136 75.0234 250.136Z" fill="#2D3342"/>
<path d="M90.6442 245.955V251H88.2237V239.364H90.576V243.812H90.6783C90.8752 243.297 91.1934 242.894 91.6328 242.602C92.0722 242.307 92.6233 242.159 93.2862 242.159C93.8923 242.159 94.4207 242.292 94.8714 242.557C95.326 242.818 95.6783 243.195 95.9283 243.688C96.1821 244.176 96.3071 244.761 96.3033 245.443V251H93.8828V245.875C93.8866 245.337 93.7502 244.919 93.4737 244.619C93.201 244.32 92.8184 244.17 92.326 244.17C91.9964 244.17 91.7048 244.241 91.451 244.381C91.201 244.521 91.004 244.725 90.8601 244.994C90.7199 245.259 90.648 245.58 90.6442 245.955ZM102.85 242.273V244.091H97.5945V242.273H102.85ZM98.7876 240.182H101.208V248.318C101.208 248.542 101.242 248.716 101.31 248.841C101.379 248.962 101.473 249.047 101.594 249.097C101.719 249.146 101.863 249.17 102.026 249.17C102.14 249.17 102.254 249.161 102.367 249.142C102.481 249.119 102.568 249.102 102.629 249.091L103.009 250.892C102.888 250.93 102.718 250.973 102.498 251.023C102.278 251.076 102.011 251.108 101.697 251.119C101.113 251.142 100.602 251.064 100.163 250.886C99.727 250.708 99.388 250.432 99.1456 250.057C98.9032 249.682 98.7839 249.208 98.7876 248.636V240.182ZM109.069 242.273V244.091H103.813V242.273H109.069ZM105.006 240.182H107.427V248.318C107.427 248.542 107.461 248.716 107.529 248.841C107.597 248.962 107.692 249.047 107.813 249.097C107.938 249.146 108.082 249.17 108.245 249.17C108.359 249.17 108.472 249.161 108.586 249.142C108.7 249.119 108.787 249.102 108.847 249.091L109.228 250.892C109.107 250.93 108.936 250.973 108.717 251.023C108.497 251.076 108.23 251.108 107.915 251.119C107.332 251.142 106.821 251.064 106.381 250.886C105.946 250.708 105.607 250.432 105.364 250.057C105.122 249.682 105.003 249.208 105.006 248.636V240.182ZM110.646 254.273V242.273H113.032V243.739H113.14C113.246 243.504 113.399 243.265 113.6 243.023C113.805 242.777 114.07 242.572 114.396 242.409C114.725 242.242 115.134 242.159 115.623 242.159C116.259 242.159 116.846 242.326 117.384 242.659C117.922 242.989 118.352 243.487 118.674 244.153C118.996 244.816 119.157 245.648 119.157 246.648C119.157 247.621 119 248.443 118.685 249.114C118.375 249.78 117.951 250.286 117.413 250.631C116.879 250.972 116.28 251.142 115.617 251.142C115.147 251.142 114.748 251.064 114.418 250.909C114.093 250.754 113.826 250.559 113.617 250.324C113.409 250.085 113.25 249.845 113.14 249.602H113.066V254.273H110.646ZM113.015 246.636C113.015 247.155 113.087 247.608 113.231 247.994C113.375 248.381 113.583 248.682 113.856 248.898C114.129 249.11 114.46 249.216 114.85 249.216C115.244 249.216 115.577 249.108 115.85 248.892C116.123 248.672 116.329 248.369 116.469 247.983C116.613 247.593 116.685 247.144 116.685 246.636C116.685 246.133 116.615 245.689 116.475 245.307C116.335 244.924 116.129 244.625 115.856 244.409C115.583 244.193 115.248 244.085 114.85 244.085C114.456 244.085 114.123 244.189 113.85 244.398C113.581 244.606 113.375 244.902 113.231 245.284C113.087 245.667 113.015 246.117 113.015 246.636ZM128.032 244.761L125.816 244.898C125.778 244.708 125.697 244.538 125.572 244.386C125.447 244.231 125.282 244.108 125.077 244.017C124.877 243.922 124.636 243.875 124.356 243.875C123.981 243.875 123.665 243.955 123.407 244.114C123.149 244.269 123.021 244.477 123.021 244.739C123.021 244.947 123.104 245.123 123.271 245.267C123.437 245.411 123.723 245.527 124.129 245.614L125.708 245.932C126.557 246.106 127.189 246.386 127.606 246.773C128.022 247.159 128.231 247.667 128.231 248.295C128.231 248.867 128.062 249.369 127.725 249.801C127.392 250.233 126.933 250.57 126.35 250.812C125.771 251.051 125.102 251.17 124.344 251.17C123.189 251.17 122.269 250.93 121.583 250.449C120.901 249.964 120.502 249.305 120.384 248.472L122.765 248.347C122.837 248.699 123.011 248.968 123.288 249.153C123.564 249.335 123.918 249.426 124.35 249.426C124.774 249.426 125.115 249.345 125.373 249.182C125.634 249.015 125.767 248.801 125.771 248.54C125.767 248.32 125.674 248.14 125.492 248C125.31 247.856 125.03 247.746 124.651 247.67L123.14 247.369C122.288 247.199 121.653 246.903 121.237 246.483C120.824 246.062 120.617 245.527 120.617 244.875C120.617 244.314 120.769 243.831 121.072 243.426C121.379 243.021 121.808 242.708 122.362 242.489C122.918 242.269 123.57 242.159 124.316 242.159C125.418 242.159 126.286 242.392 126.918 242.858C127.555 243.324 127.926 243.958 128.032 244.761ZM131.17 251.148C130.795 251.148 130.473 251.015 130.204 250.75C129.939 250.481 129.806 250.159 129.806 249.784C129.806 249.413 129.939 249.095 130.204 248.83C130.473 248.564 130.795 248.432 131.17 248.432C131.533 248.432 131.852 248.564 132.124 248.83C132.397 249.095 132.533 249.413 132.533 249.784C132.533 250.034 132.469 250.263 132.34 250.472C132.215 250.676 132.05 250.841 131.846 250.966C131.641 251.087 131.416 251.148 131.17 251.148ZM131.17 245.034C130.795 245.034 130.473 244.902 130.204 244.636C129.939 244.371 129.806 244.049 129.806 243.67C129.806 243.299 129.939 242.983 130.204 242.722C130.473 242.456 130.795 242.324 131.17 242.324C131.533 242.324 131.852 242.456 132.124 242.722C132.397 242.983 132.533 243.299 132.533 243.67C132.533 243.924 132.469 244.155 132.34 244.364C132.215 244.568 132.05 244.731 131.846 244.852C131.641 244.973 131.416 245.034 131.17 245.034ZM139.589 238.818L135.839 252.75H133.754L137.504 238.818H139.589ZM145.823 238.818L142.073 252.75H139.988L143.738 238.818H145.823ZM150.933 251.17C150.05 251.17 149.287 250.983 148.643 250.608C148.003 250.229 147.508 249.703 147.16 249.028C146.811 248.35 146.637 247.564 146.637 246.67C146.637 245.769 146.811 244.981 147.16 244.307C147.508 243.629 148.003 243.102 148.643 242.727C149.287 242.348 150.05 242.159 150.933 242.159C151.815 242.159 152.576 242.348 153.217 242.727C153.861 243.102 154.357 243.629 154.705 244.307C155.054 244.981 155.228 245.769 155.228 246.67C155.228 247.564 155.054 248.35 154.705 249.028C154.357 249.703 153.861 250.229 153.217 250.608C152.576 250.983 151.815 251.17 150.933 251.17ZM150.944 249.295C151.345 249.295 151.681 249.182 151.95 248.955C152.219 248.723 152.421 248.409 152.558 248.011C152.698 247.614 152.768 247.161 152.768 246.653C152.768 246.146 152.698 245.693 152.558 245.295C152.421 244.898 152.219 244.583 151.95 244.352C151.681 244.121 151.345 244.006 150.944 244.006C150.539 244.006 150.198 244.121 149.921 244.352C149.648 244.583 149.442 244.898 149.302 245.295C149.165 245.693 149.097 246.146 149.097 246.653C149.097 247.161 149.165 247.614 149.302 248.011C149.442 248.409 149.648 248.723 149.921 248.955C150.198 249.182 150.539 249.295 150.944 249.295ZM156.802 254.273V242.273H159.188V243.739H159.296C159.402 243.504 159.556 243.265 159.756 243.023C159.961 242.777 160.226 242.572 160.552 242.409C160.881 242.242 161.29 242.159 161.779 242.159C162.415 242.159 163.003 242.326 163.54 242.659C164.078 242.989 164.508 243.487 164.83 244.153C165.152 244.816 165.313 245.648 165.313 246.648C165.313 247.621 165.156 248.443 164.842 249.114C164.531 249.78 164.107 250.286 163.569 250.631C163.035 250.972 162.436 251.142 161.773 251.142C161.304 251.142 160.904 251.064 160.575 250.909C160.249 250.754 159.982 250.559 159.773 250.324C159.565 250.085 159.406 249.845 159.296 249.602H159.222V254.273H156.802ZM159.171 246.636C159.171 247.155 159.243 247.608 159.387 247.994C159.531 248.381 159.739 248.682 160.012 248.898C160.285 249.11 160.616 249.216 161.006 249.216C161.4 249.216 161.734 249.108 162.006 248.892C162.279 248.672 162.486 248.369 162.626 247.983C162.77 247.593 162.842 247.144 162.842 246.636C162.842 246.133 162.772 245.689 162.631 245.307C162.491 244.924 162.285 244.625 162.012 244.409C161.739 244.193 161.404 244.085 161.006 244.085C160.612 244.085 160.279 244.189 160.006 244.398C159.737 244.606 159.531 244.902 159.387 245.284C159.243 245.667 159.171 246.117 159.171 246.636ZM170.904 251.17C170.006 251.17 169.234 250.989 168.586 250.625C167.942 250.258 167.446 249.739 167.097 249.068C166.749 248.394 166.575 247.597 166.575 246.676C166.575 245.778 166.749 244.991 167.097 244.312C167.446 243.634 167.936 243.106 168.569 242.727C169.205 242.348 169.951 242.159 170.808 242.159C171.383 242.159 171.919 242.252 172.415 242.438C172.915 242.619 173.351 242.894 173.722 243.261C174.097 243.629 174.389 244.091 174.597 244.648C174.806 245.201 174.91 245.848 174.91 246.591V247.256H167.54V245.756H172.631C172.631 245.407 172.556 245.098 172.404 244.83C172.253 244.561 172.042 244.35 171.773 244.199C171.508 244.044 171.2 243.966 170.847 243.966C170.48 243.966 170.154 244.051 169.87 244.222C169.59 244.388 169.37 244.614 169.211 244.898C169.052 245.178 168.97 245.491 168.967 245.835V247.261C168.967 247.693 169.046 248.066 169.205 248.381C169.368 248.695 169.597 248.938 169.893 249.108C170.188 249.278 170.539 249.364 170.944 249.364C171.213 249.364 171.459 249.326 171.683 249.25C171.906 249.174 172.097 249.061 172.256 248.909C172.415 248.758 172.537 248.572 172.62 248.352L174.859 248.5C174.745 249.038 174.512 249.508 174.16 249.909C173.811 250.307 173.361 250.617 172.808 250.841C172.258 251.061 171.624 251.17 170.904 251.17ZM178.91 245.955V251H176.489V242.273H178.796V243.812H178.898C179.092 243.305 179.415 242.903 179.87 242.608C180.325 242.309 180.876 242.159 181.523 242.159C182.129 242.159 182.658 242.292 183.109 242.557C183.559 242.822 183.91 243.201 184.16 243.693C184.41 244.182 184.535 244.765 184.535 245.443V251H182.114V245.875C182.118 245.341 181.982 244.924 181.705 244.625C181.429 244.322 181.048 244.17 180.563 244.17C180.237 244.17 179.95 244.241 179.7 244.381C179.453 244.521 179.26 244.725 179.12 244.994C178.984 245.259 178.914 245.58 178.91 245.955ZM190.42 251.17C189.522 251.17 188.749 250.989 188.102 250.625C187.458 250.258 186.961 249.739 186.613 249.068C186.264 248.394 186.09 247.597 186.09 246.676C186.09 245.778 186.264 244.991 186.613 244.312C186.961 243.634 187.452 243.106 188.085 242.727C188.721 242.348 189.467 242.159 190.323 242.159C190.899 242.159 191.435 242.252 191.931 242.438C192.431 242.619 192.867 242.894 193.238 243.261C193.613 243.629 193.905 244.091 194.113 244.648C194.321 245.201 194.425 245.848 194.425 246.591V247.256H187.056V245.756H192.147C192.147 245.407 192.071 245.098 191.92 244.83C191.768 244.561 191.558 244.35 191.289 244.199C191.024 244.044 190.715 243.966 190.363 243.966C189.996 243.966 189.67 244.051 189.386 244.222C189.105 244.388 188.886 244.614 188.727 244.898C188.567 245.178 188.486 245.491 188.482 245.835V247.261C188.482 247.693 188.562 248.066 188.721 248.381C188.884 248.695 189.113 248.938 189.408 249.108C189.704 249.278 190.054 249.364 190.46 249.364C190.728 249.364 190.975 249.326 191.198 249.25C191.422 249.174 191.613 249.061 191.772 248.909C191.931 248.758 192.052 248.572 192.136 248.352L194.374 248.5C194.261 249.038 194.028 249.508 193.675 249.909C193.327 250.307 192.876 250.617 192.323 250.841C191.774 251.061 191.139 251.17 190.42 251.17ZM199.221 251.142C198.558 251.142 197.958 250.972 197.42 250.631C196.886 250.286 196.461 249.78 196.147 249.114C195.836 248.443 195.681 247.621 195.681 246.648C195.681 245.648 195.842 244.816 196.164 244.153C196.486 243.487 196.914 242.989 197.448 242.659C197.986 242.326 198.575 242.159 199.215 242.159C199.704 242.159 200.111 242.242 200.437 242.409C200.766 242.572 201.031 242.777 201.232 243.023C201.437 243.265 201.592 243.504 201.698 243.739H201.772V239.364H204.187V251H201.8V249.602H201.698C201.585 249.845 201.424 250.085 201.215 250.324C201.011 250.559 200.744 250.754 200.414 250.909C200.088 251.064 199.691 251.142 199.221 251.142ZM199.988 249.216C200.378 249.216 200.708 249.11 200.977 248.898C201.249 248.682 201.458 248.381 201.602 247.994C201.749 247.608 201.823 247.155 201.823 246.636C201.823 246.117 201.751 245.667 201.607 245.284C201.463 244.902 201.255 244.606 200.982 244.398C200.71 244.189 200.378 244.085 199.988 244.085C199.59 244.085 199.255 244.193 198.982 244.409C198.71 244.625 198.503 244.924 198.363 245.307C198.223 245.689 198.153 246.133 198.153 246.636C198.153 247.144 198.223 247.593 198.363 247.983C198.507 248.369 198.713 248.672 198.982 248.892C199.255 249.108 199.59 249.216 199.988 249.216ZM211.773 247.284V242.273H214.194V251H211.87V249.415H211.779C211.582 249.926 211.254 250.337 210.796 250.648C210.342 250.958 209.787 251.114 209.131 251.114C208.548 251.114 208.035 250.981 207.592 250.716C207.148 250.451 206.802 250.074 206.552 249.585C206.306 249.097 206.181 248.511 206.177 247.83V242.273H208.597V247.398C208.601 247.913 208.739 248.32 209.012 248.619C209.285 248.919 209.65 249.068 210.109 249.068C210.4 249.068 210.673 249.002 210.927 248.869C211.181 248.733 211.385 248.532 211.54 248.267C211.7 248.002 211.777 247.674 211.773 247.284ZM217.545 251.148C217.17 251.148 216.848 251.015 216.579 250.75C216.314 250.481 216.181 250.159 216.181 249.784C216.181 249.413 216.314 249.095 216.579 248.83C216.848 248.564 217.17 248.432 217.545 248.432C217.908 248.432 218.227 248.564 218.499 248.83C218.772 249.095 218.908 249.413 218.908 249.784C218.908 250.034 218.844 250.263 218.715 250.472C218.59 250.676 218.425 250.841 218.221 250.966C218.016 251.087 217.791 251.148 217.545 251.148ZM220.896 251V242.273H223.242V243.795H223.333C223.492 243.254 223.759 242.845 224.134 242.568C224.509 242.288 224.941 242.148 225.43 242.148C225.551 242.148 225.682 242.155 225.822 242.17C225.962 242.186 226.085 242.206 226.191 242.233V244.381C226.077 244.347 225.92 244.316 225.719 244.29C225.519 244.263 225.335 244.25 225.168 244.25C224.812 244.25 224.494 244.328 224.214 244.483C223.937 244.634 223.718 244.847 223.555 245.119C223.396 245.392 223.316 245.706 223.316 246.062V251H220.896ZM233.039 247.284V242.273H235.46V251H233.136V249.415H233.045C232.848 249.926 232.52 250.337 232.062 250.648C231.607 250.958 231.052 251.114 230.397 251.114C229.814 251.114 229.3 250.981 228.857 250.716C228.414 250.451 228.067 250.074 227.817 249.585C227.571 249.097 227.446 248.511 227.442 247.83V242.273H229.863V247.398C229.867 247.913 230.005 248.32 230.278 248.619C230.55 248.919 230.916 249.068 231.374 249.068C231.666 249.068 231.939 249.002 232.192 248.869C232.446 248.733 232.651 248.532 232.806 248.267C232.965 248.002 233.043 247.674 233.039 247.284ZM242.464 238.818L238.714 252.75H236.629L240.379 238.818H242.464Z" fill="#6663CF"/>
<path d="M87.2578 254.182H242.668V255.273H87.2578V254.182Z" fill="#6663CF"/>
<a href="https://openedu.ru/">
<rect fill="black" fill-opacity="0" x="76.2344" y="18.8182" width="155.411" height="19.3636"/>
</a>
<path d="M22.0942 235.73C21.6307 235.662 10.408 234.195 10.8754 223.962C10.9184 223.022 11.038 222.167 11.224 221.391M22.0942 235.73C15.943 235.331 12.8173 232.969 11.4184 230.139M22.0942 235.73C22.8385 235.838 23.606 235.829 24.3653 235.711M11.224 221.391C11.4568 220.421 11.7935 219.575 12.2138 218.846M11.224 221.391C10.3859 223.667 9.94729 227.162 11.4184 230.139M12.2138 218.846C15.6593 212.863 24.7206 214.65 28.1711 218.846C29.525 220.493 32.3626 224.671 30.9798 229.894C30.1129 233.168 27.3007 235.256 24.3653 235.711M12.2138 218.846C10.9027 220.651 9.00046 224.879 10.6267 228.713M11.4184 230.139C11.0929 229.673 10.8318 229.196 10.6267 228.713M24.3653 235.711C20.4837 236.373 12.3018 235.9 10.6267 228.713" stroke="#6663CF" stroke-linecap="round"/>
<defs>
<linearGradient id="paint0_linear_1398_7488" x1="143.515" y1="25" x2="192.673" y2="64.831" gradientUnits="userSpaceOnUse">
<stop stop-color="#5955B3"/>
<stop offset="1" stop-color="#6563CE"/>
</linearGradient>
</defs>
</svg>
