<svg width="325" height="290" viewBox="0 0 325 290" fill="none" xmlns="http://www.w3.org/2000/svg">
<rect width="325" height="290" rx="5" fill="white"/>
<path opacity="0.2" fill-rule="evenodd" clip-rule="evenodd" d="M324.665 269.81C324.613 280.783 315.724 289.668 304.75 289.713H171.145C177.237 275.753 202.684 247.832 255.738 247.832C308.791 247.832 323.794 226.116 324.665 215.258V269.81Z" fill="#89AFFF"/>
<path opacity="0.2" fill-rule="evenodd" clip-rule="evenodd" d="M149.338 0C147.452 10.5057 135.894 40.0486 88.2781 53.4492C42.0803 66.4509 11.6464 61.9796 0.329107 57.7773L0.329104 20C0.329102 8.95432 9.28337 1.09491e-05 20.3291 1.00855e-05L149.338 0Z" fill="#89AFFF"/>
<path d="M43.2983 41.5455H46.9886V52.8807C46.9886 54.1534 46.6847 55.267 46.0767 56.2216C45.4744 57.1761 44.6307 57.9205 43.5455 58.4545C42.4602 58.983 41.196 59.2472 39.7528 59.2472C38.304 59.2472 37.0369 58.983 35.9517 58.4545C34.8665 57.9205 34.0227 57.1761 33.4205 56.2216C32.8182 55.267 32.517 54.1534 32.517 52.8807V41.5455H36.2074V52.5653C36.2074 53.2301 36.3523 53.821 36.642 54.3381C36.9375 54.8551 37.3523 55.2614 37.8864 55.5568C38.4205 55.8523 39.0426 56 39.7528 56C40.4688 56 41.0909 55.8523 41.6193 55.5568C42.1534 55.2614 42.5653 54.8551 42.8551 54.3381C43.1506 53.821 43.2983 53.2301 43.2983 52.5653V41.5455ZM53.5874 41.5455V59H49.9567V41.5455H53.5874ZM62.4616 59.2557C61.1151 59.2557 59.956 58.983 58.9844 58.4375C58.0185 57.8864 57.2741 57.108 56.7514 56.1023C56.2287 55.0909 55.9673 53.8949 55.9673 52.5142C55.9673 51.1676 56.2287 49.9858 56.7514 48.9688C57.2741 47.9517 58.0099 47.1591 58.9588 46.5909C59.9134 46.0227 61.0327 45.7386 62.3168 45.7386C63.1804 45.7386 63.9844 45.8778 64.7287 46.1562C65.4787 46.429 66.1321 46.8409 66.6889 47.392C67.2514 47.9432 67.6889 48.6364 68.0014 49.4716C68.3139 50.3011 68.4702 51.2727 68.4702 52.3864V53.3835H57.4162V51.1335H65.0526C65.0526 50.6108 64.9389 50.1477 64.7116 49.7443C64.4844 49.3409 64.169 49.0256 63.7656 48.7983C63.3679 48.5653 62.9048 48.4489 62.3764 48.4489C61.8253 48.4489 61.3366 48.5767 60.9105 48.8324C60.4901 49.0824 60.1605 49.4205 59.9219 49.8466C59.6832 50.267 59.5611 50.7358 59.5554 51.2528V53.392C59.5554 54.0398 59.6747 54.5994 59.9134 55.071C60.1577 55.5426 60.5014 55.9062 60.9446 56.1619C61.3878 56.4176 61.9134 56.5455 62.5213 56.5455C62.9247 56.5455 63.294 56.4886 63.6293 56.375C63.9645 56.2614 64.2514 56.0909 64.4901 55.8636C64.7287 55.6364 64.9105 55.358 65.0355 55.0284L68.3935 55.25C68.223 56.0568 67.8736 56.7614 67.3452 57.3636C66.8224 57.9602 66.1463 58.4261 65.3168 58.7614C64.4929 59.0909 63.5412 59.2557 62.4616 59.2557ZM74.5724 59.2472C73.7372 59.2472 72.9929 59.1023 72.3395 58.8125C71.6861 58.517 71.169 58.0824 70.7884 57.5085C70.4134 56.929 70.2259 56.2074 70.2259 55.3438C70.2259 54.6165 70.3594 54.0057 70.6264 53.5114C70.8935 53.017 71.2571 52.6193 71.7173 52.3182C72.1776 52.017 72.7003 51.7898 73.2855 51.6364C73.8764 51.483 74.4957 51.375 75.1435 51.3125C75.9048 51.233 76.5185 51.1591 76.9844 51.0909C77.4503 51.017 77.7884 50.9091 77.9986 50.767C78.2088 50.625 78.3139 50.4148 78.3139 50.1364V50.0852C78.3139 49.5455 78.1435 49.1278 77.8026 48.8324C77.4673 48.5369 76.9901 48.3892 76.3707 48.3892C75.7173 48.3892 75.1974 48.5341 74.8111 48.8239C74.4247 49.108 74.169 49.4659 74.044 49.8977L70.6861 49.625C70.8565 48.8295 71.1918 48.142 71.6918 47.5625C72.1918 46.9773 72.8366 46.5284 73.6264 46.2159C74.4219 45.8977 75.3423 45.7386 76.3878 45.7386C77.1151 45.7386 77.8111 45.8239 78.4759 45.9943C79.1463 46.1648 79.7401 46.429 80.2571 46.7869C80.7798 47.1449 81.1918 47.6051 81.4929 48.1676C81.794 48.7244 81.9446 49.392 81.9446 50.1705V59H78.5014V57.1847H78.3991C78.1889 57.5938 77.9077 57.9545 77.5554 58.267C77.2031 58.5739 76.7798 58.8153 76.2855 58.9915C75.7912 59.1619 75.2202 59.2472 74.5724 59.2472ZM75.6122 56.7415C76.1463 56.7415 76.6179 56.6364 77.027 56.4261C77.4361 56.2102 77.7571 55.9205 77.9901 55.5568C78.223 55.1932 78.3395 54.7812 78.3395 54.321V52.9318C78.2259 53.0057 78.0696 53.0739 77.8707 53.1364C77.6776 53.1932 77.4588 53.2472 77.2145 53.2983C76.9702 53.3437 76.7259 53.3864 76.4815 53.4261C76.2372 53.4602 76.0156 53.4915 75.8168 53.5199C75.3906 53.5824 75.0185 53.6818 74.7003 53.8182C74.3821 53.9545 74.1349 54.1392 73.9588 54.3722C73.7827 54.5994 73.6946 54.8835 73.6946 55.2244C73.6946 55.7188 73.8736 56.0966 74.2315 56.358C74.5952 56.6136 75.0554 56.7415 75.6122 56.7415ZM84.7614 59V45.9091H88.2812V48.1932H88.4176C88.6563 47.3807 89.0568 46.767 89.6193 46.3523C90.1818 45.9318 90.8295 45.7216 91.5625 45.7216C91.7443 45.7216 91.9403 45.733 92.1506 45.7557C92.3608 45.7784 92.5455 45.8097 92.7045 45.8494V49.071C92.5341 49.0199 92.2983 48.9744 91.9972 48.9347C91.696 48.8949 91.4205 48.875 91.1705 48.875C90.6364 48.875 90.1591 48.9915 89.7386 49.2244C89.3239 49.4517 88.9943 49.7699 88.75 50.179C88.5114 50.5881 88.392 51.0597 88.392 51.5938V59H84.7614ZM98.2124 51.4318V59H94.5817V45.9091H98.0419V48.2188H98.1953C98.4851 47.4574 98.9709 46.8551 99.6527 46.4119C100.335 45.9631 101.161 45.7386 102.133 45.7386C103.042 45.7386 103.835 45.9375 104.511 46.3352C105.187 46.733 105.712 47.3011 106.087 48.0398C106.462 48.7727 106.65 49.6477 106.65 50.6648V59H103.019V51.3125C103.025 50.5114 102.82 49.8864 102.406 49.4375C101.991 48.983 101.42 48.7557 100.692 48.7557C100.204 48.7557 99.772 48.8608 99.397 49.071C99.0277 49.2812 98.7379 49.5881 98.5277 49.9915C98.3232 50.3892 98.218 50.8693 98.2124 51.4318ZM111.634 59.2216C111.071 59.2216 110.588 59.0227 110.185 58.625C109.787 58.2216 109.588 57.7386 109.588 57.1761C109.588 56.6193 109.787 56.142 110.185 55.7443C110.588 55.3466 111.071 55.1477 111.634 55.1477C112.179 55.1477 112.656 55.3466 113.065 55.7443C113.474 56.142 113.679 56.6193 113.679 57.1761C113.679 57.5511 113.582 57.8949 113.389 58.2074C113.202 58.5142 112.955 58.7614 112.648 58.9489C112.341 59.1307 112.003 59.2216 111.634 59.2216ZM116.66 59V45.9091H120.12V48.2188H120.273C120.546 47.4517 121.001 46.8466 121.637 46.4034C122.273 45.9602 123.035 45.7386 123.921 45.7386C124.819 45.7386 125.583 45.9631 126.214 46.4119C126.844 46.8551 127.265 47.4574 127.475 48.2188H127.612C127.879 47.4688 128.362 46.8693 129.06 46.4205C129.765 45.9659 130.597 45.7386 131.558 45.7386C132.779 45.7386 133.771 46.1278 134.532 46.9062C135.299 47.679 135.683 48.7756 135.683 50.196V59H132.06V50.9119C132.06 50.1847 131.867 49.6392 131.481 49.2756C131.094 48.9119 130.612 48.7301 130.032 48.7301C129.373 48.7301 128.859 48.9403 128.489 49.3608C128.12 49.7756 127.935 50.3239 127.935 51.0057V59H124.415V50.8352C124.415 50.1932 124.231 49.6818 123.862 49.3011C123.498 48.9205 123.018 48.7301 122.421 48.7301C122.018 48.7301 121.654 48.8324 121.33 49.0369C121.012 49.2358 120.759 49.517 120.572 49.8807C120.384 50.2386 120.29 50.6591 120.29 51.142V59H116.66ZM144.516 59.2557C143.17 59.2557 142.011 58.983 141.039 58.4375C140.073 57.8864 139.329 57.108 138.806 56.1023C138.283 55.0909 138.022 53.8949 138.022 52.5142C138.022 51.1676 138.283 49.9858 138.806 48.9688C139.329 47.9517 140.065 47.1591 141.013 46.5909C141.968 46.0227 143.087 45.7386 144.371 45.7386C145.235 45.7386 146.039 45.8778 146.783 46.1562C147.533 46.429 148.187 46.8409 148.744 47.392C149.306 47.9432 149.744 48.6364 150.056 49.4716C150.369 50.3011 150.525 51.2727 150.525 52.3864V53.3835H139.471V51.1335H147.107C147.107 50.6108 146.994 50.1477 146.766 49.7443C146.539 49.3409 146.224 49.0256 145.82 48.7983C145.423 48.5653 144.96 48.4489 144.431 48.4489C143.88 48.4489 143.391 48.5767 142.965 48.8324C142.545 49.0824 142.215 49.4205 141.977 49.8466C141.738 50.267 141.616 50.7358 141.61 51.2528V53.392C141.61 54.0398 141.729 54.5994 141.968 55.071C142.212 55.5426 142.556 55.9062 142.999 56.1619C143.442 56.4176 143.968 56.5455 144.576 56.5455C144.979 56.5455 145.349 56.4886 145.684 56.375C146.019 56.2614 146.306 56.0909 146.545 55.8636C146.783 55.6364 146.965 55.358 147.09 55.0284L150.448 55.25C150.278 56.0568 149.928 56.7614 149.4 57.3636C148.877 57.9602 148.201 58.4261 147.371 58.7614C146.548 59.0909 145.596 59.2557 144.516 59.2557ZM168.304 45.824H178.288V48.728H168.304V45.824ZM158.032 57.08H179.968V59.984H158.032V57.08ZM166.672 38.912H169.768V58.688H166.672V38.912ZM184.432 42.512H191.8V58.688H184.432V56.144H189.184V45.032H184.432V42.512ZM182.752 42.512H185.368V60.464H182.752V42.512ZM184.312 48.92H190.456V51.416H184.312V48.92ZM186.16 38.6L189.304 39.056C188.752 40.688 188.152 42.392 187.672 43.52L185.368 43.016C185.704 41.768 186.04 39.92 186.16 38.6ZM194.968 42.344H201.976V44.96H194.968V42.344ZM200.992 42.344H203.656C203.656 42.344 203.656 43.28 203.632 43.64C203.32 54.44 203.032 58.256 202.048 59.528C201.376 60.464 200.704 60.728 199.72 60.872C198.808 61.016 197.344 60.992 195.952 60.92C195.904 60.128 195.52 58.904 194.992 58.136C196.552 58.256 197.992 58.28 198.592 58.28C199.072 58.28 199.336 58.184 199.648 57.848C200.416 57.032 200.728 52.904 200.992 42.896V42.344ZM195.04 38.624L197.8 39.272C196.864 42.824 195.304 46.472 193.672 48.776C193.144 48.296 191.968 47.48 191.296 47.096C192.904 45.08 194.272 41.816 195.04 38.624ZM193.864 49.256L196.12 47.984C197.296 49.64 198.88 51.944 199.624 53.36L197.176 54.848C196.528 53.384 195.016 51.032 193.864 49.256ZM226 50.576L228.304 52.304C226.888 53.48 225.376 54.752 224.2 55.544L222.496 54.152C223.6 53.24 225.136 51.704 226 50.576ZM220.12 38.576L223.384 39.08C222.688 40.4 221.896 41.72 221.272 42.584L218.824 42.032C219.304 41.024 219.856 39.632 220.12 38.576ZM218.104 46.544V47.792H224.536V46.544H218.104ZM218.104 43.208V44.48H224.536V43.208H218.104ZM215.512 41H227.272V50.024H215.512V41ZM220.144 49.04H222.712V58.424C222.712 59.648 222.544 60.32 221.776 60.728C220.984 61.112 219.952 61.16 218.488 61.16C218.416 60.44 218.104 59.408 217.792 58.688C218.632 58.712 219.52 58.712 219.784 58.712C220.072 58.712 220.144 58.64 220.144 58.4V49.04ZM214.888 51.632H218.344V53.984H214.888V51.632ZM217.792 51.632H218.296L218.728 51.56L220.264 52.184C219.424 56.072 217.6 58.76 215.272 60.2C214.912 59.648 214.024 58.664 213.496 58.28C215.608 57.104 217.192 54.92 217.792 52.016V51.632ZM222.472 49.136C223.168 52.304 224.848 56.168 228.664 57.848C228.136 58.376 227.296 59.456 226.936 60.176C223.288 58.136 221.584 53.768 220.912 50.672L222.472 49.136ZM209.296 38.648L211.792 39.512C210.808 41.384 209.704 43.52 208.792 44.864L206.872 44.072C207.712 42.632 208.744 40.304 209.296 38.648ZM212.008 41.48L214.336 42.56C212.584 45.248 210.256 48.584 208.408 50.648L206.752 49.712C208.552 47.552 210.736 44.048 212.008 41.48ZM205.576 44.24L206.992 42.32C208.24 43.448 209.704 45.008 210.28 46.136L208.72 48.344C208.192 47.168 206.776 45.464 205.576 44.24ZM211.192 47.24L213.184 46.4C214.144 48.032 215.056 50.144 215.344 51.512L213.184 52.496C212.92 51.104 212.08 48.896 211.192 47.24ZM205.504 49.16C207.664 49.04 210.76 48.872 213.76 48.68L213.784 51.032C210.976 51.248 208.048 51.464 205.816 51.632L205.504 49.16ZM211.84 53.264L213.856 52.64C214.408 53.96 214.888 55.64 215.032 56.768L212.896 57.44C212.824 56.336 212.368 54.584 211.84 53.264ZM206.536 52.736L208.84 53.12C208.6 55.424 208.096 57.8 207.4 59.336C206.92 59.024 205.864 58.568 205.312 58.328C205.984 56.912 206.344 54.752 206.536 52.736ZM209.176 50.432H211.648V61.16H209.176V50.432ZM240.304 45.824H250.288V48.728H240.304V45.824ZM230.032 57.08H251.968V59.984H230.032V57.08ZM238.672 38.912H241.768V58.688H238.672V38.912ZM262.744 50.768H275.848V53.312H262.744V50.768ZM271.24 52.28C272.392 54.416 274.576 56.744 276.592 57.968C275.968 58.472 275.056 59.456 274.624 60.152C272.584 58.544 270.448 55.712 269.2 53.024L271.24 52.28ZM265.984 45.536V47.096H272.608V45.536H265.984ZM265.984 41.816V43.328H272.608V41.816H265.984ZM263.44 39.536H275.272V49.352H263.44V39.536ZM267.376 52.088L269.536 52.832C268.264 55.808 266.056 58.688 263.656 60.248C263.224 59.576 262.336 58.544 261.736 58.04C264.016 56.816 266.248 54.44 267.376 52.088ZM268.024 40.664H270.496V48.272H270.664V61.136H267.88V48.272H268.024V40.664ZM254.8 45.992H261.832V48.152H254.8V45.992ZM254.872 39.368H261.76V41.552H254.872V39.368ZM254.8 49.256H261.832V51.44H254.8V49.256ZM253.696 42.608H262.456V44.888H253.696V42.608ZM256.048 52.592H261.856V59.888H256.048V57.608H259.456V54.872H256.048V52.592ZM254.752 52.592H257.104V60.848H254.752V52.592ZM292.024 50.168H294.88V59.864H292.024V50.168ZM287.224 49.136H299.728V51.608H287.224V49.136ZM286.312 58.136H300.256V60.632H286.312V58.136ZM287.8 53.6H299.128V56.024H287.8V53.6ZM290.656 41.936V45.248H296.272V41.936H290.656ZM287.992 39.512H299.08V47.672H287.992V39.512ZM281.416 40.856H284.224V61.136H281.416V40.856ZM277.96 45.368H286.768V48.056H277.96V45.368ZM281.584 46.448L283.264 47.192C282.352 50.624 280.648 54.896 278.8 57.272C278.536 56.432 277.912 55.232 277.456 54.512C279.136 52.592 280.816 49.112 281.584 46.448ZM285.16 38.864L287.08 41.096C284.632 42.032 281.296 42.68 278.488 43.04C278.368 42.416 278.008 41.456 277.672 40.856C280.336 40.4 283.312 39.704 285.16 38.864ZM284.152 48.704C284.752 49.208 286.84 51.368 287.296 51.92L285.664 54.176C285.088 53.024 283.648 50.84 282.904 49.832L284.152 48.704Z" fill="url(#paint0_linear_1398_7436)"/>
<path d="M135.51 88.996L136.196 88.212C137.344 88.8 138.772 89.724 139.458 90.41L138.716 91.292C138.072 90.592 136.672 89.612 135.51 88.996ZM134.236 95.282H141.642V96.29H134.236V95.282ZM133.242 99.692H142.454V100.7H133.242V99.692ZM133.718 91.264H142.16V92.272H133.718V91.264ZM137.316 91.628H138.394V100.154H137.316V91.628ZM130.344 89.122L130.918 88.352C131.842 88.702 133.018 89.332 133.592 89.822L132.976 90.704C132.416 90.186 131.282 89.528 130.344 89.122ZM129.532 92.944L130.078 92.146C131.016 92.454 132.22 93 132.822 93.448L132.262 94.344C131.674 93.882 130.484 93.294 129.532 92.944ZM130.05 100.224C130.806 99.16 131.912 97.312 132.724 95.716L133.48 96.402C132.738 97.886 131.758 99.636 130.932 100.938L130.05 100.224ZM145.688 89.164H148.684V90.144H145.688V89.164ZM143.574 93.812H156.412V94.82H143.574V93.812ZM145.142 89.164H146.15V93.49C146.15 95.772 145.912 99.048 144.33 101.204C144.176 100.994 143.77 100.602 143.56 100.476C145.002 98.446 145.142 95.604 145.142 93.49V89.164ZM148.138 89.164H149.146V99.804C149.146 100.364 149.02 100.672 148.628 100.84C148.264 101.008 147.634 101.022 146.654 101.022C146.612 100.756 146.458 100.322 146.318 100.07C147.018 100.084 147.662 100.084 147.858 100.07C148.054 100.07 148.138 100 148.138 99.804V89.164ZM151.19 89.164H154.284V90.144H151.19V89.164ZM150.616 89.164H151.624V93.504C151.624 95.758 151.428 99.006 149.986 101.162C149.832 100.952 149.398 100.574 149.188 100.434C150.49 98.432 150.616 95.604 150.616 93.504V89.164ZM153.864 89.164H154.9V99.846C154.9 100.448 154.76 100.756 154.382 100.924C153.99 101.106 153.346 101.12 152.338 101.12C152.282 100.854 152.128 100.392 151.988 100.126C152.716 100.154 153.388 100.154 153.584 100.14C153.794 100.126 153.864 100.056 153.864 99.846V89.164ZM161.48 89.794H170.468V90.774H161.48V89.794ZM162.866 93.028V95.128H168.984V93.028H162.866ZM161.9 92.132H170.006V96.024H161.9V92.132ZM162.768 96.304C164.084 98.502 166.954 99.804 170.594 100.21C170.37 100.434 170.104 100.854 169.964 101.148C166.254 100.616 163.384 99.16 161.9 96.598L162.768 96.304ZM165.372 88.296H166.408V94.498C166.408 97.2 165.946 99.888 161.606 101.176C161.48 100.938 161.186 100.518 160.976 100.294C165.134 99.244 165.372 96.85 165.372 94.484V88.296ZM160.878 88.212L161.872 88.52C160.92 90.886 159.422 93.238 157.868 94.792C157.77 94.554 157.476 94.008 157.28 93.756C158.694 92.426 160.066 90.34 160.878 88.212ZM159.408 91.88L160.402 90.886L160.416 90.9V101.19H159.408V91.88ZM173.73 89.234H182.788V90.242H173.73V89.234ZM173.73 92.496H182.774V93.49H173.73V92.496ZM173.66 95.842H182.802V96.836H173.66V95.842ZM173.142 89.234H174.178V94.316C174.178 96.444 173.926 99.342 172.26 101.204C172.092 100.994 171.672 100.644 171.448 100.504C172.988 98.768 173.142 96.276 173.142 94.302V89.234ZM182.368 89.234H183.404V99.692C183.404 100.378 183.236 100.7 182.774 100.882C182.298 101.05 181.486 101.064 180.156 101.05C180.114 100.77 179.946 100.308 179.792 100.028C180.786 100.07 181.738 100.056 182.004 100.056C182.27 100.042 182.368 99.958 182.368 99.692V89.234ZM177.538 89.612H178.602V100.994H177.538V89.612ZM192 92.398C191.426 92.398 190.936 91.978 190.936 91.348C190.936 90.704 191.426 90.284 192 90.284C192.56 90.284 193.05 90.704 193.05 91.348C193.05 91.978 192.56 92.398 192 92.398ZM192 99.244C191.426 99.244 190.936 98.838 190.936 98.194C190.936 97.55 191.426 97.144 192 97.144C192.56 97.144 193.05 97.55 193.05 98.194C193.05 98.838 192.56 99.244 192 99.244Z" fill="#2D3342"/>
<path d="M24.6454 126.364V138H22.884V128.125H22.8159L20.0318 129.943V128.261L22.9352 126.364H24.6454ZM30.4139 138.108C30.1033 138.108 29.8362 137.998 29.6127 137.778C29.3893 137.555 29.2775 137.286 29.2775 136.972C29.2775 136.661 29.3893 136.396 29.6127 136.176C29.8362 135.953 30.1033 135.841 30.4139 135.841C30.7245 135.841 30.9915 135.953 31.215 136.176C31.4385 136.396 31.5502 136.661 31.5502 136.972C31.5502 137.18 31.4972 137.371 31.3912 137.545C31.2889 137.716 31.1525 137.852 30.9821 137.955C30.8116 138.057 30.6222 138.108 30.4139 138.108ZM43.12 126.336H53.392V127.456H43.12V126.336ZM44.704 130.032V132.432H51.696V130.032H44.704ZM43.6 129.008H52.864V133.456H43.6V129.008ZM44.592 133.776C46.096 136.288 49.376 137.776 53.536 138.24C53.28 138.496 52.976 138.976 52.816 139.312C48.576 138.704 45.296 137.04 43.6 134.112L44.592 133.776ZM47.568 124.624H48.752V131.712C48.752 134.8 48.224 137.872 43.264 139.344C43.12 139.072 42.784 138.592 42.544 138.336C47.296 137.136 47.568 134.4 47.568 131.696V124.624ZM42.432 124.528L43.568 124.88C42.48 127.584 40.768 130.272 38.992 132.048C38.88 131.776 38.544 131.152 38.32 130.864C39.936 129.344 41.504 126.96 42.432 124.528ZM40.752 128.72L41.888 127.584L41.904 127.6V139.36H40.752V128.72ZM57.12 125.696H67.472V126.848H57.12V125.696ZM57.12 129.424H67.456V130.56H57.12V129.424ZM57.04 133.248H67.488V134.384H57.04V133.248ZM56.448 125.696H57.632V131.504C57.632 133.936 57.344 137.248 55.44 139.376C55.248 139.136 54.768 138.736 54.512 138.576C56.272 136.592 56.448 133.744 56.448 131.488V125.696ZM66.992 125.696H68.176V137.648C68.176 138.432 67.984 138.8 67.456 139.008C66.912 139.2 65.984 139.216 64.464 139.2C64.416 138.88 64.224 138.352 64.048 138.032C65.184 138.08 66.272 138.064 66.576 138.064C66.88 138.048 66.992 137.952 66.992 137.648V125.696ZM61.472 126.128H62.688V139.136H61.472V126.128ZM77.488 124.576L78.592 124.848C77.968 126.56 76.928 128.192 75.808 129.28C75.632 129.072 75.184 128.688 74.912 128.512C76 127.568 76.944 126.112 77.488 124.576ZM77.424 128.608L78.544 128.896C78.048 130.16 77.216 131.408 76.416 132.24C76.192 132.064 75.712 131.76 75.44 131.616C76.272 130.848 76.992 129.728 77.424 128.608ZM77.328 126.144H84.272V127.2H76.912L77.328 126.144ZM79.68 126.864H80.832V132.432C80.832 133.04 80.72 133.36 80.272 133.536C79.856 133.712 79.2 133.728 78.192 133.728C78.128 133.408 77.968 132.96 77.792 132.656C78.544 132.688 79.216 132.688 79.424 132.672C79.632 132.656 79.68 132.608 79.68 132.432V126.864ZM81.712 128.96L82.704 128.528C83.488 129.568 84.272 130.976 84.608 131.904L83.568 132.4C83.248 131.456 82.464 130 81.712 128.96ZM83.936 126.144H84.128L84.32 126.112L85.152 126.32C84.752 127.328 84.256 128.496 83.872 129.2L82.832 128.992C83.2 128.32 83.632 127.216 83.936 126.32V126.144ZM74.784 134.512H75.968V137.408C75.968 137.84 76.128 137.92 76.976 137.92C77.376 137.92 79.376 137.92 79.904 137.92C80.608 137.92 80.72 137.712 80.8 136.128C81.056 136.336 81.536 136.512 81.872 136.592C81.728 138.528 81.36 139.008 79.984 139.008C79.616 139.008 77.232 139.008 76.88 139.008C75.216 139.008 74.784 138.672 74.784 137.408V134.512ZM76.16 134.032L76.96 133.312C77.984 133.808 79.216 134.624 79.792 135.264L78.928 136.048C78.384 135.408 77.2 134.544 76.16 134.032ZM81.424 135.008L82.416 134.448C83.6 135.456 84.848 136.896 85.344 137.984L84.272 138.592C83.808 137.536 82.624 136.032 81.424 135.008ZM72.832 134.704L73.904 135.056C73.504 136.496 72.88 137.92 71.616 138.768L70.624 138.08C71.808 137.328 72.496 136.048 72.832 134.704ZM74.368 124.56L75.44 124.928C74.4 126.912 72.784 128.88 71.232 130.144C71.088 129.904 70.688 129.424 70.448 129.216C71.952 128.08 73.456 126.32 74.368 124.56ZM72.896 127.568L74.032 126.432L74.048 126.448V133.712H72.896V127.568ZM88.096 127.136H92.96V137.6H88.096V136.512H91.84V128.208H88.096V127.136ZM87.376 127.136H88.496V138.88H87.376V127.136ZM88.016 131.584H92.432V132.656H88.016V131.584ZM89.824 124.528L91.12 124.768C90.8 125.76 90.4 126.864 90.08 127.584L89.12 127.344C89.392 126.576 89.696 125.36 89.824 124.528ZM95.232 127.088H100.144V128.208H95.232V127.088ZM99.728 127.088H100.848C100.848 127.088 100.848 127.536 100.848 127.712C100.592 135.056 100.368 137.536 99.728 138.32C99.376 138.784 99.008 138.928 98.448 138.976C97.904 139.04 96.96 139.008 96.064 138.96C96.032 138.608 95.888 138.112 95.664 137.792C96.704 137.872 97.664 137.888 98.032 137.888C98.352 137.888 98.544 137.84 98.72 137.632C99.248 137.056 99.504 134.4 99.728 127.344V127.088ZM95.568 124.496L96.72 124.768C96.128 127.152 95.184 129.504 94.08 131.024C93.872 130.832 93.376 130.496 93.088 130.336C94.176 128.928 95.056 126.72 95.568 124.496ZM94.832 131.248L95.76 130.704C96.672 131.84 97.776 133.392 98.288 134.336L97.264 134.976C96.784 134 95.712 132.416 94.832 131.248ZM104.624 130.352H115.216V131.472H104.624V130.352ZM109.216 124.592H110.48V136.672C110.48 137.616 110.672 137.792 111.616 137.792C112.096 137.792 114.448 137.792 115.024 137.792C115.904 137.792 116.064 137.264 116.192 135.2C116.496 135.424 117.008 135.632 117.392 135.728C117.184 138.16 116.784 139.008 115.088 139.008C114.656 139.008 111.952 139.008 111.536 139.008C109.744 139.008 109.216 138.528 109.216 136.656V124.592ZM104.72 126.896H115.824V134.96H104.72V133.792H114.608V128.064H104.72V126.896ZM104 126.896H105.248V135.936H104V126.896ZM118.752 131.712H133.28V132.912H118.752V131.712ZM125.408 129.136H126.656V137.744C126.656 138.544 126.432 138.912 125.824 139.104C125.232 139.296 124.192 139.328 122.656 139.328C122.56 138.976 122.336 138.432 122.128 138.08C123.424 138.128 124.608 138.128 124.96 138.112C125.296 138.096 125.408 138.016 125.408 137.728V129.136ZM120.4 125.68H130.848V126.864H120.4V125.68ZM130.432 125.68H130.752L131.024 125.616L131.936 126.288C130.48 127.76 128.208 129.344 126.336 130.304C126.16 130.032 125.792 129.648 125.552 129.44C127.296 128.608 129.424 127.088 130.432 125.952V125.68ZM135.344 127.024H142.464V138.048H141.36V128.08H136.4V138.272H135.344V127.024ZM135.84 131.456H141.744V132.496H135.84V131.456ZM135.872 136.16H141.696V137.2H135.872V136.16ZM138.32 124.592H139.488V127.6H139.44V136.896H138.368V127.6H138.32V124.592ZM144.016 125.424H148.208V126.56H145.072V139.264H144.016V125.424ZM147.936 125.424H148.16L148.352 125.376L149.168 125.904C148.592 127.376 147.84 129.2 147.152 130.688C148.624 132.208 148.976 133.472 148.976 134.576C148.976 135.52 148.768 136.288 148.224 136.656C147.968 136.832 147.6 136.928 147.216 136.976C146.816 137.024 146.288 137.024 145.808 136.992C145.776 136.688 145.664 136.192 145.472 135.856C145.952 135.904 146.416 135.904 146.752 135.904C146.992 135.872 147.232 135.84 147.424 135.728C147.76 135.536 147.856 135.024 147.856 134.464C147.856 133.472 147.424 132.288 145.968 130.848C146.72 129.184 147.504 127.04 147.936 125.792V125.424ZM159.664 124.768H160.864V139.28H159.664V124.768ZM156.896 125.376L158.048 125.6C157.616 127.84 156.88 130.032 155.968 131.456C155.728 131.28 155.232 130.992 154.928 130.864C155.856 129.52 156.528 127.456 156.896 125.376ZM157.056 127.84H164.528V129.024H156.752L157.056 127.84ZM155.056 132.544H165.232V133.728H155.056V132.544ZM154.272 124.624L155.408 124.976C154.4 127.68 152.848 130.384 151.184 132.192C151.072 131.92 150.72 131.296 150.496 131.008C152 129.456 153.424 127.056 154.272 124.624ZM152.656 128.752L153.792 127.616L153.808 127.632V139.264H152.656V128.752ZM179.408 124.816H180.592V137.696C180.592 138.496 180.384 138.832 179.872 139.024C179.344 139.216 178.448 139.232 176.96 139.232C176.896 138.928 176.704 138.4 176.528 138.08C177.648 138.128 178.672 138.112 178.976 138.096C179.28 138.08 179.408 137.984 179.408 137.696V124.816ZM176.272 126.432H177.424V135.328H176.272V126.432ZM168.784 130.416H173.392V131.488H168.784V130.416ZM168.272 130.416H169.44V137.28C169.44 137.888 169.584 138 170.4 138C170.784 138 172.704 138 173.2 138C173.936 138 174.064 137.664 174.144 135.744C174.4 135.952 174.88 136.144 175.2 136.208C175.056 138.432 174.704 139.056 173.28 139.056C172.912 139.056 170.64 139.056 170.304 139.056C168.752 139.056 168.272 138.704 168.272 137.296V130.416ZM172.96 130.416H174.112C174.112 130.416 174.096 130.752 174.08 130.896C173.936 133.68 173.776 134.752 173.408 135.152C173.152 135.44 172.896 135.536 172.496 135.568C172.16 135.6 171.536 135.6 170.912 135.568C170.88 135.248 170.768 134.816 170.592 134.528C171.2 134.592 171.76 134.608 171.984 134.608C172.192 134.608 172.32 134.576 172.448 134.448C172.672 134.176 172.832 133.216 172.96 130.608V130.416ZM170.752 126.048L171.552 125.376C172.944 126.784 174.688 128.688 175.504 129.888L174.64 130.704C173.84 129.488 172.128 127.488 170.752 126.048ZM171.008 124.592L172.112 124.928C171.088 127.28 169.392 129.552 167.312 131.168C167.12 130.928 166.688 130.512 166.432 130.336C168.448 128.88 170.16 126.656 171.008 124.592ZM187.008 127.952H197.36V128.928H187.008V127.952ZM187.952 132.272H196.304V133.184H187.952V132.272ZM187.232 134.464H197.008V135.456H187.232V134.464ZM191.44 124.688H192.608V137.152H191.44V124.688ZM188.16 125.856H196.16V131.072H188.048V130.112H194.976V126.816H188.16V125.856ZM182.656 125.584H186.112V126.656H182.656V125.584ZM185.68 125.584H185.856L186.048 125.52L186.864 125.776C186.128 127.456 184.928 129.936 183.952 131.84L182.864 131.536C183.856 129.664 185.088 127.072 185.68 125.728V125.584ZM184.112 130.144H186.736V131.216H183.968L184.112 130.144ZM186.24 130.144H186.48L186.704 130.112L187.392 130.288C186.912 134.944 185.52 137.808 183.44 139.312C183.248 139.072 182.8 138.64 182.528 138.48C184.56 137.12 185.84 134.512 186.24 130.384V130.144ZM184.16 132.496C185.456 136.912 188.432 137.712 192.496 137.712C193.168 137.712 196.624 137.712 197.472 137.696C197.28 137.968 197.056 138.512 196.976 138.864H192.464C187.84 138.864 184.752 137.888 183.2 132.864L184.16 132.496ZM205.488 124.576L206.592 124.848C205.968 126.56 204.928 128.192 203.808 129.28C203.632 129.072 203.184 128.688 202.912 128.512C204 127.568 204.944 126.112 205.488 124.576ZM205.424 128.608L206.544 128.896C206.048 130.16 205.216 131.408 204.416 132.24C204.192 132.064 203.712 131.76 203.44 131.616C204.272 130.848 204.992 129.728 205.424 128.608ZM205.328 126.144H212.272V127.2H204.912L205.328 126.144ZM207.68 126.864H208.832V132.432C208.832 133.04 208.72 133.36 208.272 133.536C207.856 133.712 207.2 133.728 206.192 133.728C206.128 133.408 205.968 132.96 205.792 132.656C206.544 132.688 207.216 132.688 207.424 132.672C207.632 132.656 207.68 132.608 207.68 132.432V126.864ZM209.712 128.96L210.704 128.528C211.488 129.568 212.272 130.976 212.608 131.904L211.568 132.4C211.248 131.456 210.464 130 209.712 128.96ZM211.936 126.144H212.128L212.32 126.112L213.152 126.32C212.752 127.328 212.256 128.496 211.872 129.2L210.832 128.992C211.2 128.32 211.632 127.216 211.936 126.32V126.144ZM202.784 134.512H203.968V137.408C203.968 137.84 204.128 137.92 204.976 137.92C205.376 137.92 207.376 137.92 207.904 137.92C208.608 137.92 208.72 137.712 208.8 136.128C209.056 136.336 209.536 136.512 209.872 136.592C209.728 138.528 209.36 139.008 207.984 139.008C207.616 139.008 205.232 139.008 204.88 139.008C203.216 139.008 202.784 138.672 202.784 137.408V134.512ZM204.16 134.032L204.96 133.312C205.984 133.808 207.216 134.624 207.792 135.264L206.928 136.048C206.384 135.408 205.2 134.544 204.16 134.032ZM209.424 135.008L210.416 134.448C211.6 135.456 212.848 136.896 213.344 137.984L212.272 138.592C211.808 137.536 210.624 136.032 209.424 135.008ZM200.832 134.704L201.904 135.056C201.504 136.496 200.88 137.92 199.616 138.768L198.624 138.08C199.808 137.328 200.496 136.048 200.832 134.704ZM202.368 124.56L203.44 124.928C202.4 126.912 200.784 128.88 199.232 130.144C199.088 129.904 198.688 129.424 198.448 129.216C199.952 128.08 201.456 126.32 202.368 124.56ZM200.896 127.568L202.032 126.432L202.048 126.448V133.712H200.896V127.568ZM216.096 127.136H220.96V137.6H216.096V136.512H219.84V128.208H216.096V127.136ZM215.376 127.136H216.496V138.88H215.376V127.136ZM216.016 131.584H220.432V132.656H216.016V131.584ZM217.824 124.528L219.12 124.768C218.8 125.76 218.4 126.864 218.08 127.584L217.12 127.344C217.392 126.576 217.696 125.36 217.824 124.528ZM223.232 127.088H228.144V128.208H223.232V127.088ZM227.728 127.088H228.848C228.848 127.088 228.848 127.536 228.848 127.712C228.592 135.056 228.368 137.536 227.728 138.32C227.376 138.784 227.008 138.928 226.448 138.976C225.904 139.04 224.96 139.008 224.064 138.96C224.032 138.608 223.888 138.112 223.664 137.792C224.704 137.872 225.664 137.888 226.032 137.888C226.352 137.888 226.544 137.84 226.72 137.632C227.248 137.056 227.504 134.4 227.728 127.344V127.088ZM223.568 124.496L224.72 124.768C224.128 127.152 223.184 129.504 222.08 131.024C221.872 130.832 221.376 130.496 221.088 130.336C222.176 128.928 223.056 126.72 223.568 124.496ZM222.832 131.248L223.76 130.704C224.672 131.84 225.776 133.392 226.288 134.336L225.264 134.976C224.784 134 223.712 132.416 222.832 131.248ZM236.544 130.8H245.264V131.968H236.544V130.8ZM241.52 131.44C242.16 134.288 243.504 136.816 245.44 138.016C245.168 138.224 244.8 138.64 244.624 138.96C242.576 137.52 241.2 134.832 240.48 131.696L241.52 131.44ZM237.728 139.376C237.648 139.088 237.424 138.608 237.248 138.368C237.52 138.224 237.968 137.936 237.968 137.28V124.88H239.12V138.272C239.12 138.272 237.728 138.944 237.728 139.376ZM232.992 124.576H234.064V139.28H232.992V124.576ZM230.928 127.6H235.536V128.688H231.888V136H230.928V127.6ZM235.12 127.6H236.048V134.736C236.048 135.2 235.984 135.52 235.68 135.712C235.392 135.904 234.976 135.92 234.368 135.92C234.336 135.632 234.208 135.168 234.064 134.88C234.512 134.896 234.832 134.896 234.96 134.88C235.088 134.88 235.12 134.832 235.12 134.72V127.6ZM243.456 125.264L244.576 125.616C243.568 127.44 241.968 129.184 240.416 130.304C240.24 130.08 239.792 129.632 239.536 129.424C241.072 128.432 242.56 126.896 243.456 125.264ZM237.728 139.376L237.6 138.304L238.096 137.824L241.616 136.544C241.616 136.88 241.68 137.376 241.728 137.632C238.48 138.944 238 139.152 237.728 139.376ZM248.704 127.04H249.952V130.528C249.952 133.152 249.616 136.896 247.568 139.376C247.36 139.152 246.832 138.784 246.528 138.656C248.496 136.288 248.704 132.944 248.704 130.528V127.04ZM253.04 124.784L254.208 124.48C254.576 125.232 254.992 126.192 255.184 126.816L253.968 127.184C253.792 126.544 253.376 125.536 253.04 124.784ZM249.488 127.04H259.52V133.568H258.304V128.176H249.488V127.04ZM249.488 131.392H258.96V132.512H249.488V131.392Z" fill="#2D3342"/>
<path d="M27.8115 141.73C27.3971 141.662 17.3649 140.195 17.7828 129.962C17.8212 129.022 17.9281 128.167 18.0944 127.391M27.8115 141.73C22.3128 141.331 19.5186 138.969 18.2682 136.139M27.8115 141.73C28.4767 141.838 29.1628 141.829 29.8416 141.711M18.0944 127.391C18.3025 126.421 18.6035 125.575 18.9792 124.846M18.0944 127.391C17.3452 129.667 16.9531 133.162 18.2682 136.139M18.9792 124.846C22.0592 118.863 30.1592 120.65 33.2437 124.846C34.454 126.493 36.9906 130.671 35.7544 135.894C34.9795 139.168 32.4656 141.256 29.8416 141.711M18.9792 124.846C17.8072 126.651 16.1067 130.879 17.5605 134.713M18.2682 136.139C17.9772 135.673 17.7438 135.196 17.5605 134.713M29.8416 141.711C26.3718 142.373 19.0578 141.9 17.5605 134.713" stroke="#6663CF" stroke-linecap="round"/>
<path d="M23.0715 185V183.727L27.009 179.648C27.4295 179.205 27.7761 178.816 28.0488 178.483C28.3253 178.146 28.5318 177.826 28.6681 177.523C28.8045 177.22 28.8727 176.898 28.8727 176.557C28.8727 176.17 28.7818 175.837 28.6 175.557C28.4181 175.273 28.17 175.055 27.8556 174.903C27.5412 174.748 27.1871 174.67 26.7931 174.67C26.3765 174.67 26.0128 174.756 25.7022 174.926C25.3916 175.097 25.153 175.337 24.9863 175.648C24.8197 175.958 24.7363 176.322 24.7363 176.739H23.0602C23.0602 176.03 23.2231 175.411 23.5488 174.881C23.8746 174.35 24.3215 173.939 24.8897 173.648C25.4579 173.352 26.1037 173.205 26.8272 173.205C27.5583 173.205 28.2022 173.35 28.759 173.642C29.3197 173.93 29.7572 174.324 30.0715 174.824C30.3859 175.32 30.5431 175.881 30.5431 176.506C30.5431 176.938 30.4617 177.36 30.2988 177.773C30.1397 178.186 29.8613 178.646 29.4636 179.153C29.0659 179.657 28.5128 180.269 27.8045 180.989L25.492 183.409V183.494H30.7306V185H23.0715ZM34.4139 185.108C34.1033 185.108 33.8362 184.998 33.6127 184.778C33.3893 184.555 33.2775 184.286 33.2775 183.972C33.2775 183.661 33.3893 183.396 33.6127 183.176C33.8362 182.953 34.1033 182.841 34.4139 182.841C34.7245 182.841 34.9915 182.953 35.215 183.176C35.4385 183.396 35.5502 183.661 35.5502 183.972C35.5502 184.18 35.4972 184.371 35.3912 184.545C35.2889 184.716 35.1525 184.852 34.9821 184.955C34.8116 185.057 34.6222 185.108 34.4139 185.108ZM47.12 173.336H57.392V174.456H47.12V173.336ZM48.704 177.032V179.432H55.696V177.032H48.704ZM47.6 176.008H56.864V180.456H47.6V176.008ZM48.592 180.776C50.096 183.288 53.376 184.776 57.536 185.24C57.28 185.496 56.976 185.976 56.816 186.312C52.576 185.704 49.296 184.04 47.6 181.112L48.592 180.776ZM51.568 171.624H52.752V178.712C52.752 181.8 52.224 184.872 47.264 186.344C47.12 186.072 46.784 185.592 46.544 185.336C51.296 184.136 51.568 181.4 51.568 178.696V171.624ZM46.432 171.528L47.568 171.88C46.48 174.584 44.768 177.272 42.992 179.048C42.88 178.776 42.544 178.152 42.32 177.864C43.936 176.344 45.504 173.96 46.432 171.528ZM44.752 175.72L45.888 174.584L45.904 174.6V186.36H44.752V175.72ZM61.12 172.696H71.472V173.848H61.12V172.696ZM61.12 176.424H71.456V177.56H61.12V176.424ZM61.04 180.248H71.488V181.384H61.04V180.248ZM60.448 172.696H61.632V178.504C61.632 180.936 61.344 184.248 59.44 186.376C59.248 186.136 58.768 185.736 58.512 185.576C60.272 183.592 60.448 180.744 60.448 178.488V172.696ZM70.992 172.696H72.176V184.648C72.176 185.432 71.984 185.8 71.456 186.008C70.912 186.2 69.984 186.216 68.464 186.2C68.416 185.88 68.224 185.352 68.048 185.032C69.184 185.08 70.272 185.064 70.576 185.064C70.88 185.048 70.992 184.952 70.992 184.648V172.696ZM65.472 173.128H66.688V186.136H65.472V173.128ZM144.857 177.8H153.577V178.968H144.857V177.8ZM149.833 178.44C150.473 181.288 151.817 183.816 153.753 185.016C153.481 185.224 153.113 185.64 152.937 185.96C150.889 184.52 149.513 181.832 148.793 178.696L149.833 178.44ZM146.041 186.376C145.961 186.088 145.737 185.608 145.561 185.368C145.833 185.224 146.281 184.936 146.281 184.28V171.88H147.433V185.272C147.433 185.272 146.041 185.944 146.041 186.376ZM141.305 171.576H142.377V186.28H141.305V171.576ZM139.241 174.6H143.849V175.688H140.201V183H139.241V174.6ZM143.433 174.6H144.361V181.736C144.361 182.2 144.297 182.52 143.993 182.712C143.705 182.904 143.289 182.92 142.681 182.92C142.649 182.632 142.521 182.168 142.377 181.88C142.825 181.896 143.145 181.896 143.273 181.88C143.401 181.88 143.433 181.832 143.433 181.72V174.6ZM151.769 172.264L152.889 172.616C151.881 174.44 150.281 176.184 148.729 177.304C148.553 177.08 148.105 176.632 147.849 176.424C149.385 175.432 150.873 173.896 151.769 172.264ZM146.041 186.376L145.913 185.304L146.409 184.824L149.929 183.544C149.929 183.88 149.993 184.376 150.041 184.632C146.793 185.944 146.312 186.152 146.041 186.376ZM157.017 174.04H158.265V177.528C158.265 180.152 157.929 183.896 155.881 186.376C155.673 186.152 155.145 185.784 154.84 185.656C156.809 183.288 157.017 179.944 157.017 177.528V174.04ZM161.353 171.784L162.521 171.48C162.889 172.232 163.305 173.192 163.497 173.816L162.281 174.184C162.105 173.544 161.689 172.536 161.353 171.784ZM157.801 174.04H167.833V180.568H166.617V175.176H157.801V174.04ZM157.801 178.392H167.273V179.512H157.801V178.392Z" fill="#2D3342"/>
<path d="M86.9616 177.125C86.8821 176.848 86.7704 176.604 86.6264 176.392C86.4825 176.176 86.3063 175.994 86.098 175.847C85.8935 175.695 85.6586 175.58 85.3935 175.5C85.1321 175.42 84.8423 175.381 84.5241 175.381C83.9295 175.381 83.4067 175.528 82.956 175.824C82.509 176.119 82.1605 176.549 81.9105 177.114C81.6605 177.674 81.5355 178.36 81.5355 179.17C81.5355 179.981 81.6586 180.67 81.9048 181.239C82.151 181.807 82.4995 182.241 82.9503 182.54C83.401 182.835 83.9332 182.983 84.5469 182.983C85.1037 182.983 85.5791 182.884 85.973 182.688C86.3707 182.487 86.6738 182.205 86.8821 181.841C87.0942 181.477 87.2003 181.047 87.2003 180.551L87.7003 180.625H84.7003V178.773H89.5696V180.239C89.5696 181.261 89.3537 182.14 88.9219 182.875C88.4901 183.606 87.8954 184.17 87.1378 184.568C86.3802 184.962 85.5128 185.159 84.5355 185.159C83.4446 185.159 82.4863 184.919 81.6605 184.438C80.8348 183.953 80.1908 183.265 79.7287 182.375C79.2704 181.481 79.0412 180.42 79.0412 179.193C79.0412 178.25 79.1776 177.409 79.4503 176.67C79.7268 175.928 80.1132 175.299 80.6094 174.784C81.1056 174.269 81.6832 173.877 82.3423 173.608C83.0014 173.339 83.7154 173.205 84.4844 173.205C85.1435 173.205 85.7571 173.301 86.3253 173.494C86.8935 173.684 87.3973 173.953 87.8366 174.301C88.2798 174.65 88.6416 175.064 88.9219 175.545C89.2022 176.023 89.3821 176.549 89.4616 177.125H86.9616ZM95.3153 185.17C94.4328 185.17 93.6695 184.983 93.0256 184.608C92.3854 184.229 91.8911 183.703 91.5426 183.028C91.1941 182.35 91.0199 181.564 91.0199 180.67C91.0199 179.769 91.1941 178.981 91.5426 178.307C91.8911 177.629 92.3854 177.102 93.0256 176.727C93.6695 176.348 94.4328 176.159 95.3153 176.159C96.1979 176.159 96.9593 176.348 97.5994 176.727C98.2434 177.102 98.7396 177.629 99.0881 178.307C99.4366 178.981 99.6108 179.769 99.6108 180.67C99.6108 181.564 99.4366 182.35 99.0881 183.028C98.7396 183.703 98.2434 184.229 97.5994 184.608C96.9593 184.983 96.1979 185.17 95.3153 185.17ZM95.3267 183.295C95.7282 183.295 96.0634 183.182 96.3324 182.955C96.6013 182.723 96.804 182.409 96.9403 182.011C97.0805 181.614 97.1506 181.161 97.1506 180.653C97.1506 180.146 97.0805 179.693 96.9403 179.295C96.804 178.898 96.6013 178.583 96.3324 178.352C96.0634 178.121 95.7282 178.006 95.3267 178.006C94.9214 178.006 94.5805 178.121 94.304 178.352C94.0313 178.583 93.8248 178.898 93.6847 179.295C93.5483 179.693 93.4801 180.146 93.4801 180.653C93.4801 181.161 93.5483 181.614 93.6847 182.011C93.8248 182.409 94.0313 182.723 94.304 182.955C94.5805 183.182 94.9214 183.295 95.3267 183.295ZM105.128 185.17C104.245 185.17 103.482 184.983 102.838 184.608C102.198 184.229 101.704 183.703 101.355 183.028C101.007 182.35 100.832 181.564 100.832 180.67C100.832 179.769 101.007 178.981 101.355 178.307C101.704 177.629 102.198 177.102 102.838 176.727C103.482 176.348 104.245 176.159 105.128 176.159C106.01 176.159 106.772 176.348 107.412 176.727C108.056 177.102 108.552 177.629 108.901 178.307C109.249 178.981 109.423 179.769 109.423 180.67C109.423 181.564 109.249 182.35 108.901 183.028C108.552 183.703 108.056 184.229 107.412 184.608C106.772 184.983 106.01 185.17 105.128 185.17ZM105.139 183.295C105.541 183.295 105.876 183.182 106.145 182.955C106.414 182.723 106.616 182.409 106.753 182.011C106.893 181.614 106.963 181.161 106.963 180.653C106.963 180.146 106.893 179.693 106.753 179.295C106.616 178.898 106.414 178.583 106.145 178.352C105.876 178.121 105.541 178.006 105.139 178.006C104.734 178.006 104.393 178.121 104.116 178.352C103.844 178.583 103.637 178.898 103.497 179.295C103.361 179.693 103.293 180.146 103.293 180.653C103.293 181.161 103.361 181.614 103.497 182.011C103.637 182.409 103.844 182.723 104.116 182.955C104.393 183.182 104.734 183.295 105.139 183.295ZM114.929 188.455C114.145 188.455 113.473 188.347 112.912 188.131C112.355 187.919 111.912 187.629 111.582 187.261C111.253 186.894 111.039 186.481 110.94 186.023L113.179 185.722C113.247 185.896 113.355 186.059 113.503 186.21C113.651 186.362 113.846 186.483 114.088 186.574C114.334 186.669 114.634 186.716 114.986 186.716C115.512 186.716 115.946 186.587 116.287 186.33C116.632 186.076 116.804 185.65 116.804 185.051V183.455H116.702C116.596 183.697 116.437 183.926 116.224 184.142C116.012 184.358 115.74 184.534 115.406 184.67C115.073 184.807 114.675 184.875 114.213 184.875C113.558 184.875 112.961 184.723 112.423 184.42C111.889 184.114 111.463 183.646 111.145 183.017C110.83 182.384 110.673 181.585 110.673 180.619C110.673 179.631 110.834 178.805 111.156 178.142C111.478 177.479 111.906 176.983 112.44 176.653C112.978 176.324 113.567 176.159 114.207 176.159C114.696 176.159 115.105 176.242 115.435 176.409C115.764 176.572 116.029 176.777 116.23 177.023C116.435 177.265 116.592 177.504 116.702 177.739H116.793V176.273H119.196V185.085C119.196 185.828 119.014 186.449 118.651 186.949C118.287 187.449 117.783 187.824 117.139 188.074C116.499 188.328 115.762 188.455 114.929 188.455ZM114.98 183.057C115.37 183.057 115.7 182.96 115.969 182.767C116.241 182.57 116.45 182.29 116.594 181.926C116.741 181.559 116.815 181.119 116.815 180.608C116.815 180.097 116.743 179.653 116.599 179.278C116.455 178.9 116.247 178.606 115.974 178.398C115.702 178.189 115.37 178.085 114.98 178.085C114.582 178.085 114.247 178.193 113.974 178.409C113.702 178.621 113.495 178.917 113.355 179.295C113.215 179.674 113.145 180.112 113.145 180.608C113.145 181.112 113.215 181.547 113.355 181.915C113.499 182.278 113.705 182.561 113.974 182.761C114.247 182.958 114.582 183.057 114.98 183.057ZM123.543 173.364V185H121.122V173.364H123.543ZM129.459 185.17C128.561 185.17 127.788 184.989 127.141 184.625C126.497 184.258 126 183.739 125.652 183.068C125.304 182.394 125.129 181.597 125.129 180.676C125.129 179.778 125.304 178.991 125.652 178.312C126 177.634 126.491 177.106 127.124 176.727C127.76 176.348 128.506 176.159 129.362 176.159C129.938 176.159 130.474 176.252 130.97 176.438C131.47 176.619 131.906 176.894 132.277 177.261C132.652 177.629 132.944 178.091 133.152 178.648C133.36 179.201 133.464 179.848 133.464 180.591V181.256H126.095V179.756H131.186C131.186 179.407 131.11 179.098 130.959 178.83C130.807 178.561 130.597 178.35 130.328 178.199C130.063 178.044 129.754 177.966 129.402 177.966C129.035 177.966 128.709 178.051 128.425 178.222C128.144 178.388 127.925 178.614 127.766 178.898C127.607 179.178 127.525 179.491 127.521 179.835V181.261C127.521 181.693 127.601 182.066 127.76 182.381C127.923 182.695 128.152 182.938 128.447 183.108C128.743 183.278 129.093 183.364 129.499 183.364C129.768 183.364 130.014 183.326 130.237 183.25C130.461 183.174 130.652 183.061 130.811 182.909C130.97 182.758 131.091 182.572 131.175 182.352L133.413 182.5C133.3 183.038 133.067 183.508 132.714 183.909C132.366 184.307 131.915 184.617 131.362 184.841C130.813 185.061 130.179 185.17 129.459 185.17Z" fill="#6663CF"/>
<path d="M28.8192 188.73C28.3662 188.662 17.3986 187.195 17.8554 176.962C17.8974 176.022 18.0143 175.167 18.196 174.391M28.8192 188.73C22.8078 188.331 19.7531 185.969 18.386 183.139M28.8192 188.73C29.5466 188.838 30.2966 188.829 31.0387 188.711M18.196 174.391C18.4235 173.421 18.7526 172.575 19.1633 171.846M18.196 174.391C17.377 176.667 16.9484 180.162 18.386 183.139M19.1633 171.846C22.5305 165.863 31.3859 167.65 34.758 171.846C36.0811 173.493 38.8542 177.671 37.5028 182.894C36.6557 186.168 33.9073 188.256 31.0387 188.711M19.1633 171.846C17.8821 173.651 16.0231 177.879 17.6124 181.713M18.386 183.139C18.068 182.673 17.8128 182.196 17.6124 181.713M31.0387 188.711C27.2453 189.373 19.2493 188.9 17.6124 181.713" stroke="#6663CF" stroke-linecap="round"/>
<path d="M26.8714 232.149C26.0911 232.149 25.3941 232.014 24.7804 231.745C24.1706 231.476 23.6876 231.103 23.3316 230.626C22.9793 230.145 22.7899 229.588 22.7634 228.956H24.5475C24.5702 229.3 24.6857 229.6 24.8941 229.853C25.1062 230.103 25.3827 230.297 25.7236 230.433C26.0645 230.569 26.4433 230.637 26.86 230.637C27.3183 230.637 27.7236 230.558 28.0759 230.399C28.432 230.24 28.7104 230.018 28.9111 229.734C29.1119 229.446 29.2123 229.115 29.2123 228.74C29.2123 228.35 29.1119 228.007 28.9111 227.711C28.7142 227.412 28.4244 227.177 28.0418 227.007C27.663 226.836 27.2047 226.751 26.6668 226.751H25.6839V225.319H26.6668C27.0986 225.319 27.4774 225.242 27.8032 225.086C28.1327 224.931 28.3903 224.715 28.5759 224.439C28.7615 224.158 28.8543 223.831 28.8543 223.456C28.8543 223.096 28.7729 222.783 28.61 222.518C28.4509 222.249 28.2236 222.039 27.9282 221.887C27.6365 221.736 27.2918 221.66 26.8941 221.66C26.5153 221.66 26.1611 221.73 25.8316 221.87C25.5058 222.007 25.2407 222.204 25.0361 222.461C24.8316 222.715 24.7217 223.02 24.7066 223.376H23.0077C23.0267 222.747 23.2123 222.194 23.5645 221.717C23.9206 221.24 24.3903 220.867 24.9736 220.598C25.557 220.329 26.2047 220.194 26.9168 220.194C27.663 220.194 28.307 220.34 28.8486 220.632C29.3941 220.92 29.8145 221.304 30.11 221.785C30.4092 222.266 30.557 222.793 30.5532 223.365C30.557 224.016 30.3751 224.569 30.0077 225.024C29.6441 225.478 29.1592 225.783 28.5532 225.939V226.03C29.3259 226.147 29.9244 226.454 30.3486 226.95C30.7767 227.446 30.9888 228.062 30.985 228.797C30.9888 229.437 30.8107 230.011 30.4509 230.518C30.0948 231.026 29.6081 231.425 28.9907 231.717C28.3732 232.005 27.6668 232.149 26.8714 232.149ZM34.4012 232.098C34.0906 232.098 33.8235 231.988 33.6 231.768C33.3766 231.545 33.2648 231.276 33.2648 230.961C33.2648 230.651 33.3766 230.386 33.6 230.166C33.8235 229.942 34.0906 229.831 34.4012 229.831C34.7118 229.831 34.9788 229.942 35.2023 230.166C35.4258 230.386 35.5375 230.651 35.5375 230.961C35.5375 231.17 35.4845 231.361 35.3785 231.535C35.2762 231.706 35.1398 231.842 34.9694 231.944C34.7989 232.047 34.6095 232.098 34.4012 232.098ZM47.1073 220.326H57.3793V221.446H47.1073V220.326ZM48.6913 224.022V226.422H55.6833V224.022H48.6913ZM47.5873 222.998H56.8513V227.446H47.5873V222.998ZM48.5793 227.766C50.0833 230.278 53.3633 231.766 57.5233 232.23C57.2673 232.486 56.9633 232.966 56.8033 233.302C52.5633 232.694 49.2833 231.03 47.5873 228.102L48.5793 227.766ZM51.5553 218.614H52.7393V225.702C52.7393 228.79 52.2113 231.862 47.2513 233.334C47.1073 233.062 46.7713 232.582 46.5313 232.326C51.2833 231.126 51.5553 228.39 51.5553 225.686V218.614ZM46.4193 218.518L47.5553 218.87C46.4673 221.574 44.7553 224.262 42.9793 226.038C42.8673 225.766 42.5313 225.142 42.3073 224.854C43.9233 223.334 45.4913 220.95 46.4193 218.518ZM44.7393 222.71L45.8753 221.574L45.8913 221.59V233.35H44.7393V222.71ZM61.1073 219.686H71.4593V220.838H61.1073V219.686ZM61.1073 223.414H71.4433V224.55H61.1073V223.414ZM61.0273 227.238H71.4753V228.374H61.0273V227.238ZM60.4353 219.686H61.6193V225.494C61.6193 227.926 61.3313 231.238 59.4273 233.366C59.2353 233.126 58.7553 232.726 58.4993 232.566C60.2593 230.582 60.4353 227.734 60.4353 225.478V219.686ZM70.9793 219.686H72.1633V231.638C72.1633 232.422 71.9713 232.79 71.4433 232.998C70.8993 233.19 69.9713 233.206 68.4513 233.19C68.4033 232.87 68.2113 232.342 68.0353 232.022C69.1713 232.07 70.2593 232.054 70.5633 232.054C70.8673 232.038 70.9793 231.942 70.9793 231.638V219.686ZM65.4593 220.118H66.6753V233.126H65.4593V220.118ZM100.395 221.35H101.355V225.926C101.355 228.262 101.051 231.35 98.2353 233.19C98.0913 232.982 97.8033 232.646 97.5793 232.47C100.219 230.854 100.395 227.974 100.395 225.926V221.35ZM100.955 229.91L101.707 229.366C102.443 230.23 103.339 231.398 103.739 232.134L102.939 232.774C102.555 232.022 101.707 230.806 100.955 229.91ZM98.3473 219.318H103.355V229.126H102.395V220.31H99.2913V229.158H98.3473V219.318ZM103.755 224.79H112.107V225.91H103.755V224.79ZM108.635 225.43C109.243 228.246 110.539 230.79 112.427 232.006C112.155 232.198 111.803 232.63 111.611 232.934C109.611 231.494 108.299 228.806 107.595 225.67L108.635 225.43ZM104.971 233.366C104.891 233.094 104.667 232.63 104.491 232.39C104.763 232.262 105.195 231.958 105.195 231.318V218.886H106.315V232.294C106.315 232.294 104.971 232.95 104.971 233.366ZM110.443 219.254L111.547 219.606C110.635 221.414 109.163 223.158 107.739 224.294C107.547 224.07 107.115 223.622 106.859 223.414C108.267 222.406 109.627 220.87 110.443 219.254ZM104.971 233.366L104.843 232.31L105.323 231.846L108.683 230.646C108.683 230.966 108.731 231.446 108.779 231.686C105.691 232.95 105.243 233.142 104.971 233.366ZM115.691 221.03H116.939V224.518C116.939 227.142 116.603 230.886 114.555 233.366C114.347 233.142 113.819 232.774 113.515 232.646C115.483 230.278 115.691 226.934 115.691 224.518V221.03ZM120.027 218.774L121.195 218.47C121.563 219.222 121.979 220.182 122.171 220.806L120.955 221.174C120.779 220.534 120.363 219.526 120.027 218.774ZM116.475 221.03H126.507V227.558H125.291V222.166H116.475V221.03ZM116.475 225.382H125.947V226.502H116.475V225.382Z" fill="#2D3342"/>
<path d="M77.1009 220.353L79.9134 229.194H80.0214L82.8396 220.353H85.5669L81.5555 231.99H78.385L74.368 220.353H77.1009ZM86.9674 231.99V220.353H89.4276V225.484H89.5811L93.7686 220.353H96.7174L92.3992 225.564L96.7686 231.99H93.8254L90.6379 227.206L89.4276 228.683V231.99H86.9674Z" fill="#6663CF"/>
<path d="M28.8192 235.73C28.3662 235.662 17.3986 234.195 17.8554 223.962C17.8974 223.022 18.0143 222.167 18.196 221.391M28.8192 235.73C22.8078 235.331 19.7531 232.969 18.386 230.139M28.8192 235.73C29.5466 235.838 30.2966 235.829 31.0387 235.711M18.196 221.391C18.4235 220.421 18.7526 219.575 19.1633 218.846M18.196 221.391C17.377 223.667 16.9484 227.162 18.386 230.139M19.1633 218.846C22.5305 212.863 31.3859 214.65 34.758 218.846C36.0811 220.493 38.8542 224.671 37.5028 229.894C36.6557 233.168 33.9073 235.256 31.0387 235.711M19.1633 218.846C17.8821 220.651 16.0231 224.879 17.6124 228.713M18.386 230.139C18.068 229.673 17.8128 229.196 17.6124 228.713M31.0387 235.711C27.2453 236.373 19.2493 235.9 17.6124 228.713" stroke="#6663CF" stroke-linecap="round"/>
<defs>
<linearGradient id="paint0_linear_1398_7436" x1="143.515" y1="35" x2="184.828" y2="75.7115" gradientUnits="userSpaceOnUse">
<stop stop-color="#5955B3"/>
<stop offset="1" stop-color="#6563CE"/>
</linearGradient>
</defs>
</svg>
