<svg width="325" height="290" viewBox="0 0 325 290" fill="none" xmlns="http://www.w3.org/2000/svg">
<rect width="325" height="290" rx="5" fill="white"/>
<path d="M259.116 167.817C259.721 168.601 260.719 168.826 261.54 168.294C262.346 167.773 262.729 166.687 262.532 165.674M259.116 167.817C259.007 167.677 258.911 167.518 258.831 167.343C258.303 166.191 258.661 164.749 259.63 164.121C260.599 163.494 261.813 163.92 262.34 165.072C262.429 165.266 262.493 165.469 262.532 165.674M259.116 167.817C259.998 168.195 261.918 168.296 262.532 165.674" stroke="#5955B3" stroke-width="2" stroke-linecap="round"/>
<path d="M260.227 137.417C257.194 137.417 258.603 148.397 259.912 155.122C259.999 155.568 260.454 155.568 260.541 155.122C261.85 148.397 263.259 137.417 260.227 137.417Z" stroke="#5955B3" stroke-width="2" stroke-linecap="round"/>
<path d="M157.116 104.817C157.721 105.601 158.719 105.826 159.54 105.294C160.346 104.773 160.729 103.687 160.532 102.674M157.116 104.817C157.007 104.677 156.911 104.518 156.831 104.343C156.303 103.191 156.661 101.749 157.63 101.121C158.599 100.494 159.813 100.92 160.34 102.072C160.429 102.266 160.493 102.469 160.532 102.674M157.116 104.817C157.998 105.195 159.918 105.296 160.532 102.674" stroke="#EEBD40" stroke-width="2" stroke-linecap="round"/>
<path d="M158.227 74.4165C155.194 74.4165 156.603 85.3968 157.912 92.1224C157.999 92.5684 158.454 92.5684 158.541 92.1224C159.85 85.3968 161.259 74.4165 158.227 74.4165Z" stroke="#EEBD40" stroke-width="2" stroke-linecap="round"/>
<path d="M272.116 229.817C272.721 230.601 273.719 230.826 274.54 230.294C275.346 229.773 275.729 228.687 275.532 227.674M272.116 229.817C272.007 229.677 271.911 229.518 271.831 229.343C271.303 228.191 271.661 226.749 272.63 226.121C273.599 225.494 274.813 225.92 275.34 227.072C275.429 227.266 275.493 227.469 275.532 227.674M272.116 229.817C272.998 230.195 274.918 230.296 275.532 227.674" stroke="#EEBD40" stroke-width="2" stroke-linecap="round"/>
<path d="M273.227 199.417C270.194 199.417 271.603 210.397 272.912 217.122C272.999 217.568 273.454 217.568 273.541 217.122C274.85 210.397 276.259 199.417 273.227 199.417Z" stroke="#EEBD40" stroke-width="2" stroke-linecap="round"/>
<path opacity="0.2" fill-rule="evenodd" clip-rule="evenodd" d="M324.665 269.81C324.613 280.783 315.724 289.668 304.75 289.713H171.145C177.237 275.753 202.684 247.832 255.738 247.832C308.791 247.832 323.794 226.116 324.665 215.258V269.81Z" fill="#89AFFF"/>
<path opacity="0.2" fill-rule="evenodd" clip-rule="evenodd" d="M149.338 0C147.452 10.5057 135.894 40.0486 88.2781 53.4492C42.0803 66.4509 11.6464 61.9796 0.329107 57.7773L0.329104 20C0.329102 8.95432 9.28337 1.09491e-05 20.3291 1.00855e-05L149.338 0Z" fill="#89AFFF"/>
<path d="M117.016 30.784L118.912 28.576C120.856 29.488 123.4 31 124.624 32.176L122.56 34.648C121.456 33.448 118.984 31.816 117.016 30.784ZM115.432 40.528H127.888V43.288H115.432V40.528ZM113.704 47.656H129.28V50.392H113.704V47.656ZM114.568 33.856H128.776V36.592H114.568V33.856ZM120.04 34.768H123.04V48.88H120.04V34.768ZM108.256 30.856L109.816 28.744C111.352 29.296 113.392 30.328 114.4 31.192L112.72 33.544C111.784 32.68 109.816 31.528 108.256 30.856ZM106.648 37.384L108.136 35.2C109.696 35.728 111.784 36.712 112.816 37.504L111.232 39.904C110.272 39.088 108.232 38.008 106.648 37.384ZM107.68 48.928C108.952 47.128 110.8 44.128 112.24 41.368L114.352 43.264C113.08 45.808 111.544 48.544 110.104 50.872L107.68 48.928ZM134.848 30.112H139.672V32.776H134.848V30.112ZM130.792 38.008H153.16V40.768H130.792V38.008ZM133.312 30.112H136.072V37.96C136.072 41.92 135.592 47.824 132.784 51.376C132.376 50.8 131.272 49.696 130.72 49.336C133.12 46.144 133.312 41.464 133.312 37.96V30.112ZM138.208 30.112H140.968V48.112C140.968 49.384 140.728 50.104 139.912 50.56C139.12 50.992 137.992 51.04 136.36 51.04C136.264 50.344 135.856 49.168 135.496 48.496C136.408 48.544 137.44 48.544 137.752 48.52C138.088 48.52 138.208 48.4 138.208 48.064V30.112ZM144.328 30.112H149.224V32.776H144.328V30.112ZM142.768 30.112H145.552V38.08C145.552 41.968 145.168 47.776 142.672 51.304C142.24 50.752 141.064 49.672 140.512 49.312C142.6 46.168 142.768 41.536 142.768 38.08V30.112ZM148.048 30.112H150.904V47.992C150.904 49.336 150.64 50.104 149.824 50.584C149.008 51.04 147.856 51.088 146.2 51.088C146.08 50.344 145.696 49.096 145.312 48.4C146.248 48.448 147.304 48.448 147.592 48.424C147.952 48.4 148.048 48.28 148.048 47.968V30.112ZM156.928 30.496H163.84V46.72H156.928V44.152H161.176V33.064H156.928V30.496ZM157.096 37.264H161.92V39.784H157.096V37.264ZM155.56 30.496H158.272V48.64H155.56V30.496ZM164.752 33.064H177.28V35.92H164.752V33.064ZM171.904 28.768H174.832V47.32C174.832 49.048 174.472 49.84 173.392 50.272C172.312 50.752 170.632 50.824 168.232 50.8C168.088 49.984 167.632 48.688 167.224 47.896C168.88 47.968 170.68 47.968 171.208 47.944C171.712 47.944 171.904 47.776 171.904 47.296V28.768ZM164.992 38.752L167.368 37.48C168.544 39.136 170.176 41.392 170.968 42.784L168.424 44.272C167.704 42.856 166.144 40.48 164.992 38.752ZM179.08 48.208H200.944V50.464H179.08V48.208ZM179.224 32.896H200.776V35.152H179.224V32.896ZM180.856 44.776H199.384V46.96H180.856V44.776ZM188.44 30.856H191.32V49.36H188.44V30.856ZM197.248 28.648L198.568 30.856C193.888 31.624 187.216 31.984 181.6 32.032C181.576 31.384 181.264 30.4 181.024 29.824C186.64 29.704 193.168 29.296 197.248 28.648ZM184.456 40.744V41.824H195.544V40.744H184.456ZM184.456 37.936V39.016H195.544V37.936H184.456ZM181.648 36.04H198.496V43.72H181.648V36.04ZM202.984 41.632H225.016V43.96H202.984V41.632ZM203.44 29.464H224.44V31.96H203.44V29.464ZM210.976 39.328L213.808 40.048C212.272 42.592 210.232 45.616 208.768 47.536L205.984 46.696C207.472 44.776 209.584 41.68 210.976 39.328ZM217.936 42.496L220.72 43.216C218.344 48.88 213.4 50.512 204.496 51.208C204.304 50.368 203.872 49.36 203.416 48.736C211.504 48.4 216.016 47.104 217.936 42.496ZM207.64 46.888L209.104 44.824C214.624 45.952 220.6 47.608 224.2 48.928L222.472 51.256C218.992 49.84 213.376 48.112 207.64 46.888ZM209.752 30.448H212.464V38.656H209.752V30.448ZM215.2 30.448H217.912V38.656H215.2V30.448ZM207.232 35.584V37.84H220.792V35.584H207.232ZM204.544 33.328H223.672V40.096H204.544V33.328Z" fill="url(#paint0_linear_1398_7456)"/>
<path d="M28.35 91.46L29.415 91.79C28.395 94.37 26.835 96.95 25.185 98.645C25.065 98.39 24.735 97.805 24.54 97.55C26.055 96.065 27.48 93.785 28.35 91.46ZM26.82 95.33L27.9 94.235L27.915 94.25V105.185H26.82V95.33ZM28.89 96.59H38.325V97.7H28.89V96.59ZM33.105 91.565H34.26V105.2H33.105V91.565ZM47.4 95.15L48.645 95.66C47.115 98.405 44.895 101.81 43.155 103.955L42.195 103.475C43.92 101.285 46.125 97.79 47.4 95.15ZM40.65 103.28C43.38 103.16 47.73 102.89 51.75 102.62L51.735 103.7C47.805 104 43.605 104.3 40.83 104.465L40.65 103.28ZM48.135 99.905L49.155 99.32C50.73 100.865 52.38 102.965 53.115 104.405L52.035 105.11C51.315 103.655 49.665 101.435 48.135 99.905ZM45.45 91.505L46.635 91.94C45.18 94.295 42.915 96.89 40.605 98.585C40.395 98.33 39.99 97.94 39.72 97.73C41.97 96.17 44.265 93.635 45.45 91.505ZM58.71 95.585H64.275V96.56H58.71V95.585ZM54.975 103.91H68.04V104.855H54.975V103.91ZM55.875 91.985H60.315V92.93H55.875V91.985ZM59.955 91.985H60.15L60.36 91.925L61.08 92.3C59.955 95.18 57.45 97.325 55.065 98.435C54.915 98.195 54.615 97.805 54.39 97.61C56.595 96.68 59.025 94.58 59.955 92.195V91.985ZM62.49 91.445C63.645 93.995 65.94 96.32 68.535 97.325C68.265 97.55 67.95 97.955 67.77 98.255C65.115 97.055 62.82 94.61 61.545 91.76L62.49 91.445ZM55.47 94.1L56.07 93.485C56.865 93.935 57.795 94.625 58.23 95.165L57.6 95.855C57.15 95.33 56.25 94.58 55.47 94.1ZM65.505 91.535L66.36 92.135C65.58 92.87 64.545 93.68 63.765 94.205L63.075 93.665C63.84 93.11 64.905 92.195 65.505 91.535ZM67.185 93.305L68.025 93.905C67.23 94.655 66.15 95.465 65.325 95.975L64.635 95.435C65.445 94.895 66.555 93.98 67.185 93.305ZM58.44 98.72V100.7H64.515V98.72H58.44ZM57.33 97.79H65.67V101.63H57.33V97.79ZM58.2 101.87L59.235 101.585C59.655 102.23 60.045 103.115 60.195 103.7L59.13 104.03C58.98 103.445 58.605 102.53 58.2 101.87ZM63.78 101.54L64.875 101.84C64.47 102.635 64.02 103.46 63.645 104.045L62.685 103.76C63.06 103.175 63.54 102.2 63.78 101.54ZM69.99 97.085H83.1V98.09H69.99V97.085ZM75.9 97.595H77.055V103.985C77.055 104.63 76.89 104.915 76.41 105.065C75.945 105.23 75.195 105.245 74.025 105.23C73.95 104.945 73.785 104.54 73.635 104.24C74.505 104.285 75.345 104.285 75.6 104.27C75.84 104.255 75.9 104.18 75.9 103.97V97.595ZM76.92 98.24C78 100.82 80.295 102.83 83.295 103.64C83.04 103.865 82.71 104.3 82.545 104.615C79.485 103.64 77.235 101.45 76.005 98.51L76.92 98.24ZM81.135 98.45L82.095 99.155C81.09 100.025 79.77 100.97 78.765 101.585L77.985 100.955C78.99 100.325 80.34 99.26 81.135 98.45ZM71.01 99.245L71.76 98.555C72.705 99.08 73.935 99.86 74.535 100.445L73.74 101.225C73.17 100.64 71.985 99.8 71.01 99.245ZM70.02 103.19C71.55 102.62 74.01 101.63 76.29 100.685L76.515 101.645C74.46 102.545 72.255 103.505 70.62 104.195L70.02 103.19ZM71.46 94.67H80.445V95.705H71.46V94.67ZM80.115 92.24H80.235L80.445 92.195L81.33 92.255C81.285 93.86 81.15 96.035 81 97.67L79.845 97.61C79.98 95.945 80.085 93.59 80.115 92.39V92.24ZM71.01 92.24H80.43V93.29H71.01V92.24ZM85.335 94.505H97.755V95.585H85.335V94.505ZM84.78 98.84H98.235V99.92H84.78V98.84ZM93.615 95.06H94.77V105.2H93.615V95.06ZM88.275 95.06H89.385V98.48C89.385 100.97 88.965 103.565 85.545 105.32C85.395 105.05 85.02 104.66 84.78 104.45C87.915 102.875 88.275 100.61 88.275 98.465V95.06ZM87.255 91.805L88.245 91.415C88.905 92.21 89.58 93.305 89.865 94.025L88.815 94.49C88.56 93.77 87.9 92.63 87.255 91.805ZM94.62 91.37L95.88 91.76C95.295 92.69 94.62 93.77 94.065 94.445L93.09 94.085C93.63 93.35 94.275 92.195 94.62 91.37ZM100.035 92.465H112.95V93.605H100.035V92.465ZM107.385 96.83L108.225 96.11C109.98 97.25 112.275 98.945 113.385 100.1L112.47 100.955C111.42 99.8 109.17 98.045 107.385 96.83ZM107.1 92.855L108.33 93.305C106.62 96.41 103.815 99.38 100.425 101.165C100.245 100.88 99.885 100.43 99.66 100.19C102.915 98.555 105.705 95.675 107.1 92.855ZM105.87 95.855L107.085 94.655V105.185H105.87V95.855ZM114.78 103.805H128.235V104.735H114.78V103.805ZM114.855 94.07H128.145V95H114.855V94.07ZM115.89 101.615H127.275V102.515H115.89V101.615ZM120.87 92.555H121.995V104.255H120.87V92.555ZM126.09 91.49L126.69 92.36C124.005 92.855 119.73 93.11 116.22 93.185C116.22 92.915 116.085 92.525 115.98 92.285C119.475 92.195 123.72 91.925 126.09 91.49ZM117.465 98.6V99.755H125.58V98.6H117.465ZM117.465 96.71V97.85H125.58V96.71H117.465ZM116.37 95.9H126.72V100.565H116.37V95.9ZM129.675 99.605H143.325V100.55H129.675V99.605ZM130.035 92.06H142.95V93.05H130.035V92.06ZM134.88 98.03L135.975 98.33C135 99.89 133.62 101.855 132.66 103.085L131.595 102.725C132.555 101.51 133.95 99.5 134.88 98.03ZM139.38 99.935L140.46 100.25C139.14 103.55 135.945 104.78 130.32 105.2C130.245 104.87 130.065 104.465 129.885 104.21C135.24 103.925 138.18 102.86 139.38 99.935ZM132.405 102.575L132.975 101.75C136.68 102.41 140.535 103.415 142.86 104.33L142.185 105.245C139.89 104.3 136.215 103.28 132.405 102.575ZM134.13 92.435H135.195V97.67H134.13V92.435ZM137.625 92.435H138.69V97.67H137.625V92.435ZM131.835 95.255V97.295H141.195V95.255H131.835ZM130.785 94.34H142.32V98.225H130.785V94.34Z" fill="#EEBD40"/>
<path d="M58.46 156.565H65.705V157.6H58.46V156.565ZM57.95 145.915H63.455V146.92H57.95V145.915ZM58.625 144.355L59.885 144.61C58.76 146.56 56.96 148.6 54.35 150.145C54.185 149.86 53.81 149.47 53.555 149.275C56.03 147.925 57.755 145.99 58.625 144.355ZM63.08 145.915H63.29L63.5 145.855L64.25 146.26C62.45 150.79 58.22 153.805 54.14 155.125C54.005 154.825 53.72 154.36 53.48 154.12C57.365 152.995 61.52 150.055 63.08 146.11V145.915ZM56.075 148.585L56.915 147.865C58.1 148.675 59.54 149.875 60.23 150.73L59.315 151.54C58.685 150.685 57.26 149.425 56.075 148.585ZM65.15 151.825H66.305V158.23H65.15V151.825ZM58.97 151.825H65.72V152.86H58.97V158.2H57.845V152.71L58.745 151.825H58.97ZM71.495 148.75H78.695V149.785H71.495V148.75ZM69.05 152.515H81.98V153.58H69.05V152.515ZM74.915 151.39H76.1V156.805C76.1 157.48 75.935 157.81 75.395 157.99C74.87 158.17 74.075 158.185 72.8 158.185C72.725 157.855 72.5 157.375 72.305 157.06C73.325 157.09 74.3 157.09 74.57 157.075C74.84 157.06 74.915 157 74.915 156.79V151.39ZM78.35 148.75H78.65L78.905 148.69L79.64 149.245C78.65 150.34 77.165 151.51 75.785 152.215C75.65 152.005 75.35 151.72 75.17 151.57C76.34 150.94 77.675 149.815 78.35 148.975V148.75ZM74.885 144.385H76.07V146.8H74.885V144.385ZM69.2 146.035H81.785V149.56H80.63V147.1H70.31V149.56H69.2V146.035ZM91.37 155.215H96.02V156.295H91.37V155.215ZM90.95 145.81H96.545V157.435H95.405V146.875H92.045V157.54H90.95V145.81ZM86.69 145.675H87.815V158.185H86.69V145.675ZM83.75 148.84H90.44V149.89H83.75V148.84ZM86.63 149.215L87.425 149.5C86.72 151.825 85.34 154.6 83.99 156.04C83.87 155.725 83.585 155.275 83.39 155.005C84.65 153.715 86.03 151.285 86.63 149.215ZM89.57 144.55L90.335 145.42C88.73 146.02 86.27 146.455 84.215 146.695C84.155 146.44 84.02 146.065 83.885 145.81C85.88 145.54 88.265 145.09 89.57 144.55ZM87.725 150.19C88.205 150.67 89.945 152.71 90.335 153.205L89.645 154.12C89.165 153.325 87.71 151.405 87.155 150.745L87.725 150.19ZM105.515 145.195L106.61 145.375C106.22 147.565 105.515 149.665 104.585 151.045C104.375 150.88 103.88 150.58 103.61 150.43C104.555 149.17 105.17 147.205 105.515 145.195ZM107.765 144.535H108.89V157.465H107.765V144.535ZM104.855 152.005H111.845V153.055H104.855V152.005ZM103.82 156.79H112.4V157.855H103.82V156.79ZM105.5 147.67H112.01V148.735H105.08L105.5 147.67ZM98.6 147.505H103.205V148.555H98.6V147.505ZM100.655 144.415L101.735 144.52C101.195 147.505 100.34 151.525 99.71 154.015L98.78 153.505C99.38 151.24 100.19 147.25 100.655 144.415ZM99.26 152.935L99.92 152.14C101.465 153.22 103.325 154.78 104.165 155.875L103.445 156.805C102.62 155.665 100.805 154.03 99.26 152.935ZM102.815 147.505H103.01L103.205 147.475L103.85 147.565C103.505 153.415 102.05 156.58 99.41 158.215C99.245 157.945 98.96 157.54 98.72 157.3C101.09 155.995 102.515 152.845 102.815 147.73V147.505ZM120.905 146.125H122.105C122.09 152.32 123.5 157.12 125.735 157.105C126.2 157.105 126.38 156.505 126.47 154.795C126.725 155.05 127.145 155.275 127.445 155.395C127.25 157.63 126.815 158.26 125.66 158.26C122.405 158.26 120.995 152.725 120.905 146.125ZM116.135 150.16H127.235V151.27H116.135V150.16ZM115.535 145.885L116.675 146.185V157.015H115.535V145.885ZM125.165 144.46L126.065 145.405C123.47 146.17 119.555 146.785 116.195 147.16C116.15 146.875 116 146.44 115.865 146.185C119.15 145.795 122.99 145.15 125.165 144.46ZM113.825 156.775C115.7 156.49 118.64 155.98 121.4 155.47L121.46 156.565C118.865 157.06 116.09 157.585 114.125 157.96L113.825 156.775ZM132.605 148.045H133.775V156.115C133.775 156.82 133.955 156.955 134.795 156.955C135.215 156.955 137.165 156.955 137.705 156.955C138.575 156.955 138.71 156.46 138.83 154.075C139.115 154.285 139.595 154.495 139.925 154.57C139.745 157.27 139.4 158.08 137.765 158.08C137.375 158.08 135.08 158.08 134.705 158.08C133.07 158.08 132.605 157.66 132.605 156.085V148.045ZM132.635 145.24L133.37 144.445C134.66 145.285 136.295 146.515 137.165 147.22L136.415 148.135C135.545 147.37 133.895 146.11 132.635 145.24ZM130.205 148.945L131.255 149.215C130.925 150.88 130.37 153.04 129.53 154.36L128.465 153.925C129.32 152.62 129.905 150.58 130.205 148.945ZM139.07 149.92L140.075 149.455C141.125 150.955 142.13 152.92 142.55 154.24L141.47 154.78C141.095 153.445 140.075 151.42 139.07 149.92ZM139.865 145.3L140.975 145.765C138.515 150.445 134.555 154.765 129.215 157.315C129.05 157.06 128.72 156.655 128.48 156.43C133.655 154.075 137.69 149.74 139.865 145.3ZM148.685 145.075H157.01V146.125H148.685V145.075ZM152.18 145.57L153.5 145.735C153.2 146.605 152.885 147.55 152.6 148.165L151.58 147.97C151.805 147.295 152.075 146.275 152.18 145.57ZM152.33 149.695H153.455V152.695C153.455 154.555 152.81 156.82 148.895 158.245C148.76 158.005 148.415 157.615 148.175 157.405C152.06 156.22 152.33 154.24 152.33 152.68V149.695ZM153.32 155.65L153.89 154.855C155.09 155.56 156.665 156.595 157.43 157.285L156.83 158.215C156.065 157.48 154.535 156.385 153.32 155.65ZM149.39 147.595H156.35V154.72H155.18V148.645H150.515V154.75H149.39V147.595ZM147.065 144.67L148.115 145.09C147.23 146.35 145.895 147.58 144.665 148.375C144.47 148.135 144.155 147.805 143.855 147.61C144.995 146.935 146.33 145.765 147.065 144.67ZM147.47 148.66L148.505 149.095C147.515 150.43 145.97 151.735 144.605 152.56C144.41 152.32 144.08 151.99 143.81 151.78C145.1 151.06 146.66 149.815 147.47 148.66ZM147.755 152.92L148.805 153.31C147.8 155.11 146.15 156.685 144.38 157.69C144.2 157.405 143.87 157.045 143.585 156.82C145.25 155.98 146.885 154.495 147.755 152.92ZM161.9 149.86H169.07V150.91H161.9V149.86ZM162.635 146.545H170.645V147.625H162.635V146.545ZM158.795 153.1H172.22V154.18H158.795V153.1ZM168.665 149.86H169.82C169.82 149.86 169.805 150.235 169.775 150.4C169.34 155.095 168.92 156.97 168.215 157.66C167.84 158.05 167.48 158.14 166.865 158.185C166.325 158.23 165.26 158.2 164.165 158.14C164.15 157.81 164 157.33 163.775 157.015C164.93 157.12 166.04 157.135 166.475 157.135C166.85 157.135 167.045 157.105 167.255 156.94C167.855 156.43 168.26 154.54 168.665 150.07V149.86ZM162.53 144.385L163.7 144.49C163.265 146.815 162.59 149.89 162.125 151.69L160.955 151.57C161.48 149.755 162.155 146.635 162.53 144.385ZM173.57 152.38C174.845 152.065 176.735 151.495 178.58 150.955L178.745 151.99C177.035 152.515 175.25 153.07 173.87 153.49L173.57 152.38ZM173.795 147.43H178.655V148.51H173.795V147.43ZM175.82 144.415H176.915V156.805C176.915 157.42 176.78 157.75 176.39 157.93C176 158.11 175.4 158.14 174.395 158.14C174.35 157.855 174.215 157.375 174.05 157.06C174.74 157.075 175.355 157.075 175.535 157.075C175.745 157.075 175.82 157.015 175.82 156.79V144.415ZM180.455 150.88H186.335V151.945H180.455V150.88ZM180.41 146.995H186.86V152.89H185.75V148.03H180.41V146.995ZM179.705 146.995H180.815V151.03C180.815 153.25 180.53 156.28 178.73 158.23C178.565 158.005 178.085 157.6 177.83 157.45C179.51 155.605 179.705 153.025 179.705 151.015V146.995ZM181.85 144.85L182.855 144.46C183.44 145.105 184.04 145.975 184.295 146.56L183.245 147.025C183.005 146.41 182.405 145.51 181.85 144.85ZM189.38 145.06H190.445V154.405H189.38V145.06ZM189.95 145.06H193.76V153.655H189.95V152.62H192.71V146.065H189.95V145.06ZM189.935 148.69H193.25V149.695H189.935V148.69ZM194.405 145.03H201.125V146.035H194.405V145.03ZM200.765 145.03H201.845C201.845 145.03 201.845 145.315 201.83 145.465C201.68 147.64 201.545 148.54 201.215 148.885C200.99 149.125 200.72 149.2 200.33 149.23C199.985 149.26 199.325 149.26 198.635 149.23C198.605 148.945 198.5 148.555 198.35 148.285C198.995 148.345 199.61 148.36 199.85 148.36C200.075 148.36 200.21 148.33 200.315 148.225C200.54 148 200.66 147.235 200.765 145.18V145.03ZM197.015 145.345H198.14C197.87 147.535 197.135 148.975 194.555 149.755C194.45 149.5 194.165 149.11 193.925 148.915C196.22 148.285 196.82 147.115 197.015 145.345ZM195.92 150.91V153.19H200.3V150.91H195.92ZM194.855 149.965H201.41V154.135H194.855V149.965ZM193.1 155.14L194.135 155.02C194.33 155.995 194.495 157.24 194.51 157.99L193.4 158.155C193.4 157.39 193.28 156.115 193.1 155.14ZM196.31 155.095L197.36 154.9C197.765 155.83 198.17 157.09 198.32 157.87L197.21 158.11C197.075 157.345 196.7 156.055 196.31 155.095ZM199.37 155.005L200.375 154.6C201.095 155.575 201.965 156.91 202.34 157.75L201.26 158.23C200.915 157.39 200.075 156.01 199.37 155.005ZM190.61 154.705L191.675 155.005C191.15 156.13 190.4 157.42 189.71 158.275L188.63 157.81C189.32 157.045 190.1 155.8 190.61 154.705ZM210.05 149.26H216.215V150.385H210.05V149.26ZM203.765 156.37H217.235V157.495H203.765V156.37ZM209.405 144.625H210.59V156.97H209.405V144.625ZM219.965 146.815H224.525V156.625H219.965V155.605H223.475V147.82H219.965V146.815ZM219.29 146.815H220.34V157.825H219.29V146.815ZM219.89 150.985H224.03V151.99H219.89V150.985ZM221.585 144.37L222.8 144.595C222.5 145.525 222.125 146.56 221.825 147.235L220.925 147.01C221.18 146.29 221.465 145.15 221.585 144.37ZM226.655 146.77H231.26V147.82H226.655V146.77ZM230.87 146.77H231.92C231.92 146.77 231.92 147.19 231.92 147.355C231.68 154.24 231.47 156.565 230.87 157.3C230.54 157.735 230.195 157.87 229.67 157.915C229.16 157.975 228.275 157.945 227.435 157.9C227.405 157.57 227.27 157.105 227.06 156.805C228.035 156.88 228.935 156.895 229.28 156.895C229.58 156.895 229.76 156.85 229.925 156.655C230.42 156.115 230.66 153.625 230.87 147.01V146.77ZM226.97 144.34L228.05 144.595C227.495 146.83 226.61 149.035 225.575 150.46C225.38 150.28 224.915 149.965 224.645 149.815C225.665 148.495 226.49 146.425 226.97 144.34ZM226.28 150.67L227.15 150.16C228.005 151.225 229.04 152.68 229.52 153.565L228.56 154.165C228.11 153.25 227.105 151.765 226.28 150.67ZM238.46 156.565H245.705V157.6H238.46V156.565ZM237.95 145.915H243.455V146.92H237.95V145.915ZM238.625 144.355L239.885 144.61C238.76 146.56 236.96 148.6 234.35 150.145C234.185 149.86 233.81 149.47 233.555 149.275C236.03 147.925 237.755 145.99 238.625 144.355ZM243.08 145.915H243.29L243.5 145.855L244.25 146.26C242.45 150.79 238.22 153.805 234.14 155.125C234.005 154.825 233.72 154.36 233.48 154.12C237.365 152.995 241.52 150.055 243.08 146.11V145.915ZM236.075 148.585L236.915 147.865C238.1 148.675 239.54 149.875 240.23 150.73L239.315 151.54C238.685 150.685 237.26 149.425 236.075 148.585ZM245.15 151.825H246.305V158.23H245.15V151.825ZM238.97 151.825H245.72V152.86H238.97V158.2H237.845V152.71L238.745 151.825H238.97ZM56.495 165.75H63.695V166.785H56.495V165.75ZM54.05 169.515H66.98V170.58H54.05V169.515ZM59.915 168.39H61.1V173.805C61.1 174.48 60.935 174.81 60.395 174.99C59.87 175.17 59.075 175.185 57.8 175.185C57.725 174.855 57.5 174.375 57.305 174.06C58.325 174.09 59.3 174.09 59.57 174.075C59.84 174.06 59.915 174 59.915 173.79V168.39ZM63.35 165.75H63.65L63.905 165.69L64.64 166.245C63.65 167.34 62.165 168.51 60.785 169.215C60.65 169.005 60.35 168.72 60.17 168.57C61.34 167.94 62.675 166.815 63.35 165.975V165.75ZM59.885 161.385H61.07V163.8H59.885V161.385ZM54.2 163.035H66.785V166.56H65.63V164.1H55.31V166.56H54.2V163.035ZM76.37 172.215H81.02V173.295H76.37V172.215ZM75.95 162.81H81.545V174.435H80.405V163.875H77.045V174.54H75.95V162.81ZM71.69 162.675H72.815V175.185H71.69V162.675ZM68.75 165.84H75.44V166.89H68.75V165.84ZM71.63 166.215L72.425 166.5C71.72 168.825 70.34 171.6 68.99 173.04C68.87 172.725 68.585 172.275 68.39 172.005C69.65 170.715 71.03 168.285 71.63 166.215ZM74.57 161.55L75.335 162.42C73.73 163.02 71.27 163.455 69.215 163.695C69.155 163.44 69.02 163.065 68.885 162.81C70.88 162.54 73.265 162.09 74.57 161.55ZM72.725 167.19C73.205 167.67 74.945 169.71 75.335 170.205L74.645 171.12C74.165 170.325 72.71 168.405 72.155 167.745L72.725 167.19ZM90.515 162.195L91.61 162.375C91.22 164.565 90.515 166.665 89.585 168.045C89.375 167.88 88.88 167.58 88.61 167.43C89.555 166.17 90.17 164.205 90.515 162.195ZM92.765 161.535H93.89V174.465H92.765V161.535ZM89.855 169.005H96.845V170.055H89.855V169.005ZM88.82 173.79H97.4V174.855H88.82V173.79ZM90.5 164.67H97.01V165.735H90.08L90.5 164.67ZM83.6 164.505H88.205V165.555H83.6V164.505ZM85.655 161.415L86.735 161.52C86.195 164.505 85.34 168.525 84.71 171.015L83.78 170.505C84.38 168.24 85.19 164.25 85.655 161.415ZM84.26 169.935L84.92 169.14C86.465 170.22 88.325 171.78 89.165 172.875L88.445 173.805C87.62 172.665 85.805 171.03 84.26 169.935ZM87.815 164.505H88.01L88.205 164.475L88.85 164.565C88.505 170.415 87.05 173.58 84.41 175.215C84.245 174.945 83.96 174.54 83.72 174.3C86.09 172.995 87.515 169.845 87.815 164.73V164.505ZM105.905 163.125H107.105C107.09 169.32 108.5 174.12 110.735 174.105C111.2 174.105 111.38 173.505 111.47 171.795C111.725 172.05 112.145 172.275 112.445 172.395C112.25 174.63 111.815 175.26 110.66 175.26C107.405 175.26 105.995 169.725 105.905 163.125ZM101.135 167.16H112.235V168.27H101.135V167.16ZM100.535 162.885L101.675 163.185V174.015H100.535V162.885ZM110.165 161.46L111.065 162.405C108.47 163.17 104.555 163.785 101.195 164.16C101.15 163.875 101 163.44 100.865 163.185C104.15 162.795 107.99 162.15 110.165 161.46ZM98.825 173.775C100.7 173.49 103.64 172.98 106.4 172.47L106.46 173.565C103.865 174.06 101.09 174.585 99.125 174.96L98.825 173.775ZM113.66 167.535H127.385V168.765H113.66V167.535ZM128.69 162.36H135.41V163.41H128.69V162.36ZM129.02 169.35H135.17V170.385H129.02V169.35ZM131.465 167.595H132.545V173.31H131.465V167.595ZM128.57 173.25C130.31 173.01 133.01 172.545 135.575 172.11L135.635 173.175C133.175 173.625 130.58 174.075 128.75 174.405L128.57 173.25ZM128.54 166.44C130.025 166.365 132.245 166.2 134.435 166.02L134.45 166.995C132.365 167.19 130.22 167.355 128.675 167.49L128.54 166.44ZM130.88 162.945L132.035 163.215C131.525 164.49 130.88 166.05 130.325 167.01L129.425 166.74C129.935 165.735 130.55 164.085 130.88 162.945ZM132.77 164.655L133.655 164.22C134.345 165.135 135.125 166.35 135.44 167.13L134.495 167.64C134.195 166.845 133.445 165.57 132.77 164.655ZM136.7 164.205H142.325V165.255H136.7V164.205ZM137.075 161.4L138.23 161.595C137.705 164.385 136.805 167.01 135.575 168.72C135.365 168.51 134.885 168.15 134.615 167.97C135.83 166.425 136.625 163.95 137.075 161.4ZM140.285 164.79L141.425 164.925C140.615 170.145 138.89 173.325 134.93 175.245C134.825 174.975 134.48 174.465 134.27 174.24C138.02 172.59 139.595 169.59 140.285 164.79ZM137.165 165.165C137.885 169.335 139.475 172.815 142.52 174.255C142.25 174.48 141.905 174.915 141.725 175.215C138.545 173.55 136.97 169.935 136.145 165.345L137.165 165.165Z" fill="#5955B3"/>
<path d="M78.02 207.415L79.055 207.67C78.47 209.275 77.495 210.805 76.445 211.825C76.28 211.63 75.86 211.27 75.605 211.105C76.625 210.22 77.51 208.855 78.02 207.415ZM77.96 211.195L79.01 211.465C78.545 212.65 77.765 213.82 77.015 214.6C76.805 214.435 76.355 214.15 76.1 214.015C76.88 213.295 77.555 212.245 77.96 211.195ZM77.87 208.885H84.38V209.875H77.48L77.87 208.885ZM80.075 209.56H81.155V214.78C81.155 215.35 81.05 215.65 80.63 215.815C80.24 215.98 79.625 215.995 78.68 215.995C78.62 215.695 78.47 215.275 78.305 214.99C79.01 215.02 79.64 215.02 79.835 215.005C80.03 214.99 80.075 214.945 80.075 214.78V209.56ZM81.98 211.525L82.91 211.12C83.645 212.095 84.38 213.415 84.695 214.285L83.72 214.75C83.42 213.865 82.685 212.5 81.98 211.525ZM84.065 208.885H84.245L84.425 208.855L85.205 209.05C84.83 209.995 84.365 211.09 84.005 211.75L83.03 211.555C83.375 210.925 83.78 209.89 84.065 209.05V208.885ZM75.485 216.73H76.595V219.445C76.595 219.85 76.745 219.925 77.54 219.925C77.915 219.925 79.79 219.925 80.285 219.925C80.945 219.925 81.05 219.73 81.125 218.245C81.365 218.44 81.815 218.605 82.13 218.68C81.995 220.495 81.65 220.945 80.36 220.945C80.015 220.945 77.78 220.945 77.45 220.945C75.89 220.945 75.485 220.63 75.485 219.445V216.73ZM76.775 216.28L77.525 215.605C78.485 216.07 79.64 216.835 80.18 217.435L79.37 218.17C78.86 217.57 77.75 216.76 76.775 216.28ZM81.71 217.195L82.64 216.67C83.75 217.615 84.92 218.965 85.385 219.985L84.38 220.555C83.945 219.565 82.835 218.155 81.71 217.195ZM73.655 216.91L74.66 217.24C74.285 218.59 73.7 219.925 72.515 220.72L71.585 220.075C72.695 219.37 73.34 218.17 73.655 216.91ZM75.095 207.4L76.1 207.745C75.125 209.605 73.61 211.45 72.155 212.635C72.02 212.41 71.645 211.96 71.42 211.765C72.83 210.7 74.24 209.05 75.095 207.4ZM73.715 210.22L74.78 209.155L74.795 209.17V215.98H73.715V210.22ZM87.965 209.815H92.525V219.625H87.965V218.605H91.475V210.82H87.965V209.815ZM87.29 209.815H88.34V220.825H87.29V209.815ZM87.89 213.985H92.03V214.99H87.89V213.985ZM89.585 207.37L90.8 207.595C90.5 208.525 90.125 209.56 89.825 210.235L88.925 210.01C89.18 209.29 89.465 208.15 89.585 207.37ZM94.655 209.77H99.26V210.82H94.655V209.77ZM98.87 209.77H99.92C99.92 209.77 99.92 210.19 99.92 210.355C99.68 217.24 99.47 219.565 98.87 220.3C98.54 220.735 98.195 220.87 97.67 220.915C97.16 220.975 96.275 220.945 95.435 220.9C95.405 220.57 95.27 220.105 95.06 219.805C96.035 219.88 96.935 219.895 97.28 219.895C97.58 219.895 97.76 219.85 97.925 219.655C98.42 219.115 98.66 216.625 98.87 210.01V209.77ZM94.97 207.34L96.05 207.595C95.495 209.83 94.61 212.035 93.575 213.46C93.38 213.28 92.915 212.965 92.645 212.815C93.665 211.495 94.49 209.425 94.97 207.34ZM94.28 213.67L95.15 213.16C96.005 214.225 97.04 215.68 97.52 216.565L96.56 217.165C96.11 216.25 95.105 214.765 94.28 213.67ZM107.135 213.25H115.31V214.345H107.135V213.25ZM111.8 213.85C112.4 216.52 113.66 218.89 115.475 220.015C115.22 220.21 114.875 220.6 114.71 220.9C112.79 219.55 111.5 217.03 110.825 214.09L111.8 213.85ZM108.245 221.29C108.17 221.02 107.96 220.57 107.795 220.345C108.05 220.21 108.47 219.94 108.47 219.325V207.7H109.55V220.255C109.55 220.255 108.245 220.885 108.245 221.29ZM103.805 207.415H104.81V221.2H103.805V207.415ZM101.87 210.25H106.19V211.27H102.77V218.125H101.87V210.25ZM105.8 210.25H106.67V216.94C106.67 217.375 106.61 217.675 106.325 217.855C106.055 218.035 105.665 218.05 105.095 218.05C105.065 217.78 104.945 217.345 104.81 217.075C105.23 217.09 105.53 217.09 105.65 217.075C105.77 217.075 105.8 217.03 105.8 216.925V210.25ZM113.615 208.06L114.665 208.39C113.72 210.1 112.22 211.735 110.765 212.785C110.6 212.575 110.18 212.155 109.94 211.96C111.38 211.03 112.775 209.59 113.615 208.06ZM108.245 221.29L108.125 220.285L108.59 219.835L111.89 218.635C111.89 218.95 111.95 219.415 111.995 219.655C108.95 220.885 108.5 221.08 108.245 221.29ZM118.535 209.725H119.705V212.995C119.705 215.455 119.39 218.965 117.47 221.29C117.275 221.08 116.78 220.735 116.495 220.615C118.34 218.395 118.535 215.26 118.535 212.995V209.725ZM122.6 207.61L123.695 207.325C124.04 208.03 124.43 208.93 124.61 209.515L123.47 209.86C123.305 209.26 122.915 208.315 122.6 207.61ZM119.27 209.725H128.675V215.845H127.535V210.79H119.27V209.725ZM119.27 213.805H128.15V214.855H119.27V213.805ZM133.055 207.43L134.03 207.685C133.58 209.335 132.845 211.045 131.975 212.17C131.885 211.945 131.585 211.405 131.405 211.18C132.14 210.235 132.725 208.855 133.055 207.43ZM133.07 209.125H136.04V210.115H132.86L133.07 209.125ZM133.265 221.035L133.085 220.06L133.385 219.625L135.755 218.05C135.83 218.32 135.98 218.71 136.085 218.905C133.82 220.48 133.475 220.765 133.265 221.035ZM132.23 211.93H135.77V212.905H132.23V211.93ZM131.705 215.02H136.1V216.01H131.705V215.02ZM133.265 221.035C133.145 220.81 132.845 220.42 132.665 220.24C132.935 220.045 133.4 219.535 133.4 218.8V212.47H134.435V219.625C134.435 219.625 133.265 220.6 133.265 221.035ZM138.65 209.2H145.31V210.175H138.65V209.2ZM141.695 210.88H142.7V219.22H141.695V210.88ZM139.16 213.85C139.1 213.64 138.95 213.145 138.83 212.89C139.055 212.815 139.28 212.44 139.535 211.885C139.775 211.36 140.6 209.26 140.975 207.37L142.055 207.595C141.5 209.635 140.645 211.795 139.82 213.265V213.28C139.82 213.28 139.16 213.64 139.16 213.85ZM139.16 213.85V212.98L139.76 212.695H144.92V213.64H140.33C139.745 213.64 139.295 213.73 139.16 213.85ZM138.785 215.635H145.235V216.64H138.785V215.635ZM138.305 212.74V219.16H137.27V213.775H135.83V212.74H138.305ZM136.265 208.3L137.165 207.985C137.645 208.825 138.17 209.89 138.395 210.61L137.435 210.985C137.21 210.25 136.715 209.125 136.265 208.3ZM137.9 218.455C138.335 218.455 138.665 218.83 139.295 219.22C140.045 219.685 140.93 219.82 142.1 219.82C143.045 219.82 144.575 219.76 145.58 219.64C145.46 219.94 145.31 220.495 145.295 220.81C144.515 220.855 142.985 220.9 142.07 220.9C140.825 220.9 139.91 220.69 139.1 220.195C138.59 219.835 138.185 219.46 137.885 219.46C137.465 219.46 136.82 220.255 136.25 221.065L135.515 220.03C136.34 219.145 137.21 218.455 137.9 218.455ZM155.165 207.4H156.305V209.455H155.165V207.4ZM151.61 209.005H159.95V209.98H151.61V209.005ZM151.01 212.515H160.37V213.505H151.01V212.515ZM153.02 210.115L153.995 209.92C154.325 210.73 154.61 211.78 154.67 212.425L153.65 212.68C153.605 212.02 153.335 210.94 153.02 210.115ZM157.475 209.89L158.585 210.055C158.27 210.94 157.91 211.96 157.595 212.635L156.635 212.47C156.935 211.765 157.295 210.64 157.475 209.89ZM151.085 214.99H160.31V215.965H151.085V214.99ZM154.52 213.235L155.645 213.46C154.88 215.185 153.815 217.375 153.05 218.755L152.075 218.425C152.825 217.09 153.86 214.87 154.52 213.235ZM152.84 218.23L153.5 217.465C155.765 218.11 158.585 219.31 160.04 220.36L159.32 221.215C157.94 220.195 155.135 218.92 152.84 218.23ZM157.475 215.62L158.57 215.785C157.85 219.13 155.795 220.585 151.16 221.2C151.085 220.885 150.89 220.495 150.71 220.255C155.03 219.82 156.83 218.545 157.475 215.62ZM146.405 215.38C147.62 215.08 149.45 214.54 151.22 214.03L151.355 215.035C149.72 215.545 147.995 216.085 146.66 216.49L146.405 215.38ZM146.66 210.43H151.235V211.48H146.66V210.43ZM148.7 207.415H149.78V219.835C149.78 220.48 149.645 220.795 149.255 220.975C148.865 221.17 148.25 221.2 147.275 221.2C147.23 220.915 147.08 220.42 146.93 220.105C147.605 220.135 148.235 220.135 148.415 220.12C148.61 220.12 148.7 220.06 148.7 219.835V207.415ZM161.75 208.39H169.445V209.41H161.75V208.39ZM162.2 215.53H169.01V216.55H162.2V215.53ZM165.065 213.745H166.175V219.625L165.065 219.79V213.745ZM161.585 219.625C163.535 219.415 166.58 219.01 169.475 218.62L169.505 219.67C166.715 220.06 163.76 220.48 161.765 220.75L161.585 219.625ZM161.72 212.47C163.43 212.41 166.07 212.29 168.65 212.155L168.62 213.145C166.16 213.295 163.595 213.43 161.81 213.535L161.72 212.47ZM166.505 210.64L167.345 210.175C168.26 211.225 169.31 212.635 169.745 213.535L168.845 214.075C168.41 213.16 167.405 211.705 166.505 210.64ZM164.345 208.93L165.56 209.17C165.035 210.49 164.39 212.14 163.835 213.175L162.845 212.935C163.37 211.87 164.015 210.115 164.345 208.93ZM170.105 209.215H171.185V217.525H170.105V209.215ZM173.645 207.835H174.755V219.685C174.755 220.465 174.575 220.81 174.08 220.99C173.585 221.185 172.67 221.215 171.455 221.215C171.395 220.9 171.23 220.375 171.065 220.03C172.07 220.075 173 220.06 173.3 220.06C173.57 220.045 173.645 219.97 173.645 219.7V207.835ZM177.665 208.45H180.395V217.405H177.665V216.385H179.48V209.485H177.665V208.45ZM177.065 208.45H177.98V218.635H177.065V208.45ZM180.86 208.135H184.85V209.11H180.86V208.135ZM181.04 211.69H185.81V212.665H181.04V211.69ZM180.92 215.29H185.825V216.25H180.92V215.29ZM184.37 208.135H185.33C185.33 208.135 185.33 208.57 185.315 208.705C185.285 217.24 185.285 219.895 184.91 220.555C184.67 220.975 184.415 221.08 184.04 221.14C183.665 221.185 183.17 221.185 182.63 221.155C182.615 220.87 182.525 220.435 182.375 220.15C182.915 220.18 183.38 220.18 183.62 220.18C183.815 220.195 183.92 220.15 184.04 219.895C184.31 219.4 184.355 216.715 184.37 208.42V208.135ZM182.165 208.6H183.11V212.59C183.11 215.155 182.81 218.8 180.665 221.245C180.545 221.035 180.185 220.675 179.99 220.54C181.97 218.23 182.165 215.005 182.165 212.575V208.6ZM186.32 208.135H189.53V209.08H187.295V221.215H186.32V208.135ZM189.245 208.135H189.425L189.56 208.105L190.265 208.495C189.86 209.935 189.305 211.795 188.825 213.175C189.86 214.585 190.085 215.8 190.1 216.865C190.1 217.75 189.95 218.455 189.545 218.77C189.35 218.92 189.095 219.01 188.81 219.04C188.54 219.07 188.225 219.085 187.925 219.07C187.91 218.8 187.835 218.38 187.67 218.095C187.97 218.125 188.225 218.125 188.435 218.11C188.6 218.11 188.75 218.05 188.87 217.945C189.095 217.765 189.155 217.27 189.155 216.73C189.155 215.785 188.93 214.63 187.895 213.28C188.42 211.72 188.945 209.605 189.245 208.465V208.135ZM198.44 208.615C197.195 210.505 194.66 212.89 191.99 214.45C191.825 214.195 191.51 213.79 191.255 213.55C193.985 212.005 196.595 209.47 197.78 207.445H198.95C200.585 209.77 203.33 212.095 205.79 213.355C205.505 213.64 205.235 214.03 205.025 214.36C202.58 212.95 199.82 210.58 198.44 208.615ZM197.84 212.365H199.025V221.215H197.84V212.365ZM208.46 212.83H218.39V213.88H208.46V212.83ZM212.765 207.43H213.95V218.755C213.95 219.64 214.13 219.805 215.015 219.805C215.465 219.805 217.67 219.805 218.21 219.805C219.035 219.805 219.185 219.31 219.305 217.375C219.59 217.585 220.07 217.78 220.43 217.87C220.235 220.15 219.86 220.945 218.27 220.945C217.865 220.945 215.33 220.945 214.94 220.945C213.26 220.945 212.765 220.495 212.765 218.74V207.43ZM208.55 209.59H218.96V217.15H208.55V216.055H217.82V210.685H208.55V209.59ZM207.875 209.59H209.045V218.065H207.875V209.59ZM221.705 214.105H235.325V215.23H221.705V214.105ZM227.945 211.69H229.115V219.76C229.115 220.51 228.905 220.855 228.335 221.035C227.78 221.215 226.805 221.245 225.365 221.245C225.275 220.915 225.065 220.405 224.87 220.075C226.085 220.12 227.195 220.12 227.525 220.105C227.84 220.09 227.945 220.015 227.945 219.745V211.69ZM223.25 208.45H233.045V209.56H223.25V208.45ZM232.655 208.45H232.955L233.21 208.39L234.065 209.02C232.7 210.4 230.57 211.885 228.815 212.785C228.65 212.53 228.305 212.17 228.08 211.975C229.715 211.195 231.71 209.77 232.655 208.705V208.45ZM237.26 209.71H243.935V220.045H242.9V210.7H238.25V220.255H237.26V209.71ZM237.725 213.865H243.26V214.84H237.725V213.865ZM237.755 218.275H243.215V219.25H237.755V218.275ZM240.05 207.43H241.145V210.25H241.1V218.965H240.095V210.25H240.05V207.43ZM245.39 208.21H249.32V209.275H246.38V221.185H245.39V208.21ZM249.065 208.21H249.275L249.455 208.165L250.22 208.66C249.68 210.04 248.975 211.75 248.33 213.145C249.71 214.57 250.04 215.755 250.04 216.79C250.04 217.675 249.845 218.395 249.335 218.74C249.095 218.905 248.75 218.995 248.39 219.04C248.015 219.085 247.52 219.085 247.07 219.055C247.04 218.77 246.935 218.305 246.755 217.99C247.205 218.035 247.64 218.035 247.955 218.035C248.18 218.005 248.405 217.975 248.585 217.87C248.9 217.69 248.99 217.21 248.99 216.685C248.99 215.755 248.585 214.645 247.22 213.295C247.925 211.735 248.66 209.725 249.065 208.555V208.21ZM260.06 207.595H261.185V221.2H260.06V207.595ZM257.465 208.165L258.545 208.375C258.14 210.475 257.45 212.53 256.595 213.865C256.37 213.7 255.905 213.43 255.62 213.31C256.49 212.05 257.12 210.115 257.465 208.165ZM257.615 210.475H264.62V211.585H257.33L257.615 210.475ZM255.74 214.885H265.28V215.995H255.74V214.885ZM255.005 207.46L256.07 207.79C255.125 210.325 253.67 212.86 252.11 214.555C252.005 214.3 251.675 213.715 251.465 213.445C252.875 211.99 254.21 209.74 255.005 207.46ZM253.49 211.33L254.555 210.265L254.57 210.28V221.185H253.49V211.33ZM72.335 227.505H84.755V228.585H72.335V227.505ZM71.78 231.84H85.235V232.92H71.78V231.84ZM80.615 228.06H81.77V238.2H80.615V228.06ZM75.275 228.06H76.385V231.48C76.385 233.97 75.965 236.565 72.545 238.32C72.395 238.05 72.02 237.66 71.78 237.45C74.915 235.875 75.275 233.61 75.275 231.465V228.06ZM74.255 224.805L75.245 224.415C75.905 225.21 76.58 226.305 76.865 227.025L75.815 227.49C75.56 226.77 74.9 225.63 74.255 224.805ZM81.62 224.37L82.88 224.76C82.295 225.69 81.62 226.77 81.065 227.445L80.09 227.085C80.63 226.35 81.275 225.195 81.62 224.37ZM87.035 225.465H99.95V226.605H87.035V225.465ZM94.385 229.83L95.225 229.11C96.98 230.25 99.275 231.945 100.385 233.1L99.47 233.955C98.42 232.8 96.17 231.045 94.385 229.83ZM94.1 225.855L95.33 226.305C93.62 229.41 90.815 232.38 87.425 234.165C87.245 233.88 86.885 233.43 86.66 233.19C89.915 231.555 92.705 228.675 94.1 225.855ZM92.87 228.855L94.085 227.655V238.185H92.87V228.855ZM101.78 236.805H115.235V237.735H101.78V236.805ZM101.855 227.07H115.145V228H101.855V227.07ZM102.89 234.615H114.275V235.515H102.89V234.615ZM107.87 225.555H108.995V237.255H107.87V225.555ZM113.09 224.49L113.69 225.36C111.005 225.855 106.73 226.11 103.22 226.185C103.22 225.915 103.085 225.525 102.98 225.285C106.475 225.195 110.72 224.925 113.09 224.49ZM104.465 231.6V232.755H112.58V231.6H104.465ZM104.465 229.71V230.85H112.58V229.71H104.465ZM103.37 228.9H113.72V233.565H103.37V228.9ZM116.675 232.605H130.325V233.55H116.675V232.605ZM117.035 225.06H129.95V226.05H117.035V225.06ZM121.88 231.03L122.975 231.33C122 232.89 120.62 234.855 119.66 236.085L118.595 235.725C119.555 234.51 120.95 232.5 121.88 231.03ZM126.38 232.935L127.46 233.25C126.14 236.55 122.945 237.78 117.32 238.2C117.245 237.87 117.065 237.465 116.885 237.21C122.24 236.925 125.18 235.86 126.38 232.935ZM119.405 235.575L119.975 234.75C123.68 235.41 127.535 236.415 129.86 237.33L129.185 238.245C126.89 237.3 123.215 236.28 119.405 235.575ZM121.13 225.435H122.195V230.67H121.13V225.435ZM124.625 225.435H125.69V230.67H124.625V225.435ZM118.835 228.255V230.295H128.195V228.255H118.835ZM117.785 227.34H129.32V231.225H117.785V227.34Z" fill="#EEBD40"/>
<defs>
<linearGradient id="paint0_linear_1398_7456" x1="143.515" y1="25" x2="184.828" y2="65.7115" gradientUnits="userSpaceOnUse">
<stop stop-color="#5955B3"/>
<stop offset="1" stop-color="#6563CE"/>
</linearGradient>
</defs>
</svg>
