<svg width="182" height="176" viewBox="0 0 182 176" fill="none" xmlns="http://www.w3.org/2000/svg">
<ellipse cx="90.953" cy="88" rx="90.953" ry="88" fill="#F1F2F7"/>
<path d="M98.14 72.7191C98.14 73.7939 97.2263 74.6653 96.0992 74.6653C94.972 74.6653 94.0583 73.7939 94.0583 72.7191C94.0583 71.6443 94.972 70.773 96.0992 70.773C97.2263 70.773 98.14 71.6443 98.14 72.7191Z" fill="black" fill-opacity="0.84"/>
<path d="M69.2958 72.7191C69.2958 73.7939 68.3821 74.6653 67.255 74.6653C66.1278 74.6653 65.2141 73.7939 65.2141 72.7191C65.2141 71.6443 66.1278 70.773 67.255 70.773C68.3821 70.773 69.2958 71.6443 69.2958 72.7191Z" fill="black" fill-opacity="0.84"/>
<path d="M134.98 68.1588C135.238 68.982 135.488 69.8049 135.729 70.6271M134.98 68.1588L114.071 76.3113M134.98 68.1588C134.783 67.3112 134.572 66.4804 134.346 65.6662M87.612 28.149C87.4717 28.1462 87.3425 28.134 87.2044 28.1105C86.0503 27.914 84.8041 27.7563 83.4888 27.6505M87.612 28.149C89.9934 28.1964 92.8636 28.5196 96.0067 29.2136M87.612 28.149L80.2581 39.2013M45.4203 126.032C45.6952 124.782 45.9527 123.587 46.1936 122.445M45.4203 126.032L73.5781 115.514M45.4203 126.032C45.1989 127.039 44.8721 128.12 44.4855 129.25M40.1365 147.341C40.4538 148.316 41.6027 148.676 42.6395 148.42C43.9916 148.086 45.6086 147.727 47.3654 147.378M40.1365 147.341C39.8096 146.337 39.7325 145.2 39.8333 143.974M40.1365 147.341L72.2384 133.41M75.5079 117.612C75.4362 116.588 74.6189 115.775 73.5781 115.514M75.5079 117.612L44.4855 129.25M75.5079 117.612C75.5762 118.587 75.5913 119.551 75.5589 120.501M73.5781 115.514C72.4933 115.241 71.2736 114.875 69.9928 114.402M55.7333 100.156C55.7048 100.007 55.6938 99.858 55.6978 99.7061C55.718 98.9433 55.7354 98.1261 55.7502 97.2647M55.7333 100.156L49.2564 101.75M55.7333 100.156C55.9713 101.408 56.3514 102.569 56.8457 103.646M55.6918 63.3504C55.6918 62.8758 55.7365 62.3405 55.8251 61.756M55.6918 63.3504L45.4559 59.6393M55.6918 63.3504C55.6918 63.6935 55.6952 64.253 55.7008 64.9923M80.2581 39.2013C80.8016 39.2577 81.3049 39.5119 81.6831 39.8882M80.2581 39.2013C79.6785 39.1411 79.1079 39.1097 78.5465 39.1054M81.6831 39.8882L84.1973 42.3901M81.6831 39.8882L96.0067 29.2136M113.108 71.1594C113.502 71.5514 113.744 72.056 113.79 72.597M113.108 71.1594L132.655 60.5M113.108 71.1594L111.798 69.8557M113.79 72.597C113.834 73.1145 113.879 73.6677 113.923 74.25M113.79 72.597L133.622 63.25M129.166 145.291C126.52 144.692 123.888 144.242 121.987 143.974C121.679 143.931 121.383 143.836 121.111 143.691L120.773 143.51C120.4 143.31 119.968 143.208 119.54 143.193C118.081 143.143 116.719 142.924 115.448 142.562M129.166 145.291C131.217 145.756 133.278 146.309 135.013 146.937C136.8 147.583 139.29 146.68 139.642 144.889C139.771 144.234 139.898 143.547 140.023 142.83M129.166 145.291L140.023 142.83M140.023 142.83C140.094 142.424 140.164 142.008 140.234 141.583M140.443 140.25H110.602M140.443 140.25C140.374 140.704 140.304 141.148 140.234 141.583M140.443 140.25C140.604 139.183 140.759 138.064 140.905 136.896M110.602 140.25C112.043 141.257 113.654 142.052 115.448 142.562M110.602 140.25C109.464 139.454 108.431 138.526 107.499 137.5M115.448 142.562L140.234 141.583M140.905 136.896L107.499 137.5M140.905 136.896C141.028 135.905 141.146 134.878 141.255 133.818M107.499 137.5C106.998 136.95 106.526 136.371 106.082 135.771M106.082 135.771L141.255 133.818M106.082 135.771C105.524 135.016 105.009 134.225 104.535 133.41M141.255 133.818C141.356 132.841 141.45 131.835 141.536 130.803M141.536 130.803L104.535 133.41M141.536 130.803C141.627 129.717 141.709 128.601 141.78 127.458M104.535 133.41C104.044 132.563 103.597 131.691 103.193 130.803M103.193 130.803L141.78 127.458M103.193 130.803C102.743 129.817 102.346 128.813 101.998 127.808M141.78 127.458C141.931 125.06 142.036 122.54 142.085 119.916M141.972 123.75L101.998 127.808M101.998 127.808C101.303 125.802 100.803 123.791 100.473 121.907M101.106 124.84L142.085 119.916M142.085 119.916C142.105 118.832 142.115 117.731 142.114 116.613M142.114 116.613L100.473 121.907M142.114 116.613C142.113 115.346 142.099 114.058 142.07 112.75M100.473 121.907C100.32 121.034 100.204 120.189 100.122 119.384M100.122 119.384L142.07 112.75M100.122 119.384C100.02 118.39 99.9702 117.458 99.9674 116.613M142.07 112.75C142.053 111.991 142.031 111.225 142.003 110.453M142.003 110.453L99.9674 116.613M142.003 110.453C141.958 109.176 141.898 107.882 141.822 106.572M99.9674 116.613C99.9642 115.686 100.018 114.863 100.122 114.177M100.122 114.177C100.28 113.136 100.554 112.412 100.922 112.122C101.94 111.319 102.977 110.445 104.003 109.52M100.122 114.177L141.822 106.572M141.822 106.572C141.756 105.434 141.679 104.284 141.588 103.123M141.588 103.123L104.003 109.52M141.588 103.123C141.5 101.986 141.399 100.84 141.286 99.6836M104.003 109.52C105.041 108.583 106.066 107.594 107.043 106.572M107.043 106.572L141.286 99.6836M107.043 106.572C108.282 105.278 109.445 103.932 110.461 102.579M141.286 99.6836C141.161 98.4141 141.022 97.1335 140.865 95.843M140.865 95.843L110.461 102.579M140.865 95.843C140.733 94.7512 140.589 93.6524 140.433 92.5472M110.461 102.579C111.186 101.612 111.837 100.642 112.387 99.6836M112.387 99.6836C112.941 98.7179 113.393 97.764 113.717 96.8378C113.742 96.7663 113.766 96.6917 113.79 96.6141M112.387 99.6836L140.433 92.5472M140.433 92.5472C140.321 91.7568 140.203 90.9632 140.078 90.1666M140.078 90.1666L113.79 96.6141M140.078 90.1666C139.935 89.2505 139.783 88.3305 139.622 87.407M113.79 96.6141C113.986 95.9718 114.135 95.1256 114.246 94.1284M114.246 94.1284L139.622 87.407M114.246 94.1284C114.33 93.3778 114.391 92.5417 114.434 91.6426M139.622 87.407C139.43 86.3066 139.226 85.2013 139.008 84.0918M139.008 84.0918L114.434 91.6426M139.008 84.0918C138.804 83.052 138.589 82.0085 138.361 80.962M114.434 91.6426C114.475 90.7848 114.498 89.8697 114.508 88.917M114.508 88.917L138.361 80.962M114.508 88.917C114.514 88.2586 114.514 87.5822 114.508 86.8943M138.361 80.962C138.196 80.2006 138.024 79.4377 137.845 78.6733M137.845 78.6733L114.508 86.8943M137.845 78.6733C137.632 77.759 137.409 76.8426 137.176 75.9247M114.508 86.8943C114.5 85.9755 114.481 85.0362 114.453 84.0918M114.453 84.0918L137.176 75.9247M114.453 84.0918C114.43 83.284 114.401 82.4725 114.367 81.6669M137.176 75.9247C136.938 74.9831 136.689 74.0398 136.43 73.0954M136.43 73.0954L114.367 81.6669M136.43 73.0954C136.204 72.2734 135.97 71.4506 135.729 70.6271M114.367 81.6669C114.331 80.829 114.29 79.9976 114.246 79.1834M114.246 79.1834L135.729 70.6271M114.246 79.1834C114.192 78.1941 114.133 77.2302 114.071 76.3113M114.071 76.3113C114.023 75.5937 113.973 74.9035 113.923 74.25M113.923 74.25L134.346 65.6662M134.346 65.6662C134.118 64.8441 133.877 64.0388 133.622 63.25M133.622 63.25C133.318 62.31 132.995 61.3935 132.655 60.5M132.655 60.5C132.371 59.7552 132.074 59.0264 131.766 58.3132M131.766 58.3132L111.798 69.8557M131.766 58.3132C131.439 57.5548 131.098 56.8141 130.745 56.0907M111.798 69.8557L110.093 68.1588M110.093 68.1588L130.745 56.0907M110.093 68.1588L108.516 66.5901M130.745 56.0907C130.361 55.3045 129.963 54.5387 129.551 53.793M129.551 53.793L108.516 66.5901M129.551 53.793C129.169 53.1016 128.775 52.4273 128.37 51.7699M108.516 66.5901L106.911 64.9923M106.911 64.9923L128.37 51.7699M106.911 64.9923L105.16 63.25M128.37 51.7699C127.89 50.9898 127.394 50.2333 126.885 49.5M126.885 49.5L105.16 63.25M126.885 49.5C126.368 48.7555 125.836 48.0349 125.292 47.3375M105.16 63.25L103.658 61.756M103.658 61.756L125.292 47.3375M103.658 61.756L101.531 59.6393M125.292 47.3375C124.764 46.6616 124.224 46.0075 123.674 45.3746M123.674 45.3746L101.531 59.6393M123.674 45.3746C123.197 44.8257 122.711 44.2927 122.218 43.7753M101.531 59.6393L99.6326 57.75M99.6326 57.75L122.218 43.7753M99.6326 57.75L97.9652 56.0907M122.218 43.7753C121.586 43.1116 120.942 42.4736 120.288 41.8604M120.288 41.8604L97.9652 56.0907M120.288 41.8604C119.554 41.1721 118.807 40.5151 118.05 39.8882M97.9652 56.0907L96.0067 54.1418M96.0067 54.1418L118.05 39.8882M96.0067 54.1418L94.1056 52.25M118.05 39.8882C117.287 39.2564 116.514 38.6553 115.734 38.0835M115.734 38.0835L94.1056 52.25M115.734 38.0835C114.978 37.53 114.215 37.004 113.447 36.5046M94.1056 52.25L92.4569 50.6093M92.4569 50.6093L113.447 36.5046M92.4569 50.6093L90.4412 48.6035M113.447 36.5046C112.336 35.7822 111.216 35.1153 110.093 34.5006M110.093 34.5006L90.4412 48.6035M110.093 34.5006C109.25 34.0395 108.406 33.6079 107.563 33.2043M90.4412 48.6035L89.169 47.3375M89.169 47.3375L107.563 33.2043M89.169 47.3375L86.7116 44.8921M107.563 33.2043C106.254 32.5774 104.949 32.0182 103.658 31.5216M103.658 31.5216L86.7116 44.8921M103.658 31.5216C102.295 30.997 100.949 30.5424 99.6326 30.1518M86.7116 44.8921L84.1973 42.3901M84.1973 42.3901L99.6326 30.1518M99.6326 30.1518C98.3934 29.784 97.181 29.4729 96.0067 29.2136M83.4888 27.6505L78.5465 39.1054M83.4888 27.6505C82.2428 27.5502 80.9347 27.4964 79.5839 27.5002M78.5465 39.1054C78.1422 39.1022 77.7426 39.1131 77.3478 39.1374M77.3478 39.1374L79.5839 27.5002M77.3478 39.1374C76.4414 39.1931 75.5603 39.3194 74.7052 39.5085M79.5839 27.5002C78.0055 27.5045 76.3689 27.5874 74.7052 27.7664M74.7052 27.7664L75.9717 39.1054M74.7052 27.7664C73.7954 27.8642 72.8774 27.9908 71.9564 28.149M74.7052 39.5085L71.9564 28.149M74.7052 39.5085C74.0377 39.6561 73.3861 39.842 72.7505 40.0625M71.9564 28.149C70.4248 28.4121 68.8847 28.7625 67.3597 29.2136M67.3597 29.2136L72.7505 40.0625M67.3597 29.2136C66.1795 29.5626 65.0084 29.9719 63.857 30.4475M72.7505 40.0625C71.9842 40.3283 71.2413 40.6444 70.5223 41.0044M70.5223 41.0044L63.857 30.4475M70.5223 41.0044C69.7061 41.413 68.9208 41.878 68.1669 42.3901M63.857 30.4475C62.6829 30.9325 61.5294 31.4865 60.408 32.1159M60.408 32.1159L68.1669 42.3901M60.408 32.1159C59.5403 32.6029 58.6917 33.1351 57.8677 33.7155M68.1669 42.3901C67.5334 42.8205 66.9221 43.2841 66.3335 43.7753M66.3335 43.7753L57.8677 33.7155M66.3335 43.7753C65.7274 44.2811 65.1453 44.8163 64.5878 45.3746M57.8677 33.7155C56.9851 34.3372 56.1305 35.0141 55.3106 35.75M55.3106 35.75L64.5878 45.3746M55.3106 35.75C54.5125 36.4664 53.7471 37.2387 53.0206 38.0703M64.5878 45.3746C63.9608 46.0025 63.3649 46.6597 62.8007 47.3375M62.8007 47.3375L53.0206 38.0703M62.8007 47.3375C62.2164 48.0394 61.6661 48.7635 61.1505 49.5M53.0206 38.0703C52.2289 38.9764 51.4833 39.953 50.7917 41.0044M50.7917 41.0044L61.1505 49.5M50.7917 41.0044C50.2184 41.8758 49.6822 42.7986 49.1875 43.7753M61.1505 49.5C60.7151 50.122 60.3045 50.7529 59.9192 51.3869M59.9192 51.3869L49.1875 43.7753M59.9192 51.3869C59.4439 52.1689 59.007 52.9555 58.6094 53.7358M49.1875 43.7753C48.7109 44.7161 48.2728 45.7069 47.8772 46.75M47.8772 46.75L58.6094 53.7358M47.8772 46.75C47.5438 47.6291 47.2405 48.5453 46.9697 49.5M58.6094 53.7358C58.1412 54.6548 57.7274 55.5651 57.3694 56.4489M57.3694 56.4489L46.9697 49.5M57.3694 56.4489C56.9166 57.5668 56.5532 58.6423 56.282 59.6393M46.9697 49.5C46.7192 50.3834 46.4965 51.2997 46.3035 52.25M46.3035 52.25L56.282 59.6393M46.3035 52.25C46.0551 53.4732 45.856 54.7527 45.7102 56.0907M56.282 59.6393C56.0763 60.3952 55.9236 61.106 55.8251 61.756M55.8251 61.756L45.7102 56.0907M45.7102 56.0907C45.586 57.2306 45.5004 58.413 45.4559 59.6393M45.4559 59.6393C45.4323 60.2914 45.4203 60.9559 45.4203 61.633C45.4203 65.7687 45.5088 69.3241 45.6591 72.4151M55.7008 64.9923L45.4766 63.25L45.4203 66L55.717 66.9345M55.7008 64.9923C55.7051 65.5446 55.7106 66.1971 55.717 66.9345M55.717 66.9345C55.7218 67.4932 55.7271 68.1006 55.7327 68.75M55.7327 68.75H45.4766L45.6591 72.4151M55.7327 68.75C55.7412 69.7393 55.7504 70.8263 55.7596 71.9872M45.6591 72.4151L55.7596 71.9872M45.6591 72.4151C45.6986 73.2288 45.7424 74.0103 45.7901 74.7617M55.7596 71.9872C55.7653 72.7144 55.771 73.4706 55.7766 74.25M45.7901 74.7617L55.7766 74.25M45.7901 74.7617C45.8576 75.8286 45.9329 76.8349 46.0143 77.7866M55.7766 74.25C55.7818 74.9908 55.7869 75.7526 55.7917 76.5304M55.7917 76.5304L46.0143 77.7866M55.7917 76.5304C55.7982 77.5785 55.8041 78.6558 55.8091 79.75M46.0143 77.7866C46.1165 78.9813 46.2286 80.09 46.3477 81.1246M46.3477 81.1246L55.8091 79.75M46.3477 81.1246C46.4635 82.1315 46.5861 83.0683 46.7127 83.946M55.8091 79.75C55.812 80.3818 55.8146 81.0193 55.8168 81.66M55.8168 81.66L46.7127 83.946M55.8168 81.66C55.8201 82.6324 55.8226 83.6125 55.824 84.5919M46.7127 83.946C46.8355 84.797 46.9621 85.5925 47.0903 86.3425M47.0903 86.3425L55.824 84.5919M47.0903 86.3425C47.3529 87.8793 47.6219 89.225 47.8772 90.4661M55.824 84.5919C55.8256 85.7312 55.8257 86.8696 55.824 87.9944M55.824 87.9944L47.8772 90.4661M55.824 87.9944C55.8221 89.2021 55.8181 90.3939 55.8115 91.5541M47.8772 90.4661C48.0974 91.5367 48.3075 92.5295 48.4945 93.5M48.4945 93.5L55.8115 91.5541M48.4945 93.5C48.6311 94.209 48.7554 94.9061 48.8624 95.6129M55.8115 91.5541C55.8051 92.6626 55.7964 93.7423 55.7849 94.779M55.7849 94.779L48.8624 95.6129M55.7849 94.779C55.7753 95.6398 55.7638 96.471 55.7502 97.2647M48.8624 95.6129C48.9998 96.5205 49.1086 97.4442 49.1782 98.4297M49.1782 98.4297L55.7502 97.2647M49.1782 98.4297C49.2505 99.4527 49.2805 100.542 49.2564 101.75M49.2564 101.75C49.2371 102.713 49.1835 103.751 49.0894 104.889M49.0894 104.889L56.8457 103.646M49.0894 104.889C48.9923 106.065 48.852 107.348 48.662 108.767M56.8457 103.646C57.3296 104.701 57.9229 105.674 58.5995 106.572M48.662 108.767L58.5995 106.572M48.662 108.767C48.5487 109.614 48.4177 110.509 48.2676 111.458M58.5995 106.572C58.9421 107.027 59.3061 107.462 59.688 107.879M59.688 107.879L48.2676 111.458M59.688 107.879C60.4618 108.723 61.3094 109.489 62.2024 110.185M48.2676 111.458C48.1316 112.318 47.9799 113.223 47.8115 114.177M47.8115 114.177L62.2024 110.185M47.8115 114.177C47.6741 114.956 47.5256 115.767 47.3654 116.613M62.2024 110.185C62.9616 110.776 63.7536 111.315 64.561 111.806M64.561 111.806L47.3654 116.613M64.561 111.806C65.3582 112.29 66.1704 112.728 66.981 113.121M47.3654 116.613C47.1662 117.665 46.949 118.771 46.7127 119.937M46.7127 119.937L66.981 113.121M46.7127 119.937C46.549 120.744 46.3761 121.579 46.1936 122.445M66.981 113.121C67.9986 113.615 69.0135 114.04 69.9928 114.402M69.9928 114.402L46.1936 122.445M44.4855 129.25C44.0727 130.456 43.5918 131.717 43.0982 133M43.0982 133L75.5589 120.501M43.0982 133C42.6742 134.101 42.2409 135.219 41.8334 136.332M75.5589 120.501C75.5212 121.603 75.4196 122.688 75.2628 123.75M75.2628 123.75L41.8334 136.332M75.2628 123.75C75.125 124.684 74.9445 125.602 74.7274 126.5M41.8334 136.332C41.3481 137.657 40.8995 138.975 40.5472 140.25M40.5472 140.25L74.7274 126.5M40.5472 140.25C40.1885 141.548 39.9296 142.802 39.8333 143.974M74.7274 126.5C74.5005 127.439 74.2337 128.356 73.9338 129.25M73.9338 129.25L39.8333 143.974M73.9338 129.25C73.4462 130.703 72.8711 132.094 72.2384 133.41M72.2384 133.41C71.3967 135.16 70.4531 136.778 69.4773 138.237M69.4773 138.237L47.3654 147.378M69.4773 138.237C68.4752 139.734 67.4393 141.064 66.4454 142.195M47.3654 147.378C50.8842 146.677 54.9639 146.016 58.5995 145.676M58.5995 145.676C59.8689 145.557 61.0841 145.477 62.2024 145.449C62.7719 145.435 63.3209 145.26 63.745 144.897C64.5599 144.2 65.483 143.291 66.4454 142.195M58.5995 145.676L66.4454 142.195M79.9554 84.2857C81.6181 82.7002 81.5823 75.8003 82.0134 71.9343M96.0992 74.6653C97.2263 74.6653 98.14 73.7939 98.14 72.7191C98.14 71.6443 97.2263 70.773 96.0992 70.773M96.0992 74.6653C94.972 74.6653 94.0583 73.7939 94.0583 72.7191C94.0583 71.6443 94.972 70.773 96.0992 70.773M96.0992 74.6653V70.773M67.255 74.6653C68.3821 74.6653 69.2958 73.7939 69.2958 72.7191C69.2958 71.6443 68.3821 70.773 67.255 70.773M67.255 74.6653C66.1278 74.6653 65.2141 73.7939 65.2141 72.7191C65.2141 71.6443 66.1278 70.773 67.255 70.773M67.255 74.6653V70.773M62.5302 61.6515C64.5631 60.1979 67.6125 60.0364 70.8313 61.6519M91.8189 61.6505C95.5459 60.3582 100.289 61.6505 102.322 64.5576M88.3428 96.1001C85.8286 100.595 79.9551 99.0538 77.1592 96.8919" stroke="black" stroke-opacity="0.84" stroke-width="2" stroke-linecap="round"/>
</svg>
