<svg width="49" height="49" viewBox="0 0 49 49" fill="none" xmlns="http://www.w3.org/2000/svg">
<circle cx="24.5" cy="24.5" r="24.5" fill="#6663CF"/>
<path d="M36.1667 17.3244C35.846 13.2166 32.6209 11.7287 30.5651 11.6686C30.4823 11.6662 30.4041 11.7019 30.3488 11.7636L15.8769 27.9034C15.8495 27.934 15.8288 27.9701 15.8163 28.0092L13.5364 35.1356M36.0303 17.4624L21.7562 34.3722C21.7213 34.4136 21.6755 34.4444 21.6239 34.4613L15.5203 36.4555M21.5662 34.4355C21.2021 32.7335 19.6013 29.385 16.1081 28.5018M13.7892 37.021L13.3755 37.1562C13.1494 37.2301 12.9346 37.0167 13.0071 36.7901L13.0925 36.5232M13.7892 37.021C13.8594 37.0128 13.8184 36.9017 13.0925 36.5232M13.7892 37.021L14.4986 36.7892M13.0925 36.5232L13.2439 36.05M14.4986 36.7892C14.2172 36.5428 13.5724 36.05 13.2439 36.05M14.4986 36.7892L15.1256 36.5844M13.2439 36.05L13.4112 35.527M15.1256 36.5844C14.7468 36.2715 13.8736 35.6219 13.4112 35.527M15.1256 36.5844L15.5203 36.4555M13.4112 35.527L13.5364 35.1356M15.5203 36.4555C15.3094 36.1385 14.6174 35.4308 13.5364 35.1356" stroke="white" stroke-width="2" stroke-linecap="round"/>
</svg>
