<svg width="188" height="39" viewBox="0 0 188 39" fill="none" xmlns="http://www.w3.org/2000/svg">
<rect x="1" y="1" width="186" height="37" rx="4" stroke="#6663CF" stroke-width="2"/>
<path d="M48.2734 14.4205C48.2128 13.8826 47.9628 13.4659 47.5234 13.1705C47.084 12.8712 46.531 12.7216 45.8643 12.7216C45.3871 12.7216 44.9742 12.7973 44.6257 12.9489C44.2772 13.0966 44.0064 13.3011 43.8132 13.5625C43.6238 13.8201 43.5291 14.1136 43.5291 14.4432C43.5291 14.7197 43.5935 14.9583 43.7223 15.1591C43.8549 15.3598 44.0272 15.5284 44.2393 15.6648C44.4553 15.7973 44.6863 15.9091 44.9325 16C45.1787 16.0871 45.4155 16.1591 45.6428 16.2159L46.7791 16.5114C47.1503 16.6023 47.531 16.7254 47.9212 16.8807C48.3113 17.036 48.6731 17.2405 49.0064 17.4943C49.3397 17.7481 49.6087 18.0625 49.8132 18.4375C50.0215 18.8125 50.1257 19.2614 50.1257 19.7841C50.1257 20.4432 49.9553 21.0284 49.6143 21.5398C49.2772 22.0511 48.7867 22.4545 48.1428 22.75C47.5026 23.0455 46.728 23.1932 45.8189 23.1932C44.9477 23.1932 44.1939 23.0549 43.5575 22.7784C42.9212 22.5019 42.4231 22.1098 42.0632 21.6023C41.7034 21.0909 41.5045 20.4848 41.4666 19.7841H43.228C43.2621 20.2045 43.3984 20.5549 43.6371 20.8352C43.8795 21.1117 44.1882 21.3182 44.5632 21.4545C44.942 21.5871 45.3568 21.6534 45.8075 21.6534C46.3037 21.6534 46.745 21.5758 47.1314 21.4205C47.5215 21.2614 47.8284 21.0417 48.0518 20.7614C48.2753 20.4773 48.3871 20.1458 48.3871 19.767C48.3871 19.4223 48.2886 19.1402 48.0916 18.9205C47.8984 18.7008 47.6352 18.5189 47.3018 18.375C46.9723 18.2311 46.5992 18.1042 46.1825 17.9943L44.8075 17.6193C43.8757 17.3655 43.1371 16.9924 42.5916 16.5C42.05 16.0076 41.7791 15.3561 41.7791 14.5455C41.7791 13.875 41.9609 13.2898 42.3246 12.7898C42.6882 12.2898 43.1806 11.9015 43.8018 11.625C44.4231 11.3447 45.1238 11.2045 45.9041 11.2045C46.692 11.2045 47.3871 11.3428 47.9893 11.6193C48.5954 11.8958 49.0727 12.2765 49.4212 12.7614C49.7697 13.2424 49.9515 13.7955 49.9666 14.4205H48.2734ZM54.6271 23.1932C54.0741 23.1932 53.5741 23.0909 53.1271 22.8864C52.6802 22.678 52.326 22.3769 52.0646 21.983C51.8071 21.589 51.6783 21.1061 51.6783 20.5341C51.6783 20.0417 51.773 19.6364 51.9624 19.3182C52.1518 19 52.4074 18.7481 52.7294 18.5625C53.0514 18.3769 53.4112 18.2367 53.8089 18.142C54.2067 18.0473 54.612 17.9754 55.0249 17.9261C55.5476 17.8655 55.9718 17.8163 56.2976 17.7784C56.6233 17.7367 56.8601 17.6705 57.0078 17.5795C57.1555 17.4886 57.2294 17.3409 57.2294 17.1364V17.0966C57.2294 16.6004 57.0893 16.2159 56.8089 15.9432C56.5324 15.6705 56.1196 15.5341 55.5703 15.5341C54.9983 15.5341 54.5476 15.661 54.218 15.9148C53.8923 16.1648 53.6669 16.4432 53.5419 16.75L51.9453 16.3864C52.1347 15.8561 52.4112 15.428 52.7749 15.1023C53.1423 14.7727 53.5646 14.5341 54.0419 14.3864C54.5192 14.2348 55.0211 14.1591 55.5476 14.1591C55.8961 14.1591 56.2654 14.2008 56.6555 14.2841C57.0495 14.3636 57.4169 14.5114 57.7578 14.7273C58.1025 14.9432 58.3847 15.2519 58.6044 15.6534C58.8241 16.0511 58.9339 16.5682 58.9339 17.2045V23H57.2749V21.8068H57.2067C57.0968 22.0265 56.9321 22.2424 56.7124 22.4545C56.4927 22.6667 56.2105 22.8428 55.8658 22.983C55.5211 23.1231 55.1082 23.1932 54.6271 23.1932ZM54.9964 21.8295C55.4661 21.8295 55.8677 21.7367 56.201 21.5511C56.5381 21.3655 56.7938 21.1231 56.968 20.8239C57.1461 20.5208 57.2351 20.197 57.2351 19.8523V18.7273C57.1745 18.7879 57.0571 18.8447 56.8828 18.8977C56.7124 18.947 56.5173 18.9905 56.2976 19.0284C56.0779 19.0625 55.8639 19.0947 55.6555 19.125C55.4472 19.1515 55.273 19.1742 55.1328 19.1932C54.8033 19.2348 54.5021 19.3049 54.2294 19.4034C53.9605 19.5019 53.7446 19.6439 53.5817 19.8295C53.4226 20.0114 53.343 20.2538 53.343 20.5568C53.343 20.9773 53.4983 21.2955 53.8089 21.5114C54.1196 21.7235 54.5154 21.8295 54.9964 21.8295ZM68.3501 14.2727L65.1854 23H63.3672L60.1967 14.2727H62.0206L64.2308 20.9886H64.3217L66.5263 14.2727H68.3501ZM73.4112 23.1761C72.5514 23.1761 71.8108 22.9924 71.1896 22.625C70.5722 22.2538 70.0949 21.733 69.7578 21.0625C69.4245 20.3883 69.2578 19.5985 69.2578 18.6932C69.2578 17.7992 69.4245 17.0114 69.7578 16.3295C70.0949 15.6477 70.5646 15.1155 71.1669 14.733C71.773 14.3504 72.4813 14.1591 73.2919 14.1591C73.7843 14.1591 74.2616 14.2405 74.7237 14.4034C75.1858 14.5663 75.6006 14.822 75.968 15.1705C76.3355 15.5189 76.6252 15.9716 76.8374 16.5284C77.0495 17.0814 77.1555 17.7538 77.1555 18.5455V19.1477H70.218V17.875H75.4908C75.4908 17.428 75.3999 17.0322 75.218 16.6875C75.0362 16.339 74.7805 16.0644 74.451 15.8636C74.1252 15.6629 73.7427 15.5625 73.3033 15.5625C72.826 15.5625 72.4093 15.6799 72.0533 15.9148C71.701 16.1458 71.4283 16.4489 71.2351 16.8239C71.0457 17.1951 70.951 17.5985 70.951 18.0341V19.0284C70.951 19.6117 71.0533 20.108 71.2578 20.517C71.4661 20.9261 71.7559 21.2386 72.1271 21.4545C72.4983 21.6667 72.9321 21.7727 73.4283 21.7727C73.7502 21.7727 74.0438 21.7273 74.3089 21.6364C74.5741 21.5417 74.8033 21.4015 74.9964 21.2159C75.1896 21.0303 75.3374 20.8011 75.4396 20.5284L77.0476 20.8182C76.9188 21.2917 76.6877 21.7064 76.3544 22.0625C76.0249 22.4148 75.6101 22.6894 75.1101 22.8864C74.6139 23.0795 74.0476 23.1761 73.4112 23.1761ZM86.951 23.1761C86.1063 23.1761 85.379 22.9848 84.7692 22.6023C84.1631 22.2159 83.6972 21.6837 83.3714 21.0057C83.0457 20.3277 82.8828 19.5511 82.8828 18.6761C82.8828 17.7898 83.0495 17.0076 83.3828 16.3295C83.7161 15.6477 84.1858 15.1155 84.7919 14.733C85.398 14.3504 86.112 14.1591 86.9339 14.1591C87.5968 14.1591 88.1877 14.2822 88.7067 14.5284C89.2256 14.7708 89.6442 15.1117 89.9624 15.5511C90.2843 15.9905 90.4756 16.5038 90.5362 17.0909H88.8828C88.7919 16.6818 88.5836 16.3295 88.2578 16.0341C87.9358 15.7386 87.504 15.5909 86.9624 15.5909C86.4889 15.5909 86.0741 15.7159 85.718 15.9659C85.3658 16.2121 85.0911 16.5644 84.8942 17.0227C84.6972 17.4773 84.5987 18.0152 84.5987 18.6364C84.5987 19.2727 84.6953 19.822 84.8885 20.2841C85.0817 20.7462 85.3544 21.1042 85.7067 21.358C86.0627 21.6117 86.4813 21.7386 86.9624 21.7386C87.2843 21.7386 87.576 21.6799 87.8374 21.5625C88.1025 21.4413 88.3241 21.2689 88.5021 21.0455C88.6839 20.822 88.8108 20.553 88.8828 20.2386H90.5362C90.4756 20.803 90.2919 21.3068 89.9851 21.75C89.6783 22.1932 89.2673 22.5417 88.7521 22.7955C88.2408 23.0492 87.6404 23.1761 86.951 23.1761ZM94.0518 17.8182V23H92.353V11.3636H94.0291V15.6932H94.1371C94.3416 15.2235 94.6541 14.8504 95.0746 14.5739C95.495 14.2973 96.0443 14.1591 96.7223 14.1591C97.3208 14.1591 97.8435 14.2822 98.2905 14.5284C98.7412 14.7746 99.0897 15.142 99.3359 15.6307C99.5859 16.1155 99.7109 16.7216 99.7109 17.4489V23H98.0121V17.6534C98.0121 17.0133 97.8473 16.517 97.5178 16.1648C97.1882 15.8087 96.7299 15.6307 96.1428 15.6307C95.7412 15.6307 95.3814 15.7159 95.0632 15.8864C94.7488 16.0568 94.5007 16.3068 94.3189 16.6364C94.1409 16.9621 94.0518 17.3561 94.0518 17.8182ZM104.518 23.1932C103.965 23.1932 103.465 23.0909 103.018 22.8864C102.571 22.678 102.217 22.3769 101.955 21.983C101.698 21.589 101.569 21.1061 101.569 20.5341C101.569 20.0417 101.664 19.6364 101.853 19.3182C102.042 19 102.298 18.7481 102.62 18.5625C102.942 18.3769 103.302 18.2367 103.7 18.142C104.097 18.0473 104.503 17.9754 104.915 17.9261C105.438 17.8655 105.862 17.8163 106.188 17.7784C106.514 17.7367 106.751 17.6705 106.898 17.5795C107.046 17.4886 107.12 17.3409 107.12 17.1364V17.0966C107.12 16.6004 106.98 16.2159 106.7 15.9432C106.423 15.6705 106.01 15.5341 105.461 15.5341C104.889 15.5341 104.438 15.661 104.109 15.9148C103.783 16.1648 103.558 16.4432 103.433 16.75L101.836 16.3864C102.025 15.8561 102.302 15.428 102.665 15.1023C103.033 14.7727 103.455 14.5341 103.933 14.3864C104.41 14.2348 104.912 14.1591 105.438 14.1591C105.787 14.1591 106.156 14.2008 106.546 14.2841C106.94 14.3636 107.308 14.5114 107.648 14.7273C107.993 14.9432 108.275 15.2519 108.495 15.6534C108.715 16.0511 108.825 16.5682 108.825 17.2045V23H107.165V21.8068H107.097C106.987 22.0265 106.823 22.2424 106.603 22.4545C106.383 22.6667 106.101 22.8428 105.756 22.983C105.412 23.1231 104.999 23.1932 104.518 23.1932ZM104.887 21.8295C105.357 21.8295 105.758 21.7367 106.092 21.5511C106.429 21.3655 106.684 21.1231 106.859 20.8239C107.037 20.5208 107.126 20.197 107.126 19.8523V18.7273C107.065 18.7879 106.948 18.8447 106.773 18.8977C106.603 18.947 106.408 18.9905 106.188 19.0284C105.969 19.0625 105.754 19.0947 105.546 19.125C105.338 19.1515 105.164 19.1742 105.023 19.1932C104.694 19.2348 104.393 19.3049 104.12 19.4034C103.851 19.5019 103.635 19.6439 103.472 19.8295C103.313 20.0114 103.234 20.2538 103.234 20.5568C103.234 20.9773 103.389 21.2955 103.7 21.5114C104.01 21.7235 104.406 21.8295 104.887 21.8295ZM112.786 17.8182V23H111.087V14.2727H112.718V15.6932H112.826C113.027 15.2311 113.341 14.8598 113.769 14.5795C114.201 14.2992 114.745 14.1591 115.4 14.1591C115.995 14.1591 116.515 14.2841 116.962 14.5341C117.409 14.7803 117.756 15.1477 118.002 15.6364C118.248 16.125 118.371 16.7292 118.371 17.4489V23H116.673V17.6534C116.673 17.0208 116.508 16.5265 116.178 16.1705C115.849 15.8106 115.396 15.6307 114.82 15.6307C114.426 15.6307 114.076 15.7159 113.769 15.8864C113.466 16.0568 113.226 16.3068 113.048 16.6364C112.873 16.9621 112.786 17.3561 112.786 17.8182ZM124.309 26.4545C123.616 26.4545 123.019 26.3636 122.519 26.1818C122.023 26 121.618 25.7595 121.303 25.4602C120.989 25.161 120.754 24.8333 120.599 24.4773L122.059 23.875C122.161 24.0417 122.298 24.2178 122.468 24.4034C122.642 24.5928 122.877 24.7538 123.173 24.8864C123.472 25.0189 123.856 25.0852 124.326 25.0852C124.97 25.0852 125.502 24.928 125.923 24.6136C126.343 24.303 126.553 23.8068 126.553 23.125V21.4091H126.445C126.343 21.5947 126.195 21.8011 126.002 22.0284C125.813 22.2557 125.551 22.4527 125.218 22.6193C124.885 22.786 124.451 22.8693 123.917 22.8693C123.228 22.8693 122.606 22.7083 122.053 22.3864C121.504 22.0606 121.068 21.5814 120.746 20.9489C120.428 20.3125 120.269 19.5303 120.269 18.6023C120.269 17.6742 120.426 16.8788 120.741 16.2159C121.059 15.553 121.495 15.0455 122.048 14.6932C122.601 14.3371 123.228 14.1591 123.928 14.1591C124.47 14.1591 124.907 14.25 125.241 14.4318C125.574 14.6098 125.834 14.8182 126.019 15.0568C126.209 15.2955 126.354 15.5057 126.457 15.6875H126.582V14.2727H128.246V23.1932C128.246 23.9432 128.072 24.5587 127.724 25.0398C127.375 25.5208 126.904 25.8769 126.309 26.108C125.718 26.339 125.051 26.4545 124.309 26.4545ZM124.292 21.4602C124.781 21.4602 125.193 21.3466 125.531 21.1193C125.871 20.8883 126.129 20.5587 126.303 20.1307C126.481 19.6989 126.57 19.1818 126.57 18.5795C126.57 17.9924 126.483 17.4754 126.309 17.0284C126.135 16.5814 125.879 16.233 125.542 15.983C125.205 15.7292 124.788 15.6023 124.292 15.6023C123.781 15.6023 123.354 15.7348 123.013 16C122.673 16.2614 122.415 16.6174 122.241 17.0682C122.07 17.5189 121.985 18.0227 121.985 18.5795C121.985 19.1515 122.072 19.6534 122.246 20.0852C122.421 20.517 122.678 20.8542 123.019 21.0966C123.364 21.339 123.788 21.4602 124.292 21.4602ZM134.286 23.1761C133.426 23.1761 132.686 22.9924 132.065 22.625C131.447 22.2538 130.97 21.733 130.633 21.0625C130.299 20.3883 130.133 19.5985 130.133 18.6932C130.133 17.7992 130.299 17.0114 130.633 16.3295C130.97 15.6477 131.44 15.1155 132.042 14.733C132.648 14.3504 133.356 14.1591 134.167 14.1591C134.659 14.1591 135.137 14.2405 135.599 14.4034C136.061 14.5663 136.476 14.822 136.843 15.1705C137.21 15.5189 137.5 15.9716 137.712 16.5284C137.924 17.0814 138.031 17.7538 138.031 18.5455V19.1477H131.093V17.875H136.366C136.366 17.428 136.275 17.0322 136.093 16.6875C135.911 16.339 135.656 16.0644 135.326 15.8636C135 15.6629 134.618 15.5625 134.178 15.5625C133.701 15.5625 133.284 15.6799 132.928 15.9148C132.576 16.1458 132.303 16.4489 132.11 16.8239C131.921 17.1951 131.826 17.5985 131.826 18.0341V19.0284C131.826 19.6117 131.928 20.108 132.133 20.517C132.341 20.9261 132.631 21.2386 133.002 21.4545C133.373 21.6667 133.807 21.7727 134.303 21.7727C134.625 21.7727 134.919 21.7273 135.184 21.6364C135.449 21.5417 135.678 21.4015 135.871 21.2159C136.065 21.0303 136.212 20.8011 136.315 20.5284L137.923 20.8182C137.794 21.2917 137.563 21.7064 137.229 22.0625C136.9 22.4148 136.485 22.6894 135.985 22.8864C135.489 23.0795 134.923 23.1761 134.286 23.1761ZM146.455 16.4034L144.915 16.6761C144.851 16.4792 144.749 16.2917 144.609 16.1136C144.472 15.9356 144.287 15.7898 144.052 15.6761C143.817 15.5625 143.523 15.5057 143.171 15.5057C142.69 15.5057 142.289 15.6136 141.967 15.8295C141.645 16.0417 141.484 16.3163 141.484 16.6534C141.484 16.9451 141.592 17.1799 141.808 17.358C142.023 17.536 142.372 17.6818 142.853 17.7955L144.239 18.1136C145.042 18.2992 145.641 18.5852 146.035 18.9716C146.429 19.358 146.626 19.8598 146.626 20.4773C146.626 21 146.474 21.4659 146.171 21.875C145.872 22.2803 145.453 22.5985 144.915 22.8295C144.381 23.0606 143.762 23.1761 143.058 23.1761C142.08 23.1761 141.283 22.9678 140.665 22.5511C140.048 22.1307 139.669 21.5341 139.529 20.7614L141.171 20.5114C141.273 20.9394 141.484 21.2633 141.802 21.483C142.12 21.6989 142.535 21.8068 143.046 21.8068C143.603 21.8068 144.048 21.6913 144.381 21.4602C144.715 21.2254 144.881 20.9394 144.881 20.6023C144.881 20.3295 144.779 20.1004 144.575 19.9148C144.374 19.7292 144.065 19.589 143.648 19.4943L142.171 19.1705C141.357 18.9848 140.754 18.6894 140.364 18.2841C139.978 17.8788 139.785 17.3655 139.785 16.7443C139.785 16.2292 139.929 15.7784 140.217 15.392C140.504 15.0057 140.902 14.7045 141.41 14.4886C141.917 14.2689 142.499 14.1591 143.154 14.1591C144.097 14.1591 144.84 14.3636 145.381 14.7727C145.923 15.178 146.281 15.7216 146.455 16.4034Z" fill="#4B5563"/>
</svg>
