<svg width="190" height="34" viewBox="0 0 190 34" fill="none" xmlns="http://www.w3.org/2000/svg">
<rect x="1" y="1" width="188" height="32" rx="4" stroke="#6663CF" stroke-width="2"/>
<path d="M49.2734 13.6512C49.2128 13.1133 48.9628 12.6967 48.5234 12.4012C48.084 12.102 47.531 11.9524 46.8643 11.9524C46.3871 11.9524 45.9742 12.0281 45.6257 12.1796C45.2772 12.3274 45.0064 12.5319 44.8132 12.7933C44.6238 13.0508 44.5291 13.3444 44.5291 13.674C44.5291 13.9505 44.5935 14.1891 44.7223 14.3899C44.8549 14.5906 45.0272 14.7592 45.2393 14.8955C45.4553 15.0281 45.6863 15.1399 45.9325 15.2308C46.1787 15.3179 46.4155 15.3899 46.6428 15.4467L47.7791 15.7421C48.1503 15.833 48.531 15.9562 48.9212 16.1115C49.3113 16.2668 49.6731 16.4713 50.0064 16.7251C50.3397 16.9789 50.6087 17.2933 50.8132 17.6683C51.0215 18.0433 51.1257 18.4921 51.1257 19.0149C51.1257 19.674 50.9553 20.2592 50.6143 20.7705C50.2772 21.2819 49.7867 21.6853 49.1428 21.9808C48.5026 22.2762 47.728 22.424 46.8189 22.424C45.9477 22.424 45.1939 22.2857 44.5575 22.0092C43.9212 21.7327 43.4231 21.3406 43.0632 20.833C42.7034 20.3217 42.5045 19.7156 42.4666 19.0149H44.228C44.2621 19.4353 44.3984 19.7857 44.6371 20.066C44.8795 20.3425 45.1882 20.549 45.5632 20.6853C45.942 20.8179 46.3568 20.8842 46.8075 20.8842C47.3037 20.8842 47.745 20.8065 48.1314 20.6512C48.5215 20.4921 48.8284 20.2724 49.0518 19.9921C49.2753 19.708 49.3871 19.3766 49.3871 18.9978C49.3871 18.6531 49.2886 18.3709 49.0916 18.1512C48.8984 17.9315 48.6352 17.7497 48.3018 17.6058C47.9723 17.4618 47.5992 17.3349 47.1825 17.2251L45.8075 16.8501C44.8757 16.5963 44.1371 16.2232 43.5916 15.7308C43.05 15.2383 42.7791 14.5868 42.7791 13.7762C42.7791 13.1058 42.9609 12.5205 43.3246 12.0205C43.6882 11.5205 44.1806 11.1323 44.8018 10.8558C45.4231 10.5755 46.1238 10.4353 46.9041 10.4353C47.692 10.4353 48.3871 10.5736 48.9893 10.8501C49.5954 11.1266 50.0727 11.5073 50.4212 11.9921C50.7697 12.4732 50.9515 13.0262 50.9666 13.6512H49.2734ZM55.6271 22.424C55.0741 22.424 54.5741 22.3217 54.1271 22.1171C53.6802 21.9088 53.326 21.6077 53.0646 21.2137C52.8071 20.8198 52.6783 20.3368 52.6783 19.7649C52.6783 19.2724 52.773 18.8671 52.9624 18.549C53.1518 18.2308 53.4074 17.9789 53.7294 17.7933C54.0514 17.6077 54.4112 17.4675 54.8089 17.3728C55.2067 17.2781 55.612 17.2062 56.0249 17.1569C56.5476 17.0963 56.9718 17.0471 57.2976 17.0092C57.6233 16.9675 57.8601 16.9012 58.0078 16.8103C58.1555 16.7194 58.2294 16.5717 58.2294 16.3671V16.3274C58.2294 15.8312 58.0893 15.4467 57.8089 15.174C57.5324 14.9012 57.1196 14.7649 56.5703 14.7649C55.9983 14.7649 55.5476 14.8918 55.218 15.1455C54.8923 15.3955 54.6669 15.674 54.5419 15.9808L52.9453 15.6171C53.1347 15.0868 53.4112 14.6588 53.7749 14.333C54.1423 14.0035 54.5646 13.7649 55.0419 13.6171C55.5192 13.4656 56.0211 13.3899 56.5476 13.3899C56.8961 13.3899 57.2654 13.4315 57.6555 13.5149C58.0495 13.5944 58.4169 13.7421 58.7578 13.958C59.1025 14.174 59.3847 14.4827 59.6044 14.8842C59.8241 15.2819 59.9339 15.799 59.9339 16.4353V22.2308H58.2749V21.0376H58.2067C58.0968 21.2573 57.9321 21.4732 57.7124 21.6853C57.4927 21.8974 57.2105 22.0736 56.8658 22.2137C56.5211 22.3539 56.1082 22.424 55.6271 22.424ZM55.9964 21.0603C56.4661 21.0603 56.8677 20.9675 57.201 20.7819C57.5381 20.5963 57.7938 20.3539 57.968 20.0546C58.1461 19.7516 58.2351 19.4277 58.2351 19.083V17.958C58.1745 18.0187 58.0571 18.0755 57.8828 18.1285C57.7124 18.1777 57.5173 18.2213 57.2976 18.2592C57.0779 18.2933 56.8639 18.3255 56.6555 18.3558C56.4472 18.3823 56.273 18.405 56.1328 18.424C55.8033 18.4656 55.5021 18.5357 55.2294 18.6342C54.9605 18.7327 54.7446 18.8747 54.5817 19.0603C54.4226 19.2421 54.343 19.4846 54.343 19.7876C54.343 20.208 54.4983 20.5262 54.8089 20.7421C55.1196 20.9543 55.5154 21.0603 55.9964 21.0603ZM69.3501 13.5035L66.1854 22.2308H64.3672L61.1967 13.5035H63.0206L65.2308 20.2194H65.3217L67.5263 13.5035H69.3501ZM74.4112 22.4069C73.5514 22.4069 72.8108 22.2232 72.1896 21.8558C71.5722 21.4846 71.0949 20.9637 70.7578 20.2933C70.4245 19.619 70.2578 18.8293 70.2578 17.924C70.2578 17.03 70.4245 16.2421 70.7578 15.5603C71.0949 14.8785 71.5646 14.3463 72.1669 13.9637C72.773 13.5812 73.4813 13.3899 74.2919 13.3899C74.7843 13.3899 75.2616 13.4713 75.7237 13.6342C76.1858 13.7971 76.6006 14.0527 76.968 14.4012C77.3355 14.7497 77.6252 15.2024 77.8374 15.7592C78.0495 16.3122 78.1555 16.9846 78.1555 17.7762V18.3785H71.218V17.1058H76.4908C76.4908 16.6588 76.3999 16.263 76.218 15.9183C76.0362 15.5698 75.7805 15.2952 75.451 15.0944C75.1252 14.8937 74.7427 14.7933 74.3033 14.7933C73.826 14.7933 73.4093 14.9107 73.0533 15.1455C72.701 15.3766 72.4283 15.6796 72.2351 16.0546C72.0457 16.4258 71.951 16.8293 71.951 17.2649V18.2592C71.951 18.8425 72.0533 19.3387 72.2578 19.7478C72.4661 20.1569 72.7559 20.4694 73.1271 20.6853C73.4983 20.8974 73.9321 21.0035 74.4283 21.0035C74.7502 21.0035 75.0438 20.958 75.3089 20.8671C75.5741 20.7724 75.8033 20.6323 75.9964 20.4467C76.1896 20.2611 76.3374 20.0319 76.4396 19.7592L78.0476 20.049C77.9188 20.5224 77.6877 20.9372 77.3544 21.2933C77.0249 21.6455 76.6101 21.9202 76.1101 22.1171C75.6139 22.3103 75.0476 22.4069 74.4112 22.4069ZM87.951 22.4069C87.1063 22.4069 86.379 22.2156 85.7692 21.833C85.1631 21.4467 84.6972 20.9145 84.3714 20.2365C84.0457 19.5584 83.8828 18.7819 83.8828 17.9069C83.8828 17.0205 84.0495 16.2383 84.3828 15.5603C84.7161 14.8785 85.1858 14.3463 85.7919 13.9637C86.398 13.5812 87.112 13.3899 87.9339 13.3899C88.5968 13.3899 89.1877 13.513 89.7067 13.7592C90.2256 14.0016 90.6442 14.3425 90.9624 14.7819C91.2843 15.2213 91.4756 15.7346 91.5362 16.3217H89.8828C89.7919 15.9126 89.5836 15.5603 89.2578 15.2649C88.9358 14.9694 88.504 14.8217 87.9624 14.8217C87.4889 14.8217 87.0741 14.9467 86.718 15.1967C86.3658 15.4429 86.0911 15.7952 85.8942 16.2535C85.6972 16.708 85.5987 17.2459 85.5987 17.8671C85.5987 18.5035 85.6953 19.0527 85.8885 19.5149C86.0817 19.977 86.3544 20.3349 86.7067 20.5887C87.0627 20.8425 87.4813 20.9694 87.9624 20.9694C88.2843 20.9694 88.576 20.9107 88.8374 20.7933C89.1025 20.6721 89.3241 20.4997 89.5021 20.2762C89.6839 20.0527 89.8108 19.7838 89.8828 19.4694H91.5362C91.4756 20.0338 91.2919 20.5376 90.9851 20.9808C90.6783 21.424 90.2673 21.7724 89.7521 22.0262C89.2408 22.28 88.6404 22.4069 87.951 22.4069ZM95.0518 17.049V22.2308H93.353V10.5944H95.0291V14.924H95.1371C95.3416 14.4543 95.6541 14.0812 96.0746 13.8046C96.495 13.5281 97.0443 13.3899 97.7223 13.3899C98.3208 13.3899 98.8435 13.513 99.2905 13.7592C99.7412 14.0054 100.09 14.3728 100.336 14.8615C100.586 15.3463 100.711 15.9524 100.711 16.6796V22.2308H99.0121V16.8842C99.0121 16.244 98.8473 15.7478 98.5178 15.3955C98.1882 15.0395 97.7299 14.8615 97.1428 14.8615C96.7412 14.8615 96.3814 14.9467 96.0632 15.1171C95.7488 15.2876 95.5007 15.5376 95.3189 15.8671C95.1409 16.1929 95.0518 16.5868 95.0518 17.049ZM105.518 22.424C104.965 22.424 104.465 22.3217 104.018 22.1171C103.571 21.9088 103.217 21.6077 102.955 21.2137C102.698 20.8198 102.569 20.3368 102.569 19.7649C102.569 19.2724 102.664 18.8671 102.853 18.549C103.042 18.2308 103.298 17.9789 103.62 17.7933C103.942 17.6077 104.302 17.4675 104.7 17.3728C105.097 17.2781 105.503 17.2062 105.915 17.1569C106.438 17.0963 106.862 17.0471 107.188 17.0092C107.514 16.9675 107.751 16.9012 107.898 16.8103C108.046 16.7194 108.12 16.5717 108.12 16.3671V16.3274C108.12 15.8312 107.98 15.4467 107.7 15.174C107.423 14.9012 107.01 14.7649 106.461 14.7649C105.889 14.7649 105.438 14.8918 105.109 15.1455C104.783 15.3955 104.558 15.674 104.433 15.9808L102.836 15.6171C103.025 15.0868 103.302 14.6588 103.665 14.333C104.033 14.0035 104.455 13.7649 104.933 13.6171C105.41 13.4656 105.912 13.3899 106.438 13.3899C106.787 13.3899 107.156 13.4315 107.546 13.5149C107.94 13.5944 108.308 13.7421 108.648 13.958C108.993 14.174 109.275 14.4827 109.495 14.8842C109.715 15.2819 109.825 15.799 109.825 16.4353V22.2308H108.165V21.0376H108.097C107.987 21.2573 107.823 21.4732 107.603 21.6853C107.383 21.8974 107.101 22.0736 106.756 22.2137C106.412 22.3539 105.999 22.424 105.518 22.424ZM105.887 21.0603C106.357 21.0603 106.758 20.9675 107.092 20.7819C107.429 20.5963 107.684 20.3539 107.859 20.0546C108.037 19.7516 108.126 19.4277 108.126 19.083V17.958C108.065 18.0187 107.948 18.0755 107.773 18.1285C107.603 18.1777 107.408 18.2213 107.188 18.2592C106.969 18.2933 106.754 18.3255 106.546 18.3558C106.338 18.3823 106.164 18.405 106.023 18.424C105.694 18.4656 105.393 18.5357 105.12 18.6342C104.851 18.7327 104.635 18.8747 104.472 19.0603C104.313 19.2421 104.234 19.4846 104.234 19.7876C104.234 20.208 104.389 20.5262 104.7 20.7421C105.01 20.9543 105.406 21.0603 105.887 21.0603ZM113.786 17.049V22.2308H112.087V13.5035H113.718V14.924H113.826C114.027 14.4618 114.341 14.0906 114.769 13.8103C115.201 13.53 115.745 13.3899 116.4 13.3899C116.995 13.3899 117.515 13.5149 117.962 13.7649C118.409 14.0111 118.756 14.3785 119.002 14.8671C119.248 15.3558 119.371 15.9599 119.371 16.6796V22.2308H117.673V16.8842C117.673 16.2516 117.508 15.7573 117.178 15.4012C116.849 15.0414 116.396 14.8615 115.82 14.8615C115.426 14.8615 115.076 14.9467 114.769 15.1171C114.466 15.2876 114.226 15.5376 114.048 15.8671C113.873 16.1929 113.786 16.5868 113.786 17.049ZM125.309 25.6853C124.616 25.6853 124.019 25.5944 123.519 25.4126C123.023 25.2308 122.618 24.9902 122.303 24.691C121.989 24.3918 121.754 24.0641 121.599 23.708L123.059 23.1058C123.161 23.2724 123.298 23.4486 123.468 23.6342C123.642 23.8236 123.877 23.9846 124.173 24.1171C124.472 24.2497 124.856 24.316 125.326 24.316C125.97 24.316 126.502 24.1588 126.923 23.8444C127.343 23.5338 127.553 23.0376 127.553 22.3558V20.6399H127.445C127.343 20.8255 127.195 21.0319 127.002 21.2592C126.813 21.4865 126.551 21.6834 126.218 21.8501C125.885 22.0168 125.451 22.1001 124.917 22.1001C124.228 22.1001 123.606 21.9391 123.053 21.6171C122.504 21.2914 122.068 20.8122 121.746 20.1796C121.428 19.5433 121.269 18.7611 121.269 17.833C121.269 16.905 121.426 16.1096 121.741 15.4467C122.059 14.7838 122.495 14.2762 123.048 13.924C123.601 13.5679 124.228 13.3899 124.928 13.3899C125.47 13.3899 125.907 13.4808 126.241 13.6626C126.574 13.8406 126.834 14.049 127.019 14.2876C127.209 14.5262 127.354 14.7365 127.457 14.9183H127.582V13.5035H129.246V22.424C129.246 23.174 129.072 23.7895 128.724 24.2705C128.375 24.7516 127.904 25.1077 127.309 25.3387C126.718 25.5698 126.051 25.6853 125.309 25.6853ZM125.292 20.691C125.781 20.691 126.193 20.5774 126.531 20.3501C126.871 20.119 127.129 19.7895 127.303 19.3615C127.481 18.9296 127.57 18.4126 127.57 17.8103C127.57 17.2232 127.483 16.7062 127.309 16.2592C127.135 15.8122 126.879 15.4637 126.542 15.2137C126.205 14.9599 125.788 14.833 125.292 14.833C124.781 14.833 124.354 14.9656 124.013 15.2308C123.673 15.4921 123.415 15.8482 123.241 16.299C123.07 16.7497 122.985 17.2535 122.985 17.8103C122.985 18.3823 123.072 18.8842 123.246 19.316C123.421 19.7478 123.678 20.0849 124.019 20.3274C124.364 20.5698 124.788 20.691 125.292 20.691ZM135.286 22.4069C134.426 22.4069 133.686 22.2232 133.065 21.8558C132.447 21.4846 131.97 20.9637 131.633 20.2933C131.299 19.619 131.133 18.8293 131.133 17.924C131.133 17.03 131.299 16.2421 131.633 15.5603C131.97 14.8785 132.44 14.3463 133.042 13.9637C133.648 13.5812 134.356 13.3899 135.167 13.3899C135.659 13.3899 136.137 13.4713 136.599 13.6342C137.061 13.7971 137.476 14.0527 137.843 14.4012C138.21 14.7497 138.5 15.2024 138.712 15.7592C138.924 16.3122 139.031 16.9846 139.031 17.7762V18.3785H132.093V17.1058H137.366C137.366 16.6588 137.275 16.263 137.093 15.9183C136.911 15.5698 136.656 15.2952 136.326 15.0944C136 14.8937 135.618 14.7933 135.178 14.7933C134.701 14.7933 134.284 14.9107 133.928 15.1455C133.576 15.3766 133.303 15.6796 133.11 16.0546C132.921 16.4258 132.826 16.8293 132.826 17.2649V18.2592C132.826 18.8425 132.928 19.3387 133.133 19.7478C133.341 20.1569 133.631 20.4694 134.002 20.6853C134.373 20.8974 134.807 21.0035 135.303 21.0035C135.625 21.0035 135.919 20.958 136.184 20.8671C136.449 20.7724 136.678 20.6323 136.871 20.4467C137.065 20.2611 137.212 20.0319 137.315 19.7592L138.923 20.049C138.794 20.5224 138.563 20.9372 138.229 21.2933C137.9 21.6455 137.485 21.9202 136.985 22.1171C136.489 22.3103 135.923 22.4069 135.286 22.4069ZM147.455 15.6342L145.915 15.9069C145.851 15.7099 145.749 15.5224 145.609 15.3444C145.472 15.1664 145.287 15.0205 145.052 14.9069C144.817 14.7933 144.523 14.7365 144.171 14.7365C143.69 14.7365 143.289 14.8444 142.967 15.0603C142.645 15.2724 142.484 15.5471 142.484 15.8842C142.484 16.1758 142.592 16.4107 142.808 16.5887C143.023 16.7668 143.372 16.9126 143.853 17.0262L145.239 17.3444C146.042 17.53 146.641 17.816 147.035 18.2024C147.429 18.5887 147.626 19.0906 147.626 19.708C147.626 20.2308 147.474 20.6967 147.171 21.1058C146.872 21.5111 146.453 21.8293 145.915 22.0603C145.381 22.2914 144.762 22.4069 144.058 22.4069C143.08 22.4069 142.283 22.1986 141.665 21.7819C141.048 21.3615 140.669 20.7649 140.529 19.9921L142.171 19.7421C142.273 20.1702 142.484 20.494 142.802 20.7137C143.12 20.9296 143.535 21.0376 144.046 21.0376C144.603 21.0376 145.048 20.9221 145.381 20.691C145.715 20.4562 145.881 20.1702 145.881 19.833C145.881 19.5603 145.779 19.3312 145.575 19.1455C145.374 18.9599 145.065 18.8198 144.648 18.7251L143.171 18.4012C142.357 18.2156 141.754 17.9202 141.364 17.5149C140.978 17.1096 140.785 16.5963 140.785 15.9751C140.785 15.4599 140.929 15.0092 141.217 14.6228C141.504 14.2365 141.902 13.9353 142.41 13.7194C142.917 13.4997 143.499 13.3899 144.154 13.3899C145.097 13.3899 145.84 13.5944 146.381 14.0035C146.923 14.4088 147.281 14.9524 147.455 15.6342Z" fill="#4B5563"/>
</svg>
