<svg width="190" height="34" viewBox="0 0 190 34" fill="none" xmlns="http://www.w3.org/2000/svg">
<rect x="1" y="1" width="188" height="32" rx="4" fill="#6663CF"/>
<rect x="1" y="1" width="188" height="32" rx="4" stroke="#6663CF" stroke-width="2"/>
<path d="M44.7422 14.4205C44.6816 13.8826 44.4316 13.4659 43.9922 13.1705C43.5528 12.8712 42.9998 12.7216 42.3331 12.7216C41.8558 12.7216 41.4429 12.7973 41.0945 12.9489C40.746 13.0966 40.4751 13.3011 40.282 13.5625C40.0926 13.8201 39.9979 14.1136 39.9979 14.4432C39.9979 14.7197 40.0623 14.9583 40.1911 15.1591C40.3236 15.3598 40.496 15.5284 40.7081 15.6648C40.924 15.7973 41.1551 15.9091 41.4013 16C41.6475 16.0871 41.8842 16.1591 42.1115 16.2159L43.2479 16.5114C43.6191 16.6023 43.9998 16.7254 44.3899 16.8807C44.7801 17.036 45.1418 17.2405 45.4751 17.4943C45.8085 17.7481 46.0774 18.0625 46.282 18.4375C46.4903 18.8125 46.5945 19.2614 46.5945 19.7841C46.5945 20.4432 46.424 21.0284 46.0831 21.5398C45.746 22.0511 45.2554 22.4545 44.6115 22.75C43.9714 23.0455 43.1967 23.1932 42.2876 23.1932C41.4164 23.1932 40.6626 23.0549 40.0263 22.7784C39.3899 22.5019 38.8918 22.1098 38.532 21.6023C38.1721 21.0909 37.9732 20.4848 37.9354 19.7841H39.6967C39.7308 20.2045 39.8672 20.5549 40.1058 20.8352C40.3482 21.1117 40.657 21.3182 41.032 21.4545C41.4107 21.5871 41.8255 21.6534 42.2763 21.6534C42.7725 21.6534 43.2138 21.5758 43.6001 21.4205C43.9903 21.2614 44.2971 21.0417 44.5206 20.7614C44.7441 20.4773 44.8558 20.1458 44.8558 19.767C44.8558 19.4223 44.7573 19.1402 44.5604 18.9205C44.3672 18.7008 44.1039 18.5189 43.7706 18.375C43.4411 18.2311 43.0679 18.1042 42.6513 17.9943L41.2763 17.6193C40.3445 17.3655 39.6058 16.9924 39.0604 16.5C38.5187 16.0076 38.2479 15.3561 38.2479 14.5455C38.2479 13.875 38.4297 13.2898 38.7933 12.7898C39.157 12.2898 39.6494 11.9015 40.2706 11.625C40.8918 11.3447 41.5926 11.2045 42.3729 11.2045C43.1607 11.2045 43.8558 11.3428 44.4581 11.6193C45.0642 11.8958 45.5414 12.2765 45.8899 12.7614C46.2384 13.2424 46.4202 13.7955 46.4354 14.4205H44.7422ZM51.0959 23.1932C50.5429 23.1932 50.0429 23.0909 49.5959 22.8864C49.1489 22.678 48.7947 22.3769 48.5334 21.983C48.2758 21.589 48.147 21.1061 48.147 20.5341C48.147 20.0417 48.2417 19.6364 48.4311 19.3182C48.6205 19 48.8762 18.7481 49.1982 18.5625C49.5201 18.3769 49.88 18.2367 50.2777 18.142C50.6754 18.0473 51.0807 17.9754 51.4936 17.9261C52.0163 17.8655 52.4406 17.8163 52.7663 17.7784C53.0921 17.7367 53.3288 17.6705 53.4766 17.5795C53.6243 17.4886 53.6982 17.3409 53.6982 17.1364V17.0966C53.6982 16.6004 53.558 16.2159 53.2777 15.9432C53.0012 15.6705 52.5883 15.5341 52.0391 15.5341C51.4671 15.5341 51.0163 15.661 50.6868 15.9148C50.361 16.1648 50.1357 16.4432 50.0107 16.75L48.4141 16.3864C48.6035 15.8561 48.88 15.428 49.2436 15.1023C49.611 14.7727 50.0334 14.5341 50.5107 14.3864C50.9879 14.2348 51.4898 14.1591 52.0163 14.1591C52.3648 14.1591 52.7341 14.2008 53.1243 14.2841C53.5182 14.3636 53.8857 14.5114 54.2266 14.7273C54.5713 14.9432 54.8535 15.2519 55.0732 15.6534C55.2929 16.0511 55.4027 16.5682 55.4027 17.2045V23H53.7436V21.8068H53.6754C53.5656 22.0265 53.4008 22.2424 53.1811 22.4545C52.9614 22.6667 52.6792 22.8428 52.3345 22.983C51.9898 23.1231 51.5769 23.1932 51.0959 23.1932ZM51.4652 21.8295C51.9349 21.8295 52.3364 21.7367 52.6697 21.5511C53.0069 21.3655 53.2625 21.1231 53.4368 20.8239C53.6148 20.5208 53.7038 20.197 53.7038 19.8523V18.7273C53.6432 18.7879 53.5258 18.8447 53.3516 18.8977C53.1811 18.947 52.986 18.9905 52.7663 19.0284C52.5466 19.0625 52.3326 19.0947 52.1243 19.125C51.916 19.1515 51.7417 19.1742 51.6016 19.1932C51.272 19.2348 50.9709 19.3049 50.6982 19.4034C50.4292 19.5019 50.2133 19.6439 50.0504 19.8295C49.8913 20.0114 49.8118 20.2538 49.8118 20.5568C49.8118 20.9773 49.9671 21.2955 50.2777 21.5114C50.5883 21.7235 50.9841 21.8295 51.4652 21.8295ZM64.8189 14.2727L61.6541 23H59.8359L56.6655 14.2727H58.4893L60.6996 20.9886H60.7905L62.995 14.2727H64.8189ZM69.88 23.1761C69.0201 23.1761 68.2796 22.9924 67.6584 22.625C67.041 22.2538 66.5637 21.733 66.2266 21.0625C65.8932 20.3883 65.7266 19.5985 65.7266 18.6932C65.7266 17.7992 65.8932 17.0114 66.2266 16.3295C66.5637 15.6477 67.0334 15.1155 67.6357 14.733C68.2417 14.3504 68.95 14.1591 69.7607 14.1591C70.2531 14.1591 70.7304 14.2405 71.1925 14.4034C71.6546 14.5663 72.0694 14.822 72.4368 15.1705C72.8042 15.5189 73.094 15.9716 73.3061 16.5284C73.5182 17.0814 73.6243 17.7538 73.6243 18.5455V19.1477H66.6868V17.875H71.9595C71.9595 17.428 71.8686 17.0322 71.6868 16.6875C71.505 16.339 71.2493 16.0644 70.9197 15.8636C70.594 15.6629 70.2114 15.5625 69.772 15.5625C69.2947 15.5625 68.8781 15.6799 68.522 15.9148C68.1697 16.1458 67.897 16.4489 67.7038 16.8239C67.5144 17.1951 67.4197 17.5985 67.4197 18.0341V19.0284C67.4197 19.6117 67.522 20.108 67.7266 20.517C67.9349 20.9261 68.2247 21.2386 68.5959 21.4545C68.9671 21.6667 69.4008 21.7727 69.897 21.7727C70.219 21.7727 70.5125 21.7273 70.7777 21.6364C71.0429 21.5417 71.272 21.4015 71.4652 21.2159C71.6584 21.0303 71.8061 20.8011 71.9084 20.5284L73.5163 20.8182C73.3875 21.2917 73.1565 21.7064 72.8232 22.0625C72.4936 22.4148 72.0788 22.6894 71.5788 22.8864C71.0826 23.0795 70.5163 23.1761 69.88 23.1761ZM83.4197 23.1761C82.575 23.1761 81.8478 22.9848 81.2379 22.6023C80.6319 22.2159 80.166 21.6837 79.8402 21.0057C79.5144 20.3277 79.3516 19.5511 79.3516 18.6761C79.3516 17.7898 79.5182 17.0076 79.8516 16.3295C80.1849 15.6477 80.6546 15.1155 81.2607 14.733C81.8667 14.3504 82.5807 14.1591 83.4027 14.1591C84.0656 14.1591 84.6565 14.2822 85.1754 14.5284C85.6944 14.7708 86.1129 15.1117 86.4311 15.5511C86.7531 15.9905 86.9444 16.5038 87.005 17.0909H85.3516C85.2607 16.6818 85.0523 16.3295 84.7266 16.0341C84.4046 15.7386 83.9728 15.5909 83.4311 15.5909C82.9576 15.5909 82.5429 15.7159 82.1868 15.9659C81.8345 16.2121 81.5599 16.5644 81.3629 17.0227C81.166 17.4773 81.0675 18.0152 81.0675 18.6364C81.0675 19.2727 81.1641 19.822 81.3572 20.2841C81.5504 20.7462 81.8232 21.1042 82.1754 21.358C82.5315 21.6117 82.95 21.7386 83.4311 21.7386C83.7531 21.7386 84.0447 21.6799 84.3061 21.5625C84.5713 21.4413 84.7929 21.2689 84.9709 21.0455C85.1527 20.822 85.2796 20.553 85.3516 20.2386H87.005C86.9444 20.803 86.7607 21.3068 86.4538 21.75C86.147 22.1932 85.736 22.5417 85.2209 22.7955C84.7095 23.0492 84.1091 23.1761 83.4197 23.1761ZM90.5206 17.8182V23H88.8217V11.3636H90.4979V15.6932H90.6058C90.8104 15.2235 91.1229 14.8504 91.5433 14.5739C91.9638 14.2973 92.513 14.1591 93.1911 14.1591C93.7895 14.1591 94.3123 14.2822 94.7592 14.5284C95.21 14.7746 95.5585 15.142 95.8047 15.6307C96.0547 16.1155 96.1797 16.7216 96.1797 17.4489V23H94.4808V17.6534C94.4808 17.0133 94.3161 16.517 93.9865 16.1648C93.657 15.8087 93.1986 15.6307 92.6115 15.6307C92.21 15.6307 91.8501 15.7159 91.532 15.8864C91.2176 16.0568 90.9695 16.3068 90.7876 16.6364C90.6096 16.9621 90.5206 17.3561 90.5206 17.8182ZM100.987 23.1932C100.433 23.1932 99.9335 23.0909 99.4865 22.8864C99.0395 22.678 98.6854 22.3769 98.424 21.983C98.1664 21.589 98.0376 21.1061 98.0376 20.5341C98.0376 20.0417 98.1323 19.6364 98.3217 19.3182C98.5111 19 98.7668 18.7481 99.0888 18.5625C99.4107 18.3769 99.7706 18.2367 100.168 18.142C100.566 18.0473 100.971 17.9754 101.384 17.9261C101.907 17.8655 102.331 17.8163 102.657 17.7784C102.983 17.7367 103.219 17.6705 103.367 17.5795C103.515 17.4886 103.589 17.3409 103.589 17.1364V17.0966C103.589 16.6004 103.449 16.2159 103.168 15.9432C102.892 15.6705 102.479 15.5341 101.93 15.5341C101.358 15.5341 100.907 15.661 100.577 15.9148C100.252 16.1648 100.026 16.4432 99.9013 16.75L98.3047 16.3864C98.4941 15.8561 98.7706 15.428 99.1342 15.1023C99.5017 14.7727 99.924 14.5341 100.401 14.3864C100.879 14.2348 101.38 14.1591 101.907 14.1591C102.255 14.1591 102.625 14.2008 103.015 14.2841C103.409 14.3636 103.776 14.5114 104.117 14.7273C104.462 14.9432 104.744 15.2519 104.964 15.6534C105.183 16.0511 105.293 16.5682 105.293 17.2045V23H103.634V21.8068H103.566C103.456 22.0265 103.291 22.2424 103.072 22.4545C102.852 22.6667 102.57 22.8428 102.225 22.983C101.88 23.1231 101.468 23.1932 100.987 23.1932ZM101.356 21.8295C101.826 21.8295 102.227 21.7367 102.56 21.5511C102.897 21.3655 103.153 21.1231 103.327 20.8239C103.505 20.5208 103.594 20.197 103.594 19.8523V18.7273C103.534 18.7879 103.416 18.8447 103.242 18.8977C103.072 18.947 102.877 18.9905 102.657 19.0284C102.437 19.0625 102.223 19.0947 102.015 19.125C101.807 19.1515 101.632 19.1742 101.492 19.1932C101.163 19.2348 100.862 19.3049 100.589 19.4034C100.32 19.5019 100.104 19.6439 99.9411 19.8295C99.782 20.0114 99.7024 20.2538 99.7024 20.5568C99.7024 20.9773 99.8577 21.2955 100.168 21.5114C100.479 21.7235 100.875 21.8295 101.356 21.8295ZM109.255 17.8182V23H107.556V14.2727H109.187V15.6932H109.295C109.496 15.2311 109.81 14.8598 110.238 14.5795C110.67 14.2992 111.213 14.1591 111.869 14.1591C112.463 14.1591 112.984 14.2841 113.431 14.5341C113.878 14.7803 114.225 15.1477 114.471 15.6364C114.717 16.125 114.84 16.7292 114.84 17.4489V23H113.141V17.6534C113.141 17.0208 112.977 16.5265 112.647 16.1705C112.317 15.8106 111.865 15.6307 111.289 15.6307C110.895 15.6307 110.545 15.7159 110.238 15.8864C109.935 16.0568 109.694 16.3068 109.516 16.6364C109.342 16.9621 109.255 17.3561 109.255 17.8182ZM120.778 26.4545C120.085 26.4545 119.488 26.3636 118.988 26.1818C118.492 26 118.086 25.7595 117.772 25.4602C117.458 25.161 117.223 24.8333 117.067 24.4773L118.528 23.875C118.63 24.0417 118.766 24.2178 118.937 24.4034C119.111 24.5928 119.346 24.7538 119.641 24.8864C119.941 25.0189 120.325 25.0852 120.795 25.0852C121.439 25.0852 121.971 24.928 122.391 24.6136C122.812 24.303 123.022 23.8068 123.022 23.125V21.4091H122.914C122.812 21.5947 122.664 21.8011 122.471 22.0284C122.281 22.2557 122.02 22.4527 121.687 22.6193C121.353 22.786 120.92 22.8693 120.386 22.8693C119.696 22.8693 119.075 22.7083 118.522 22.3864C117.973 22.0606 117.537 21.5814 117.215 20.9489C116.897 20.3125 116.738 19.5303 116.738 18.6023C116.738 17.6742 116.895 16.8788 117.21 16.2159C117.528 15.553 117.963 15.0455 118.516 14.6932C119.069 14.3371 119.696 14.1591 120.397 14.1591C120.939 14.1591 121.376 14.25 121.71 14.4318C122.043 14.6098 122.302 14.8182 122.488 15.0568C122.677 15.2955 122.823 15.5057 122.925 15.6875H123.05V14.2727H124.715V23.1932C124.715 23.9432 124.541 24.5587 124.192 25.0398C123.844 25.5208 123.372 25.8769 122.778 26.108C122.187 26.339 121.52 26.4545 120.778 26.4545ZM120.761 21.4602C121.249 21.4602 121.662 21.3466 121.999 21.1193C122.34 20.8883 122.598 20.5587 122.772 20.1307C122.95 19.6989 123.039 19.1818 123.039 18.5795C123.039 17.9924 122.952 17.4754 122.778 17.0284C122.603 16.5814 122.348 16.233 122.011 15.983C121.674 15.7292 121.257 15.6023 120.761 15.6023C120.249 15.6023 119.823 15.7348 119.482 16C119.141 16.2614 118.884 16.6174 118.71 17.0682C118.539 17.5189 118.454 18.0227 118.454 18.5795C118.454 19.1515 118.541 19.6534 118.715 20.0852C118.889 20.517 119.147 20.8542 119.488 21.0966C119.833 21.339 120.257 21.4602 120.761 21.4602ZM130.755 23.1761C129.895 23.1761 129.155 22.9924 128.533 22.625C127.916 22.2538 127.439 21.733 127.102 21.0625C126.768 20.3883 126.602 19.5985 126.602 18.6932C126.602 17.7992 126.768 17.0114 127.102 16.3295C127.439 15.6477 127.908 15.1155 128.511 14.733C129.117 14.3504 129.825 14.1591 130.636 14.1591C131.128 14.1591 131.605 14.2405 132.067 14.4034C132.53 14.5663 132.944 14.822 133.312 15.1705C133.679 15.5189 133.969 15.9716 134.181 16.5284C134.393 17.0814 134.499 17.7538 134.499 18.5455V19.1477H127.562V17.875H132.835C132.835 17.428 132.744 17.0322 132.562 16.6875C132.38 16.339 132.124 16.0644 131.795 15.8636C131.469 15.6629 131.086 15.5625 130.647 15.5625C130.17 15.5625 129.753 15.6799 129.397 15.9148C129.045 16.1458 128.772 16.4489 128.579 16.8239C128.389 17.1951 128.295 17.5985 128.295 18.0341V19.0284C128.295 19.6117 128.397 20.108 128.602 20.517C128.81 20.9261 129.1 21.2386 129.471 21.4545C129.842 21.6667 130.276 21.7727 130.772 21.7727C131.094 21.7727 131.388 21.7273 131.653 21.6364C131.918 21.5417 132.147 21.4015 132.34 21.2159C132.533 21.0303 132.681 20.8011 132.783 20.5284L134.391 20.8182C134.263 21.2917 134.031 21.7064 133.698 22.0625C133.369 22.4148 132.954 22.6894 132.454 22.8864C131.958 23.0795 131.391 23.1761 130.755 23.1761ZM142.924 16.4034L141.384 16.6761C141.32 16.4792 141.218 16.2917 141.077 16.1136C140.941 15.9356 140.755 15.7898 140.521 15.6761C140.286 15.5625 139.992 15.5057 139.64 15.5057C139.159 15.5057 138.757 15.6136 138.435 15.8295C138.113 16.0417 137.952 16.3163 137.952 16.6534C137.952 16.9451 138.06 17.1799 138.276 17.358C138.492 17.536 138.841 17.6818 139.322 17.7955L140.708 18.1136C141.511 18.2992 142.11 18.5852 142.504 18.9716C142.897 19.358 143.094 19.8598 143.094 20.4773C143.094 21 142.943 21.4659 142.64 21.875C142.341 22.2803 141.922 22.5985 141.384 22.8295C140.85 23.0606 140.231 23.1761 139.526 23.1761C138.549 23.1761 137.752 22.9678 137.134 22.5511C136.517 22.1307 136.138 21.5341 135.998 20.7614L137.64 20.5114C137.742 20.9394 137.952 21.2633 138.271 21.483C138.589 21.6989 139.004 21.8068 139.515 21.8068C140.072 21.8068 140.517 21.6913 140.85 21.4602C141.183 21.2254 141.35 20.9394 141.35 20.6023C141.35 20.3295 141.248 20.1004 141.043 19.9148C140.843 19.7292 140.534 19.589 140.117 19.4943L138.64 19.1705C137.826 18.9848 137.223 18.6894 136.833 18.2841C136.447 17.8788 136.254 17.3655 136.254 16.7443C136.254 16.2292 136.397 15.7784 136.685 15.392C136.973 15.0057 137.371 14.7045 137.879 14.4886C138.386 14.2689 138.968 14.1591 139.623 14.1591C140.566 14.1591 141.308 14.3636 141.85 14.7727C142.392 15.178 142.75 15.7216 142.924 16.4034ZM152.428 14.2727L149.263 23H147.445L144.275 14.2727H146.099L148.309 20.9886H148.4L150.604 14.2727H152.428Z" fill="white"/>
</svg>
