<svg width="325" height="290" viewBox="0 0 325 290" fill="none" xmlns="http://www.w3.org/2000/svg">
<rect width="325" height="290" rx="5" fill="white"/>
<g filter="url(#filter0_d_1314_8366)">
<path d="M94.925 115.402C93.3022 118.802 89.9793 127.164 89.0914 134.495C89.0546 134.799 88.4107 134.976 88.1647 134.752C84.4236 131.35 74.9413 125.723 68.5335 123.042" stroke="#5955B3" stroke-width="4" stroke-linecap="round"/>
<path d="M87.6855 133.133C83.2534 123.603 73.8849 107.262 72.5751 94.8296" stroke="#5955B3" stroke-width="4" stroke-linecap="round"/>
</g>
<path opacity="0.2" fill-rule="evenodd" clip-rule="evenodd" d="M324.664 269.81C324.612 280.783 315.724 289.668 304.749 289.713H171.145C177.237 275.753 202.684 247.832 255.737 247.832C308.79 247.832 323.794 226.116 324.664 215.258V269.81Z" fill="#89AFFF"/>
<path opacity="0.2" fill-rule="evenodd" clip-rule="evenodd" d="M149.339 0C147.453 10.5057 135.894 40.0486 88.2786 53.4492C42.0808 66.4509 11.6469 61.9796 0.329595 57.7773L0.329592 20C0.329591 8.95432 9.28386 1.09491e-05 20.3296 1.00855e-05L149.339 0Z" fill="#89AFFF"/>
<path d="M79.4545 37V19.5455H83.1449V26.7472H90.6364V19.5455H94.3182V37H90.6364V29.7898H83.1449V37H79.4545ZM103.207 37.2557C101.884 37.2557 100.739 36.9744 99.7727 36.4119C98.8125 35.8437 98.071 35.054 97.5483 34.0426C97.0256 33.0256 96.7642 31.8466 96.7642 30.5057C96.7642 29.1534 97.0256 27.9716 97.5483 26.9602C98.071 25.9432 98.8125 25.1534 99.7727 24.5909C100.739 24.0227 101.884 23.7386 103.207 23.7386C104.531 23.7386 105.673 24.0227 106.634 24.5909C107.599 25.1534 108.344 25.9432 108.866 26.9602C109.389 27.9716 109.651 29.1534 109.651 30.5057C109.651 31.8466 109.389 33.0256 108.866 34.0426C108.344 35.054 107.599 35.8437 106.634 36.4119C105.673 36.9744 104.531 37.2557 103.207 37.2557ZM103.224 34.4432C103.827 34.4432 104.33 34.2727 104.733 33.9318C105.136 33.5852 105.44 33.1136 105.645 32.517C105.855 31.9205 105.96 31.2415 105.96 30.4801C105.96 29.7188 105.855 29.0398 105.645 28.4432C105.44 27.8466 105.136 27.375 104.733 27.0284C104.33 26.6818 103.827 26.5085 103.224 26.5085C102.616 26.5085 102.105 26.6818 101.69 27.0284C101.281 27.375 100.972 27.8466 100.761 28.4432C100.557 29.0398 100.455 29.7188 100.455 30.4801C100.455 31.2415 100.557 31.9205 100.761 32.517C100.972 33.1136 101.281 33.5852 101.69 33.9318C102.105 34.2727 102.616 34.4432 103.224 34.4432ZM114.266 37L110.703 23.9091H114.376L116.405 32.7045H116.524L118.638 23.9091H122.243L124.391 32.6534H124.501L126.496 23.9091H130.161L126.607 37H122.763L120.513 28.767H120.351L118.101 37H114.266ZM144.615 23.9091V26.6364H136.732V23.9091H144.615ZM138.521 20.7727H142.152V32.9773C142.152 33.3125 142.203 33.5739 142.305 33.7614C142.408 33.9432 142.55 34.071 142.732 34.1449C142.919 34.2187 143.135 34.2557 143.379 34.2557C143.55 34.2557 143.72 34.2415 143.891 34.2131C144.061 34.179 144.192 34.1534 144.283 34.1364L144.854 36.8381C144.672 36.8949 144.416 36.9602 144.087 37.0341C143.757 37.1136 143.357 37.1619 142.885 37.179C142.01 37.2131 141.243 37.0966 140.584 36.8295C139.93 36.5625 139.422 36.1477 139.058 35.5852C138.695 35.0227 138.516 34.3125 138.521 33.4545V20.7727ZM152.754 37.2557C151.43 37.2557 150.286 36.9744 149.32 36.4119C148.359 35.8437 147.618 35.054 147.095 34.0426C146.572 33.0256 146.311 31.8466 146.311 30.5057C146.311 29.1534 146.572 27.9716 147.095 26.9602C147.618 25.9432 148.359 25.1534 149.32 24.5909C150.286 24.0227 151.43 23.7386 152.754 23.7386C154.078 23.7386 155.22 24.0227 156.18 24.5909C157.146 25.1534 157.891 25.9432 158.413 26.9602C158.936 27.9716 159.197 29.1534 159.197 30.5057C159.197 31.8466 158.936 33.0256 158.413 34.0426C157.891 35.054 157.146 35.8437 156.18 36.4119C155.22 36.9744 154.078 37.2557 152.754 37.2557ZM152.771 34.4432C153.374 34.4432 153.876 34.2727 154.28 33.9318C154.683 33.5852 154.987 33.1136 155.192 32.517C155.402 31.9205 155.507 31.2415 155.507 30.4801C155.507 29.7188 155.402 29.0398 155.192 28.4432C154.987 27.8466 154.683 27.375 154.28 27.0284C153.876 26.6818 153.374 26.5085 152.771 26.5085C152.163 26.5085 151.652 26.6818 151.237 27.0284C150.828 27.375 150.518 27.8466 150.308 28.4432C150.104 29.0398 150.001 29.7188 150.001 30.4801C150.001 31.2415 150.104 31.9205 150.308 32.517C150.518 33.1136 150.828 33.5852 151.237 33.9318C151.652 34.2727 152.163 34.4432 152.771 34.4432ZM173.028 37.2557C171.687 37.2557 170.533 36.9716 169.567 36.4034C168.607 35.8295 167.869 35.0341 167.352 34.017C166.84 33 166.585 31.8295 166.585 30.5057C166.585 29.1648 166.843 27.9886 167.36 26.9773C167.883 25.9602 168.624 25.1676 169.585 24.5994C170.545 24.0256 171.687 23.7386 173.011 23.7386C174.153 23.7386 175.153 23.946 176.011 24.3608C176.869 24.7756 177.548 25.358 178.048 26.108C178.548 26.858 178.823 27.7386 178.874 28.75H175.448C175.352 28.0966 175.096 27.571 174.681 27.1733C174.272 26.7699 173.735 26.5682 173.07 26.5682C172.508 26.5682 172.016 26.7216 171.596 27.0284C171.181 27.3295 170.857 27.7699 170.624 28.3494C170.391 28.929 170.275 29.6307 170.275 30.4545C170.275 31.2898 170.388 32 170.616 32.5852C170.849 33.1705 171.175 33.6165 171.596 33.9233C172.016 34.2301 172.508 34.3835 173.07 34.3835C173.485 34.3835 173.857 34.2983 174.187 34.1278C174.522 33.9574 174.798 33.7102 175.013 33.3864C175.235 33.0568 175.38 32.6619 175.448 32.2017H178.874C178.817 33.2017 178.545 34.0824 178.056 34.8438C177.573 35.5994 176.906 36.1903 176.053 36.6165C175.201 37.0426 174.192 37.2557 173.028 37.2557ZM187.114 37.2557C185.79 37.2557 184.645 36.9744 183.679 36.4119C182.719 35.8437 181.977 35.054 181.455 34.0426C180.932 33.0256 180.67 31.8466 180.67 30.5057C180.67 29.1534 180.932 27.9716 181.455 26.9602C181.977 25.9432 182.719 25.1534 183.679 24.5909C184.645 24.0227 185.79 23.7386 187.114 23.7386C188.438 23.7386 189.58 24.0227 190.54 24.5909C191.506 25.1534 192.25 25.9432 192.773 26.9602C193.295 27.9716 193.557 29.1534 193.557 30.5057C193.557 31.8466 193.295 33.0256 192.773 34.0426C192.25 35.054 191.506 35.8437 190.54 36.4119C189.58 36.9744 188.438 37.2557 187.114 37.2557ZM187.131 34.4432C187.733 34.4432 188.236 34.2727 188.639 33.9318C189.043 33.5852 189.347 33.1136 189.551 32.517C189.761 31.9205 189.866 31.2415 189.866 30.4801C189.866 29.7188 189.761 29.0398 189.551 28.4432C189.347 27.8466 189.043 27.375 188.639 27.0284C188.236 26.6818 187.733 26.5085 187.131 26.5085C186.523 26.5085 186.011 26.6818 185.597 27.0284C185.188 27.375 184.878 27.8466 184.668 28.4432C184.463 29.0398 184.361 29.7188 184.361 30.4801C184.361 31.2415 184.463 31.9205 184.668 32.517C184.878 33.1136 185.188 33.5852 185.597 33.9318C186.011 34.2727 186.523 34.4432 187.131 34.4432ZM199.548 29.4318V37H195.918V23.9091H199.378V26.2188H199.531C199.821 25.4574 200.307 24.8551 200.989 24.4119C201.67 23.9631 202.497 23.7386 203.469 23.7386C204.378 23.7386 205.17 23.9375 205.847 24.3352C206.523 24.733 207.048 25.3011 207.423 26.0398C207.798 26.7727 207.986 27.6477 207.986 28.6648V37H204.355V29.3125C204.361 28.5114 204.156 27.8864 203.741 27.4375C203.327 26.983 202.756 26.7557 202.028 26.7557C201.54 26.7557 201.108 26.8608 200.733 27.071C200.364 27.2812 200.074 27.5881 199.864 27.9915C199.659 28.3892 199.554 28.8693 199.548 29.4318ZM217.81 23.9091V26.6364H209.927V23.9091H217.81ZM211.717 20.7727H215.347V32.9773C215.347 33.3125 215.398 33.5739 215.501 33.7614C215.603 33.9432 215.745 34.071 215.927 34.1449C216.114 34.2187 216.33 34.2557 216.575 34.2557C216.745 34.2557 216.915 34.2415 217.086 34.2131C217.256 34.179 217.387 34.1534 217.478 34.1364L218.049 36.8381C217.867 36.8949 217.612 36.9602 217.282 37.0341C216.952 37.1136 216.552 37.1619 216.08 37.179C215.205 37.2131 214.438 37.0966 213.779 36.8295C213.126 36.5625 212.617 36.1477 212.254 35.5852C211.89 35.0227 211.711 34.3125 211.717 33.4545V20.7727ZM223.908 37.2472C223.073 37.2472 222.329 37.1023 221.675 36.8125C221.022 36.517 220.505 36.0824 220.124 35.5085C219.749 34.929 219.562 34.2074 219.562 33.3438C219.562 32.6165 219.695 32.0057 219.962 31.5114C220.229 31.017 220.593 30.6193 221.053 30.3182C221.513 30.017 222.036 29.7898 222.621 29.6364C223.212 29.483 223.832 29.375 224.479 29.3125C225.241 29.233 225.854 29.1591 226.32 29.0909C226.786 29.017 227.124 28.9091 227.335 28.767C227.545 28.625 227.65 28.4148 227.65 28.1364V28.0852C227.65 27.5455 227.479 27.1278 227.138 26.8324C226.803 26.5369 226.326 26.3892 225.707 26.3892C225.053 26.3892 224.533 26.5341 224.147 26.8239C223.761 27.108 223.505 27.4659 223.38 27.8977L220.022 27.625C220.192 26.8295 220.528 26.142 221.028 25.5625C221.528 24.9773 222.173 24.5284 222.962 24.2159C223.758 23.8977 224.678 23.7386 225.724 23.7386C226.451 23.7386 227.147 23.8239 227.812 23.9943C228.482 24.1648 229.076 24.429 229.593 24.7869C230.116 25.1449 230.528 25.6051 230.829 26.1676C231.13 26.7244 231.281 27.392 231.281 28.1705V37H227.837V35.1847H227.735C227.525 35.5938 227.244 35.9545 226.891 36.267C226.539 36.5739 226.116 36.8153 225.621 36.9915C225.127 37.1619 224.556 37.2472 223.908 37.2472ZM224.948 34.7415C225.482 34.7415 225.954 34.6364 226.363 34.4261C226.772 34.2102 227.093 33.9205 227.326 33.5568C227.559 33.1932 227.675 32.7812 227.675 32.321V30.9318C227.562 31.0057 227.406 31.0739 227.207 31.1364C227.013 31.1932 226.795 31.2472 226.55 31.2983C226.306 31.3437 226.062 31.3864 225.817 31.4261C225.573 31.4602 225.352 31.4915 225.153 31.5199C224.727 31.5824 224.354 31.6818 224.036 31.8182C223.718 31.9545 223.471 32.1392 223.295 32.3722C223.119 32.5994 223.031 32.8835 223.031 33.2244C223.031 33.7188 223.21 34.0966 223.567 34.358C223.931 34.6136 224.391 34.7415 224.948 34.7415ZM240.012 37.2557C238.671 37.2557 237.518 36.9716 236.552 36.4034C235.592 35.8295 234.853 35.0341 234.336 34.017C233.825 33 233.569 31.8295 233.569 30.5057C233.569 29.1648 233.827 27.9886 234.344 26.9773C234.867 25.9602 235.609 25.1676 236.569 24.5994C237.529 24.0256 238.671 23.7386 239.995 23.7386C241.137 23.7386 242.137 23.946 242.995 24.3608C243.853 24.7756 244.532 25.358 245.032 26.108C245.532 26.858 245.808 27.7386 245.859 28.75H242.433C242.336 28.0966 242.08 27.571 241.665 27.1733C241.256 26.7699 240.719 26.5682 240.055 26.5682C239.492 26.5682 239.001 26.7216 238.58 27.0284C238.165 27.3295 237.842 27.7699 237.609 28.3494C237.376 28.929 237.259 29.6307 237.259 30.4545C237.259 31.2898 237.373 32 237.6 32.5852C237.833 33.1705 238.16 33.6165 238.58 33.9233C239.001 34.2301 239.492 34.3835 240.055 34.3835C240.469 34.3835 240.842 34.2983 241.171 34.1278C241.506 33.9574 241.782 33.7102 241.998 33.3864C242.219 33.0568 242.364 32.6619 242.433 32.2017H245.859C245.802 33.2017 245.529 34.0824 245.04 34.8438C244.558 35.5994 243.89 36.1903 243.038 36.6165C242.185 37.0426 241.177 37.2557 240.012 37.2557ZM255.146 23.9091V26.6364H247.263V23.9091H255.146ZM249.053 20.7727H252.683V32.9773C252.683 33.3125 252.734 33.5739 252.837 33.7614C252.939 33.9432 253.081 34.071 253.263 34.1449C253.45 34.2187 253.666 34.2557 253.911 34.2557C254.081 34.2557 254.251 34.2415 254.422 34.2131C254.592 34.179 254.723 34.1534 254.814 34.1364L255.385 36.8381C255.203 36.8949 254.947 36.9602 254.618 37.0341C254.288 37.1136 253.888 37.1619 253.416 37.179C252.541 37.2131 251.774 37.0966 251.115 36.8295C250.462 36.5625 249.953 36.1477 249.589 35.5852C249.226 35.0227 249.047 34.3125 249.053 33.4545V20.7727Z" fill="url(#paint0_linear_1314_8366)"/>
<path d="M81.255 80V68.3636H88.4709V69.875H83.0107V73.4205H87.9538V74.9261H83.0107V80H81.255ZM90.4936 80V71.2727H92.1925V80H90.4936ZM91.3516 69.9261C91.0561 69.9261 90.8023 69.8277 90.5902 69.6307C90.3819 69.4299 90.2777 69.1913 90.2777 68.9148C90.2777 68.6345 90.3819 68.3958 90.5902 68.1989C90.8023 67.9981 91.0561 67.8977 91.3516 67.8977C91.647 67.8977 91.8989 67.9981 92.1072 68.1989C92.3194 68.3958 92.4254 68.6345 92.4254 68.9148C92.4254 69.1913 92.3194 69.4299 92.1072 69.6307C91.8989 69.8277 91.647 69.9261 91.3516 69.9261ZM96.1768 74.8182V80H94.478V71.2727H96.1087V72.6932H96.2166C96.4174 72.2311 96.7318 71.8598 97.1598 71.5795C97.5916 71.2992 98.1352 71.1591 98.7905 71.1591C99.3852 71.1591 99.906 71.2841 100.353 71.5341C100.8 71.7803 101.147 72.1477 101.393 72.6364C101.639 73.125 101.762 73.7292 101.762 74.4489V80H100.063V74.6534C100.063 74.0208 99.8984 73.5265 99.5689 73.1705C99.2393 72.8106 98.7867 72.6307 98.2109 72.6307C97.817 72.6307 97.4666 72.7159 97.1598 72.8864C96.8568 73.0568 96.6162 73.3068 96.4382 73.6364C96.264 73.9621 96.1768 74.3561 96.1768 74.8182ZM107.308 80.1705C106.603 80.1705 105.974 79.9905 105.421 79.6307C104.872 79.267 104.44 78.75 104.126 78.0795C103.815 77.4053 103.66 76.5966 103.66 75.6534C103.66 74.7102 103.817 73.9034 104.131 73.233C104.45 72.5625 104.885 72.0492 105.438 71.6932C105.991 71.3371 106.618 71.1591 107.319 71.1591C107.861 71.1591 108.296 71.25 108.626 71.4318C108.959 71.6098 109.217 71.8182 109.398 72.0568C109.584 72.2955 109.728 72.5057 109.83 72.6875H109.933V68.3636H111.631V80H109.972V78.642H109.83C109.728 78.8277 109.58 79.0398 109.387 79.2784C109.198 79.517 108.936 79.7254 108.603 79.9034C108.27 80.0814 107.838 80.1705 107.308 80.1705ZM107.683 78.7216C108.171 78.7216 108.584 78.5928 108.921 78.3352C109.262 78.0739 109.52 77.7121 109.694 77.25C109.872 76.7879 109.961 76.25 109.961 75.6364C109.961 75.0303 109.874 74.5 109.7 74.0455C109.525 73.5909 109.27 73.2367 108.933 72.983C108.595 72.7292 108.179 72.6023 107.683 72.6023C107.171 72.6023 106.745 72.7348 106.404 73C106.063 73.2652 105.806 73.6269 105.631 74.0852C105.461 74.5436 105.376 75.0606 105.376 75.6364C105.376 76.2197 105.463 76.7443 105.637 77.2102C105.811 77.6761 106.069 78.0455 106.41 78.3182C106.754 78.5871 107.179 78.7216 107.683 78.7216ZM120.83 80.1932C120.277 80.1932 119.777 80.0909 119.33 79.8864C118.883 79.678 118.529 79.3769 118.268 78.983C118.01 78.589 117.881 78.1061 117.881 77.5341C117.881 77.0417 117.976 76.6364 118.165 76.3182C118.355 76 118.611 75.7481 118.933 75.5625C119.254 75.3769 119.614 75.2367 120.012 75.142C120.41 75.0473 120.815 74.9754 121.228 74.9261C121.751 74.8655 122.175 74.8163 122.501 74.7784C122.826 74.7367 123.063 74.6705 123.211 74.5795C123.359 74.4886 123.433 74.3409 123.433 74.1364V74.0966C123.433 73.6004 123.292 73.2159 123.012 72.9432C122.736 72.6705 122.323 72.5341 121.773 72.5341C121.201 72.5341 120.751 72.661 120.421 72.9148C120.095 73.1648 119.87 73.4432 119.745 73.75L118.148 73.3864C118.338 72.8561 118.614 72.428 118.978 72.1023C119.345 71.7727 119.768 71.5341 120.245 71.3864C120.722 71.2348 121.224 71.1591 121.751 71.1591C122.099 71.1591 122.469 71.2008 122.859 71.2841C123.253 71.3636 123.62 71.5114 123.961 71.7273C124.306 71.9432 124.588 72.2519 124.808 72.6534C125.027 73.0511 125.137 73.5682 125.137 74.2045V80H123.478V78.8068H123.41C123.3 79.0265 123.135 79.2424 122.915 79.4545C122.696 79.6667 122.414 79.8428 122.069 79.983C121.724 80.1231 121.311 80.1932 120.83 80.1932ZM121.2 78.8295C121.669 78.8295 122.071 78.7367 122.404 78.5511C122.741 78.3655 122.997 78.1231 123.171 77.8239C123.349 77.5208 123.438 77.197 123.438 76.8523V75.7273C123.378 75.7879 123.26 75.8447 123.086 75.8977C122.915 75.947 122.72 75.9905 122.501 76.0284C122.281 76.0625 122.067 76.0947 121.859 76.125C121.65 76.1515 121.476 76.1742 121.336 76.1932C121.006 76.2348 120.705 76.3049 120.433 76.4034C120.164 76.5019 119.948 76.6439 119.785 76.8295C119.626 77.0114 119.546 77.2538 119.546 77.5568C119.546 77.9773 119.701 78.2955 120.012 78.5114C120.323 78.7235 120.719 78.8295 121.2 78.8295ZM135.708 71.2727V72.6364H130.941V71.2727H135.708ZM132.219 69.1818H133.918V77.4375C133.918 77.767 133.968 78.0152 134.066 78.1818C134.165 78.3447 134.291 78.4564 134.447 78.517C134.606 78.5739 134.778 78.6023 134.964 78.6023C135.1 78.6023 135.219 78.5928 135.322 78.5739C135.424 78.5549 135.504 78.5398 135.56 78.5284L135.867 79.9318C135.769 79.9697 135.629 80.0076 135.447 80.0455C135.265 80.0871 135.038 80.1098 134.765 80.1136C134.318 80.1212 133.901 80.0417 133.515 79.875C133.129 79.7083 132.816 79.4508 132.577 79.1023C132.339 78.7538 132.219 78.3163 132.219 77.7898V69.1818ZM143.116 76.3807V71.2727H144.82V80H143.15V78.4886H143.059C142.858 78.9545 142.536 79.3428 142.093 79.6534C141.654 79.9602 141.106 80.1136 140.451 80.1136C139.89 80.1136 139.394 79.9905 138.962 79.7443C138.534 79.4943 138.197 79.125 137.951 78.6364C137.709 78.1477 137.587 77.5436 137.587 76.8239V71.2727H139.286V76.6193C139.286 77.214 139.451 77.6875 139.781 78.0398C140.11 78.392 140.538 78.5682 141.065 78.5682C141.383 78.5682 141.699 78.4886 142.013 78.3295C142.332 78.1705 142.595 77.9299 142.803 77.608C143.015 77.286 143.12 76.8769 143.116 76.3807ZM151.177 71.2727V72.6364H146.41V71.2727H151.177ZM147.688 69.1818H149.387V77.4375C149.387 77.767 149.436 78.0152 149.535 78.1818C149.633 78.3447 149.76 78.4564 149.915 78.517C150.075 78.5739 150.247 78.6023 150.433 78.6023C150.569 78.6023 150.688 78.5928 150.79 78.5739C150.893 78.5549 150.972 78.5398 151.029 78.5284L151.336 79.9318C151.237 79.9697 151.097 80.0076 150.915 80.0455C150.734 80.0871 150.506 80.1098 150.234 80.1136C149.787 80.1212 149.37 80.0417 148.984 79.875C148.597 79.7083 148.285 79.4508 148.046 79.1023C147.808 78.7538 147.688 78.3163 147.688 77.7898V69.1818ZM156.638 80.1761C155.82 80.1761 155.106 79.9886 154.496 79.6136C153.887 79.2386 153.413 78.714 153.076 78.0398C152.739 77.3655 152.57 76.5777 152.57 75.6761C152.57 74.7708 152.739 73.9792 153.076 73.3011C153.413 72.6231 153.887 72.0966 154.496 71.7216C155.106 71.3466 155.82 71.1591 156.638 71.1591C157.457 71.1591 158.171 71.3466 158.781 71.7216C159.39 72.0966 159.864 72.6231 160.201 73.3011C160.538 73.9792 160.707 74.7708 160.707 75.6761C160.707 76.5777 160.538 77.3655 160.201 78.0398C159.864 78.714 159.39 79.2386 158.781 79.6136C158.171 79.9886 157.457 80.1761 156.638 80.1761ZM156.644 78.75C157.174 78.75 157.614 78.6098 157.962 78.3295C158.311 78.0492 158.568 77.6761 158.735 77.2102C158.906 76.7443 158.991 76.2311 158.991 75.6705C158.991 75.1136 158.906 74.6023 158.735 74.1364C158.568 73.6667 158.311 73.2898 157.962 73.0057C157.614 72.7216 157.174 72.5795 156.644 72.5795C156.11 72.5795 155.667 72.7216 155.315 73.0057C154.966 73.2898 154.707 73.6667 154.536 74.1364C154.37 74.6023 154.286 75.1136 154.286 75.6705C154.286 76.2311 154.37 76.7443 154.536 77.2102C154.707 77.6761 154.966 78.0492 155.315 78.3295C155.667 78.6098 156.11 78.75 156.644 78.75ZM162.603 80V71.2727H164.245V72.6591H164.336C164.495 72.1894 164.775 71.8201 165.177 71.5511C165.582 71.2784 166.04 71.142 166.552 71.142C166.658 71.142 166.783 71.1458 166.927 71.1534C167.075 71.161 167.19 71.1705 167.273 71.1818V72.8068C167.205 72.7879 167.084 72.767 166.91 72.7443C166.736 72.7178 166.561 72.7045 166.387 72.7045C165.986 72.7045 165.628 72.7898 165.313 72.9602C165.003 73.1269 164.756 73.3598 164.575 73.6591C164.393 73.9545 164.302 74.2917 164.302 74.6705V80H162.603ZM176.654 80.1761C175.836 80.1761 175.122 79.9886 174.512 79.6136C173.902 79.2386 173.429 78.714 173.092 78.0398C172.754 77.3655 172.586 76.5777 172.586 75.6761C172.586 74.7708 172.754 73.9792 173.092 73.3011C173.429 72.6231 173.902 72.0966 174.512 71.7216C175.122 71.3466 175.836 71.1591 176.654 71.1591C177.472 71.1591 178.186 71.3466 178.796 71.7216C179.406 72.0966 179.879 72.6231 180.217 73.3011C180.554 73.9792 180.722 74.7708 180.722 75.6761C180.722 76.5777 180.554 77.3655 180.217 78.0398C179.879 78.714 179.406 79.2386 178.796 79.6136C178.186 79.9886 177.472 80.1761 176.654 80.1761ZM176.66 78.75C177.19 78.75 177.629 78.6098 177.978 78.3295C178.326 78.0492 178.584 77.6761 178.751 77.2102C178.921 76.7443 179.006 76.2311 179.006 75.6705C179.006 75.1136 178.921 74.6023 178.751 74.1364C178.584 73.6667 178.326 73.2898 177.978 73.0057C177.629 72.7216 177.19 72.5795 176.66 72.5795C176.126 72.5795 175.683 72.7216 175.33 73.0057C174.982 73.2898 174.722 73.6667 174.552 74.1364C174.385 74.6023 174.302 75.1136 174.302 75.6705C174.302 76.2311 174.385 76.7443 174.552 77.2102C174.722 77.6761 174.982 78.0492 175.33 78.3295C175.683 78.6098 176.126 78.75 176.66 78.75ZM182.619 80V71.2727H184.261V72.6591H184.352C184.511 72.1894 184.791 71.8201 185.192 71.5511C185.598 71.2784 186.056 71.142 186.567 71.142C186.674 71.142 186.799 71.1458 186.942 71.1534C187.09 71.161 187.206 71.1705 187.289 71.1818V72.8068C187.221 72.7879 187.1 72.767 186.925 72.7443C186.751 72.7178 186.577 72.7045 186.403 72.7045C186.001 72.7045 185.643 72.7898 185.329 72.9602C185.018 73.1269 184.772 73.3598 184.59 73.6591C184.408 73.9545 184.317 74.2917 184.317 74.6705V80H182.619ZM192.994 80V71.2727H194.624V72.6932H194.732C194.914 72.2121 195.211 71.8371 195.624 71.5682C196.037 71.2955 196.531 71.1591 197.107 71.1591C197.691 71.1591 198.179 71.2955 198.573 71.5682C198.971 71.8409 199.264 72.2159 199.454 72.6932H199.545C199.753 72.2273 200.085 71.8561 200.539 71.5795C200.994 71.2992 201.535 71.1591 202.164 71.1591C202.956 71.1591 203.602 71.4072 204.102 71.9034C204.605 72.3996 204.857 73.1477 204.857 74.1477V80H203.158V74.3068C203.158 73.7159 202.997 73.2879 202.675 73.0227C202.353 72.7576 201.969 72.625 201.522 72.625C200.969 72.625 200.539 72.7955 200.232 73.1364C199.925 73.4735 199.772 73.9072 199.772 74.4375V80H198.079V74.1989C198.079 73.7254 197.931 73.3447 197.636 73.0568C197.34 72.7689 196.956 72.625 196.482 72.625C196.16 72.625 195.863 72.7102 195.59 72.8807C195.321 73.0473 195.103 73.2803 194.937 73.5795C194.774 73.8788 194.692 74.2254 194.692 74.6193V80H192.994ZM210.896 80.1761C210.036 80.1761 209.295 79.9924 208.674 79.625C208.057 79.2538 207.579 78.733 207.242 78.0625C206.909 77.3883 206.742 76.5985 206.742 75.6932C206.742 74.7992 206.909 74.0114 207.242 73.3295C207.579 72.6477 208.049 72.1155 208.651 71.733C209.257 71.3504 209.966 71.1591 210.776 71.1591C211.269 71.1591 211.746 71.2405 212.208 71.4034C212.67 71.5663 213.085 71.822 213.452 72.1705C213.82 72.5189 214.11 72.9716 214.322 73.5284C214.534 74.0814 214.64 74.7538 214.64 75.5455V76.1477H207.702V74.875H212.975C212.975 74.428 212.884 74.0322 212.702 73.6875C212.521 73.339 212.265 73.0644 211.935 72.8636C211.61 72.6629 211.227 72.5625 210.788 72.5625C210.31 72.5625 209.894 72.6799 209.538 72.9148C209.185 73.1458 208.913 73.4489 208.719 73.8239C208.53 74.1951 208.435 74.5985 208.435 75.0341V76.0284C208.435 76.6117 208.538 77.108 208.742 77.517C208.951 77.9261 209.24 78.2386 209.612 78.4545C209.983 78.6667 210.416 78.7727 210.913 78.7727C211.235 78.7727 211.528 78.7273 211.793 78.6364C212.058 78.5417 212.288 78.4015 212.481 78.2159C212.674 78.0303 212.822 77.8011 212.924 77.5284L214.532 77.8182C214.403 78.2917 214.172 78.7064 213.839 79.0625C213.509 79.4148 213.094 79.6894 212.594 79.8864C212.098 80.0795 211.532 80.1761 210.896 80.1761ZM218.224 74.8182V80H216.525V71.2727H218.156V72.6932H218.263C218.464 72.2311 218.779 71.8598 219.207 71.5795C219.638 71.2992 220.182 71.1591 220.837 71.1591C221.432 71.1591 221.953 71.2841 222.4 71.5341C222.847 71.7803 223.193 72.1477 223.44 72.6364C223.686 73.125 223.809 73.7292 223.809 74.4489V80H222.11V74.6534C222.11 74.0208 221.945 73.5265 221.616 73.1705C221.286 72.8106 220.834 72.6307 220.258 72.6307C219.864 72.6307 219.513 72.7159 219.207 72.8864C218.904 73.0568 218.663 73.3068 218.485 73.6364C218.311 73.9621 218.224 74.3561 218.224 74.8182ZM230.161 71.2727V72.6364H225.394V71.2727H230.161ZM226.673 69.1818H228.371V77.4375C228.371 77.767 228.421 78.0152 228.519 78.1818C228.618 78.3447 228.745 78.4564 228.9 78.517C229.059 78.5739 229.231 78.6023 229.417 78.6023C229.553 78.6023 229.673 78.5928 229.775 78.5739C229.877 78.5549 229.957 78.5398 230.013 78.5284L230.32 79.9318C230.222 79.9697 230.082 80.0076 229.9 80.0455C229.718 80.0871 229.491 80.1098 229.218 80.1136C228.771 80.1212 228.354 80.0417 227.968 79.875C227.582 79.7083 227.269 79.4508 227.031 79.1023C226.792 78.7538 226.673 78.3163 226.673 77.7898V69.1818ZM235.623 80.1761C234.805 80.1761 234.091 79.9886 233.481 79.6136C232.871 79.2386 232.397 78.714 232.06 78.0398C231.723 77.3655 231.555 76.5777 231.555 75.6761C231.555 74.7708 231.723 73.9792 232.06 73.3011C232.397 72.6231 232.871 72.0966 233.481 71.7216C234.091 71.3466 234.805 71.1591 235.623 71.1591C236.441 71.1591 237.155 71.3466 237.765 71.7216C238.375 72.0966 238.848 72.6231 239.185 73.3011C239.522 73.9792 239.691 74.7708 239.691 75.6761C239.691 76.5777 239.522 77.3655 239.185 78.0398C238.848 78.714 238.375 79.2386 237.765 79.6136C237.155 79.9886 236.441 80.1761 235.623 80.1761ZM235.629 78.75C236.159 78.75 236.598 78.6098 236.947 78.3295C237.295 78.0492 237.553 77.6761 237.719 77.2102C237.89 76.7443 237.975 76.2311 237.975 75.6705C237.975 75.1136 237.89 74.6023 237.719 74.1364C237.553 73.6667 237.295 73.2898 236.947 73.0057C236.598 72.7216 236.159 72.5795 235.629 72.5795C235.094 72.5795 234.651 72.7216 234.299 73.0057C233.951 73.2898 233.691 73.6667 233.521 74.1364C233.354 74.6023 233.271 75.1136 233.271 75.6705C233.271 76.2311 233.354 76.7443 233.521 77.2102C233.691 77.6761 233.951 78.0492 234.299 78.3295C234.651 78.6098 235.094 78.75 235.629 78.75ZM241.587 80V71.2727H243.229V72.6591H243.32C243.479 72.1894 243.76 71.8201 244.161 71.5511C244.567 71.2784 245.025 71.142 245.536 71.142C245.642 71.142 245.767 71.1458 245.911 71.1534C246.059 71.161 246.174 71.1705 246.258 71.1818V72.8068C246.19 72.7879 246.068 72.767 245.894 72.7443C245.72 72.7178 245.546 72.7045 245.371 72.7045C244.97 72.7045 244.612 72.7898 244.298 72.9602C243.987 73.1269 243.741 73.3598 243.559 73.6591C243.377 73.9545 243.286 74.2917 243.286 74.6705V80H241.587ZM255.638 80.1761C254.82 80.1761 254.106 79.9886 253.496 79.6136C252.887 79.2386 252.413 78.714 252.076 78.0398C251.739 77.3655 251.57 76.5777 251.57 75.6761C251.57 74.7708 251.739 73.9792 252.076 73.3011C252.413 72.6231 252.887 72.0966 253.496 71.7216C254.106 71.3466 254.82 71.1591 255.638 71.1591C256.457 71.1591 257.171 71.3466 257.781 71.7216C258.39 72.0966 258.864 72.6231 259.201 73.3011C259.538 73.9792 259.707 74.7708 259.707 75.6761C259.707 76.5777 259.538 77.3655 259.201 78.0398C258.864 78.714 258.39 79.2386 257.781 79.6136C257.171 79.9886 256.457 80.1761 255.638 80.1761ZM255.644 78.75C256.174 78.75 256.614 78.6098 256.962 78.3295C257.311 78.0492 257.568 77.6761 257.735 77.2102C257.906 76.7443 257.991 76.2311 257.991 75.6705C257.991 75.1136 257.906 74.6023 257.735 74.1364C257.568 73.6667 257.311 73.2898 256.962 73.0057C256.614 72.7216 256.174 72.5795 255.644 72.5795C255.11 72.5795 254.667 72.7216 254.315 73.0057C253.966 73.2898 253.707 73.6667 253.536 74.1364C253.37 74.6023 253.286 75.1136 253.286 75.6705C253.286 76.2311 253.37 76.7443 253.536 77.2102C253.707 77.6761 253.966 78.0492 254.315 78.3295C254.667 78.6098 255.11 78.75 255.644 78.75ZM263.302 74.8182V80H261.603V71.2727H263.234V72.6932H263.342C263.542 72.2311 263.857 71.8598 264.285 71.5795C264.717 71.2992 265.26 71.1591 265.915 71.1591C266.51 71.1591 267.031 71.2841 267.478 71.5341C267.925 71.7803 268.272 72.1477 268.518 72.6364C268.764 73.125 268.887 73.7292 268.887 74.4489V80H267.188V74.6534C267.188 74.0208 267.023 73.5265 266.694 73.1705C266.364 72.8106 265.912 72.6307 265.336 72.6307C264.942 72.6307 264.592 72.7159 264.285 72.8864C263.982 73.0568 263.741 73.3068 263.563 73.6364C263.389 73.9621 263.302 74.3561 263.302 74.8182ZM154.271 90.2727V91.6364H149.504V90.2727H154.271ZM150.782 88.1818H152.481V96.4375C152.481 96.767 152.53 97.0152 152.629 97.1818C152.727 97.3447 152.854 97.4564 153.009 97.517C153.168 97.5739 153.341 97.6023 153.526 97.6023C153.663 97.6023 153.782 97.5928 153.884 97.5739C153.987 97.5549 154.066 97.5398 154.123 97.5284L154.43 98.9318C154.331 98.9697 154.191 99.0076 154.009 99.0455C153.827 99.0871 153.6 99.1098 153.327 99.1136C152.88 99.1212 152.464 99.0417 152.077 98.875C151.691 98.7083 151.379 98.4508 151.14 98.1023C150.901 97.7538 150.782 97.3163 150.782 96.7898V88.1818ZM158.036 93.8182V99H156.337V87.3636H158.013V91.6932H158.121C158.326 91.2235 158.638 90.8504 159.059 90.5739C159.479 90.2973 160.029 90.1591 160.707 90.1591C161.305 90.1591 161.828 90.2822 162.275 90.5284C162.726 90.7746 163.074 91.142 163.32 91.6307C163.57 92.1155 163.695 92.7216 163.695 93.4489V99H161.996V93.6534C161.996 93.0133 161.832 92.517 161.502 92.1648C161.173 91.8087 160.714 91.6307 160.127 91.6307C159.726 91.6307 159.366 91.7159 159.048 91.8864C158.733 92.0568 158.485 92.3068 158.303 92.6364C158.125 92.9621 158.036 93.3561 158.036 93.8182ZM169.724 99.1761C168.864 99.1761 168.123 98.9924 167.502 98.625C166.885 98.2538 166.407 97.733 166.07 97.0625C165.737 96.3883 165.57 95.5985 165.57 94.6932C165.57 93.7992 165.737 93.0114 166.07 92.3295C166.407 91.6477 166.877 91.1155 167.479 90.733C168.085 90.3504 168.794 90.1591 169.604 90.1591C170.097 90.1591 170.574 90.2405 171.036 90.4034C171.498 90.5663 171.913 90.822 172.281 91.1705C172.648 91.5189 172.938 91.9716 173.15 92.5284C173.362 93.0814 173.468 93.7538 173.468 94.5455V95.1477H166.531V93.875H171.803C171.803 93.428 171.712 93.0322 171.531 92.6875C171.349 92.339 171.093 92.0644 170.763 91.8636C170.438 91.6629 170.055 91.5625 169.616 91.5625C169.138 91.5625 168.722 91.6799 168.366 91.9148C168.013 92.1458 167.741 92.4489 167.548 92.8239C167.358 93.1951 167.263 93.5985 167.263 94.0341V95.0284C167.263 95.6117 167.366 96.108 167.57 96.517C167.779 96.9261 168.068 97.2386 168.44 97.4545C168.811 97.6667 169.245 97.7727 169.741 97.7727C170.063 97.7727 170.356 97.7273 170.621 97.6364C170.887 97.5417 171.116 97.4015 171.309 97.2159C171.502 97.0303 171.65 96.8011 171.752 96.5284L173.36 96.8182C173.231 97.2917 173 97.7064 172.667 98.0625C172.337 98.4148 171.923 98.6894 171.423 98.8864C170.926 99.0795 170.36 99.1761 169.724 99.1761ZM181.286 87.3636V99H179.587V87.3636H181.286ZM183.572 99V90.2727H185.271V99H183.572ZM184.43 88.9261C184.134 88.9261 183.88 88.8277 183.668 88.6307C183.46 88.4299 183.356 88.1913 183.356 87.9148C183.356 87.6345 183.46 87.3958 183.668 87.1989C183.88 86.9981 184.134 86.8977 184.43 86.8977C184.725 86.8977 184.977 86.9981 185.185 87.1989C185.397 87.3958 185.504 87.6345 185.504 87.9148C185.504 88.1913 185.397 88.4299 185.185 88.6307C184.977 88.8277 184.725 88.9261 184.43 88.9261ZM194.096 92.4034L192.556 92.6761C192.492 92.4792 192.389 92.2917 192.249 92.1136C192.113 91.9356 191.927 91.7898 191.692 91.6761C191.458 91.5625 191.164 91.5057 190.812 91.5057C190.331 91.5057 189.929 91.6136 189.607 91.8295C189.285 92.0417 189.124 92.3163 189.124 92.6534C189.124 92.9451 189.232 93.1799 189.448 93.358C189.664 93.536 190.013 93.6818 190.494 93.7955L191.88 94.1136C192.683 94.2992 193.281 94.5852 193.675 94.9716C194.069 95.358 194.266 95.8598 194.266 96.4773C194.266 97 194.115 97.4659 193.812 97.875C193.513 98.2803 193.094 98.5985 192.556 98.8295C192.022 99.0606 191.403 99.1761 190.698 99.1761C189.721 99.1761 188.924 98.9678 188.306 98.5511C187.689 98.1307 187.31 97.5341 187.17 96.7614L188.812 96.5114C188.914 96.9394 189.124 97.2633 189.442 97.483C189.761 97.6989 190.175 97.8068 190.687 97.8068C191.244 97.8068 191.689 97.6913 192.022 97.4602C192.355 97.2254 192.522 96.9394 192.522 96.6023C192.522 96.3295 192.42 96.1004 192.215 95.9148C192.014 95.7292 191.706 95.589 191.289 95.4943L189.812 95.1705C188.997 94.9848 188.395 94.6894 188.005 94.2841C187.619 93.8788 187.425 93.3655 187.425 92.7443C187.425 92.2292 187.569 91.7784 187.857 91.392C188.145 91.0057 188.543 90.7045 189.05 90.4886C189.558 90.2689 190.139 90.1591 190.795 90.1591C191.738 90.1591 192.48 90.3636 193.022 90.7727C193.564 91.178 193.922 91.7216 194.096 92.4034ZM200.208 90.2727V91.6364H195.441V90.2727H200.208ZM196.719 88.1818H198.418V96.4375C198.418 96.767 198.468 97.0152 198.566 97.1818C198.665 97.3447 198.791 97.4564 198.947 97.517C199.106 97.5739 199.278 97.6023 199.464 97.6023C199.6 97.6023 199.719 97.5928 199.822 97.5739C199.924 97.5549 200.004 97.5398 200.06 97.5284L200.367 98.9318C200.269 98.9697 200.129 99.0076 199.947 99.0455C199.765 99.0871 199.538 99.1098 199.265 99.1136C198.818 99.1212 198.401 99.0417 198.015 98.875C197.629 98.7083 197.316 98.4508 197.077 98.1023C196.839 97.7538 196.719 97.3163 196.719 96.7898V88.1818Z" fill="#2D3342"/>
<path d="M67.8572 161.148H66.0845C66.0163 160.769 65.8894 160.436 65.7038 160.148C65.5182 159.86 65.291 159.616 65.022 159.415C64.7531 159.214 64.4519 159.062 64.1186 158.96C63.7891 158.858 63.4387 158.807 63.0675 158.807C62.397 158.807 61.7966 158.975 61.2663 159.312C60.7398 159.65 60.3232 160.144 60.0163 160.795C59.7133 161.447 59.5618 162.242 59.5618 163.182C59.5618 164.129 59.7133 164.928 60.0163 165.58C60.3232 166.231 60.7417 166.723 61.272 167.057C61.8023 167.39 62.3989 167.557 63.0618 167.557C63.4292 167.557 63.7777 167.508 64.1072 167.409C64.4406 167.307 64.7417 167.157 65.0107 166.96C65.2796 166.763 65.5069 166.523 65.6925 166.239C65.8819 165.951 66.0125 165.621 66.0845 165.25L67.8572 165.256C67.7625 165.828 67.5788 166.354 67.3061 166.835C67.0372 167.312 66.6906 167.725 66.2663 168.074C65.8459 168.419 65.3648 168.686 64.8232 168.875C64.2815 169.064 63.6906 169.159 63.0504 169.159C62.0429 169.159 61.1451 168.92 60.3572 168.443C59.5694 167.962 58.9482 167.275 58.4936 166.381C58.0429 165.487 57.8175 164.42 57.8175 163.182C57.8175 161.939 58.0447 160.873 58.4993 159.983C58.9538 159.089 59.575 158.403 60.3629 157.926C61.1508 157.445 62.0466 157.205 63.0504 157.205C63.6679 157.205 64.2436 157.294 64.7777 157.472C65.3156 157.646 65.7985 157.903 66.2266 158.244C66.6546 158.581 67.0088 158.994 67.2891 159.483C67.5694 159.968 67.7588 160.523 67.8572 161.148ZM71.5206 157.364V169H69.8217V157.364H71.5206ZM73.8061 169V160.273H75.505V169H73.8061ZM74.6641 158.926C74.3686 158.926 74.1148 158.828 73.9027 158.631C73.6944 158.43 73.5902 158.191 73.5902 157.915C73.5902 157.634 73.6944 157.396 73.9027 157.199C74.1148 156.998 74.3686 156.898 74.6641 156.898C74.9595 156.898 75.2114 156.998 75.4197 157.199C75.6319 157.396 75.7379 157.634 75.7379 157.915C75.7379 158.191 75.6319 158.43 75.4197 158.631C75.2114 158.828 74.9595 158.926 74.6641 158.926ZM81.4666 169.176C80.6219 169.176 79.8946 168.985 79.2848 168.602C78.6787 168.216 78.2128 167.684 77.8871 167.006C77.5613 166.328 77.3984 165.551 77.3984 164.676C77.3984 163.79 77.5651 163.008 77.8984 162.33C78.2318 161.648 78.7015 161.116 79.3075 160.733C79.9136 160.35 80.6276 160.159 81.4496 160.159C82.1125 160.159 82.7034 160.282 83.2223 160.528C83.7412 160.771 84.1598 161.112 84.478 161.551C84.8 161.991 84.9912 162.504 85.0518 163.091H83.3984C83.3075 162.682 83.0992 162.33 82.7734 162.034C82.4515 161.739 82.0196 161.591 81.478 161.591C81.0045 161.591 80.5897 161.716 80.2337 161.966C79.8814 162.212 79.6068 162.564 79.4098 163.023C79.2128 163.477 79.1143 164.015 79.1143 164.636C79.1143 165.273 79.2109 165.822 79.4041 166.284C79.5973 166.746 79.87 167.104 80.2223 167.358C80.5784 167.612 80.9969 167.739 81.478 167.739C81.8 167.739 82.0916 167.68 82.353 167.562C82.6181 167.441 82.8397 167.269 83.0178 167.045C83.1996 166.822 83.3265 166.553 83.3984 166.239H85.0518C84.9912 166.803 84.8075 167.307 84.5007 167.75C84.1939 168.193 83.7829 168.542 83.2678 168.795C82.7564 169.049 82.156 169.176 81.4666 169.176ZM88.4311 166.04L88.4197 163.966H88.7152L92.1925 160.273H94.2266L90.2607 164.477H89.9936L88.4311 166.04ZM86.8686 169V157.364H88.5675V169H86.8686ZM92.38 169L89.255 164.852L90.4254 163.665L94.4652 169H92.38ZM103.685 169.176C102.867 169.176 102.153 168.989 101.543 168.614C100.933 168.239 100.46 167.714 100.123 167.04C99.7857 166.366 99.6172 165.578 99.6172 164.676C99.6172 163.771 99.7857 162.979 100.123 162.301C100.46 161.623 100.933 161.097 101.543 160.722C102.153 160.347 102.867 160.159 103.685 160.159C104.504 160.159 105.218 160.347 105.827 160.722C106.437 161.097 106.911 161.623 107.248 162.301C107.585 162.979 107.754 163.771 107.754 164.676C107.754 165.578 107.585 166.366 107.248 167.04C106.911 167.714 106.437 168.239 105.827 168.614C105.218 168.989 104.504 169.176 103.685 169.176ZM103.691 167.75C104.221 167.75 104.661 167.61 105.009 167.33C105.358 167.049 105.615 166.676 105.782 166.21C105.952 165.744 106.038 165.231 106.038 164.67C106.038 164.114 105.952 163.602 105.782 163.136C105.615 162.667 105.358 162.29 105.009 162.006C104.661 161.722 104.221 161.58 103.691 161.58C103.157 161.58 102.714 161.722 102.362 162.006C102.013 162.29 101.754 162.667 101.583 163.136C101.416 163.602 101.333 164.114 101.333 164.67C101.333 165.231 101.416 165.744 101.583 166.21C101.754 166.676 102.013 167.049 102.362 167.33C102.714 167.61 103.157 167.75 103.691 167.75ZM111.349 163.818V169H109.65V160.273H111.281V161.693H111.388C111.589 161.231 111.904 160.86 112.332 160.58C112.763 160.299 113.307 160.159 113.962 160.159C114.557 160.159 115.078 160.284 115.525 160.534C115.972 160.78 116.318 161.148 116.565 161.636C116.811 162.125 116.934 162.729 116.934 163.449V169H115.235V163.653C115.235 163.021 115.07 162.527 114.741 162.17C114.411 161.811 113.959 161.631 113.383 161.631C112.989 161.631 112.638 161.716 112.332 161.886C112.029 162.057 111.788 162.307 111.61 162.636C111.436 162.962 111.349 163.356 111.349 163.818ZM127.521 160.273V161.636H122.754V160.273H127.521ZM124.032 158.182H125.731V166.438C125.731 166.767 125.78 167.015 125.879 167.182C125.977 167.345 126.104 167.456 126.259 167.517C126.418 167.574 126.591 167.602 126.776 167.602C126.913 167.602 127.032 167.593 127.134 167.574C127.237 167.555 127.316 167.54 127.373 167.528L127.68 168.932C127.581 168.97 127.441 169.008 127.259 169.045C127.077 169.087 126.85 169.11 126.577 169.114C126.13 169.121 125.714 169.042 125.327 168.875C124.941 168.708 124.629 168.451 124.39 168.102C124.151 167.754 124.032 167.316 124.032 166.79V158.182ZM131.286 163.818V169H129.587V157.364H131.263V161.693H131.371C131.576 161.223 131.888 160.85 132.309 160.574C132.729 160.297 133.279 160.159 133.957 160.159C134.555 160.159 135.078 160.282 135.525 160.528C135.976 160.775 136.324 161.142 136.57 161.631C136.82 162.116 136.945 162.722 136.945 163.449V169H135.246V163.653C135.246 163.013 135.082 162.517 134.752 162.165C134.423 161.809 133.964 161.631 133.377 161.631C132.976 161.631 132.616 161.716 132.298 161.886C131.983 162.057 131.735 162.307 131.553 162.636C131.375 162.962 131.286 163.356 131.286 163.818ZM142.974 169.176C142.114 169.176 141.373 168.992 140.752 168.625C140.135 168.254 139.657 167.733 139.32 167.062C138.987 166.388 138.82 165.598 138.82 164.693C138.82 163.799 138.987 163.011 139.32 162.33C139.657 161.648 140.127 161.116 140.729 160.733C141.335 160.35 142.044 160.159 142.854 160.159C143.347 160.159 143.824 160.241 144.286 160.403C144.748 160.566 145.163 160.822 145.531 161.17C145.898 161.519 146.188 161.972 146.4 162.528C146.612 163.081 146.718 163.754 146.718 164.545V165.148H139.781V163.875H145.053C145.053 163.428 144.962 163.032 144.781 162.688C144.599 162.339 144.343 162.064 144.013 161.864C143.688 161.663 143.305 161.562 142.866 161.562C142.388 161.562 141.972 161.68 141.616 161.915C141.263 162.146 140.991 162.449 140.798 162.824C140.608 163.195 140.513 163.598 140.513 164.034V165.028C140.513 165.612 140.616 166.108 140.82 166.517C141.029 166.926 141.318 167.239 141.69 167.455C142.061 167.667 142.495 167.773 142.991 167.773C143.313 167.773 143.606 167.727 143.871 167.636C144.137 167.542 144.366 167.402 144.559 167.216C144.752 167.03 144.9 166.801 145.002 166.528L146.61 166.818C146.481 167.292 146.25 167.706 145.917 168.062C145.587 168.415 145.173 168.689 144.673 168.886C144.176 169.08 143.61 169.176 142.974 169.176ZM154.536 157.364V169H152.837V157.364H154.536ZM156.822 169V160.273H158.521V169H156.822ZM157.68 158.926C157.384 158.926 157.13 158.828 156.918 158.631C156.71 158.43 156.606 158.191 156.606 157.915C156.606 157.634 156.71 157.396 156.918 157.199C157.13 156.998 157.384 156.898 157.68 156.898C157.975 156.898 158.227 156.998 158.435 157.199C158.647 157.396 158.754 157.634 158.754 157.915C158.754 158.191 158.647 158.43 158.435 158.631C158.227 158.828 157.975 158.926 157.68 158.926ZM162.505 163.818V169H160.806V160.273H162.437V161.693H162.545C162.746 161.231 163.06 160.86 163.488 160.58C163.92 160.299 164.463 160.159 165.119 160.159C165.713 160.159 166.234 160.284 166.681 160.534C167.128 160.78 167.475 161.148 167.721 161.636C167.967 162.125 168.09 162.729 168.09 163.449V169H166.391V163.653C166.391 163.021 166.227 162.527 165.897 162.17C165.567 161.811 165.115 161.631 164.539 161.631C164.145 161.631 163.795 161.716 163.488 161.886C163.185 162.057 162.944 162.307 162.766 162.636C162.592 162.962 162.505 163.356 162.505 163.818ZM171.931 166.04L171.92 163.966H172.215L175.692 160.273H177.727L173.761 164.477H173.494L171.931 166.04ZM170.369 169V157.364H172.067V169H170.369ZM175.88 169L172.755 164.852L173.925 163.665L177.965 169H175.88ZM187.185 169.176C186.367 169.176 185.653 168.989 185.043 168.614C184.433 168.239 183.96 167.714 183.623 167.04C183.286 166.366 183.117 165.578 183.117 164.676C183.117 163.771 183.286 162.979 183.623 162.301C183.96 161.623 184.433 161.097 185.043 160.722C185.653 160.347 186.367 160.159 187.185 160.159C188.004 160.159 188.718 160.347 189.327 160.722C189.937 161.097 190.411 161.623 190.748 162.301C191.085 162.979 191.254 163.771 191.254 164.676C191.254 165.578 191.085 166.366 190.748 167.04C190.411 167.714 189.937 168.239 189.327 168.614C188.718 168.989 188.004 169.176 187.185 169.176ZM187.191 167.75C187.721 167.75 188.161 167.61 188.509 167.33C188.858 167.049 189.115 166.676 189.282 166.21C189.452 165.744 189.538 165.231 189.538 164.67C189.538 164.114 189.452 163.602 189.282 163.136C189.115 162.667 188.858 162.29 188.509 162.006C188.161 161.722 187.721 161.58 187.191 161.58C186.657 161.58 186.214 161.722 185.862 162.006C185.513 162.29 185.254 162.667 185.083 163.136C184.916 163.602 184.833 164.114 184.833 164.67C184.833 165.231 184.916 165.744 185.083 166.21C185.254 166.676 185.513 167.049 185.862 167.33C186.214 167.61 186.657 167.75 187.191 167.75ZM193.15 169V160.273H194.792V161.659H194.883C195.042 161.189 195.322 160.82 195.724 160.551C196.129 160.278 196.587 160.142 197.099 160.142C197.205 160.142 197.33 160.146 197.474 160.153C197.621 160.161 197.737 160.17 197.82 160.182V161.807C197.752 161.788 197.631 161.767 197.457 161.744C197.282 161.718 197.108 161.705 196.934 161.705C196.532 161.705 196.174 161.79 195.86 161.96C195.549 162.127 195.303 162.36 195.121 162.659C194.94 162.955 194.849 163.292 194.849 163.67V169H193.15ZM205.417 169L202.849 160.273H204.604L206.315 166.682H206.4L208.116 160.273H209.871L211.576 166.653H211.661L213.36 160.273H215.116L212.553 169H210.82L209.048 162.699H208.917L207.144 169H205.417ZM216.728 169V160.273H218.37V161.659H218.461C218.62 161.189 218.9 160.82 219.302 160.551C219.707 160.278 220.165 160.142 220.677 160.142C220.783 160.142 220.908 160.146 221.052 160.153C221.2 160.161 221.315 160.17 221.398 160.182V161.807C221.33 161.788 221.209 161.767 221.035 161.744C220.861 161.718 220.686 161.705 220.512 161.705C220.111 161.705 219.753 161.79 219.438 161.96C219.128 162.127 218.881 162.36 218.7 162.659C218.518 162.955 218.427 163.292 218.427 163.67V169H216.728ZM222.869 169V160.273H224.567V169H222.869ZM223.727 158.926C223.431 158.926 223.177 158.828 222.965 158.631C222.757 158.43 222.653 158.191 222.653 157.915C222.653 157.634 222.757 157.396 222.965 157.199C223.177 156.998 223.431 156.898 223.727 156.898C224.022 156.898 224.274 156.998 224.482 157.199C224.694 157.396 224.8 157.634 224.8 157.915C224.8 158.191 224.694 158.43 224.482 158.631C224.274 158.828 224.022 158.926 223.727 158.926ZM230.927 160.273V161.636H226.16V160.273H230.927ZM227.438 158.182H229.137V166.438C229.137 166.767 229.186 167.015 229.285 167.182C229.383 167.345 229.51 167.456 229.665 167.517C229.825 167.574 229.997 167.602 230.183 167.602C230.319 167.602 230.438 167.593 230.54 167.574C230.643 167.555 230.722 167.54 230.779 167.528L231.086 168.932C230.987 168.97 230.847 169.008 230.665 169.045C230.484 169.087 230.256 169.11 229.984 169.114C229.537 169.121 229.12 169.042 228.734 168.875C228.347 168.708 228.035 168.451 227.796 168.102C227.558 167.754 227.438 167.316 227.438 166.79V158.182ZM236.474 169.176C235.614 169.176 234.873 168.992 234.252 168.625C233.635 168.254 233.157 167.733 232.82 167.062C232.487 166.388 232.32 165.598 232.32 164.693C232.32 163.799 232.487 163.011 232.82 162.33C233.157 161.648 233.627 161.116 234.229 160.733C234.835 160.35 235.544 160.159 236.354 160.159C236.847 160.159 237.324 160.241 237.786 160.403C238.248 160.566 238.663 160.822 239.031 161.17C239.398 161.519 239.688 161.972 239.9 162.528C240.112 163.081 240.218 163.754 240.218 164.545V165.148H233.281V163.875H238.553C238.553 163.428 238.462 163.032 238.281 162.688C238.099 162.339 237.843 162.064 237.513 161.864C237.188 161.663 236.805 161.562 236.366 161.562C235.888 161.562 235.472 161.68 235.116 161.915C234.763 162.146 234.491 162.449 234.298 162.824C234.108 163.195 234.013 163.598 234.013 164.034V165.028C234.013 165.612 234.116 166.108 234.32 166.517C234.529 166.926 234.818 167.239 235.19 167.455C235.561 167.667 235.995 167.773 236.491 167.773C236.813 167.773 237.106 167.727 237.371 167.636C237.637 167.542 237.866 167.402 238.059 167.216C238.252 167.03 238.4 166.801 238.502 166.528L240.11 166.818C239.981 167.292 239.75 167.706 239.417 168.062C239.087 168.415 238.673 168.689 238.173 168.886C237.676 169.08 237.11 169.176 236.474 169.176ZM250.411 160.273V161.636H245.644V160.273H250.411ZM246.923 158.182H248.621V166.438C248.621 166.767 248.671 167.015 248.769 167.182C248.868 167.345 248.995 167.456 249.15 167.517C249.309 167.574 249.481 167.602 249.667 167.602C249.803 167.602 249.923 167.593 250.025 167.574C250.127 167.555 250.207 167.54 250.263 167.528L250.57 168.932C250.472 168.97 250.332 169.008 250.15 169.045C249.968 169.087 249.741 169.11 249.468 169.114C249.021 169.121 248.604 169.042 248.218 168.875C247.832 168.708 247.519 168.451 247.281 168.102C247.042 167.754 246.923 167.316 246.923 166.79V158.182ZM255.873 169.176C255.055 169.176 254.341 168.989 253.731 168.614C253.121 168.239 252.647 167.714 252.31 167.04C251.973 166.366 251.805 165.578 251.805 164.676C251.805 163.771 251.973 162.979 252.31 162.301C252.647 161.623 253.121 161.097 253.731 160.722C254.341 160.347 255.055 160.159 255.873 160.159C256.691 160.159 257.405 160.347 258.015 160.722C258.625 161.097 259.098 161.623 259.435 162.301C259.772 162.979 259.941 163.771 259.941 164.676C259.941 165.578 259.772 166.366 259.435 167.04C259.098 167.714 258.625 168.239 258.015 168.614C257.405 168.989 256.691 169.176 255.873 169.176ZM255.879 167.75C256.409 167.75 256.848 167.61 257.197 167.33C257.545 167.049 257.803 166.676 257.969 166.21C258.14 165.744 258.225 165.231 258.225 164.67C258.225 164.114 258.14 163.602 257.969 163.136C257.803 162.667 257.545 162.29 257.197 162.006C256.848 161.722 256.409 161.58 255.879 161.58C255.344 161.58 254.901 161.722 254.549 162.006C254.201 162.29 253.941 162.667 253.771 163.136C253.604 163.602 253.521 164.114 253.521 164.67C253.521 165.231 253.604 165.744 253.771 166.21C253.941 166.676 254.201 167.049 254.549 167.33C254.901 167.61 255.344 167.75 255.879 167.75ZM270.146 160.273V161.636H265.379V160.273H270.146ZM266.657 158.182H268.356V166.438C268.356 166.767 268.405 167.015 268.504 167.182C268.602 167.345 268.729 167.456 268.884 167.517C269.043 167.574 269.216 167.602 269.401 167.602C269.538 167.602 269.657 167.593 269.759 167.574C269.862 167.555 269.941 167.54 269.998 167.528L270.305 168.932C270.206 168.97 270.066 169.008 269.884 169.045C269.702 169.087 269.475 169.11 269.202 169.114C268.755 169.121 268.339 169.042 267.952 168.875C267.566 168.708 267.254 168.451 267.015 168.102C266.776 167.754 266.657 167.316 266.657 166.79V158.182ZM273.911 163.818V169H272.212V157.364H273.888V161.693H273.996C274.201 161.223 274.513 160.85 274.934 160.574C275.354 160.297 275.904 160.159 276.582 160.159C277.18 160.159 277.703 160.282 278.15 160.528C278.601 160.775 278.949 161.142 279.195 161.631C279.445 162.116 279.57 162.722 279.57 163.449V169H277.871V163.653C277.871 163.013 277.707 162.517 277.377 162.165C277.048 161.809 276.589 161.631 276.002 161.631C275.601 161.631 275.241 161.716 274.923 161.886C274.608 162.057 274.36 162.307 274.178 162.636C274 162.962 273.911 163.356 273.911 163.818ZM285.599 169.176C284.739 169.176 283.998 168.992 283.377 168.625C282.76 168.254 282.282 167.733 281.945 167.062C281.612 166.388 281.445 165.598 281.445 164.693C281.445 163.799 281.612 163.011 281.945 162.33C282.282 161.648 282.752 161.116 283.354 160.733C283.96 160.35 284.669 160.159 285.479 160.159C285.972 160.159 286.449 160.241 286.911 160.403C287.373 160.566 287.788 160.822 288.156 161.17C288.523 161.519 288.813 161.972 289.025 162.528C289.237 163.081 289.343 163.754 289.343 164.545V165.148H282.406V163.875H287.678C287.678 163.428 287.587 163.032 287.406 162.688C287.224 162.339 286.968 162.064 286.638 161.864C286.313 161.663 285.93 161.562 285.491 161.562C285.013 161.562 284.597 161.68 284.241 161.915C283.888 162.146 283.616 162.449 283.423 162.824C283.233 163.195 283.138 163.598 283.138 164.034V165.028C283.138 165.612 283.241 166.108 283.445 166.517C283.654 166.926 283.943 167.239 284.315 167.455C284.686 167.667 285.12 167.773 285.616 167.773C285.938 167.773 286.231 167.727 286.496 167.636C286.762 167.542 286.991 167.402 287.184 167.216C287.377 167.03 287.525 166.801 287.627 166.528L289.235 166.818C289.106 167.292 288.875 167.706 288.542 168.062C288.212 168.415 287.798 168.689 287.298 168.886C286.801 169.08 286.235 169.176 285.599 169.176ZM159.033 188V179.273H160.663V180.693H160.771C160.953 180.212 161.25 179.837 161.663 179.568C162.076 179.295 162.571 179.159 163.146 179.159C163.73 179.159 164.218 179.295 164.612 179.568C165.01 179.841 165.304 180.216 165.493 180.693H165.584C165.792 180.227 166.124 179.856 166.578 179.58C167.033 179.299 167.574 179.159 168.203 179.159C168.995 179.159 169.641 179.407 170.141 179.903C170.644 180.4 170.896 181.148 170.896 182.148V188H169.197V182.307C169.197 181.716 169.036 181.288 168.714 181.023C168.393 180.758 168.008 180.625 167.561 180.625C167.008 180.625 166.578 180.795 166.271 181.136C165.964 181.473 165.811 181.907 165.811 182.438V188H164.118V182.199C164.118 181.725 163.97 181.345 163.675 181.057C163.379 180.769 162.995 180.625 162.521 180.625C162.199 180.625 161.902 180.71 161.629 180.881C161.36 181.047 161.143 181.28 160.976 181.58C160.813 181.879 160.732 182.225 160.732 182.619V188H159.033ZM175.713 188.193C175.16 188.193 174.66 188.091 174.213 187.886C173.766 187.678 173.412 187.377 173.151 186.983C172.893 186.589 172.764 186.106 172.764 185.534C172.764 185.042 172.859 184.636 173.048 184.318C173.238 184 173.493 183.748 173.815 183.562C174.137 183.377 174.497 183.237 174.895 183.142C175.293 183.047 175.698 182.975 176.111 182.926C176.634 182.866 177.058 182.816 177.384 182.778C177.709 182.737 177.946 182.67 178.094 182.58C178.241 182.489 178.315 182.341 178.315 182.136V182.097C178.315 181.6 178.175 181.216 177.895 180.943C177.618 180.67 177.205 180.534 176.656 180.534C176.084 180.534 175.634 180.661 175.304 180.915C174.978 181.165 174.753 181.443 174.628 181.75L173.031 181.386C173.221 180.856 173.497 180.428 173.861 180.102C174.228 179.773 174.651 179.534 175.128 179.386C175.605 179.235 176.107 179.159 176.634 179.159C176.982 179.159 177.351 179.201 177.741 179.284C178.135 179.364 178.503 179.511 178.844 179.727C179.188 179.943 179.471 180.252 179.69 180.653C179.91 181.051 180.02 181.568 180.02 182.205V188H178.361V186.807H178.293C178.183 187.027 178.018 187.242 177.798 187.455C177.579 187.667 177.296 187.843 176.952 187.983C176.607 188.123 176.194 188.193 175.713 188.193ZM176.082 186.83C176.552 186.83 176.954 186.737 177.287 186.551C177.624 186.366 177.88 186.123 178.054 185.824C178.232 185.521 178.321 185.197 178.321 184.852V183.727C178.26 183.788 178.143 183.845 177.969 183.898C177.798 183.947 177.603 183.991 177.384 184.028C177.164 184.062 176.95 184.095 176.741 184.125C176.533 184.152 176.359 184.174 176.219 184.193C175.889 184.235 175.588 184.305 175.315 184.403C175.046 184.502 174.83 184.644 174.668 184.83C174.509 185.011 174.429 185.254 174.429 185.557C174.429 185.977 174.584 186.295 174.895 186.511C175.205 186.723 175.601 186.83 176.082 186.83ZM182.283 188V179.273H183.982V188H182.283ZM183.141 177.926C182.845 177.926 182.591 177.828 182.379 177.631C182.171 177.43 182.067 177.191 182.067 176.915C182.067 176.634 182.171 176.396 182.379 176.199C182.591 175.998 182.845 175.898 183.141 175.898C183.436 175.898 183.688 175.998 183.896 176.199C184.108 176.396 184.214 176.634 184.214 176.915C184.214 177.191 184.108 177.43 183.896 177.631C183.688 177.828 183.436 177.926 183.141 177.926ZM187.966 176.364V188H186.267V176.364H187.966Z" fill="#2D3342"/>
<path d="M113.085 242H110.614L114.38 231.091H117.352L121.113 242H118.641L115.908 233.584H115.823L113.085 242ZM112.931 237.712H118.769V239.512H112.931V237.712ZM129 236.151L126.923 236.279C126.887 236.102 126.811 235.942 126.694 235.8C126.577 235.654 126.422 235.539 126.23 235.453C126.042 235.365 125.817 235.32 125.554 235.32C125.202 235.32 124.906 235.395 124.664 235.544C124.423 235.69 124.302 235.885 124.302 236.13C124.302 236.325 124.38 236.49 124.536 236.625C124.693 236.76 124.961 236.869 125.341 236.95L126.822 237.249C127.617 237.412 128.21 237.675 128.601 238.037C128.991 238.399 129.187 238.875 129.187 239.464C129.187 240.001 129.029 240.471 128.713 240.876C128.4 241.281 127.97 241.597 127.423 241.824C126.88 242.048 126.253 242.16 125.543 242.16C124.46 242.16 123.597 241.934 122.954 241.483C122.315 241.029 121.941 240.411 121.83 239.63L124.062 239.512C124.13 239.843 124.293 240.095 124.552 240.269C124.812 240.439 125.144 240.525 125.548 240.525C125.946 240.525 126.266 240.448 126.507 240.295C126.752 240.139 126.877 239.939 126.88 239.694C126.877 239.488 126.79 239.319 126.619 239.188C126.449 239.053 126.186 238.95 125.831 238.879L124.414 238.596C123.615 238.436 123.02 238.159 122.629 237.765C122.242 237.371 122.049 236.869 122.049 236.258C122.049 235.732 122.191 235.279 122.475 234.9C122.763 234.52 123.166 234.227 123.684 234.021C124.206 233.815 124.817 233.712 125.517 233.712C126.55 233.712 127.363 233.93 127.956 234.367C128.553 234.804 128.901 235.398 129 236.151ZM132.672 239.646L132.677 236.924H133.007L135.628 233.818H138.233L134.712 237.93H134.174L132.672 239.646ZM130.616 242V231.091H132.885V242H130.616ZM135.729 242L133.321 238.436L134.834 236.833L138.387 242H135.729ZM145.151 242.154C144.629 242.154 144.164 242.064 143.755 241.883C143.347 241.698 143.024 241.426 142.786 241.068C142.551 240.706 142.434 240.255 142.434 239.715C142.434 239.26 142.518 238.879 142.684 238.57C142.851 238.261 143.079 238.012 143.366 237.824C143.654 237.636 143.981 237.494 144.346 237.398C144.716 237.302 145.103 237.234 145.508 237.195C145.983 237.146 146.367 237.099 146.658 237.057C146.949 237.011 147.161 236.943 147.292 236.854C147.423 236.766 147.489 236.634 147.489 236.46V236.428C147.489 236.091 147.383 235.83 147.17 235.645C146.96 235.461 146.662 235.368 146.275 235.368C145.866 235.368 145.541 235.459 145.3 235.64C145.058 235.817 144.899 236.041 144.82 236.311L142.722 236.141C142.828 235.643 143.038 235.214 143.35 234.852C143.663 234.486 144.066 234.205 144.559 234.01C145.057 233.811 145.632 233.712 146.285 233.712C146.74 233.712 147.175 233.765 147.59 233.871C148.009 233.978 148.381 234.143 148.704 234.367C149.03 234.591 149.288 234.878 149.476 235.23C149.664 235.578 149.758 235.995 149.758 236.482V242H147.606V240.865H147.542C147.411 241.121 147.235 241.347 147.015 241.542C146.795 241.734 146.53 241.885 146.221 241.995C145.912 242.101 145.556 242.154 145.151 242.154ZM145.801 240.588C146.134 240.588 146.429 240.523 146.685 240.391C146.941 240.256 147.141 240.075 147.287 239.848C147.432 239.621 147.505 239.363 147.505 239.076V238.207C147.434 238.254 147.336 238.296 147.212 238.335C147.091 238.371 146.955 238.404 146.802 238.436C146.649 238.465 146.497 238.491 146.344 238.516C146.191 238.538 146.053 238.557 145.928 238.575C145.662 238.614 145.43 238.676 145.231 238.761C145.032 238.847 144.877 238.962 144.767 239.108C144.657 239.25 144.602 239.427 144.602 239.64C144.602 239.949 144.714 240.185 144.938 240.349C145.165 240.509 145.453 240.588 145.801 240.588ZM160.397 245.068V240.69H160.328C160.221 240.917 160.07 241.142 159.875 241.366C159.683 241.586 159.433 241.769 159.124 241.915C158.819 242.06 158.446 242.133 158.005 242.133C157.384 242.133 156.821 241.973 156.317 241.654C155.816 241.331 155.418 240.857 155.124 240.232C154.832 239.603 154.687 238.832 154.687 237.92C154.687 236.982 154.838 236.203 155.14 235.581C155.441 234.956 155.843 234.489 156.343 234.18C156.848 233.868 157.4 233.712 158 233.712C158.458 233.712 158.84 233.79 159.145 233.946C159.454 234.099 159.703 234.29 159.891 234.521C160.083 234.749 160.228 234.972 160.328 235.192H160.424V233.818H162.661V245.068H160.397ZM158.725 240.327C159.09 240.327 159.399 240.228 159.651 240.029C159.907 239.827 160.102 239.544 160.237 239.182C160.376 238.82 160.445 238.396 160.445 237.909C160.445 237.423 160.378 237 160.243 236.641C160.108 236.283 159.912 236.006 159.657 235.81C159.401 235.615 159.09 235.517 158.725 235.517C158.352 235.517 158.037 235.619 157.782 235.821C157.526 236.023 157.332 236.304 157.201 236.663C157.07 237.021 157.004 237.437 157.004 237.909C157.004 238.385 157.07 238.806 157.201 239.172C157.336 239.534 157.53 239.818 157.782 240.024C158.037 240.226 158.352 240.327 158.725 240.327ZM169.729 238.516V233.818H171.999V242H169.82V240.514H169.735C169.55 240.993 169.243 241.379 168.813 241.67C168.387 241.961 167.867 242.107 167.253 242.107C166.706 242.107 166.225 241.982 165.809 241.734C165.394 241.485 165.069 241.132 164.834 240.674C164.603 240.216 164.486 239.667 164.483 239.028V233.818H166.752V238.623C166.755 239.106 166.885 239.488 167.141 239.768C167.396 240.049 167.739 240.189 168.169 240.189C168.442 240.189 168.698 240.127 168.936 240.002C169.174 239.875 169.366 239.686 169.511 239.438C169.66 239.189 169.733 238.882 169.729 238.516ZM177.542 242.16C176.701 242.16 175.976 241.989 175.369 241.648C174.765 241.304 174.3 240.817 173.974 240.189C173.647 239.557 173.483 238.809 173.483 237.946C173.483 237.105 173.647 236.366 173.974 235.73C174.3 235.095 174.76 234.599 175.353 234.244C175.95 233.889 176.649 233.712 177.452 233.712C177.992 233.712 178.494 233.799 178.959 233.973C179.428 234.143 179.836 234.401 180.184 234.745C180.536 235.089 180.809 235.523 181.005 236.045C181.2 236.563 181.298 237.17 181.298 237.866V238.49H174.389V237.083H179.162C179.162 236.757 179.091 236.467 178.949 236.215C178.807 235.963 178.61 235.766 178.357 235.624C178.109 235.478 177.819 235.406 177.489 235.406C177.145 235.406 176.839 235.485 176.573 235.645C176.31 235.801 176.104 236.013 175.955 236.279C175.806 236.542 175.73 236.835 175.726 237.158V238.495C175.726 238.9 175.801 239.25 175.95 239.544C176.102 239.839 176.317 240.066 176.594 240.226C176.871 240.386 177.2 240.466 177.58 240.466C177.832 240.466 178.063 240.43 178.272 240.359C178.482 240.288 178.661 240.182 178.81 240.04C178.959 239.898 179.073 239.724 179.151 239.518L181.25 239.656C181.143 240.161 180.925 240.601 180.595 240.977C180.268 241.35 179.845 241.641 179.327 241.851C178.812 242.057 178.217 242.16 177.542 242.16ZM189.586 236.151L187.509 236.279C187.473 236.102 187.397 235.942 187.28 235.8C187.162 235.654 187.008 235.539 186.816 235.453C186.628 235.365 186.403 235.32 186.14 235.32C185.788 235.32 185.492 235.395 185.25 235.544C185.009 235.69 184.888 235.885 184.888 236.13C184.888 236.325 184.966 236.49 185.122 236.625C185.279 236.76 185.547 236.869 185.927 236.95L187.407 237.249C188.203 237.412 188.796 237.675 189.187 238.037C189.577 238.399 189.773 238.875 189.773 239.464C189.773 240.001 189.615 240.471 189.298 240.876C188.986 241.281 188.556 241.597 188.009 241.824C187.466 242.048 186.839 242.16 186.129 242.16C185.046 242.16 184.183 241.934 183.54 241.483C182.901 241.029 182.526 240.411 182.416 239.63L184.648 239.512C184.716 239.843 184.879 240.095 185.138 240.269C185.398 240.439 185.73 240.525 186.134 240.525C186.532 240.525 186.852 240.448 187.093 240.295C187.338 240.139 187.463 239.939 187.466 239.694C187.463 239.488 187.376 239.319 187.205 239.188C187.035 239.053 186.772 238.95 186.417 238.879L185 238.596C184.201 238.436 183.606 238.159 183.215 237.765C182.828 237.371 182.635 236.869 182.635 236.258C182.635 235.732 182.777 235.279 183.061 234.9C183.349 234.52 183.752 234.227 184.27 234.021C184.792 233.815 185.403 233.712 186.102 233.712C187.136 233.712 187.949 233.93 188.542 234.367C189.139 234.804 189.487 235.398 189.586 236.151ZM195.553 233.818V235.523H190.626V233.818H195.553ZM191.745 231.858H194.014V239.486C194.014 239.695 194.046 239.859 194.11 239.976C194.174 240.089 194.263 240.169 194.376 240.216C194.493 240.262 194.628 240.285 194.781 240.285C194.888 240.285 194.994 240.276 195.101 240.258C195.207 240.237 195.289 240.221 195.346 240.21L195.703 241.899C195.589 241.934 195.429 241.975 195.223 242.021C195.017 242.071 194.767 242.101 194.472 242.112C193.925 242.133 193.446 242.06 193.034 241.893C192.625 241.727 192.308 241.467 192.08 241.116C191.853 240.764 191.741 240.32 191.745 239.784V231.858ZM197.032 242V233.818H199.301V242H197.032ZM198.171 232.763C197.834 232.763 197.545 232.652 197.303 232.428C197.065 232.201 196.946 231.929 196.946 231.613C196.946 231.3 197.065 231.032 197.303 230.809C197.545 230.581 197.834 230.468 198.171 230.468C198.509 230.468 198.796 230.581 199.034 230.809C199.276 231.032 199.397 231.3 199.397 231.613C199.397 231.929 199.276 232.201 199.034 232.428C198.796 232.652 198.509 232.763 198.171 232.763ZM204.815 242.16C203.988 242.16 203.272 241.984 202.669 241.632C202.068 241.277 201.605 240.784 201.278 240.152C200.952 239.516 200.788 238.779 200.788 237.941C200.788 237.096 200.952 236.357 201.278 235.725C201.605 235.089 202.068 234.596 202.669 234.244C203.272 233.889 203.988 233.712 204.815 233.712C205.643 233.712 206.356 233.889 206.956 234.244C207.56 234.596 208.025 235.089 208.352 235.725C208.679 236.357 208.842 237.096 208.842 237.941C208.842 238.779 208.679 239.516 208.352 240.152C208.025 240.784 207.56 241.277 206.956 241.632C206.356 241.984 205.643 242.16 204.815 242.16ZM204.826 240.402C205.202 240.402 205.517 240.295 205.769 240.082C206.021 239.866 206.211 239.571 206.339 239.198C206.47 238.825 206.536 238.401 206.536 237.925C206.536 237.449 206.47 237.025 206.339 236.652C206.211 236.279 206.021 235.984 205.769 235.768C205.517 235.551 205.202 235.443 204.826 235.443C204.446 235.443 204.126 235.551 203.867 235.768C203.611 235.984 203.418 236.279 203.286 236.652C203.159 237.025 203.095 237.449 203.095 237.925C203.095 238.401 203.159 238.825 203.286 239.198C203.418 239.571 203.611 239.866 203.867 240.082C204.126 240.295 204.446 240.402 204.826 240.402ZM212.587 237.27V242H210.318V233.818H212.48V235.262H212.576C212.757 234.786 213.061 234.409 213.487 234.132C213.913 233.852 214.43 233.712 215.037 233.712C215.605 233.712 216.101 233.836 216.523 234.085C216.946 234.333 217.274 234.688 217.509 235.15C217.743 235.608 217.86 236.155 217.86 236.79V242H215.591V237.195C215.595 236.695 215.467 236.304 215.208 236.023C214.948 235.739 214.591 235.597 214.137 235.597C213.831 235.597 213.562 235.663 213.327 235.794C213.096 235.926 212.915 236.118 212.784 236.37C212.656 236.618 212.59 236.918 212.587 237.27Z" fill="#2D3342"/>
<g filter="url(#filter1_d_1314_8366)">
<path d="M222.065 192.501C222.369 197.63 222.254 209.903 219.539 219.627C219.426 220.03 220.164 220.584 220.599 220.427C227.218 218.041 242.418 215.782 252.098 215.674" stroke="#5955B3" stroke-width="4" stroke-linecap="round"/>
<path d="M222.07 218.624C232.808 208.845 253.502 192.982 261.739 177.935" stroke="#5955B3" stroke-width="4" stroke-linecap="round"/>
</g>
<path d="M50.5916 69.3636V81H48.1314V71.6989H48.0632L45.3984 73.3693V71.1875L48.2791 69.3636H50.5916Z" fill="black"/>
<path d="M50.2948 89.7443C49.7086 89.6572 35.5161 87.764 36.1072 74.5622C36.1615 73.3493 36.3128 72.2459 36.548 71.2456M50.2948 89.7443C42.5158 89.2303 38.5629 86.1831 36.7938 82.531M50.2948 89.7443C51.236 89.884 52.2066 89.8729 53.1668 89.7209M36.548 71.2456C36.8424 69.9933 37.2682 68.9028 37.7997 67.9613M36.548 71.2456C35.4882 74.1811 34.9335 78.6905 36.7938 82.531M37.7997 67.9613C42.157 60.2432 53.6162 62.549 57.9797 67.9613C59.692 70.0869 63.2804 75.4774 61.5317 82.2156C60.4355 86.4394 56.879 89.1331 53.1668 89.7209M37.7997 67.9613C36.1417 70.2905 33.7361 75.745 35.7927 80.6916M36.7938 82.531C36.3822 81.9308 36.052 81.3152 35.7927 80.6916M53.1668 89.7209C48.2581 90.5748 37.911 89.9644 35.7927 80.6916" stroke="#5A56B4" stroke-width="3" stroke-linecap="round"/>
<path d="M26.4041 170V168.227L30.5462 164.392C30.8984 164.051 31.1939 163.744 31.4325 163.472C31.675 163.199 31.8587 162.932 31.9837 162.67C32.1087 162.405 32.1712 162.119 32.1712 161.812C32.1712 161.472 32.0935 161.178 31.9382 160.932C31.7829 160.682 31.5708 160.491 31.3018 160.358C31.0329 160.222 30.728 160.153 30.3871 160.153C30.031 160.153 29.7204 160.225 29.4553 160.369C29.1901 160.513 28.9856 160.72 28.8416 160.989C28.6977 161.258 28.6257 161.578 28.6257 161.949H26.2905C26.2905 161.187 26.4628 160.527 26.8075 159.966C27.1522 159.405 27.6352 158.972 28.2564 158.665C28.8776 158.358 29.5935 158.205 30.4041 158.205C31.2375 158.205 31.9628 158.352 32.5803 158.648C33.2015 158.939 33.6844 159.345 34.0291 159.864C34.3738 160.383 34.5462 160.977 34.5462 161.648C34.5462 162.087 34.459 162.521 34.2848 162.949C34.1143 163.377 33.8094 163.852 33.37 164.375C32.9306 164.894 32.3113 165.517 31.5121 166.244L29.8132 167.909V167.989H34.6996V170H26.4041Z" fill="black"/>
<path d="M32.2948 176.744C31.7086 176.657 17.5161 174.764 18.1072 161.562C18.1615 160.349 18.3128 159.246 18.548 158.246M32.2948 176.744C24.5158 176.23 20.5629 173.183 18.7938 169.531M32.2948 176.744C33.236 176.884 34.2066 176.873 35.1668 176.721M18.548 158.246C18.8424 156.993 19.2682 155.903 19.7997 154.961M18.548 158.246C17.4882 161.181 16.9335 165.69 18.7938 169.531M19.7997 154.961C24.157 147.243 35.6162 149.549 39.9797 154.961C41.692 157.087 45.2804 162.477 43.5317 169.216C42.4355 173.439 38.879 176.133 35.1668 176.721M19.7997 154.961C18.1417 157.29 15.7361 162.745 17.7927 167.692M18.7938 169.531C18.3822 168.931 18.052 168.315 17.7927 167.692M35.1668 176.721C30.258 177.575 19.911 176.964 17.7927 167.692" stroke="#5A56B4" stroke-width="3" stroke-linecap="round"/>
<path d="M85.4709 242.159C84.6224 242.159 83.8667 242.013 83.2038 241.722C82.5447 241.426 82.0239 241.021 81.6413 240.506C81.2625 239.987 81.0675 239.388 81.0561 238.71H83.5334C83.5485 238.994 83.6413 239.244 83.8118 239.46C83.986 239.672 84.2171 239.837 84.505 239.955C84.7929 240.072 85.1167 240.131 85.4766 240.131C85.8516 240.131 86.183 240.064 86.4709 239.932C86.7588 239.799 86.9841 239.616 87.147 239.381C87.3099 239.146 87.3913 238.875 87.3913 238.568C87.3913 238.258 87.3042 237.983 87.13 237.744C86.9595 237.502 86.7133 237.312 86.3913 237.176C86.0732 237.04 85.6944 236.972 85.255 236.972H84.1697V235.165H85.255C85.6262 235.165 85.9538 235.1 86.2379 234.972C86.5258 234.843 86.7493 234.665 86.9084 234.438C87.0675 234.206 87.147 233.938 87.147 233.631C87.147 233.339 87.0769 233.083 86.9368 232.864C86.8004 232.64 86.6072 232.466 86.3572 232.341C86.111 232.216 85.8232 232.153 85.4936 232.153C85.1603 232.153 84.8554 232.214 84.5788 232.335C84.3023 232.453 84.0807 232.621 83.9141 232.841C83.7474 233.061 83.6584 233.318 83.647 233.614H81.2891C81.3004 232.943 81.4917 232.352 81.8629 231.841C82.2341 231.33 82.7341 230.93 83.3629 230.642C83.9955 230.35 84.7095 230.205 85.505 230.205C86.308 230.205 87.0107 230.35 87.6129 230.642C88.2152 230.934 88.683 231.328 89.0163 231.824C89.3535 232.316 89.5201 232.869 89.5163 233.483C89.5201 234.134 89.3175 234.678 88.9084 235.114C88.5031 235.549 87.9747 235.826 87.3232 235.943V236.034C88.1792 236.144 88.8307 236.441 89.2777 236.926C89.7285 237.407 89.9519 238.009 89.9482 238.733C89.9519 239.396 89.7607 239.985 89.3743 240.5C88.9917 241.015 88.4633 241.42 87.7891 241.716C87.1148 242.011 86.3421 242.159 85.4709 242.159Z" fill="black"/>
<path d="M87.2948 248.744C86.7086 248.657 72.5161 246.764 73.1072 233.562C73.1615 232.349 73.3128 231.246 73.548 230.246M87.2948 248.744C79.5158 248.23 75.5629 245.183 73.7938 241.531M87.2948 248.744C88.236 248.884 89.2066 248.873 90.1668 248.721M73.548 230.246C73.8424 228.993 74.2682 227.903 74.7997 226.961M73.548 230.246C72.4882 233.181 71.9335 237.69 73.7938 241.531M74.7997 226.961C79.157 219.243 90.6162 221.549 94.9797 226.961C96.692 229.087 100.28 234.477 98.5317 241.216C97.4355 245.439 93.879 248.133 90.1668 248.721M74.7997 226.961C73.1417 229.29 70.7361 234.745 72.7927 239.692M73.7938 241.531C73.3822 240.931 73.052 240.315 72.7927 239.692M90.1668 248.721C85.258 249.575 74.911 248.964 72.7927 239.692" stroke="#5A56B4" stroke-width="3" stroke-linecap="round"/>
<defs>
<filter id="filter0_d_1314_8366" x="56.0283" y="92.8291" width="49.3418" height="50.084" filterUnits="userSpaceOnUse" color-interpolation-filters="sRGB">
<feFlood flood-opacity="0" result="BackgroundImageFix"/>
<feColorMatrix in="SourceAlpha" type="matrix" values="0 0 0 0 0 0 0 0 0 0 0 0 0 0 0 0 0 0 127 0" result="hardAlpha"/>
<feOffset dy="4"/>
<feGaussianBlur stdDeviation="1"/>
<feComposite in2="hardAlpha" operator="out"/>
<feColorMatrix type="matrix" values="0 0 0 0 0 0 0 0 0 0 0 0 0 0 0 0 0 0 0.14 0"/>
<feBlend mode="normal" in2="BackgroundImageFix" result="effect1_dropShadow_1314_8366"/>
<feBlend mode="normal" in="SourceGraphic" in2="effect1_dropShadow_1314_8366" result="shape"/>
</filter>
<filter id="filter1_d_1314_8366" x="211.6" y="175.935" width="58.1145" height="53.9195" filterUnits="userSpaceOnUse" color-interpolation-filters="sRGB">
<feFlood flood-opacity="0" result="BackgroundImageFix"/>
<feColorMatrix in="SourceAlpha" type="matrix" values="0 0 0 0 0 0 0 0 0 0 0 0 0 0 0 0 0 0 127 0" result="hardAlpha"/>
<feOffset dy="4"/>
<feGaussianBlur stdDeviation="1.7"/>
<feComposite in2="hardAlpha" operator="out"/>
<feColorMatrix type="matrix" values="0 0 0 0 0 0 0 0 0 0 0 0 0 0 0 0 0 0 0.11 0"/>
<feBlend mode="normal" in2="BackgroundImageFix" result="effect1_dropShadow_1314_8366"/>
<feBlend mode="normal" in="SourceGraphic" in2="effect1_dropShadow_1314_8366" result="shape"/>
</filter>
<linearGradient id="paint0_linear_1314_8366" x1="144.515" y1="13" x2="170.555" y2="50.9792" gradientUnits="userSpaceOnUse">
<stop stop-color="#5955B3"/>
<stop offset="1" stop-color="#6563CE"/>
</linearGradient>
</defs>
</svg>
