<svg width="188" height="39" viewBox="0 0 188 39" fill="none" xmlns="http://www.w3.org/2000/svg">
<rect x="1" y="1" width="186" height="37" rx="4" stroke="#6663CF" stroke-width="2"/>
<path d="M71.552 15.064H72.768V24.296H71.552V15.064ZM66.88 17.416H77.264V18.52H66.88V17.416ZM73.104 17.848C74.064 19.768 75.936 21.704 77.68 22.664C77.424 22.888 77.04 23.32 76.832 23.608C75.088 22.488 73.232 20.328 72.176 18.2L73.104 17.848ZM71.28 17.768L72.224 18.12C71.152 20.328 69.168 22.472 67.264 23.576C67.056 23.288 66.688 22.872 66.432 22.632C68.304 21.704 70.272 19.72 71.28 17.768ZM69.216 11.4V14.328H75.184V11.4H69.216ZM68.08 10.328H76.368V15.416H68.08V10.328ZM66.416 9.608L67.552 9.96C66.464 12.664 64.784 15.352 63.04 17.128C62.912 16.856 62.576 16.232 62.352 15.944C63.952 14.424 65.488 12.04 66.416 9.608ZM64.752 13.736L65.888 12.6L65.904 12.616V24.248H64.752V13.736ZM83.36 18.76H93.312V19.88H83.36V18.76ZM84.72 14.616H91.312V15.72H84.72V14.616ZM87.84 17.272H89.04V22.872C89.04 23.576 88.896 23.912 88.352 24.104C87.824 24.28 86.944 24.28 85.568 24.28C85.504 23.944 85.344 23.48 85.184 23.144C86.256 23.176 87.2 23.16 87.488 23.16C87.76 23.144 87.84 23.08 87.84 22.856V17.272ZM90.992 14.616H91.28L91.536 14.552L92.304 15.128C91.36 16.232 89.952 17.4 88.72 18.136C88.56 17.928 88.256 17.592 88.048 17.432C89.12 16.792 90.384 15.672 90.992 14.84V14.616ZM78.992 11.656H93.008V12.808H78.992V11.656ZM84.16 9.56L85.408 9.88C84.288 13.56 82.336 17.288 79.136 19.576C79.008 19.272 78.704 18.744 78.496 18.456C81.408 16.424 83.264 12.872 84.16 9.56ZM81.008 16.104H82.208V24.248H81.008V16.104ZM95.024 10.424H108.96V11.512H95.024V10.424ZM101.472 10.888H102.72V17.096C102.72 20.184 101.872 22.936 95.456 24.296C95.328 24.04 94.992 23.528 94.736 23.24C100.976 22.088 101.472 19.736 101.472 17.08V10.888ZM97.632 16.424V18.056H106.752V16.424H97.632ZM97.632 13.864V15.464H106.752V13.864H97.632ZM96.496 12.856H107.968V19.064H96.496V12.856ZM98.032 19.192C100.064 22.36 103.712 22.904 109.488 23.048C109.28 23.336 109.04 23.848 108.976 24.232C103.088 23.992 99.152 23.24 97.008 19.608L98.032 19.192ZM111.744 15.256H115.808V16.36H111.744V15.256ZM111.104 10.968H116.544V16.968H115.392V12.088H111.104V10.968ZM111.104 15.256H112.272V20.36C112.272 20.872 112.384 20.952 113.056 20.952C113.36 20.952 114.912 20.952 115.312 20.952C115.888 20.952 115.984 20.696 116.048 19.064C116.304 19.272 116.8 19.464 117.136 19.544C116.992 21.576 116.656 22.088 115.408 22.088C115.088 22.088 113.232 22.088 112.928 22.088C111.504 22.088 111.104 21.736 111.104 20.376V15.256ZM118.8 12.504H125.392V13.64H118.8V12.504ZM119.216 9.576L120.464 9.784C119.84 12.68 118.8 15.336 117.408 17.064C117.168 16.856 116.64 16.488 116.336 16.312C117.744 14.728 118.704 12.232 119.216 9.576ZM122.96 12.952L124.176 13.096C123.28 19.064 121.232 22.392 116.48 24.344C116.352 24.072 115.984 23.544 115.744 23.272C120.32 21.624 122.192 18.488 122.96 12.952ZM119.28 13.528C120.144 18.072 122.016 21.736 125.584 23.24C125.312 23.48 124.928 23.944 124.736 24.28C121.024 22.536 119.152 18.728 118.176 13.736L119.28 13.528Z" fill="#4B5563"/>
</svg>
