<svg width="55" height="21" viewBox="0 0 55 21" fill="none" xmlns="http://www.w3.org/2000/svg">
<path fill-rule="evenodd" clip-rule="evenodd" d="M7.00008 15.8334C10.2217 15.8334 12.8334 13.2217 12.8334 10C12.8334 6.77836 10.2217 4.16669 7.00008 4.16669C3.77842 4.16669 1.16675 6.77836 1.16675 10C1.16675 13.2217 3.77842 15.8334 7.00008 15.8334Z" stroke="#D0D1D2" stroke-width="1.16667" stroke-linecap="round" stroke-linejoin="round"/>
<path d="M1.16675 10H12.8334" stroke="#D0D1D2" stroke-width="1.16667" stroke-linecap="round" stroke-linejoin="round"/>
<path fill-rule="evenodd" clip-rule="evenodd" d="M7.00008 4.16669C8.45916 5.76406 9.28835 7.83704 9.33341 10C9.28835 12.163 8.45916 14.236 7.00008 15.8334C5.541 14.236 4.71181 12.163 4.66675 10C4.71181 7.83704 5.541 5.76406 7.00008 4.16669V4.16669Z" stroke="#D0D1D2" stroke-width="1.16667" stroke-linecap="round" stroke-linejoin="round"/>
<path d="M23.804 16.07C23.3 16.07 22.852 16 22.46 15.86C22.0773 15.7107 21.7693 15.4633 21.536 15.118C21.312 14.7633 21.186 14.2733 21.158 13.648L20.934 8.776H22.068L22.292 13.396C22.32 13.8347 22.3993 14.166 22.53 14.39C22.6607 14.6047 22.8427 14.7493 23.076 14.824C23.3187 14.8893 23.608 14.922 23.944 14.922C24.14 14.922 24.28 14.978 24.364 15.09C24.4573 15.1927 24.504 15.3187 24.504 15.468C24.504 15.6173 24.4387 15.7573 24.308 15.888C24.1773 16.0093 24.0093 16.07 23.804 16.07ZM21.69 14.53C21.158 14.698 20.64 14.782 20.136 14.782C19.632 14.782 19.1747 14.7073 18.764 14.558C18.3533 14.4087 18.0267 14.194 17.784 13.914C17.5413 13.6247 17.42 13.2793 17.42 12.878C17.42 12.486 17.518 12.1173 17.714 11.772C17.9193 11.4267 18.1947 11.1187 18.54 10.848C18.8947 10.5773 19.3007 10.3533 19.758 10.176C20.2247 9.98933 20.7193 9.86333 21.242 9.798L21.438 10.974C20.9713 10.9927 20.556 11.058 20.192 11.17C19.8373 11.2727 19.534 11.408 19.282 11.576C19.0393 11.744 18.8527 11.926 18.722 12.122C18.5913 12.318 18.526 12.5093 18.526 12.696C18.526 12.9013 18.6007 13.0693 18.75 13.2C18.8993 13.3307 19.0907 13.4333 19.324 13.508C19.5573 13.5733 19.814 13.6153 20.094 13.634C20.374 13.6433 20.6447 13.634 20.906 13.606C21.1673 13.5687 21.3913 13.5173 21.578 13.452L21.69 14.53ZM21.396 7.166C21.2 7.166 21.032 7.10067 20.892 6.97C20.7613 6.83 20.696 6.66667 20.696 6.48C20.696 6.29333 20.7613 6.13 20.892 5.99C21.032 5.85 21.2 5.78 21.396 5.78C21.5827 5.78 21.7413 5.85 21.872 5.99C22.012 6.13 22.082 6.29333 22.082 6.48C22.082 6.66667 22.012 6.83 21.872 6.97C21.7413 7.10067 21.5827 7.166 21.396 7.166ZM19.478 7.166C19.282 7.166 19.114 7.10067 18.974 6.97C18.8433 6.83 18.778 6.66667 18.778 6.48C18.778 6.29333 18.8433 6.13 18.974 5.99C19.114 5.85 19.282 5.78 19.478 5.78C19.6647 5.78 19.8233 5.85 19.954 5.99C20.094 6.13 20.164 6.29333 20.164 6.48C20.164 6.66667 20.094 6.83 19.954 6.97C19.8233 7.10067 19.6647 7.166 19.478 7.166ZM24.1086 16.07L24.2486 14.922C24.7153 14.922 25.0793 14.8893 25.3406 14.824C25.6019 14.7493 25.7979 14.614 25.9286 14.418C26.0686 14.2127 26.1806 13.9187 26.2646 13.536C26.3486 13.1533 26.4513 12.654 26.5726 12.038L27.6646 12.248C27.6273 12.416 27.5853 12.6027 27.5386 12.808C27.4919 13.0133 27.4499 13.2187 27.4126 13.424C27.3846 13.62 27.3706 13.7927 27.3706 13.942C27.3706 14.082 27.3799 14.2127 27.3986 14.334C27.4173 14.4553 27.4873 14.558 27.6086 14.642C27.7299 14.726 27.9353 14.796 28.2246 14.852C28.5139 14.8987 28.9293 14.922 29.4706 14.922C29.6666 14.922 29.8066 14.978 29.8906 15.09C29.9839 15.1927 30.0306 15.3187 30.0306 15.468C30.0306 15.6173 29.9653 15.7573 29.8346 15.888C29.7039 16.0093 29.5359 16.07 29.3306 16.07C28.7613 16.07 28.3086 16.042 27.9726 15.986C27.6366 15.9207 27.3799 15.8273 27.2026 15.706C27.0346 15.5847 26.9133 15.4353 26.8386 15.258C26.7733 15.0713 26.7219 14.8567 26.6846 14.614L27.1046 14.642C26.9553 14.9407 26.7919 15.1833 26.6146 15.37C26.4466 15.5567 26.2506 15.7013 26.0266 15.804C25.8026 15.9067 25.5319 15.9767 25.2146 16.014C24.9066 16.0513 24.5379 16.07 24.1086 16.07ZM27.6366 18.716C27.4406 18.716 27.2726 18.646 27.1326 18.506C27.0019 18.3753 26.9366 18.2167 26.9366 18.03C26.9366 17.8433 27.0019 17.68 27.1326 17.54C27.2726 17.4 27.4406 17.33 27.6366 17.33C27.8233 17.33 27.9819 17.4 28.1126 17.54C28.2526 17.68 28.3226 17.8433 28.3226 18.03C28.3226 18.2167 28.2526 18.3753 28.1126 18.506C27.9819 18.646 27.8233 18.716 27.6366 18.716ZM25.7186 18.716C25.5226 18.716 25.3546 18.646 25.2146 18.506C25.0839 18.3753 25.0186 18.2167 25.0186 18.03C25.0186 17.8433 25.0839 17.68 25.2146 17.54C25.3546 17.4 25.5226 17.33 25.7186 17.33C25.9053 17.33 26.0639 17.4 26.1946 17.54C26.3346 17.68 26.4046 17.8433 26.4046 18.03C26.4046 18.2167 26.3346 18.3753 26.1946 18.506C26.0639 18.646 25.9053 18.716 25.7186 18.716ZM29.6313 16.07L29.7713 14.922C30.2286 14.922 30.5926 14.894 30.8633 14.838C31.1339 14.782 31.3299 14.67 31.4513 14.502C31.5726 14.3247 31.6333 14.0633 31.6333 13.718C31.6333 13.4847 31.5959 13.2093 31.5213 12.892C31.4466 12.5653 31.3486 12.22 31.2273 11.856C31.1059 11.492 30.9753 11.1327 30.8353 10.778L31.9693 10.358C32.0906 10.6567 32.2026 10.9973 32.3053 11.38C32.4173 11.7627 32.5106 12.1407 32.5853 12.514C32.6599 12.8873 32.6973 13.214 32.6973 13.494C32.6973 13.8673 32.6553 14.1987 32.5713 14.488C32.4966 14.768 32.3799 15.0107 32.2213 15.216C32.0626 15.412 31.8573 15.5753 31.6053 15.706C31.3626 15.8273 31.0779 15.9207 30.7513 15.986C30.4246 16.042 30.0513 16.07 29.6313 16.07ZM31.1293 18.674C30.9333 18.674 30.7653 18.604 30.6253 18.464C30.4946 18.3333 30.4293 18.1747 30.4293 17.988C30.4293 17.8013 30.4946 17.638 30.6253 17.498C30.7653 17.358 30.9333 17.288 31.1293 17.288C31.3159 17.288 31.4746 17.358 31.6053 17.498C31.7453 17.638 31.8153 17.8013 31.8153 17.988C31.8153 18.1747 31.7453 18.3333 31.6053 18.464C31.4746 18.604 31.3159 18.674 31.1293 18.674ZM33.747 19.248L33.341 18.184C34.0223 17.96 34.587 17.7033 35.035 17.414C35.4923 17.1247 35.8517 16.8167 36.113 16.49C36.3837 16.1633 36.575 15.832 36.687 15.496C36.799 15.1507 36.855 14.8193 36.855 14.502C36.855 14.0447 36.7523 13.5827 36.547 13.116C36.351 12.64 36.1317 12.192 35.889 11.772L36.911 11.254C37.0883 11.5807 37.2423 11.9027 37.373 12.22C37.513 12.5373 37.6343 12.836 37.737 13.116C37.849 13.396 37.9377 13.6527 38.003 13.886C38.1337 14.2873 38.3017 14.5627 38.507 14.712C38.7217 14.852 39.011 14.922 39.375 14.922C39.571 14.922 39.711 14.978 39.795 15.09C39.8883 15.1927 39.935 15.3187 39.935 15.468C39.935 15.6173 39.8697 15.7573 39.739 15.888C39.6083 16.0093 39.4403 16.07 39.235 16.07C38.8243 16.07 38.4883 16 38.227 15.86C37.975 15.7107 37.7837 15.5193 37.653 15.286C37.5223 15.0433 37.4337 14.7913 37.387 14.53L37.835 14.782C37.835 15.398 37.695 15.958 37.415 16.462C37.1443 16.9753 36.7943 17.4187 36.365 17.792C35.9357 18.1747 35.4877 18.4873 35.021 18.73C34.5543 18.9727 34.1297 19.1453 33.747 19.248ZM39.5418 16.07L39.6818 14.922C40.2418 14.922 40.7691 14.8707 41.2638 14.768C41.7585 14.656 42.2111 14.5113 42.6218 14.334C43.0418 14.1473 43.4011 13.9373 43.6998 13.704C43.9985 13.4613 44.2271 13.214 44.3858 12.962C44.5538 12.7007 44.6378 12.444 44.6378 12.192C44.6378 12.0707 44.5958 11.9493 44.5118 11.828C44.4278 11.6973 44.2831 11.59 44.0778 11.506C43.8818 11.422 43.6158 11.38 43.2798 11.38C43.0745 11.38 42.8458 11.408 42.5938 11.464C42.3418 11.52 42.0991 11.5993 41.8658 11.702C41.6418 11.7953 41.4551 11.9027 41.3058 12.024C41.5578 12.2293 41.7911 12.43 42.0058 12.626C42.2298 12.822 42.4585 13.0367 42.6918 13.27C42.9251 13.494 43.1771 13.7507 43.4478 14.04C43.6625 14.1987 43.9005 14.334 44.1618 14.446C44.4325 14.558 44.7218 14.6513 45.0298 14.726C45.3471 14.7913 45.6691 14.8427 45.9958 14.88C46.3225 14.908 46.6491 14.922 46.9758 14.922C47.1718 14.922 47.3118 14.978 47.3958 15.09C47.4891 15.1927 47.5358 15.3187 47.5358 15.468C47.5358 15.6173 47.4705 15.7573 47.3398 15.888C47.2091 16.0093 47.0411 16.07 46.8358 16.07C46.3225 16.07 45.7951 16.0233 45.2538 15.93C44.7218 15.8273 44.2225 15.678 43.7558 15.482C43.2891 15.2767 42.8925 15.02 42.5658 14.712C42.4071 14.5067 42.2298 14.3013 42.0338 14.096C41.8378 13.8907 41.6231 13.6853 41.3898 13.48C41.1658 13.2653 40.9231 13.0647 40.6618 12.878C40.6058 12.8313 40.5498 12.7473 40.4938 12.626C40.4378 12.5047 40.3911 12.3787 40.3538 12.248C40.3165 12.1173 40.2978 12.0193 40.2978 11.954C40.2978 11.814 40.3865 11.646 40.5638 11.45C40.7411 11.254 40.9791 11.0673 41.2778 10.89C41.5765 10.7033 41.9171 10.5493 42.2998 10.428C42.6825 10.3067 43.0791 10.246 43.4898 10.246C44.0218 10.246 44.4511 10.3253 44.7778 10.484C45.1138 10.6427 45.3565 10.848 45.5058 11.1C45.6645 11.3427 45.7438 11.604 45.7438 11.884C45.7438 12.2947 45.6411 12.7053 45.4358 13.116C45.2305 13.5173 44.9365 13.8953 44.5538 14.25C44.1711 14.6047 43.7231 14.922 43.2098 15.202C42.6965 15.4727 42.1271 15.6873 41.5018 15.846C40.8858 15.9953 40.2325 16.07 39.5418 16.07ZM47.1426 16.07L47.2686 14.922C47.8006 14.922 48.1739 14.8707 48.3886 14.768C48.6032 14.6653 48.7246 14.4833 48.7526 14.222C48.7899 13.9607 48.7992 13.5967 48.7806 13.13L48.5146 6.004H49.6486L49.9286 13.004C49.9472 13.4987 49.9286 13.9373 49.8726 14.32C49.8259 14.7027 49.7046 15.0247 49.5086 15.286C49.3219 15.5473 49.0372 15.7433 48.6546 15.874C48.2812 16.0047 47.7772 16.07 47.1426 16.07ZM52.3673 16L52.0873 6.004H53.2213L53.5013 16H52.3673Z" fill="#C1C4CC"/>
</svg>
