<svg width="36" height="21" viewBox="0 0 36 21" fill="none" xmlns="http://www.w3.org/2000/svg">
<path fill-rule="evenodd" clip-rule="evenodd" d="M7.00008 15.8334C10.2217 15.8334 12.8334 13.2217 12.8334 10C12.8334 6.77836 10.2217 4.16669 7.00008 4.16669C3.77842 4.16669 1.16675 6.77836 1.16675 10C1.16675 13.2217 3.77842 15.8334 7.00008 15.8334Z" stroke="#D0D1D2" stroke-width="1.16667" stroke-linecap="round" stroke-linejoin="round"/>
<path d="M1.16675 10H12.8334" stroke="#D0D1D2" stroke-width="1.16667" stroke-linecap="round" stroke-linejoin="round"/>
<path fill-rule="evenodd" clip-rule="evenodd" d="M7.00008 4.16669C8.45916 5.76406 9.28835 7.83704 9.33341 10C9.28835 12.163 8.45916 14.236 7.00008 15.8334C5.541 14.236 4.71181 12.163 4.66675 10C4.71181 7.83704 5.541 5.76406 7.00008 4.16669V4.16669Z" stroke="#D0D1D2" stroke-width="1.16667" stroke-linecap="round" stroke-linejoin="round"/>
<path d="M18.6506 16H17.358L21.0966 5.81818H22.3693L26.108 16H24.8153L21.7727 7.42898H21.6932L18.6506 16ZM19.1278 12.0227H24.3381V13.1165H19.1278V12.0227ZM27.9939 16V5.81818H31.4342C32.2297 5.81818 32.8826 5.95407 33.393 6.22585C33.9035 6.49432 34.2813 6.86387 34.5266 7.33452C34.7718 7.80516 34.8945 8.34044 34.8945 8.94034C34.8945 9.54025 34.7718 10.0722 34.5266 10.5362C34.2813 11.0002 33.9051 11.3648 33.398 11.63C32.8909 11.8918 32.2429 12.0227 31.4541 12.0227H28.67V10.9091H31.4143C31.9579 10.9091 32.3954 10.8295 32.7268 10.6705C33.0616 10.5114 33.3036 10.286 33.4527 9.99432C33.6052 9.69934 33.6814 9.34801 33.6814 8.94034C33.6814 8.53267 33.6052 8.17637 33.4527 7.87145C33.3002 7.56652 33.0566 7.3312 32.7219 7.16548C32.3871 6.99645 31.9446 6.91193 31.3945 6.91193H29.2268V16H27.9939ZM32.7865 11.4261L35.2922 16H33.8604L31.3945 11.4261H32.7865Z" fill="#C1C4CC"/>
</svg>
