<svg width="190" height="34" viewBox="0 0 190 34" fill="none" xmlns="http://www.w3.org/2000/svg">
<rect x="1" y="1" width="188" height="32" rx="4" fill="#6663CF"/>
<rect x="1" y="1" width="188" height="32" rx="4" stroke="#6663CF" stroke-width="2"/>
<path d="M18.326 15.1477H16.5533C16.4851 14.7689 16.3582 14.4356 16.1726 14.1477C15.987 13.8598 15.7597 13.6155 15.4908 13.4148C15.2218 13.214 14.9207 13.0625 14.5874 12.9602C14.2578 12.858 13.9074 12.8068 13.5362 12.8068C12.8658 12.8068 12.2654 12.9754 11.7351 13.3125C11.2086 13.6496 10.7919 14.1439 10.4851 14.7955C10.1821 15.447 10.0305 16.2424 10.0305 17.1818C10.0305 18.1288 10.1821 18.928 10.4851 19.5795C10.7919 20.2311 11.2105 20.7235 11.7408 21.0568C12.2711 21.3902 12.8677 21.5568 13.5305 21.5568C13.898 21.5568 14.2464 21.5076 14.576 21.4091C14.9093 21.3068 15.2105 21.1572 15.4794 20.9602C15.7483 20.7633 15.9756 20.5227 16.1612 20.2386C16.3506 19.9508 16.4813 19.6212 16.5533 19.25L18.326 19.2557C18.2313 19.8277 18.0476 20.3542 17.7749 20.8352C17.5059 21.3125 17.1593 21.7254 16.7351 22.0739C16.3146 22.4186 15.8336 22.6856 15.2919 22.875C14.7502 23.0644 14.1593 23.1591 13.5192 23.1591C12.5116 23.1591 11.6139 22.9205 10.826 22.4432C10.0381 21.9621 9.4169 21.2746 8.96236 20.3807C8.5116 19.4867 8.28622 18.4205 8.28622 17.1818C8.28622 15.9394 8.51349 14.8731 8.96804 13.983C9.42259 13.089 10.0438 12.4034 10.8317 11.9261C11.6196 11.4451 12.5154 11.2045 13.5192 11.2045C14.1366 11.2045 14.7124 11.2936 15.2464 11.4716C15.7843 11.6458 16.2673 11.9034 16.6953 12.2443C17.1233 12.5814 17.4775 12.9943 17.7578 13.483C18.0381 13.9678 18.2275 14.5227 18.326 15.1477ZM23.9666 23.1761C23.1484 23.1761 22.4344 22.9886 21.8246 22.6136C21.2147 22.2386 20.7412 21.714 20.4041 21.0398C20.067 20.3655 19.8984 19.5777 19.8984 18.6761C19.8984 17.7708 20.067 16.9792 20.4041 16.3011C20.7412 15.6231 21.2147 15.0966 21.8246 14.7216C22.4344 14.3466 23.1484 14.1591 23.9666 14.1591C24.7848 14.1591 25.4988 14.3466 26.1087 14.7216C26.7185 15.0966 27.192 15.6231 27.5291 16.3011C27.8662 16.9792 28.0348 17.7708 28.0348 18.6761C28.0348 19.5777 27.8662 20.3655 27.5291 21.0398C27.192 21.714 26.7185 22.2386 26.1087 22.6136C25.4988 22.9886 24.7848 23.1761 23.9666 23.1761ZM23.9723 21.75C24.5026 21.75 24.942 21.6098 25.2905 21.3295C25.639 21.0492 25.8965 20.6761 26.0632 20.2102C26.2337 19.7443 26.3189 19.2311 26.3189 18.6705C26.3189 18.1136 26.2337 17.6023 26.0632 17.1364C25.8965 16.6667 25.639 16.2898 25.2905 16.0057C24.942 15.7216 24.5026 15.5795 23.9723 15.5795C23.4382 15.5795 22.995 15.7216 22.6428 16.0057C22.2943 16.2898 22.0348 16.6667 21.8643 17.1364C21.6977 17.6023 21.6143 18.1136 21.6143 18.6705C21.6143 19.2311 21.6977 19.7443 21.8643 20.2102C22.0348 20.6761 22.2943 21.0492 22.6428 21.3295C22.995 21.6098 23.4382 21.75 23.9723 21.75ZM30.9283 14.2727L32.8544 17.6705L34.7976 14.2727H36.6555L33.9339 18.6364L36.6783 23H34.8203L32.8544 19.7386L30.8942 23H29.0305L31.7464 18.6364L29.0646 14.2727H30.9283ZM38.3999 26.2727V14.2727H40.0589V15.6875H40.201C40.2995 15.5057 40.4415 15.2955 40.6271 15.0568C40.8127 14.8182 41.0703 14.6098 41.3999 14.4318C41.7294 14.25 42.165 14.1591 42.7067 14.1591C43.4112 14.1591 44.04 14.3371 44.593 14.6932C45.1461 15.0492 45.5798 15.5625 45.8942 16.233C46.2124 16.9034 46.3714 17.7102 46.3714 18.6534C46.3714 19.5966 46.2143 20.4053 45.8999 21.0795C45.5855 21.75 45.1536 22.267 44.6044 22.6307C44.0552 22.9905 43.4283 23.1705 42.7237 23.1705C42.1934 23.1705 41.7597 23.0814 41.4226 22.9034C41.0893 22.7254 40.8279 22.517 40.6385 22.2784C40.4491 22.0398 40.3033 21.8277 40.201 21.642H40.0987V26.2727H38.3999ZM40.0646 18.6364C40.0646 19.25 40.1536 19.7879 40.3317 20.25C40.5097 20.7121 40.7673 21.0739 41.1044 21.3352C41.4415 21.5928 41.8544 21.7216 42.343 21.7216C42.8506 21.7216 43.2749 21.5871 43.6158 21.3182C43.9567 21.0455 44.2143 20.6761 44.3885 20.2102C44.5665 19.7443 44.6555 19.2197 44.6555 18.6364C44.6555 18.0606 44.5684 17.5436 44.3942 17.0852C44.2237 16.6269 43.9661 16.2652 43.6214 16C43.2805 15.7348 42.8544 15.6023 42.343 15.6023C41.8506 15.6023 41.4339 15.7292 41.093 15.983C40.7559 16.2367 40.5002 16.5909 40.326 17.0455C40.1518 17.5 40.0646 18.0303 40.0646 18.6364ZM50.8146 23.1932C50.2616 23.1932 49.7616 23.0909 49.3146 22.8864C48.8677 22.678 48.5135 22.3769 48.2521 21.983C47.9946 21.589 47.8658 21.1061 47.8658 20.5341C47.8658 20.0417 47.9605 19.6364 48.1499 19.3182C48.3393 19 48.5949 18.7481 48.9169 18.5625C49.2389 18.3769 49.5987 18.2367 49.9964 18.142C50.3942 18.0473 50.7995 17.9754 51.2124 17.9261C51.7351 17.8655 52.1593 17.8163 52.4851 17.7784C52.8108 17.7367 53.0476 17.6705 53.1953 17.5795C53.343 17.4886 53.4169 17.3409 53.4169 17.1364V17.0966C53.4169 16.6004 53.2768 16.2159 52.9964 15.9432C52.7199 15.6705 52.3071 15.5341 51.7578 15.5341C51.1858 15.5341 50.7351 15.661 50.4055 15.9148C50.0798 16.1648 49.8544 16.4432 49.7294 16.75L48.1328 16.3864C48.3222 15.8561 48.5987 15.428 48.9624 15.1023C49.3298 14.7727 49.7521 14.5341 50.2294 14.3864C50.7067 14.2348 51.2086 14.1591 51.7351 14.1591C52.0836 14.1591 52.4529 14.2008 52.843 14.2841C53.237 14.3636 53.6044 14.5114 53.9453 14.7273C54.29 14.9432 54.5722 15.2519 54.7919 15.6534C55.0116 16.0511 55.1214 16.5682 55.1214 17.2045V23H53.4624V21.8068H53.3942C53.2843 22.0265 53.1196 22.2424 52.8999 22.4545C52.6802 22.6667 52.398 22.8428 52.0533 22.983C51.7086 23.1231 51.2957 23.1932 50.8146 23.1932ZM51.1839 21.8295C51.6536 21.8295 52.0552 21.7367 52.3885 21.5511C52.7256 21.3655 52.9813 21.1231 53.1555 20.8239C53.3336 20.5208 53.4226 20.197 53.4226 19.8523V18.7273C53.362 18.7879 53.2446 18.8447 53.0703 18.8977C52.8999 18.947 52.7048 18.9905 52.4851 19.0284C52.2654 19.0625 52.0514 19.0947 51.843 19.125C51.6347 19.1515 51.4605 19.1742 51.3203 19.1932C50.9908 19.2348 50.6896 19.3049 50.4169 19.4034C50.148 19.5019 49.9321 19.6439 49.7692 19.8295C49.6101 20.0114 49.5305 20.2538 49.5305 20.5568C49.5305 20.9773 49.6858 21.2955 49.9964 21.5114C50.3071 21.7235 50.7029 21.8295 51.1839 21.8295ZM63.299 17.9034V19.375H58.5717V17.9034H63.299ZM59.049 14.2727V23H57.3842V14.2727H59.049ZM64.4865 14.2727V23H62.8274V14.2727H64.4865ZM68.424 20.6193L72.2706 14.2727H74.1001V23H72.4354V16.6477L68.6058 23H66.7592V14.2727H68.424V20.6193ZM75.3018 15.7386V14.2727H82.6655V15.7386H79.8189V23H78.1598V15.7386H75.3018ZM85.7408 17.2727H88.2749C89.343 17.2727 90.165 17.5379 90.7408 18.0682C91.3165 18.5985 91.6044 19.2822 91.6044 20.1193C91.6044 20.6648 91.4756 21.1553 91.218 21.5909C90.9605 22.0265 90.5836 22.3712 90.0874 22.625C89.5911 22.875 88.987 23 88.2749 23H84.4624V14.2727H86.1271V21.5341H88.2749C88.7635 21.5341 89.165 21.4072 89.4794 21.1534C89.7938 20.8958 89.951 20.5682 89.951 20.1705C89.951 19.75 89.7938 19.4072 89.4794 19.142C89.165 18.8731 88.7635 18.7386 88.2749 18.7386H85.7408V17.2727ZM99.4084 20.6193L103.255 14.2727H105.085V23H103.42V16.6477L99.5902 23H97.7436V14.2727H99.4084V20.6193ZM106.852 20.6932H108.59C108.613 21.0492 108.774 21.3239 109.073 21.517C109.376 21.7102 109.768 21.8068 110.249 21.8068C110.738 21.8068 111.155 21.7027 111.499 21.4943C111.844 21.2822 112.016 20.9545 112.016 20.5114C112.016 20.2462 111.95 20.0152 111.817 19.8182C111.689 19.6174 111.505 19.4621 111.266 19.3523C111.031 19.2424 110.753 19.1875 110.431 19.1875H109.011V17.8523H110.431C110.912 17.8523 111.272 17.7424 111.511 17.5227C111.749 17.303 111.869 17.0284 111.869 16.6989C111.869 16.3428 111.74 16.0568 111.482 15.8409C111.228 15.6212 110.874 15.5114 110.42 15.5114C109.958 15.5114 109.573 15.6155 109.266 15.8239C108.96 16.0284 108.799 16.2936 108.783 16.6193H107.067C107.079 16.1307 107.227 15.7027 107.511 15.3352C107.799 14.964 108.185 14.6761 108.67 14.4716C109.158 14.2633 109.713 14.1591 110.335 14.1591C110.982 14.1591 111.543 14.2633 112.016 14.4716C112.49 14.6799 112.855 14.9678 113.113 15.3352C113.374 15.7027 113.505 16.125 113.505 16.6023C113.505 17.0833 113.361 17.4773 113.073 17.7841C112.789 18.0871 112.418 18.3049 111.96 18.4375V18.5284C112.297 18.5511 112.596 18.6534 112.857 18.8352C113.119 19.017 113.323 19.2576 113.471 19.5568C113.619 19.8561 113.692 20.1951 113.692 20.5739C113.692 21.108 113.545 21.5701 113.249 21.9602C112.958 22.3504 112.552 22.6515 112.033 22.8636C111.518 23.072 110.929 23.1761 110.266 23.1761C109.622 23.1761 109.045 23.0758 108.533 22.875C108.026 22.6705 107.622 22.3826 107.323 22.0114C107.028 21.6402 106.871 21.2008 106.852 20.6932ZM120.344 20.8977L123.163 14.2727H124.629L120.975 23H119.714L116.134 14.2727H117.583L120.344 20.8977ZM117.112 14.2727V23H115.447V14.2727H117.112ZM123.623 23V14.2727H125.276V23H123.623ZM131.302 23.1761C130.442 23.1761 129.701 22.9924 129.08 22.625C128.463 22.2538 127.986 21.733 127.648 21.0625C127.315 20.3883 127.148 19.5985 127.148 18.6932C127.148 17.7992 127.315 17.0114 127.648 16.3295C127.986 15.6477 128.455 15.1155 129.058 14.733C129.664 14.3504 130.372 14.1591 131.183 14.1591C131.675 14.1591 132.152 14.2405 132.614 14.4034C133.076 14.5663 133.491 14.822 133.859 15.1705C134.226 15.5189 134.516 15.9716 134.728 16.5284C134.94 17.0814 135.046 17.7538 135.046 18.5455V19.1477H128.109V17.875H133.381C133.381 17.428 133.29 17.0322 133.109 16.6875C132.927 16.339 132.671 16.0644 132.342 15.8636C132.016 15.6629 131.633 15.5625 131.194 15.5625C130.717 15.5625 130.3 15.6799 129.944 15.9148C129.592 16.1458 129.319 16.4489 129.126 16.8239C128.936 17.1951 128.842 17.5985 128.842 18.0341V19.0284C128.842 19.6117 128.944 20.108 129.148 20.517C129.357 20.9261 129.647 21.2386 130.018 21.4545C130.389 21.6667 130.823 21.7727 131.319 21.7727C131.641 21.7727 131.934 21.7273 132.2 21.6364C132.465 21.5417 132.694 21.4015 132.887 21.2159C133.08 21.0303 133.228 20.8011 133.33 20.5284L134.938 20.8182C134.809 21.2917 134.578 21.7064 134.245 22.0625C133.915 22.4148 133.501 22.6894 133.001 22.8864C132.504 23.0795 131.938 23.1761 131.302 23.1761ZM142.846 17.9034V19.375H138.119V17.9034H142.846ZM138.596 14.2727V23H136.931V14.2727H138.596ZM144.033 14.2727V23H142.374V14.2727H144.033ZM150.067 23.1761C149.208 23.1761 148.467 22.9924 147.846 22.625C147.228 22.2538 146.751 21.733 146.414 21.0625C146.081 20.3883 145.914 19.5985 145.914 18.6932C145.914 17.7992 146.081 17.0114 146.414 16.3295C146.751 15.6477 147.221 15.1155 147.823 14.733C148.429 14.3504 149.138 14.1591 149.948 14.1591C150.441 14.1591 150.918 14.2405 151.38 14.4034C151.842 14.5663 152.257 14.822 152.624 15.1705C152.992 15.5189 153.281 15.9716 153.494 16.5284C153.706 17.0814 153.812 17.7538 153.812 18.5455V19.1477H146.874V17.875H152.147C152.147 17.428 152.056 17.0322 151.874 16.6875C151.692 16.339 151.437 16.0644 151.107 15.8636C150.781 15.6629 150.399 15.5625 149.96 15.5625C149.482 15.5625 149.066 15.6799 148.71 15.9148C148.357 16.1458 148.085 16.4489 147.891 16.8239C147.702 17.1951 147.607 17.5985 147.607 18.0341V19.0284C147.607 19.6117 147.71 20.108 147.914 20.517C148.122 20.9261 148.412 21.2386 148.783 21.4545C149.155 21.6667 149.588 21.7727 150.085 21.7727C150.406 21.7727 150.7 21.7273 150.965 21.6364C151.23 21.5417 151.46 21.4015 151.653 21.2159C151.846 21.0303 151.994 20.8011 152.096 20.5284L153.704 20.8182C153.575 21.2917 153.344 21.7064 153.011 22.0625C152.681 22.4148 152.266 22.6894 151.766 22.8864C151.27 23.0795 150.704 23.1761 150.067 23.1761ZM161.612 17.9034V19.375H156.884V17.9034H161.612ZM157.362 14.2727V23H155.697V14.2727H157.362ZM162.799 14.2727V23H161.14V14.2727H162.799ZM166.737 20.6193L170.583 14.2727H172.413V23H170.748V16.6477L166.918 23H165.072V14.2727H166.737V20.6193ZM179.901 23V15.7216H177.81C177.314 15.7216 176.928 15.8371 176.651 16.0682C176.375 16.2992 176.237 16.6023 176.237 16.9773C176.237 17.3485 176.363 17.6477 176.617 17.875C176.875 18.0985 177.235 18.2102 177.697 18.2102H180.396V19.5852H177.697C177.053 19.5852 176.496 19.4792 176.026 19.267C175.56 19.0511 175.201 18.7462 174.947 18.3523C174.697 17.9583 174.572 17.4924 174.572 16.9545C174.572 16.4053 174.701 15.9318 174.958 15.5341C175.219 15.1326 175.593 14.822 176.077 14.6023C176.566 14.3826 177.144 14.2727 177.81 14.2727H181.498V23H179.901ZM174.174 23L176.634 18.5909H178.373L175.913 23H174.174Z" fill="white"/>
</svg>
