<svg width="190" height="34" viewBox="0 0 190 34" fill="none" xmlns="http://www.w3.org/2000/svg">
<rect x="1" y="1" width="188" height="32" rx="4" stroke="#6663CF" stroke-width="2"/>
<path d="M18.326 14.3785H16.5533C16.4851 13.9997 16.3582 13.6664 16.1726 13.3785C15.987 13.0906 15.7597 12.8463 15.4908 12.6455C15.2218 12.4448 14.9207 12.2933 14.5874 12.191C14.2578 12.0887 13.9074 12.0376 13.5362 12.0376C12.8658 12.0376 12.2654 12.2062 11.7351 12.5433C11.2086 12.8804 10.7919 13.3747 10.4851 14.0262C10.1821 14.6777 10.0305 15.4732 10.0305 16.4126C10.0305 17.3596 10.1821 18.1588 10.4851 18.8103C10.7919 19.4618 11.2105 19.9543 11.7408 20.2876C12.2711 20.6209 12.8677 20.7876 13.5305 20.7876C13.898 20.7876 14.2464 20.7383 14.576 20.6399C14.9093 20.5376 15.2105 20.388 15.4794 20.191C15.7483 19.994 15.9756 19.7535 16.1612 19.4694C16.3506 19.1815 16.4813 18.852 16.5533 18.4808L18.326 18.4865C18.2313 19.0584 18.0476 19.5849 17.7749 20.066C17.5059 20.5433 17.1593 20.9562 16.7351 21.3046C16.3146 21.6493 15.8336 21.9164 15.2919 22.1058C14.7502 22.2952 14.1593 22.3899 13.5192 22.3899C12.5116 22.3899 11.6139 22.1512 10.826 21.674C10.0381 21.1929 9.4169 20.5054 8.96236 19.6115C8.5116 18.7175 8.28622 17.6512 8.28622 16.4126C8.28622 15.1702 8.51349 14.1039 8.96804 13.2137C9.42259 12.3198 10.0438 11.6342 10.8317 11.1569C11.6196 10.6758 12.5154 10.4353 13.5192 10.4353C14.1366 10.4353 14.7124 10.5243 15.2464 10.7024C15.7843 10.8766 16.2673 11.1342 16.6953 11.4751C17.1233 11.8122 17.4775 12.2251 17.7578 12.7137C18.0381 13.1986 18.2275 13.7535 18.326 14.3785ZM23.9666 22.4069C23.1484 22.4069 22.4344 22.2194 21.8246 21.8444C21.2147 21.4694 20.7412 20.9448 20.4041 20.2705C20.067 19.5963 19.8984 18.8084 19.8984 17.9069C19.8984 17.0016 20.067 16.2099 20.4041 15.5319C20.7412 14.8539 21.2147 14.3274 21.8246 13.9524C22.4344 13.5774 23.1484 13.3899 23.9666 13.3899C24.7848 13.3899 25.4988 13.5774 26.1087 13.9524C26.7185 14.3274 27.192 14.8539 27.5291 15.5319C27.8662 16.2099 28.0348 17.0016 28.0348 17.9069C28.0348 18.8084 27.8662 19.5963 27.5291 20.2705C27.192 20.9448 26.7185 21.4694 26.1087 21.8444C25.4988 22.2194 24.7848 22.4069 23.9666 22.4069ZM23.9723 20.9808C24.5026 20.9808 24.942 20.8406 25.2905 20.5603C25.639 20.28 25.8965 19.9069 26.0632 19.441C26.2337 18.9751 26.3189 18.4618 26.3189 17.9012C26.3189 17.3444 26.2337 16.833 26.0632 16.3671C25.8965 15.8974 25.639 15.5205 25.2905 15.2365C24.942 14.9524 24.5026 14.8103 23.9723 14.8103C23.4382 14.8103 22.995 14.9524 22.6428 15.2365C22.2943 15.5205 22.0348 15.8974 21.8643 16.3671C21.6977 16.833 21.6143 17.3444 21.6143 17.9012C21.6143 18.4618 21.6977 18.9751 21.8643 19.441C22.0348 19.9069 22.2943 20.28 22.6428 20.5603C22.995 20.8406 23.4382 20.9808 23.9723 20.9808ZM30.9283 13.5035L32.8544 16.9012L34.7976 13.5035H36.6555L33.9339 17.8671L36.6783 22.2308H34.8203L32.8544 18.9694L30.8942 22.2308H29.0305L31.7464 17.8671L29.0646 13.5035H30.9283ZM38.3999 25.5035V13.5035H40.0589V14.9183H40.201C40.2995 14.7365 40.4415 14.5262 40.6271 14.2876C40.8127 14.049 41.0703 13.8406 41.3999 13.6626C41.7294 13.4808 42.165 13.3899 42.7067 13.3899C43.4112 13.3899 44.04 13.5679 44.593 13.924C45.1461 14.28 45.5798 14.7933 45.8942 15.4637C46.2124 16.1342 46.3714 16.941 46.3714 17.8842C46.3714 18.8274 46.2143 19.6361 45.8999 20.3103C45.5855 20.9808 45.1536 21.4978 44.6044 21.8615C44.0552 22.2213 43.4283 22.4012 42.7237 22.4012C42.1934 22.4012 41.7597 22.3122 41.4226 22.1342C41.0893 21.9562 40.8279 21.7478 40.6385 21.5092C40.4491 21.2705 40.3033 21.0584 40.201 20.8728H40.0987V25.5035H38.3999ZM40.0646 17.8671C40.0646 18.4808 40.1536 19.0187 40.3317 19.4808C40.5097 19.9429 40.7673 20.3046 41.1044 20.566C41.4415 20.8236 41.8544 20.9524 42.343 20.9524C42.8506 20.9524 43.2749 20.8179 43.6158 20.549C43.9567 20.2762 44.2143 19.9069 44.3885 19.441C44.5665 18.9751 44.6555 18.4505 44.6555 17.8671C44.6555 17.2914 44.5684 16.7743 44.3942 16.316C44.2237 15.8577 43.9661 15.4959 43.6214 15.2308C43.2805 14.9656 42.8544 14.833 42.343 14.833C41.8506 14.833 41.4339 14.9599 41.093 15.2137C40.7559 15.4675 40.5002 15.8217 40.326 16.2762C40.1518 16.7308 40.0646 17.2611 40.0646 17.8671ZM50.8146 22.424C50.2616 22.424 49.7616 22.3217 49.3146 22.1171C48.8677 21.9088 48.5135 21.6077 48.2521 21.2137C47.9946 20.8198 47.8658 20.3368 47.8658 19.7649C47.8658 19.2724 47.9605 18.8671 48.1499 18.549C48.3393 18.2308 48.5949 17.9789 48.9169 17.7933C49.2389 17.6077 49.5987 17.4675 49.9964 17.3728C50.3942 17.2781 50.7995 17.2062 51.2124 17.1569C51.7351 17.0963 52.1593 17.0471 52.4851 17.0092C52.8108 16.9675 53.0476 16.9012 53.1953 16.8103C53.343 16.7194 53.4169 16.5717 53.4169 16.3671V16.3274C53.4169 15.8312 53.2768 15.4467 52.9964 15.174C52.7199 14.9012 52.3071 14.7649 51.7578 14.7649C51.1858 14.7649 50.7351 14.8918 50.4055 15.1455C50.0798 15.3955 49.8544 15.674 49.7294 15.9808L48.1328 15.6171C48.3222 15.0868 48.5987 14.6588 48.9624 14.333C49.3298 14.0035 49.7521 13.7649 50.2294 13.6171C50.7067 13.4656 51.2086 13.3899 51.7351 13.3899C52.0836 13.3899 52.4529 13.4315 52.843 13.5149C53.237 13.5944 53.6044 13.7421 53.9453 13.958C54.29 14.174 54.5722 14.4827 54.7919 14.8842C55.0116 15.2819 55.1214 15.799 55.1214 16.4353V22.2308H53.4624V21.0376H53.3942C53.2843 21.2573 53.1196 21.4732 52.8999 21.6853C52.6802 21.8974 52.398 22.0736 52.0533 22.2137C51.7086 22.3539 51.2957 22.424 50.8146 22.424ZM51.1839 21.0603C51.6536 21.0603 52.0552 20.9675 52.3885 20.7819C52.7256 20.5963 52.9813 20.3539 53.1555 20.0546C53.3336 19.7516 53.4226 19.4277 53.4226 19.083V17.958C53.362 18.0187 53.2446 18.0755 53.0703 18.1285C52.8999 18.1777 52.7048 18.2213 52.4851 18.2592C52.2654 18.2933 52.0514 18.3255 51.843 18.3558C51.6347 18.3823 51.4605 18.405 51.3203 18.424C50.9908 18.4656 50.6896 18.5357 50.4169 18.6342C50.148 18.7327 49.9321 18.8747 49.7692 19.0603C49.6101 19.2421 49.5305 19.4846 49.5305 19.7876C49.5305 20.208 49.6858 20.5262 49.9964 20.7421C50.3071 20.9543 50.7029 21.0603 51.1839 21.0603ZM63.299 17.1342V18.6058H58.5717V17.1342H63.299ZM59.049 13.5035V22.2308H57.3842V13.5035H59.049ZM64.4865 13.5035V22.2308H62.8274V13.5035H64.4865ZM68.424 19.8501L72.2706 13.5035H74.1001V22.2308H72.4354V15.8785L68.6058 22.2308H66.7592V13.5035H68.424V19.8501ZM75.3018 14.9694V13.5035H82.6655V14.9694H79.8189V22.2308H78.1598V14.9694H75.3018ZM85.7408 16.5035H88.2749C89.343 16.5035 90.165 16.7687 90.7408 17.299C91.3165 17.8293 91.6044 18.513 91.6044 19.3501C91.6044 19.8955 91.4756 20.3861 91.218 20.8217C90.9605 21.2573 90.5836 21.602 90.0874 21.8558C89.5911 22.1058 88.987 22.2308 88.2749 22.2308H84.4624V13.5035H86.1271V20.7649H88.2749C88.7635 20.7649 89.165 20.638 89.4794 20.3842C89.7938 20.1266 89.951 19.799 89.951 19.4012C89.951 18.9808 89.7938 18.638 89.4794 18.3728C89.165 18.1039 88.7635 17.9694 88.2749 17.9694H85.7408V16.5035ZM99.4084 19.8501L103.255 13.5035H105.085V22.2308H103.42V15.8785L99.5902 22.2308H97.7436V13.5035H99.4084V19.8501ZM106.852 19.924H108.59C108.613 20.28 108.774 20.5546 109.073 20.7478C109.376 20.941 109.768 21.0376 110.249 21.0376C110.738 21.0376 111.155 20.9334 111.499 20.7251C111.844 20.513 112.016 20.1853 112.016 19.7421C112.016 19.477 111.95 19.2459 111.817 19.049C111.689 18.8482 111.505 18.6929 111.266 18.583C111.031 18.4732 110.753 18.4183 110.431 18.4183H109.011V17.083H110.431C110.912 17.083 111.272 16.9732 111.511 16.7535C111.749 16.5338 111.869 16.2592 111.869 15.9296C111.869 15.5736 111.74 15.2876 111.482 15.0717C111.228 14.852 110.874 14.7421 110.42 14.7421C109.958 14.7421 109.573 14.8463 109.266 15.0546C108.96 15.2592 108.799 15.5243 108.783 15.8501H107.067C107.079 15.3615 107.227 14.9334 107.511 14.566C107.799 14.1948 108.185 13.9069 108.67 13.7024C109.158 13.494 109.713 13.3899 110.335 13.3899C110.982 13.3899 111.543 13.494 112.016 13.7024C112.49 13.9107 112.855 14.1986 113.113 14.566C113.374 14.9334 113.505 15.3558 113.505 15.833C113.505 16.3141 113.361 16.708 113.073 17.0149C112.789 17.3179 112.418 17.5357 111.96 17.6683V17.7592C112.297 17.7819 112.596 17.8842 112.857 18.066C113.119 18.2478 113.323 18.4883 113.471 18.7876C113.619 19.0868 113.692 19.4258 113.692 19.8046C113.692 20.3387 113.545 20.8008 113.249 21.191C112.958 21.5812 112.552 21.8823 112.033 22.0944C111.518 22.3027 110.929 22.4069 110.266 22.4069C109.622 22.4069 109.045 22.3065 108.533 22.1058C108.026 21.9012 107.622 21.6133 107.323 21.2421C107.028 20.8709 106.871 20.4315 106.852 19.924ZM120.344 20.1285L123.163 13.5035H124.629L120.975 22.2308H119.714L116.134 13.5035H117.583L120.344 20.1285ZM117.112 13.5035V22.2308H115.447V13.5035H117.112ZM123.623 22.2308V13.5035H125.276V22.2308H123.623ZM131.302 22.4069C130.442 22.4069 129.701 22.2232 129.08 21.8558C128.463 21.4846 127.986 20.9637 127.648 20.2933C127.315 19.619 127.148 18.8293 127.148 17.924C127.148 17.03 127.315 16.2421 127.648 15.5603C127.986 14.8785 128.455 14.3463 129.058 13.9637C129.664 13.5812 130.372 13.3899 131.183 13.3899C131.675 13.3899 132.152 13.4713 132.614 13.6342C133.076 13.7971 133.491 14.0527 133.859 14.4012C134.226 14.7497 134.516 15.2024 134.728 15.7592C134.94 16.3122 135.046 16.9846 135.046 17.7762V18.3785H128.109V17.1058H133.381C133.381 16.6588 133.29 16.263 133.109 15.9183C132.927 15.5698 132.671 15.2952 132.342 15.0944C132.016 14.8937 131.633 14.7933 131.194 14.7933C130.717 14.7933 130.3 14.9107 129.944 15.1455C129.592 15.3766 129.319 15.6796 129.126 16.0546C128.936 16.4258 128.842 16.8293 128.842 17.2649V18.2592C128.842 18.8425 128.944 19.3387 129.148 19.7478C129.357 20.1569 129.647 20.4694 130.018 20.6853C130.389 20.8974 130.823 21.0035 131.319 21.0035C131.641 21.0035 131.934 20.958 132.2 20.8671C132.465 20.7724 132.694 20.6323 132.887 20.4467C133.08 20.2611 133.228 20.0319 133.33 19.7592L134.938 20.049C134.809 20.5224 134.578 20.9372 134.245 21.2933C133.915 21.6455 133.501 21.9202 133.001 22.1171C132.504 22.3103 131.938 22.4069 131.302 22.4069ZM142.846 17.1342V18.6058H138.119V17.1342H142.846ZM138.596 13.5035V22.2308H136.931V13.5035H138.596ZM144.033 13.5035V22.2308H142.374V13.5035H144.033ZM150.067 22.4069C149.208 22.4069 148.467 22.2232 147.846 21.8558C147.228 21.4846 146.751 20.9637 146.414 20.2933C146.081 19.619 145.914 18.8293 145.914 17.924C145.914 17.03 146.081 16.2421 146.414 15.5603C146.751 14.8785 147.221 14.3463 147.823 13.9637C148.429 13.5812 149.138 13.3899 149.948 13.3899C150.441 13.3899 150.918 13.4713 151.38 13.6342C151.842 13.7971 152.257 14.0527 152.624 14.4012C152.992 14.7497 153.281 15.2024 153.494 15.7592C153.706 16.3122 153.812 16.9846 153.812 17.7762V18.3785H146.874V17.1058H152.147C152.147 16.6588 152.056 16.263 151.874 15.9183C151.692 15.5698 151.437 15.2952 151.107 15.0944C150.781 14.8937 150.399 14.7933 149.96 14.7933C149.482 14.7933 149.066 14.9107 148.71 15.1455C148.357 15.3766 148.085 15.6796 147.891 16.0546C147.702 16.4258 147.607 16.8293 147.607 17.2649V18.2592C147.607 18.8425 147.71 19.3387 147.914 19.7478C148.122 20.1569 148.412 20.4694 148.783 20.6853C149.155 20.8974 149.588 21.0035 150.085 21.0035C150.406 21.0035 150.7 20.958 150.965 20.8671C151.23 20.7724 151.46 20.6323 151.653 20.4467C151.846 20.2611 151.994 20.0319 152.096 19.7592L153.704 20.049C153.575 20.5224 153.344 20.9372 153.011 21.2933C152.681 21.6455 152.266 21.9202 151.766 22.1171C151.27 22.3103 150.704 22.4069 150.067 22.4069ZM161.612 17.1342V18.6058H156.884V17.1342H161.612ZM157.362 13.5035V22.2308H155.697V13.5035H157.362ZM162.799 13.5035V22.2308H161.14V13.5035H162.799ZM166.737 19.8501L170.583 13.5035H172.413V22.2308H170.748V15.8785L166.918 22.2308H165.072V13.5035H166.737V19.8501ZM179.901 22.2308V14.9524H177.81C177.314 14.9524 176.928 15.0679 176.651 15.299C176.375 15.53 176.237 15.833 176.237 16.208C176.237 16.5793 176.363 16.8785 176.617 17.1058C176.875 17.3293 177.235 17.441 177.697 17.441H180.396V18.816H177.697C177.053 18.816 176.496 18.7099 176.026 18.4978C175.56 18.2819 175.201 17.977 174.947 17.583C174.697 17.1891 174.572 16.7232 174.572 16.1853C174.572 15.6361 174.701 15.1626 174.958 14.7649C175.219 14.3633 175.593 14.0527 176.077 13.833C176.566 13.6133 177.144 13.5035 177.81 13.5035H181.498V22.2308H179.901ZM174.174 22.2308L176.634 17.8217H178.373L175.913 22.2308H174.174Z" fill="#4B5563"/>
</svg>
