<svg width="188" height="39" viewBox="0 0 188 39" fill="none" xmlns="http://www.w3.org/2000/svg">
<rect x="1" y="1" width="186" height="37" rx="4" stroke="#6663CF" stroke-width="2"/>
<path d="M17.326 15.1477H15.5533C15.4851 14.7689 15.3582 14.4356 15.1726 14.1477C14.987 13.8598 14.7597 13.6155 14.4908 13.4148C14.2218 13.214 13.9207 13.0625 13.5874 12.9602C13.2578 12.858 12.9074 12.8068 12.5362 12.8068C11.8658 12.8068 11.2654 12.9754 10.7351 13.3125C10.2086 13.6496 9.7919 14.1439 9.48509 14.7955C9.18205 15.447 9.03054 16.2424 9.03054 17.1818C9.03054 18.1288 9.18205 18.928 9.48509 19.5795C9.7919 20.2311 10.2105 20.7235 10.7408 21.0568C11.2711 21.3902 11.8677 21.5568 12.5305 21.5568C12.898 21.5568 13.2464 21.5076 13.576 21.4091C13.9093 21.3068 14.2105 21.1572 14.4794 20.9602C14.7483 20.7633 14.9756 20.5227 15.1612 20.2386C15.3506 19.9508 15.4813 19.6212 15.5533 19.25L17.326 19.2557C17.2313 19.8277 17.0476 20.3542 16.7749 20.8352C16.5059 21.3125 16.1593 21.7254 15.7351 22.0739C15.3146 22.4186 14.8336 22.6856 14.2919 22.875C13.7502 23.0644 13.1593 23.1591 12.5192 23.1591C11.5116 23.1591 10.6139 22.9205 9.82599 22.4432C9.03812 21.9621 8.4169 21.2746 7.96236 20.3807C7.5116 19.4867 7.28622 18.4205 7.28622 17.1818C7.28622 15.9394 7.51349 14.8731 7.96804 13.983C8.42259 13.089 9.0438 12.4034 9.83168 11.9261C10.6196 11.4451 11.5154 11.2045 12.5192 11.2045C13.1366 11.2045 13.7124 11.2936 14.2464 11.4716C14.7843 11.6458 15.2673 11.9034 15.6953 12.2443C16.1233 12.5814 16.4775 12.9943 16.7578 13.483C17.0381 13.9678 17.2275 14.5227 17.326 15.1477ZM22.9666 23.1761C22.1484 23.1761 21.4344 22.9886 20.8246 22.6136C20.2147 22.2386 19.7412 21.714 19.4041 21.0398C19.067 20.3655 18.8984 19.5777 18.8984 18.6761C18.8984 17.7708 19.067 16.9792 19.4041 16.3011C19.7412 15.6231 20.2147 15.0966 20.8246 14.7216C21.4344 14.3466 22.1484 14.1591 22.9666 14.1591C23.7848 14.1591 24.4988 14.3466 25.1087 14.7216C25.7185 15.0966 26.192 15.6231 26.5291 16.3011C26.8662 16.9792 27.0348 17.7708 27.0348 18.6761C27.0348 19.5777 26.8662 20.3655 26.5291 21.0398C26.192 21.714 25.7185 22.2386 25.1087 22.6136C24.4988 22.9886 23.7848 23.1761 22.9666 23.1761ZM22.9723 21.75C23.5026 21.75 23.942 21.6098 24.2905 21.3295C24.639 21.0492 24.8965 20.6761 25.0632 20.2102C25.2337 19.7443 25.3189 19.2311 25.3189 18.6705C25.3189 18.1136 25.2337 17.6023 25.0632 17.1364C24.8965 16.6667 24.639 16.2898 24.2905 16.0057C23.942 15.7216 23.5026 15.5795 22.9723 15.5795C22.4382 15.5795 21.995 15.7216 21.6428 16.0057C21.2943 16.2898 21.0348 16.6667 20.8643 17.1364C20.6977 17.6023 20.6143 18.1136 20.6143 18.6705C20.6143 19.2311 20.6977 19.7443 20.8643 20.2102C21.0348 20.6761 21.2943 21.0492 21.6428 21.3295C21.995 21.6098 22.4382 21.75 22.9723 21.75ZM29.9283 14.2727L31.8544 17.6705L33.7976 14.2727H35.6555L32.9339 18.6364L35.6783 23H33.8203L31.8544 19.7386L29.8942 23H28.0305L30.7464 18.6364L28.0646 14.2727H29.9283ZM37.3999 26.2727V14.2727H39.0589V15.6875H39.201C39.2995 15.5057 39.4415 15.2955 39.6271 15.0568C39.8127 14.8182 40.0703 14.6098 40.3999 14.4318C40.7294 14.25 41.165 14.1591 41.7067 14.1591C42.4112 14.1591 43.04 14.3371 43.593 14.6932C44.1461 15.0492 44.5798 15.5625 44.8942 16.233C45.2124 16.9034 45.3714 17.7102 45.3714 18.6534C45.3714 19.5966 45.2143 20.4053 44.8999 21.0795C44.5855 21.75 44.1536 22.267 43.6044 22.6307C43.0552 22.9905 42.4283 23.1705 41.7237 23.1705C41.1934 23.1705 40.7597 23.0814 40.4226 22.9034C40.0893 22.7254 39.8279 22.517 39.6385 22.2784C39.4491 22.0398 39.3033 21.8277 39.201 21.642H39.0987V26.2727H37.3999ZM39.0646 18.6364C39.0646 19.25 39.1536 19.7879 39.3317 20.25C39.5097 20.7121 39.7673 21.0739 40.1044 21.3352C40.4415 21.5928 40.8544 21.7216 41.343 21.7216C41.8506 21.7216 42.2749 21.5871 42.6158 21.3182C42.9567 21.0455 43.2143 20.6761 43.3885 20.2102C43.5665 19.7443 43.6555 19.2197 43.6555 18.6364C43.6555 18.0606 43.5684 17.5436 43.3942 17.0852C43.2237 16.6269 42.9661 16.2652 42.6214 16C42.2805 15.7348 41.8544 15.6023 41.343 15.6023C40.8506 15.6023 40.4339 15.7292 40.093 15.983C39.7559 16.2367 39.5002 16.5909 39.326 17.0455C39.1518 17.5 39.0646 18.0303 39.0646 18.6364ZM49.8146 23.1932C49.2616 23.1932 48.7616 23.0909 48.3146 22.8864C47.8677 22.678 47.5135 22.3769 47.2521 21.983C46.9946 21.589 46.8658 21.1061 46.8658 20.5341C46.8658 20.0417 46.9605 19.6364 47.1499 19.3182C47.3393 19 47.5949 18.7481 47.9169 18.5625C48.2389 18.3769 48.5987 18.2367 48.9964 18.142C49.3942 18.0473 49.7995 17.9754 50.2124 17.9261C50.7351 17.8655 51.1593 17.8163 51.4851 17.7784C51.8108 17.7367 52.0476 17.6705 52.1953 17.5795C52.343 17.4886 52.4169 17.3409 52.4169 17.1364V17.0966C52.4169 16.6004 52.2768 16.2159 51.9964 15.9432C51.7199 15.6705 51.3071 15.5341 50.7578 15.5341C50.1858 15.5341 49.7351 15.661 49.4055 15.9148C49.0798 16.1648 48.8544 16.4432 48.7294 16.75L47.1328 16.3864C47.3222 15.8561 47.5987 15.428 47.9624 15.1023C48.3298 14.7727 48.7521 14.5341 49.2294 14.3864C49.7067 14.2348 50.2086 14.1591 50.7351 14.1591C51.0836 14.1591 51.4529 14.2008 51.843 14.2841C52.237 14.3636 52.6044 14.5114 52.9453 14.7273C53.29 14.9432 53.5722 15.2519 53.7919 15.6534C54.0116 16.0511 54.1214 16.5682 54.1214 17.2045V23H52.4624V21.8068H52.3942C52.2843 22.0265 52.1196 22.2424 51.8999 22.4545C51.6802 22.6667 51.398 22.8428 51.0533 22.983C50.7086 23.1231 50.2957 23.1932 49.8146 23.1932ZM50.1839 21.8295C50.6536 21.8295 51.0552 21.7367 51.3885 21.5511C51.7256 21.3655 51.9813 21.1231 52.1555 20.8239C52.3336 20.5208 52.4226 20.197 52.4226 19.8523V18.7273C52.362 18.7879 52.2446 18.8447 52.0703 18.8977C51.8999 18.947 51.7048 18.9905 51.4851 19.0284C51.2654 19.0625 51.0514 19.0947 50.843 19.125C50.6347 19.1515 50.4605 19.1742 50.3203 19.1932C49.9908 19.2348 49.6896 19.3049 49.4169 19.4034C49.148 19.5019 48.9321 19.6439 48.7692 19.8295C48.6101 20.0114 48.5305 20.2538 48.5305 20.5568C48.5305 20.9773 48.6858 21.2955 48.9964 21.5114C49.3071 21.7235 49.7029 21.8295 50.1839 21.8295ZM62.299 17.9034V19.375H57.5717V17.9034H62.299ZM58.049 14.2727V23H56.3842V14.2727H58.049ZM63.4865 14.2727V23H61.8274V14.2727H63.4865ZM67.424 20.6193L71.2706 14.2727H73.1001V23H71.4354V16.6477L67.6058 23H65.7592V14.2727H67.424V20.6193ZM74.3018 15.7386V14.2727H81.6655V15.7386H78.8189V23H77.1598V15.7386H74.3018ZM84.7408 17.2727H87.2749C88.343 17.2727 89.165 17.5379 89.7408 18.0682C90.3165 18.5985 90.6044 19.2822 90.6044 20.1193C90.6044 20.6648 90.4756 21.1553 90.218 21.5909C89.9605 22.0265 89.5836 22.3712 89.0874 22.625C88.5911 22.875 87.987 23 87.2749 23H83.4624V14.2727H85.1271V21.5341H87.2749C87.7635 21.5341 88.165 21.4072 88.4794 21.1534C88.7938 20.8958 88.951 20.5682 88.951 20.1705C88.951 19.75 88.7938 19.4072 88.4794 19.142C88.165 18.8731 87.7635 18.7386 87.2749 18.7386H84.7408V17.2727ZM98.4084 20.6193L102.255 14.2727H104.085V23H102.42V16.6477L98.5902 23H96.7436V14.2727H98.4084V20.6193ZM105.852 20.6932H107.59C107.613 21.0492 107.774 21.3239 108.073 21.517C108.376 21.7102 108.768 21.8068 109.249 21.8068C109.738 21.8068 110.155 21.7027 110.499 21.4943C110.844 21.2822 111.016 20.9545 111.016 20.5114C111.016 20.2462 110.95 20.0152 110.817 19.8182C110.689 19.6174 110.505 19.4621 110.266 19.3523C110.031 19.2424 109.753 19.1875 109.431 19.1875H108.011V17.8523H109.431C109.912 17.8523 110.272 17.7424 110.511 17.5227C110.749 17.303 110.869 17.0284 110.869 16.6989C110.869 16.3428 110.74 16.0568 110.482 15.8409C110.228 15.6212 109.874 15.5114 109.42 15.5114C108.958 15.5114 108.573 15.6155 108.266 15.8239C107.96 16.0284 107.799 16.2936 107.783 16.6193H106.067C106.079 16.1307 106.227 15.7027 106.511 15.3352C106.799 14.964 107.185 14.6761 107.67 14.4716C108.158 14.2633 108.713 14.1591 109.335 14.1591C109.982 14.1591 110.543 14.2633 111.016 14.4716C111.49 14.6799 111.855 14.9678 112.113 15.3352C112.374 15.7027 112.505 16.125 112.505 16.6023C112.505 17.0833 112.361 17.4773 112.073 17.7841C111.789 18.0871 111.418 18.3049 110.96 18.4375V18.5284C111.297 18.5511 111.596 18.6534 111.857 18.8352C112.119 19.017 112.323 19.2576 112.471 19.5568C112.619 19.8561 112.692 20.1951 112.692 20.5739C112.692 21.108 112.545 21.5701 112.249 21.9602C111.958 22.3504 111.552 22.6515 111.033 22.8636C110.518 23.072 109.929 23.1761 109.266 23.1761C108.622 23.1761 108.045 23.0758 107.533 22.875C107.026 22.6705 106.622 22.3826 106.323 22.0114C106.028 21.6402 105.871 21.2008 105.852 20.6932ZM119.344 20.8977L122.163 14.2727H123.629L119.975 23H118.714L115.134 14.2727H116.583L119.344 20.8977ZM116.112 14.2727V23H114.447V14.2727H116.112ZM122.623 23V14.2727H124.276V23H122.623ZM130.302 23.1761C129.442 23.1761 128.701 22.9924 128.08 22.625C127.463 22.2538 126.986 21.733 126.648 21.0625C126.315 20.3883 126.148 19.5985 126.148 18.6932C126.148 17.7992 126.315 17.0114 126.648 16.3295C126.986 15.6477 127.455 15.1155 128.058 14.733C128.664 14.3504 129.372 14.1591 130.183 14.1591C130.675 14.1591 131.152 14.2405 131.614 14.4034C132.076 14.5663 132.491 14.822 132.859 15.1705C133.226 15.5189 133.516 15.9716 133.728 16.5284C133.94 17.0814 134.046 17.7538 134.046 18.5455V19.1477H127.109V17.875H132.381C132.381 17.428 132.29 17.0322 132.109 16.6875C131.927 16.339 131.671 16.0644 131.342 15.8636C131.016 15.6629 130.633 15.5625 130.194 15.5625C129.717 15.5625 129.3 15.6799 128.944 15.9148C128.592 16.1458 128.319 16.4489 128.126 16.8239C127.936 17.1951 127.842 17.5985 127.842 18.0341V19.0284C127.842 19.6117 127.944 20.108 128.148 20.517C128.357 20.9261 128.647 21.2386 129.018 21.4545C129.389 21.6667 129.823 21.7727 130.319 21.7727C130.641 21.7727 130.934 21.7273 131.2 21.6364C131.465 21.5417 131.694 21.4015 131.887 21.2159C132.08 21.0303 132.228 20.8011 132.33 20.5284L133.938 20.8182C133.809 21.2917 133.578 21.7064 133.245 22.0625C132.915 22.4148 132.501 22.6894 132.001 22.8864C131.504 23.0795 130.938 23.1761 130.302 23.1761ZM141.846 17.9034V19.375H137.119V17.9034H141.846ZM137.596 14.2727V23H135.931V14.2727H137.596ZM143.033 14.2727V23H141.374V14.2727H143.033ZM149.067 23.1761C148.208 23.1761 147.467 22.9924 146.846 22.625C146.228 22.2538 145.751 21.733 145.414 21.0625C145.081 20.3883 144.914 19.5985 144.914 18.6932C144.914 17.7992 145.081 17.0114 145.414 16.3295C145.751 15.6477 146.221 15.1155 146.823 14.733C147.429 14.3504 148.138 14.1591 148.948 14.1591C149.441 14.1591 149.918 14.2405 150.38 14.4034C150.842 14.5663 151.257 14.822 151.624 15.1705C151.992 15.5189 152.281 15.9716 152.494 16.5284C152.706 17.0814 152.812 17.7538 152.812 18.5455V19.1477H145.874V17.875H151.147C151.147 17.428 151.056 17.0322 150.874 16.6875C150.692 16.339 150.437 16.0644 150.107 15.8636C149.781 15.6629 149.399 15.5625 148.96 15.5625C148.482 15.5625 148.066 15.6799 147.71 15.9148C147.357 16.1458 147.085 16.4489 146.891 16.8239C146.702 17.1951 146.607 17.5985 146.607 18.0341V19.0284C146.607 19.6117 146.71 20.108 146.914 20.517C147.122 20.9261 147.412 21.2386 147.783 21.4545C148.155 21.6667 148.588 21.7727 149.085 21.7727C149.406 21.7727 149.7 21.7273 149.965 21.6364C150.23 21.5417 150.46 21.4015 150.653 21.2159C150.846 21.0303 150.994 20.8011 151.096 20.5284L152.704 20.8182C152.575 21.2917 152.344 21.7064 152.011 22.0625C151.681 22.4148 151.266 22.6894 150.766 22.8864C150.27 23.0795 149.704 23.1761 149.067 23.1761ZM160.612 17.9034V19.375H155.884V17.9034H160.612ZM156.362 14.2727V23H154.697V14.2727H156.362ZM161.799 14.2727V23H160.14V14.2727H161.799ZM165.737 20.6193L169.583 14.2727H171.413V23H169.748V16.6477L165.918 23H164.072V14.2727H165.737V20.6193ZM178.901 23V15.7216H176.81C176.314 15.7216 175.928 15.8371 175.651 16.0682C175.375 16.2992 175.237 16.6023 175.237 16.9773C175.237 17.3485 175.363 17.6477 175.617 17.875C175.875 18.0985 176.235 18.2102 176.697 18.2102H179.396V19.5852H176.697C176.053 19.5852 175.496 19.4792 175.026 19.267C174.56 19.0511 174.201 18.7462 173.947 18.3523C173.697 17.9583 173.572 17.4924 173.572 16.9545C173.572 16.4053 173.701 15.9318 173.958 15.5341C174.219 15.1326 174.593 14.822 175.077 14.6023C175.566 14.3826 176.144 14.2727 176.81 14.2727H180.498V23H178.901ZM173.174 23L175.634 18.5909H177.373L174.913 23H173.174Z" fill="#4B5563"/>
</svg>
