<svg width="41" height="24" viewBox="0 0 41 24" fill="none" xmlns="http://www.w3.org/2000/svg">
<path fill-rule="evenodd" clip-rule="evenodd" d="M7.00008 17.8334C10.2217 17.8334 12.8334 15.2217 12.8334 12C12.8334 8.77836 10.2217 6.16669 7.00008 6.16669C3.77842 6.16669 1.16675 8.77836 1.16675 12C1.16675 15.2217 3.77842 17.8334 7.00008 17.8334Z" stroke="#D0D1D2" stroke-width="1.16667" stroke-linecap="round" stroke-linejoin="round"/>
<path d="M1.16675 12H12.8334" stroke="#D0D1D2" stroke-width="1.16667" stroke-linecap="round" stroke-linejoin="round"/>
<path fill-rule="evenodd" clip-rule="evenodd" d="M7.00008 6.16669C8.45916 7.76406 9.28835 9.83704 9.33341 12C9.28835 14.163 8.45916 16.236 7.00008 17.8334C5.541 16.236 4.71181 14.163 4.66675 12C4.71181 9.83704 5.541 7.76406 7.00008 6.16669V6.16669Z" stroke="#D0D1D2" stroke-width="1.16667" stroke-linecap="round" stroke-linejoin="round"/>
<path d="M27.7727 10H26.3636C26.2803 9.5947 26.1345 9.23864 25.9261 8.93182C25.7216 8.625 25.4716 8.36742 25.1761 8.15909C24.8845 7.94697 24.5606 7.78788 24.2045 7.68182C23.8485 7.57576 23.4773 7.52273 23.0909 7.52273C22.3864 7.52273 21.7481 7.70076 21.1761 8.05682C20.608 8.41288 20.1553 8.9375 19.8182 9.63068C19.4848 10.3239 19.3182 11.1742 19.3182 12.1818C19.3182 13.1894 19.4848 14.0398 19.8182 14.733C20.1553 15.4261 20.608 15.9508 21.1761 16.3068C21.7481 16.6629 22.3864 16.8409 23.0909 16.8409C23.4773 16.8409 23.8485 16.7879 24.2045 16.6818C24.5606 16.5758 24.8845 16.4186 25.1761 16.2102C25.4716 15.9981 25.7216 15.7386 25.9261 15.4318C26.1345 15.1212 26.2803 14.7652 26.3636 14.3636H27.7727C27.6667 14.9583 27.4735 15.4905 27.1932 15.9602C26.9129 16.4299 26.5644 16.8295 26.1477 17.1591C25.7311 17.4848 25.2633 17.733 24.7443 17.9034C24.2292 18.0739 23.678 18.1591 23.0909 18.1591C22.0985 18.1591 21.2159 17.9167 20.4432 17.4318C19.6705 16.947 19.0625 16.2576 18.6193 15.3636C18.1761 14.4697 17.9545 13.4091 17.9545 12.1818C17.9545 10.9545 18.1761 9.89394 18.6193 9C19.0625 8.10606 19.6705 7.41667 20.4432 6.93182C21.2159 6.44697 22.0985 6.20455 23.0909 6.20455C23.678 6.20455 24.2292 6.28977 24.7443 6.46023C25.2633 6.63068 25.7311 6.88068 26.1477 7.21023C26.5644 7.53598 26.9129 7.93371 27.1932 8.40341C27.4735 8.86932 27.6667 9.40151 27.7727 10ZM30.3497 18V6.36364H31.7588V11.5455H37.9634V6.36364H39.3724V18H37.9634V12.7955H31.7588V18H30.3497Z" fill="#C1C4CC"/>
</svg>
