<svg width="140" height="70" viewBox="0 0 140 70" fill="none" xmlns="http://www.w3.org/2000/svg">
<path d="M18.3316 21.0004L36.665 63.0004M17.8733 63.0004C14.0229 63.0004 12.0977 63.0004 10.6271 62.2374C9.33349 61.5663 8.28175 60.4954 7.62262 59.1783C6.87329 57.6809 6.87329 55.7207 6.87329 51.8004V32.2004C6.87329 28.28 6.87329 26.3198 7.62262 24.8224C8.28175 23.5053 9.33349 22.4344 10.6271 21.7633C12.0977 21.0004 14.0229 21.0004 17.8733 21.0004L20 24.8224L37.1233 21.0004C40.9737 21.0004 42.8988 21.0004 44.3695 21.7633C45.6631 22.4344 46.7148 23.5053 47.374 24.8224C48.1233 26.3198 48.1233 28.28 48.1233 32.2004V51.8004C48.1233 55.7207 48.1233 57.6809 47.374 59.1783C46.7148 60.4954 45.6631 61.5663 44.3695 62.2374C42.8988 63.0004 40.9737 63.0004 37.1233 63.0004L33.6092 56L17.8733 63.0004Z" stroke="#5955B3" stroke-width="2" stroke-linecap="round" stroke-linejoin="round"/>
<path d="M42.4618 32.1172V27.9996M39.2265 53.1588V49.0412M40.4397 30.0584H44.4839M37.2044 51.1H41.2486M32.7559 27.176L32.1214 28.4681C31.9067 28.9054 31.7993 29.124 31.6559 29.3135C31.5286 29.4816 31.3806 29.6323 31.2155 29.7619C31.0294 29.9079 30.8147 30.0172 30.3852 30.2359L29.1162 30.8819L30.3852 31.5279C30.8147 31.7466 31.0294 31.8559 31.2155 32.0019C31.3806 32.1315 31.5286 32.2822 31.6559 32.4504C31.7993 32.6398 31.9067 32.8585 32.1214 33.2957L32.7559 34.5878L33.3904 33.2957C33.6051 32.8585 33.7125 32.6398 33.8559 32.4504C33.9832 32.2822 34.1312 32.1315 34.2964 32.0019C34.4824 31.8559 34.6972 31.7466 35.1266 31.5279L36.3956 30.8819L35.1266 30.2359C34.6972 30.0172 34.4824 29.9079 34.2964 29.7619C34.1312 29.6323 33.9832 29.4816 33.8559 29.3135C33.7125 29.124 33.6051 28.9054 33.3904 28.4681L32.7559 27.176ZM38.4177 36.9779L37.6484 38.5444C37.4337 38.9817 37.3263 39.2003 37.1829 39.3898C37.0556 39.5579 36.9075 39.7086 36.7424 39.8382C36.5563 39.9843 36.3416 40.0936 35.9121 40.3122L34.3736 41.0955L35.9121 41.8788C36.3416 42.0974 36.5563 42.2068 36.7424 42.3528C36.9075 42.4824 37.0556 42.6331 37.1829 42.8012C37.3263 42.9907 37.4337 43.2093 37.6484 43.6466L38.4177 45.2132L39.187 43.6466C39.4017 43.2093 39.5091 42.9907 39.6525 42.8012C39.7798 42.6331 39.9278 42.4824 40.0929 42.3528C40.279 42.2068 40.4937 42.0974 40.9232 41.8788L42.4618 41.0955L40.9232 40.3122C40.4937 40.0936 40.279 39.9843 40.0929 39.8382C39.9278 39.7087 39.7798 39.5579 39.6525 39.3898C39.5091 39.2003 39.4017 38.9817 39.187 38.5444L38.4177 36.9779Z" stroke="#5955B3" stroke-linecap="round" stroke-linejoin="round"/>
<path d="M16.2484 36.1954C16.1428 36.3182 16.0494 36.4567 15.9714 36.6099C15.4583 37.6178 15.8066 38.8796 16.7494 39.4281C17.6922 39.9766 18.8724 39.6043 19.3855 38.5964C19.4719 38.4266 19.5339 38.2496 19.5727 38.0701M16.2484 36.1954C17.1073 35.8645 18.9747 35.7761 19.5727 38.0701M16.2484 36.1954C16.4289 35.9856 16.6451 35.8215 16.8811 35.7082M19.5727 38.0701C19.6664 37.6368 19.6252 37.1884 19.467 36.79M16.8811 35.7082C17.416 35.4515 18.0528 35.4555 18.6075 35.7782C19.0082 36.0114 19.3015 36.3734 19.467 36.79M16.8811 35.7082C17.3876 35.6421 18.6138 35.7659 19.467 36.79" stroke="#5955B3" stroke-linecap="round"/>
<path d="M15.0867 43.2887C16.2386 43.2887 18.8015 43.1274 19.8382 42.4821C21.1341 41.6755 12.0629 57.4043 20.2702 54.5812" stroke="#5955B3" stroke-width="2" stroke-linecap="round"/>
<path d="M71.9 38.64H79.36V40.86H71.9V38.64ZM61.06 34H70.06V35.96H61.06V34ZM60.86 41.96H70.04V43.98H60.86V41.96ZM60.8 38.46H70.22V40.44H60.8V38.46ZM75.14 39.6H77.46V50.7H75.14V39.6ZM64.4 32.18H66.74V34.88H64.4V32.18ZM64.4 40.32H66.74V50.78H64.4V40.32ZM70.82 33.6L73.62 34.38C73.6 34.58 73.46 34.68 73.1 34.74V40.62C73.1 43.6 72.72 48.02 70 50.84C69.7 50.32 68.82 49.5 68.28 49.2C70.6 46.74 70.82 43.32 70.82 40.58V33.6ZM77.36 32.22L79.28 33.96C77.24 34.88 74.52 35.56 72.18 36C72.06 35.48 71.72 34.64 71.44 34.18C73.58 33.7 75.94 32.98 77.36 32.22ZM66.56 44.06C67.18 44.44 69.1 45.94 69.58 46.34L68.2 48.06C67.54 47.26 66.02 45.76 65.28 45.1L66.56 44.06ZM62.06 36.26L63.9 35.82C64.26 36.54 64.54 37.52 64.64 38.18L62.68 38.7C62.64 38.04 62.38 37.02 62.06 36.26ZM67.04 35.78L69.16 36.18C68.78 37.1 68.44 37.96 68.14 38.58L66.24 38.18C66.52 37.5 66.86 36.48 67.04 35.78ZM64.42 43.14L66.12 43.76C65.14 45.96 63.48 48.26 61.88 49.56C61.5 49.04 60.8 48.24 60.3 47.86C61.88 46.84 63.54 44.9 64.42 43.14ZM84.14 35.64H98.06V37.98H84.14V35.64ZM83.32 41.54H97.3V43.84H83.32V41.54ZM81 47.88H99.08V50.22H81V47.88ZM88.78 32.02H91.28V49.04H88.78V32.02ZM84.16 32.26L86.64 32.82C85.76 35.92 84.3 39 82.74 40.92C82.26 40.5 81.2 39.8 80.58 39.46C82.16 37.78 83.44 35.02 84.16 32.26ZM108.66 32.04H111.04V37.48C111.04 38.22 111.24 38.32 112.42 38.32C112.96 38.32 115.24 38.32 115.9 38.32C116.9 38.32 117.06 38 117.2 36.02C117.7 36.38 118.72 36.74 119.36 36.88C119.06 39.72 118.36 40.46 116.08 40.46C115.48 40.46 112.76 40.46 112.18 40.46C109.38 40.46 108.66 39.78 108.66 37.48V32.04ZM116.4 32.88L118.18 34.62C115.96 35.54 112.98 36.26 110.42 36.74C110.3 36.22 109.96 35.42 109.7 34.96C112.1 34.46 114.78 33.66 116.4 32.88ZM108.62 41.62H118.38V50.7H116V43.6H110.88V50.8H108.62V41.62ZM109.82 44.84H116.82V46.7H109.82V44.84ZM109.72 48.02H116.82V49.92H109.72V48.02ZM100.42 42.22C102.28 41.82 105.06 41.14 107.66 40.46L107.94 42.66C105.56 43.34 103 44 101 44.52L100.42 42.22ZM100.72 35.78H107.62V38.02H100.72V35.78ZM103.22 32.02H105.58V48.22C105.58 49.38 105.38 49.98 104.7 50.34C104.02 50.7 103.06 50.78 101.64 50.76C101.58 50.16 101.26 49.18 100.98 48.58C101.76 48.6 102.58 48.6 102.84 48.6C103.12 48.58 103.22 48.5 103.22 48.22V32.02ZM121.12 33.68H138.88V35.92H121.12V33.68ZM125.5 42.28H134.46V44.14H125.5V42.28ZM125.08 45.46H134.9V47.38H125.08V45.46ZM128.78 43.18H131.06V50.22H128.78V43.18ZM121.86 37.42H136.34V39.62H124.28V50.76H121.86V37.42ZM135.66 37.42H138.14V48.36C138.14 49.52 137.86 50.06 137.04 50.4C136.24 50.74 135.06 50.76 133.44 50.76C133.32 50.14 132.96 49.26 132.64 48.72C133.62 48.78 134.88 48.78 135.2 48.76C135.56 48.74 135.66 48.64 135.66 48.34V37.42ZM126.26 40.16L128.18 39.6C128.64 40.24 129.1 41.16 129.32 41.76L127.32 42.44C127.14 41.8 126.68 40.86 126.26 40.16ZM131.9 39.64L133.94 40.2C133.4 41.16 132.86 42.1 132.4 42.74L130.7 42.24C131.12 41.5 131.64 40.4 131.9 39.64ZM128.7 32.14H131.34V38.96H128.7V32.14Z" fill="#5955B3"/>
</svg>
