<svg width="50" height="24" viewBox="0 0 50 24" fill="none" xmlns="http://www.w3.org/2000/svg">
<path fill-rule="evenodd" clip-rule="evenodd" d="M7.00008 17.8334C10.2217 17.8334 12.8334 15.2217 12.8334 12C12.8334 8.77836 10.2217 6.16669 7.00008 6.16669C3.77842 6.16669 1.16675 8.77836 1.16675 12C1.16675 15.2217 3.77842 17.8334 7.00008 17.8334Z" stroke="#4B5563" stroke-width="1.16667" stroke-linecap="round" stroke-linejoin="round"/>
<path d="M1.16675 12H12.8334" stroke="#4B5563" stroke-width="1.16667" stroke-linecap="round" stroke-linejoin="round"/>
<path fill-rule="evenodd" clip-rule="evenodd" d="M7.00008 6.16669C8.45916 7.76406 9.28835 9.83704 9.33341 12C9.28835 14.163 8.45916 16.236 7.00008 17.8334C5.541 16.236 4.71181 14.163 4.66675 12C4.71181 9.83704 5.541 7.76406 7.00008 6.16669V6.16669Z" stroke="#4B5563" stroke-width="1.16667" stroke-linecap="round" stroke-linejoin="round"/>
<path d="M18.536 7.424H31.432V14.96H30.184V8.608H19.736V15.04H18.536V7.424ZM19.176 12.864H30.904V14.032H19.176V12.864ZM24.328 4.56H25.576V19.264H24.328V4.56ZM44.884 7.888L46.148 8.256C44.132 14.128 40.5 17.424 34.676 19.312C34.548 19.008 34.164 18.432 33.908 18.144C39.62 16.512 43.092 13.376 44.884 7.888ZM37.62 7.968C39.348 13.088 42.948 16.768 48.724 18.112C48.436 18.4 48.052 18.944 47.86 19.296C41.924 17.744 38.404 13.936 36.436 8.336L37.62 7.968ZM34.1 7.28H48.564V8.464H34.1V7.28ZM40.66 4.56H41.892V8H40.66V4.56Z" fill="#4B5563"/>
</svg>
