<svg width="233" height="73" viewBox="0 0 233 73" fill="none" xmlns="http://www.w3.org/2000/svg">
<path d="M18.3316 24.0004L36.665 66.0004M17.8733 66.0004C14.0229 66.0004 12.0977 66.0004 10.6271 65.2374C9.33349 64.5663 8.28175 63.4954 7.62262 62.1783C6.87329 60.6809 6.87329 58.7207 6.87329 54.8004V35.2004C6.87329 31.28 6.87329 29.3198 7.62262 27.8224C8.28175 26.5053 9.33349 25.4344 10.6271 24.7633C12.0977 24.0004 14.0229 24.0004 17.8733 24.0004L20 27.8224L37.1233 24.0004C40.9737 24.0004 42.8988 24.0004 44.3695 24.7633C45.6631 25.4344 46.7148 26.5053 47.374 27.8224C48.1233 29.3198 48.1233 31.28 48.1233 35.2004V54.8004C48.1233 58.7207 48.1233 60.6809 47.374 62.1783C46.7148 63.4954 45.6631 64.5663 44.3695 65.2374C42.8988 66.0004 40.9737 66.0004 37.1233 66.0004L33.6092 59L17.8733 66.0004Z" stroke="#5955B3" stroke-width="2" stroke-linecap="round" stroke-linejoin="round"/>
<path d="M42.4618 35.1172V30.9996M39.2265 56.1588V52.0412M40.4397 33.0584H44.4839M37.2044 54.1H41.2486M32.7559 30.176L32.1214 31.4681C31.9067 31.9054 31.7993 32.124 31.6559 32.3135C31.5286 32.4816 31.3806 32.6323 31.2155 32.7619C31.0294 32.9079 30.8147 33.0172 30.3852 33.2359L29.1162 33.8819L30.3852 34.5279C30.8147 34.7466 31.0294 34.8559 31.2155 35.0019C31.3806 35.1315 31.5286 35.2822 31.6559 35.4504C31.7993 35.6398 31.9067 35.8585 32.1214 36.2957L32.7559 37.5878L33.3904 36.2957C33.6051 35.8585 33.7125 35.6398 33.8559 35.4504C33.9832 35.2822 34.1312 35.1315 34.2964 35.0019C34.4824 34.8559 34.6972 34.7466 35.1266 34.5279L36.3956 33.8819L35.1266 33.2359C34.6972 33.0172 34.4824 32.9079 34.2964 32.7619C34.1312 32.6323 33.9832 32.4816 33.8559 32.3135C33.7125 32.124 33.6051 31.9054 33.3904 31.4681L32.7559 30.176ZM38.4177 39.9779L37.6484 41.5444C37.4337 41.9817 37.3263 42.2003 37.1829 42.3898C37.0556 42.5579 36.9075 42.7086 36.7424 42.8382C36.5563 42.9843 36.3416 43.0936 35.9121 43.3122L34.3736 44.0955L35.9121 44.8788C36.3416 45.0974 36.5563 45.2068 36.7424 45.3528C36.9075 45.4824 37.0556 45.6331 37.1829 45.8012C37.3263 45.9907 37.4337 46.2093 37.6484 46.6466L38.4177 48.2132L39.187 46.6466C39.4017 46.2093 39.5091 45.9907 39.6525 45.8012C39.7798 45.6331 39.9278 45.4824 40.0929 45.3528C40.279 45.2068 40.4937 45.0974 40.9232 44.8788L42.4618 44.0955L40.9232 43.3122C40.4937 43.0936 40.279 42.9843 40.0929 42.8382C39.9278 42.7087 39.7798 42.5579 39.6525 42.3898C39.5091 42.2003 39.4017 41.9817 39.187 41.5444L38.4177 39.9779Z" stroke="#5955B3" stroke-linecap="round" stroke-linejoin="round"/>
<path d="M16.2484 39.1954C16.1428 39.3182 16.0494 39.4567 15.9714 39.6099C15.4583 40.6178 15.8066 41.8796 16.7494 42.4281C17.6922 42.9766 18.8724 42.6043 19.3855 41.5964C19.4719 41.4266 19.5339 41.2496 19.5727 41.0701M16.2484 39.1954C17.1073 38.8645 18.9747 38.7761 19.5727 41.0701M16.2484 39.1954C16.4289 38.9856 16.6451 38.8215 16.8811 38.7082M19.5727 41.0701C19.6664 40.6368 19.6252 40.1884 19.467 39.79M16.8811 38.7082C17.416 38.4515 18.0528 38.4555 18.6075 38.7782C19.0082 39.0114 19.3015 39.3734 19.467 39.79M16.8811 38.7082C17.3876 38.6421 18.6138 38.7659 19.467 39.79" stroke="#5955B3" stroke-linecap="round"/>
<path d="M15.0867 46.2887C16.2386 46.2887 18.8015 46.1274 19.8382 45.4821C21.1341 44.6755 12.0629 60.4043 20.2702 57.5812" stroke="#5955B3" stroke-width="2" stroke-linecap="round"/>
<path d="M59.2642 49V34.4545H68.8949V36.9901H62.3395V40.456H68.2557V42.9915H62.3395V49H59.2642ZM70.7308 49V38.0909H73.6641V39.9943H73.7777C73.9766 39.3172 74.3104 38.8059 74.7791 38.4602C75.2479 38.1098 75.7876 37.9347 76.3984 37.9347C76.55 37.9347 76.7133 37.9441 76.8885 37.9631C77.0637 37.982 77.2176 38.008 77.3501 38.0412V40.7259C77.2081 40.6832 77.0116 40.6454 76.7607 40.6122C76.5097 40.5791 76.2801 40.5625 76.0717 40.5625C75.6267 40.5625 75.2289 40.6596 74.8786 40.8537C74.5329 41.0431 74.2583 41.3082 74.0547 41.6491C73.8558 41.9901 73.7564 42.383 73.7564 42.8281V49H70.7308ZM83.3782 49.2131C82.256 49.2131 81.2901 48.9858 80.4805 48.5312C79.6755 48.072 79.0553 47.4233 78.6197 46.5852C78.1841 45.7424 77.9663 44.7457 77.9663 43.5952C77.9663 42.473 78.1841 41.4882 78.6197 40.6406C79.0553 39.7931 79.6684 39.1326 80.4592 38.6591C81.2546 38.1856 82.1874 37.9489 83.2575 37.9489C83.9772 37.9489 84.6471 38.0649 85.2674 38.2969C85.8924 38.5241 86.4369 38.8674 86.9009 39.3267C87.3697 39.786 87.7343 40.3636 87.9947 41.0597C88.2551 41.7509 88.3853 42.5606 88.3853 43.4886V44.3196H79.1737V42.4446H85.5373C85.5373 42.009 85.4426 41.6231 85.2532 41.2869C85.0638 40.9508 84.801 40.688 84.4648 40.4986C84.1334 40.3045 83.7475 40.2074 83.3072 40.2074C82.8479 40.2074 82.4407 40.3139 82.0856 40.527C81.7352 40.7353 81.4606 41.017 81.2617 41.3722C81.0629 41.7225 80.9611 42.1132 80.9563 42.544V44.3267C80.9563 44.8665 81.0558 45.3329 81.2546 45.7259C81.4582 46.1188 81.7447 46.4219 82.114 46.6349C82.4833 46.848 82.9213 46.9545 83.4279 46.9545C83.7641 46.9545 84.0719 46.9072 84.3512 46.8125C84.6306 46.7178 84.8697 46.5758 85.0685 46.3864C85.2674 46.197 85.4189 45.965 85.5231 45.6903L88.3214 45.875C88.1793 46.5473 87.8881 47.1345 87.4478 47.6364C87.0122 48.1335 86.4487 48.5218 85.7575 48.8011C85.0709 49.0758 84.2778 49.2131 83.3782 49.2131ZM99.4364 41.2017L96.6665 41.3722C96.6192 41.1354 96.5174 40.9223 96.3612 40.733C96.2049 40.5388 95.9989 40.3849 95.7433 40.2713C95.4923 40.1529 95.1916 40.0938 94.8413 40.0938C94.3725 40.0938 93.9772 40.1932 93.6552 40.392C93.3332 40.5862 93.1722 40.8466 93.1722 41.1733C93.1722 41.4337 93.2764 41.6539 93.4847 41.8338C93.6931 42.0137 94.0505 42.1581 94.5572 42.267L96.5316 42.6648C97.5922 42.8826 98.3829 43.233 98.9038 43.7159C99.4246 44.1989 99.685 44.8333 99.685 45.6193C99.685 46.3343 99.4743 46.9616 99.0529 47.5014C98.6362 48.0412 98.0633 48.4626 97.3342 48.7656C96.6097 49.0639 95.774 49.2131 94.8271 49.2131C93.3829 49.2131 92.2324 48.9124 91.3754 48.3111C90.5231 47.705 90.0236 46.8812 89.8768 45.8395L92.8526 45.6832C92.9426 46.1236 93.1604 46.4598 93.506 46.6918C93.8517 46.919 94.2944 47.0327 94.8342 47.0327C95.3645 47.0327 95.7906 46.9309 96.1126 46.7273C96.4393 46.5189 96.605 46.2514 96.6097 45.9247C96.605 45.6501 96.489 45.4252 96.2617 45.25C96.0344 45.0701 95.6841 44.9328 95.2106 44.8381L93.3214 44.4616C92.256 44.2486 91.4629 43.8793 90.9421 43.3537C90.426 42.8281 90.168 42.1581 90.168 41.3438C90.168 40.643 90.3574 40.0393 90.7362 39.5327C91.1197 39.026 91.6571 38.6354 92.3484 38.3608C93.0444 38.0862 93.8588 37.9489 94.7915 37.9489C96.1694 37.9489 97.2537 38.2401 98.0444 38.8224C98.8398 39.4048 99.3039 40.1979 99.4364 41.2017ZM104.616 42.6932V49H101.59V34.4545H104.531V40.0156H104.658C104.905 39.3717 105.302 38.8674 105.852 38.5028C106.401 38.1335 107.09 37.9489 107.918 37.9489C108.676 37.9489 109.336 38.1146 109.9 38.446C110.468 38.7727 110.908 39.2438 111.221 39.8594C111.538 40.4702 111.694 41.2017 111.69 42.054V49H108.664V42.5938C108.669 41.9214 108.498 41.3982 108.153 41.0241C107.812 40.6501 107.334 40.4631 106.718 40.4631C106.306 40.4631 105.942 40.5507 105.624 40.7259C105.312 40.901 105.066 41.1567 104.886 41.4929C104.71 41.8243 104.621 42.2244 104.616 42.6932ZM114.071 49V38.0909H116.954V40.0156H117.082C117.309 39.3764 117.688 38.8722 118.218 38.5028C118.749 38.1335 119.383 37.9489 120.122 37.9489C120.87 37.9489 121.507 38.1359 122.032 38.5099C122.558 38.8793 122.908 39.3812 123.083 40.0156H123.197C123.42 39.3906 123.822 38.8911 124.404 38.517C124.992 38.1383 125.685 37.9489 126.485 37.9489C127.503 37.9489 128.33 38.2732 128.964 38.9219C129.603 39.5658 129.923 40.4796 129.923 41.6634V49H126.904V42.2599C126.904 41.6539 126.743 41.1993 126.422 40.8963C126.1 40.5933 125.697 40.4418 125.214 40.4418C124.665 40.4418 124.236 40.617 123.929 40.9673C123.621 41.313 123.467 41.7699 123.467 42.3381V49H120.534V42.196C120.534 41.661 120.38 41.2348 120.072 40.9176C119.769 40.6004 119.369 40.4418 118.872 40.4418C118.536 40.4418 118.233 40.527 117.963 40.6974C117.698 40.8632 117.487 41.0975 117.331 41.4006C117.174 41.6989 117.096 42.0492 117.096 42.4517V49H114.071ZM135.424 49.206C134.728 49.206 134.107 49.0852 133.563 48.8438C133.018 48.5975 132.587 48.2353 132.27 47.7571C131.958 47.2741 131.801 46.6728 131.801 45.9531C131.801 45.3471 131.913 44.8381 132.135 44.4261C132.358 44.0142 132.661 43.6828 133.044 43.4318C133.428 43.1809 133.864 42.9915 134.351 42.8636C134.844 42.7358 135.36 42.6458 135.9 42.5938C136.534 42.5275 137.045 42.4659 137.434 42.4091C137.822 42.3475 138.104 42.2576 138.279 42.1392C138.454 42.0208 138.542 41.8456 138.542 41.6136V41.571C138.542 41.1212 138.4 40.7732 138.115 40.527C137.836 40.2808 137.438 40.1577 136.922 40.1577C136.378 40.1577 135.944 40.2784 135.623 40.5199C135.301 40.7566 135.087 41.0549 134.983 41.4148L132.185 41.1875C132.327 40.5246 132.606 39.9517 133.023 39.4688C133.44 38.9811 133.977 38.607 134.635 38.3466C135.298 38.0814 136.065 37.9489 136.936 37.9489C137.542 37.9489 138.123 38.0199 138.676 38.1619C139.235 38.304 139.73 38.5241 140.161 38.8224C140.596 39.1207 140.94 39.5043 141.191 39.973C141.442 40.437 141.567 40.9934 141.567 41.642V49H138.698V47.4872H138.613C138.437 47.8281 138.203 48.1288 137.909 48.3892C137.616 48.6449 137.263 48.8461 136.851 48.9929C136.439 49.1349 135.963 49.206 135.424 49.206ZM136.29 47.1179C136.735 47.1179 137.128 47.0303 137.469 46.8551C137.81 46.6752 138.078 46.4337 138.272 46.1307C138.466 45.8277 138.563 45.4844 138.563 45.1009V43.9432C138.468 44.0047 138.338 44.0616 138.172 44.1136C138.011 44.161 137.829 44.206 137.625 44.2486C137.422 44.2865 137.218 44.322 137.015 44.3551C136.811 44.3835 136.626 44.4096 136.461 44.4332C136.105 44.4853 135.795 44.5682 135.53 44.6818C135.265 44.7955 135.059 44.9493 134.912 45.1435C134.766 45.3329 134.692 45.5696 134.692 45.8537C134.692 46.2656 134.841 46.5805 135.14 46.7983C135.443 47.0114 135.826 47.1179 136.29 47.1179ZM146.94 42.6932V49H143.914V38.0909H146.798V40.0156H146.926C147.167 39.3812 147.572 38.8793 148.14 38.5099C148.708 38.1359 149.397 37.9489 150.207 37.9489C150.965 37.9489 151.625 38.1146 152.189 38.446C152.752 38.7775 153.19 39.2509 153.502 39.8665C153.815 40.4773 153.971 41.2064 153.971 42.054V49H150.946V42.5938C150.95 41.9261 150.78 41.4053 150.434 41.0312C150.089 40.6525 149.613 40.4631 149.007 40.4631C148.6 40.4631 148.24 40.5507 147.927 40.7259C147.619 40.901 147.378 41.1567 147.203 41.4929C147.032 41.8243 146.945 42.2244 146.94 42.6932ZM158.302 34.4545V39.9801H156.143V34.4545H158.302ZM169.612 41.2017L166.842 41.3722C166.795 41.1354 166.693 40.9223 166.537 40.733C166.381 40.5388 166.175 40.3849 165.919 40.2713C165.668 40.1529 165.367 40.0938 165.017 40.0938C164.548 40.0938 164.153 40.1932 163.831 40.392C163.509 40.5862 163.348 40.8466 163.348 41.1733C163.348 41.4337 163.452 41.6539 163.661 41.8338C163.869 42.0137 164.226 42.1581 164.733 42.267L166.707 42.6648C167.768 42.8826 168.559 43.233 169.08 43.7159C169.6 44.1989 169.861 44.8333 169.861 45.6193C169.861 46.3343 169.65 46.9616 169.229 47.5014C168.812 48.0412 168.239 48.4626 167.51 48.7656C166.786 49.0639 165.95 49.2131 165.003 49.2131C163.559 49.2131 162.408 48.9124 161.551 48.3111C160.699 47.705 160.199 46.8812 160.053 45.8395L163.028 45.6832C163.118 46.1236 163.336 46.4598 163.682 46.6918C164.027 46.919 164.47 47.0327 165.01 47.0327C165.54 47.0327 165.966 46.9309 166.288 46.7273C166.615 46.5189 166.781 46.2514 166.786 45.9247C166.781 45.6501 166.665 45.4252 166.438 45.25C166.21 45.0701 165.86 44.9328 165.386 44.8381L163.497 44.4616C162.432 44.2486 161.639 43.8793 161.118 43.3537C160.602 42.8281 160.344 42.1581 160.344 41.3438C160.344 40.643 160.533 40.0393 160.912 39.5327C161.295 39.026 161.833 38.6354 162.524 38.3608C163.22 38.0862 164.035 37.9489 164.967 37.9489C166.345 37.9489 167.429 38.2401 168.22 38.8224C169.016 39.4048 169.48 40.1979 169.612 41.2017ZM186.097 39.1562C185.997 38.8106 185.857 38.5052 185.678 38.2401C185.498 37.9702 185.277 37.7429 185.017 37.5582C184.761 37.3688 184.468 37.2244 184.136 37.125C183.81 37.0256 183.447 36.9759 183.05 36.9759C182.306 36.9759 181.653 37.1605 181.089 37.5298C180.531 37.8991 180.095 38.4366 179.783 39.142C179.47 39.8428 179.314 40.6998 179.314 41.7131C179.314 42.7263 179.468 43.5881 179.776 44.2983C180.083 45.0085 180.519 45.5507 181.082 45.9247C181.646 46.294 182.311 46.4787 183.078 46.4787C183.774 46.4787 184.368 46.3556 184.861 46.1094C185.358 45.8584 185.737 45.5057 185.997 45.0511C186.262 44.5966 186.395 44.0592 186.395 43.4389L187.02 43.5312H183.27V41.2159H189.357V43.0483C189.357 44.3267 189.087 45.4252 188.547 46.3438C188.007 47.2576 187.264 47.9631 186.317 48.4602C185.37 48.9527 184.286 49.1989 183.064 49.1989C181.7 49.1989 180.502 48.8982 179.47 48.2969C178.438 47.6908 177.633 46.8314 177.055 45.7188C176.482 44.6013 176.196 43.2756 176.196 41.7415C176.196 40.5625 176.366 39.5114 176.707 38.5881C177.053 37.66 177.536 36.8741 178.156 36.2301C178.777 35.5862 179.499 35.0961 180.322 34.7599C181.146 34.4238 182.039 34.2557 183 34.2557C183.824 34.2557 184.591 34.3764 185.301 34.6179C186.011 34.8546 186.641 35.1908 187.19 35.6264C187.744 36.062 188.196 36.5805 188.547 37.1818C188.897 37.7784 189.122 38.4366 189.222 39.1562H186.097ZM198.605 44.3551V38.0909H201.631V49H198.726V47.0185H198.613C198.366 47.6577 197.957 48.1714 197.384 48.5597C196.816 48.9479 196.122 49.142 195.303 49.142C194.574 49.142 193.932 48.9763 193.378 48.6449C192.824 48.3134 192.391 47.8423 192.078 47.2315C191.771 46.6207 191.614 45.8892 191.61 45.0369V38.0909H194.635V44.4972C194.64 45.1411 194.813 45.6501 195.154 46.0241C195.495 46.3982 195.952 46.5852 196.525 46.5852C196.889 46.5852 197.23 46.5024 197.547 46.3366C197.864 46.1662 198.12 45.9152 198.314 45.5838C198.513 45.2524 198.61 44.8428 198.605 44.3551ZM204.051 49V38.0909H207.077V49H204.051ZM205.571 36.6847C205.121 36.6847 204.735 36.5355 204.413 36.2372C204.096 35.9342 203.938 35.572 203.938 35.1506C203.938 34.7339 204.096 34.3764 204.413 34.0781C204.735 33.7751 205.121 33.6236 205.571 33.6236C206.021 33.6236 206.404 33.7751 206.722 34.0781C207.044 34.3764 207.205 34.7339 207.205 35.1506C207.205 35.572 207.044 35.9342 206.722 36.2372C206.404 36.5355 206.021 36.6847 205.571 36.6847ZM213.52 49.1776C212.692 49.1776 211.941 48.9645 211.269 48.5384C210.601 48.1075 210.071 47.4754 209.678 46.642C209.29 45.804 209.096 44.7765 209.096 43.5597C209.096 42.3097 209.297 41.2704 209.699 40.4418C210.102 39.6084 210.637 38.9858 211.304 38.5739C211.977 38.1572 212.713 37.9489 213.513 37.9489C214.124 37.9489 214.633 38.053 215.04 38.2614C215.452 38.465 215.783 38.7206 216.034 39.0284C216.29 39.3314 216.484 39.6297 216.617 39.9233H216.709V34.4545H219.728V49H216.745V47.2528H216.617C216.475 47.5559 216.274 47.8565 216.013 48.1548C215.757 48.4484 215.424 48.6922 215.012 48.8864C214.605 49.0805 214.107 49.1776 213.52 49.1776ZM214.479 46.7699C214.967 46.7699 215.379 46.6373 215.715 46.3722C216.056 46.1023 216.316 45.7259 216.496 45.2429C216.681 44.7599 216.773 44.1941 216.773 43.5455C216.773 42.8968 216.683 42.3333 216.503 41.8551C216.323 41.3769 216.063 41.0076 215.722 40.7472C215.381 40.4867 214.967 40.3565 214.479 40.3565C213.982 40.3565 213.563 40.4915 213.222 40.7614C212.881 41.0312 212.623 41.4053 212.448 41.8835C212.273 42.3617 212.185 42.9157 212.185 43.5455C212.185 44.1799 212.273 44.741 212.448 45.2287C212.628 45.7116 212.886 46.0904 213.222 46.3651C213.563 46.6349 213.982 46.7699 214.479 46.7699ZM227.187 49.2131C226.065 49.2131 225.099 48.9858 224.289 48.5312C223.484 48.072 222.864 47.4233 222.428 46.5852C221.993 45.7424 221.775 44.7457 221.775 43.5952C221.775 42.473 221.993 41.4882 222.428 40.6406C222.864 39.7931 223.477 39.1326 224.268 38.6591C225.063 38.1856 225.996 37.9489 227.066 37.9489C227.786 37.9489 228.456 38.0649 229.076 38.2969C229.701 38.5241 230.246 38.8674 230.71 39.3267C231.178 39.786 231.543 40.3636 231.803 41.0597C232.064 41.7509 232.194 42.5606 232.194 43.4886V44.3196H222.982V42.4446H229.346C229.346 42.009 229.251 41.6231 229.062 41.2869C228.872 40.9508 228.61 40.688 228.273 40.4986C227.942 40.3045 227.556 40.2074 227.116 40.2074C226.656 40.2074 226.249 40.3139 225.894 40.527C225.544 40.7353 225.269 41.017 225.07 41.3722C224.871 41.7225 224.77 42.1132 224.765 42.544V44.3267C224.765 44.8665 224.864 45.3329 225.063 45.7259C225.267 46.1188 225.553 46.4219 225.923 46.6349C226.292 46.848 226.73 46.9545 227.237 46.9545C227.573 46.9545 227.88 46.9072 228.16 46.8125C228.439 46.7178 228.678 46.5758 228.877 46.3864C229.076 46.197 229.228 45.965 229.332 45.6903L232.13 45.875C231.988 46.5473 231.697 47.1345 231.256 47.6364C230.821 48.1335 230.257 48.5218 229.566 48.8011C228.879 49.0758 228.086 49.2131 227.187 49.2131Z" fill="#5955B3"/>
</svg>
