<svg width="39" height="24" viewBox="0 0 39 24" fill="none" xmlns="http://www.w3.org/2000/svg">
<path fill-rule="evenodd" clip-rule="evenodd" d="M7.00008 17.8334C10.2217 17.8334 12.8334 15.2217 12.8334 12C12.8334 8.77836 10.2217 6.16669 7.00008 6.16669C3.77842 6.16669 1.16675 8.77836 1.16675 12C1.16675 15.2217 3.77842 17.8334 7.00008 17.8334Z" stroke="#D0D1D2" stroke-width="1.16667" stroke-linecap="round" stroke-linejoin="round"/>
<path d="M1.16675 12H12.8334" stroke="#D0D1D2" stroke-width="1.16667" stroke-linecap="round" stroke-linejoin="round"/>
<path fill-rule="evenodd" clip-rule="evenodd" d="M7.00008 6.16669C8.45916 7.76406 9.28835 9.83704 9.33341 12C9.28835 14.163 8.45916 16.236 7.00008 17.8334C5.541 16.236 4.71181 14.163 4.66675 12C4.71181 9.83704 5.541 7.76406 7.00008 6.16669V6.16669Z" stroke="#D0D1D2" stroke-width="1.16667" stroke-linecap="round" stroke-linejoin="round"/>
<path d="M18.4091 18V6.36364H25.4318V7.61364H19.8182V11.5455H25.0682V12.7955H19.8182V16.75H25.5227V18H18.4091ZM37.4989 6.36364V18H36.1352L29.7943 8.86364H29.6807V18H28.2716V6.36364H29.6352L35.9989 15.5227H36.1125V6.36364H37.4989Z" fill="#C1C4CC"/>
</svg>
