<svg width="220" height="64" viewBox="0 0 220 64" fill="none" xmlns="http://www.w3.org/2000/svg">
<g filter="url(#filter0_d_725_6524)">
<rect x="4" width="55" height="56" rx="8" fill="white"/>
<path d="M22.3316 7.00049L40.665 49.0005M21.8733 49.0005C18.0229 49.0005 16.0977 49.0005 14.6271 48.2375C13.3335 47.5664 12.2818 46.4956 11.6226 45.1784C10.8733 43.681 10.8733 41.7209 10.8733 37.8005V18.2005C10.8733 14.2801 10.8733 12.3199 11.6226 10.8226C12.2818 9.50542 13.3335 8.43456 14.6271 7.76344C16.0977 7.00049 18.0229 7.00049 21.8733 7.00049L24 10.8226L41.1233 7.00049C44.9737 7.00049 46.8988 7.00049 48.3695 7.76344C49.6631 8.43456 50.7148 9.50542 51.374 10.8226C52.1233 12.3199 52.1233 14.2801 52.1233 18.2005V37.8005C52.1233 41.7209 52.1233 43.681 51.374 45.1784C50.7148 46.4956 49.6631 47.5664 48.3695 48.2375C46.8988 49.0005 44.9737 49.0005 41.1233 49.0005L37.6092 42.0001L21.8733 49.0005Z" stroke="#5955B3" stroke-width="2" stroke-linecap="round" stroke-linejoin="round"/>
<path d="M46.4618 18.117V13.9993M43.2265 39.1586V35.0409M44.4397 16.0581H48.4839M41.2044 37.0998H45.2486M36.7559 13.1758L36.1214 14.4678C35.9067 14.9051 35.7993 15.1237 35.6559 15.3132C35.5286 15.4813 35.3806 15.632 35.2155 15.7616C35.0294 15.9077 34.8147 16.017 34.3852 16.2356L33.1162 16.8817L34.3852 17.5277C34.8147 17.7463 35.0294 17.8556 35.2155 18.0017C35.3806 18.1313 35.5286 18.282 35.6559 18.4501C35.7993 18.6396 35.9067 18.8582 36.1214 19.2955L36.7559 20.5875L37.3904 19.2955C37.6051 18.8582 37.7125 18.6396 37.8559 18.4501C37.9832 18.282 38.1312 18.1313 38.2964 18.0017C38.4824 17.8556 38.6972 17.7463 39.1266 17.5277L40.3956 16.8817L39.1266 16.2356C38.6972 16.017 38.4824 15.9077 38.2964 15.7616C38.1312 15.632 37.9832 15.4813 37.8559 15.3132C37.7125 15.1237 37.6051 14.9051 37.3904 14.4678L36.7559 13.1758ZM42.4177 22.9776L41.6484 24.5442C41.4337 24.9815 41.3263 25.2001 41.1829 25.3896C41.0556 25.5577 40.9075 25.7084 40.7424 25.838C40.5563 25.984 40.3416 26.0934 39.9121 26.312L38.3736 27.0953L39.9121 27.8786C40.3416 28.0972 40.5563 28.2065 40.7424 28.3526C40.9075 28.4822 41.0556 28.6329 41.1829 28.801C41.3263 28.9905 41.4337 29.2091 41.6484 29.6464L42.4177 31.2129L43.187 29.6464C43.4017 29.2091 43.5091 28.9905 43.6525 28.801C43.7798 28.6329 43.9278 28.4822 44.0929 28.3526C44.279 28.2065 44.4937 28.0972 44.9232 27.8786L46.4618 27.0953L44.9232 26.312C44.4937 26.0934 44.279 25.984 44.0929 25.838C43.9278 25.7084 43.7798 25.5577 43.6525 25.3896C43.5091 25.2001 43.4017 24.9815 43.187 24.5442L42.4177 22.9776Z" stroke="#5955B3" stroke-linecap="round" stroke-linejoin="round"/>
<path d="M20.2484 22.1958C20.1428 22.3186 20.0494 22.4571 19.9714 22.6103C19.4583 23.6182 19.8066 24.8799 20.7494 25.4285C21.6922 25.977 22.8724 25.6046 23.3855 24.5968C23.4719 24.427 23.5339 24.25 23.5727 24.0704M20.2484 22.1958C21.1073 21.8648 22.9747 21.7765 23.5727 24.0704M20.2484 22.1958C20.4289 21.9859 20.6451 21.8219 20.8811 21.7086M23.5727 24.0704C23.6664 23.6371 23.6252 23.1888 23.467 22.7904M20.8811 21.7086C21.416 21.4519 22.0528 21.4558 22.6075 21.7786C23.0082 22.0117 23.3015 22.3738 23.467 22.7904M20.8811 21.7086C21.3876 21.6425 22.6138 21.7663 23.467 22.7904" stroke="#5955B3" stroke-linecap="round"/>
<path d="M19.0867 29.2888C20.2386 29.2888 22.8015 29.1275 23.8382 28.4822C25.1341 27.6756 16.0629 43.4044 24.2702 40.5813" stroke="#5955B3" stroke-width="2" stroke-linecap="round"/>
</g>
<path d="M65.2642 21V6.45455H71.0028C72.1061 6.45455 73.0459 6.66525 73.8224 7.08665C74.599 7.50331 75.1908 8.08333 75.598 8.8267C76.0099 9.56534 76.2159 10.4176 76.2159 11.3835C76.2159 12.3494 76.0076 13.2017 75.5909 13.9403C75.1742 14.679 74.5705 15.2543 73.7798 15.6662C72.9938 16.0781 72.0421 16.2841 70.9247 16.2841H67.267V13.8196H70.4276C71.0194 13.8196 71.5071 13.7178 71.8906 13.5142C72.2789 13.3059 72.5677 13.0194 72.7571 12.6548C72.9512 12.2855 73.0483 11.8617 73.0483 11.3835C73.0483 10.9006 72.9512 10.4792 72.7571 10.1193C72.5677 9.75473 72.2789 9.47301 71.8906 9.27415C71.5024 9.07055 71.0099 8.96875 70.4134 8.96875H68.3395V21H65.2642ZM80.0245 25.0909C79.641 25.0909 79.2811 25.0601 78.945 24.9986C78.6135 24.9418 78.3389 24.8684 78.1211 24.7784L78.8029 22.5199C79.158 22.6288 79.4776 22.688 79.7617 22.6974C80.0505 22.7069 80.2991 22.6406 80.5075 22.4986C80.7205 22.3565 80.8933 22.1151 81.0259 21.7741L81.2035 21.3125L77.2901 10.0909H80.4719L82.7305 18.1023H82.8441L85.1239 10.0909H88.3271L84.087 22.179C83.8834 22.7661 83.6064 23.2775 83.256 23.7131C82.9104 24.1534 82.4724 24.492 81.9421 24.7287C81.4118 24.9702 80.7726 25.0909 80.0245 25.0909ZM89.8754 21V10.0909H92.9009V14.3239H93.7532L96.7219 10.0909H100.273L96.4165 15.5028L100.316 21H96.7219L94.0302 17.1293H92.9009V21H89.8754ZM106.074 21.2131C104.971 21.2131 104.017 20.9787 103.212 20.5099C102.411 20.0365 101.794 19.3783 101.358 18.5355C100.922 17.688 100.705 16.7055 100.705 15.5881C100.705 14.4612 100.922 13.4763 101.358 12.6335C101.794 11.786 102.411 11.1278 103.212 10.6591C104.017 10.1856 104.971 9.94886 106.074 9.94886C107.177 9.94886 108.129 10.1856 108.929 10.6591C109.734 11.1278 110.354 11.786 110.79 12.6335C111.225 13.4763 111.443 14.4612 111.443 15.5881C111.443 16.7055 111.225 17.688 110.79 18.5355C110.354 19.3783 109.734 20.0365 108.929 20.5099C108.129 20.9787 107.177 21.2131 106.074 21.2131ZM106.088 18.8693C106.59 18.8693 107.009 18.7273 107.345 18.4432C107.681 18.1544 107.935 17.7614 108.105 17.2642C108.28 16.767 108.368 16.2012 108.368 15.5668C108.368 14.9323 108.28 14.3665 108.105 13.8693C107.935 13.3722 107.681 12.9792 107.345 12.6903C107.009 12.4015 106.59 12.2571 106.088 12.2571C105.581 12.2571 105.155 12.4015 104.81 12.6903C104.469 12.9792 104.211 13.3722 104.036 13.8693C103.865 14.3665 103.78 14.9323 103.78 15.5668C103.78 16.2012 103.865 16.767 104.036 17.2642C104.211 17.7614 104.469 18.1544 104.81 18.4432C105.155 18.7273 105.581 18.8693 106.088 18.8693ZM113.411 21V10.0909H118.062C119.407 10.0909 120.47 10.3466 121.251 10.858C122.033 11.3693 122.423 12.0961 122.423 13.0384C122.423 13.6302 122.203 14.1226 121.763 14.5156C121.322 14.9086 120.712 15.1738 119.93 15.3111C120.584 15.3584 121.14 15.5076 121.599 15.7585C122.063 16.0047 122.416 16.3243 122.658 16.7173C122.904 17.1103 123.027 17.5459 123.027 18.0241C123.027 18.6444 122.861 19.1771 122.53 19.6222C122.203 20.0672 121.723 20.4081 121.088 20.6449C120.458 20.8816 119.689 21 118.78 21H113.411ZM116.23 18.7344H118.78C119.201 18.7344 119.53 18.6349 119.767 18.4361C120.009 18.2325 120.129 17.9555 120.129 17.6051C120.129 17.2169 120.009 16.9115 119.767 16.6889C119.53 16.4664 119.201 16.3551 118.78 16.3551H116.23V18.7344ZM116.23 14.5795H118.126C118.429 14.5795 118.688 14.5369 118.901 14.4517C119.118 14.3617 119.284 14.2339 119.398 14.0682C119.516 13.9025 119.575 13.706 119.575 13.4787C119.575 13.1425 119.44 12.8797 119.17 12.6903C118.901 12.5009 118.531 12.4062 118.062 12.4062H116.23V14.5795ZM129.863 21.2131C128.76 21.2131 127.806 20.9787 127.001 20.5099C126.201 20.0365 125.583 19.3783 125.147 18.5355C124.711 17.688 124.494 16.7055 124.494 15.5881C124.494 14.4612 124.711 13.4763 125.147 12.6335C125.583 11.786 126.201 11.1278 127.001 10.6591C127.806 10.1856 128.76 9.94886 129.863 9.94886C130.966 9.94886 131.918 10.1856 132.718 10.6591C133.523 11.1278 134.143 11.786 134.579 12.6335C135.014 13.4763 135.232 14.4612 135.232 15.5881C135.232 16.7055 135.014 17.688 134.579 18.5355C134.143 19.3783 133.523 20.0365 132.718 20.5099C131.918 20.9787 130.966 21.2131 129.863 21.2131ZM129.877 18.8693C130.379 18.8693 130.798 18.7273 131.134 18.4432C131.47 18.1544 131.724 17.7614 131.894 17.2642C132.069 16.767 132.157 16.2012 132.157 15.5668C132.157 14.9323 132.069 14.3665 131.894 13.8693C131.724 13.3722 131.47 12.9792 131.134 12.6903C130.798 12.4015 130.379 12.2571 129.877 12.2571C129.371 12.2571 128.944 12.4015 128.599 12.6903C128.258 12.9792 128 13.3722 127.825 13.8693C127.654 14.3665 127.569 14.9323 127.569 15.5668C127.569 16.2012 127.654 16.767 127.825 17.2642C128 17.7614 128.258 18.1544 128.599 18.4432C128.944 18.7273 129.371 18.8693 129.877 18.8693ZM136.347 24.196V18.5994H137.185C137.427 18.4479 137.621 18.2064 137.768 17.875C137.919 17.5436 138.042 17.1529 138.137 16.7031C138.237 16.2533 138.312 15.768 138.364 15.2472C138.421 14.7216 138.471 14.1913 138.513 13.6562L138.798 10.0909H147.164V18.5994H148.854V24.196H145.971V21H139.302V24.196H136.347ZM140.197 18.5994H144.309V12.4205H141.369L141.255 13.6562C141.174 14.821 141.058 15.8106 140.907 16.625C140.755 17.4347 140.519 18.0928 140.197 18.5994ZM155.547 21.2131C154.429 21.2131 153.468 20.9763 152.663 20.5028C151.863 20.0246 151.247 19.3617 150.816 18.5142C150.39 17.6667 150.177 16.6913 150.177 15.5881C150.177 14.4706 150.393 13.4905 150.824 12.6477C151.259 11.8002 151.877 11.1397 152.677 10.6662C153.477 10.188 154.429 9.94886 155.532 9.94886C156.484 9.94886 157.317 10.1217 158.032 10.4673C158.747 10.813 159.313 11.2983 159.73 11.9233C160.146 12.5483 160.376 13.2822 160.419 14.125H157.564C157.483 13.5805 157.27 13.1425 156.924 12.8111C156.583 12.4749 156.136 12.3068 155.582 12.3068C155.113 12.3068 154.704 12.4347 154.353 12.6903C154.008 12.9413 153.738 13.3082 153.544 13.7912C153.35 14.2741 153.252 14.8589 153.252 15.5455C153.252 16.2415 153.347 16.8333 153.537 17.321C153.731 17.8087 154.003 18.1804 154.353 18.4361C154.704 18.6918 155.113 18.8196 155.582 18.8196C155.928 18.8196 156.238 18.7486 156.512 18.6065C156.792 18.4645 157.021 18.2585 157.201 17.9886C157.386 17.714 157.507 17.3849 157.564 17.0014H160.419C160.371 17.8348 160.144 18.5687 159.737 19.2031C159.334 19.8329 158.778 20.3253 158.068 20.6804C157.358 21.0355 156.517 21.2131 155.547 21.2131ZM161.612 12.4702V10.0909H171.498V12.4702H167.983V21H165.099V12.4702H161.612ZM173.332 21V10.0909H177.984C179.329 10.0909 180.392 10.3466 181.173 10.858C181.955 11.3693 182.345 12.0961 182.345 13.0384C182.345 13.6302 182.125 14.1226 181.685 14.5156C181.244 14.9086 180.634 15.1738 179.852 15.3111C180.506 15.3584 181.062 15.5076 181.521 15.7585C181.985 16.0047 182.338 16.3243 182.58 16.7173C182.826 17.1103 182.949 17.5459 182.949 18.0241C182.949 18.6444 182.783 19.1771 182.452 19.6222C182.125 20.0672 181.644 20.4081 181.01 20.6449C180.38 20.8816 179.611 21 178.702 21H173.332ZM176.152 18.7344H178.702C179.123 18.7344 179.452 18.6349 179.689 18.4361C179.93 18.2325 180.051 17.9555 180.051 17.6051C180.051 17.2169 179.93 16.9115 179.689 16.6889C179.452 16.4664 179.123 16.3551 178.702 16.3551H176.152V18.7344ZM176.152 14.5795H178.048C178.351 14.5795 178.609 14.5369 178.822 14.4517C179.04 14.3617 179.206 14.2339 179.32 14.0682C179.438 13.9025 179.497 13.706 179.497 13.4787C179.497 13.1425 179.362 12.8797 179.092 12.6903C178.822 12.5009 178.453 12.4062 177.984 12.4062H176.152V14.5795ZM189.785 21.2131C188.682 21.2131 187.728 20.9787 186.923 20.5099C186.122 20.0365 185.504 19.3783 185.069 18.5355C184.633 17.688 184.415 16.7055 184.415 15.5881C184.415 14.4612 184.633 13.4763 185.069 12.6335C185.504 11.786 186.122 11.1278 186.923 10.6591C187.728 10.1856 188.682 9.94886 189.785 9.94886C190.888 9.94886 191.84 10.1856 192.64 10.6591C193.445 11.1278 194.065 11.786 194.501 12.6335C194.936 13.4763 195.154 14.4612 195.154 15.5881C195.154 16.7055 194.936 17.688 194.501 18.5355C194.065 19.3783 193.445 20.0365 192.64 20.5099C191.84 20.9787 190.888 21.2131 189.785 21.2131ZM189.799 18.8693C190.301 18.8693 190.72 18.7273 191.056 18.4432C191.392 18.1544 191.646 17.7614 191.816 17.2642C191.991 16.767 192.079 16.2012 192.079 15.5668C192.079 14.9323 191.991 14.3665 191.816 13.8693C191.646 13.3722 191.392 12.9792 191.056 12.6903C190.72 12.4015 190.301 12.2571 189.799 12.2571C189.292 12.2571 188.866 12.4015 188.521 12.6903C188.18 12.9792 187.922 13.3722 187.746 13.8693C187.576 14.3665 187.491 14.9323 187.491 15.5668C187.491 16.2012 187.576 16.767 187.746 17.2642C187.922 17.7614 188.18 18.1544 188.521 18.4432C188.866 18.7273 189.292 18.8693 189.799 18.8693ZM65.2074 49V38.0909H74.7457V49H71.8551V40.4702H68.0625V49H65.2074ZM82.1321 49.2131C81.0099 49.2131 80.044 48.9858 79.2344 48.5312C78.4295 48.072 77.8092 47.4233 77.3736 46.5852C76.938 45.7424 76.7202 44.7457 76.7202 43.5952C76.7202 42.473 76.938 41.4882 77.3736 40.6406C77.8092 39.7931 78.4223 39.1326 79.2131 38.6591C80.0085 38.1856 80.9413 37.9489 82.0114 37.9489C82.7311 37.9489 83.401 38.0649 84.0213 38.2969C84.6463 38.5241 85.1908 38.8674 85.6548 39.3267C86.1236 39.786 86.4882 40.3636 86.7486 41.0597C87.009 41.7509 87.1392 42.5606 87.1392 43.4886V44.3196H77.9276V42.4446H84.2912C84.2912 42.009 84.1965 41.6231 84.0071 41.2869C83.8177 40.9508 83.5549 40.688 83.2188 40.4986C82.8873 40.3045 82.5014 40.2074 82.0611 40.2074C81.6018 40.2074 81.1946 40.3139 80.8395 40.527C80.4891 40.7353 80.2145 41.017 80.0156 41.3722C79.8168 41.7225 79.715 42.1132 79.7102 42.544V44.3267C79.7102 44.8665 79.8097 45.3329 80.0085 45.7259C80.2121 46.1188 80.4986 46.4219 80.8679 46.6349C81.2372 46.848 81.6752 46.9545 82.1818 46.9545C82.518 46.9545 82.8258 46.9072 83.1051 46.8125C83.3845 46.7178 83.6236 46.5758 83.8224 46.3864C84.0213 46.197 84.1728 45.965 84.277 45.6903L87.0753 45.875C86.9332 46.5473 86.642 47.1345 86.2017 47.6364C85.7661 48.1335 85.2027 48.5218 84.5114 48.8011C83.8248 49.0758 83.0317 49.2131 82.1321 49.2131ZM89.1136 53.0909V38.0909H92.0966V39.9233H92.2315C92.3641 39.6297 92.5559 39.3314 92.8068 39.0284C93.0625 38.7206 93.3939 38.465 93.8011 38.2614C94.2131 38.053 94.7244 37.9489 95.3352 37.9489C96.1307 37.9489 96.8646 38.1572 97.5369 38.5739C98.2093 38.9858 98.7467 39.6084 99.1491 40.4418C99.5516 41.2704 99.7528 42.3097 99.7528 43.5597C99.7528 44.7765 99.5563 45.804 99.1634 46.642C98.7751 47.4754 98.2448 48.1075 97.5724 48.5384C96.9048 48.9645 96.1567 49.1776 95.3281 49.1776C94.741 49.1776 94.2415 49.0805 93.8295 48.8864C93.4223 48.6922 93.0885 48.4484 92.8281 48.1548C92.5677 47.8565 92.3688 47.5559 92.2315 47.2528H92.1392V53.0909H89.1136ZM92.0753 43.5455C92.0753 44.1941 92.1652 44.7599 92.3452 45.2429C92.5251 45.7259 92.7855 46.1023 93.1264 46.3722C93.4673 46.6373 93.8816 46.7699 94.3693 46.7699C94.8617 46.7699 95.2784 46.6349 95.6193 46.3651C95.9602 46.0904 96.2183 45.7116 96.3935 45.2287C96.5734 44.741 96.6634 44.1799 96.6634 43.5455C96.6634 42.9157 96.5758 42.3617 96.4006 41.8835C96.2254 41.4053 95.9673 41.0312 95.6264 40.7614C95.2855 40.4915 94.8665 40.3565 94.3693 40.3565C93.8769 40.3565 93.4602 40.4867 93.1193 40.7472C92.7831 41.0076 92.5251 41.3769 92.3452 41.8551C92.1652 42.3333 92.0753 42.8968 92.0753 43.5455ZM101.77 49V38.0909H106.422C107.767 38.0909 108.83 38.3466 109.611 38.858C110.392 39.3693 110.783 40.0961 110.783 41.0384C110.783 41.6302 110.563 42.1226 110.122 42.5156C109.682 42.9086 109.071 43.1738 108.29 43.3111C108.943 43.3584 109.5 43.5076 109.959 43.7585C110.423 44.0047 110.776 44.3243 111.017 44.7173C111.263 45.1103 111.386 45.5459 111.386 46.0241C111.386 46.6444 111.221 47.1771 110.889 47.6222C110.563 48.0672 110.082 48.4081 109.447 48.6449C108.818 48.8816 108.048 49 107.139 49H101.77ZM104.589 46.7344H107.139C107.561 46.7344 107.89 46.6349 108.126 46.4361C108.368 46.2325 108.489 45.9555 108.489 45.6051C108.489 45.2169 108.368 44.9115 108.126 44.6889C107.89 44.4664 107.561 44.3551 107.139 44.3551H104.589V46.7344ZM104.589 42.5795H106.486C106.789 42.5795 107.047 42.5369 107.26 42.4517C107.478 42.3617 107.643 42.2339 107.757 42.0682C107.875 41.9025 107.935 41.706 107.935 41.4787C107.935 41.1425 107.8 40.8797 107.53 40.6903C107.26 40.5009 106.891 40.4062 106.422 40.4062H104.589V42.5795ZM118.222 49.2131C117.119 49.2131 116.165 48.9787 115.36 48.5099C114.56 48.0365 113.942 47.3783 113.506 46.5355C113.071 45.688 112.853 44.7055 112.853 43.5881C112.853 42.4612 113.071 41.4763 113.506 40.6335C113.942 39.786 114.56 39.1278 115.36 38.6591C116.165 38.1856 117.119 37.9489 118.222 37.9489C119.326 37.9489 120.277 38.1856 121.077 38.6591C121.882 39.1278 122.503 39.786 122.938 40.6335C123.374 41.4763 123.592 42.4612 123.592 43.5881C123.592 44.7055 123.374 45.688 122.938 46.5355C122.503 47.3783 121.882 48.0365 121.077 48.5099C120.277 48.9787 119.326 49.2131 118.222 49.2131ZM118.237 46.8693C118.738 46.8693 119.157 46.7273 119.494 46.4432C119.83 46.1544 120.083 45.7614 120.254 45.2642C120.429 44.767 120.516 44.2012 120.516 43.5668C120.516 42.9323 120.429 42.3665 120.254 41.8693C120.083 41.3722 119.83 40.9792 119.494 40.6903C119.157 40.4015 118.738 40.2571 118.237 40.2571C117.73 40.2571 117.304 40.4015 116.958 40.6903C116.617 40.9792 116.359 41.3722 116.184 41.8693C116.013 42.3665 115.928 42.9323 115.928 43.5668C115.928 44.2012 116.013 44.767 116.184 45.2642C116.359 45.7614 116.617 46.1544 116.958 46.4432C117.304 46.7273 117.73 46.8693 118.237 46.8693ZM125.559 49V38.0909H128.585V42.3239H129.437L132.406 38.0909H135.957L132.1 43.5028L135.999 49H132.406L129.714 45.1293H128.585V49H125.559ZM139.321 53.0909C138.938 53.0909 138.578 53.0601 138.242 52.9986C137.91 52.9418 137.636 52.8684 137.418 52.7784L138.1 50.5199C138.455 50.6288 138.775 50.688 139.059 50.6974C139.347 50.7069 139.596 50.6406 139.804 50.4986C140.017 50.3565 140.19 50.1151 140.323 49.7741L140.5 49.3125L136.587 38.0909H139.769L142.027 46.1023H142.141L144.421 38.0909H147.624L143.384 50.179C143.18 50.7661 142.903 51.2775 142.553 51.7131C142.207 52.1534 141.769 52.492 141.239 52.7287C140.709 52.9702 140.069 53.0909 139.321 53.0909ZM149.172 53.0909V38.0909H152.155V39.9233H152.29C152.423 39.6297 152.614 39.3314 152.865 39.0284C153.121 38.7206 153.453 38.465 153.86 38.2614C154.272 38.053 154.783 37.9489 155.394 37.9489C156.189 37.9489 156.923 38.1572 157.596 38.5739C158.268 38.9858 158.805 39.6084 159.208 40.4418C159.61 41.2704 159.811 42.3097 159.811 43.5597C159.811 44.7765 159.615 45.804 159.222 46.642C158.834 47.4754 158.303 48.1075 157.631 48.5384C156.963 48.9645 156.215 49.1776 155.387 49.1776C154.8 49.1776 154.3 49.0805 153.888 48.8864C153.481 48.6922 153.147 48.4484 152.887 48.1548C152.626 47.8565 152.427 47.5559 152.29 47.2528H152.198V53.0909H149.172ZM152.134 43.5455C152.134 44.1941 152.224 44.7599 152.404 45.2429C152.584 45.7259 152.844 46.1023 153.185 46.3722C153.526 46.6373 153.94 46.7699 154.428 46.7699C154.92 46.7699 155.337 46.6349 155.678 46.3651C156.019 46.0904 156.277 45.7116 156.452 45.2287C156.632 44.741 156.722 44.1799 156.722 43.5455C156.722 42.9157 156.634 42.3617 156.459 41.8835C156.284 41.4053 156.026 41.0312 155.685 40.7614C155.344 40.4915 154.925 40.3565 154.428 40.3565C153.935 40.3565 153.519 40.4867 153.178 40.7472C152.842 41.0076 152.584 41.3769 152.404 41.8551C152.224 42.3333 152.134 42.8968 152.134 43.5455ZM166.757 49.2131C165.64 49.2131 164.679 48.9763 163.874 48.5028C163.074 48.0246 162.458 47.3617 162.027 46.5142C161.601 45.6667 161.388 44.6913 161.388 43.5881C161.388 42.4706 161.604 41.4905 162.034 40.6477C162.47 39.8002 163.088 39.1397 163.888 38.6662C164.688 38.188 165.64 37.9489 166.743 37.9489C167.695 37.9489 168.528 38.1217 169.243 38.4673C169.958 38.813 170.524 39.2983 170.941 39.9233C171.357 40.5483 171.587 41.2822 171.63 42.125H168.775C168.694 41.5805 168.481 41.1425 168.135 40.8111C167.794 40.4749 167.347 40.3068 166.793 40.3068C166.324 40.3068 165.915 40.4347 165.564 40.6903C165.219 40.9413 164.949 41.3082 164.755 41.7912C164.56 42.2741 164.463 42.8589 164.463 43.5455C164.463 44.2415 164.558 44.8333 164.748 45.321C164.942 45.8087 165.214 46.1804 165.564 46.4361C165.915 46.6918 166.324 46.8196 166.793 46.8196C167.139 46.8196 167.449 46.7486 167.723 46.6065C168.003 46.4645 168.232 46.2585 168.412 45.9886C168.597 45.714 168.718 45.3849 168.775 45.0014H171.63C171.582 45.8348 171.355 46.5687 170.948 47.2031C170.545 47.8329 169.989 48.3253 169.279 48.6804C168.569 49.0355 167.728 49.2131 166.757 49.2131ZM181.159 42.3381V44.7173H175.463V42.3381H181.159ZM176.457 38.0909V49H173.567V38.0909H176.457ZM183.055 38.0909V49H180.186V38.0909H183.055ZM188.293 45.0085L192.221 38.0909H195.204V49H192.32V42.0611L188.407 49H185.403V38.0909H188.293V45.0085ZM197.629 49V38.0909H200.655V42.3239H201.507L204.476 38.0909H208.027L204.17 43.5028L208.07 49H204.476L201.784 45.1293H200.655V49H197.629ZM212.459 49.206C211.763 49.206 211.143 49.0852 210.598 48.8438C210.054 48.5975 209.623 48.2353 209.305 47.7571C208.993 47.2741 208.837 46.6728 208.837 45.9531C208.837 45.3471 208.948 44.8381 209.17 44.4261C209.393 44.0142 209.696 43.6828 210.08 43.4318C210.463 43.1809 210.899 42.9915 211.386 42.8636C211.879 42.7358 212.395 42.6458 212.935 42.5938C213.569 42.5275 214.08 42.4659 214.469 42.4091C214.857 42.3475 215.139 42.2576 215.314 42.1392C215.489 42.0208 215.577 41.8456 215.577 41.6136V41.571C215.577 41.1212 215.435 40.7732 215.151 40.527C214.871 40.2808 214.473 40.1577 213.957 40.1577C213.413 40.1577 212.98 40.2784 212.658 40.5199C212.336 40.7566 212.123 41.0549 212.018 41.4148L209.22 41.1875C209.362 40.5246 209.642 39.9517 210.058 39.4688C210.475 38.9811 211.012 38.607 211.67 38.3466C212.333 38.0814 213.1 37.9489 213.972 37.9489C214.578 37.9489 215.158 38.0199 215.712 38.1619C216.27 38.304 216.765 38.5241 217.196 38.8224C217.632 39.1207 217.975 39.5043 218.226 39.973C218.477 40.437 218.602 40.9934 218.602 41.642V49H215.733V47.4872H215.648C215.473 47.8281 215.238 48.1288 214.945 48.3892C214.651 48.6449 214.298 48.8461 213.886 48.9929C213.474 49.1349 212.999 49.206 212.459 49.206ZM213.325 47.1179C213.77 47.1179 214.163 47.0303 214.504 46.8551C214.845 46.6752 215.113 46.4337 215.307 46.1307C215.501 45.8277 215.598 45.4844 215.598 45.1009V43.9432C215.503 44.0047 215.373 44.0616 215.207 44.1136C215.046 44.161 214.864 44.206 214.661 44.2486C214.457 44.2865 214.253 44.322 214.05 44.3551C213.846 44.3835 213.661 44.4096 213.496 44.4332C213.141 44.4853 212.83 44.5682 212.565 44.6818C212.3 44.7955 212.094 44.9493 211.947 45.1435C211.801 45.3329 211.727 45.5696 211.727 45.8537C211.727 46.2656 211.876 46.5805 212.175 46.7983C212.478 47.0114 212.861 47.1179 213.325 47.1179Z" fill="#6663CF"/>
<defs>
<filter id="filter0_d_725_6524" x="0" y="0" width="63" height="64" filterUnits="userSpaceOnUse" color-interpolation-filters="sRGB">
<feFlood flood-opacity="0" result="BackgroundImageFix"/>
<feColorMatrix in="SourceAlpha" type="matrix" values="0 0 0 0 0 0 0 0 0 0 0 0 0 0 0 0 0 0 127 0" result="hardAlpha"/>
<feOffset dy="4"/>
<feGaussianBlur stdDeviation="2"/>
<feComposite in2="hardAlpha" operator="out"/>
<feColorMatrix type="matrix" values="0 0 0 0 0 0 0 0 0 0 0 0 0 0 0 0 0 0 0.25 0"/>
<feBlend mode="normal" in2="BackgroundImageFix" result="effect1_dropShadow_725_6524"/>
<feBlend mode="normal" in="SourceGraphic" in2="effect1_dropShadow_725_6524" result="shape"/>
</filter>
</defs>
</svg>
