<svg width="233" height="73" viewBox="0 0 233 73" fill="none" xmlns="http://www.w3.org/2000/svg">
<path d="M18.3316 24.0004L36.665 66.0004M17.8733 66.0004C14.0229 66.0004 12.0977 66.0004 10.6271 65.2374C9.33349 64.5663 8.28175 63.4954 7.62262 62.1783C6.87329 60.6809 6.87329 58.7207 6.87329 54.8004V35.2004C6.87329 31.28 6.87329 29.3198 7.62262 27.8224C8.28175 26.5053 9.33349 25.4344 10.6271 24.7633C12.0977 24.0004 14.0229 24.0004 17.8733 24.0004L20 27.8224L37.1233 24.0004C40.9737 24.0004 42.8988 24.0004 44.3695 24.7633C45.6631 25.4344 46.7148 26.5053 47.374 27.8224C48.1233 29.3198 48.1233 31.28 48.1233 35.2004V54.8004C48.1233 58.7207 48.1233 60.6809 47.374 62.1783C46.7148 63.4954 45.6631 64.5663 44.3695 65.2374C42.8988 66.0004 40.9737 66.0004 37.1233 66.0004L33.6092 59L17.8733 66.0004Z" stroke="#5955B3" stroke-width="2" stroke-linecap="round" stroke-linejoin="round"/>
<path d="M42.4618 35.1172V30.9996M39.2265 56.1588V52.0412M40.4397 33.0584H44.4839M37.2044 54.1H41.2486M32.7559 30.176L32.1214 31.4681C31.9067 31.9054 31.7993 32.124 31.6559 32.3135C31.5286 32.4816 31.3806 32.6323 31.2155 32.7619C31.0294 32.9079 30.8147 33.0172 30.3852 33.2359L29.1162 33.8819L30.3852 34.5279C30.8147 34.7466 31.0294 34.8559 31.2155 35.0019C31.3806 35.1315 31.5286 35.2822 31.6559 35.4504C31.7993 35.6398 31.9067 35.8585 32.1214 36.2957L32.7559 37.5878L33.3904 36.2957C33.6051 35.8585 33.7125 35.6398 33.8559 35.4504C33.9832 35.2822 34.1312 35.1315 34.2964 35.0019C34.4824 34.8559 34.6972 34.7466 35.1266 34.5279L36.3956 33.8819L35.1266 33.2359C34.6972 33.0172 34.4824 32.9079 34.2964 32.7619C34.1312 32.6323 33.9832 32.4816 33.8559 32.3135C33.7125 32.124 33.6051 31.9054 33.3904 31.4681L32.7559 30.176ZM38.4177 39.9779L37.6484 41.5444C37.4337 41.9817 37.3263 42.2003 37.1829 42.3898C37.0556 42.5579 36.9075 42.7086 36.7424 42.8382C36.5563 42.9843 36.3416 43.0936 35.9121 43.3122L34.3736 44.0955L35.9121 44.8788C36.3416 45.0974 36.5563 45.2068 36.7424 45.3528C36.9075 45.4824 37.0556 45.6331 37.1829 45.8012C37.3263 45.9907 37.4337 46.2093 37.6484 46.6466L38.4177 48.2132L39.187 46.6466C39.4017 46.2093 39.5091 45.9907 39.6525 45.8012C39.7798 45.6331 39.9278 45.4824 40.0929 45.3528C40.279 45.2068 40.4937 45.0974 40.9232 44.8788L42.4618 44.0955L40.9232 43.3122C40.4937 43.0936 40.279 42.9843 40.0929 42.8382C39.9278 42.7087 39.7798 42.5579 39.6525 42.3898C39.5091 42.2003 39.4017 41.9817 39.187 41.5444L38.4177 39.9779Z" stroke="#5955B3" stroke-linecap="round" stroke-linejoin="round"/>
<path d="M16.2484 39.1954C16.1428 39.3182 16.0494 39.4567 15.9714 39.6099C15.4583 40.6178 15.8066 41.8796 16.7494 42.4281C17.6922 42.9766 18.8724 42.6043 19.3855 41.5964C19.4719 41.4266 19.5339 41.2496 19.5727 41.0701M16.2484 39.1954C17.1073 38.8645 18.9747 38.7761 19.5727 41.0701M16.2484 39.1954C16.4289 38.9856 16.6451 38.8215 16.8811 38.7082M19.5727 41.0701C19.6664 40.6368 19.6252 40.1884 19.467 39.79M16.8811 38.7082C17.416 38.4515 18.0528 38.4555 18.6075 38.7782C19.0082 39.0114 19.3015 39.3734 19.467 39.79M16.8811 38.7082C17.3876 38.6421 18.6138 38.7659 19.467 39.79" stroke="#5955B3" stroke-linecap="round"/>
<path d="M15.0867 46.2887C16.2386 46.2887 18.8015 46.1274 19.8382 45.4821C21.1341 44.6755 12.0629 60.4043 20.2702 57.5812" stroke="#5955B3" stroke-width="2" stroke-linecap="round"/>
<path d="M63.8953 48.2L64.8753 45.66C65.3686 45.8733 65.842 46.0333 66.2953 46.14C66.7486 46.2467 67.202 46.3 67.6553 46.3C68.122 46.3 68.5086 46.26 68.8153 46.18C69.1353 46.0867 69.3753 45.9533 69.5353 45.78C69.6953 45.6067 69.7753 45.4 69.7753 45.16C69.7753 44.9333 69.702 44.62 69.5553 44.22C69.422 43.82 69.1753 43.3 68.8153 42.66C68.4553 42.0067 67.9286 41.2 67.2353 40.24L69.6153 38.66C70.2553 39.5667 70.8086 40.4533 71.2753 41.32C71.742 42.1733 72.102 42.9733 72.3553 43.72C72.622 44.4533 72.7553 45.1 72.7553 45.66C72.7553 46.3533 72.5686 46.96 72.1953 47.48C71.8353 47.9867 71.2953 48.3867 70.5753 48.68C69.8686 48.9733 68.9953 49.12 67.9553 49.12C67.5686 49.12 67.1353 49.0867 66.6553 49.02C66.1753 48.9533 65.6886 48.8533 65.1953 48.72C64.7153 48.5867 64.282 48.4133 63.8953 48.2ZM73.5273 49.1L73.7273 46.3C74.3407 46.3 74.7807 46.24 75.0473 46.12C75.314 45.9867 75.474 45.7467 75.5273 45.4C75.5807 45.04 75.594 44.52 75.5673 43.84L75.2073 34.36H78.0273L78.4273 44.04C78.454 44.8133 78.4207 45.5133 78.3273 46.14C78.2473 46.7533 78.0407 47.28 77.7073 47.72C77.3873 48.16 76.8873 48.5 76.2073 48.74C75.5407 48.98 74.6473 49.1 73.5273 49.1ZM79.4648 49.1L79.6648 46.3C80.1448 46.3 80.5582 46.2533 80.9048 46.16C81.2515 46.0667 81.5448 45.88 81.7848 45.6C82.0248 45.3067 82.2248 44.88 82.3848 44.32C82.5582 43.76 82.7115 43.0133 82.8448 42.08L85.4648 42.52C85.4382 42.72 85.3982 42.9533 85.3448 43.22C85.3048 43.4867 85.2648 43.76 85.2248 44.04C85.1982 44.3067 85.1848 44.56 85.1848 44.8C85.1848 45.04 85.2315 45.2533 85.3248 45.44C85.4182 45.6267 85.5648 45.7867 85.7648 45.92C85.9782 46.04 86.2515 46.1333 86.5848 46.2C86.9315 46.2667 87.3515 46.3 87.8448 46.3C88.3515 46.3 88.7115 46.4333 88.9248 46.7C89.1382 46.9533 89.2448 47.2733 89.2448 47.66C89.2448 48.0733 89.1048 48.42 88.8248 48.7C88.5582 48.9667 88.1648 49.1 87.6448 49.1C87.0448 49.1 86.4982 49.0533 86.0048 48.96C85.5248 48.8667 85.1048 48.7133 84.7448 48.5C84.3982 48.2733 84.1115 47.98 83.8848 47.62C83.6715 47.2467 83.5382 46.7933 83.4848 46.26H84.4448C84.2048 46.9 83.8982 47.4133 83.5248 47.8C83.1648 48.1733 82.7582 48.4533 82.3048 48.64C81.8515 48.8267 81.3782 48.9467 80.8848 49C80.4048 49.0667 79.9315 49.1 79.4648 49.1ZM85.0448 53.74C84.6582 53.74 84.3248 53.6 84.0448 53.32C83.7782 53.0533 83.6448 52.7333 83.6448 52.36C83.6448 51.9733 83.7782 51.64 84.0448 51.36C84.3248 51.08 84.6582 50.94 85.0448 50.94C85.4182 50.94 85.7382 51.08 86.0048 51.36C86.2715 51.64 86.4048 51.9733 86.4048 52.36C86.4048 52.7333 86.2715 53.0533 86.0048 53.32C85.7382 53.6 85.4182 53.74 85.0448 53.74ZM81.5848 53.74C81.1982 53.74 80.8648 53.6 80.5848 53.32C80.3182 53.0533 80.1848 52.7333 80.1848 52.36C80.1848 51.9733 80.3182 51.64 80.5848 51.36C80.8648 51.08 81.1982 50.94 81.5848 50.94C81.9582 50.94 82.2782 51.08 82.5448 51.36C82.8115 51.64 82.9448 51.9733 82.9448 52.36C82.9448 52.7333 82.8115 53.0533 82.5448 53.32C82.2782 53.6 81.9582 53.74 81.5848 53.74ZM88.1684 48.44C88.1684 48.1333 88.1951 47.7733 88.2484 47.36C88.3018 46.9467 88.4018 46.48 88.5484 45.96C88.6951 45.4267 88.9151 44.8333 89.2084 44.18L91.6684 45.04C91.5218 45.4533 91.3951 45.8333 91.2884 46.18C91.1818 46.5133 91.1018 46.8267 91.0484 47.12C90.9951 47.4 90.9684 47.68 90.9684 47.96C90.9684 48.56 91.1151 49.08 91.4084 49.52C91.7151 49.9733 92.1284 50.32 92.6484 50.56C93.1818 50.8133 93.7951 50.94 94.4884 50.94C95.6218 50.94 96.4884 50.7533 97.0884 50.38C97.7018 50.02 98.1151 49.4467 98.3284 48.66C98.5551 47.86 98.6418 46.8267 98.5884 45.56L98.1884 34.36H101.008L101.308 43.82C101.335 44.4867 101.428 45 101.588 45.36C101.748 45.72 101.995 45.9667 102.328 46.1C102.675 46.2333 103.122 46.3 103.668 46.3C104.175 46.3 104.535 46.4333 104.748 46.7C104.962 46.9533 105.068 47.2733 105.068 47.66C105.068 48.0733 104.928 48.42 104.648 48.7C104.368 48.9667 103.975 49.1 103.468 49.1C103.175 49.1 102.862 49.06 102.528 48.98C102.195 48.9 101.875 48.7733 101.568 48.6C101.262 48.4267 100.995 48.2 100.768 47.92C100.542 47.6267 100.388 47.2667 100.308 46.84L101.388 46.3C101.388 47.6467 101.228 48.7867 100.908 49.72C100.602 50.6533 100.148 51.4067 99.5484 51.98C98.9618 52.5533 98.2351 52.9667 97.3684 53.22C96.5151 53.4867 95.5284 53.62 94.4084 53.62C93.5551 53.62 92.7484 53.5133 91.9884 53.3C91.2418 53.0867 90.5818 52.7667 90.0084 52.34C89.4351 51.9133 88.9818 51.3733 88.6484 50.72C88.3284 50.08 88.1684 49.32 88.1684 48.44ZM109.698 49L109.278 34.36H112.078L112.498 49H109.698ZM113.566 49.1L113.766 46.3C114.38 46.3 114.82 46.24 115.086 46.12C115.353 45.9867 115.513 45.7467 115.566 45.4C115.62 45.04 115.633 44.52 115.606 43.84L115.246 34.36H118.066L118.466 44.04C118.493 44.8133 118.46 45.5133 118.366 46.14C118.286 46.7533 118.08 47.28 117.746 47.72C117.426 48.16 116.926 48.5 116.246 48.74C115.58 48.98 114.686 49.1 113.566 49.1ZM134.724 49.1C134.044 49.1 133.391 49.04 132.764 48.92C132.137 48.7867 131.571 48.6133 131.064 48.4C130.571 48.1867 130.164 47.9467 129.844 47.68L131.644 45.74C132.124 45.94 132.617 46.0867 133.124 46.18C133.631 46.26 134.231 46.3 134.924 46.3C135.431 46.3 135.791 46.4333 136.004 46.7C136.231 46.9533 136.344 47.2733 136.344 47.66C136.344 48.0733 136.204 48.42 135.924 48.7C135.644 48.9667 135.244 49.1 134.724 49.1ZM119.504 49.1L119.704 46.3H124.184C125.437 46.3 126.477 46.2533 127.304 46.16C128.144 46.0667 128.811 45.9333 129.304 45.76C129.797 45.5733 130.144 45.36 130.344 45.12C130.557 44.88 130.664 44.62 130.664 44.34C130.664 44.0867 130.604 43.8467 130.484 43.62C130.364 43.38 130.184 43.1867 129.944 43.04C129.704 42.8933 129.391 42.82 129.004 42.82C128.511 42.82 128.017 42.94 127.524 43.18C127.031 43.4067 126.551 43.72 126.084 44.12C125.617 44.5067 125.171 44.94 124.744 45.42C124.331 45.9 123.951 46.3867 123.604 46.88L120.584 46.46C121.144 45.5933 121.751 44.7733 122.404 44C123.071 43.2133 123.771 42.5267 124.504 41.94C125.251 41.34 126.017 40.8733 126.804 40.54C127.604 40.1933 128.417 40.02 129.244 40.02C130.124 40.02 130.877 40.2 131.504 40.56C132.131 40.92 132.611 41.4133 132.944 42.04C133.291 42.6667 133.464 43.3933 133.464 44.22C133.464 45.0867 133.217 45.8667 132.724 46.56C132.244 47.2533 131.424 47.8267 130.264 48.28C129.771 48.4667 129.237 48.62 128.664 48.74C128.091 48.86 127.417 48.9467 126.644 49C125.871 49.0667 124.944 49.1 123.864 49.1H119.504ZM121.584 47.06L121.164 34.36H123.964L124.324 43.96L121.584 47.06ZM141.078 49.1C139.838 49.1 138.878 48.9733 138.198 48.72C137.532 48.4667 137.065 48.0733 136.798 47.54C136.532 46.9933 136.378 46.3067 136.338 45.48L135.918 34.36H138.718L139.138 44.14C139.165 44.7533 139.232 45.2133 139.338 45.52C139.445 45.8267 139.645 46.0333 139.938 46.14C140.245 46.2467 140.692 46.3 141.278 46.3C141.785 46.3 142.145 46.4333 142.358 46.7C142.585 46.9533 142.698 47.2733 142.698 47.66C142.698 48.0733 142.558 48.42 142.278 48.7C141.998 48.9667 141.598 49.1 141.078 49.1ZM141.105 49.1L141.305 46.3C141.919 46.3 142.359 46.24 142.625 46.12C142.892 45.9867 143.052 45.7467 143.105 45.4C143.159 45.04 143.172 44.52 143.145 43.84L142.785 34.36H145.605L146.005 44.04C146.032 44.8133 145.999 45.5133 145.905 46.14C145.825 46.7533 145.619 47.28 145.285 47.72C144.965 48.16 144.465 48.5 143.785 48.74C143.119 48.98 142.225 49.1 141.105 49.1ZM155.543 49.42L156.063 46.62C157.023 46.62 157.943 46.5733 158.823 46.48C159.716 46.3867 160.563 46.2 161.363 45.92C162.176 45.64 162.936 45.2267 163.643 44.68C164.35 44.1333 164.99 43.4 165.563 42.48L167.803 43.5C167.723 43.7533 167.656 44 167.603 44.24C167.55 44.4667 167.523 44.6533 167.523 44.8C167.523 45.1067 167.596 45.3733 167.743 45.6C167.903 45.8267 168.17 46 168.543 46.12C168.916 46.24 169.43 46.3 170.083 46.3C170.59 46.3 170.95 46.4333 171.163 46.7C171.376 46.9533 171.483 47.2733 171.483 47.66C171.483 48.0733 171.343 48.42 171.063 48.7C170.796 48.9667 170.403 49.1 169.883 49.1C168.963 49.1 168.163 48.9733 167.483 48.72C166.816 48.4667 166.29 48.1133 165.903 47.66C165.53 47.1933 165.31 46.66 165.243 46.06L166.043 46.14C165.563 46.7133 164.963 47.2067 164.243 47.62C163.536 48.0333 162.73 48.3733 161.823 48.64C160.93 48.9067 159.95 49.1 158.883 49.22C157.83 49.3533 156.716 49.42 155.543 49.42ZM155.523 49.42C154.083 49.42 152.863 49.3067 151.863 49.08C150.876 48.8667 150.07 48.56 149.443 48.16C148.83 47.7467 148.383 47.2667 148.103 46.72C147.823 46.1733 147.683 45.5733 147.683 44.92C147.683 44.4933 147.716 44.0667 147.783 43.64C147.863 43.2 147.956 42.7733 148.063 42.36C148.183 41.9467 148.29 41.5733 148.383 41.24L150.883 41.82C150.83 42.06 150.77 42.32 150.703 42.6C150.636 42.88 150.583 43.1533 150.543 43.42C150.503 43.6733 150.483 43.9067 150.483 44.12C150.483 44.6133 150.656 45.0533 151.003 45.44C151.363 45.8133 151.95 46.1067 152.763 46.32C153.576 46.52 154.67 46.62 156.043 46.62L156.443 48.78L155.523 49.42ZM156.963 54.1C156.576 54.1 156.243 53.9667 155.963 53.7C155.696 53.4333 155.563 53.1067 155.563 52.72C155.563 52.3333 155.696 51.9933 155.963 51.7C156.243 51.42 156.576 51.28 156.963 51.28C157.35 51.28 157.676 51.42 157.943 51.7C158.223 51.9933 158.363 52.3333 158.363 52.72C158.363 53.1067 158.223 53.4333 157.943 53.7C157.676 53.9667 157.35 54.1 156.963 54.1ZM176.104 49L175.684 34.36H178.484L178.904 49H176.104ZM179.973 49.1L180.173 46.3C180.786 46.3 181.226 46.24 181.493 46.12C181.759 45.9867 181.919 45.7467 181.973 45.4C182.026 45.04 182.039 44.52 182.013 43.84L181.653 34.36H184.473L184.873 44.04C184.899 44.8133 184.866 45.5133 184.773 46.14C184.693 46.7533 184.486 47.28 184.153 47.72C183.833 48.16 183.333 48.5 182.653 48.74C181.986 48.98 181.093 49.1 179.973 49.1ZM198.99 49.1C198.377 49.1 197.803 49.0533 197.27 48.96C196.75 48.8667 196.27 48.7067 195.83 48.48C195.39 48.24 194.997 47.9133 194.65 47.5C194.317 47.0867 194.037 46.5667 193.81 45.94L195.39 44.68C195.63 45.1067 195.923 45.44 196.27 45.68C196.617 45.9067 197.03 46.0667 197.51 46.16C197.99 46.2533 198.55 46.3 199.19 46.3C199.697 46.3 200.057 46.4333 200.27 46.7C200.483 46.9533 200.59 47.2733 200.59 47.66C200.59 48.0733 200.45 48.42 200.17 48.7C199.903 48.9667 199.51 49.1 198.99 49.1ZM185.91 49.1L186.11 46.3C186.83 46.3 187.543 46.26 188.25 46.18C188.957 46.1 189.643 45.98 190.31 45.82C190.977 45.66 191.61 45.4533 192.21 45.2C192.823 44.9467 193.397 44.64 193.93 44.28C193.53 44.04 193.097 43.8333 192.63 43.66C192.163 43.4867 191.663 43.36 191.13 43.28C190.61 43.1867 190.057 43.14 189.47 43.14C189.257 43.14 189.03 43.1467 188.79 43.16C188.563 43.1733 188.33 43.2 188.09 43.24C187.85 43.2667 187.61 43.3067 187.37 43.36L186.97 40.62C187.357 40.5133 187.763 40.44 188.19 40.4C188.63 40.3467 189.017 40.32 189.35 40.32C190.07 40.32 190.73 40.4 191.33 40.56C191.943 40.72 192.503 40.92 193.01 41.16C193.53 41.4 194.01 41.64 194.45 41.88C194.903 42.12 195.33 42.32 195.73 42.48C196.143 42.64 196.543 42.72 196.93 42.72H197.67L197.99 45.38C197.417 45.4067 196.877 45.52 196.37 45.72C195.877 45.9067 195.383 46.1467 194.89 46.44C194.41 46.72 193.89 47.0133 193.33 47.32C192.783 47.6267 192.163 47.9133 191.47 48.18C190.777 48.4467 189.977 48.6667 189.07 48.84C188.163 49.0133 187.11 49.1 185.91 49.1ZM191.57 53.6C191.183 53.6 190.85 53.4667 190.57 53.2C190.303 52.9333 190.17 52.6067 190.17 52.22C190.17 51.8333 190.303 51.4933 190.57 51.2C190.85 50.92 191.183 50.78 191.57 50.78C191.957 50.78 192.283 50.92 192.55 51.2C192.83 51.4933 192.97 51.8333 192.97 52.22C192.97 52.6067 192.83 52.9333 192.55 53.2C192.283 53.4667 191.957 53.6 191.57 53.6ZM203.356 46.3C203.956 46.3 204.416 46.2467 204.736 46.14C205.056 46.0333 205.276 45.8933 205.396 45.72C205.516 45.5467 205.576 45.36 205.576 45.16C205.576 44.84 205.483 44.4667 205.296 44.04C205.123 43.6133 204.903 43.1667 204.636 42.7C204.369 42.2333 204.089 41.7867 203.796 41.36C203.516 40.9333 203.263 40.56 203.036 40.24L205.416 38.66C205.989 39.4333 206.483 40.2 206.896 40.96C207.309 41.7067 207.643 42.4 207.896 43.04C208.163 43.68 208.349 44.2267 208.456 44.68C208.563 45.1067 208.723 45.44 208.936 45.68C209.163 45.9067 209.423 46.0667 209.716 46.16C210.009 46.2533 210.303 46.3 210.596 46.3C211.103 46.3 211.463 46.4333 211.676 46.7C211.903 46.9533 212.016 47.2733 212.016 47.66C212.016 48.0733 211.876 48.42 211.596 48.7C211.329 48.9667 210.929 49.1 210.396 49.1C209.809 49.1 209.296 49.02 208.856 48.86C208.416 48.7 208.043 48.4467 207.736 48.1C207.429 47.7533 207.169 47.3133 206.956 46.78L208.176 47.04C208.069 47.4133 207.823 47.76 207.436 48.08C207.063 48.3867 206.563 48.64 205.936 48.84C205.323 49.0267 204.596 49.12 203.756 49.12C203.356 49.12 202.909 49.0867 202.416 49.02C201.936 48.9533 201.456 48.8533 200.976 48.72C200.509 48.5867 200.083 48.4133 199.696 48.2L200.676 45.66C201.169 45.8733 201.643 46.0333 202.096 46.14C202.563 46.2467 202.983 46.3 203.356 46.3ZM210.422 49.1L210.622 46.3C211.422 46.3 212.035 46.26 212.462 46.18C212.889 46.1 213.182 45.9533 213.342 45.74C213.515 45.5133 213.602 45.1933 213.602 44.78C213.602 44.4067 213.549 43.96 213.442 43.44C213.349 42.92 213.222 42.38 213.062 41.82C212.915 41.26 212.755 40.7467 212.582 40.28L215.342 39.52C215.515 39.9733 215.682 40.5 215.842 41.1C216.002 41.7 216.135 42.32 216.242 42.96C216.349 43.5867 216.402 44.1933 216.402 44.78C216.402 45.6867 216.255 46.4267 215.962 47C215.669 47.56 215.255 47.9933 214.722 48.3C214.202 48.6067 213.575 48.82 212.842 48.94C212.109 49.0467 211.302 49.1 210.422 49.1ZM215.362 53.74C214.975 53.74 214.642 53.6 214.362 53.32C214.095 53.0533 213.962 52.7333 213.962 52.36C213.962 51.9733 214.095 51.64 214.362 51.36C214.642 51.08 214.975 50.94 215.362 50.94C215.735 50.94 216.055 51.08 216.322 51.36C216.589 51.64 216.722 51.9733 216.722 52.36C216.722 52.7333 216.589 53.0533 216.322 53.32C216.055 53.6 215.735 53.74 215.362 53.74ZM211.902 53.74C211.515 53.74 211.182 53.6 210.902 53.32C210.635 53.0533 210.502 52.7333 210.502 52.36C210.502 51.9733 210.635 51.64 210.902 51.36C211.182 51.08 211.515 50.94 211.902 50.94C212.275 50.94 212.595 51.08 212.862 51.36C213.129 51.64 213.262 51.9733 213.262 52.36C213.262 52.7333 213.129 53.0533 212.862 53.32C212.595 53.6 212.275 53.74 211.902 53.74ZM221.969 46.3C222.569 46.3 223.029 46.2467 223.349 46.14C223.669 46.0333 223.889 45.8933 224.009 45.72C224.129 45.5467 224.189 45.36 224.189 45.16C224.189 44.84 224.096 44.4667 223.909 44.04C223.736 43.6133 223.516 43.1667 223.249 42.7C222.983 42.2333 222.703 41.7867 222.409 41.36C222.129 40.9333 221.876 40.56 221.649 40.24L224.029 38.66C224.603 39.4333 225.096 40.2 225.509 40.96C225.923 41.7067 226.256 42.4 226.509 43.04C226.776 43.68 226.963 44.2267 227.069 44.68C227.176 45.1067 227.336 45.44 227.549 45.68C227.776 45.9067 228.036 46.0667 228.329 46.16C228.623 46.2533 228.916 46.3 229.209 46.3C229.716 46.3 230.076 46.4333 230.289 46.7C230.516 46.9533 230.629 47.2733 230.629 47.66C230.629 48.0733 230.489 48.42 230.209 48.7C229.943 48.9667 229.543 49.1 229.009 49.1C228.423 49.1 227.909 49.02 227.469 48.86C227.029 48.7 226.656 48.4467 226.349 48.1C226.043 47.7533 225.783 47.3133 225.569 46.78L226.789 47.04C226.683 47.4133 226.436 47.76 226.049 48.08C225.676 48.3867 225.176 48.64 224.549 48.84C223.936 49.0267 223.209 49.12 222.369 49.12C221.969 49.12 221.523 49.0867 221.029 49.02C220.549 48.9533 220.069 48.8533 219.589 48.72C219.123 48.5867 218.696 48.4133 218.309 48.2L219.289 45.66C219.783 45.8733 220.256 46.0333 220.709 46.14C221.176 46.2467 221.596 46.3 221.969 46.3Z" fill="#5955B3"/>
</svg>
