<svg width="55" height="56" viewBox="0 0 55 56" fill="none" xmlns="http://www.w3.org/2000/svg">
<rect width="55" height="56" rx="8" fill="#6663CF"/>
<path d="M18.3314 7.00037L36.6647 49.0004M17.873 49.0004C14.0227 49.0004 12.0975 49.0004 10.6269 48.2374C9.33325 47.5663 8.28151 46.4954 7.62238 45.1783C6.87305 43.6809 6.87305 41.7207 6.87305 37.8004V18.2004C6.87305 14.28 6.87305 12.3198 7.62238 10.8224C8.28151 9.5053 9.33325 8.43443 10.6269 7.76332C12.0975 7.00037 14.0227 7.00037 17.873 7.00037L19.9997 10.8224L37.1231 7.00037C40.9734 7.00037 42.8986 7.00037 44.3692 7.76332C45.6628 8.43443 46.7146 9.5053 47.3737 10.8224C48.123 12.3198 48.1231 14.28 48.1231 18.2004V37.8004C48.1231 41.7207 48.123 43.6809 47.3737 45.1783C46.7146 46.4954 45.6628 47.5663 44.3692 48.2374C42.8986 49.0004 40.9734 49.0004 37.123 49.0004L33.609 42L17.873 49.0004Z" stroke="white" stroke-width="2" stroke-linecap="round" stroke-linejoin="round"/>
<path d="M42.4618 18.1172V13.9996M39.2265 39.1588V35.0412M40.4397 16.0584H44.4839M37.2044 37.1H41.2486M32.7559 13.176L32.1214 14.4681C31.9067 14.9054 31.7993 15.124 31.6559 15.3135C31.5286 15.4816 31.3806 15.6323 31.2155 15.7619C31.0294 15.9079 30.8147 16.0172 30.3852 16.2359L29.1162 16.8819L30.3852 17.5279C30.8147 17.7466 31.0294 17.8559 31.2155 18.0019C31.3806 18.1315 31.5286 18.2822 31.6559 18.4504C31.7993 18.6398 31.9067 18.8585 32.1214 19.2957L32.7559 20.5878L33.3904 19.2957C33.6051 18.8585 33.7125 18.6398 33.8559 18.4504C33.9832 18.2822 34.1312 18.1315 34.2964 18.0019C34.4824 17.8559 34.6972 17.7466 35.1266 17.5279L36.3956 16.8819L35.1266 16.2359C34.6972 16.0172 34.4824 15.9079 34.2964 15.7619C34.1312 15.6323 33.9832 15.4816 33.8559 15.3135C33.7125 15.124 33.6051 14.9054 33.3904 14.4681L32.7559 13.176ZM38.4177 22.9779L37.6484 24.5444C37.4337 24.9817 37.3263 25.2003 37.1829 25.3898C37.0556 25.5579 36.9075 25.7086 36.7424 25.8382C36.5563 25.9843 36.3416 26.0936 35.9121 26.3122L34.3736 27.0955L35.9121 27.8788C36.3416 28.0974 36.5563 28.2068 36.7424 28.3528C36.9075 28.4824 37.0556 28.6331 37.1829 28.8012C37.3263 28.9907 37.4337 29.2093 37.6484 29.6466L38.4177 31.2132L39.187 29.6466C39.4017 29.2093 39.5091 28.9907 39.6525 28.8012C39.7798 28.6331 39.9278 28.4824 40.0929 28.3528C40.279 28.2068 40.4937 28.0974 40.9232 27.8788L42.4618 27.0955L40.9232 26.3122C40.4937 26.0936 40.279 25.9843 40.0929 25.8382C39.9278 25.7087 39.7798 25.5579 39.6525 25.3898C39.5091 25.2003 39.4017 24.9817 39.187 24.5444L38.4177 22.9779Z" stroke="white" stroke-linecap="round" stroke-linejoin="round"/>
<path d="M16.2487 22.1954C16.1431 22.3182 16.0497 22.4567 15.9717 22.6099C15.4586 23.6178 15.8069 24.8796 16.7496 25.4281C17.6924 25.9766 18.8726 25.6043 19.3857 24.5964C19.4721 24.4266 19.5341 24.2496 19.5729 24.0701M16.2487 22.1954C17.1076 21.8645 18.9749 21.7761 19.5729 24.0701M16.2487 22.1954C16.4292 21.9856 16.6453 21.8215 16.8814 21.7082M19.5729 24.0701C19.6666 23.6368 19.6254 23.1884 19.4672 22.79M16.8814 21.7082C17.4162 21.4515 18.0531 21.4555 18.6077 21.7782C19.0085 22.0114 19.3018 22.3734 19.4672 22.79M16.8814 21.7082C17.3878 21.6421 18.6141 21.7659 19.4672 22.79" stroke="white" stroke-linecap="round"/>
<path d="M15.0869 29.2887C16.2388 29.2887 18.8018 29.1274 19.8385 28.4821C21.1344 27.6755 12.0632 43.4043 20.2704 40.5812" stroke="white" stroke-width="2" stroke-linecap="round"/>
</svg>
