<svg width="26" height="21" viewBox="0 0 26 21" fill="none" xmlns="http://www.w3.org/2000/svg">
<g clip-path="url(#clip0_104_423)">
<path d="M6.88986 12.1252L1.47374 10.4229C1.47374 10.4229 0.834335 10.1694 1.0412 9.58986C1.07881 9.4631 1.17284 9.37255 1.43613 9.19146C2.63971 8.39464 23.646 1.11464 23.646 1.11464C23.646 1.11464 24.2478 0.915439 24.5863 1.04221C24.7555 1.09653 24.8496 1.16897 24.9436 1.40439C24.9812 1.49494 25 1.67604 25 1.85713C25 1.9839 24.9812 2.11066 24.9624 2.30987C24.8307 4.30191 21.0131 19.1335 21.0131 19.1335C21.0131 19.1335 20.7875 20.0028 19.96 20.039C19.6591 20.0571 19.3018 19.9847 18.8693 19.6225C17.2519 18.2824 11.6854 14.6786 10.463 13.8999C10.3878 13.8637 10.369 13.7913 10.369 13.7369C10.3502 13.6464 10.4442 13.5558 10.4442 13.5558C10.4442 13.5558 20.0243 5.78158 20.2688 4.91232C20.2876 4.83989 20.2124 4.80367 20.1184 4.83989C19.479 5.07531 8.43195 11.3284 7.20956 12.089C7.09672 12.1614 6.88986 12.1252 6.88986 12.1252Z" fill="#5955B3"/>
</g>
<defs>
<clipPath id="clip0_104_423">
<rect width="26" height="21" fill="white"/>
</clipPath>
</defs>
</svg>
